<svg xmlns="http://www.w3.org/2000/svg" width="326.187" height="312.561" viewBox="0 0 326.187 312.561"><defs><style>.a{fill:#e0e0e0;}.b{fill:#fafafa;}.c{fill:#ebebeb;}.d{fill:#f5f5f5;}.e{fill:#fff;}.f{fill:none;stroke:#fbfbfb;stroke-miterlimit:10;stroke-width:0.25px;}.g{fill:#263238;}.h{fill:#0894fe;}.i{opacity:0.24;}.j{fill:#0048cd;}.k{opacity:0.3;}.l{fill:#455a64;}.m{fill:#f2f2f2;}.n{fill:#c4c9ce;}.o{fill:#2680eb;}.p{fill:#0a437d;}</style></defs><g transform="translate(-38.38 -40.686)"><g transform="translate(45.142 40.685)"><g transform="translate(36.809 275.18)"><g transform="translate(0.184)"><rect class="a" width="5.674" height="42.469" transform="translate(0 5.674) rotate(-90)"/><g transform="translate(5.519 0.235)"><path class="b" d="M103.968,405.8a13.364,13.364,0,0,1,0,5.316,13.364,13.364,0,0,1,0-5.316Z" transform="translate(-103.701 -405.803)"/></g><g transform="translate(4.594 0.12)"><path class="b" d="M102.742,405.65a13.364,13.364,0,0,1,0,5.316,13.364,13.364,0,0,1,0-5.316Z" transform="translate(-102.475 -405.65)"/></g><g transform="translate(38.918 0.235)"><path class="b" d="M148.245,405.8a13.328,13.328,0,0,1,0,5.316,13.4,13.4,0,0,1,0-5.316Z" transform="translate(-147.979 -405.803)"/></g><g transform="translate(37.993 0.12)"><path class="b" d="M147.02,405.65a13.364,13.364,0,0,1,0,5.316,13.366,13.366,0,0,1,0-5.316Z" transform="translate(-146.753 -405.65)"/></g><g transform="translate(10.986 2.742)"><path class="b" d="M132.676,409.393c0,.148-4.865.267-10.863.267s-10.864-.119-10.864-.267,4.864-.267,10.864-.267S132.676,409.246,132.676,409.393Z" transform="translate(-110.949 -409.126)"/></g></g><g transform="translate(0 25.545)"><rect class="a" width="11.347" height="42.469" transform="translate(0 11.347) rotate(-90)"/><g transform="translate(0.106 0.957)"><path class="b" d="M139.189,447.823a.936.936,0,0,1-.23.133c-.156.081-.393.19-.708.324a12.33,12.33,0,0,1-2.879.824,7.506,7.506,0,0,1-4.673-.663,6.221,6.221,0,0,1-2.219-2.011,4.677,4.677,0,0,1-.772-3.269,3.444,3.444,0,0,1,.781-1.69,2.234,2.234,0,0,1,1.792-.813,2.57,2.57,0,0,1,1.8.971,3.518,3.518,0,0,1,.822,1.935,5.153,5.153,0,0,1-1.465,4.022,6.462,6.462,0,0,1-4.081,1.994,10.84,10.84,0,0,1-4.738-.588,8.743,8.743,0,0,1-4.139-2.782,4.548,4.548,0,0,1-.965-2.45,3.177,3.177,0,0,1,.9-2.549,2.065,2.065,0,0,1,1.329-.583,2.433,2.433,0,0,1,1.388.391,3.688,3.688,0,0,1,1.563,2.289,5.346,5.346,0,0,1-1.675,5,8.359,8.359,0,0,1-4.781,1.946,11.766,11.766,0,0,1-4.957-.489,6.844,6.844,0,0,1-3.77-2.931,5.019,5.019,0,0,1-.473-4.508,2.37,2.37,0,0,1,1.733-1.466,2.739,2.739,0,0,1,2.139.517,3.543,3.543,0,0,1,1.012,3.823,6.607,6.607,0,0,1-2.141,3.015,9.636,9.636,0,0,1-5.824,2.263,9.4,9.4,0,0,1-7.02-2.832,6.924,6.924,0,0,1-.508-.591.939.939,0,0,1-.149-.22,10.8,10.8,0,0,0,3.158,2.408,9.237,9.237,0,0,0,4.507.935,9.37,9.37,0,0,0,5.592-2.251,6.244,6.244,0,0,0,1.991-2.845,3.129,3.129,0,0,0-.883-3.353,2.3,2.3,0,0,0-1.785-.421,1.9,1.9,0,0,0-1.389,1.205,4.556,4.556,0,0,0,.464,4.067,6.354,6.354,0,0,0,3.514,2.7,11.306,11.306,0,0,0,4.735.45,7.85,7.85,0,0,0,4.48-1.819,4.825,4.825,0,0,0,1.512-4.485,3.153,3.153,0,0,0-1.325-1.957,1.626,1.626,0,0,0-2.071.125,2.66,2.66,0,0,0-.742,2.127,4.031,4.031,0,0,0,.855,2.17,8.254,8.254,0,0,0,3.886,2.614,10.375,10.375,0,0,0,4.515.582,5.984,5.984,0,0,0,3.8-1.827,4.7,4.7,0,0,0,1.368-3.652,2.712,2.712,0,0,0-2.2-2.543,1.83,1.83,0,0,0-1.474.665,3.07,3.07,0,0,0-.7,1.491,4.328,4.328,0,0,0,.685,3.02,5.932,5.932,0,0,0,2.078,1.935,7.356,7.356,0,0,0,4.5.719,13.527,13.527,0,0,0,2.869-.718C138.851,447.946,139.18,447.8,139.189,447.823Z" transform="translate(-96.282 -440.625)"/></g></g><g transform="translate(3.793 5.637)"><g transform="translate(0 0.201)"><rect class="c" width="19.687" height="38.676" transform="translate(0 19.687) rotate(-90)"/></g><g transform="translate(6.16 0.877)"><path class="a" d="M109.6,414.126a85.346,85.346,0,0,1,.267,9.528,85.353,85.353,0,0,1-.267,9.529,85.131,85.131,0,0,1-.267-9.529A85.124,85.124,0,0,1,109.6,414.126Z" transform="translate(-109.335 -414.126)"/></g><g transform="translate(9.091 0.632)"><path class="a" d="M113.488,413.8a82.863,82.863,0,0,1,.268,9.406,82.841,82.841,0,0,1-.268,9.406,83.166,83.166,0,0,1-.267-9.406A83.188,83.188,0,0,1,113.488,413.8Z" transform="translate(-113.221 -413.802)"/></g><g transform="translate(34.037)"><path class="a" d="M146.559,412.964a91.856,91.856,0,0,1,.268,9.9,91.861,91.861,0,0,1-.268,9.906,92.222,92.222,0,0,1-.267-9.906A92.216,92.216,0,0,1,146.559,412.964Z" transform="translate(-146.292 -412.964)"/></g><g transform="translate(30.591 0.266)"><path class="a" d="M141.991,413.317a87.535,87.535,0,0,1,.267,9.65,87.542,87.542,0,0,1-.267,9.651,87.321,87.321,0,0,1-.267-9.651A87.314,87.314,0,0,1,141.991,413.317Z" transform="translate(-141.724 -413.317)"/></g></g></g><g transform="translate(235.493 183.943)"><g transform="translate(39.345 52.124)"><path class="c" d="M416.5,355.613a21.246,21.246,0,0,1,13.182-1.6c2.391.4,4.884,1.111,6.512,2.907s1.935,4.957.067,6.5a6.239,6.239,0,0,1-4.106,1.042c-3.485-.041-7.351-.655-10.135,1.442-1.588,1.2-2.645,3.185-4.544,3.773a4.49,4.49,0,0,1-4.939-2.2,7.671,7.671,0,0,1-.559-5.662A8.644,8.644,0,0,1,416.5,355.613Z" transform="translate(-411.697 -353.639)"/></g><g transform="translate(32.652)"><path class="c" d="M405.139,320.9c2.452,3.5,7.217,2.342,9.426.205s3.143-5.235,3.993-8.189c1.942-6.75,3.9-13.83,2.456-20.7a11.511,11.511,0,0,0-2.644-5.629,6.01,6.01,0,0,0-5.694-1.895c-2.4.635-3.9,2.988-4.975,5.227a49.352,49.352,0,0,0-4.877,21.178c-.011,3.412.391,6.989,2.315,9.805" transform="translate(-402.824 -284.538)"/></g><g transform="translate(0 11.267)"><path class="c" d="M387.772,329.6c2.662-3.159,3.167-7.766,1.982-11.724A22.6,22.6,0,0,0,382.81,307.8a37.381,37.381,0,0,0-12.436-7.337,13.26,13.26,0,0,0-5.592-.95,5.869,5.869,0,0,0-4.693,2.84c-1.309,2.5-.054,5.523,1.3,7.993a94.813,94.813,0,0,0,8.168,12.437c2.448,3.156,5.252,6.269,8.983,7.7s7.607,1.259,9.584-1.328" transform="translate(-359.537 -299.474)"/></g><g transform="translate(34.756 56.986)"><path class="a" d="M405.658,392.284a7.581,7.581,0,0,0,.222-1.591c.112-1.158.254-2.612.422-4.342a62.68,62.68,0,0,1,.977-6.369,49.2,49.2,0,0,1,2.315-7.517,27.7,27.7,0,0,1,3.839-6.8,14.337,14.337,0,0,1,4.853-4.034,13.588,13.588,0,0,1,4.088-1.273,7.634,7.634,0,0,0,1.584-.229,7.4,7.4,0,0,0-1.613-.025,12.372,12.372,0,0,0-4.261,1.109,14.313,14.313,0,0,0-5.12,4.07,27.081,27.081,0,0,0-3.979,6.939,46,46,0,0,0-2.3,7.64,53.771,53.771,0,0,0-.846,6.45c-.138,1.844-.19,3.336-.215,4.369A7.451,7.451,0,0,0,405.658,392.284Z" transform="translate(-405.614 -360.085)"/></g><g transform="translate(34.756 14.069)"><path class="a" d="M405.958,374.965a3.16,3.16,0,0,0,.042-.738c0-.554,0-1.254-.005-2.111-.005-1.832,0-4.484.094-7.757.162-6.548.726-13.6,1.815-23.531,1.032-9.343,2.416-20.216,3.876-27.284.313-1.608.628-3.055.926-4.322s.525-2.365.758-3.25l.494-2.052a3.153,3.153,0,0,0,.129-.729,3.1,3.1,0,0,0-.256.692c-.161.531-.364,1.2-.613,2.022-.272.878-.551,1.966-.868,3.23s-.68,2.7-1.023,4.31a239.491,239.491,0,0,0-4.075,25.317c-1.091,9.957-1.583,19.022-1.626,25.587-.039,3.282.031,5.939.115,7.772.052.858.1,1.555.129,2.11A3.123,3.123,0,0,0,405.958,374.965Z" transform="translate(-405.613 -303.19)"/></g><g transform="translate(11.755 19.415)"><path class="a" d="M398.51,359.221a14.054,14.054,0,0,0-.016-2.2c-.081-1.417-.276-3.466-.675-5.975a78.851,78.851,0,0,0-1.943-8.706,71.354,71.354,0,0,0-3.64-10.3,54.88,54.88,0,0,0-10.691-16.647,27.042,27.042,0,0,0-2.515-2.338c-.386-.326-.727-.651-1.074-.909l-.976-.673a14.136,14.136,0,0,0-1.856-1.189,65.839,65.839,0,0,1,6.086,5.43A57.822,57.822,0,0,1,391.633,332.3a81.373,81.373,0,0,1,3.661,10.206,88.47,88.47,0,0,1,2.068,8.619c.456,2.484.72,4.512.878,5.916A14.148,14.148,0,0,0,398.51,359.221Z" transform="translate(-375.12 -310.277)"/></g><g transform="translate(17.074 96.547)"><path class="c" d="M382.172,412.53l1.752,24H414.76l1.752-24Z" transform="translate(-382.172 -412.53)"/></g><g transform="translate(14.095 87.086)"><rect class="c" width="40.998" height="9.461"/></g><g transform="translate(14.095 119.631)"><path class="a" d="M378.223,443.133v2.622h40.32v-2.622Z" transform="translate(-378.223 -443.133)"/></g><g transform="translate(16.022 121.963)"><path class="a" d="M382.665,450.841l-1.888-4.616H417.7l-2.2,4.616Z" transform="translate(-380.777 -446.225)"/></g><g transform="translate(17.594 101.02)"><path class="d" d="M416.109,421.832a.993.993,0,0,1-.144.22l-.461.611-1.8,2.3-.08.1-.078-.107-4.413-6.1h.253l-4.345,6.152-.136.193-.152-.182-5.154-6.13.3,0-.284.356-4.607,5.777-.154.192-.142-.2-4.347-6.151.253.012-5.354,6.1-.1.109-.072-.122-1.676-2.816-.431-.75a1.207,1.207,0,0,1-.131-.268,1.173,1.173,0,0,1,.18.238l.476.722,1.76,2.765-.167-.014,5.268-6.175.133-.155.12.167,4.386,6.124-.3-.008,4.6-5.785.284-.356.146-.184.151.18c1.8,2.155,3.54,4.231,5.138,6.143l-.288.011,4.388-6.122.129-.179.125.179,4.321,6.17-.158,0,1.869-2.24.5-.579C416.039,421.89,416.1,421.827,416.109,421.832Z" transform="translate(-382.861 -418.46)"/></g><g transform="translate(17.331 96.196)"><path class="d" d="M417.024,412.258c0,.106-7.727.192-17.255.192s-17.257-.086-17.257-.192,7.725-.192,17.257-.192S417.024,412.152,417.024,412.258Z" transform="translate(-382.512 -412.066)"/></g></g><g transform="translate(0 15.507)"><g transform="translate(46.632)"><path class="a" d="M174.066,76.027a.584.584,0,0,1-.176-.054l-.5-.2-1.9-.792L164.516,72l-22.937-9.992-.794-.349h.165L118.475,71.27l-6.8,2.857-1.854.757a4.526,4.526,0,0,1-.657.238,4.4,4.4,0,0,1,.624-.314l1.824-.827L118.36,71l22.425-9.725.083-.036.083.037.8.348,22.887,10.1,6.919,3.106,1.873.864.483.234A.6.6,0,0,1,174.066,76.027Z" transform="translate(-109.164 -61.242)"/></g><g transform="translate(0 11.492)"><rect class="a" width="147.314" height="110.302"/></g><g transform="translate(5.15 16.62)"><rect class="b" width="137.568" height="100.64"/></g><g transform="translate(35.536 60.591)"><path class="a" d="M94.454,141.568s.143,16.894,1,22.049l21.19-1s-1.862-16.608-1.146-21.046Z" transform="translate(-94.454 -141.568)"/><g transform="translate(5.692 2.366)"><path class="e" d="M106.745,144.728a.285.285,0,0,1,.078-.008l.229-.009a5.181,5.181,0,0,1,.882.044,4.846,4.846,0,0,1,1.347.4,4.418,4.418,0,0,1,1.466,1.16,5.1,5.1,0,0,1,1.016,2.04,4.927,4.927,0,0,1-.223,2.618,7.754,7.754,0,0,1-.6,1.308,13.955,13.955,0,0,0-.679,1.322,11.335,11.335,0,0,0-.856,3.007l-.009.07-.069,0-2.092.034-2.194.034-.078,0,0-.079a6.276,6.276,0,0,0-1.018-2.9c-.255-.434-.533-.841-.794-1.253a12.564,12.564,0,0,1-.745-1.214,4.092,4.092,0,0,1-.332-2.581,5.507,5.507,0,0,1,.818-2.111,4.1,4.1,0,0,1,1.379-1.242,5.194,5.194,0,0,1,1.3-.5,5.637,5.637,0,0,1,.865-.141c.1-.005.177-.009.228-.008a.235.235,0,0,1,.077.005.436.436,0,0,1-.077.01l-.225.023a6.37,6.37,0,0,0-.854.167,5.282,5.282,0,0,0-1.274.52,4.022,4.022,0,0,0-1.333,1.23,5.425,5.425,0,0,0-.781,2.072,3.972,3.972,0,0,0,.335,2.5,12.555,12.555,0,0,0,.742,1.2c.259.405.542.816.8,1.253a6.39,6.39,0,0,1,1.045,2.971l-.081-.078,2.2-.035,2.092-.033-.078.072a11.393,11.393,0,0,1,.875-3.053,13.728,13.728,0,0,1,.689-1.332,7.689,7.689,0,0,0,.59-1.282,4.813,4.813,0,0,0,.233-2.547,5.019,5.019,0,0,0-.975-2,4.367,4.367,0,0,0-1.421-1.152,4.912,4.912,0,0,0-1.319-.419,5.933,5.933,0,0,0-.873-.071l-.229-.006A.347.347,0,0,1,106.745,144.728Z" transform="translate(-102 -144.705)"/><g transform="translate(2.185 4.043)"><path class="e" d="M108.543,157.814s-.006-.023-.014-.067l-.032-.2c-.027-.176-.066-.43-.115-.757-.1-.657-.237-1.61-.331-2.795-.023-.3-.044-.607-.055-.932s-.025-.662-.006-1.013a2.843,2.843,0,0,1,.239-1.06,1.609,1.609,0,0,1,.808-.809,1.082,1.082,0,0,1,1.153.219.805.805,0,0,1,.247.58,1.031,1.031,0,0,1-.216.607,1.392,1.392,0,0,1-.51.412,2.7,2.7,0,0,1-.63.209,7.6,7.6,0,0,1-1.337.155,7.745,7.745,0,0,1-1.346-.065,2.543,2.543,0,0,1-.637-.184,1.641,1.641,0,0,1-.534-.38,1.24,1.24,0,0,1-.308-.566.96.96,0,0,1,.076-.628.855.855,0,0,1,.443-.431.765.765,0,0,1,.6.029,1.137,1.137,0,0,1,.45.382,1.546,1.546,0,0,1,.225.527,6.389,6.389,0,0,1,.107,1.081l.1,1.941c.06,1.184.108,2.144.142,2.81.015.33.026.587.035.764l.008.2c0,.044,0,.068,0,.068s0-.023-.008-.067-.008-.114-.014-.2c-.011-.178-.027-.434-.048-.764-.039-.666-.094-1.625-.163-2.809-.033-.593-.07-1.242-.109-1.94a6.39,6.39,0,0,0-.109-1.07,1.5,1.5,0,0,0-.217-.507,1.085,1.085,0,0,0-.427-.361.7.7,0,0,0-.555-.026.787.787,0,0,0-.409.4.9.9,0,0,0-.07.587,1.167,1.167,0,0,0,.293.536,1.905,1.905,0,0,0,1.134.543,7.734,7.734,0,0,0,1.334.064,7.53,7.53,0,0,0,1.325-.154,2.66,2.66,0,0,0,.615-.2,1.318,1.318,0,0,0,.487-.392.965.965,0,0,0,.2-.569.737.737,0,0,0-.227-.535,1.021,1.021,0,0,0-1.087-.208,1.549,1.549,0,0,0-.778.778,2.773,2.773,0,0,0-.236,1.038c-.02.347-.008.685,0,1.008s.03.634.051.93c.089,1.184.223,2.137.31,2.8l.1.758.026.2C108.542,157.791,108.543,157.814,108.543,157.814Z" transform="translate(-104.897 -150.065)"/></g><g transform="translate(3.028 11.704)"><path class="e" d="M106.028,160.421c.01.01.028.262.054.7l.1,1.835-.017-.044,1.426,1.644-.073-.031,1.649-.094-.069.035.821-1,.412-.5-.022.064c-.022-.966-.043-1.882-.063-2.716l.091.085-3.081.034h-.89a2.449,2.449,0,0,1-.332-.012,1.482,1.482,0,0,1,.293-.028l.869-.045,3.136-.124.087,0,0,.089c.025.834.053,1.749.082,2.716v.036l-.023.029-.411.5-.824,1-.027.033-.042,0-1.65.081-.045,0-.028-.033-1.4-1.667-.017-.02v-.025q-.01-1.1-.018-1.883A5.571,5.571,0,0,1,106.028,160.421Z" transform="translate(-106.014 -160.221)"/></g><g transform="translate(3.183 13.761)"><path class="e" d="M110.335,163.477a.921.921,0,0,1-.156-.066c-.1-.045-.244-.106-.428-.169a4.172,4.172,0,0,0-2.962.09c-.18.075-.321.144-.416.2a.949.949,0,0,1-.152.075.759.759,0,0,1,.14-.1,3.264,3.264,0,0,1,.411-.216,3.958,3.958,0,0,1,3-.091,3.311,3.311,0,0,1,.424.19A.7.7,0,0,1,110.335,163.477Z" transform="translate(-106.219 -162.948)"/></g><g transform="translate(3.182 13.101)"><path class="e" d="M110.334,162.6a.91.91,0,0,1-.157-.066c-.1-.044-.244-.106-.428-.169a4.168,4.168,0,0,0-2.963.091c-.18.074-.321.144-.416.195a.872.872,0,0,1-.152.075.808.808,0,0,1,.14-.1,3.427,3.427,0,0,1,.411-.216,3.959,3.959,0,0,1,3-.091,3.365,3.365,0,0,1,.424.19A.755.755,0,0,1,110.334,162.6Z" transform="translate(-106.218 -162.073)"/></g><g transform="translate(3.143 12.473)"><path class="e" d="M110.283,161.77a.949.949,0,0,1-.156-.066c-.1-.045-.244-.106-.428-.17a4.166,4.166,0,0,0-2.962.091c-.18.074-.321.144-.417.2a1.061,1.061,0,0,1-.152.075.708.708,0,0,1,.139-.1,3.562,3.562,0,0,1,.412-.216,3.958,3.958,0,0,1,3-.091,3.534,3.534,0,0,1,.424.19A.811.811,0,0,1,110.283,161.77Z" transform="translate(-106.167 -161.241)"/></g></g></g><g transform="translate(11.936 32.972)"><path class="c" d="M63.168,104.953s.143,16.9,1,22.049l21.19-1s-1.862-16.609-1.146-21.047Z" transform="translate(-63.168 -104.953)"/><g transform="translate(3.634 7.049)"><path class="e" d="M82.2,114.345a61.177,61.177,0,0,1-7.1.635,61.217,61.217,0,0,1-7.122.22,61.155,61.155,0,0,1,7.1-.635A61.213,61.213,0,0,1,82.2,114.345Z" transform="translate(-67.985 -114.298)"/></g><g transform="translate(3.639 10.627)"><path class="e" d="M82.212,119.089a61.175,61.175,0,0,1-7.1.635,61.233,61.233,0,0,1-7.123.22,61.155,61.155,0,0,1,7.1-.635A61.2,61.2,0,0,1,82.212,119.089Z" transform="translate(-67.992 -119.042)"/></g><g transform="translate(6.155 14.112)"><path class="e" d="M79.429,123.738a20.026,20.026,0,0,1-4.038.451,20.013,20.013,0,0,1-4.063.036,19.965,19.965,0,0,1,4.039-.451A20.007,20.007,0,0,1,79.429,123.738Z" transform="translate(-71.328 -123.662)"/></g></g><g transform="translate(10.933 82.677)"><path class="c" d="M61.838,170.847s.143,16.894,1,22.049l21.19-1s-1.862-16.608-1.145-21.046Z" transform="translate(-61.838 -170.847)"/><g transform="translate(3.634 7.048)"><path class="e" d="M80.875,180.239a61.177,61.177,0,0,1-7.1.635,61.219,61.219,0,0,1-7.122.22,61.258,61.258,0,0,1,7.1-.634A61.328,61.328,0,0,1,80.875,180.239Z" transform="translate(-66.655 -180.191)"/></g><g transform="translate(3.64 10.627)"><path class="e" d="M80.882,184.983a61.152,61.152,0,0,1-7.1.635,61.219,61.219,0,0,1-7.122.22,61.515,61.515,0,0,1,7.1-.635A61.406,61.406,0,0,1,80.882,184.983Z" transform="translate(-66.663 -184.935)"/></g><g transform="translate(6.155 14.112)"><path class="e" d="M78.1,189.631a19.943,19.943,0,0,1-4.038.451,20.013,20.013,0,0,1-4.064.036,20.031,20.031,0,0,1,4.039-.451A20,20,0,0,1,78.1,189.631Z" transform="translate(-69.998 -189.555)"/></g></g><g transform="translate(63.276 33.699)"><g transform="translate(5.565 3.751)"><path class="c" d="M138.607,110.89l2.1,48.728,60.831.734-2.731-48.818Z" transform="translate(-138.607 -110.89)"/></g><g transform="translate(4.653 3.194)"><g transform="translate(0.208 0.208)"><rect class="d" width="60.426" height="45.628"/></g><path class="a" d="M198.031,155.987s-.012-.294-.019-.846-.011-1.377-.019-2.435c-.011-2.139-.025-5.256-.044-9.233-.022-7.956-.052-19.341-.089-33.114l.17.17-60.421.037H137.6l.208-.207c-.008,16.409-.014,31.948-.02,45.627l-.188-.187,43.587.094,12.4.05,3.295.023.852.011c.192,0,.3.011.3.011s-.089.007-.274.011l-.832.011-3.258.023-12.353.05-43.709.094h-.187v-.188c-.006-13.68-.013-29.218-.02-45.627v-.208h.213l60.421.037h.171v.17c-.037,13.818-.067,25.239-.088,33.221-.019,3.96-.034,7.063-.044,9.194q-.014,1.565-.02,2.4C198.043,155.718,198.031,155.987,198.031,155.987Z" transform="translate(-137.397 -110.151)"/><g transform="translate(7.243 9.663)"><g transform="translate(0.254 0.211)"><rect class="d" width="24.495" height="30.828"/></g><path class="a" d="M171.748,154a1.107,1.107,0,0,1-.011-.155l-.011-.439q-.008-.609-.023-1.686c-.011-1.489-.028-3.626-.049-6.324-.023-5.427-.055-13.106-.093-22.224l.186.186-24.493.022c-.049.044.391-.39.205-.2V125.3q0,1.06,0,2.111,0,2.1,0,4.154c0,2.737,0,5.409-.007,8-.01,5.178-.018,10.03-.026,14.435l-.172-.173,17.735.09,4.976.045,1.319.02c.3.006.465.019.465.019a3.443,3.443,0,0,1-.428.019l-1.286.02-4.938.045-17.843.089-.172,0V154c-.008-4.405-.017-9.258-.026-14.435,0-2.59,0-5.262-.007-8q0-2.054,0-4.154v-4.233c-.185.183.252-.26.21-.213l24.493.022h.187v.186c-.038,9.168-.07,16.888-.094,22.344l-.049,6.282q-.014,1.055-.022,1.65c0,.17-.008.306-.011.418A.522.522,0,0,1,171.748,154Z" transform="translate(-146.999 -122.961)"/></g><g transform="translate(8.208 2.612)"><g transform="translate(0.227 0.208)"><rect class="d" width="46.944" height="4.442"/></g><path class="a" d="M195.449,118.264a2.428,2.428,0,0,1-.016-.3c-.005-.216-.012-.5-.02-.861-.011-.772-.027-1.868-.048-3.276l.084.084c-7.917.073-25.962.124-46.941.124h0c.415-.415.115-.115.207-.207h0v2.258c0,.744,0,1.474,0,2.181l-.207-.207,33.274.088,9.987.061,2.718.029.712.014a2.024,2.024,0,0,1,.252.014,1.114,1.114,0,0,1-.223.014l-.686.014-2.67.029-9.939.062-33.425.088H148.3v-2.389c0-.372,0-.748,0-1.125v-1.134h0c.093-.093-.207.207.208-.209h0c20.979,0,39.025.051,46.941.124h.085v.084c-.021,1.429-.037,2.541-.048,3.324-.008.353-.014.631-.02.843A1.671,1.671,0,0,1,195.449,118.264Z" transform="translate(-148.279 -113.614)"/></g><g transform="translate(34.737 9.663)"><g transform="translate(0.254 0.211)"><rect class="d" width="20.388" height="18.58"/></g><path class="a" d="M204.09,141.753a2.966,2.966,0,0,1-.02-.36l-.02-1.008c-.011-.909-.026-2.182-.046-3.787-.022-3.269-.053-7.885-.091-13.425l.177.177-20.386.031c-.048.045.391-.392.206-.205v2.513q0,1.249,0,2.474,0,2.451-.005,4.793c-.006,3.117-.013,6.07-.018,8.8l-.183-.183,14.706.092,4.172.048,1.113.021a2.948,2.948,0,0,1,.4.021,2.159,2.159,0,0,1-.356.02l-1.077.022-4.131.048-14.823.092h-.182v-.183c-.006-2.727-.012-5.68-.019-8.8q0-2.339,0-4.793,0-1.225,0-2.474v-2.513c-.186.184.253-.256.21-.21L204.09,123h.178v.176c-.038,5.587-.069,10.241-.091,13.537-.019,1.589-.035,2.849-.046,3.747-.008.4-.015.726-.02.975A1.743,1.743,0,0,1,204.09,141.753Z" transform="translate(-183.448 -122.962)"/></g><g transform="translate(34.78 31.113)"><g transform="translate(0.211 0.254)"><rect class="d" width="20.388" height="9.336"/></g><path class="a" d="M204.1,160.987a6.291,6.291,0,0,1-.032-.677l-.038-1.875c-.02-1.647-.048-3.953-.081-6.784l.151.151-20.386.057c-.187.186.251-.253.206-.207v1.223q0,.609,0,1.211,0,1.2,0,2.378c0,1.561-.005,3.075-.008,4.523l-.2-.2,14.579.094,4.248.054,1.147.025a2.986,2.986,0,0,1,.413.024,1.917,1.917,0,0,1-.365.024l-1.107.025-4.2.054-14.712.094-.2,0v-.2c0-1.448-.005-2.962-.008-4.523q0-1.172,0-2.378v-2.434c-.045.045.395-.395.21-.209l20.386.057h.153l0,.151c-.034,2.869-.061,5.206-.081,6.876-.016.767-.029,1.38-.038,1.841A4.35,4.35,0,0,1,204.1,160.987Z" transform="translate(-183.505 -151.397)"/></g><g transform="translate(7.496 9.927)"><g transform="translate(0.001 0)"><path class="e" d="M171.225,123.312c-7.582,10.474-16.307,20.3-23.889,30.775" transform="translate(-147.336 -123.312)"/></g><path class="a" d="M147.336,154.086a1.411,1.411,0,0,1,.2-.344l.64-.938c.56-.812,1.4-1.968,2.453-3.382,2.1-2.831,5.117-6.662,8.489-10.852s6.419-7.99,8.582-10.772l2.555-3.3.7-.892c.164-.2.256-.3.268-.295a1.469,1.469,0,0,1-.2.344l-.64.938c-.56.812-1.4,1.967-2.452,3.382-2.1,2.832-5.117,6.663-8.491,10.854s-6.418,7.988-8.58,10.77l-2.556,3.3-.7.892A1.473,1.473,0,0,1,147.336,154.086Z" transform="translate(-147.334 -123.311)"/></g><g transform="translate(7.496 9.873)"><g transform="translate(0.001 0.001)"><line class="e" x2="24.495" y2="30.828"/></g><path class="a" d="M171.831,154.069c-.09.071-5.646-6.772-12.409-15.284s-12.175-15.473-12.086-15.544,5.645,6.772,12.411,15.285S171.92,154,171.831,154.069Z" transform="translate(-147.335 -123.24)"/></g></g><g transform="translate(0 9.301)"><path class="a" d="M138.893,122.08a3.832,3.832,0,1,1-3.832-3.832A3.832,3.832,0,0,1,138.893,122.08Z" transform="translate(-131.229 -118.248)"/></g><g transform="translate(62.674)"><path class="a" d="M221.98,109.749a3.832,3.832,0,1,1-3.832-3.832A3.832,3.832,0,0,1,221.98,109.749Z" transform="translate(-214.316 -105.917)"/></g></g></g><g transform="translate(237.136 79.728)"><g transform="translate(2.22 0)"><rect class="a" width="44.16" height="64.009"/></g><g transform="translate(0.008 0)"><rect class="d" width="44.16" height="64.009"/></g><g transform="translate(5.375 6.813)"><g transform="translate(0.12 0.12)"><rect class="e" width="33.187" height="50.143"/></g><path class="a" d="M402.147,205.676s0-.084-.006-.245,0-.4-.007-.711c0-.63-.008-1.552-.014-2.75-.007-2.4-.017-5.9-.029-10.329-.013-8.842-.032-21.363-.054-36.108l.11.11-33.183.01h0l.12-.12c-.009,18.916-.017,36.357-.024,50.143l-.1-.1,24.156.051,6.673.024,1.752.011c.4,0,.606.01.606.01s-.2.007-.585.011l-1.733.011-6.652.024-24.216.051h-.1v-.1c-.007-13.786-.015-31.227-.024-50.143v-.12h.124l33.183.01h.111v.11c-.023,14.774-.041,27.32-.054,36.18-.013,4.413-.023,7.907-.03,10.3-.005,1.188-.01,2.1-.013,2.728,0,.3-.005.536-.007.7S402.147,205.676,402.147,205.676Z" transform="translate(-368.84 -155.413)"/></g><g transform="translate(37.143 7.268)"><path class="f" d="M410.956,156.016" transform="translate(-410.956 -156.016)"/></g><g transform="translate(38.277 0)"><path class="a" d="M418.474,146.382a7.633,7.633,0,0,1-.787,1.144c-.513.686-1.241,1.619-2.072,2.628s-1.607,1.9-2.183,2.538a7.536,7.536,0,0,1-.972.991,8.347,8.347,0,0,1,.843-1.1L415.43,150l2.124-2.581A8.229,8.229,0,0,1,418.474,146.382Z" transform="translate(-412.459 -146.381)"/></g><g transform="translate(38.849 56.914)"><g transform="translate(0.002 0.001)"><path class="e" d="M413.22,221.833a41.08,41.08,0,0,0,5.788,7.239" transform="translate(-413.22 -221.833)"/></g><path class="a" d="M419.007,229.072a6.62,6.62,0,0,1-1.009-.918,32.464,32.464,0,0,1-4.106-5.135,6.588,6.588,0,0,1-.673-1.187,9.235,9.235,0,0,1,.814,1.092c.487.683,1.171,1.618,1.969,2.617s1.561,1.871,2.12,2.5A9.146,9.146,0,0,1,419.007,229.072Z" transform="translate(-413.217 -221.832)"/></g><g transform="translate(0 56.82)"><g transform="translate(0.002 0.001)"><path class="e" d="M361.717,228.846l5.784-7.137" transform="translate(-361.717 -221.709)"/></g><path class="a" d="M367.5,221.709a87.859,87.859,0,0,1-5.784,7.137,88.287,88.287,0,0,1,5.784-7.137Z" transform="translate(-361.715 -221.708)"/></g><g transform="translate(0.007)"><path class="a" d="M361.725,146.382a79.585,79.585,0,0,1,5.427,6.861,39.814,39.814,0,0,1-2.808-3.357A39.843,39.843,0,0,1,361.725,146.382Z" transform="translate(-361.724 -146.381)"/></g><g transform="translate(17.23 17.114)"><rect class="a" width="11.112" height="31.551"/></g></g><g transform="translate(190.943)"><g transform="translate(76.071 11.729)"><rect class="a" width="6.321" height="31.455" transform="translate(0 0.034) rotate(-0.307)"/></g><g transform="translate(21.188 11.724)"><g transform="translate(0.119 0.087)"><rect class="c" width="16.37" height="17.365" transform="matrix(1, -0.005, 0.005, 1, 0, 0.088)"/></g><g transform="translate(16.412)"><rect class="d" width="16.37" height="17.365" transform="translate(0 0.088) rotate(-0.307)"/></g><g transform="translate(0 4.449)"><path class="a" d="M328.711,62.647q16.318.135,32.663-.15a.174.174,0,0,0,0-.348c-10.879-.06-21.785-.007-32.662.2a.149.149,0,0,0,0,.3Z" transform="translate(-328.566 -62.126)"/></g></g><g transform="translate(10.978 28.728)"><g transform="translate(0.124 0.159)"><rect class="c" width="29.742" height="14.151" transform="translate(0 0.159) rotate(-0.307)"/></g><g transform="translate(29.724)"><rect class="d" width="29.742" height="14.151" transform="translate(0 0.159) rotate(-0.307)"/></g><g transform="translate(0 3.558)"><path class="a" d="M315.175,84.182c19.758.224,39.585.023,59.342-.293a.174.174,0,0,0,0-.349c-19.759-.1-39.587-.093-59.341.343a.149.149,0,0,0,0,.3Z" transform="translate(-315.03 -83.487)"/></g></g><g transform="translate(0 43.197)"><rect class="a" width="115.228" height="5.07"/><g transform="translate(18.865 2.438)"><rect class="a" width="4.678" height="17.299"/></g><g transform="translate(88.693 2.438)"><rect class="a" width="4.678" height="17.299"/></g></g><g transform="translate(82.24)"><rect class="c" width="6.321" height="43.261" transform="matrix(1, -0.005, 0.005, 1, 0, 0.034)"/></g><g transform="translate(88.55 8.053)"><g transform="translate(0.066)"><rect class="d" width="9.822" height="35.059" transform="translate(0 0.053) rotate(-0.307)"/></g><g transform="translate(0 6.584)"><path class="a" d="M427.69,60.259a70.82,70.82,0,0,1-9.822,0,70.824,70.824,0,0,1,9.822,0Z" transform="translate(-417.868 -60.089)"/></g><g transform="translate(0 5.111)"><path class="a" d="M427.69,58.307a70.82,70.82,0,0,1-9.822,0,71.135,71.135,0,0,1,9.822,0Z" transform="translate(-417.868 -58.137)"/></g><g transform="translate(0 29.613)"><path class="a" d="M427.69,90.789a71.135,71.135,0,0,1-9.822,0,70.824,70.824,0,0,1,9.822,0Z" transform="translate(-417.868 -90.619)"/></g><g transform="translate(0 28.141)"><path class="a" d="M427.69,88.837a70.82,70.82,0,0,1-9.822,0,71.138,71.138,0,0,1,9.822,0Z" transform="translate(-417.868 -88.667)"/></g><g transform="translate(4.899 9.298)"><path class="a" d="M424.533,79.486c-.094,0-.171-3.537-.171-7.9s.076-7.9.171-7.9.17,3.536.17,7.9S424.627,79.486,424.533,79.486Z" transform="translate(-424.362 -63.687)"/></g></g><g transform="translate(98.479 16.662)"><rect class="c" width="10.692" height="26.462"/><g transform="translate(3.258 6.727)"><g transform="translate(0 8.707)"><path class="b" d="M437.739,87.4a2.294,2.294,0,0,1-2.389-2.38,2.066,2.066,0,0,1,.866-1.785l.243.333a1.72,1.72,0,0,0-.7,1.452,1.984,1.984,0,0,0,3.967,0,1.719,1.719,0,0,0-.7-1.452l.244-.333a2.088,2.088,0,0,1,.866,1.785A2.3,2.3,0,0,1,437.739,87.4Z" transform="translate(-435.35 -83.235)"/></g><g transform="translate(0 4.309)"><path class="b" d="M439.524,81.145l-.361-.207a2.74,2.74,0,0,0,.568-1.695c0-.992-.352-1.388-.884-1.388-1.37,0-.361,3.119-2.209,3.119-.712,0-1.289-.594-1.289-1.785a2.9,2.9,0,0,1,.459-1.614l.361.207a2.421,2.421,0,0,0-.424,1.415c0,.92.379,1.326.883,1.326,1.416,0,.415-3.12,2.209-3.12.767,0,1.29.658,1.29,1.857A2.953,2.953,0,0,1,439.524,81.145Z" transform="translate(-435.35 -77.404)"/></g><path class="b" d="M439.524,75.433l-.361-.207a2.74,2.74,0,0,0,.568-1.695c0-.991-.352-1.389-.884-1.389-1.37,0-.361,3.12-2.209,3.12-.712,0-1.289-.6-1.289-1.785a2.893,2.893,0,0,1,.459-1.614l.361.207a2.422,2.422,0,0,0-.424,1.416c0,.919.379,1.325.883,1.325,1.416,0,.415-3.119,2.209-3.119.767,0,1.29.658,1.29,1.857A2.953,2.953,0,0,1,439.524,75.433Z" transform="translate(-435.35 -71.692)"/></g></g><g transform="translate(83.491 5.569)"><circle class="a" cx="1.817" cy="1.817" r="1.817"/></g><g transform="translate(84.746 12.383)"><rect class="a" width="1.123" height="25.735"/></g></g></g><g transform="translate(39.126 352.275)"><path class="g" d="M364.809,453.956c0,.109-72.858.2-162.712.2-89.885,0-162.728-.087-162.728-.2s72.843-.2,162.728-.2C291.951,453.76,364.809,453.848,364.809,453.956Z" transform="translate(-39.369 -453.76)"/></g><g transform="translate(113.1 83.717)"><g transform="translate(0 0)"><g transform="translate(0 9.294)"><g transform="translate(0.173 0.139)"><path class="b" d="M151.631,110.238c-12.1,19.041-11.312,45.439,1.914,63.719,8.816,12.186,22.043,20.354,32.545,31.122s18.478,26.635,12.936,40.618c-5.642,14.235-22.169,20.026-34.544,29.042a65.291,65.291,0,0,0-15.749,89.18H277.286s22.582-43.038-6.452-75.835-44.626-33.336-43.551-54.842,16.13-28.5,24.733-36.562,50.541-26.883,25.807-86.442Z" transform="translate(-137.666 -110.238)"/></g><path class="g" d="M151.575,110.193s.747-.011,2.213-.017l6.517-.018,25.086-.035,92.376-.068h.1l.034.086a119.753,119.753,0,0,1,4.79,13.92,81.125,81.125,0,0,1,2.731,15.126,60.046,60.046,0,0,1-.815,15.967,51.311,51.311,0,0,1-5.811,15.522,56.586,56.586,0,0,1-4.842,7.026,65.509,65.509,0,0,1-5.922,6.336,87.368,87.368,0,0,1-6.722,5.69c-2.339,1.81-4.781,3.52-7.165,5.326-1.194.9-2.284,1.911-3.422,2.923-1.144.992-2.321,1.951-3.509,2.9-2.375,1.9-4.775,3.8-7.04,5.879A37.6,37.6,0,0,0,229.61,221.9a36.786,36.786,0,0,0-2.01,9.257c-.064.794-.17,1.588-.2,2.387s-.061,1.6-.023,2.4a27.343,27.343,0,0,0,.483,4.783,21.835,21.835,0,0,0,3.858,8.806,48.859,48.859,0,0,0,6.667,7.219c4.881,4.463,10.057,8.722,15.016,13.321q7.475,6.86,14.483,14.477a87.334,87.334,0,0,1,6.686,7.948,55.8,55.8,0,0,1,5.389,8.986,58.979,58.979,0,0,1,5.536,20.385,74.684,74.684,0,0,1-1.251,21.43,88.026,88.026,0,0,1-2.759,10.513,76.641,76.641,0,0,1-4.082,10.155l-.052.1h-3.431l-125.243-.008h-.1l-.055-.084a66.281,66.281,0,0,1-10.765-30.344A63.98,63.98,0,0,1,142.2,303,66.68,66.68,0,0,1,159.2,278.732a77.153,77.153,0,0,1,11.6-8.463c4.013-2.492,8.061-4.8,11.888-7.317a54.466,54.466,0,0,0,10.463-8.512,28.589,28.589,0,0,0,6.475-11.224,27.913,27.913,0,0,0,.511-12.528,40.8,40.8,0,0,0-3.973-11.518,56.319,56.319,0,0,0-6.471-9.829,78.3,78.3,0,0,0-7.83-8.169c-5.442-5.01-11.011-9.391-16.024-13.894-2.51-2.246-4.89-4.514-7.079-6.844a63.808,63.808,0,0,1-5.868-7.234,55.117,55.117,0,0,1-7.355-15.246,56.919,56.919,0,0,1-2.5-14.439c-.106-1.122-.063-2.224-.062-3.3s-.018-2.126.093-3.145q.119-1.531.23-2.985c.116-.964.275-1.9.405-2.808a53.627,53.627,0,0,1,5.042-16.009,21.556,21.556,0,0,1,1.163-2.242l.923-1.574c.495-.842.75-1.263.75-1.263l-.729,1.288-.9,1.577A21.975,21.975,0,0,0,148.8,115.3a53.971,53.971,0,0,0-4.975,16c-.127.909-.284,1.84-.4,2.8q-.107,1.451-.222,2.979c-.109,1.017-.074,2.065-.086,3.137s-.038,2.171.069,3.29a56.811,56.811,0,0,0,2.524,14.393,54.988,54.988,0,0,0,7.352,15.178,63.628,63.628,0,0,0,5.859,7.2c2.186,2.32,4.564,4.58,7.073,6.821,5.012,4.49,10.585,8.865,16.043,13.879a78.617,78.617,0,0,1,7.865,8.189,56.615,56.615,0,0,1,6.51,9.871,41.1,41.1,0,0,1,4.011,11.6,28.229,28.229,0,0,1-.508,12.663,28.9,28.9,0,0,1-6.536,11.351,54.728,54.728,0,0,1-10.517,8.57c-3.837,2.532-7.886,4.84-11.891,7.33a76.917,76.917,0,0,0-11.549,8.433,66.36,66.36,0,0,0-16.892,24.155,63.624,63.624,0,0,0-4.41,30.461,65.921,65.921,0,0,0,10.713,30.17l-.156-.083,125.243-.009h3.31l-.174.106a76.428,76.428,0,0,0,4.057-10.094,87.713,87.713,0,0,0,2.746-10.467,74.308,74.308,0,0,0,1.248-21.319,58.616,58.616,0,0,0-5.5-20.253,55.491,55.491,0,0,0-5.352-8.926,86.928,86.928,0,0,0-6.657-7.917q-6.979-7.6-14.457-14.457c-4.951-4.6-10.118-8.849-15.013-13.326a49.276,49.276,0,0,1-6.716-7.278A22.224,22.224,0,0,1,227.5,240.8a27.774,27.774,0,0,1-.487-4.846c-.038-.81.008-1.617.024-2.424s.137-1.605.2-2.406a37.171,37.171,0,0,1,2.034-9.344,37.96,37.96,0,0,1,10.659-15.28c2.278-2.09,4.687-3.995,7.06-5.892,1.188-.947,2.363-1.9,3.5-2.888,1.119-.994,2.239-2.03,3.441-2.935,2.4-1.813,4.833-3.518,7.168-5.322a86.977,86.977,0,0,0,6.7-5.664,65.272,65.272,0,0,0,5.895-6.3,56.218,56.218,0,0,0,4.817-6.98,50.978,50.978,0,0,0,5.784-15.42,59.753,59.753,0,0,0,.821-15.884,80.807,80.807,0,0,0-2.71-15.074,119.3,119.3,0,0,0-4.766-13.89l.128.086-92.321-.068-25.1-.036-6.533-.017C152.335,110.2,151.575,110.193,151.575,110.193Z" transform="translate(-137.436 -110.054)"/></g><g transform="translate(12.103 33.172)"><path class="h" d="M276.578,152.892c18.934,3.112-10.919,36.645-27.817,49.878-9.784,7.662-20.292,15.971-24.938,27.5-5.272,13.076-1.365,27.775-3.919,40.929a1.828,1.828,0,0,1-3.62-.384,142.515,142.515,0,0,0-1.536-25.765c-2.029-12.056-6.664-23.984-15.114-32.82-6.9-7.212-15.942-12-23.3-18.747-10.742-9.844-21.776-22.541-22.853-37.072,0,0,20.625-16.613,32.074-14.516,13.379,2.451,26.55,23.1,47.281,20.732C247.311,160.973,254.616,149.282,276.578,152.892Z" transform="translate(-153.481 -141.709)"/></g><g transform="translate(6.96 201.579)"><path class="h" d="M276.585,387.228c-.478-4.736-1.741-10.094-5.943-12.327-2.546-1.353-5.645-1.2-8.433-.47s-5.408,2-8.172,2.822a26.777,26.777,0,0,1-16.719-.529c-5.137-1.887-9.546-5.3-14.316-7.981s-10.354-4.68-15.665-3.358c-9.157,2.279-13.922,13.3-22.977,15.965-4.024,1.183-8.345.519-12.436-.408s-8.2-2.116-12.388-1.96a13.743,13.743,0,0,0-9,3.509l.024-.032c-.023.023-.044.049-.066.072a9.36,9.36,0,0,0-1.038,1.217c-2.808,3.744-3.257,8.777-2.393,13.348.967,5.119,3.358,9.849,5.924,14.383,3.023,5.339,6.455,10.655,11.453,14.215,6.164,4.392,13.917,1.361,21.463,1.956,17.6,1.389,36.537,2.337,54.139.972,9.3-.721,18.013.287,25.391-5.417,5.191-4.013,8.567-10.062,10.195-16.418S277.244,393.756,276.585,387.228Z" transform="translate(-146.664 -364.966)"/></g><g class="i" transform="translate(100.865 214.772)"><path d="M273.952,382.456a4.861,4.861,0,0,0-.459,5.1c.958,1.545,2.253,2.949,2.669,4.718.652,2.779-1.021,5.5-2.269,8.064a25.713,25.713,0,0,0-2.494,14.883,20.246,20.246,0,0,0,7.386,13c1.788,1.38,4.11,2.449,6.265,1.773a6.057,6.057,0,0,0,3.743-4.782,20.277,20.277,0,0,0-.195-6.345,98.712,98.712,0,0,1,.745-29.477c.288-1.623.563-3.478-.466-4.767a5.539,5.539,0,0,0-2.7-1.543c-3.923-1.306-8.157.146-12.219-.626" transform="translate(-271.153 -382.456)"/></g><g transform="translate(1.802 259.766)"><path class="g" d="M139.828,451.289s-.354-5.9,7.342-9.184H282.383s7.051,3.568,7.918,9.062Z" transform="translate(-139.826 -442.105)"/></g><g transform="translate(11.154)"><path class="g" d="M282.563,107.885c-.07.034-.142.067-.214.1l-127.141-.818s-.451-.289-1.127-.818a4.821,4.821,0,0,1,3.009-8.615l123.4,1A4.82,4.82,0,0,1,282.563,107.885Z" transform="translate(-152.223 -97.733)"/></g><g class="i" transform="translate(36.906 57.059)"><path d="M270.6,174.968c.256.49-.7,1.551-2.521,3.168s-4.5,3.841-7.892,6.576a102.93,102.93,0,0,1-12.809,9.036,51.865,51.865,0,0,1-8.783,4.031,41.105,41.105,0,0,1-5.047,1.4,33.414,33.414,0,0,1-5.454.71,29.144,29.144,0,0,1-10.961-1.5,39.564,39.564,0,0,1-8.807-4.5c-2.535-1.681-4.719-3.339-6.778-4.926s-3.92-3.126-5.591-4.569c-6.679-5.787-10.191-10.041-9.513-10.863.7-.854,5.427,1.853,12.795,6.38l6.018,3.7c2.16,1.316,4.482,2.767,6.851,4.11a38.138,38.138,0,0,0,7.427,3.357,23.712,23.712,0,0,0,8.175.963c5.791-.295,11.411-2.335,16.28-4.686,4.893-2.395,9.27-5.1,13.087-7.241a66,66,0,0,1,9.446-4.607C268.9,174.651,270.356,174.5,270.6,174.968Z" transform="translate(-186.362 -173.376)"/></g><g transform="translate(73.663 178.318)"><path class="h" d="M236.428,334.229a2.139,2.139,0,1,1-.108.041" transform="translate(-235.091 -334.13)"/></g><g transform="translate(11.636 22.225)"><path class="g" d="M170.75,184.664a3.878,3.878,0,0,1-.449-.453l-1.231-1.35c-.52-.6-1.205-1.291-1.905-2.176l-2.4-2.988c-.82-1.159-1.75-2.409-2.686-3.793l-1.378-2.194c-.232-.379-.486-.754-.711-1.153l-.663-1.224a50.881,50.881,0,0,1-4.684-11.277,47.382,47.382,0,0,1-1.778-12.084c0-.94.049-1.858.07-2.749.02-.445.013-.886.057-1.316l.136-1.269c.1-.831.161-1.637.273-2.4l.4-2.2c.216-1.407.588-2.641.854-3.738.145-.545.258-1.058.4-1.519l.411-1.257.582-1.733a3.843,3.843,0,0,1,.228-.6,3.97,3.97,0,0,1-.153.621q-.189.652-.51,1.752-.171.575-.377,1.263c-.133.463-.235.978-.37,1.523-.245,1.1-.6,2.331-.794,3.734-.118.7-.242,1.429-.371,2.188-.1.765-.161,1.567-.248,2.393q-.061.62-.124,1.261c-.041.428-.029.865-.048,1.307-.014.885-.061,1.8-.053,2.728a47.982,47.982,0,0,0,1.794,11.983,51.592,51.592,0,0,0,4.624,11.21l.652,1.22c.222.4.471.772.7,1.151l1.355,2.194c.92,1.386,1.834,2.639,2.636,3.8l2.349,3.015c.682.9,1.349,1.6,1.85,2.215l1.175,1.4A3.942,3.942,0,0,1,170.75,184.664Z" transform="translate(-152.862 -127.197)"/></g><g transform="translate(22.365 104.561)"><path class="g" d="M167.086,323.544a1.476,1.476,0,0,1,.141-.248l.449-.709.742-1.147.476-.731c.186-.25.4-.5.622-.774l1.48-1.808c.581-.625,1.247-1.273,1.944-1.986a52.3,52.3,0,0,1,5.178-4.358c4-3.035,9.169-6.05,14.769-9.57a85.1,85.1,0,0,0,8.469-5.966,39.808,39.808,0,0,0,7.6-8.031,37.992,37.992,0,0,0,6.144-20.238,47.937,47.937,0,0,0-2.891-17.194,64.113,64.113,0,0,0-5-10.715c-.7-1.211-1.273-2.135-1.668-2.757l-.444-.711a1.465,1.465,0,0,1-.14-.25,1.568,1.568,0,0,1,.173.228l.477.69c.417.608,1.012,1.52,1.733,2.722a61.344,61.344,0,0,1,5.127,10.7,47.739,47.739,0,0,1,2.992,17.3,39.389,39.389,0,0,1-.416,5.087,37.185,37.185,0,0,1-1.1,5.21,35.539,35.539,0,0,1-4.66,10.153,39.966,39.966,0,0,1-7.682,8.109,84.274,84.274,0,0,1-8.519,5.974c-5.62,3.509-10.788,6.492-14.8,9.486a53.7,53.7,0,0,0-5.192,4.294c-.7.7-1.371,1.339-1.957,1.954l-1.5,1.777c-.223.269-.444.514-.634.76l-.488.717-.771,1.123-.481.687A1.629,1.629,0,0,1,167.086,323.544Z" transform="translate(-167.085 -236.35)"/></g><g transform="translate(8.956 205.084)"><path class="g" d="M155.7,369.613a1.462,1.462,0,0,1-.165.35l-.537.96c-.243.411-.531.918-.822,1.53s-.674,1.282-.991,2.074l-.531,1.227c-.182.428-.33.889-.507,1.357-.369.932-.655,1.963-.981,3.039a40.766,40.766,0,0,0-1.331,14.5c.125,1.118.218,2.185.411,3.167.089.493.151.973.253,1.426s.2.886.3,1.3c.168.836.416,1.567.6,2.219s.366,1.206.53,1.654l.353,1.042a1.43,1.43,0,0,1,.1.373,1.383,1.383,0,0,1-.172-.344l-.424-1.018a15.941,15.941,0,0,1-.6-1.641c-.2-.65-.47-1.38-.657-2.218q-.157-.627-.326-1.306c-.11-.456-.18-.938-.277-1.434-.208-.989-.315-2.063-.451-3.191a39.354,39.354,0,0,1,1.343-14.63c.339-1.083.639-2.12,1.024-3.055.185-.469.342-.932.533-1.359l.558-1.226c.336-.79.732-1.46,1.05-2.062a16.02,16.02,0,0,1,.884-1.5l.6-.924A1.384,1.384,0,0,1,155.7,369.613Z" transform="translate(-149.31 -369.613)"/></g><g transform="translate(38.715 223.212)"><path class="g" d="M258.657,393.646a.71.71,0,0,1-.153.112l-.47.294-1.83,1.1-1.328.788c-.494.272-1.051.531-1.638.828-1.187.573-2.5,1.3-4.058,1.889l-2.41.988c-.841.337-1.749.6-2.671.917-1.836.671-3.868,1.148-5.993,1.7a70.427,70.427,0,0,1-28.37.741c-2.151-.443-4.205-.814-6.075-1.388-.938-.27-1.857-.483-2.715-.775l-2.458-.862c-1.583-.5-2.937-1.164-4.151-1.674-.6-.266-1.171-.5-1.679-.741l-1.368-.717-1.885-1-.485-.269a.1.1,0,1,1,.02-.035l.5.235,1.915.935,1.379.684c.511.235,1.083.454,1.687.71,1.219.489,2.574,1.128,4.157,1.614l2.456.834c.855.284,1.773.489,2.709.751,1.863.557,3.91.914,6.052,1.345a71.538,71.538,0,0,0,28.227-.737c2.115-.542,4.141-1,5.973-1.659.92-.311,1.826-.563,2.666-.891l2.409-.961c1.555-.568,2.875-1.276,4.067-1.828.59-.287,1.15-.536,1.648-.8l1.341-.755,1.864-1.034.49-.261A.679.679,0,0,1,258.657,393.646Z" transform="translate(-188.761 -393.645)"/></g><g transform="translate(43.265 63.568)"><path class="g" d="M268.006,182.006a.906.906,0,0,1-.161.149l-.494.407-1.926,1.537c-1.678,1.327-4.1,3.251-7.171,5.543a104.112,104.112,0,0,1-11.22,7.417,51.08,51.08,0,0,1-7.228,3.325,32.927,32.927,0,0,1-8.34,1.856,31.762,31.762,0,0,1-16.025-3.333,54.58,54.58,0,0,1-6.189-3.681c-1.842-1.3-3.523-2.557-5.011-3.763-2.987-2.4-5.327-4.425-6.953-5.815l-1.863-1.611-.479-.426a.866.866,0,0,1-.154-.155.923.923,0,0,1,.18.124l.5.4,1.911,1.555c1.656,1.354,4.023,3.351,7.026,5.714,1.5,1.19,3.182,2.43,5.023,3.712a55.411,55.411,0,0,0,6.164,3.624,31.6,31.6,0,0,0,15.838,3.266,32.757,32.757,0,0,0,8.239-1.825,51.352,51.352,0,0,0,7.183-3.28,107.981,107.981,0,0,0,11.23-7.324c3.083-2.26,5.534-4.151,7.242-5.44l1.97-1.479.519-.376A.947.947,0,0,1,268.006,182.006Z" transform="translate(-194.793 -182.005)"/></g><g class="i" transform="translate(48.448 227.061)"><path d="M201.664,401.236c3.574-2.76,8.6-2.091,13.016-1.162s8.871,2.44,13.343,1.814c3.37-.471,6.462-2.13,9.788-2.851s7.362-.188,9.206,2.673a71.656,71.656,0,0,1-45.353-.474" transform="translate(-201.664 -398.748)"/></g></g></g><g transform="translate(215.071 191.379)"><g transform="translate(0)"><g transform="translate(0 46.511)"><g transform="translate(5.489)"><path class="j" d="M345.626,357.027l-16.246-18.19-.164,22.111,4.889,14.181-48.594,8.429-2.061-38.342-3.5-29.446a8,8,0,0,1,5.01-8.383l13.373-5.267,18.835,3.456,7.577,2.88A20.776,20.776,0,0,1,333,314.2l22.808,26.083" transform="translate(-279.897 -302.12)"/><g transform="translate(48.344 21.032)"><path class="e" d="M343.987,341.338a25.718,25.718,0,0,0,2.744-.193,11.136,11.136,0,0,0,9.134-8.423,25.736,25.736,0,0,0,.414-2.719,2.392,2.392,0,0,1,.069.747,9.608,9.608,0,0,1-.212,2.035,10.887,10.887,0,0,1-9.365,8.635,9.613,9.613,0,0,1-2.046.047A2.376,2.376,0,0,1,343.987,341.338Z" transform="translate(-343.987 -330.002)"/></g><g transform="translate(49.377 23.676)"><path class="g" d="M345.744,367.718c.113,0,.143-7.661.066-17.106s-.232-17.1-.345-17.1-.143,7.659-.066,17.108S345.63,367.718,345.744,367.718Z" transform="translate(-345.355 -333.507)"/></g></g><g transform="translate(0 5.267)"><path class="j" d="M326.094,367.342l-29.363-11.82a6.711,6.711,0,0,1-4.184-5.713L290.4,321.658s.254-11.973-7.224-12.556l-4.254,1.675c-5.5,2.92-6.861,10.926-6.112,17.106,1.064,8.782,1.506,21.211,2.7,28.833.974,6.234,4.545,11.719,10.647,13.326l36.165,7.829Z" transform="translate(-272.619 -309.102)"/></g><g transform="translate(18.193 22.117)"><path class="g" d="M296.746,331.44a4.059,4.059,0,0,1,.092.644q.07.688.189,1.855c.15,1.65.361,3.973.622,6.827.248,2.9.543,6.324.87,10.128q.121,1.43.247,2.928a21.962,21.962,0,0,0,.375,3.012,5,5,0,0,0,1.46,2.639,9.921,9.921,0,0,0,2.709,1.685c8.1,3.5,15.559,6.4,20.975,8.425l6.431,2.369,1.749.645a4,4,0,0,1,.6.249,4.07,4.07,0,0,1-.627-.174l-1.773-.576c-1.537-.509-3.752-1.272-6.476-2.252-5.448-1.965-12.922-4.814-21.042-8.328a10.247,10.247,0,0,1-2.815-1.759,5.391,5.391,0,0,1-1.565-2.835,22.089,22.089,0,0,1-.374-3.066q-.119-1.5-.233-2.93c-.295-3.808-.561-7.24-.787-10.138-.207-2.859-.376-5.185-.5-6.837q-.072-1.171-.115-1.861A3.932,3.932,0,0,1,296.746,331.44Z" transform="translate(-296.738 -331.44)"/></g><g transform="translate(1.357 37.42)"><path class="g" d="M274.439,351.728a1.439,1.439,0,0,1,.058.378l.1,1.086c.087,1,.205,2.353.348,3.995.161,1.685.366,3.69.658,5.906a56.5,56.5,0,0,0,1.326,7.131,10.653,10.653,0,0,0,1.433,3.4,19.449,19.449,0,0,0,2.194,2.7,18.77,18.77,0,0,0,4.7,3.525,17.651,17.651,0,0,0,5.157,1.688,1.4,1.4,0,0,1-.382-.009,8.161,8.161,0,0,1-1.086-.14,14.367,14.367,0,0,1-3.815-1.292,18.408,18.408,0,0,1-4.83-3.519,19.425,19.425,0,0,1-2.255-2.734,10.915,10.915,0,0,1-1.493-3.511,53.05,53.05,0,0,1-1.306-7.189c-.274-2.227-.45-4.238-.576-5.929s-.189-3.062-.224-4.009c-.009-.436-.017-.8-.023-1.091A1.369,1.369,0,0,1,274.439,351.728Z" transform="translate(-274.418 -351.728)"/></g><g transform="translate(13.926 50.168)"><path class="g" d="M291.089,375.579a4.3,4.3,0,0,1,.535-1.565,10.1,10.1,0,0,1,5.957-5.087,4.331,4.331,0,0,1,1.629-.284c.012.066-.6.189-1.538.545a11.424,11.424,0,0,0-5.8,4.957C291.369,375.011,291.152,375.6,291.089,375.579Z" transform="translate(-291.082 -368.628)"/></g><g transform="translate(19.708 6.624)"><path class="e" d="M298.747,339.987a.748.748,0,0,1,.186.082l.526.276a18.209,18.209,0,0,0,2.1.888,16.579,16.579,0,0,0,8.229.7,16.253,16.253,0,0,0,10.23-6.356,13.5,13.5,0,0,0,2.679-6.652,9.067,9.067,0,0,0-.391-3.764,7.639,7.639,0,0,0-2.117-3.235,6.4,6.4,0,0,0-3.446-1.675,4.1,4.1,0,0,0-3.455.971,2.22,2.22,0,0,0-.674,1.563,2.732,2.732,0,0,0,.567,1.613,4.41,4.41,0,0,0,2.987,1.558,12.091,12.091,0,0,0,6.418-.918,11.912,11.912,0,0,0,6.761-7.559,12.768,12.768,0,0,0,.558-3.532,13.344,13.344,0,0,0-.164-2.264c-.044-.238-.079-.43-.107-.583a.828.828,0,0,1-.026-.2,9.477,9.477,0,0,1,.45,3.05,12.572,12.572,0,0,1-.5,3.6,12.308,12.308,0,0,1-2.207,4.269,12.553,12.553,0,0,1-11.236,4.5,4.765,4.765,0,0,1-3.234-1.692,3.1,3.1,0,0,1-.646-1.838,2.6,2.6,0,0,1,.781-1.834,4.481,4.481,0,0,1,3.78-1.086,6.785,6.785,0,0,1,3.658,1.771,8.023,8.023,0,0,1,2.224,3.4,9.43,9.43,0,0,1,.4,3.924A13.816,13.816,0,0,1,320.3,335.8a16.22,16.22,0,0,1-18.8,5.581A11.943,11.943,0,0,1,298.747,339.987Z" transform="translate(-298.747 -310.901)"/></g><g transform="translate(0.474 23.843)"><path class="e" d="M273.249,338.087a2.636,2.636,0,0,1,.483-.6,10.851,10.851,0,0,1,1.586-1.38,13.293,13.293,0,0,1,6.5-2.3,12.547,12.547,0,0,1,3.828.161,11.773,11.773,0,0,1,2.95,1.036,13.263,13.263,0,0,1,1.794,1.092,2.715,2.715,0,0,1,.589.5c-.041.062-.919-.6-2.5-1.338a12.332,12.332,0,0,0-6.617-1.057,13.964,13.964,0,0,0-6.38,2.14C274.022,337.3,273.3,338.142,273.249,338.087Z" transform="translate(-273.247 -333.728)"/></g><g transform="translate(5.17 2.19)"><path class="e" d="M279.475,310.905a12,12,0,0,0,2.377,1.727,8.5,8.5,0,0,0,3.025.887,7.575,7.575,0,0,0,6.838-2.829,8.528,8.528,0,0,0,1.514-2.765,11.975,11.975,0,0,0,.46-2.9,2.545,2.545,0,0,1,.1.8,7.271,7.271,0,0,1-.293,2.182,8.381,8.381,0,0,1-1.5,2.912,7.729,7.729,0,0,1-7.159,2.962,8.347,8.347,0,0,1-3.116-1,7.229,7.229,0,0,1-1.75-1.337A2.547,2.547,0,0,1,279.475,310.905Z" transform="translate(-279.473 -305.023)"/></g><g transform="translate(30.754 43.183)"><path class="e" d="M313.395,370.547a2.915,2.915,0,0,1,.061-.557,6.127,6.127,0,0,1,.52-1.519,8.378,8.378,0,0,1,4.4-3.815,12.857,12.857,0,0,1,8.632-.309,8.241,8.241,0,0,1,4.5,2.547,2.727,2.727,0,0,1,.33,2.762,4.385,4.385,0,0,1-2.092,1.975,6.645,6.645,0,0,1-2.78.688,4.047,4.047,0,0,1-2.67-.828,3.413,3.413,0,0,1-1.195-2.419,6.074,6.074,0,0,1,.4-2.544,11.415,11.415,0,0,1,6.052-6.126,11.871,11.871,0,0,1,5.776-.992,8.166,8.166,0,0,1,2.111.444c-.012.051-.748-.2-2.122-.292a12.091,12.091,0,0,0-5.65,1.093,11.81,11.81,0,0,0-3.3,2.236,10.575,10.575,0,0,0-2.531,3.76,5.73,5.73,0,0,0-.366,2.39,3.035,3.035,0,0,0,1.065,2.153,3.674,3.674,0,0,0,2.418.734,6.282,6.282,0,0,0,2.611-.649,4.013,4.013,0,0,0,1.911-1.784,2.337,2.337,0,0,0-.287-2.376,5.446,5.446,0,0,0-1.964-1.559,14.085,14.085,0,0,0-2.32-.865,12.689,12.689,0,0,0-8.428.218,8.371,8.371,0,0,0-4.366,3.629A8.561,8.561,0,0,0,313.395,370.547Z" transform="translate(-313.391 -359.368)"/></g><g transform="translate(11.209 51.346)"><path class="e" d="M287.479,383.807c-.012-.075,1.119-.17,2.816-.775a14.042,14.042,0,0,0,9.007-9.965c.431-1.748.412-2.883.487-2.878a2.749,2.749,0,0,1,.041.792,11.822,11.822,0,0,1-.258,2.149,13.545,13.545,0,0,1-9.189,10.165,11.926,11.926,0,0,1-2.112.473A2.747,2.747,0,0,1,287.479,383.807Z" transform="translate(-287.479 -370.189)"/></g><g transform="translate(1.693 41.162)"><path class="e" d="M274.864,358.606a1.376,1.376,0,0,1,.355-.142c.237-.078.588-.186,1.049-.3a12.644,12.644,0,0,1,4-.407,8.354,8.354,0,0,1,2.719.673,6.267,6.267,0,0,1,2.537,1.991,5.217,5.217,0,0,1,.986,3.423,4.17,4.17,0,0,1-.582,1.837,2.917,2.917,0,0,1-1.539,1.287,2.03,2.03,0,0,1-1.984-.392,2.649,2.649,0,0,1-.684-1.83,7.83,7.83,0,0,1,.692-3.492,7.633,7.633,0,0,1,4.283-4.064,7.77,7.77,0,0,1,3.993-.4,6.593,6.593,0,0,1,1.062.269,1.389,1.389,0,0,1,.35.154c-.011.039-.5-.157-1.433-.272a7.954,7.954,0,0,0-3.872.5,7.416,7.416,0,0,0-4.051,3.952,7.522,7.522,0,0,0-.638,3.326,2.288,2.288,0,0,0,.568,1.565,1.644,1.644,0,0,0,1.6.3,2.533,2.533,0,0,0,1.325-1.117,3.816,3.816,0,0,0,.532-1.663,4.877,4.877,0,0,0-.9-3.18,5.989,5.989,0,0,0-2.377-1.905,8.217,8.217,0,0,0-2.609-.692,13.548,13.548,0,0,0-3.942.279C275.378,358.5,274.872,358.636,274.864,358.606Z" transform="translate(-274.864 -356.688)"/></g><g class="k" transform="translate(19.157 30.486)"><path d="M323.9,372.2c-3.14-1.773-6.212-3.136-9.495-4.628s-6.5-3.407-8.647-6.3c-4.052-5.461-3.591-13.345-7.739-18.734l.812,10.873c.248,3.322-.261,6.606,1.879,8.863,1.8,1.9,5.316,3.36,7.8,4.18,5,1.65,10.384,4.1,15.384,5.749" transform="translate(-298.016 -342.535)"/></g></g><g transform="translate(90.396 146.724)"><g transform="translate(0 1.313)"><path class="h" d="M398.119,436.713s24.567,6.8,25.553,7.147c1.48.521,1.231,5.943-1.072,5.859-1.089-.04-18.871.662-21.117.521s-9.025-2.811-9.025-2.811Z" transform="translate(-392.458 -436.713)"/></g><g transform="translate(15.846 5.779)"><path class="g" d="M413.514,447.542a10.777,10.777,0,0,1,2.82-4.9,5.458,5.458,0,0,0-2.82,4.9Z" transform="translate(-413.465 -442.635)"/></g><g transform="translate(13.295 4.83)"><path class="g" d="M410.122,446.072c.12.021.369-1.141,1.023-2.424s1.426-2.181,1.338-2.266a6.159,6.159,0,0,0-2.361,4.69Z" transform="translate(-410.083 -441.377)"/></g><g transform="translate(10.768 3.981)"><path class="g" d="M406.9,445.152a8.626,8.626,0,0,1,1.913-4.893,4.613,4.613,0,0,0-1.913,4.893Z" transform="translate(-406.734 -440.251)"/></g><g transform="translate(9.419)"><path class="g" d="M406.893,440.682a4.338,4.338,0,0,0,.264-1.828,8.609,8.609,0,0,0-.249-2,8.368,8.368,0,0,0-.366-1.141,1.369,1.369,0,0,0-.394-.6.654.654,0,0,0-.843.042,1.083,1.083,0,0,0-.327.695,4.767,4.767,0,0,0-.032.649,5.424,5.424,0,0,0,.152,1.2,7.294,7.294,0,0,0,.756,1.878,4.948,4.948,0,0,0,1.1,1.478c.057-.039-.355-.611-.846-1.613a8.067,8.067,0,0,1-.644-1.826,5.356,5.356,0,0,1-.118-1.122c.011-.378.005-.849.226-1.031a.238.238,0,0,1,.324-.027,1.03,1.03,0,0,1,.269.429,9.1,9.1,0,0,1,.373,1.084,9.9,9.9,0,0,1,.325,1.918C406.938,439.976,406.826,440.672,406.893,440.682Z" transform="translate(-404.944 -434.973)"/></g><g transform="translate(6.42 5.203)"><path class="g" d="M405.886,442.127a3.431,3.431,0,0,0-1.585-.256,7.1,7.1,0,0,0-1.743.213,3.849,3.849,0,0,0-1,.37,1.037,1.037,0,0,0-.555,1.123,1.229,1.229,0,0,0,.886.877,2.247,2.247,0,0,0,1.1,0,4.238,4.238,0,0,0,1.6-.784,4.334,4.334,0,0,0,1.142-1.125,10.824,10.824,0,0,0-1.309.886,4.363,4.363,0,0,1-1.507.652,1.947,1.947,0,0,1-.911-.013.833.833,0,0,1-.6-.584.634.634,0,0,1,.365-.686,3.718,3.718,0,0,1,.892-.348,8.241,8.241,0,0,1,1.655-.289C405.273,442.094,405.875,442.192,405.886,442.127Z" transform="translate(-400.97 -441.871)"/></g><g transform="translate(19.479 6.8)"><path class="g" d="M418.473,448.138A6.631,6.631,0,0,1,420.16,444a3.524,3.524,0,0,0-1.687,4.14Z" transform="translate(-418.282 -443.988)"/></g><g transform="translate(2.527 12.078)"><path class="g" d="M395.809,450.991a5.074,5.074,0,0,0,.95.447,21.141,21.141,0,0,0,2.734.847,38.991,38.991,0,0,0,9.38.889c3.682-.04,7-.207,9.4-.3l2.848-.151a5.056,5.056,0,0,0,1.042-.112,5.2,5.2,0,0,0-1.047-.048l-2.851.02-9.4.183a43.946,43.946,0,0,1-9.314-.761C397.209,451.519,395.838,450.915,395.809,450.991Z" transform="translate(-395.809 -450.984)"/></g><g transform="translate(1.801 10.555)"><path class="g" d="M394.846,451.055c.033.057.705-.336,1.841-.833a8.555,8.555,0,0,1,4.649-.773,7.364,7.364,0,0,1,4.018,2.39,14.47,14.47,0,0,0,1.416,1.447,7.58,7.58,0,0,0-1.2-1.644,9.7,9.7,0,0,0-1.629-1.523,5.827,5.827,0,0,0-2.538-1.076,8.127,8.127,0,0,0-4.837.915A6.536,6.536,0,0,0,394.846,451.055Z" transform="translate(-394.845 -448.966)"/></g></g><g transform="translate(45.432 141.254)"><path class="h" d="M357.4,427.721s-23.248,15.221-24.082,15.851c-1.251.946.184,5.451,2.353,4.671,1.026-.369,20.534-5.8,22.632-6.612s7.745-5.42,7.745-5.42Z" transform="translate(-332.849 -427.721)"/><g transform="translate(13.468 8.209)"><path class="g" d="M354.879,442.434a5.461,5.461,0,0,0-4.174-3.812,10.777,10.777,0,0,1,4.174,3.812Z" transform="translate(-350.703 -438.603)"/></g><g transform="translate(16.055 6.392)"><path class="g" d="M357.809,439.958a6.164,6.164,0,0,0-3.674-3.751c-.059.107.959.718,1.963,1.752S357.7,440.015,357.809,439.958Z" transform="translate(-354.133 -436.195)"/></g><g transform="translate(18.514 4.715)"><path class="g" d="M360.7,438.069a4.612,4.612,0,0,0-3.308-4.082,8.621,8.621,0,0,1,3.308,4.082Z" transform="translate(-357.393 -433.972)"/></g><g transform="translate(19.248 0.105)"><path class="g" d="M359.564,433.677c.061-.029-.257-.659-.526-1.74a9.858,9.858,0,0,1-.273-1.927,8.922,8.922,0,0,1,.026-1.146,1.025,1.025,0,0,1,.126-.49.239.239,0,0,1,.318-.073c.265.106.4.557.528.913a5.4,5.4,0,0,1,.229,1.106,8.046,8.046,0,0,1-.06,1.936c-.163,1.1-.381,1.774-.315,1.795a4.974,4.974,0,0,0,.6-1.745,7.3,7.3,0,0,0,.15-2.019,5.417,5.417,0,0,0-.221-1.192,4.753,4.753,0,0,0-.227-.609,1.086,1.086,0,0,0-.523-.563.655.655,0,0,0-.816.216,1.371,1.371,0,0,0-.192.693,8.467,8.467,0,0,0,0,1.2,8.628,8.628,0,0,0,.371,1.984A4.358,4.358,0,0,0,359.564,433.677Z" transform="translate(-358.366 -427.86)"/></g><g transform="translate(20.398 4.608)"><path class="g" d="M359.892,434.9c.029.06.574-.217,1.511-.445a8.231,8.231,0,0,1,1.665-.227,3.724,3.724,0,0,1,.955.06.633.633,0,0,1,.556.542.834.834,0,0,1-.393.738,1.933,1.933,0,0,1-.864.289,4.356,4.356,0,0,1-1.634-.164,10.9,10.9,0,0,0-1.516-.447,4.3,4.3,0,0,0,1.429.725,4.249,4.249,0,0,0,1.759.263,2.263,2.263,0,0,0,1.052-.332,1.227,1.227,0,0,0,.576-1.1,1.035,1.035,0,0,0-.87-.9,3.83,3.83,0,0,0-1.069-.048,7.133,7.133,0,0,0-1.726.326A3.444,3.444,0,0,0,359.892,434.9Z" transform="translate(-359.891 -433.83)"/></g><g transform="translate(3.312 13.93)"><path class="g" d="M339.708,451.931c.026.036.392-.235.569-.9a3.434,3.434,0,0,0-.435-2.523,9.143,9.143,0,0,0-.779-1.16,4.248,4.248,0,0,0-.789-.847,1.373,1.373,0,0,0-.743-.311c-.194-.008-.293.039-.29.063a2.177,2.177,0,0,1,.846.469,5.239,5.239,0,0,1,.671.848,13.233,13.233,0,0,1,.725,1.135,3.6,3.6,0,0,1,.511,2.267C339.908,451.573,339.654,451.891,339.708,451.931Z" transform="translate(-337.24 -446.188)"/></g><g transform="translate(11.261 9.983)"><path class="g" d="M350.643,444.409a3.523,3.523,0,0,0-2.864-3.431,6.628,6.628,0,0,1,2.864,3.431Z" transform="translate(-347.777 -440.955)"/></g><g transform="translate(1.439 9.31)"><path class="g" d="M364.122,440.065a8.146,8.146,0,0,0-1.022.7,29.2,29.2,0,0,1-2.866,1.756,37.648,37.648,0,0,1-4.553,2.027c-1.76.656-3.735,1.276-5.823,1.88-4.183,1.2-7.969,2.305-10.7,3.127l-3.231.991a7.3,7.3,0,0,0-1.169.418,7.146,7.146,0,0,0,1.214-.264l3.266-.866c2.753-.751,6.549-1.807,10.736-3.012,2.092-.606,4.075-1.24,5.842-1.921a34.222,34.222,0,0,0,4.558-2.126,22.878,22.878,0,0,0,2.822-1.882A6.483,6.483,0,0,0,364.122,440.065Z" transform="translate(-334.757 -440.063)"/></g><g transform="translate(20.977 8.969)"><path class="g" d="M371.347,440.267a6.522,6.522,0,0,0-1.97-.524,8.127,8.127,0,0,0-4.886.6,5.836,5.836,0,0,0-2.092,1.8,9.74,9.74,0,0,0-1.089,1.946,7.577,7.577,0,0,0-.646,1.931,14.481,14.481,0,0,0,.91-1.808,7.362,7.362,0,0,1,3.1-3.5,8.561,8.561,0,0,1,4.664-.676C370.573,440.16,371.333,440.331,371.347,440.267Z" transform="translate(-360.658 -439.612)"/></g></g><g transform="translate(52.148 102.884)"><path class="g" d="M407.9,378.1a11.135,11.135,0,0,1,7,10.311c.056,14.98-30.267,31.492-30.267,31.492l-40.351-26.738-2.529-1.023S396.224,371.682,407.9,378.1Z" transform="translate(-341.752 -376.854)"/><g transform="translate(22.969 8.813)"><path class="l" d="M372.2,409.541a7.448,7.448,0,0,0,1.051-.713c.662-.479,1.605-1.19,2.76-2.084,2.31-1.785,5.454-4.316,8.835-7.219s6.359-5.63,8.473-7.643c1.058-1.007,1.9-1.832,2.477-2.413a7.52,7.52,0,0,0,.864-.931,7.562,7.562,0,0,0-.974.815l-2.565,2.316c-2.163,1.957-5.167,4.644-8.543,7.545s-6.486,5.46-8.749,7.3l-2.677,2.185A7.5,7.5,0,0,0,372.2,409.541Z" transform="translate(-372.202 -388.538)"/></g><g transform="translate(47.405 6.744)"><path class="l" d="M411.945,385.9a10,10,0,0,0-7.346,2.168c.066.107,1.538-.831,3.573-1.42C410.2,386.035,411.946,386.023,411.945,385.9Z" transform="translate(-404.597 -385.795)"/></g><g transform="translate(47.61 4.474)"><path class="l" d="M408.536,382.8a6.129,6.129,0,0,0-3.648,4.517c.118.041.558-1.216,1.575-2.459C407.464,383.6,408.6,382.9,408.536,382.8Z" transform="translate(-404.868 -382.786)"/></g><g transform="translate(66.108 51.874)"><path class="g" d="M431.647,445.665c.021-.047-.481-.144-1.04.315a3.776,3.776,0,0,0-1.166,2.342,4.6,4.6,0,0,0,.368,2.583c.285.613.6.9.634.872.056-.038-.165-.379-.365-.98a5.24,5.24,0,0,1-.23-2.417,4.047,4.047,0,0,1,.954-2.185C431.23,445.748,431.655,445.731,431.647,445.665Z" transform="translate(-429.392 -445.623)"/></g></g><g transform="translate(31.611 79.659)"><path class="l" d="M391.926,346.065,377.555,382.5,315.672,383.5l-1.145-3.348,21.687-.787,10.423-32.318Z" transform="translate(-314.526 -346.065)"/><g transform="translate(47.36 15.467)"><path class="c" d="M378.452,366.875a2.749,2.749,0,0,1,2.976.318,2.406,2.406,0,0,1,.583,2.636,2.607,2.607,0,0,1-2.236,1.561,2.35,2.35,0,0,1-2.363-1.561,2.639,2.639,0,0,1,1.04-2.955" transform="translate(-377.312 -366.569)"/></g></g><g transform="translate(10.162 106.282)"><path class="g" d="M374.779,422.83s-57.013-37.4-59.347-38.174-7.976-4.475-13.618-2.918-10.7,6.615-13.229,14.007c-1.445,4.223-2.127,11.43-2.447,16.833a24.972,24.972,0,0,0,5.844,17.806,15.943,15.943,0,0,0,7.109,5.047c.594.185,1.21.344,1.843.481a26.814,26.814,0,0,0,27.913-11.72l1.331-2.025s37.3,13.7,37.879,13.507Z" transform="translate(-286.092 -381.358)"/><g transform="translate(18.154 2.491)"><path class="l" d="M310.158,413.347s.1.053.312.138l.933.37,3.615,1.392,13.433,5.06c5.706,2.129,12.541,4.66,20.208,7.45s16.168,5.848,25.244,8.921l.165.056.081-.155,4.454-8.506,2.271-4.338.087-.167-.158-.1-43.489-27.607-13.063-8.24-3.548-2.214-.926-.566c-.21-.126-.322-.181-.322-.181s.1.078.3.215l.905.6,3.508,2.277,12.995,8.347,43.417,27.714-.07-.267-2.271,4.337-4.451,8.508.245-.1c-9.071-3.065-17.574-6.111-25.25-8.875l-20.238-7.365-13.475-4.944-3.64-1.324-.947-.335C310.27,413.375,310.158,413.347,310.158,413.347Z" transform="translate(-310.158 -384.66)"/></g></g><g transform="translate(21.406)"><g transform="translate(2.448)"><path class="g" d="M314.622,245.12c.972-2.628,3.121-3.769,5.844-4.429a8.739,8.739,0,0,1,7.819,2.015c1.382,1.266,2.395,3.015,4.1,3.789,2.811,1.274,6.412-.588,9.076.969a3.981,3.981,0,0,1-2.567,7.378c1.832.865,2.173,3.621.912,5.206a5.306,5.306,0,0,1-5.541,1.463,11.178,11.178,0,0,1-4.944-3.4c-1.377-1.485-2.581-3.133-4.072-4.5a8.69,8.69,0,0,0-5.374-2.551c-2.74-.1-5.267,1.739-6.706,4.073a20.377,20.377,0,0,0-2.376,7.813,33.657,33.657,0,0,1-1.749,8.014c-.123.3-.3.628-.613.693-.456.1-.789-.409-.972-.837a40.251,40.251,0,0,1-3.216-15.316c-.032-3.049.309-5.9,2.2-8.293s6.261-3.879,8.174-2.086" transform="translate(-304.243 -240.46)"/></g><g transform="translate(2.12 3.592)"><path class="m" d="M308.086,258.459l-4.191,30.457a9.146,9.146,0,0,0,8.262,10.358h0a9.15,9.15,0,0,0,9.86-7.879c.313-2.292.579-4.2.627-4.438,0,0,7.854.337,9.47-7.26.781-3.671,1.773-11.364,2.59-18.334a14.465,14.465,0,0,0-11.54-15.863l-.735-.147C314.413,244.233,308.983,250.415,308.086,258.459Z" transform="translate(-303.808 -245.222)"/><g transform="translate(9.505 36.822)"><path class="n" d="M325.774,298.843a18.061,18.061,0,0,1-9.365-4.806s1.251,5.95,8.988,6.782Z" transform="translate(-316.409 -294.037)"/></g><g transform="translate(12.677 11.523)"><g transform="translate(0 4.323)"><g transform="translate(11.548 2.08)"><g transform="translate(1.227 1.657)"><path class="g" d="M339.755,272.4a1.109,1.109,0,0,1-1.268.888,1.06,1.06,0,0,1-.925-1.2,1.109,1.109,0,0,1,1.267-.889A1.062,1.062,0,0,1,339.755,272.4Z" transform="translate(-337.549 -271.182)"/></g><path class="g" d="M340.21,270.613c-.163.115-.865-.659-2.036-.89-1.166-.247-2.146.183-2.244.014-.05-.076.139-.3.567-.5a3.045,3.045,0,0,1,1.832-.186,2.921,2.921,0,0,1,1.586.886C340.22,270.282,340.29,270.562,340.21,270.613Z" transform="translate(-335.923 -268.986)"/></g><g transform="translate(1.216 1.841)"><path class="g" d="M324.433,269.886a1.109,1.109,0,0,1-1.268.887,1.061,1.061,0,0,1-.926-1.2,1.111,1.111,0,0,1,1.267-.889A1.062,1.062,0,0,1,324.433,269.886Z" transform="translate(-322.226 -268.668)"/></g><path class="g" d="M324.9,267.855c-.164.115-.867-.659-2.037-.89-1.166-.247-2.146.183-2.244.014-.05-.076.137-.3.567-.5a3.049,3.049,0,0,1,1.831-.188,2.927,2.927,0,0,1,1.586.886C324.909,267.524,324.981,267.805,324.9,267.855Z" transform="translate(-320.614 -266.228)"/><g transform="translate(6.801 1.297)"><path class="g" d="M329.63,277.805a7.96,7.96,0,0,1,1.97.037c.306.029.6.026.691-.167a1.551,1.551,0,0,0-.023-.926q-.2-1.169-.429-2.452a39.758,39.758,0,0,1-.8-6.349,39.938,39.938,0,0,1,1.3,6.27q.2,1.286.389,2.458a1.763,1.763,0,0,1-.079,1.2.762.762,0,0,1-.579.339,2.043,2.043,0,0,1-.522-.031A7.722,7.722,0,0,1,329.63,277.805Z" transform="translate(-329.63 -267.948)"/></g><g transform="translate(2.834 11.275)"><path class="g" d="M324.732,281.177c.192.027-.059,1.3.849,2.417s2.287,1.25,2.261,1.429c0,.084-.351.187-.926.088a3.228,3.228,0,0,1-1.9-1.121,2.808,2.808,0,0,1-.63-2.01C324.442,281.438,324.647,281.152,324.732,281.177Z" transform="translate(-324.371 -281.175)"/></g></g><g transform="translate(0.06)"><path class="g" d="M326.14,261.921c-.179.295-1.317-.089-2.723-.2-1.4-.137-2.592.044-2.717-.278-.054-.153.2-.414.708-.632a4.743,4.743,0,0,1,4.144.363C326.016,261.479,326.22,261.78,326.14,261.921Z" transform="translate(-320.693 -260.497)"/></g><g transform="translate(12.136 2.879)"><path class="g" d="M340.649,265.992c-.259.225-1.01-.213-1.977-.419-.959-.241-1.826-.179-1.959-.495-.056-.152.126-.392.536-.572a2.925,2.925,0,0,1,3.171.736C340.708,265.584,340.766,265.881,340.649,265.992Z" transform="translate(-336.703 -264.313)"/></g></g></g><g transform="translate(0 21.919)"><path class="m" d="M306.89,270.191c-.118-.081-4.923-2.593-5.8,2.647s4.567,5.037,4.6,4.888S306.89,270.191,306.89,270.191Z" transform="translate(-300.998 -269.519)"/><g transform="translate(1.37 1.632)"><path class="n" d="M304.87,276.005c-.02-.02-.1.049-.268.094a.926.926,0,0,1-.685-.1,2.291,2.291,0,0,1-.707-2.2,3.06,3.06,0,0,1,.474-1.265,1.07,1.07,0,0,1,.8-.586.472.472,0,0,1,.5.34c.045.158-.005.257.021.271s.127-.069.121-.292a.585.585,0,0,0-.151-.363.7.7,0,0,0-.483-.218,1.3,1.3,0,0,0-1.089.653,3.141,3.141,0,0,0-.56,1.408,2.4,2.4,0,0,0,.954,2.485.99.99,0,0,0,.858,0C304.84,276.13,304.887,276.018,304.87,276.005Z" transform="translate(-302.814 -271.683)"/></g></g><g transform="translate(5.286 2.524)"><path class="g" d="M337.663,259.757a11.218,11.218,0,0,1-9.332-4.153c-1.539-1.942-2.517-4.485-4.7-5.663a6.308,6.308,0,0,0-4.86-.3,12.188,12.188,0,0,0-4.245,2.58c.7,4.164-1.153,8.287-2.958,12.1a2.111,2.111,0,0,1-.846,1.08c-.711.35-1.559-.2-1.984-.874a6.559,6.559,0,0,1-.734-3.677,21.835,21.835,0,0,1,1.738-8.436,14.87,14.87,0,0,1,5.477-6.56,14.09,14.09,0,0,1,10.422-1.726,17.3,17.3,0,0,1,9.136,5.484,10.136,10.136,0,0,1,2.461,4.322" transform="translate(-308.006 -243.806)"/></g></g></g></g><g transform="translate(38.38 205.285)"><g transform="translate(9.207)"><path class="g" d="M63.314,386.34a1.921,1.921,0,0,1,.132-.318l.428-.911a23,23,0,0,0,1.256-3.648,32.2,32.2,0,0,0-.107-14.088,75.728,75.728,0,0,0-2.613-9.462c-1.107-3.358-2.39-6.922-3.44-10.773a41.678,41.678,0,0,1-1.7-12.386c.159-4.382,1.456-8.755,2.882-13.108s2.9-8.623,3.337-12.909a19.675,19.675,0,0,0-2.367-11.922c-1.888-3.478-4.263-6.453-6.041-9.535a33.127,33.127,0,0,1-3.631-9.167,34.143,34.143,0,0,1-.23-14.2,26.429,26.429,0,0,1,1.482-5.015,1.949,1.949,0,0,1-.088.333c-.075.238-.173.556-.3.962a36.491,36.491,0,0,0-.921,3.754,34.58,34.58,0,0,0,.368,14.1,33.047,33.047,0,0,0,3.643,9.051c1.774,3.045,4.16,6.007,6.085,9.527a20.067,20.067,0,0,1,2.44,12.164c-.444,4.36-1.927,8.65-3.347,13s-2.709,8.677-2.87,12.985a41.454,41.454,0,0,0,1.658,12.261c1.032,3.833,2.3,7.4,3.393,10.764a74.655,74.655,0,0,1,2.571,9.519,31.845,31.845,0,0,1-.036,14.193,21.087,21.087,0,0,1-1.344,3.643l-.469.895A1.95,1.95,0,0,1,63.314,386.34Z" transform="translate(-50.586 -258.895)"/></g><g transform="translate(15.116 12.995)"><path class="o" d="M59.422,294.552s-3.609-11.544,2.866-18.3a.4.4,0,0,1,.686.2C63.32,278.353,63.752,284.16,59.422,294.552Z" transform="translate(-58.419 -276.122)"/><g transform="translate(0.873 3.974)"><path class="g" d="M61.87,281.39a10.645,10.645,0,0,1-.244,2.129c-.237,1.467-.516,3.189-.824,5.092s-.575,3.624-.808,5.091a11.56,11.56,0,0,1-.382,2.108,8.989,8.989,0,0,1,.065-2.146c.119-1.319.352-3.133.68-5.126s.673-3.785.955-5.077A9.563,9.563,0,0,1,61.87,281.39Z" transform="translate(-59.576 -281.39)"/></g></g><g transform="translate(20.289 43.792)"><g transform="translate(0.071)"><path class="h" d="M65.371,331.809s2.208-11.892,11.092-14.838a.4.4,0,0,1,.514.5C76.392,319.314,74.058,324.648,65.371,331.809Z" transform="translate(-65.371 -316.95)"/></g><g transform="translate(0 3.091)"><path class="g" d="M74.02,321.049a10.672,10.672,0,0,1-1.211,1.769L69.7,326.933l-3.1,4.122a11.581,11.581,0,0,1-1.323,1.684,9.006,9.006,0,0,1,1.061-1.866c.723-1.11,1.776-2.605,3-4.213s2.365-3.031,3.219-4.041A9.6,9.6,0,0,1,74.02,321.049Z" transform="translate(-65.278 -321.047)"/></g></g><g transform="translate(17.863 70.988)"><g transform="translate(0.006)"><path class="h" d="M62.159,370.5s-1.341-12.021,6.305-17.42a.4.4,0,0,1,.635.326C69.075,355.343,68.391,361.126,62.159,370.5Z" transform="translate(-62.068 -353.005)"/></g><g transform="translate(0 3.717)"><path class="g" d="M67.038,357.933a10.6,10.6,0,0,1-.645,2.044l-1.78,4.84-1.764,4.844a11.707,11.707,0,0,1-.777,2,8.9,8.9,0,0,1,.473-2.094c.369-1.272.943-3.009,1.644-4.9s1.383-3.588,1.906-4.8A9.62,9.62,0,0,1,67.038,357.933Z" transform="translate(-62.06 -357.932)"/></g></g><g transform="translate(24.559 101.241)"><g transform="translate(0.061)"><path class="h" d="M71.05,410.362s-.91-12.061,6.925-17.183a.4.4,0,0,1,.624.348C78.505,395.461,77.615,401.215,71.05,410.362Z" transform="translate(-71.018 -393.111)"/></g><g transform="translate(0 3.656)"><path class="g" d="M76.4,397.958a10.656,10.656,0,0,1-.718,2.019l-1.952,4.774c-.723,1.785-1.379,3.4-1.937,4.778a11.547,11.547,0,0,1-.848,1.966,8.92,8.92,0,0,1,.548-2.075c.414-1.258,1.05-2.974,1.819-4.84s1.511-3.535,2.077-4.73A9.569,9.569,0,0,1,76.4,397.958Z" transform="translate(-70.937 -397.957)"/></g></g><g transform="translate(0 5.908)"><path class="h" d="M49.312,282.1S38.59,276.5,38.38,267.144a.4.4,0,0,1,.625-.345C40.6,267.9,45.014,271.7,49.312,282.1Z" transform="translate(-38.38 -266.728)"/><g transform="translate(2.222 3.63)"><path class="g" d="M41.33,271.542a10.622,10.622,0,0,1,1.336,1.676l3.023,4.18,3.033,4.168a11.63,11.63,0,0,1,1.221,1.759,8.961,8.961,0,0,1-1.473-1.561c-.849-1.016-1.97-2.463-3.149-4.1s-2.2-3.151-2.918-4.263A9.623,9.623,0,0,1,41.33,271.542Z" transform="translate(-41.325 -271.54)"/></g></g><g transform="translate(10.622 31.367)"><path class="j" d="M64.284,315.185s-11.042-4.938-11.82-14.266a.4.4,0,0,1,.6-.383C54.724,301.539,59.362,305.06,64.284,315.185Z" transform="translate(-52.462 -300.478)"/><g transform="translate(2.415 3.513)"><path class="g" d="M55.668,305.137a10.6,10.6,0,0,1,1.435,1.592l3.27,3.988,3.281,3.977a11.63,11.63,0,0,1,1.326,1.681,8.928,8.928,0,0,1-1.565-1.469c-.909-.963-2.115-2.338-3.391-3.9s-2.391-3.01-3.173-4.078A9.634,9.634,0,0,1,55.668,305.137Z" transform="translate(-55.664 -305.136)"/></g></g><g transform="translate(11.116 55.39)"><path class="j" d="M58.091,350.663s-7.581-9.424-4.025-18.083a.4.4,0,0,1,.711-.066C55.8,334.161,58.321,339.407,58.091,350.663Z" transform="translate(-53.117 -332.326)"/><g transform="translate(1.682 4.091)"><path class="g" d="M55.366,337.749a10.615,10.615,0,0,1,.553,2.071c.315,1.452.686,3.157,1.1,5.04s.79,3.584,1.109,5.034a11.623,11.623,0,0,1,.415,2.1,8.952,8.952,0,0,1-.724-2.021c-.371-1.272-.818-3.045-1.242-5.019s-.757-3.769-.967-5.075A9.684,9.684,0,0,1,55.366,337.749Z" transform="translate(-55.347 -337.749)"/></g></g><g transform="translate(12.021 91.373)"><path class="h" d="M65.895,394.925S54.938,389.8,54.317,380.463a.4.4,0,0,1,.609-.373C56.567,381.12,61.145,384.718,65.895,394.925Z" transform="translate(-54.316 -380.028)"/><g transform="translate(2.363 3.547)"><path class="g" d="M57.452,384.732a10.618,10.618,0,0,1,1.408,1.616l3.2,4.043,3.213,4.031a11.613,11.613,0,0,1,1.3,1.7,8.965,8.965,0,0,1-1.54-1.5c-.893-.978-2.076-2.374-3.325-3.959s-2.341-3.05-3.1-4.13A9.64,9.64,0,0,1,57.452,384.732Z" transform="translate(-57.448 -384.73)"/></g></g><g transform="translate(20.918 55.965)"><g transform="translate(3.584 2.751)"><path class="g" d="M91.785,336.735A.865.865,0,0,1,91.8,337c-.005.21-.011.465-.019.773-.032.726-.075,1.708-.13,2.933-.141,2.578-.338,6.173-.574,10.473v.011l0,.014c-.782,4.377-3.01,9.228-6.005,13.938-2.2,3.469-4.5,6.624-6.484,9.557a67.837,67.837,0,0,0-4.861,8.036,34.065,34.065,0,0,0-2.274,5.9c-.193.723-.338,1.286-.421,1.672a2.958,2.958,0,0,1-.161.582,3.077,3.077,0,0,1,.071-.6c.055-.393.173-.965.34-1.7a31.1,31.1,0,0,1,2.157-5.992,64.144,64.144,0,0,1,4.8-8.13c1.973-2.954,4.262-6.114,6.447-9.565,2.978-4.687,5.2-9.464,6.007-13.77l0,.025c.3-4.3.554-7.887.735-10.463.1-1.222.178-2.2.237-2.926.031-.307.056-.56.077-.769A.927.927,0,0,1,91.785,336.735Z" transform="translate(-70.862 -336.735)"/></g><g transform="translate(15.553 11.617)"><path class="j" d="M89.159,367.13s4.641-11.17-1.2-18.488a.4.4,0,0,0-.7.136C86.744,350.645,85.788,356.389,89.159,367.13Z" transform="translate(-86.729 -348.488)"/><g transform="translate(1.551 4.049)"><path class="g" d="M88.819,353.856a9.684,9.684,0,0,1,.368,2.114c.164,1.312.348,3.13.492,5.142s.213,3.842.212,5.166a8.9,8.9,0,0,1-.13,2.143,11.642,11.642,0,0,1-.19-2.133c-.1-1.482-.215-3.221-.344-5.144s-.256-3.663-.359-5.145A10.553,10.553,0,0,1,88.819,353.856Z" transform="translate(-88.785 -353.856)"/></g></g><g transform="translate(0 38.716)"><path class="p" d="M69.72,402.873s3.72-11.509-2.691-18.329a.4.4,0,0,0-.688.192C65.977,386.638,65.489,392.441,69.72,402.873Z" transform="translate(-66.111 -384.414)"/><g transform="translate(1.566 3.983)"><path class="g" d="M68.205,389.694a9.611,9.611,0,0,1,.538,2.076c.27,1.3.6,3.092.907,5.086s.523,3.812.631,5.132a8.957,8.957,0,0,1,.045,2.146,11.571,11.571,0,0,1-.363-2.111c-.219-1.469-.475-3.193-.76-5.1s-.551-3.63-.775-5.1A10.614,10.614,0,0,1,68.205,389.694Z" transform="translate(-68.187 -389.694)"/></g></g><g transform="translate(23.893)"><path class="h" d="M97.785,349.7s9.908-6.936,8.908-16.243a.4.4,0,0,0-.665-.263C104.591,334.489,100.7,338.823,97.785,349.7Z" transform="translate(-97.785 -333.088)"/><g transform="translate(0.092 3.839)"><path class="g" d="M104.93,338.178a9.556,9.556,0,0,1-.823,1.981c-.566,1.2-1.386,2.829-2.344,4.6s-1.881,3.356-2.592,4.473a8.915,8.915,0,0,1-1.26,1.739,11.652,11.652,0,0,1,.984-1.9l2.47-4.525,2.457-4.535A10.7,10.7,0,0,1,104.93,338.178Z" transform="translate(-97.906 -338.177)"/></g></g><g transform="translate(7.605 34.562)"><path class="o" d="M76.193,390.11s11.951-1.864,15.152-10.659a.4.4,0,0,0-.481-.528C89,379.455,83.6,381.633,76.193,390.11Z" transform="translate(-76.193 -378.907)"/><g transform="translate(0.073 2.87)"><path class="g" d="M88.229,382.716a9.646,9.646,0,0,1-1.612,1.416c-1.034.824-2.489,1.928-4.132,3.1s-3.167,2.184-4.3,2.874a8.9,8.9,0,0,1-1.9,1.006,11.634,11.634,0,0,1,1.721-1.274l4.21-2.975,4.2-2.989A10.593,10.593,0,0,1,88.229,382.716Z" transform="translate(-76.29 -382.712)"/></g></g></g><g transform="translate(13.636 123.723)"><path class="l" d="M59.944,422.915l-3.486,23.463H78.182l-2.817-23.463Z" transform="translate(-56.458 -422.915)"/></g><g transform="translate(15.892 130.768)"><path class="g" d="M76.969,432.48a84.911,84.911,0,0,1-8.761.226,84.9,84.9,0,0,1-8.761-.226,85.3,85.3,0,0,1,8.761-.226A85.308,85.308,0,0,1,76.969,432.48Z" transform="translate(-59.448 -432.254)"/></g><g transform="translate(15.749 132.635)"><path class="g" d="M77.353,434.955c0,.125-4.051.226-9.047.226s-9.048-.1-9.048-.226,4.05-.226,9.048-.226S77.353,434.83,77.353,434.955Z" transform="translate(-59.258 -434.729)"/></g></g></g></svg>