<?xml version="1.0" encoding="utf-8"?>
<!-- Generator: Adobe Illustrator 19.0.0, SVG Export Plug-In . SVG Version: 6.00 Build 0)  -->
<svg version="1.1" id="Layer_1" xmlns="http://www.w3.org/2000/svg" xmlns:xlink="http://www.w3.org/1999/xlink" x="0px" y="0px"
	 viewBox="-271 367 69 60" style="enable-background:new -271 367 69 60;" xml:space="preserve">
<style type="text/css">
	.st0{clip-path:url(#SVGID_2_);fill:#FFFFFF;}
	.st1{clip-path:url(#SVGID_2_);fill:none;stroke:#0033CC;stroke-miterlimit:10;}
	.st2{clip-path:url(#SVGID_2_);}
	.st3{fill:none;stroke:#0033CC;}
	.st4{fill:#0033CC;}
</style>
<g>
	<defs>
		<rect id="SVGID_1_" x="-271" y="367" width="69" height="60"/>
	</defs>
	<clipPath id="SVGID_2_">
		<use xlink:href="#SVGID_1_"  style="overflow:visible;"/>
	</clipPath>
	<path class="st0" d="M-233.2,394.6c-0.6-0.2-1.2-0.1-1.7,0.2c-0.1,0.1-0.1,0.2-0.1,0.3c0,0.6,0,1.1,0,1.7c0,0.2,0.2,0.4,0.4,0.5
		c0.6,0.4,1.4,0.2,1.8-0.4c0.2-0.3,0.3-0.6,0.2-1v-0.3C-232.7,395.2-232.7,394.7-233.2,394.6z"/>
	<path class="st0" d="M-243.6,397.3c1.1,0,1.3-0.2,1.3-1.4s-0.2-1.4-1.3-1.4c-1.1,0-1.2,0.2-1.2,1.4
		C-244.7,397.2-244.6,397.3-243.6,397.3z"/>
	<path class="st0" d="M-238.3,397.3c0.4,0,0.8-0.3,0.8-0.7c0-0.2,0-0.5,0-0.7c0-1-0.1-1.3-0.7-1.3c-0.3,0-0.7,0-1,0
		c-0.3,0-0.6,0.3-0.7,0.6C-240.4,396.7-239.9,397.4-238.3,397.3z"/>
	<path class="st0" d="M-228,395.9c0-0.5,0.2-1.2-0.6-1.4c-1.4-0.3-2-0.1-2,1.4c0,0.2,0,0.4,0,0.5c0.1,0.4,0.2,0.8,0.7,0.8
		c0.6,0,1.2,0.3,1.7-0.3C-227.8,396.7-228,396.3-228,395.9z"/>
	<path class="st0" d="M-228.7,405.1c-0.9-0.2-1.5,0-1.7,0.6c-0.2,0.6-0.2,1.1,0,1.7c0,0.2,0.2,0.4,0.4,0.4c0.6,0.4,1.4,0.2,1.8-0.4
		c0.2-0.3,0.3-0.6,0.2-0.9c0-0.2,0-0.3,0-0.5c0.1-0.4-0.2-0.8-0.6-0.9C-228.6,405.1-228.6,405.1-228.7,405.1z"/>
	<path class="st0" d="M-234.7,386.6c1.2,0.5,2-0.1,2-1.4c0-0.4,0.1-1-0.4-1.2c-0.6-0.3-1.2,0.1-1.8,0.1c-0.1,0-0.2,0.2-0.2,0.3
		c0,0.6,0,1.2,0,1.7C-235.1,386.4-234.9,386.6-234.7,386.6z"/>
	<path class="st0" d="M-243.6,386.7c1.1,0,1.3-0.2,1.3-1.5c0-1.2,0-1.3-1.8-1.2c-0.9,0-0.5,0.8-0.7,1.2
		C-244.7,386.6-244.6,386.7-243.6,386.7z"/>
	<path class="st0" d="M-238.8,386.7c1.1,0,1.2-0.1,1.2-1.4c0-1.3,0-1.4-1.8-1.3c-0.8,0-0.6,0.8-0.7,1.3
		C-240,386.5-239.8,386.7-238.8,386.7z"/>
	<path class="st0" d="M-229.1,386.7c1.1,0,1.2-0.2,1.2-1.4c0-1.3,0-1.3-1.8-1.3c-0.5,0-0.7,0.3-0.7,1.3
		C-230.5,386.5-230.2,386.7-229.1,386.7z"/>
	<path class="st0" d="M-243.5,405.1c-1,0-1.2,0.2-1.2,1.3c0,1.3,0.2,1.5,1.4,1.5c0.9,0,1.1-0.2,1.1-1.4
		C-242.2,405.4-242.5,405.1-243.5,405.1z"/>
	<path class="st0" d="M-232.7,400.5c0-0.3-0.2-0.5-0.4-0.6c-0.6-0.1-1.2,0-1.8,0.2c-0.2,0-0.2,0.3-0.2,0.5v0.7l0,0
		c0,0.2,0,0.5,0,0.7c0,0.3,0.2,0.6,0.5,0.6c1.8,0.1,2,0.1,2-1.6C-232.7,400.8-232.7,400.7-232.7,400.5z"/>
	<path class="st0" d="M-244.7,390.5c0,1.4,0,1.4,1,1.4c1.3,0,1.5-0.1,1.5-1.4c0.1-0.4,0-0.8-0.3-1.1c-0.5-0.5-1.1,0-1.6-0.1
		C-245.1,389.3-244.6,390.2-244.7,390.5z"/>
	<path class="st0" d="M-238.2,389.3c-1.7,0-1.8,0.1-1.8,1.3c0,1.2,0.1,1.4,1.1,1.4c1.4,0,1.4,0,1.4-1.4
		C-237.6,390.1-237.3,389.3-238.2,389.3z"/>
	<path class="st0" d="M-242.2,400.8c-0.1-0.7-0.3-0.9-1-0.8c-0.3,0-0.6,0.1-0.8,0c-0.5-0.1-0.6,0.2-0.6,0.6v0.6l0,0v0.7
		c0,0.3,0.2,0.6,0.5,0.6c0,0,0,0,0,0c1.6,0.1,2,0.1,1.9-1.5C-242.2,400.9-242.2,400.8-242.2,400.8z"/>
	<path class="st0" d="M-228.9,402.6c0.8,0,0.9-0.2,0.9-1.4c0-1.5-0.1-1.3-1.2-1.3c-1.3,0-1.3,0-1.3,1.2
		C-230.5,402.4-230.3,402.6-228.9,402.6z"/>
	<path class="st0" d="M-234.1,392c1.3,0,1.5-0.1,1.5-1.2c0-1.3,0-1.3-1.3-1.3c-1.2,0-1.2-0.2-1.2,1.1
		C-235.2,391.9-235.1,392-234.1,392z"/>
	<path class="st0" d="M-230.4,390.6c0,1.2,0.2,1.4,1.2,1.4c1.3,0,1.3,0,1.3-1.3c0-1.3,0-1.3-1.9-1.2
		C-230.7,389.4-230.4,390.1-230.4,390.6z"/>
	<path class="st0" d="M-238.8,400c-1.2,0-1.2,0-1.2,1.1c0,1.3,0.1,1.5,1.2,1.5c1.2,0,1.3-0.1,1.3-1.2
		C-237.5,400-237.5,400-238.8,400z"/>
	<path class="st1" d="M-236.6,425.4c-4.9,0.1-9.7-1.1-14-3.6c-1.8-1.1-3.5-2.3-5-3.7c-4.9-4.6-8-10.9-8.7-17.6
		c-0.5-4.9,0.2-9.8,2.1-14.2c1.1-2.6,2.6-5,4.4-7.1c2.5-2.9,5.5-5.2,8.9-6.9c2.5-1.2,5.1-2,7.8-2.4c2.1-0.3,4.3-0.4,6.4-0.2
		c3.1,0.2,6.1,1,8.8,2.3c2.2,1,4.3,2.3,6.2,3.8c2.9,2.4,5.3,5.3,7,8.6c1.6,2.9,2.6,6.2,3,9.5c0.3,2.2,0.3,4.5,0.1,6.7
		c-0.3,3-1,5.9-2.3,8.7c-0.9,2-2,3.9-3.4,5.7c-2.7,3.5-6.1,6.3-10.1,8.2c-2.4,1.1-4.9,1.9-7.5,2.3
		C-234,425.3-235.3,425.4-236.6,425.4z"/>
	<g transform="translate(91.494 170.345)" class="st2">
		<path class="st3" d="M-316.1,208.8h-23.6c-1.2,0-1.6,0.4-1.6,1.6v33.4c0,1.1,0.4,1.5,1.5,1.5h23.7c1,0,1.5-0.4,1.5-1.5v-33.6
			C-314.6,209.2-315,208.8-316.1,208.8z M-317.9,242.7c-1.9,0-3.7,0-5.6,0c-0.5,0-0.7-0.1-0.7-0.7c0-1.2,0-2.4,0-3.6
			c0-0.8-0.2-1-1-1h-5.4c-0.8,0-1,0.2-1,1c0,1.2,0,2.4,0,3.6c0,0.5-0.2,0.7-0.7,0.7c-1.9,0-3.8,0-5.7,0c-0.6,0-0.8-0.2-0.8-0.8
			c0-5,0-9.9,0-14.9v-14.7c0-0.9,0-0.9,0.9-0.9h19.9c0.9,0,0.9,0,0.9,0.9c0,9.9,0,19.7,0,29.5C-317.1,242.5-317.3,242.7-317.9,242.7
			z"/>
		<path class="st4" d="M-324.8,224.4c-0.6-0.2-1.2-0.1-1.8,0.2c-0.1,0.1-0.1,0.2-0.1,0.3c0,0.6,0,1.1,0,1.6c0,0.2,0.2,0.4,0.4,0.5
			c0.6,0.4,1.4,0.2,1.9-0.4c0.2-0.3,0.3-0.6,0.2-0.9v-0.3C-324.2,225-324.3,224.6-324.8,224.4z"/>
		<path class="st4" d="M-335.2,227.1c1.1,0,1.3-0.2,1.3-1.3s-0.2-1.4-1.3-1.4c-1.1,0-1.2,0.2-1.2,1.4S-336.3,227.1-335.2,227.1z"/>
		<path class="st4" d="M-329.9,227.1c0.4,0,0.8-0.3,0.8-0.7c0-0.2,0-0.5,0-0.7c0-1-0.1-1.2-0.7-1.3c-0.4,0-0.7,0-1.1,0
			c-0.3,0-0.6,0.3-0.7,0.6C-332,226.5-331.5,227.2-329.9,227.1z"/>
		<path class="st4" d="M-319.5,225.8c0-0.5,0.2-1.2-0.6-1.3c-1.4-0.3-2.1-0.1-2,1.4c0,0.2,0,0.4,0,0.5c0.1,0.4,0.2,0.8,0.7,0.8
			c0.6,0,1.3,0.3,1.7-0.3C-319.4,226.5-319.5,226.1-319.5,225.8z"/>
		<path class="st4" d="M-320.2,234.8c-0.9-0.2-1.6,0-1.7,0.6c-0.2,0.5-0.2,1.1,0,1.7c0,0.2,0.2,0.4,0.4,0.4c0.6,0.4,1.4,0.2,1.8-0.4
			c0.2-0.3,0.3-0.6,0.2-0.9c0-0.2,0-0.3,0-0.5c0.1-0.4-0.2-0.8-0.6-0.9C-320.1,234.8-320.1,234.8-320.2,234.8z"/>
		<path class="st4" d="M-326.3,216.6c1.2,0.5,2-0.1,2-1.4c0-0.4,0.1-0.9-0.4-1.2c-0.6-0.3-1.2,0.1-1.8,0.1c-0.1,0-0.3,0.2-0.3,0.3
			c0,0.6,0,1.1,0,1.7C-326.7,216.4-326.5,216.5-326.3,216.6z"/>
		<path class="st4" d="M-335.2,216.7c1.1,0,1.3-0.2,1.3-1.4s0-1.2-1.9-1.2c-1,0-0.5,0.8-0.7,1.2
			C-336.4,216.6-336.2,216.7-335.2,216.7z"/>
		<path class="st4" d="M-330.4,216.7c1.1,0,1.2-0.1,1.2-1.4c0-1.3,0-1.3-1.8-1.3c-0.8,0-0.6,0.7-0.7,1.3
			C-331.6,216.5-331.4,216.7-330.4,216.7z"/>
		<path class="st4" d="M-320.7,216.7c1.1,0,1.2-0.2,1.2-1.4c0-1.3,0-1.3-1.8-1.3c-0.5,0-0.7,0.3-0.7,1.3
			C-322,216.5-321.8,216.7-320.7,216.7z"/>
		<path class="st4" d="M-335.2,234.8c-1,0-1.2,0.2-1.2,1.2c0,1.3,0.2,1.5,1.4,1.5c0.9,0,1.1-0.2,1.1-1.3
			C-333.9,235.1-334.1,234.8-335.2,234.8z"/>
		<path class="st4" d="M-324.3,230.3c0-0.3-0.2-0.5-0.4-0.6c-0.6-0.1-1.3,0-1.9,0.2c-0.2,0-0.2,0.3-0.2,0.4v0.7l0,0
			c0,0.2,0,0.5,0,0.7c0,0.3,0.2,0.6,0.5,0.6c1.8,0.1,2,0.1,2-1.5C-324.2,230.6-324.2,230.4-324.3,230.3z"/>
		<path class="st4" d="M-336.4,220.5c0,1.4,0,1.4,1,1.4c1.4,0,1.5-0.1,1.5-1.3c0.1-0.4,0-0.8-0.3-1.1c-0.5-0.5-1.1,0-1.6-0.1
			C-336.8,219.3-336.2,220.1-336.4,220.5z"/>
		<path class="st4" d="M-329.8,219.2c-1.7,0-1.9,0.1-1.9,1.2c0,1.2,0.1,1.4,1.1,1.4c1.4,0,1.4,0,1.4-1.4
			C-329.2,220.1-328.8,219.3-329.8,219.2z"/>
		<path class="st4" d="M-333.9,230.5c-0.1-0.7-0.3-0.9-1-0.8c-0.3,0-0.6,0.1-0.8,0c-0.5-0.1-0.6,0.2-0.6,0.6v0.6l0,0v0.7
			c0,0.3,0.2,0.6,0.5,0.6c0,0,0,0,0,0c1.6,0.1,2,0.1,2-1.5C-333.9,230.7-333.9,230.6-333.9,230.5z"/>
		<path class="st4" d="M-320.4,232.3c0.8,0,0.9-0.2,1-1.3c0-1.5-0.1-1.3-1.2-1.2c-1.3,0-1.3,0-1.3,1.2
			C-322,232.2-321.8,232.3-320.4,232.3z"/>
		<path class="st4" d="M-325.7,221.9c1.3,0,1.5-0.1,1.5-1.2c0-1.3,0-1.3-1.3-1.3c-1.2,0-1.2-0.2-1.2,1
			C-326.8,221.8-326.7,221.9-325.7,221.9z"/>
		<path class="st4" d="M-322,220.5c0,1.1,0.2,1.3,1.2,1.3c1.3,0,1.3,0,1.3-1.3c0-1.2,0-1.3-1.9-1.2
			C-322.2,219.4-322,220.1-322,220.5z"/>
		<path class="st4" d="M-330.4,229.8c-1.2,0-1.2,0-1.2,1.1c0,1.3,0.1,1.4,1.2,1.5c1.2,0,1.3-0.1,1.3-1.1
			C-329.1,229.8-329.1,229.8-330.4,229.8z"/>
	</g>
</g>
</svg>
