<?xml version="1.0" encoding="utf-8"?>
<!-- Generator: Adobe Illustrator 19.0.0, SVG Export Plug-In . SVG Version: 6.00 Build 0)  -->
<svg version="1.1" id="Layer_1" xmlns="http://www.w3.org/2000/svg" xmlns:xlink="http://www.w3.org/1999/xlink" x="0px" y="0px"
	 viewBox="-271 367 69 60" style="enable-background:new -271 367 69 60;" xml:space="preserve">
<style type="text/css">
	.st0{clip-path:url(#SVGID_2_);fill:#FFFFFF;}
	.st1{clip-path:url(#SVGID_2_);fill:none;stroke:#0033CC;stroke-miterlimit:10;}
	.st2{clip-path:url(#SVGID_2_);fill:none;stroke:#0033CC;}
	.st3{clip-path:url(#SVGID_2_);fill:#0033CC;}
</style>
<g>
	<defs>
		<rect id="SVGID_1_" x="-271" y="367" width="69" height="60"/>
	</defs>
	<clipPath id="SVGID_2_">
		<use xlink:href="#SVGID_1_"  style="overflow:visible;"/>
	</clipPath>
	<path class="st0" d="M-233.2,394.6c-0.6-0.2-1.2-0.1-1.7,0.2c-0.1,0.1-0.1,0.2-0.1,0.3c0,0.6,0,1.1,0,1.7c0,0.2,0.2,0.4,0.4,0.5
		c0.6,0.4,1.4,0.2,1.8-0.4c0.2-0.3,0.3-0.6,0.2-1v-0.3C-232.7,395.2-232.7,394.7-233.2,394.6z"/>
	<path class="st0" d="M-243.6,397.3c1.1,0,1.3-0.2,1.3-1.4s-0.2-1.4-1.3-1.4c-1.1,0-1.2,0.2-1.2,1.4
		C-244.7,397.2-244.6,397.3-243.6,397.3z"/>
	<path class="st0" d="M-238.3,397.3c0.4,0,0.8-0.3,0.8-0.7c0-0.2,0-0.5,0-0.7c0-1-0.1-1.3-0.7-1.3c-0.3,0-0.7,0-1,0
		c-0.3,0-0.6,0.3-0.7,0.6C-240.4,396.7-239.9,397.4-238.3,397.3z"/>
	<path class="st0" d="M-228,395.9c0-0.5,0.2-1.2-0.6-1.4c-1.4-0.3-2-0.1-2,1.4c0,0.2,0,0.4,0,0.5c0.1,0.4,0.2,0.8,0.7,0.8
		c0.6,0,1.2,0.3,1.7-0.3C-227.8,396.7-228,396.3-228,395.9z"/>
	<path class="st0" d="M-228.7,405.1c-0.9-0.2-1.5,0-1.7,0.6c-0.2,0.6-0.2,1.1,0,1.7c0,0.2,0.2,0.4,0.4,0.4c0.6,0.4,1.4,0.2,1.8-0.4
		c0.2-0.3,0.3-0.6,0.2-0.9c0-0.2,0-0.3,0-0.5c0.1-0.4-0.2-0.8-0.6-0.9C-228.6,405.1-228.6,405.1-228.7,405.1z"/>
	<path class="st0" d="M-234.7,386.6c1.2,0.5,2-0.1,2-1.4c0-0.4,0.1-1-0.4-1.2c-0.6-0.3-1.2,0.1-1.8,0.1c-0.1,0-0.2,0.2-0.2,0.3
		c0,0.6,0,1.2,0,1.7C-235.1,386.4-234.9,386.6-234.7,386.6z"/>
	<path class="st0" d="M-243.6,386.7c1.1,0,1.3-0.2,1.3-1.5c0-1.2,0-1.3-1.8-1.2c-0.9,0-0.5,0.8-0.7,1.2
		C-244.7,386.6-244.6,386.7-243.6,386.7z"/>
	<path class="st0" d="M-238.8,386.7c1.1,0,1.2-0.1,1.2-1.4c0-1.3,0-1.4-1.8-1.3c-0.8,0-0.6,0.8-0.7,1.3
		C-240,386.5-239.8,386.7-238.8,386.7z"/>
	<path class="st0" d="M-229.1,386.7c1.1,0,1.2-0.2,1.2-1.4c0-1.3,0-1.3-1.8-1.3c-0.5,0-0.7,0.3-0.7,1.3
		C-230.5,386.5-230.2,386.7-229.1,386.7z"/>
	<path class="st0" d="M-243.5,405.1c-1,0-1.2,0.2-1.2,1.3c0,1.3,0.2,1.5,1.4,1.5c0.9,0,1.1-0.2,1.1-1.4
		C-242.2,405.4-242.5,405.1-243.5,405.1z"/>
	<path class="st0" d="M-232.7,400.5c0-0.3-0.2-0.5-0.4-0.6c-0.6-0.1-1.2,0-1.8,0.2c-0.2,0-0.2,0.3-0.2,0.5v0.7l0,0
		c0,0.2,0,0.5,0,0.7c0,0.3,0.2,0.6,0.5,0.6c1.8,0.1,2,0.1,2-1.6C-232.7,400.8-232.7,400.7-232.7,400.5z"/>
	<path class="st0" d="M-244.7,390.5c0,1.4,0,1.4,1,1.4c1.3,0,1.5-0.1,1.5-1.4c0.1-0.4,0-0.8-0.3-1.1c-0.5-0.5-1.1,0-1.6-0.1
		C-245.1,389.3-244.6,390.2-244.7,390.5z"/>
	<path class="st0" d="M-238.2,389.3c-1.7,0-1.8,0.1-1.8,1.3c0,1.2,0.1,1.4,1.1,1.4c1.4,0,1.4,0,1.4-1.4
		C-237.6,390.1-237.3,389.3-238.2,389.3z"/>
	<path class="st0" d="M-242.2,400.8c-0.1-0.7-0.3-0.9-1-0.8c-0.3,0-0.6,0.1-0.8,0c-0.5-0.1-0.6,0.2-0.6,0.6v0.6l0,0v0.7
		c0,0.3,0.2,0.6,0.5,0.6c0,0,0,0,0,0c1.6,0.1,2,0.1,1.9-1.5C-242.2,400.9-242.2,400.8-242.2,400.8z"/>
	<path class="st0" d="M-228.9,402.6c0.8,0,0.9-0.2,0.9-1.4c0-1.5-0.1-1.3-1.2-1.3c-1.3,0-1.3,0-1.3,1.2
		C-230.5,402.4-230.3,402.6-228.9,402.6z"/>
	<path class="st0" d="M-234.1,392c1.3,0,1.5-0.1,1.5-1.2c0-1.3,0-1.3-1.3-1.3c-1.2,0-1.2-0.2-1.2,1.1
		C-235.2,391.9-235.1,392-234.1,392z"/>
	<path class="st0" d="M-230.4,390.6c0,1.2,0.2,1.4,1.2,1.4c1.3,0,1.3,0,1.3-1.3c0-1.3,0-1.3-1.9-1.2
		C-230.7,389.4-230.4,390.1-230.4,390.6z"/>
	<path class="st0" d="M-238.8,400c-1.2,0-1.2,0-1.2,1.1c0,1.3,0.1,1.5,1.2,1.5c1.2,0,1.3-0.1,1.3-1.2
		C-237.5,400-237.5,400-238.8,400z"/>
	<path class="st1" d="M-236.6,425.4c-4.9,0.1-9.7-1.1-14-3.6c-1.8-1.1-3.5-2.3-5-3.7c-4.9-4.6-8-10.9-8.7-17.6
		c-0.5-4.9,0.2-9.8,2.1-14.2c1.1-2.6,2.6-5,4.4-7.1c2.5-2.9,5.5-5.2,8.9-6.9c2.5-1.2,5.1-2,7.8-2.4c2.1-0.3,4.3-0.4,6.4-0.2
		c3.1,0.2,6.1,1,8.8,2.3c2.2,1,4.3,2.3,6.2,3.8c2.9,2.4,5.3,5.3,7,8.6c1.6,2.9,2.6,6.2,3,9.5c0.3,2.2,0.3,4.5,0.1,6.7
		c-0.3,3-1,5.9-2.3,8.7c-0.9,2-2,3.9-3.4,5.7c-2.7,3.5-6.1,6.3-10.1,8.2c-2.4,1.1-4.9,1.9-7.5,2.3
		C-234,425.3-235.3,425.4-236.6,425.4z"/>
	<path class="st2" d="M-224.6,379.2h-23.6c-1.2,0-1.6,0.4-1.6,1.6v33.4c0,1.1,0.4,1.5,1.5,1.5h23.7c1,0,1.5-0.4,1.5-1.5v-33.6
		C-223.1,379.6-223.5,379.2-224.6,379.2z M-226.4,413.1c-1.9,0-3.7,0-5.6,0c-0.5,0-0.7-0.1-0.7-0.7c0-1.2,0-2.4,0-3.6
		c0-0.8-0.2-1-1-1h-5.4c-0.8,0-1,0.2-1,1c0,1.2,0,2.4,0,3.6c0,0.5-0.2,0.7-0.7,0.7c-1.9,0-3.8,0-5.7,0c-0.6,0-0.8-0.2-0.8-0.8
		c0-5,0-9.9,0-14.9v-14.7c0-0.9,0-0.9,0.9-0.9h19.9c0.9,0,0.9,0,0.9,0.9c0,9.9,0,19.7,0,29.5C-225.6,412.9-225.8,413.1-226.4,413.1z
		"/>
	<path class="st3" d="M-233.3,394.8c-0.6-0.2-1.2-0.1-1.8,0.2c-0.1,0.1-0.1,0.2-0.1,0.3c0,0.6,0,1.1,0,1.6c0,0.2,0.2,0.4,0.4,0.5
		c0.6,0.4,1.4,0.2,1.9-0.4c0.2-0.3,0.3-0.6,0.2-0.9v-0.3C-232.7,395.4-232.8,394.9-233.3,394.8z"/>
	<path class="st3" d="M-243.7,397.5c1.1,0,1.3-0.2,1.3-1.3s-0.2-1.4-1.3-1.4c-1.1,0-1.2,0.2-1.2,1.4S-244.8,397.5-243.7,397.5z"/>
	<path class="st3" d="M-238.4,397.5c0.4,0,0.8-0.3,0.8-0.7c0-0.2,0-0.5,0-0.7c0-1-0.1-1.2-0.7-1.3c-0.4,0-0.7,0-1.1,0
		c-0.3,0-0.6,0.3-0.7,0.6C-240.5,396.8-240,397.6-238.4,397.5z"/>
	<path class="st3" d="M-228,396.1c0-0.5,0.2-1.2-0.6-1.3c-1.4-0.3-2.1-0.1-2,1.4c0,0.2,0,0.4,0,0.5c0.1,0.4,0.2,0.8,0.7,0.8
		c0.6,0,1.3,0.3,1.7-0.3C-227.9,396.8-228,396.4-228,396.1z"/>
	<path class="st3" d="M-228.7,405.2c-0.9-0.2-1.6,0-1.7,0.6c-0.2,0.5-0.2,1.1,0,1.7c0,0.2,0.2,0.4,0.4,0.4c0.6,0.4,1.4,0.2,1.8-0.4
		c0.2-0.3,0.3-0.6,0.2-0.9c0-0.2,0-0.3,0-0.5c0.1-0.4-0.2-0.8-0.6-0.9C-228.6,405.2-228.6,405.2-228.7,405.2z"/>
	<path class="st3" d="M-234.8,387c1.2,0.5,2-0.1,2-1.4c0-0.4,0.1-0.9-0.4-1.2c-0.6-0.3-1.2,0.1-1.8,0.1c-0.1,0-0.3,0.2-0.3,0.3
		c0,0.6,0,1.1,0,1.7C-235.2,386.8-235,386.9-234.8,387z"/>
	<path class="st3" d="M-243.7,387.1c1.1,0,1.3-0.2,1.3-1.4s0-1.2-1.9-1.2c-0.9,0-0.5,0.8-0.7,1.2
		C-244.9,386.9-244.8,387.1-243.7,387.1z"/>
	<path class="st3" d="M-238.9,387.1c1.1,0,1.2-0.1,1.2-1.4c0-1.3,0-1.3-1.8-1.3c-0.8,0-0.6,0.7-0.7,1.3
		C-240.1,386.8-239.9,387.1-238.9,387.1z"/>
	<path class="st3" d="M-229.2,387.1c1.1,0,1.2-0.2,1.2-1.4c0-1.3,0-1.3-1.8-1.3c-0.5,0-0.7,0.3-0.7,1.3
		C-230.5,386.8-230.3,387.1-229.2,387.1z"/>
	<path class="st3" d="M-243.7,405.1c-1,0-1.2,0.2-1.2,1.2c0,1.3,0.2,1.5,1.4,1.5c0.9,0,1.1-0.2,1.1-1.3
		C-242.4,405.4-242.6,405.1-243.7,405.1z"/>
	<path class="st3" d="M-232.8,400.6c0-0.3-0.2-0.5-0.4-0.6c-0.6-0.1-1.3,0-1.9,0.2c-0.2,0-0.2,0.3-0.2,0.4v0.7l0,0
		c0,0.2,0,0.5,0,0.7c0,0.3,0.2,0.6,0.5,0.6c1.8,0.1,2,0.1,2-1.5C-232.7,400.9-232.7,400.8-232.8,400.6z"/>
	<path class="st3" d="M-244.9,390.8c0,1.4,0,1.4,1,1.4c1.4,0,1.5-0.1,1.5-1.3c0.1-0.4,0-0.8-0.3-1.1c-0.5-0.5-1.1,0-1.6-0.1
		C-245.3,389.6-244.7,390.5-244.9,390.8z"/>
	<path class="st3" d="M-238.3,389.6c-1.7,0-1.9,0.1-1.9,1.2c0,1.2,0.1,1.4,1.1,1.4c1.4,0,1.4,0,1.4-1.4
		C-237.7,390.4-237.4,389.6-238.3,389.6z"/>
	<path class="st3" d="M-242.4,400.9c-0.1-0.7-0.3-0.9-1-0.8c-0.3,0-0.6,0.1-0.8,0c-0.5-0.1-0.6,0.2-0.6,0.6v0.6l0,0v0.7
		c0,0.3,0.2,0.6,0.5,0.6c0,0,0,0,0,0c1.6,0.1,2,0.1,2-1.5C-242.4,401-242.4,400.9-242.4,400.9z"/>
	<path class="st3" d="M-228.9,402.7c0.8,0,0.9-0.2,1-1.3c0-1.5-0.1-1.3-1.2-1.2c-1.3,0-1.3,0-1.3,1.2
		C-230.5,402.5-230.3,402.7-228.9,402.7z"/>
	<path class="st3" d="M-234.2,392.2c1.3,0,1.5-0.1,1.5-1.2c0-1.3,0-1.3-1.3-1.3c-1.2,0-1.2-0.2-1.2,1
		C-235.3,392.2-235.2,392.2-234.2,392.2z"/>
	<path class="st3" d="M-230.5,390.9c0,1.1,0.2,1.3,1.2,1.3c1.3,0,1.3,0,1.3-1.3c0-1.2,0-1.3-1.9-1.2
		C-230.7,389.7-230.5,390.4-230.5,390.9z"/>
	<path class="st3" d="M-238.9,400.1c-1.2,0-1.2,0-1.2,1.1c0,1.3,0.1,1.4,1.2,1.5c1.2,0,1.3-0.1,1.3-1.1
		C-237.6,400.1-237.6,400.1-238.9,400.1z"/>
</g>
</svg>
