<svg xmlns="http://www.w3.org/2000/svg" width="565.987" height="321.369" viewBox="0 0 565.987 321.369"><defs><style>.a{fill:#e0e0e0;}.b{fill:#f5f5f5;}.c{fill:#ebebeb;}.d{fill:#455a64;}.e{fill:#75c6fa;}.f{fill:#fff;}.g{fill:#263238;}.h{fill:#425163;}.i{fill:#2680eb;}.j{fill:#f2f2f2;}.k{fill:#c4c9ce;}.l{fill:#ffbe9d;}.m{fill:none;stroke:#4e585d;stroke-miterlimit:10;stroke-width:0.05px;}.n{fill:#b78876;}.o{fill:#0048cd;}.p{opacity:0.2;}.q{fill:#0894fe;}.r{fill:#99a2ab;}</style></defs><g transform="translate(-56.228 -71.756)"><g transform="translate(56.228 72.729)"><g transform="translate(144.381)"><path class="a" d="M230.223,85.65a6.641,6.641,0,0,0,3.956-6.144,6.241,6.241,0,1,0-12.456-.058,6.631,6.631,0,0,0,3.969,6.2c-9.584,1.444-9.149,11.859-9.149,11.859l22.663.1S239.724,87.085,230.223,85.65Z" transform="translate(-216.541 -72.836)"/></g><g transform="translate(515.496 45.939)"><path class="b" d="M639.124,145.515,628.606,134.2l3.406-3.166,7.261,7.811,15.248-15,3.261,3.315Z" transform="translate(-628.606 -123.843)"/></g><path class="c" d="M468.6,215.441c0-7.731-8.125-12.629-16.407-8.754a9.406,9.406,0,0,0-4.358,4.177c-2.084,4.037-1.164,8.647.726,12.474l6.446,16.337a2.778,2.778,0,0,0,5.176-.022l6.321-16.422C468.69,218.23,468.6,215.441,468.6,215.441Zm-7.782,6.729c-5.568,3.238-11.211-2.747-8.159-8.652a4.637,4.637,0,0,1,1.769-1.875c5.568-3.239,11.212,2.746,8.159,8.652A4.637,4.637,0,0,1,460.816,222.17Z" transform="translate(-95.027 -86.003)"/><g transform="translate(452.978 120.424)"><path class="c" d="M575.564,327.8c-17.358-15.851-18.35-40.979-14.577-62.925.63-3.665.752-7.6,2.968-10.587s6.656-4.624,9.783-2.614c2.593,1.666,3.366,5.012,4.555,7.855a21.924,21.924,0,0,0,7.617,9.448c2.208,1.543,5.044,2.689,7.563,1.735,3.457-1.309,4.436-5.642,4.914-9.309q1.335-10.241,2.67-20.485c.477-3.665.976-7.4,2.606-10.719s4.617-6.194,8.28-6.684,7.751,2.117,8.006,5.8c.105,1.534-.414,3.04-.52,4.573s.384,3.313,1.788,3.938c1.421.632,3.047-.2,4.3-1.12,4.334-3.171,7.583-7.575,10.658-11.977s6.1-8.924,10.119-12.479,9.267-6.089,14.619-5.656,10.57,4.447,11.208,9.778c.64,5.346-3.128,10.163-7.018,13.884a83,83,0,0,1-19.454,13.85c-1.282.658-2.67,1.37-3.3,2.664-1.138,2.329.874,5.076,3.2,6.214,2.642,1.288,5.679,1.417,8.525,2.15s5.807,2.423,6.533,5.271c1.006,3.952-2.7,7.437-6.172,9.577a71.771,71.771,0,0,1-22.625,9.074c-2.864.612-5.852,1.081-8.311,2.67s-4.237,4.7-3.261,7.458,4.276,4.059,7.2,3.929,5.7-1.31,8.56-1.95c5.357-1.2,11.891.053,14.561,4.849,1.754,3.153,1.4,7.159-.152,10.417a26.887,26.887,0,0,1-6.859,8.274,71.932,71.932,0,0,1-33.34,16.938c-12.378,2.422-23.483,2.012-34.653-3.844" transform="translate(-559.19 -206.548)"/><g transform="translate(17.754 4.069)"><path class="a" d="M578.9,337.18c2.008-8.62,1.5-11.279,6.331-21.938a328.846,328.846,0,0,1,18.025-33.5l5.182-8.54c1.707-2.8,3.4-5.574,5.224-8.187a165.174,165.174,0,0,1,11.36-14.418c3.839-4.412,7.645-8.461,11.233-12.223s7.015-7.192,10.266-10.194a132.548,132.548,0,0,1,16.394-13.022c2.052-1.383,3.676-2.406,4.788-3.086l1.266-.766c.287-.17.442-.245.442-.245s-.134.107-.412.294l-1.237.811c-1.09.711-2.7,1.761-4.725,3.17a138.6,138.6,0,0,0-16.247,13.132c-3.228,3.013-6.623,6.459-10.2,10.224s-7.359,7.83-11.18,12.243a166.041,166.041,0,0,0-11.3,14.39c-1.814,2.6-3.491,5.359-5.2,8.166s-3.43,5.655-5.179,8.537A335.572,335.572,0,0,0,585.7,315.454c-4.845,10.622-4.364,13.235-6.417,21.817" transform="translate(-578.903 -211.066)"/></g><g transform="translate(52.459 16.966)"><path class="a" d="M617.641,266.408a8.874,8.874,0,0,1-.123-1.612c-.049-1.038-.073-2.542-.078-4.4-.015-3.717.134-8.849.313-14.509s.238-10.786.143-14.493c-.042-1.854-.095-3.355-.146-4.391a8.826,8.826,0,0,1-.013-1.616,9.055,9.055,0,0,1,.23,1.6c.119,1.033.231,2.534.323,4.391.2,3.715.2,8.857.022,14.524-.185,5.609-.352,10.686-.477,14.5-.04,1.777-.072,3.254-.1,4.4A8.9,8.9,0,0,1,617.641,266.408Z" transform="translate(-617.438 -225.387)"/></g><g transform="translate(52.662 54.86)"><path class="a" d="M666.551,268.345a1.707,1.707,0,0,1-.5.013l-1.428-.073c-1.238-.07-3.03-.174-5.247-.23-4.43-.148-10.561-.129-17.319.191s-12.864.9-17.265,1.438c-2.2.256-3.979.512-5.208.684l-1.417.191a1.724,1.724,0,0,1-.5.03,1.683,1.683,0,0,1,.482-.14c.384-.08.846-.178,1.4-.294,1.219-.239,2.991-.556,5.192-.862,4.4-.642,10.514-1.271,17.291-1.6s12.922-.276,17.362-.027c2.219.106,4.012.27,5.247.406l1.421.177A1.706,1.706,0,0,1,666.551,268.345Z" transform="translate(-617.663 -267.462)"/></g><g transform="translate(8.946 44.022)"><path class="a" d="M584.914,318.84a2.937,2.937,0,0,1-.235-.621c-.15-.474-.339-1.075-.572-1.818-.492-1.581-1.147-3.883-1.92-6.739-1.552-5.71-3.452-13.661-5.438-22.463s-3.824-16.761-5.277-22.49c-.724-2.811-1.317-5.109-1.746-6.78-.193-.754-.349-1.365-.47-1.844a2.962,2.962,0,0,1-.128-.655,3.082,3.082,0,0,1,.236.623c.148.472.337,1.074.571,1.817.492,1.58,1.146,3.883,1.918,6.739,1.553,5.71,3.454,13.662,5.44,22.466s3.824,16.757,5.276,22.488c.725,2.809,1.317,5.108,1.747,6.779.193.755.348,1.366.47,1.846A3.02,3.02,0,0,1,584.914,318.84Z" transform="translate(-569.123 -255.428)"/></g><g transform="translate(24.737 95.977)"><path class="a" d="M652.779,313.124a3.338,3.338,0,0,1-.666.158l-1.926.342-7.087,1.219c-5.981,1.035-14.226,2.566-23.331,4.28s-17.37,3.186-23.373,4.122c-3,.47-5.433.827-7.118,1.043l-1.941.24a3.115,3.115,0,0,1-.683.045,3.184,3.184,0,0,1,.666-.157l1.925-.343,7.085-1.217c5.982-1.036,14.227-2.569,23.335-4.282s17.368-3.185,23.368-4.121c3-.469,5.433-.827,7.119-1.042l1.942-.241A3.19,3.19,0,0,1,652.779,313.124Z" transform="translate(-586.656 -313.116)"/></g></g><g transform="translate(0 129.769)"><path class="c" d="M58.072,218.3s5.365-6.1,17.6,7.373,17.707,21.68,17.707,21.68,3,2.705,4.669-.05,3.1-9.674,7.226-9.62c4.279.055,6.792,4.13,7.806,10.846s3.775,21.35,4.03,22.672c.25,1.3,1.488,2.974,2.926,1.279s8.528-15.789,15.014-12.024,6.237,22.94,6.249,25.036.623,2.828,1.683,3.059,3-4.731,5.178-8.657,5.4-8.1,8.958-5.61,8.052,15.6,1.246,40.739l-3.916,11.441L142.564,329c-25.753,3.874-38.267-2.093-40.326-5.915s2.451-6.538,6.6-8.254,9.3-3.069,9.194-4.149-.765-1.77-2.846-2.024-21.158-2.207-24.153-9.084,11.821-12.3,13.669-13.534.327-2.656-.934-3.053c-1.284-.405-15.5-4.829-22.06-6.608s-10.315-4.743-9.878-9c.421-4.1,7.457-4.731,10.386-6.073s.586-4.632.586-4.632-7.518-6.382-19.5-20.08-5.112-18.41-5.112-18.41" transform="translate(-56.228 -216.924)"/><g transform="translate(12.818 13.431)"><path class="a" d="M70.461,231.837a1.8,1.8,0,0,1,.236.234l.659.718,2.5,2.79,9.152,10.3,30.324,33.857c11.872,13.2,22.564,25.2,30.229,33.956l9.04,10.4,2.433,2.848.624.748a1.749,1.749,0,0,1,.2.266,1.7,1.7,0,0,1-.237-.234l-.658-.718-2.5-2.79-9.151-10.3c-7.728-8.7-18.457-20.66-30.329-33.862s-22.559-25.2-30.224-33.951l-9.04-10.4-2.433-2.849-.624-.748A1.669,1.669,0,0,1,70.461,231.837Z" transform="translate(-70.461 -231.837)"/></g><g transform="translate(47.249 30.52)"><path class="a" d="M108.871,250.811a24.848,24.848,0,0,1,.161,3.249l.245,7.837c.1,3.061.175,5.837.165,7.847-.006,1.006-.029,1.819-.061,2.381a3.135,3.135,0,0,1-.1.871,30.09,30.09,0,0,1-.166-3.247c-.082-2.132-.186-4.841-.3-7.837-.1-3.063-.138-5.84-.108-7.85.016-1.005.039-1.817.074-2.379A3.225,3.225,0,0,1,108.871,250.811Z" transform="translate(-108.691 -250.811)"/></g><g transform="translate(21.233 52.723)"><path class="a" d="M105.391,275.945c0,.13-5.732.152-12.8.051s-12.792-.288-12.791-.417,5.731-.153,12.8-.052S105.392,275.815,105.391,275.945Z" transform="translate(-79.804 -275.464)"/></g><g transform="translate(46.809 75.499)"><path class="a" d="M130.25,300.762a3.344,3.344,0,0,1-.823.351c-.539.2-1.327.463-2.3.775-1.958.616-4.686,1.4-7.739,2.106s-5.848,1.213-7.878,1.518c-1.014.154-1.838.259-2.409.32a3.357,3.357,0,0,1-.894.046,26.619,26.619,0,0,1,3.248-.693c2.011-.387,4.785-.938,7.827-1.648s5.775-1.433,7.753-1.967A26.426,26.426,0,0,1,130.25,300.762Z" transform="translate(-108.202 -300.754)"/></g><g transform="translate(68.607 55.111)"><path class="a" d="M137.722,278.116a19.767,19.767,0,0,1-.617,3.008c-.439,1.843-1.076,4.381-1.809,7.176s-1.422,5.322-1.944,7.143a19.709,19.709,0,0,1-.938,2.923,20.05,20.05,0,0,1,.617-3.007c.439-1.844,1.077-4.382,1.81-7.178s1.421-5.32,1.943-7.141A20.012,20.012,0,0,1,137.722,278.116Z" transform="translate(-132.405 -278.116)"/></g><g transform="translate(88.822 72.33)"><path class="a" d="M161.909,297.235a4.591,4.591,0,0,1-.189,1.041c-.185.756-.413,1.69-.684,2.794-.6,2.353-1.453,5.6-2.426,9.17s-1.88,6.8-2.559,9.136l-.828,2.754a4.6,4.6,0,0,1-.365.993,4.573,4.573,0,0,1,.189-1.041q.277-1.135.684-2.794c.6-2.353,1.453-5.6,2.426-9.172s1.88-6.8,2.559-9.134l.828-2.755A4.551,4.551,0,0,1,161.909,297.235Z" transform="translate(-154.852 -297.235)"/></g><g transform="translate(60.678 97.545)"><path class="a" d="M151.748,325.239a5.337,5.337,0,0,1-1.069.377c-.7.216-1.708.5-2.965.842-2.515.672-6.008,1.532-9.9,2.32s-7.445,1.375-10.022,1.735c-1.289.182-2.334.31-3.058.385a5.336,5.336,0,0,1-1.131.069,5.209,5.209,0,0,1,1.105-.25l3.032-.532c2.56-.443,6.1-1.073,9.98-1.866s7.383-1.593,9.914-2.182l3-.7A5.2,5.2,0,0,1,151.748,325.239Z" transform="translate(-123.602 -325.232)"/></g></g></g><g transform="translate(62.139 89.243)"><g transform="translate(0 106.016)"><path class="d" d="M101.607,238.377a2.637,2.637,0,0,0,1.273-.45,2.407,2.407,0,0,0,.905-1.328,3.847,3.847,0,0,0,.084-1.047q0-.575.007-1.221c.032-3.476.077-8.462.134-14.612q.026-2.315.054-4.843.014-1.262.03-2.575a7.478,7.478,0,0,0-.037-1.282,2.184,2.184,0,0,0-.567-1.082,2.056,2.056,0,0,0-1.085-.584,10.647,10.647,0,0,0-1.355-.035l-2.855.006-5.96.01-26.538.021a2.154,2.154,0,0,0-2.1,1.979q-.03,1.735-.059,3.445-.05,3.438-.1,6.771c-.068,4.437-.133,8.719-.2,12.8q-.012.765-.024,1.519a2.27,2.27,0,0,0,.322,1.32,2.066,2.066,0,0,0,1.013.846,3.588,3.588,0,0,0,1.366.138l5.622.012,10.091.028,14.613.073,3.973.044,1.033.023a2.045,2.045,0,0,1,.352.023,1.97,1.97,0,0,1-.352.024l-1.033.023-3.973.044-14.613.076-10.091.03-5.622.012a3.959,3.959,0,0,1-1.516-.16,2.482,2.482,0,0,1-1.223-1.013,2.692,2.692,0,0,1-.389-1.548q.009-.755.019-1.52c.054-4.08.111-8.361.169-12.8q.046-3.329.093-6.77.03-1.728.059-3.481a2.624,2.624,0,0,1,2.562-2.406l26.538.016,5.96.01,2.855.005a10.455,10.455,0,0,1,1.429.048,2.447,2.447,0,0,1,1.29.7,2.568,2.568,0,0,1,.663,1.277,7.529,7.529,0,0,1,.038,1.362q-.023,1.312-.044,2.575-.043,2.525-.084,4.842c-.119,6.149-.216,11.134-.283,14.61q-.015.646-.029,1.221a3.993,3.993,0,0,1-.11,1.081,2.491,2.491,0,0,1-.986,1.368,2.269,2.269,0,0,1-.974.367A1.283,1.283,0,0,1,101.607,238.377Z" transform="translate(-62.791 -208.888)"/><path class="d" d="M87.093,222.3l4.919,2.985-5.025,2.948-5.025,2.948.106-5.934.106-5.934Z" transform="translate(-64.697 -209.924)"/></g><g transform="translate(459.249 14.77)"><path class="e" d="M591.438,125.108a9.086,9.086,0,0,0,5.414-8.406,8.54,8.54,0,1,0-17.044-.079,9.074,9.074,0,0,0,5.431,8.486c-13.115,1.975-12.52,16.229-12.52,16.229l31.012.143S604.439,127.071,591.438,125.108Z" transform="translate(-572.715 -107.573)"/></g><g transform="translate(243.618)"><rect class="f" width="50.517" height="34.05" transform="translate(0.28 4.975) rotate(-5.419)"/><path class="d" d="M387.078,125.275s-.034-.219-.08-.627q-.068-.64-.191-1.8c-.162-1.59-.4-3.891-.7-6.828-.583-5.9-1.418-14.342-2.435-24.628l.2.169L333.6,96.381c-.05.055.4-.482.207-.25v.009l0,.018,0,.035.006.071.013.141.027.283.053.565.107,1.128q.107,1.127.213,2.244l.421,4.44q.416,4.407.818,8.668L337,130.026l-.233-.194,36.2-3.328,10.37-.926,2.768-.236.719-.056a2.092,2.092,0,0,1,.253-.012,1.314,1.314,0,0,1-.225.034l-.693.078-2.721.285-10.309,1.036-36.322,3.552-.213.021-.021-.214c-.494-5.164-1.017-10.618-1.561-16.29q-.405-4.255-.826-8.667-.209-2.2-.422-4.44-.105-1.119-.213-2.243l-.107-1.128-.054-.566-.026-.283-.013-.141-.007-.071,0-.035,0-.018v-.009c-.19.225.257-.317.214-.26l50.292-4.724.187-.018.017.187c.939,10.341,1.711,18.833,2.25,24.762.257,2.923.458,5.213.6,6.794q.095,1.14.146,1.767C387.073,125.081,387.078,125.275,387.078,125.275Z" transform="translate(-333.291 -91.173)"/><g transform="translate(0.28 0.204)"><path class="d" d="M383.893,91.4a3.288,3.288,0,0,1-.389.5l-1.185,1.381-4.435,5.036-14.877,16.638-.132.148-.168-.107-1.339-.853-19.685-12.628-5.937-3.872-1.6-1.073a3.666,3.666,0,0,1-.54-.4,3.61,3.61,0,0,1,.592.321l1.648,1,6.017,3.746,19.759,12.512,1.339.853-.3.041L377.643,98.1l4.544-4.938,1.248-1.323A3.4,3.4,0,0,1,383.893,91.4Z" transform="translate(-333.603 -91.399)"/></g></g><g transform="translate(155.294 27.043)"><path class="g" d="M262.308,134.813a22.806,22.806,0,0,0-.509-3.256,12.841,12.841,0,0,0-1.5-3.533,13.255,13.255,0,0,0-15.915-5.617,13.24,13.24,0,0,0-6.127,4.607,13.142,13.142,0,0,0,0,15.6,13.246,13.246,0,0,0,6.128,4.608A13.3,13.3,0,0,0,260.3,141.6a12.835,12.835,0,0,0,1.5-3.533,22.766,22.766,0,0,0,.509-3.256.782.782,0,0,1,.013.218l-.009.641a6.163,6.163,0,0,1-.083,1.038,9.349,9.349,0,0,1-.252,1.4,12.666,12.666,0,0,1-1.454,3.623,13.554,13.554,0,0,1-9.127,6.457,13.638,13.638,0,0,1-7.162-.566,13.632,13.632,0,0,1-6.35-4.742,13.562,13.562,0,0,1,0-16.144,13.632,13.632,0,0,1,6.349-4.74,13.625,13.625,0,0,1,7.161-.566,13.555,13.555,0,0,1,9.128,6.456,12.7,12.7,0,0,1,1.454,3.623,9.483,9.483,0,0,1,.252,1.4,6.082,6.082,0,0,1,.083,1.039l.009.641A.772.772,0,0,1,262.308,134.813Z" transform="translate(-235.221 -121.2)"/><g transform="translate(24.166 21.957)"><path class="g" d="M283.013,159.649c-.073.108-4.823-2.954-10.609-6.838s-10.421-7.121-10.349-7.228,4.822,2.954,10.61,6.838S283.085,159.541,283.013,159.649Z" transform="translate(-262.054 -145.58)"/></g></g><g transform="translate(229.714 66.16)"><path class="e" d="M328.372,186.305,317.853,174.99l3.406-3.166,7.261,7.811,15.248-15,3.262,3.315Z" transform="translate(-317.853 -164.634)"/></g></g><g transform="translate(89.152 71.755)"><g transform="translate(443.715 94.287)"><path class="g" d="M650.077,176.643s.172-.005.51,0l.629.022c.249.023.537.071.865.115a11.48,11.48,0,0,1,5.266,2.309,11.8,11.8,0,0,1,4.426,7.879,27.249,27.249,0,0,1,.088,2.8q0,1.443.008,2.977.007,3.068.016,6.488t.014,7.164q0,1.872.007,3.821a13.824,13.824,0,0,1-.4,3.984,11.781,11.781,0,0,1-8.892,8.556,20.652,20.652,0,0,1-4.548.285l-40.2.026.164-.068-9.072,9.075-.4.4v-9.639l.234.234a22.43,22.43,0,0,1-2.982-.11,11.812,11.812,0,0,1-2.891-.751,11.862,11.862,0,0,1-7.225-8.676,15.125,15.125,0,0,1-.233-2.857q0-1.406,0-2.8,0-5.575.006-10.937,0-2.678,0-5.3a41,41,0,0,1,.161-5.2,11.828,11.828,0,0,1,9.916-9.856,35.15,35.15,0,0,1,4.631-.144l16.791.029,24.242.073,6.574.043,1.708.023c.385.008.581.023.581.023s-.2.016-.581.023l-1.708.023-6.574.043-24.242.074-16.791.028a35.275,35.275,0,0,0-4.572.152,11.382,11.382,0,0,0-9.554,9.533,41.006,41.006,0,0,0-.148,5.131q0,2.618,0,5.3,0,5.356.006,10.937a33.189,33.189,0,0,0,.228,5.567,11.4,11.4,0,0,0,6.946,8.333,11.35,11.35,0,0,0,2.778.72,21.88,21.88,0,0,0,2.922.105h.235v9.309l-.4-.165,9.075-9.073.068-.068h.1l40.2.026a20.354,20.354,0,0,0,4.463-.265,11.409,11.409,0,0,0,8.624-8.258,13.435,13.435,0,0,0,.4-3.892q0-1.949.007-3.821.008-3.742.014-7.164t.016-6.488q.005-1.535.009-2.977a27.122,27.122,0,0,0-.069-2.775,11.612,11.612,0,0,0-9.466-10.129c-.324-.05-.609-.106-.857-.136l-.625-.042C650.249,176.667,650.077,176.643,650.077,176.643Z" transform="translate(-585.461 -176.446)"/><g transform="translate(23.486 21.938)"><g transform="translate(0 0.117)"><path class="g" d="M616.949,203.724a4.324,4.324,0,0,1-.169-.61,2.587,2.587,0,0,0-.953-1.316,2.433,2.433,0,0,0-2.273-.3,2.378,2.378,0,0,0,0,4.454,2.433,2.433,0,0,0,2.273-.3,2.585,2.585,0,0,0,.953-1.315,4.277,4.277,0,0,1,.169-.61c.024,0,.079.231.008.654a2.58,2.58,0,0,1-.929,1.535,2.74,2.74,0,0,1-2.621.445,2.79,2.79,0,0,1,0-5.267,2.736,2.736,0,0,1,2.621.445,2.575,2.575,0,0,1,.929,1.535C617.028,203.492,616.973,203.726,616.949,203.724Z" transform="translate(-611.539 -200.935)"/></g><g transform="translate(11.94)"><path class="g" d="M630.207,203.594a4.271,4.271,0,0,1-.169-.61,2.586,2.586,0,0,0-.953-1.315,2.433,2.433,0,0,0-2.273-.3,2.378,2.378,0,0,0,0,4.454,2.436,2.436,0,0,0,2.273-.3,2.591,2.591,0,0,0,.953-1.316,4.322,4.322,0,0,1,.169-.61c.024,0,.079.232.008.654a2.577,2.577,0,0,1-.929,1.535,2.736,2.736,0,0,1-2.621.445,2.79,2.79,0,0,1,0-5.267,2.74,2.74,0,0,1,2.621.445,2.577,2.577,0,0,1,.929,1.535C630.286,203.363,630.231,203.6,630.207,203.594Z" transform="translate(-624.797 -200.806)"/></g><g transform="translate(23.881)"><path class="g" d="M643.465,203.594c-.04,0-.05-.23-.169-.61a2.587,2.587,0,0,0-.953-1.315,2.434,2.434,0,0,0-2.273-.3,2.378,2.378,0,0,0,0,4.454,2.436,2.436,0,0,0,2.273-.3,2.592,2.592,0,0,0,.953-1.316,4.3,4.3,0,0,1,.169-.61c.024,0,.079.232.008.654a2.577,2.577,0,0,1-.929,1.535,2.736,2.736,0,0,1-2.621.445,2.79,2.79,0,0,1,0-5.267,2.74,2.74,0,0,1,2.621.445,2.577,2.577,0,0,1,.929,1.535C643.544,203.363,643.489,203.6,643.465,203.594Z" transform="translate(-638.055 -200.806)"/></g></g></g><g transform="translate(0 16.464)"><path class="e" d="M153.031,134.129c0-7.732-8.124-12.63-16.406-8.755a9.4,9.4,0,0,0-4.358,4.178c-2.084,4.037-1.165,8.646.726,12.473l6.446,16.337a2.778,2.778,0,0,0,5.176-.022l6.321-16.422C153.122,136.917,153.031,134.129,153.031,134.129Zm-7.781,6.728c-5.568,3.238-11.211-2.746-8.159-8.652a4.641,4.641,0,0,1,1.768-1.875c5.569-3.238,11.212,2.747,8.159,8.652A4.635,4.635,0,0,1,145.249,140.857Z" transform="translate(-96.591 -93.413)"/><path class="g" d="M177.85,157.443l.006,0h0s.043.1.112.3.168.494.295.871l1.123,3.4c.977,3,2.407,7.4,4.246,13.056l.058.178-.185-.034-18.149-3.323-.125-.023v-.128h0l.245.122a45.2,45.2,0,0,1-21,8.663,45.714,45.714,0,0,1-6.437.429,49.526,49.526,0,0,1-6.686-.56,48.1,48.1,0,0,1-6.788-1.518l-3.355-1.224a12.789,12.789,0,0,1-1.655-.719l-1.641-.789A46.653,46.653,0,0,1,105.8,167.36a44.72,44.72,0,0,1-8.907-12.968,45.384,45.384,0,0,1,43.059-64.305,45.273,45.273,0,0,1,43.562,42.5,43.11,43.11,0,0,1-1.234,13.853,44.092,44.092,0,0,1-2.988,8.284c-.441.906-.793,1.593-1.047,2.026l-.393.688.345-.687c.243-.471.584-1.155,1.009-2.067a45.719,45.719,0,0,0,2.9-8.288,43.231,43.231,0,0,0,1.149-13.794,45.129,45.129,0,0,0-70.042-34.555,44.994,44.994,0,0,0-15.9,56.148,44.315,44.315,0,0,0,8.808,12.848,46.267,46.267,0,0,0,11.994,8.715l1.625.784a12.383,12.383,0,0,0,1.639.714l3.321,1.219A47.848,47.848,0,0,0,131.417,180a49.262,49.262,0,0,0,6.628.568,45.018,45.018,0,0,0,27.247-8.948l.245-.184v.305h0l-.125-.15,18.134,3.4-.127.144c-1.795-5.668-3.192-10.078-4.145-13.089l-1.069-3.422c-.114-.379-.2-.671-.267-.88s-.083-.307-.083-.307h-.006Z" transform="translate(-92.785 -90.036)"/></g><g transform="translate(306.653)"><g transform="translate(19.377 19.714)"><path class="d" d="M505.817,120a7.122,7.122,0,0,1-.181-1.6,13.217,13.217,0,0,0-.214-1.922,18.868,18.868,0,0,0-.505-2.582,24.184,24.184,0,0,0-2.681-6.643,24.888,24.888,0,0,0-6.178-7.116,24.614,24.614,0,0,0-23.2-3.987,23.065,23.065,0,0,0-6.276,3.2,22.4,22.4,0,0,0-5.3,5.086,24.415,24.415,0,0,0-.7,28.945,22.409,22.409,0,0,0,5.044,5.338,23.077,23.077,0,0,0,6.113,3.5,24.8,24.8,0,0,0,29.884-9.665,24.19,24.19,0,0,0,3-6.505,18.7,18.7,0,0,0,.629-2.554,13.121,13.121,0,0,0,.308-1.908,7.122,7.122,0,0,1,.258-1.59,7,7,0,0,1,.019,1.614,11.143,11.143,0,0,1-.179,1.952,17.437,17.437,0,0,1-.516,2.631,23.663,23.663,0,0,1-2.865,6.774,25.522,25.522,0,0,1-17.487,11.818,25.757,25.757,0,0,1-13.515-1.377,24.22,24.22,0,0,1-6.463-3.648,23.643,23.643,0,0,1-5.344-5.6,25.658,25.658,0,0,1,.744-30.551,23.658,23.658,0,0,1,5.609-5.337,24.23,24.23,0,0,1,6.631-3.33,25.753,25.753,0,0,1,13.564-.72,25.515,25.515,0,0,1,16.894,12.652,23.682,23.682,0,0,1,2.533,6.9,17.556,17.556,0,0,1,.388,2.653,11.255,11.255,0,0,1,.084,1.959A7,7,0,0,1,505.817,120Z" transform="translate(-454.79 -93.645)"/><g transform="translate(6.481 9.663)"><path class="d" d="M501.5,105.344c.056.078-.4.473-1.275,1.125l-1.619,1.163c-.322.22-.657.468-1.031.7l-1.239.648a28.411,28.411,0,0,1-14.8,3.727l-2.241-.1-2.15-.336c-.351-.059-.7-.106-1.045-.176l-1-.267c-.66-.184-1.313-.339-1.935-.538a32.419,32.419,0,0,1-6.278-2.894c-3.373-2.039-5.016-3.894-4.888-4.014.136-.156,1.97,1.4,5.368,3.161a37.8,37.8,0,0,0,6.18,2.529c.6.176,1.232.308,1.867.471l.965.24,1,.15,2.054.3,2.134.086a30.634,30.634,0,0,0,14.33-3.218l1.254-.544c.382-.2.729-.414,1.063-.6l1.717-.947C500.882,105.512,501.441,105.267,501.5,105.344Z" transform="translate(-461.986 -104.374)"/></g><g transform="translate(5.717 33.858)"><path class="d" d="M461.142,138.619c-.056-.077.4-.472,1.275-1.124l1.619-1.163c.322-.22.657-.468,1.031-.7l1.239-.648a28.411,28.411,0,0,1,14.8-3.727l2.241.1,2.15.336c.351.059.7.107,1.045.176l1,.267c.66.183,1.313.339,1.935.538a32.474,32.474,0,0,1,6.278,2.893c3.373,2.04,5.016,3.9,4.888,4.014-.136.156-1.97-1.4-5.368-3.161a37.874,37.874,0,0,0-6.18-2.529c-.6-.175-1.232-.307-1.867-.47l-.965-.24-1-.151-2.054-.3-2.134-.086a30.634,30.634,0,0,0-14.33,3.218l-1.254.544c-.382.2-.729.413-1.063.6l-1.717.947C461.757,138.451,461.2,138.7,461.142,138.619Z" transform="translate(-461.138 -131.239)"/></g><g transform="translate(0.681 25.41)"><path class="d" d="M505.877,123.393c-.009.382-11.285.418-25.181.081s-25.159-.921-25.15-1.3,11.283-.418,25.184-.08S505.887,123.011,505.877,123.393Z" transform="translate(-455.546 -121.859)"/></g><g transform="translate(24.374 0.576)"><path class="d" d="M482.166,144.6c-.382-.009-.418-11.281-.08-25.172s.92-25.152,1.3-25.142.418,11.278.081,25.175S482.547,144.609,482.166,144.6Z" transform="translate(-481.854 -94.285)"/></g><g transform="translate(12.166 0.561)"><path class="d" d="M480.819,144.56c-.095.147-2.868-1.734-6.068-5.99a33.86,33.86,0,0,1-4.5-8.169,30.36,30.36,0,0,1-1.947-11.278,28.86,28.86,0,0,1,2.541-11.164,35.008,35.008,0,0,1,4.916-7.916c3.39-4.1,6.185-5.912,6.279-5.766.136.158-2.4,2.217-5.508,6.369a37.69,37.69,0,0,0-4.516,7.82,29.008,29.008,0,0,0-2.328,10.684,30.662,30.662,0,0,0,1.762,10.814,36.318,36.318,0,0,0,4.1,8.04C478.463,142.294,480.96,144.407,480.819,144.56Z" transform="translate(-468.299 -94.268)"/></g><g transform="translate(25.245 0.575)"><path class="d" d="M484.048,94.291c.1-.146,2.868,1.734,6.068,5.991a33.851,33.851,0,0,1,4.5,8.168,30.348,30.348,0,0,1,1.948,11.278,28.873,28.873,0,0,1-2.542,11.164,34.968,34.968,0,0,1-4.916,7.916c-3.39,4.1-6.185,5.912-6.279,5.766-.136-.157,2.4-2.217,5.508-6.368a37.7,37.7,0,0,0,4.517-7.82,28.994,28.994,0,0,0,2.327-10.684,30.642,30.642,0,0,0-1.762-10.814,36.363,36.363,0,0,0-4.1-8.041C486.4,96.558,483.907,94.443,484.048,94.291Z" transform="translate(-482.821 -94.283)"/></g></g><path class="g" d="M453.353,154.706l0,.006h0s-.106.033-.307.084l-.893.217-3.491.815L435.281,158.9l-.183.042.05-.181c1.36-4.912,3.022-10.918,4.924-17.783l.033-.122.127.011h0l-.143.232a45.2,45.2,0,0,1-6.763-21.682,45.764,45.764,0,0,1,.145-6.449,49.688,49.688,0,0,1,1.152-6.611,48.18,48.18,0,0,1,2.116-6.626l1.518-3.232a12.64,12.64,0,0,1,.863-1.585l.931-1.564a46.645,46.645,0,0,1,9.828-11.291,44.7,44.7,0,0,1,13.708-7.72,45.383,45.383,0,0,1,60.223,48.6A45.27,45.27,0,0,1,477.6,162.553a43.1,43.1,0,0,1-13.689-2.46,44.219,44.219,0,0,1-7.986-3.713c-.863-.521-1.516-.931-1.925-1.222l-.651-.452.654.4c.448.285,1.1.684,1.97,1.189a45.625,45.625,0,0,0,8,3.622,43.232,43.232,0,0,0,13.636,2.37A45.13,45.13,0,0,0,518.254,95.6a44.993,44.993,0,0,0-54.513-20.829A44.306,44.306,0,0,0,450.161,82.4a46.276,46.276,0,0,0-9.747,11.171l-.925,1.548a12.4,12.4,0,0,0-.857,1.569q-.761,1.613-1.509,3.2a47.917,47.917,0,0,0-2.108,6.564,49.213,49.213,0,0,0-1.156,6.55,45.443,45.443,0,0,0-.159,6.4,44.978,44.978,0,0,0,6.649,21.54l.162.26-.305-.028h0l.16-.111c-1.93,6.856-3.621,12.854-5,17.759l-.132-.139,13.406-2.966,3.5-.76.9-.187c.2-.041.313-.055.313-.055h0Z" transform="translate(-433.275 -71.755)"/></g></g><g transform="translate(408.825 170.567)"><path class="h" d="M495.986,187.782c-4.4,1.026-7.225,5.487-8.165,9.91s-.482,9.013-.9,13.514-2,9.285-5.786,11.752l3.771,1.091a10.3,10.3,0,0,1-4.429,5.677,8.4,8.4,0,0,0,5.151,1.755c-2.218.589-2.832,3.754-1.607,5.695s3.557,2.855,5.781,3.421a15.18,15.18,0,0,0,8.016.243c3.652-1.088,6.378-4.3,7.776-7.841s1.652-7.425,1.76-11.233c.271-9.542-.286-19.178-2.72-28.407-.589-2.232-1.4-4.6-3.3-5.917s-5.146-.782-5.715,1.455" transform="translate(-450.986 -181.993)"/><path class="i" d="M592.284,333.268c-1.045-3.985-7.136-26.4-12.578-41.052-6.041-16.258-18.5-19.61-18.5-19.61-28.054-9.574-53.264-9.629-80.184-.3-.862.268-1.7.554-2.5.866l-.088.031v0c-19.966,7.837-22.027,28.927-22.027,28.927l-8.389,51.181a11.305,11.305,0,0,0-.2,1.228l-.08.485.035,0a11.984,11.984,0,0,0,6.861,11.557c11.724,5.4,22.915,4.116,32.529.146L480.172,376.9h83.2l-5.563-13.451,1.851-8.089,12.888,15.509a12,12,0,0,0,5.932,3.868c14.858,1.727,17.262-20.4,14.468-33.277h0" transform="translate(-447.732 -189.808)"/><path class="j" d="M544.723,266.93s-13.42,67.529-18.153,67.027-26.911-65.752-26.911-65.752S528.011,260.644,544.723,266.93Z" transform="translate(-452.892 -189.715)"/><g transform="translate(38.824)"><g transform="translate(1.502 7.555)"><path class="j" d="M505.936,264.506c-.071-7.774-.288-15.957-.288-15.957s-10.025-1.6-12.18-14.657c-2.054-12.449-.176-41.239-.176-41.239h0a37.552,37.552,0,0,1,41.828,9.318h0l-.463,63.15c-.054,7.331-6.4,13.124-14.25,13.006h0C512.48,278.008,506,271.913,505.936,264.506Z" transform="translate(-492.507 -189.859)"/><g transform="translate(1.873 21.607)"><g transform="translate(2.235 1.447)"><path class="g" d="M497.069,216.983a1.676,1.676,0,0,0,1.627,1.681,1.6,1.6,0,0,0,1.717-1.521,1.676,1.676,0,0,0-1.624-1.682A1.6,1.6,0,0,0,497.069,216.983Z" transform="translate(-497.068 -215.458)"/></g><path class="g" d="M494.614,215.632c.209.217,1.473-.73,3.276-.736,1.8-.032,3.13.887,3.324.666.1-.1-.118-.492-.7-.908a4.6,4.6,0,0,0-2.663-.8,4.418,4.418,0,0,0-2.606.859C494.7,215.139,494.511,215.535,494.614,215.632Z" transform="translate(-494.587 -213.851)"/></g><g transform="translate(20.693 22.148)"><g transform="translate(1.652 1.782)"><path class="g" d="M517.319,217.955a1.676,1.676,0,0,0,1.627,1.681,1.6,1.6,0,0,0,1.717-1.521,1.677,1.677,0,0,0-1.624-1.682A1.6,1.6,0,0,0,517.319,217.955Z" transform="translate(-517.318 -216.43)"/></g><path class="g" d="M515.51,216.232c.21.217,1.475-.73,3.277-.736,1.8-.032,3.13.887,3.324.666.1-.1-.116-.492-.7-.908a4.6,4.6,0,0,0-2.662-.8,4.42,4.42,0,0,0-2.606.859C515.595,215.739,515.408,216.135,515.51,216.232Z" transform="translate(-515.484 -214.451)"/></g><g transform="translate(9.654 22.312)"><path class="g" d="M507.829,229.664a11.974,11.974,0,0,0-2.932-.51c-.46-.045-.9-.134-.976-.448a2.345,2.345,0,0,1,.3-1.367l1.341-3.514c1.861-5,3.2-9.117,3-9.19s-1.874,3.922-3.735,8.927c-.448,1.234-.875,2.409-1.283,3.535a2.673,2.673,0,0,0-.228,1.808,1.158,1.158,0,0,0,.762.669,3.137,3.137,0,0,0,.783.1A11.7,11.7,0,0,0,507.829,229.664Z" transform="translate(-503.227 -214.634)"/></g><g transform="translate(13.141 53.915)"><path class="k" d="M507.1,254.5a33.238,33.238,0,0,0,17.471-4.775s-4.191,9-17.276,7.859Z" transform="translate(-507.098 -249.723)"/></g><g transform="translate(14.868 40.442)"><path class="k" d="M509.193,236.006a3.25,3.25,0,0,1,2.905-1.225,2.963,2.963,0,0,1,2.055,1.087,1.879,1.879,0,0,1,.157,2.148,2.183,2.183,0,0,1-2.361.612,6.827,6.827,0,0,1-2.314-1.362,2,2,0,0,1-.518-.53.605.605,0,0,1,0-.672" transform="translate(-509.016 -234.764)"/></g><g transform="translate(13.853 38.558)"><path class="g" d="M513.607,232.672c-.294-.015-.285,1.942-1.952,3.341s-3.752,1.2-3.765,1.471c-.027.122.466.377,1.347.4a4.876,4.876,0,0,0,3.144-1.118,4.246,4.246,0,0,0,1.511-2.8C513.963,233.143,513.741,232.659,513.607,232.672Z" transform="translate(-507.889 -232.672)"/></g></g><path class="h" d="M527.913,190.613c-4.66,6.9-17.192,14.134-26.226,15.922,1.034-1.412,6.54-4.942,7.573-6.354-4.055,3.14-9.86,7.348-15.305,7.721a3.31,3.31,0,0,1-1.879-.258,2.527,2.527,0,0,1-.989-2.035,54.5,54.5,0,0,1,.168-11.846,13.107,13.107,0,0,1,4.565-8.531c3.444-2.759,8.43-3.512,13.136-3.709a29.875,29.875,0,0,1,11.657,1.358c3.635,1.362,6.772,4.123,7.36,7.5" transform="translate(-490.84 -181.471)"/><g transform="translate(32.747 3.126)"><path class="h" d="M546.973,222.559a74.045,74.045,0,0,0,1.151-8.756c.266-6.749,2.286-31.107-20.924-28.695l1.314,6.55s-4.327,15.163,5.638,25.393c0,0-2.839,21.366,4.094,28.271,0,0,7.442-15.479,8.727-22.763" transform="translate(-527.2 -184.941)"/></g><g transform="translate(38.969 33.932)"><path class="j" d="M534.542,219.324a7.8,7.8,0,0,1,4.208.244,5.441,5.441,0,0,1,3.1,2.775,5.684,5.684,0,0,1,.061,4.177,9.629,9.629,0,0,1-2.359,3.528,6.524,6.524,0,0,1-2.527,1.7,3.113,3.113,0,0,1-2.913-.434" transform="translate(-534.109 -219.147)"/></g><g transform="translate(40.163 35.877)"><path class="k" d="M535.5,228c-.159.053.453.894,1.728.542a2.748,2.748,0,0,0,1.571-1.388,6.219,6.219,0,0,0,.682-2.323,3.656,3.656,0,0,0-.606-2.457,2.429,2.429,0,0,0-1.843-1.073c-1.314-.022-1.716.892-1.566.917.105.106.612-.367,1.474-.165a2.357,2.357,0,0,1,1.473,2.69c-.148,1.438-.692,2.758-1.455,3.091C536.162,228.251,535.585,227.889,535.5,228Z" transform="translate(-535.434 -221.307)"/></g></g><g transform="translate(32.205 121.409)"><path class="g" d="M483.725,339.973c-.13,0-.234-5.306-.234-11.849s.1-11.849.234-11.849.234,5.3.234,11.849S483.855,339.973,483.725,339.973Z" transform="translate(-483.491 -316.276)"/></g><g transform="translate(53.466 93.256)"><g transform="translate(0 27.508)"><path class="j" d="M519.888,315.716s-11.68.129-12.418,2.714c-1.224,4.292.963,27.821.963,27.821l10.76,3.573s5.189-1.2,2.795-11.178a72.978,72.978,0,0,0-7.114-17.965s14.3.4,13.9-2.795S519.888,315.716,519.888,315.716Z" transform="translate(-507.098 -315.56)"/><path class="l" d="M516.138,323.4c.644-.122,14.939-1.306,14.041.979s-14.041,2.858-14.041,2.858Z" transform="translate(-507.996 -316.298)"/></g><path class="g" d="M561.614,285.017l-1.765,44.64-6.521,17.132-40.061.83-1.618-55.289Z" transform="translate(-507.55 -285.017)"/></g><g transform="translate(4.904 136.649)"><path class="g" d="M501.185,333.2a2.469,2.469,0,0,1-.491.253l-1.442.643-5.336,2.285-17.672,7.372-9.752,4.007a56.469,56.469,0,0,0-7.787,3.581,15.139,15.139,0,0,0-4.356,3.706c-.823,1.083-1.121,1.79-1.17,1.764a2.4,2.4,0,0,1,.213-.51,8.611,8.611,0,0,1,.811-1.364,14.577,14.577,0,0,1,4.33-3.88,53.349,53.349,0,0,1,7.795-3.7l9.737-4.042,17.725-7.246,5.393-2.146,1.475-.562A2.407,2.407,0,0,1,501.185,333.2Z" transform="translate(-453.177 -333.198)"/></g><g transform="translate(39.424 154.142)"><path class="g" d="M518.237,352.622a7.857,7.857,0,0,1-.876,1.074c-.588.669-1.464,1.618-2.589,2.745-2.238,2.27-5.481,5.254-9.209,8.375s-7.228,5.795-9.8,7.669c-1.284.94-2.341,1.679-3.078,2.179a7.87,7.87,0,0,1-1.174.735,7.92,7.92,0,0,1,1.067-.883l2.986-2.3c2.522-1.939,5.977-4.653,9.7-7.763s6.987-6.048,9.277-8.251c1.153-1.093,2.061-2,2.689-2.633A7.807,7.807,0,0,1,518.237,352.622Z" transform="translate(-491.506 -352.621)"/></g><g transform="translate(100.595 152.324)"><path class="g" d="M585.324,380.989c-.1.085-5.976-6.65-13.126-15.04s-12.87-15.261-12.771-15.346,5.975,6.649,13.128,15.042S585.423,380.905,585.324,380.989Z" transform="translate(-559.427 -350.602)"/></g><g transform="translate(107.511 132.756)"><path class="g" d="M597.41,346.4a7.741,7.741,0,0,1-1.3-.463c-.828-.323-2.012-.826-3.462-1.477-2.9-1.3-6.846-3.247-11.049-5.674s-7.858-4.879-10.432-6.744c-1.288-.932-2.314-1.708-3.007-2.264a7.9,7.9,0,0,1-1.051-.9,7.809,7.809,0,0,1,1.16.75l3.089,2.139c2.617,1.791,6.288,4.185,10.476,6.61s8.095,4.406,10.953,5.78l3.4,1.609A7.791,7.791,0,0,1,597.41,346.4Z" transform="translate(-567.106 -328.875)"/></g><g transform="translate(114.387 119.138)"><path class="g" d="M577.436,335.1c-.129.016-.831-4.749-1.57-10.642s-1.234-10.686-1.105-10.7.831,4.748,1.57,10.644S577.564,335.083,577.436,335.1Z" transform="translate(-574.74 -313.755)"/></g><g transform="translate(77.083 42.488)"><path class="g" d="M539.432,228.648a2.75,2.75,0,0,1-.37.571l-1.14,1.534-4.148,5.381-.034-.289,6.764,5.314.612.485-.329.039,5.852-7.333.032.271-4.407-3.591-1.208-1.022c-.274-.24-.413-.376-.4-.392a2.072,2.072,0,0,1,.474.3l1.273.939,4.508,3.461.153.118-.121.154-5.788,7.383-.145.185-.185-.146-.612-.484-6.728-5.359-.163-.131.129-.159,4.282-5.277,1.23-1.463A2.8,2.8,0,0,1,539.432,228.648Z" transform="translate(-533.321 -228.647)"/></g><g transform="translate(69.569 117.904)"><path class="j" d="M555.787,346.137a158.821,158.821,0,0,1-19.341-2.072c-7.579-1.211-7.5-1.9-7.227-2.765.725-2.327,13.4,1.622,11.127-.816s-16.018-3.016-15.161-5.415c1.117-3.125,14.318,1.254,15.461,1.541,1.11.28,1.554-1.365.51-1.568-1.5-.294-17.194-3.767-16.127-6.849.592-1.708,3.548-.277,3.548-.277s14.473,4.339,14.928,2.867c.463-1.5-7.956-4.33-10.857-5.086-2.867-.746-3.712-2.421-2.361-3.424.921-.684,9.856,1.415,12.709,2.229s10.643,3.185,7.671-1.126c-.047-.068-.082-.135-.127-.2-3.042-4.164-4.006-8.381-3.455-9.791a1.782,1.782,0,0,1,3.205.01,1.81,1.81,0,0,1,.294.689c.021.111.076.254.109.375a25.709,25.709,0,0,0,2.627,4.584,13.913,13.913,0,0,0,3.282,3.392c1.48,1.076,5.212,5.021,6.338,5.723" transform="translate(-524.977 -312.384)"/></g></g><g transform="translate(133.437 171.279)"><g transform="translate(66.272)"><g transform="translate(11.128 7.83)"><path class="j" d="M258.243,280.974h0a15.806,15.806,0,0,1-15.513-15.324c-.212-7.02-.372-13.78-.372-13.78s-12.887-1.2-13.832-13.95-.541-42.2-.541-42.2h0a44.443,44.443,0,0,1,44.916,2.852l1.98,1.34-.548,65.387A15.8,15.8,0,0,1,258.243,280.974Z" transform="translate(-227.899 -190.956)"/><g transform="translate(9.489 23.76)"><path class="g" d="M243.082,232.684c0-.139-1.1-.291-2.879-.427-.463-.022-.83-.1-.879-.349a2.517,2.517,0,0,1,.249-1.337c.38-1.191.766-2.395,1.169-3.657,1.607-5.207,2.695-9.493,2.43-9.575s-1.781,4.072-3.387,9.279c-.377,1.271-.738,2.483-1.094,3.681a2.942,2.942,0,0,0-.133,1.926,1.206,1.206,0,0,0,.838.685,2.933,2.933,0,0,0,.791.054A8.538,8.538,0,0,0,243.082,232.684Z" transform="translate(-238.434 -217.338)"/></g><g transform="translate(11.502 40.696)"><path class="f" d="M249.135,236.142a43,43,0,0,1-8.465,3.036,4.865,4.865,0,0,0,5.851,1.58C250.254,239.125,249.135,236.142,249.135,236.142Z" transform="translate(-240.67 -236.142)"/></g><g transform="translate(14.427 54.977)"><path class="k" d="M243.917,257.754A29.736,29.736,0,0,0,260.264,252s-3.367,9.428-16.172,9.064Z" transform="translate(-243.917 -251.999)"/></g><g transform="translate(46.214 22.797)"><path class="j" d="M279.272,218.2a1.927,1.927,0,0,1,1.842-1.932c2.381-.066,6.276.88,6.643,7.452.522,9.388-8.508,7.046-8.539,6.778C279.193,230.29,279.248,221.851,279.272,218.2Z" transform="translate(-279.212 -216.268)"/><g transform="translate(2.067 3.015)"><path class="k" d="M281.514,227.143c.04-.032.17.105.454.217a1.642,1.642,0,0,0,1.224-.043c.971-.42,1.718-2.041,1.67-3.735a5.4,5.4,0,0,0-.588-2.316,1.893,1.893,0,0,0-1.3-1.187.834.834,0,0,0-.94.5c-.112.27-.041.454-.09.473-.025.025-.211-.146-.157-.539a1.046,1.046,0,0,1,.337-.608,1.236,1.236,0,0,1,.892-.29,2.3,2.3,0,0,1,1.79,1.361,5.572,5.572,0,0,1,.712,2.585c.045,1.895-.825,3.72-2.16,4.188a1.754,1.754,0,0,1-1.51-.166C281.544,227.369,281.483,227.162,281.514,227.143Z" transform="translate(-281.507 -219.615)"/></g></g></g><g transform="translate(12.235 30.414)"><g transform="translate(2.973 2.118)"><path class="g" d="M232.429,220.07a1.734,1.734,0,0,0,1.791,1.626,1.657,1.657,0,0,0,1.671-1.685,1.734,1.734,0,0,0-1.789-1.627A1.66,1.66,0,0,0,232.429,220.07Z" transform="translate(-232.428 -218.383)"/></g><path class="g" d="M229.16,218.1c.231.211,1.472-.852,3.332-.979,1.856-.154,3.29.706,3.476.464.092-.108-.156-.5-.781-.89a4.755,4.755,0,0,0-2.8-.65,4.561,4.561,0,0,0-2.632,1.061C229.213,217.585,229.048,218.007,229.16,218.1Z" transform="translate(-229.127 -216.031)"/></g><g transform="translate(31.118 30.414)"><g transform="translate(2.581 1.797)"><path class="g" d="M252.961,219.714a1.734,1.734,0,0,0,1.791,1.626,1.657,1.657,0,0,0,1.671-1.685,1.733,1.733,0,0,0-1.789-1.627A1.659,1.659,0,0,0,252.961,219.714Z" transform="translate(-252.96 -218.027)"/></g><path class="g" d="M250.127,218.1c.231.211,1.473-.852,3.332-.979,1.856-.154,3.29.706,3.476.464.092-.108-.153-.5-.781-.89a4.757,4.757,0,0,0-2.8-.65,4.567,4.567,0,0,0-2.633,1.061C250.181,217.585,250.016,218.007,250.127,218.1Z" transform="translate(-250.094 -216.031)"/></g><g transform="translate(4.099)"><path class="m" d="M220.094,182.261" transform="translate(-220.094 -182.261)"/></g><path class="g" d="M263.7,190.982a11.175,11.175,0,0,0,2.125,11.979c1.258,1.3,2.84,2.292,3.928,3.739,2.256,3,1.889,7.121,2.241,10.857a7.228,7.228,0,0,0,1.842,4.744c1.273,1.18,3.65,1.261,4.536-.232a4.512,4.512,0,0,0,.468-1.5q1.173-6.24,2.346-12.479c.586-3.12,1.174-6.321.634-9.448a13.341,13.341,0,0,0-16.667-10.6" transform="translate(-220.24 -182.79)"/><path class="g" d="M260.959,187.842c-4.33-.829-6.762-2.213-9.826-3.593a14.407,14.407,0,0,0-9.76-1.109c-2.18.617-4.244,1.926-6.491,1.9-2.228-.022-4.228-1.347-6.359-2.021a11.34,11.34,0,0,0-8.814.9,7.538,7.538,0,0,0-4.157,5.732c-.177,2.518,2.071,5.128,4.326,4.412-2.355.82-3.314,4.288-2.136,6.608a6.049,6.049,0,0,0,6.348,2.986,11.485,11.485,0,0,0,6.357-3.875c.057,2.808,2.872,4.783,5.479,4.7s4.972-1.647,7.127-3.258,4.334-3.367,6.893-3.938a54.063,54.063,0,0,1,5.436-.4,5.715,5.715,0,0,0,4.61-2.728c.875-1.726,4.339-3.7,2.524-3.753" transform="translate(-215.542 -182.286)"/><g transform="translate(19.774 10.118)"><path class="g" d="M237.5,202.757a10.349,10.349,0,0,0,.962.513,4.606,4.606,0,0,0,2.889-.009,7.728,7.728,0,0,0,1.862-.819c.63-.379,1.268-.86,1.952-1.356a16.112,16.112,0,0,1,2.261-1.444,6.5,6.5,0,0,1,2.829-.71c2.006-.036,3.82.505,5.461.357a4.945,4.945,0,0,0,3.675-2,5.431,5.431,0,0,0,1.092-2.7c.072-.7,0-1.092.048-1.1.016,0,.042.093.079.28a3.591,3.591,0,0,1,.056.831,5.306,5.306,0,0,1-1.009,2.884,5.364,5.364,0,0,1-1.556,1.473,5.245,5.245,0,0,1-2.349.756c-1.746.175-3.588-.36-5.484-.319a8.5,8.5,0,0,0-4.852,2.036c-.689.485-1.342.96-2.007,1.34a7.791,7.791,0,0,1-1.971.8,4.581,4.581,0,0,1-3.046-.143,2.756,2.756,0,0,1-.7-.462C237.553,202.843,237.488,202.769,237.5,202.757Z" transform="translate(-237.498 -193.496)"/></g><g transform="translate(43.736 1.103)"><path class="g" d="M264.473,183.488a18.351,18.351,0,0,0,.26,2.99,18.423,18.423,0,0,0,1.175,2.763,5.145,5.145,0,0,1-1.436-5.753Z" transform="translate(-264.104 -183.486)"/></g><g transform="translate(45.675 0.901)"><path class="g" d="M269.487,183.268c.1.1-1.063,1.2-1.932,2.924-.89,1.712-1.1,3.3-1.246,3.277a7.532,7.532,0,0,1,3.177-6.2Z" transform="translate(-266.258 -183.261)"/></g></g><path class="n" d="M334.017,331.545l19.6,50.446H323.612l-13.986-35.911Z" transform="translate(-158.62 -197.097)"/><path class="j" d="M211.084,278.529s-25.834,26.615-37.025,26.615c-3.655,0-6.521-44.327-6.566-57.1h0a16.5,16.5,0,0,1,2.515-4.589,21.361,21.361,0,0,1,3.247-3.587,22.35,22.35,0,0,1,5.07-3.272c1.747-.614,1.891-3.005.3-3.481s-6.444,1.1-10.787,5.22-3.042-5.1-2.629-8.463,1.2-13.828.268-14.748c-1.373-1.348-3.115-.1-3.45,3.273-.339,3.411-2.051,13.421-3.82,13.163-1.745-.253.594-17.367.594-17.367s1.092-3.593-.941-3.958c-3.669-.66-4.813,17.68-4.879,19.426-.045,1.215-1.981,1-1.862-.3.122-1.342,2.73-17.027-1-17.734-2.861-.543-1.083,15.081-3.432,18.082s-.135-12.016-2.893-12.423c-1.025-.15-1.816-.121-1.842,8.653-.014,4.715,1.8,11.84,1.1,20.921h0c1.193,26.8-.123,102.071,29.7,93.148,32.8-9.813,55.2-31.3,55.2-31.3Z" transform="translate(-141.957 -185.039)"/><g transform="translate(141.504 117.344)"><path class="g" d="M299.085,312.553a4.862,4.862,0,0,1,.294,1.059c.16.688.366,1.689.6,2.93.467,2.481,1.011,5.929,1.436,9.759s.643,7.316.73,9.839c.044,1.262.062,2.283.056,2.989a4.93,4.93,0,0,1-.055,1.1,4.935,4.935,0,0,1-.128-1.092l-.2-2.978c-.171-2.514-.444-5.984-.865-9.805s-.915-7.264-1.3-9.756c-.179-1.171-.33-2.158-.451-2.951A5.016,5.016,0,0,1,299.085,312.553Z" transform="translate(-299.075 -312.553)"/></g><g transform="translate(36.333 74.771)"><g transform="translate(0 5.405)"><path class="o" d="M210.714,376l82.609.421-2.784-17.44a134.531,134.531,0,0,0-.122-24.87l4.182,11.342,34.143-17.071s-12.412-33.1-22.8-44.306c-13.129-14.164-36.745-12.756-36.745-12.756l-15.961,10.843-14.69-10.345a71.384,71.384,0,0,0-22.7,6.6l-.757.22.006.158c-8.664,4.529-21.021,15.558-32.8,26.265l13.59,13.231,15.054,14.021a12.531,12.531,0,0,1,2.572-.111C213.771,333.687,210.714,376,210.714,376Z" transform="translate(-182.299 -271.284)"/><path class="p" d="M299.494,306.685l11.224,40.035-4.508,2.253-4.182-11.342S297.964,313.9,299.494,306.685Z" transform="translate(-193.911 -274.802)"/></g><path class="o" d="M243.738,271.033v-4.324s12.9-1,15.512,14.238c0,0,4.2-14.238,16.719-15.664l1.784,6.656s-5.93,18.541-6.79,18.7-11.713,3.328-11.713,3.328l-6.286-1.426-6.984-7.949Z" transform="translate(-188.405 -265.283)"/><g transform="translate(73.715 6.144)"><path class="g" d="M280.078,272.107a4.533,4.533,0,0,1-.712.754c-.471.47-1.157,1.142-1.967,2.009a45.951,45.951,0,0,0-5.592,7.356c-.4.644-.76,1.289-1.1,1.909l-.207.375-.2-.374-3.669-6.872a3.037,3.037,0,0,0-.824-.939,1.84,1.84,0,0,0-.867-.316,1.948,1.948,0,0,0-.787.14c-.019,0,.208-.289.793-.3a1.915,1.915,0,0,1,.99.281,3.153,3.153,0,0,1,.952.975c1.019,1.7,2.316,4.089,3.82,6.815H270.3c.343-.63.71-1.283,1.11-1.935a39.755,39.755,0,0,1,5.754-7.342c.847-.845,1.572-1.484,2.082-1.915A4.372,4.372,0,0,1,280.078,272.107Z" transform="translate(-264.148 -272.105)"/></g><g transform="translate(54.497 6.913)"><path class="g" d="M242.812,272.96a3.32,3.32,0,0,1,.615.649c.372.438.9,1.079,1.54,1.879,1.284,1.6,3.032,3.826,4.94,6.3l.305.4-.391.03a16.153,16.153,0,0,0,1.062-4.016,4.754,4.754,0,0,1,1.782-3,2.63,2.63,0,0,1,2.324-.3,1.69,1.69,0,0,1,.545.35c.1.113.141.174.13.185a3.945,3.945,0,0,0-.733-.367,2.524,2.524,0,0,0-2.085.4A4.538,4.538,0,0,0,251.3,278.3a15.324,15.324,0,0,1-1.066,4.146l-.169.319-.222-.289-.305-.4c-1.908-2.478-3.614-4.738-4.831-6.388-.608-.825-1.094-1.5-1.422-1.969A3.277,3.277,0,0,1,242.812,272.96Z" transform="translate(-242.809 -272.959)"/></g><g transform="translate(63.66 15.754)"><path class="g" d="M252.992,377.144a.933.933,0,0,1-.007-.245c.007-.188.016-.424.028-.717.036-.665.086-1.584.15-2.751.153-2.426.372-5.873.64-10.117.589-8.571,1.4-20.353,2.291-33.366.947-13.015,1.8-24.8,2.429-33.364.331-4.24.6-7.683.789-10.107.1-1.165.181-2.082.239-2.746.03-.291.054-.526.074-.713a.941.941,0,0,1,.041-.242.965.965,0,0,1,.006.245l-.027.717c-.037.665-.086,1.585-.15,2.752-.154,2.425-.372,5.872-.641,10.116-.588,8.571-1.4,20.353-2.291,33.371-.947,13.01-1.8,24.789-2.428,33.357-.331,4.24-.6,7.684-.79,10.108-.1,1.164-.181,2.083-.239,2.747-.03.292-.054.526-.074.714A.974.974,0,0,1,252.992,377.144Z" transform="translate(-252.983 -282.775)"/></g><g transform="translate(31.204 30.003)"><path class="g" d="M219.761,298.6a8.54,8.54,0,0,1-.079,1.432c-.08,1-.185,2.31-.31,3.889-.248,3.285-.5,7.83-.778,12.853s-.584,9.573-.916,12.856c-.159,1.643-.325,2.968-.458,3.882a8.341,8.341,0,0,1-.261,1.41,8.536,8.536,0,0,1,.079-1.432c.08-1,.184-2.309.31-3.889.248-3.285.5-7.83.778-12.855s.584-9.57.916-12.854c.159-1.643.324-2.968.458-3.882A8.336,8.336,0,0,1,219.761,298.6Z" transform="translate(-216.946 -298.597)"/></g><g transform="translate(62.369 10.064)"><path class="e" d="M259.521,280.264s-4.428,5.786-3.781,6.655,3.781,5.045,3.781,5.045h2.69s2.524-7.078,1.874-7.977A39.75,39.75,0,0,0,259.521,280.264Z" transform="translate(-251.96 -276.836)"/><path class="e" d="M266.956,278.527l-4.888,3.826,1.874,3.588,5.03-3.707Z" transform="translate(-252.595 -276.664)"/><path class="e" d="M251.55,280.735l4.458,3.724,2.471-3.724-5.63-4.277Z" transform="translate(-251.55 -276.458)"/><path class="e" d="M259.194,293.175l-6.8,60.928,6.694,21.19,8.926-21-5.875-61.847Z" transform="translate(-251.633 -278.047)"/></g><g transform="translate(104.112 12.626)"><path class="g" d="M311.291,280.539a6.181,6.181,0,0,0-.882-.6,3.807,3.807,0,0,0-2.8-.159,8.692,8.692,0,0,0-3.487,2.461,20.576,20.576,0,0,0-3.187,4.258,21.541,21.541,0,0,0-2.7,9.236c-.149,2.49.172,4.028.071,4.039a4.916,4.916,0,0,1-.234-1.07,17.707,17.707,0,0,1-.168-2.984,20.541,20.541,0,0,1,2.623-9.451,19.9,19.9,0,0,1,3.29-4.333,8.73,8.73,0,0,1,3.7-2.474,3.865,3.865,0,0,1,2.978.315,2.558,2.558,0,0,1,.639.524C311.254,280.445,311.3,280.531,311.291,280.539Z" transform="translate(-297.899 -279.302)"/></g></g></g><g transform="translate(277.84 180.831)"><path class="g" d="M382.226,196.969c-5.768,3.539-9.774,9.459-12.156,15.792s-3.278,13.116-3.983,19.846a386.371,386.371,0,0,0-1.866,53.522c21.828,2.762,43.822,5.53,65.772,4.036-3.805-25.066-6.217-50.1-3.167-75.269" transform="translate(-308.425 -193.275)"/><g transform="translate(0 74.579)"><g transform="translate(3.664 1.785)"><path class="q" d="M425.524,413.306l-15.889-32.14,6.067-23.5c.712,4.98,1.346,9.3,1.346,9.3l34.089-1.8a2.165,2.165,0,0,0,2.028-2.464L446.5,315.68s-2.13-21.81-22.779-29.915v0c-.031-.011-.06-.02-.091-.032-.829-.323-1.7-.619-2.587-.9-27.841-9.65-53.912-9.593-82.925.307,0,0-12.888,3.467-19.135,20.28s-12.626,41.531-12.626,41.531l28.944,10.221.191-4.887,6.4,24.459-14.03,35.629,48.948,1.209Z" transform="translate(-306.362 -277.657)"/></g><path class="q" d="M306.02,354.276l-3.248,15.352c-2.792,13.2,6.977,26.741,20.38,28.257L394.4,405.2a28.309,28.309,0,0,0,31.384-25.66h0l-89.826-8.565.563-8.62Z" transform="translate(-302.294 -283.487)"/><path class="j" d="M405.307,369.942l5.533-1.025s13.117-14.346,15.575-14.55c2.025-.168,13.182-.059,17.069-.016a1.351,1.351,0,0,1,1.335,1.353h0a1.352,1.352,0,0,1-1.3,1.351l-13.182.512-.063,1.061,13.2.176c1.344.1,2.206,2.232-2.1,2.615l-11.042.393v.687l11.2,1.564c.566.079,2.054.368,2.068.939,0,0,.677,1.4-2.513,1.8-1.094.137-10.814-.186-10.814-.186l.375.875,10.062,2.17a1.429,1.429,0,0,1,1.115,1.6h0a1.429,1.429,0,0,1-1.548,1.225l-10.752-1-10.55,8.427H404.867Z" transform="translate(-312.487 -283.487)"/><path class="r" d="M366.477,278.043s13.879,70.966,18.773,70.448,27.829-68,27.829-68S383.76,271.542,366.477,278.043Z" transform="translate(-308.672 -275.676)"/><g transform="translate(118.99 49.201)"><path class="g" d="M434.648,352.167c-.13,0-.234-4.894-.234-10.93s.1-10.931.234-10.931.235,4.893.235,10.931S434.778,352.167,434.648,352.167Z" transform="translate(-434.414 -330.306)"/></g><g transform="translate(34.005 50.181)"><path class="g" d="M340.068,352.733a21.02,21.02,0,0,1,.291-3.146c.239-1.936.6-4.608,1.031-7.555s.844-5.613,1.166-7.537a21.018,21.018,0,0,1,.62-3.1,21.163,21.163,0,0,1-.291,3.149c-.24,1.937-.6,4.608-1.031,7.554s-.843,5.608-1.166,7.533A21.228,21.228,0,0,1,340.068,352.733Z" transform="translate(-340.051 -331.394)"/></g><g transform="translate(74.035 73.074)"><path class="g" d="M384.577,421.452a3.421,3.421,0,0,1-.042-.657c-.008-.477-.019-1.1-.032-1.886-.013-1.636,0-4.006.059-6.932.108-5.853.424-13.934.827-22.853s.771-17,.964-22.845c.086-2.885.158-5.237.208-6.925.023-.781.042-1.407.057-1.883a3.431,3.431,0,0,1,.052-.657,3.533,3.533,0,0,1,.042.657c.008.477.018,1.1.032,1.885.013,1.636,0,4.006-.059,6.932-.108,5.853-.425,13.934-.827,22.857s-.771,16.994-.964,22.842c-.086,2.885-.158,5.237-.208,6.925-.023.782-.042,1.408-.057,1.884A3.509,3.509,0,0,1,384.577,421.452Z" transform="translate(-384.498 -356.813)"/></g><g transform="translate(75.963 4.675)"><path class="g" d="M414.966,280.867c.023,0,.047.307.153.882a12.862,12.862,0,0,0,.71,2.451,27.346,27.346,0,0,0,1.8,3.625,49.367,49.367,0,0,1,2.553,4.755,11.456,11.456,0,0,1,1.081,6.446,8.3,8.3,0,0,1-1.447,3.4,22.685,22.685,0,0,1-2.542,2.938,45.175,45.175,0,0,0-5.4,6.2,14.727,14.727,0,0,0-2.787,8.153,10.085,10.085,0,0,0,.953,4.272,38.079,38.079,0,0,1,1.748,4.04,6.05,6.05,0,0,1,.285,2.187,4.538,4.538,0,0,1-.682,2.07,11.265,11.265,0,0,1-3,2.813l-11.283,8.315-7.632,5.572-2.089,1.5-.55.38a.879.879,0,0,1-.2.116.865.865,0,0,1,.168-.155l.522-.417,2.037-1.566,7.542-5.693,11.224-8.395a10.943,10.943,0,0,0,2.874-2.7,4.069,4.069,0,0,0,.608-1.866,5.605,5.605,0,0,0-.27-2.02,38.459,38.459,0,0,0-1.735-3.986,10.537,10.537,0,0,1-1-4.459,15.14,15.14,0,0,1,2.876-8.411,45.013,45.013,0,0,1,5.474-6.245c1.844-1.835,3.548-3.8,3.914-6.1a11.181,11.181,0,0,0-1-6.248,51.437,51.437,0,0,0-2.478-4.758,26.023,26.023,0,0,1-1.739-3.688,11.581,11.581,0,0,1-.632-2.5,6.078,6.078,0,0,1-.06-.668A.838.838,0,0,1,414.966,280.867Z" transform="translate(-386.639 -280.867)"/></g><g transform="translate(48.914 2.391)"><path class="g" d="M384.214,348.031a.752.752,0,0,1-.22-.024l-.636-.119a21.6,21.6,0,0,1-2.4-.658,24.118,24.118,0,0,1-7.92-4.544,23.379,23.379,0,0,1-7.265-11.341,24.223,24.223,0,0,1-.94-7.982,27.229,27.229,0,0,1,.566-4.221,9.694,9.694,0,0,0,.118-4.211,3.432,3.432,0,0,0-1.092-1.7,5.746,5.746,0,0,0-1.849-.927c-.669-.226-1.364-.411-2.035-.689a5.883,5.883,0,0,1-1.825-1.182,7.173,7.173,0,0,1-1.853-3.722,15.237,15.237,0,0,1-.219-3.957,54.985,54.985,0,0,1,6.738-21.573c.535-.938.965-1.658,1.279-2.133.143-.218.26-.4.355-.541.083-.12.128-.179.135-.175a.843.843,0,0,1-.094.2l-.315.564c-.286.49-.691,1.223-1.2,2.171a59.679,59.679,0,0,0-3.631,8.351,55.38,55.38,0,0,0-2.835,13.161,14.87,14.87,0,0,0,.226,3.84,6.738,6.738,0,0,0,1.736,3.485,5.4,5.4,0,0,0,1.681,1.082c.634.263,1.318.444,2.007.675a6.167,6.167,0,0,1,2,1.008,3.9,3.9,0,0,1,1.245,1.932,10.047,10.047,0,0,1-.11,4.426,27.023,27.023,0,0,0-.566,4.159,23.909,23.909,0,0,0,.9,7.84,23.33,23.33,0,0,0,7.068,11.21,24.738,24.738,0,0,0,7.762,4.622c1.011.363,1.815.6,2.363.738l.624.164A.791.791,0,0,1,384.214,348.031Z" transform="translate(-356.605 -278.331)"/></g><path class="q" d="M422.293,371.568l-59.679-1.928.091,19.8,39.513,8.689,27.8,4.438c17.278,0,31.1-15.859,28.424-32.929l-.073.02Z" transform="translate(-308.288 -285.014)"/><g transform="translate(54.326 84.617)"><path class="g" d="M438.722,371.188a4.8,4.8,0,0,1-.774.054l-2.218.063-8.16.148c-6.89.1-16.41.217-26.927.117s-20.04-.484-26.918-.949c-3.439-.23-6.22-.452-8.137-.645l-2.207-.226a4.759,4.759,0,0,1-.767-.111,4.811,4.811,0,0,1,.775.016l2.214.139c1.922.137,4.7.308,8.143.5,6.878.381,16.389.708,26.9.811s20.028.036,26.919.021h8.161l2.219.025A4.812,4.812,0,0,1,438.722,371.188Z" transform="translate(-362.614 -369.63)"/></g><path class="j" d="M357.692,369.942l-5.533-1.025s-13.117-14.346-15.576-14.55c-2.024-.168-13.182-.059-17.068-.016a1.351,1.351,0,0,0-1.336,1.353h0a1.353,1.353,0,0,0,1.3,1.351l13.182.512.062,1.061-13.2.176c-1.345.1-2.206,2.232,2.1,2.615l11.042.393v.687l-11.2,1.564c-.566.079-2.054.368-2.068.939,0,0-.678,1.4,2.512,1.8,1.1.137,10.814-.186,10.814-.186l-.374.875-10.063,2.17a1.43,1.43,0,0,0-1.114,1.6h0a1.429,1.429,0,0,0,1.548,1.225l10.752-1,10.55,8.427h14.108Z" transform="translate(-303.872 -283.487)"/><g transform="translate(55.324 104.425)"><path class="g" d="M429.072,404.44a3.636,3.636,0,0,1-.677-.041l-1.932-.207c-1.677-.186-4.1-.494-7.085-.908-5.976-.826-14.209-2.134-23.243-3.9s-17.155-3.672-23-5.164c-2.923-.745-5.281-1.373-6.9-1.835l-1.867-.538a3.711,3.711,0,0,1-.642-.218,3.547,3.547,0,0,1,.666.127l1.889.452,6.937,1.69c5.861,1.409,13.984,3.253,23.011,5.025s17.241,3.126,23.2,4.036l7.061,1.056,1.92.294A3.867,3.867,0,0,1,429.072,404.44Z" transform="translate(-363.722 -391.623)"/></g><g transform="translate(53.685 85.031)"><path class="g" d="M363.168,389.578a15.271,15.271,0,0,1-.517-2.821c-.24-1.754-.493-4.191-.632-6.89s-.139-5.15-.079-6.919a15.372,15.372,0,0,1,.223-2.859,19.807,19.807,0,0,1,.108,2.861c.026,1.766.078,4.2.216,6.892s.338,5.118.494,6.877A19.879,19.879,0,0,1,363.168,389.578Z" transform="translate(-361.902 -370.089)"/></g><g transform="translate(59.692 85.3)"><path class="g" d="M370.357,390.382a2.612,2.612,0,0,1-.262-.752c-.141-.491-.313-1.21-.5-2.1a51.207,51.207,0,0,1-.865-14.211c.077-.91.16-1.645.241-2.149a2.626,2.626,0,0,1,.168-.778,25.214,25.214,0,0,1-.078,2.947c-.068,1.815-.094,4.324.073,7.088s.5,5.251.787,7.044A25.484,25.484,0,0,1,370.357,390.382Z" transform="translate(-368.572 -370.388)"/></g><g transform="translate(55.343 87.901)"><path class="g" d="M364.364,373.576c.05.055-.295.3-.282.87a1.072,1.072,0,0,0,.364.8.967.967,0,0,0,1.477-.852,1.068,1.068,0,0,0-.512-.717c-.485-.3-.871-.122-.893-.192-.054-.031.363-.388,1.045-.1a1.352,1.352,0,0,1,.787.937,1.369,1.369,0,0,1-2.182,1.257,1.356,1.356,0,0,1-.416-1.151C363.847,373.7,364.366,373.515,364.364,373.576Z" transform="translate(-363.743 -373.276)"/></g><g transform="translate(8.883 108.063)"><path class="g" d="M370.089,395.824a3.121,3.121,0,0,1-.614.02c-.4-.01-.992-.006-1.752.005a47.875,47.875,0,0,0-6.405.6,94.268,94.268,0,0,0-9.324,2.071c-3.48.918-7.288,2.034-11.364,2.921a48.608,48.608,0,0,1-11.685,1.267,29.221,29.221,0,0,1-9.424-1.8,21.063,21.063,0,0,1-5.638-3.175,14.809,14.809,0,0,1-1.31-1.179,2.931,2.931,0,0,1-.415-.451c.039-.041.622.574,1.836,1.485a22.208,22.208,0,0,0,5.642,3.009,29.6,29.6,0,0,0,9.321,1.681,49.477,49.477,0,0,0,11.573-1.293c4.054-.883,7.861-1.983,11.354-2.881a87.215,87.215,0,0,1,9.384-1.98,41.972,41.972,0,0,1,6.454-.457c.764.017,1.356.042,1.757.083A3.006,3.006,0,0,1,370.089,395.824Z" transform="translate(-312.157 -395.662)"/></g></g><g transform="translate(51.654)"><g transform="translate(10.264)"><g transform="translate(1.589 8.383)"><path class="j" d="M402.366,279.1c1.419-7.914,3.058-16.219,3.058-16.219s10.5.1,14.957-12.834c4.251-12.337,7.322-42.015,7.322-42.015h0a38.838,38.838,0,0,0-44.26,2.256h0L372.977,274.75c-1.215,7.483,4.253,14.488,12.275,15.728h0C393.357,291.73,401.015,286.636,402.366,279.1Z" transform="translate(-372.808 -202.175)"/><g transform="translate(43.459 24.203)"><g transform="translate(0.174 2.014)"><path class="g" d="M424.71,233.149a1.733,1.733,0,0,1-1.949,1.432,1.658,1.658,0,0,1-1.489-1.849,1.734,1.734,0,0,1,1.947-1.434A1.66,1.66,0,0,1,424.71,233.149Z" transform="translate(-421.257 -231.285)"/></g><path class="g" d="M427.794,231.5c-.25.186-1.375-1-3.212-1.318-1.831-.345-3.346.362-3.505.1-.08-.117.206-.481.868-.8a4.752,4.752,0,0,1,2.854-.358,4.565,4.565,0,0,1,2.508,1.328C427.8,230.985,427.916,231.422,427.794,231.5Z" transform="translate(-421.063 -229.049)"/></g><g transform="translate(24.177 21.495)"><g transform="translate(0.598 1.735)"><path class="g" d="M403.769,229.832a1.732,1.732,0,0,1-1.949,1.432,1.658,1.658,0,0,1-1.488-1.849,1.734,1.734,0,0,1,1.947-1.434A1.659,1.659,0,0,1,403.769,229.832Z" transform="translate(-400.317 -227.968)"/></g><path class="g" d="M406.385,228.5c-.251.185-1.377-1-3.213-1.319-1.831-.344-3.345.363-3.505.1-.08-.116.2-.48.869-.8a4.755,4.755,0,0,1,2.853-.358,4.571,4.571,0,0,1,2.509,1.328C406.384,227.978,406.506,228.415,406.385,228.5Z" transform="translate(-399.653 -226.042)"/></g><g transform="translate(35.175 23.293)"><path class="g" d="M411.865,243.489a12.394,12.394,0,0,1,3.078-.013c.477.034.938.019,1.073-.286a2.428,2.428,0,0,0-.068-1.445q-.362-1.82-.758-3.816c-1.03-5.424-1.689-9.85-1.47-9.89s1.232,4.325,2.262,9.748q.363,2,.7,3.827a2.761,2.761,0,0,1-.081,1.883,1.2,1.2,0,0,1-.893.55,3.234,3.234,0,0,1-.816-.03A12.111,12.111,0,0,1,411.865,243.489Z" transform="translate(-411.865 -228.039)"/></g><g transform="translate(15.63 52.808)"><path class="k" d="M407.149,268.7a34.376,34.376,0,0,1-16.986-7.894s2.714,9.9,16.253,11Z" transform="translate(-390.163 -260.81)"/></g><g transform="translate(27.909 41.274)"><path class="k" d="M409.507,249.763a3.362,3.362,0,0,0-2.75-1.752,3.068,3.068,0,0,0-2.283.752,1.943,1.943,0,0,0-.531,2.163,2.255,2.255,0,0,0,2.3,1.033,7.056,7.056,0,0,0,2.595-.987,2.06,2.06,0,0,0,.62-.451.623.623,0,0,0,.118-.684" transform="translate(-403.797 -248.004)"/></g><g transform="translate(29.019 39.061)"><path class="g" d="M405.557,245.548c.3.035-.046,2.03,1.411,3.745s3.619,1.871,3.584,2.152c.006.13-.541.3-1.443.17a5.036,5.036,0,0,1-3.012-1.683,4.388,4.388,0,0,1-1.056-3.118C405.113,245.967,405.423,245.512,405.557,245.548Z" transform="translate(-405.029 -245.546)"/></g></g><g transform="translate(21.204)"><path class="g" d="M394.61,199.848c3.555,7.844,15.08,17.389,23.981,20.776-.81-1.618-5.812-6.171-6.621-7.789,3.59,3.9,8.781,9.2,14.268,10.523a3.425,3.425,0,0,0,1.96.062,2.617,2.617,0,0,0,1.362-1.9,56.379,56.379,0,0,0,1.88-12.106,13.557,13.557,0,0,0-3.177-9.488c-3.033-3.409-7.986-5.042-12.75-6.057-4-.851-8.179-1.392-12.121-.634s-7.618,3.031-8.8,6.372" transform="translate(-394.588 -192.867)"/></g><g transform="translate(0 0.711)"><path class="g" d="M371.048,229.47a76.4,76.4,0,0,1,.343-9.127c.9-6.927,3.057-32.112,26.3-25.631l-2.474,6.45s1.785,16.209-10.146,24.913c0,0,.051,16.178-8.213,22.016,0,0-5.764-10.971-5.813-18.621" transform="translate(-371.044 -193.656)"/></g><g transform="translate(5.672 31.436)"><path class="j" d="M386.2,228.368a8.055,8.055,0,0,0-4.332-.48,5.622,5.622,0,0,0-3.638,2.293,5.878,5.878,0,0,0-.785,4.247,9.938,9.938,0,0,0,1.794,4.006,6.735,6.735,0,0,0,2.281,2.17,3.221,3.221,0,0,0,3.045.063" transform="translate(-377.342 -227.772)"/></g><g transform="translate(8.692 33.407)"><path class="k" d="M384.223,237.075c.154.081-.617.833-1.856.254a2.845,2.845,0,0,1-1.361-1.688,6.448,6.448,0,0,1-.293-2.487,3.775,3.775,0,0,1,1.044-2.4,2.513,2.513,0,0,1,2.064-.775c1.344.205,1.6,1.206,1.438,1.207-.126.089-.561-.48-1.474-.424a2.438,2.438,0,0,0-1.968,2.488c-.1,1.492.228,2.932.948,3.4C383.5,237.21,384.154,236.942,384.223,237.075Z" transform="translate(-380.695 -229.961)"/></g></g><path class="g" d="M382.108,242.056c-3.611,21.537-.668,43.549-.024,65.376.061,2.093.08,4.284-.871,6.149-1.438,2.82-4.782,4.189-7.942,4.383s-6.3-.544-9.45-.8q-.511-3.141-1.02-6.282l-3.153,7.238q2.084-22.975,4.56-45.912" transform="translate(-359.647 -197.756)"/></g></g></g></svg>