<?xml version="1.0" encoding="utf-8"?>
<!-- Generator: Adobe Illustrator 19.0.0, SVG Export Plug-In . SVG Version: 6.00 Build 0)  -->
<svg version="1.1" xmlns="http://www.w3.org/2000/svg" xmlns:xlink="http://www.w3.org/1999/xlink" x="0px" y="0px"
	 viewBox="0 0 1317.9 445.6" style="enable-background:new 0 0 1317.9 445.6;" xml:space="preserve">
<style type="text/css">
	.st0{fill:url(#XMLID_37_);}
	.st1{fill:#22205F;}
	.st2{fill:url(#XMLID_54_);}
	.st3{fill-rule:evenodd;clip-rule:evenodd;fill:url(#XMLID_68_);}
	.st4{opacity:0.63;fill:url(#XMLID_69_);}
	.st5{opacity:0.65;fill-rule:evenodd;clip-rule:evenodd;fill:url(#XMLID_70_);}
	.st6{fill:url(#XMLID_71_);}
	.st7{fill:#F5F5F5;}
</style>
<g id="Layer_1">
	
		<linearGradient id="XMLID_37_" gradientUnits="userSpaceOnUse" x1="-228.0175" y1="899.6219" x2="-228.0175" y2="899.6219" gradientTransform="matrix(-1 0 0 -1 494.2859 1148.0488)">
		<stop  offset="5.000000e-003" style="stop-color:#08B89D"/>
		<stop  offset="0.216" style="stop-color:#049C92;stop-opacity:0.9936"/>
		<stop  offset="0.6796" style="stop-color:#00687B;stop-opacity:0.9797"/>
		<stop  offset="1" style="stop-color:#00476B;stop-opacity:0.97"/>
	</linearGradient>
	<path id="XMLID_7_" class="st0" d="M722.3,248.4"/>
	<polygon id="XMLID_5_" class="st1" points="731.6,274.6 672.9,172.9 614.2,274.6 672.3,252.1 	"/>
	<g id="XMLID_9_">
		
			<linearGradient id="XMLID_54_" gradientUnits="userSpaceOnUse" x1="-286.3887" y1="913.6129" x2="-193.8099" y2="1024.9757" gradientTransform="matrix(-1 0 0 -1 494.2859 1148.0488)">
			<stop  offset="0" style="stop-color:#F7F7F7"/>
			<stop  offset="0.1277" style="stop-color:#F4F4F4;stop-opacity:0.9971"/>
			<stop  offset="0.5613" style="stop-color:#F0F0F0;stop-opacity:0.9874"/>
			<stop  offset="0.9675" style="stop-color:#E3E3E3;stop-opacity:0.97"/>
		</linearGradient>
		<polygon id="XMLID_8_" class="st2" points="780.3,320.5 818,248.4 714.2,68 630.1,68 		"/>
		<linearGradient id="XMLID_68_" gradientUnits="userSpaceOnUse" x1="531.8348" y1="320.4174" x2="690.6381" y2="320.4174">
			<stop  offset="0" style="stop-color:#ECECEC"/>
			<stop  offset="1" style="stop-color:#E7E7E7;stop-opacity:0.97"/>
		</linearGradient>
		<polygon id="XMLID_6_" class="st3" points="690.6,284.4 656.5,356.5 545.7,355.1 531.8,285.6 		"/>
		
			<linearGradient id="XMLID_69_" gradientUnits="userSpaceOnUse" x1="-64.36" y1="791.8766" x2="-114.1223" y2="869.1152" gradientTransform="matrix(-1 0 0 -1 494.2859 1148.0488)">
			<stop  offset="0" style="stop-color:#E3E3E3"/>
			<stop  offset="0.5978" style="stop-color:#E5E5E5;stop-opacity:0.4022"/>
			<stop  offset="0.8368" style="stop-color:#ECECEC;stop-opacity:0.1632"/>
			<stop  offset="1" style="stop-color:#F7F7F7;stop-opacity:0"/>
		</linearGradient>
		<path id="XMLID_3_" class="st4" d="M546.2,355.1c3.3-2.5,76.4-70.6,76.4-70.6l-35.8,0.1L546.2,355.1z"/>
		
			<linearGradient id="XMLID_70_" gradientUnits="userSpaceOnUse" x1="-173.8971" y1="933.2256" x2="-209.509" y2="1070.5854" gradientTransform="matrix(-1 0 0 -1 494.2859 1148.0488)">
			<stop  offset="1.000000e-002" style="stop-color:#F7F7F7;stop-opacity:0"/>
			<stop  offset="0.1247" style="stop-color:#F3F3F3;stop-opacity:0.1124"/>
			<stop  offset="0.5617" style="stop-color:#E7E7E7;stop-opacity:0.5405"/>
			<stop  offset="1" style="stop-color:#E3E3E3;stop-opacity:0.97"/>
		</linearGradient>
		<polygon id="XMLID_2_" class="st5" points="714.2,68 693.5,174.6 672.7,139.8 		"/>
		<linearGradient id="XMLID_71_" gradientUnits="userSpaceOnUse" x1="713.9034" y1="212.144" x2="525.3235" y2="212.144">
			<stop  offset="3.281460e-007" style="stop-color:#F7F7F7"/>
			<stop  offset="1" style="stop-color:#E3E3E3"/>
		</linearGradient>
		<polygon id="XMLID_1_" class="st6" points="713.9,67.9 629.7,67.9 525.3,248.7 545.4,356.4 		"/>
	</g>
	<path id="XMLID_10_" class="st7" d="M1206.9,248.8c4.1,0,8.1,0,12.2,0c4.1,0,8.1,0,12.2,0c-4.1,0-8.1,0-12.2,0
		S1211,248.8,1206.9,248.8z"/>
	<path id="XMLID_91_" class="st7" d="M1052,201.9c-1.8,0-3.5-0.1-5.3-0.1c-5.3,0-10.6,0-15.9,0c-1.9,0-3.8,0-5.7,0
		c-5.8-0.1-11.5-0.2-17.2,0.1c-7,0.4-10.8,2.4-10.6,10.7c0.1,8.6,0,17.2,0,25.7c0,6.9,3.2,10.3,10.1,10.3c15.3,0.1,30.7,0.1,46,0
		c7-0.1,10.1-3.4,10.1-10.3c0-8.4-0.2-16.9,0.1-25.3C1063.8,204.9,1060.1,202.1,1052,201.9z M1054.4,239.3c0,2.4-0.5,3.1-3,3.1
		c-13.9-0.1-27.9-0.1-41.8,0c-2.7,0-3.3-0.8-3.3-3.4c0.1-9.2,0.1-18.4,0-27.6c0-2.5,0.6-3.4,3.3-3.4c3.5,0.1,7,0.1,10.6,0.1
		c3.5,0,7,0,10.6,0c3.4,0,6.7,0,10.1,0c3.4,0,6.7,0,10.1-0.1c2.4,0,3.6,0.2,3.5,3.1C1054.3,220.7,1054.3,230,1054.4,239.3z"/>
	<path id="XMLID_92_" class="st7" d="M1046.7,201.9c-5.3,0-10.6,0-15.9,0c-1.9,0-3.8,0-5.7,0c1.9,0,3.8,0,5.7,0
		C1036.2,201.9,1041.5,201.8,1046.7,201.9z"/>
	<path id="XMLID_93_" class="st7" d="M1158.3,202.1c-2.4-0.4-5.3-1.2-7.5,0.6c-1.9,1.5-3.6,3.4-5.1,5.2
		c-6.8,8.1-13.5,16.2-21.1,25.3c-3.1-6.9-8.7-10.3-12.6-15.4c-4-5.3-9-10-13.6-14.8c-2.2-2.3-5.3-1.4-7.8-1
		c-2.3,0.4-1.1,3.1-1.1,4.7c-0.1,13,0.1,26.1-0.1,39.1c-0.1,3.8,2.3,2.8,4.2,2.8c2,0,4.3,0.9,4.2-2.8c-0.3-8.3-0.1-16.6-0.1-24.9
		c0-2.9,0-5.8,0-9.1c8.1,9.2,15.8,17.8,23.2,26.5c2.9,3.4,5.2,3.7,7.8,0c0.5-0.7,1.3-1.3,1.9-2c6.6-8.1,13.3-16.1,20.5-24.9
		c0,11.9,0.2,22.8-0.1,33.8c-0.1,3.5,1.5,3.5,4.1,3.5c2.7,0,4.4,0.1,4.4-3.7c-0.3-12.9-0.1-25.8-0.2-38.7
		C1159.2,205,1160.3,202.5,1158.3,202.1z"/>
	<path id="XMLID_94_" class="st7" d="M1243.5,242.4c-10.4,0.1-20.9,0.1-31.3,0.1c-11.8,0-11.7,0-11.5-11.7c0-2.7,1-3.3,3.4-3.2
		c7.2,0.1,14.4-0.1,21.6,0.1c2.5,0.1,2.8-1,2.7-3c-0.1-1.8,0.4-3.6-2.6-3.5c-5.2,0.2-10.4,0.1-15.6,0.1c-9.6,0-9.4,0-9.5-9.6
		c0-3,1-3.5,3.7-3.5c13,0.1,26.1,0,39.1,0.1c2.5,0,3.5-0.4,3.4-3.2c0-2.6-0.8-3.3-3.4-3.3c-16.3,0.1-32.5,0.1-48.8,0
		c-2.3,0-3.2,0.5-3.2,3c0.1,13.7,0.1,27.3,0,41c0,2.5,0.8,3.1,3.1,3c4.1-0.1,8.1-0.1,12.2-0.1c4.1,0,8.1,0,12.2,0s8.1,0,12.2,0
		c4.1,0,8.1,0,12.2,0.1c2.5,0,3.4-0.6,3.4-3.2C1246.9,242.9,1246,242.3,1243.5,242.4z"/>
	<path id="XMLID_95_" class="st7" d="M964.2,201.8c-3,0-5.2,0-4.8,4.2c0.4,4.1,0,8.3,0.1,12.4c0.1,2.2-0.6,2.9-2.8,2.8
		c-13.5-0.1-27-0.1-40.5,0c-2.2,0-3-0.5-2.9-2.8c0.2-4.4-0.3-8.9,0.1-13.3c0.4-3.9-2.1-3.4-4.3-3.2c-2,0.2-5.1-1.7-5,2.9
		c0.2,13.7,0.2,27.3,0,41c-0.1,4.6,3,2.7,5,2.9c2.2,0.2,4.6,0.8,4.3-3.1c-0.4-5,0-10.1-0.1-15.2c-0.1-2.2,0.6-2.9,2.8-2.8
		c13.5,0.1,27,0.1,40.5,0c2.2,0,2.9,0.5,2.9,2.8c-0.2,5.1,0.2,10.1-0.1,15.2c-0.3,4.3,2.5,3.2,4.7,3.2c2.3,0.1,4.8,0.8,4.6-3.4
		c-0.4-6.6-0.1-13.2-0.1-19.8c0-6.6-0.3-13.2,0.1-19.8C969,201.8,967.1,201.8,964.2,201.8z"/>
	<path id="XMLID_97_" class="st7" d="M1040.9,208.3c-3.4,0-6.7,0-10.1,0c-3.5,0-7,0-10.6,0c3.5,0,7,0,10.6,0
		C1034.1,208.3,1037.5,208.3,1040.9,208.3z"/>
	<path id="XMLID_98_" class="st7" d="M227.9,253.9c3.7,0,7.4,0,11,0c3.8,0,7.7,0,11.5,0c-3.8,0-7.7,0-11.5,0
		C235.3,254,231.6,253.9,227.9,253.9z"/>
	<path id="XMLID_99_" class="st7" d="M419.3,227.4c-9.7-0.2-19.3,0-29,0c-10.8,0-10.7,0-10.6-10.7c0-2.7,1-3.2,3.4-3.2
		c10.6,0.1,21.2,0.1,31.7,0.1c6.2,0,6.2,0,6.7,6.7c1.4-0.7,2.4-1.2,3.7-1.2c4.2,0,4.9-1.8,3.6-5.8c-1.7-5.6-6.2-5.8-10.3-5.9
		c-10.7-0.3-21.5,0-32.2-0.1c-14-0.2-15,3.8-14.9,14.9c0,8.2,4,11.8,11.7,11.8c9.5-0.1,19,0,28.5,0c10.9,0,10.8,0,10.6,10.7
		c0,2.7-0.8,3.3-3.4,3.3c-12.4-0.1-24.8-0.2-37.3,0c-3,0-4.1-0.7-3.8-3.8c0.1-1.1,0.8-4.3-1.1-3.4c-2.3,1.1-7.1-1.6-6.9,3.7
		c0.2,6.5,2.1,9.5,10.6,9.6c13,0.3,26.1,0.3,39.1,0c7.4-0.1,11.3-2.6,11-10.8c-0.1-1.5-0.1-3.1,0-4.6
		C430.9,230.2,427,227.5,419.3,227.4z"/>
	<path id="XMLID_102_" class="st7" d="M100.8,207c-5.2-0.5-8.9,0.7-11.2,6c-1.5,3.4-4.1,6.2-6.2,9.3c-7,10.5-14,20.9-20.9,31.3
		c6.8,1.9,11.2-0.4,13.7-6.7c1.3-3.3,4-4.2,7.6-4.1c10,0.3,19.9,0.3,29.9,0c3.3-0.1,5.6,0.6,6.9,3.7c2.7,6.8,7.6,9.2,14.8,6.9
		c-10-14.7-20-29.4-29.9-44.1C104.2,207.5,102.9,207.2,100.8,207z M83.2,236.3c5.1-8.1,10-15.8,15.2-24.1c5.2,8.2,10.2,16,15.4,24.1
		C103.5,236.3,93.8,236.3,83.2,236.3z"/>
	<path id="XMLID_105_" class="st7" d="M308.5,209c-9.9,14.8-19.7,29.7-29.5,44.5c6.6,1.9,11-0.1,13.5-6.5c1.4-3.5,4.1-4.5,8-4.3
		c8.1,0.4,16.3,0.6,24.4,0c7.2-0.6,12.1,1.2,14.9,8.1c0.5,1.2,1.2,3.4,3.8,3.1c2.7-0.3,5.4-0.1,8.6-0.1
		c-10.5-15.3-20.6-30.2-30.8-45C319.4,206.1,310.4,206.1,308.5,209z M299.6,236.3c5.1-8.1,10-15.8,15.3-24.1
		c5.2,8.1,10.2,15.9,15.4,24.1C320,236.3,310.2,236.3,299.6,236.3z"/>
	<path id="XMLID_106_" class="st7" d="M194.2,207c-9.2,0.2-18.4,0.1-27.6,0.1c-9.2,0-18.4,0.1-27.6-0.1c-2.6,0-3.3,0.8-3.3,3.3
		c-0.1,2.8,1.1,3.2,3.5,3.2c6.1-0.1,12.3,0.1,18.4-0.1c3.1-0.1,4.2,0.6,4.1,3.9c-0.2,11,0.1,22.1-0.2,33.1c-0.1,3.9,1.8,3.7,4.4,3.6
		c2.4-0.1,5.1,0.9,4.9-3.6c-0.4-11,0-22.1-0.2-33.1c-0.1-3.3,1-4.1,4.1-3.9c6.4,0.2,12.9,0,19.3,0.1c2.4,0.1,3.5-0.3,3.5-3.2
		C197.5,207.8,196.9,207,194.2,207z"/>
	<path id="XMLID_107_" class="st7" d="M261.8,247.6c-11.8,0-23.6-0.1-35.4,0.1c-3.1,0-4.2-0.6-4.1-4c0.2-11.2-0.1-22.4,0.2-33.6
		c0.1-4.5-2.9-2.9-4.9-3c-2.1-0.1-4.5-0.9-4.4,3.1c0.2,13.5,0.2,27,0,40.5c0,3.1,1.2,3.4,3.7,3.4c3.7-0.1,7.4-0.1,11-0.1
		c3.7,0,7.4,0,11,0c3.8,0,7.7,0,11.5,0c3.8,0,7.7,0,11.5,0.1c2.5,0,3.8-0.1,3.8-3.3C265.8,247.2,263.9,247.6,261.8,247.6z"/>
	<g id="XMLID_4_">
		<path id="XMLID_11_" class="st7" d="M666.7,20.2c0.2,0,0.5,0.1,0.7-0.1C667.2,20.1,667,20.1,666.7,20.2
			C666.7,20.2,666.7,20.2,666.7,20.2z"/>
		<path id="XMLID_18_" class="st7" d="M473.3,213.6c0,0.3-0.1,0.5-0.1,0.8C473.3,214.1,473.3,213.8,473.3,213.6z"/>
		<path id="XMLID_19_" class="st7" d="M679.3,20.2c-0.2,0-0.4-0.1-0.7-0.1C678.8,20.2,679,20.2,679.3,20.2z"/>
		<path id="XMLID_20_" class="st7" d="M473.3,225.9c0-0.1,0-0.3-0.1-0.4C473.2,225.7,473.2,225.8,473.3,225.9
			C473.3,225.9,473.3,225.9,473.3,225.9z"/>
		<path id="XMLID_21_" class="st7" d="M872.9,214.3c0-0.2-0.1-0.4-0.1-0.7C872.7,213.9,872.7,214.1,872.9,214.3z"/>
		<path id="XMLID_22_" class="st7" d="M872.9,225.3c-0.1,0.1-0.1,0.3-0.1,0.4C872.8,225.6,872.8,225.5,872.9,225.3z"/>
		<path id="XMLID_23_" class="st7" d="M666.8,419.7c0.2,0,0.4,0.1,0.6,0.1C667.2,419.7,667,419.7,666.8,419.7z"/>
		<path id="XMLID_24_" class="st7" d="M679.2,419.7c-0.2,0-0.4-0.1-0.6,0.1C678.8,419.8,679,419.7,679.2,419.7
			C679.2,419.7,679.2,419.7,679.2,419.7z"/>
		<path id="XMLID_27_" class="st7" d="M679.2,419.7C679.2,419.7,679.2,419.7,679.2,419.7c0.2,0,0.5-0.1,0.7-0.1
			c8.2-0.2,16.3-1,24.3-2.3c14.4-2.2,28.3-6,41.9-11.4c8.4-3.3,16.6-7.2,24.5-11.6c11.2-6.3,21.7-13.6,31.5-21.9
			c6.2-5.2,12-10.9,17.5-16.8c10.2-11,19.1-23,26.6-36c7.4-12.8,13.3-26.4,17.7-40.6c3.5-11.4,6-23.1,7.4-34.9
			c0.7-5.8,1.2-11.6,1.3-17.4c0-0.3,0-0.6,0.1-0.9c0-0.1,0-0.3,0.1-0.4c0-3.7,0-7.3,0-11c-0.1-0.2-0.1-0.4-0.1-0.7
			c0-0.2-0.1-0.3-0.1-0.5c-0.3-12.3-1.9-24.5-4.6-36.5c-3.8-17.3-9.9-33.8-18.1-49.5c-6.7-12.8-14.8-24.8-24.1-35.8
			c-3.6-4.3-7.5-8.5-11.5-12.5c-6.4-6.4-13.2-12.4-20.4-17.9c-11.1-8.4-22.9-15.6-35.4-21.6c-18.1-8.6-37.1-14.4-57-17.2
			c-7.3-1-14.5-1.7-21.9-1.9c-0.2,0-0.3,0-0.5-0.1c-0.2,0-0.4,0-0.7-0.1c-3.7,0-7.5,0-11.2,0c-0.2,0.2-0.4,0.1-0.7,0.1c0,0,0,0,0,0
			c-1.7,0.2-3.5,0.1-5.2,0.2c-8.3,0.5-16.5,1.5-24.7,2.9c-20.1,3.7-39.3,10.3-57.4,19.9c-13,6.9-25,15.1-36.2,24.6
			c-5.7,4.9-11.2,10.1-16.3,15.6c-11.1,11.9-20.7,25-28.7,39.3c-11.4,20.6-19,42.5-22.7,65.8c-1,6.6-1.7,13.3-2.1,20
			c-0.1,1.7,0,3.4-0.2,5.1c0,0.3,0,0.5-0.1,0.8c0,3.7,0,7.5,0,11.2c0.1,0.1,0.1,0.2,0.1,0.4c0,0,0,0,0,0c0.1,0.3,0.1,0.6,0.1,0.9
			c0.3,12.3,1.9,24.4,4.5,36.4c3.8,17.1,9.7,33.4,17.8,49c7,13.5,15.6,26.1,25.5,37.7c4.7,5.5,9.8,10.8,15,15.7
			c9.4,8.9,19.7,16.8,30.7,23.7c14,8.8,28.9,15.8,44.7,20.9c12,3.9,24.2,6.6,36.7,8.1c6,0.7,12,1.3,18,1.4c0.2,0,0.3,0,0.5,0.1
			c0.2,0,0.4,0,0.6,0.1c3.7,0,7.5,0,11.2,0C678.8,419.6,679,419.7,679.2,419.7z M673,411.8c-105.9,0-192-86.1-191.8-192.3
			C481.3,113.8,567.6,27.3,674.5,28c104.9,0.7,191,86.5,190.4,193.1C864.2,326.3,778.7,411.8,673,411.8z"/>
		<path id="XMLID_29_" class="st7" d="M871.4,244.1c-1.4,11.9-3.9,23.5-7.4,34.9c-4.4,14.2-10.3,27.7-17.7,40.6
			c-7.5,13-16.3,25-26.6,36c-5.5,5.9-11.3,11.6-17.5,16.8c-9.8,8.3-20.3,15.6-31.5,21.9c-7.9,4.4-16.1,8.3-24.5,11.6
			c-13.5,5.3-27.5,9.1-41.9,11.4c-8.1,1.3-16.2,2.1-24.3,2.3c-0.2,0-0.5,0-0.7,0.1c2.7,0,5.5-0.1,8.2-0.2c4.6-0.1,9.2-0.5,13.7-1.2
			c11.4-1.6,22.6-4.2,33.6-7.7c11.4-3.7,22.3-8.4,32.8-14c8.2-4.4,16-9.3,23.5-14.8c8.4-6.1,16.2-12.8,23.5-20.1
			c3.3-3.3,6.4-6.6,9.5-10.1c5.3-6.1,10.2-12.4,14.7-19c6.1-9,11.5-18.4,16.1-28.3c2.9-6.3,5.5-12.6,7.7-19.2
			c3.3-9.6,5.8-19.4,7.7-29.4c0.9-5.1,1.7-10.2,2.1-15.3c0.4-4.6,0.5-9.3,0.5-14c0-0.2,0-0.4,0-0.6c-0.1,0.3-0.1,0.6-0.1,0.9
			C872.6,232.5,872.1,238.3,871.4,244.1z"/>
		<path id="XMLID_31_" class="st7" d="M473.4,234.7c0.1,2.6,0.2,5.3,0.5,7.9c1.1,9.6,2.9,19.1,5.3,28.4c4,15.1,9.7,29.5,17,43.3
			c5.7,10.8,12.4,20.9,20,30.4c4.7,5.9,9.8,11.5,15.1,16.9c2.7,2.8,5.6,5.4,8.5,8c6.3,5.6,12.8,10.7,19.7,15.5
			c10.5,7.3,21.7,13.4,33.4,18.5c8.7,3.8,17.7,7,26.9,9.5c6.7,1.8,13.5,3.3,20.4,4.5c4.1,0.7,8.2,1.3,12.4,1.6
			c4.6,0.3,9.2,0.5,13.8,0.4c0.1,0,0.2,0,0.4,0c-0.2,0-0.3-0.1-0.5-0.1c-6-0.1-12-0.7-18-1.4c-12.5-1.5-24.7-4.2-36.7-8.1
			c-15.8-5.1-30.7-12-44.7-20.9c-11-6.9-21.3-14.8-30.7-23.7c-5.3-5-10.3-10.2-15-15.7c-9.9-11.6-18.4-24.1-25.5-37.7
			c-8.1-15.5-14.1-31.8-17.8-49c-2.6-12-4.2-24.1-4.5-36.4c0-0.3,0-0.6-0.1-0.9C473.2,228.9,473.3,231.8,473.4,234.7z"/>
		<path id="XMLID_33_" class="st7" d="M872.5,202.8c-0.1-4.9-0.8-9.7-1.6-14.5c-2.3-14.6-6.2-28.8-11.7-42.5
			c-2.8-7.1-6.1-13.9-9.6-20.6c-3.2-6-6.7-11.8-10.5-17.4c-4-5.9-8.3-11.6-13-17.1c-3.8-4.5-7.9-8.9-12.1-13
			c-1.9-1.8-3.8-3.7-5.7-5.4c-4.9-4.5-10-8.7-15.3-12.7c-8-6-16.5-11.4-25.3-16.2c-9.8-5.2-19.9-9.7-30.4-13.2
			c-9.3-3.2-18.8-5.6-28.5-7.4c-5.1-0.9-10.2-1.7-15.3-2.1c-4.6-0.4-9.2-0.5-13.8-0.5c-0.1,0-0.3,0-0.4,0c0.2,0,0.3,0.1,0.5,0.1
			c7.3,0.1,14.6,0.8,21.9,1.9c19.9,2.8,38.9,8.6,57,17.2c12.6,6,24.4,13.2,35.4,21.6c7.2,5.5,14,11.5,20.4,17.9
			c4,4,7.8,8.2,11.5,12.5c9.3,11.1,17.4,23,24.1,35.8c8.2,15.7,14.3,32.2,18.1,49.5c2.6,12,4.2,24.2,4.6,36.5c0,0.2,0,0.3,0.1,0.5
			c0-0.1,0-0.3,0-0.4C872.8,209.8,872.5,206.3,872.5,202.8z"/>
		<path id="XMLID_35_" class="st7" d="M645.4,21.4c-10,1.4-19.9,3.5-29.6,6.4c-9.7,2.9-19.2,6.5-28.4,10.9
			c-9.8,4.7-19.2,10.1-28.1,16.2c-10,6.9-19.3,14.8-28,23.3c-2.7,2.7-5.3,5.5-7.9,8.4c-6.5,7.3-12.4,15-17.8,23.1
			c-7.4,11.1-13.5,22.9-18.5,35.2c-5.1,12.6-8.9,25.6-11.3,39c-0.9,5.1-1.7,10.2-2.2,15.4c-0.4,4.6-0.5,9.3-0.5,13.9
			c0,0.1,0,0.2,0,0.3c0.2-1.7,0.1-3.4,0.2-5.1c0.4-6.7,1.1-13.3,2.1-20c3.7-23.3,11.3-45.2,22.7-65.8c7.9-14.3,17.5-27.4,28.7-39.3
			c5.1-5.5,10.6-10.7,16.3-15.6c11.2-9.5,23.2-17.8,36.2-24.6c18.1-9.6,37.2-16.2,57.4-19.9c8.2-1.5,16.4-2.5,24.7-2.9
			c1.7-0.1,3.5,0,5.2-0.2c-2.8,0-5.5,0.1-8.3,0.2C654.1,20.4,649.7,20.8,645.4,21.4z"/>
	</g>
</g>
<g id="Layer_2">
</g>
</svg>
