<svg xmlns="http://www.w3.org/2000/svg" width="456.841" height="432.033" viewBox="0 0 456.841 432.033"><g transform="translate(-14867 17153.164)"><g transform="translate(14846.321 -17186.703)"><path d="M83.948,399.995l-10.627-7.312s-6.14,8.923-15.522,2.7a10.436,10.436,0,0,1-4.551-11.218,11.557,11.557,0,0,1,6.679-8.086c3.847-1.731,9.655-1.715,15.949,4.475L92.363,356.6l-10.508-7.231L72.2,363.4s-17.359-6.331-28.534,9.911c-10.692,15.54.76,28.737,6.725,32.842C54.95,409.291,71.248,418.881,83.948,399.995Z" fill="#ebebeb"/><rect width="12.945" height="12.09" transform="matrix(-0.824, -0.567, 0.567, -0.824, 95.789, 351.679)" fill="#ebebeb"/><path d="M129.259,429.389,134.9,427.9a4.959,4.959,0,0,1,3.652-6.122,4.72,4.72,0,0,1,5.19,1.748,5.229,5.229,0,0,1,.8,4.676c-.541,1.831-2.26,3.818-6.24,4.152l3.356,12.723,5.58-1.471-1.966-7.454a11.269,11.269,0,0,0,5.018-12.712c-2.177-8.252-10.083-8.216-13.25-7.381C134.623,416.7,126.526,419.462,129.259,429.389Z" fill="#ebebeb"/><rect width="5.857" height="5.47" transform="matrix(0.967, -0.255, 0.255, 0.967, 142.34, 447.704)" fill="#ebebeb"/><path d="M223,73.071a37.482,37.482,0,0,1,9.143-3.974l1.884-9.05,15.291-.268,2.2,8.977a37.468,37.468,0,0,1,9.278,3.65l7.728-5.066,11,10.624-4.79,7.9a37.425,37.425,0,0,1,3.974,9.146l9.049,1.883.269,15.291-8.978,2.2a37.461,37.461,0,0,1-3.65,9.277l5.065,7.729-10.622,11-7.9-4.79a37.492,37.492,0,0,1-9.145,3.973l-1.884,9.05-15.29.268-2.2-8.978a37.506,37.506,0,0,1-9.278-3.65l-7.728,5.066-11-10.623,4.79-7.9a37.5,37.5,0,0,1-3.974-9.145l-9.05-1.883-.268-15.291,8.978-2.2a37.524,37.524,0,0,1,3.65-9.277l-5.065-7.729,10.622-11,7.9,4.791Zm8.151,20.37a16.405,16.405,0,1,0,23.2-.408A16.4,16.4,0,0,0,231.147,93.441Z" fill="#f5f5f5"/><path d="M158.96,41.195a21.538,21.538,0,0,1,5.266-2.289l1.085-5.213,8.807-.154,1.267,5.17a21.582,21.582,0,0,1,5.344,2.1l4.451-2.918,6.337,6.119-2.759,4.55a21.561,21.561,0,0,1,2.289,5.267l5.212,1.085.155,8.807-5.171,1.268a21.6,21.6,0,0,1-2.1,5.343l2.917,4.452-6.118,6.337-4.55-2.759a21.6,21.6,0,0,1-5.267,2.288l-1.085,5.213-8.807.154-1.268-5.171a21.587,21.587,0,0,1-5.343-2.1l-4.452,2.917-6.337-6.118,2.759-4.55a21.639,21.639,0,0,1-2.289-5.267l-5.212-1.085-.155-8.807,5.172-1.268a21.548,21.548,0,0,1,2.1-5.343l-2.917-4.452,6.117-6.337,4.552,2.76Zm4.695,11.732a9.449,9.449,0,1,0,13.361-.235A9.449,9.449,0,0,0,163.655,52.927Z" fill="#ebebeb"/><path d="M440.066,204.712a21.614,21.614,0,0,1,5.266-2.289l1.085-5.213,8.807-.154,1.268,5.171a21.594,21.594,0,0,1,5.344,2.1l4.451-2.918,6.337,6.119-2.759,4.55a21.589,21.589,0,0,1,2.289,5.268l5.212,1.084.154,8.807-5.171,1.268a21.571,21.571,0,0,1-2.1,5.344l2.917,4.451-6.117,6.337L462.5,241.88a21.563,21.563,0,0,1-5.267,2.288l-1.085,5.213-8.807.155-1.268-5.172a21.6,21.6,0,0,1-5.343-2.1l-4.451,2.918-6.337-6.119,2.759-4.55a21.546,21.546,0,0,1-2.289-5.267l-5.213-1.085-.154-8.807,5.171-1.268a21.641,21.641,0,0,1,2.1-5.343L429.4,208.29l6.118-6.337,4.551,2.759Zm4.695,11.732a9.449,9.449,0,1,0,13.361-.235A9.449,9.449,0,0,0,444.761,216.444Z" fill="#ebebeb"/><path d="M463.779,465.311c0,.144-94.824.261-211.769.261-116.985,0-211.79-.117-211.79-.261s94.8-.26,211.79-.26C368.955,465.051,463.779,465.168,463.779,465.311Z" fill="#263238"/><path d="M417.656,464.585,275.64,464.5a30.935,30.935,0,0,1-30.917-30.941l.07-356.037a30.935,30.935,0,0,1,30.953-30.929l142.016.083a30.935,30.935,0,0,1,30.917,30.942l-.07,356.037A30.934,30.934,0,0,1,417.656,464.585Z" fill="#455a64"/><path d="M417.612,59.27l-27.535-.016a6.84,6.84,0,0,0-6.687,6.986l0,4.994A6.838,6.838,0,0,1,376.7,78.22l-53.671-.032a6.847,6.847,0,0,1-6.685-6.993l0-5a6.847,6.847,0,0,0-6.686-6.993l-9.683-.006-24.1-.014A21.666,21.666,0,0,0,254.2,80.848l-.068,347.517a21.666,21.666,0,0,0,21.653,21.671l141.732.083A21.666,21.666,0,0,0,439.2,428.458l.068-347.518A21.665,21.665,0,0,0,417.612,59.27Z" fill="#fff"/><path d="M439.254,132.314V80.539A21.661,21.661,0,0,0,417.612,59.27l-27.535-.016a6.84,6.84,0,0,0-6.687,6.985l0,5A6.838,6.838,0,0,1,376.7,78.22l-53.671-.032a6.847,6.847,0,0,1-6.685-6.993l0-5a6.847,6.847,0,0,0-6.686-6.993l-9.683-.006-24.1-.014A21.666,21.666,0,0,0,254.2,80.848l-.01,51.617H439.254Z" fill="#ebebeb"/><ellipse cx="22.43" cy="22.383" rx="22.43" ry="22.383" transform="translate(269.507 157.768)" fill="#e0e0e0"/><path d="M281.464,185.752l5.871-.5,14.344,2.416,1.693,10.791-.241,1.256a22.552,22.552,0,0,1-21.262.489l-.4-14.454" fill="#455a64"/><path d="M298.612,187.5a7.671,7.671,0,0,1,7.439,3.269,42.017,42.017,0,0,1,2.665,4.238c-2.332,2.536-4.231,4.467-7.476,5.593Z" fill="#455a64"/><path d="M281.464,185.752s-3.881.475-5.388,3.784-1.85,4.349-1.85,4.349c2.01,2.414,4.56,5.271,7.69,6.344,0,0,.713-8.335.808-10.693C282.828,186.952,282.929,185.678,281.464,185.752Z" fill="#455a64"/><path d="M285.017,164.552a10.621,10.621,0,0,1,8.221-4.083,11.405,11.405,0,0,1,3.984.718,5.894,5.894,0,0,1,3.36,2.218,9.854,9.854,0,0,1,1.934,4.5,27.629,27.629,0,0,1,.243,5.073,9.26,9.26,0,0,1-1.586,4.767l-4.311.747a27.183,27.183,0,0,1-7.116-.383,9.144,9.144,0,0,1-5.816-3.816C282.2,171.476,282.921,167.108,285.017,164.552Z" fill="#263238"/><path d="M280.838,177.042a3.207,3.207,0,0,1,1.46-2.421,2.321,2.321,0,0,1,2.722.235l.677.806a2.776,2.776,0,0,1,1.6,2.8,3.044,3.044,0,0,1-2.115,2.49,3.382,3.382,0,0,1-3.214-.775A3.773,3.773,0,0,1,280.838,177.042Z" fill="#263238"/><path d="M281.693,179.943a1.447,1.447,0,0,1-.232-.856,3.885,3.885,0,0,1,.987-1.934,5.83,5.83,0,0,1,1.727-1.382c.505-.271.853-.37.842-.4a2.347,2.347,0,0,0-.908.271,5.212,5.212,0,0,0-1.823,1.379,5.14,5.14,0,0,0-.7,1.058,2.338,2.338,0,0,0-.278,1.008,1.207,1.207,0,0,0,.194.683C281.6,179.9,281.685,179.952,281.693,179.943Z" fill="#455a64"/><path d="M296.822,186.727s-.023-4-.023-3.991,3.515-.387,4.487-4.883a48.4,48.4,0,0,0,.548-8.974c-.022-2.731-2.352-6.449-5.731-6.461l-1.5-.174-5.748,2.279a1.6,1.6,0,0,0-1.52,1.54l-.172,19.206,2.632,3.69a3.874,3.874,0,0,0,7.028-2.232Z" fill="#ffbe9d"/><path d="M294.527,176.8a.954.954,0,0,1,.332-.591.982.982,0,0,1,1.189-.067,1.31,1.31,0,0,1,.5,1.23h0a1.2,1.2,0,0,1-.855.494,1.218,1.218,0,0,1-.16,0,1.072,1.072,0,0,1-.722-.285A.949.949,0,0,1,294.527,176.8Z" fill="#eb996e"/><path d="M299.761,172.012a.582.582,0,0,1-.594.556.558.558,0,0,1-.573-.557.583.583,0,0,1,.594-.556A.558.558,0,0,1,299.761,172.012Z" fill="#263238"/><path d="M300.715,170.562c-.076.072-.5-.278-1.128-.311s-1.1.255-1.168.175c-.031-.036.05-.169.258-.3a1.609,1.609,0,0,1,.941-.234,1.546,1.546,0,0,1,.892.342C300.7,170.39,300.753,170.53,300.715,170.562Z" fill="#263238"/><path d="M296.773,175.3a4.131,4.131,0,0,1,1.029-.128c.161-.008.314-.031.347-.139a.808.808,0,0,0-.081-.479q-.193-.594-.406-1.244a20.81,20.81,0,0,1-.889-3.241,20.948,20.948,0,0,1,1.148,3.162q.2.654.386,1.25a.922.922,0,0,1,.049.632.4.4,0,0,1-.276.219,1.106,1.106,0,0,1-.274.023A4.16,4.16,0,0,1,296.773,175.3Z" fill="#263238"/><path d="M296.8,182.736a11.6,11.6,0,0,1-6-1.954s1.449,3.233,6.022,3.057Z" fill="#eb996e"/><path d="M294.9,175.636c.1,0,.066.68.623,1.194s1.285.479,1.285.574c.007.043-.169.123-.476.115a1.7,1.7,0,0,1-1.075-.441,1.475,1.475,0,0,1-.478-1C294.771,175.794,294.857,175.63,294.9,175.636Z" fill="#263238"/><path d="M300.591,168.2c-.114.147-.589.019-1.153.034-.564,0-1.037.138-1.153-.006-.051-.071.019-.216.222-.359a1.791,1.791,0,0,1,1.857-.023C300.569,167.988,300.64,168.131,300.591,168.2Z" fill="#263238"/><path d="M292.882,171.97a.583.583,0,0,0,.553.6.558.558,0,0,0,.611-.515.584.584,0,0,0-.552-.6A.56.56,0,0,0,292.882,171.97Z" fill="#263238"/><path d="M292.119,170.338c.071.077.519-.241,1.147-.229s1.083.334,1.152.258c.034-.033-.037-.171-.235-.321a1.616,1.616,0,0,0-.921-.3,1.546,1.546,0,0,0-.915.278C292.152,170.167,292.084,170.3,292.119,170.338Z" fill="#263238"/><path d="M291.758,168.993c.121.144.609.005,1.191.008.583-.015,1.075.114,1.191-.033.051-.071-.024-.215-.237-.354a1.812,1.812,0,0,0-.965-.25,1.788,1.788,0,0,0-.955.27C291.775,168.777,291.7,168.922,291.758,168.993Z" fill="#263238"/><path d="M288.115,173.686c.018-.338-.33-1.156-.661-1.226-.885-.188-2.5-.205-2.638,2.057-.19,3.091,2.959,2.644,2.97,2.556C287.8,177,288.054,174.852,288.115,173.686Z" fill="#ffbe9d"/><path d="M287,175.891c-.013-.01-.056.035-.15.071a.54.54,0,0,1-.4-.017,1.332,1.332,0,0,1-.544-1.233,1.782,1.782,0,0,1,.2-.762.622.622,0,0,1,.431-.388.276.276,0,0,1,.31.167c.036.089.012.149.028.155s.07-.047.053-.176a.345.345,0,0,0-.11-.2.411.411,0,0,0-.294-.1.76.76,0,0,0-.593.445,1.822,1.822,0,0,0-.24.85,1.4,1.4,0,0,0,.7,1.384.58.58,0,0,0,.5-.052C286.991,175.966,287.012,175.9,287,175.891Z" fill="#eb996e"/><path d="M287.327,172.468l.788.815c3.4-3.246,10.042-11.375,9.671-10.891a9.912,9.912,0,0,0-4.856-.526c-2.528.43-7.322,1.692-7.248,4.666A15.482,15.482,0,0,0,287.327,172.468Z" fill="#263238"/><path d="M282.826,171.786a.818.818,0,0,1,.047-.179,3.183,3.183,0,0,1,.211-.487,4.516,4.516,0,0,1,1.295-1.454,8.473,8.473,0,0,1,2.607-1.251c1.036-.337,2.205-.6,3.351-1.09a15.188,15.188,0,0,0,3.061-1.711,15.748,15.748,0,0,0,2.16-1.884,16.84,16.84,0,0,0,1.25-1.48l.31-.426a.8.8,0,0,1,.117-.144.742.742,0,0,1-.09.162c-.065.1-.156.255-.287.444a14.139,14.139,0,0,1-1.218,1.52,15.107,15.107,0,0,1-2.156,1.926,14.844,14.844,0,0,1-3.086,1.739,34.33,34.33,0,0,1-3.368,1.083,8.613,8.613,0,0,0-2.584,1.2,4.648,4.648,0,0,0-1.308,1.394C282.911,171.545,282.842,171.792,282.826,171.786Z" fill="#455a64"/><path d="M283.727,172.273a1.625,1.625,0,0,1,.121-.676,3.158,3.158,0,0,1,1.164-1.456,7.02,7.02,0,0,1,2.585-1.011,15.293,15.293,0,0,0,3.213-1.017,13.662,13.662,0,0,0,2.864-1.764,14.025,14.025,0,0,0,1.963-1.926,14.864,14.864,0,0,0,1.1-1.5c.107-.175.193-.319.262-.432a.763.763,0,0,1,.1-.147.819.819,0,0,1-.074.162l-.237.449a12.663,12.663,0,0,1-1.061,1.541,13.337,13.337,0,0,1-4.848,3.763,14.916,14.916,0,0,1-3.246,1.015,7.078,7.078,0,0,0-2.553.961,3.2,3.2,0,0,0-1.172,1.386A3.845,3.845,0,0,0,283.727,172.273Z" fill="#455a64"/><path d="M281.916,200.206a42.072,42.072,0,0,1,0-5.912,42.457,42.457,0,0,1,0,5.912Z" fill="#263238"/><path d="M303.141,199.794a6.257,6.257,0,0,1,.035-1.051,11.771,11.771,0,0,0-.086-2.506,12.349,12.349,0,0,0-.721-2.408,6.25,6.25,0,0,1-.362-.99,4.775,4.775,0,0,1,.5.935,9.955,9.955,0,0,1,.789,2.431,9.568,9.568,0,0,1,.028,2.55A4.629,4.629,0,0,1,303.141,199.794Z" fill="#263238"/><path d="M411.075,208.568H334.632a6.873,6.873,0,0,1-6.873-6.873V169.6l-8.427-7.481h91.743a6.874,6.874,0,0,1,6.874,6.873V201.7A6.874,6.874,0,0,1,411.075,208.568Z" fill="#ebebeb"/><path d="M405.836,213.769a64.071,64.071,0,0,1-8.154.26,64.068,64.068,0,0,1-8.155-.26,63.948,63.948,0,0,1,8.155-.261A63.951,63.951,0,0,1,405.836,213.769Z" fill="#e0e0e0"/><path d="M409.211,214.41a.254.254,0,0,1-.181-.077l-1.577-1.651a.25.25,0,1,1,.361-.346l1.4,1.465,3.066-3.119a.25.25,0,0,1,.357.351l-3.247,3.3A.25.25,0,0,1,409.211,214.41Z" fill="#0894fe"/><path d="M411.464,214.359h0l-.29-.008a.25.25,0,0,1-.245-.256.265.265,0,0,1,.256-.244l.182.005,3.171-3.226a.25.25,0,0,1,.357.35l-3.247,3.3A.251.251,0,0,1,411.464,214.359Z" fill="#0894fe"/><path d="M405.836,339.44a64.292,64.292,0,0,1-8.154.26,64.289,64.289,0,0,1-8.155-.26,63.942,63.942,0,0,1,8.155-.261A63.946,63.946,0,0,1,405.836,339.44Z" fill="#e0e0e0"/><path d="M409.211,340.081h0a.247.247,0,0,1-.179-.077l-1.577-1.651a.25.25,0,1,1,.361-.346l1.4,1.465,3.066-3.119a.25.25,0,0,1,.357.349l-3.247,3.3A.251.251,0,0,1,409.211,340.081Z" fill="#0894fe"/><path d="M411.464,340.03h-.006l-.29-.008a.251.251,0,0,1-.244-.257.232.232,0,0,1,.257-.243l.182.005,3.17-3.226a.25.25,0,0,1,.357.35l-3.247,3.3A.252.252,0,0,1,411.464,340.03Z" fill="#0894fe"/><path d="M410.1,171.307c0,.144-16.69.261-37.273.261s-37.277-.117-37.277-.261,16.687-.26,37.277-.26S410.1,171.163,410.1,171.307Z" fill="#fff"/><path d="M410.1,176.784c0,.143-16.69.26-37.273.26s-37.277-.117-37.277-.26,16.687-.261,37.277-.261S410.1,176.64,410.1,176.784Z" fill="#fff"/><path d="M410.1,182.26c0,.144-16.69.26-37.273.26s-37.277-.116-37.277-.26,16.687-.26,37.277-.26S410.1,182.116,410.1,182.26Z" fill="#fff"/><ellipse cx="22.43" cy="22.383" rx="22.43" ry="22.383" transform="translate(269.507 297.335)" fill="#e0e0e0"/><path d="M281.464,325.318l5.871-.5,14.344,2.416,1.693,10.792-.241,1.255a22.55,22.55,0,0,1-21.262.489l-.4-14.454" fill="#455a64"/><path d="M298.612,327.064a7.673,7.673,0,0,1,7.439,3.27,41.948,41.948,0,0,1,2.665,4.237c-2.332,2.537-4.231,4.468-7.476,5.594Z" fill="#455a64"/><path d="M281.464,325.318s-3.881.475-5.388,3.784-1.85,4.349-1.85,4.349c2.01,2.414,4.56,5.272,7.69,6.344,0,0,.713-8.335.808-10.693C282.828,326.519,282.929,325.244,281.464,325.318Z" fill="#455a64"/><path d="M285.017,304.118a10.624,10.624,0,0,1,8.221-4.083,11.427,11.427,0,0,1,3.984.719,5.894,5.894,0,0,1,3.36,2.218,9.846,9.846,0,0,1,1.934,4.5,27.639,27.639,0,0,1,.243,5.074,9.253,9.253,0,0,1-1.586,4.766l-4.311.747a27.184,27.184,0,0,1-7.116-.383,9.14,9.14,0,0,1-5.816-3.816C282.2,311.043,282.921,306.675,285.017,304.118Z" fill="#263238"/><path d="M280.838,316.608a3.21,3.21,0,0,1,1.46-2.421,2.322,2.322,0,0,1,2.722.235l.677.806a2.777,2.777,0,0,1,1.6,2.8,3.044,3.044,0,0,1-2.115,2.489,3.38,3.38,0,0,1-3.214-.775A3.773,3.773,0,0,1,280.838,316.608Z" fill="#263238"/><path d="M281.693,319.51a1.449,1.449,0,0,1-.232-.857,3.889,3.889,0,0,1,.987-1.934,5.846,5.846,0,0,1,1.727-1.382c.505-.27.853-.369.842-.4a2.392,2.392,0,0,0-.908.271,5.2,5.2,0,0,0-1.823,1.38,5.088,5.088,0,0,0-.7,1.058,2.33,2.33,0,0,0-.278,1.008,1.206,1.206,0,0,0,.194.682C281.6,319.47,281.685,319.519,281.693,319.51Z" fill="#455a64"/><path d="M296.842,326.66s-.023-4-.023-3.991,3.516-.386,4.487-4.883a48.4,48.4,0,0,0,.548-8.974c-.022-2.731-2.352-6.449-5.731-6.461l-1.5-.174-5.748,2.28a1.6,1.6,0,0,0-1.52,1.54l-.172,19.2,2.632,3.69a3.874,3.874,0,0,0,7.028-2.232Z" fill="#ffbe9d"/><path d="M294.527,316.367a.952.952,0,0,1,.332-.59.982.982,0,0,1,1.189-.068,1.31,1.31,0,0,1,.5,1.23h0a1.2,1.2,0,0,1-.855.494,1.421,1.421,0,0,1-.16.006,1.073,1.073,0,0,1-.722-.286A.949.949,0,0,1,294.527,316.367Z" fill="#eb996e"/><path d="M299.761,311.959a.584.584,0,0,1-.594.556.56.56,0,0,1-.573-.558.583.583,0,0,1,.594-.556A.558.558,0,0,1,299.761,311.959Z" fill="#263238"/><path d="M300.715,310.509c-.076.072-.5-.279-1.128-.312s-1.1.256-1.168.175c-.031-.036.05-.168.258-.3a1.61,1.61,0,0,1,.941-.234,1.547,1.547,0,0,1,.892.342C300.7,310.336,300.753,310.477,300.715,310.509Z" fill="#263238"/><path d="M296.773,315.251a4.13,4.13,0,0,1,1.029-.128c.161-.008.314-.031.347-.139a.808.808,0,0,0-.081-.479q-.193-.593-.406-1.243a20.8,20.8,0,0,1-.889-3.242,20.989,20.989,0,0,1,1.148,3.163c.135.436.264.851.386,1.249a.923.923,0,0,1,.049.632.4.4,0,0,1-.276.219,1.06,1.06,0,0,1-.274.023A4.1,4.1,0,0,1,296.773,315.251Z" fill="#263238"/><path d="M296.8,322.682a11.6,11.6,0,0,1-6-1.954s1.449,3.233,6.022,3.058Z" fill="#eb996e"/><path d="M294.9,315.583c.1,0,.066.679.623,1.193s1.285.479,1.285.574c.007.044-.169.124-.476.115a1.7,1.7,0,0,1-1.075-.441,1.474,1.474,0,0,1-.478-1C294.771,315.74,294.857,315.576,294.9,315.583Z" fill="#263238"/><path d="M300.591,308.149c-.114.147-.589.019-1.153.035-.564,0-1.037.137-1.153-.007-.051-.07.019-.216.222-.359a1.7,1.7,0,0,1,.927-.271,1.685,1.685,0,0,1,.93.249C300.569,307.934,300.64,308.077,300.591,308.149Z" fill="#263238"/><path d="M292.882,311.916a.583.583,0,0,0,.553.6.558.558,0,0,0,.611-.515.582.582,0,0,0-.552-.6A.559.559,0,0,0,292.882,311.916Z" fill="#263238"/><path d="M292.119,310.284c.071.078.519-.241,1.147-.229s1.083.334,1.152.259c.034-.034-.037-.172-.235-.321a1.6,1.6,0,0,0-.921-.3,1.54,1.54,0,0,0-.915.277C292.152,310.113,292.084,310.249,292.119,310.284Z" fill="#263238"/><path d="M291.758,308.939c.121.144.609.005,1.191.008.583-.015,1.075.114,1.191-.032.051-.072-.024-.216-.237-.354a1.812,1.812,0,0,0-.965-.251,1.788,1.788,0,0,0-.955.27C291.775,308.723,291.7,308.868,291.758,308.939Z" fill="#263238"/><path d="M288.115,313.252c.018-.338-.33-1.156-.661-1.226-.885-.188-2.5-.2-2.638,2.057-.19,3.092,2.959,2.645,2.97,2.557C287.8,316.57,288.054,314.418,288.115,313.252Z" fill="#ffbe9d"/><path d="M287,315.458c-.013-.011-.056.034-.15.07a.544.544,0,0,1-.4-.016,1.335,1.335,0,0,1-.544-1.234,1.782,1.782,0,0,1,.2-.762.622.622,0,0,1,.431-.388.277.277,0,0,1,.31.167c.036.089.012.15.028.156s.07-.048.053-.177a.345.345,0,0,0-.11-.2.406.406,0,0,0-.294-.1.76.76,0,0,0-.593.445,1.819,1.819,0,0,0-.24.85,1.4,1.4,0,0,0,.7,1.383.58.58,0,0,0,.5-.051C286.991,315.532,287.012,315.464,287,315.458Z" fill="#eb996e"/><path d="M287.327,312.035l.788.815c3.4-3.247,10.042-11.376,9.671-10.892a9.925,9.925,0,0,0-4.856-.526c-2.528.43-7.322,1.692-7.248,4.667A15.482,15.482,0,0,0,287.327,312.035Z" fill="#263238"/><path d="M282.826,311.352a.834.834,0,0,1,.047-.179,3.225,3.225,0,0,1,.211-.487,4.515,4.515,0,0,1,1.295-1.454,8.474,8.474,0,0,1,2.607-1.251c1.036-.337,2.205-.6,3.351-1.09a15.187,15.187,0,0,0,3.061-1.71,15.818,15.818,0,0,0,2.16-1.885,16.849,16.849,0,0,0,1.25-1.479l.31-.427a.093.093,0,1,1,.027.018c-.065.1-.156.256-.287.445a14.246,14.246,0,0,1-1.218,1.519,15.11,15.11,0,0,1-2.156,1.927,14.937,14.937,0,0,1-3.086,1.739,34.311,34.311,0,0,1-3.368,1.082,8.614,8.614,0,0,0-2.584,1.2,4.66,4.66,0,0,0-1.308,1.394C282.911,311.111,282.842,311.358,282.826,311.352Z" fill="#455a64"/><path d="M283.727,311.839a1.626,1.626,0,0,1,.121-.676,3.157,3.157,0,0,1,1.164-1.455A7.038,7.038,0,0,1,287.6,308.7a15.294,15.294,0,0,0,3.213-1.017,13.661,13.661,0,0,0,2.864-1.764,14.025,14.025,0,0,0,1.963-1.926,14.874,14.874,0,0,0,1.1-1.5l.262-.433a.73.73,0,0,1,.1-.146.83.83,0,0,1-.074.161l-.237.45a12.587,12.587,0,0,1-1.061,1.54,13.337,13.337,0,0,1-4.848,3.763,14.976,14.976,0,0,1-3.246,1.016,7.078,7.078,0,0,0-2.553.96,3.2,3.2,0,0,0-1.172,1.386A3.873,3.873,0,0,0,283.727,311.839Z" fill="#455a64"/><path d="M281.916,339.772a42.072,42.072,0,0,1,0-5.912,42.458,42.458,0,0,1,0,5.912Z" fill="#263238"/><path d="M303.141,339.36a6.245,6.245,0,0,1,.035-1.05,11.78,11.78,0,0,0-.086-2.507,12.349,12.349,0,0,0-.721-2.408,6.265,6.265,0,0,1-.362-.989,4.7,4.7,0,0,1,.5.935,9.931,9.931,0,0,1,.789,2.43,9.568,9.568,0,0,1,.028,2.55A4.628,4.628,0,0,1,303.141,339.36Z" fill="#263238"/><path d="M411.075,332.877H334.632A6.873,6.873,0,0,1,327.759,326V309.163l-8.427-7.481h91.743a6.874,6.874,0,0,1,6.874,6.873V326A6.874,6.874,0,0,1,411.075,332.877Z" fill="#ebebeb"/><path d="M410.1,310.874c0,.143-16.69.26-37.273.26s-37.277-.117-37.277-.26,16.687-.261,37.277-.261S410.1,310.73,410.1,310.874Z" fill="#fff"/><path d="M410.1,316.35c0,.144-16.69.26-37.273.26s-37.277-.116-37.277-.26,16.687-.26,37.277-.26S410.1,316.206,410.1,316.35Z" fill="#fff"/><path d="M410.1,321.826c0,.144-16.69.261-37.273.261s-37.277-.117-37.277-.261,16.687-.26,37.277-.26S410.1,321.683,410.1,321.826Z" fill="#fff"/><path d="M410.1,187.736c0,.144-16.69.261-37.273.261s-37.277-.117-37.277-.261,16.687-.26,37.277-.26S410.1,187.593,410.1,187.736Z" fill="#fff"/><path d="M410.1,193.213c0,.144-16.69.26-37.273.26s-37.277-.116-37.277-.26,16.687-.261,37.277-.261S410.1,193.069,410.1,193.213Z" fill="#fff"/><path d="M410.1,199.794c0,.143-16.69.26-37.273.26s-37.277-.117-37.277-.26,16.687-.261,37.277-.261S410.1,199.65,410.1,199.794Z" fill="#fff"/><path d="M335.951,104.63a3.988,3.988,0,0,1,6.911-2.462l-1.076.993a2.333,2.333,0,0,0-1.821-.848,2.317,2.317,0,0,0,0,4.635,2.31,2.31,0,0,0,1.821-.859l1.076.993a3.981,3.981,0,0,1-6.911-2.452Z" fill="#263238"/><path d="M349.562,105.065v3.186h-1.613v-2.938c0-.9-.414-1.314-1.128-1.314-.776,0-1.335.476-1.335,1.5v2.752h-1.613v-7.676h1.613v2.69a2.445,2.445,0,0,1,1.769-.662A2.182,2.182,0,0,1,349.562,105.065Z" fill="#263238"/><path d="M355.942,105.075v3.176h-1.51v-.693a1.829,1.829,0,0,1-1.7.776c-1.3,0-2.079-.724-2.079-1.686,0-.983.693-1.666,2.389-1.666h1.284c0-.693-.414-1.1-1.284-1.1a2.673,2.673,0,0,0-1.6.517l-.579-1.128a4.283,4.283,0,0,1,2.4-.672C354.96,102.6,355.942,103.389,355.942,105.075Zm-1.613,1.418v-.569h-1.108c-.755,0-.993.279-.993.651,0,.4.342.673.91.673A1.193,1.193,0,0,0,354.329,106.493Z" fill="#263238"/><path d="M360.989,107.982a2.309,2.309,0,0,1-1.315.352,1.835,1.835,0,0,1-2.079-2v-2.286h-.858v-1.242h.858v-1.355h1.615v1.355H360.6v1.242H359.21v2.266a.648.648,0,0,0,.692.734,1.083,1.083,0,0,0,.652-.207Z" fill="#263238"/><path d="M389.527,115.785c0,.144-17.043.261-38.062.261s-38.066-.117-38.066-.261,17.04-.26,38.066-.26S389.527,115.641,389.527,115.785Z" fill="#263238"/><circle cx="1.772" cy="1.772" r="1.772" transform="translate(421.485 101.085)" fill="#263238"/><path d="M425.029,108.023a1.772,1.772,0,1,1-1.772-1.773A1.772,1.772,0,0,1,425.029,108.023Z" fill="#263238"/><path d="M425.029,113.189a1.772,1.772,0,1,1-1.772-1.773A1.772,1.772,0,0,1,425.029,113.189Z" fill="#263238"/><path d="M279.315,108.857a.5.5,0,0,1-.3-.1l-4.693-3.442a.5.5,0,0,1,0-.809l4.693-3.377a.5.5,0,1,1,.584.811l-4.135,2.975,4.139,3.035a.5.5,0,0,1-.3.9Z" fill="#263238"/><ellipse cx="22.43" cy="22.383" rx="22.43" ry="22.383" transform="translate(379.279 232.242)" fill="#e0e0e0"/><path d="M407.849,267.849h-11.8a1.522,1.522,0,0,1-1.521-1.522h0a1.521,1.521,0,0,1,1.521-1.522h11.8a1.521,1.521,0,0,1,1.522,1.522h0A1.522,1.522,0,0,1,407.849,267.849Z" fill="#263238"/><rect width="1.036" height="5.24" transform="translate(401.583 240.069)" fill="#263238"/><circle cx="3.045" cy="3.045" r="3.045" transform="translate(383.762 254.932)" fill="#0894fe"/><path d="M3.045,0A3.045,3.045,0,1,1,0,3.045,3.045,3.045,0,0,1,3.045,0Z" transform="translate(414.5 254.732)" fill="#0894fe"/><path d="M402.554,244.212s12.379-.148,14.339,10.574-8.51,10.923-11.521,11.126c-1.365.092-4.286.1-6.864.057-5.707-.1-9.739-1.2-11.111-6.5a10.132,10.132,0,0,1-.309-1.9C386.725,251.771,390.653,243.927,402.554,244.212Z" fill="#0894fe"/><path d="M393.573,260.543l17.985.281a3.414,3.414,0,0,0,3.467-3.36h0a3.415,3.415,0,0,0-3.36-3.467l-17.986-.28a3.414,3.414,0,0,0-3.467,3.36h0A3.414,3.414,0,0,0,393.573,260.543Z" fill="#263238"/><path d="M407.826,257.092a1.1,1.1,0,1,0,.865-1.286A1.095,1.095,0,0,0,407.826,257.092Z" fill="#fff"/><path d="M395.261,256.891a1.1,1.1,0,1,0,.865-1.285A1.1,1.1,0,0,0,395.261,256.891Z" fill="#fff"/><path d="M403.808,239.964a1.708,1.708,0,1,1-1.707-1.707A1.707,1.707,0,0,1,403.808,239.964Z" fill="#0894fe"/><path d="M404.677,256.587c.029-.005.077.084.109.262a1.708,1.708,0,0,1-.066.76,2.275,2.275,0,0,1-.6.975,2.07,2.07,0,0,1-2.667.243,2.258,2.258,0,0,1-.767-.849,1.7,1.7,0,0,1-.2-.736c0-.181.03-.277.06-.278.078-.006.1.379.43.841a2.261,2.261,0,0,0,.712.653,1.766,1.766,0,0,0,2.14-.2,2.269,2.269,0,0,0,.582-.77C404.644,256.978,404.6,256.6,404.677,256.587Z" fill="#fff"/><path d="M416.865,254.436a1.588,1.588,0,0,1,.1.265c.029.086.063.192.093.317s.073.267.1.427a8.519,8.519,0,0,1,.157,1.132,9.415,9.415,0,0,1-.012,1.4,9.6,9.6,0,0,1-.234,1.38,8.461,8.461,0,0,1-.355,1.086c-.056.153-.122.285-.175.4s-.1.217-.148.3a1.548,1.548,0,0,1-.143.243,1.79,1.79,0,0,1,.11-.26c.039-.081.086-.182.133-.3s.109-.252.161-.4a9.619,9.619,0,0,0,.332-1.083,10.256,10.256,0,0,0,.225-1.368,10.147,10.147,0,0,0,.019-1.386,9.3,9.3,0,0,0-.136-1.124c-.024-.16-.061-.3-.087-.427s-.054-.233-.078-.32A1.618,1.618,0,0,1,416.865,254.436Z" fill="#263238"/><path d="M387.536,254.5a1.637,1.637,0,0,0-.1.265c-.029.086-.063.192-.093.318s-.073.267-.1.427a8.658,8.658,0,0,0-.158,1.131,8.831,8.831,0,0,0,.247,2.78,8.48,8.48,0,0,0,.355,1.087c.056.153.122.284.175.4s.1.217.148.3a1.533,1.533,0,0,0,.143.244,1.738,1.738,0,0,0-.11-.26c-.039-.082-.086-.182-.133-.3s-.109-.251-.161-.4a9.684,9.684,0,0,1-.332-1.083,10.284,10.284,0,0,1-.225-1.368,10.149,10.149,0,0,1-.019-1.386,9.348,9.348,0,0,1,.136-1.125c.024-.159.061-.3.087-.427s.054-.232.078-.32A1.617,1.617,0,0,0,387.536,254.5Z" fill="#263238"/><path d="M390.212,273.844s3.674-3.594,11.371-3.594,11.627,3.594,11.627,3.594A22.275,22.275,0,0,1,390.212,273.844Z" fill="#0894fe"/><path d="M278.968,277.445h76.444a6.873,6.873,0,0,0,6.873-6.873V248.391l8.427-7.481H278.968a6.873,6.873,0,0,0-6.873,6.873v22.789A6.873,6.873,0,0,0,278.968,277.445Z" fill="#ebebeb"/><path d="M352.022,251.754c0,.144-15.744.26-35.161.26s-35.165-.116-35.165-.26,15.741-.26,35.165-.26S352.022,251.61,352.022,251.754Z" fill="#fff"/><path d="M352.022,257.692c0,.144-15.744.26-35.161.26s-35.165-.116-35.165-.26,15.741-.26,35.165-.26S352.022,257.548,352.022,257.692Z" fill="#fff"/><path d="M352.022,263.63c0,.144-15.744.26-35.161.26s-35.165-.116-35.165-.26,15.741-.26,35.165-.26S352.022,263.486,352.022,263.63Z" fill="#fff"/><path d="M352.022,269.568c0,.144-15.744.26-35.161.26s-35.165-.116-35.165-.26,15.741-.26,35.165-.26S352.022,269.424,352.022,269.568Z" fill="#fff"/><ellipse cx="22.43" cy="22.383" rx="22.43" ry="22.383" transform="translate(379.279 356.52)" fill="#e0e0e0"/><path d="M407.849,392.127h-11.8a1.522,1.522,0,0,1-1.521-1.522h0a1.521,1.521,0,0,1,1.521-1.522h11.8a1.521,1.521,0,0,1,1.522,1.522h0A1.522,1.522,0,0,1,407.849,392.127Z" fill="#263238"/><rect width="1.036" height="5.24" transform="translate(401.583 364.347)" fill="#263238"/><circle cx="3.045" cy="3.045" r="3.045" transform="translate(383.762 379.211)" fill="#0894fe"/><circle cx="3.045" cy="3.045" r="3.045" transform="translate(414.5 379.01)" fill="#0894fe"/><path d="M402.554,368.49s12.379-.148,14.339,10.574-8.51,10.923-11.521,11.126c-1.365.092-4.286.1-6.864.057-5.707-.1-9.739-1.2-11.111-6.5a10.131,10.131,0,0,1-.309-1.9C386.725,376.05,390.653,368.2,402.554,368.49Z" fill="#0894fe"/><path d="M393.573,384.822l17.985.28a3.413,3.413,0,0,0,3.467-3.36h0a3.415,3.415,0,0,0-3.36-3.467l-17.986-.28a3.414,3.414,0,0,0-3.467,3.36h0A3.415,3.415,0,0,0,393.573,384.822Z" fill="#263238"/><path d="M407.826,381.37a1.1,1.1,0,1,0,.865-1.286A1.1,1.1,0,0,0,407.826,381.37Z" fill="#fff"/><path d="M395.261,381.17a1.1,1.1,0,1,0,.865-1.286A1.1,1.1,0,0,0,395.261,381.17Z" fill="#fff"/><path d="M403.808,364.243a1.708,1.708,0,1,1-1.707-1.708A1.707,1.707,0,0,1,403.808,364.243Z" fill="#0894fe"/><path d="M404.677,380.865c.029-.005.077.084.109.262a1.708,1.708,0,0,1-.066.76,2.275,2.275,0,0,1-.6.975,2.07,2.07,0,0,1-2.667.243,2.258,2.258,0,0,1-.767-.849,1.7,1.7,0,0,1-.2-.736c0-.18.03-.277.06-.278.078-.006.1.379.43.841a2.261,2.261,0,0,0,.712.653,1.766,1.766,0,0,0,2.14-.2,2.269,2.269,0,0,0,.582-.77C404.644,381.256,404.6,380.873,404.677,380.865Z" fill="#fff"/><path d="M416.865,378.714a1.589,1.589,0,0,1,.1.265c.029.086.063.192.093.317s.073.267.1.427a8.519,8.519,0,0,1,.157,1.132,9.415,9.415,0,0,1-.012,1.4,9.6,9.6,0,0,1-.234,1.38,8.461,8.461,0,0,1-.355,1.086c-.056.153-.122.285-.175.4s-.1.217-.148.3a1.547,1.547,0,0,1-.143.243,1.791,1.791,0,0,1,.11-.26c.039-.081.086-.182.133-.3s.109-.252.161-.4a9.554,9.554,0,0,0,.332-1.083,10.257,10.257,0,0,0,.225-1.368,10.134,10.134,0,0,0,.019-1.385,9.3,9.3,0,0,0-.136-1.125c-.024-.16-.061-.3-.087-.427s-.054-.233-.078-.32A1.617,1.617,0,0,1,416.865,378.714Z" fill="#263238"/><path d="M387.536,378.78a1.637,1.637,0,0,0-.1.265c-.029.086-.063.192-.093.318s-.073.267-.1.427a8.65,8.65,0,0,0-.158,1.132,8.838,8.838,0,0,0,.247,2.78,8.512,8.512,0,0,0,.355,1.086c.056.153.122.285.175.4s.1.217.148.3a1.535,1.535,0,0,0,.143.244,1.737,1.737,0,0,0-.11-.26c-.039-.082-.086-.182-.133-.3s-.109-.252-.161-.4a9.685,9.685,0,0,1-.332-1.083,10.282,10.282,0,0,1-.225-1.368,10.149,10.149,0,0,1-.019-1.386,9.3,9.3,0,0,1,.136-1.124c.024-.16.061-.3.087-.427s.054-.233.078-.321A1.617,1.617,0,0,0,387.536,378.78Z" fill="#263238"/><path d="M390.212,398.122s3.674-3.594,11.371-3.594,11.627,3.594,11.627,3.594A22.275,22.275,0,0,1,390.212,398.122Z" fill="#0894fe"/><path d="M278.968,401.723h76.444a6.873,6.873,0,0,0,6.873-6.873V372.669l8.427-7.481H278.968a6.873,6.873,0,0,0-6.873,6.873V394.85A6.873,6.873,0,0,0,278.968,401.723Z" fill="#ebebeb"/><path d="M278.968,436.406h76.444a6.874,6.874,0,0,0,6.873-6.874v-7.349l8.427-7.481H278.968a6.873,6.873,0,0,0-6.873,6.873v7.957A6.874,6.874,0,0,0,278.968,436.406Z" fill="#ebebeb"/><path d="M352.022,376.032c0,.144-15.744.26-35.161.26s-35.165-.116-35.165-.26,15.741-.26,35.165-.26S352.022,375.888,352.022,376.032Z" fill="#fff"/><path d="M352.022,381.97c0,.144-15.744.26-35.161.26s-35.165-.116-35.165-.26,15.741-.26,35.165-.26S352.022,381.826,352.022,381.97Z" fill="#fff"/><path d="M352.022,387.908c0,.144-15.744.26-35.161.26s-35.165-.116-35.165-.26,15.741-.26,35.165-.26S352.022,387.764,352.022,387.908Z" fill="#fff"/><path d="M352.022,393.846c0,.144-15.744.26-35.161.26s-35.165-.116-35.165-.26,15.741-.26,35.165-.26S352.022,393.7,352.022,393.846Z" fill="#fff"/><path d="M352.24,425.869c0,.143-15.579.26-34.792.26s-34.795-.117-34.795-.26,15.576-.261,34.795-.261S352.24,425.725,352.24,425.869Z" fill="#fff"/><path d="M96.44,411.392a10.293,10.293,0,0,1,6.47,4.81,18.163,18.163,0,0,1,2.387,7.865c.51,5.323-1.335,11.2-3.638,16.022-5.185-2.9-7.6-9.348-8.621-12.7-1.612-5.295-1.31-15.843,3.4-16" fill="#455a64"/><path d="M108.562,447.593a8.784,8.784,0,0,1,1.05-8.758,11.67,11.67,0,0,1,7.863-4.409,4.915,4.915,0,0,1,4.045.879,3.756,3.756,0,0,1,.845,3.713,7.63,7.63,0,0,1-2.184,3.3c-3.29,3.182-7.058,5.657-11.619,5.276" fill="#455a64"/><path d="M106.317,464.72a6.128,6.128,0,0,1-.07-1.1c-.021-.78-.048-1.788-.081-3a30.831,30.831,0,0,1,1.031-9.853,18.873,18.873,0,0,1,5.132-8.433,12.821,12.821,0,0,1,2.446-1.764,7.97,7.97,0,0,1,.736-.362c.171-.075.263-.109.269-.1a20.023,20.023,0,0,0-3.264,2.424,19.48,19.48,0,0,0-4.949,8.346,33.207,33.207,0,0,0-1.127,9.737c-.009,1.266-.017,2.292-.042,3A5.878,5.878,0,0,1,106.317,464.72Z" fill="#263238"/><path d="M96.92,419.445a2.416,2.416,0,0,1,.152.455c.093.342.214.78.362,1.323.309,1.151.733,2.822,1.24,4.89,1.016,4.137,2.338,9.873,3.656,16.238s2.377,12.158,3.086,16.358c.355,2.1.628,3.8.8,4.981.079.557.142,1.007.192,1.358a2.221,2.221,0,0,1,.041.478,2.209,2.209,0,0,1-.118-.465c-.068-.348-.156-.794-.264-1.346-.227-1.218-.539-2.9-.922-4.958-.778-4.186-1.881-9.964-3.2-16.328s-2.6-12.1-3.542-16.253c-.465-2.04-.845-3.708-1.12-4.917-.12-.55-.217-.994-.292-1.34A2.192,2.192,0,0,1,96.92,419.445Z" fill="#263238"/><path d="M101.656,452.359a20.549,20.549,0,0,0-14.092-12.408c-1.61-.391-3.617-.445-4.59.9s-.291,3.244.618,4.633a17.557,17.557,0,0,0,18.051,7.327" fill="#455a64"/><path d="M89.316,444.732a5.45,5.45,0,0,1,1.015.209,10,10,0,0,1,1.168.338c.445.162.971.3,1.513.555a18.115,18.115,0,0,1,1.772.828,20.215,20.215,0,0,1,1.94,1.135,22.833,22.833,0,0,1,3.931,3.318,22.4,22.4,0,0,1,3.01,4.175,19.544,19.544,0,0,1,.967,2.03,16.721,16.721,0,0,1,.663,1.841,15.406,15.406,0,0,1,.406,1.56,9.267,9.267,0,0,1,.216,1.2,5.2,5.2,0,0,1,.1,1.031c-.086.015-.242-1.46-.983-3.7a17.771,17.771,0,0,0-.7-1.8,20.65,20.65,0,0,0-.983-1.982,23.252,23.252,0,0,0-2.982-4.085,23.83,23.83,0,0,0-3.846-3.286,21.6,21.6,0,0,0-1.892-1.148c-.6-.352-1.194-.609-1.729-.859C90.738,445.136,89.293,444.814,89.316,444.732Z" fill="#263238"/><path d="M121.1,151.7l-3.7-11.545a40.153,40.153,0,1,0-9.618,10.7l-.014.018Z" fill="#fafafa"/><path d="M121.1,151.7s-.274-.006-.839-.034l-2.532-.132-9.969-.549a.113.113,0,0,1-.082-.182l.013-.017.159.158a40.142,40.142,0,0,1-18.1,7.95,39.183,39.183,0,0,1-6.205.536,44.486,44.486,0,0,1-6.65-.53,40.032,40.032,0,0,1-25.7-15.331,40.485,40.485,0,0,1-7.3-15.6,39.715,39.715,0,0,1,.159-18.273q.294-1.146.59-2.3c.226-.759.532-1.5.8-2.246a21.6,21.6,0,0,1,.876-2.229q.522-1.083,1.046-2.171a17.475,17.475,0,0,1,1.178-2.112l1.267-2.078L51.271,94.6l.735-.982c.251-.323.544-.612.814-.92A39.969,39.969,0,0,1,68.753,81.533a41.013,41.013,0,0,1,18.411-2.518A40.044,40.044,0,0,1,103.77,84.49a40.289,40.289,0,0,1,18.31,24.1,44,44,0,0,1,1.235,6.606,52.48,52.48,0,0,1,.117,6.258,39.934,39.934,0,0,1-5.944,18.757l.01-.09,2.7,8.643q.446,1.438.681,2.2c.151.491.216.732.216.732s-.1-.264-.263-.765-.415-1.251-.736-2.216l-2.805-8.531a.113.113,0,0,1,.011-.09,39.953,39.953,0,0,0,5.789-18.662,52.528,52.528,0,0,0-.141-6.2,43.808,43.808,0,0,0-1.249-6.539,39.981,39.981,0,0,0-34.586-29.18,40.562,40.562,0,0,0-18.178,2.5,39.494,39.494,0,0,0-15.725,11.03c-.267.3-.556.589-.8.908l-.725.969-1.445,1.932L48.989,98.9a17.244,17.244,0,0,0-1.165,2.084l-1.032,2.143a21.122,21.122,0,0,0-.866,2.2c-.26.742-.564,1.468-.787,2.217q-.292,1.137-.583,2.267a39.281,39.281,0,0,0-.173,18.044,40.056,40.056,0,0,0,19.033,25.859,39.679,39.679,0,0,0,13.537,4.789,44.067,44.067,0,0,0,6.586.549,38.845,38.845,0,0,0,6.152-.506,40.143,40.143,0,0,0,18.016-7.786.113.113,0,0,1,.159.019.115.115,0,0,1,0,.139l-.014.018-.082-.182,9.881.683,2.561.184C120.79,151.667,121.1,151.7,121.1,151.7Z" fill="#263238"/><path d="M71.943,119.143a4.073,4.073,0,1,1-4.073-4.072A4.073,4.073,0,0,1,71.943,119.143Z" fill="#263238"/><path d="M88.241,119.143a4.072,4.072,0,1,1-4.072-4.072A4.072,4.072,0,0,1,88.241,119.143Z" fill="#263238"/><path d="M104.5,117.107a4.073,4.073,0,1,1-5.564-1.491A4.072,4.072,0,0,1,104.5,117.107Z" fill="#263238"/><path d="M106.116,299.04l-42.167-4.4L46.157,254.146,32.3,257.761s10.244,42.785,21.693,49.414,50.619,7.834,50.619,7.834Z" fill="#0894fe"/><circle cx="18.681" cy="18.681" r="18.681" transform="matrix(0.664, -0.747, 0.747, 0.664, 88.179, 308.728)" fill="#263238"/><path d="M114.552,325.881a18.706,18.706,0,1,1,13.227-5.479A18.585,18.585,0,0,1,114.552,325.881Zm0-37.361a18.655,18.655,0,1,0,13.192,5.464A18.534,18.534,0,0,0,114.552,288.52Z" fill="#263238"/><circle cx="14.011" cy="14.011" r="14.011" transform="translate(40.053 286.411) rotate(-13.498)" fill="#263238"/><circle cx="11.447" cy="11.447" r="11.447" transform="translate(22.026 249.335) rotate(-45)" fill="#263238"/><path d="M2.454,0H14.772a0,0,0,0,1,0,0V5.266a0,0,0,0,1,0,0H2.453A2.453,2.453,0,0,1,0,2.813V2.454A2.454,2.454,0,0,1,2.454,0Z" transform="matrix(-0.764, 0.645, -0.645, -0.764, 57.938, 241.557)" fill="#263238"/><path d="M2.453,0H14.418a.354.354,0,0,1,.354.354V4.912a.354.354,0,0,1-.354.354H2.453A2.453,2.453,0,0,1,0,2.813V2.453A2.453,2.453,0,0,1,2.453,0Z" transform="translate(44.087 226.1) rotate(90)" fill="#263238"/><path d="M2.453,0H14.418a.354.354,0,0,1,.354.354V4.912a.354.354,0,0,1-.354.354H2.453A2.453,2.453,0,0,1,0,2.813V2.453A2.453,2.453,0,0,1,2.453,0Z" transform="translate(35.064 226.206) rotate(77.39)" fill="#263238"/><path d="M2.453,0H14.418a.354.354,0,0,1,.354.354V4.912a.354.354,0,0,1-.354.354H2.453A2.453,2.453,0,0,1,0,2.813V2.453A2.453,2.453,0,0,1,2.453,0Z" transform="translate(25.239 229.4) rotate(60)" fill="#263238"/><rect width="13.697" height="92.947" transform="translate(301.782 398.531) rotate(156.96)" fill="#0894fe"/><circle cx="18.681" cy="18.681" r="18.681" transform="matrix(0.646, -0.763, 0.763, 0.646, 226.63, 311.301)" fill="#263238"/><path d="M252.982,327.839a18.736,18.736,0,1,1,8.718-2.177A18.72,18.72,0,0,1,252.982,327.839Zm-.047-37.379a18.66,18.66,0,1,0,17.852,24.162l.023.008-.023-.008a18.657,18.657,0,0,0-12.33-23.325A18.755,18.755,0,0,0,252.935,290.46Z" fill="#263238"/><circle cx="14.011" cy="14.011" r="14.011" transform="matrix(0.268, -0.963, 0.963, 0.268, 260.04, 370.949)" fill="#263238"/><circle cx="11.447" cy="11.447" r="11.447" transform="translate(286.958 393.35)" fill="#263238"/><path d="M2.454,0H14.772a0,0,0,0,1,0,0V5.266a0,0,0,0,1,0,0H2.454A2.454,2.454,0,0,1,0,2.813V2.454A2.454,2.454,0,0,1,2.454,0Z" transform="translate(282.16 418.42) rotate(-58.64)" fill="#263238"/><path d="M2.453,0H14.418a.354.354,0,0,1,.354.354V4.912a.354.354,0,0,1-.354.354H2.453A2.453,2.453,0,0,1,0,2.813V2.453A2.453,2.453,0,0,1,2.453,0Z" transform="translate(300.192 428.696) rotate(-108.459)" fill="#263238"/><path d="M2.453,0H14.418a.354.354,0,0,1,.354.354V4.912a.354.354,0,0,1-.354.354H2.453A2.453,2.453,0,0,1,0,2.813v-.36A2.453,2.453,0,0,1,2.453,0Z" transform="matrix(-0.516, -0.857, 0.857, -0.516, 308.718, 425.738)" fill="#263238"/><path d="M2.453,0H14.418a.354.354,0,0,1,.354.354V4.912a.354.354,0,0,1-.354.354H2.454A2.454,2.454,0,0,1,0,2.812V2.453A2.453,2.453,0,0,1,2.453,0Z" transform="translate(317.025 419.598) rotate(-138.459)" fill="#263238"/><path d="M108.964,287.744s1.347,131.133,74.939,133.7,76.675-132.76,76.675-133.7c0,0-8.691-19.557-75.807-18.791S108.964,287.744,108.964,287.744Z" fill="#0894fe"/><rect width="76.903" height="15.775" rx="7.35" transform="translate(219.865 264.655) rotate(180)" fill="#263238"/><rect width="5.37" height="27.154" transform="translate(184.112 148.047) rotate(180)" fill="#263238"/><path d="M15.779,0A15.779,15.779,0,1,1,0,15.779,15.779,15.779,0,0,1,15.779,0Z" transform="translate(240.902 201.795) rotate(-13.375)" fill="#0894fe"/><path d="M15.779,0A15.779,15.779,0,1,1,0,15.779,15.779,15.779,0,0,1,15.779,0Z" transform="translate(81.723 200.559) rotate(-12.78)" fill="#0894fe"/><path d="M178.295,142.159s-64.159-.771-74.316,54.8,44.1,56.609,59.707,57.661c7.077.477,22.216.527,35.576.295,29.575-.514,50.474-6.239,57.585-33.678a52.159,52.159,0,0,0,1.6-9.827C260.326,181.335,239.968,140.679,178.295,142.159Z" fill="#0894fe"/><path d="M224.839,226.8l-93.211,1.455a17.693,17.693,0,0,1-17.967-17.414h0a17.692,17.692,0,0,1,17.415-17.966l93.211-1.456a17.692,17.692,0,0,1,17.966,17.415h0A17.693,17.693,0,0,1,224.839,226.8Z" fill="#263238"/><path d="M150.97,208.909a5.678,5.678,0,1,1-4.481-6.664A5.678,5.678,0,0,1,150.97,208.909Z" fill="#fff"/><path d="M216.089,207.87a5.678,5.678,0,1,1-4.481-6.664A5.678,5.678,0,0,1,216.089,207.87Z" fill="#fff"/><path d="M8.851,0A8.851,8.851,0,1,1,0,8.851,8.851,8.851,0,0,1,8.851,0Z" transform="translate(168.91 120.351) rotate(-45)" fill="#0894fe"/><path d="M167.292,206.29c.422.045.212,2.031,1.451,4.671a11.739,11.739,0,0,0,3.014,3.961,9.1,9.1,0,0,0,11.01,1.006,11.768,11.768,0,0,0,3.682-3.35c1.7-2.372,1.849-4.363,2.273-4.331.165,0,.337.505.338,1.444a8.8,8.8,0,0,1-1.033,3.835,11.794,11.794,0,0,1-3.986,4.435,10.778,10.778,0,0,1-13.9-1.27,11.787,11.787,0,0,1-3.117-5.084,8.8,8.8,0,0,1-.321-3.958C166.869,206.725,167.129,206.263,167.292,206.29Z" fill="#fff"/><path d="M252.718,232.2c-.094-.054,1.056-1.8,2.163-4.951a54.08,54.08,0,0,0,2.6-12.744,94.318,94.318,0,0,0,.3-13.051c-.078-1.671-.156-3.024-.231-3.958a7.96,7.96,0,0,1-.052-1.458,7.774,7.774,0,0,1,.253,1.438c.138.929.273,2.282.4,3.957A79.5,79.5,0,0,1,258,214.558a49.131,49.131,0,0,1-2.774,12.821,24.6,24.6,0,0,1-1.7,3.607A7.675,7.675,0,0,1,252.718,232.2Z" fill="#263238"/><path d="M104.125,195.143a7.966,7.966,0,0,1-.317,1.427c-.124.452-.268,1.006-.4,1.659s-.326,1.385-.45,2.213a49.123,49.123,0,0,0-.7,5.827,48.284,48.284,0,0,0,1.266,14.266,49.255,49.255,0,0,0,1.718,5.612c.268.794.584,1.482.833,2.1s.483,1.14.685,1.563a8,8,0,0,1,.563,1.349,7.78,7.78,0,0,1-.745-1.259c-.23-.411-.5-.922-.769-1.534s-.618-1.294-.911-2.085a43.975,43.975,0,0,1-1.84-5.63,45.433,45.433,0,0,1-1.279-14.412,43.931,43.931,0,0,1,.82-5.866c.149-.831.365-1.564.529-2.213s.333-1.2.487-1.646A7.648,7.648,0,0,1,104.125,195.143Z" fill="#263238"/><path d="M108.658,287.627a2.392,2.392,0,0,1,.386.112l1.114.379,4.265,1.5,3.076,1.1c1.132.379,2.381.735,3.712,1.15,2.672.794,5.679,1.821,9.1,2.625l5.334,1.368c1.857.467,3.821.816,5.836,1.253,4.023.924,8.388,1.552,12.965,2.293a231.738,231.738,0,0,0,30.073,2.151,231.691,231.691,0,0,0,30.081-2.146c4.579-.74,8.944-1.367,12.968-2.291,2.015-.437,3.979-.785,5.836-1.252l5.334-1.367c3.418-.8,6.425-1.831,9.1-2.624,1.331-.414,2.579-.77,3.711-1.149l3.077-1.1,4.264-1.5,1.114-.379a2.392,2.392,0,0,1,.386-.112,2.349,2.349,0,0,1-.367.162l-1.1.427-4.233,1.6-3.065,1.142c-1.129.392-2.375.763-3.7,1.191-2.668.82-5.672,1.873-9.09,2.7l-5.337,1.4c-1.858.478-3.823.837-5.841,1.284-4.028.943-8.4,1.588-12.987,2.343a227.348,227.348,0,0,1-30.15,2.192,227.534,227.534,0,0,1-30.141-2.2c-4.586-.756-8.958-1.4-12.986-2.345-2.017-.448-3.983-.807-5.84-1.285l-5.336-1.4c-3.418-.828-6.423-1.881-9.091-2.7-1.328-.428-2.574-.8-3.7-1.192l-3.065-1.142-4.234-1.6-1.1-.427A2.291,2.291,0,0,1,108.658,287.627Z" fill="#263238"/><g opacity="0.3"><path d="M108.964,287.744s8.691-18.026,75.807-18.791,75.807,18.791,75.807,18.791S192.877,321.134,108.964,287.744Z"/></g><path d="M170.174,146.316a.785.785,0,0,1-.23.039l-.679.061c-.6.062-1.478.08-2.6.216a70.364,70.364,0,0,0-9.469,1.569,68.733,68.733,0,0,0-47.109,38.878,70.466,70.466,0,0,0-3.337,9c-.347,1.082-.532,1.944-.706,2.517l-.189.654a.772.772,0,0,1-.082.22.8.8,0,0,1,.03-.232c.038-.18.083-.4.139-.666.141-.582.3-1.455.613-2.548a63.8,63.8,0,0,1,3.2-9.092A67.613,67.613,0,0,1,116.8,174.5a66.675,66.675,0,0,1,26.762-22.086,67.718,67.718,0,0,1,13.545-4.568,63.769,63.769,0,0,1,9.535-1.412c1.133-.1,2.02-.091,2.617-.119l.682-.01A.772.772,0,0,1,170.174,146.316Z" fill="#fff"/><path d="M107.4,223.3a7.416,7.416,0,0,1-.913-2,28.348,28.348,0,0,1-1.632-10.422,7.37,7.37,0,0,1,.257-2.179c.164.007-.063,3.346.585,7.386C106.312,220.128,107.549,223.239,107.4,223.3Z" fill="#fff"/><path d="M90.568,218.129c-.025.021-.227-.162-.541-.539a9.723,9.723,0,0,1-1.131-1.748,11.4,11.4,0,0,1,1.712-12.906,9.672,9.672,0,0,1,1.548-1.392c.4-.282.644-.406.663-.38.057.075-.844.686-1.932,2.012a11.8,11.8,0,0,0-1.659,12.507C89.932,217.247,90.643,218.072,90.568,218.129Z" fill="#fff"/><path d="M182.014,114.183a13.528,13.528,0,0,0-2.353-.058,6.134,6.134,0,0,0-5.24,8.162,13.483,13.483,0,0,0,1.032,2.115c-.022.021-.208-.122-.483-.443a5.459,5.459,0,0,1-.9-1.55,6.279,6.279,0,0,1,5.554-8.651,5.458,5.458,0,0,1,1.782.17C181.816,114.045,182.024,114.154,182.014,114.183Z" fill="#fff"/><path d="M269.162,206c-.109.117-1.665-1.367-4.015-2.492-2.339-1.15-4.468-1.453-4.443-1.611a11.443,11.443,0,0,1,8.458,4.1Z" fill="#fff"/><path d="M132.043,381.069c-.008.005-.051-.061-.127-.192l-.327-.59-1.215-2.293-.861-1.667-.94-2.023c-.68-1.45-1.447-3.1-2.19-4.979q-.576-1.4-1.2-2.927l-1.19-3.217c-.86-2.211-1.587-4.638-2.445-7.162-1.567-5.094-3.1-10.752-4.455-16.753-1.321-6.009-2.333-11.783-3.13-17.052-.736-5.278-1.319-10.043-1.639-14.06-.194-2.005-.312-3.824-.412-5.421s-.187-2.972-.219-4.1q-.054-1.635-.086-2.592l-.009-.675a.784.784,0,0,1,.014-.23.779.779,0,0,1,.039.228l.061.672.183,2.586c.064,1.124.168,2.5.308,4.089s.27,3.408.488,5.408c.366,4.007.986,8.759,1.747,14.023.821,5.255,1.845,11.015,3.163,17.01,1.347,5.988,2.867,11.634,4.4,16.724.843,2.52,1.554,4.947,2.393,7.158l1.159,3.219q.609,1.527,1.167,2.931c.72,1.879,1.461,3.54,2.115,5l.9,2.037q.445.918.819,1.683.71,1.473,1.126,2.335l.281.614A.77.77,0,0,1,132.043,381.069Z" fill="#fff"/><path d="M92.87,299.544a51.3,51.3,0,0,1-7.307-.259,51.58,51.58,0,0,1-7.27-.779,51.655,51.655,0,0,1,7.307.259A51.593,51.593,0,0,1,92.87,299.544Z" fill="#fff"/><path d="M55.25,278.193a54.155,54.155,0,0,1-3.806-6.478,54.174,54.174,0,0,1-3.348-6.727,54.543,54.543,0,0,1,3.806,6.479A54.548,54.548,0,0,1,55.25,278.193Z" fill="#fff"/><path d="M167.5,412.6a5.058,5.058,0,0,1-1.171-.143,24.537,24.537,0,0,1-3.128-.755,32.663,32.663,0,0,1-4.46-1.713,33.982,33.982,0,0,1-9.543-6.71,32.541,32.541,0,0,1-3.122-3.618,24.637,24.637,0,0,1-1.769-2.687,5.111,5.111,0,0,1-.531-1.054c.085-.05.921,1.4,2.592,3.517a37.116,37.116,0,0,0,3.166,3.5,36.431,36.431,0,0,0,9.415,6.619,37.2,37.2,0,0,0,4.365,1.8C165.867,412.208,167.52,412.5,167.5,412.6Z" fill="#fff"/><path d="M61.772,287.587c-.042.084-.774-.289-2.035-.575a11.153,11.153,0,0,0-9.457,2.268c-.995.828-1.477,1.492-1.553,1.436a4.886,4.886,0,0,1,1.309-1.711,10.325,10.325,0,0,1,9.793-2.35A4.886,4.886,0,0,1,61.772,287.587Z" fill="#fff"/><path d="M209.436,188.159c0,.144-12.278.26-27.42.26s-27.423-.116-27.423-.26,12.275-.26,27.423-.26S209.436,188.015,209.436,188.159Z" fill="#fff"/><path d="M162.644,250.686a1.608,1.608,0,0,1-.464.075l-1.337.116c-.581.049-1.294.1-2.122.109s-1.772.065-2.815.032a72.465,72.465,0,0,1-7.315-.439,74.308,74.308,0,0,1-17.446-4.108A72.786,72.786,0,0,1,124.4,243.6c-.948-.437-1.771-.9-2.5-1.285s-1.352-.741-1.85-1.045l-1.145-.7c-.259-.165-.391-.259-.381-.275a1.627,1.627,0,0,1,.433.184l1.191.613c.512.276,1.141.608,1.886.963s1.574.8,2.528,1.211c1.88.88,4.169,1.819,6.749,2.753a79.889,79.889,0,0,0,17.338,4.084c2.725.315,5.192.5,7.268.547,1.037.056,1.977.035,2.8.044s1.537,0,2.118-.02l1.34-.017A1.634,1.634,0,0,1,162.644,250.686Z" fill="#fff"/><path d="M242.466,295.754a.927.927,0,0,1-.238.109l-.719.269-2.782.99c-1.207.435-2.692.944-4.44,1.456s-3.717,1.175-5.943,1.73l-3.482.92c-1.211.315-2.489.575-3.8.88-2.623.636-5.463,1.135-8.444,1.7a193.3,193.3,0,0,1-19.6,2.306,193.128,193.128,0,0,1-19.735.11c-3.028-.194-5.908-.342-8.589-.652-1.341-.142-2.641-.243-3.882-.408l-3.567-.487c-2.278-.279-4.315-.684-6.11-.989s-3.334-.618-4.585-.9l-2.882-.642-.746-.18a.957.957,0,0,1-.25-.078.976.976,0,0,1,.262.026l.757.13,2.9.545c1.256.253,2.794.547,4.594.814s3.835.657,6.111.911l3.564.453c1.24.154,2.537.244,3.876.377,2.677.291,5.55.423,8.571.6,6.046.243,12.706.256,19.68-.15,6.969-.451,13.576-1.278,19.546-2.259,2.975-.548,5.811-1.031,8.432-1.647,1.312-.3,2.589-.544,3.8-.848l3.482-.886c2.228-.531,4.2-1.157,5.953-1.652s3.246-.965,4.461-1.37l2.811-.9.736-.22A1.046,1.046,0,0,1,242.466,295.754Z" fill="#fff"/></g><g transform="translate(14773.438 -16876)"><path d="M260.038,7.093a27.243,27.243,0,0,1,4.439.653A34.536,34.536,0,0,1,277.76,13.71a35.181,35.181,0,0,1,13.645,20.4,26.433,26.433,0,0,1,.795,4.974q.148,2.755.067,5.514a30.731,30.731,0,0,1-1.235,7.465A35.369,35.369,0,0,1,260.608,77.64c-.183.019-.367.019-.55.027a5.605,5.605,0,0,0-.977.015c-.912,0-1.825-.012-2.737-.01-.561,0-1.123-.036-1.683.02a4.756,4.756,0,0,0-.97-.026,29.906,29.906,0,0,1-6.042-1.068,35.541,35.541,0,0,1-25.5-27.279,30.322,30.322,0,0,1-.579-5.6q-.041-2.357.079-4.708a26.5,26.5,0,0,1,.775-4.808A35.54,35.54,0,0,1,249.294,7.761a33.781,33.781,0,0,1,4.521-.69l.695-.008A1.2,1.2,0,0,0,255.259,7h3.482a.252.252,0,0,0,.184.078ZM290.864,42.4a33.946,33.946,0,1,0-34.273,33.935A33.949,33.949,0,0,0,290.864,42.4Z" transform="translate(0)" fill="#fff"/><path d="M472.036,20.291l-.616-.008a.14.14,0,0,1-.1-.043h.753A.041.041,0,0,0,472.036,20.291Z" transform="translate(-217.612 -11.536)" fill="#2f73a6"/><path d="M453.466,20.24a.668.668,0,0,1-.415.035.047.047,0,0,1-.008-.035Z" transform="translate(-201.688 -11.536)" fill="#2f73a6"/><path d="M450.5,20.24a.047.047,0,0,0,.008.035l-.384,0V20.24Z" transform="translate(-199.145 -11.536)" fill="#fefefe"/><g transform="translate(232.94 61.419)"><path d="M309.966,432.532c.073,0,.083-.063.112-.1.392-.523.781-1.048,1.172-1.571.086-.115.178-.228.269-.34a1.819,1.819,0,0,0,.235-.342.7.7,0,0,1,.864-.3.344.344,0,0,1,.19.156l1.446,1.908c.125.165.251.329.375.494.023.03.054.056.058.1a.677.677,0,0,1-.826-.2.719.719,0,0,1-.095-.159.4.4,0,0,0-.422-.246c-.176,0-.352.005-.528.01-.456.012-.911,0-1.366-.01a1.3,1.3,0,0,0-.263.012.385.385,0,0,0-.3.213,1.478,1.478,0,0,1-.074.137.635.635,0,0,1-.693.288.328.328,0,0,0-.151-.017Zm1.36-.983c.37.026,1.855.015,1.982-.015l-.99-1.389Z" transform="translate(-309.966 -429.842)" fill="#fff"/><path d="M468.28,430.707a.689.689,0,0,1-.041-.2c-.026-.137-.066-.172-.223-.182-.062,0-.124,0-.186,0l-2.036,0a.869.869,0,0,0-.109,0,.128.128,0,0,0-.13.117,1.938,1.938,0,0,0,.008.5.2.2,0,0,0,.169.162,1.054,1.054,0,0,0,.231.024c.539,0,1.078,0,1.617,0a5.317,5.317,0,0,1,.76.024c.327.049.48.2.491.5.007.18.006.361,0,.542a.455.455,0,0,1-.423.448,3.261,3.261,0,0,1-.619.034c-.746.016-1.492.015-2.238-.008a1.327,1.327,0,0,1-.292-.035.406.406,0,0,1-.325-.3.852.852,0,0,1-.028-.234c0-.129.055-.175.2-.182a1.067,1.067,0,0,0,.262-.017c.056-.017.075.019.075.061,0,.065-.009.13-.008.194,0,.1.041.143.156.152.082.007.165,0,.248,0h2.192c.047,0,.093,0,.14,0,.078,0,.127-.042.133-.112a1.949,1.949,0,0,0-.007-.5.208.208,0,0,0-.2-.171,2.164,2.164,0,0,0-.325-.023h-1.99a1.346,1.346,0,0,1-.293-.024.54.54,0,0,1-.454-.441,1.764,1.764,0,0,1,.009-.664.458.458,0,0,1,.4-.374,1.729,1.729,0,0,1,.354-.036l2.3.006a1.338,1.338,0,0,1,.277.029.486.486,0,0,1,.388.506c-.012.081-.057.119-.169.134A.847.847,0,0,0,468.28,430.707Z" transform="translate(-444.963 -429.943)" fill="#fff"/><path d="M424.057,432.554c-.209.012-.395-.008-.579.015a.171.171,0,0,1-.165-.088c-.028-.044-.049-.092-.072-.138a.763.763,0,0,0-.73-.433c-.093,0-.187,0-.28.008a11.279,11.279,0,0,1-1.382,0c-.078,0-.156-.008-.233,0a.429.429,0,0,0-.42.257.782.782,0,0,1-.06.113.617.617,0,0,1-.679.282c-.035-.006-.07-.016-.108-.025-.008-.053.036-.084.063-.12.58-.784,1.167-1.565,1.739-2.353a.55.55,0,0,1,.475-.237.585.585,0,0,1,.529.224c.6.8,1.219,1.6,1.831,2.4C424.005,432.481,424.024,432.509,424.057,432.554Zm-3.405-1.013h2l-1-1.4Z" transform="translate(-405.27 -429.832)" fill="#fff"/><path d="M349,429.945h1.741c.036,0,.073,0,.109,0a.129.129,0,0,1,.136.111.548.548,0,0,1,0,.139.125.125,0,0,1-.131.115c-.031,0-.062,0-.093,0l-1.2,0h-.031c-.244,0-.291.039-.287.258.012.63-.009,1.26.012,1.89.006.166-.039.2-.227.206-.057,0-.114.005-.171,0-.144,0-.2-.047-.2-.174,0-.088,0-.176,0-.264q0-.841.008-1.681a.642.642,0,0,0-.011-.124.135.135,0,0,0-.125-.108.946.946,0,0,0-.139-.006l-1.166.005H347.2c-.072,0-.151,0-.188-.069a.252.252,0,0,1,.009-.242.138.138,0,0,1,.132-.059H349Z" transform="translate(-342.221 -429.93)" fill="#fff"/><path d="M387.714,432.643q-.723-.006-1.446.006a.777.777,0,0,1-.109,0c-.1-.013-.136-.044-.143-.135s0-.167,0-.25q.015-1.057,0-2.113a.609.609,0,0,1,0-.083c.013-.109.047-.139.169-.136.088,0,.176,0,.264,0,.109,0,.151.031.162.128a1.666,1.666,0,0,1,0,.181q0,.883-.008,1.766c0,.257.034.28.324.278.762,0,1.524,0,2.286,0,.074,0,.153,0,.185.073a.249.249,0,0,1-.012.241c-.036.057-.1.058-.165.059-.145,0-.29,0-.435-.005Z" transform="translate(-376.226 -429.916)" fill="#fff"/></g><g transform="translate(259.795 61.42)"><path d="M534.623,430.447c.009.018.016.026.016.034,0,.612.013,1.223-.01,1.835a.3.3,0,0,0,.021.178c.082.131.229.079.35.082a.145.145,0,0,0,.168-.132.827.827,0,0,0,0-.139c0-.269-.006-.538,0-.806,0-.5-.012-1,.009-1.5,0-.048,0-.091-.058-.117a.6.6,0,0,0-.542.058,2.529,2.529,0,0,0-.3.28l-1.245,1.335a.412.412,0,0,1-.123.111,2.206,2.206,0,0,0-.539-.612,2.748,2.748,0,0,1-.261-.257,11.055,11.055,0,0,0-.883-.86.366.366,0,0,0-.266-.1,1.771,1.771,0,0,0-.231.029.108.108,0,0,0-.105.129,1.914,1.914,0,0,1,.013.194c0,.709,0,1.418-.006,2.127,0,.265.036.266.282.26s.257-.008.256-.238q0-.89,0-1.78c0-.028-.023-.065.033-.087l.06.059,1.334,1.358a1.942,1.942,0,0,0,.169.163.238.238,0,0,0,.363-.017c.091-.089.179-.18.264-.273q.555-.6,1.108-1.2A.457.457,0,0,1,534.623,430.447Zm-15.985.766c0,.264,0,.528,0,.792,0,.134-.008.269,0,.4s.05.179.208.172c.057,0,.114,0,.17,0,.192.008.244-.037.225-.211a4.35,4.35,0,0,1-.013-.458c0-.139,0-.278,0-.417,0-.107.042-.138.161-.147.031,0,.062,0,.093,0,.513,0,1.026.005,1.539.006.342,0,.684-.005,1.026,0,.14,0,.179.035.18.156,0,.255,0,.509,0,.764,0,.051-.013.1-.011.152,0,.116.052.157.182.158.067,0,.135,0,.2,0,.182,0,.233-.04.222-.208-.03-.435,0-.87-.006-1.305,0-.227-.007-.454-.007-.68,0-.116.015-.231.014-.347s-.055-.175-.2-.181c-.062,0-.124,0-.187,0-.179.005-.246.068-.223.229a6.979,6.979,0,0,1,.012.736c0,.117-.035.149-.162.158-.047,0-.093,0-.14,0l-2.145-.005c-.119,0-.238.007-.357,0-.16,0-.193-.034-.194-.172,0-.185,0-.371,0-.556,0-.069.011-.138.015-.208.009-.149-.041-.194-.2-.189-.052,0-.1.005-.155,0-.219-.01-.247.015-.248.216,0,.014,0,.028,0,.042C518.647,430.481,518.646,430.847,518.638,431.213Z" transform="translate(-518.631 -429.838)" fill="#fff"/><path d="M666.948,430.276a.361.361,0,0,1-.269.065l-2.425-.006c-.268,0-.294.022-.294.26,0,.083,0,.167.006.25.015.171.081.234.273.238.388.008.777.007,1.166.008.067,0,.135-.007.2,0,.1,0,.136.034.15.125,0,0,0,.009,0,.014.022.2-.024.241-.243.24l-1.321-.01c-.184,0-.23.036-.234.2,0,.116,0,.232,0,.347.01.218.091.29.33.3.078,0,.155.008.233.008l2.176-.006a.332.332,0,0,1,.248.078v.223a.314.314,0,0,1-.26.081q-1.368,0-2.735,0c-.124,0-.249,0-.373,0-.171,0-.209-.035-.209-.189,0-.6,0-1.195,0-1.792,0-.181,0-.361,0-.542s.03-.2.229-.2l2.083,0c.347,0,.694,0,1.041,0a.253.253,0,0,1,.226.085Z" transform="translate(-644.741 -429.951)" fill="#fff"/><path d="M567.66,432.682c-.467,0-.933,0-1.4,0a1.9,1.9,0,0,1-.294-.023.481.481,0,0,1-.431-.369,1.047,1.047,0,0,1-.029-.248c0-.5,0-.992,0-1.488a.845.845,0,0,1,0-.1c.034-.293.181-.428.507-.473a4.649,4.649,0,0,1,.636-.026c.772,0,1.545,0,2.317,0a2.064,2.064,0,0,1,.371.029.487.487,0,0,1,.455.459c.008.1,0,.194,0,.292q0,.654,0,1.307a.927.927,0,0,1-.029.262.479.479,0,0,1-.417.347,1.7,1.7,0,0,1-.294.024C568.593,432.682,568.126,432.682,567.66,432.682Zm.005-2.357h-1.337c-.194,0-.233.032-.233.2q0,.8,0,1.6c0,.159.044.2.218.2h.109l2.161,0c.15,0,.3,0,.451,0s.173-.038.183-.157c0-.023,0-.046,0-.069q0-.695-.006-1.389c0-.055.006-.111.006-.166,0-.184-.031-.212-.231-.213h-1.321Z" transform="translate(-559.473 -429.944)" fill="#fff"/><path d="M615.8,430.447a.457.457,0,0,0-.124.116q-.554.6-1.108,1.2c-.086.093-.174.184-.265.273a.238.238,0,0,1-.363.017,1.951,1.951,0,0,1-.169-.163l-1.334-1.358-.06-.059c-.055.022-.033.059-.033.087q0,.89,0,1.78c0,.229-.006.232-.256.238s-.284,0-.282-.26c.005-.709.005-1.418.006-2.127a1.931,1.931,0,0,0-.013-.194.108.108,0,0,1,.105-.129,1.77,1.77,0,0,1,.231-.029.366.366,0,0,1,.266.1,11.056,11.056,0,0,1,.883.86,2.734,2.734,0,0,0,.261.257,2.208,2.208,0,0,1,.539.612.411.411,0,0,0,.123-.111l1.245-1.335a2.52,2.52,0,0,1,.3-.28.6.6,0,0,1,.542-.058c.058.026.06.07.058.117-.021.5-.005,1-.009,1.5,0,.269,0,.538,0,.806a.821.821,0,0,1,0,.139.145.145,0,0,1-.168.132c-.122,0-.268.049-.35-.082a.3.3,0,0,1-.021-.178c.023-.612.006-1.223.01-1.835C615.82,430.473,615.813,430.465,615.8,430.447Z" transform="translate(-599.813 -429.838)" fill="#fff"/><path d="M518.638,431.32c.008-.366.009-.732-.006-1.1,0-.014,0-.028,0-.042,0-.2.029-.226.248-.216.052,0,.1,0,.155,0,.164,0,.214.041.2.189,0,.069-.015.138-.015.208,0,.185,0,.37,0,.556,0,.139.034.169.194.172.119,0,.238,0,.357,0l2.145.005c.047,0,.093,0,.14,0,.127-.009.167-.041.162-.158a6.979,6.979,0,0,0-.012-.736c-.023-.161.044-.224.223-.229.062,0,.125,0,.187,0,.142.006.2.053.2.181s-.013.231-.014.347c0,.227,0,.454.007.681.005.435-.024.87.006,1.305.011.167-.04.208-.222.208-.067,0-.135,0-.2,0-.13,0-.179-.043-.182-.158,0-.051.011-.1.011-.152,0-.255,0-.509,0-.764,0-.121-.04-.156-.18-.156-.342,0-.684,0-1.026,0-.513,0-1.026,0-1.539-.005-.031,0-.062,0-.093,0-.119.009-.157.04-.161.147-.005.139,0,.278,0,.417a4.35,4.35,0,0,0,.013.458c.019.174-.033.219-.225.211-.057,0-.114,0-.17,0-.159.007-.2-.026-.208-.172s0-.268,0-.4C518.639,431.848,518.638,431.584,518.638,431.32Z" transform="translate(-518.631 -429.946)" fill="#fff"/></g><g transform="translate(234.461 13.679)"><path d="M338.449,58.937l13.412-.04,16.555,28.759-5.937,11.376L345.2,70.2,331.694,93.414l16.355-.03-5.4,11.476-17.742-.24-3.12-16.961Z" transform="translate(-321.788 -58.897)" fill="#fff"/><path d="M441.847,188.742l9.287,16.1-9.34-3.433-9.26,3.419Z" transform="translate(-418.28 -172.031)" fill="#232160"/></g></g></g></svg>