<svg xmlns="http://www.w3.org/2000/svg" width="481.567" height="429.197" viewBox="0 0 481.567 429.197"><defs><style>.a{fill:#fff;}.b{fill:#263c3b;}.c{fill:#75c6fa;}.d{fill:#0894fe;}</style></defs><g transform="translate(-130.968 -255.893)"><g transform="translate(156.036 347.506)"><path class="a" d="M570.394,601.285H138.964V298.228a13.115,13.115,0,0,1,13.114-13.114h405.2a13.115,13.115,0,0,1,13.114,13.114Z" transform="translate(-138.964 -285.114)"/></g><g transform="translate(154.726 346.196)"><path class="b" d="M572.6,603.488H138.546V299.121A14.441,14.441,0,0,1,152.971,284.7h405.2A14.441,14.441,0,0,1,572.6,299.121Zm-431.43-2.624H569.973V299.121a11.815,11.815,0,0,0-11.8-11.8h-405.2a11.817,11.817,0,0,0-11.8,11.8Z" transform="translate(-138.546 -284.696)"/></g><g transform="translate(132.278 647.227)"><path class="a" d="M433.389,380.715l-7.64,13.707H315.969l-7.64-13.707H131.386V399.6a17.667,17.667,0,0,0,17.666,17.666H592.666A17.667,17.667,0,0,0,610.332,399.6V380.715Z" transform="translate(-131.386 -380.715)"/></g><g transform="translate(187.724 382.23)"><rect class="c" width="368.056" height="244.894"/></g><g transform="translate(205.179 255.892)"><g transform="translate(32.161 1.516)"><path class="a" d="M433.72,334.12,300.978,256.376,164.9,334.12" transform="translate(-164.897 -256.376)"/></g><g transform="translate(1.312 326.937)"><g transform="translate(0 21.829)"><rect class="a" width="330.52" height="24.903"/></g><g transform="translate(12.395)"><rect class="a" width="305.73" height="21.829"/></g></g><g transform="translate(34.662 126.416)"><rect class="a" width="42.058" height="15.959"/><g transform="translate(0 184.137)"><rect class="a" width="42.058" height="15.959"/></g><g transform="translate(7.647 16.342)"><rect class="a" width="26.765" height="167.795"/></g><g transform="translate(73.921)"><rect class="a" width="42.058" height="15.959"/><g transform="translate(0 184.137)"><rect class="a" width="42.058" height="15.959"/></g><g transform="translate(7.647 16.342)"><rect class="a" width="26.765" height="167.795"/></g></g><g transform="translate(147.842)"><rect class="a" width="42.058" height="15.959"/><g transform="translate(0 184.137)"><rect class="a" width="42.058" height="15.959"/></g><g transform="translate(7.647 16.342)"><rect class="a" width="26.764" height="167.795"/></g></g><g transform="translate(221.762)"><rect class="a" width="42.058" height="15.959"/><g transform="translate(0 184.137)"><rect class="a" width="42.058" height="15.959"/></g><g transform="translate(7.647 16.342)"><rect class="a" width="26.764" height="167.795"/></g></g></g><g transform="translate(13.707 104.163)"><rect class="a" width="305.73" height="21.828"/></g><g transform="translate(1.312 79.26)"><rect class="a" width="330.52" height="24.903"/></g><g transform="translate(46.483 9.8)"><path class="d" d="M409.643,328.478l-118.6-69.46-121.581,69.46" transform="translate(-169.466 -259.018)"/></g><g transform="translate(65.622 20.301)"><path class="a" d="M176.221,321.9l-.65-1.14,102.2-58.389.328.191,99.374,58.2-.663,1.132-99.046-58.011Z" transform="translate(-175.57 -262.368)"/></g><g transform="translate(13.707 332.673)"><rect class="d" width="305.73" height="16.093"/></g><g transform="translate(0 77.948)"><path class="b" d="M487.783,308.281H154.639V280.755H487.783Zm-330.52-2.624h327.9V283.379h-327.9Z" transform="translate(-154.639 -280.755)"/></g><g transform="translate(31.511)"><path class="b" d="M165.991,336.291l-1.3-2.277,136.739-78.122.656.383L434.826,334.02l-1.327,2.264L301.413,258.922Z" transform="translate(-164.69 -255.892)"/></g><g transform="translate(12.396 102.85)"><path class="b" d="M466.945,313.149H158.593V288.7H466.945Zm-305.731-2.621H464.321V291.322H161.214Z" transform="translate(-158.593 -288.698)"/></g><g transform="translate(0 325.626)"><g transform="translate(0 21.827)"><path class="b" d="M487.783,394.244H154.639V366.718H487.783Zm-330.52-2.621h327.9V369.342h-327.9Z" transform="translate(-154.639 -366.718)"/></g><g transform="translate(12.396)"><path class="b" d="M466.945,384.207H158.593V359.756H466.945Zm-305.731-2.624H464.321v-19.2H161.214Z" transform="translate(-158.593 -359.756)"/></g></g><g transform="translate(33.348 125.103)"><path class="b" d="M209.958,314.381H165.276V295.8h44.682ZM167.9,311.757h39.437V298.42H167.9Z" transform="translate(-165.276 -295.796)"/><g transform="translate(0 184.138)"><path class="b" d="M209.958,373.112H165.276V354.53h44.682ZM167.9,370.488h39.437V357.154H167.9Z" transform="translate(-165.276 -354.53)"/></g><g transform="translate(7.65 16.343)"><path class="b" d="M197.1,471.428H167.716V301.009H197.1ZM170.337,468.8h24.144V303.633H170.337Z" transform="translate(-167.716 -301.009)"/></g><g transform="translate(73.923)"><path class="b" d="M233.537,314.381H188.855V295.8h44.682Zm-42.061-2.624h39.437V298.42H191.476Z" transform="translate(-188.855 -295.796)"/><g transform="translate(0 184.138)"><path class="b" d="M233.537,373.112H188.855V354.53h44.682Zm-42.061-2.624h39.437V357.154H191.476Z" transform="translate(-188.855 -354.53)"/></g><g transform="translate(7.647 16.343)"><path class="b" d="M220.679,471.428H191.294V301.009h29.385ZM193.918,468.8h24.14V303.633h-24.14Z" transform="translate(-191.294 -301.009)"/></g></g><g transform="translate(147.843)"><path class="b" d="M257.115,314.381H212.433V295.8h44.682Zm-42.058-2.624h39.434V298.42H215.057Z" transform="translate(-212.433 -295.796)"/><g transform="translate(0 184.138)"><path class="b" d="M257.115,373.112H212.433V354.53h44.682Zm-42.058-2.624h39.434V357.154H215.057Z" transform="translate(-212.433 -354.53)"/></g><g transform="translate(7.647 16.343)"><path class="b" d="M244.261,471.428H214.872V301.009h29.389ZM217.5,468.8h24.14V303.633H217.5Z" transform="translate(-214.872 -301.009)"/></g></g><g transform="translate(221.763)"><path class="b" d="M280.693,314.381H236.011V295.8h44.682Zm-42.058-2.624h39.437V298.42H238.635Z" transform="translate(-236.011 -295.796)"/><g transform="translate(0 184.138)"><path class="b" d="M280.693,373.112H236.011V354.53h44.682Zm-42.058-2.624h39.437V357.154H238.635Z" transform="translate(-236.011 -354.53)"/></g><g transform="translate(7.65 16.343)"><path class="b" d="M267.836,471.428H238.451V301.009h29.385ZM241.072,468.8h24.14V303.633h-24.14Z" transform="translate(-238.451 -301.009)"/></g></g></g></g><g transform="translate(132.278 656.974)"><path class="c" d="M425.749,397.531H315.969l-7.64-13.707H131.386v9.139a17.667,17.667,0,0,0,17.666,17.666H592.666a17.667,17.667,0,0,0,17.666-17.666v-9.139H433.389Z" transform="translate(-131.386 -383.824)"/></g><g transform="translate(130.968 645.917)"><path class="b" d="M593.558,419.47H149.945a19,19,0,0,1-18.977-18.977V380.3H309.99L317.633,394H425.87l7.643-13.707H612.535v20.2A19,19,0,0,1,593.558,419.47ZM133.589,382.918v17.576a16.374,16.374,0,0,0,16.356,16.353H593.558a16.372,16.372,0,0,0,16.353-16.353V382.918H435.053l-7.643,13.707H316.094l-7.643-13.707Z" transform="translate(-130.968 -380.297)"/></g></g></svg>