<svg xmlns="http://www.w3.org/2000/svg" width="982.211" height="592.285" viewBox="0 0 982.211 592.285"><defs><style>.a{fill:#f5f5f5;}.b{fill:#ebebeb;}.c{fill:#e0e0e0;}.d{fill:#fff;}.e{opacity:0.5;}.f{fill:#0048cd;}.g{fill:#0894fe;}.h{fill:#263238;}.i{opacity:0.3;}.j{stroke:#fff;font-size:17px;font-family:SegoeUI, Segoe UI;fill:none;}.k{fill:#fafafa;}.l{fill:#f2f2f2;}.m{fill:#eb996e;}.n{opacity:0.78;}.o{fill:#c4c9ce;}.p{fill:#455a64;}.q{opacity:0.6;}.r{opacity:0.2;}.s{fill:#e8505b;}</style></defs><g transform="translate(-41.528 -46.893)"><g transform="translate(144.249 59.333)"><g transform="translate(367.804)"><path class="a" d="M484.04,108.142a61.826,61.826,0,1,1-70.055-52.15A61.758,61.758,0,0,1,484.04,108.142Z" transform="translate(-361.025 -55.34)"/><g transform="translate(14.712 14.68)"><path class="b" d="M464.759,105.547A47.115,47.115,0,1,1,411.373,65.8,47.061,47.061,0,0,1,464.759,105.547Z" transform="translate(-371.015 -65.308)"/></g><g transform="translate(13.857 12.892)"><path class="c" d="M464.811,104.661c-.281.052-.778-1.968-2.047-5.428a49.983,49.983,0,0,0-7.456-13.509,48.2,48.2,0,0,0-7.4-7.576,47.186,47.186,0,0,0-10.3-6.364A46.24,46.24,0,0,0,424.8,68.1a45.832,45.832,0,0,0-7.047-.411,45.985,45.985,0,0,0-14.276,2.532A45.907,45.907,0,0,0,397,73.031,46.206,46.206,0,0,0,386.243,80.9a47.151,47.151,0,0,0-7.474,9.52,48.383,48.383,0,0,0-4.343,9.662,50.043,50.043,0,0,0-2.345,15.245c0,3.688.231,5.752-.052,5.8-.208.041-.91-1.947-1.352-5.724a43.582,43.582,0,0,1,1.3-16.036,47.2,47.2,0,0,1,11.91-20.808,47.9,47.9,0,0,1,11.444-8.64,47.959,47.959,0,0,1,6.967-3.087,48.257,48.257,0,0,1,15.4-2.732,48.154,48.154,0,0,1,7.6.5,48.069,48.069,0,0,1,13.718,4.174A47.191,47.191,0,0,1,457.363,84.21a43.659,43.659,0,0,1,6.745,14.609C464.995,102.518,465.018,104.626,464.811,104.661Z" transform="translate(-370.434 -64.094)"/></g><g transform="translate(40.898 28.827)"><path class="c" d="M419.044,134.825l1.3,8.1-7.235,1.156-1.262-7.885c-7.232.711-14.465-.429-18.942-2.9l2.564-9.465a29.607,29.607,0,0,0,14.86,2.891l-1.935-12.085c-8.344-.664-17.745-1.906-19.4-12.254-1.228-7.67,3.289-15.145,14.511-18.276l-1.286-8.034,7.237-1.159,1.262,7.889c5.5-.436,11.008.165,15.393,2.06l-2.19,9.48a30.024,30.024,0,0,0-11.674-1.991l1.971,12.3c8.331.593,17.589,1.86,19.22,12.06C434.641,124.239,430.183,131.632,419.044,134.825ZM406.689,104l-1.646-10.272c-3.7,1.482-4.878,3.823-4.5,6.212C400.953,102.471,403.343,103.5,406.689,104Zm15.238,15.447c-.406-2.535-2.724-3.571-6.01-4.16l1.6,9.985C421.007,123.9,422.3,121.764,421.927,119.449Z" transform="translate(-388.796 -74.914)"/></g></g><g transform="translate(663.07 318.184)"><path class="b" d="M711.981,272.245s-13.706-7.923-27.88,24.575-19.169,51.05-19.169,51.05-3.851,6.863-8.648,2.817-11.751-15.921-19.332-13.253c-7.863,2.769-9.96,11.855-7.645,24.884s6.337,41.757,6.692,44.356c.348,2.551-.894,6.415-4.6,4.184s-25.579-23.825-35.2-12.835,2.786,46.224,4.069,50.1.614,5.608-1.2,6.695-8.481-6.863-14.952-12.749S569.1,430.493,564.081,437.3s-5.137,33.81,23.092,75.964l14.359,18.677,23.5-2.727c49.947-8.9,69.32-27.712,70.741-36.05s-8.6-10.54-17.329-11.119-19.082.133-19.556-1.929.308-3.742,3.991-5.508,37.675-17.262,38.916-31.818-29.482-15.335-33.663-16.459-2.258-4.7-.178-6.218c2.116-1.548,25.6-18.575,36.594-25.945s16.082-15.181,12.624-22.765c-3.336-7.313-16.714-4.084-22.955-4.735s-3.969-8.184-3.969-8.184,9.9-16.465,23.481-49.216-2.04-37.162-2.04-37.162" transform="translate(-561.518 -271.394)"/><g transform="translate(40.908 29.934)"><path class="c" d="M589.295,517.459c10.062-24.015,24.247-57.076,40.037-93.543s30.051-69.473,40.246-93.43c5.076-11.958,9.19-21.647,12.048-28.383l3.286-7.713c.373-.854.663-1.517.873-2,.2-.449.323-.672.323-.672s-.071.243-.246.7l-.8,2.029-3.146,7.771c-2.739,6.746-6.777,16.48-11.813,28.485-10.062,24.015-24.245,57.073-40.031,93.527s-30.057,69.49-40.252,93.446" transform="translate(-589.295 -291.72)"/></g><g transform="translate(84.482 83.047)"><path class="c" d="M618.893,327.785a6.878,6.878,0,0,1,.7,1.554c.408,1.018.951,2.507,1.6,4.352,1.3,3.694,2.954,8.842,4.677,14.558,1.667,5.627,3.175,10.714,4.343,14.65q.784,2.607,1.334,4.431a6.939,6.939,0,0,1,.418,1.652,6.918,6.918,0,0,1-.714-1.549c-.405-1.019-.948-2.508-1.582-4.362-1.262-3.707-2.853-8.875-4.573-14.59-1.708-5.611-3.252-10.686-4.446-14.612l-1.359-4.427A6.923,6.923,0,0,1,618.893,327.785Z" transform="translate(-618.883 -327.785)"/></g><g transform="translate(99.755 107.899)"><path class="c" d="M629.254,361.293c-.074-.209,10.387-4.1,23.363-8.692s23.559-8.141,23.633-7.932-10.384,4.1-23.363,8.693S629.329,361.5,629.254,361.293Z" transform="translate(-629.254 -344.66)"/></g><g transform="translate(72.986 175.109)"><path class="c" d="M611.077,394.619a7.229,7.229,0,0,1,1.73-.2l4.719-.278c3.984-.239,9.483-.586,15.537-1.187s11.523-1.3,15.475-1.853q2.761-.378,4.683-.641a7.4,7.4,0,0,1,1.735-.144,7.145,7.145,0,0,1-1.682.454c-1.093.237-2.679.552-4.649.894-3.936.694-9.406,1.5-15.483,2.094s-11.6.86-15.593.953c-2,.038-3.617.049-4.735.022A7.19,7.19,0,0,1,611.077,394.619Z" transform="translate(-611.077 -390.297)"/></g><g transform="translate(50.915 144.945)"><path class="c" d="M596.1,369.816a6.139,6.139,0,0,1,1.012,1.252c.608.836,1.465,2.059,2.51,3.58,2.09,3.043,4.929,7.275,8.023,11.979s5.861,8.988,7.828,12.11c.984,1.561,1.769,2.832,2.3,3.72a6.319,6.319,0,0,1,.75,1.426,6.148,6.148,0,0,1-1.012-1.252c-.608-.836-1.465-2.059-2.51-3.58-2.09-3.043-4.929-7.277-8.025-11.98s-5.86-8.987-7.827-12.109c-.984-1.561-1.767-2.832-2.294-3.72A6.167,6.167,0,0,1,596.1,369.816Z" transform="translate(-596.09 -369.815)"/></g><g transform="translate(21.127 190.409)"><path class="c" d="M575.867,400.687a10.161,10.161,0,0,1,1.275,1.617c.856,1.212,1.938,2.745,3.23,4.577,2.7,3.885,6.378,9.282,10.4,15.272s7.63,11.44,10.207,15.407c1.208,1.888,2.218,3.471,3.016,4.72a9.972,9.972,0,0,1,1.015,1.792,10.143,10.143,0,0,1-1.275-1.617c-.854-1.212-1.937-2.747-3.23-4.577-2.7-3.885-6.378-9.284-10.4-15.275s-7.63-11.438-10.207-15.4l-3.016-4.72A9.97,9.97,0,0,1,575.867,400.687Z" transform="translate(-575.863 -400.686)"/></g><g transform="translate(49.873 225.577)"><path class="c" d="M595.383,431.551a11.691,11.691,0,0,1,2.184-.3c1.563-.147,3.568-.339,5.972-.567,5.04-.48,12-1.165,19.662-2.135s14.58-2,19.581-2.791l5.926-.925a11.345,11.345,0,0,1,2.191-.247,11.631,11.631,0,0,1-2.134.555c-1.384.308-3.395.717-5.886,1.18-4.984.932-11.9,2.069-19.578,3.029s-14.659,1.568-19.717,1.9c-2.53.161-4.579.27-6,.311A11.543,11.543,0,0,1,595.383,431.551Z" transform="translate(-595.383 -424.566)"/></g></g><g transform="translate(0 131.23)"><path class="c" d="M401.579,431.945,120.892,344.574a13.675,13.675,0,0,1-8.992-17.12l53.973-173.392a13.675,13.675,0,0,1,17.12-8.992L463.68,232.444a13.672,13.672,0,0,1,8.992,17.119L418.7,422.953A13.677,13.677,0,0,1,401.579,431.945Z" transform="translate(-111.278 -144.448)"/><g transform="translate(262.455 95.622)"><path class="d" d="M332.849,238.153a22.177,22.177,0,1,1-14.584-27.768A22.176,22.176,0,0,1,332.849,238.153Z" transform="translate(-289.491 -209.378)"/></g><g transform="translate(287.069 102.662)"><path class="d" d="M326.45,260.161a23.088,23.088,0,1,1,24.88-16.054,23.1,23.1,0,0,1-24.88,16.054Zm5.49-44.024A21.273,21.273,0,1,0,349.6,243.566h0a21.278,21.278,0,0,0-17.659-27.429Z" transform="translate(-306.204 -214.158)"/></g><g transform="translate(39.047 130.867)"><path class="d" d="M144.845,235.1l-5.3,17.033-1.751-.546,4.816-15.474-4.013-1.249.486-1.558Z" transform="translate(-137.792 -233.31)"/><g transform="translate(7.321 4.616)"><path class="d" d="M155.193,254.549l-.485,1.558-11.945-3.719.387-1.241,9.237-4.732c2.512-1.3,3.234-2.328,3.6-3.5.614-1.97-.395-3.618-3-4.428a6.064,6.064,0,0,0-5.24.451l-.906-1.457a8.012,8.012,0,0,1,6.791-.555c3.455,1.075,5.1,3.509,4.213,6.356-.507,1.629-1.473,2.931-4.458,4.458l-7.562,3.889Z" transform="translate(-142.763 -236.444)"/></g><g transform="translate(23.821 11.041)"><path class="d" d="M168.735,255.148l-3.406-1.06-1.393,4.477-1.751-.545,1.392-4.477-9.609-2.993.395-1.264,12.542-8.48,1.947.605L156.715,249.7l7.4,2.3,1.225-3.941,1.7.53-1.227,3.939,3.408,1.06Z" transform="translate(-153.967 -240.807)"/></g><g transform="translate(49.923 19.166)"><path class="d" d="M186.458,260.665l-3.4-1.06-1.393,4.477-1.753-.545,1.395-4.477-9.611-2.991.393-1.265,12.542-8.48,1.945.605-12.134,8.285,7.4,2.3,1.227-3.941,1.7.53-1.227,3.941,3.4,1.06Z" transform="translate(-171.691 -246.324)"/></g><g transform="translate(66.531 22.404)"><path class="d" d="M196.18,263.724c-.9,2.9-3.626,4.529-7.786,3.234a9.208,9.208,0,0,1-5.425-4.091l1.284-1.121a7.733,7.733,0,0,0,4.617,3.6c2.9.9,4.867-.034,5.511-2.1.682-2.188-.259-3.976-4.587-5.324l-3.626-1.128,3.534-8.268,9.318,2.9-.485,1.557-7.786-2.424-2.271,5.244,2.19.682C195.8,258.081,197.118,260.707,196.18,263.724Z" transform="translate(-182.968 -248.523)"/></g><g transform="translate(84.154 28.674)"><path class="d" d="M207.379,266.878c-.993,3.187-4.134,4.452-7.444,3.42-4.524-1.408-6.006-5.311-4.333-10.689,1.8-5.789,5.906-7.823,10.528-6.384a8.174,8.174,0,0,1,3.751,2.183l-1.146,1.191a6.24,6.24,0,0,0-3.057-1.831c-3.673-1.144-6.769.48-8.209,5.1-.122.389-.247.884-.356,1.409a5.7,5.7,0,0,1,6.115-1.3C206.609,261.034,208.349,263.763,207.379,266.878Zm-1.745-.49c.7-2.238-.511-4.188-3.138-5.006-2.6-.81-4.879.243-5.536,2.359-.585,1.873.421,4.134,3.364,5.05C202.783,269.557,204.932,268.651,205.634,266.388Z" transform="translate(-194.935 -252.78)"/></g><g transform="translate(106.644 34.467)"><path class="d" d="M223.4,272.466c-.885,2.847-3.635,4.393-7.746,3.113a9.266,9.266,0,0,1-5.449-4.1l1.281-1.121a7.813,7.813,0,0,0,4.667,3.613c2.822.879,4.789.05,5.448-2.066.635-2.044-.381-3.829-3.545-4.814l-1.216-.377.4-1.29,6.561-4.443-8.71-2.71.485-1.558,10.948,3.406-.386,1.241-6.705,4.558C223.024,267.253,224.25,269.742,223.4,272.466Z" transform="translate(-210.206 -256.714)"/></g><g transform="translate(124.534 41.243)"><path class="d" d="M234.8,275.413c-.991,3.187-4.134,4.451-7.442,3.421-4.527-1.409-6.007-5.312-4.331-10.69,1.8-5.789,5.9-7.823,10.525-6.384a8.187,8.187,0,0,1,3.751,2.183l-1.144,1.191A6.247,6.247,0,0,0,233.1,263.3c-3.674-1.143-6.769.482-8.207,5.1-.122.389-.25.884-.359,1.408a5.7,5.7,0,0,1,6.116-1.3C234.028,269.569,235.766,272.3,234.8,275.413Zm-1.741-.49c.7-2.238-.512-4.188-3.138-5.006-2.605-.811-4.879.242-5.537,2.359-.583,1.873.42,4.134,3.364,5.05C230.2,278.092,232.351,277.186,233.055,274.923Z" transform="translate(-222.353 -261.315)"/></g><g transform="translate(142.032 44.378)"><path class="d" d="M248.564,267.336l-.386,1.241-12.044,13.571-1.9-.592,11.826-13.291-8.761-2.727-.993,3.187-1.725-.538,1.477-4.744Z" transform="translate(-234.235 -263.444)"/></g><g transform="translate(166.382 51.957)"><path class="d" d="M265.1,272.482l-.386,1.241-12.044,13.571-1.9-.591,11.826-13.293-8.761-2.726-.991,3.187-1.726-.539,1.477-4.744Z" transform="translate(-250.769 -268.59)"/></g><g transform="translate(180.222 58.408)"><path class="d" d="M273.589,287.916c-.94,3.016-4.075,4.1-8.138,2.831-4.087-1.272-5.987-3.919-5.048-6.935a4.451,4.451,0,0,1,4.587-3.163,4.024,4.024,0,0,1-1.51-4.579c.865-2.775,3.761-3.769,7.362-2.646s5.471,3.6,4.608,6.371a4.039,4.039,0,0,1-3.889,2.9C273.48,284.065,274.218,285.9,273.589,287.916Zm-1.789-.585c.651-2.093-.742-3.967-3.76-4.907s-5.2-.177-5.853,1.915c-.66,2.118.71,3.984,3.726,4.923S271.14,289.448,271.8,287.332Zm-3.328-6.293c2.652.826,4.605.125,5.18-1.725.6-1.92-.717-3.613-3.271-4.406-2.577-.8-4.571-.143-5.16,1.755C264.635,278.537,265.819,280.214,268.472,281.039Z" transform="translate(-260.167 -272.971)"/></g><g transform="translate(197.129 63.544)"><path class="d" d="M285.923,287.5c-1.8,5.791-5.906,7.823-10.525,6.384a8.156,8.156,0,0,1-3.751-2.183l1.141-1.19a6.279,6.279,0,0,0,3.06,1.831c3.673,1.144,6.77-.48,8.207-5.1.122-.389.25-.882.359-1.408a5.706,5.706,0,0,1-6.118,1.3c-3.38-1.051-5.121-3.782-4.149-6.9.991-3.187,4.134-4.452,7.44-3.423C286.116,278.218,287.6,282.122,285.923,287.5Zm-1.356-4.132c.582-1.873-.42-4.134-3.364-5.048-2.459-.766-4.608.138-5.312,2.4-.7,2.239.51,4.188,3.14,5.007C281.63,286.536,283.907,285.484,284.567,283.366Z" transform="translate(-271.647 -276.458)"/></g><g transform="translate(224.227 69.796)"><path class="d" d="M297.1,282.5l-5.3,17.03-1.753-.543,4.817-15.475-4.015-1.249.486-1.558Z" transform="translate(-290.047 -280.703)"/></g><g transform="translate(231.547 74.412)"><path class="d" d="M307.448,301.942l-.483,1.558-11.947-3.72.387-1.241,9.237-4.729c2.512-1.3,3.235-2.328,3.6-3.5.614-1.97-.4-3.618-3-4.428a6.058,6.058,0,0,0-5.237.451l-.909-1.456a8.015,8.015,0,0,1,6.792-.555c3.453,1.075,5.1,3.509,4.213,6.356-.508,1.63-1.473,2.931-4.456,4.456l-7.564,3.891Z" transform="translate(-295.018 -283.837)"/></g><g transform="translate(247.098 78.186)"><path class="d" d="M318.771,302.152c-.885,2.847-3.633,4.395-7.748,3.113a9.263,9.263,0,0,1-5.446-4.1l1.281-1.121a7.8,7.8,0,0,0,4.666,3.613c2.823.879,4.788.05,5.446-2.066.638-2.044-.383-3.829-3.543-4.813l-1.215-.378.4-1.29,6.559-4.443-8.71-2.711.486-1.557,10.95,3.408-.387,1.242-6.7,4.558C318.4,296.939,319.619,299.428,318.771,302.152Z" transform="translate(-305.577 -286.4)"/></g></g><g transform="translate(160.8 201.588)"><rect class="d" width="7.745" height="142.873" transform="translate(0 7.395) rotate(-72.713)"/></g><g transform="translate(222.655 237.039)"><rect class="d" width="7.747" height="73.278" transform="translate(0 7.397) rotate(-72.713)"/></g><g class="e" transform="translate(40.283 71.984)"><path class="b" d="M4.964,0H54.986A4.963,4.963,0,0,1,59.95,4.963V39.82a4.964,4.964,0,0,1-4.964,4.964H4.964A4.964,4.964,0,0,1,0,39.82V4.964A4.964,4.964,0,0,1,4.964,0Z" transform="matrix(0.955, 0.297, -0.297, 0.955, 13.31, 0)"/></g><g transform="translate(43.965 85.084)"><path class="c" d="M141.131,220.045l.857-2.744,29.47,9.175a6.46,6.46,0,1,0,3.839-12.337l-29.472-9.175.856-2.742,29.47,9.175A9.333,9.333,0,1,1,170.6,229.22Z" transform="translate(-141.131 -202.222)"/></g><g transform="translate(83.327 104.135)"><rect class="c" width="2.873" height="21.186" transform="translate(0 2.742) rotate(-72.656)"/></g><g transform="translate(67.372 38.902)"><rect class="d" width="154.175" height="13.232" transform="translate(3.933) rotate(17.293)"/></g></g><g transform="translate(39.203 467.547)"><path class="a" d="M215.7,406.21a39.1,39.1,0,1,1-44.308-32.983A39.06,39.06,0,0,1,215.7,406.21Z" transform="translate(-137.898 -372.815)"/><g transform="translate(9.305 9.284)"><path class="b" d="M203.506,404.569a29.8,29.8,0,1,1-33.765-25.136A29.762,29.762,0,0,1,203.506,404.569Z" transform="translate(-144.216 -379.119)"/></g><g transform="translate(8.764 8.153)"><path class="c" d="M203.539,404.009c-.178.032-.492-1.243-1.3-3.433a31.644,31.644,0,0,0-4.714-8.545,30.556,30.556,0,0,0-4.683-4.791,29.9,29.9,0,0,0-6.511-4.025,29.244,29.244,0,0,0-8.1-2.333,28.938,28.938,0,0,0-4.458-.259,31.542,31.542,0,0,0-4.577.443,31.867,31.867,0,0,0-4.451,1.158,29.111,29.111,0,0,0-4.1,1.779,29.243,29.243,0,0,0-6.8,4.979,29.828,29.828,0,0,0-4.726,6.02,30.509,30.509,0,0,0-2.747,6.11,31.636,31.636,0,0,0-1.483,9.643c0,2.331.146,3.638-.034,3.667-.131.027-.576-1.231-.854-3.62a27.554,27.554,0,0,1,.82-10.143,29.848,29.848,0,0,1,7.533-13.16,28.81,28.81,0,0,1,3.334-2.944,29.134,29.134,0,0,1,3.9-2.521A30.29,30.29,0,0,1,164,380.085a30.6,30.6,0,0,1,9.738-1.729,30.493,30.493,0,0,1,4.81.317,30.427,30.427,0,0,1,8.676,2.639,29.842,29.842,0,0,1,11.6,9.763,27.584,27.584,0,0,1,4.266,9.241C203.656,402.654,203.67,403.986,203.539,404.009Z" transform="translate(-143.849 -378.351)"/></g><g transform="translate(25.867 18.232)"><path class="c" d="M174.594,423.086l.82,5.125-4.576.732-.8-4.987c-4.574.449-9.148-.272-11.98-1.836l1.621-5.987a18.732,18.732,0,0,0,9.4,1.828l-1.224-7.643c-5.278-.42-11.223-1.206-12.271-7.751-.776-4.85,2.081-9.578,9.178-11.559l-.813-5.081,4.577-.732.8,4.99a20.972,20.972,0,0,1,9.736,1.3l-1.386,6a19.02,19.02,0,0,0-7.384-1.261L171.538,404c5.269.374,11.125,1.175,12.157,7.627C184.457,416.391,181.639,421.066,174.594,423.086Zm-7.814-19.494-1.041-6.5c-2.337.937-3.085,2.418-2.844,3.929C163.151,402.624,164.663,403.274,166.78,403.592Zm9.637,9.768c-.258-1.6-1.723-2.258-3.8-2.632l1.01,6.316C175.835,416.176,176.651,414.824,176.417,413.36Z" transform="translate(-155.462 -385.195)"/></g></g></g><g transform="translate(810.282 534.207)"><g transform="translate(16.131)"><path class="f" d="M593.552,420.137c-2.856,4.078-8.4,2.727-10.978.239s-3.66-6.1-4.649-9.536c-2.262-7.86-4.542-16.1-2.86-24.108a13.405,13.405,0,0,1,3.078-6.555,7,7,0,0,1,6.632-2.206c2.8.739,4.537,3.479,5.794,6.085a57.488,57.488,0,0,1,5.679,24.663c.013,3.972-.455,8.138-2.695,11.418" transform="translate(-574.483 -377.79)"/></g><g transform="translate(0 60.699)"><path class="g" d="M588.031,421.3c-4.668-2.408-10.166-2.722-15.35-1.865-2.783.46-5.687,1.293-7.581,3.384s-2.255,5.773-.078,7.571a7.265,7.265,0,0,0,4.78,1.212c4.057-.047,8.559-.761,11.8,1.68,1.848,1.393,3.079,3.708,5.292,4.393a5.229,5.229,0,0,0,5.752-2.56,8.934,8.934,0,0,0,.649-6.593A10.065,10.065,0,0,0,588.031,421.3Z" transform="translate(-563.53 -419.006)"/></g><g transform="translate(40.027 13.12)"><path class="g" d="M593.721,421.777c-3.1-3.679-3.688-9.045-2.308-13.653s4.495-8.53,8.087-11.73a43.5,43.5,0,0,1,14.48-8.545,15.444,15.444,0,0,1,6.514-1.106,6.835,6.835,0,0,1,5.465,3.306c1.524,2.907.062,6.431-1.518,9.307a110.235,110.235,0,0,1-9.511,14.484c-2.851,3.676-6.116,7.3-10.461,8.961s-8.858,1.467-11.162-1.546" transform="translate(-590.709 -386.699)"/></g><g transform="translate(14.084 66.361)"><path class="h" d="M594.4,460.346a8.917,8.917,0,0,1-.258-1.853c-.133-1.349-.3-3.043-.493-5.056a73.155,73.155,0,0,0-1.137-7.418,57.313,57.313,0,0,0-2.7-8.754,32.282,32.282,0,0,0-4.471-7.92,16.691,16.691,0,0,0-5.651-4.7,15.812,15.812,0,0,0-4.76-1.483,8.826,8.826,0,0,1-1.844-.267,8.754,8.754,0,0,1,1.876-.029,14.449,14.449,0,0,1,4.963,1.292,16.666,16.666,0,0,1,5.961,4.739,31.5,31.5,0,0,1,4.633,8.081,53.649,53.649,0,0,1,2.677,8.9,62.663,62.663,0,0,1,.985,7.511c.16,2.147.222,3.886.25,5.088A8.668,8.668,0,0,1,594.4,460.346Z" transform="translate(-573.093 -422.851)"/></g><g transform="translate(25.572 16.383)"><path class="h" d="M590.365,472.5a3.734,3.734,0,0,1-.049-.86c0-.645,0-1.459.006-2.458.006-2.134,0-5.221-.109-9.034-.188-7.626-.845-18.153-2.113-29.722s-2.97-21.985-4.514-29.453c-.365-1.873-.732-3.558-1.078-5.032-.33-1.48-.611-2.754-.884-3.785-.233-.972-.423-1.763-.574-2.39a3.65,3.65,0,0,1-.15-.848,3.689,3.689,0,0,1,.3.806c.187.618.423,1.4.713,2.356.317,1.022.642,2.289,1.012,3.761.386,1.468.791,3.15,1.191,5.019a278.8,278.8,0,0,1,4.745,29.482c1.271,11.595,1.842,22.151,1.894,29.8.044,3.822-.037,6.916-.134,9.051-.06,1-.11,1.811-.15,2.456A3.611,3.611,0,0,1,590.365,472.5Z" transform="translate(-580.894 -388.915)"/></g><g transform="translate(34.959 22.609)"><path class="h" d="M587.3,450.137a16.3,16.3,0,0,1,.018-2.567c.094-1.651.321-4.037.786-6.958a91.442,91.442,0,0,1,2.264-10.138,89.732,89.732,0,0,1,4.238-12,63.95,63.95,0,0,1,12.449-19.385,31.575,31.575,0,0,1,2.929-2.722c.449-.38.847-.758,1.25-1.059l1.137-.783a16.5,16.5,0,0,1,2.162-1.384c.124.166-3.063,2.043-7.087,6.322a67.318,67.318,0,0,0-12.138,19.315,95.693,95.693,0,0,0-4.263,11.886,103.1,103.1,0,0,0-2.408,10.036c-.53,2.892-.838,5.255-1.023,6.889A16.642,16.642,0,0,1,587.3,450.137Z" transform="translate(-587.267 -393.142)"/></g></g><g transform="translate(295.6 103.756)"><path class="g" d="M443.736,478.745,215.779,237.624a6.333,6.333,0,0,1,.252-8.953L365.637,87.234a6.332,6.332,0,0,1,8.951.252L602.544,328.608a6.333,6.333,0,0,1-.25,8.953L452.687,479A6.331,6.331,0,0,1,443.736,478.745Z" transform="translate(-214.049 -85.504)"/><g class="i" transform="translate(174.996 -66.996)"><path d="M443.736,478.745,215.779,237.624a6.333,6.333,0,0,1,.252-8.953L365.637,87.234a6.332,6.332,0,0,1,8.951.252L602.544,328.608a6.333,6.333,0,0,1-.25,8.953L452.687,479A6.331,6.331,0,0,1,443.736,478.745Z" transform="translate(-390.049 -17.504)"/></g><g transform="translate(106.212 1.004)"><path class="f" d="M566.787,326.524,342.162,88.927a8.756,8.756,0,0,0-12.38-.348l-42.507,40.186a3.478,3.478,0,0,0-1.054,3.128c4.241,23.764,21.25,45.018,41.5,59.092,24.49,17.022,53.495,25.976,81.069,37.335s55.235,26.32,71.768,51.141c15.6,23.422,19.291,52.477,27.221,79.477a153.7,153.7,0,0,0,8.017,21.468,3.508,3.508,0,0,0,5.59,1.087l45.05-42.589A8.756,8.756,0,0,0,566.787,326.524Z" transform="translate(-286.169 -86.186)"/></g><g transform="translate(99.1 105.739)"><path class="d" d="M290.182,168.457l-2.04-2.158-2.835,2.68-1.049-1.109,2.835-2.68L281.34,159.1l.8-.757,12.553-1.044,1.166,1.234-12.179,1.069,4.428,4.683,2.5-2.359,1.018,1.078-2.495,2.359,2.04,2.158Z" transform="translate(-281.34 -157.303)"/><g transform="translate(7.414 4.206)"><path class="d" d="M295.552,174.78c-1.8,1.705-4.427,1.705-6.889-.9a7.734,7.734,0,0,1-2.286-5.194l1.39-.292a6.493,6.493,0,0,0,1.913,4.524c1.689,1.788,3.453,1.987,4.794.72,1.3-1.224,1.283-2.935-.613-4.938l-.728-.77.817-.772,6.571-.551-5.216-5.518.985-.932,6.556,6.935-.786.744-6.72.576C297.4,170.842,297.278,173.148,295.552,174.78Z" transform="translate(-286.374 -160.159)"/></g><g transform="translate(15.674 13.807)"><path class="d" d="M301.223,180.348c-1.832,1.733-4.477,1.808-6.967-.828a7.662,7.662,0,0,1-2.269-5.178l1.389-.29a6.429,6.429,0,0,0,1.884,4.492c1.733,1.834,3.545,1.959,4.854.722,1.387-1.312,1.436-2.99-1.159-5.733l-2.169-2.3,5.932-4.558,5.58,5.9-.987.932-4.661-4.932-3.786,2.879,1.312,1.387C303.248,176.1,303.134,178.541,301.223,180.348Z" transform="translate(-291.983 -166.678)"/></g><g transform="translate(25.42 24.296)"><path class="d" d="M307.128,186.441c-2.019,1.91-4.814,1.545-6.8-.551-2.71-2.864-2.193-6.3,1.212-9.521,3.667-3.467,7.473-3.269,10.24-.343a6.818,6.818,0,0,1,1.833,3.113l-1.317.4a5.2,5.2,0,0,0-1.473-2.574c-2.2-2.328-5.107-2.411-8.037.358-.246.233-.539.54-.833.878a4.739,4.739,0,0,1,4.966,1.549C308.95,181.888,309.1,184.577,307.128,186.441Zm-1.066-1.065c1.418-1.34,1.337-3.247-.236-4.911s-3.641-1.811-4.981-.545c-1.186,1.122-1.378,3.172.383,5.035C302.7,186.512,304.629,186.73,306.062,185.377Z" transform="translate(-298.6 -173.8)"/></g><g transform="translate(46.717 49.389)"><path class="d" d="M319.107,204.741l.959-5.777-5.838.617-1.166-1.234,7.191-.726,1.06-6.782,1.165,1.234-.872,5.434,5.476-.566,1.137,1.2-6.83.677-1.1,7.171Z" transform="translate(-313.062 -190.839)"/></g><g transform="translate(54.497 57.617)"><path class="d" d="M324.39,210.33l.957-5.777-5.836.616-1.166-1.233,7.191-.727,1.059-6.782,1.166,1.234-.873,5.436,5.476-.567,1.137,1.2-6.83.677-1.1,7.171Z" transform="translate(-318.345 -196.426)"/></g><g transform="translate(62.275 65.845)"><path class="d" d="M329.671,215.915l.957-5.777-5.836.617-1.166-1.234,7.191-.728,1.059-6.78,1.166,1.233-.873,5.436,5.476-.567,1.137,1.2-6.829.676-1.1,7.171Z" transform="translate(-323.626 -202.013)"/></g><g transform="translate(70.054 74.073)"><path class="d" d="M334.953,221.5l.959-5.777-5.838.617-1.166-1.234,7.191-.726,1.059-6.782,1.166,1.234-.872,5.434,5.476-.566,1.137,1.2-6.83.677-1.1,7.171Z" transform="translate(-328.908 -207.6)"/></g><g transform="translate(96.913 102.483)"><path class="d" d="M353.191,240.795l.959-5.777-5.838.616-1.166-1.233,7.191-.728,1.06-6.782,1.165,1.234-.872,5.434,5.476-.566,1.137,1.2-6.83.677-1.1,7.171Z" transform="translate(-347.146 -226.891)"/></g><g transform="translate(104.69 110.709)"><path class="d" d="M358.472,246.381l.959-5.777-5.838.617-1.166-1.234,7.191-.728,1.06-6.782,1.166,1.234-.873,5.436,5.476-.567,1.137,1.2-6.83.676-1.1,7.171Z" transform="translate(-352.427 -232.477)"/></g><g transform="translate(112.47 118.939)"><path class="d" d="M363.755,251.967l.957-5.777-5.836.617-1.166-1.234,7.191-.727,1.059-6.78,1.166,1.234-.873,5.434,5.476-.566,1.137,1.2-6.829.677-1.1,7.171Z" transform="translate(-357.71 -238.065)"/></g><g transform="translate(120.248 127.165)"><path class="d" d="M369.036,257.555l.957-5.779-5.836.617-1.166-1.234,7.191-.726,1.059-6.782,1.166,1.234-.872,5.434,5.474-.566,1.137,1.2-6.829.677-1.1,7.171Z" transform="translate(-362.991 -243.651)"/></g><g transform="translate(149.368 152.734)"><path class="d" d="M394.6,264.665l-10.786,10.2-1.049-1.107,9.8-9.266-2.4-2.543.987-.932Z" transform="translate(-382.764 -261.013)"/></g><g transform="translate(153.512 158.741)"><path class="d" d="M394.756,279.713c-1.8,1.7-4.428,1.705-6.889-.9a7.721,7.721,0,0,1-2.286-5.2l1.389-.29a6.5,6.5,0,0,0,1.913,4.524c1.691,1.788,3.455,1.987,4.8.72,1.294-1.224,1.281-2.935-.613-4.939l-.727-.769.816-.773,6.571-.551-5.216-5.517.987-.932,6.555,6.935-.786.742-6.72.577C396.606,275.775,396.48,278.081,394.756,279.713Z" transform="translate(-385.578 -265.092)"/></g><g transform="translate(163.723 173.18)"><path class="d" d="M401.354,286.049l-2.04-2.158-2.835,2.682-1.049-1.109,2.835-2.682-5.754-6.087.8-.757,12.553-1.043,1.166,1.233L394.854,277.2l4.428,4.683,2.495-2.359L402.8,280.6l-2.495,2.359,2.04,2.158Z" transform="translate(-392.512 -274.896)"/></g><g transform="translate(170.443 178.609)"><path class="d" d="M405.213,294.375l-.985.932-7.153-7.565.785-.742,8.631.331c2.353.083,3.3-.373,4.035-1.072,1.247-1.18,1.19-2.785-.37-4.434a5.036,5.036,0,0,0-3.984-1.807l-.068-1.427a6.673,6.673,0,0,1,5.156,2.365c2.069,2.188,2.269,4.623.467,6.327-1.032.976-2.263,1.527-5.05,1.42l-7.073-.259Z" transform="translate(-397.075 -278.582)"/></g></g><g transform="translate(67.471 124.821)"><path class="d" d="M261.025,171.279a3.9,3.9,0,0,1,6.393,3.256l-1.429-.1a2.274,2.274,0,0,0-.62-1.863,2.266,2.266,0,1,0-3.294,3.113,2.257,2.257,0,0,0,1.834.717l.018,1.431a3.893,3.893,0,0,1-2.9-6.558Z" transform="translate(-259.863 -170.26)"/><g transform="translate(3.26 5.823)"><path class="d" d="M267.024,179.809l-2.258-2.39L263.23,178l-1.153-1.219,7.316-2.571,1.112,1.177-2.97,7.166-1.181-1.249Zm.551-1.231,1.2-2.677-2.742,1.046Z" transform="translate(-262.077 -174.214)"/></g><g transform="translate(9.233 9.845)"><path class="d" d="M269.232,185.091l.495-2.349-.056-.059-.979-1.035L267.258,183l-1.125-1.191,5.146-4.866,2.106,2.227c1.3,1.376,1.4,2.91.246,4a2.3,2.3,0,0,1-2.626.477l-.563,2.72Zm3.121-5.068-.917-.969-1.8,1.7.917.97c.689.729,1.376.778,1.935.249S273.04,180.752,272.352,180.023Z" transform="translate(-266.133 -176.945)"/></g><g transform="translate(14.476 15.838)"><path class="d" d="M269.693,184.416l1.278-.442a4.169,4.169,0,0,0,1.069,2.206c.669.705,1.174.769,1.49.47.962-.91-2.527-3.277-.616-5.084.875-.828,2.271-.81,3.652.652a4.762,4.762,0,0,1,1.234,2.218l-1.252.489a4,4,0,0,0-.945-1.81c-.667-.705-1.188-.728-1.511-.421-.948.9,2.535,3.271.645,5.057-.86.813-2.271.794-3.661-.676A5.053,5.053,0,0,1,269.693,184.416Z" transform="translate(-269.693 -181.015)"/></g><g transform="translate(20.763 22.04)"><path class="d" d="M283.57,189.946l-5.147,4.866-1.125-1.19,2.11-1.994-2.212-2.34-2.109,2-1.125-1.19,5.146-4.867,1.127,1.191-2.029,1.917,2.211,2.34,2.029-1.919Z" transform="translate(-273.962 -185.226)"/></g><g transform="translate(27.506 29.093)"><path class="d" d="M279.69,191.022a3.881,3.881,0,1,1,0,5.333A3.663,3.663,0,0,1,279.69,191.022Zm4.184,4.425a2.216,2.216,0,1,0-3.168-.052A2.16,2.16,0,0,0,283.874,195.448Z" transform="translate(-278.54 -190.015)"/></g><g transform="translate(32.265 34.208)"><path class="d" d="M286.919,193.488l1.125,1.19-4.177,3.948,2.44,2.582-.971.917-3.565-3.772Z" transform="translate(-281.772 -193.488)"/></g><g transform="translate(36.47 38.655)"><path class="d" d="M289.774,196.508l2.211,2.337c1.592,1.685,1.669,3.8.11,5.272s-3.666,1.28-5.258-.406l-2.211-2.337Zm-2.015,6.219a2.2,2.2,0,1,0,3.191-3.016l-1.029-1.088-3.19,3.016Z" transform="translate(-284.627 -196.508)"/></g><g transform="translate(42.22 44.739)"><path class="d" d="M293.255,208.586l-.956.9-3.767-3.984,5.147-4.866,3.677,3.889-.956.9-2.558-2.705-1.118,1.056,2.259,2.39-.926.875-2.259-2.389-1.191,1.127Z" transform="translate(-288.532 -200.639)"/></g><g transform="translate(46.892 49.68)"><path class="d" d="M294.8,212.138l.495-2.349-.056-.059-.979-1.035-1.433,1.355-1.125-1.19,5.147-4.866,2.1,2.225c1.3,1.375,1.4,2.91.246,4a2.3,2.3,0,0,1-2.626.477l-.563,2.72Zm3.121-5.066-.918-.972-1.8,1.7.919.97c.688.729,1.374.778,1.934.249S298.611,207.8,297.923,207.072Z" transform="translate(-291.704 -203.994)"/></g></g><g transform="translate(47.974 137.208)"><path class="d" d="M246.681,185.806l2.735-.171a3.135,3.135,0,0,0,.649,2.872c.87.92,1.879.881,2.97-.15l4.717-4.459-3.294-3.486,1.842-1.741,5.45,5.766-6.433,6.079c-2.451,2.318-4.819,2.224-7.029-.113A5.489,5.489,0,0,1,246.681,185.806Z" transform="translate(-246.625 -178.671)"/><g transform="translate(7.251 14.864)"><path class="d" d="M252.168,189.3a1.892,1.892,0,0,1,2.6,2.75,1.892,1.892,0,1,1-2.6-2.75Z" transform="translate(-251.548 -188.764)"/></g><g transform="translate(12.511 10.231)"><path class="d" d="M276.943,201.469,263.959,207.6l-2.331-2.465,4.652-8.53-8.842,4.1-2.318-2.451,6.836-12.633,2.25,2.38-4.854,8.826,9.179-4.252,2.009,2.125-4.884,8.91,9.21-4.333Z" transform="translate(-255.12 -185.618)"/></g><g transform="translate(25.596 26.606)"><path class="d" d="M273.666,197.191a1.739,1.739,0,0,1,2.532.209,1.706,1.706,0,0,1,.109,2.5,1.9,1.9,0,0,1-2.641-2.707Zm-2.04,2.44,2.09,2.209-7.621,7.2-2.09-2.209Z" transform="translate(-264.005 -196.737)"/></g><g transform="translate(29.624 31.027)"><path class="d" d="M277.251,199.739l2.088,2.209-10.511,9.936-2.088-2.209Z" transform="translate(-266.74 -199.739)"/></g><g transform="translate(33.65 35.286)"><path class="d" d="M279.985,202.631l2.09,2.211-10.511,9.936-2.09-2.209Z" transform="translate(-269.474 -202.631)"/></g><g transform="translate(37.678 39.385)"><path class="d" d="M281.87,205.868a1.737,1.737,0,0,1,2.53.209,1.706,1.706,0,0,1,.109,2.5,1.9,1.9,0,0,1-2.639-2.708Zm-2.04,2.44,2.088,2.209-7.621,7.2-2.088-2.209Z" transform="translate(-272.209 -205.414)"/></g><g transform="translate(42.491 47.088)"><path class="d" d="M285.413,219.93l-4.349,4.112-1.956-2.069.948-.9a3.437,3.437,0,0,1-3.256-1.317c-1.689-1.786-1.7-3.785-.384-5.031,1.346-1.272,3.18-1.208,5.374,1.115l1.663,1.758c.948-.9.965-1.987-.161-3.177a5.033,5.033,0,0,0-2.785-1.526l.8-2.253a8.07,8.07,0,0,1,4.028,2.415C287.527,215.383,287.723,217.748,285.413,219.93Zm-4.029-.376.779-.735-1.434-1.518c-.976-1.032-1.669-1-2.178-.517-.552.523-.477,1.34.259,2.119A2.242,2.242,0,0,0,281.384,219.555Z" transform="translate(-275.477 -210.645)"/></g><g transform="translate(49.958 55.268)"><path class="d" d="M297.084,232.156l-4.362,4.125-2.09-2.209,4.023-3.8c1.233-1.165,1.275-2.253.433-3.146-.938-.993-2.233-1.084-3.592.2l-3.825,3.615-2.088-2.209,4.023-3.8c1.231-1.165,1.3-2.224.433-3.144-.925-.978-2.218-1.069-3.579.216l-3.825,3.616-2.09-2.211,7.621-7.2,2,2.11-.878.829a4.254,4.254,0,0,1,3.255,1.458,3.913,3.913,0,0,1,1.124,3.685,4.72,4.72,0,0,1,3.845,1.571C299.224,227.665,299.408,229.96,297.084,232.156Z" transform="translate(-280.547 -216.199)"/></g><g transform="translate(64.007 70.975)"><path class="d" d="M290.087,231.8l2.283-.763a7.166,7.166,0,0,0,1.767,3.346c.963,1.018,1.593,1.147,2.019.744,1.247-1.178-4.381-4.577-1.336-7.455,1.446-1.367,3.7-1.028,5.8,1.2a8.642,8.642,0,0,1,2.106,3.562l-2.269.75a6.021,6.021,0,0,0-1.508-2.732c-.937-.991-1.652-1.121-2.049-.747-1.3,1.233,4.311,4.643,1.306,7.483-1.415,1.34-3.667.973-5.823-1.308A8.971,8.971,0,0,1,290.087,231.8Z" transform="translate(-290.087 -226.865)"/></g></g><g transform="translate(197.303 295.909)"><g transform="translate(0 0)"><path class="d" d="M350.695,288.811c3.272-3.094,6.842-3.035,9.147-.6s2.162,6-1.11,9.1-6.829,3.049-9.145.6S347.422,291.9,350.695,288.811Zm5.852,6.19c2.253-2.13,2.439-3.806,1.353-4.953s-2.757-1.044-5.009,1.085-2.437,3.808-1.365,4.941S354.3,297.131,356.547,295Z" transform="translate(-348.022 -286.433)"/></g><g transform="translate(9.003 9.854)"><path class="d" d="M362.8,305.173c-2.026,1.914-4.867,1.462-6.85-.635-2.585-2.733-2.479-6.054.723-9.081,3.427-3.241,7.3-2.981,10.12.007a7.37,7.37,0,0,1,1.932,3.406l-2.489.745a4.5,4.5,0,0,0-1.259-2.327c-1.567-1.657-3.548-1.8-5.514-.071a4.6,4.6,0,0,1,3.194,1.619C364.473,300.752,364.673,303.406,362.8,305.173Zm-2.216-2.118a2.057,2.057,0,0,0-.107-3.091,2.134,2.134,0,0,0-3.107-.309c-.85.8-.869,2.031.174,3.135A2.041,2.041,0,0,0,360.588,303.056Z" transform="translate(-354.135 -293.125)"/></g><g transform="translate(13.074 18.21)"><path class="d" d="M374.665,298.8l1.861,1.969-17.765,7.941-1.862-1.969Z" transform="translate(-356.9 -298.798)"/></g><g transform="translate(20.62 22.982)"><path class="d" d="M370.978,316.076l-1.87,1.767-7.084-7.493,1.487-1.4,7.229.409c1.664.087,2.324-.237,2.8-.692.781-.738.723-1.705-.268-2.754a3.341,3.341,0,0,0-2.934-1.116l-.5-2.689a6.342,6.342,0,0,1,5.565,2.2c2.09,2.211,2.349,4.754.549,6.455-.963.91-2.1,1.471-4.7,1.3l-4.308-.246Z" transform="translate(-362.024 -302.038)"/></g><g transform="translate(30.436 34.775)"><path class="d" d="M377.379,321.969l-1.526-1.614-2.082,1.968-2.115-2.237,2.082-1.968-5.05-5.342,1.545-1.459,10.708-1.271,2.277,2.408-10.062,1.3,2.517,2.663,1.856-1.754,2.05,2.168-1.856,1.754,1.526,1.614Z" transform="translate(-368.689 -310.046)"/></g></g><g transform="translate(248.738 186.494)"><path class="f" d="M417.166,245.589c5.585-8.6,3.395-20.026-4.112-27.006a26.773,26.773,0,0,0-7.817-5.134c-7.178-2.993-16.68-.809-20.447,6-3.075,5.555-1.832,12.486.318,18.459,2.253,6.258,5.911,12.654,12.1,15.082,5.963,2.34,13.128.193,17.583-4.408A19.827,19.827,0,0,0,417.166,245.589Z" transform="translate(-382.948 -212.138)"/></g><text class="j" transform="matrix(0.682, 0.732, -0.732, 0.682, 149.864, 48.086)"><tspan x="0" y="0">ATLAS HOME</tspan></text></g><g transform="translate(295.396 326.894)"><g transform="translate(0 0)"><g transform="translate(17.07)"><g transform="translate(0.384 0.351)"><rect class="f" width="427.977" height="310.612" rx="17.441"/></g><path class="f" d="M653.862,263.057s-.029-.314-.066-.931a20.5,20.5,0,0,0-.266-2.748,25.238,25.238,0,0,0-3.767-10.063,26.466,26.466,0,0,0-5.253-5.956,25.947,25.947,0,0,0-8.383-4.6c-.819-.286-1.692-.454-2.561-.692-.882-.183-1.8-.284-2.719-.434L628,237.5l-2.965,0-12.83.018-153.559.122c-32.416.013-67.923.029-106.041.047l-59.075.019-30.893.007-7.857,0a40.305,40.305,0,0,0-7.819.44,26.488,26.488,0,0,0-7.38,2.58,26.908,26.908,0,0,0-6.256,4.772,24.565,24.565,0,0,0-4.52,6.5,23.85,23.85,0,0,0-2.3,7.617,64.128,64.128,0,0,0-.258,8.1q0,4.093,0,8.207,0,16.46.006,33.289.007,33.653.01,68.66c0,46.639,0,94.928.007,144.385a25.5,25.5,0,0,0,6.281,16.683,24.984,24.984,0,0,0,15.594,8.394,78.1,78.1,0,0,0,9.081.261h27.248q36.138,0,71.155.006l134.512.024,121.717.035,14.172,0a35.469,35.469,0,0,0,6.906-.458,25,25,0,0,0,6.464-2.178,22.63,22.63,0,0,0,5.607-3.773,25.115,25.115,0,0,0,8.486-17.488c.158-17.656.057-34.664.1-50.864.052-64.827.093-117.288.122-153.55.031-18.123.054-32.195.072-41.747.016-4.767.03-8.4.038-10.857s.038-3.7.038-3.7.026,1.253.04,3.7.021,6.09.038,10.857c.016,9.552.04,23.624.071,41.747.03,36.262.071,88.723.122,153.55-.025,16.215.093,33.174-.05,50.9a25.712,25.712,0,0,1-8.673,17.909,23.3,23.3,0,0,1-5.739,3.869,25.584,25.584,0,0,1-6.62,2.236,35.994,35.994,0,0,1-7.022.476l-14.172,0-121.717.035-134.512.024-71.155.006H257.225a78.76,78.76,0,0,1-9.184-.265,25.752,25.752,0,0,1-16.067-8.649,26.265,26.265,0,0,1-6.473-17.188c0-49.458.006-97.746.009-144.385q0-34.978.009-68.66,0-16.826.006-33.289,0-4.115,0-8.207a64.673,64.673,0,0,1,.268-8.193,24.578,24.578,0,0,1,2.371-7.832,25.275,25.275,0,0,1,4.649-6.674,27.6,27.6,0,0,1,6.431-4.9,27.253,27.253,0,0,1,7.587-2.648l1.987-.3,2-.11c1.337-.074,2.639-.019,3.957-.035h7.857l30.893.009,59.075.019,106.041.046,153.559.122,12.83.018,2.965,0,2.875.146c.931.155,1.854.262,2.744.448.876.244,1.755.418,2.582.707a26.115,26.115,0,0,1,8.434,4.669,26.561,26.561,0,0,1,5.26,6.019,25.092,25.092,0,0,1,3.716,10.135,19.323,19.323,0,0,1,.228,2.758C653.859,262.744,653.862,263.057,653.862,263.057Z" transform="translate(-225.501 -237.02)"/></g><g transform="translate(42.711 19.083)"><g transform="translate(387.726 0.035)"><path class="h" d="M506.187,250.386c0-.212,1.978-.384,4.418-.384s4.418.172,4.418.384-1.978.383-4.418.383S506.187,250.6,506.187,250.386Z" transform="translate(-506.187 -250.002)"/></g><g transform="translate(351.682 0.035)"><path class="h" d="M481.712,250.386c0-.212,4.035-.384,9.01-.384s9.011.172,9.011.384-4.034.383-9.011.383S481.712,250.6,481.712,250.386Z" transform="translate(-481.712 -250.002)"/></g><g transform="translate(315.637 0.035)"><path class="h" d="M457.237,250.386c0-.212,4.034-.384,9.01-.384s9.011.172,9.011.384-4.034.383-9.011.383S457.237,250.6,457.237,250.386Z" transform="translate(-457.237 -250.002)"/></g><g transform="translate(279.592 0.035)"><path class="h" d="M432.761,250.386c0-.212,4.035-.384,9.011-.384s9.011.172,9.011.384-4.034.383-9.011.383S432.761,250.6,432.761,250.386Z" transform="translate(-432.761 -250.002)"/></g><g transform="translate(243.547 0.035)"><path class="h" d="M408.286,250.386c0-.212,4.035-.384,9.01-.384s9.013.172,9.013.384-4.035.383-9.013.383S408.286,250.6,408.286,250.386Z" transform="translate(-408.286 -250.002)"/></g><g transform="translate(207.503 0.035)"><path class="h" d="M383.811,250.386c0-.212,4.034-.384,9.01-.384s9.012.172,9.012.384-4.034.383-9.012.383S383.811,250.6,383.811,250.386Z" transform="translate(-383.811 -250.002)"/></g><g transform="translate(171.457 0.035)"><path class="h" d="M359.335,250.386c0-.212,4.035-.384,9.011-.384s9.011.172,9.011.384-4.034.383-9.011.383S359.335,250.6,359.335,250.386Z" transform="translate(-359.335 -250.002)"/></g><g transform="translate(135.412 0.035)"><path class="h" d="M334.86,250.386c0-.212,4.035-.384,9.01-.384s9.013.172,9.013.384-4.035.383-9.013.383S334.86,250.6,334.86,250.386Z" transform="translate(-334.86 -250.002)"/></g><g transform="translate(99.368 0.035)"><path class="h" d="M310.385,250.386c0-.212,4.034-.384,9.01-.384s9.012.172,9.012.384-4.034.383-9.012.383S310.385,250.6,310.385,250.386Z" transform="translate(-310.385 -250.002)"/></g><g transform="translate(63.322 0.035)"><path class="h" d="M285.909,250.386c0-.212,4.035-.384,9.012-.384s9.011.172,9.011.384-4.034.383-9.011.383S285.909,250.6,285.909,250.386Z" transform="translate(-285.909 -250.002)"/></g><g transform="translate(27.278 0.035)"><path class="h" d="M261.434,250.386c0-.212,4.035-.384,9.01-.384s9.013.172,9.013.384-4.035.383-9.013.383S261.434,250.6,261.434,250.386Z" transform="translate(-261.434 -250.002)"/></g><g transform="translate(0.035)"><path class="h" d="M243.319,259.234c-.212,0-.383-3.957-.383-8.836.766-.767.215-.214.386-.384h.9l.876.006,1.66.024,2.808.081a8.864,8.864,0,0,1,2.588.272,8.9,8.9,0,0,1-2.588.271l-2.808.081-1.66.024-.876.006h-.9c.171-.171-.384.383.381-.383C243.7,255.277,243.531,259.234,243.319,259.234Z" transform="translate(-242.936 -249.978)"/></g><g transform="translate(0.035 25.771)"><path class="h" d="M243.319,283.992c-.212,0-.383-3.7-.383-8.257s.171-8.257.383-8.257.384,3.7.384,8.257S243.531,283.992,243.319,283.992Z" transform="translate(-242.936 -267.477)"/></g><g transform="translate(0.035 58.801)"><path class="h" d="M243.319,306.42c-.212,0-.383-3.7-.383-8.256s.171-8.259.383-8.259.384,3.7.384,8.259S243.531,306.42,243.319,306.42Z" transform="translate(-242.936 -289.905)"/></g><g transform="translate(0.035 91.832)"><path class="h" d="M243.319,328.849c-.212,0-.383-3.7-.383-8.257s.171-8.257.383-8.257.384,3.7.384,8.257S243.531,328.849,243.319,328.849Z" transform="translate(-242.936 -312.334)"/></g><g transform="translate(0.035 124.862)"><path class="h" d="M243.319,351.277c-.212,0-.383-3.7-.383-8.257s.171-8.257.383-8.257.384,3.7.384,8.257S243.531,351.277,243.319,351.277Z" transform="translate(-242.936 -334.762)"/></g><g transform="translate(0.035 157.892)"><path class="h" d="M243.319,373.706c-.212,0-.383-3.7-.383-8.257s.171-8.259.383-8.259.384,3.7.384,8.259S243.531,373.706,243.319,373.706Z" transform="translate(-242.936 -357.19)"/></g><g transform="translate(0.035 190.923)"><path class="h" d="M243.319,396.134c-.212,0-.383-3.7-.383-8.257s.171-8.257.383-8.257.384,3.7.384,8.257S243.531,396.134,243.319,396.134Z" transform="translate(-242.936 -379.619)"/></g><g transform="translate(0.035 223.953)"><path class="h" d="M243.319,418.563c-.212,0-.383-3.7-.383-8.257s.171-8.259.383-8.259.384,3.7.384,8.259S243.531,418.563,243.319,418.563Z" transform="translate(-242.936 -402.047)"/></g><g transform="translate(0 256.984)"><path class="h" d="M252.166,433.312c0,.212-3.956.383-8.835.383-.767-.766-.214-.215-.384-.386v-.9l.006-.876c.007-.566.015-1.116.022-1.66.029-.966.056-1.9.082-2.808a8.839,8.839,0,0,1,.271-2.588,8.839,8.839,0,0,1,.271,2.588c.026.909.054,1.842.082,2.808.007.543.015,1.094.022,1.66,0,.289,0,.582.006.876v.9c-.171-.171.381.384-.383-.381C248.211,432.928,252.166,433.1,252.166,433.312Z" transform="translate(-242.912 -424.476)"/></g><g transform="translate(27.017 265.436)"><path class="h" d="M279.018,430.6c0,.212-3.976.383-8.88.383s-8.88-.171-8.88-.383,3.975-.384,8.88-.384S279.018,430.387,279.018,430.6Z" transform="translate(-261.257 -430.215)"/></g><g transform="translate(62.54 265.436)"><path class="h" d="M303.139,430.6c0,.212-3.976.383-8.88.383s-8.88-.171-8.88-.383,3.975-.384,8.88-.384S303.139,430.387,303.139,430.6Z" transform="translate(-285.378 -430.215)"/></g><g transform="translate(98.063 265.436)"><path class="h" d="M327.26,430.6c0,.212-3.976.383-8.88.383s-8.88-.171-8.88-.383,3.975-.384,8.88-.384S327.26,430.387,327.26,430.6Z" transform="translate(-309.499 -430.215)"/></g><g transform="translate(133.586 265.436)"><path class="h" d="M351.381,430.6c0,.212-3.976.383-8.88.383s-8.88-.171-8.88-.383,3.975-.384,8.88-.384S351.381,430.387,351.381,430.6Z" transform="translate(-333.62 -430.215)"/></g><g transform="translate(169.108 265.436)"><path class="h" d="M375.5,430.6c0,.212-3.976.383-8.88.383s-8.882-.171-8.882-.383,3.976-.384,8.882-.384S375.5,430.387,375.5,430.6Z" transform="translate(-357.74 -430.215)"/></g><g transform="translate(204.631 265.436)"><path class="h" d="M399.623,430.6c0,.212-3.976.383-8.88.383s-8.882-.171-8.882-.383,3.976-.384,8.882-.384S399.623,430.387,399.623,430.6Z" transform="translate(-381.861 -430.215)"/></g><g transform="translate(240.154 265.436)"><path class="h" d="M423.744,430.6c0,.212-3.976.383-8.88.383s-8.882-.171-8.882-.383,3.976-.384,8.882-.384S423.744,430.387,423.744,430.6Z" transform="translate(-405.982 -430.215)"/></g><g transform="translate(275.677 265.436)"><path class="h" d="M447.865,430.6c0,.212-3.976.383-8.88.383s-8.882-.171-8.882-.383,3.976-.384,8.882-.384S447.865,430.387,447.865,430.6Z" transform="translate(-430.103 -430.215)"/></g><g transform="translate(311.2 265.436)"><path class="h" d="M471.986,430.6c0,.212-3.978.383-8.88.383s-8.882-.171-8.882-.383,3.976-.384,8.882-.384S471.986,430.387,471.986,430.6Z" transform="translate(-454.224 -430.215)"/></g><g transform="translate(346.723 265.436)"><path class="h" d="M496.106,430.6c0,.212-3.976.383-8.879.383s-8.882-.171-8.882-.383,3.975-.384,8.882-.384S496.106,430.387,496.106,430.6Z" transform="translate(-478.345 -430.215)"/></g><g transform="translate(382.246 265.436)"><path class="h" d="M511.3,430.6c0,.212-1.978.383-4.418.383s-4.418-.171-4.418-.383,1.978-.384,4.418-.384S511.3,430.387,511.3,430.6Z" transform="translate(-502.466 -430.215)"/></g></g><g class="i" transform="translate(17.454 172.624)"><path d="M373.439,354.236s.093,14.73-4.359,23.635-5.95,12.331-15.306,15.756-128.012,16.443-128.012,16.443V369.992Z" transform="translate(-225.762 -354.236)"/></g><g class="i" transform="translate(17.454 82.276)"><path d="M371.312,327.716s1.355-15.025-36.364-20.608c-43.141-6.386-109.186-14.222-109.186-14.222v28.436Z" transform="translate(-225.762 -292.887)"/></g><g transform="translate(0 103.083)"><g transform="translate(0.29 0.383)"><rect class="f" width="164.841" height="97.075" rx="14.314"/></g><path class="h" d="M235.282,404.474s-.427.006-1.261-.024a18.325,18.325,0,0,1-3.663-.5,21.006,21.006,0,0,1-11.813-7.526,20.99,20.99,0,0,1-4.188-9.344A30.961,30.961,0,0,1,214,381.2q-.007-3.055-.015-6.341c-.018-8.766-.037-18.743-.057-29.771.007-5.518-.053-11.284.01-17.322a21.3,21.3,0,0,1,8.459-16.344,20.943,20.943,0,0,1,9.106-4,26.91,26.91,0,0,1,5.1-.358l5.144,0,21.31-.016,94.889-.029a23.875,23.875,0,0,1,6.316.944,21.394,21.394,0,0,1,10.363,7.01,21.441,21.441,0,0,1,4.688,11.416c.15,2.082.094,4.091.1,6.112q0,6.055,0,12.008,0,11.9-.009,23.367,0,5.726-.006,11.329c-.032,1.876.068,3.7-.074,5.59a22.6,22.6,0,0,1-.346,2.782,24.859,24.859,0,0,1-.733,2.688A21.448,21.448,0,0,1,362.9,404.216a22.648,22.648,0,0,1-2.58.457c-.864.074-1.738.109-2.593.134l-5.066,0-9.892-.01-36.083-.046-52.247-.122-14.206-.072-3.694-.038c-.832-.013-1.258-.04-1.258-.04s.426-.025,1.258-.038l3.694-.038,14.206-.072,52.247-.122,36.083-.046q4.864-.007,9.892-.01c3.35-.084,6.788.275,10.085-.586a20.771,20.771,0,0,0,14.835-13.522c1.277-3.4,1.1-7.1,1.1-10.835s0-7.512-.006-11.329q-.007-11.454-.01-23.367,0-5.953,0-12.008c-.01-2.013.041-4.06-.1-6.038a22.161,22.161,0,0,0-1.446-5.817,21.914,21.914,0,0,0-3.078-5.191,20.648,20.648,0,0,0-10-6.758,23.083,23.083,0,0,0-6.091-.91l-94.889-.031-21.31-.016-5.144,0a26.323,26.323,0,0,0-4.987.337,20.314,20.314,0,0,0-8.836,3.86,20.691,20.691,0,0,0-8.252,15.857c-.078,6-.035,11.793-.06,17.3-.021,11.028-.04,21.005-.056,29.771q-.009,3.285-.016,6.341a30.623,30.623,0,0,0,.32,5.819A20.99,20.99,0,0,0,230.394,403.8a19.656,19.656,0,0,0,3.632.57C234.855,404.427,235.282,404.474,235.282,404.474Z" transform="translate(-213.91 -307.016)"/><g transform="translate(80.182 17.282)"><circle class="h" cx="35.292" cy="35.292" r="35.292"/><g transform="translate(44.339 12.351)"><path class="k" d="M298.464,378.907c-.09-.193,3.633-.941,8.414-4.409a30.2,30.2,0,0,0,7.128-7.356,27.6,27.6,0,0,0,3.813-24,30.22,30.22,0,0,0-4.495-9.2c-3.471-4.779-6.777-6.645-6.633-6.8a2.235,2.235,0,0,1,.582.33,17.054,17.054,0,0,1,1.564,1.106,26.629,26.629,0,0,1,4.923,5.043,29.7,29.7,0,0,1,4.736,9.324,27.789,27.789,0,0,1-3.91,24.6,29.709,29.709,0,0,1-7.393,7.4,26.671,26.671,0,0,1-6.244,3.268,16.808,16.808,0,0,1-1.831.566A2.241,2.241,0,0,1,298.464,378.907Z" transform="translate(-298.463 -327.137)"/></g></g></g></g></g><g transform="translate(123.089 197.144)"><g transform="translate(710.073)"><path class="g" d="M709.181,208.149a65.186,65.186,0,1,1-70.721-58.969A65.115,65.115,0,0,1,709.181,208.149Z" transform="translate(-579.066 -148.917)"/><g transform="translate(14.733 13.594)"><g class="i"><path d="M688.853,203.618c-.3.038-.7-2.115-1.841-5.832a52.718,52.718,0,0,0-7.063-14.655,50.857,50.857,0,0,0-7.355-8.4,49.73,49.73,0,0,0-10.468-7.3,48.678,48.678,0,0,0-13.271-4.626,48.125,48.125,0,0,0-7.394-.842,48.521,48.521,0,0,0-15.176,1.836,48.507,48.507,0,0,0-6.982,2.585,48.745,48.745,0,0,0-11.782,7.661,49.74,49.74,0,0,0-8.419,9.589,50.918,50.918,0,0,0-5.134,9.919,52.755,52.755,0,0,0-3.353,15.915c-.214,3.881-.091,6.068-.392,6.1-.221.031-.845-2.1-1.09-6.1a45.929,45.929,0,0,1,2.3-16.808,49.771,49.771,0,0,1,13.745-21.213,50.519,50.519,0,0,1,12.55-8.431,50.6,50.6,0,0,1,7.514-2.845,50.91,50.91,0,0,1,16.369-1.982,50.736,50.736,0,0,1,7.975.968,50.627,50.627,0,0,1,14.2,5.191A49.8,49.8,0,0,1,682.2,181.656a46.013,46.013,0,0,1,6.252,15.773C689.171,201.374,689.074,203.595,688.853,203.618Z" transform="translate(-589.07 -158.147)"/></g></g><g class="i" transform="translate(43.581 30.423)"><path d="M638.5,233.2l.9,8.606-7.684.8-.872-8.375c-7.655.33-15.2-1.292-19.772-4.156l3.25-9.816a31.211,31.211,0,0,0,15.477,3.9l-1.337-12.833c-8.745-1.186-18.569-3.038-19.712-14.027-.847-8.146,4.343-15.754,16.34-18.4l-.888-8.531,7.686-.8.87,8.378c5.811-.138,11.58.813,16.085,3.063l-2.857,9.852a31.686,31.686,0,0,0-12.173-2.775l1.359,13.066c8.736,1.109,18.409,2.979,19.536,13.813C655.535,222.965,650.415,230.488,638.5,233.2Zm-11.216-33.167-1.137-10.911c-3.976,1.346-5.358,3.744-5.094,6.28C621.335,198.092,623.793,199.315,627.286,200.036Zm15.144,17.145c-.28-2.691-2.66-3.916-6.085-4.729l1.1,10.6C641.2,221.815,642.686,219.641,642.43,217.182Z" transform="translate(-608.659 -169.575)"/></g><g transform="translate(15.714 60.49)"><path class="h" d="M589.743,199.092a1.605,1.605,0,0,1,.1.395c.054.3.121.688.2,1.163q.131.793.309,1.891a18.326,18.326,0,0,0,.508,2.561,49.823,49.823,0,0,0,6.322,15.284,51.384,51.384,0,0,0,7.1,8.958l2.325,2.11c.4.35.779.733,1.2,1.066l1.308.978c.89.641,1.745,1.358,2.7,1.963l2.928,1.783a50.512,50.512,0,0,0,13.48,5.233,49.216,49.216,0,0,0,30.525-2.807,50.465,50.465,0,0,0,12.3-7.607q1.295-1.158,2.554-2.286c.825-.769,1.535-1.63,2.292-2.424l1.109-1.2c.356-.406.658-.851.987-1.268q.968-1.27,1.9-2.5a51.422,51.422,0,0,0,5.35-10.1,49.808,49.808,0,0,0,3.427-16.181,18.5,18.5,0,0,0,.034-2.61q-.024-1.113-.043-1.916c0-.482-.007-.87-.01-1.181a1.605,1.605,0,0,1,.022-.4,1.541,1.541,0,0,1,.056.4c.024.309.052.7.087,1.178q.049.806.116,1.92a17.811,17.811,0,0,1,.037,2.623,48.5,48.5,0,0,1-3.219,16.368,51.362,51.362,0,0,1-5.333,10.269l-1.91,2.545c-.331.426-.636.878-1,1.29s-.741.813-1.115,1.222c-.763.809-1.48,1.685-2.312,2.468l-2.579,2.331a50.853,50.853,0,0,1-12.461,7.755,49.687,49.687,0,0,1-30.989,2.851A50.922,50.922,0,0,1,614.4,237.86l-2.96-1.822c-.96-.619-1.826-1.349-2.723-2l-1.32-1c-.429-.34-.81-.729-1.214-1.087q-1.189-1.1-2.342-2.155a51.271,51.271,0,0,1-7.116-9.122,48.479,48.479,0,0,1-6.153-15.506,17.809,17.809,0,0,1-.442-2.588c-.091-.739-.171-1.374-.237-1.91-.053-.479-.1-.866-.13-1.174A1.532,1.532,0,0,1,589.743,199.092Z" transform="translate(-589.736 -189.991)"/></g></g><g transform="translate(676.338 197.181)"><path class="g" d="M628.148,337.066a37.876,37.876,0,1,1-17.715-50.486A37.835,37.835,0,0,1,628.148,337.066Z" transform="translate(-556.159 -282.807)"/><g transform="translate(11.47 7.942)"><g class="i"><path d="M616.735,329.786c-.162-.071.278-1.265.819-3.458a30.6,30.6,0,0,0,.841-9.415,29.5,29.5,0,0,0-1.165-6.384,28.879,28.879,0,0,0-3.049-6.758,28.3,28.3,0,0,0-5.243-6.262,28.054,28.054,0,0,0-3.437-2.623,28.183,28.183,0,0,0-8.118-3.6,28.149,28.149,0,0,0-4.253-.791,28.386,28.386,0,0,0-8.16.312,28.946,28.946,0,0,0-7.057,2.275,29.6,29.6,0,0,0-5.515,3.42,30.649,30.649,0,0,0-6.414,6.941c-1.262,1.872-1.854,3-2.013,2.926-.119-.05.2-1.3,1.274-3.37a26.72,26.72,0,0,1,6.153-7.7,28.92,28.92,0,0,1,13.178-6.487,27.965,27.965,0,0,1,4.271-.56,28.311,28.311,0,0,1,4.5.091,29.325,29.325,0,0,1,4.6.819,29.642,29.642,0,0,1,8.757,3.886,29.511,29.511,0,0,1,3.689,2.86,29.4,29.4,0,0,1,5.539,6.819,28.936,28.936,0,0,1,4.031,14.125,26.769,26.769,0,0,1-1.58,9.73C617.562,328.761,616.851,329.841,616.735,329.786Z" transform="translate(-563.947 -288.2)"/></g></g><g class="i" transform="translate(20.582 19.137)"><path d="M582.888,331.406l-2.116,4.561-4.072-1.891,2.06-4.437c-3.917-2.116-7.2-5.174-8.626-7.964l4.545-3.929a18.147,18.147,0,0,0,6.558,6.559l3.156-6.8c-4.01-3.2-8.359-7.047-5.655-12.87,2-4.316,6.86-6.565,13.631-4.312l2.1-4.52,4.072,1.891-2.062,4.439a20.288,20.288,0,0,1,7.112,6.319l-4.359,4.065a18.422,18.422,0,0,0-5.247-5.012l-3.213,6.923c4.028,3.156,8.3,6.97,5.63,12.709C594.435,331.372,589.64,333.6,582.888,331.406Zm4.284-19.887,2.683-5.782c-2.384-.513-3.786.271-4.412,1.616C584.783,308.776,585.645,310.118,587.172,311.519Zm2.448,13.064c.663-1.426-.159-2.747-1.626-4.171l-2.609,5.618C587.628,326.528,589.014,325.886,589.619,324.583Z" transform="translate(-570.134 -295.802)"/></g><g transform="translate(8.773 25.349)"><path class="h" d="M565.178,300.02c.074.032-.454,1.193-1.174,3.352a29.276,29.276,0,0,0-1.345,9.486,29.929,29.929,0,0,0,.891,6.555,30.717,30.717,0,0,0,2.864,7.017,29.282,29.282,0,0,0,5.146,6.584,28.5,28.5,0,0,0,15.976,7.651,29.3,29.3,0,0,0,8.358-.119,30.672,30.672,0,0,0,7.263-2.169,29.939,29.939,0,0,0,5.665-3.415,29.247,29.247,0,0,0,6.546-7c1.23-1.914,1.8-3.051,1.875-3.015a4.006,4.006,0,0,1-.37.844,22.991,22.991,0,0,1-1.253,2.331,27.872,27.872,0,0,1-6.465,7.262,29.842,29.842,0,0,1-5.733,3.567,30.8,30.8,0,0,1-7.412,2.287,29.575,29.575,0,0,1-8.573.166,28.948,28.948,0,0,1-16.4-7.851,29.534,29.534,0,0,1-5.243-6.782,30.829,30.829,0,0,1-2.866-7.207,29.856,29.856,0,0,1-.816-6.7,27.886,27.886,0,0,1,1.6-9.59,22.4,22.4,0,0,1,1.031-2.439A4.041,4.041,0,0,1,565.178,300.02Z" transform="translate(-562.116 -300.02)"/></g></g><g transform="translate(0 193.226)"><path class="g" d="M219.924,332.924a61.826,61.826,0,1,1-70.054-52.15A61.757,61.757,0,0,1,219.924,332.924Z" transform="translate(-96.91 -280.122)"/><g transform="translate(13.857 12.892)"><g class="i"><path d="M200.694,329.443c-.281.052-.776-1.966-2.047-5.428a49.993,49.993,0,0,0-7.455-13.509,48.148,48.148,0,0,0-7.4-7.576,47.2,47.2,0,0,0-10.294-6.364,46.232,46.232,0,0,0-12.81-3.688,45.811,45.811,0,0,0-7.047-.411A46.1,46.1,0,0,0,139.362,295a45.9,45.9,0,0,0-6.477,2.813,46.211,46.211,0,0,0-10.757,7.872,47.152,47.152,0,0,0-7.474,9.52,48.3,48.3,0,0,0-4.343,9.662,50,50,0,0,0-2.345,15.245c0,3.688.231,5.752-.053,5.8-.206.041-.91-1.947-1.35-5.724a43.583,43.583,0,0,1,1.3-16.036,47.2,47.2,0,0,1,11.91-20.808,45.671,45.671,0,0,1,5.271-4.655,46.232,46.232,0,0,1,6.174-3.985,47.943,47.943,0,0,1,6.966-3.087,48.257,48.257,0,0,1,15.4-2.732,48.15,48.15,0,0,1,7.6.5,48.11,48.11,0,0,1,13.718,4.174,47.191,47.191,0,0,1,18.347,15.435,43.612,43.612,0,0,1,6.744,14.611C200.88,327.3,200.9,329.408,200.694,329.443Z" transform="translate(-106.319 -288.876)"/></g></g><g class="i" transform="translate(40.898 28.827)"><path d="M154.929,359.607l1.3,8.1-7.235,1.156-1.264-7.885c-7.232.711-14.465-.429-18.942-2.9l2.564-9.465a29.628,29.628,0,0,0,14.861,2.889l-1.937-12.085c-8.343-.664-17.743-1.906-19.4-12.254-1.227-7.67,3.29-15.145,14.512-18.276l-1.286-8.034,7.235-1.159,1.264,7.889c5.5-.436,11.008.165,15.393,2.06l-2.191,9.48a30.042,30.042,0,0,0-11.674-1.991l1.97,12.3c8.333.593,17.589,1.86,19.222,12.06C170.525,349.021,166.069,356.414,154.929,359.607Zm-12.355-30.824-1.646-10.272c-3.7,1.482-4.878,3.823-4.5,6.212C136.837,327.253,139.229,328.283,142.575,328.783Zm15.238,15.447c-.406-2.535-2.724-3.571-6.01-4.16l1.6,9.985C156.892,348.681,158.182,346.546,157.813,344.231Z" transform="translate(-124.68 -299.696)"/></g><g transform="translate(15.217 54.801)"><path class="h" d="M107.248,331.12a1.464,1.464,0,0,1,.113.368c.068.29.153.648.258,1.091q.163.747.392,1.775a17.473,17.473,0,0,0,.619,2.4,47.278,47.278,0,0,0,6.788,14.138,48.8,48.8,0,0,0,7.2,8.107l2.314,1.878c.4.311.775.652,1.194.945s.856.57,1.289.857c.875.561,1.723,1.194,2.654,1.719q1.414.755,2.864,1.535a47.939,47.939,0,0,0,13.035,4.249,46.694,46.694,0,0,0,28.749-4.252,47.944,47.944,0,0,0,11.25-7.842q1.162-1.164,2.3-2.3c.739-.772,1.368-1.624,2.044-2.414l.985-1.193c.317-.4.58-.839.869-1.252q.85-1.253,1.672-2.467a48.917,48.917,0,0,0,4.54-9.844,47.288,47.288,0,0,0,2.4-15.5,17.721,17.721,0,0,0-.1-2.474c-.053-.7-.1-1.3-.138-1.811-.028-.454-.05-.822-.069-1.118a1.545,1.545,0,0,1,0-.386,1.369,1.369,0,0,1,.077.374c.038.295.085.66.146,1.112.059.51.13,1.112.211,1.813a16.575,16.575,0,0,1,.174,2.483,45.912,45.912,0,0,1-2.187,15.673,48.62,48.62,0,0,1-4.514,10.007q-.824,1.235-1.676,2.511c-.29.421-.555.866-.873,1.275l-.993,1.216c-.68.806-1.315,1.673-2.062,2.459l-2.321,2.343a48.246,48.246,0,0,1-11.4,8,47.147,47.147,0,0,1-29.21,4.321,48.347,48.347,0,0,1-13.225-4.358l-2.9-1.571c-.943-.536-1.8-1.184-2.683-1.757l-1.3-.876c-.423-.3-.806-.649-1.2-.968q-1.186-.974-2.331-1.917a48.727,48.727,0,0,1-7.218-8.274,45.943,45.943,0,0,1-6.632-14.368,16.687,16.687,0,0,1-.552-2.428c-.125-.694-.231-1.292-.323-1.8l-.183-1.106A1.448,1.448,0,0,1,107.248,331.12Z" transform="translate(-107.243 -317.333)"/></g></g></g><g transform="translate(41.528 637.523)"><path class="h" d="M1023.739,448.328c0,.212-219.894.383-491.082.383-271.284,0-491.129-.171-491.129-.383s219.845-.384,491.129-.384C803.845,447.944,1023.739,448.116,1023.739,448.328Z" transform="translate(-41.528 -447.944)"/></g><g transform="translate(542.031 79.206)"><g transform="translate(225.025 272.156)"><g transform="translate(4.686)"><path class="l" d="M560.4,263.514s-.115-9.8-.529-9.88l-20.141,4.481c-.212,1.275-2.754,17.354-2.318,18.918l22.658,6.285S560.4,264.083,560.4,263.514Z" transform="translate(-537.36 -253.634)"/></g><g transform="translate(0 5.007)"><g transform="translate(4.961 10.426)"><g transform="translate(16.955)"><path class="l" d="M554.888,276.874c.038-.021.072-.178.1-.443.231-2.194.09-11.771-1.078-12.181-1.311-.459-4.583.29-4.808,1.552s.542,12.041.542,12.041.23,1.7,3.085,2.11C554.493,280.208,554.888,276.874,554.888,276.874Z" transform="translate(-549.06 -264.114)"/></g><g transform="translate(11.21 3.445)"><path class="l" d="M550.988,279.213c.037-.021.071-.178.1-.443.233-2.194.091-11.771-1.078-12.181-1.309-.46-4.583.29-4.808,1.552s.542,12.041.542,12.041.23,1.7,3.085,2.11C550.592,282.547,550.988,279.213,550.988,279.213Z" transform="translate(-545.159 -266.453)"/></g><g transform="translate(5.59 5.164)"><path class="l" d="M547.171,280.38c.038-.019.072-.177.1-.442.231-2.2.09-11.773-1.078-12.182-1.311-.458-4.583.29-4.808,1.552s.542,12.042.542,12.042.23,1.7,3.085,2.109C546.774,283.714,547.171,280.38,547.171,280.38Z" transform="translate(-541.343 -267.62)"/></g><g transform="translate(0 6.779)"><path class="l" d="M543.375,281.478c.038-.021.072-.178.1-.443.231-2.194.09-11.773-1.078-12.182-1.311-.458-4.583.29-4.808,1.552s.542,12.042.542,12.042.23,1.7,3.085,2.109C542.98,284.812,543.375,281.478,543.375,281.478Z" transform="translate(-537.547 -268.717)"/></g><g transform="translate(16.769 4.489)"><path class="m" d="M549.117,267.162a18.8,18.8,0,0,1,.449,4.661c.083,2.561.016,4.626-.149,4.613a18.851,18.851,0,0,1-.448-4.663C548.886,269.213,548.953,267.147,549.117,267.162Z" transform="translate(-548.933 -267.162)"/></g><g transform="translate(11.159 4.457)"><path class="m" d="M545.271,267.14c.166,0,.406,2.963.536,6.629a36.959,36.959,0,0,1-.065,6.649c-.166.006-.406-2.962-.538-6.629S545.1,267.147,545.271,267.14Z" transform="translate(-545.124 -267.14)"/></g><g class="n" transform="translate(5.422 4.933)"><path class="m" d="M541.375,267.463c.166-.006.406,2.962.538,6.627s.1,6.645-.066,6.651-.406-2.962-.536-6.629S541.209,267.469,541.375,267.463Z" transform="translate(-541.228 -267.463)"/></g></g><path class="l" d="M541.1,257.034s-7.972,18.111-6.807,19.236a26.669,26.669,0,0,0,4.906,2.851Z" transform="translate(-534.178 -257.034)"/></g></g><g transform="translate(132.705)"><g transform="translate(1.177 5.876)"><path class="l" d="M526.278,101.188l-5.841,67.736-33.925-2.71c-.211-3.962.072-19.285.072-19.285s-14.116-2.194-14.29-16.307c-.084-6.852.9-21.018,1.926-33.778A26.117,26.117,0,0,1,501.78,72.87h0A26.118,26.118,0,0,1,526.278,101.188Z" transform="translate(-472.29 -72.824)"/><g transform="translate(14.239 68.672)"><path class="o" d="M481.99,124.684a32.81,32.81,0,0,0,18.4-5.23s-4.349,10.157-18.431,8.886Z" transform="translate(-481.958 -119.454)"/></g><g transform="translate(4.917 21.411)"><g transform="translate(0 7.602)"><g transform="translate(0.773 3.074)"><path class="h" d="M476.154,96.434a2.015,2.015,0,0,0,1.944,2.034,1.927,1.927,0,0,0,2.077-1.817,2.017,2.017,0,0,0-1.941-2.035A1.931,1.931,0,0,0,476.154,96.434Z" transform="translate(-476.153 -94.612)"/></g><path class="h" d="M475.66,94.643c.249.264,1.776-.867,3.945-.862,2.166-.025,3.757,1.091,3.992.826.116-.118-.138-.594-.832-1.1a5.517,5.517,0,0,0-3.2-.985,5.319,5.319,0,0,0-3.141,1.013C475.762,94.051,475.537,94.525,475.66,94.643Z" transform="translate(-475.628 -92.525)"/><g transform="translate(21.318 0.405)"><g transform="translate(0.809 2.67)"><path class="h" d="M490.654,96.433a2.015,2.015,0,0,0,1.943,2.034,1.929,1.929,0,0,0,2.078-1.817,2.016,2.016,0,0,0-1.943-2.034A1.927,1.927,0,0,0,490.654,96.433Z" transform="translate(-490.653 -94.613)"/></g><path class="h" d="M490.135,94.918c.25.264,1.779-.867,3.947-.862,2.165-.025,3.757,1.091,3.992.825.115-.118-.137-.591-.832-1.1a5.528,5.528,0,0,0-3.2-.985,5.308,5.308,0,0,0-3.14,1.013C490.24,94.326,490.013,94.8,490.135,94.918Z" transform="translate(-490.103 -92.8)"/></g><g transform="translate(7.953 0.536)"><path class="h" d="M486.553,110.959a14.284,14.284,0,0,0-3.521-.635c-.554-.057-1.078-.168-1.172-.545a2.829,2.829,0,0,1,.37-1.642q.782-2.01,1.639-4.216c2.274-6,3.92-10.942,3.677-11.031s-2.283,4.7-4.558,10.708c-.546,1.48-1.071,2.891-1.568,4.243a3.2,3.2,0,0,0-.287,2.172,1.389,1.389,0,0,0,.912.81,3.7,3.7,0,0,0,.94.131A14.085,14.085,0,0,0,486.553,110.959Z" transform="translate(-481.028 -92.889)"/></g><g transform="translate(12.948 20.107)"><path class="h" d="M491.333,106.178c-.352-.021-.356,2.334-2.371,4s-4.521,1.412-4.54,1.741c-.032.147.56.458,1.618.486a5.853,5.853,0,0,0,3.789-1.32,5.1,5.1,0,0,0,1.838-3.358C491.757,106.748,491.495,106.165,491.333,106.178Z" transform="translate(-484.42 -106.178)"/></g></g><g transform="translate(20.779)"><path class="h" d="M489.749,88.989c.214.589,2.378.311,4.923.617,2.551.255,4.6,1,4.941.471.15-.253-.208-.807-1.038-1.378a8.615,8.615,0,0,0-7.514-.829C490.127,88.245,489.656,88.709,489.749,88.989Z" transform="translate(-489.737 -87.363)"/></g><g transform="translate(0.773 1.198)"><path class="h" d="M476.209,90.422c.381.493,1.875-.018,3.673-.043,1.8-.087,3.317.331,3.667-.184.153-.25-.085-.744-.751-1.209a5.319,5.319,0,0,0-5.914.183C476.249,89.675,476.041,90.182,476.209,90.422Z" transform="translate(-476.153 -88.176)"/></g></g></g><path class="h" d="M529.685,94.346c-.806,6.86-2.674,15.53-3.216,22.541a3.46,3.46,0,0,1-.5,1.844c-1.006,1.336-3.4,4.216-4.62,3.076-2.972-2.77-4.137-10.524-4.727-14.544s-.49-8.115-1.043-12.14c-.012-.09-.025-.186-.04-.284a11.1,11.1,0,0,0-4.1-7.156,7.568,7.568,0,0,0-1.66-.879c-4.144-1.461-11.06,1.24-15.188,2.745-2.134.778-4.2,1.736-6.265,2.674A14.622,14.622,0,0,1,473.753,91c-2.512-1.817-2.733-7.576-1.633-11.215,2.973-9.832,15.34-13.215,31.2-9.459C519.058,74.056,531.295,80.244,529.685,94.346Z" transform="translate(-471.491 -68.834)"/><g transform="translate(49.856 40.181)"><path class="l" d="M505.895,96.563c.242-.1,9.7-2.869,9.39,6.78s-9.932,7.349-9.941,7.07S505.895,96.563,505.895,96.563Z" transform="translate(-505.344 -96.118)"/><g transform="translate(3.055 3.158)"><path class="o" d="M507.428,105.839c.044-.029.165.124.445.262a1.68,1.68,0,0,0,1.255.066c1.032-.342,1.941-1.932,2.044-3.67a5.551,5.551,0,0,0-.393-2.421,1.94,1.94,0,0,0-1.224-1.33.853.853,0,0,0-1.006.429c-.138.265-.084.459-.135.474-.027.024-.2-.168-.11-.564a1.076,1.076,0,0,1,.4-.592,1.272,1.272,0,0,1,.938-.216,2.366,2.366,0,0,1,1.708,1.552,5.722,5.722,0,0,1,.5,2.708c-.124,1.943-1.177,3.729-2.585,4.088a1.8,1.8,0,0,1-1.529-.3C507.438,106.073,507.394,105.855,507.428,105.839Z" transform="translate(-507.418 -98.262)"/></g></g><g transform="translate(44.181 26.141)"><path class="p" d="M515.352,86.61c.112.155-2.844,1.789-6.9,1.839-4.056.094-7.067-1.431-6.961-1.589.075-.225,3.078.919,6.947.823C512.31,87.641,515.269,86.389,515.352,86.61Z" transform="translate(-501.49 -86.584)"/></g><g transform="translate(44.419 28.9)"><path class="p" d="M514.939,88.484c.116.152-2.7,1.786-6.609,1.839-3.907.094-6.785-1.434-6.674-1.589.078-.224,2.948.917,6.66.823C512.026,89.514,514.852,88.263,514.939,88.484Z" transform="translate(-501.652 -88.458)"/></g></g><g transform="translate(102.838 504.445)"><g transform="translate(0.089)"><path class="h" d="M471.614,416.505l6.268,28.868s-27.239,16.067-26.6,21.515l56.41-10.143-7.92-45.381Z" transform="translate(-451.27 -411.364)"/></g><g transform="translate(0 40.838)"><path class="p" d="M507.721,443.637l-.976-4.543-53.721,11.424s-2.315,1.545-1.713,3.262Z" transform="translate(-451.21 -439.094)"/></g></g><g transform="translate(158.278 512.763)"><g transform="translate(0.021)"><path class="h" d="M518,417.012l.931,29.526s-29.7,10.863-30.059,16.337l57.316.25.437-46.066Z" transform="translate(-488.87 -417.012)"/></g><g class="q" transform="translate(0 41.468)"><path class="p" d="M546.193,449.815l-.138-4.645-54.9,1.5s-2.557,1.1-2.277,2.9Z" transform="translate(-488.855 -445.17)"/></g></g><g transform="translate(90.776 231.684)"><g transform="translate(0 127.903)"><path class="h" d="M472.424,487.762s-29.38-144.126-29.4-147.011L495.5,313l20.323,169.144Z" transform="translate(-443.02 -313.002)"/></g><g transform="translate(54.91 3.811)"><path class="h" d="M520.89,532.421,480.3,282.62V228.741l55.444,5.146c.7,2.1,18.852,298.866,18.852,298.866l-5.723-.331H520.89" transform="translate(-480.305 -228.741)"/></g><g transform="translate(0.001)"><path class="h" d="M466.027,226.153,443.02,381.8l51.436-12.475,20.967-138.116Z" transform="translate(-443.02 -226.153)"/></g><g transform="translate(70.591 13.197)"><path class="p" d="M490.953,235.114s.007.259.056.763c.057.532.135,1.271.237,2.234.227,1.988.555,4.875.978,8.577.878,7.447,2.2,18.216,3.932,31.509,3.433,26.593,8.643,63.263,14.238,103.781,2.789,20.269,5.35,39.588,7.537,57.178.564,4.4,1.012,8.693,1.635,12.855s1.255,8.179,1.853,12.075c1.18,7.791,2.28,15.05,3.284,21.678,1.991,13.256,3.565,23.989,4.6,31.413.515,3.713.9,6.6,1.122,8.556.113.979.19,1.727.222,2.23a3.749,3.749,0,0,1,.007.567c-.016.161-.091-.012-.087.021a.167.167,0,0,0,.019.047c.018.057.109.013.1-.06a2.926,2.926,0,0,0,.029-.577c-.009-.507-.062-1.259-.152-2.241-.183-1.968-.518-4.86-.993-8.578-.947-7.437-2.446-18.182-4.374-31.448-.979-6.635-2.05-13.9-3.2-21.693q-.879-5.847-1.817-12.081c-.608-4.144-1.049-8.45-1.6-12.843-2.152-17.6-4.693-36.922-7.483-57.192-5.6-40.523-10.885-77.179-14.443-103.751-1.751-13.269-3.169-24.017-4.154-31.478-.479-3.7-.851-6.576-1.109-8.561-.133-.959-.233-1.7-.306-2.225C491.009,235.369,490.953,235.114,490.953,235.114Z" transform="translate(-490.953 -235.114)"/></g><g transform="translate(13.31 17.257)"><path class="p" d="M478.4,521.94s-.021-.252-.1-.739c-.083-.514-.2-1.231-.351-2.159-.328-1.923-.806-4.713-1.417-8.291-1.267-7.222-3.09-17.625-5.341-30.469-4.582-25.74-10.9-61.254-17.885-100.48a23.376,23.376,0,0,1-.433-7.28c.309-2.406.711-4.842,1.065-7.235q1.113-7.193,2.191-14.163c1.462-9.281,2.9-18.229,4.327-26.744,2.831-17.033,5.564-32.341,8.007-45.168s4.593-23.173,6.227-30.289c.772-3.568,1.47-6.315,1.9-8.188.212-.916.376-1.624.493-2.131.108-.482.144-.732.144-.732s-.084.239-.215.714c-.133.5-.32,1.2-.561,2.113-.477,1.863-1.219,4.6-2.032,8.162-1.717,7.1-3.938,17.438-6.449,30.257s-5.291,28.123-8.159,45.155c-1.44,8.515-2.9,17.462-4.368,26.744q-1.082,6.965-2.2,14.164c-.358,2.408-.756,4.8-1.072,7.271a24.106,24.106,0,0,0,.442,7.492c7.06,39.2,13.453,74.7,18.086,100.428,2.345,12.826,4.243,23.216,5.561,30.428.669,3.568,1.188,6.349,1.548,8.268q.269,1.383.42,2.146C478.333,521.7,478.4,521.94,478.4,521.94Z" transform="translate(-452.058 -237.871)"/></g><g transform="translate(54.899 55.927)"><path class="p" d="M480.308,264.129c-.191.031,2.206,16.169,5.355,36.041s5.86,35.965,6.053,35.934-2.2-16.166-5.355-36.044S480.5,264.1,480.308,264.129Z" transform="translate(-480.298 -264.129)"/></g><g transform="translate(95.009 306.993)"><path class="p" d="M507.533,434.659a4.986,4.986,0,0,0,1.328.231c.86.1,2.106.221,3.648.342,3.084.242,7.353.468,12.073.546s9-.009,12.087-.147c1.545-.069,2.794-.146,3.655-.221a5.047,5.047,0,0,0,1.337-.187,38.816,38.816,0,0,0-5.006-.091c-3.087.012-7.352.018-12.061-.059s-8.97-.225-12.057-.34A39.092,39.092,0,0,0,507.533,434.659Z" transform="translate(-507.533 -434.608)"/></g><g transform="translate(29.404 297.019)"><path class="p" d="M462.986,433.479a8.131,8.131,0,0,0,1.723-.085l4.666-.5c3.935-.449,9.363-1.116,15.354-1.9s11.413-1.521,15.334-2.09l4.636-.707a9.294,9.294,0,0,0,1.689-.342,7.131,7.131,0,0,0-1.723.069c-1.1.1-2.7.262-4.667.483-3.935.443-9.366,1.106-15.359,1.886s-11.412,1.524-15.329,2.1l-4.636.719A8.046,8.046,0,0,0,462.986,433.479Z" transform="translate(-462.986 -427.836)"/></g></g><g transform="translate(28.098 86.022)"><g transform="translate(0 16.29)"><path class="p" d="M415.3,175.673l33.095,25.164s30.79-52.509,33.51-55.773,9.637-6.758,9.637-6.758l-3.825,67.325s-16.653,42.5-39.507,40.192c-17.5-1.767-47.748-47.938-47.748-47.938Z" transform="translate(-400.46 -138.306)"/><g class="r" transform="translate(42.698 61.739)"><path d="M434.072,180.228a29.068,29.068,0,0,0-3.346,24.21,3.578,3.578,0,0,0,1.339,2.132,2.607,2.607,0,0,0,3.314-1.1,7.57,7.57,0,0,0,.854-3.724,8.566,8.566,0,0,0,2.446,3.2,2.937,2.937,0,0,0,3.724-.128c1.1-1.212.495-3.125-.166-4.621q-4.228-9.583-8.458-19.164" transform="translate(-429.453 -180.228)"/></g><g transform="translate(7.245 44.906)"><path class="h" d="M421.3,168.8c.208.133-3.184,5.817-7.576,12.693s-8.125,12.346-8.333,12.213,3.183-5.817,7.576-12.7S421.088,168.667,421.3,168.8Z" transform="translate(-405.38 -168.798)"/></g><g transform="translate(13.82 43.66)"><path class="h" d="M410.764,168.277c-.09-.075.337-.514,1.094-.231a1.467,1.467,0,1,1-1.978,1.04c.2-.783.8-.887.81-.769.063.112-.212.364-.181.844.016.505.42.969,1.015.652a.67.67,0,0,0,.04-1.2C411.185,168.31,410.822,168.394,410.764,168.277Z" transform="translate(-409.844 -167.952)"/></g><g transform="translate(46.462 62.568)"><path class="h" d="M433.518,196.706c-.214.078-1.449-3.415-1.505-7.935-.084-4.521,1.043-8.05,1.258-7.979.264.057-.445,3.58-.359,7.964C432.962,193.141,433.779,196.64,433.518,196.706Z" transform="translate(-432.009 -180.791)"/></g><g transform="translate(47.61 62.623)"><path class="h" d="M439.562,196.464c-.2.125-2.37-3.075-4.241-7.442-1.888-4.361-2.724-8.134-2.5-8.193.25-.072,1.458,3.54,3.32,7.838C437.99,192.97,439.786,196.331,439.562,196.464Z" transform="translate(-432.788 -180.828)"/></g></g><g transform="translate(81.443)"><path class="p" d="M534.63,137.137l-5-9.892H493.443l-5.689,11.231L465.4,143.535,455.767,287.7a9.979,9.979,0,0,0,1.278,5.228h0l87.906,3.377,3.579,1.462c3.155-1.943,1.186-9.976,1.224-13.749l1.127-71.4,17.391-57.05Z" transform="translate(-455.761 -127.245)"/><g class="r" transform="translate(41.362 0.785)"><path d="M483.847,141.884l6.394-6.393q3.594,8.664,7.185,17.329a181.79,181.79,0,0,0,23.54-16.477l-24.35,7.814-6.172-16.379a62.567,62.567,0,0,1-6.118,14.178" transform="translate(-483.847 -127.778)"/></g><g transform="translate(95.119 28.325)"><path class="p" d="M568.6,308.819,544.9,310.045l-.053-67.995-24.5-38.523,17.391-57.05c3.584,1.411,30.576,69.194,37.451,87.6a20.662,20.662,0,0,1,1.278,8.313Z" transform="translate(-520.349 -146.478)"/></g><g transform="translate(3.461 46.047)"><path class="h" d="M464.287,158.512c.246.024-.929,13.967-2.626,31.137s-3.271,31.076-3.517,31.051.928-13.963,2.624-31.139S464.04,158.487,464.287,158.512Z" transform="translate(-458.112 -158.512)"/></g><g transform="translate(33.655 0.831)"><path class="h" d="M492.9,127.81c.23.094-1.7,5.283-4.308,11.587-.165.395-.325.782-.486,1.166a2.885,2.885,0,0,1-.788,1.2,1.442,1.442,0,0,1-1.57.1,11.446,11.446,0,0,1-1.009-.632q-1.716-1.164-3.253-2.2a14.728,14.728,0,0,1-2.873-2.222,14.646,14.646,0,0,1,3.216,1.689l3.358,2.041c.644.4,1.292.876,1.586.535a7.392,7.392,0,0,0,.99-2.021C490.375,132.75,492.675,127.715,492.9,127.81Z" transform="translate(-478.614 -127.809)"/></g><g transform="translate(47.957 1.313)"><path class="h" d="M517.09,136.486a39.266,39.266,0,0,1-5.524,2.225c-3.451,1.267-8.238,2.957-13.542,4.773l-2.9.985-.395.135-.159-.383c-1.869-4.517-3.479-8.517-4.6-11.4a29.739,29.739,0,0,1-1.639-4.686,29.819,29.819,0,0,1,2.181,4.461c1.262,2.82,2.975,6.777,4.873,11.282l-.552-.249,2.894-1c5.3-1.814,10.125-3.411,13.627-4.523A39.007,39.007,0,0,1,517.09,136.486Z" transform="translate(-488.325 -128.136)"/></g><g transform="translate(87.347 30.332)"><path class="h" d="M536.515,147.872c.069.262-5.025,1.642-10.932,4.289-5.923,2.616-10.357,5.473-10.508,5.246a11.562,11.562,0,0,1,2.766-2.1,56.311,56.311,0,0,1,15.262-6.788A11.457,11.457,0,0,1,536.515,147.872Z" transform="translate(-515.072 -147.841)"/></g><g transform="translate(36.148 0.832)"><path class="h" d="M492.1,127.81a1.5,1.5,0,0,1,.05.43c.016.337.035.754.057,1.265.035,1.113.1,2.755.121,4.87.046,4.23.021,10.353-.275,17.914-.542,15.123-2.431,35.959-5.449,58.836-1.467,11.449-3.082,22.322-4.172,32.248A208.991,208.991,0,0,0,481,269.829a134.663,134.663,0,0,0,1.406,17.8c.256,2.1.594,3.7.754,4.8.077.507.138.917.19,1.252a1.484,1.484,0,0,1,.034.433,1.61,1.61,0,0,1-.124-.414c-.075-.331-.166-.736-.278-1.237-.218-1.091-.611-2.691-.92-4.785a122.567,122.567,0,0,1-1.7-17.843,199.9,199.9,0,0,1,1.246-26.556c1.047-9.955,2.638-20.836,4.1-32.276,3.015-22.864,5-43.654,5.705-58.749.375-7.546.5-13.661.56-17.886q.031-3.086.049-4.867c.012-.512.022-.928.031-1.267A1.669,1.669,0,0,1,492.1,127.81Z" transform="translate(-480.306 -127.81)"/></g><g transform="translate(119.577 178.883)"><path class="h" d="M562.028,250.085c-.012.247-5.635.174-12.556-.166s-12.527-.816-12.515-1.062,5.635-.174,12.559.166S562.042,249.838,562.028,250.085Z" transform="translate(-536.957 -248.711)"/></g><g transform="translate(123.071 182.445)"><path class="h" d="M539.887,251.591c.08.1-.04.337.075.642.136.336.38.5.7.249s.2-.53-.1-.733c-.274-.178-.53-.112-.611-.209-.1-.065.155-.49.8-.4a1.146,1.146,0,0,1,.87.68,1.239,1.239,0,0,1-1.808,1.458,1.147,1.147,0,0,1-.48-.994C539.376,251.639,539.846,251.481,539.887,251.591Z" transform="translate(-539.329 -251.129)"/></g><g class="r" transform="translate(86.262 71.239)"><path d="M523.538,189.573q-3.861-6.976-7.724-13.955a191.86,191.86,0,0,0,5.1,73.554q1.191-29.65,2.383-59.3" transform="translate(-514.335 -175.618)"/></g><g transform="translate(54.678 59.175)"><path class="h" d="M494.465,167.819a7.767,7.767,0,0,1,1.4-.091c1.077-.028,2.446-.062,4.121-.1,3.571-.074,8.738-.158,14.951-.2l.421,0-.031.424c-.4,5.439-.865,11.745-1.358,18.463l-.018.247-.219.115-.919.486c-3.48,1.828-6.841,3.593-10.009,5.259l-.253.133-.219-.178-9.288-7.6-.15-.122.016-.187c.434-4.994.8-9.156,1.065-12.231.134-1.336.245-2.433.333-3.314a5.469,5.469,0,0,1,.162-1.106,8.222,8.222,0,0,1-.006,1.258c-.04.9-.09,2.032-.15,3.4-.171,3.028-.4,7.123-.677,12.039l-.134-.308c2.813,2.249,5.967,4.769,9.372,7.492l-.471-.046,9.991-5.291.919-.484-.237.362c.536-6.717,1.038-13.019,1.471-18.456l.39.421c-6.047-.038-11.116-.124-14.712-.2-1.707-.041-3.1-.075-4.2-.1A11.205,11.205,0,0,1,494.465,167.819Z" transform="translate(-492.889 -167.426)"/></g><g transform="translate(8.913 161.011)"><path class="h" d="M465.69,241.968c-.018.246-1.856-.088-3.04-1.87-1.206-1.769-.823-3.6-.589-3.52.259.01.311,1.546,1.333,3.019C464.375,241.1,465.777,241.725,465.69,241.968Z" transform="translate(-461.813 -236.575)"/></g><g transform="translate(12.31 156.602)"><path class="h" d="M466.893,242.43c-.155.175-1.822-1.414-2.482-4.078-.686-2.66.026-4.85.245-4.769.262.044-.009,2.122.624,4.549C465.875,240.567,467.1,242.267,466.893,242.43Z" transform="translate(-464.12 -233.582)"/></g><g transform="translate(75.335 155.539)"><path class="h" d="M513.013,232.86c.221-.037.436,3.461-1.373,7.257-1.772,3.814-4.6,5.879-4.714,5.686-.193-.2,2.231-2.452,3.9-6.068C512.548,236.144,512.739,232.838,513.013,232.86Z" transform="translate(-506.916 -232.86)"/></g></g></g><g transform="translate(0 119.072)"><path class="l" d="M422.472,173.053s-26.771-20.281-30.523-21.64c-6.224-2.253-7.723-1.654-7.723-1.654l14.684,15.82s-15.522,5.237-16.642,5.851c-1.25.683-1.673,4.035,2.1,4.035,3.1,0,17.992.346,17.992.346l12.278,8.966Z" transform="translate(-381.381 -149.687)"/></g></g><g transform="translate(768.509 46.892)"><path class="h" d="M586.669,46.912a4.818,4.818,0,0,1,.882-.015l2.6.074c.57.027,1.212.025,1.914.084.7.1,1.465.206,2.289.323l2.673.384,2.987.739a48.342,48.342,0,0,1,14.471,6.311A51.067,51.067,0,0,1,637.939,93.2a53.107,53.107,0,0,1,.141,7c-.082,1.183-.059,2.386-.231,3.579s-.361,2.395-.543,3.605a51.338,51.338,0,0,1-4.863,14.241,54.886,54.886,0,0,1-9.3,12.8,53.813,53.813,0,0,1-13.4,9.627,48.708,48.708,0,0,1-16.335,5.013,32.489,32.489,0,0,1-4.356.371,39.179,39.179,0,0,1-4.4.08,52.2,52.2,0,0,1-8.823-1.115,51.545,51.545,0,0,1-17.562-7.39l.533.054L540.9,148.24l-1.059.426.3-1.1,5.259-19.125.09.473a51.322,51.322,0,0,1-9.546-21.853,46.544,46.544,0,0,1-.7-11.2,35.913,35.913,0,0,1,.508-5.377q.2-1.317.406-2.617c.159-.86.421-1.694.624-2.533a51.156,51.156,0,0,1,19.96-29.095,48.909,48.909,0,0,1,11.877-6.266l2.674-.957,2.54-.645q1.215-.3,2.324-.576c.745-.144,1.464-.221,2.138-.324,1.353-.171,2.54-.4,3.582-.457l2.629-.088,1.607-.035a2.353,2.353,0,0,1,.543.019,2.487,2.487,0,0,1-.543.074l-1.6.127-2.613.177c-1.032.08-2.209.342-3.548.539a50.874,50.874,0,0,0-40.677,37.735c-.194.823-.449,1.644-.6,2.489q-.19,1.277-.386,2.571a35.223,35.223,0,0,0-.473,5.28,45.565,45.565,0,0,0,.725,10.976,50.413,50.413,0,0,0,9.415,21.378l.162.214-.071.259-5.221,19.135-.756-.674,17.88-7.2.28-.113.253.168a50.512,50.512,0,0,0,17.17,7.218,51.344,51.344,0,0,0,8.623,1.091,38.5,38.5,0,0,0,4.306-.078,31.809,31.809,0,0,0,4.261-.359,47.677,47.677,0,0,0,15.974-4.886,52.722,52.722,0,0,0,13.128-9.394,53.942,53.942,0,0,0,9.135-12.506,50.481,50.481,0,0,0,4.81-13.935q.274-1.778.545-3.532c.175-1.169.155-2.35.242-3.509a49.784,49.784,0,0,0-8.324-30.31,51.608,51.608,0,0,0-14.637-14.487,48.648,48.648,0,0,0-14.237-6.418l-2.948-.786-2.644-.434-2.269-.373c-.7-.078-1.333-.1-1.9-.141l-2.582-.187A5.036,5.036,0,0,1,586.669,46.912Z" transform="translate(-535.165 -46.892)"/><g transform="translate(25.624 33.713)"><path class="s" d="M595.187,99.442a3.522,3.522,0,0,1-.605.043l-1.738.046-6.436.1c-5.493.05-13.076.118-21.607.193l-.177,0-.025-.175c-.166-1.143-.343-2.352-.523-3.577-1.495-10.472-2.829-19.82-3.7-25.928l.13.11-5.755-.025-1.532-.025a2.8,2.8,0,0,1-.527-.034,2.962,2.962,0,0,1,.527-.038l1.53-.043L560.5,70l.112,0,.016.113c.907,6.1,2.294,15.441,3.85,25.906.178,1.225.355,2.434.52,3.577l-.2-.174,21.607-.06,6.437.024,1.738.027A3.956,3.956,0,0,1,595.187,99.442Z" transform="translate(-552.505 -69.684)"/><path class="s" d="M565.312,100.151l-.056-.047-.73.006-.108-.728-.054-.047h.047l-.025-.177-.433-2.959L560.29,70.538l-7.017-.049c-.614-.018-.708-.021-.708-.218V70.2l.044-.052c.057-.068.069-.081.66-.1l1.533-.043,5.4-.088-.019-.134.153.133.495-.007.043.271c.009.075.021.153.032.23l.153.133h-.133c.906,6.109,2.271,15.287,3.8,25.546l.47,3.247,21.273-.062,8.178.052c.7.018.785.019.785.218s-.072.2-.78.227l-1.741.047-6.437.1L565.3,100.1Zm-.066-.451.006.035L571,99.684Zm-1.909-10.433,1.446,10.066h.038l-.464-3.193C564.008,93.783,563.665,91.486,563.337,89.268Z" transform="translate(-552.564 -69.784)"/></g><g transform="translate(34.136 38.282)"><path class="s" d="M561.151,91.885a.515.515,0,0,1,.152-.018l.449-.019,1.738-.043,6.5-.1,22.425-.2-.193.162c.644-3.779,1.337-7.864,2.056-12.092.373-2.175.738-4.312,1.087-6.349l.2.236-26.431.087-7.826-.015-2.109-.024-.546-.015a.764.764,0,0,1-.186-.018.66.66,0,0,1,.186-.021l.546-.022c.51-.01,1.213-.027,2.107-.047l7.826-.107,26.429-.222.24,0-.04.239c-.348,2.037-.711,4.175-1.083,6.349-.725,4.228-1.424,8.313-2.072,12.091l-.026.162h-.165l-22.425.06-6.5-.019-1.738-.022L561.3,91.9A.492.492,0,0,1,561.151,91.885Z" transform="translate(-558.285 -72.807)"/><path class="s" d="M570.053,92.221l-8.7-.056c-.156-.007-.33-.016-.33-.2s.172-.193.325-.2l2.193-.062,6.505-.1,22.105-.2,2-11.779c.343-2.015.682-4,1.007-5.9l-25.971.085-10.487-.053c-.2-.009-.364-.018-.364-.2s.168-.193.359-.2l2.66-.069,7.827-.108,26.108-.219.012-.071.06.069.71-.006-.119.7.06.071h-.072L592.929,91.4h.054l-.065.056-.124.708h-.716l-.062.053.007-.053Zm22.037-.448-3.263.029Zm3.449-18.047c-.328,1.92-.672,3.923-1.019,5.96L592.528,91.4h.025l3.022-17.674Zm-.3-.4-6.473.054,6.467-.021Z" transform="translate(-558.344 -72.887)"/></g><g transform="translate(39.098 68.472)"><path class="s" d="M568.121,96.707c-.038,0-.041-.271-.177-.722a3.037,3.037,0,0,0-1.125-1.571,2.864,2.864,0,1,0,.026,4.6,3.035,3.035,0,0,0,1.108-1.585c.13-.452.13-.725.168-.723a1.558,1.558,0,0,1-.015.761,3.014,3.014,0,0,1-1.084,1.775,3.167,3.167,0,0,1-3.022.518,3.213,3.213,0,0,1-.035-6.06,3.169,3.169,0,0,1,3.028.482,3.021,3.021,0,0,1,1.1,1.763A1.557,1.557,0,0,1,568.121,96.707Z" transform="translate(-561.654 -93.326)"/><path class="s" d="M565.1,100.184A3.318,3.318,0,0,1,564,100a3.4,3.4,0,0,1-.034-6.409,3.352,3.352,0,0,1,3.2.514,3.216,3.216,0,0,1,1.171,1.87,2.3,2.3,0,0,1,.034.8,2.36,2.36,0,0,1-.026.8,3.215,3.215,0,0,1-1.15,1.885A3.337,3.337,0,0,1,565.1,100.184Zm-.638-6.361a3.351,3.351,0,0,0-.374.11,3.03,3.03,0,0,0,.028,5.713,3.155,3.155,0,0,0,.377.106,3.32,3.32,0,0,1-.371-.112,3.039,3.039,0,0,1-.03-5.7A3.339,3.339,0,0,1,564.461,93.823Zm.71.284a2.63,2.63,0,0,0-.951.177,2.672,2.672,0,0,0,.025,5.01,2.728,2.728,0,0,0,2.549-.365,2.868,2.868,0,0,0,1.041-1.49,4.467,4.467,0,0,0,.119-.546c.007-.041.015-.084.024-.124-.01-.041-.018-.085-.025-.127a4.517,4.517,0,0,0-.127-.545,2.865,2.865,0,0,0-1.056-1.474A2.731,2.731,0,0,0,565.171,94.108Z" transform="translate(-561.713 -93.386)"/></g><g transform="translate(58.655 68.355)"><path class="s" d="M581.4,96.63c-.038,0-.041-.271-.177-.722a3.029,3.029,0,0,0-1.125-1.571,2.864,2.864,0,1,0,.028,4.6,3.039,3.039,0,0,0,1.106-1.585c.13-.452.13-.725.168-.723a1.556,1.556,0,0,1-.015.761,3.014,3.014,0,0,1-1.084,1.775,3.166,3.166,0,0,1-3.022.518,3.214,3.214,0,0,1-.035-6.062,3.173,3.173,0,0,1,3.028.483,3.022,3.022,0,0,1,1.1,1.763A1.557,1.557,0,0,1,581.4,96.63Z" transform="translate(-574.934 -93.246)"/><path class="s" d="M578.377,100.108a3.305,3.305,0,0,1-1.1-.189,3.4,3.4,0,0,1-.034-6.411,3.33,3.33,0,0,1,3.2.515,3.213,3.213,0,0,1,1.169,1.869,2.264,2.264,0,0,1,.035.8,2.4,2.4,0,0,1-.025.8,3.212,3.212,0,0,1-1.152,1.885A3.341,3.341,0,0,1,578.377,100.108Zm-.658-6.356a2.917,2.917,0,0,0-.353.1,3.03,3.03,0,0,0,.028,5.713,2.936,2.936,0,0,0,.424.116,2.972,2.972,0,0,1-.417-.122,3.039,3.039,0,0,1-.031-5.7A3.185,3.185,0,0,1,577.719,93.752Zm.731.28a2.636,2.636,0,0,0-.951.177,2.67,2.67,0,0,0,.026,5.009,2.724,2.724,0,0,0,2.546-.365,2.838,2.838,0,0,0,1.041-1.49,4.766,4.766,0,0,0,.121-.545,1.167,1.167,0,0,1,.025-.125c-.012-.041-.019-.085-.027-.127a4.383,4.383,0,0,0-.127-.543,2.858,2.858,0,0,0-1.057-1.476A2.736,2.736,0,0,0,578.45,94.032Z" transform="translate(-574.993 -93.307)"/></g></g></g></svg>