<svg xmlns="http://www.w3.org/2000/svg" width="340.078" height="352.551" viewBox="0 0 340.078 352.551"><defs><style>.a{fill:#fafafa;}.b,.f{fill:#e0e0e0;}.b,.c,.d{fill-rule:evenodd;}.c,.g{fill:#f5f5f5;}.d,.e{fill:#ebebeb;}.h{fill:#455a64;}.i{fill:#263238;}.j{fill:#2680eb;}.k{fill:#0a437d;}.l{fill:#0894fe;}.m{fill:#75c6fa;}.n{fill:#0048cd;}.o{fill:#fff;}.p{fill:#e8505b;}.q{opacity:0.2;}.r{fill:#f2f2f2;}.s{fill:#c4c9ce;}.t{opacity:0.3;}.u{fill:#99a2ab;}</style></defs><g transform="translate(-19.527 -83.484)"><path class="a" d="M64.932,194.056l-3.24.005a2.482,2.482,0,0,0-.975.106,1.525,1.525,0,0,0-.772.684,1.62,1.62,0,0,0-.181.518,3.365,3.365,0,0,0-.024.572v.6a2.8,2.8,0,0,1-.038.616,1.633,1.633,0,0,1-.723,1.04,1.519,1.519,0,0,1-.636.224c-.231.021-.455.006-.687.011h-2.9l-6.586,0H45.9a1.752,1.752,0,0,1-.47-.046,1.555,1.555,0,0,1-.807-.5,1.653,1.653,0,0,1-.394-.877,3.612,3.612,0,0,1-.017-.486v-.484a2.575,2.575,0,0,0-.1-.953,1.556,1.556,0,0,0-.579-.756,1.512,1.512,0,0,0-.932-.257H35.131a5.162,5.162,0,0,0-2.179.413,5.1,5.1,0,0,0-1.814,1.353,4.985,4.985,0,0,0-1.026,2.065c-.051.19-.065.387-.1.581-.008.165-.017.33-.022.5v79.663a5.179,5.179,0,0,0,.2,1.568,4.962,4.962,0,0,0,1.925,2.649,5.15,5.15,0,0,0,3.173.87l3.372,0,6.677,0,13.055.009,6.362,0c1.048-.006,2.1.017,3.131-.013a4.928,4.928,0,0,0,2.807-1.085,5.228,5.228,0,0,0,1.013-1.119,4.925,4.925,0,0,0,.622-1.365,5.183,5.183,0,0,0,.187-1.482v-1.51q0-3.009,0-5.949c.009-15.674.017-29.789.023-41.644s.022-21.448.028-28.079q0-1.244,0-2.346a5.1,5.1,0,0,0-.365-2,4.939,4.939,0,0,0-.938-1.478,4.991,4.991,0,0,0-2.989-1.574,3.962,3.962,0,0,0-.5-.046l-.171-.012s-.229,0-.678.007Z"/><path class="a" d="M346.342,194.056l-3.24.005a2.478,2.478,0,0,0-.975.106,1.525,1.525,0,0,0-.772.684,1.619,1.619,0,0,0-.181.518,3.171,3.171,0,0,0-.024.572v.6a2.8,2.8,0,0,1-.039.616,1.629,1.629,0,0,1-.723,1.04,1.52,1.52,0,0,1-.635.224c-.231.021-.455.006-.687.011h-2.9l-6.586,0h-2.263a1.745,1.745,0,0,1-.47-.046,1.551,1.551,0,0,1-.807-.5,1.662,1.662,0,0,1-.4-.877,3.609,3.609,0,0,1-.016-.486v-.484a2.575,2.575,0,0,0-.1-.953,1.557,1.557,0,0,0-.579-.756,1.512,1.512,0,0,0-.932-.257h-7.475a5.163,5.163,0,0,0-2.18.413,5.107,5.107,0,0,0-1.813,1.353,4.973,4.973,0,0,0-1.026,2.065c-.051.19-.065.387-.1.581-.009.165-.017.33-.023.5v79.663a5.18,5.18,0,0,0,.2,1.568,4.952,4.952,0,0,0,1.925,2.649,5.15,5.15,0,0,0,3.173.87l3.372,0,6.677,0,13.055.009,6.361,0c1.049-.006,2.1.017,3.131-.013a4.928,4.928,0,0,0,2.808-1.085,5.255,5.255,0,0,0,1.013-1.119,4.893,4.893,0,0,0,.621-1.365,5.184,5.184,0,0,0,.188-1.482v-1.51q0-3.009,0-5.949c.008-15.674.016-29.789.023-41.644s.021-21.448.028-28.079q0-1.244,0-2.346a5.1,5.1,0,0,0-.364-2,4.978,4.978,0,0,0-.938-1.478,4.99,4.99,0,0,0-2.99-1.574,3.935,3.935,0,0,0-.5-.046l-.171-.012s-.23,0-.679.007Z"/><path class="b" d="M162.607,130.446a16.2,16.2,0,0,1,.106,4.3l3.312,2.221-2.373,6.155-3.945-.576a16.182,16.182,0,0,1-2.964,3.117l.771,3.911-6.03,2.674-2.382-3.195a16.152,16.152,0,0,1-4.3.1l-2.221,3.312-6.155-2.372.576-3.945a16.186,16.186,0,0,1-3.117-2.965l-3.91.772-2.676-6.03,3.2-2.382a16.112,16.112,0,0,1-.1-4.3l-3.313-2.221,2.373-6.156,3.946.577a16.206,16.206,0,0,1,2.963-3.117l-.771-3.91,6.031-2.675,2.381,3.2a16.119,16.119,0,0,1,4.3-.105l2.22-3.312,6.156,2.372-.577,3.946a16.122,16.122,0,0,1,3.117,2.964l3.91-.772,2.675,6.03-3.2,2.382Zm-9.464-.046a7.078,7.078,0,1,0-3.6,9.339A7.078,7.078,0,0,0,153.143,130.4Z"/><path class="c" d="M157.8,94.67a10.714,10.714,0,0,1,.07,2.842l2.189,1.467-1.569,4.069-2.607-.381a10.757,10.757,0,0,1-1.959,2.061l.51,2.584-3.986,1.768-1.575-2.112a10.672,10.672,0,0,1-2.842.069l-1.467,2.189-4.069-1.568.381-2.608a10.691,10.691,0,0,1-2.06-1.959l-2.585.51-1.768-3.986,2.113-1.574a10.672,10.672,0,0,1-.07-2.842l-2.189-1.468,1.568-4.069,2.608.382a10.662,10.662,0,0,1,1.959-2.06l-.51-2.585,3.986-1.768,1.574,2.112a10.673,10.673,0,0,1,2.842-.069l1.468-2.189,4.069,1.568-.381,2.608a10.72,10.72,0,0,1,2.06,1.959l2.584-.51,1.768,3.986L157.8,94.67Zm-6.256-.03a4.678,4.678,0,1,0-2.379,6.172A4.677,4.677,0,0,0,151.549,94.64Z"/><path class="b" d="M271.78,359.5a18.994,18.994,0,0,1,.123,5.041l3.884,2.6-2.782,7.219-4.627-.676a18.988,18.988,0,0,1-3.476,3.656l.9,4.586-7.073,3.137-2.792-3.748a18.968,18.968,0,0,1-5.043.123l-2.6,3.884-7.218-2.782.675-4.627a18.959,18.959,0,0,1-3.655-3.477l-4.586.906-3.138-7.073,3.749-2.792a18.968,18.968,0,0,1-.123-5.043l-3.885-2.6,2.783-7.219,4.627.676A19.012,19.012,0,0,1,241,347.633l-.9-4.585,7.073-3.138,2.792,3.748a18.967,18.967,0,0,1,5.043-.123l2.6-3.884,7.218,2.782-.675,4.627a19.011,19.011,0,0,1,3.655,3.476l4.585-.9,3.137,7.072L271.78,359.5Zm-11.1-.054a8.3,8.3,0,1,0-4.221,10.952A8.3,8.3,0,0,0,260.68,359.443Z"/><path class="c" d="M253.1,402.341a11.092,11.092,0,0,1,.072,2.937l2.262,1.517L253.813,411l-2.7-.394a11.056,11.056,0,0,1-2.025,2.13l.527,2.672-4.12,1.827-1.627-2.184a11.014,11.014,0,0,1-2.938.072l-1.517,2.263-4.205-1.621.393-2.7a11.049,11.049,0,0,1-2.129-2.025l-2.672.528-1.828-4.121,2.184-1.627a11.049,11.049,0,0,1-.072-2.937l-2.263-1.518,1.621-4.2,2.7.394a11.051,11.051,0,0,1,2.025-2.129l-.527-2.672,4.12-1.828,1.627,2.184a11.015,11.015,0,0,1,2.938-.072l1.517-2.263,4.205,1.621-.394,2.7a10.994,10.994,0,0,1,2.13,2.025l2.671-.527,1.828,4.119-2.183,1.628Zm-6.467-.031a4.835,4.835,0,1,0-2.459,6.38A4.835,4.835,0,0,0,246.633,402.31Z"/><path class="d" d="M184.319,114.47a9.7,9.7,0,0,1,.063,2.567l1.977,1.326-1.417,3.675-2.355-.344a9.676,9.676,0,0,1-1.77,1.861l.461,2.335-3.6,1.6-1.422-1.908a9.615,9.615,0,0,1-2.567.062l-1.326,1.978-3.675-1.416.344-2.356a9.7,9.7,0,0,1-1.861-1.77l-2.335.461-1.6-3.6,1.908-1.422a9.615,9.615,0,0,1-.062-2.567l-1.978-1.326,1.417-3.675,2.356.344a9.668,9.668,0,0,1,1.769-1.861l-.46-2.334,3.6-1.6,1.422,1.909a9.574,9.574,0,0,1,2.567-.063l1.326-1.978,3.675,1.416-.344,2.357a9.64,9.64,0,0,1,1.861,1.769l2.335-.46,1.6,3.6-1.908,1.422Zm-5.652-.027a4.225,4.225,0,1,0-2.149,5.576A4.224,4.224,0,0,0,178.667,114.443Z"/><path class="e" d="M326.325,380.48a15.484,15.484,0,0,1,9.607-1.168,7.989,7.989,0,0,1,4.746,2.119c1.186,1.309,1.411,3.613.049,4.738a4.544,4.544,0,0,1-2.992.76c-2.54-.03-5.358-.477-7.387,1.051-1.158.872-1.928,2.321-3.312,2.75a3.273,3.273,0,0,1-3.6-1.6,5.6,5.6,0,0,1-.408-4.127A6.3,6.3,0,0,1,326.325,380.48Z"/><path class="e" d="M319.629,367.556c1.787,2.552,5.26,1.707,6.871.149s2.291-3.816,2.91-5.969c1.416-4.919,2.843-10.08,1.791-15.089a8.385,8.385,0,0,0-1.928-4.1,4.379,4.379,0,0,0-4.15-1.381c-1.751.463-2.84,2.178-3.626,3.809a35.975,35.975,0,0,0-3.555,15.437,12.488,12.488,0,0,0,1.687,7.147"/><path class="e" d="M314.722,371.217a9.284,9.284,0,0,0,1.446-8.545,16.471,16.471,0,0,0-5.062-7.342,27.249,27.249,0,0,0-9.064-5.348,9.659,9.659,0,0,0-4.076-.693,4.278,4.278,0,0,0-3.421,2.07c-.954,1.819-.039,4.026.95,5.826a69.028,69.028,0,0,0,5.953,9.065c1.784,2.3,3.828,4.57,6.548,5.61s5.544.917,6.985-.969"/><path class="f" d="M319.508,406.054a5.493,5.493,0,0,0,.162-1.159c.082-.845.185-1.9.308-3.165a45.874,45.874,0,0,1,.712-4.643,35.9,35.9,0,0,1,1.687-5.479,20.219,20.219,0,0,1,2.8-4.957,10.463,10.463,0,0,1,3.537-2.941,9.907,9.907,0,0,1,2.979-.927,5.517,5.517,0,0,0,1.155-.168,5.471,5.471,0,0,0-1.175-.018,9.027,9.027,0,0,0-3.106.809,10.415,10.415,0,0,0-3.731,2.966,19.751,19.751,0,0,0-2.9,5.057A33.551,33.551,0,0,0,320.258,397a39.255,39.255,0,0,0-.617,4.7c-.1,1.344-.139,2.432-.157,3.184A5.487,5.487,0,0,0,319.508,406.054Z"/><path class="f" d="M319.727,403.619a2.377,2.377,0,0,0,.031-.538c0-.4,0-.914,0-1.539,0-1.335,0-3.268.068-5.654.118-4.773.529-9.91,1.323-17.151.752-6.81,1.761-14.735,2.825-19.887.228-1.172.458-2.227.675-3.15s.383-1.723.553-2.369l.359-1.495a2.3,2.3,0,0,0,.094-.531,2.236,2.236,0,0,0-.187.5c-.117.387-.265.875-.446,1.475-.2.639-.4,1.432-.634,2.354s-.495,1.971-.745,3.141a174.659,174.659,0,0,0-2.97,18.453c-.8,7.257-1.153,13.864-1.185,18.649-.029,2.393.022,4.329.083,5.666.039.625.07,1.134.094,1.538A2.219,2.219,0,0,0,319.727,403.619Z"/><path class="f" d="M319.759,390.875a10.3,10.3,0,0,0-.012-1.608c-.059-1.033-.2-2.526-.492-4.355a57.35,57.35,0,0,0-1.416-6.345,52.069,52.069,0,0,0-2.654-7.508,39.983,39.983,0,0,0-7.792-12.133,19.667,19.667,0,0,0-1.833-1.7c-.281-.238-.53-.475-.783-.663l-.711-.49a10.309,10.309,0,0,0-1.353-.866,48.006,48.006,0,0,1,4.436,3.957,42.152,42.152,0,0,1,7.6,12.089,59.389,59.389,0,0,1,2.668,7.439c.7,2.332,1.158,4.476,1.508,6.282.331,1.811.524,3.289.64,4.313A10.266,10.266,0,0,0,319.759,390.875Z"/><path class="f" d="M307.441,413.356l1.277,17.5h22.475l1.277-17.5Z"/><rect class="f" width="29.882" height="6.896" transform="translate(305.27 406.46)"/><path class="e" d="M305.27,430.181v1.911h29.388v-1.911Z"/><path class="f" d="M308.05,435.457l-1.376-3.364h26.914l-1.606,3.364Z"/><path class="g" d="M332.053,419.073a.718.718,0,0,1-.105.161l-.336.446-1.309,1.675-.058.074-.057-.077-3.216-4.449h.185l-3.167,4.484-.1.141-.111-.133-3.755-4.468.216,0-.207.26-3.358,4.21-.112.14-.1-.146-3.169-4.483.185.009-3.9,4.446-.069.079-.053-.089c-.514-.864-.924-1.554-1.222-2.053-.127-.223-.231-.4-.313-.547a.868.868,0,0,1-.1-.2.889.889,0,0,1,.131.174c.091.138.206.311.347.526l1.283,2.015-.122-.01,3.839-4.5.1-.114.087.123,3.2,4.463-.215-.006,3.351-4.217.206-.259.107-.134.11.131,3.745,4.477-.21.009,3.2-4.462.094-.131.092.131,3.148,4.5-.114,0,1.362-1.633.365-.422A.754.754,0,0,1,332.053,419.073Z"/><path class="g" d="M332.783,413.24c0,.077-5.632.14-12.577.14s-12.578-.063-12.578-.14,5.63-.14,12.578-.14S332.783,413.163,332.783,413.24Z"/><path class="g" d="M333.918,432.281c0,.077-6.12.14-13.668.14s-13.67-.063-13.67-.14,6.119-.14,13.67-.14S333.918,432.2,333.918,432.281Z"/><path class="h" d="M359.605,435.827c0,.115-76.135.208-170.031.208-93.928,0-170.047-.093-170.047-.208s76.119-.209,170.047-.209C283.47,435.618,359.605,435.712,359.605,435.827Z"/><rect class="i" width="45.152" height="6.204" transform="translate(60.023 397.912)"/><path class="i" d="M105.252,404.193H59.945v-6.359h45.307ZM60.1,404.039h45v-6.05h-45Z"/><path class="i" d="M64.209,402.051l6.5,32.063H94.756l6.283-30Z"/><path class="h" d="M64.209,431.081l3.466,4.766H96.9l4.134-4.766Z"/><path class="i" d="M80.9,402.987c-.089,0-.2-14.853-.254-33.173s-.021-33.176.067-33.177.2,14.851.255,33.177S80.992,402.987,80.9,402.987Z"/><path class="i" d="M90.961,365.815a1.574,1.574,0,0,1-.121.346l-.4.961-.295.693-.3.843q-.165.455-.348.967c-.121.343-.216.717-.334,1.1a44.813,44.813,0,0,0-1.263,5.528,67.159,67.159,0,0,0-.7,6.913,93.116,93.116,0,0,0,.357,12.628c.145,1.613.291,2.915.4,3.815.047.421.084.765.114,1.037a1.527,1.527,0,0,1,.018.365,1.545,1.545,0,0,1-.082-.356c-.046-.27-.1-.611-.174-1.029-.145-.9-.326-2.2-.5-3.809a83.259,83.259,0,0,1-.452-12.666,63.329,63.329,0,0,1,.728-6.947,41.883,41.883,0,0,1,1.338-5.546c.126-.386.229-.76.358-1.1l.373-.964c.117-.3.226-.578.327-.838s.225-.478.322-.684l.459-.939A1.643,1.643,0,0,1,90.961,365.815Z"/><path class="i" d="M89.807,353.8a3.178,3.178,0,0,1-.144.49l-.47,1.381-.345.995q-.169.557-.364,1.2c-.264.859-.57,1.836-.842,2.935q-.216.822-.453,1.717l-.423,1.878c-.315,1.293-.543,2.7-.834,4.165-.5,2.95-.936,6.211-1.238,9.651-.285,3.443-.41,6.733-.453,9.726-.009,2.993.028,5.69.151,7.951.04,1.132.113,2.153.171,3.051s.108,1.671.166,2.3q.069.912.11,1.455a3.02,3.02,0,0,1,.017.51,2.973,2.973,0,0,1-.081-.5c-.043-.361-.1-.844-.171-1.451-.076-.629-.151-1.4-.22-2.3s-.164-1.92-.219-3.053c-.152-2.263-.213-4.965-.221-7.965.028-3,.143-6.3.429-9.751.3-3.449.752-6.72,1.267-9.676.3-1.47.538-2.877.866-4.172q.229-.973.442-1.879.248-.9.475-1.717c.287-1.1.609-2.074.89-2.93q.208-.641.39-1.194.2-.538.372-.988.332-.855.527-1.363A2.859,2.859,0,0,1,89.807,353.8Z"/><path class="i" d="M78.047,405.615a.738.738,0,0,1-.025-.173c-.012-.134-.025-.3-.043-.512-.032-.473-.076-1.131-.133-1.967-.108-1.733-.262-4.2-.452-7.235-.392-6.108-.959-14.546-1.987-23.826-.525-4.64-1.134-9.046-1.767-13.042-.337-1.994-.642-3.892-.989-5.657-.317-1.77-.66-3.41-.975-4.907-.3-1.5-.627-2.845-.893-4.031s-.515-2.2-.726-3.031c-.2-.813-.356-1.454-.469-1.914l-.114-.5a.776.776,0,0,1-.029-.174.678.678,0,0,1,.06.165c.038.128.086.29.145.492.127.457.3,1.092.528,1.9.23.824.5,1.836.78,3.021s.629,2.524.941,4.024c.329,1.5.685,3.135,1.014,4.906.359,1.765.674,3.663,1.019,5.659.65,4,1.269,8.408,1.795,13.053,1.028,9.29,1.56,17.736,1.894,23.849.166,3.056.281,5.531.35,7.242l.073,1.97.011.513A.694.694,0,0,1,78.047,405.615Z"/><path class="j" d="M80.535,343.778a4.476,4.476,0,0,0-4.436-3.714,6.986,6.986,0,0,0-5.376,2.918,16.821,16.821,0,0,0-2.589,5.745,39.028,39.028,0,0,0-1.592,15.289A23.131,23.131,0,0,0,72.9,377.8a2.6,2.6,0,0,0,2.191,1,2.646,2.646,0,0,0,1.157-.714,34.213,34.213,0,0,0,11.1-26.017,10.572,10.572,0,0,0-1.391-5.6c-1.079-1.622-3.593-3.345-5.429-2.694"/><path class="k" d="M64.754,326.923l-2.977,5.391c-.069.125-.161.266-.3.278s-.273-.135-.359-.266l-7.869-12.078,1.813-1.027Z"/><path class="l" d="M80.716,336.637,53.872,320.8a1.244,1.244,0,0,1-.653-.659c-.108-.4.191-.78.477-1.076a18.506,18.506,0,0,1,14.346-5.636,16.39,16.39,0,0,1,12.969,8.066c2.591,4.63,2.677,10.751-.295,15.146"/><path class="i" d="M57.741,315.74a1.458,1.458,0,0,1,.352-.044c.231-.011.573-.053,1.014-.049a20.287,20.287,0,0,1,3.725.3,21.77,21.77,0,0,1,17.375,15.722,20.117,20.117,0,0,1,.665,3.677,7.245,7.245,0,0,1,.041.782,1.309,1.309,0,0,1-.207.586,4.518,4.518,0,0,0,.042-1.355,22.928,22.928,0,0,0-.76-3.627,21.929,21.929,0,0,0-17.2-15.561,22.942,22.942,0,0,0-3.686-.394C58.229,315.753,57.742,315.768,57.741,315.74Z"/><path class="i" d="M77.083,325.7a6.569,6.569,0,0,1-1.357.616c-.855.338-2.051.768-3.387,1.193s-2.563.762-3.456.981a6.488,6.488,0,0,1-1.464.279,7.3,7.3,0,0,1,1.4-.5l3.419-1.067,3.408-1.1A7.255,7.255,0,0,1,77.083,325.7Z"/><path class="i" d="M72.856,314.349a18.8,18.8,0,0,1,.152,6,56.332,56.332,0,0,1-.152-6Z"/><path class="i" d="M53.638,320.5a12.046,12.046,0,0,1,1.95-.686c1.219-.376,2.918-.852,4.811-1.309s3.623-.8,4.88-1.026a12.045,12.045,0,0,1,2.049-.277,14.6,14.6,0,0,1-2,.5c-1.244.277-2.96.661-4.85,1.116s-3.591.9-4.824,1.215A14.454,14.454,0,0,1,53.638,320.5Z"/><path class="m" d="M69.393,339.212c-2.309-1.751-4.75-2.1-7.645-1.981a23.381,23.381,0,0,0-8.368,2.159c-4.526,1.983-8.781,4.9-11.486,9.041s-3.645,9.611-1.621,14.119a2.012,2.012,0,0,0,.917,1.112,2.188,2.188,0,0,0,1.515-.116c5.149-1.679,10.333-3.374,15.067-6.005s9.043-6.286,11.583-11.068a9.529,9.529,0,0,0,1.219-3.673,4.564,4.564,0,0,0-1.181-3.588"/><path class="i" d="M69.439,338.669a1.865,1.865,0,0,1-.371.15l-1.078.371-.782.261c-.283.1-.585.229-.912.355-.652.264-1.408.527-2.2.914l-1.262.575c-.438.2-.875.45-1.338.686-.933.458-1.877,1.044-2.883,1.638a45.539,45.539,0,0,0-11.357,9.992c-.717.922-1.418,1.783-1.992,2.651-.293.429-.595.831-.851,1.239s-.5.8-.731,1.179c-.485.74-.842,1.457-1.187,2.069-.167.309-.331.592-.468.86s-.249.516-.358.742l-.505,1.022a1.9,1.9,0,0,1-.2.349,1.822,1.822,0,0,1,.137-.375c.117-.271.266-.619.452-1.05.1-.23.213-.482.333-.756s.287-.561.447-.875c.331-.623.676-1.351,1.151-2.1l.717-1.2c.252-.415.551-.822.841-1.257.568-.879,1.265-1.753,1.98-2.686a44.15,44.15,0,0,1,11.433-10.058c1.016-.59,1.971-1.171,2.916-1.622.468-.232.91-.476,1.353-.674L64,340.511c.806-.375,1.572-.625,2.232-.873.332-.119.638-.238.925-.332l.793-.235,1.1-.314A1.828,1.828,0,0,1,69.439,338.669Z"/><path class="i" d="M51.4,348.435a54.046,54.046,0,0,1-5.616,1.81,54.448,54.448,0,0,1-5.707,1.5,53.848,53.848,0,0,1,5.616-1.81A54.376,54.376,0,0,1,51.4,348.435Z"/><path class="i" d="M51.171,360.829a8.959,8.959,0,0,1-.124-1.75c-.03-1.082-.034-2.578.012-4.228s.134-3.145.224-4.223a8.868,8.868,0,0,1,.222-1.74,10.1,10.1,0,0,1,0,1.753c-.036,1.185-.081,2.626-.13,4.219s-.076,3.033-.1,4.219A10.117,10.117,0,0,1,51.171,360.829Z"/><path class="i" d="M61.787,355.42c-.089.006-.371-3.033-.631-6.786s-.4-6.8-.309-6.81.371,3.032.63,6.787S61.875,355.414,61.787,355.42Z"/><path class="i" d="M48.572,341.529a10.021,10.021,0,0,1,1.8-.054c1.11.008,2.642.04,4.334.1s3.223.125,4.331.191a9.884,9.884,0,0,1,1.793.173,9.978,9.978,0,0,1-1.8.054c-1.11-.008-2.643-.04-4.337-.1s-3.225-.125-4.333-.191A9.9,9.9,0,0,1,48.572,341.529Z"/><path class="i" d="M74.055,378.505a1.52,1.52,0,0,1-.038-.359c-.013-.27-.028-.612-.048-1.033-.04-.9-.049-2.2-.015-3.8s.138-3.516.331-5.631c.21-2.114.512-4.431.945-6.846s.979-4.691,1.528-6.745c.565-2.051,1.136-3.881,1.675-5.4s1-2.735,1.355-3.563c.166-.388.3-.7.409-.953a1.561,1.561,0,0,1,.162-.324,1.487,1.487,0,0,1-.1.348l-.352.973c-.318.84-.751,2.066-1.256,3.589s-1.057,3.352-1.6,5.4c-.532,2.052-1.055,4.323-1.5,6.727s-.742,4.714-.967,6.819c-.208,2.106-.34,4.009-.4,5.61s-.088,2.9-.086,3.793l-.014,1.032A1.516,1.516,0,0,1,74.055,378.505Z"/><path class="i" d="M75.471,360.929A7.356,7.356,0,0,1,74.4,362.1c-.694.693-1.68,1.623-2.805,2.609s-2.177,1.843-2.955,2.441a7.365,7.365,0,0,1-1.305.908,8.259,8.259,0,0,1,1.161-1.084c.825-.716,1.8-1.567,2.887-2.506l2.862-2.533A8.245,8.245,0,0,1,75.471,360.929Z"/><path class="i" d="M83.968,367.774a12.714,12.714,0,0,1-1.14-1.58l-2.653-3.871-2.708-3.834a12.608,12.608,0,0,1-1.085-1.618,10.871,10.871,0,0,1,1.267,1.482c.744.946,1.74,2.278,2.79,3.786s1.952,2.9,2.58,3.932A10.787,10.787,0,0,1,83.968,367.774Z"/><path class="i" d="M79.517,346.248c.048.075-2.775,1.975-6.3,4.244s-6.43,4.048-6.478,3.973,2.774-1.974,6.3-4.244S79.469,346.173,79.517,346.248Z"/><path class="i" d="M87.476,354.838a52.578,52.578,0,0,1-4.27-3.945,52.78,52.78,0,0,1-4.044-4.175,52.456,52.456,0,0,1,4.269,3.945A52.709,52.709,0,0,1,87.476,354.838Z"/><path class="m" d="M89.477,354.666l2.423-.2a11.971,11.971,0,0,0,4.893-1.5,19.446,19.446,0,0,1,2.281-1.145c3-1.2,6.338-.988,9.562-1.149a39.591,39.591,0,0,0,15.211-3.89,1.486,1.486,0,0,0,.663-.6c.5-.907-.427-1.714-1.223-2.2-4.082-2.516-8.237-5.063-12.866-6.312s-9.884-1.037-13.834,1.681c-4.637,3.191-6.327,9.745-7.11,15.319"/><path class="i" d="M124.564,345.884a2.479,2.479,0,0,1-.411-.191l-1.148-.6c-1-.524-2.43-1.3-4.242-2.166a39.709,39.709,0,0,0-6.566-2.53,21.663,21.663,0,0,0-8.51-.69,14.547,14.547,0,0,0-7.758,3.332,17.251,17.251,0,0,0-4.04,5.674c-.851,1.816-1.376,3.361-1.758,4.418-.178.507-.322.913-.431,1.222a2.5,2.5,0,0,1-.169.42,2.392,2.392,0,0,1,.107-.44c.1-.314.219-.727.375-1.242a40.321,40.321,0,0,1,1.67-4.474,17.181,17.181,0,0,1,4.049-5.8,14.715,14.715,0,0,1,7.913-3.429,21.675,21.675,0,0,1,8.631.723,38.114,38.114,0,0,1,6.587,2.612c1.805.9,3.224,1.7,4.2,2.26l1.12.655A2.3,2.3,0,0,1,124.564,345.884Z"/><path class="i" d="M118.745,349.01c-.049.074-3.218-1.976-7.077-4.578s-6.948-4.772-6.9-4.845,3.218,1.975,7.078,4.578S118.795,348.936,118.745,349.01Z"/><path class="i" d="M115.365,339.42a12.305,12.305,0,0,1-4.66.384,15.188,15.188,0,0,1,2.325-.237A15.2,15.2,0,0,1,115.365,339.42Z"/><path class="i" d="M101.493,337.612a6.166,6.166,0,0,1-1.04,1.624,6.909,6.909,0,0,1-1.317,1.5,6.166,6.166,0,0,1,1.04-1.624A6.969,6.969,0,0,1,101.493,337.612Z"/><path class="i" d="M104.332,350.877a8.407,8.407,0,0,1-1.525-.827c-.915-.556-2.153-1.37-3.474-2.329s-2.488-1.868-3.325-2.533a9.331,9.331,0,0,1-1.316-1.128,9.235,9.235,0,0,1,1.452.947l3.377,2.453c1.318.957,2.528,1.8,3.409,2.4A10.27,10.27,0,0,1,104.332,350.877Z"/><path class="n" d="M93.045,364.96c-2.312-.611-5.066,1.637-5.543,3.98s.4,4.738,1.431,6.9a35.175,35.175,0,0,0,9.557,12.5,23.631,23.631,0,0,0,14.613,5.38c-.977-4.538.259-9.279-.286-13.889a18.066,18.066,0,0,0-16-15.842c-1.475-.16-3.183-.391-3.771.971"/><path class="i" d="M113.1,393.72a1.524,1.524,0,0,1-.329-.153,6.043,6.043,0,0,1-.864-.58,9.016,9.016,0,0,1-2.282-3.052c-.369-.716-.78-1.493-1.183-2.353l-1.243-2.748a26.641,26.641,0,0,0-1.528-2.938,22.888,22.888,0,0,0-2.1-2.859c-1.582-1.859-3.28-3.467-4.751-5a32.594,32.594,0,0,1-3.623-4.347,16.017,16.017,0,0,1-1.771-3.381,10.373,10.373,0,0,1-.308-.991,1.465,1.465,0,0,1-.073-.355c.03-.009.161.472.5,1.3a17.425,17.425,0,0,0,1.841,3.3,34.534,34.534,0,0,0,3.648,4.27c1.478,1.519,3.186,3.123,4.785,5a22.854,22.854,0,0,1,2.126,2.9,26.241,26.241,0,0,1,1.529,2.979l1.215,2.759c.388.857.789,1.641,1.143,2.361a9.35,9.35,0,0,0,2.16,3.06C112.665,393.473,113.122,393.689,113.1,393.72Z"/><path class="i" d="M101.152,389.949a6.948,6.948,0,0,1,.212-1.556c.181-.952.478-2.258.879-3.682s.83-2.693,1.172-3.6a6.982,6.982,0,0,1,.631-1.438,8.226,8.226,0,0,1-.416,1.512c-.286.922-.678,2.2-1.078,3.613s-.729,2.707-.966,3.643A8.417,8.417,0,0,1,101.152,389.949Z"/><path class="i" d="M112.665,378.809a9.371,9.371,0,0,1-1.628-.374c-1-.26-2.371-.616-3.9-.961s-2.925-.612-3.936-.8a9.47,9.47,0,0,1-1.632-.36,7.873,7.873,0,0,1,1.668.136c1.023.134,2.432.368,3.971.714s2.911.74,3.894,1.057A7.9,7.9,0,0,1,112.665,378.809Z"/><path class="i" d="M92.576,382.046a9.44,9.44,0,0,1,.25-1.8c.2-1.1.527-2.62.959-4.277s.892-3.139,1.254-4.2a9.4,9.4,0,0,1,.662-1.693,11.083,11.083,0,0,1-.445,1.76c-.305,1.077-.728,2.564-1.16,4.215s-.788,3.154-1.047,4.243A11.051,11.051,0,0,1,92.576,382.046Z"/><path class="i" d="M107.363,369.1c-.009.088-2.894-.145-6.443-.521s-6.42-.753-6.41-.842,2.894.145,6.444.522S107.372,369.014,107.363,369.1Z"/><path class="h" d="M105.249,404.09c0,.089-10.141.161-22.649.161s-22.652-.072-22.652-.161,10.14-.161,22.652-.161S105.249,404,105.249,404.09Z"/><path class="h" d="M98.193,417.141c0,.089-6.833.161-15.26.161s-15.262-.072-15.262-.161,6.831-.161,15.262-.161S98.193,417.052,98.193,417.141Z"/><path class="h" d="M97.928,419.007c0,.089-6.714.161-15,.161s-15-.072-15-.161,6.713-.161,15-.161S97.928,418.918,97.928,419.007Z"/><path class="h" d="M98.46,415.6c0,.089-7.068.161-15.785.161s-15.787-.072-15.787-.161,7.067-.161,15.787-.161S98.46,415.514,98.46,415.6Z"/><path class="a" d="M108.88,160.438l-5.168.008a3.916,3.916,0,0,0-1.555.168,2.428,2.428,0,0,0-1.231,1.091,2.579,2.579,0,0,0-.29.826,5.371,5.371,0,0,0-.038.912v.95a4.428,4.428,0,0,1-.062.982,2.606,2.606,0,0,1-1.153,1.66,2.449,2.449,0,0,1-1.014.357c-.369.033-.725.01-1.1.017l-4.632,0-10.506,0h-3.61a2.853,2.853,0,0,1-.749-.074,2.483,2.483,0,0,1-1.288-.793,2.648,2.648,0,0,1-.629-1.4,6.112,6.112,0,0,1-.027-.774V163.6a4.117,4.117,0,0,0-.155-1.521,2.489,2.489,0,0,0-.924-1.2,2.411,2.411,0,0,0-1.487-.409H61.344a8.225,8.225,0,0,0-3.477.657,8.126,8.126,0,0,0-2.892,2.159,7.94,7.94,0,0,0-1.638,3.294c-.08.3-.1.617-.159.927-.013.262-.027.525-.036.79v51.615c0,.691,0,1.363,0,2.057,0,2.084,0,4.21,0,6.328v67.073a8.271,8.271,0,0,0,.319,2.5,7.9,7.9,0,0,0,3.07,4.225,8.215,8.215,0,0,0,5.061,1.388l5.38,0,10.651.007,20.824.014,10.147.007c1.672-.01,3.35.027,4.994-.021a7.857,7.857,0,0,0,4.479-1.73,8.412,8.412,0,0,0,1.616-1.786,7.8,7.8,0,0,0,.991-2.177,8.241,8.241,0,0,0,.3-2.365v-2.407q0-4.8,0-9.49c.014-25,.027-47.518.038-66.428s.034-34.212.044-44.79q0-1.983.006-3.742a8.134,8.134,0,0,0-.581-3.2,7.9,7.9,0,0,0-1.5-2.357,7.954,7.954,0,0,0-4.768-2.511,6.421,6.421,0,0,0-.805-.074c-.181-.011-.273-.019-.273-.019s-.366.007-1.083.01Z"/><path class="i" d="M113.229,160.528s.092,0,.272.008a5.815,5.815,0,0,1,.805.063,7.457,7.457,0,0,1,2.978,1.028A7.6,7.6,0,0,1,119.1,163.1a7.947,7.947,0,0,1,1.512,2.369,8.221,8.221,0,0,1,.594,3.223q0,1.76.005,3.743c.006,10.578.015,25.88.027,44.789s.007,41.427.011,66.428v11.9a8.5,8.5,0,0,1-.3,2.421,8.043,8.043,0,0,1-1.014,2.238,8.611,8.611,0,0,1-1.654,1.835,8.027,8.027,0,0,1-4.584,1.779c-1.665.049-3.318.012-4.99.023l-10.11-.005-20.748-.01-10.612-.006-5.36,0a8.385,8.385,0,0,1-5.17-1.428,8.122,8.122,0,0,1-3.147-4.346,8.747,8.747,0,0,1-.332-2.686q0-1.341,0-2.677,0-5.343,0-10.615,0-10.541.006-20.754c.005-13.607.01-26.731.014-39.234s.012-24.384.017-35.5q.006-8.339.01-16.089,0-.968,0-1.926c.005-.319.028-.643.045-.963.056-.315.08-.637.162-.946a8.13,8.13,0,0,1,1.67-3.364,8.254,8.254,0,0,1,2.945-2.2,8.34,8.34,0,0,1,3.528-.668l6.92.008,3.329,0,1.632,0a2.54,2.54,0,0,1,1.562.437,2.622,2.622,0,0,1,.971,1.275,4.27,4.27,0,0,1,.162,1.568q0,.388,0,.773a5.557,5.557,0,0,0,.025.757,2.5,2.5,0,0,0,.592,1.328,2.339,2.339,0,0,0,1.213.754,2.709,2.709,0,0,0,.716.07h.731l2.865,0,10.468.016,4.615.007c.364-.006.735.017,1.081-.014a2.333,2.333,0,0,0,.972-.341,2.515,2.515,0,0,0,1.113-1.6,4.441,4.441,0,0,0,.062-.964c0-.321,0-.637,0-.949a5.4,5.4,0,0,1,.042-.926,2.674,2.674,0,0,1,.3-.85,2.5,2.5,0,0,1,1.267-1.121,4,4,0,0,1,1.576-.168l5.15.014,3.166.013c.714,0,1.079.012,1.079.012s-.365.008-1.079.011l-3.166.009-5.15.008a3.923,3.923,0,0,0-1.549.168,2.433,2.433,0,0,0-1.227,1.091,2.617,2.617,0,0,0-.288.826,5.281,5.281,0,0,0-.038.913v.949a4.492,4.492,0,0,1-.061.983,2.6,2.6,0,0,1-1.149,1.659,2.428,2.428,0,0,1-1.01.358c-.368.032-.723.009-1.092.016l-4.615,0-10.468,0h-3.6a2.8,2.8,0,0,1-.748-.073,2.472,2.472,0,0,1-1.282-.794,2.642,2.642,0,0,1-.627-1.4,5.948,5.948,0,0,1-.027-.775v-.773a4.133,4.133,0,0,0-.155-1.52,2.478,2.478,0,0,0-.92-1.205,2.388,2.388,0,0,0-1.481-.41H61.62a7.9,7.9,0,0,0-6.345,2.816,7.945,7.945,0,0,0-1.632,3.295c-.08.3-.1.617-.158.926-.017.314-.039.627-.043.945v1.926q0,7.741,0,16.089c0,11.119,0,23,0,35.5s0,25.627,0,39.234q0,10.2,0,20.754,0,5.271,0,10.616,0,1.335,0,2.676a8.508,8.508,0,0,0,.323,2.622,7.906,7.906,0,0,0,3.059,4.226,8.157,8.157,0,0,0,5.043,1.387l5.36,0,10.612.006,20.748.014,10.111.007c1.666-.009,3.337.027,4.976-.02a7.822,7.822,0,0,0,4.462-1.731,8.355,8.355,0,0,0,1.61-1.785,7.813,7.813,0,0,0,.988-2.178,8.3,8.3,0,0,0,.3-2.364v-2.408q0-4.8,0-9.49c.014-25,.026-47.517.037-66.428s.034-34.211.044-44.789q0-1.983.006-3.743a8.164,8.164,0,0,0-.579-3.2,7.9,7.9,0,0,0-1.491-2.358,7.625,7.625,0,0,0-1.793-1.466,7.535,7.535,0,0,0-2.958-1.045,6.34,6.34,0,0,0-.8-.073C113.321,160.537,113.229,160.528,113.229,160.528Z"/><path class="i" d="M114.764,173.385c0,.034-1.312.073-2.93.086s-2.931,0-2.931-.037,1.311-.073,2.93-.086S114.764,173.351,114.764,173.385Z"/><path class="i" d="M114.777,174.885c0,.034-1.312.072-2.93.086s-2.931,0-2.932-.038,1.312-.072,2.931-.086S114.776,174.851,114.777,174.885Z"/><path class="i" d="M114.789,176.384c0,.035-1.312.073-2.93.086s-2.931,0-2.931-.037,1.311-.073,2.93-.086S114.789,176.35,114.789,176.384Z"/><path class="i" d="M61.456,178.1a1.009,1.009,0,0,1,.122-.008l.339-.011,1.252-.03-.035.035c0-.277-.009-.58-.015-.907,0-.169-.014-.328,0-.523a.48.48,0,0,1,.42-.385c.2,0,.379-.014.6,0a.487.487,0,0,1,.41.484c0,.423.01.865.015,1.323l-.058-.057L66.085,178l-.06.061c-.006-.636-.011-1.293-.017-1.967,0-.168,0-.335-.005-.5a.509.509,0,0,0-.222-.373l-.69-.68-.666-.657-.322-.319c-.111-.107-.2-.217-.327-.243a.423.423,0,0,0-.362.069c-.1.081-.2.2-.294.289l-.566.571c-.357.37-.728.708-1,1.028a1.112,1.112,0,0,0-.08.589c0,.2,0,.381,0,.556q0,.512-.006.9c0,.228,0,.417-.006.572a1.852,1.852,0,0,1-.008.207,1.59,1.59,0,0,1-.011-.19l-.015-.564-.021-.9c0-.179-.007-.368-.01-.567l0-.311a.652.652,0,0,1,.087-.33c.292-.358.641-.675,1-1.056l.562-.576c.1-.1.184-.2.3-.3a.541.541,0,0,1,.458-.091.853.853,0,0,1,.379.271l.324.318.668.655q.34.333.691.679a1.262,1.262,0,0,1,.177.19.525.525,0,0,1,.083.267l0,.5c.005.674.01,1.331.015,1.967v.061h-.061l-1.579.01h-.058v-.058c0-.458,0-.9-.007-1.323a.381.381,0,0,0-.319-.384c-.181-.009-.4,0-.572,0a.387.387,0,0,0-.341.307c-.015.158,0,.344-.007.5q0,.491,0,.908v.035h-.035l-1.272-.009-.332-.006A.69.69,0,0,1,61.456,178.1Z"/><path class="i" d="M101.253,230.621c0,.227-6.278.412-14.021.412s-14.022-.185-14.022-.412,6.277-.411,14.022-.411S101.253,230.394,101.253,230.621Z"/><rect class="l" width="27.224" height="36.221" transform="matrix(0.006, -1, 1, 0.006, 69.09, 221.115)"/><path class="k" d="M69.089,221.115l12.745-16.852,7.778,10.631,5.347-5.63,10.351,12.053Z"/><path class="n" d="M93.009,202.253a2.852,2.852,0,1,1-2.836-2.868A2.851,2.851,0,0,1,93.009,202.253Z"/><path class="i" d="M112.169,240.642c0,.227-11.133.411-24.862.411s-24.865-.184-24.865-.411,11.13-.412,24.865-.412S112.169,240.415,112.169,240.642Z"/><path class="i" d="M112.169,247.573c0,.228-11.133.412-24.862.412s-24.865-.184-24.865-.412,11.13-.411,24.865-.411S112.169,247.346,112.169,247.573Z"/><path class="i" d="M112.169,254.505c0,.227-11.133.411-24.862.411s-24.865-.184-24.865-.411,11.13-.411,24.865-.411S112.169,254.278,112.169,254.505Z"/><path class="i" d="M112.169,261.437c0,.227-11.133.411-24.862.411s-24.865-.184-24.865-.411,11.13-.412,24.865-.412S112.169,261.209,112.169,261.437Z"/><path class="i" d="M112.169,268.368c0,.228-11.133.412-24.862.412s-24.865-.184-24.865-.412,11.13-.411,24.865-.411S112.169,268.141,112.169,268.368Z"/><path class="i" d="M101.473,274.7a21.1,21.1,0,0,1-4.181.291c-2.583.075-6.151.121-10.092.121s-7.51-.046-10.093-.121a21.1,21.1,0,0,1-4.181-.291,21.2,21.2,0,0,1,4.181-.291c2.583-.074,6.151-.12,10.093-.12s7.509.046,10.092.12A21.2,21.2,0,0,1,101.473,274.7Z"/><path class="a" d="M158.587,148.8l-5.743.009a4.368,4.368,0,0,0-1.729.188,2.71,2.71,0,0,0-1.368,1.217,2.906,2.906,0,0,0-.321.921,5.985,5.985,0,0,0-.043,1.018q0,.522,0,1.059a4.965,4.965,0,0,1-.068,1.095,2.9,2.9,0,0,1-1.282,1.851,2.711,2.711,0,0,1-1.126.4c-.41.036-.807.01-1.218.018l-5.147,0-11.675,0h-4.011a3.151,3.151,0,0,1-.833-.082,2.758,2.758,0,0,1-1.431-.885,2.953,2.953,0,0,1-.7-1.56,6.789,6.789,0,0,1-.03-.864v-.862a4.6,4.6,0,0,0-.173-1.695,2.77,2.77,0,0,0-1.026-1.345,2.671,2.671,0,0,0-1.652-.456h-13.25a8.8,8.8,0,0,0-7.077,3.14,8.863,8.863,0,0,0-1.82,3.675c-.09.337-.115.688-.177,1.033-.015.293-.031.586-.04.881v57.566c0,.77,0,1.52,0,2.294,0,2.324,0,4.7,0,7.058v74.806A9.225,9.225,0,0,0,97,302.073a8.812,8.812,0,0,0,3.412,4.713,9.1,9.1,0,0,0,5.624,1.548l5.978,0,11.835.008,23.141.015,11.276.008c1.858-.01,3.722.03,5.55-.023a8.725,8.725,0,0,0,4.976-1.929,9.342,9.342,0,0,0,1.8-1.992,8.732,8.732,0,0,0,1.1-2.429,9.227,9.227,0,0,0,.331-2.637q0-1.346,0-2.685,0-5.354.005-10.584c.015-27.884.029-52.995.041-74.086s.038-38.156.049-49.954q0-2.211.007-4.173a9.091,9.091,0,0,0-.646-3.566,8.81,8.81,0,0,0-1.663-2.629,8.833,8.833,0,0,0-5.3-2.8,7.024,7.024,0,0,0-.9-.082c-.2-.013-.3-.022-.3-.022s-.408.008-1.2.012Z"/><path class="i" d="M163.384,148.717s.1,0,.3.009a6.76,6.76,0,0,1,.9.07,8.327,8.327,0,0,1,3.322,1.147,8.5,8.5,0,0,1,2.02,1.637,8.847,8.847,0,0,1,1.686,2.643,9.175,9.175,0,0,1,.663,3.594q0,1.962.005,4.174c.007,11.8.017,28.865.03,49.953s.007,46.2.012,74.087V299.3a9.484,9.484,0,0,1-.339,2.7,8.974,8.974,0,0,1-1.131,2.495,9.59,9.59,0,0,1-1.844,2.046,8.957,8.957,0,0,1-5.113,1.985c-1.857.054-3.7.014-5.565.025l-11.275-.005-23.141-.012-11.836-.006-5.977,0a9.357,9.357,0,0,1-5.766-1.593,9.06,9.06,0,0,1-3.51-4.847,9.734,9.734,0,0,1-.37-3q0-1.494,0-2.985,0-5.96,0-11.839,0-11.756.007-23.147c.005-15.175.011-29.813.016-43.757s.013-27.195.019-39.6q.006-9.3.011-17.944,0-1.079,0-2.147c0-.357.031-.718.05-1.074.062-.353.09-.711.181-1.056a9.064,9.064,0,0,1,1.862-3.751,8.991,8.991,0,0,1,7.22-3.2l7.718.009,3.713,0,1.819,0a2.822,2.822,0,0,1,1.742.487,2.926,2.926,0,0,1,1.084,1.422,4.755,4.755,0,0,1,.179,1.749q0,.432,0,.862a6.522,6.522,0,0,0,.028.844,2.8,2.8,0,0,0,.661,1.481,2.611,2.611,0,0,0,1.353.841,3.026,3.026,0,0,0,.8.078h.815l3.2,0,11.675.017,5.147.008c.406-.007.82.019,1.206-.015a2.607,2.607,0,0,0,1.083-.381,2.8,2.8,0,0,0,1.241-1.784,4.9,4.9,0,0,0,.069-1.075q0-.537,0-1.059a6.02,6.02,0,0,1,.047-1.032,2.972,2.972,0,0,1,.334-.949,2.79,2.79,0,0,1,1.413-1.249,4.441,4.441,0,0,1,1.759-.188l5.743.015,3.531.015c.8.005,1.2.013,1.2.013s-.408.009-1.2.012l-3.531.011-5.743.009a4.367,4.367,0,0,0-1.729.187,2.715,2.715,0,0,0-1.368,1.217,2.89,2.89,0,0,0-.321.921,5.988,5.988,0,0,0-.043,1.018c0,.348,0,.7,0,1.059a4.975,4.975,0,0,1-.069,1.1,2.9,2.9,0,0,1-1.281,1.85,2.71,2.71,0,0,1-1.127.4c-.409.036-.806.011-1.217.019l-5.147,0-11.675,0h-4.011a3.2,3.2,0,0,1-.834-.081,2.757,2.757,0,0,1-1.43-.886,2.949,2.949,0,0,1-.7-1.56,6.433,6.433,0,0,1-.03-.864v-.861a4.624,4.624,0,0,0-.173-1.7,2.774,2.774,0,0,0-1.026-1.344,2.668,2.668,0,0,0-1.653-.457H105.825a8.812,8.812,0,0,0-7.078,3.141,8.873,8.873,0,0,0-1.819,3.675c-.09.336-.116.688-.177,1.032-.018.351-.043.7-.048,1.055q0,1.068,0,2.147,0,8.634,0,17.944c0,12.4,0,25.652,0,39.6s0,28.582,0,43.757q0,11.382,0,23.147,0,5.879,0,11.839v2.985a9.5,9.5,0,0,0,.36,2.925,8.809,8.809,0,0,0,3.412,4.712,9.091,9.091,0,0,0,5.624,1.548l5.978,0,11.835.007,23.141.016,11.275.008c1.859-.011,3.723.029,5.55-.023a8.719,8.719,0,0,0,4.977-1.93,9.342,9.342,0,0,0,1.8-1.992,8.726,8.726,0,0,0,1.1-2.428,9.272,9.272,0,0,0,.331-2.637q0-1.347,0-2.685,0-5.355,0-10.584c.016-27.884.03-53,.042-74.087s.037-38.155.049-49.953q0-2.211.007-4.174a9.109,9.109,0,0,0-.646-3.566,8.793,8.793,0,0,0-1.664-2.629,8.826,8.826,0,0,0-5.3-2.8,7.218,7.218,0,0,0-.895-.082C163.485,148.727,163.384,148.717,163.384,148.717Z"/><path class="i" d="M165.1,163.057c0,.038-1.463.081-3.267.1s-3.269,0-3.27-.042,1.463-.081,3.269-.1S165.1,163.019,165.1,163.057Z"/><path class="i" d="M165.109,164.729c0,.038-1.463.081-3.267.1s-3.269,0-3.27-.042,1.463-.081,3.268-.1S165.109,164.691,165.109,164.729Z"/><path class="i" d="M165.123,166.4c0,.038-1.463.081-3.268.1s-3.269,0-3.269-.042,1.463-.081,3.268-.1S165.123,166.364,165.123,166.4Z"/><path class="i" d="M105.642,168.311a.862.862,0,0,1,.136-.009l.378-.013,1.4-.033-.038.039c0-.309-.011-.647-.017-1.012,0-.188-.016-.365,0-.582a.536.536,0,0,1,.468-.431c.225,0,.423-.014.667,0a.543.543,0,0,1,.458.539c0,.472.01.965.016,1.476l-.064-.064,1.76-.017-.067.068c-.006-.71-.013-1.443-.019-2.194,0-.188,0-.374-.005-.559a.572.572,0,0,0-.248-.416l-.769-.759-.743-.732-.36-.356c-.123-.119-.22-.242-.364-.272a.475.475,0,0,0-.4.078c-.106.09-.22.217-.327.322l-.632.637c-.4.413-.811.79-1.112,1.146a1.247,1.247,0,0,0-.089.658c0,.218,0,.425,0,.62,0,.38-.005.714-.007,1,0,.256,0,.467-.007.639,0,.148-.005.227-.008.231a1.546,1.546,0,0,1-.012-.212c0-.17-.011-.378-.018-.629q-.009-.432-.023-1.008,0-.3-.011-.632l-.006-.346a.743.743,0,0,1,.1-.369c.326-.4.715-.752,1.115-1.177l.627-.642c.113-.111.2-.221.34-.337a.6.6,0,0,1,.51-.1.935.935,0,0,1,.423.3l.361.354.745.73.772.757a1.464,1.464,0,0,1,.2.213.581.581,0,0,1,.093.3c0,.186,0,.373.005.562,0,.751.011,1.484.016,2.194v.067h-.068l-1.76.011h-.065v-.064c0-.511-.005-1-.008-1.476a.424.424,0,0,0-.356-.427c-.2-.011-.441,0-.638,0a.431.431,0,0,0-.38.342c-.017.177,0,.383-.008.562q0,.548,0,1.013v.039h-.039l-1.419-.01-.369-.006A.916.916,0,0,1,105.642,168.311Z"/><path class="l" d="M141.235,177.468a5.9,5.9,0,1,1-5.9-5.9A5.9,5.9,0,0,1,141.235,177.468Z"/><path class="o" d="M137.358,179.848h-4.049v-.5a2.024,2.024,0,0,1,2.025-2.024h0a2.024,2.024,0,0,1,2.024,2.024Z"/><path class="o" d="M136.524,176.278a1.19,1.19,0,1,1-1.19-1.19A1.19,1.19,0,0,1,136.524,176.278Z"/><path class="i" d="M150.027,193.066c0,.253-7,.459-15.638.459s-15.639-.206-15.639-.459,7-.459,15.639-.459S150.027,192.812,150.027,193.066Z"/><rect class="m" width="20.296" height="27.003" transform="translate(102.372 228.902) rotate(-89.681)"/><path class="k" d="M102.372,228.9l9.5-12.563,5.8,7.925,3.986-4.2,7.717,8.985Z"/><path class="k" d="M120.205,214.84a2.127,2.127,0,1,1-2.115-2.138A2.126,2.126,0,0,1,120.205,214.84Z"/><rect class="l" width="46.919" height="62.424" transform="matrix(0.006, -1, 1, 0.006, 102.126, 282.082)"/><path class="k" d="M102.126,282.082l21.965-29.043,13.4,18.321,9.215-9.7L164.55,282.43Z"/><path class="k" d="M143.351,249.574a4.916,4.916,0,1,1-4.888-4.943A4.916,4.916,0,0,1,143.351,249.574Z"/><rect class="l" width="20.296" height="27.003" transform="translate(138.021 228.902) rotate(-89.681)"/><path class="k" d="M138.021,228.9l9.5-12.563,5.8,7.925,3.986-4.2,7.717,8.985Z"/><circle class="p" cx="2.126" cy="2.126" r="2.126" transform="translate(151.601 212.702)"/><g class="q"><circle cx="2.126" cy="2.126" r="2.126" transform="translate(151.601 212.702)"/></g><path class="a" d="M326.274,156.711l-5.15.008a3.93,3.93,0,0,0-1.55.168,2.43,2.43,0,0,0-1.226,1.091,2.6,2.6,0,0,0-.289.826,5.384,5.384,0,0,0-.038.913c0,.311,0,.628,0,.949a4.48,4.48,0,0,1-.061.982,2.607,2.607,0,0,1-1.149,1.66,2.432,2.432,0,0,1-1.01.357c-.368.033-.723.01-1.092.017l-4.615,0-10.468,0h-3.6a2.88,2.88,0,0,1-.747-.073,2.475,2.475,0,0,1-1.283-.794,2.644,2.644,0,0,1-.626-1.4,5.767,5.767,0,0,1-.027-.774v-.773a4.152,4.152,0,0,0-.155-1.52,2.491,2.491,0,0,0-.92-1.206,2.4,2.4,0,0,0-1.482-.409H278.91a7.891,7.891,0,0,0-6.346,2.816,7.95,7.95,0,0,0-1.631,3.295c-.081.3-.1.617-.159.926-.013.262-.027.525-.036.79v51.615c0,.691,0,1.363,0,2.057,0,2.084,0,4.21,0,6.328v67.074a8.3,8.3,0,0,0,.318,2.5,7.9,7.9,0,0,0,3.059,4.225,8.16,8.16,0,0,0,5.042,1.388l5.36,0,10.612.007,20.749.014,10.11.007c1.666-.01,3.338.027,4.976-.021a7.809,7.809,0,0,0,4.462-1.73,8.338,8.338,0,0,0,1.611-1.786,7.852,7.852,0,0,0,.988-2.177,8.3,8.3,0,0,0,.3-2.365q0-1.206,0-2.407,0-4.8,0-9.49c.014-25,.026-47.518.037-66.428s.034-34.212.044-44.79q0-1.983.006-3.742a8.173,8.173,0,0,0-.579-3.2,7.874,7.874,0,0,0-1.492-2.357,7.914,7.914,0,0,0-4.75-2.511,6.382,6.382,0,0,0-.8-.074c-.18-.011-.271-.019-.271-.019s-.365.007-1.079.011Z"/><rect class="e" width="44.685" height="9.127" transform="translate(281.861 210.551)"/><path class="i" d="M330.669,156.638s.091,0,.272.008a5.94,5.94,0,0,1,.8.062,7.473,7.473,0,0,1,2.978,1.028,7.652,7.652,0,0,1,1.812,1.468,7.931,7.931,0,0,1,1.511,2.37,8.221,8.221,0,0,1,.6,3.223q0,1.758,0,3.742c.007,10.578.016,25.881.027,44.79s.007,41.426.011,66.428v11.9a8.5,8.5,0,0,1-.3,2.422,8.02,8.02,0,0,1-1.014,2.237,8.558,8.558,0,0,1-1.653,1.835,8.036,8.036,0,0,1-4.585,1.78c-1.665.049-3.317.012-4.989.022l-10.11,0-20.749-.011-10.612-.005-5.36,0a8.4,8.4,0,0,1-5.17-1.428,8.126,8.126,0,0,1-3.147-4.347,8.709,8.709,0,0,1-.331-2.685V288.79q0-5.345,0-10.615,0-10.54.005-20.754c.005-13.607.01-26.732.015-39.235s.012-24.383.017-35.5q0-8.34.009-16.089,0-.969,0-1.926c0-.32.027-.643.044-.963.056-.316.081-.637.163-.946a8.112,8.112,0,0,1,1.67-3.364,8.052,8.052,0,0,1,6.473-2.868l6.92.008,3.329,0,1.631,0a2.545,2.545,0,0,1,1.563.437,2.634,2.634,0,0,1,.971,1.275,4.267,4.267,0,0,1,.161,1.568c0,.259,0,.516,0,.773a5.893,5.893,0,0,0,.025.756,2.509,2.509,0,0,0,.593,1.329,2.34,2.34,0,0,0,1.213.753,2.7,2.7,0,0,0,.715.071h.731l2.866,0,10.467.015,4.615.008c.365-.007.736.016,1.082-.014a2.33,2.33,0,0,0,.971-.342,2.51,2.51,0,0,0,1.113-1.6,4.388,4.388,0,0,0,.062-.964c0-.321,0-.638,0-.95a5.384,5.384,0,0,1,.042-.925,2.678,2.678,0,0,1,.3-.851,2.509,2.509,0,0,1,1.267-1.12,3.964,3.964,0,0,1,1.577-.168l5.149.014,3.167.012c.713.005,1.079.013,1.079.013s-.366.007-1.079.01l-3.167.01-5.149.008a3.912,3.912,0,0,0-1.55.168,2.43,2.43,0,0,0-1.226,1.091,2.6,2.6,0,0,0-.289.826,5.372,5.372,0,0,0-.038.912v.95a4.428,4.428,0,0,1-.062.982,2.6,2.6,0,0,1-1.149,1.66,2.427,2.427,0,0,1-1.01.357c-.367.033-.723.01-1.092.017l-4.615,0-10.467,0h-3.6a2.879,2.879,0,0,1-.747-.073,2.471,2.471,0,0,1-1.283-.794,2.644,2.644,0,0,1-.626-1.4,5.762,5.762,0,0,1-.027-.774c0-.257,0-.514,0-.773a4.118,4.118,0,0,0-.155-1.521,2.485,2.485,0,0,0-.919-1.205,2.4,2.4,0,0,0-1.482-.409H279.06a7.891,7.891,0,0,0-6.346,2.816,7.951,7.951,0,0,0-1.632,3.295c-.08.3-.1.616-.158.926-.016.314-.039.627-.043.945q0,.958,0,1.926,0,7.741,0,16.089c0,11.119,0,23,0,35.5s0,25.628,0,39.235q0,10.2,0,20.754,0,5.27,0,10.615v2.677a8.543,8.543,0,0,0,.322,2.622,7.9,7.9,0,0,0,3.06,4.225,8.159,8.159,0,0,0,5.042,1.388l5.36,0,10.612.007,20.749.014,10.11.007c1.666-.01,3.338.027,4.976-.021a7.809,7.809,0,0,0,4.462-1.73,8.415,8.415,0,0,0,1.611-1.786,7.821,7.821,0,0,0,.987-2.177,8.271,8.271,0,0,0,.3-2.365v-2.407q0-4.8,0-9.49c.014-25,.027-47.518.037-66.428s.034-34.212.045-44.79q0-1.983.006-3.742a8.173,8.173,0,0,0-.579-3.2,7.894,7.894,0,0,0-1.492-2.357,7.913,7.913,0,0,0-4.751-2.511,6.368,6.368,0,0,0-.8-.074C330.76,156.646,330.669,156.638,330.669,156.638Z"/><path class="i" d="M332.2,169.495c0,.034-1.312.073-2.93.086s-2.931,0-2.931-.038,1.311-.072,2.93-.086S332.2,169.461,332.2,169.495Z"/><path class="i" d="M332.216,170.994c0,.035-1.312.073-2.93.087s-2.931,0-2.931-.038,1.311-.073,2.93-.086S332.216,170.96,332.216,170.994Z"/><path class="i" d="M332.228,172.494c0,.034-1.311.073-2.93.086s-2.93,0-2.931-.037,1.312-.073,2.93-.087S332.228,172.46,332.228,172.494Z"/><path class="i" d="M278.9,174.206a.79.79,0,0,1,.122-.008l.339-.012,1.251-.03-.035.036q-.006-.417-.014-.908c0-.168-.015-.327,0-.522a.481.481,0,0,1,.42-.386c.2,0,.379-.013.6,0a.486.486,0,0,1,.411.483c0,.423.01.866.015,1.324l-.058-.057,1.579-.016-.06.061c-.006-.636-.012-1.293-.018-1.967l0-.5a.511.511,0,0,0-.222-.373l-.69-.68c-.226-.223-.448-.443-.666-.657l-.323-.319c-.111-.107-.2-.217-.326-.244a.429.429,0,0,0-.363.069c-.1.081-.2.2-.293.289l-.567.572c-.356.37-.727.708-1,1.028a1.112,1.112,0,0,0-.079.589c0,.2,0,.381,0,.556q0,.512-.005.9c0,.229-.005.418-.007.573,0,.132,0,.2-.007.207a1.373,1.373,0,0,1-.011-.19l-.016-.564-.02-.9-.011-.567c0-.1,0-.2-.005-.31a.65.65,0,0,1,.088-.331c.291-.357.64-.674,1-1.055l.562-.576c.1-.1.184-.2.3-.3a.536.536,0,0,1,.458-.09.853.853,0,0,1,.379.271q.159.157.324.317l.668.655.691.679a1.38,1.38,0,0,1,.176.191.515.515,0,0,1,.083.266c0,.167,0,.335.005.5,0,.674.01,1.331.015,1.967v.06h-.06l-1.579.01h-.058v-.057q0-.688-.007-1.324a.382.382,0,0,0-.319-.383c-.182-.01-.4,0-.573,0a.386.386,0,0,0-.34.307c-.015.159,0,.344-.007.5v.943h-.034l-1.273-.01-.331,0A.693.693,0,0,1,278.9,174.206Z"/><rect class="e" width="44.685" height="9.127" transform="translate(281.956 224.165)"/><rect class="e" width="44.685" height="9.127" transform="translate(281.956 237.408)"/><path class="n" d="M315.9,264.674H293.472a4.563,4.563,0,0,1-4.564-4.563h0a4.564,4.564,0,0,1,4.564-4.564H315.9a4.564,4.564,0,0,1,4.564,4.564h0A4.563,4.563,0,0,1,315.9,264.674Z"/><path class="i" d="M318.6,201.119c0,.227-6.278.411-14.021.411s-14.022-.184-14.022-.411,6.277-.412,14.022-.412S318.6,200.892,318.6,201.119Z"/><path class="a" d="M289.644,147.263l-5.743.009a4.367,4.367,0,0,0-1.729.187,2.715,2.715,0,0,0-1.368,1.217,2.917,2.917,0,0,0-.322.921,5.99,5.99,0,0,0-.042,1.018c0,.348,0,.7,0,1.059a4.978,4.978,0,0,1-.069,1.1,2.9,2.9,0,0,1-1.281,1.85,2.711,2.711,0,0,1-1.127.4c-.409.036-.806.011-1.218.019l-5.147,0-11.674,0h-4.012a3.151,3.151,0,0,1-.833-.082,2.762,2.762,0,0,1-1.431-.885,2.955,2.955,0,0,1-.7-1.56,6.43,6.43,0,0,1-.03-.864q0-.429,0-.861a4.6,4.6,0,0,0-.172-1.7,2.774,2.774,0,0,0-1.026-1.344,2.668,2.668,0,0,0-1.653-.457H236.82a8.809,8.809,0,0,0-7.078,3.141,8.883,8.883,0,0,0-1.82,3.674c-.089.338-.115.689-.176,1.033-.015.293-.031.587-.04.882V297.748a9.2,9.2,0,0,0,.354,2.79,8.809,8.809,0,0,0,3.412,4.712A9.1,9.1,0,0,0,237.1,306.8l5.977,0,11.836.007,23.141.016,11.275.008c1.858-.011,3.723.029,5.55-.023a8.722,8.722,0,0,0,4.977-1.93,9.37,9.37,0,0,0,1.8-1.992,8.722,8.722,0,0,0,1.1-2.428,9.236,9.236,0,0,0,.332-2.637q0-1.347,0-2.685,0-5.355,0-10.584c.016-27.884.03-53,.041-74.087s.038-38.155.05-49.953q0-2.211.007-4.174a9.127,9.127,0,0,0-.646-3.566,8.792,8.792,0,0,0-1.664-2.629,8.826,8.826,0,0,0-5.3-2.8,7.221,7.221,0,0,0-.895-.082c-.2-.012-.3-.022-.3-.022s-.408.009-1.2.013Z"/><path class="i" d="M294.44,147.364s.1,0,.3.009a6.566,6.566,0,0,1,.9.069,8.334,8.334,0,0,1,3.321,1.147,8.481,8.481,0,0,1,2.02,1.637,8.848,8.848,0,0,1,1.686,2.643,9.145,9.145,0,0,1,.663,3.6q0,1.96.005,4.173c.007,11.8.018,28.865.03,49.953s.008,46.2.013,74.087v13.269a9.483,9.483,0,0,1-.339,2.7,8.989,8.989,0,0,1-1.131,2.495,9.544,9.544,0,0,1-1.845,2.046,8.951,8.951,0,0,1-5.113,1.985c-1.856.055-3.7.014-5.564.025l-11.276-.005-23.14-.011-11.836-.007-5.978,0a9.361,9.361,0,0,1-5.766-1.593,9.067,9.067,0,0,1-3.51-4.847,9.764,9.764,0,0,1-.369-3v-2.985q0-5.959,0-11.839,0-11.755.006-23.147c.006-15.175.011-29.813.016-43.757s.013-27.195.02-39.6q0-9.3.01-17.945,0-1.079,0-2.147c.005-.357.03-.718.049-1.074.063-.352.09-.711.182-1.055a9.05,9.05,0,0,1,1.862-3.752,8.99,8.99,0,0,1,7.219-3.2l7.718.009,3.713,0,1.819,0a2.838,2.838,0,0,1,1.743.487,2.93,2.93,0,0,1,1.083,1.422,4.755,4.755,0,0,1,.18,1.749c0,.288,0,.576,0,.862a6.349,6.349,0,0,0,.028.844,2.8,2.8,0,0,0,.66,1.482,2.619,2.619,0,0,0,1.353.84,2.993,2.993,0,0,0,.8.078h.816l3.2,0,11.674.017,5.147.008c.407-.007.82.019,1.206-.015a2.592,2.592,0,0,0,1.084-.381,2.8,2.8,0,0,0,1.241-1.784,4.895,4.895,0,0,0,.069-1.075c0-.358,0-.711,0-1.059a6.02,6.02,0,0,1,.046-1.032,3.029,3.029,0,0,1,.334-.949,2.8,2.8,0,0,1,1.414-1.249,4.436,4.436,0,0,1,1.758-.188l5.743.016,3.532.014c.8,0,1.2.014,1.2.014s-.407.008-1.2.012l-3.532.01-5.743.009a4.38,4.38,0,0,0-1.728.187,2.715,2.715,0,0,0-1.368,1.217,2.922,2.922,0,0,0-.322.922,5.974,5.974,0,0,0-.042,1.017q0,.522,0,1.059a5.036,5.036,0,0,1-.069,1.1,2.9,2.9,0,0,1-1.282,1.85,2.687,2.687,0,0,1-1.126.4c-.41.036-.806.011-1.218.019l-5.147,0-11.675,0h-4.011a3.15,3.15,0,0,1-.833-.081,2.762,2.762,0,0,1-1.431-.885,2.947,2.947,0,0,1-.7-1.56,6.444,6.444,0,0,1-.03-.864c0-.286,0-.574,0-.862a4.6,4.6,0,0,0-.172-1.7,2.77,2.77,0,0,0-1.027-1.344,2.67,2.67,0,0,0-1.652-.457h-13.25a8.809,8.809,0,0,0-7.077,3.141,8.875,8.875,0,0,0-1.82,3.675c-.089.337-.115.688-.176,1.032-.018.351-.043.7-.048,1.055q0,1.068,0,2.147,0,8.634,0,17.945c0,12.4,0,25.651,0,39.6s0,28.582,0,43.757q0,11.382,0,23.147,0,5.879,0,11.84v2.984a9.473,9.473,0,0,0,.359,2.925,8.812,8.812,0,0,0,3.413,4.712,9.088,9.088,0,0,0,5.623,1.548l5.978,0,11.836.008,23.14.015,11.276.008c1.858-.011,3.722.03,5.55-.023a8.717,8.717,0,0,0,4.976-1.93,9.316,9.316,0,0,0,1.8-1.992,8.7,8.7,0,0,0,1.1-2.428,9.2,9.2,0,0,0,.331-2.637q0-1.347,0-2.685,0-5.355,0-10.584c.015-27.884.029-53,.041-74.087s.038-38.155.05-49.953q0-2.211.006-4.173a9.1,9.1,0,0,0-.646-3.567,8.79,8.79,0,0,0-1.663-2.629,8.826,8.826,0,0,0-5.3-2.8,7.058,7.058,0,0,0-.894-.083C294.542,147.373,294.44,147.364,294.44,147.364Z"/><path class="i" d="M296.152,161.7c0,.038-1.463.081-3.268.1s-3.269,0-3.269-.042,1.463-.081,3.268-.1S296.152,161.665,296.152,161.7Z"/><path class="i" d="M296.166,163.375c0,.039-1.463.082-3.268.1s-3.269,0-3.269-.042,1.462-.081,3.268-.1S296.165,163.337,296.166,163.375Z"/><path class="i" d="M296.18,165.048c0,.038-1.463.081-3.268.1s-3.269,0-3.269-.042,1.462-.081,3.268-.1S296.179,165.01,296.18,165.048Z"/><path class="i" d="M236.7,166.957a.9.9,0,0,1,.136-.009l.378-.013,1.4-.033-.039.039c-.005-.309-.01-.647-.016-1.012,0-.188-.016-.365,0-.582a.536.536,0,0,1,.469-.43c.224-.005.423-.015.666,0a.542.542,0,0,1,.458.539c.005.472.011.965.017,1.476l-.065-.063,1.761-.018-.067.068c-.006-.709-.013-1.443-.02-2.194,0-.187,0-.374,0-.559a.572.572,0,0,0-.248-.416c-.261-.256-.517-.51-.77-.758l-.742-.733-.36-.356c-.124-.119-.221-.242-.364-.271a.471.471,0,0,0-.4.077c-.107.09-.221.217-.328.322l-.632.637c-.4.413-.811.79-1.112,1.147a1.252,1.252,0,0,0-.089.657q0,.327,0,.62c0,.38,0,.714-.006,1,0,.256-.005.467-.007.64a2.083,2.083,0,0,1-.009.23,1.793,1.793,0,0,1-.012-.212c-.005-.17-.01-.378-.017-.629-.007-.288-.014-.624-.023-1.007,0-.2-.008-.411-.012-.633l-.005-.346a.733.733,0,0,1,.1-.369c.326-.4.714-.752,1.115-1.177l.627-.642c.113-.111.205-.221.34-.337a.6.6,0,0,1,.51-.1.954.954,0,0,1,.423.3l.361.354.745.73.771.757a1.469,1.469,0,0,1,.2.213.58.58,0,0,1,.092.3c0,.186,0,.374.005.562.006.751.011,1.485.017,2.194v.067h-.067l-1.761.011h-.064v-.064c0-.511,0-1-.007-1.476a.424.424,0,0,0-.356-.427c-.2-.011-.442,0-.639,0a.43.43,0,0,0-.379.342c-.017.177,0,.384-.008.563v1.051h-.038l-1.419-.01-.37-.006A.62.62,0,0,1,236.7,166.957Z"/><circle class="n" cx="14.784" cy="14.784" r="14.784" transform="matrix(0.153, -0.988, 0.988, 0.153, 249.592, 212.301)"/><path class="o" d="M271.535,205.916H261.393v-1.247a5.071,5.071,0,0,1,5.071-5.071h0a5.071,5.071,0,0,1,5.071,5.071Z"/><circle class="o" cx="2.981" cy="2.981" r="2.981" transform="translate(263.483 193.992)"/><rect class="e" width="49.837" height="10.179" transform="translate(240.111 231.673)"/><rect class="e" width="49.837" height="10.179" transform="translate(240.111 246.443)"/><path class="n" d="M277.97,276.852H252.955a5.089,5.089,0,0,1-5.09-5.089h0a5.09,5.09,0,0,1,5.09-5.09H277.97a5.09,5.09,0,0,1,5.09,5.09h0A5.089,5.089,0,0,1,277.97,276.852Z"/><path class="i" d="M281.083,225.538c0,.253-7,.459-15.637.459s-15.639-.206-15.639-.459,7-.459,15.639-.459S281.083,225.284,281.083,225.538Z"/><path class="f" d="M246.995,239h-2.2a.391.391,0,0,1-.391-.391h0a1.467,1.467,0,0,1,1.468-1.467h.048a1.467,1.467,0,0,1,1.467,1.467h0A.391.391,0,0,1,246.995,239Z"/><path class="f" d="M246.771,236.373a.877.877,0,1,1-.877-.876A.877.877,0,0,1,246.771,236.373Z"/><rect class="f" width="2.627" height="1.858" transform="translate(244.58 251.695)"/><path class="f" d="M247.5,252.089h-.881v-.572a.744.744,0,1,0-1.488,0v.572h-.881v-.572a1.625,1.625,0,0,1,3.25,0Z"/><path class="a" d="M236.864,116.026l-8.553.013a6.532,6.532,0,0,0-2.575.279,4.044,4.044,0,0,0-2.037,1.811,4.338,4.338,0,0,0-.479,1.372,8.88,8.88,0,0,0-.063,1.514q0,.777,0,1.576a7.406,7.406,0,0,1-.1,1.631,4.319,4.319,0,0,1-1.909,2.754,4.03,4.03,0,0,1-1.677.594c-.61.053-1.2.015-1.814.028l-7.666,0-17.387.005h-5.974a4.683,4.683,0,0,1-1.241-.122,4.1,4.1,0,0,1-2.131-1.317,4.388,4.388,0,0,1-1.04-2.322,9.745,9.745,0,0,1-.045-1.285v-1.283a6.832,6.832,0,0,0-.257-2.524,4.124,4.124,0,0,0-1.528-2,3.974,3.974,0,0,0-2.461-.68H158.192a13.123,13.123,0,0,0-10.541,4.674,13.211,13.211,0,0,0-2.71,5.469c-.133.5-.171,1.025-.263,1.538-.022.436-.046.872-.059,1.312V340a13.692,13.692,0,0,0,.526,4.152,13.12,13.12,0,0,0,5.082,7.014,13.567,13.567,0,0,0,8.376,2.3l8.9,0,17.627.011,34.464.023,16.793.012c2.768-.016,5.544.044,8.266-.035a12.983,12.983,0,0,0,7.411-2.871,13.939,13.939,0,0,0,2.676-2.965,13.015,13.015,0,0,0,1.64-3.614,13.744,13.744,0,0,0,.494-3.925q0-2,0-4,0-7.969.007-15.753c.023-41.5.044-78.874.061-110.264s.056-56.788.074-74.347q0-3.291.01-6.212a13.559,13.559,0,0,0-.962-5.308,13.073,13.073,0,0,0-2.478-3.912,13.153,13.153,0,0,0-7.891-4.169,10.627,10.627,0,0,0-1.332-.122c-.3-.018-.451-.032-.451-.032s-.607.012-1.792.018Z"/><path class="i" d="M244.046,116.073s.151,0,.451.013a9.924,9.924,0,0,1,1.333.1,12.358,12.358,0,0,1,4.934,1.7,12.591,12.591,0,0,1,3,2.431,13.148,13.148,0,0,1,2.5,3.927,13.6,13.6,0,0,1,.986,5.34q0,2.913.007,6.2c.01,17.526.025,42.88.044,74.209s.012,68.638.019,110.061v19.712a14.073,14.073,0,0,1-.5,4.012,13.28,13.28,0,0,1-1.68,3.707,14.22,14.22,0,0,1-2.74,3.041,13.31,13.31,0,0,1-7.6,2.948c-2.758.08-5.5.02-8.266.037l-16.751-.007-34.377-.018-17.582-.009-8.881,0a13.9,13.9,0,0,1-8.566-2.366,13.461,13.461,0,0,1-5.214-7.2,14.486,14.486,0,0,1-.549-4.45q0-2.222,0-4.435,0-8.853,0-17.588,0-17.463.009-34.386c.009-22.544.016-44.289.024-65s.02-40.4.029-58.822q.007-13.816.016-26.657,0-1.6,0-3.19c.007-.53.045-1.066.074-1.6.092-.523.133-1.056.269-1.568a13.439,13.439,0,0,1,2.767-5.573,13.349,13.349,0,0,1,10.725-4.752L170,115.9l5.515.007,2.7,0a4.211,4.211,0,0,1,2.589.724,4.351,4.351,0,0,1,1.609,2.113,7.058,7.058,0,0,1,.267,2.6q0,.642,0,1.28a9.425,9.425,0,0,0,.041,1.254,4.148,4.148,0,0,0,.982,2.2,3.87,3.87,0,0,0,2.009,1.248,4.463,4.463,0,0,0,1.186.117l1.212,0,4.747.006,17.343.026,7.647.012c.6-.01,1.218.028,1.791-.022a3.881,3.881,0,0,0,1.61-.566,4.164,4.164,0,0,0,1.843-2.65,7.243,7.243,0,0,0,.1-1.6q0-.8,0-1.574a9.022,9.022,0,0,1,.069-1.534,4.486,4.486,0,0,1,.5-1.409,4.159,4.159,0,0,1,2.1-1.856,6.585,6.585,0,0,1,2.611-.278l8.532.022,5.247.022c1.182.007,1.787.02,1.787.02s-.605.012-1.787.018l-5.247.015-8.532.013a6.5,6.5,0,0,0-2.568.279,4.032,4.032,0,0,0-2.032,1.808,4.32,4.32,0,0,0-.477,1.368,8.861,8.861,0,0,0-.063,1.512q0,.775,0,1.574a7.43,7.43,0,0,1-.1,1.627,4.311,4.311,0,0,1-1.9,2.749,4.017,4.017,0,0,1-1.673.593c-.609.053-1.2.015-1.809.027l-7.647,0-17.343,0H186.9a4.7,4.7,0,0,1-1.238-.121,4.1,4.1,0,0,1-2.126-1.315,4.392,4.392,0,0,1-1.038-2.318,9.9,9.9,0,0,1-.044-1.283q0-.637,0-1.28a6.845,6.845,0,0,0-.256-2.519,4.11,4.11,0,0,0-1.524-2,3.971,3.971,0,0,0-2.455-.679H158.538a13.085,13.085,0,0,0-10.514,4.666,13.183,13.183,0,0,0-2.7,5.459c-.133.5-.171,1.022-.262,1.534-.027.521-.064,1.039-.071,1.567q0,1.587,0,3.19,0,12.826.005,26.657c0,18.423,0,38.107.006,58.822s0,42.461,0,65q0,16.908,0,34.386,0,8.733,0,17.589v4.434a14.124,14.124,0,0,0,.535,4.345,13.087,13.087,0,0,0,5.069,7,13.522,13.522,0,0,0,8.354,2.3l8.881.005,17.582.011,34.377.023,16.751.012c2.761-.016,5.53.044,8.245-.034a12.948,12.948,0,0,0,7.393-2.867,13.871,13.871,0,0,0,2.668-2.959,12.958,12.958,0,0,0,1.637-3.608,13.723,13.723,0,0,0,.492-3.917q0-2,0-3.989,0-7.955.006-15.723c.023-41.423.044-78.729.062-110.061s.056-56.683.073-74.209q0-3.285.01-6.2a13.506,13.506,0,0,0-.96-5.3,13.06,13.06,0,0,0-2.471-3.906,13.118,13.118,0,0,0-7.871-4.161,10.576,10.576,0,0,0-1.329-.122C244.2,116.087,244.046,116.073,244.046,116.073Z"/><path class="i" d="M246.589,137.375c0,.057-2.173.121-4.854.143s-4.856-.006-4.857-.062,2.173-.121,4.855-.143S246.589,137.319,246.589,137.375Z"/><path class="i" d="M246.61,139.86c0,.056-2.174.12-4.855.142S236.9,140,236.9,139.94s2.172-.12,4.855-.142S246.609,139.8,246.61,139.86Z"/><path class="i" d="M246.63,142.345c0,.056-2.173.12-4.854.142s-4.856-.006-4.857-.062,2.173-.121,4.855-.143S246.63,142.288,246.63,142.345Z"/><path class="i" d="M158.266,145.18a1.81,1.81,0,0,1,.2-.013l.562-.019,2.073-.049-.057.058c-.007-.459-.015-.961-.024-1.5,0-.28-.024-.543,0-.866a.8.8,0,0,1,.7-.639c.334-.006.628-.022.99-.005a.805.805,0,0,1,.68.8q.012,1.051.025,2.193l-.1-.1,2.616-.026-.1.1c-.009-1.054-.019-2.143-.029-3.259,0-.279-.005-.556-.007-.83a.843.843,0,0,0-.368-.618l-1.143-1.127-1.1-1.089-.535-.528c-.183-.177-.328-.36-.541-.4a.706.706,0,0,0-.6.115c-.158.134-.327.323-.487.479l-.938.946c-.591.614-1.206,1.174-1.653,1.7a1.862,1.862,0,0,0-.131.976c0,.324,0,.632,0,.922,0,.565-.006,1.06-.009,1.485,0,.379-.008.693-.011.949a3.017,3.017,0,0,1-.013.342,2.787,2.787,0,0,1-.017-.314c-.008-.253-.016-.561-.027-.935q-.014-.642-.034-1.5c-.005-.3-.011-.61-.017-.94,0-.168-.005-.339-.008-.515a1.091,1.091,0,0,1,.145-.547c.483-.593,1.061-1.118,1.656-1.749l.931-.954c.168-.164.3-.328.5-.5a.887.887,0,0,1,.758-.149,1.4,1.4,0,0,1,.628.449l.537.526,1.106,1.084,1.146,1.125a2.164,2.164,0,0,1,.292.317.859.859,0,0,1,.138.441q0,.414.007.834c.009,1.116.017,2.206.025,3.259v.1h-.1l-2.615.017h-.1v-.1c0-.759-.007-1.492-.011-2.193a.631.631,0,0,0-.529-.635c-.3-.016-.655-.005-.948,0a.642.642,0,0,0-.564.509c-.026.263-.006.57-.012.836,0,.541,0,1.044,0,1.5v.059H161.1L159,145.2l-.549-.009A1.046,1.046,0,0,1,158.266,145.18Z"/><rect class="g" width="91.716" height="16.683" rx="7.035" transform="translate(154.364 158.312)"/><path class="i" d="M239.045,174.995s.179-.021.527-.044a7.6,7.6,0,0,0,1.513-.294,7.232,7.232,0,0,0,2.206-1.161,6.894,6.894,0,0,0,2.092-2.652,6.671,6.671,0,0,0,.552-1.944,17.658,17.658,0,0,0,.063-2.247,15.02,15.02,0,0,0-.108-2.444,6.944,6.944,0,0,0-5.539-5.661,19.153,19.153,0,0,0-3.189-.121l-3.389.005-72.37.051a6.877,6.877,0,0,0-6.841,6.293c-.058.831-.016,1.71-.029,2.557a8.006,8.006,0,0,0,.26,2.482,6.919,6.919,0,0,0,2.842,3.886,6.6,6.6,0,0,0,2.221.947,10.088,10.088,0,0,0,2.413.182l4.858,0,9.4.006,32.536.036,21.934.054,5.964.032,1.551.017c.349.006.528.018.528.018s-.179.012-.528.017l-1.551.017-5.964.032-21.934.055-32.536.036-9.4.006-4.858,0a10.448,10.448,0,0,1-2.487-.187,6.94,6.94,0,0,1-2.331-.993,7.255,7.255,0,0,1-2.983-4.074,8.375,8.375,0,0,1-.274-2.573c.014-.86-.03-1.7.03-2.585a7.216,7.216,0,0,1,7.179-6.607l72.37.05,3.389.006a19.3,19.3,0,0,1,3.23.137,7.131,7.131,0,0,1,5.673,5.846,15.141,15.141,0,0,1,.1,2.473,18.036,18.036,0,0,1-.079,2.267,6.856,6.856,0,0,1-.578,1.979,6.974,6.974,0,0,1-2.151,2.678,7.215,7.215,0,0,1-2.248,1.145,7.1,7.1,0,0,1-1.531.264C239.224,175,239.045,174.995,239.045,174.995Z"/><path class="i" d="M240.461,166.255c-.033,0-.03-.269-.159-.721a3.013,3.013,0,0,0-1.108-1.584,2.875,2.875,0,1,0,0,4.611,3.014,3.014,0,0,0,1.108-1.584c.129-.453.126-.723.159-.722.011,0,.019.067.024.195a2.29,2.29,0,0,1-.054.559,3.011,3.011,0,0,1-1.09,1.744,3.131,3.131,0,0,1-2.985.488,3.168,3.168,0,0,1,0-5.972,3.134,3.134,0,0,1,2.984.488,3.005,3.005,0,0,1,1.09,1.745,2.251,2.251,0,0,1,.055.559C240.48,166.189,240.472,166.255,240.461,166.255Z"/><path class="i" d="M242.124,171.466a11.724,11.724,0,0,1-2.707-2.93,11.724,11.724,0,0,1,2.707,2.93Z"/><path class="f" d="M166.745,164.985H165.11v-.426h3.764v.426h-1.636v4.23h-.493Z"/><path class="f" d="M172.239,167.612h-2.926a1.3,1.3,0,0,0,1.376,1.217,1.379,1.379,0,0,0,1.071-.459l.266.306a1.85,1.85,0,0,1-3.186-1.21,1.686,1.686,0,0,1,1.71-1.776,1.667,1.667,0,0,1,1.7,1.776C172.246,167.505,172.239,167.558,172.239,167.612Zm-2.926-.353h2.481a1.243,1.243,0,0,0-2.481,0Z"/><path class="f" d="M175.338,169.215l-1.11-1.464-1.118,1.464h-.532l1.383-1.8-1.316-1.7h.532l1.051,1.37,1.05-1.37h.519l-1.317,1.7,1.4,1.8Z"/><path class="f" d="M178.5,169a1.126,1.126,0,0,1-.738.246.927.927,0,0,1-1.024-1.018v-2.115h-.626v-.4h.626v-.765h.472v.765h1.064v.4h-1.064V168.2a.56.56,0,0,0,.6.638.785.785,0,0,0,.519-.179Z"/><path class="p" d="M216.927,190.882c0,.094-6.713.171-14.992.171s-14.993-.077-14.993-.171,6.711-.17,14.993-.17S216.927,190.788,216.927,190.882Z"/><path class="i" d="M240.835,197.036c0,.094-12.065.171-26.945.171s-26.948-.077-26.948-.171,12.063-.171,26.948-.171S240.835,196.942,240.835,197.036Z"/><path class="i" d="M240.2,201.431c0,.094-11.923.171-26.628.171s-26.631-.077-26.631-.171,11.921-.171,26.631-.171S240.2,201.337,240.2,201.431Z"/><path class="i" d="M218.388,205.623c0,.094-7.04.171-15.722.171s-15.724-.077-15.724-.171,7.038-.17,15.724-.17S218.388,205.529,218.388,205.623Z"/><path class="p" d="M216.927,224.328c0,.1-6.713.171-14.992.171s-14.993-.076-14.993-.171,6.711-.17,14.993-.17S216.927,224.234,216.927,224.328Z"/><path class="i" d="M240.835,230.482c0,.1-12.065.171-26.945.171s-26.948-.076-26.948-.171,12.063-.17,26.948-.17S240.835,230.388,240.835,230.482Z"/><path class="i" d="M240.2,234.877c0,.094-11.923.171-26.628.171s-26.631-.077-26.631-.171,11.921-.17,26.631-.17S240.2,234.783,240.2,234.877Z"/><path class="i" d="M218.388,239.069c0,.1-7.04.171-15.722.171s-15.724-.076-15.724-.171,7.038-.17,15.724-.17S218.388,238.975,218.388,239.069Z"/><path class="p" d="M216.927,257.775c0,.094-6.713.17-14.992.17s-14.993-.076-14.993-.17,6.711-.171,14.993-.171S216.927,257.68,216.927,257.775Z"/><path class="i" d="M240.835,263.929c0,.094-12.065.17-26.945.17s-26.948-.076-26.948-.17,12.063-.171,26.948-.171S240.835,263.835,240.835,263.929Z"/><path class="i" d="M240.2,268.323c0,.1-11.923.171-26.628.171s-26.631-.076-26.631-.171,11.921-.17,26.631-.17S240.2,268.229,240.2,268.323Z"/><path class="i" d="M218.388,272.516c0,.094-7.04.171-15.722.171s-15.724-.077-15.724-.171,7.038-.171,15.724-.171S218.388,272.421,218.388,272.516Z"/><path class="p" d="M216.927,291.221c0,.1-6.713.171-14.992.171s-14.993-.076-14.993-.171,6.711-.17,14.993-.17S216.927,291.127,216.927,291.221Z"/><path class="i" d="M240.835,297.375c0,.094-12.065.171-26.945.171s-26.948-.077-26.948-.171,12.063-.171,26.948-.171S240.835,297.281,240.835,297.375Z"/><path class="i" d="M240.2,301.77c0,.094-11.923.17-26.628.17s-26.631-.076-26.631-.17,11.921-.171,26.631-.171S240.2,301.676,240.2,301.77Z"/><path class="i" d="M218.388,305.962c0,.1-7.04.171-15.722.171s-15.724-.076-15.724-.171,7.038-.17,15.724-.17S218.388,305.868,218.388,305.962Z"/><path class="p" d="M216.927,324.433c0,.094-6.713.17-14.992.17s-14.993-.076-14.993-.17,6.711-.171,14.993-.171S216.927,324.339,216.927,324.433Z"/><path class="i" d="M240.835,330.587c0,.094-12.065.17-26.945.17s-26.948-.076-26.948-.17,12.063-.171,26.948-.171S240.835,330.492,240.835,330.587Z"/><path class="i" d="M240.2,334.981c0,.1-11.923.171-26.628.171s-26.631-.076-26.631-.171,11.921-.17,26.631-.17S240.2,334.887,240.2,334.981Z"/><path class="i" d="M218.388,339.174c0,.094-7.04.171-15.722.171s-15.724-.077-15.724-.171S193.98,339,202.666,339,218.388,339.079,218.388,339.174Z"/><rect class="l" width="18.358" height="24.424" transform="translate(154.729 208.992) rotate(-89.681)"/><path class="k" d="M154.729,208.992l8.594-11.363,5.244,7.169,3.605-3.8,6.98,8.127Z"/><path class="k" d="M170.858,196.273a1.923,1.923,0,1,1-1.912-1.934A1.923,1.923,0,0,1,170.858,196.273Z"/><rect class="l" width="18.358" height="24.424" transform="matrix(0.006, -1, 1, 0.006, 154.729, 242.013)"/><path class="j" d="M154.729,242.013l8.594-11.363,5.244,7.169,3.605-3.8,6.98,8.127Z"/><path class="k" d="M170.858,229.293a1.923,1.923,0,1,1-1.912-1.933A1.923,1.923,0,0,1,170.858,229.293Z"/><rect class="m" width="18.358" height="24.424" transform="matrix(0.006, -1, 1, 0.006, 154.729, 275.033)"/><path class="k" d="M154.729,275.033l8.594-11.363,5.244,7.168,3.605-3.8,6.98,8.127Z"/><path class="k" d="M170.858,262.314a1.923,1.923,0,1,1-1.912-1.934A1.923,1.923,0,0,1,170.858,262.314Z"/><rect class="m" width="18.358" height="24.424" transform="translate(154.729 308.054) rotate(-89.681)"/><path class="k" d="M154.729,308.054l8.594-11.363,5.244,7.169,3.605-3.8,6.98,8.127Z"/><path class="k" d="M170.858,295.335a1.923,1.923,0,1,1-1.912-1.934A1.923,1.923,0,0,1,170.858,295.335Z"/><rect class="m" width="18.358" height="24.424" transform="translate(154.729 340.914) rotate(-89.681)"/><path class="k" d="M154.729,340.914l8.594-11.363,5.244,7.169,3.605-3.8,6.98,8.127Z"/><path class="k" d="M170.858,328.2a1.923,1.923,0,1,1-1.912-1.934A1.923,1.923,0,0,1,170.858,328.2Z"/><path class="n" d="M8.709,0A8.709,8.709,0,1,1,0,8.709,8.709,8.709,0,0,1,8.709,0Z" transform="translate(327.945 165.664) rotate(-76.78)"/><path class="o" d="M337.893,162.009a.4.4,0,0,1-.254-.091l-2.931-2.412a.4.4,0,1,1,.508-.618l2.621,2.157,3.721-4.553a.4.4,0,1,1,.619.506l-3.975,4.864a.394.394,0,0,1-.27.145A.255.255,0,0,1,337.893,162.009Z"/><path class="n" d="M11.937,0A11.937,11.937,0,1,1,0,11.937,11.937,11.937,0,0,1,11.937,0Z" transform="translate(288.908 135.303)"/><path class="o" d="M300.13,151.374a.805.805,0,0,1-.509-.182l-4.017-3.307a.8.8,0,1,1,1.017-1.236l3.4,2.8,4.94-6.045a.8.8,0,1,1,1.24,1.012l-5.448,6.667a.8.8,0,0,1-.541.29A.707.707,0,0,1,300.13,151.374Z"/><path class="r" d="M150.476,227.5l.479-1.9a7.08,7.08,0,0,0-.081-3.763l-1.977-6.6a2.469,2.469,0,0,0-1.136-1.434c-1.5-.863-4.471-2.527-4.724-2.317-1.819,1.512,2.245,4.179,2.245,4.179s1.568,1.746.327,3.044c-1.411,1.474-4.064-1.759-4.064-1.759s.141-.336.268-.273a5.233,5.233,0,0,0,2.553,1.1l0-2.146-2.4-1.506a2.41,2.41,0,0,0-1.786-.315l-.831.178a2.112,2.112,0,0,0-1.316.894l-.789,1.185-.335.451a1.506,1.506,0,0,0-.162,1.522l.382.839-.523.738a2.264,2.264,0,0,0-.269,2.11l4.054,5.576,6.007,9.8,6.5-6.981Z"/><path class="s" d="M137.9,221.7a1.359,1.359,0,0,1-.217-.4,1.126,1.126,0,0,1,.2-1.037l.03-.038-.022-.046-.07-.143a10.284,10.284,0,0,0-.867-1.587,10.258,10.258,0,0,0,.723,1.657l.071.144.008-.083a1.179,1.179,0,0,0-.174,1.17C137.7,221.621,137.887,221.721,137.9,221.7Z"/><path class="s" d="M138.39,214.426a1.891,1.891,0,0,0-.123,1.123,8.719,8.719,0,0,0,1.093,2.582,3.329,3.329,0,0,1,.381.753,2.069,2.069,0,0,1,.048.8,1.951,1.951,0,0,0,.142,1.2,2.338,2.338,0,0,0,.787.817,1.344,1.344,0,0,1-.942-.733,2.046,2.046,0,0,1-.217-1.3,1.917,1.917,0,0,0-.052-.709,3.347,3.347,0,0,0-.36-.695,7.559,7.559,0,0,1-1.055-2.687A1.215,1.215,0,0,1,138.39,214.426Z"/><path class="s" d="M141.594,216.855a5.219,5.219,0,0,0-.3-.893c-.243-.46-.514-.815-.455-.864s.407.242.678.749C141.807,216.363,141.672,216.89,141.594,216.855Z"/><path class="n" d="M152.7,261.025l2.476,3.1,12.847-15.438L151.2,226.557l-8.319,6.525Z"/><path class="k" d="M209.87,410.376l1.064,25.081,13.543-.3-1.014-25.131Z"/><path class="i" d="M217.584,434.361c.113-.006-.1-5.5-.469-12.266s-.766-12.251-.879-12.245.1,5.5.469,12.268S217.471,434.367,217.584,434.361Z"/><path class="i" d="M210.861,433.727l13.545-.348.072,1.774-13.543.3Z"/><path class="i" d="M224.152,427.121c.02-.016-.1-.21-.371-.531a9.4,9.4,0,0,0-1.266-1.234,9.215,9.215,0,0,0-2.254-1.365,7.211,7.211,0,0,0-8.356,1.955,6.213,6.213,0,0,0-.922,1.517,1.765,1.765,0,0,0-.187.623,14.176,14.176,0,0,1,1.328-1.951,7.218,7.218,0,0,1,4.974-2.318,8.3,8.3,0,0,1,5.24,1.768C223.513,426.456,224.1,427.171,224.152,427.121Z"/><g class="t"><path d="M223.751,417.175l.111,2.764-13.577.243L210.2,418.1Z"/></g><path class="k" d="M177.99,411.877l.661,15.266s-15.295,5.8-15.447,8.632l29.645-.219-.054-23.828Z"/><path class="f" d="M187.612,425.847a1.219,1.219,0,0,1,.853,1.385,1.172,1.172,0,0,1-1.366.858,1.287,1.287,0,0,1-.9-1.472,1.217,1.217,0,0,1,1.52-.734"/><path class="i" d="M192.849,435.555l-.005-2.386-28.684,1.083s-1.325.588-1.168,1.523Z"/><path class="i" d="M178.382,427.242c.006.146.736.206,1.457.67.733.445,1.107,1.073,1.241,1.015.134-.03-.09-.9-.972-1.445S178.35,427.108,178.382,427.242Z"/><path class="i" d="M175.26,428.56c-.032.142.6.385,1.1,1,.518.6.648,1.264.793,1.257.137.022.232-.833-.4-1.583S175.263,428.421,175.26,428.56Z"/><path class="i" d="M173.509,432.321c.133.031.331-.7-.05-1.5s-1.064-1.108-1.125-.986c-.081.12.365.545.667,1.2S173.365,432.308,173.509,432.321Z"/><path class="i" d="M178.619,423.721c.063.133.73-.073,1.554-.024s1.469.305,1.544.18c.084-.106-.546-.641-1.518-.686S178.547,423.607,178.619,423.721Z"/><path class="i" d="M178.064,420.435a2.783,2.783,0,0,0,1.5-.018,6.761,6.761,0,0,0,1.561-.492,7.253,7.253,0,0,0,.855-.462,1.863,1.863,0,0,0,.449-.355.638.638,0,0,0,.061-.777.8.8,0,0,0-.641-.328,1.948,1.948,0,0,0-.56.081,5.475,5.475,0,0,0-.928.326,5.319,5.319,0,0,0-1.372.915c-.688.647-.92,1.194-.87,1.221.066.048.4-.411,1.1-.946a6.01,6.01,0,0,1,1.328-.761,5.543,5.543,0,0,1,.857-.271c.315-.085.584-.09.666.05.03.054.034.075-.031.168a1.522,1.522,0,0,1-.33.259,7.865,7.865,0,0,1-.787.458,8.251,8.251,0,0,1-1.441.564A10.286,10.286,0,0,0,178.064,420.435Z"/><path class="i" d="M178.255,420.643a2.385,2.385,0,0,0,.384-1.447,4.83,4.83,0,0,0-.6-2.541,1.235,1.235,0,0,0-.959-.748.7.7,0,0,0-.622.422,2.04,2.04,0,0,0-.149.549,3.358,3.358,0,0,0,.006,1.007,3.443,3.443,0,0,0,.65,1.54c.59.77,1.2.939,1.211.89.048-.074-.462-.351-.914-1.091a3.435,3.435,0,0,1-.483-1.4,3.031,3.031,0,0,1,.021-.864c.044-.318.161-.575.28-.543.148,0,.4.233.527.486a4.954,4.954,0,0,1,.376.807,5.379,5.379,0,0,1,.3,1.49C178.327,420.075,178.176,420.621,178.255,420.643Z"/><g class="t"><path d="M192.854,420.882l-.03,3.387h-14.3V421.2Z"/></g><path class="r" d="M240.782,166.823l2.128,8.224s.792,4.547-1.334,4.542c-1.871,0-2.05-2.441-2.05-2.441s.929-4.976-1.519-4.7c-.341.038-1.234,3.47-1.668,5.22a2.574,2.574,0,0,0,.257,1.888l3.529,6.244a7.37,7.37,0,0,0,2.767,2.777l1.769,1.007.228,3.713,9.932.156-3.026-11.582-1.263-7.069a2.356,2.356,0,0,0-1.778-1.32l-.932-.14-.355-.893a1.57,1.57,0,0,0-1.26-.976l-.58-.073-.815-2.008c-.271-.666-2.216-5.043-2.934-5.034A1.828,1.828,0,0,0,240.782,166.823Z"/><path class="u" d="M247.868,176.784a6.725,6.725,0,0,0-.188-.9,3.409,3.409,0,0,0-1.35-1.72,10.015,10.015,0,0,1-.746-2.156,2.906,2.906,0,0,1-.1-.932c.026,0,.066.352.218.9a13.347,13.347,0,0,0,.76,2.078c.149.13.323.254.485.4a3.076,3.076,0,0,1,.4.46,3.029,3.029,0,0,1,.444.93,2.5,2.5,0,0,1,.1.684A.622.622,0,0,1,247.868,176.784Z"/><path class="u" d="M249.382,175.948a1.372,1.372,0,0,0-.146-.454,1.174,1.174,0,0,0-.923-.6l-.05-.005-.018-.049-.058-.156a10.711,10.711,0,0,1-.566-1.8,10.708,10.708,0,0,1,.723,1.739l.057.157-.068-.054a1.226,1.226,0,0,1,1,.714C249.47,175.744,249.407,175.96,249.382,175.948Z"/><path class="r" d="M190.922,215.741l18.011-.231-2.011-15.335s1.231-.263,1.313-6.935.389-18.007.389-18.007h0a23.189,23.189,0,0,0-23.3,2.929l-.989.761Z"/><path class="r" d="M186.427,187.129c-.114-.05-4.584-1.356-4.438,3.205s4.7,3.474,4.7,3.343S186.427,187.129,186.427,187.129Z"/><path class="r" d="M207.849,186.176c.114-.049,4.18-1.146,4.034,3.416s-4.695,3.474-4.7,3.343S207.849,186.176,207.849,186.176Z"/><path class="i" d="M184.948,186.619c.682,3.822.548,5.83,1.178,8.383a13.449,13.449,0,0,0,6.643,9.155c3.639,2.017,8.562,1.981,11.688-.766a10.673,10.673,0,0,0,4.028-6.929c.322-2.87.645-7.951.665-10.838.037-5.208.386-10.186.386-10.186l-14.878-2.693-8.466,5.034Z"/><path class="i" d="M200.295,206.46a6.66,6.66,0,0,1-5.1-.562c.043-.115,1.143.23,2.54.378S200.278,206.339,200.295,206.46Z"/><path class="i" d="M185.667,193.117c-.436-3.917-.719-8.4-1.331-12.525a26.485,26.485,0,0,1-.643-5.344,12.926,12.926,0,0,1,.978-4.587,6.445,6.445,0,0,1,10.04-2.019,4.831,4.831,0,0,1,8.806,2.037,3.354,3.354,0,0,1,5.534,3.362,3.277,3.277,0,0,1,2.211,5.018c-.689,1.061-1.932,1.646-2.692,2.658a3.805,3.805,0,0,0-.228,4.117"/><path class="h" d="M206.327,178.965a1.024,1.024,0,0,1-.165.428,3.016,3.016,0,0,1-.865.972,3.106,3.106,0,0,1-1.935.613,3.316,3.316,0,0,1-2.384-1.118l.314-.086a3.1,3.1,0,0,1-1.99,2.283,3.554,3.554,0,0,1-3.354-.423,5.03,5.03,0,0,1-1.887-2.473l.36.041a4.188,4.188,0,0,1-3.369,1.847,3.874,3.874,0,0,1-2.834-1.158,3.944,3.944,0,0,1-1.026-1.744,1.7,1.7,0,0,1-.086-.723c.031,0,.063.25.219.68a4.12,4.12,0,0,0,1.072,1.6,3.654,3.654,0,0,0,2.644.994,3.865,3.865,0,0,0,3.04-1.715l.22-.342.141.383a4.692,4.692,0,0,0,1.739,2.264,3.164,3.164,0,0,0,2.975.393,2.747,2.747,0,0,0,1.781-1.97l.068-.378.247.293a3.047,3.047,0,0,0,2.123,1.056,2.961,2.961,0,0,0,1.8-.491A4.249,4.249,0,0,0,206.327,178.965Z"/><path class="h" d="M206.3,177.156a4.124,4.124,0,0,0-.636-1.66,2.706,2.706,0,0,0-1.564-1.052,2.827,2.827,0,0,0-2.269.433l-.361.26.038-.446a3.434,3.434,0,0,0-.153-1.311,3.581,3.581,0,0,0-1.83-2.13,3.494,3.494,0,0,0-2.319-.2,4.86,4.86,0,0,0-1.934,1.09c-.018-.013.085-.216.37-.508a3.642,3.642,0,0,1,1.486-.867,3.69,3.69,0,0,1,2.557.139,3.882,3.882,0,0,1,2.067,2.352,3.75,3.75,0,0,1,.164,1.477l-.324-.186a3.142,3.142,0,0,1,2.6-.449,2.91,2.91,0,0,1,1.7,1.249,2.861,2.861,0,0,1,.456,1.312C206.365,176.982,206.322,177.157,206.3,177.156Z"/><path class="h" d="M196.813,177.289c-.057-.025.013-.26-.012-.627a2.957,2.957,0,0,0-.465-1.347,14.418,14.418,0,0,0-.86-1.209c-.229-.235-.443-.071-.475-.094-.023-.008-.024-.1.1-.183a.511.511,0,0,1,.56.046,3.29,3.29,0,0,1,.514.52,5.327,5.327,0,0,1,.52.705,2.5,2.5,0,0,1,.4,1.572C197.04,177.1,196.858,177.314,196.813,177.289Z"/><path class="h" d="M187.988,171.555c-.047-.017,0-.355.278-.833a2.225,2.225,0,0,1,.679-.714,1.77,1.77,0,0,1,1.209-.265,2.9,2.9,0,0,1,1.806,1.132c.333.422.484.711.443.746s-.285-.191-.659-.545a3.119,3.119,0,0,0-1.644-.92,1.741,1.741,0,0,0-1.593.736C188.193,171.283,188.047,171.579,187.988,171.555Z"/><path class="h" d="M190.3,190.9a10.126,10.126,0,0,1-2.123-6.17c.122-.015.356,1.432.945,3.125S190.41,190.834,190.3,190.9Z"/><path class="h" d="M192.3,191.991a9.183,9.183,0,0,1-1.646-4.358,23.35,23.35,0,0,1,1.646,4.358Z"/><path class="h" d="M204.835,192.3a8.716,8.716,0,0,1-2.781,7.354,25.173,25.173,0,0,0,1.877-3.493A25.19,25.19,0,0,0,204.835,192.3Z"/><path class="h" d="M206.834,188.975a7.033,7.033,0,0,1-1.254,6.888,20.252,20.252,0,0,0,1.135-3.352A20.227,20.227,0,0,0,206.834,188.975Z"/><path class="i" d="M201.071,314.7l4.381,42.22,3.143,63.583h16.779l.454-135.325-48.038,3.425-9.955,71,8.621,62.142h18.41l-4.311-59.087L201.071,314.7"/><path class="h" d="M201.071,314.7a50.3,50.3,0,0,1-6.806,6.128,50.466,50.466,0,0,1,6.806-6.128Z"/><path class="h" d="M201.023,313.86a47.407,47.407,0,0,1,.088-5.42,47.578,47.578,0,0,1,.314-5.412,48.426,48.426,0,0,1-.4,10.832Z"/><path class="h" d="M206.571,298.1a1.139,1.139,0,0,1,.269-.03l.829-.049,3.184-.156,11.375-.475.194-.008v.2c.007,3.549.013,7.566.021,11.81v.368l-.131.052-7.4,2.965-.069.028-.07-.025-6.542-2.273-.1-.035-.013-.105c-.479-3.685-.877-6.755-1.163-8.958-.125-1.027-.226-1.85-.3-2.462a7.154,7.154,0,0,1-.081-.843,1.386,1.386,0,0,1,.052.24l.113.666c.1.619.23,1.452.394,2.492.327,2.168.782,5.19,1.329,8.817l-.115-.141L214.9,312.4l-.138,0,7.393-2.982-.131.193v-.227c.007-4.244.014-8.261.02-11.81l.195.188-11.252.278-3.233.059-.87.007A2.169,2.169,0,0,1,206.571,298.1Z"/><path class="h" d="M182.35,298.307a.964.964,0,0,1,.243-.025l.747-.032,2.878-.09,10.375-.24.191-.005-.006.193c-.112,3.505-.242,7.545-.38,11.847l0,.108-.09.059-1.2.785-6.083,3.966-.107.07-.108-.066-6.852-4.174-.087-.054,0-.1c.13-3.68.237-6.746.314-8.945q.067-1.539.107-2.459a6.708,6.708,0,0,1,.06-.839,1.242,1.242,0,0,1,.014.242c0,.183,0,.4,0,.668-.005.621-.011,1.456-.018,2.5-.033,2.175-.078,5.205-.133,8.843l-.084-.152,6.881,4.127-.213,0,6.075-3.979,1.2-.784-.094.167c.157-4.3.3-8.341.432-11.845l.185.188-10.264.056-2.92-.006-.782-.01A1.72,1.72,0,0,1,182.35,298.307Z"/><path class="h" d="M220.645,317.433a11.607,11.607,0,0,1-2.274-.071c-1.4-.1-3.331-.3-5.455-.57s-4.041-.584-5.421-.841a11.734,11.734,0,0,1-2.217-.511,12.913,12.913,0,0,1,2.263.22l5.428.719,5.431.69A13.086,13.086,0,0,1,220.645,317.433Z"/><path class="h" d="M220.255,364.5c.018.009-.068.243-.4.533a2.659,2.659,0,0,1-1.716.582,4.055,4.055,0,0,1-2.506-.961,17.314,17.314,0,0,1-2.285-2.311,31.577,31.577,0,0,1-3.4-4.78,10.134,10.134,0,0,1-1.062-2.185,22.353,22.353,0,0,1,1.313,2.032,42.243,42.243,0,0,0,3.462,4.662,19.139,19.139,0,0,0,2.206,2.28,3.873,3.873,0,0,0,2.274.968,2.674,2.674,0,0,0,1.613-.416C220.093,364.672,220.225,364.475,220.255,364.5Z"/><path class="h" d="M187.118,365.979a1.156,1.156,0,0,1-.227.539,3.426,3.426,0,0,1-1.16,1.1,4.433,4.433,0,0,1-2.3.6,5.435,5.435,0,0,1-2.773-.88,9.81,9.81,0,0,1-3.336-3.976,8.833,8.833,0,0,1-.83-1.978,14.2,14.2,0,0,1,1.089,1.837,10.522,10.522,0,0,0,3.3,3.765,5.286,5.286,0,0,0,2.561.849,4.373,4.373,0,0,0,2.149-.478A4.81,4.81,0,0,0,187.118,365.979Z"/><path class="h" d="M188.187,359.61a4.132,4.132,0,0,1-1.378.8,10.886,10.886,0,0,1-7.579.313,4.127,4.127,0,0,1-1.44-.685,13.927,13.927,0,0,0,10.4-.429Z"/><path class="n" d="M242.794,210.6H218.33s-3.323-1.914-4.931-1.592a6.358,6.358,0,0,0-3,2.037L213.634,238l7.924-5.864,29.491-3.072a9.384,9.384,0,0,0,6.744-2.951h0a9.383,9.383,0,0,0,2.483-7.543l-5.455-28.989-11.191.371-.442,7.357Z"/><path class="n" d="M175.451,217.4a14.989,14.989,0,0,0-5.908,6.865c-1.427,3.424-11.169,20.528-16.3,29.477a8.458,8.458,0,0,0,1.225,10.057h0c3.12,3.262,6.848,1.99,11.4.509,2.041-.664,11.223-14.758,11.223-14.758Z" transform="translate(1)"/><path class="n" d="M179.706,278.52,174.1,230.258l1.353-12.862,14.279-6.086,18.494-1.21,17.61,1.939-4.12,49.5,4.507,27.917-49.323,2.23Z"/><path class="i" d="M179.682,278.314c-.115.013-1.457-10.735-3-24s-2.7-24.04-2.585-24.054,1.457,10.733,3,24.006S179.8,278.3,179.682,278.314Z"/><path class="i" d="M225.472,222.869a1.724,1.724,0,0,1-.012.436c-.029.33-.066.739-.111,1.239-.116,1.134-.272,2.674-.463,4.551-.391,3.9-.922,9.178-1.507,15.014-.559,5.868-1.014,11.183-1.3,15.034-.135,1.881-.247,3.424-.328,4.561-.04.5-.073.91-.1,1.24a1.677,1.677,0,0,1-.063.432,1.756,1.756,0,0,1-.021-.435c.006-.332.013-.743.022-1.245.021-1.08.1-2.642.2-4.572.212-3.859.621-9.183,1.18-15.054s1.158-11.173,1.629-15.008c.237-1.917.44-3.468.6-4.537.076-.5.139-.9.189-1.231A1.656,1.656,0,0,1,225.472,222.869Z"/><path class="i" d="M216.985,270.918a6.951,6.951,0,0,1-.781.955,11.154,11.154,0,0,1-1,1.045,18.32,18.32,0,0,1-1.425,1.285,20.405,20.405,0,0,1-1.855,1.408c-.674.5-1.456.938-2.266,1.42a28.2,28.2,0,0,1-11.665,3.481c-.941.042-1.836.1-2.673.055a20.3,20.3,0,0,1-2.323-.161,18.225,18.225,0,0,1-1.9-.294,10.869,10.869,0,0,1-1.411-.325,6.857,6.857,0,0,1-1.176-.37c.022-.092,1.707.434,4.514.7a21.8,21.8,0,0,0,2.3.108c.828.034,1.71-.04,2.638-.092a29.226,29.226,0,0,0,11.51-3.435c.805-.466,1.583-.887,2.257-1.369a21.72,21.72,0,0,0,1.863-1.351C215.795,272.217,216.915,270.853,216.985,270.918Z"/><g class="t"><path d="M190.909,279.928c-2.4-.689-2.536-2.948-1.611-3.922a4.31,4.31,0,0,1,3.771-.9,19.167,19.167,0,0,0,3.984.541c2.194-.148,4.033-1.674,5.556-3.26s2.969-3.359,4.971-4.269,4.787-.59,5.841,1.34a4.187,4.187,0,0,1-.239,4.006,9.348,9.348,0,0,1-2.97,2.909,24.284,24.284,0,0,1-19.3,3.56"/></g><path class="i" d="M220.079,211.586a7.588,7.588,0,0,1,4.621,6.4,11.619,11.619,0,0,0-4.621-6.4Z"/><path class="a" d="M218.368,211.041a2.944,2.944,0,0,0-.407-.242,2.069,2.069,0,0,0-1.328-.082,3.7,3.7,0,0,0-1.818,1.083,20.4,20.4,0,0,1-2.017,2.05,5.937,5.937,0,0,1-3.312,1.019c-1.26.062-2.594-.069-4-.1a78.888,78.888,0,0,0-9.136.2,58.666,58.666,0,0,0-16.166,3.567,50.19,50.19,0,0,0-4.6,2.043l-1.212.637c-.278.145-.428.213-.428.213s.139-.088.412-.242l1.2-.666a46.236,46.236,0,0,1,4.587-2.1,57.457,57.457,0,0,1,16.194-3.623,76.915,76.915,0,0,1,9.155-.186c1.408.04,2.743.176,3.986.12a5.827,5.827,0,0,0,3.249-.976,21.03,21.03,0,0,0,2.022-2.021,3.735,3.735,0,0,1,1.869-1.081,2.076,2.076,0,0,1,1.356.115A1.309,1.309,0,0,1,218.368,211.041Z"/><path class="a" d="M223.911,220.928c0,.011-.168-.051-.5-.108a5.159,5.159,0,0,0-1.445-.046,8.05,8.05,0,0,0-2.212.586,26.673,26.673,0,0,0-2.711,1.394,15.109,15.109,0,0,1-3.407,1.466,21.641,21.641,0,0,1-4.2.679c-2.994.187-6.282.234-9.727.5-6.894.475-13.1,1.31-17.566,2.039-2.235.358-4.035.7-5.281.924l-1.432.271c-.328.061-.5.084-.5.084s.169-.046.495-.117l1.427-.3c1.242-.246,3.04-.6,5.274-.977,4.465-.758,10.673-1.613,17.574-2.088,3.445-.267,6.744-.309,9.726-.487a21.724,21.724,0,0,0,4.178-.66,15.107,15.107,0,0,0,3.388-1.435,25.842,25.842,0,0,1,2.732-1.377,7.909,7.909,0,0,1,2.24-.564,4.939,4.939,0,0,1,1.458.077A2.6,2.6,0,0,1,223.911,220.928Z"/><path class="a" d="M224.031,234.538s-.621.289-1.773.743-2.844,1.052-4.976,1.655a74.786,74.786,0,0,1-17.08,2.553,156.6,156.6,0,0,1-17.289-.411l-5.226-.407-1.42-.124c-.324-.031-.494-.055-.494-.055s.172,0,.5.021l1.422.094,5.229.353a166,166,0,0,0,17.274.362,76.71,76.71,0,0,0,17.056-2.5c2.131-.587,3.827-1.165,4.984-1.6.583-.207,1.024-.4,1.329-.511S224.031,234.538,224.031,234.538Z"/><path class="a" d="M222.157,250.243s-.58.254-1.662.625a33.273,33.273,0,0,1-4.692,1.2,47.731,47.731,0,0,1-7.144.73c-2.7.093-5.679,0-8.792-.181-6.225-.411-11.858-.852-15.944-.707-2.041.053-3.689.185-4.823.319-.569.054-1.006.129-1.306.161s-.456.05-.456.05a41.6,41.6,0,0,1,6.582-.648c4.093-.176,9.737.248,15.957.659,3.11.186,6.079.278,8.777.194a49.052,49.052,0,0,0,7.129-.693,35.676,35.676,0,0,0,4.692-1.145c.548-.161.958-.331,1.245-.422S222.157,250.243,222.157,250.243Z"/><path class="a" d="M220.635,262.4s-2.259.744-6,1.6c-1.87.436-4.117.865-6.627,1.254-2.512.368-5.287.683-8.212.868-2.927.169-5.721.19-8.259.127-2.539-.083-4.821-.239-6.73-.446-3.82-.4-6.151-.868-6.151-.868s.148.011.428.048l1.224.171c1.06.16,2.6.347,4.51.532s4.189.335,6.723.41c2.534.054,5.323.028,8.245-.141s5.691-.494,8.2-.853c2.506-.38,4.752-.8,6.623-1.217s3.38-.785,4.414-1.071l1.194-.317C220.489,262.427,220.635,262.4,220.635,262.4Z"/><path class="a" d="M222.329,266.838s-.142.06-.418.158l-1.2.435c-1.043.387-2.534.99-4.352,1.8s-3.965,1.806-6.4,2.808a41.6,41.6,0,0,1-8.182,2.5,67.714,67.714,0,0,1-15.5.856c-1.988-.082-3.6-.186-4.705-.257l-1.277-.09c-.292-.023-.445-.043-.445-.043s.154,0,.447.009l1.279.059,4.705.2a69.613,69.613,0,0,0,15.466-.9,42.1,42.1,0,0,0,8.156-2.479c2.433-.992,4.582-1.989,6.41-2.774s3.326-1.38,4.377-1.748S222.329,266.838,222.329,266.838Z"/><path class="a" d="M224.833,280.086s-.548.376-1.592.969a31.9,31.9,0,0,1-4.621,2.115,50.842,50.842,0,0,1-16.475,2.785c-6.557.118-12.473-.4-16.756-.582-2.142-.1-3.876-.166-5.075-.191l-1.381-.027c-.315-.007-.481-.02-.481-.02s.166-.01.482-.014l1.381,0c1.2.005,2.936.049,5.08.139,4.286.151,10.2.651,16.746.533a51.731,51.731,0,0,0,16.438-2.73,33.625,33.625,0,0,0,4.63-2.061c.535-.271.924-.529,1.2-.679S224.833,280.086,224.833,280.086Z"/><path class="a" d="M232.286,231.229a.993.993,0,0,1,.042-.2l.152-.568c.14-.49.315-1.208.5-2.1a32.285,32.285,0,0,0-.213-14.12c-.213-.886-.409-1.6-.564-2.084l-.169-.563a.964.964,0,0,1-.048-.2.884.884,0,0,1,.08.189l.2.554c.175.481.389,1.19.618,2.076a30.582,30.582,0,0,1,.213,14.173c-.2.892-.4,1.608-.555,2.093l-.182.56A.942.942,0,0,1,232.286,231.229Z"/><path class="a" d="M244.136,228.334a.743.743,0,0,1,0-.183c.006-.164.013-.336.021-.523.026-.452.04-1.109.031-1.919a29.691,29.691,0,0,0-2.793-12.25c-.344-.733-.641-1.319-.861-1.716l-.245-.461a.744.744,0,0,1-.076-.167.717.717,0,0,1,.1.15l.272.446c.238.388.553.967.911,1.7a27.855,27.855,0,0,1,2.805,12.3c-.006.814-.038,1.472-.085,1.924l-.052.521A.71.71,0,0,1,244.136,228.334Z"/><path class="a" d="M260.148,222.775a1.064,1.064,0,0,1-.15-.159l-.406-.478c-.346-.421-.867-1.012-1.532-1.722a38.59,38.59,0,0,0-12.276-8.789c-.886-.4-1.614-.7-2.123-.9l-.583-.231a1.008,1.008,0,0,1-.2-.091,1.094,1.094,0,0,1,.211.06l.594.2c.518.173,1.254.46,2.149.848a36.383,36.383,0,0,1,12.315,8.817c.655.722,1.164,1.327,1.495,1.761l.382.5A1.062,1.062,0,0,1,260.148,222.775Z"/><path class="a" d="M256.518,200.1a3.053,3.053,0,0,1-.509.009l-1.387-.024c-1.171-.021-2.788-.035-4.573-.005s-3.4.1-4.572.163l-1.385.072a2.911,2.911,0,0,1-.509.008,3.005,3.005,0,0,1,.5-.073c.326-.036.8-.08,1.383-.125,1.168-.091,2.786-.18,4.576-.211s3.408,0,4.579.053c.586.025,1.059.052,1.386.077A2.894,2.894,0,0,1,256.518,200.1Z"/><path class="a" d="M165.865,231.859a2.192,2.192,0,0,1,.3.317c.182.213.458.51.808.867a20.883,20.883,0,0,0,3,2.495,38.551,38.551,0,0,0,3.343,2.03l1.043.57a2.069,2.069,0,0,1,.374.225,2.233,2.233,0,0,1-.4-.168c-.256-.117-.621-.294-1.069-.523a30.223,30.223,0,0,1-3.383-2,18.32,18.32,0,0,1-2.988-2.55,11.684,11.684,0,0,1-.773-.908A2.233,2.233,0,0,1,165.865,231.859Z"/><path class="a" d="M169.239,225.456c.025-.013.184.275.565.641a12.026,12.026,0,0,0,1.616,1.278c.671.451,1.3.823,1.769,1.073s.766.382.758.406a9.021,9.021,0,0,1-2.62-1.341,9.273,9.273,0,0,1-1.608-1.335A1.905,1.905,0,0,1,169.239,225.456Z"/><path class="a" d="M174.929,252.758a.826.826,0,0,1-.175-.078l-.486-.254c-.421-.223-1.019-.569-1.733-1.033a35.8,35.8,0,0,1-5.212-4.134,33.107,33.107,0,0,1-4.345-5.038,19.982,19.982,0,0,1-1.078-1.707c-.094-.173-.181-.331-.262-.481a.1.1,0,1,1,.029-.017l.289.465c.246.406.621.984,1.118,1.672a35.88,35.88,0,0,0,4.364,4.985,39.234,39.234,0,0,0,5.161,4.157c.7.475,1.29.835,1.7,1.075l.47.28A.83.83,0,0,1,174.929,252.758Z"/><path class="i" d="M152.7,261.025a3.946,3.946,0,0,1-.148-.915,15.1,15.1,0,0,1-.054-2.533,16.3,16.3,0,0,1,2.655-7.865c1.721-2.752,3.3-5.231,4.457-7.014l1.39-2.1a3.909,3.909,0,0,1,.558-.739,4.035,4.035,0,0,1-.421.826q-.521.883-1.278,2.17c-1.1,1.822-2.631,4.324-4.35,7.074a17.019,17.019,0,0,0-2.717,7.671C152.6,259.7,152.789,261.021,152.7,261.025Z"/><path class="a" d="M166.7,264.26a10.371,10.371,0,0,1-2.764-.411,12.959,12.959,0,0,1-9.163-9.163,10.4,10.4,0,0,1-.41-2.765.846.846,0,0,1,.033.192c.019.126.029.313.068.55a13.719,13.719,0,0,0,.423,1.991,13.169,13.169,0,0,0,9.08,9.082,13.749,13.749,0,0,0,1.991.423c.238.039.425.05.55.068A.846.846,0,0,1,166.7,264.26Z"/><path class="a" d="M158.667,236.944a.63.63,0,0,1-.139.1l-.416.254c-.366.211-.879.544-1.494.981a21.292,21.292,0,0,0-7.261,9.09c-.29.7-.5,1.271-.627,1.674l-.155.461a.641.641,0,0,1-.066.158.692.692,0,0,1,.033-.167l.126-.471a15.771,15.771,0,0,1,.58-1.7,20.239,20.239,0,0,1,7.3-9.142,15.9,15.9,0,0,1,1.528-.942l.433-.226A.677.677,0,0,1,158.667,236.944Z"/><path class="a" d="M154.179,231.022a2.714,2.714,0,0,1-.455.161c-.3.088-.719.24-1.23.447a14.336,14.336,0,0,0-3.675,2.224,20.908,20.908,0,0,0-2.977,3.118c-.341.435-.612.793-.794,1.044a2.692,2.692,0,0,1-.3.377,2.683,2.683,0,0,1,.247-.414c.167-.263.424-.632.755-1.079a18.714,18.714,0,0,1,2.964-3.174,13.325,13.325,0,0,1,3.737-2.205,10.417,10.417,0,0,1,1.256-.4A2.507,2.507,0,0,1,154.179,231.022Z"/></g></svg>