<svg xmlns="http://www.w3.org/2000/svg" width="285.125" height="285.83" viewBox="0 0 285.125 285.83"><g transform="translate(-26.757 -29.113)"><g transform="translate(28.705 76.135)"><g transform="translate(186.678)"><g transform="translate(0 66.064)"><g transform="translate(0.23 0.248)"><path d="M347.349,243.412a17.237,17.237,0,0,1-4.509.751L341,247.979l-6.833-1.58.019-4.239a17.163,17.163,0,0,1-3.723-2.656l-4,1.4-3.714-5.95,3.01-2.983a17.14,17.14,0,0,1-.75-4.511l-3.817-1.844,1.58-6.833,4.239.019a17.2,17.2,0,0,1,2.656-3.722l-1.4-4,5.95-3.715,2.983,3.01a17.162,17.162,0,0,1,4.51-.751l1.845-3.817,6.833,1.581-.02,4.24a17.2,17.2,0,0,1,3.722,2.656l4-1.394,3.715,5.949-3.01,2.983a17.119,17.119,0,0,1,.751,4.511l3.817,1.844L361.783,235l-4.24-.019a17.2,17.2,0,0,1-2.656,3.723l1.395,4-5.949,3.714-2.983-3.009Zm-1.361-9.97a7.524,7.524,0,1,0-10.367-2.4A7.523,7.523,0,0,0,345.988,233.441Z" transform="translate(-321.186 -205.802)" fill="none"/></g><g transform="translate(13.324 13.772)"><path d="M353.308,241a5.68,5.68,0,0,1-1.657.854,7.488,7.488,0,0,1-5.043-.064,7.58,7.58,0,0,1-2.949-1.959,7.7,7.7,0,0,1-1.881-3.6,7.716,7.716,0,0,1,.368-4.472,7.676,7.676,0,0,1,7.757-4.843,7.71,7.71,0,0,1,4.181,1.633,7.7,7.7,0,0,1,2.411,3.271,7.576,7.576,0,0,1,.464,3.51,7.493,7.493,0,0,1-2.157,4.559A5.674,5.674,0,0,1,353.308,241c-.031-.043.56-.369,1.373-1.23a7.5,7.5,0,0,0,1.974-4.471,7.347,7.347,0,0,0-2.817-6.44,7.345,7.345,0,0,0-3.967-1.524,7.289,7.289,0,0,0-7.332,4.577,7.353,7.353,0,0,0-.372,4.233,7.351,7.351,0,0,0,4.548,5.359,7.5,7.5,0,0,0,4.884.189C352.73,241.344,353.283,240.955,353.308,241Z" transform="translate(-341.601 -226.887)" fill="#e0e0e0"/></g><path d="M347.221,243.273a1.522,1.522,0,0,1,.2.176l.577.558,2.259,2.226-.086-.01,5.927-3.749-.045.129-1.411-3.995-.026-.072.053-.057a17.164,17.164,0,0,0,2.623-3.7l.039-.076h.087l4.239.007-.15.119,1.564-6.836.092.191-3.821-1.837-.1-.046,0-.108a17.065,17.065,0,0,0-.75-4.462l-.033-.107.08-.08,3.005-2.986-.028.239-3.722-5.945.237.083-4,1.4-.117.041-.091-.085a17.093,17.093,0,0,0-3.679-2.62l-.112-.059v-.127c.005-1.328.011-2.776.017-4.239l.164.207-6.833-1.578.241-.116-1.844,3.818-.057.118-.13,0a17.008,17.008,0,0,0-4.45.741h0c-.1-.024.216.055-.217-.054l0,0-.006-.006-.012-.012-.024-.024-.047-.047-.094-.095-.187-.189-.375-.378-.748-.755-1.487-1.5.267.031-5.951,3.713.089-.251,1.393,4,.042.121-.088.094a17,17,0,0,0-2.626,3.675l-.059.112h-.126l-4.239-.022.2-.159q-.813,3.5-1.587,6.831l-.107-.224,3.815,1.849.106.051,0,.117a17.016,17.016,0,0,0,.736,4.461l.033.108-.08.08-3.015,2.978.026-.223,3.7,5.957-.194-.069,4-1.385.089-.031.068.064a17.124,17.124,0,0,0,3.683,2.643l.076.04v.085c-.012,1.541-.023,2.928-.033,4.239l-.1-.125,6.826,1.611-.109.053c.746-1.52,1.359-2.767,1.868-3.8l.019-.038h.042a17.832,17.832,0,0,0,3.41-.419l.827-.2a1.678,1.678,0,0,1,.275-.063,2.237,2.237,0,0,1-.265.1c-.18.056-.452.142-.82.234a16.617,16.617,0,0,1-3.422.489l.06-.039-1.819,3.829-.033.069-.076-.017-6.84-1.55-.1-.022v-.1c0-1.311,0-2.7,0-4.239l.076.126a17.338,17.338,0,0,1-3.762-2.668l.156.033-4,1.4-.124.044-.071-.112-3.725-5.942-.076-.121.1-.1,3-2.988-.047.188a17.341,17.341,0,0,1-.766-4.559l.109.168-3.819-1.84-.143-.069.036-.155q.767-3.333,1.573-6.834l.037-.16h.165l4.239.016-.185.111a17.39,17.39,0,0,1,2.686-3.769l-.046.214-1.4-4-.056-.162.145-.09,5.949-3.716.146-.091.121.123,1.487,1.5.748.755.375.378.188.189.094.095.047.047.024.024.012.012.006.006,0,0-.216-.055h0a17.4,17.4,0,0,1,4.563-.759l-.187.121,1.845-3.816.074-.155.167.038,6.833,1.584.165.038v.169c-.007,1.463-.015,2.911-.022,4.239l-.111-.185a17.518,17.518,0,0,1,3.765,2.69l-.208-.044,4-1.39.152-.053.085.136,3.707,5.954.081.131-.109.108-3.014,2.978.047-.187a17.371,17.371,0,0,1,.751,4.559l-.1-.155,3.813,1.852.123.059-.031.132c-.56,2.4-1.093,4.678-1.6,6.829l-.028.12h-.122l-4.239-.031.126-.075a17.352,17.352,0,0,1-2.689,3.743l.027-.128,1.378,4.006.029.083-.074.046-5.97,3.679-.047.03-.038-.039-2.187-2.258-.56-.589A2.18,2.18,0,0,1,347.221,243.273Z" transform="translate(-320.828 -205.416)" fill="#e0e0e0"/></g><g transform="translate(3.364)"><path d="M363.066,155.6a24.321,24.321,0,0,1-6.377,1.062l-2.607,5.4-9.661-2.235.027-5.993a24.307,24.307,0,0,1-5.264-3.755l-5.658,1.972-5.25-8.412,4.255-4.217a24.284,24.284,0,0,1-1.062-6.378l-5.4-2.607,2.235-9.66,5.994.026a24.3,24.3,0,0,1,3.756-5.263l-1.972-5.657,8.412-5.252,4.217,4.256a24.246,24.246,0,0,1,6.376-1.062l2.608-5.4,9.661,2.235-.028,5.994A24.376,24.376,0,0,1,372.6,114.4l5.657-1.971,5.251,8.412-4.255,4.217a24.256,24.256,0,0,1,1.062,6.378l5.4,2.607-2.235,9.661-5.994-.027a24.3,24.3,0,0,1-3.755,5.263L375.7,154.6l-8.412,5.251-4.218-4.255Zm-1.925-14.1a10.638,10.638,0,1,0-14.657-3.391A10.638,10.638,0,0,0,361.141,141.5Z" transform="translate(-326.073 -102.421)" fill="#e0e0e0" fill-rule="evenodd"/></g><g transform="translate(43.439 56.839)"><path d="M408.23,219.324a12.95,12.95,0,0,1-3.393.565l-1.387,2.871-5.14-1.189.014-3.189a12.92,12.92,0,0,1-2.8-2l-3.01,1.049-2.793-4.475,2.264-2.244a12.9,12.9,0,0,1-.564-3.393l-2.871-1.387,1.189-5.139,3.189.013a12.95,12.95,0,0,1,2-2.8L393.876,195l4.475-2.795,2.244,2.264a12.892,12.892,0,0,1,3.393-.564l1.387-2.872,5.14,1.189-.015,3.189a12.957,12.957,0,0,1,2.8,2l3.01-1.049,2.794,4.475-2.264,2.243a12.9,12.9,0,0,1,.565,3.393l2.871,1.387L419.087,213l-3.189-.014a12.93,12.93,0,0,1-2,2.8l1.049,3.01-4.475,2.793-2.244-2.264Zm-1.024-7.5a5.659,5.659,0,1,0-7.8-1.8A5.659,5.659,0,0,0,407.206,211.824Z" transform="translate(-388.55 -191.034)" fill="#ebebeb" fill-rule="evenodd"/></g></g><g transform="translate(39.26 28.369)"><g transform="translate(0.033)"><path d="M104.722,146.65c.065.065-2.943,3.147-6.717,6.881s-6.888,6.709-6.952,6.644,2.942-3.146,6.718-6.881S104.657,146.585,104.722,146.65Z" transform="translate(-91.051 -146.649)" fill="#e0e0e0"/></g><g transform="translate(0 0.033)"><path d="M104.736,160.162c-.065.066-3.192-2.894-6.984-6.61S90.937,146.768,91,146.7s3.191,2.893,6.985,6.611S104.8,160.1,104.736,160.162Z" transform="translate(-91 -146.701)" fill="#e0e0e0"/></g></g><g transform="translate(48.778 111.915)"><g transform="translate(0.68)"><path d="M124.008,278.718c-.01.092-3.847-.238-8.571-.736s-8.546-.978-8.537-1.069,3.847.238,8.572.737S124.017,278.626,124.008,278.718Z" transform="translate(-106.9 -276.897)" fill="#e0e0e0"/></g><g transform="translate(0 6.443)"><path d="M122.947,288.763c-.01.092-3.847-.238-8.571-.737s-8.546-.977-8.536-1.069,3.847.238,8.571.737S122.957,288.671,122.947,288.763Z" transform="translate(-105.84 -286.942)" fill="#e0e0e0"/></g></g><g transform="translate(0 99.578)"><path d="M49.425,257.682s-5.08-.366-4.612,11.029a131.951,131.951,0,0,0,1.631,17.464s-.149,2.527-2.106,2.031-5.638-2.955-7.455-1.117c-1.885,1.906-1.215,4.829,1.286,8.273s7.7,11.19,8.171,11.892.644,1.982-.743,1.858-10.749-3.3-11.989,1.235,7.3,12.981,8.22,13.923.965,1.536.594,2.105S39,325.582,36.3,324.788s-5.969-1.24-6.466,1.436,3.267,10.5,17.359,18.73l6.779,3.385,6.417-4.092c13.2-9.6,16.16-17.762,15.4-20.374s-3.97-1.84-6.577-.781-5.5,2.721-5.928,2.191-.437-1.126.38-2.155,8.473-10.289,6.786-14.675-10.685-.292-12.053-.029-1.314-1.042-.926-1.774,4.8-8.973,6.94-12.65,2.518-6.652.452-8.36c-1.992-1.647-5.409,1.167-7.306,1.857s-2.3-1.81-2.3-1.81a131.96,131.96,0,0,0-.125-17.539c-.674-11.384-5.813-10.465-5.813-10.465" transform="translate(-29.794 -257.664)" fill="#ebebeb"/><g transform="translate(20.031 10.223)"><path d="M61.024,273.6s.013.08.027.238.031.4.054.7c.043.627.1,1.532.183,2.691.155,2.337.355,5.72.586,9.9.465,8.362,1.008,19.92,1.566,32.685s1.072,24.328,1.489,32.693c.212,4.173.384,7.554.5,9.9.058,1.16.1,2.065.134,2.693.012.3.022.532.028.7s0,.239,0,.239-.013-.08-.027-.237-.031-.4-.054-.7c-.043-.627-.1-1.532-.183-2.691-.155-2.337-.355-5.72-.586-9.9-.464-8.362-1.008-19.921-1.566-32.691S62.108,295.5,61.69,287.141c-.212-4.173-.384-7.554-.5-9.9-.058-1.16-.1-2.065-.134-2.693-.012-.3-.022-.532-.028-.7S61.024,273.6,61.024,273.6Z" transform="translate(-61.022 -273.602)" fill="#e0e0e0"/></g><g transform="translate(12.098 33.07)"><path d="M48.655,309.221a2.209,2.209,0,0,1,.421.351c.261.237.627.591,1.076,1.033.895.886,2.1,2.143,3.4,3.555l3.316,3.627,1.009,1.095a2.209,2.209,0,0,1,.353.419,2.243,2.243,0,0,1-.425-.348c-.26-.238-.627-.592-1.071-1.039-.886-.9-2.072-2.167-3.374-3.579l-3.34-3.6-1.015-1.09A2.22,2.22,0,0,1,48.655,309.221Z" transform="translate(-48.655 -309.221)" fill="#e0e0e0"/></g><g transform="translate(22.345 31.511)"><path d="M64.632,318.207c-.051-.05,2.428-2.647,5.537-5.8s5.672-5.667,5.722-5.617-2.428,2.646-5.537,5.8S64.682,318.257,64.632,318.207Z" transform="translate(-64.631 -306.791)" fill="#e0e0e0"/></g><g transform="translate(22.318 55.16)"><path d="M64.588,351.072a2.317,2.317,0,0,1,.473-.3l1.326-.745c1.119-.629,2.661-1.5,4.328-2.527s3.15-2,4.216-2.711l1.265-.844a2.3,2.3,0,0,1,.482-.285,2.348,2.348,0,0,1-.423.367c-.282.223-.7.536-1.219.913-1.042.754-2.511,1.757-4.186,2.782s-3.233,1.879-4.377,2.468c-.573.292-1.039.522-1.366.672A2.309,2.309,0,0,1,64.588,351.072Z" transform="translate(-64.588 -343.659)" fill="#e0e0e0"/></g><g transform="translate(11.087 55.696)"><path d="M47.079,344.5a2,2,0,0,1,.469.22c.293.156.713.39,1.229.683,1.032.586,2.448,1.412,4.005,2.337s2.958,1.777,3.967,2.4c.5.313.91.571,1.187.754a2,2,0,0,1,.418.307,1.938,1.938,0,0,1-.469-.22c-.293-.156-.713-.389-1.229-.682-1.032-.587-2.449-1.412-4.006-2.338s-2.958-1.776-3.966-2.4c-.5-.314-.91-.571-1.187-.754A1.977,1.977,0,0,1,47.079,344.5Z" transform="translate(-47.078 -344.495)" fill="#e0e0e0"/></g><g transform="translate(8.858 73.037)"><path d="M43.6,371.531a3.209,3.209,0,0,1,.6.288l1.578.87c1.326.745,3.15,1.789,5.156,2.956s3.816,2.237,5.119,3.022l1.536.942a3.212,3.212,0,0,1,.545.376,3.237,3.237,0,0,1-.6-.289l-1.578-.87c-1.326-.745-3.151-1.789-5.157-2.956s-3.815-2.237-5.118-3.022l-1.536-.942A3.294,3.294,0,0,1,43.6,371.531Z" transform="translate(-43.605 -371.529)" fill="#e0e0e0"/></g><g transform="translate(23.099 71.372)"><path d="M65.806,378.755a3.8,3.8,0,0,1,.589-.394l1.648-1c1.391-.847,3.308-2.024,5.388-3.381s3.937-2.63,5.273-3.561l1.584-1.1a3.8,3.8,0,0,1,.6-.38,3.671,3.671,0,0,1-.539.461c-.358.284-.881.684-1.538,1.169-1.31.97-3.151,2.271-5.239,3.629s-4.02,2.514-5.436,3.322c-.709.4-1.287.722-1.691.933A3.651,3.651,0,0,1,65.806,378.755Z" transform="translate(-65.806 -368.933)" fill="#e0e0e0"/></g><g transform="translate(14.533 92.893)"><path d="M71.207,402.485H52.451l6.121,46.338h6.512Z" transform="translate(-52.451 -402.485)" fill="#e0e0e0"/><g transform="translate(0.972 3.786)"><path d="M53.968,410.3c-.008.005.021.066.1.165a1.189,1.189,0,0,0,.452.324,2.272,2.272,0,0,0,1.981-.244,15.118,15.118,0,0,1,2.432-1.6,5.326,5.326,0,0,1,3.449.069,14.8,14.8,0,0,1,3.212,1.556,22.225,22.225,0,0,0,2.611,1.4,7.216,7.216,0,0,0,1.926.557,3.566,3.566,0,0,0,.544.037c.125,0,.19-.005.191-.015a9.811,9.811,0,0,1-2.573-.776,25.671,25.671,0,0,1-2.554-1.446,14.256,14.256,0,0,0-3.266-1.606,5.5,5.5,0,0,0-3.64-.04,4.777,4.777,0,0,0-1.37.847,10.752,10.752,0,0,1-1.073.832,2.2,2.2,0,0,1-1.827.317A1.847,1.847,0,0,1,53.968,410.3Z" transform="translate(-53.967 -408.387)" fill="#f5f5f5"/></g><g transform="translate(1.656 10.829)"><path d="M55.035,422.77c.024.015.148-.191.441-.5a4.169,4.169,0,0,1,1.5-.95,6.694,6.694,0,0,1,2.608-.393,27.451,27.451,0,0,1,3.264.444,11.21,11.21,0,0,0,3.342.139,9.191,9.191,0,0,0,2.629-.75,8.39,8.39,0,0,0,1.581-.94,2.283,2.283,0,0,0,.5-.451,16.772,16.772,0,0,1-2.169,1.192,9.617,9.617,0,0,1-2.577.669,11.515,11.515,0,0,1-3.26-.161,24.588,24.588,0,0,0-3.3-.424,6.607,6.607,0,0,0-2.7.474,3.936,3.936,0,0,0-1.5,1.071,2.682,2.682,0,0,0-.284.416C55.05,422.709,55.025,422.765,55.035,422.77Z" transform="translate(-55.033 -419.369)" fill="#f5f5f5"/></g><g transform="translate(2.719 17.506)"><path d="M70.6,431.071a1.583,1.583,0,0,0-.517-.269,5.538,5.538,0,0,0-1.554-.333,9.934,9.934,0,0,0-2.35.134c-.875.142-1.812.384-2.8.593a11.786,11.786,0,0,1-2.793.315,6.079,6.079,0,0,1-2.217-.479,5.125,5.125,0,0,1-1.682-1.252,1.455,1.455,0,0,0,.318.489,3.968,3.968,0,0,0,1.273.959,5.984,5.984,0,0,0,2.3.565,11.293,11.293,0,0,0,2.868-.3c1-.212,1.926-.461,2.782-.615a10.772,10.772,0,0,1,2.29-.2A8.593,8.593,0,0,1,70.6,431.071Z" transform="translate(-56.69 -429.778)" fill="#f5f5f5"/></g><g transform="translate(3.314 24.136)"><path d="M57.619,441.2a3.042,3.042,0,0,1,1.821-.183,8.765,8.765,0,0,1,1.905.71,7.239,7.239,0,0,0,2.473.682,7.422,7.422,0,0,0,4.487-1.04,6.391,6.391,0,0,0,1.117-.859c.228-.243.346-.383.33-.4a16.4,16.4,0,0,1-1.555,1.069,7.686,7.686,0,0,1-4.351.922c-1.775-.1-3.139-1.16-4.369-1.3a2.791,2.791,0,0,0-1.415.123A.93.93,0,0,0,57.619,441.2Z" transform="translate(-57.618 -440.114)" fill="#f5f5f5"/></g><g transform="translate(4.36 31.529)"><path d="M59.248,454.231a3.594,3.594,0,0,0,1.564-.311c.943-.315,2.11-1.038,3.472-1.579a5.647,5.647,0,0,1,1.993-.417,3.669,3.669,0,0,1,1.6.366,3.546,3.546,0,0,1,1.158,1,.853.853,0,0,0-.178-.4,2.578,2.578,0,0,0-.879-.8,3.679,3.679,0,0,0-1.7-.457,5.588,5.588,0,0,0-2.106.414c-1.412.563-2.542,1.307-3.443,1.664C59.843,454.1,59.241,454.182,59.248,454.231Z" transform="translate(-59.248 -451.64)" fill="#f5f5f5"/></g><g transform="translate(5.279 38.246)"><path d="M60.681,462.123a4.376,4.376,0,0,0,1.188.385,21.833,21.833,0,0,0,5.978.588,4.374,4.374,0,0,0,1.24-.147c0-.092-1.9-.012-4.219-.245S60.7,462.034,60.681,462.123Z" transform="translate(-60.681 -462.112)" fill="#f5f5f5"/></g></g></g></g><g transform="translate(26.757 314.032)"><path d="M311.881,473.471c0,.092-63.833.167-142.555.167-78.751,0-142.569-.075-142.569-.167s63.819-.167,142.569-.167C248.049,473.3,311.881,473.378,311.881,473.471Z" transform="translate(-26.757 -473.304)" fill="#263238"/></g><g transform="translate(97.32 29.114)"><g transform="translate(10 65.896)"><path d="M152.355,150.523s1.747-10.462,2.162-11.258,5.239-5.687,5.808-5.788,8.171-2.487,7.75-1.3-5.752,2.786-5.752,2.786l-.506.637s4.556-1.482,5.689-1.445c1.043.035,1.228,1.118.414,1.43s-4.832,1.482-4.981,1.734,4.472-1.069,5.052-1.044c.781.033,1.348,1.022.55,1.358-.471.2-4.938,1.223-4.938,1.223a39.25,39.25,0,0,1,4.149-.323c.688.186.629,1.019-.126,1.219-.519.137-3.248.255-3.942.44,0,0-.515.441-.5,1.823s-1.777,5.063-1.777,5.063Z" transform="translate(-152.355 -131.846)" fill="#f2f2f2"/><g transform="translate(7.398 0.35)"><path d="M172.2,132.4a3.833,3.833,0,0,1-1.118.972,9.078,9.078,0,0,1-1.423.781c-.566.212-1.193.428-1.851.656l-1.4.475.076-.046a22.362,22.362,0,0,1-2.594,2.407,21.919,21.919,0,0,1,2.349-2.632l.028-.03.047-.017,1.385-.485,1.843-.624a11.216,11.216,0,0,0,1.411-.691C171.73,132.709,172.169,132.355,172.2,132.4Z" transform="translate(-163.888 -132.392)" fill="#c4c9ce"/></g></g><g transform="translate(7.823)"><path d="M273.964,229.206,170.423,218.54a5.765,5.765,0,0,1-5.144-6.325L183.212,38.141a8.188,8.188,0,0,1,8.985-7.306L290.916,41a8.188,8.188,0,0,1,7.306,8.985L280.289,224.063A5.764,5.764,0,0,1,273.964,229.206Z" transform="translate(-154.802 -29.715)" fill="#0048cd"/><path d="M257.677,227.528,154.136,216.862a5.764,5.764,0,0,1-5.143-6.325L166.925,36.463a8.188,8.188,0,0,1,8.984-7.306l98.719,10.169a8.188,8.188,0,0,1,7.306,8.985L264,222.384A5.764,5.764,0,0,1,257.677,227.528Z" transform="translate(-148.962 -29.114)" fill="#0894fe"/><g transform="translate(17.049 147.197)"><rect width="38.996" height="17.228" rx="2.42" transform="translate(1.765 0) rotate(5.882)" fill="#0a437d"/></g><g transform="translate(21.026 19.32)"><g transform="translate(0.175 0.183)"><rect width="38.774" height="98.847" transform="translate(0 38.57) rotate(-84.118)" fill="#fafafa"/></g><path d="M280.243,108.117s.017-.237.059-.688.108-1.124.193-2c.174-1.756.43-4.337.761-7.664.67-6.65,1.641-16.281,2.845-28.233l.1.128L185.88,59.584h-.006l.183-.149L182.076,98l-.143-.176,70.462,7.334,20.463,2.153,5.48.585,1.418.156c.32.037.487.06.487.06s-.156-.01-.47-.038l-1.4-.134-5.45-.541-20.436-2.06-70.586-7.2-.159-.017.016-.159C183,85.924,184.336,72.89,185.724,59.4l.017-.166.166.017h.006l98.315,10.18.115.012-.012.115c-1.26,11.977-2.276,21.627-2.978,28.29-.353,3.314-.628,5.883-.815,7.632l-.216,1.973C280.274,107.9,280.243,108.117,280.243,108.117Z" transform="translate(-181.741 -59.234)" fill="#263238"/></g><g transform="translate(20.81 73.754)"><g transform="translate(2.581 0.266)"><rect width="16.802" height="16.802" rx="2.082" transform="translate(1.722) rotate(5.882)" fill="#e8505b"/></g><g transform="translate(2.581 0.266)" opacity="0.4"><rect width="16.802" height="16.802" rx="2.082" transform="translate(1.722) rotate(5.882)"/></g><rect width="16.802" height="16.802" rx="2.082" transform="matrix(0.995, 0.102, -0.102, 0.995, 1.722, 0)" fill="#263238"/><g transform="translate(7.625 5.47)"><path d="M196.43,152.934l-.718,6.965-1.612-.166.584-5.672-1.393-.144.133-1.293Z" transform="translate(-193.292 -152.625)" fill="#fff"/></g></g><g transform="translate(44.115 76.155)"><g transform="translate(2.581 0.266)"><rect width="16.802" height="16.802" rx="2.082" transform="matrix(0.995, 0.102, -0.102, 0.995, 1.722, 0)" fill="#0a437d"/></g><rect width="16.802" height="16.802" rx="2.082" transform="matrix(0.995, 0.102, -0.102, 0.995, 1.722, 0)" fill="#263238"/><g transform="translate(7.299 5.605)"><path d="M234.517,162.664l-.135,1.314-5.264-.543.108-1.044,2.949-2.261c.677-.523.823-.87.858-1.208.056-.548-.289-.905-1.024-.981a1.714,1.714,0,0,0-1.516.548l-1.1-.878a3.252,3.252,0,0,1,2.9-1.008c1.552.16,2.505,1.063,2.375,2.326a2.8,2.8,0,0,1-1.391,2.079l-1.758,1.348Z" transform="translate(-229.118 -156.579)" fill="#fff"/></g></g><g transform="translate(68.275 78.644)"><g transform="translate(2.581 0.266)"><rect width="16.802" height="16.802" rx="2.082" transform="translate(1.722 0) rotate(5.882)" fill="#0a437d"/></g><rect width="16.802" height="16.802" rx="2.082" transform="translate(1.722 0) rotate(5.882)" fill="#263238"/><g transform="translate(7.026 5.498)"><path d="M272.054,165.662c-.121,1.174-1.137,2.156-3.117,1.952a4.822,4.822,0,0,1-2.581-1.02l.754-1.169a3.4,3.4,0,0,0,1.926.832c.806.083,1.337-.194,1.4-.761.054-.527-.3-.9-1.216-.99l-.736-.076.109-1.065,1.6-1.474-2.965-.305.133-1.294,4.876.5-.108,1.045-1.757,1.629A1.988,1.988,0,0,1,272.054,165.662Z" transform="translate(-266.357 -160.291)" fill="#fff"/></g></g><g transform="translate(92.494 81.133)"><g transform="translate(2.522 0.266)"><rect width="16.802" height="16.802" rx="2.082" transform="translate(1.722) rotate(5.882)" fill="#0a437d"/></g><rect width="16.802" height="16.802" rx="2.082" transform="matrix(0.995, 0.102, -0.102, 0.995, 1.722, 0)" fill="#263238"/><g transform="translate(5.38 4.471)"><g transform="translate(0 3.767)"><rect width="0.642" height="7.502" transform="translate(0 0.638) rotate(-84.118)" fill="#fff"/></g><g transform="translate(2.883)"><path d="M308.47,163.912a1.216,1.216,0,1,1-1.085-1.335A1.216,1.216,0,0,1,308.47,163.912Z" transform="translate(-306.044 -162.571)" fill="#fff"/></g><g transform="translate(2.213 6.508)"><path d="M307.425,174.058a1.216,1.216,0,1,1-1.085-1.335A1.216,1.216,0,0,1,307.425,174.058Z" transform="translate(-304.999 -172.717)" fill="#fff"/></g></g></g><g transform="translate(18.288 98.237)"><g transform="translate(2.581 0.266)"><rect width="16.802" height="16.802" rx="2.082" transform="matrix(0.995, 0.102, -0.102, 0.995, 1.722, 0)" fill="#e8505b"/></g><g transform="translate(2.581 0.266)" opacity="0.4"><rect width="16.802" height="16.802" rx="2.082" transform="matrix(0.995, 0.102, -0.102, 0.995, 1.722, 0)"/></g><rect width="16.802" height="16.802" rx="2.082" transform="matrix(0.995, 0.102, -0.102, 0.995, 1.722, 0)" fill="#263238"/><g transform="translate(5.772 5.662)"><path d="M192.929,196.923l-1.135-.117-.151,1.463-1.572-.162.15-1.462-3.751-.387.112-1.085,3.739-4.079,1.691.174-3.476,3.876,1.871.192.133-1.3,1.523.157-.134,1.3,1.135.117Z" transform="translate(-186.471 -191.094)" fill="#fff"/></g></g><g transform="translate(41.593 100.638)"><g transform="translate(2.581 0.266)"><rect width="16.802" height="16.802" rx="2.082" transform="translate(1.722) rotate(5.882)" fill="#0a437d"/></g><rect width="16.802" height="16.802" rx="2.082" transform="translate(1.722) rotate(5.882)" fill="#263238"/><g transform="translate(6.306 5.478)"><path d="M229.35,199.807c-.128,1.234-1.144,2.215-3.133,2.01a4.839,4.839,0,0,1-2.58-1.02l.765-1.168a3.364,3.364,0,0,0,1.915.831c.806.083,1.338-.2,1.4-.772.056-.547-.265-.942-1.529-1.072l-1.781-.184.762-3.883,4.249.437-.133,1.293-2.906-.3-.246,1.312.568.058C228.757,197.564,229.477,198.574,229.35,199.807Z" transform="translate(-223.637 -194.55)" fill="#fff"/></g></g><g transform="translate(65.753 103.127)"><g transform="translate(2.581 0.266)"><rect width="16.802" height="16.802" rx="2.082" transform="translate(1.722) rotate(5.882)" fill="#0a437d"/></g><rect width="16.802" height="16.802" rx="2.082" transform="matrix(0.995, 0.102, -0.102, 0.995, 1.722, 0)" fill="#263238"/><g transform="translate(6.843 5.639)"><path d="M267.805,203.818a2.406,2.406,0,0,1-2.876,2.047c-1.92-.2-2.99-1.525-2.758-3.774.248-2.407,1.838-3.6,3.939-3.385a3.783,3.783,0,0,1,1.89.677l-.719,1.123a2.308,2.308,0,0,0-1.268-.483,1.859,1.859,0,0,0-2.167,1.818,2.363,2.363,0,0,1,1.784-.44A2.221,2.221,0,0,1,267.805,203.818Zm-1.57-.081a1.055,1.055,0,0,0-1.077-1.166,1.1,1.1,0,0,0-1.312.92c-.061.6.343,1.081,1.118,1.161A1.047,1.047,0,0,0,266.235,203.736Z" transform="translate(-262.14 -198.681)" fill="#fff"/></g></g><g transform="translate(89.914 105.616)"><g transform="translate(2.581 0.266)"><rect width="16.802" height="16.802" rx="2.082" transform="matrix(0.995, 0.102, -0.102, 0.995, 1.722, 0)" fill="#0a437d"/></g><rect width="16.802" height="16.802" rx="2.082" transform="matrix(0.995, 0.102, -0.102, 0.995, 1.722, 0)" fill="#263238"/><g transform="translate(6.073 6.105)"><g transform="translate(0 0.538)"><rect width="7.503" height="0.641" transform="matrix(0.785, -0.619, 0.619, 0.785, 0, 4.646)" fill="#fff"/></g><g transform="translate(0.528)"><rect width="0.641" height="7.503" transform="matrix(0.776, -0.631, 0.631, 0.776, 0, 0.405)" fill="#fff"/></g></g></g><g transform="translate(15.786 122.521)"><g transform="translate(2.581 0.266)"><rect width="16.802" height="16.802" rx="2.082" transform="matrix(0.995, 0.102, -0.102, 0.995, 1.722, 0)" fill="#e8505b"/></g><g transform="translate(2.581 0.266)" opacity="0.4"><rect width="16.802" height="16.802" rx="2.082" transform="matrix(0.995, 0.102, -0.102, 0.995, 1.722, 0)"/></g><rect width="16.802" height="16.802" rx="2.082" transform="matrix(0.995, 0.102, -0.102, 0.995, 1.722, 0)" fill="#263238"/><g transform="translate(6.037 5.318)"><path d="M188.818,228.991l-.107,1.045-3.2,5.654-1.751-.18,3.08-5.394-2.308-.238-.117,1.134-1.433-.148.252-2.448Z" transform="translate(-182.984 -228.416)" fill="#fff"/></g></g><g transform="translate(39.091 124.922)"><g transform="translate(2.581 0.266)"><rect width="16.802" height="16.802" rx="2.082" transform="matrix(0.995, 0.102, -0.102, 0.995, 1.722, 0)" fill="#0a437d"/></g><rect width="16.802" height="16.802" rx="2.082" transform="translate(1.722 0) rotate(5.882)" fill="#263238"/><g transform="translate(6.687 5.57)"><path d="M226.212,237.944c-.135,1.314-1.394,2.019-3.165,1.836s-2.84-1.128-2.7-2.441a1.78,1.78,0,0,1,1.224-1.534,1.616,1.616,0,0,1-.659-1.516c.126-1.224,1.3-1.877,2.882-1.715,1.6.165,2.617,1.044,2.491,2.268a1.627,1.627,0,0,1-.963,1.348A1.773,1.773,0,0,1,226.212,237.944Zm-1.626-.217c.064-.617-.4-1.047-1.211-1.131s-1.332.245-1.4.862.394,1.056,1.19,1.139S224.523,238.343,224.586,237.727Zm-2.084-3.2c-.055.527.33.9.987.967s1.128-.216,1.183-.743c.056-.547-.347-.92-1-.988S222.559,233.978,222.5,234.526Z" transform="translate(-220.331 -232.552)" fill="#fff"/></g></g><g transform="translate(63.252 127.41)"><g transform="translate(2.581 0.266)"><rect width="16.802" height="16.802" rx="2.082" transform="translate(1.722 0) rotate(5.882)" fill="#0a437d"/></g><rect width="16.802" height="16.802" rx="2.082" transform="matrix(0.995, 0.102, -0.102, 0.995, 1.722, 0)" fill="#263238"/><g transform="translate(6.647 5.531)"><path d="M263.754,240.164c-.248,2.407-1.828,3.6-3.938,3.385a3.747,3.747,0,0,1-1.881-.676l.719-1.123a2.269,2.269,0,0,0,1.267.482,1.867,1.867,0,0,0,2.169-1.828,2.394,2.394,0,0,1-1.8.448,2.221,2.221,0,0,1-2.175-2.416A2.408,2.408,0,0,1,261,236.389C262.926,236.588,263.986,237.915,263.754,240.164Zm-1.675-1.4c.062-.6-.341-1.081-1.107-1.16a1.053,1.053,0,1,0-.194,2.082A1.087,1.087,0,0,0,262.079,238.763Z" transform="translate(-257.935 -236.371)" fill="#fff"/></g></g><g transform="translate(87.412 129.899)"><g transform="translate(2.581 0.266)"><rect width="16.802" height="16.802" rx="2.082" transform="matrix(0.995, 0.102, -0.102, 0.995, 1.722, 0)" fill="#0a437d"/></g><rect width="16.802" height="16.802" rx="2.082" transform="matrix(0.995, 0.102, -0.102, 0.995, 1.722, 0)" fill="#263238"/><g transform="translate(5.453 8.514)"><rect width="0.642" height="7.502" transform="translate(0 0.638) rotate(-84.123)" fill="#fff"/></g></g><g transform="translate(60.728 151.906)"><g transform="translate(2.581 0.266)"><rect width="16.802" height="16.802" rx="2.082" transform="translate(1.722) rotate(5.882)" fill="#0a437d"/></g><rect width="16.802" height="16.802" rx="2.082" transform="translate(1.722) rotate(5.882)" fill="#263238"/></g><g transform="translate(84.888 154.395)"><g transform="translate(2.581 0.266)"><rect width="16.802" height="16.802" rx="2.082" transform="translate(1.722 0) rotate(5.882)" fill="#0a437d"/></g><rect width="16.802" height="16.802" rx="2.082" transform="matrix(0.995, 0.102, -0.102, 0.995, 1.722, 0)" fill="#455a64"/><g transform="translate(5.255 7.594)"><g transform="translate(0.293)"><rect width="0.641" height="7.502" transform="translate(0 0.638) rotate(-84.125)" fill="#fff"/></g><g transform="translate(0 2.841)"><rect width="0.641" height="7.502" transform="translate(0 0.638) rotate(-84.125)" fill="#fff"/></g></g></g><g transform="translate(12.364 146.714)"><rect width="40.555" height="17.228" rx="2.5" transform="matrix(0.995, 0.102, -0.102, 0.995, 1.765, 0)" fill="#263238"/></g><g transform="translate(31.887 153.559)"><path d="M198.706,271.826c.237-2.3,1.645-3.471,3.356-3.3s2.851,1.611,2.614,3.91-1.634,3.472-3.357,3.294S198.469,274.124,198.706,271.826Zm4.349.448c.163-1.582-.327-2.3-1.133-2.38s-1.419.518-1.583,2.1.327,2.3,1.122,2.378S202.892,273.856,203.055,272.274Z" transform="translate(-198.675 -268.514)" fill="#fff"/></g><g transform="translate(66.181 157.361)"><g transform="translate(3.007)"><rect width="7.503" height="0.641" transform="translate(0 7.451) rotate(-83.269)" fill="#fff"/></g><g transform="translate(0 3.06)"><rect width="0.641" height="7.503" transform="translate(0 0.638) rotate(-84.121)" fill="#fff"/></g></g><g transform="translate(59.599 42.734)"><path d="M245.034,96.057l-1.072,10.414-.491-.051,1.026-9.952-2.618-.27.047-.461Z" transform="translate(-241.878 -95.737)" fill="#263238"/><path d="M256.167,107.454l-.047.461-7.051-.726.037-.357,4.926-4.033c1.411-1.148,1.758-1.879,1.844-2.727.143-1.384-.732-2.376-2.546-2.563a3.865,3.865,0,0,0-3.254.928l-.308-.362a4.426,4.426,0,0,1,3.623-1.025c1.994.205,3.152,1.362,2.979,3.043-.1.982-.5,1.813-2.012,3.04l-4.483,3.673Z" transform="translate(-244.456 -96.195)" fill="#263238"/><path d="M268.932,106.2c-.178,1.726-1.524,2.82-3.815,2.584a4.709,4.709,0,0,1-3.466-1.816l.3-.33a4.337,4.337,0,0,0,3.194,1.682c1.993.205,3.136-.67,3.291-2.172.156-1.518-.756-2.588-2.958-2.815l-.58-.06.037-.357,3.679-3.891-5.743-.591.047-.461,6.4.659-.037.357-3.693,3.9C268.028,103.142,269.111,104.456,268.932,106.2Z" transform="translate(-248.968 -96.538)" fill="#263238"/><path d="M284.093,107.94l-2.261-.233-.31,3.005-.491-.051.309-3.005-5.981-.616.037-.357,6.484-6.459.58.06-6.4,6.376,5.325.548.273-2.648.491.051-.273,2.648,2.261.233Z" transform="translate(-253.884 -97.346)" fill="#263238"/><path d="M291.655,116.33a2.849,2.849,0,0,1-.146.541l-.742,1.939-.387-.04.673-2.006a.5.5,0,0,1-.381-.536.488.488,0,0,1,.541-.44A.5.5,0,0,1,291.655,116.33Z" transform="translate(-259.269 -102.926)" fill="#263238"/><path d="M303.573,109.947l-2.262-.233L301,112.719l-.491-.051.31-3.005-5.981-.616.037-.357,6.484-6.459.58.06-6.4,6.376,5.326.549.273-2.648.491.051-.272,2.648,2.261.233Z" transform="translate(-260.868 -98.066)" fill="#263238"/><path d="M316.423,111.08c-.174,1.7-1.485,2.884-3.85,2.64a4.72,4.72,0,0,1-3.452-1.814l.319-.328a4.3,4.3,0,0,0,3.18,1.681c2.038.21,3.145-.759,3.3-2.232.165-1.607-.689-2.657-3.664-2.963l-2.023-.208L311.287,103l5.37.554-.048.461-4.953-.511-.858,3.941,1.607.166C315.589,107.942,316.613,109.236,316.423,111.08Z" transform="translate(-265.99 -98.343)" fill="#263238"/></g></g><g transform="translate(0 41.107)"><g transform="translate(0 227.69)"><path d="M140.843,448.17l-4.078,15.079,13.254,1.21,2.786-14.355Z" transform="translate(-136.765 -448.17)" fill="#0894fe"/><g transform="translate(0.504 13.505)"><path d="M150.686,470.78a9.36,9.36,0,0,1-1.941-.065c-1.194-.1-2.84-.278-4.65-.511l-4.632-.622a10.946,10.946,0,0,1-1.911-.331,9.441,9.441,0,0,1,1.94.071c1.194.1,2.839.283,4.65.515l4.632.618A11.009,11.009,0,0,1,150.686,470.78Z" transform="translate(-137.551 -469.225)" fill="#263238"/></g><g transform="translate(0 13.52)" opacity="0.6"><path d="M136.765,470.807l13.254,1.21.215-1.106-13.086-1.663-.369,1.409" transform="translate(-136.765 -469.248)" fill="#fff"/></g><g transform="translate(6.577 2.927)"><path d="M147.026,464.214a112.495,112.495,0,0,1,2.823-11.48,112.269,112.269,0,0,1-2.823,11.48Z" transform="translate(-147.018 -452.734)" fill="#263238"/></g><g transform="translate(1.716 7.682)"><path d="M150.631,467.426a6.379,6.379,0,0,0,.03-2.8,5.581,5.581,0,0,0-1.45-2.624,5.423,5.423,0,0,0-3.3-1.515,5.647,5.647,0,0,0-3.55.806,6.147,6.147,0,0,0-2.064,2.193,7.839,7.839,0,0,0-.836,2.689c-.011,0-.017-.069-.019-.2a3.986,3.986,0,0,1,.031-.574,6.027,6.027,0,0,1,.631-2.019,6.185,6.185,0,0,1,2.1-2.33,5.836,5.836,0,0,1,3.734-.874,5.466,5.466,0,0,1,4.933,4.4,5.232,5.232,0,0,1,0,2.117,3.524,3.524,0,0,1-.163.552C150.671,467.368,150.641,467.43,150.631,467.426Z" transform="translate(-139.441 -460.146)" fill="#263238"/></g></g><g transform="translate(46.763 225.593)"><path d="M221.662,445.281l-.786,11.875s11.819,3.922,11.887,6.131l-23.092.167.466-18.553Z" transform="translate(-209.67 -444.901)" fill="#0894fe"/><g transform="translate(3.399 11.005)" opacity="0.6"><path d="M215.669,462.091a.944.944,0,0,0-.684,1.056.907.907,0,0,0,1.041.687.994.994,0,0,0,.718-1.122.941.941,0,0,0-1.162-.6" transform="translate(-214.97 -462.058)" fill="#fff"/></g><g transform="translate(0 16.685)" opacity="0.6"><path d="M209.67,472.781l.121-1.868,22.23.613a1.6,1.6,0,0,1,.86,1.255Z" transform="translate(-209.67 -470.913)" fill="#fff"/></g><g transform="translate(9.441 12.033)"><path d="M226.531,463.776c-.007.112-.572.146-1.138.492s-.875.81-.978.763c-.1-.025.085-.693.777-1.1S226.558,463.674,226.531,463.776Z" transform="translate(-224.389 -463.66)" fill="#263238"/></g><g transform="translate(12.397 13.173)"><path d="M230.573,465.488c.023.11-.471.287-.868.752s-.523.966-.635.958c-.106.014-.164-.648.341-1.217S230.574,465.38,230.573,465.488Z" transform="translate(-228.998 -465.438)" fill="#263238"/></g><g transform="translate(15.138 14.243)"><path d="M233.392,469.024c-.1.021-.242-.547.065-1.155s.842-.838.887-.743c.061.095-.291.416-.536.919S233.5,469.017,233.392,469.024Z" transform="translate(-233.27 -467.106)" fill="#263238"/></g><g transform="translate(9.059 8.983)"><path d="M226.2,459.345c-.05.1-.563-.07-1.2-.046s-1.141.21-1.2.112.434-.486,1.186-.5S226.254,459.258,226.2,459.345Z" transform="translate(-223.793 -458.906)" fill="#263238"/></g><g transform="translate(0.356 2.492)" opacity="0.3"><path d="M221.7,449.026l-.137,2.116-11.34-.446.043-1.909Z" transform="translate(-210.225 -448.786)"/></g><g transform="translate(8.107 5.076)"><path d="M225.779,454.762a2.167,2.167,0,0,1-1.156-.041,5.184,5.184,0,0,1-1.2-.408,5.425,5.425,0,0,1-.653-.372,1.419,1.419,0,0,1-.341-.282.493.493,0,0,1-.034-.6.62.62,0,0,1,.5-.242,1.482,1.482,0,0,1,.432.073,4.074,4.074,0,0,1,1.756,1c.52.512.69.938.651.959-.052.036-.3-.325-.835-.75a4.612,4.612,0,0,0-1.013-.612,4.3,4.3,0,0,0-.657-.225c-.242-.071-.45-.08-.516.028-.024.04-.028.057.022.13a1.142,1.142,0,0,0,.25.206,6.012,6.012,0,0,0,.6.368,6.4,6.4,0,0,0,1.1.462A7.913,7.913,0,0,1,225.779,454.762Z" transform="translate(-222.309 -452.815)" fill="#263238"/></g><g transform="translate(11.153 3.541)"><path d="M227.329,454.061a1.845,1.845,0,0,1-.271-1.126,3.738,3.738,0,0,1,.511-1.953.954.954,0,0,1,.755-.561.54.54,0,0,1,.473.337,1.578,1.578,0,0,1,.106.427,2.573,2.573,0,0,1-.023.779,2.655,2.655,0,0,1-.53,1.179c-.469.584-.944.7-.952.666-.036-.058.364-.264.726-.827a2.656,2.656,0,0,0,.4-1.075,2.385,2.385,0,0,0,0-.669c-.029-.246-.115-.447-.207-.425-.115-.005-.316.174-.416.366a3.853,3.853,0,0,0-.3.618,4.138,4.138,0,0,0-.259,1.147C227.284,453.62,227.391,454.046,227.329,454.061Z" transform="translate(-227.058 -450.421)" fill="#263238"/></g></g><g transform="translate(1.643 38.807)"><path d="M146.369,155.908s-2.5,13.664-4.514,21.932c-1.562,6.42-5.607,18.456,1.712,21.952s17.161-10.611,17.161-10.611l4.177-32.157c-2.91.544-6.2,3.915-9.711,8.874l.637-12.2Z" transform="translate(-139.327 -153.7)" fill="#0048cd"/></g><g transform="translate(102.011 46.498)"><path d="M303.2,180.39l-3.851,1.836-3.543-5.559,2.071-4.292c.2-.4.407-.845.628-1.358a5.867,5.867,0,0,0,.457-1.888,8.954,8.954,0,0,0-.062-2.416c-.191-.716.566-1.3,1.082-.885s1.089,2.378.707,4.742,2.371-.144,3.391-1.04,4.3-3.516,4.813-3.414c.755.15.734,1.008-.3,1.879s-3.973,3.7-3.489,4.231l.023,0a2.894,2.894,0,0,1,2.512,2.246c.262,1.165.474,2.772-.181,3.3A38.054,38.054,0,0,1,303.2,180.39Z" transform="translate(-295.802 -165.69)" fill="#f2f2f2"/></g><g transform="translate(29.357)"><g transform="translate(5.319 5.242)"><path d="M190.928,105.486l-.1,33.426,14.34.684.414-8.131s5.094,1.012,6.408-3.719c.84-3.022.63-26.374.63-26.374Z" transform="translate(-190.826 -101.372)" fill="#f2f2f2"/></g><path d="M212.883,101.738c-.966,2-5.566,5.652-5.566,5.652l-2.078,5.568c-1.8-1.413-4.228-1.332-4.688,1.84-.331,2.292,2.518,2.756,2.518,2.756a41.554,41.554,0,0,1-5.2,7.791c-2.614,2.906-4.079,3.2-6.914,3.246h-3.126s-6.4-5.346-5.133-19.425S196.62,99.2,199.641,95.678C204.562,89.948,216.107,95.07,212.883,101.738Z" transform="translate(-182.533 -93.199)" fill="#263238"/><g transform="translate(0.876 5.377)"><path d="M183.9,123.945s.139,0,.4,0a6.25,6.25,0,0,0,1.135-.13,8.113,8.113,0,0,0,3.673-1.945,20.487,20.487,0,0,0,3.724-4.983c.607-1.01,1.242-2.076,2.011-3.109a11.913,11.913,0,0,1,2.815-2.8,11.622,11.622,0,0,1,3.656-1.557c1.246-.325,2.47-.523,3.626-.749a13.637,13.637,0,0,0,5.791-2.165,6.264,6.264,0,0,0,2.344-3.386,4.828,4.828,0,0,0,.137-1.132c-.013-.261-.014-.4-.014-.4s.019.137.041.4a4.606,4.606,0,0,1-.114,1.144,6.263,6.263,0,0,1-2.337,3.45,13.626,13.626,0,0,1-5.824,2.211c-1.158.228-2.379.43-3.616.754a11.532,11.532,0,0,0-3.614,1.542,11.845,11.845,0,0,0-2.785,2.772c-.765,1.025-1.4,2.086-2.01,3.094a20.333,20.333,0,0,1-3.767,4.99,8.053,8.053,0,0,1-3.725,1.926,5.771,5.771,0,0,1-1.145.106C184.036,123.958,183.9,123.945,183.9,123.945Z" transform="translate(-183.899 -101.583)" fill="#455a64"/></g><g transform="translate(0.138 3.515)"><path d="M182.748,111.452s.226-.088.665-.235a9.64,9.64,0,0,1,1.965-.466,4.452,4.452,0,0,1,3.076.665,2.568,2.568,0,0,1,1.1,1.639,2.306,2.306,0,0,1-.632,2.094,1.8,1.8,0,0,1-1.124.452,2.343,2.343,0,0,1-1.225-.328,3.684,3.684,0,0,1-1.639-2.076,5.213,5.213,0,0,1-.125-2.849,4.961,4.961,0,0,1,1.545-2.59,5.158,5.158,0,0,1,2.894-1.3,8.887,8.887,0,0,1,3.3.427,22.75,22.75,0,0,0,3.332.8,13.486,13.486,0,0,0,3.515.008,11.61,11.61,0,0,0,3.381-.935,4,4,0,0,0,2.266-2.375,3.086,3.086,0,0,0-.753-3.007,2.638,2.638,0,0,0-2.9-.428,2.191,2.191,0,0,0-1.069,1,2.418,2.418,0,0,0-.23,1.417,3.276,3.276,0,0,0,1.459,2.3,4.777,4.777,0,0,0,2.506.7,7.506,7.506,0,0,0,2.407-.361,8.678,8.678,0,0,0,3.559-2.168,9.226,9.226,0,0,0,1.839-2.579,9.754,9.754,0,0,0,.673-1.895c.087-.452.14-.689.14-.689s-.035.239-.114.7a9.391,9.391,0,0,1-.653,1.911,9.186,9.186,0,0,1-1.833,2.609,8.737,8.737,0,0,1-3.584,2.206,7.581,7.581,0,0,1-2.437.374,4.875,4.875,0,0,1-2.564-.715,3.387,3.387,0,0,1-1.516-2.375,2.536,2.536,0,0,1,.239-1.486,2.31,2.31,0,0,1,1.125-1.058,2.76,2.76,0,0,1,3.037.448,3.212,3.212,0,0,1,.79,3.135,4.121,4.121,0,0,1-2.334,2.459,11.715,11.715,0,0,1-3.422.948,13.606,13.606,0,0,1-3.549-.009,22.834,22.834,0,0,1-3.35-.8,8.76,8.76,0,0,0-3.248-.426,5.01,5.01,0,0,0-4.222,6.571,3.581,3.581,0,0,0,1.586,2.021,2.237,2.237,0,0,0,1.171.319,1.7,1.7,0,0,0,1.064-.423,2.223,2.223,0,0,0,.612-2.01,2.49,2.49,0,0,0-1.057-1.593,4.413,4.413,0,0,0-3.028-.674,10.126,10.126,0,0,0-1.962.441C182.98,111.381,182.748,111.452,182.748,111.452Z" transform="translate(-182.748 -98.68)" fill="#455a64"/></g></g><g transform="translate(0.585 106.959)"><path d="M157.339,260.452,138.248,385.835l15.855,2.013L176.476,282.68l5.633,105.875,17.184-.3-2.849-127.508Z" transform="translate(-137.882 -260.129)" fill="#263238"/><path d="M181.6,388.7l-.016-.309-5.5-103.452L154.151,388.023l-16.474-2.091,19.182-125.983,39.694.3,2.863,128.142Zm-5.137-108.642,5.745,107.99,16.553-.289-2.835-126.875-38.516-.291-19,124.785,15.236,1.934Z" transform="translate(-137.677 -259.949)" fill="#263238"/><g transform="translate(56.138 15.709)"><path d="M225.363,396.654c-.092,0-.167-25.122-.167-56.1s.075-56.111.167-56.111.167,25.117.167,56.111S225.455,396.654,225.363,396.654Z" transform="translate(-225.196 -284.439)" fill="#455a64"/></g><g transform="translate(12.733 23.387)"><path d="M157.528,400.49a1.788,1.788,0,0,1,.038-.273l.145-.795.589-3.047c.534-2.659,1.3-6.478,2.248-11.192,1.926-9.444,4.652-22.478,7.783-36.848s6.076-27.362,8.255-36.751c1.1-4.679,1.992-8.471,2.612-11.112l.732-3.016c.084-.332.15-.591.2-.783a1.76,1.76,0,0,1,.078-.264,1.648,1.648,0,0,1-.045.272c-.041.193-.1.455-.167.79l-.67,3.03c-.6,2.646-1.452,6.446-2.509,11.135-2.119,9.4-5.026,22.4-8.158,36.77s-5.893,27.394-7.877,36.825c-.99,4.7-1.793,8.516-2.352,11.17-.28,1.3-.5,2.324-.65,3.035l-.178.788A1.631,1.631,0,0,1,157.528,400.49Z" transform="translate(-157.527 -296.409)" fill="#455a64"/></g><g transform="translate(25.8 22.405)"><path d="M196.326,294.913a3.1,3.1,0,0,1-.725.1l-1.981.14c-1.673.112-3.986.226-6.527.475s-4.831.593-6.494.811l-1.97.25a3.1,3.1,0,0,1-.729.048,3.032,3.032,0,0,1,.709-.176c.46-.092,1.128-.214,1.954-.355,1.654-.278,3.944-.656,6.5-.911s4.872-.327,6.548-.378c.839-.022,1.518-.035,1.987-.034A3.071,3.071,0,0,1,196.326,294.913Z" transform="translate(-177.9 -294.879)" fill="#455a64"/></g><g transform="translate(49.507 7.557)"><path d="M224.247,278.47a1.356,1.356,0,0,1-.493.124,6.8,6.8,0,0,1-1.384.062,8.031,8.031,0,0,1-7.078-5.087,6.833,6.833,0,0,1-.383-1.332,1.353,1.353,0,0,1-.039-.507c.059-.012.169.7.639,1.746a8.356,8.356,0,0,0,6.879,4.944C223.527,278.535,224.24,278.411,224.247,278.47Z" transform="translate(-214.859 -271.731)" fill="#455a64"/></g></g><g transform="translate(9.991 39.678)"><g transform="translate(6.787)"><path d="M162.922,225.121l43.921-.142-2.4-28.986c-.266-6.632-.226-7.424-.39-13.547,0,0,6.235,7.538,11.139,12.825a9.99,9.99,0,0,0,11.6,2.224l25.662-17.9L247.644,167.3l-23.32,14.275c-1.068-.664-10.148-13.614-16.422-19.939a22.2,22.2,0,0,0-15.129-6.543,110.58,110.58,0,0,0-14.167.568,14.822,14.822,0,0,0-13.19,13.51c-.455,5.419-.089,11.711-.089,22.405Z" transform="translate(-162.922 -155.058)" fill="#0048cd"/><g transform="translate(1.968 17.046)"><path d="M166.087,181.633s.006.117.007.339c0,.26,0,.58-.006.97-.012.843-.011,2.062,0,3.569.016,3.013.139,7.174.268,11.771s.155,8.766.039,11.779c-.053,1.507-.119,2.725-.19,3.565-.032.389-.058.708-.08.967-.02.221-.037.337-.037.337s0-.117.01-.339c.015-.259.033-.579.055-.969.055-.841.106-2.059.148-3.564.091-3.012.051-7.175-.078-11.773s-.237-8.76-.23-11.775c0-1.507.017-2.727.045-3.57.013-.39.023-.711.031-.97C166.075,181.75,166.087,181.633,166.087,181.633Z" transform="translate(-165.99 -181.633)" fill="#263238"/></g><g transform="translate(60.436 26.607)"><path d="M257.147,200.6a2.79,2.79,0,0,1,.092-.6c.074-.37.185-.88.317-1.442s.257-1.068.355-1.432a2.723,2.723,0,0,1,.185-.582,2.847,2.847,0,0,1-.094.607c-.074.37-.185.879-.316,1.439s-.257,1.065-.354,1.43A2.809,2.809,0,0,1,257.147,200.6Z" transform="translate(-257.143 -196.538)" fill="#263238"/></g><g transform="translate(61.715 26.377)"><path d="M260.2,200.83a42.581,42.581,0,0,1-1.06-4.65,42.658,42.658,0,0,1,1.06,4.65Z" transform="translate(-259.136 -196.18)" fill="#263238"/></g><g transform="translate(31.63 1.337)"><path d="M222.816,184.281s-.086-.073-.241-.221l-.67-.65c-.579-.569-1.414-1.394-2.411-2.45a40.316,40.316,0,0,1-3.276-3.908,22.649,22.649,0,0,1-2.979-5.479,15.281,15.281,0,0,1-.982-6.145,12.683,12.683,0,0,1,1.1-4.961,7.294,7.294,0,0,1,2.158-2.654,7.084,7.084,0,0,1,.781-.514c.185-.107.285-.157.285-.157.013.021-.4.216-1.035.713a7.38,7.38,0,0,0-2.105,2.654,12.72,12.72,0,0,0-1.066,4.925,15.279,15.279,0,0,0,.985,6.093,22.779,22.779,0,0,0,2.954,5.453,41.634,41.634,0,0,0,3.245,3.915c.986,1.063,1.811,1.9,2.378,2.478l.653.669C222.742,184.2,222.816,184.281,222.816,184.281Z" transform="translate(-212.234 -157.142)" fill="#263238"/></g></g><g transform="translate(17.689 13.074)"><path d="M182.678,178.916a14.789,14.789,0,0,1-2.752-3.471,14.744,14.744,0,0,1,2.752,3.471Z" transform="translate(-179.919 -175.441)" fill="#fafafa"/></g><g transform="translate(26.03 27.875)"><path d="M197.322,198.518a28.985,28.985,0,0,1-4.4,4.388,28.981,28.981,0,0,1,4.4-4.388Z" transform="translate(-192.922 -198.515)" fill="#fafafa"/></g><g transform="translate(37.723 40.093)"><path d="M213.52,221.606c-.094.029-.446-.963-1.1-2.067s-1.335-1.9-1.264-1.971a6.582,6.582,0,0,1,2.362,4.038Z" transform="translate(-211.152 -217.564)" fill="#fafafa"/></g><g transform="translate(13.8 35.714)"><path d="M175.1,217.317a12.391,12.391,0,0,1-1.155-6.58c.1,0,.132,1.5.455,3.312S175.2,217.283,175.1,217.317Z" transform="translate(-173.856 -210.737)" fill="#fafafa"/></g><g transform="translate(27.58 43.953)"><path d="M196.105,229.082a8.149,8.149,0,0,1-.492-5.5c.1.013-.042,1.25.1,2.763S196.2,229.051,196.105,229.082Z" transform="translate(-195.34 -223.582)" fill="#fafafa"/></g><g transform="translate(17.229 56.19)"><path d="M185.059,246.325a35.7,35.7,0,0,1-5.856-3.661,35.818,35.818,0,0,1,5.856,3.661Z" transform="translate(-179.202 -242.658)" fill="#fafafa"/></g><g transform="translate(37.49 56.772)"><path d="M217.064,243.573c.041.089-1.448.829-3.173,1.922s-3.038,2.112-3.1,2.037a17.328,17.328,0,0,1,6.273-3.958Z" transform="translate(-210.789 -243.566)" fill="#fafafa"/></g><g transform="translate(11.35 67.237)"><path d="M176.443,261.181a32.014,32.014,0,0,1-6.407-1.278,32,32,0,0,1,6.407,1.278Z" transform="translate(-170.036 -259.882)" fill="#fafafa"/></g><g transform="translate(29.225 61.886)"><path d="M200.3,255.932a8.327,8.327,0,0,1-2.379-4.393c.093-.03.49,1.016,1.146,2.22S200.375,255.871,200.3,255.932Z" transform="translate(-197.904 -251.539)" fill="#fafafa"/></g><g transform="translate(44.959 67.362)"><path d="M224.695,260.08a4.778,4.778,0,0,1-1,1.455c-.622.745-1.184,1.3-1.255,1.242a4.78,4.78,0,0,1,1-1.456C224.062,260.576,224.624,260.02,224.695,260.08Z" transform="translate(-222.434 -260.075)" fill="#fafafa"/></g><g transform="translate(15.939 23.262)"><path d="M179.937,191.334c.051.076-.521.549-1.279,1.055a4.217,4.217,0,0,1-1.464.777c-.051-.076.521-.549,1.279-1.055A4.222,4.222,0,0,1,179.937,191.334Z" transform="translate(-177.19 -191.323)" fill="#fafafa"/></g><g transform="translate(27.687 4.445)"><path d="M197.33,168.723a23.421,23.421,0,0,1-1.8-6.735,25.435,25.435,0,0,1,.973,3.348A25.314,25.314,0,0,1,197.33,168.723Z" transform="translate(-195.507 -161.988)" fill="#fafafa"/></g><g transform="translate(35.519 21.231)"><path d="M212.1,189.115c-.04.09-.976-.27-2.179-.5s-2.2-.245-2.208-.343a6.269,6.269,0,0,1,4.387.839Z" transform="translate(-207.716 -188.156)" fill="#fafafa"/></g><g transform="translate(42.292 12.091)"><path d="M223.035,174.654a6.651,6.651,0,0,1-4.759-.733c.038-.091,1.055.286,2.362.482S223.026,174.555,223.035,174.654Z" transform="translate(-218.275 -173.907)" fill="#fafafa"/></g><g transform="translate(54.296 16.319)"><path d="M237.057,187.449a16.073,16.073,0,0,1,1.126-6.949c.094.028-.312,1.552-.618,3.466S237.155,187.452,237.057,187.449Z" transform="translate(-236.99 -180.499)" fill="#fafafa"/></g><g transform="translate(58.626 31.09)"><path d="M248.067,207.991a28.968,28.968,0,0,1-4.323-4.459,28.968,28.968,0,0,1,4.323,4.459Z" transform="translate(-243.741 -203.528)" fill="#fafafa"/></g><g transform="translate(67.509 34.608)"><path d="M260.182,209.014a17.152,17.152,0,0,1-2.586,4.012,17.152,17.152,0,0,1,2.586-4.012Z" transform="translate(-257.589 -209.012)" fill="#fafafa"/></g><g transform="translate(75.917 25.485)"><path d="M273.172,199.873a24.019,24.019,0,0,1-2.466-5.083,23.981,23.981,0,0,1,2.466,5.083Z" transform="translate(-270.697 -194.789)" fill="#fafafa"/></g><g transform="translate(83.849 24.834)"><path d="M288.9,194.838a26.36,26.36,0,0,1-5.835-1.037,26.36,26.36,0,0,1,5.835,1.037Z" transform="translate(-283.064 -193.775)" fill="#fafafa"/></g><g transform="translate(0 32.205)"><path d="M152.35,210.969a29.766,29.766,0,0,1,2.685-5.7,29.766,29.766,0,0,1-2.685,5.7Z" transform="translate(-152.342 -205.266)" fill="#fafafa"/></g><g transform="translate(2.352 23.3)"><path d="M159.65,195.433a22.228,22.228,0,0,1-3.638-4.047,22.285,22.285,0,0,1,3.638,4.047Z" transform="translate(-156.008 -191.383)" fill="#fafafa"/></g><g transform="translate(3.294 44.298)"><path d="M159.681,224.128c.059.071-.385.538-.993,1.042s-1.147.856-1.206.785.386-.538.992-1.042S159.622,224.057,159.681,224.128Z" transform="translate(-157.477 -224.119)" fill="#fafafa"/></g><g transform="translate(6.043 16.125)"><path d="M163.239,180.2c.072.058-.2.514-.6,1.019s-.791.868-.863.811.2-.514.6-1.019S163.166,180.146,163.239,180.2Z" transform="translate(-161.763 -180.198)" fill="#fafafa"/></g><g transform="translate(41.042 19.048)" opacity="0.3"><path d="M216.327,184.754c2.713,8.524,4.807,17.472,7.52,26l-.647-17.656A42.329,42.329,0,0,1,216.327,184.754Z" transform="translate(-216.327 -184.754)"/></g></g><g transform="translate(6.897 50.614)"><path d="M147.519,191.373a1.372,1.372,0,0,1,.083-.21l.261-.591c.228-.512.571-1.249,1.006-2.153.869-1.809,2.13-4.28,3.639-6.944s2.982-5.017,4.087-6.692c.552-.838,1.007-1.51,1.33-1.969l.373-.528a1.463,1.463,0,0,1,.137-.178,1.424,1.424,0,0,1-.115.194l-.352.542-1.293,1.992c-1.083,1.687-2.541,4.044-4.05,6.706s-2.78,5.124-3.67,6.92l-1.044,2.133-.284.581A1.473,1.473,0,0,1,147.519,191.373Z" transform="translate(-147.518 -172.108)" fill="#263238"/></g><g transform="translate(7.03 61.713)"><path d="M151.92,189.413c.006.021-.271.11-.7.3a8.936,8.936,0,0,0-2.974,2.069c-.322.339-.5.567-.52.554s.03-.068.105-.177a5.117,5.117,0,0,1,.345-.441,7.511,7.511,0,0,1,3.008-2.093,5.2,5.2,0,0,1,.533-.171A.609.609,0,0,1,151.92,189.413Z" transform="translate(-147.725 -189.411)" fill="#263238"/></g><g transform="translate(7.653 48.556)"><path d="M152.872,168.9a37.993,37.993,0,0,1-4.171,5.768,38.028,38.028,0,0,1,4.171-5.768Z" transform="translate(-148.696 -168.899)" fill="#fafafa"/></g></g><g transform="translate(16.46 71.598)"><path d="M162.427,148.465a1.545,1.545,0,0,0,1.63-.77c.358-.536.524-1.178.843-1.739.953-1.677,3.121-2.407,3.994-4.128.121-.24.2-.574-.013-.743-.193-.157-.479-.051-.7.061l-5.714,2.861" transform="translate(-162.426 -140.833)" fill="#f2f2f2"/><path d="M162.465,143.91a2.545,2.545,0,0,1,.586-.373c.388-.219.955-.525,1.659-.9l2.481-1.287.72-.367a1.267,1.267,0,0,1,.931-.223.537.537,0,0,1,.348.494,1.1,1.1,0,0,1-.114.511,4.146,4.146,0,0,1-.515.788,24.452,24.452,0,0,1-2.591,2.267,4.828,4.828,0,0,0-.932,1.1c-.228.387-.378.8-.555,1.161a2.25,2.25,0,0,1-1.354,1.34.808.808,0,0,1-.7-.055,1.875,1.875,0,0,0,.658-.08,2.176,2.176,0,0,0,1.163-1.312c.158-.357.292-.776.529-1.2a4.955,4.955,0,0,1,.965-1.194,28.46,28.46,0,0,0,2.537-2.251,3.948,3.948,0,0,0,.469-.711c.116-.239.112-.486-.028-.516-.147-.057-.41.074-.654.2l-.725.357-2.516,1.216c-.719.341-1.3.613-1.711.792A2.562,2.562,0,0,1,162.465,143.91Z" transform="translate(-162.426 -140.736)" fill="#c4c9ce"/></g></g><g transform="translate(233.515 204.082)"><g transform="translate(18.669 75.936)"><g transform="translate(0.069 0.07)"><rect width="40.6" height="5.579" fill="#263238"/></g><path d="M418.938,425.995H378.2v-5.718h40.738Zm-40.6-.139H418.8v-5.439h-40.46Z" transform="translate(-378.2 -420.277)" fill="#263238"/></g><g transform="translate(22.503 79.728)"><path d="M384.176,426.188l5.844,28.83h21.623l5.649-26.973Z" transform="translate(-384.176 -426.188)" fill="#263238"/></g><g transform="translate(22.503 105.831)"><path d="M384.176,466.883l3.117,4.286h26.282l3.717-4.286Z" transform="translate(-384.176 -466.883)" fill="#455a64"/></g><g transform="translate(37.262 20.91)"><path d="M407.438,394.15c-.08,0-.182-13.357-.228-29.829s-.019-29.832.061-29.832.182,13.353.228,29.831S407.518,394.15,407.438,394.15Z" transform="translate(-407.187 -334.49)" fill="#263238"/></g><g transform="translate(42.819 47.145)"><path d="M419.588,375.392a1.416,1.416,0,0,1-.109.311l-.362.864-.265.623c-.084.235-.174.488-.27.758s-.2.563-.313.869-.194.645-.3.992a40.356,40.356,0,0,0-1.136,4.97A60.647,60.647,0,0,0,416.2,391a83.743,83.743,0,0,0,.321,11.355c.13,1.45.262,2.621.359,3.429.041.38.075.688.1.933a1.428,1.428,0,0,1,.017.328,1.357,1.357,0,0,1-.074-.319l-.156-.926c-.131-.805-.294-1.974-.451-3.425a74.732,74.732,0,0,1-.406-11.389,56.576,56.576,0,0,1,.655-6.246,37.471,37.471,0,0,1,1.2-4.987c.113-.348.206-.683.321-.992l.336-.867.294-.753c.1-.227.2-.43.289-.615l.413-.845A1.388,1.388,0,0,1,419.588,375.392Z" transform="translate(-415.849 -375.392)" fill="#263238"/></g><g transform="translate(40.248 36.343)"><path d="M417.113,358.551a2.819,2.819,0,0,1-.13.441l-.423,1.242q-.14.407-.31.895l-.327,1.079c-.237.773-.512,1.651-.757,2.639l-.408,1.544q-.183.814-.38,1.689c-.284,1.163-.488,2.426-.75,3.745-.447,2.653-.842,5.586-1.114,8.679-.256,3.1-.368,6.054-.407,8.745-.008,2.691.026,5.116.137,7.149.036,1.017.1,1.936.153,2.743s.1,1.5.149,2.07q.063.82.1,1.308a2.741,2.741,0,0,1,.015.459,2.773,2.773,0,0,1-.073-.452q-.058-.487-.153-1.3c-.069-.566-.137-1.26-.2-2.068s-.148-1.726-.2-2.745c-.137-2.035-.192-4.464-.2-7.162.024-2.7.128-5.663.385-8.768.273-3.1.676-6.042,1.139-8.7.269-1.321.484-2.586.779-3.75l.4-1.69.427-1.544c.258-.987.548-1.864.8-2.634l.35-1.074.335-.888q.3-.769.474-1.225A2.7,2.7,0,0,1,417.113,358.551Z" transform="translate(-411.842 -358.551)" fill="#263238"/></g><g transform="translate(27.21 22.716)"><path d="M399.251,397.522a.62.62,0,0,1-.023-.156c-.01-.12-.022-.271-.038-.46-.029-.425-.069-1.017-.12-1.768-.1-1.558-.236-3.775-.407-6.506-.353-5.492-.862-13.079-1.786-21.424-.472-4.172-1.02-8.134-1.589-11.727-.3-1.793-.577-3.5-.888-5.087-.285-1.592-.593-3.067-.877-4.412-.267-1.35-.564-2.558-.8-3.624s-.463-1.981-.653-2.726-.32-1.307-.422-1.721c-.042-.185-.076-.332-.1-.45a.634.634,0,0,1-.025-.156.648.648,0,0,1,.054.148l.13.442.475,1.708c.207.742.45,1.652.7,2.716s.566,2.271.846,3.618c.3,1.345.616,2.819.912,4.411.322,1.588.606,3.294.916,5.089.585,3.595,1.141,7.561,1.614,11.737.925,8.353,1.4,15.948,1.7,21.444.149,2.749.253,4.974.316,6.512.028.752.049,1.345.065,1.772,0,.189.007.341.01.461A.628.628,0,0,1,399.251,397.522Z" transform="translate(-391.515 -337.306)" fill="#263238"/></g><g transform="translate(24.412 23.991)"><path d="M399.923,342.633a4.024,4.024,0,0,0-3.989-3.339,6.279,6.279,0,0,0-4.833,2.623,15.122,15.122,0,0,0-2.328,5.166,35.093,35.093,0,0,0-1.432,13.747,20.807,20.807,0,0,0,5.721,12.394,2.343,2.343,0,0,0,1.97.9,2.38,2.38,0,0,0,1.04-.643,30.761,30.761,0,0,0,9.984-23.394,9.5,9.5,0,0,0-1.251-5.033c-.97-1.459-3.231-3.009-4.882-2.423" transform="translate(-387.153 -339.294)" fill="#0048cd"/></g><g transform="translate(12.6)"><g transform="translate(0.043 5.249)"><path d="M379.155,317l-2.677,4.847c-.062.113-.145.239-.273.25s-.246-.121-.323-.24L368.806,311l1.631-.924Z" transform="translate(-368.806 -310.075)" fill="#75c6fa"/></g><path d="M393.484,322.8l-24.138-14.244a1.124,1.124,0,0,1-.588-.593c-.1-.357.172-.7.429-.967a16.636,16.636,0,0,1,12.9-5.067,14.737,14.737,0,0,1,11.662,7.253,13.3,13.3,0,0,1-.265,13.618" transform="translate(-368.738 -301.891)" fill="#0894fe"/><g transform="translate(4.086 2.032)"><path d="M375.109,305.147a1.345,1.345,0,0,1,.316-.039c.208-.01.516-.048.912-.044a18.087,18.087,0,0,1,3.35.266,19.576,19.576,0,0,1,15.623,14.137,18.188,18.188,0,0,1,.6,3.306,6.575,6.575,0,0,1,.037.7,1.194,1.194,0,0,1-.186.527,4.091,4.091,0,0,0,.037-1.219,20.593,20.593,0,0,0-.683-3.262,19.718,19.718,0,0,0-15.463-13.992,20.612,20.612,0,0,0-3.314-.355C375.548,305.159,375.11,305.172,375.109,305.147Z" transform="translate(-375.109 -305.06)" fill="#263238"/></g><g transform="translate(12.788 11.072)"><path d="M397.365,319.16a5.849,5.849,0,0,1-1.22.554c-.769.3-1.843.691-3.046,1.072s-2.3.686-3.107.882a5.807,5.807,0,0,1-1.317.251,6.537,6.537,0,0,1,1.262-.448l3.074-.96,3.065-.989A6.49,6.49,0,0,1,397.365,319.16Z" transform="translate(-388.676 -319.154)" fill="#263238"/></g><g transform="translate(17.63 0.868)"><path d="M396.272,303.245a16.855,16.855,0,0,1,.136,5.4,50.705,50.705,0,0,1-.136-5.4Z" transform="translate(-396.224 -303.245)" fill="#263238"/></g><g transform="translate(0.397 3.422)"><path d="M369.357,310.2a10.781,10.781,0,0,1,1.754-.618c1.1-.338,2.623-.766,4.326-1.176s3.258-.724,4.389-.922a10.841,10.841,0,0,1,1.842-.249,13.017,13.017,0,0,1-1.8.45c-1.118.25-2.661.595-4.36,1s-3.23.8-4.338,1.092A13.04,13.04,0,0,1,369.357,310.2Z" transform="translate(-369.357 -307.226)" fill="#263238"/></g></g><g transform="translate(0 21.425)"><path d="M376.258,337.093a9.9,9.9,0,0,0-6.874-1.781,21.014,21.014,0,0,0-7.523,1.942,23.2,23.2,0,0,0-10.328,8.129c-2.432,3.719-3.278,8.642-1.457,12.7a1.812,1.812,0,0,0,.824,1,1.971,1.971,0,0,0,1.362-.1,76.226,76.226,0,0,0,13.548-5.4,25.564,25.564,0,0,0,10.415-9.952,8.561,8.561,0,0,0,1.1-3.3,4.106,4.106,0,0,0-1.062-3.226" transform="translate(-349.095 -335.294)" fill="#0894fe"/><g transform="translate(1.599 1.309)"><path d="M377.194,337.337a1.705,1.705,0,0,1-.334.135l-.97.334-.7.234c-.255.092-.526.206-.82.319-.586.237-1.266.474-1.982.821l-1.135.517c-.394.182-.787.405-1.2.617-.84.412-1.688.939-2.592,1.473a40.945,40.945,0,0,0-10.213,8.985c-.645.829-1.275,1.6-1.791,2.384-.263.386-.535.747-.765,1.114l-.657,1.06c-.436.666-.757,1.31-1.067,1.861-.15.278-.3.532-.421.774l-.322.666-.454.92a1.725,1.725,0,0,1-.176.313,1.618,1.618,0,0,1,.123-.337l.406-.944.3-.681c.117-.245.258-.5.4-.787.3-.56.607-1.214,1.035-1.89l.645-1.076c.227-.373.5-.739.756-1.13.511-.79,1.137-1.576,1.781-2.415a39.694,39.694,0,0,1,10.28-9.044c.914-.532,1.773-1.053,2.622-1.459.421-.208.818-.428,1.217-.605l1.149-.5c.725-.337,1.414-.562,2.007-.785.3-.107.573-.214.832-.3l.713-.211.988-.283A1.664,1.664,0,0,1,377.194,337.337Z" transform="translate(-351.588 -337.335)" fill="#263238"/></g><g transform="translate(0.805 10.086)"><path d="M360.531,351.024A97.281,97.281,0,0,1,350.35,354a97.363,97.363,0,0,1,10.181-2.977Z" transform="translate(-350.35 -351.018)" fill="#263238"/></g><g transform="translate(10.647 10.5)"><path d="M365.826,362.4a8.052,8.052,0,0,1-.111-1.573c-.027-.973-.031-2.318.01-3.8s.121-2.827.2-3.8a8.058,8.058,0,0,1,.2-1.564,9.025,9.025,0,0,1,.005,1.576c-.033,1.066-.072,2.361-.117,3.793s-.069,2.728-.095,3.794A9.091,9.091,0,0,1,365.826,362.4Z" transform="translate(-365.694 -351.663)" fill="#263238"/></g><g transform="translate(19.455 4.148)"><path d="M380.295,353.986c-.08.005-.334-2.727-.567-6.1s-.358-6.117-.278-6.122.334,2.726.567,6.1S380.375,353.98,380.295,353.986Z" transform="translate(-379.426 -341.761)" fill="#263238"/></g><g transform="translate(8.442 3.832)"><path d="M362.256,341.319a9.078,9.078,0,0,1,1.619-.049c1,.007,2.376.037,3.9.087s2.9.112,3.894.171a8.912,8.912,0,0,1,1.612.156,9.019,9.019,0,0,1-1.616.049c-1-.007-2.377-.037-3.9-.087s-2.9-.112-3.9-.171A8.987,8.987,0,0,1,362.256,341.319Z" transform="translate(-362.256 -341.269)" fill="#263238"/></g></g><g transform="translate(31.246 27.398)"><path d="M397.918,375.763a1.345,1.345,0,0,1-.035-.323c-.011-.243-.025-.55-.042-.928-.037-.806-.045-1.975-.014-3.418s.124-3.162.3-5.063.46-3.985.849-6.155.88-4.218,1.374-6.065,1.022-3.489,1.506-4.853.9-2.459,1.218-3.2l.368-.857a1.423,1.423,0,0,1,.146-.291,1.353,1.353,0,0,1-.092.312c-.083.229-.188.519-.317.876-.285.755-.675,1.858-1.129,3.227s-.951,3.014-1.443,4.856-.948,3.887-1.347,6.049-.667,4.238-.869,6.131-.306,3.605-.359,5.044-.08,2.6-.078,3.411c0,.378-.008.685-.012.928A1.4,1.4,0,0,1,397.918,375.763Z" transform="translate(-397.808 -344.605)" fill="#263238"/></g><g transform="translate(25.312 42.75)"><path d="M395.874,368.541a6.622,6.622,0,0,1-.963,1.057c-.625.623-1.511,1.459-2.523,2.346s-1.958,1.657-2.657,2.194a6.644,6.644,0,0,1-1.173.817,7.458,7.458,0,0,1,1.044-.974l2.6-2.254,2.573-2.277A7.513,7.513,0,0,1,395.874,368.541Z" transform="translate(-388.557 -368.539)" fill="#263238"/></g><g transform="translate(33.446 39.102)"><path d="M408.061,372.656a11.349,11.349,0,0,1-1.026-1.42l-2.385-3.481-2.436-3.447a11.242,11.242,0,0,1-.975-1.455,9.874,9.874,0,0,1,1.139,1.333c.669.851,1.564,2.049,2.509,3.4s1.755,2.611,2.319,3.535A9.779,9.779,0,0,1,408.061,372.656Z" transform="translate(-401.238 -362.852)" fill="#263238"/></g><g transform="translate(24.774 29.549)"><path d="M399.21,347.961c.044.067-2.495,1.776-5.668,3.816s-5.782,3.64-5.825,3.573,2.494-1.775,5.668-3.816S399.167,347.893,399.21,347.961Z" transform="translate(-387.717 -347.959)" fill="#263238"/></g><g transform="translate(35.946 29.972)"><path d="M412.612,355.922a94.405,94.405,0,0,1-7.476-7.3,94.405,94.405,0,0,1,7.476,7.3Z" transform="translate(-405.135 -348.619)" fill="#263238"/></g><g transform="translate(45.223 21.175)"><path d="M419.6,350.848l2.178-.18a10.767,10.767,0,0,0,4.4-1.347,17.6,17.6,0,0,1,2.051-1.029c2.694-1.081,5.7-.888,8.6-1.033a35.6,35.6,0,0,0,13.678-3.5,1.328,1.328,0,0,0,.6-.541c.448-.815-.384-1.541-1.1-1.982-3.67-2.262-7.407-4.552-11.569-5.675s-8.888-.933-12.439,1.511c-4.169,2.869-5.688,8.763-6.393,13.774" transform="translate(-419.598 -334.903)" fill="#75c6fa"/><g transform="translate(0.046 2.065)"><path d="M451.173,344.107a2.233,2.233,0,0,1-.369-.172l-1.033-.541c-.9-.471-2.185-1.166-3.815-1.947a35.658,35.658,0,0,0-5.9-2.275,19.485,19.485,0,0,0-7.652-.62,13.076,13.076,0,0,0-6.976,3,15.514,15.514,0,0,0-3.632,5.1,42.674,42.674,0,0,0-1.58,3.972l-.388,1.1a2.126,2.126,0,0,1-.152.378,2.1,2.1,0,0,1,.1-.4c.085-.282.2-.654.336-1.117a36.385,36.385,0,0,1,1.5-4.022,15.445,15.445,0,0,1,3.642-5.216,13.232,13.232,0,0,1,7.115-3.083,19.481,19.481,0,0,1,7.761.65,34.337,34.337,0,0,1,5.922,2.349c1.623.808,2.9,1.531,3.779,2.033l1.007.588A2.161,2.161,0,0,1,451.173,344.107Z" transform="translate(-419.67 -338.122)" fill="#263238"/></g><g transform="translate(13.75 2.385)"><path d="M453.6,347.1c-.044.066-2.894-1.777-6.364-4.117s-6.247-4.291-6.2-4.357,2.893,1.777,6.364,4.117S453.646,347.03,453.6,347.1Z" transform="translate(-441.034 -338.621)" fill="#263238"/></g><g transform="translate(19.088 2.215)"><path d="M453.546,338.378a6.927,6.927,0,0,1-2.074.373,7.015,7.015,0,0,1-2.115-.028,13.6,13.6,0,0,1,2.09-.214A13.8,13.8,0,0,1,453.546,338.378Z" transform="translate(-449.356 -338.357)" fill="#263238"/></g><g transform="translate(8.678 0.61)"><path d="M435.253,335.855a5.5,5.5,0,0,1-.935,1.46,6.249,6.249,0,0,1-1.184,1.346,5.523,5.523,0,0,1,.935-1.461A6.26,6.26,0,0,1,435.253,335.855Z" transform="translate(-433.126 -335.854)" fill="#263238"/></g><g transform="translate(4.687 6.407)"><path d="M435.575,351.023a7.5,7.5,0,0,1-1.371-.743c-.823-.5-1.936-1.232-3.124-2.095s-2.237-1.679-2.99-2.276a8.447,8.447,0,0,1-1.183-1.015,8.247,8.247,0,0,1,1.307.851l3.037,2.206c1.185.86,2.273,1.615,3.065,2.157A9.283,9.283,0,0,1,435.575,351.023Z" transform="translate(-426.906 -344.892)" fill="#263238"/></g></g><g transform="translate(43.327 45.393)"><path d="M421.746,373.643c-2.078-.549-4.555,1.472-4.984,3.579s.362,4.26,1.287,6.2a31.63,31.63,0,0,0,8.593,11.244,21.253,21.253,0,0,0,13.14,4.838c-.878-4.081.233-8.344-.257-12.489a16.246,16.246,0,0,0-14.388-14.245c-1.327-.143-2.861-.352-3.391.874" transform="translate(-416.643 -372.659)" fill="#2680eb"/><g transform="translate(5.101 0.984)"><path d="M442.634,400.054a1.445,1.445,0,0,1-.3-.138,5.44,5.44,0,0,1-.777-.522,8.094,8.094,0,0,1-2.051-2.744c-.332-.643-.7-1.342-1.064-2.115l-1.118-2.471a23.98,23.98,0,0,0-1.374-2.641,20.645,20.645,0,0,0-1.891-2.572c-1.423-1.672-2.949-3.117-4.273-4.5a29.412,29.412,0,0,1-3.258-3.908,14.406,14.406,0,0,1-1.591-3.04,9.275,9.275,0,0,1-.278-.892,1.352,1.352,0,0,1-.065-.319c.027-.008.144.425.448,1.169a15.736,15.736,0,0,0,1.656,2.965,30.982,30.982,0,0,0,3.28,3.839c1.329,1.366,2.865,2.808,4.3,4.5a20.576,20.576,0,0,1,1.912,2.611,23.6,23.6,0,0,1,1.375,2.679l1.093,2.481c.349.77.709,1.475,1.028,2.122a8.406,8.406,0,0,0,1.942,2.752C442.24,399.831,442.651,400.025,442.634,400.054Z" transform="translate(-424.596 -374.193)" fill="#263238"/></g><g transform="translate(12.383 14.214)"><path d="M435.958,404.058a6.217,6.217,0,0,1,.19-1.4c.163-.856.43-2.031.79-3.31s.746-2.421,1.054-3.237a6.231,6.231,0,0,1,.568-1.292,7.54,7.54,0,0,1-.374,1.359c-.257.829-.61,1.974-.969,3.248s-.656,2.435-.868,3.276A7.517,7.517,0,0,1,435.958,404.058Z" transform="translate(-435.948 -394.82)" fill="#263238"/></g><g transform="translate(12.768 11.176)"><path d="M446.525,392.343a8.571,8.571,0,0,1-1.464-.336c-.9-.234-2.132-.554-3.507-.864s-2.631-.551-3.54-.723a8.621,8.621,0,0,1-1.466-.324,7.057,7.057,0,0,1,1.5.122c.92.121,2.187.332,3.571.643s2.618.665,3.5.95A7.122,7.122,0,0,1,446.525,392.343Z" transform="translate(-436.548 -390.082)" fill="#263238"/></g><g transform="translate(4.673 5.583)"><path d="M423.937,392.127a8.495,8.495,0,0,1,.224-1.618c.183-.992.474-2.356.862-3.846s.8-2.822,1.128-3.777a8.5,8.5,0,0,1,.595-1.522,9.866,9.866,0,0,1-.4,1.583c-.275.969-.655,2.3-1.043,3.79s-.709,2.836-.942,3.815A9.869,9.869,0,0,1,423.937,392.127Z" transform="translate(-423.928 -381.363)" fill="#263238"/></g><g transform="translate(6.421 3.466)"><path d="M438.21,379.3c-.008.08-2.6-.13-5.794-.469s-5.772-.677-5.763-.756,2.6.13,5.794.469S438.219,379.225,438.21,379.3Z" transform="translate(-426.653 -378.063)" fill="#263238"/></g></g><g transform="translate(18.671 81.417)"><path d="M418.937,428.965c0,.08-9.119.145-20.366.145s-20.368-.065-20.368-.145,9.117-.144,20.368-.144S418.937,428.886,418.937,428.965Z" transform="translate(-378.203 -428.821)" fill="#455a64"/></g><g transform="translate(25.615 93.152)"><path d="M416.475,447.261c0,.08-6.145.144-13.722.144s-13.723-.065-13.723-.144,6.143-.145,13.723-.145S416.475,447.181,416.475,447.261Z" transform="translate(-389.029 -447.116)" fill="#455a64"/></g><g transform="translate(25.854 94.83)"><path d="M416.37,449.877c0,.08-6.038.144-13.483.144s-13.485-.065-13.485-.144,6.036-.145,13.485-.145S416.37,449.8,416.37,449.877Z" transform="translate(-389.402 -449.732)" fill="#455a64"/></g><g transform="translate(24.911 91.769)"><path d="M416.32,445.1c0,.08-6.355.145-14.194.145s-14.195-.065-14.195-.145,6.354-.144,14.195-.144S416.32,445.025,416.32,445.1Z" transform="translate(-387.932 -444.96)" fill="#455a64"/></g></g><g transform="translate(50.15 39.179)"><g transform="translate(214.717)"><g transform="translate(0 9.44)"><path d="M417.2,59.749c0,.092-4.307.144-9.616.116s-9.615-.126-9.614-.218,4.305-.144,9.616-.116S417.2,59.656,417.2,59.749Z" transform="translate(-397.973 -59.523)" fill="#263238"/></g><g transform="translate(9.422)"><path d="M412.952,64.035c-.092,0-.211-4.3-.265-9.612s-.022-9.616.07-9.616.21,4.3.264,9.613S413.044,64.034,412.952,64.035Z" transform="translate(-412.661 -44.806)" fill="#263238"/></g></g><g transform="translate(232.435 144.376)"><g transform="translate(0 2.891)"><path d="M437.249,280.355A128.5,128.5,0,0,1,425.6,274.4a128.245,128.245,0,0,1,11.652,5.953Z" transform="translate(-425.596 -274.398)" fill="#263238"/></g><g transform="translate(2.936 0)"><path d="M430.178,281.633a128.15,128.15,0,0,1,5.773-11.743,64.338,64.338,0,0,1-2.737,5.945A64.106,64.106,0,0,1,430.178,281.633Z" transform="translate(-430.174 -269.89)" fill="#263238"/></g></g><g transform="translate(0 102.24)"><g transform="translate(0 5.815)"><path d="M77.063,213.269c.035.086-3.035,1.39-6.856,2.913s-6.945,2.688-6.979,2.6,3.035-1.389,6.856-2.913S77.029,213.183,77.063,213.269Z" transform="translate(-63.228 -213.264)" fill="#263238"/></g><g transform="translate(1.934)"><path d="M71.065,205.849c-.028.012-.109-.188-.341-.482a2.414,2.414,0,0,0-1.287-.835,2.272,2.272,0,1,0,1.352,3.391,2.409,2.409,0,0,0,.36-1.491c-.034-.372-.112-.573-.084-.584a1.2,1.2,0,0,1,.213.567,2.4,2.4,0,0,1-.287,1.629,2.522,2.522,0,0,1-2.089,1.262,2.558,2.558,0,0,1-1.786-4.482,2.521,2.521,0,0,1,2.384-.52,2.4,2.4,0,0,1,1.329.985A1.2,1.2,0,0,1,71.065,205.849Z" transform="translate(-66.243 -204.199)" fill="#263238"/></g><g transform="translate(6.743 12.065)"><path d="M78.562,224.659c-.028.012-.11-.187-.341-.482a2.413,2.413,0,0,0-1.287-.834,2.271,2.271,0,1,0,1.352,3.391,2.411,2.411,0,0,0,.36-1.491c-.034-.373-.112-.574-.083-.584a1.2,1.2,0,0,1,.212.567,2.406,2.406,0,0,1-.286,1.629,2.523,2.523,0,0,1-2.089,1.262,2.558,2.558,0,0,1-1.786-4.482,2.523,2.523,0,0,1,2.384-.52,2.4,2.4,0,0,1,1.329.986A1.215,1.215,0,0,1,78.562,224.659Z" transform="translate(-73.74 -223.008)" fill="#263238"/></g></g></g><g transform="translate(59.517 48.647)"><path d="M118.164,91.481s.072.172.194.506l.532,1.482,2.006,5.692.042.119-.125-.017-8.262-1.123.08-.022a21.414,21.414,0,0,1-9.884,4.315,20.555,20.555,0,0,1-3.073.263c-.525.014-1.055-.04-1.591-.058l-.807-.04c-.27-.024-.538-.076-.808-.113a20.4,20.4,0,0,1-6.481-1.953A21.962,21.962,0,0,1,84.1,96.368a21.578,21.578,0,0,1,3.473-33.284A21.066,21.066,0,0,1,93.832,60.3l.814-.208.405-.1.412-.063,1.639-.249c.546-.045,1.093-.059,1.635-.09a10.794,10.794,0,0,1,1.617.016,15.57,15.57,0,0,1,1.593.117l1.56.24c.515.083,1.011.247,1.512.366l.746.193c.243.079.48.173.719.259a21.207,21.207,0,0,1,5.244,2.68,21.45,21.45,0,0,1,9.12,16.306,20.376,20.376,0,0,1-.587,6.534,20.721,20.721,0,0,1-1.412,3.9c-.208.427-.376.749-.5.956s-.189.319-.189.319.047-.111.156-.33.27-.545.468-.974a21.763,21.763,0,0,0,1.347-3.907,20.473,20.473,0,0,0,.527-6.491,21.305,21.305,0,0,0-9.092-16.09,21,21,0,0,0-5.181-2.63c-.236-.084-.47-.176-.71-.254l-.736-.188c-.494-.115-.983-.276-1.491-.357l-1.539-.233a15.326,15.326,0,0,0-1.571-.112,10.648,10.648,0,0,0-1.593-.013c-.534.031-1.073.046-1.612.092l-1.614.248-.406.062-.4.1-.8.207a20.761,20.761,0,0,0-6.157,2.745,21.308,21.308,0,0,0-3.43,32.787,21.67,21.67,0,0,0,5.791,4.118,20.15,20.15,0,0,0,6.387,1.942c.267.037.532.09.8.114l.8.042c.529.019,1.052.074,1.571.062a20.241,20.241,0,0,0,3.035-.25,21.263,21.263,0,0,0,9.795-4.223l.035-.028.044.006,8.254,1.18-.083.1-1.941-5.741q-.32-.966-.493-1.486C118.209,91.651,118.164,91.481,118.164,91.481Z" transform="translate(-77.83 -59.566)" fill="#263238"/><g transform="translate(17.071 14.068)"><g transform="translate(0 2.431)"><path d="M110.037,85.373a.861.861,0,0,1,.487.774v4.272a.857.857,0,0,1-1.09.825,2.666,2.666,0,0,0-2.092.321,2.4,2.4,0,0,0-1.14,1.524,2.459,2.459,0,0,0,.436,1.867,2.737,2.737,0,0,0,1.763,1.167,3.214,3.214,0,0,0,3.36-2.173.858.858,0,0,1,1.634.521,4.942,4.942,0,0,1-5.265,3.347,4.428,4.428,0,0,1-2.9-1.888,4.176,4.176,0,0,1-.7-3.19,4.119,4.119,0,0,1,1.93-2.642,4.493,4.493,0,0,1,2.357-.659V86.147a.859.859,0,0,1,1.23-.774Z" transform="translate(-104.444 -85.289)" fill="#0894fe"/></g><g transform="translate(4.411)"><path d="M111.321,82.218a.7.7,0,1,1,.72.684A.7.7,0,0,1,111.321,82.218Z" transform="translate(-111.321 -81.499)" fill="#0894fe"/></g></g></g></g></svg>