<svg xmlns="http://www.w3.org/2000/svg" width="324.98" height="374.797" viewBox="0 0 324.98 374.797">
  <defs>
    <style>
      .cls-1 {
        fill: #a4d9ff;
        opacity: 0.33;
      }

      .cls-10, .cls-2 {
        fill: #fff;
      }

      .cls-15, .cls-3, .cls-5, .cls-8 {
        fill: none;
        stroke-miterlimit: 10;
      }

      .cls-3 {
        stroke: #677ceb;
      }

      .cls-4 {
        fill: #2d24a1;
        font-size: 7.003px;
      }

      .cls-10, .cls-4 {
        font-family: SegoeUI, Segoe UI;
      }

      .cls-5 {
        stroke: #99a2ab;
      }

      .cls-6 {
        fill: #99a2ab;
      }

      .cls-7 {
        fill: #75c6fa;
      }

      .cls-8 {
        stroke: #0048cd;
      }

      .cls-9 {
        fill: #0894fe;
      }

      .cls-10 {
        font-size: 13.6px;
      }

      .cls-11 {
        fill: #425163;
      }

      .cls-12 {
        fill: #2a87ff;
      }

      .cls-13 {
        fill: #f2f2f2;
      }

      .cls-14 {
        fill: #2680eb;
      }

      .cls-15 {
        stroke: #020202;
      }

      .cls-16 {
        fill: #c4c9ce;
      }

      .cls-17 {
        fill: #020202;
      }
    </style>
  </defs>
  <g id="Group_1902" data-name="Group 1902" transform="translate(-40.084 -119.09)">
    <path id="Path_7124" data-name="Path 7124" class="cls-1" d="M49.705,295.637a197.057,197.057,0,0,1-3.674-35.884c-.344-42.834,16.5-86.571,49.073-114.385,23.158-19.772,56.586-28.241,86.886-25.9,16.1,1.245,31.8,5.679,47.036,11.06,42.575,15.043,83.962,39.161,108.2,77.261a135.7,135.7,0,0,1,6.973,12.356c14.691,29.521,15.246,58.706,6.709,90.6-6.821,25.485-23.144,50.784-43.892,67.053-32.779,25.7-75.166,36.9-116.276,38.214-26.211.839-55.4,1.335-77.67-14.056C79.145,378.513,57.794,337.218,49.705,295.637Z"/>
    <path id="Path_7125" data-name="Path 7125" class="cls-2" d="M206.2,376.327a270.586,270.586,0,0,1-56.8-3.271c-18.7-2.935-37.051-10.149-51.205-22.719-8.5-7.545-15.305-16.836-21-26.672-9.956-17.21-16.7-36.586-17.225-56.461-.934-35.1,18.753-69.645,48.632-88.1,27.144-16.761,60.034-20.419,91.464-25.884,19.789-3.441,39.5-7.757,59.539-9.051s40.717.583,58.945,9.02a68.615,68.615,0,0,1,22.5,16.164c9.34,10.45,14.5,24.134,16.6,37.991,4.868,32.079-2.8,65.17-19.232,92.944-15.941,26.947-42,53.084-71.563,63.792A210.167,210.167,0,0,1,206.2,376.327Z"/>
    <g id="Group_1890" data-name="Group 1890">
      <path id="Path_7126" data-name="Path 7126" class="cls-2" d="M315.6,267.612"/>
      <line id="Line_584" data-name="Line 584" class="cls-3" x2="287.057" transform="translate(78.007 203.491)"/>
      <line id="Line_585" data-name="Line 585" class="cls-3" x2="287.057" transform="translate(78.007 233.193)"/>
      <line id="Line_586" data-name="Line 586" class="cls-3" x2="287.057" transform="translate(78.007 263.479)"/>
      <line id="Line_587" data-name="Line 587" class="cls-3" x2="287.057" transform="translate(78.007 173.552)"/>
      <line id="Line_588" data-name="Line 588" class="cls-3" x2="287.057" transform="translate(78.007 294.348)"/>
      <line id="Line_589" data-name="Line 589" class="cls-3" y2="159.417" transform="translate(126.522 166.502)"/>
      <line id="Line_590" data-name="Line 590" class="cls-3" y2="159.417" transform="translate(174.23 166.502)"/>
      <line id="Line_591" data-name="Line 591" class="cls-3" y2="159.417" transform="translate(221.939 166.502)"/>
      <line id="Line_592" data-name="Line 592" class="cls-3" y2="159.417" transform="translate(269.647 166.502)"/>
      <line id="Line_593" data-name="Line 593" class="cls-3" y2="159.417" transform="translate(317.356 166.502)"/>
      <text id="_1" data-name="1" class="cls-4" transform="translate(244.69 181.26)"><tspan x="0" y="0">1</tspan></text>
      <text id="_2" data-name="2" class="cls-4" transform="translate(292.469 181.26)"><tspan x="0" y="0">2</tspan></text>
      <text id="_3" data-name="3" class="cls-4" transform="translate(340.032 181.26)"><tspan x="0" y="0">3</tspan></text>
      <text id="_8" data-name="8" class="cls-4" transform="translate(244.69 210.279)"><tspan x="0" y="0">8</tspan></text>
      <text id="_9" data-name="9" class="cls-4" transform="translate(292.469 210.279)"><tspan x="0" y="0">9</tspan></text>
      <text id="_10" data-name="10" class="cls-4" transform="translate(340.032 210.279)"><tspan x="0" y="0">10</tspan></text>
      <text id="_5" data-name="5" class="cls-4" transform="translate(101.411 210.279)"><tspan x="0" y="0">5</tspan></text>
      <text id="_6" data-name="6" class="cls-4" transform="translate(149.192 210.279)"><tspan x="0" y="0">6</tspan></text>
      <text id="_7" data-name="7" class="cls-4" transform="translate(196.756 210.279)"><tspan x="0" y="0">7</tspan></text>
      <text id="_12" data-name="12" class="cls-4" transform="translate(101.411 240.465)"><tspan x="0" y="0">12</tspan></text>
      <text id="_13" data-name="13" class="cls-4" transform="translate(149.192 240.465)"><tspan x="0" y="0">13</tspan></text>
      <text id="_14" data-name="14" class="cls-4" transform="translate(196.756 240.465)"><tspan x="0" y="0">14</tspan></text>
      <text id="_19" data-name="19" class="cls-4" transform="translate(101.411 270.65)"><tspan x="0" y="0">19</tspan></text>
      <text id="_20" data-name="20" class="cls-4" transform="translate(149.192 270.65)"><tspan x="0" y="0">20</tspan></text>
      <text id="_21" data-name="21" class="cls-4" transform="translate(196.756 270.65)"><tspan x="0" y="0">21</tspan></text>
      <text id="_26" data-name="26" class="cls-4" transform="translate(101.411 300.836)"><tspan x="0" y="0">26</tspan></text>
      <text id="_27" data-name="27" class="cls-4" transform="translate(149.192 300.836)"><tspan x="0" y="0">27</tspan></text>
      <text id="_28" data-name="28" class="cls-4" transform="translate(196.756 300.836)"><tspan x="0" y="0">28</tspan></text>
      <text id="_29" data-name="29" class="cls-4" transform="translate(244.69 300.836)"><tspan x="0" y="0">29</tspan></text>
      <text id="_30" data-name="30" class="cls-4" transform="translate(292.469 300.836)"><tspan x="0" y="0">30</tspan></text>
      <text id="_31" data-name="31" class="cls-4" transform="translate(340.032 300.836)"><tspan x="0" y="0">31</tspan></text>
      <text id="_15" data-name="15" class="cls-4" transform="translate(244.69 240.465)"><tspan x="0" y="0">15</tspan></text>
      <text id="_17" data-name="17" class="cls-4" transform="translate(340.032 240.465)"><tspan x="0" y="0">17</tspan></text>
      <text id="_16" data-name="16" class="cls-4" transform="translate(292.099 240.465)"><tspan x="0" y="0">16</tspan></text>
      <text id="_22" data-name="22" class="cls-4" transform="translate(244.69 271.814)"><tspan x="0" y="0">22</tspan></text>
      <text id="_23" data-name="23" class="cls-4" transform="translate(292.469 271.814)"><tspan x="0" y="0">23</tspan></text>
      <text id="_24" data-name="24" class="cls-4" transform="translate(340.032 271.814)"><tspan x="0" y="0">24</tspan></text>
      <g id="Group_1887" data-name="Group 1887">
        <path id="Path_7127" data-name="Path 7127" class="cls-5" d="M286.26,154.418a5.517,5.517,0,1,1-5.517-5.517A5.516,5.516,0,0,1,286.26,154.418Z"/>
        <line id="Line_594" data-name="Line 594" class="cls-5" x1="4.469" y1="4.469" transform="translate(284.38 158.563)"/>
      </g>
      <g id="Group_1888" data-name="Group 1888">
        <path id="Path_7128" data-name="Path 7128" class="cls-6" d="M329.746,151.3a1.281,1.281,0,1,1-1.281-1.281A1.281,1.281,0,0,1,329.746,151.3Z"/>
        <circle id="Ellipse_377" data-name="Ellipse 377" class="cls-6" cx="1.281" cy="1.281" r="1.281" transform="translate(331.956 150.016)"/>
        <circle id="Ellipse_378" data-name="Ellipse 378" class="cls-6" cx="1.281" cy="1.281" r="1.281" transform="translate(336.727 150.016)"/>
        <path id="Path_7129" data-name="Path 7129" class="cls-6" d="M329.746,155.966a1.281,1.281,0,1,1-1.281-1.281A1.28,1.28,0,0,1,329.746,155.966Z"/>
        <circle id="Ellipse_379" data-name="Ellipse 379" class="cls-6" cx="1.281" cy="1.281" r="1.281" transform="translate(331.956 154.685)"/>
        <circle id="Ellipse_380" data-name="Ellipse 380" class="cls-6" cx="1.281" cy="1.281" r="1.281" transform="translate(336.727 154.685)"/>
        <path id="Path_7130" data-name="Path 7130" class="cls-6" d="M329.746,160.636a1.281,1.281,0,1,1-1.281-1.281A1.28,1.28,0,0,1,329.746,160.636Z"/>
        <circle id="Ellipse_381" data-name="Ellipse 381" class="cls-6" cx="1.281" cy="1.281" r="1.281" transform="translate(331.956 159.355)"/>
        <circle id="Ellipse_382" data-name="Ellipse 382" class="cls-6" cx="1.281" cy="1.281" r="1.281" transform="translate(336.727 159.355)"/>
      </g>
      <g id="Group_1889" data-name="Group 1889">
        <path id="Path_7131" data-name="Path 7131" class="cls-5" d="M87.718,151.284l-5.141,4.682,5.141,4.682"/>
        <path id="Path_7132" data-name="Path 7132" class="cls-5" d="M107.1,151.284l5.141,4.682-5.141,4.682"/>
      </g>
    </g>
    <g id="Group_1891" data-name="Group 1891">
      <path id="Path_7133" data-name="Path 7133" class="cls-3" d="M55.732,337.075a6.153,6.153,0,1,1,12.306,0"/>
    </g>
    <path id="Path_7134" data-name="Path 7134" class="cls-3" d="M51.017,251.274a2.495,2.495,0,1,1-2.495-2.495A2.495,2.495,0,0,1,51.017,251.274Z"/>
    <g id="Group_1892" data-name="Group 1892">
      <circle id="Ellipse_383" data-name="Ellipse 383" class="cls-7" cx="21.498" cy="21.498" r="21.498" transform="translate(187.421 377.411) rotate(-76.717)"/>
      <path id="Path_7135" data-name="Path 7135" class="cls-8" d="M197.829,361.573l15.455-.146V349"/>
    </g>
    <path id="Path_16769" data-name="Path 16769" class="cls-9" d="M0,0H69.021V42.944H0Z" transform="translate(230.604 198.589)"/>
    <text id="_15-2" data-name="15" class="cls-10" transform="translate(237.009 222.799)"><tspan x="0" y="0">15</tspan></text>
    <g id="Group_1900" data-name="Group 1900">
      <rect id="Rectangle_1785" data-name="Rectangle 1785" class="cls-11" width="10.905" height="20.524" rx="1.37" transform="translate(81.465 212.537)"/>
      <path id="Path_7136" data-name="Path 7136" class="cls-2" d="M78.885,231.659a15.723,15.723,0,0,1,.305-2.651,16.164,16.164,0,0,1,.845-2.882c.217-.547,1.307-1.992,1.259-2.5a9.966,9.966,0,0,0,1.2,4.232c.656,1.1,2.377,2.962,3.766,2.5,1.83-.614,2.977-2.367,4.23-3.836.339-.4.808-.82,1.316-.693a1.008,1.008,0,0,1,.673.966A2.921,2.921,0,0,1,92.168,228a23.127,23.127,0,0,0-1.885,5.733,16.285,16.285,0,0,0,.089,2.016,13.089,13.089,0,0,1-.822,3.083,22.469,22.469,0,0,0-.8,4.852,12.707,12.707,0,0,1-2.6,6.582,3.26,3.26,0,0,1-2.587,1.494,2.508,2.508,0,0,1-1.878-1.261,5.432,5.432,0,0,1-.657-2.238,22.444,22.444,0,0,1,.626-7.184,5.477,5.477,0,0,0,.08-3.131c-.472-1.2-1.733-1.731-2.273-2.955A7.868,7.868,0,0,1,78.885,231.659Z"/>
      <g id="Group_1893" data-name="Group 1893">
        <path id="Path_7137" data-name="Path 7137" class="cls-12" d="M64.592,273.558c2.912-5.241,7.083-9.812,11.375-14.062,13.339-13.211,31.762-32.176,52.393-28.328,2.133.4,4.594,1.382,5,3.513.387,2.04-1.35,3.8-2.883,5.2-9.732,8.893-15.021,20.737-23.875,30-9.729,10.18-18.756,20.3-32.57,24.928a12.547,12.547,0,0,1-5.292.856c-3.471-.38-6.279-3.353-7.252-6.708s-.385-6.985.779-10.278A33.715,33.715,0,0,1,64.592,273.558Z"/>
      </g>
      <g id="Group_1894" data-name="Group 1894">
        <path id="Path_7138" data-name="Path 7138" class="cls-2" d="M119.365,239.891c.091-.616.214-1.231.326-1.834,2.348-12.584.98-25.511,4.5-38,.646-2.288,1.5-4.655,3.31-6.195,3.749-3.19,10.486-2.51,14.72-.8,1.49.6,2.844,1.495,3.051,3.166.436,3.505.86,7.015,1.269,10.485.369,3.134.392,7.168-3.012,8.66a13.561,13.561,0,0,0-1.609.676c-1.394.84-1.812,2.639-2.044,4.25a57.694,57.694,0,0,0-.705,8.89c.033,2.568,1.036,5.092,1.5,7.644.505,2.807,1.049,5.194-1.071,7.489a13.115,13.115,0,0,1-7.293,4.262,13.836,13.836,0,0,1-10.178-2,7.019,7.019,0,0,1-2.335-2.441A6.855,6.855,0,0,1,119.365,239.891Z"/>
      </g>
      <g id="Group_1895" data-name="Group 1895">
        <path id="Path_7139" data-name="Path 7139" class="cls-13" d="M87.793,449.05l13.556-15.565c3.549-4.075,7.122-8.183,9.789-12.924,3.824-6.8,5.641-14.628,7.414-22.344q6.333-27.552,12.667-55.1c3.13-13.623,12.924-29.865-2.371-39.886-6.274-4.11-14.288-2.792-19.6,1.568C93.7,317.552,77.182,335.6,83.665,358.682c1.35,4.8,3.5,10.241,1.009,14.315-1.174,1.919-3.2,3.119-4.537,4.92-5.092,6.874,1.916,18.334-2.625,25.613-2.579,4.134-8.09,5.43-10.986,9.332-5.651,7.611-4.242,19.539-9.888,28.086-2.046,3.1-19.325,29.742-16.171,32.61,5.5,5,13.174,10.354,19.262,6.842a15.9,15.9,0,0,0,3.836-3.532Z"/>
      </g>
      <g id="Group_1896" data-name="Group 1896">
        <path id="Path_7140" data-name="Path 7140" class="cls-13" d="M168.218,436.672q.428-29.453-2.065-59.018c-1.782-21.113,0-43.812-7.681-64.279-11.328-30.181-47.439-18.038-51.761,9.048-.832,5.217-1.079,10.78.968,15.814,4.141,10.18,15.685,15.721,15.966,27.448.3,12.357-6.477,19.869.6,33.527,2.951,5.7,7.381,11,8.022,17.291.6,5.838-2.249,11.376-1.9,17.221.31,5.2,3.085,10,4.756,15,4.87,14.579.27,30.589,5.158,45.163,0-.006,23.027-2.024,24.528-1.978Q167.816,464.468,168.218,436.672Z"/>
      </g>
      <g id="Group_1897" data-name="Group 1897">
        <path id="Path_7141" data-name="Path 7141" class="cls-14" d="M164.85,245.382q-.266-2.081-.62-4.14c-.96-5.548-5.254-8.018-10.365-9.717a62.579,62.579,0,0,0-51.127,5.593A7.9,7.9,0,0,0,99.555,240c-1.232,2.384-.042,4.968.2,7.418.275,2.784-.526,4.835-1.638,7.363a99.688,99.688,0,0,0-5.216,65.1l65.558,1.735a1.893,1.893,0,0,0,2.356-1.853,194.6,194.6,0,0,0,4.953-41.173C165.9,267.653,166.248,256.31,164.85,245.382Z"/>
      </g>
      <path id="Path_7142" data-name="Path 7142" class="cls-2" d="M241.509,246.5c2.743-3.077,5.545-6.131,8.142-9.292,2.681-3.265,6.25-5.907,8.894-9.206a3.76,3.76,0,0,1,.795-.824,1.394,1.394,0,0,1,1.17-.218c.7.23.778,1.063.579,1.683a8.487,8.487,0,0,1-2,3.1,13.647,13.647,0,0,0-2.289,2.591c1.105.491,2.412.521,3.552,1.187,3.374,1.971,3.956,5.474,1.791,8.439a14.532,14.532,0,0,1-4.884,4.1c-1.4.718-4.089.886-5.057,2.058-2.733,3.307-5.9,10.342-12.137,7.806a4.747,4.747,0,0,1-3.041-3.807c-.187-2.187,1.429-4.153,2.968-5.906Q240.746,247.355,241.509,246.5Z"/>
      <g id="Group_1898" data-name="Group 1898">
        <path id="Path_7143" data-name="Path 7143" class="cls-14" d="M149.286,230.412c-11.7-1.048-20.394,9.333-18.248,18.977,3.773,16.962,24.679,33.367,40.938,36.379,8.658,1.6,17.4,3.215,26.2,2.888a60.455,60.455,0,0,0,35.09-12.981A63.9,63.9,0,0,0,248.1,258.694a11.459,11.459,0,0,0,1.683-4.209,8.129,8.129,0,0,0-3.612-7.492,9.78,9.78,0,0,0-7.577-1.481,19.389,19.389,0,0,0-4.551,1.864c-9.9,5.08-21.659,7.742-32.817,8.464-10.565.683-19.15,1.078-26.671-7.089C167.248,240.812,161.71,231.526,149.286,230.412Z"/>
      </g>
      <path id="Path_7144" data-name="Path 7144" class="cls-15" d="M191.338,270.048"/>
      <g id="Group_1899" data-name="Group 1899">
        <path id="Path_7145" data-name="Path 7145" class="cls-11" d="M125.481,190.038q3.006-.8,6.062-1.395c2.728-.533,5.569-.981,7.894-2.5a10.958,10.958,0,0,1,1.814-1.116c4.237-1.718,6.738,4.807,4.341,7.653-1.626,1.932-5.187,1.778-6.4,3.622-1.03,1.56.246,3.434.205,5.112a18.57,18.57,0,0,1-2.987,9.481,14.765,14.765,0,0,1-11.588,6.979c-5.331.282-5.076-2.73-5.814-7.219a100.232,100.232,0,0,1-1.314-14.665,3.885,3.885,0,0,1,3.428-4.679Q123.284,190.621,125.481,190.038Z"/>
      </g>
      <path id="Path_7146" data-name="Path 7146" class="cls-14" d="M82.273,239.785c3.025-1.262,6.231-1.14,8.738,1.926a10.124,10.124,0,0,1,1.829,5.979c.359,7.086-1.751,14.386-4.87,20.691-3.287,6.641-6.2,13.387-10.9,19.23-2.246,2.794-5.236,5.586-8.816,5.413a7.757,7.757,0,0,1-5.488-2.989,12.977,12.977,0,0,1-2.387-9.445A37.517,37.517,0,0,1,63.09,271c3.091-8.064,6.312-16.123,10.691-23.566A19.789,19.789,0,0,1,82.273,239.785Z"/>
      <path id="Path_7147" data-name="Path 7147" class="cls-2" d="M141.077,202.715a2.426,2.426,0,0,0-2.528-1.67,4,4,0,0,0-3.175,6.335,3.023,3.023,0,0,0,2.008,1.291,3.259,3.259,0,0,0,3.182-2.293,9.516,9.516,0,0,0,.229-4.19"/>
      <path id="Path_7148" data-name="Path 7148" class="cls-6" d="M138.293,202.894a1.7,1.7,0,1,0-.375,3.384"/>
      <path id="Path_7149" data-name="Path 7149" class="cls-15" d="M92.267,245.562a123.6,123.6,0,0,0-19.186,25.276"/>
      <path id="Path_7150" data-name="Path 7150" class="cls-16" d="M119.425,394.607q.07-.35.138-.7c.491-2.529,1.233-5.077.985-7.724-.2-2.1-1.2-3.881-1.646-5.9-1.139-5.215-1.861-9.643-5.366-14.053a1.328,1.328,0,0,0-.263,1.159c.828,9.624,1.721,19.255,2.564,28.853.153,1.74.382,3.471.6,5.207.093.75.607,2.814.407,3.474Q118.374,399.844,119.425,394.607Z"/>
      <path id="Path_7151" data-name="Path 7151" class="cls-15" d="M90.012,288.113a216.467,216.467,0,0,1,6.656-34.01"/>
    </g>
    <g id="Group_1901" data-name="Group 1901">
      <line id="Line_595" data-name="Line 595" class="cls-8" x1="20.454" y2="21.501" transform="translate(225.035 350.823)"/>
      <line id="Line_596" data-name="Line 596" class="cls-8" x1="20.454" y2="21.501" transform="translate(296.662 338.887)"/>
      <line id="Line_597" data-name="Line 597" class="cls-8" x1="11.236" y2="11.811" transform="translate(287.148 352.95)"/>
      <circle id="Ellipse_384" data-name="Ellipse 384" class="cls-7" cx="6.739" cy="6.739" r="6.739" transform="translate(235.262 369.407)"/>
      <path id="Path_7152" data-name="Path 7152" class="cls-3" d="M260.009,374.69a3.075,3.075,0,1,1-3.075-3.075A3.075,3.075,0,0,1,260.009,374.69Z"/>
    </g>
    <path id="Path_7153" data-name="Path 7153" class="cls-16" d="M159.415,401.3a15.065,15.065,0,0,1-.328,16.673"/>
    <path id="Path_7154" data-name="Path 7154" class="cls-16" d="M139.11,423.094a36.74,36.74,0,0,0,2.691,10.8"/>
    <path id="Path_7155" data-name="Path 7155" class="cls-16" d="M150.2,347.63a17.8,17.8,0,0,1,5.018,4.319c1.272,1.82,1.794,4.343.7,6.275"/>
    <path id="Path_7156" data-name="Path 7156" class="cls-16" d="M69.239,422.583a9.175,9.175,0,0,0,3.345,5.823"/>
    <path id="Path_7157" data-name="Path 7157" class="cls-16" d="M86.305,427.189A64.541,64.541,0,0,1,77.554,439.2"/>
    <path id="Path_7158" data-name="Path 7158" class="cls-17" d="M192.571,283.089a30.176,30.176,0,0,0,10-.833"/>
    <path id="Path_7159" data-name="Path 7159" class="cls-17" d="M156.729,260.594a12.5,12.5,0,0,0,5.014,6.658"/>
    <path id="Path_7160" data-name="Path 7160" class="cls-17" d="M96.618,298.1l.912,8.324"/>
    <path id="Path_7161" data-name="Path 7161" class="cls-7" d="M97.565,313.955a18.184,18.184,0,0,0,15.826-2.558"/>
    <path id="Path_7162" data-name="Path 7162" class="cls-16" d="M101.286,360.876a41.858,41.858,0,0,1,25.9-4"/>
    <path id="Path_7163" data-name="Path 7163" class="cls-17" d="M73.107,266.146a10.5,10.5,0,0,1-.026,4.692l11.025-16.115C81.053,256.6,75.779,263.759,73.107,266.146Z"/>
    <path id="Path_7164" data-name="Path 7164" class="cls-17" d="M165.041,289.447l1.113-5.741a29.4,29.4,0,0,1-13.969-15.687q.277,1.566.543,3.134c.758,2.756,1.5,5.517,2.205,8.289,2.234,4.364,5.427,8.126,9.8,10.226.137.065.309.127.432.037S165.159,289.351,165.041,289.447Z"/>
    <path id="Path_7165" data-name="Path 7165" class="cls-3" d="M203.708,140.534l6.353-7.261,5.743,7.051,7.844-7.5,6.812,7.247,6.383-7.476"/>
    <path id="Path_7166" data-name="Path 7166" class="cls-3" d="M263.127,342.857l6.353-7.261,5.743,7.051,7.844-7.5,6.812,7.247,6.383-7.476"/>
    <line id="Line_598" data-name="Line 598" class="cls-3" x1="15.643" y2="15.643" transform="translate(157.821 135.981)"/>
    <path id="Path_7167" data-name="Path 7167" class="cls-7" d="M186.526,147.47a5.41,5.41,0,1,1-5.41-5.411A5.41,5.41,0,0,1,186.526,147.47Z"/>
  </g>
</svg>
