<svg xmlns="http://www.w3.org/2000/svg" xmlns:xlink="http://www.w3.org/1999/xlink" width="324.2" height="313.924" viewBox="0 0 324.2 313.924"><defs><style>.a{fill:#fafafa;}.b{opacity:0.04;}.c{fill:url(#c);}.d{opacity:0.8;}.e{fill:url(#d);}.f{fill:#2680eb;}.g{opacity:0.38;}.h,.k,.n,.o{font-size:12px;}.h{font-family:Roboto-Medium, Roboto;font-weight:500;}.i{fill:none;}.j,.n{fill:#fff;}.j{font-size:20px;font-family:FormaDJRText-Regular-Edu, Forma DJR Text Edu;}.k{font-family:Roboto-Regular, Roboto;}.l{opacity:0.87;}.m{fill:#0894fe;}.n,.o{font-family:Roboto-Bold, Roboto;}.n,.o,.q{font-weight:700;}.o{fill:#009688;}.p{opacity:0.54;}.q{fill:#3d3d3d;font-size:16px;font-family:SegoeUI-Bold, Segoe UI;}.r{filter:url(#a);}</style><filter id="a" x="0" y="0" width="324.2" height="313.924" filterUnits="userSpaceOnUse"><feOffset dy="3" input="SourceAlpha"/><feGaussianBlur stdDeviation="4" result="b"/><feFlood flood-opacity="0.259"/><feComposite operator="in" in2="b"/><feComposite in="SourceGraphic"/></filter><linearGradient id="c" x1="0.5" y1="1" x2="0.5" gradientUnits="objectBoundingBox"><stop offset="0"/><stop offset="0.04" stop-opacity="0"/></linearGradient><linearGradient id="d" x1="0.5" y1="1" x2="0.5" gradientUnits="objectBoundingBox"><stop offset="0.8" stop-color="#fff" stop-opacity="0"/><stop offset="0.973" stop-color="#fff" stop-opacity="0.863"/><stop offset="1" stop-color="#fff"/></linearGradient></defs><g transform="translate(12 8.9)"><g transform="translate(0 0)"><g transform="translate(0 0.1)"><g class="r" transform="matrix(1, 0, 0, 1, -12, -9)"><path class="a" d="M357.2,327.024c0,.686-.915,1.2-2.1,1.2H59.1c-1.189,0-2.1-.571-2.1-1.2V39.5c0-.686.915-1.2,2.1-1.2H355.1c1.189,0,2.1.571,2.1,1.2V327.024Z" transform="translate(-45 -29.3)"/></g></g><g class="b"><path class="c" d="M355.1,38.486c.915,0,1.646.4,1.646.914V326.924c0,.514-.732.914-1.646.914H59.1c-.915,0-1.646-.4-1.646-.914V39.457c0-.514.732-.914,1.646-.914H355.1m0-.343H59.1c-1.189,0-2.1.571-2.1,1.2V326.924c0,.686.915,1.2,2.1,1.2H355.1c1.189,0,2.1-.571,2.1-1.2V39.457c0-.686-.915-1.257-2.1-1.257Z" transform="translate(-57 -38.2)"/></g><g class="d"><path class="e" d="M355.1,38.486c.915,0,1.646.4,1.646.914V326.924c0,.514-.732.914-1.646.914H59.1c-.915,0-1.646-.4-1.646-.914V39.457c0-.514.732-.914,1.646-.914H355.1m0-.343H59.1c-1.189,0-2.1.571-2.1,1.2V326.924c0,.686.915,1.2,2.1,1.2H355.1c1.189,0,2.1-.571,2.1-1.2V39.457c0-.686-.915-1.257-2.1-1.257Z" transform="translate(-57 -38.2)"/></g></g><path class="f" d="M2,0H298c1.1,0,2,.392,2,.875V52.5H0V.875C0,.392.9,0,2,0Z" transform="translate(0 0)"/><g class="g" transform="translate(26.929 81.499)"><g transform="translate(39.08)"><text class="h" transform="translate(0 11)"><tspan x="0" y="0">M</tspan></text></g><text class="h" transform="translate(0 11)"><tspan x="0" y="0">S</tspan></text><g transform="translate(117.63)"><text class="h" transform="translate(0 11)"><tspan x="0" y="0">W</tspan></text></g><g transform="translate(158.666)"><text class="h" transform="translate(0 11)"><tspan x="0" y="0">T</tspan></text></g><g transform="translate(193.724)"><text class="h" transform="translate(0 11)"><tspan x="0" y="0">F</tspan></text></g><g transform="translate(237.4)"><text class="h" transform="translate(0 11)"><tspan x="0" y="0">S</tspan></text></g><g transform="translate(80.13)"><text class="h" transform="translate(0 11)"><tspan x="0" y="0">T</tspan></text></g></g><rect class="i" width="209.6" height="38.3" transform="translate(23.6 0)"/><text class="j" transform="translate(24 34.5)"><tspan x="0" y="0">Jueves , Febrero 18</tspan></text><g class="d" transform="translate(25.062 255.589)"><text class="k" transform="translate(0 11)"><tspan x="0" y="0">30</tspan></text></g><g class="l" transform="translate(264.581 111.541)"><text class="k" transform="translate(0 11)"><tspan x="0" y="0">1</tspan></text></g><g class="l" transform="translate(25.063 202.984)"><text class="k" transform="translate(0 11)"><tspan x="0" y="0">16</tspan></text><g transform="translate(39.333)"><text class="k" transform="translate(0 11)"><tspan x="0" y="0">17</tspan></text></g><g transform="translate(117.999)"><text class="k" transform="translate(0 11)"><tspan x="0" y="0">19</tspan></text></g><g transform="translate(157.332)"><text class="k" transform="translate(0 11)"><tspan x="0" y="0">20</tspan></text></g><g transform="translate(235.999)"><text class="k" transform="translate(0 11)"><tspan x="0" y="0">22</tspan></text></g><g transform="translate(78.666)"><text class="k" transform="translate(0 11)"><tspan x="0" y="0">18</tspan></text></g></g><g class="l" transform="translate(25.062 233.814)"><text class="k" transform="translate(0 11)"><tspan x="0" y="0">23</tspan></text><g transform="translate(39.334)"><text class="k" transform="translate(0 11)"><tspan x="0" y="0">24</tspan></text></g><g transform="translate(118)"><text class="k" transform="translate(0 11)"><tspan x="0" y="0">26</tspan></text></g><g transform="translate(157.334)"><text class="k" transform="translate(0 11)"><tspan x="0" y="0">27</tspan></text></g><g transform="translate(196.666)"><text class="k" transform="translate(0 11)"><tspan x="0" y="0">28</tspan></text></g><g transform="translate(236)"><text class="k" transform="translate(0 11)"><tspan x="0" y="0">29</tspan></text></g><g transform="translate(78.667)"><text class="k" transform="translate(0 11)"><tspan x="0" y="0">25</tspan></text></g></g><circle class="m" cx="20" cy="20" r="20" transform="translate(209.915 189.893)"/><g transform="translate(223.011 203.564)"><text class="n" transform="translate(0 11)"><tspan x="0" y="0">18</tspan></text></g><g class="l" transform="translate(28.581 172.564)"><text class="k" transform="translate(0 11)"><tspan x="0" y="0">9</tspan></text><g transform="translate(40.481)"><text class="k" transform="translate(0 11)"><tspan x="0" y="0">10</tspan></text></g><g transform="translate(114.67)"><text class="k" transform="translate(0 11)"><tspan x="0" y="0">12</tspan></text></g><g transform="translate(153.67)"><text class="k" transform="translate(0 11)"><tspan x="0" y="0">13</tspan></text></g><g transform="translate(193.21)"><text class="k" transform="translate(0 11)"><tspan x="0" y="0">14</tspan></text></g><g transform="translate(232.481)"><text class="k" transform="translate(0 11)"><tspan x="0" y="0">15</tspan></text></g><g transform="translate(75.4)"><text class="k" transform="translate(0 11)"><tspan x="0" y="0">11</tspan></text></g></g><text class="o" transform="translate(226.844 152.324)"><tspan x="0" y="0">7</tspan></text><g class="l" transform="translate(28.581 141.324)"><text class="k" transform="translate(0 11)"><tspan x="0" y="0">2</tspan></text><g transform="translate(44)"><text class="k" transform="translate(0 11)"><tspan x="0" y="0">3</tspan></text></g><g transform="translate(118)"><text class="k" transform="translate(0 11)"><tspan x="0" y="0">5</tspan></text></g><g transform="translate(157.334 0)"><text class="k" transform="translate(0 11)"><tspan x="0" y="0">6</tspan></text></g><g transform="translate(236)"><text class="k" transform="translate(0 11)"><tspan x="0" y="0">8</tspan></text></g><g transform="translate(78.667)"><text class="k" transform="translate(0 11)"><tspan x="0" y="0">4</tspan></text></g></g><g class="p" transform="translate(16 51.82)"><path d="M89,181.1l-1.4-1.4-6,6,6,6,1.4-1.4-4.6-4.6Z" transform="translate(-73.6 -173.788)"/><rect class="i" width="24" height="24"/><g transform="translate(237)"><path d="M347.9,179.7l-1.4,1.4,4.6,4.6-4.6,4.6,1.4,1.4,6-6Z" transform="translate(-337.9 -173.788)"/><rect class="i" width="24" height="24"/></g></g><g class="l" transform="translate(110.5 53.079)"><text class="q" transform="translate(0 17)"><tspan x="0" y="0">Febrero</tspan></text></g></g></svg>