<svg xmlns="http://www.w3.org/2000/svg" width="302" height="190.8" viewBox="0 0 302 190.8"><defs><style>.a{fill:#e0e0e0;}.b{fill:#f5f5f5;}.c{fill:#fff;}.d,.j,.s{fill:none;stroke-miterlimit:10;}.d{stroke:#fbfbfb;stroke-width:0.25px;}.e{fill:#ebebeb;}.f{fill:#263238;}.g{fill:#75c6fa;}.h{fill:#0048cd;}.i{fill:#fafafa;}.j{stroke:#87a5c0;}.k{opacity:0.4;}.l{fill:#0894fe;}.m{opacity:0.2;}.n{fill:#0f4c81;}.o{fill:#f2f2f2;}.p{fill:#455a64;}.q{opacity:0.6;}.r{fill:#c4c9ce;}.s{stroke:#4f595e;stroke-width:0.05px;}.t{opacity:0.3;}.u{fill:#eb996e;}.v{fill:#2680eb;}</style></defs><g transform="translate(-61.361 -46.036)"><g transform="translate(75.393 48.876)"><g transform="translate(0 8.905)"><g transform="translate(2.12 0.001)"><rect class="a" width="42.171" height="61.125"/></g><g transform="translate(0.007 0.001)"><rect class="b" width="42.171" height="61.125"/></g><g transform="translate(5.132 6.506)"><g transform="translate(0.115 0.115)"><rect class="c" width="31.692" height="47.884"/></g><path class="a" d="M134.86,133.742s0-.081-.006-.234,0-.384-.006-.679c0-.6-.007-1.483-.012-2.626-.007-2.3-.017-5.64-.029-9.864-.013-8.443-.031-20.4-.052-34.48l.105.1-31.688.01h0l.115-.114c-.009,18.064-.017,34.719-.023,47.884l-.091-.091,23.068.048,6.373.023,1.673.011c.379,0,.578.01.578.01s-.187.006-.559.01l-1.656.01-6.353.023-23.124.048h-.091v-.091c-.006-13.165-.015-29.82-.023-47.884v-.115h.119l31.688.01h.105v.105c-.021,14.108-.039,26.089-.051,34.55-.012,4.214-.022,7.55-.029,9.84-.006,1.134-.01,2.008-.013,2.605q0,.435-.006.667C134.865,133.669,134.86,133.742,134.86,133.742Z" transform="translate(-103.054 -85.743)"/></g><g transform="translate(35.47 6.94)"><path class="d" d="M169.054,86.687" transform="translate(-169.054 -86.687)"/></g><g transform="translate(36.553 0)"><path class="a" d="M177.154,71.589a7.278,7.278,0,0,1-.752,1.092c-.49.655-1.185,1.546-1.979,2.51s-1.535,1.817-2.084,2.423a7.337,7.337,0,0,1-.928.947,7.927,7.927,0,0,1,.8-1.053l2.03-2.463,2.028-2.465A7.9,7.9,0,0,1,177.154,71.589Z" transform="translate(-171.41 -71.588)"/></g><g transform="translate(37.099 54.351)"><g transform="translate(0.001 0.001)"><path class="c" d="M172.6,189.831a39.273,39.273,0,0,0,5.528,6.913" transform="translate(-172.601 -189.831)"/></g><path class="a" d="M178.127,196.743a6.279,6.279,0,0,1-.963-.877,30.831,30.831,0,0,1-3.921-4.9,6.261,6.261,0,0,1-.643-1.133,8.733,8.733,0,0,1,.777,1.042c.465.653,1.118,1.545,1.88,2.5s1.49,1.787,2.024,2.384A8.729,8.729,0,0,1,178.127,196.743Z" transform="translate(-172.598 -189.83)"/></g><g transform="translate(0 54.261)"><g transform="translate(0.001 0.001)"><path class="c" d="M91.892,196.452l5.524-6.815" transform="translate(-91.892 -189.637)"/></g><path class="a" d="M97.414,189.636a42.083,42.083,0,0,1-2.673,3.48,42.03,42.03,0,0,1-2.851,3.335,42.147,42.147,0,0,1,2.673-3.48A42.017,42.017,0,0,1,97.414,189.636Z" transform="translate(-91.889 -189.635)"/></g><g transform="translate(0.006)"><path class="a" d="M91.9,71.589a38.143,38.143,0,0,1,2.681,3.2,38.173,38.173,0,0,1,2.5,3.348A38.121,38.121,0,0,1,94.4,74.936,38.162,38.162,0,0,1,91.9,71.589Z" transform="translate(-91.902 -71.588)"/></g><g transform="translate(16.453 16.343)"><rect class="a" width="10.612" height="30.13"/></g></g><g transform="translate(61.131)"><g transform="translate(0.182)"><path class="a" d="M265.108,52.214V78.981H226.664L225.279,52.4Z" transform="translate(-225.279 -52.214)"/></g><g transform="translate(0 0.005)"><g transform="translate(0.182 0.182)"><g transform="translate(0)"><rect class="c" width="26.523" height="38.444" transform="translate(0 26.523) rotate(-90)"/></g></g><path class="a" d="M263.691,79.113H224.882V52.225h38.809Zm-38.445-.365h38.08V52.59h-38.08Z" transform="translate(-224.882 -52.225)"/></g><g transform="translate(4.251 3.395)"><g transform="translate(0.095 0.087)"><rect class="c" width="30.117" height="19.933"/></g><path class="a" d="M264.342,59.688s-.051,0-.148.005l-.428.005-1.654.011-6.206.023-21.68.043.087-.087c0,6.09.005,12.838.008,19.93v0l-.1-.1,30.117.019-.075.076c.017-6.066.03-11.04.04-14.5.008-1.731.015-3.083.019-4.011q.005-.687.009-1.054c0-.239.008-.365.008-.365s.006.116.008.35.005.587.009,1.039c0,.923.011,2.27.019,3.993.009,3.475.023,8.464.04,14.55V79.7h-.076l-30.117.019h-.1v-.1c0-7.093.005-13.84.008-19.93V59.6h.087l21.737.043,6.187.023,1.636.011.419.005C264.3,59.685,264.342,59.688,264.342,59.688Z" transform="translate(-234.13 -59.601)"/></g><g transform="translate(0.182 0.111)"><path class="a" d="M225.278,52.457a3.247,3.247,0,0,1,.661.428c.393.284.929.687,1.507,1.15s1.087.9,1.445,1.229a3.113,3.113,0,0,1,.551.564c-.036.04-.96-.722-2.114-1.644A20.852,20.852,0,0,1,225.278,52.457Z" transform="translate(-225.277 -52.455)"/></g><g transform="translate(34.462 0.186)"><path class="a" d="M304.02,52.62A18.647,18.647,0,0,1,302,54.342a18.676,18.676,0,0,1-2.141,1.573,18.656,18.656,0,0,1,2.023-1.722A18.616,18.616,0,0,1,304.02,52.62Z" transform="translate(-299.855 -52.618)"/></g><g transform="translate(34.309 23.239)"><g transform="translate(0.001 0.002)"><path class="c" d="M303.811,106.248l-4.286-3.474" transform="translate(-299.525 -102.774)"/></g><path class="a" d="M299.523,102.772a40.058,40.058,0,0,1,4.287,3.474,20.033,20.033,0,0,1-2.2-1.663A20.115,20.115,0,0,1,299.523,102.772Z" transform="translate(-299.522 -102.771)"/></g><g transform="translate(0.182 23.449)"><path class="a" d="M225.278,106.49a36.368,36.368,0,0,1,4.121-3.259,36.345,36.345,0,0,1-4.121,3.259Z" transform="translate(-225.277 -103.229)"/></g><g transform="translate(10.461 9.693)"><g transform="translate(0 0)"><g transform="translate(0)"><rect class="a" width="6.674" height="18.95" transform="translate(0 6.674) rotate(-90)"/></g></g></g></g><g transform="translate(225.422 119.819)"><g transform="translate(0)"><path class="e" d="M614.658,313.014s-3.454-1.608-6.161,6.483a98.726,98.726,0,0,0-3.51,12.645s-.777,1.726-2.013.859-3.155-3.567-4.916-2.766c-1.826.831-2.135,3.053-1.3,6.127s2.407,9.875,2.547,10.49-.078,1.557-1.014,1.1-6.638-5.168-8.712-2.329,1.65,11.021,2.04,11.923.266,1.331-.145,1.63-2.179-1.465-3.855-2.739-3.843-2.456-4.9-.718-.513,8.214,7.15,17.718l3.839,4.172,5.577-1.153c11.783-3.2,16.028-8.116,16.191-10.145s-2.285-2.344-4.39-2.3-4.571.437-4.728-.046-.006-.9.84-1.405,8.664-4.939,8.652-8.454-7.393-3.049-8.419-3.23-.641-1.078-.175-1.487,5.743-5,8.22-7,3.533-3.981,2.542-5.725c-.955-1.682-4.093-.624-5.6-.647s-1.125-1.877-1.125-1.877a98.8,98.8,0,0,0,4.583-12.3c2.559-8.14-1.278-8.865-1.278-8.865" transform="translate(-582.302 -312.884)"/></g><g transform="translate(10.652 7.372)"><path class="a" d="M605.476,387.421c1.9-5.97,5.464-16.524,8.475-25.6s5.726-17.292,7.66-23.252l2.282-7.061.622-1.919.166-.5c.039-.112.063-.168.063-.168s-.012.06-.045.173l-.149.5-.591,1.929c-.514,1.675-1.276,4.094-2.229,7.078-1.9,5.97-4.6,14.2-7.611,23.269s-6.59,19.624-8.523,25.584" transform="translate(-605.476 -328.922)"/></g><g transform="translate(18.286 21.235)"><path class="a" d="M622.086,359.081a1.839,1.839,0,0,1,.2.359c.118.236.279.581.474,1.01.388.859.894,2.058,1.428,3.391l1.355,3.418.417,1.033a1.8,1.8,0,0,1,.138.386,1.9,1.9,0,0,1-.2-.358c-.118-.236-.279-.581-.469-1.013-.38-.862-.87-2.068-1.4-3.4l-1.379-3.407-.422-1.031A1.851,1.851,0,0,1,622.086,359.081Z" transform="translate(-622.085 -359.081)"/></g><g transform="translate(22.828 25.87)"><path class="a" d="M631.966,374.15c-.02-.045,2.406-1.2,5.419-2.572s5.473-2.456,5.493-2.412-2.406,1.2-5.42,2.572S631.986,374.194,631.966,374.15Z" transform="translate(-631.966 -369.165)"/></g><g transform="translate(17.578 42.617)"><path class="a" d="M620.543,407.566a1.929,1.929,0,0,1,.411-.081l1.126-.165c.95-.14,2.261-.339,3.7-.612s2.734-.559,3.67-.776l1.108-.256a1.953,1.953,0,0,1,.412-.074,1.886,1.886,0,0,1-.394.141c-.257.079-.631.187-1.1.31-.929.248-2.223.558-3.667.828s-2.761.454-3.717.563c-.478.052-.865.091-1.134.109A1.922,1.922,0,0,1,620.543,407.566Z" transform="translate(-620.543 -405.599)"/></g><g transform="translate(11.555 36.786)"><path class="a" d="M607.441,392.913a1.649,1.649,0,0,1,.267.281l.675.807c.565.686,1.334,1.641,2.176,2.7s1.6,2.029,2.136,2.735l.632.842a1.636,1.636,0,0,1,.212.323,1.663,1.663,0,0,1-.266-.281l-.675-.807c-.564-.686-1.334-1.641-2.176-2.7s-1.6-2.029-2.136-2.735l-.631-.841A1.66,1.66,0,0,1,607.441,392.913Z" transform="translate(-607.44 -392.912)"/></g><g transform="translate(5.38 48.317)"><path class="a" d="M594.008,418a2.7,2.7,0,0,1,.337.363l.869,1.031c.728.875,1.724,2.091,2.816,3.441s2.073,2.58,2.776,3.475l.826,1.066a.248.248,0,1,1-.053.043l-.869-1.03c-.728-.875-1.724-2.091-2.816-3.442s-2.073-2.579-2.776-3.474l-.826-1.065A2.616,2.616,0,0,1,594.008,418Z" transform="translate(-594.008 -417.998)"/></g><g transform="translate(13.166 54.958)"><path class="a" d="M610.946,435.3a3.047,3.047,0,0,1,.518-.116l1.42-.26c1.2-.221,2.852-.532,4.668-.927s3.453-.792,4.635-1.088l1.4-.351a3,3,0,0,1,.519-.109,3.08,3.08,0,0,1-.5.175c-.325.1-.8.242-1.387.4-1.175.328-2.808.747-4.629,1.14s-3.48.688-4.685.878c-.6.093-1.091.164-1.43.205A3.114,3.114,0,0,1,610.946,435.3Z" transform="translate(-610.946 -432.447)"/></g></g></g><g transform="translate(61.361 234.281)"><path class="f" d="M343.444,455.688c0,.066-63.152.12-141.035.12-77.91,0-141.048-.054-141.048-.12s63.138-.12,141.048-.12C280.292,455.569,343.444,455.622,343.444,455.688Z" transform="translate(-61.361 -455.569)"/></g><g transform="translate(223.168 46.036)"><g transform="translate(0 0)"><g transform="translate(22.483 20.531)"><g transform="translate(6.845 7.315)"><rect class="f" width="5.755" height="8.982" transform="matrix(0.758, -0.652, 0.652, 0.758, 0, 3.753)"/></g><path class="g" d="M477.591,98.042l-8.988,7.73-6.312-7.34a22.606,22.606,0,0,1,8.988-7.729Z" transform="translate(-462.291 -90.702)"/><g transform="translate(1.195 6.163)"><path class="f" d="M471.512,111.722c-.05.043-1.572-1.625-3.4-3.727s-3.27-3.841-3.22-3.885,1.572,1.625,3.4,3.727S471.562,111.679,471.512,111.722Z" transform="translate(-464.89 -104.11)"/></g><g transform="translate(2.925 4.364)"><path class="f" d="M475.259,108.133a9.532,9.532,0,0,1-1.02-1.12c-.607-.711-1.434-1.7-2.339-2.8l-2.3-2.831-.692-.862c-.165-.208-.249-.309-.249-.319a31.5,31.5,0,0,1,3.431,3.86c.906,1.1,1.711,2.11,2.285,2.848A9.353,9.353,0,0,1,475.259,108.133Z" transform="translate(-468.654 -100.195)"/></g><g transform="translate(5.198 2.268)"><path class="f" d="M480.212,103.709a9.773,9.773,0,0,1-1.026-1.135c-.61-.721-1.441-1.726-2.35-2.843l-2.308-2.877-.688-.881a2.783,2.783,0,0,1-.24-.333,6.4,6.4,0,0,1,1.059,1.106c.619.714,1.455,1.716,2.364,2.834s1.719,2.14,2.3,2.888A9.61,9.61,0,0,1,480.212,103.709Z" transform="translate(-473.599 -95.637)"/></g><g transform="translate(7.319 0.804)"><path class="f" d="M484.783,100.15c-.05.043-1.561-1.646-3.375-3.771s-3.244-3.884-3.194-3.927,1.561,1.645,3.376,3.771S484.834,100.107,484.783,100.15Z" transform="translate(-478.213 -92.451)"/></g></g><g transform="translate(100.554 21.883)"><g transform="translate(0)"><g transform="translate(0 7.011)"><rect class="f" width="5.755" height="8.982" transform="matrix(0.691, 0.723, -0.723, 0.691, 6.494, 0)"/></g><g transform="translate(2.47)"><path class="g" d="M645.7,108.9l-8.19-8.57,7-6.688a22.606,22.606,0,0,1,8.19,8.57Z" transform="translate(-637.51 -93.644)"/></g></g><g transform="translate(3.84 1.111)"><path class="f" d="M640.491,103.072c-.046-.047,1.541-1.656,3.544-3.591s3.664-3.467,3.71-3.419-1.54,1.655-3.544,3.592S640.537,103.12,640.491,103.072Z" transform="translate(-640.49 -96.061)"/></g><g transform="translate(5.401 2.744)"><path class="f" d="M643.888,106.627a9.467,9.467,0,0,1,1.065-1.078c.678-.644,1.624-1.521,2.677-2.482l2.706-2.45.825-.736c.2-.175.3-.265.306-.266a31.475,31.475,0,0,1-3.675,3.629c-1.053.962-2.017,1.82-2.725,2.431A9.406,9.406,0,0,1,643.888,106.627Z" transform="translate(-643.887 -99.614)"/></g><g transform="translate(7.479 4.905)"><path class="f" d="M648.408,111.34a9.74,9.74,0,0,1,1.08-1.084c.688-.647,1.648-1.53,2.717-2.5l2.752-2.456.844-.733a2.7,2.7,0,0,1,.32-.257,6.435,6.435,0,0,1-1.049,1.115c-.681.655-1.637,1.543-2.706,2.509s-2.047,1.829-2.764,2.444A9.678,9.678,0,0,1,648.408,111.34Z" transform="translate(-648.407 -104.314)"/></g><g transform="translate(9.423 6.946)"><path class="f" d="M652.638,115.719c-.045-.048,1.562-1.646,3.589-3.568s3.709-3.443,3.754-3.4-1.562,1.646-3.59,3.569S652.683,115.767,652.638,115.719Z" transform="translate(-652.637 -108.755)"/></g></g><g transform="translate(63.877 3.968)"><g transform="translate(0.071)"><g transform="translate(3.567 9.216)"><rect class="f" width="6.813" height="10.632"/></g><path class="h" d="M566.532,67.065H552.5V55.605a26.764,26.764,0,0,1,14.033,0Z" transform="translate(-552.499 -54.669)"/></g><g transform="translate(0 0.98)"><path class="f" d="M566.614,56.806a2.679,2.679,0,0,1-.518.257,13.14,13.14,0,0,1-1.478.544,17.145,17.145,0,0,1-2.276.54,17.882,17.882,0,0,1-5.713.027,17.2,17.2,0,0,1-2.281-.518,13.065,13.065,0,0,1-1.483-.53,2.666,2.666,0,0,1-.52-.251c.017-.042.775.277,2.049.619a19.735,19.735,0,0,0,2.267.462,19.262,19.262,0,0,0,5.646-.027,19.781,19.781,0,0,0,2.263-.484C565.842,57.09,566.6,56.764,566.614,56.806Z" transform="translate(-552.346 -56.802)"/></g><g transform="translate(4.587 2.537)"><path class="f" d="M562.443,70.015c-.066,0-.12-2.2-.12-4.913s.054-4.914.12-4.914.12,2.2.12,4.914S562.51,70.015,562.443,70.015Z" transform="translate(-562.324 -60.188)"/></g><g transform="translate(7.257 2.559)"><path class="f" d="M568.253,70.108c-.066,0-.12-2.21-.12-4.935s.053-4.936.12-4.936.12,2.21.12,4.936S568.319,70.108,568.253,70.108Z" transform="translate(-568.133 -60.236)"/></g><g transform="translate(9.926 2.514)"><path class="f" d="M574.061,70.011c-.066,0-.12-2.21-.12-4.936s.054-4.936.12-4.936.12,2.21.12,4.936S574.127,70.011,574.061,70.011Z" transform="translate(-573.941 -60.139)"/></g><g transform="translate(12.15 1.716)"><path class="f" d="M578.9,69.073c-.066,0-.12-2.389-.12-5.335s.054-5.335.12-5.335.12,2.388.12,5.335S578.964,69.073,578.9,69.073Z" transform="translate(-578.778 -58.403)"/></g><g transform="translate(2.062 1.648)"><path class="f" d="M556.952,68.924c-.066,0-.12-2.388-.12-5.335s.054-5.335.12-5.335.12,2.388.12,5.335S557.018,68.924,556.952,68.924Z" transform="translate(-556.832 -58.254)"/></g></g><g transform="translate(0)"><path class="h" d="M49.566,0A49.566,49.566,0,1,1,0,49.566,49.566,49.566,0,0,1,49.566,0Z" transform="translate(0 70.096) rotate(-45)"/></g><g transform="translate(28.349 27.976)"><g transform="translate(0.119 0.098)"><circle class="i" cx="41.628" cy="41.628" r="41.628"/></g><path class="f" d="M558.428,148.624s-.014-.229-.029-.675-.01-1.111-.088-1.979a41.9,41.9,0,0,0-1.185-7.51,41.4,41.4,0,0,0-1.708-5.224,40.243,40.243,0,0,0-2.9-5.856,42.075,42.075,0,0,0-10.562-11.808,41.448,41.448,0,0,0-17.491-7.758,42.212,42.212,0,0,0-16.274.189,44.28,44.28,0,0,0-5.551,1.584,41.629,41.629,0,0,0-19.3,14.477,40.87,40.87,0,0,0-3.385,5.449c-.511.951-.947,1.943-1.394,2.935-.4,1.011-.815,2.022-1.145,3.068a40.426,40.426,0,0,0-1.581,6.422,41.461,41.461,0,0,0,0,13.364,40.542,40.542,0,0,0,1.58,6.424c.33,1.046.745,2.057,1.145,3.069.447.992.882,1.985,1.394,2.936a40.835,40.835,0,0,0,3.385,5.451,41.633,41.633,0,0,0,19.3,14.481,44.292,44.292,0,0,0,5.552,1.584,42.23,42.23,0,0,0,16.276.188,41.451,41.451,0,0,0,17.491-7.759,42.061,42.061,0,0,0,10.561-11.809,40.179,40.179,0,0,0,2.9-5.856,41.278,41.278,0,0,0,1.707-5.224,41.891,41.891,0,0,0,1.185-7.509c.078-.867.061-1.533.088-1.978s.029-.674.029-.674,0,.228,0,.675.006,1.112-.064,1.981a40.681,40.681,0,0,1-2.835,12.772,40.121,40.121,0,0,1-2.887,5.882,42.132,42.132,0,0,1-10.573,11.875,41.577,41.577,0,0,1-17.557,7.82,42.383,42.383,0,0,1-16.356-.172,44.462,44.462,0,0,1-5.583-1.587,41.831,41.831,0,0,1-19.418-14.55,41.045,41.045,0,0,1-3.406-5.48c-.514-.957-.953-1.955-1.4-2.953-.4-1.017-.82-2.034-1.152-3.086a40.712,40.712,0,0,1-1.59-6.461,41.657,41.657,0,0,1,0-13.44,40.585,40.585,0,0,1,1.591-6.459c.332-1.051.749-2.068,1.152-3.085.449-1,.888-2,1.4-2.952a41.1,41.1,0,0,1,3.406-5.478,41.836,41.836,0,0,1,19.415-14.546,44.55,44.55,0,0,1,5.582-1.587,42.384,42.384,0,0,1,16.355-.173,41.586,41.586,0,0,1,17.557,7.818,42.132,42.132,0,0,1,10.575,11.874,40.192,40.192,0,0,1,2.887,5.883,40.681,40.681,0,0,1,2.836,12.773c.07.869.046,1.535.064,1.982S558.428,148.624,558.428,148.624Z" transform="translate(-475.053 -106.898)"/></g><g transform="translate(121.279 73.375)"><path class="j" d="M677.225,205.665" transform="translate(-677.225 -205.665)"/></g><g transform="translate(32.233 32.049)"><g transform="translate(70.982 35.647)"><path class="f" d="M640.329,193.807a6.952,6.952,0,0,1-2.4-.112,6.975,6.975,0,0,1,2.38-.347,5.978,5.978,0,0,1,2.4.112A5.985,5.985,0,0,1,640.329,193.807Z" transform="translate(-637.926 -193.313)"/></g><g transform="translate(70.212 44.934)"><path class="f" d="M638.537,214.307a6.991,6.991,0,0,1-2.285-.751,6.975,6.975,0,0,1,2.386.3,5.97,5.97,0,0,1,2.284.751A5.966,5.966,0,0,1,638.537,214.307Z" transform="translate(-636.252 -213.515)"/></g><g transform="translate(67.06 53.36)"><path class="f" d="M631.395,233.2a6.962,6.962,0,0,1-2-1.339,6.979,6.979,0,0,1,2.216.935,5.964,5.964,0,0,1,2,1.339A5.979,5.979,0,0,1,631.395,233.2Z" transform="translate(-629.395 -231.846)"/></g><g transform="translate(61.764 60.622)"><path class="f" d="M619.446,249.477a6.978,6.978,0,0,1-1.567-1.824,6.962,6.962,0,0,1,1.886,1.493c.96.908,1.662,1.725,1.567,1.823S620.392,250.4,619.446,249.477Z" transform="translate(-617.872 -247.646)"/></g><g transform="translate(54.721 66.203)"><path class="f" d="M603.586,261.968a6.985,6.985,0,0,1-1.022-2.177,6.981,6.981,0,0,1,1.418,1.943A5.984,5.984,0,0,1,605,263.911C604.885,263.98,604.25,263.11,603.586,261.968Z" transform="translate(-602.55 -259.788)"/></g><g transform="translate(46.43 69.683)"><path class="f" d="M584.944,269.73a6.964,6.964,0,0,1-.4-2.372,6.988,6.988,0,0,1,.84,2.254,5.968,5.968,0,0,1,.4,2.371A5.969,5.969,0,0,1,584.944,269.73Z" transform="translate(-584.514 -267.358)"/></g><g transform="translate(37.301 70.81)"><path class="f" d="M564.655,272.2a6.972,6.972,0,0,1,.25-2.393,6.979,6.979,0,0,1,.21,2.4,5.972,5.972,0,0,1-.25,2.392A5.988,5.988,0,0,1,564.655,272.2Z" transform="translate(-564.653 -269.811)"/></g><g transform="translate(27.304 69.521)"><path class="f" d="M543.386,269.242a6.939,6.939,0,0,1,.885-2.236,6.952,6.952,0,0,1-.442,2.364,5.945,5.945,0,0,1-.885,2.236A5.941,5.941,0,0,1,543.386,269.242Z" transform="translate(-542.903 -267.005)"/></g><g transform="translate(17.934 65.882)"><path class="f" d="M523.6,261.008a6.965,6.965,0,0,1,1.453-1.916,6.986,6.986,0,0,1-1.063,2.158c-.685,1.13-1.336,1.988-1.453,1.916A5.987,5.987,0,0,1,523.6,261.008Z" transform="translate(-522.519 -259.088)"/></g><g transform="translate(10.012 60.173)"><path class="f" d="M506.893,248.135a6.979,6.979,0,0,1,1.912-1.459,6.961,6.961,0,0,1-1.6,1.8c-.962.906-1.818,1.559-1.911,1.459S505.916,249.026,506.893,248.135Z" transform="translate(-505.285 -246.669)"/></g><g transform="translate(4.116 52.817)"><path class="f" d="M494.482,231.575a6.982,6.982,0,0,1,2.233-.893,6.981,6.981,0,0,1-2.023,1.3,5.975,5.975,0,0,1-2.233.893A5.972,5.972,0,0,1,494.482,231.575Z" transform="translate(-492.457 -230.666)"/></g><g transform="translate(0.699 44.332)"><path class="f" d="M487.322,212.507a6.97,6.97,0,0,1,2.391-.257,6.973,6.973,0,0,1-2.3.707,5.977,5.977,0,0,1-2.391.257A5.975,5.975,0,0,1,487.322,212.507Z" transform="translate(-485.023 -212.206)"/></g><g transform="translate(0 34.967)"><path class="f" d="M485.906,191.89a6.991,6.991,0,0,1,2.374.388,6.965,6.965,0,0,1-2.4.071,5.959,5.959,0,0,1-2.373-.388A5.978,5.978,0,0,1,485.906,191.89Z" transform="translate(-483.503 -191.833)"/></g><g transform="translate(2.067 24.994)"><path class="f" d="M490.336,170.751a6.986,6.986,0,0,1,2.181,1.014,6.976,6.976,0,0,1-2.334-.581A5.983,5.983,0,0,1,488,170.17,5.977,5.977,0,0,1,490.336,170.751Z" transform="translate(-488.001 -170.137)"/></g><g transform="translate(6.767 15.882)"><path class="f" d="M500.321,151.512a6.964,6.964,0,0,1,1.829,1.562,6.982,6.982,0,0,1-2.093-1.186c-1.088-.75-1.907-1.449-1.828-1.561A5.974,5.974,0,0,1,500.321,151.512Z" transform="translate(-498.224 -150.311)"/></g><g transform="translate(13.731 8.349)"><path class="f" d="M515.087,135.632a6.99,6.99,0,0,1,1.346,1.993c-.09.074-.851-.687-1.7-1.7a5.977,5.977,0,0,1-1.345-1.993C513.492,133.845,514.254,134.606,515.087,135.632Z" transform="translate(-513.375 -133.925)"/></g><g transform="translate(22.455 2.951)"><path class="f" d="M533.561,124.278a6.988,6.988,0,0,1,.761,2.282,6.97,6.97,0,0,1-1.181-2.1,5.963,5.963,0,0,1-.76-2.281A5.98,5.98,0,0,1,533.561,124.278Z" transform="translate(-532.354 -122.181)"/></g><g transform="translate(32.28 0.106)"><path class="f" d="M554.377,118.326a6.961,6.961,0,0,1,.117,2.4,6.976,6.976,0,0,1-.572-2.336,5.969,5.969,0,0,1-.117-2.4A5.98,5.98,0,0,1,554.377,118.326Z" transform="translate(-553.729 -115.99)"/></g><g transform="translate(41.958)"><path class="f" d="M575.381,118.164a6.98,6.98,0,0,1-.526,2.347,6.984,6.984,0,0,1,.07-2.4,5.968,5.968,0,0,1,.525-2.346A5.967,5.967,0,0,1,575.381,118.164Z" transform="translate(-574.785 -115.761)"/></g><g transform="translate(50.675 2.654)"><path class="f" d="M594.909,123.832a6.988,6.988,0,0,1-1.14,2.118,6.96,6.96,0,0,1,.716-2.3,5.963,5.963,0,0,1,1.14-2.117A5.973,5.973,0,0,1,594.909,123.832Z" transform="translate(-593.748 -121.534)"/></g><g transform="translate(58.414 7.876)"><path class="f" d="M612.26,134.922a6.967,6.967,0,0,1-1.665,1.735,6.983,6.983,0,0,1,1.3-2.02c.812-1.043,1.558-1.82,1.665-1.735A5.983,5.983,0,0,1,612.26,134.922Z" transform="translate(-610.585 -132.896)"/></g><g transform="translate(64.649 15.266)"><path class="f" d="M626.221,150.584a6.976,6.976,0,0,1-2.068,1.228,6.971,6.971,0,0,1,1.8-1.6,5.966,5.966,0,0,1,2.068-1.227C628.1,149.1,627.293,149.812,626.221,150.584Z" transform="translate(-624.148 -148.972)"/></g><g transform="translate(68.916 24.289)"><path class="f" d="M635.756,169.689a6.979,6.979,0,0,1-2.322.625,6.977,6.977,0,0,1,2.161-1.055,5.975,5.975,0,0,1,2.322-.625A5.954,5.954,0,0,1,635.756,169.689Z" transform="translate(-633.432 -168.602)"/></g><g transform="translate(70.895 34.232)"><path class="f" d="M640.143,190.778a6.983,6.983,0,0,1-2.4-.021,6.984,6.984,0,0,1,2.365-.436,5.993,5.993,0,0,1,2.4.021A5.994,5.994,0,0,1,640.143,190.778Z" transform="translate(-637.738 -190.234)"/></g></g><g transform="translate(22.13 24.665)"><path class="c" d="M493.326,99.7a.754.754,0,0,1-.142.066l-.423.171c-.37.156-.93.343-1.626.653a48.261,48.261,0,0,0-5.757,2.873c-1.178.678-2.425,1.493-3.733,2.409a50.8,50.8,0,0,0-3.984,3.179,46.858,46.858,0,0,0-13.05,19.093,50.684,50.684,0,0,0-1.515,4.867c-.379,1.551-.684,3.009-.889,4.353a48.328,48.328,0,0,0-.586,6.407c-.035.76-.006,1.351-.017,1.751l-.006.456a.756.756,0,0,1-.01.156.734.734,0,0,1-.015-.155c0-.115-.011-.266-.018-.456-.005-.4-.049-.992-.028-1.754a44.982,44.982,0,0,1,.512-6.431c.194-1.35.491-2.815.864-4.375a49.966,49.966,0,0,1,1.5-4.9,46.509,46.509,0,0,1,13.111-19.182,50.072,50.072,0,0,1,4.016-3.176c1.318-.913,2.576-1.722,3.763-2.393A45.03,45.03,0,0,1,491.1,100.5c.7-.3,1.27-.47,1.645-.611l.431-.148A.8.8,0,0,1,493.326,99.7Z" transform="translate(-461.523 -99.696)"/></g><g transform="translate(57.981 21.96)"><path class="c" d="M549.3,93.833a9.636,9.636,0,0,1-1.436.189c-.888.094-2.113.226-3.463.4s-2.569.36-3.452.5a9.681,9.681,0,0,1-1.436.183,7.852,7.852,0,0,1,1.407-.35c.877-.179,2.1-.39,3.45-.566s2.586-.282,3.48-.332A7.888,7.888,0,0,1,549.3,93.833Z" transform="translate(-539.519 -93.812)"/></g><g class="k" transform="translate(36.827 51.407)"><path d="M493.5,201.19s21.572,34.043,55.036,16.606c34.928-18.2,15.633-59.922,15.633-59.922s16.437,33.25-17.615,54.929c-8.481,5.4-17.714,5.4-24.757,4.7C503.794,215.7,493.5,201.19,493.5,201.19Z" transform="translate(-493.496 -157.874)"/></g><g transform="translate(69.426 47.578)"><path class="a" d="M576.692,149.544a142.306,142.306,0,0,1-.554,18.3,22.761,22.761,0,0,1-1.309,6.471,8.575,8.575,0,0,1-4.338,4.785,5.355,5.355,0,0,1-6.073-1.185Z" transform="translate(-564.418 -149.544)"/></g><g transform="translate(65.536 40.942)"><g transform="translate(3.656)"><path class="l" d="M563.909,160.583l15.128-25.477-9.131,28.76-4.664,1.4Z" transform="translate(-563.909 -135.106)"/><g class="k" transform="translate(3.909)"><path d="M583.632,135.106l-11.219,26.03,2.088,2.73Z" transform="translate(-572.413 -135.106)"/></g></g><g transform="translate(0 25.19)"><g transform="translate(0.12 0.098)"><circle class="i" cx="4.869" cy="4.869" r="4.869"/></g><path class="f" d="M565.813,194.874a10.424,10.424,0,0,0-.2-1.178,4.851,4.851,0,0,0-1.777-2.625,4.768,4.768,0,0,0-4.516-.667,4.776,4.776,0,0,0-2.206,1.661,4.735,4.735,0,0,0,0,5.617,4.775,4.775,0,0,0,2.206,1.661,4.769,4.769,0,0,0,4.516-.667,4.853,4.853,0,0,0,1.777-2.626,10.41,10.41,0,0,0,.2-1.177,3.772,3.772,0,0,1-.107,1.2,4.911,4.911,0,0,1-3.845,3.68,4.965,4.965,0,0,1-2.613-.2,4.97,4.97,0,0,1-2.32-1.73,4.95,4.95,0,0,1,0-5.894,4.968,4.968,0,0,1,2.319-1.729,4.964,4.964,0,0,1,2.613-.2,4.91,4.91,0,0,1,3.846,3.68A3.772,3.772,0,0,1,565.813,194.874Z" transform="translate(-555.955 -189.907)"/><g transform="translate(0.719 0.697)"><g transform="translate(0 0)"><circle class="h" cx="3.624" cy="3.624" r="3.624" transform="translate(0 7.104) rotate(-78.574)"/></g></g></g></g></g></g><g transform="translate(121.885 125.99)"><g transform="translate(0 11.645)"><g transform="translate(133.431 0.108)"><path class="a" d="M483.317,341.775h23.951L496.1,245.547Z" transform="translate(-483.317 -245.547)"/></g><g transform="translate(0.002 0.108)"><path class="i" d="M208.628,245.547l-15.592,97.361,133.049,1.732,13.166-99.093Z" transform="translate(-193.037 -245.547)"/></g><g transform="translate(8.437 26.77)"><path class="e" d="M343.257,321.507H211.417l2.871-17.93H345.639Z" transform="translate(-211.404 -303.566)"/><path class="f" d="M343.251,321.505H211.388l0-.014,2.873-17.94H345.637l0,.013Zm-131.836-.023H343.231l2.38-17.906H214.282Z" transform="translate(-211.388 -303.552)"/></g><g transform="translate(11.322 0.108)"><path class="l" d="M221.935,245.547l-4.272,26.674H349.014l3.544-26.674Z" transform="translate(-217.664 -245.547)"/></g><path class="f" d="M208.626,245.42l130.623-.108h.123l-.016.122c-3.851,29.011-8.218,61.908-12.83,96.654l-.014.1h-1.6l-131.761-.022h-.115l.018-.114c9.431-58.518,15.446-95.837,15.575-96.637-.127.8-6.067,38.131-15.382,96.668l-.1-.113,131.761-.022h1.5l-.119.1c4.621-34.745,9-67.641,12.853-96.65l.107.122Z" transform="translate(-193.033 -245.312)"/><g transform="translate(11.322 26.662)"><path class="f" d="M349.015,303.436c0,.066-29.406.12-65.672.12s-65.679-.054-65.679-.12,29.4-.12,65.679-.12S349.015,303.37,349.015,303.436Z" transform="translate(-217.664 -303.317)"/></g><g transform="translate(8.199 44.592)"><path class="f" d="M342.961,342.444c0,.066-29.572.12-66.042.12s-66.049-.054-66.049-.12,29.566-.12,66.049-.12S342.961,342.377,342.961,342.444Z" transform="translate(-210.87 -342.324)"/></g><g transform="translate(5.517 61.088)"><path class="f" d="M337.126,378.331c0,.066-29.572.12-66.042.12s-66.049-.054-66.049-.12,29.566-.12,66.049-.12S337.126,378.265,337.126,378.331Z" transform="translate(-205.035 -378.211)"/></g><g transform="translate(2.835 77.584)"><path class="f" d="M331.291,414.219c0,.066-29.572.12-66.042.12s-66.049-.054-66.049-.12,29.566-.12,66.049-.12S331.291,414.153,331.291,414.219Z" transform="translate(-199.2 -414.099)"/></g><g transform="translate(18.68 26.782)"><path class="f" d="M233.672,373.7c-.065-.01,2.349-15.718,5.393-35.08s5.564-35.056,5.629-35.046-2.349,15.715-5.393,35.083S233.738,373.712,233.672,373.7Z" transform="translate(-233.671 -303.577)"/></g><g transform="translate(39.007 26.782)"><path class="f" d="M277.9,373.7c-.065-.01,2.349-15.718,5.393-35.08s5.564-35.056,5.629-35.046-2.349,15.715-5.393,35.083S277.961,373.712,277.9,373.7Z" transform="translate(-277.894 -303.577)"/></g><g transform="translate(57.896 26.782)"><path class="f" d="M318.988,373c-.066-.01,2.324-15.561,5.337-34.728s5.509-34.705,5.575-34.695-2.324,15.558-5.338,34.732S319.054,373.01,318.988,373Z" transform="translate(-318.987 -303.577)"/></g><g transform="translate(76.586 26.782)"><path class="f" d="M359.651,373.556c-.065-.011,2.344-15.685,5.381-35.006s5.553-34.983,5.618-34.973-2.344,15.682-5.382,35.01S359.716,373.566,359.651,373.556Z" transform="translate(-359.649 -303.577)"/></g><g transform="translate(95.365 26.782)"><path class="f" d="M400.5,373.556c-.065-.011,2.344-15.685,5.381-35.006s5.553-34.983,5.618-34.973-2.344,15.682-5.382,35.01S400.569,373.566,400.5,373.556Z" transform="translate(-400.502 -303.577)"/></g><g transform="translate(114.127 26.782)"><path class="f" d="M441.321,373.658c-.066-.01,2.347-15.708,5.389-35.057s5.561-35.034,5.626-35.024-2.348,15.7-5.39,35.061S441.387,373.668,441.321,373.658Z" transform="translate(-441.32 -303.577)"/></g></g><g class="m" transform="translate(98.426 11.751)"><path d="M411.048,273.472a8.259,8.259,0,0,0,4.264-5.762,36.152,36.152,0,0,0,.576-7.388,14.853,14.853,0,0,1,1.648-7.158c.749-1.257,1.8-2.3,2.633-3.509a5.467,5.467,0,0,0,1.14-4.112l-14.148.072Z" transform="translate(-407.162 -245.542)"/></g><g transform="translate(27.842 57.683)"><path class="f" d="M269.391,345.47c.006.006-.041.063-.137.166l-.426.443c-.373.381-.922.924-1.607,1.587-1.37,1.326-3.3,3.125-5.477,5.051s-4.207,3.614-5.693,4.809c-.743.6-1.35,1.075-1.774,1.4l-.492.368a.74.74,0,0,1-.182.115c-.005-.006.047-.059.151-.153l.464-.4,1.725-1.455c1.457-1.228,3.462-2.934,5.642-4.858s4.121-3.7,5.52-4.995l1.659-1.531.457-.41A.746.746,0,0,1,269.391,345.47Z" transform="translate(-253.603 -345.47)"/></g><g transform="translate(29.115 57.563)"><path class="f" d="M269.85,359.453a4.712,4.712,0,0,1-.55-.542l-1.438-1.533-4.74-5.057-4.788-5.013-1.45-1.521a4.754,4.754,0,0,1-.511-.579,4.729,4.729,0,0,1,.577.513c.36.341.875.843,1.5,1.468,1.26,1.25,2.979,3,4.841,4.968s3.513,3.78,4.692,5.107c.589.664,1.061,1.205,1.382,1.584A4.755,4.755,0,0,1,269.85,359.453Z" transform="translate(-256.373 -345.209)"/></g><g transform="translate(47.351 57.473)"><path class="n" d="M296.2,349.448s.044-.121.143-.353a5.571,5.571,0,0,1,.552-.973,7.3,7.3,0,0,1,4.848-2.9,6.722,6.722,0,0,1,1.636-.043,8.072,8.072,0,0,1,3.492,1.189,9.307,9.307,0,0,1,3.009,2.989,7.777,7.777,0,0,1,1.258,4.563,5.267,5.267,0,0,1-.788,2.453,6.231,6.231,0,0,1-1.893,1.915,9.148,9.148,0,0,1-5.463,1.418,9.364,9.364,0,0,1-2.943-.641,7.006,7.006,0,0,1-2.574-1.743,5.9,5.9,0,0,1-.888-1.336,5.772,5.772,0,0,1-.467-1.557,7.412,7.412,0,0,1,.284-3.276,9.021,9.021,0,0,1,4.256-5.171,7.864,7.864,0,0,1,6.917-.319,7.251,7.251,0,0,1,2.9,2.22,6.964,6.964,0,0,1,1.37,3.447,6.73,6.73,0,0,1-.6,3.713,6.256,6.256,0,0,1-1.093,1.579,7.242,7.242,0,0,1-1.519,1.191,9.287,9.287,0,0,1-7.393.692,8.4,8.4,0,0,1-3.217-1.856,5.925,5.925,0,0,1-1.791-3.173,5.247,5.247,0,0,1,.484-3.543,4.42,4.42,0,0,1,1.166-1.362,5.471,5.471,0,0,1,1.566-.825,9.889,9.889,0,0,1,3.419-.453,13.08,13.08,0,0,1,3.336.468,7.083,7.083,0,0,1,2.9,1.553,5.212,5.212,0,0,1,1.557,2.787,6.082,6.082,0,0,1-.181,3.1,6.428,6.428,0,0,1-1.6,2.549A7.905,7.905,0,0,1,303.725,360a6.941,6.941,0,0,1-2.666-.389,5.409,5.409,0,0,1-2.151-1.42,5.826,5.826,0,0,1-1.247-2.118,6.215,6.215,0,0,1-.335-2.308,6.077,6.077,0,0,1,1.628-3.877,7.26,7.26,0,0,1,3.093-2,7.123,7.123,0,0,1,3.088-.295,8.375,8.375,0,0,1,4.81,2.32c.177.18.263.276.263.276s-.1-.085-.279-.258a9.415,9.415,0,0,0-.862-.706,8.392,8.392,0,0,0-3.942-1.539,7.046,7.046,0,0,0-3.042.31,7.159,7.159,0,0,0-3.03,1.983,5.943,5.943,0,0,0-1.575,3.794,6.064,6.064,0,0,0,.335,2.251,5.666,5.666,0,0,0,1.219,2.055,5.244,5.244,0,0,0,2.087,1.368,6.753,6.753,0,0,0,2.6.37,7.717,7.717,0,0,0,5.022-2.2,6.234,6.234,0,0,0,1.549-2.472,5.876,5.876,0,0,0,.169-3,5,5,0,0,0-1.5-2.672,6.879,6.879,0,0,0-2.812-1.5,12.862,12.862,0,0,0-3.28-.456,9.683,9.683,0,0,0-3.34.444,4.54,4.54,0,0,0-2.6,2.083,5.018,5.018,0,0,0-.457,3.386,5.685,5.685,0,0,0,1.724,3.048,8.165,8.165,0,0,0,3.127,1.8,9.055,9.055,0,0,0,7.2-.672,7.02,7.02,0,0,0,1.467-1.15,6.046,6.046,0,0,0,1.051-1.518,6.5,6.5,0,0,0,.575-3.582,6.733,6.733,0,0,0-1.321-3.33,7.018,7.018,0,0,0-2.8-2.148,7.634,7.634,0,0,0-6.715.3,8.8,8.8,0,0,0-4.154,5.036,7.2,7.2,0,0,0-.281,3.178,5.555,5.555,0,0,0,.447,1.5,5.66,5.66,0,0,0,.851,1.286,6.8,6.8,0,0,0,2.494,1.694,9.178,9.178,0,0,0,2.878.633,8.966,8.966,0,0,0,5.35-1.374,5.515,5.515,0,0,0,2.613-4.227,7.627,7.627,0,0,0-1.218-4.47,9.188,9.188,0,0,0-2.951-2.956,7.966,7.966,0,0,0-3.433-1.189,6.6,6.6,0,0,0-1.611.033,6.893,6.893,0,0,0-1.424.342,7.04,7.04,0,0,0-3.4,2.482,5.983,5.983,0,0,0-.569.955C296.257,349.333,296.2,349.448,296.2,349.448Z" transform="translate(-296.047 -345.012)"/></g><g transform="translate(43.505 74.6)"><path class="f" d="M304.126,382.272c.042.051-3.605,3.167-8.146,6.961s-8.258,6.828-8.3,6.777,3.6-3.167,8.147-6.961S304.084,382.221,304.126,382.272Z" transform="translate(-287.679 -382.272)"/></g><g transform="translate(45.908 75.874)"><path class="f" d="M307.745,397.1a4.48,4.48,0,0,1-.612-.438l-1.614-1.262c-1.356-1.074-3.219-2.57-5.268-4.235s-3.9-3.183-5.224-4.29l-1.566-1.322a4.539,4.539,0,0,1-.553-.509,4.474,4.474,0,0,1,.612.438l1.614,1.262c1.356,1.074,3.219,2.571,5.269,4.235s3.894,3.182,5.223,4.289l1.566,1.321A4.562,4.562,0,0,1,307.745,397.1Z" transform="translate(-292.907 -385.044)"/></g><g transform="translate(82.6 74.775)"><path class="f" d="M388.456,382.654c.04.053-3.448,2.723-7.789,5.963s-7.894,5.825-7.933,5.771,3.447-2.722,7.79-5.963S388.417,382.6,388.456,382.654Z" transform="translate(-372.733 -382.653)"/></g><g transform="translate(83.267 75.625)"><path class="f" d="M390.593,394.964c-.035.056-3.738-2.241-8.269-5.129s-8.177-5.275-8.141-5.332,3.737,2.241,8.27,5.13S390.629,394.908,390.593,394.964Z" transform="translate(-374.183 -384.502)"/></g><g transform="translate(60.547 91.63)"><path class="n" d="M324.756,436.1c-.047-.046,3.574-3.84,8.088-8.473s8.213-8.353,8.26-8.307-3.573,3.84-8.089,8.474S324.8,436.149,324.756,436.1Z" transform="translate(-324.756 -419.322)"/></g><g transform="translate(61.584 92.739)"><path class="n" d="M341.286,437.4c-.006,0-.057-.05-.149-.158l-.389-.481-1.418-1.778c-1.2-1.5-2.9-3.532-4.872-5.7s-3.844-4.045-5.222-5.381l-1.639-1.576-.443-.432c-.1-.1-.149-.157-.144-.163a.745.745,0,0,1,.176.127l.473.4c.409.349.988.869,1.692,1.522,1.41,1.307,3.3,3.173,5.282,5.343s3.658,4.228,4.829,5.754c.586.762,1.049,1.387,1.359,1.827l.353.508A.722.722,0,0,1,341.286,437.4Z" transform="translate(-327.011 -421.734)"/></g><g transform="translate(17.448 86.087)"><g transform="translate(0.71 1.434)"><path class="e" d="M252.613,411.936s.146,11.291-2.7,18.055l-17.371-2.962s5.233-10.7,3.808-16.647Z" transform="translate(-232.537 -410.382)"/></g><path class="l" d="M251.771,409.827s-2.176,13.849-3.509,17.975l-17.27-3.4s3.551-13.4,3.5-17.135Z" transform="translate(-230.992 -407.262)"/><g transform="translate(5.261 6.208)"><path class="c" d="M242.438,420.774c-.013.063,2.565.66,5.759,1.332s5.794,1.166,5.808,1.1-2.565-.66-5.759-1.332S242.451,420.71,242.438,420.774Z" transform="translate(-242.438 -420.768)"/></g><g transform="translate(4.82 9.144)"><path class="c" d="M241.479,427.161c-.013.063,2.565.66,5.759,1.332s5.794,1.166,5.808,1.1-2.565-.66-5.76-1.332S241.492,427.1,241.479,427.161Z" transform="translate(-241.479 -427.156)"/></g><g transform="translate(7.348 12.463)"><path class="c" d="M246.979,434.386a4.17,4.17,0,0,0,.948.284c.592.147,1.413.333,2.323.524s1.737.352,2.337.456a4.169,4.169,0,0,0,.982.122,4.153,4.153,0,0,0-.948-.285c-.592-.146-1.413-.332-2.323-.524s-1.736-.352-2.337-.457A4.142,4.142,0,0,0,246.979,434.386Z" transform="translate(-246.979 -434.376)"/></g></g><g transform="translate(102.156 56.948)"><g transform="translate(0.831 0.412)"><path class="e" d="M434.5,344.766s1.779,11.007-.023,18.026l-17.4-.374s3.559-11.208,1.305-16.811Z" transform="translate(-417.085 -344.766)"/></g><path class="l" d="M433.459,343.87s-.117,13.842-.821,18.065l-17.361-.821s1.525-13.607.939-17.243Z" transform="translate(-415.277 -343.87)"/><g transform="translate(3.384 6.052)"><path class="c" d="M422.638,357.144c0,.064,2.613.12,5.835.126s5.836-.042,5.836-.106-2.612-.12-5.835-.125S422.638,357.08,422.638,357.144Z" transform="translate(-422.638 -357.037)"/></g><g transform="translate(3.55 8.979)"><path class="c" d="M423,363.512c0,.064,2.613.12,5.835.125s5.836-.042,5.836-.106-2.612-.12-5.835-.126S423,363.448,423,363.512Z" transform="translate(-423 -363.405)"/></g><g transform="translate(6.664 11.677)"><path class="c" d="M429.774,369.384a4.1,4.1,0,0,0,.974.084c.6.022,1.432.036,2.35.038s1.75-.01,2.352-.03a4.067,4.067,0,0,0,.974-.081,4.126,4.126,0,0,0-.974-.084c-.6-.022-1.433-.036-2.351-.038s-1.749.01-2.351.03A4.107,4.107,0,0,0,429.774,369.384Z" transform="translate(-429.774 -369.274)"/></g></g><g transform="translate(114.093)"><path class="f" d="M451.264,245.608a9.654,9.654,0,0,1-8.232-5.239,15.622,15.622,0,0,1-1.47-10.391c.954-4.608,4-8.364,7.755-9.568,3.2-1.024,8.906-.444,11.6,4.051a13.656,13.656,0,0,1,1.864,7.275,1.379,1.379,0,0,1-2.752-.183,11.015,11.015,0,0,0-1.479-5.675c-2.078-3.471-6.631-3.4-8.39-2.841-3.213,1.03-5.276,4.509-5.9,7.5a12.819,12.819,0,0,0,1.2,8.528c1.357,2.532,4.1,4.1,6.533,3.729a1.379,1.379,0,1,1,.418,2.726A7.6,7.6,0,0,1,451.264,245.608Z" transform="translate(-441.246 -219.978)"/></g><g transform="translate(25.046 0.072)"><path class="f" d="M257.54,245.692a9.654,9.654,0,0,1-8.231-5.239,15.617,15.617,0,0,1-1.47-10.39c.8-3.879,3.525-8.345,7.793-9.58a10.165,10.165,0,0,1,6.262.321l-.993,2.573a7.409,7.409,0,0,0-4.5-.244c-3.165.916-5.224,4.421-5.859,7.49a12.821,12.821,0,0,0,1.2,8.528c1.358,2.533,4.107,4.1,6.533,3.729l.418,2.726A7.6,7.6,0,0,1,257.54,245.692Z" transform="translate(-247.522 -220.133)"/></g><g transform="translate(121.689 11.828)"><path class="n" d="M459.039,245.711l-1.267,6.946h18.665l1.657-6.877Z" transform="translate(-457.772 -245.711)"/></g><g transform="translate(33.862 21.566)"><path class="f" d="M272.635,269.863a2.968,2.968,0,1,1-2.968-2.968A2.967,2.967,0,0,1,272.635,269.863Z" transform="translate(-266.7 -266.895)"/></g><g transform="translate(122.81 21.566)"><path class="f" d="M466.146,269.863a2.967,2.967,0,1,1-2.968-2.968A2.967,2.967,0,0,1,466.146,269.863Z" transform="translate(-460.211 -266.895)"/></g></g><g transform="translate(156.53 54.652)"><g transform="translate(23.381 38.399)"><path class="o" d="M341,148.32l-4.882,18.517-16.849,1.807v2.991l23.678.832,4.45-20.772Z" transform="translate(-319.272 -148.32)"/></g><g transform="translate(13.631 58.696)"><g transform="translate(0 2.808)"><path class="f" d="M336.65,200.117s-26.328-1.254-33.828,4.616-3.893,15.438-3.893,15.438l42.374-.111,3.739-21.477Z" transform="translate(-298.061 -198.583)"/><g transform="translate(6.605 8.88)"><path class="p" d="M348.888,224.727a2.264,2.264,0,0,1-.379-.027c-.247-.026-.612-.064-1.08-.125-.937-.117-2.29-.309-3.954-.59a113.074,113.074,0,0,1-12.85-2.97c-2.471-.731-4.808-1.471-6.97-2.005a30.673,30.673,0,0,0-5.825-.929,17.588,17.588,0,0,0-3.965.227c-.467.06-.816.176-1.061.217a2.3,2.3,0,0,1-.374.068,2.275,2.275,0,0,1,.361-.115,10.179,10.179,0,0,1,1.057-.262,16.54,16.54,0,0,1,3.99-.3,29.773,29.773,0,0,1,5.87.883c2.174.525,4.519,1.26,6.985,1.99a125.835,125.835,0,0,0,12.812,3.033c1.658.3,3.006.519,3.938.665l1.073.17A2.258,2.258,0,0,1,348.888,224.727Z" transform="translate(-312.43 -217.901)"/></g><g transform="translate(13.598 7.232)"><path class="p" d="M332.64,216.948a11.421,11.421,0,0,0-5-2.617,2.29,2.29,0,0,1,.845.085,7.622,7.622,0,0,1,3.6,1.886A2.306,2.306,0,0,1,332.64,216.948Z" transform="translate(-327.645 -214.316)"/></g></g><g transform="translate(39.447 61.571)"><path class="n" d="M385.8,326.426l.354,11.068-2.244,8.835a1.134,1.134,0,0,0,.9,1.4h0a1.128,1.128,0,0,0,.994-.3c1.675-1.636,7.807-7.685,7.736-8.494-.083-.937.4-11.7.4-11.7Z" transform="translate(-383.88 -326.426)"/><g class="q" transform="translate(0.931 11.755)"><path class="c" d="M385.9,361.542,394.628,352l0,.469a1.707,1.707,0,0,1-.395,1.111c-.7.832-2.667,3.09-7.3,7.661a1.134,1.134,0,0,1-1.028.3Z" transform="translate(-385.905 -352)"/></g><g class="q" transform="translate(7.072 8.093)"><path class="c" d="M399.542,344.144a.686.686,0,0,0-.18.9.66.66,0,0,0,.889.186.725.725,0,0,0,.185-.952.685.685,0,0,0-.946-.091" transform="translate(-399.266 -344.033)"/></g><g transform="translate(1.161 15.183)"><path class="f" d="M388.663,360.711a2.447,2.447,0,0,0-2.256-1.085c-.01-.027.129-.114.388-.154a1.809,1.809,0,0,1,1.744.839C388.672,360.539,388.69,360.7,388.663,360.711Z" transform="translate(-386.407 -359.458)"/></g><g transform="translate(0.574 17.153)"><path class="f" d="M387.2,364.516a3.384,3.384,0,0,0-2.068-.6,1.259,1.259,0,0,1,1.15-.1C386.933,364,387.254,364.486,387.2,364.516Z" transform="translate(-385.128 -363.742)"/></g><g transform="translate(1.75 13.244)"><path class="f" d="M390.807,356.518a5.828,5.828,0,0,0-3.118-1.191,3.1,3.1,0,0,1,3.118,1.191Z" transform="translate(-387.688 -355.239)"/></g><g transform="translate(2.152 10.699)"><path class="f" d="M391.452,350.152c-.029.067-.643-.183-1.439-.2s-1.425.176-1.45.107a2.815,2.815,0,0,1,2.889.1Z" transform="translate(-388.562 -349.702)"/></g><g transform="translate(2.061 7.4)"><path class="f" d="M391.323,343.022a3.6,3.6,0,0,0-2.957.129c-.018-.023.1-.163.355-.313a2.474,2.474,0,0,1,2.221-.1C391.208,342.869,391.339,343,391.323,343.022Z" transform="translate(-388.364 -342.524)"/></g><g transform="translate(1.78 4.845)"><path class="f" d="M389.514,339.148a.953.953,0,0,1-.019-.419,2.908,2.908,0,0,1,.323-1.1,1.289,1.289,0,0,1,.547-.621.456.456,0,0,1,.515.1.745.745,0,0,1,.18.5,1.6,1.6,0,0,1-1.392,1.5,1.86,1.86,0,0,1-1.836-.956.646.646,0,0,1-.035-.536.447.447,0,0,1,.466-.241,1.581,1.581,0,0,1,.733.373,3.225,3.225,0,0,1,.764.853.987.987,0,0,1,.174.381,5.166,5.166,0,0,0-1.04-1.1,1.479,1.479,0,0,0-.647-.309.238.238,0,0,0-.255.13.442.442,0,0,0,.044.351,1.661,1.661,0,0,0,1.6.811,1.392,1.392,0,0,0,1.2-1.253.536.536,0,0,0-.111-.353.246.246,0,0,0-.283-.057,1.165,1.165,0,0,0-.473.517A4.3,4.3,0,0,0,389.514,339.148Z" transform="translate(-387.753 -336.967)"/></g></g><g transform="translate(35.369)"><path class="f" d="M386.619,195.283s-11.386,21.524-11.542,25.268,0,38.369,0,38.369H392.7c.468,0,3.1-15.6,2.564-19.185s-2.436-22.888-2.436-22.888h10.139a10.65,10.65,0,0,0,2.679-6.747,23.19,23.19,0,0,0-2.77-8.6c-.868-1.447-6.432-9.03-6.432-9.03Z" transform="translate(-375.007 -192.475)"/></g><g transform="translate(35.006 4.262)"><path class="p" d="M385.429,201.748a.525.525,0,0,1-.05.124l-.167.351-.663,1.341-1.063,2.113-.663,1.32-.7,1.5-3.436,7.4-2.036,4.365-1.072,2.307a12.647,12.647,0,0,0-.783,2.473,13.557,13.557,0,0,0-.268,2.586c-.031.861-.046,1.711-.062,2.546-.023,1.669-.032,3.281-.029,4.816,0,3.07.037,5.834.068,8.156s.063,4.183.083,5.5c.007.636.013,1.136.017,1.5,0,.16,0,.288,0,.389a.555.555,0,0,1-.008.133.547.547,0,0,1-.016-.132c-.006-.1-.013-.229-.023-.388-.015-.359-.036-.859-.063-1.494-.047-1.3-.105-3.176-.159-5.5s-.1-5.087-.12-8.159c-.01-1.536-.005-3.148.014-4.82.014-.836.028-1.686.058-2.55a13.756,13.756,0,0,1,.272-2.626,12.837,12.837,0,0,1,.8-2.52l1.079-2.312,2.05-4.36,3.483-7.377.71-1.5.68-1.312,1.1-2.1.7-1.32.188-.341A.563.563,0,0,1,385.429,201.748Z" transform="translate(-374.217 -201.748)"/></g><g transform="translate(40.825 6.176)"><path class="p" d="M388.585,211.331a57.471,57.471,0,0,1-1.7-5.42,23.918,23.918,0,0,1,1.7,5.42Z" transform="translate(-386.878 -205.911)"/></g><g transform="translate(53.076 22.304)"><path class="p" d="M416.116,265.292a1,1,0,0,1-.051-.244c-.026-.188-.059-.421-.1-.705-.08-.648-.189-1.527-.322-2.6-.252-2.228-.593-5.247-.971-8.583-.37-3.354-.685-6.392-.869-8.595-.09-1.075-.165-1.958-.219-2.609-.019-.286-.035-.521-.047-.711a.973.973,0,0,1,0-.249.96.96,0,0,1,.048.245c.025.188.055.422.092.706.074.649.173,1.529.3,2.6l.939,8.587.9,8.589c.1,1.074.185,1.956.246,2.606.022.286.04.521.055.71A.985.985,0,0,1,416.116,265.292Z" transform="translate(-413.53 -240.999)"/></g></g><g transform="translate(51.002)"><g transform="translate(13.785)"><path class="f" d="M409.381,68.634a3.588,3.588,0,0,1,3.129-3.827A4.654,4.654,0,0,1,417,67.385a6.7,6.7,0,0,1,.136,5.351c-.436,1.162-1.308,2.341-2.546,2.433-1.192.087-2.182-.852-3-1.721" transform="translate(-409.351 -64.78)"/></g><g transform="translate(0 1.944)"><path class="f" d="M380.237,80.026c-3.663-8.057,5.051-12.105,9.805-10.762,4.469,1.262,6.375,3.486,7.11,6.475a14.758,14.758,0,0,1-.472,9.076c-.578,1.4-1.618,2.831-3.127,3.006" transform="translate(-379.361 -69.01)"/></g><g transform="translate(0.423 3.201)"><g transform="translate(0.418 1.423)"><path class="o" d="M393.882,76.894a1.519,1.519,0,0,1,1.358,1.54h0l-.86,20.51c-.033,2.422-3.57,3.791-6.163,3.736h0c-2.619-.055-2.707-1.339-2.744-3.643-.063-3.85-.062-5.295-.063-5.273,0,0-3.309-.549-3.995-4.867a46.141,46.141,0,0,1-.052-8.545c.164-2.59,1.88-5.768,4.461-5.5Z" transform="translate(-381.192 -74.841)"/><g transform="translate(0.925 6.761)"><g transform="translate(0.919 0.704)"><path class="f" d="M385.206,91.582a.553.553,0,0,0,.534.558.529.529,0,0,0,.571-.5.554.554,0,0,0-.533-.559A.53.53,0,0,0,385.206,91.582Z" transform="translate(-385.205 -91.081)"/></g><path class="f" d="M383.215,90.132c.068.072.488-.238,1.084-.237s1.032.3,1.1.227c.032-.032-.038-.163-.228-.3a1.516,1.516,0,0,0-.878-.271,1.455,1.455,0,0,0-.863.279C383.243,89.969,383.181,90.1,383.215,90.132Z" transform="translate(-383.206 -89.55)"/></g><g transform="translate(6.782 6.872)"><g transform="translate(0.887 0.593)"><path class="f" d="M397.878,91.582a.553.553,0,0,0,.534.558.529.529,0,0,0,.571-.5.554.554,0,0,0-.533-.559A.53.53,0,0,0,397.878,91.582Z" transform="translate(-397.877 -91.081)"/></g><path class="f" d="M395.956,90.373c.069.072.489-.238,1.084-.237s1.032.3,1.1.227c.032-.032-.038-.163-.229-.3a1.517,1.517,0,0,0-.878-.271,1.46,1.46,0,0,0-.863.279C395.985,90.21,395.922,90.341,395.956,90.373Z" transform="translate(-395.947 -89.791)"/></g><g transform="translate(3.111 6.908)"><path class="f" d="M389.478,94.835a3.936,3.936,0,0,0-.968-.175c-.152-.016-.3-.046-.322-.15a.772.772,0,0,1,.1-.451l.45-1.158a19.936,19.936,0,0,0,1.01-3.031,19.917,19.917,0,0,0-1.252,2.942c-.15.407-.294.794-.431,1.166a.882.882,0,0,0-.079.6.382.382,0,0,0,.25.222,1.05,1.05,0,0,0,.258.036A3.889,3.889,0,0,0,389.478,94.835Z" transform="translate(-387.96 -89.87)"/></g><g transform="translate(4.217 17.381)"><path class="r" d="M390.367,114.2a10.984,10.984,0,0,0,5.782-1.543s-1.4,2.966-5.724,2.562Z" transform="translate(-390.367 -112.654)"/></g><g transform="translate(4.821 12.904)"><path class="r" d="M391.74,103.319a1.073,1.073,0,0,1,.963-.4.981.981,0,0,1,.677.363.621.621,0,0,1,.047.71.72.72,0,0,1-.781.2,2.256,2.256,0,0,1-.762-.455.665.665,0,0,1-.17-.176.2.2,0,0,1,0-.222" transform="translate(-391.681 -102.913)"/></g><g transform="translate(4.483 12.285)"><path class="f" d="M392.844,101.567c-.1-.006-.1.641-.652,1.1s-1.242.388-1.247.478c-.009.041.154.126.444.134a1.611,1.611,0,0,0,1.041-.363,1.4,1.4,0,0,0,.5-.923C392.961,101.724,392.889,101.563,392.844,101.567Z" transform="translate(-390.945 -101.567)"/></g><g transform="translate(6.52 5.964)"><path class="f" d="M395.379,88.263c.059.162.654.085,1.353.17s1.265.275,1.357.13c.041-.07-.057-.222-.285-.379a2.371,2.371,0,0,0-2.064-.228C395.483,88.059,395.354,88.186,395.379,88.263Z" transform="translate(-395.376 -87.817)"/></g><g transform="translate(1.138 5.001)"><path class="f" d="M383.683,86.339c.1.136.515-.005,1.009-.011.493-.024.912.091,1.008-.051.042-.069-.024-.2-.206-.332a1.46,1.46,0,0,0-1.625.05C383.694,86.134,383.637,86.273,383.683,86.339Z" transform="translate(-383.668 -85.722)"/></g></g><path class="f" d="M387.474,71.746a8.77,8.77,0,0,0-4.148,1.287,6,6,0,0,0-2.961,3.519,1.229,1.229,0,0,0,.035.973.952.952,0,0,0,1.184.255,2.773,2.773,0,0,0,.963-.888,1.846,1.846,0,0,0,3.585-.04,1.618,1.618,0,0,0,1.664,1.485,2.134,2.134,0,0,0,1.838-1.451,5.405,5.405,0,0,0,.759,2.108,1.845,1.845,0,0,0,1.955.8,3.826,3.826,0,0,0,.028,1.931c.228.61,1.145,10.993,1.76,10.782.6-.205.592-10.8.732-11.42a14.405,14.405,0,0,0,.463-3.618,5.3,5.3,0,0,0-4.276-5.373,14.008,14.008,0,0,0-3.757-.342" transform="translate(-380.282 -71.745)"/></g><g transform="translate(11.854 11.035)"><path class="f" d="M409.563,99.866c0,.008-.043.029-.132.061a2,2,0,0,1-.4.1,3.4,3.4,0,0,1-3.292-1.546,4.449,4.449,0,0,1-.569-2.7c.071-.986.3-1.887.406-2.715a21.088,21.088,0,0,0,.192-2.215c.021-.633.012-1.147,0-1.5a2.731,2.731,0,0,1,.005-.554,2.242,2.242,0,0,1,.088.548c.037.355.071.871.072,1.511a18.167,18.167,0,0,1-.143,2.242c-.1.843-.318,1.747-.386,2.7a4.318,4.318,0,0,0,.518,2.572,3.167,3.167,0,0,0,1.644,1.347,3.443,3.443,0,0,0,1.449.221C409.367,99.9,409.557,99.845,409.563,99.866Z" transform="translate(-405.15 -88.787)"/></g><g transform="translate(2.052 2.646)"><path class="p" d="M387.869,70.538a1.937,1.937,0,0,1,.223,1.025,3.292,3.292,0,0,1-3.232,3.356,1.945,1.945,0,0,1-1.033-.184c.009-.043.4.071,1.023.016a3.308,3.308,0,0,0,3.073-3.191C387.955,70.932,387.826,70.548,387.869,70.538Z" transform="translate(-383.827 -70.538)"/></g><g transform="translate(2.569 7.729)"><path class="p" d="M389.118,81.6c.023,0-.03.3-.361.617a2.209,2.209,0,0,1-1.629.557,3.575,3.575,0,0,1-1.624-.558c-.371-.232-.57-.413-.553-.439a2.735,2.735,0,0,1,.635.291,4.208,4.208,0,0,0,1.557.467,2.27,2.27,0,0,0,1.5-.445C388.972,81.83,389.081,81.576,389.118,81.6Z" transform="translate(-384.95 -81.595)"/></g><g transform="translate(12.359 6.412)"><path class="p" d="M411.029,78.729a4.052,4.052,0,0,1-.081,1.18,5.937,5.937,0,0,1-1.057,2.66,3.585,3.585,0,0,1-2.474,1.409,2.358,2.358,0,0,1-.875-.086c-.2-.063-.3-.121-.292-.134a4.529,4.529,0,0,0,1.149.051,3.622,3.622,0,0,0,2.3-1.385,6.488,6.488,0,0,0,1.081-2.547A10.144,10.144,0,0,1,411.029,78.729Z" transform="translate(-406.249 -78.729)"/></g><g transform="translate(12.621 8.505)"><path class="p" d="M412.127,83.284a1.019,1.019,0,0,1,.069.364,6.8,6.8,0,0,1,.025,1.007,5.066,5.066,0,0,1-1.151,3.1,3.5,3.5,0,0,1-1.533,1.043,3.024,3.024,0,0,1-1.512.091,2.457,2.457,0,0,1-.938-.4c-.2-.142-.277-.249-.269-.258a3.528,3.528,0,0,0,1.236.487,3.008,3.008,0,0,0,1.413-.134,3.408,3.408,0,0,0,1.422-.991,5.234,5.234,0,0,0,1.162-2.953C412.13,83.81,412.087,83.286,412.127,83.284Z" transform="translate(-406.819 -83.284)"/></g></g><g transform="translate(0 42.413)"><g transform="translate(0 21.498)"><path class="p" d="M276.751,203.974l-8.346,19.079h11.489l8.18-19.23Z" transform="translate(-268.406 -203.822)"/></g><g transform="translate(2.172)"><path class="a" d="M273.235,158.416l9.412,18.5h29.675l-1.2-2.418-8.6-.255-7.007-15.6a2.7,2.7,0,0,0-2.463-1.594H274.071A.939.939,0,0,0,273.235,158.416Z" transform="translate(-273.131 -157.052)"/><g transform="translate(12.693 8.515)"><path class="f" d="M303.017,176.712a1.135,1.135,0,1,1-1.135-1.135A1.135,1.135,0,0,1,303.017,176.712Z" transform="translate(-300.746 -175.577)"/></g></g><g transform="translate(8.249 19.898)"><rect class="p" width="36.276" height="1.77"/></g><g transform="translate(33.353 20.783)"><path class="p" d="M340.965,202.267,352,222.23h5.279l1.145-2.283,1.06-2.406-7.346-14.39Z" transform="translate(-340.965 -202.267)"/></g></g><g transform="translate(44.741 24.887)"><g transform="translate(0 4.087)"><path class="h" d="M373.528,127.814a12.909,12.909,0,0,0-7.787,9.426l6.768,3.375Z" transform="translate(-365.741 -127.814)"/></g><g transform="translate(3.468 3.124)"><path class="h" d="M377.6,126.682s-4.484,10.048-4.313,15.533A52.479,52.479,0,0,0,374.6,149.1l2.328,12.35s17.839-2.416,18.236-2.416-.6-10.133-.6-10.133l2.908-19.476s-1.333-2.653-7.347-3.572C386.518,125.3,377.6,126.682,377.6,126.682Z" transform="translate(-373.287 -125.719)"/></g><g transform="translate(3.364 9.919)"><path class="f" d="M375.809,140.5c.041.024-.43.769-.992,2.066a18.852,18.852,0,0,0-.829,2.335,18.648,18.648,0,0,0-.679,6,18.844,18.844,0,0,0,.287,2.461c.259,1.39.551,2.221.506,2.235a3.066,3.066,0,0,1-.228-.576,7.125,7.125,0,0,1-.215-.693c-.072-.273-.167-.583-.23-.934a16.921,16.921,0,0,1-.341-2.482,17.573,17.573,0,0,1,.687-6.077,16.918,16.918,0,0,1,.886-2.343c.14-.328.3-.608.433-.859a7.008,7.008,0,0,1,.364-.628A3.082,3.082,0,0,1,375.809,140.5Z" transform="translate(-373.06 -140.501)"/></g><g transform="translate(17.711 24.2)"><path class="s" d="M404.272,171.57" transform="translate(-404.272 -171.57)"/></g><g transform="translate(11.695 20.021)"><path class="s" d="M391.184,162.479" transform="translate(-391.184 -162.479)"/></g><g transform="translate(9.954 0.05)"><path class="h" d="M387.4,122.974l.261-2.75a1.172,1.172,0,0,1,1.147-1.061l8.8-.13a1.051,1.051,0,0,1,1.063.97l.227,2.971a7.6,7.6,0,0,1-3.535,3.587,18.8,18.8,0,0,1-6.609,1.3Z" transform="translate(-387.396 -119.033)"/></g><g transform="translate(11.852 0.198)"><path class="f" d="M391.932,119.356c.028.025-.1.179-.157.478a5.039,5.039,0,0,0,.017,1.223,6.708,6.708,0,0,1,0,1.783,6.735,6.735,0,0,1-.24-1.767,3.476,3.476,0,0,1,.057-1.282C391.721,119.459,391.917,119.332,391.932,119.356Z" transform="translate(-391.524 -119.353)"/></g><g transform="translate(14.115 0.156)"><path class="f" d="M396.7,122.718a6.424,6.424,0,0,1-.219-1.729,7.738,7.738,0,0,1-.01-1.241c.046-.33.182-.5.207-.484s-.039.195-.038.5.057.735.08,1.214A6.409,6.409,0,0,1,396.7,122.718Z" transform="translate(-396.449 -119.262)"/></g><g transform="translate(16.532 0.144)"><path class="f" d="M402.185,122.63a12.288,12.288,0,0,1-.449-3.395,12.331,12.331,0,0,1,.449,3.395Z" transform="translate(-401.707 -119.236)"/></g><g transform="translate(18.922)"><path class="f" d="M407.277,122.655a9.337,9.337,0,0,1-.286-3.732,10.361,10.361,0,0,1,.193,1.862A10.473,10.473,0,0,1,407.277,122.655Z" transform="translate(-406.907 -118.923)"/></g><g class="t" transform="translate(20.885 14.242)"><path d="M411.329,149.906c-.351,3.1-.119,8.425.974,11.344l5.139-8.488Z" transform="translate(-411.177 -149.906)"/></g><g transform="translate(20.618 6.2)"><path class="h" d="M417.164,132.411l.025.026a13.146,13.146,0,0,1,3.11,5.419l.945,4.316-10.114,1.565a12.64,12.64,0,0,1-.385-5.655C411.229,134.83,417.164,132.411,417.164,132.411Z" transform="translate(-410.597 -132.411)"/></g><g transform="translate(20.793 4.826)"><path class="f" d="M421.449,140.558a.735.735,0,0,1-.2.051l-.581.106-2.165.353-7.326,1.115-.13.02-.005-.132c-.023-.609-.04-1.246-.051-1.9-.025-1.7-.022-3.32.1-4.795a7.864,7.864,0,0,1,1.177-3.732,5.553,5.553,0,0,1,1.885-1.849,3.637,3.637,0,0,1,.653-.3.993.993,0,0,1,.241-.07c.01.025-.323.128-.846.455a5.7,5.7,0,0,0-1.789,1.859,7.827,7.827,0,0,0-1.1,3.66c-.106,1.46-.1,3.078-.078,4.773.017.648.033,1.283.049,1.891l-.135-.112,7.338-1.036,2.175-.283.587-.065A.756.756,0,0,1,421.449,140.558Z" transform="translate(-410.978 -129.423)"/></g><g transform="translate(7.245 7.262)"><path class="i" d="M384.164,137.083a13.23,13.23,0,0,1-2.658-2.358,13.23,13.23,0,0,1,2.658,2.358Z" transform="translate(-381.504 -134.722)"/></g><g transform="translate(5.934 14.937)"><path class="i" d="M381.257,151.426a9.875,9.875,0,0,1-2.6,1.615,9.894,9.894,0,0,1,2.6-1.615Z" transform="translate(-378.651 -151.42)"/></g><g transform="translate(14.129 12.334)"><path class="i" d="M396.528,149.673a16.149,16.149,0,0,1,.236-3.918,16.145,16.145,0,0,1-.236,3.918Z" transform="translate(-396.479 -145.755)"/></g><g transform="translate(17.118 18.784)"><path class="i" d="M405.527,162.576a170.874,170.874,0,0,1-2.544-2.784,7.878,7.878,0,0,1,2.544,2.784Z" transform="translate(-402.981 -159.789)"/></g><g transform="translate(17.621 10.448)"><path class="i" d="M406.892,141.658a12.059,12.059,0,0,1-2.815,1.891,12.061,12.061,0,0,1,2.815-1.891Z" transform="translate(-404.075 -141.653)"/></g><g transform="translate(12.426 6.424)"><path class="i" d="M395.832,132.9a13.808,13.808,0,0,1-3.055,1.96,13.858,13.858,0,0,1,3.055-1.96Z" transform="translate(-392.775 -132.9)"/></g><g transform="translate(18.767 5.05)"><path class="i" d="M407.752,132.888a10.753,10.753,0,0,1-1.173-2.979,10.753,10.753,0,0,1,1.173,2.979Z" transform="translate(-406.569 -129.909)"/></g><g transform="translate(24.206 8.163)"><path class="i" d="M420.291,138.564a7.443,7.443,0,0,1-1.884-1.877,7.463,7.463,0,0,1,1.884,1.877Z" transform="translate(-418.403 -136.683)"/></g><g transform="translate(23.353 11.706)"><path class="i" d="M416.767,147.21a8.416,8.416,0,0,1-.157-2.821,8.385,8.385,0,0,1,.157,2.821Z" transform="translate(-416.546 -144.389)"/></g><g transform="translate(25.511 13.098)"><path class="i" d="M424.4,147.919a6.8,6.8,0,0,1-3.158-.483,25.9,25.9,0,0,1,3.158.483Z" transform="translate(-421.24 -147.418)"/></g><g transform="translate(6.437 19.405)"><path class="i" d="M381.383,164.6a15.328,15.328,0,0,1-1.631-3.455,15.276,15.276,0,0,1,1.631,3.455Z" transform="translate(-379.745 -161.14)"/></g><g transform="translate(12.756 27.296)"><path class="i" d="M395.541,181.124a12.712,12.712,0,0,1-2.044-2.816,12.675,12.675,0,0,1,2.044,2.816Z" transform="translate(-393.492 -178.306)"/></g><g transform="translate(17.269 27.062)"><path class="i" d="M406.45,177.807a11.905,11.905,0,0,1-3.139,1.211,11.862,11.862,0,0,1,3.139-1.211Z" transform="translate(-403.311 -177.797)"/></g><g transform="translate(6.648 30.52)"><path class="i" d="M380.214,187.75a7.468,7.468,0,0,1,1.1-2.428,7.476,7.476,0,0,1-1.1,2.428Z" transform="translate(-380.203 -185.321)"/></g><g transform="translate(1.839 9.746)"><path class="i" d="M370.237,142.557a3.132,3.132,0,0,1-.392-2.43,60.366,60.366,0,0,0,.392,2.43Z" transform="translate(-369.741 -140.127)"/></g><g transform="translate(7.401 26.839)"><path class="i" d="M384.454,178.771a9.374,9.374,0,0,1-2.611-1.451,9.4,9.4,0,0,1,2.611,1.451Z" transform="translate(-381.842 -177.313)"/></g><g transform="translate(11.848 20.633)"><path class="i" d="M394.121,163.814a12.918,12.918,0,0,1-2.6,2.359,12.953,12.953,0,0,1,2.6-2.359Z" transform="translate(-391.517 -163.811)"/></g><g class="t" transform="translate(11.733 20.494)"><path d="M391.267,163.509a7.844,7.844,0,0,0,2.046,4.276,4.313,4.313,0,0,0,4.424,1.1,1.057,1.057,0,0,0,.713-.659.869.869,0,0,0-.578-.909,3.421,3.421,0,0,0-1.153-.161,6.555,6.555,0,0,1-5.357-3.468" transform="translate(-391.267 -163.509)"/></g><g transform="translate(11.69 20.02)"><path class="f" d="M397.194,166.657c0,.017-.108.035-.309.054a4.017,4.017,0,0,1-.854-.019,5.5,5.5,0,0,1-1.237-.291,6,6,0,0,1-2.538-1.763,5.481,5.481,0,0,1-.7-1.058,3.992,3.992,0,0,1-.316-.793c-.052-.2-.073-.3-.057-.308.042-.014.169.412.522,1.02a6.265,6.265,0,0,0,.722.994,6.385,6.385,0,0,0,2.45,1.7,6.237,6.237,0,0,0,1.184.33C396.748,166.644,397.192,166.613,397.194,166.657Z" transform="translate(-391.173 -162.478)"/></g></g><g transform="translate(34.563 41.139)"><g transform="translate(0.228)"><path class="o" d="M346.449,169.635l6.659-.8,4.691,3.077,17.941-4.3.424-12.282,7.966-1.05v14.87a6.819,6.819,0,0,1-7.006,6.673l-26.277-.728-1.116-2.236-5.638-.168Z" transform="translate(-344.094 -154.279)"/></g><g transform="translate(0 13.33)"><path class="r" d="M375.245,183.281a2.3,2.3,0,0,1-.337.1l-.976.254-3.6.9-11.9,2.883-1.107.265-.044.011-.037-.025-4.687-3.083.064.015-6.662.769.044-.025-1.759,2.233-.474.588a1.35,1.35,0,0,1-.173.195,1.467,1.467,0,0,1,.144-.217l.448-.609,1.711-2.27.017-.022.028,0,6.654-.831.035,0,.029.019,4.7,3.07-.081-.014,1.107-.265,11.911-2.823,3.616-.832.986-.216A2.142,2.142,0,0,1,375.245,183.281Z" transform="translate(-343.598 -183.28)"/></g><g transform="translate(1.55 17.159)"><path class="r" d="M351.64,191.713a16.041,16.041,0,0,1-2.586.1l-.473,0,.067-.025a12.165,12.165,0,0,1-1.677,1.291,12.183,12.183,0,0,1,1.544-1.447l.028-.024h.038l.473,0A16.135,16.135,0,0,1,351.64,191.713Z" transform="translate(-346.969 -191.609)"/></g><g transform="translate(31.848 13.33)"><path class="u" d="M415.988,185.287a3.894,3.894,0,0,0-3.1-1.953,1.11,1.11,0,0,1,.579-.046,3.073,3.073,0,0,1,2.314,1.457A1.114,1.114,0,0,1,415.988,185.287Z" transform="translate(-412.885 -183.28)"/></g></g></g><g transform="translate(66.521 153.13)"><g transform="translate(0)"><g transform="translate(14.503 56.142)"><g transform="translate(0.051 0.051)"><rect class="f" width="30.016" height="4.124"/></g><path class="f" d="M134.258,405.388H104.139v-4.227h30.119Zm-30.016-.1h29.913v-4.022H104.242Z" transform="translate(-104.139 -401.161)"/></g><g transform="translate(17.338 58.945)"><path class="f" d="M110.305,407.259l4.321,21.315h15.986l4.177-19.942Z" transform="translate(-110.305 -407.259)"/></g><g transform="translate(17.338 78.244)"><path class="p" d="M110.305,449.244l2.3,3.168h19.431l2.748-3.168Z" transform="translate(-110.305 -449.244)"/></g><g transform="translate(28.25 15.459)"><path class="f" d="M134.231,356.762c-.059,0-.135-9.874-.169-22.053s-.014-22.055.045-22.055.135,9.872.169,22.055S134.29,356.762,134.231,356.762Z" transform="translate(-134.045 -312.654)"/></g><g transform="translate(32.358 34.856)"><path class="f" d="M145.747,354.853a1.076,1.076,0,0,1-.081.23l-.268.639-.2.46-.2.56q-.109.3-.232.643c-.08.228-.143.477-.222.733a29.891,29.891,0,0,0-.839,3.675,44.719,44.719,0,0,0-.465,4.6,61.921,61.921,0,0,0,.237,8.4c.1,1.071.194,1.937.265,2.535.031.28.056.509.075.689a1.074,1.074,0,0,1,.012.243,1.018,1.018,0,0,1-.055-.236c-.03-.18-.068-.406-.116-.685-.1-.595-.217-1.459-.333-2.531a55.231,55.231,0,0,1-.3-8.42,41.922,41.922,0,0,1,.484-4.618,27.846,27.846,0,0,1,.889-3.687c.084-.257.152-.505.238-.733l.248-.641q.117-.3.217-.557c.074-.168.15-.319.214-.455l.305-.624A1,1,0,0,1,145.747,354.853Z" transform="translate(-142.982 -354.853)"/></g><g transform="translate(30.458 26.87)"><path class="f" d="M142.745,337.478a2,2,0,0,1-.1.325l-.312.918-.23.661-.241.8c-.176.571-.379,1.221-.56,1.951l-.3,1.142q-.136.6-.281,1.248c-.21.86-.361,1.793-.555,2.769-.33,1.961-.622,4.13-.823,6.416s-.273,4.476-.3,6.466c-.006,1.989.019,3.783.1,5.286.027.753.074,1.431.114,2.028s.072,1.111.11,1.53l.074.967a1.962,1.962,0,0,1,.011.339,2.122,2.122,0,0,1-.054-.334q-.042-.36-.114-.964c-.051-.419-.1-.932-.147-1.529s-.109-1.276-.145-2.029c-.1-1.5-.142-3.3-.147-5.295.018-1.994.095-4.187.285-6.482s.5-4.468.842-6.433c.2-.977.358-1.913.575-2.773l.294-1.249.316-1.142c.19-.73.4-1.378.592-1.948l.259-.794.248-.657.351-.905A2,2,0,0,1,142.745,337.478Z" transform="translate(-138.848 -337.478)"/></g><g transform="translate(20.818 16.795)"><path class="f" d="M123.6,360.079a.491.491,0,0,1-.017-.115c-.007-.089-.017-.2-.028-.34-.021-.314-.051-.752-.088-1.308-.072-1.152-.175-2.791-.3-4.81-.261-4.06-.638-9.67-1.321-15.839-.349-3.084-.754-6.014-1.175-8.67-.223-1.326-.427-2.587-.657-3.76-.211-1.178-.439-2.267-.648-3.263s-.417-1.891-.594-2.679-.342-1.464-.483-2.016l-.312-1.272-.076-.332a.471.471,0,0,1-.018-.115.494.494,0,0,1,.04.109l.1.327.351,1.263c.153.548.333,1.221.518,2.008s.418,1.679.626,2.675.456,2.084.674,3.262c.238,1.173.448,2.435.678,3.762.432,2.658.843,5.59,1.193,8.678.684,6.175,1.037,11.79,1.259,15.854.11,2.032.187,3.677.233,4.814.021.557.037.995.048,1.31,0,.14.006.252.007.341A.469.469,0,0,1,123.6,360.079Z" transform="translate(-117.877 -315.559)"/></g><g transform="translate(18.75 17.737)"><path class="h" d="M122.818,320.079a2.975,2.975,0,0,0-2.949-2.469,4.644,4.644,0,0,0-3.574,1.94,11.173,11.173,0,0,0-1.721,3.819,25.941,25.941,0,0,0-1.059,10.163,15.381,15.381,0,0,0,4.229,9.163,1.732,1.732,0,0,0,1.457.666,1.752,1.752,0,0,0,.769-.475,22.744,22.744,0,0,0,7.382-17.3,7.025,7.025,0,0,0-.925-3.721c-.717-1.079-2.389-2.224-3.609-1.791" transform="translate(-113.377 -317.61)"/></g><g transform="translate(10.017)"><g transform="translate(0.032 3.881)"><path class="n" d="M102.1,292.585l-1.979,3.583c-.046.084-.107.177-.2.185s-.182-.09-.239-.177l-5.231-8.029,1.205-.683Z" transform="translate(-94.448 -287.465)"/></g><g class="m" transform="translate(0.032 3.881)"><path d="M102.1,292.585l-1.979,3.583c-.046.084-.107.177-.2.185s-.182-.09-.239-.177l-5.231-8.029,1.205-.683Z" transform="translate(-94.448 -287.465)"/></g><path class="l" d="M112.673,294.481,94.827,283.95a.832.832,0,0,1-.434-.438c-.071-.264.127-.519.318-.715a12.3,12.3,0,0,1,9.537-3.747,10.9,10.9,0,0,1,8.622,5.362,9.83,9.83,0,0,1-.2,10.068" transform="translate(-94.378 -279.022)"/><g transform="translate(3.021 1.503)"><path class="f" d="M100.951,282.355a.966.966,0,0,1,.233-.029c.154-.008.381-.035.675-.032a13.4,13.4,0,0,1,2.476.2,14.474,14.474,0,0,1,11.551,10.452,13.425,13.425,0,0,1,.442,2.444c.032.291.027.52.035.674a1,1,0,0,1-.006.235c-.019,0-.041-.322-.112-.9a15.267,15.267,0,0,0-.505-2.411,14.579,14.579,0,0,0-11.432-10.345,15.234,15.234,0,0,0-2.45-.262C101.276,282.364,100.952,282.374,100.951,282.355Z" transform="translate(-100.951 -282.291)"/></g><g transform="translate(9.455 8.186)"><path class="f" d="M121.372,296.836a4.331,4.331,0,0,1-.9.41c-.569.224-1.363.51-2.252.793s-1.7.507-2.3.652a4.309,4.309,0,0,1-.974.185,4.888,4.888,0,0,1,.933-.331l2.273-.71,2.266-.731A4.823,4.823,0,0,1,121.372,296.836Z" transform="translate(-114.948 -296.831)"/></g><g transform="translate(13.035 0.642)"><path class="f" d="M122.77,280.418a12.471,12.471,0,0,1,.1,3.99,37.515,37.515,0,0,1-.1-3.99Z" transform="translate(-122.735 -280.418)"/></g><g transform="translate(0.293 2.53)"><path class="f" d="M95.016,286.724a8.032,8.032,0,0,1,1.3-.456c.811-.25,1.94-.566,3.2-.87s2.409-.535,3.244-.682a7.987,7.987,0,0,1,1.362-.184,9.609,9.609,0,0,1-1.332.332c-.827.184-1.968.44-3.224.742s-2.387.6-3.207.808A9.5,9.5,0,0,1,95.016,286.724Z" transform="translate(-95.016 -284.525)"/></g></g><g transform="translate(0 15.565)"><path class="g" d="M92.67,314.213a7.323,7.323,0,0,0-5.082-1.317,15.533,15.533,0,0,0-5.562,1.436,17.146,17.146,0,0,0-7.636,6.01,10.031,10.031,0,0,0-1.078,9.386,1.338,1.338,0,0,0,.609.74,1.457,1.457,0,0,0,1.007-.077A56.4,56.4,0,0,0,84.944,326.4a18.9,18.9,0,0,0,7.7-7.359,6.325,6.325,0,0,0,.81-2.442,3.037,3.037,0,0,0-.785-2.385" transform="translate(-72.586 -312.883)"/><g transform="translate(1.183 0.968)"><path class="f" d="M94.09,314.99a1.251,1.251,0,0,1-.246.1l-.717.246-.519.173c-.188.068-.389.152-.607.236-.433.175-.935.35-1.465.607l-.839.382c-.291.135-.581.3-.889.456-.621.3-1.248.694-1.916,1.088a30.273,30.273,0,0,0-7.55,6.643c-.477.613-.943,1.185-1.324,1.762-.194.285-.4.552-.566.824l-.486.784c-.322.492-.56.968-.789,1.376-.111.205-.221.393-.312.572l-.238.493-.336.68a1.262,1.262,0,0,1-.131.232,1.219,1.219,0,0,1,.091-.249l.3-.7.222-.5c.086-.182.191-.373.3-.582.22-.414.449-.9.765-1.4l.477-.8c.168-.275.366-.547.559-.836.377-.584.841-1.165,1.317-1.785a29.339,29.339,0,0,1,7.6-6.687c.676-.393,1.31-.778,1.938-1.078.311-.154.605-.317.9-.448l.849-.372c.536-.249,1.045-.416,1.484-.581.221-.079.424-.159.615-.221l.527-.156.73-.209A1.21,1.21,0,0,1,94.09,314.99Z" transform="translate(-75.159 -314.989)"/></g><g transform="translate(0.595 7.457)"><path class="f" d="M81.409,329.111a36.1,36.1,0,0,1-3.734,1.2,35.927,35.927,0,0,1-3.794,1,36.188,36.188,0,0,1,3.734-1.2A35.839,35.839,0,0,1,81.409,329.111Z" transform="translate(-73.882 -329.106)"/></g><g transform="translate(7.872 7.762)"><path class="f" d="M89.81,337.709a5.973,5.973,0,0,1-.082-1.163c-.02-.719-.023-1.714.008-2.811s.089-2.09.149-2.807a6.027,6.027,0,0,1,.147-1.157,6.617,6.617,0,0,1,0,1.165c-.024.788-.054,1.746-.086,2.8s-.051,2.017-.07,2.8A6.745,6.745,0,0,1,89.81,337.709Z" transform="translate(-89.712 -329.771)"/></g><g transform="translate(14.384 3.067)"><path class="f" d="M104.522,328.593c-.059,0-.247-2.016-.419-4.512s-.265-4.523-.206-4.527.246,2.016.419,4.512S104.581,328.59,104.522,328.593Z" transform="translate(-103.879 -319.555)"/></g><g transform="translate(6.242 2.833)"><path class="f" d="M86.165,319.085a6.647,6.647,0,0,1,1.2-.036c.738.005,1.756.027,2.881.064s2.143.083,2.879.127a6.611,6.611,0,0,1,1.192.115,6.647,6.647,0,0,1-1.2.036c-.738-.005-1.757-.027-2.883-.064s-2.144-.083-2.881-.126A6.623,6.623,0,0,1,86.165,319.085Z" transform="translate(-86.165 -319.048)"/></g></g><g transform="translate(23.802 20.256)"><path class="f" d="M124.45,346.617a1.07,1.07,0,0,1-.025-.244c-.008-.184-.019-.416-.032-.7-.027-.609-.033-1.492-.01-2.581s.092-2.387.22-3.823.34-3.008.628-4.648.65-3.185,1.016-4.58.755-2.634,1.113-3.664.665-1.857.9-2.419l.271-.647a1.049,1.049,0,0,1,.108-.22,1.08,1.08,0,0,1-.068.236c-.062.173-.139.392-.234.661-.211.57-.5,1.4-.835,2.437s-.7,2.276-1.066,3.667-.7,2.935-1,4.568-.493,3.2-.643,4.63-.227,2.722-.265,3.809-.059,1.967-.058,2.576c0,.285-.006.518-.009.7A1.051,1.051,0,0,1,124.45,346.617Z" transform="translate(-124.369 -323.09)"/></g><g transform="translate(19.415 31.607)"><path class="f" d="M120.234,347.785a4.882,4.882,0,0,1-.712.781c-.462.46-1.117,1.078-1.865,1.734s-1.447,1.225-1.964,1.623a4.881,4.881,0,0,1-.867.6,5.494,5.494,0,0,1,.772-.72l1.919-1.666,1.9-1.684A5.532,5.532,0,0,1,120.234,347.785Z" transform="translate(-114.825 -347.783)"/></g><g transform="translate(25.429 28.91)"><path class="f" d="M132.952,349.164a8.38,8.38,0,0,1-.758-1.05l-1.764-2.574-1.8-2.548a8.345,8.345,0,0,1-.721-1.076,7.253,7.253,0,0,1,.842.985c.5.629,1.157,1.515,1.855,2.517s1.3,1.931,1.715,2.614A7.259,7.259,0,0,1,132.952,349.164Z" transform="translate(-127.908 -341.916)"/></g><g transform="translate(19.017 21.847)"><path class="f" d="M122.455,326.551c.032.05-1.844,1.313-4.19,2.821s-4.275,2.691-4.307,2.641,1.844-1.312,4.191-2.821S122.424,326.5,122.455,326.551Z" transform="translate(-113.958 -326.55)"/></g><g transform="translate(27.277 22.16)"><path class="f" d="M137.457,332.63a70.034,70.034,0,0,1-5.527-5.4,34.932,34.932,0,0,1,2.838,2.623A34.88,34.88,0,0,1,137.457,332.63Z" transform="translate(-131.929 -327.231)"/></g><g transform="translate(34.136 15.525)"><g transform="translate(0 0.131)"><path class="l" d="M146.85,324.869l1.611-.133a7.971,7.971,0,0,0,3.253-1,12.981,12.981,0,0,1,1.516-.762c1.991-.8,4.213-.656,6.357-.764a26.32,26.32,0,0,0,10.112-2.586.984.984,0,0,0,.441-.4c.331-.6-.284-1.139-.813-1.465a33.224,33.224,0,0,0-8.553-4.2c-3.078-.83-6.571-.689-9.2,1.118-3.082,2.121-4.205,6.478-4.726,10.183" transform="translate(-146.85 -313.081)"/></g><g transform="translate(0.034 1.657)"><path class="f" d="M170.216,320.825a1.523,1.523,0,0,1-.273-.127l-.763-.4c-.662-.348-1.616-.862-2.82-1.44a26.38,26.38,0,0,0-4.365-1.682,14.412,14.412,0,0,0-5.657-.458,9.67,9.67,0,0,0-5.158,2.215,11.476,11.476,0,0,0-2.685,3.772,31.607,31.607,0,0,0-1.168,2.937l-.287.812a1.618,1.618,0,0,1-.113.279,1.616,1.616,0,0,1,.072-.293l.249-.826a26.886,26.886,0,0,1,1.11-2.974,11.419,11.419,0,0,1,2.693-3.856,9.782,9.782,0,0,1,5.26-2.279,14.4,14.4,0,0,1,5.738.481,25.348,25.348,0,0,1,4.379,1.736c1.2.6,2.143,1.132,2.794,1.5l.744.435A1.689,1.689,0,0,1,170.216,320.825Z" transform="translate(-146.925 -316.401)"/></g><g transform="translate(10.166 1.894)"><path class="f" d="M178.257,323.182c-.033.049-2.14-1.314-4.705-3.043s-4.619-3.173-4.586-3.221,2.139,1.314,4.705,3.044S178.29,323.133,178.257,323.182Z" transform="translate(-168.966 -316.916)"/></g><g transform="translate(14.112 1.674)"><path class="f" d="M180.872,316.458a7.9,7.9,0,0,1-3.321.306,38.9,38.9,0,0,1,3.321-.306Z" transform="translate(-177.551 -316.439)"/></g><g transform="translate(6.416)"><path class="f" d="M162.379,312.8a11.142,11.142,0,0,1-1.567,2.655,11.181,11.181,0,0,1,1.567-2.655Z" transform="translate(-160.807 -312.797)"/></g><g transform="translate(3.466 4.867)"><path class="f" d="M160.8,327.919a5.607,5.607,0,0,1-1.014-.55c-.609-.37-1.431-.911-2.31-1.549s-1.654-1.242-2.21-1.683a6.287,6.287,0,0,1-.875-.75,6.047,6.047,0,0,1,.966.629l2.245,1.631c.876.636,1.681,1.194,2.267,1.6A6.827,6.827,0,0,1,160.8,327.919Z" transform="translate(-154.39 -323.386)"/></g></g><g transform="translate(32.734 33.56)"><path class="v" d="M147.574,352.76c-1.536-.405-3.367,1.089-3.684,2.646a7.456,7.456,0,0,0,.951,4.584,23.383,23.383,0,0,0,6.353,8.313,15.711,15.711,0,0,0,9.714,3.576c-.649-3.017.172-6.169-.19-9.233a12.011,12.011,0,0,0-10.637-10.532c-.98-.106-2.116-.26-2.507.645" transform="translate(-143.801 -352.033)"/><g transform="translate(3.771 0.727)"><path class="f" d="M165.342,372.734a1.009,1.009,0,0,1-.219-.1,3.989,3.989,0,0,1-.575-.386,5.991,5.991,0,0,1-1.517-2.028c-.245-.476-.518-.992-.786-1.564l-.826-1.827a17.759,17.759,0,0,0-1.015-1.953,15.33,15.33,0,0,0-1.4-1.9c-1.052-1.236-2.18-2.3-3.159-3.326a21.767,21.767,0,0,1-2.409-2.89,10.621,10.621,0,0,1-1.177-2.248,6.85,6.85,0,0,1-.205-.659,1.019,1.019,0,0,1-.049-.236c.02-.006.107.314.331.865a11.592,11.592,0,0,0,1.224,2.193,22.838,22.838,0,0,0,2.425,2.838c.982,1.01,2.118,2.077,3.18,3.325a15.132,15.132,0,0,1,1.413,1.93,17.386,17.386,0,0,1,1.017,1.981l.808,1.834c.257.569.524,1.091.759,1.569a6.216,6.216,0,0,0,1.436,2.034C165.051,372.57,165.355,372.714,165.342,372.734Z" transform="translate(-152.006 -353.615)"/></g><g transform="translate(9.155 10.509)"><path class="f" d="M163.726,381.727a4.575,4.575,0,0,1,.141-1.034c.12-.632.318-1.5.584-2.448s.552-1.79.78-2.393a4.6,4.6,0,0,1,.42-.956,5.626,5.626,0,0,1-.277,1c-.19.613-.451,1.46-.717,2.4s-.484,1.8-.642,2.422A5.638,5.638,0,0,1,163.726,381.727Z" transform="translate(-163.718 -374.897)"/></g><g transform="translate(9.439 8.262)"><path class="f" d="M171.714,371.68a6.4,6.4,0,0,1-1.082-.249c-.662-.173-1.576-.41-2.593-.639s-1.945-.407-2.617-.535a6.322,6.322,0,0,1-1.084-.239,5.211,5.211,0,0,1,1.108.09c.681.09,1.618.245,2.64.475s1.935.491,2.588.7A5.21,5.21,0,0,1,171.714,371.68Z" transform="translate(-164.337 -370.008)"/></g><g transform="translate(3.455 4.127)"><path class="f" d="M151.324,368.971a6.276,6.276,0,0,1,.166-1.2c.135-.734.35-1.742.638-2.843s.593-2.087.834-2.792a6.249,6.249,0,0,1,.44-1.126,7.348,7.348,0,0,1-.3,1.17c-.2.716-.484,1.7-.771,2.8s-.524,2.1-.7,2.821A7.341,7.341,0,0,1,151.324,368.971Z" transform="translate(-151.317 -361.013)"/></g><g transform="translate(4.747 2.562)"><path class="f" d="M162.673,358.526c-.006.059-1.924-.1-4.283-.347s-4.267-.5-4.261-.559,1.924.1,4.284.347S162.679,358.467,162.673,358.526Z" transform="translate(-154.128 -357.608)"/></g></g><g transform="translate(14.505 60.194)"><path class="p" d="M134.259,410.082c0,.059-6.742.107-15.057.107s-15.058-.048-15.058-.107,6.74-.107,15.058-.107S134.259,410.023,134.259,410.082Z" transform="translate(-104.143 -409.975)"/></g><g transform="translate(19.639 68.87)"><path class="p" d="M135.6,428.958c0,.059-4.543.107-10.145.107s-10.146-.048-10.146-.107,4.541-.107,10.146-.107S135.6,428.9,135.6,428.958Z" transform="translate(-115.312 -428.851)"/></g><g transform="translate(19.816 70.11)"><path class="p" d="M135.988,431.656c0,.059-4.543.107-10.145.107s-10.146-.048-10.146-.107,4.542-.107,10.146-.107S135.988,431.6,135.988,431.656Z" transform="translate(-115.697 -431.549)"/></g><g transform="translate(19.119 67.847)"><path class="p" d="M135.168,426.733c0,.059-4.7.107-10.493.107s-10.495-.048-10.495-.107,4.7-.107,10.495-.107S135.168,426.674,135.168,426.733Z" transform="translate(-114.18 -426.626)"/></g></g></g></g></svg>