<svg xmlns="http://www.w3.org/2000/svg" xmlns:xlink="http://www.w3.org/1999/xlink" width="146" height="144.811" viewBox="0 0 146 144.811"><defs><style>.a,.ar,.at,.ax{fill:none;}.b{fill:url(#a);}.c{fill:#fff;}.d{fill:url(#b);}.e{fill:url(#c);}.f{fill:#8f4a14;}.g{fill:#3b5a80;}.h{fill:#2680eb;}.i{fill:#38846d;}.j{fill:#0048cd;}.k{fill:#3aaf91;}.l{fill:#97c177;}.m{fill:#99a2ab;}.n{fill:#0894fe;}.o{fill:#75c6fa;}.p{fill:#0a437d;}.q{fill:url(#d);}.r{fill:url(#e);}.s{fill:#041925;}.ae,.t{fill:#16384e;}.ab,.u{opacity:0.31;}.u{fill:url(#f);}.v{fill:url(#g);}.w{fill:url(#h);}.x{opacity:0.53;}.y{fill:url(#i);}.z{fill:url(#j);}.aa{fill:url(#k);}.ab{fill:url(#l);}.ac{fill:#fdc702;}.ad{fill:url(#m);}.ae{opacity:0.23;}.af{fill:url(#n);}.ag{fill:url(#o);}.ah{fill:url(#t);}.ai{fill:url(#u);}.aj{fill:#f2f2f2;}.ak,.ay,.az{fill:#c4c9ce;}.al{fill:#666665;}.am{fill:#414240;}.an{fill:#a9ecfe;}.ao{clip-path:url(#ab);}.ap{fill:#cbfdff;}.aq{fill:#7ecefe;}.ar,.at{stroke:#ca1354;}.ar,.at,.ax{stroke-miterlimit:10;}.ar{stroke-width:0.957px;stroke-dasharray:4.783;}.as{fill:#ca1354;}.at{stroke-width:0.478px;}.au{opacity:0.41;}.av{fill:#fffef1;opacity:0.52;}.aw{fill:#1e4985;opacity:0.6;}.aw,.az{mix-blend-mode:multiply;isolation:isolate;}.ax{stroke:#fff;stroke-width:0.527px;}.ay{opacity:0.5;}.az{opacity:0.35;}.ba{fill:#4493cf;}</style><linearGradient id="a" x1="0.518" y1="0.195" x2="0.492" y2="0.999" gradientUnits="objectBoundingBox"><stop offset="0" stop-color="#d1ebfb"/><stop offset="1" stop-color="#d1ebfb" stop-opacity="0"/></linearGradient><linearGradient id="b" x1="0.343" y1="1.556" x2="-4.441" y2="20.147" xlink:href="#a"/><linearGradient id="c" x1="0.343" y1="1.556" x2="-4.441" y2="20.148" xlink:href="#a"/><linearGradient id="d" x1="0.554" y1="0.271" x2="0.464" y2="1.191" gradientUnits="objectBoundingBox"><stop offset="0" stop-color="#0047a4"/><stop offset="1" stop-color="#0047a4" stop-opacity="0"/></linearGradient><linearGradient id="e" x1="0.5" y1="-0.158" x2="0.5" y2="1.389" xlink:href="#d"/><linearGradient id="f" y1="0.5" x2="1" y2="0.5" gradientUnits="objectBoundingBox"><stop offset="0" stop-color="#4493cf" stop-opacity="0"/><stop offset="1" stop-color="#4493cf"/></linearGradient><linearGradient id="g" x1="0.503" y1="0.508" x2="0.766" y2="1.153" xlink:href="#d"/><linearGradient id="h" x1="0.04" y1="0.824" x2="0.841" y2="0.26" gradientUnits="objectBoundingBox"><stop offset="0" stop-color="#b3cefe"/><stop offset="1" stop-color="#d9eefc"/></linearGradient><linearGradient id="i" x1="-1.174" y1="-0.619" x2="-1.174" y2="0.727" gradientUnits="objectBoundingBox"><stop offset="0" stop-color="#fff"/><stop offset="1" stop-color="#fff" stop-opacity="0"/></linearGradient><linearGradient id="j" x1="-1.471" y1="-1.003" x2="-1.471" y2="0.496" xlink:href="#i"/><linearGradient id="k" x1="-1.703" y1="-0.753" x2="-1.703" y2="0.781" xlink:href="#i"/><linearGradient id="l" y1="0.5" x2="1" y2="0.5" gradientUnits="objectBoundingBox"><stop offset="0" stop-color="#4493cf"/><stop offset="1" stop-color="#4493cf" stop-opacity="0"/></linearGradient><linearGradient id="m" x1="0" y1="0.5" x2="1" y2="0.5" xlink:href="#h"/><linearGradient id="n" x1="0.978" y1="-0.207" x2="0.469" y2="0.545" xlink:href="#i"/><linearGradient id="o" x1="0.849" y1="-1.032" x2="0.478" y2="0.598" xlink:href="#i"/><linearGradient id="t" x1="1.076" y1="-0.068" x2="0.463" y2="0.536" xlink:href="#i"/><linearGradient id="u" x1="0.881" y1="-0.617" x2="0.476" y2="0.572" xlink:href="#i"/><clipPath id="ab"><rect class="a" width="26.976" height="50.847" rx="5.978"/></clipPath></defs><g transform="translate(-32.026 -89.816)"><g transform="translate(32.669 107.436)"><path class="b" d="M148.248,179.767a10.407,10.407,0,0,0-10.17-12.535,42.052,42.052,0,0,0-83.622,6.349q0,1.735.14,3.436a4.123,4.123,0,0,0-3.456,4.066c0,.09.008.177.014.265a22.768,22.768,0,0,0,5.163,44.944c9.873,0,76.517.427,88,.427a23.64,23.64,0,0,0,3.927-46.952Z" transform="translate(-33.548 -131.531)"/><path class="c" d="M135.487,162.107H112.934a4.423,4.423,0,0,1,5.1-1.671c.585-3.926,5.1-3.592,5.513-.668.786-3.037,5.025-2.982,5.179.084a1.126,1.126,0,0,1,2.088.835C134.4,159.769,135.487,162.107,135.487,162.107Z" transform="translate(-79.403 -146.544)"/><path class="c" d="M69.04,202.619c.852-1.352,5.135-3.7,8.356-1.428,2.238-5.013,8.448-3.749,10.043-.493.985-.9,3.89-1.3,3.979,1.921Z" transform="translate(-54.049 -169.83)"/><path class="c" d="M222.9,182.3c.721-2.1,4.974-3.1,6.568-1.063,1.063-4.695,7.657-4,8.384-.545,4.13-2.822,6.484,1.608,6.484,1.608Z" transform="translate(-142.924 -158.319)"/><path class="d" d="M247.219,154.768c.721-2.1,4.974-3.1,6.569-1.063,1.063-4.694,7.657-4,8.383-.545,4.13-2.822,6.484,1.608,6.484,1.608Z" transform="translate(-156.968 -142.416)"/><path class="e" d="M75.295,162.384c.493-1.437,3.406-2.122,4.5-.728.728-3.214,5.243-2.74,5.74-.373,2.828-1.932,4.44,1.1,4.44,1.1Z" transform="translate(-57.662 -147.615)"/><g transform="translate(86.353 54.863)"><path class="f" d="M265.771,307.176s-.683,1.072-2.021,2.8c-.447.577-.694.541-1.192.031a16.733,16.733,0,0,1-2.488-2.985.424.424,0,0,0-.674.155s1.225,1.5,2.469,3.051a3.25,3.25,0,0,1,.892,1.921c.09,1.2.163,3.983.163,6.274,0,4.768-.518,7.774-1.036,8.241h2.9a49.282,49.282,0,0,1-.778-8.137c0-3.057-.041-5.362-.053-6.55a2.714,2.714,0,0,1,.243-1.313c.5-.927,1.989-3.206,1.989-3.206Z" transform="translate(-250.355 -287.698)"/><circle class="g" cx="3.903" cy="3.903" r="3.903" transform="translate(6.235)"/><circle class="h" cx="5.91" cy="5.91" r="5.91" transform="translate(10.411 13.7) rotate(-85.254)"/><circle class="i" cx="6.713" cy="6.713" r="6.713" transform="translate(0 6.848)"/><circle class="j" cx="7.416" cy="7.416" r="7.416" transform="translate(1.132 16.889) rotate(-81.186)"/><circle class="k" cx="3.903" cy="3.903" r="3.903" transform="translate(11.883 12.425)"/><path class="l" d="M286.374,290.4a2.732,2.732,0,1,1-2.732-2.732A2.733,2.733,0,0,1,286.374,290.4Z" transform="translate(-262.782 -276.583)"/></g><g transform="translate(19.77 69.31)"><path class="m" d="M93.56,324.415s.43.675,1.272,1.761c.281.363.437.34.75.019a10.531,10.531,0,0,0,1.565-1.878.267.267,0,0,1,.424.1s-.771.942-1.554,1.92a2.046,2.046,0,0,0-.561,1.209c-.057.757-.1,2.506-.1,3.948,0,3,.326,4.892.653,5.185H94.18a31.019,31.019,0,0,0,.489-5.12c0-1.924.026-3.374.033-4.122a1.707,1.707,0,0,0-.153-.827c-.316-.583-1.252-2.018-1.252-2.018Z" transform="translate(-87.83 -312.158)"/><circle class="g" cx="2.456" cy="2.456" r="2.456" transform="translate(6.595)"/><path class="h" d="M3.719,0A3.719,3.719,0,1,1,0,3.719,3.719,3.719,0,0,1,3.719,0Z" transform="translate(0 7.221) rotate(-67.33)"/><circle class="n" cx="4.224" cy="4.224" r="4.224" transform="translate(6.982 4.309)"/><path class="o" d="M4.666,0A4.666,4.666,0,1,1,0,4.666,4.666,4.666,0,0,1,4.666,0Z" transform="translate(3.772 3.27) rotate(-13.368)"/><circle class="h" cx="2.456" cy="2.456" r="2.456" transform="translate(3.041 7.819)"/><path class="p" d="M81.739,313.86a1.719,1.719,0,1,0,1.719-1.72A1.719,1.719,0,0,0,81.739,313.86Z" transform="translate(-81.154 -305.164)"/></g><path class="l" d="M250.216,340.278a4.964,4.964,0,0,1,1.243-3.27,3.147,3.147,0,0,1-.243-1.2,3.608,3.608,0,0,1,3.292-3.427,2.232,2.232,0,0,1,4.425.1,1.817,1.817,0,0,1-.209.841,1.26,1.26,0,0,1,.9.959h.021a2.112,2.112,0,0,1,2.215,1.992,1.83,1.83,0,0,1-.313,1.016,1.683,1.683,0,0,1,.6,1.269,1.825,1.825,0,0,1-1.553,1.729Z" transform="translate(-158.699 -246.449)"/><g transform="translate(23.047 6.374)"><path class="h" d="M172.616,241.468h-66.6V187.179l33.73-27.76,32.872,27.76Z" transform="translate(-98.452 -154.013)"/><path class="q" d="M172.616,191.728v-4.549l-32.872-27.76-33.73,27.76v8.729l35.772-30.033Z" transform="translate(-98.452 -154.013)"/><rect class="r" width="66.611" height="2.674" transform="translate(7.559 54.817)"/><g transform="translate(3.784 3.182)"><rect class="s" width="48.894" height="2.613" transform="translate(0 31.429) rotate(-40)"/><rect class="s" width="48.894" height="2.613" transform="translate(73.237 33.431) rotate(-140)"/></g><g transform="translate(0 0)"><rect class="t" width="53.834" height="2.877" transform="translate(0 34.604) rotate(-40)"/><rect class="t" width="53.834" height="2.877" transform="translate(80.636 36.808) rotate(-140)"/></g><rect class="t" width="68.812" height="2.674" transform="translate(6.358 52.623)"/><rect class="u" width="15.798" height="2.273" transform="translate(59.023 52.788)"/><circle class="v" cx="5.898" cy="5.898" r="5.898" transform="translate(33.188 24.726) rotate(-45)"/><g transform="translate(35.141 18.337)"><circle class="t" cx="5.898" cy="5.898" r="5.898"/><circle class="s" cx="5.385" cy="5.385" r="5.385" transform="translate(0.513 0.513)"/><circle class="w" cx="5.044" cy="5.044" r="5.044" transform="translate(0.855 0.855)"/><g class="x" transform="translate(1.766 0.895)"><path class="y" d="M182,192.624l-5.08,8.389a5.05,5.05,0,0,0,1.769,1.131l5.132-8.475A5.027,5.027,0,0,0,182,192.624Z" transform="translate(-176.318 -192.426)"/><path class="z" d="M186.794,195.532l-5.077,8.385a4.957,4.957,0,0,0,.928.2l4.755-7.853A5.089,5.089,0,0,0,186.794,195.532Z" transform="translate(-179.087 -194.105)"/><path class="aa" d="M180.254,192.154l-4.763,7.865a5.055,5.055,0,0,0,.383.483l4.986-8.234A4.931,4.931,0,0,0,180.254,192.154Z" transform="translate(-175.491 -192.154)"/></g><rect class="t" width="0.675" height="11.426" transform="translate(5.503 0.167)"/><rect class="t" width="11.426" height="0.675" transform="translate(0.128 5.542)"/></g><rect class="s" width="14.492" height="1.615" transform="translate(34.742 85.84)"/><path class="ab" d="M185.643,147.244v3.182l8.926,7.534v-3.337Z" transform="translate(-144.448 -146.981)"/><g transform="translate(35.867 60.259)"><path class="s" d="M200.7,289.285v25.557h-.568V289.855Z" transform="translate(-188.685 -289.285)"/><path class="s" d="M173.029,289.285v25.557h.568V289.855Z" transform="translate(-173.029 -289.285)"/><path class="s" d="M185.045,289.285H173.029l.568.569h10.88Z" transform="translate(-173.029 -289.285)"/><rect class="t" width="10.878" height="24.983" transform="translate(0.571 0.574)"/><rect class="s" width="2.644" height="12.026" transform="translate(2.188 1.925)"/><rect class="s" width="8.722" height="8.473" transform="translate(1.662 15.698)"/><rect class="t" width="7.723" height="7.503" transform="translate(2.127 16.286)"/><rect class="s" width="2.644" height="12.026" transform="translate(6.915 1.925)"/><rect class="t" width="1.932" height="11.024" transform="translate(2.544 2.426)"/><rect class="t" width="1.932" height="11.024" transform="translate(7.271 2.426)"/><path class="ac" d="M197.944,322.982a.472.472,0,1,1-.472-.472A.472.472,0,0,1,197.944,322.982Z" transform="translate(-186.875 -308.477)"/></g><g transform="translate(51.408 61.676)"><rect class="t" width="19.261" height="20.804"/><rect class="s" width="17.046" height="19.03" transform="translate(1.108 0.887)"/><rect class="ad" width="15.887" height="18.327" transform="translate(1.687 1.239)"/><rect class="ae" width="15.887" height="2.736" transform="translate(1.687 5.003)"/><rect class="s" width="16.219" height="1.707" transform="translate(1.521 5.601)"/><rect class="t" width="17.372" height="0.84" transform="translate(0.81 6.011)"/><rect class="af" width="14.256" height="9.752" transform="translate(3.011 8.042)"/><rect class="ag" width="14.256" height="3.279" transform="translate(3.011 1.496)"/></g><g transform="translate(12.109 61.676)"><rect class="t" width="19.261" height="20.804"/><rect class="s" width="17.046" height="19.03" transform="translate(1.108 0.887)"/><rect class="ad" width="15.887" height="18.327" transform="translate(1.687 1.239)"/><rect class="ae" width="15.887" height="2.736" transform="translate(1.687 5.003)"/><rect class="s" width="16.219" height="1.707" transform="translate(1.521 5.601)"/><rect class="t" width="17.372" height="0.84" transform="translate(0.81 6.011)"/><rect class="af" width="14.256" height="9.752" transform="translate(3.011 8.042)"/><rect class="ag" width="14.256" height="3.279" transform="translate(3.011 1.496)"/></g><g transform="translate(18.495 34.036)"><rect class="t" width="9.355" height="15.162"/><rect class="s" width="8.279" height="13.869" transform="translate(0.538 0.647)"/><rect class="ad" width="7.716" height="13.357" transform="translate(0.819 0.903)"/><rect class="ae" width="7.716" height="1.994" transform="translate(0.819 3.647)"/><rect class="s" width="7.877" height="1.244" transform="translate(0.739 4.082)"/><rect class="t" width="8.437" height="0.612" transform="translate(0.394 4.381)"/><rect class="ah" width="6.924" height="7.107" transform="translate(1.462 5.861)"/><rect class="ai" width="6.924" height="2.39" transform="translate(1.462 1.09)"/></g><g transform="translate(36.899 34.036)"><rect class="t" width="9.355" height="15.162"/><rect class="s" width="8.279" height="13.869" transform="translate(0.538 0.647)"/><rect class="ad" width="7.716" height="13.357" transform="translate(0.819 0.903)"/><rect class="ae" width="7.716" height="1.994" transform="translate(0.819 3.647)"/><rect class="s" width="7.877" height="1.244" transform="translate(0.739 4.082)"/><rect class="t" width="8.437" height="0.612" transform="translate(0.394 4.381)"/><rect class="ah" width="6.924" height="7.107" transform="translate(1.462 5.861)"/><rect class="ai" width="6.924" height="2.39" transform="translate(1.462 1.09)"/></g><g transform="translate(55.303 34.036)"><rect class="t" width="9.355" height="15.162"/><rect class="s" width="8.279" height="13.869" transform="translate(0.538 0.647)"/><rect class="ad" width="7.716" height="13.357" transform="translate(0.819 0.903)"/><rect class="ae" width="7.716" height="1.994" transform="translate(0.819 3.647)"/><rect class="s" width="7.877" height="1.244" transform="translate(0.739 4.082)"/><rect class="t" width="8.437" height="0.612" transform="translate(0.394 4.381)"/><rect class="ah" width="6.924" height="7.107" transform="translate(1.462 5.861)"/><rect class="ai" width="6.924" height="2.39" transform="translate(1.462 1.09)"/></g></g><path class="t" d="M.774,0H86.451a.774.774,0,0,1,.774.774v0a.774.774,0,0,1-.774.774H.774A.774.774,0,0,1,0,.774v0A.774.774,0,0,1,.774,0Z" transform="translate(20.457 93.751)"/></g><g transform="translate(121.275 167.486)"><path class="aj" d="M2.55,0H3.4A2.55,2.55,0,0,1,5.95,2.55V9.739A2.551,2.551,0,0,1,3.4,12.29h-.85A2.549,2.549,0,0,1,0,9.74V2.55A2.55,2.55,0,0,1,2.55,0Z" transform="translate(0.548 31.29) rotate(-73.092)"/><path class="aj" d="M300.183,402.127s-6.009-.951-8.35-2.21c-4.154-2.234-5.726-4.022-6.148-5.711-.735-2.944,11.466-3.314,11.466-3.314l7.6,8.29Z" transform="translate(-267.774 -341.393)"/><path class="ak" d="M301.621,402.958c-1.673-1.506-8.5-1.395-11.158-.967s-3.441-.428-3.441-.428-.762-.837-.781-1.283c3.98.056,12.925.167,12.925.167A26.162,26.162,0,0,0,301.621,402.958Z" transform="translate(-268.114 -346.816)"/><g transform="translate(5.664 0)"><rect class="al" width="30.426" height="54.001" rx="8.289"/><rect class="am" width="27.849" height="51.499" rx="5.978" transform="translate(1.289 1.172)"/><rect class="an" width="26.976" height="50.847" rx="5.978" transform="translate(1.725 1.498)"/><g transform="translate(1.725 1.498)"><g class="ao"><rect class="ap" width="4.512" height="52.089" transform="matrix(0.581, 0.814, -0.814, 0.581, 38.729, 6.422)"/><rect class="ap" width="4.512" height="52.089" transform="translate(25.882 56.138) rotate(145.845)"/><g transform="translate(-0.102 8.312)"><ellipse class="aq" cx="2.343" cy="0.463" rx="2.343" ry="0.463" transform="translate(10.19 11.655)"/><path class="ar" d="M274.537,329.7l2.247,3.365L260.578,345" transform="translate(-260.578 -315.86)"/><path class="as" d="M284.685,296.927a4.07,4.07,0,0,0-4.07,4.07c0,3.736,4.07,8.048,4.07,8.048s4.07-4.472,4.07-8.048A4.07,4.07,0,0,0,284.685,296.927Zm0,5.517a1.931,1.931,0,1,1,1.931-1.931A1.931,1.931,0,0,1,284.685,302.444Z" transform="translate(-272.152 -296.927)"/><circle class="as" cx="0.287" cy="0.287" r="0.287" transform="translate(13.41 13.171)"/><circle class="at" cx="0.463" cy="0.463" r="0.463" transform="translate(13.234 12.994)"/></g><rect class="ap" width="4.512" height="52.089" transform="matrix(-0.828, 0.561, -0.561, -0.828, 40.749, 32.506)"/></g></g><path class="al" d="M280.441,278.954h7.06a1.586,1.586,0,0,0,1.362-.629l1.314-2.185H277.764l1.314,2.185A1.585,1.585,0,0,0,280.441,278.954Z" transform="translate(-268.881 -275.11)"/><path class="am" d="M285.632,279.074h5.511a.214.214,0,0,1,0,.427h-5.511a.214.214,0,1,1,0-.427Z" transform="translate(-273.303 -276.805)"/><g class="au" transform="translate(1.725 1.498)"><path class="av" d="M260.818,285.527,287.795,312.5v17.849a2.509,2.509,0,0,1-.251,1.092l-26.725-26.725Z" transform="translate(-260.818 -282.031)"/><path class="av" d="M265.039,277.249h2.024l22.428,22.428v3.663L263.754,277.6A2.511,2.511,0,0,1,265.039,277.249Z" transform="translate(-262.514 -277.249)"/><path class="av" d="M260.818,340.511l24.127,24.127h-3.663l-20.464-20.463Z" transform="translate(-260.818 -313.79)"/></g><path class="aw" d="M287.795,377.944v5.79a2.525,2.525,0,0,1-2.525,2.525H263.343a2.525,2.525,0,0,1-2.525-2.525v-5.79Z" transform="translate(-259.093 -333.914)"/><g transform="translate(11.891 45.145)"><circle class="c" cx="2.618" cy="2.618" r="2.618" transform="translate(0.526 0.526)"/><circle class="ax" cx="3.144" cy="3.144" r="3.144"/></g></g><path class="aj" d="M314.436,344.907c3.228,3.929,11.444,18.782,11.444,18.782l-9.362,5.15s-10.824-5.172-6.546-15.792c-2.51-5.475-4.211-12.563-1.433-14.887.624-.454,1.366-.691,1.922.3A29.307,29.307,0,0,0,314.436,344.907Z" transform="translate(-280.167 -310.708)"/><path class="ak" d="M312.654,358.29c-2.186,3.141-3.477,6.612-3.407,9.481a11.879,11.879,0,0,1,.808-6.808c-2.589-5.714-2.783-9.239-2.8-9.491C307.817,353.534,309.59,358.709,312.654,358.29Z" transform="translate(-280.25 -318.624)"/><g transform="translate(1.136 32.974)"><path class="aj" d="M2.976,0h0A2.974,2.974,0,0,1,5.95,2.974V4.746A2.975,2.975,0,0,1,2.975,7.72h0A2.973,2.973,0,0,1,0,4.747V2.976A2.976,2.976,0,0,1,2.976,0Z" transform="translate(0 5.745) rotate(-74.935)"/></g><g transform="translate(0 38.99)"><path class="aj" d="M2.974,0h0A2.974,2.974,0,0,1,5.95,2.974v6.34A2.975,2.975,0,0,1,2.975,12.29h0A2.975,2.975,0,0,1,0,9.315V2.974A2.974,2.974,0,0,1,2.974,0Z" transform="translate(0 5.745) rotate(-74.937)"/></g><g transform="translate(2.347 46.223)"><path class="aj" d="M248.96,385.621l.2-.75A2.329,2.329,0,0,1,252,383.215l4.121,1.08a2.328,2.328,0,0,1,1.657,2.846l-.2.75a2.329,2.329,0,0,1-2.847,1.657l-4.121-1.08A2.329,2.329,0,0,1,248.96,385.621Z" transform="translate(-248.882 -383.137)"/></g><path class="aj" d="M329.653,394.96l12.025,15.924H320.385l-5.036-7.394Z" transform="translate(-284.927 -343.743)"/><path class="ay" d="M348.114,396.369c-3.205-4.465-9.625-10.888-10.893-17.3a39.265,39.265,0,0,0-2.7-9.234s3.382,5.523,4.981,8.492a23.348,23.348,0,0,0,2.711,4.1c.9,1.248,10.542,13.946,10.542,13.946Z" transform="translate(-295.999 -329.228)"/><path class="m" d="M313.778,339.583a3.06,3.06,0,0,0-.183,4.369,3.278,3.278,0,0,0,2.056-.84S314.482,341.132,313.778,339.583Z" transform="translate(-283.441 -311.756)"/><path class="m" d="M259.15,357.573s.222,2.686-1.024,3.71a1.938,1.938,0,0,1-1.219-2.63A1.827,1.827,0,0,1,259.15,357.573Z" transform="translate(-251.07 -322.104)"/><path class="m" d="M267.172,374.976s.14,2.667-1.106,3.546c-1.362-.4-1.943-1.064-1.5-2.5C265.064,374.391,267.172,374.976,267.172,374.976Z" transform="translate(-255.508 -332.141)"/><path class="m" d="M264.037,388.527s.029,2.56-1.037,3.366a1.693,1.693,0,0,1-1.169-2.435C262.3,387.906,264.037,388.527,264.037,388.527Z" transform="translate(-253.928 -339.956)"/><path class="az" d="M251.823,364.7l-2.53-.682a2.551,2.551,0,0,1-1.866-2.135c3.074,1.774,6.081,1.85,7.516,1.031A2.55,2.55,0,0,1,251.823,364.7Z" transform="translate(-245.694 -324.639)"/><path class="az" d="M256.6,377.985a2.548,2.548,0,0,1-3.082,1.665l-6.942-1.868a2.549,2.549,0,0,1-1.885-2.488c.723.7,2.024,1.278,4.558,1.912C251.9,377.868,254.926,378.4,256.6,377.985Z" transform="translate(-244.114 -332.384)"/><path class="az" d="M257.564,390.9a2.328,2.328,0,0,1-2.826,1.591l-4.121-1.08a2.329,2.329,0,0,1-1.657-2.846l.087-.33a12.894,12.894,0,0,0,3.764,2.023A12.745,12.745,0,0,0,257.564,390.9Z" transform="translate(-246.535 -339.86)"/></g><g transform="translate(32.026 92.353)"><circle class="ba" cx="1.19" cy="1.19" r="1.19" transform="translate(108.002 45.899)"/><path class="ba" d="M281.583,175.282a.529.529,0,1,1-.529-.529A.529.529,0,0,1,281.583,175.282Z" transform="translate(-175.563 -141.414)"/><path class="ba" d="M340.4,227.227a1.454,1.454,0,1,1-1.454-1.454A1.454,1.454,0,0,1,340.4,227.227Z" transform="translate(-208.469 -170.884)"/><circle class="ba" cx="2.55" cy="2.55" r="2.55" transform="translate(19.355 33.842)"/><path class="ba" d="M118.837,182.444a.464.464,0,1,1-.463-.463A.464.464,0,0,1,118.837,182.444Z" transform="translate(-81.634 -145.589)"/><path class="ba" d="M61.887,234.365a1.623,1.623,0,1,1-1.623-1.622A1.623,1.623,0,0,1,61.887,234.365Z" transform="translate(-47.4 -174.91)"/><path class="ba" d="M34.112,207.719a1.043,1.043,0,1,1-1.043-1.043A1.043,1.043,0,0,1,34.112,207.719Z" transform="translate(-32.026 -159.853)"/><path class="ba" d="M73.613,280.563a1.449,1.449,0,1,1-1.449-1.448A1.449,1.449,0,0,1,73.613,280.563Z" transform="translate(-54.373 -201.695)"/><path class="ba" d="M39.527,318.673a.869.869,0,1,1-.869-.869A.869.869,0,0,1,39.527,318.673Z" transform="translate(-35.354 -224.043)"/><path class="ba" d="M169.4,130.283a1.449,1.449,0,1,1-1.449-1.449A1.449,1.449,0,0,1,169.4,130.283Z" transform="translate(-109.702 -114.89)"/><path class="ba" d="M210.722,97.5a1.681,1.681,0,1,1-1.681-1.681A1.681,1.681,0,0,1,210.722,97.5Z" transform="translate(-133.303 -95.822)"/><path class="ba" d="M249.9,144.625a.406.406,0,1,1-.406-.405A.406.406,0,0,1,249.9,144.625Z" transform="translate(-157.408 -123.778)"/><path class="ba" d="M124.626,117.7a.521.521,0,1,1-.522-.522A.522.522,0,0,1,124.626,117.7Z" transform="translate(-84.911 -108.156)"/><path class="ba" d="M303.412,263.1a1.66,1.66,0,1,1-1.66-1.66A1.66,1.66,0,0,1,303.412,263.1Z" transform="translate(-186.866 -191.484)"/></g><g transform="translate(33.763 89.816)"><path class="an" d="M279.243,190.477a1.112,1.112,0,1,1-1.112-1.112A1.112,1.112,0,0,1,279.243,190.477Z" transform="translate(-175.275 -147.317)"/><path class="an" d="M307.8,162.907a.389.389,0,1,1-.389-.389A.389.389,0,0,1,307.8,162.907Z" transform="translate(-192.607 -131.81)"/><circle class="an" cx="0.738" cy="0.738" r="0.738" transform="translate(83.497 18.344)"/><path class="an" d="M280.472,124a.738.738,0,1,1-.738-.738A.738.738,0,0,1,280.472,124Z" transform="translate(-176.417 -109.135)"/><circle class="an" cx="0.316" cy="0.316" r="0.316" transform="translate(61.358 10.648)"/><circle class="an" cx="0.949" cy="0.949" r="0.949" transform="translate(25.935 20.664)"/><path class="an" d="M149.145,90.66a.844.844,0,1,1-.844-.843A.843.843,0,0,1,149.145,90.66Z" transform="translate(-100.438 -89.816)"/><circle class="an" cx="0.474" cy="0.474" r="0.474" transform="translate(11.597 52.397)"/><circle class="an" cx="1.212" cy="1.212" r="1.212" transform="translate(0 69.581)"/><path class="an" d="M62.69,313.629a.422.422,0,1,1-.422-.422A.421.421,0,0,1,62.69,313.629Z" transform="translate(-50.987 -218.851)"/><path class="an" d="M310.569,241.758a.685.685,0,1,1-.686-.685A.686.686,0,0,1,310.569,241.758Z" transform="translate(-193.862 -177.185)"/><path class="an" d="M349.573,298.575a.843.843,0,1,1-.844-.843A.843.843,0,0,1,349.573,298.575Z" transform="translate(-216.209 -209.912)"/></g></g></svg>