<svg xmlns="http://www.w3.org/2000/svg" width="556.355" height="291.455" viewBox="0 0 556.355 291.455"><defs><style>.a{fill:#f5f5f5;}.b{fill:#e0e0e0;}.c{fill:#ebebeb;}.d{fill:#0894fe;}.e{fill:#f2f2f2;}.f{fill:#c4c9ce;}.g{fill:#263238;}.h{fill:#455a64;}.i{fill:#fafafa;}.j,.n{fill:none;stroke:#4e585d;stroke-miterlimit:10;}.j{stroke-width:0.05px;}.k{fill:#0a437d;}.l{opacity:0.2;}.m{fill:#75c6fa;}</style></defs><g transform="translate(-30.52 -66.068)"><g transform="translate(30.52 66.067)"><g transform="translate(476.234 47.518)"><path class="a" d="M701.3,125.818s-6.7-4.09-14.109,11.846-10.107,25.07-10.107,25.07-1.99,3.355-4.319,1.293-5.634-8.03-9.422-6.8c-3.929,1.279-5.077,5.756-4.086,12.24s2.644,20.769,2.788,22.061c.142,1.269-.519,3.17-2.331,2.019s-12.392-12.112-17.293-6.78.83,22.94,1.42,24.877.237,2.786-.674,3.3-4.121-3.5-7.258-6.5-7.3-5.916-9.869-2.6-2.948,16.694,10.539,37.919l6.893,9.426,11.681-1.071c24.857-3.816,34.682-12.907,35.485-17.023s-4.136-5.326-8.455-5.717-9.457-.161-9.668-1.188.2-1.852,2.043-2.682,18.875-8.106,19.665-15.3-14.428-7.95-16.486-8.558-1.063-2.355-.014-3.084c1.068-.741,12.91-8.9,18.444-12.42s8.151-7.332,6.527-11.132c-1.565-3.664-8.233-2.223-11.318-2.62s-1.869-4.1-1.869-4.1,5.1-8.041,12.222-24.109-.568-18.441-.568-18.441" transform="translate(-624.628 -125.347)"/><g transform="translate(10.949 14.731)"><path class="b" d="M697.348,143.724s-.038.119-.131.345c-.1.24-.24.571-.421,1l-1.651,3.814c-1.439,3.311-3.555,8.085-6.194,13.974-5.273,11.782-12.7,27.994-20.952,45.871s-15.723,34.077-21.06,45.829c-2.658,5.865-4.811,10.617-6.308,13.921-.741,1.63-1.319,2.9-1.719,3.783-.195.418-.346.744-.457.98-.1.22-.167.329-.167.329s.038-.119.131-.345.241-.57.421-1c.385-.889.94-2.171,1.651-3.813,1.438-3.311,3.555-8.085,6.194-13.974,5.273-11.781,12.7-28,20.955-45.879s15.719-34.069,21.057-45.82c2.657-5.866,4.811-10.619,6.308-13.922.741-1.63,1.319-2.9,1.719-3.784l.457-.98C697.285,143.832,697.348,143.724,697.348,143.724Z" transform="translate(-638.287 -143.724)"/></g><g transform="translate(42.994 40.417)"><path class="b" d="M678.269,175.768a3.471,3.471,0,0,1,.329.779c.19.508.441,1.253.742,2.175.6,1.846,1.359,4.418,2.144,7.27.76,2.81,1.447,5.349,1.978,7.311q.358,1.3.609,2.212a3.539,3.539,0,0,1,.188.823,3.407,3.407,0,0,1-.335-.777c-.188-.51-.44-1.254-.731-2.18-.581-1.852-1.307-4.432-2.092-7.285-.779-2.8-1.485-5.336-2.03-7.294q-.365-1.3-.621-2.21A3.509,3.509,0,0,1,678.269,175.768Z" transform="translate(-678.263 -175.768)"/></g><g transform="translate(50.069 53.475)"><path class="b" d="M687.09,199.74c-.034-.1,5.2-1.907,11.682-4.027s11.771-3.755,11.805-3.651-5.2,1.907-11.682,4.027S687.124,199.844,687.09,199.74Z" transform="translate(-687.09 -192.057)"/></g><g transform="translate(36.149 86.424)"><path class="b" d="M669.724,234.782a3.68,3.68,0,0,1,.86-.077l2.342-.082c1.977-.07,4.706-.176,7.714-.4s5.725-.51,7.691-.735l2.329-.262a3.669,3.669,0,0,1,.861-.051,3.619,3.619,0,0,1-.839.2c-.544.105-1.335.241-2.315.387-1.959.3-4.68.632-7.7.852s-5.757.289-7.739.287c-.991,0-1.792-.018-2.346-.044A3.605,3.605,0,0,1,669.724,234.782Z" transform="translate(-669.724 -233.161)"/></g><g transform="translate(25.623 70.691)"><path class="b" d="M656.6,213.536a3.11,3.11,0,0,1,.486.633c.291.421.7,1.038,1.2,1.8,1,1.533,2.356,3.664,3.833,6.032s2.8,4.523,3.735,6.094c.469.786.842,1.424,1.093,1.871a3.087,3.087,0,0,1,.355.714,3.12,3.12,0,0,1-.486-.632c-.291-.422-.7-1.038-1.2-1.8-1-1.533-2.355-3.665-3.833-6.033s-2.8-4.523-3.735-6.093c-.469-.786-.842-1.424-1.093-1.871A3.088,3.088,0,0,1,656.6,213.536Z" transform="translate(-656.593 -213.535)"/></g><g transform="translate(10.319 92.866)"><path class="b" d="M637.5,241.2a5.032,5.032,0,0,1,.612.818l1.545,2.307c1.291,1.958,3.05,4.676,4.972,7.693s3.646,5.759,4.876,7.756l1.439,2.374a5.033,5.033,0,0,1,.483.9,5,5,0,0,1-.612-.817l-1.546-2.307c-1.29-1.957-3.05-4.677-4.973-7.694s-3.645-5.759-4.875-7.755l-1.44-2.375A5.079,5.079,0,0,1,637.5,241.2Z" transform="translate(-637.501 -241.198)"/></g><g transform="translate(24.062 111.297)"><path class="b" d="M654.646,266.993a5.8,5.8,0,0,1,1.086-.123l2.966-.209c2.5-.178,5.961-.434,9.769-.823s7.25-.82,9.738-1.151l2.947-.389a5.738,5.738,0,0,1,1.089-.1,5.7,5.7,0,0,1-1.065.249c-.689.135-1.691.314-2.931.514-2.481.4-5.921.883-9.739,1.267s-7.282.6-9.793.709c-1.256.05-2.273.079-2.976.083A5.767,5.767,0,0,1,654.646,266.993Z" transform="translate(-654.646 -264.191)"/></g></g><path class="c" d="M106.089,193.012c18.7-12.482,23.264-36.1,22.864-57.389-.067-3.556.386-7.3-1.277-10.438s-5.626-5.332-8.873-3.884c-2.692,1.2-3.905,4.253-5.441,6.769A20.965,20.965,0,0,1,104.8,135.9c-2.311,1.14-5.158,1.816-7.4.549-3.08-1.737-3.38-5.975-3.3-9.511q.215-9.875.432-19.754c.077-3.533.145-7.14-.917-10.511s-3.473-6.523-6.864-7.515-7.634.883-8.406,4.331a32.1,32.1,0,0,0-.17,4.4c-.122,1.465-.841,3.078-2.259,3.466-1.434.393-2.851-.632-3.906-1.681-3.64-3.623-6.076-8.256-8.348-12.862S59.18,77.5,55.887,73.555,48,66.46,42.882,66.1s-10.635,2.679-12.008,7.628,1.49,10.059,4.632,14.14a79.391,79.391,0,0,0,16.4,15.9,6.524,6.524,0,0,1,2.738,2.995c.74,2.367-1.558,4.674-3.926,5.414-2.683.836-5.573.519-8.37.8s-5.84,1.452-6.938,4.04c-1.521,3.591,1.48,7.422,4.453,9.946A68.658,68.658,0,0,0,59.94,138.81c2.62.992,5.377,1.866,7.472,3.724s3.327,5.053,2.006,7.522-4.628,3.22-7.379,2.674-5.2-2.061-7.811-3.08c-4.892-1.906-11.25-1.666-14.467,2.483C37.647,154.861,37.4,158.7,38.4,162a25.715,25.715,0,0,0,5.291,8.814,68.791,68.791,0,0,0,29.078,20.827c11.353,4.077,21.912,5.292,33.318,1.368" transform="translate(-30.52 -66.067)"/><g transform="translate(5.602 2.888)"><path class="b" d="M106.008,194.137C103,183.352,94.761,157.979,89.855,146.044l-3.667-8.822c-1.209-2.895-2.408-5.761-3.757-8.494a157.762,157.762,0,0,0-8.659-15.271c-2.993-4.726-6.007-9.1-8.857-13.179s-5.594-7.812-8.235-11.12A126.716,126.716,0,0,0,43.059,74.48c-1.739-1.6-3.129-2.806-4.081-3.61l-1.087-.907c-.247-.2-.382-.294-.382-.294s.111.12.346.336l1.053.946c.927.83,2.294,2.054,4.009,3.679A132.541,132.541,0,0,1,56.384,89.392c2.616,3.314,5.329,7.064,8.168,11.139s5.828,8.465,8.8,13.189a158.633,158.633,0,0,1,8.605,15.237c1.339,2.723,2.527,5.569,3.737,8.47s2.426,5.842,3.664,8.819c4.9,11.926,13.145,37.273,16.172,48.024" transform="translate(-37.509 -69.67)"/></g><g transform="translate(50.38 23.094)"><path class="b" d="M93.381,133.675a8.559,8.559,0,0,0,.349-1.506c.2-.975.436-2.394.709-4.149.551-3.512,1.15-8.386,1.8-13.763s1.331-10.232,1.957-13.723c.307-1.747.573-3.157.771-4.13a8.6,8.6,0,0,0,.247-1.525,8.6,8.6,0,0,0-.449,1.479c-.261.96-.584,2.364-.939,4.107-.723,3.483-1.468,8.345-2.116,13.728-.636,5.331-1.21,10.155-1.642,13.775-.219,1.686-.4,3.087-.542,4.169A8.438,8.438,0,0,0,93.381,133.675Z" transform="translate(-93.37 -94.878)"/></g><g transform="translate(4.493 52.69)"><path class="b" d="M36.125,131.823a1.658,1.658,0,0,0,.472.084l1.361.137c1.182.113,2.89.273,4.994.54,4.211.5,10,1.4,16.347,2.681s12.034,2.7,16.117,3.852c2.046.56,3.688,1.057,4.825,1.4l1.312.386a1.631,1.631,0,0,0,.471.1,1.633,1.633,0,0,0-.436-.2c-.351-.131-.774-.291-1.281-.48-1.118-.4-2.748-.956-4.785-1.564-4.066-1.242-9.757-2.72-16.117-4.012s-12.178-2.127-16.412-2.532c-2.114-.22-3.832-.324-5.02-.374L36.6,131.8A1.654,1.654,0,0,0,36.125,131.823Z" transform="translate(-36.125 -131.799)"/></g><g transform="translate(69.655 54.998)"><path class="b" d="M117.417,192.354a2.853,2.853,0,0,0,.312-.554l.8-1.637c.693-1.423,1.644-3.506,2.788-6.095,2.291-5.175,5.236-12.418,8.384-20.454s6.035-15.3,8.235-20.5c1.091-2.552,1.982-4.64,2.63-6.158l.711-1.676a2.878,2.878,0,0,0,.216-.6,2.864,2.864,0,0,0-.313.556c-.208.425-.474.967-.8,1.635-.693,1.423-1.643,3.506-2.786,6.095-2.293,5.175-5.238,12.418-8.385,20.457s-6.035,15.291-8.235,20.5l-2.63,6.158c-.291.685-.527,1.241-.711,1.678A2.844,2.844,0,0,0,117.417,192.354Z" transform="translate(-117.415 -134.678)"/></g><g transform="translate(8.792 92.301)"><path class="b" d="M41.488,181.217a3.106,3.106,0,0,0,.607.245l1.771.6,6.525,2.175c5.505,1.841,13.08,4.479,21.44,7.414s15.964,5.52,21.5,7.271c2.77.878,5.017,1.566,6.579,2.013l1.8.508a2.989,2.989,0,0,0,.639.141,3.049,3.049,0,0,0-.608-.244l-1.77-.6-6.524-2.174c-5.506-1.842-13.08-4.482-21.444-7.416s-15.961-5.518-21.5-7.27c-2.77-.877-5.018-1.566-6.579-2.014l-1.8-.507A3.035,3.035,0,0,0,41.488,181.217Z" transform="translate(-41.488 -181.214)"/></g><g transform="translate(357.179 3.446)"><path class="a" d="M502.28,70.367h101.06L583.569,84.425V96.158a21.862,21.862,0,0,1-22.023,21.7H498.128a21.862,21.862,0,0,1-22.023-21.7h0A25.985,25.985,0,0,1,502.28,70.367Z" transform="translate(-476.105 -70.367)"/><g transform="translate(15.048 15.479)"><path class="b" d="M570.243,89.885c0,.115-16.873.209-37.681.209s-37.685-.094-37.685-.209,16.87-.208,37.685-.208S570.243,89.771,570.243,89.885Z" transform="translate(-494.877 -89.677)"/></g><g transform="translate(15.048 23.287)"><path class="b" d="M570.243,99.626c0,.115-16.873.209-37.681.209s-37.685-.094-37.685-.209,16.87-.208,37.685-.208S570.243,99.512,570.243,99.626Z" transform="translate(-494.877 -99.418)"/></g></g><g transform="translate(110.451 243.968)"><g transform="translate(0)"><path class="a" d="M287.894,370.42H168.309l19.48,14.058v27.656a5.775,5.775,0,0,0,5.775,5.775h94.329a5.776,5.776,0,0,0,5.775-5.775V376.195A5.776,5.776,0,0,0,287.894,370.42Z" transform="translate(-168.309 -370.42)"/></g><g transform="translate(34.034 19.336)"><path class="b" d="M291.33,394.751c0,.115-18.036.208-40.279.208s-40.283-.093-40.283-.208,18.033-.209,40.283-.209S291.33,394.636,291.33,394.751Z" transform="translate(-210.767 -394.542)"/></g><g transform="translate(34.034 29.955)"><path class="b" d="M291.33,408c0,.115-18.036.209-40.279.209s-40.283-.094-40.283-.209,18.033-.208,40.283-.208S291.33,407.882,291.33,408Z" transform="translate(-210.767 -407.789)"/></g></g></g><g transform="translate(312.028 143.358)"><g transform="translate(21.636 30.386)"><path class="d" d="M38.787,0H163.351a38.787,38.787,0,0,1,38.787,38.787v98.52a38.787,38.787,0,0,1-38.787,38.787H38.787A38.787,38.787,0,0,1,0,137.307V38.787A38.787,38.787,0,0,1,38.787,0Z"/><g transform="translate(201.401 61.392)"><path class="d" d="M660.633,276.984h30.273l-30.959,30.959Z" transform="translate(-659.946 -276.984)"/></g></g><g transform="translate(0 81.938)"><path class="e" d="M398.506,293.581l-12.692-14.393c-3.432-3.432-4.607-5.088-3.923-5.688.912-.8.525-.535,7.651,4.814,0,0-10.1-7.724-6.6-7.772.617-.008,2.331.994,4.168,2.2-2.5-2.127-3.192-3.557-2.718-4.244.815-1.18,7,3.1,9.84,5.17-2.328-1.735-6.758-5.1-7.539-6.151-1.069-1.442,1.1-1.327,2.862-.724,1.981.677,12.92,6.26,16.162,7.706a2.093,2.093,0,0,0,3.013-1.022c1.193-5.012,4.8-8.278,6.191-8.7s2.443,1.345,1.46,2.62a19.221,19.221,0,0,0-2.135,4.759,12.318,12.318,0,0,0-.647,4.108c.027,1.619.114,2.989.217,4.151l11.594,15.916-19.4,11.248Z" transform="translate(-381.705 -264.707)"/><g transform="translate(2.665 8.24)"><path class="f" d="M394.6,282.561c-.131.182-2.385-1.368-5.036-3.463s-4.679-3.931-4.532-4.1,2.4,1.381,5.036,3.464S394.734,282.38,394.6,282.561Z" transform="translate(-385.029 -274.986)"/></g><g transform="translate(4.026 5.827)"><path class="f" d="M397.413,279.433c-.128.184-2.623-1.333-5.573-3.388s-5.237-3.869-5.109-4.053,2.622,1.332,5.572,3.388S397.54,279.249,397.413,279.433Z" transform="translate(-386.727 -271.977)"/></g><g transform="translate(6.301 3.668)"><path class="f" d="M399.769,276.206c-.125.185-2.511-1.211-5.327-3.117s-5-3.6-4.872-3.789,2.51,1.21,5.327,3.117S399.9,276.021,399.769,276.206Z" transform="translate(-389.566 -269.283)"/></g><g transform="translate(16.801 17.895)"><path class="e" d="M419.053,287.031l46.234,58.631L454.7,370.312s-12.68-2.807-16.526-8.151-35.508-64.152-35.508-64.152Z" transform="translate(-402.664 -287.031)"/></g></g><g transform="translate(88.978)"><g transform="translate(0 0.37)"><g transform="translate(51.077 17.42)"><path class="g" d="M566.931,184.682c3.327,2.883,3.316,7.966,2.931,12.353s-.677,9.38,2.361,12.567c2.5,2.627,7.048,3.777,7.632,7.359a4.127,4.127,0,0,1-6.822,3.742c.978,2.828.3,6.366-2.152,8.079s-6.56.659-7.321-2.235a3.631,3.631,0,1,1-7.133,1.3" transform="translate(-556.426 -184.682)"/></g><g transform="translate(0 7.983)"><path class="g" d="M506.645,211.936a4.37,4.37,0,1,1-8.06-3.369c.763-1.667,2.567-2.871,2.738-4.7.209-2.211-2.043-3.785-4.044-4.749s-4.341-2.216-4.557-4.426c-.209-2.133,1.7-3.792,3.3-5.22s3.173-3.633,2.187-5.537c-.5-.973-1.554-1.534-2.232-2.4-1.5-1.907-.716-4.945,1.2-6.442a8.772,8.772,0,0,1,6.95-1.275,65.714,65.714,0,0,1,6.963,2.111,29.022,29.022,0,0,0,23.12-3.028" transform="translate(-492.706 -172.909)"/></g><g transform="translate(5.727)"><g transform="translate(1.426 5.811)"><path class="e" d="M522.614,263.094a16.091,16.091,0,0,0,18.912-12.343L552.9,198.6a23.145,23.145,0,0,0-17.844-27.975l-1.194-.175a23.3,23.3,0,0,0-26.088,17.836c-2.53,11.008-5.183,23.2-5.985,29.19-1.659,12.4,10.435,16.133,10.435,16.133l-2.171,10.442a16.09,16.09,0,0,0,12.563,19.045Z" transform="translate(-501.63 -170.199)"/></g><g transform="translate(9.322 23.402)"><g transform="translate(0 5.534)"><g transform="translate(0.446 1.767)"><path class="g" d="M512.064,202.617a1.785,1.785,0,0,0,1.443,2.032,1.708,1.708,0,0,0,2.055-1.327,1.786,1.786,0,0,0-1.44-2.033A1.708,1.708,0,0,0,512.064,202.617Z" transform="translate(-512.037 -201.253)"/></g><path class="g" d="M511.5,200.452c.185.262,1.669-.532,3.569-.248,1.9.256,3.155,1.438,3.4,1.235.116-.088-.046-.536-.588-1.068A4.9,4.9,0,0,0,515.2,199.1a4.71,4.71,0,0,0-2.884.485C511.664,199.945,511.406,200.332,511.5,200.452Z" transform="translate(-511.48 -199.048)"/><g transform="translate(18.639 3.092)"><g transform="translate(0.394 1.76)"><path class="g" d="M535.251,206.464a1.787,1.787,0,0,0,1.443,2.033,1.709,1.709,0,0,0,2.055-1.327,1.787,1.787,0,0,0-1.441-2.033A1.709,1.709,0,0,0,535.251,206.464Z" transform="translate(-535.224 -205.101)"/></g><path class="g" d="M534.751,204.309c.186.262,1.671-.532,3.57-.249,1.9.256,3.156,1.438,3.4,1.236.116-.088-.044-.537-.59-1.069a4.893,4.893,0,0,0-2.676-1.275,4.711,4.711,0,0,0-2.884.486C534.919,203.8,534.658,204.19,534.751,204.309Z" transform="translate(-534.733 -202.905)"/></g><g transform="translate(5.03 1.869)"><path class="g" d="M522.416,217.1a12.685,12.685,0,0,0-3.007-1.01c-.479-.121-.923-.285-.957-.628a2.509,2.509,0,0,1,.535-1.392q.944-1.662,1.978-3.487c2.766-4.972,4.842-9.089,4.641-9.2s-2.606,3.832-5.371,8.8c-.67,1.228-1.31,2.4-1.92,3.518a2.836,2.836,0,0,0-.531,1.868,1.23,1.23,0,0,0,.694.827,3.353,3.353,0,0,0,.807.235A12.527,12.527,0,0,0,522.416,217.1Z" transform="translate(-517.756 -201.379)"/></g></g><g transform="translate(19.254 1.533)"><path class="g" d="M535.5,195.029c.112.544,2.046.577,4.238,1.173,2.2.551,3.907,1.469,4.271,1.048.164-.2-.078-.734-.732-1.342a7.649,7.649,0,0,0-6.483-1.692C535.931,194.426,535.458,194.772,535.5,195.029Z" transform="translate(-535.5 -194.056)"/></g><g transform="translate(1.495)"><path class="g" d="M513.373,193.681c.271.481,1.647.224,3.225.434,1.586.154,2.867.716,3.24.309.167-.2.02-.663-.5-1.157a4.711,4.711,0,0,0-5.209-.6C513.5,193.031,513.256,193.448,513.373,193.681Z" transform="translate(-513.345 -192.144)"/></g></g><g transform="translate(41.246 12.361)"><path class="g" d="M551.3,184.683l.06.063a9.842,9.842,0,0,1,2.7,6.824c0,.089,0,.175,0,.255-.033,3.6-.646,7.177-.644,10.778s.7,7.364,2.949,10.175c.926,1.156,2.721,2.121,3.773,1.08a3.056,3.056,0,0,0,.678-1.553c1.907-8.426,5.342-15.646,6.631-24.559a7.593,7.593,0,0,0-2.222-6.571c-1.67-1.61-3.745-3.331-5.961-2.652s-5.472,4.166-7.321,5.576" transform="translate(-551.305 -178.371)"/></g><g transform="translate(45.44 39.103)"><path class="e" d="M558.8,211.825c.224-.06,8.87-1.27,7.362,7.15s-9.651,5.169-9.623,4.924S558.8,211.825,558.8,211.825Z" transform="translate(-556.538 -211.732)"/><g transform="translate(3.131 3.04)"><path class="f" d="M560.457,221.923c.042-.021.128.129.356.287a1.49,1.49,0,0,0,1.093.219c.947-.167,1.95-1.445,2.263-2.955a4.916,4.916,0,0,0-.034-2.173,1.721,1.721,0,0,0-.9-1.324.759.759,0,0,0-.938.247c-.155.216-.131.393-.179.4-.028.017-.156-.173-.026-.509a.955.955,0,0,1,.426-.468,1.124,1.124,0,0,1,.85-.069,2.094,2.094,0,0,1,1.3,1.581,5.051,5.051,0,0,1,.087,2.438c-.358,1.687-1.511,3.119-2.791,3.253a1.6,1.6,0,0,1-1.3-.463C560.436,222.129,560.425,221.933,560.457,221.923Z" transform="translate(-560.443 -215.525)"/></g></g><path class="g" d="M549.147,176.814c2.578-3.08-2.417-8.775-6.4-10.7s-9.78-.7-14.137.072c-2.75.486-5.54,1.316-8.283.8a18.868,18.868,0,0,1-5.162-2.151,13.842,13.842,0,0,0-5.255-1.861,5.159,5.159,0,0,0-4.866,2.172c-.952,1.612-.292,4.108,1.505,4.632a4.2,4.2,0,1,0-2.235,7.537c-1.069-1.088-3.134.148-3.206,1.672s1.13,2.816,2.423,3.626c3.3,2.066,7.487,2.173,11.319,1.479s7.5-2.113,11.311-2.9,10.223-2.269,13.669-.456c2.538,1.335,3.927,4.83,5.542,4.341a5.227,5.227,0,0,0,3.234-3.412,15.134,15.134,0,0,0,.539-4.84" transform="translate(-499.851 -162.95)"/></g></g><g transform="translate(55.719 16.556)"><path class="h" d="M578.011,219.915a1.277,1.277,0,0,0,.442-.192,2.465,2.465,0,0,0,.912-1.041,3.651,3.651,0,0,0,.277-2.176,4.417,4.417,0,0,0-1.514-2.475,10.916,10.916,0,0,0-3.034-1.768,20.155,20.155,0,0,1-3.549-1.715,7.111,7.111,0,0,1-2.577-3.345,11.681,11.681,0,0,1-.746-4.555c.086-3.211.974-6.212,1.193-9.041a11.663,11.663,0,0,0-1.351-7.319,6.813,6.813,0,0,0-4-3.008,4.852,4.852,0,0,0-1.375-.136,2,2,0,0,0-.475.072,7.128,7.128,0,0,1,1.808.225,6.778,6.778,0,0,1,3.784,3.008,11.5,11.5,0,0,1,1.214,7.123c-.232,2.777-1.136,5.774-1.228,9.067a12.009,12.009,0,0,0,.785,4.719,7.47,7.47,0,0,0,2.744,3.514,19.947,19.947,0,0,0,3.634,1.717,10.825,10.825,0,0,1,2.972,1.668,4.2,4.2,0,0,1,1.478,2.293,3.535,3.535,0,0,1-.193,2.062A2.762,2.762,0,0,1,578.011,219.915Z" transform="translate(-562.216 -183.143)"/></g><g transform="translate(4.847 6.387)"><path class="h" d="M506.062,171.081a1.918,1.918,0,0,0-.366-.192,2.561,2.561,0,0,0-.471-.186,3.567,3.567,0,0,0-.677-.172,5.073,5.073,0,0,0-4.248,1.3h0l-.006.006a6.792,6.792,0,0,0-1.512,5.02,8.365,8.365,0,0,0,3.093,5.713,12.918,12.918,0,0,0,7.007,2.819,28.6,28.6,0,0,0,8.321-.511,37.59,37.59,0,0,0,12.266-4.738,38,38,0,0,1,5.062-2.629,13.614,13.614,0,0,1,4.813-.984,14.311,14.311,0,0,1,6.91,1.633,24.628,24.628,0,0,1,2.235,1.412,9.932,9.932,0,0,0-2.155-1.558,14.118,14.118,0,0,0-6.994-1.788,13.793,13.793,0,0,0-4.937.955,37.5,37.5,0,0,0-5.129,2.618,37.737,37.737,0,0,1-12.151,4.66,28.458,28.458,0,0,1-8.194.519,12.593,12.593,0,0,1-6.81-2.7,8.059,8.059,0,0,1-3.018-5.452,6.567,6.567,0,0,1,1.38-4.832l-.006.006a5,5,0,0,1,4.055-1.343A9.835,9.835,0,0,1,506.062,171.081Z" transform="translate(-498.753 -170.456)"/></g><g transform="translate(16.838)"><path class="h" d="M513.722,162.489a4.8,4.8,0,0,0,.3,1.894,7.959,7.959,0,0,0,3.319,3.994,9.977,9.977,0,0,0,3.36,1.392,14.29,14.29,0,0,0,4.163.218c2.943-.221,6.025-1.229,9.256-2.066s6.458-1.272,9.246-.527a12.117,12.117,0,0,1,6.284,4.079A12.582,12.582,0,0,1,552.052,176c.323,1.18.36,1.865.412,1.859a2.185,2.185,0,0,0-.022-.5,9.681,9.681,0,0,0-.228-1.406,12.581,12.581,0,0,0-8.753-8.94c-2.886-.792-6.21-.349-9.451.494-3.257.846-6.3,1.851-9.184,2.087a14.11,14.11,0,0,1-4.058-.172,9.823,9.823,0,0,1-3.271-1.3,7.989,7.989,0,0,1-3.323-3.8A11.094,11.094,0,0,1,513.722,162.489Z" transform="translate(-513.713 -162.489)"/></g><g transform="translate(20.731 52.006)"><path class="f" d="M518.778,228.557a8.719,8.719,0,0,0,.652,2.4,2.941,2.941,0,0,0,1.8,1.617,2.639,2.639,0,0,0,2.434-.733,4.221,4.221,0,0,0,1.129-2.357c.129-.79-.034-1.8-.793-2.056a2,2,0,0,0-.99.011l-4.44.8" transform="translate(-518.569 -227.367)"/></g><g transform="translate(20.077 51.78)"><path class="g" d="M519.4,231.867a6.048,6.048,0,0,0,2.208.418,3.188,3.188,0,0,0,2.073-.945,3.359,3.359,0,0,0,.886-2.588,3,3,0,0,0-.156-.706c-.105-.216-.079-.2-.258-.229-.176-.008-.478.031-.718.046l-.739.057c-.964.072-1.832.126-2.561.161a7.618,7.618,0,0,1-2.378-.041,7.6,7.6,0,0,1,2.328-.485c.724-.1,1.586-.211,2.546-.321l.737-.082a7.517,7.517,0,0,1,.824-.067.973.973,0,0,1,.585.206,1.148,1.148,0,0,1,.328.487,3.581,3.581,0,0,1,.206.9,3.919,3.919,0,0,1-1.141,3.148,3.578,3.578,0,0,1-2.545.987,3.367,3.367,0,0,1-1.747-.485C519.511,232.1,519.368,231.9,519.4,231.867Z" transform="translate(-517.753 -227.085)"/></g><g transform="translate(16.933 69.587)"><path class="f" d="M514.642,249.3s8.078,3.065,15.944.837c0,0-5.933,4.973-16.755,3.065Z" transform="translate(-513.831 -249.3)"/></g></g><g transform="translate(86.2 174.072)"><path class="i" d="M522.089,390.084a8.878,8.878,0,0,1-1.109-.843c-.344-.286-.77-.629-1.289-1s-1.081-.821-1.759-1.244c-.665-.443-1.393-.925-2.214-1.382-.8-.494-1.7-.935-2.636-1.419A41.4,41.4,0,0,0,500,380.287c-1.049-.109-2.044-.235-2.983-.26-.936-.069-1.81-.067-2.609-.06-.8-.019-1.519.047-2.153.074s-1.179.074-1.623.124a8.973,8.973,0,0,1-1.39.1,8.771,8.771,0,0,1,1.371-.257,16.11,16.11,0,0,1,1.625-.2c.636-.049,1.36-.137,2.165-.137.8-.025,1.686-.044,2.631.01.948.011,1.953.125,3.013.224a39.567,39.567,0,0,1,13.209,3.95c.94.5,1.844.955,2.641,1.466.82.474,1.546.973,2.2,1.436.673.442,1.23.912,1.735,1.3a16.058,16.058,0,0,1,1.251,1.056A8.836,8.836,0,0,1,522.089,390.084Z" transform="translate(-489.24 -379.646)"/></g><g transform="translate(102.723 84.904)"><path class="j" d="M509.853,268.407" transform="translate(-509.853 -268.407)"/></g><g transform="translate(19.589 74.072)"><g transform="translate(0 18.566)"><path class="k" d="M458.489,328.759l6.577-28.481c2.516-10.71,5.5-21,10.5-22.222v3.315l-2.143,81.372S460.028,378,442.94,369.52c-5.338-2.649-15.079-21.286-15.079-21.286s-22.628-40.439-21.691-42.274,14.789-19.679,16.2-20.567Z" transform="translate(-406.142 -278.056)"/></g><g transform="translate(66.373 8.775)"><path class="k" d="M542.559,267.606c13.064,2.5,27.779,10.126,34.546,29.645,2.472,7.13,20.464,59.72,20.464,59.72l-30.681-.637-5-10.843,2.438,17.588,2.079,25.095-77.465,1.3.543-37.8.743-75.189s.871-1.141,14.228-8.51C512.754,263.4,542.559,267.606,542.559,267.606Z" transform="translate(-488.943 -265.842)"/></g><g class="l" transform="translate(127.718 60.799)"><path d="M565.471,330.742c1.271,15.872,2.737,20.775,4.008,36.647a14.028,14.028,0,0,0,.837,4.412,4.747,4.747,0,0,0,3.2,2.922c2.256.459,5.189,2.091,5.826-.123L577.2,359.314a30.117,30.117,0,0,0-2.115-6.452c-4.754-10.553-6.513-11.172-9.619-22.12" transform="translate(-565.471 -330.742)"/></g><g transform="translate(81.886)"><path class="k" d="M508.3,273.941l.258-1.65,2.475-15.837a1.844,1.844,0,0,1,1.976-1.553l30.5,2.546a3.506,3.506,0,0,1,3.2,3.752l-.68,9.2-9.524,12.426-13.714,2.139" transform="translate(-508.296 -254.895)"/></g><g transform="translate(66.365 48.828)"><path class="g" d="M489.142,315.808c.115,0,.208,12.408.208,27.71s-.093,27.712-.208,27.712-.209-12.4-.209-27.712S489.027,315.808,489.142,315.808Z" transform="translate(-488.933 -315.808)"/></g><g transform="translate(120.988 27.853)"><path class="g" d="M581.056,363.591a.774.774,0,0,1-.1-.18l-.252-.544-.929-2.108c-.8-1.87-1.945-4.521-3.347-7.784l-10.9-25.741-5.953-14.192a26.573,26.573,0,0,1-1.97-6.443,35.308,35.308,0,0,1-.531-5.846,23.7,23.7,0,0,1,1.22-8.378c.09-.235.166-.459.252-.665l.278-.56a4.922,4.922,0,0,1,.48-.851l.341-.5a.723.723,0,0,1,.127-.159,15.51,15.51,0,0,0-1.325,2.787,24.366,24.366,0,0,0-1.078,8.318,30.561,30.561,0,0,0,2.561,12.145l5.984,14.179c4.205,10.056,8.012,19.161,10.784,25.788l3.224,7.836q.545,1.356.858,2.139l.213.56A.759.759,0,0,1,581.056,363.591Z" transform="translate(-557.076 -289.642)"/></g><g transform="translate(60.606 13.301)"><path class="i" d="M550.64,271.488a9.7,9.7,0,0,1-.891.773,13.627,13.627,0,0,1-2.922,1.7,22.063,22.063,0,0,1-5.154,1.445,63.223,63.223,0,0,1-7.052.695c-2.625.118-5.5.065-8.576.126a39.668,39.668,0,0,0-9.7,1.181,17.919,17.919,0,0,0-9.121,5.38,12.507,12.507,0,0,0-2.532,5,10.671,10.671,0,0,0,.092,5.734,9.085,9.085,0,0,0,1.343,2.564,6.723,6.723,0,0,0,2.166,1.824,4.67,4.67,0,0,0,2.677.564,3.655,3.655,0,0,0,2.352-1.206,6.348,6.348,0,0,0,1.185-5.072,8.433,8.433,0,0,0-.762-2.5,12.4,12.4,0,0,0-1.424-2.151,15.105,15.105,0,0,0-8.218-4.869,17.472,17.472,0,0,0-8.414.1,23,23,0,0,0-6.441,2.753,29.887,29.887,0,0,0-4.266,3.173c-1.1.964-1.88,1.794-2.421,2.342l-.6.642a1.563,1.563,0,0,1-.215.209,26.573,26.573,0,0,1,3.125-3.315,29.1,29.1,0,0,1,4.253-3.25,22.993,22.993,0,0,1,6.491-2.842,17.711,17.711,0,0,1,8.563-.147,15.427,15.427,0,0,1,8.436,4.961,12.745,12.745,0,0,1,1.481,2.222,8.854,8.854,0,0,1,.806,2.621,8.36,8.36,0,0,1-.049,2.8,5.461,5.461,0,0,1-1.228,2.6,4.061,4.061,0,0,1-2.608,1.342,5.088,5.088,0,0,1-2.915-.605,7.134,7.134,0,0,1-2.3-1.937,9.473,9.473,0,0,1-1.412-2.693,11.071,11.071,0,0,1-.1-5.961,12.893,12.893,0,0,1,2.623-5.166,18.262,18.262,0,0,1,9.334-5.489,39.789,39.789,0,0,1,9.792-1.155c3.087-.046,5.957.024,8.571-.075a65.226,65.226,0,0,0,7.027-.63,22.48,22.48,0,0,0,5.128-1.365,14.46,14.46,0,0,0,2.935-1.622c.321-.213.535-.414.7-.53A1.652,1.652,0,0,1,550.64,271.488Z" transform="translate(-481.748 -271.488)"/></g><g transform="translate(124.079 44.932)"><path class="i" d="M592.858,312.679a1.081,1.081,0,0,1-.341.057c-.224.018-.556.061-.986.07a30.455,30.455,0,0,1-3.633-.087c-1.531-.111-3.344-.345-5.347-.62s-4.2-.58-6.522-.7a25.406,25.406,0,0,0-6.491.488,16.527,16.527,0,0,0-4.949,1.884,14.258,14.258,0,0,0-3.655,3.242c-.012-.008.047-.111.171-.3a6.926,6.926,0,0,1,.582-.8,11.072,11.072,0,0,1,2.749-2.391,16.182,16.182,0,0,1,5.019-2.007,24.842,24.842,0,0,1,6.6-.53c2.345.124,4.555.446,6.555.739s3.8.56,5.319.708,2.751.211,3.6.217A9.754,9.754,0,0,1,592.858,312.679Z" transform="translate(-560.931 -310.948)"/></g><g transform="translate(66.759 60.358)"><path class="i" d="M559.406,352.432a16.51,16.51,0,0,0-4.6-.39,25.179,25.179,0,0,0-5.339.954c-2.05.554-4.33,1.365-6.894,2.153a28.384,28.384,0,0,1-8.64,1.5,24.867,24.867,0,0,1-9.844-2.043,24.459,24.459,0,0,1-8.978-6.527,18.852,18.852,0,0,1-3.18-4.988,11.456,11.456,0,0,1-.916-6.018,8.72,8.72,0,0,1,2.846-5.363,6.248,6.248,0,0,1,2.7-1.381,6.354,6.354,0,0,1,5.554,1.5,4.82,4.82,0,0,1,1.445,2.5,4.946,4.946,0,0,1-.217,2.814,6.86,6.86,0,0,1-1.5,2.3,12.05,12.05,0,0,1-4.4,2.8,13.073,13.073,0,0,1-2.414.661c-.4.075-.8.161-1.2.224l-1.191.138a25.92,25.92,0,0,1-8.748-.613,27.254,27.254,0,0,1-6.755-2.6,24.608,24.608,0,0,1-4.5-3.108l-.8-.7-.657-.662a11.9,11.9,0,0,1-.992-1.073l-.574-.691a1.6,1.6,0,0,1-.184-.244,1.641,1.641,0,0,1,.217.216l.6.662a12.871,12.871,0,0,0,1.016,1.04l.667.645.807.681a25.117,25.117,0,0,0,4.5,3.027,27.417,27.417,0,0,0,6.712,2.517,25.775,25.775,0,0,0,8.644.556l1.174-.141c.392-.063.783-.151,1.18-.225a12.734,12.734,0,0,0,2.356-.655,11.711,11.711,0,0,0,4.254-2.719,6.478,6.478,0,0,0,1.411-2.17,4.544,4.544,0,0,0,.2-2.594,5.022,5.022,0,0,0-3.736-3.593,5.739,5.739,0,0,0-2.784-.084,5.853,5.853,0,0,0-2.519,1.3,8.313,8.313,0,0,0-2.7,5.105,11.065,11.065,0,0,0,.886,5.8,18.489,18.489,0,0,0,3.108,4.883,24.152,24.152,0,0,0,8.819,6.439,24.618,24.618,0,0,0,9.694,2.051,28.279,28.279,0,0,0,8.555-1.44c2.559-.767,4.854-1.561,6.919-2.1a24.723,24.723,0,0,1,5.393-.891,16.564,16.564,0,0,1,2,.035c.573.083,1.062.123,1.448.212l.873.218A1.551,1.551,0,0,1,559.406,352.432Z" transform="translate(-489.425 -330.193)"/></g><g transform="translate(54.298 62.853)"><path class="i" d="M485.885,344.5c-.067.028-.435-.848-1.214-2.155a20.939,20.939,0,0,0-8.559-7.977c-1.358-.685-2.257-.991-2.234-1.06a2.083,2.083,0,0,1,.655.147,13.094,13.094,0,0,1,1.707.646,18.671,18.671,0,0,1,8.688,8.1,13,13,0,0,1,.765,1.657A2.083,2.083,0,0,1,485.885,344.5Z" transform="translate(-473.878 -333.305)"/></g><g transform="translate(28.681 57.381)"><path class="i" d="M448.441,377.456a1,1,0,0,1-.126-.2l-.331-.6c-.285-.534-.7-1.323-1.214-2.353a54.816,54.816,0,0,1-3.67-9.027,29.3,29.3,0,0,1-1.15-6.646,20.883,20.883,0,0,1,.154-3.77,21.884,21.884,0,0,1,.949-3.889,17,17,0,0,1,4.7-7.121,11.513,11.513,0,0,1,8.556-3,6.36,6.36,0,0,1,4.216,2.05,5.182,5.182,0,0,1,1.187,4.382,3.868,3.868,0,0,1-1.135,1.981,4.583,4.583,0,0,1-1.958,1.069,5.747,5.747,0,0,1-4.186-.507,9.629,9.629,0,0,1-3.062-2.606,14.152,14.152,0,0,1-1.924-3.257,14.377,14.377,0,0,1-1.071-6.651,13.519,13.519,0,0,1,1.59-5.33,14.028,14.028,0,0,1,2.512-3.368,12.965,12.965,0,0,1,2.064-1.669c.25-.172.458-.276.592-.355a.982.982,0,0,1,.21-.106c.01.016-.26.184-.754.531a14.367,14.367,0,0,0-2,1.713,14.2,14.2,0,0,0-2.421,3.363,13.411,13.411,0,0,0-1.5,5.243,14.142,14.142,0,0,0,1.1,6.493,13.832,13.832,0,0,0,1.892,3.162,9.269,9.269,0,0,0,2.95,2.494,5.365,5.365,0,0,0,3.906.465,3.764,3.764,0,0,0,2.8-2.755,4.777,4.777,0,0,0-1.1-4.022,5.956,5.956,0,0,0-3.945-1.9,11.13,11.13,0,0,0-8.243,2.9,16.651,16.651,0,0,0-4.609,6.941,21.572,21.572,0,0,0-.948,3.81,20.6,20.6,0,0,0-.172,3.7,29.325,29.325,0,0,0,1.087,6.581,58.507,58.507,0,0,0,3.532,9.037c.487,1.015.87,1.813,1.144,2.386l.294.622A1,1,0,0,1,448.441,377.456Z" transform="translate(-441.922 -326.478)"/></g><g transform="translate(7.925 37.589)"><path class="i" d="M433.41,301.787a1.048,1.048,0,0,1,.073.334c.029.221.091.547.118.971a20.891,20.891,0,0,1-.006,3.6,22.908,22.908,0,0,1-12.919,18.784,20.849,20.849,0,0,1-3.36,1.294c-.406.126-.732.185-.948.237a1.075,1.075,0,0,1-.338.051,9.993,9.993,0,0,1,1.238-.444,25.17,25.17,0,0,0,3.277-1.4A23.444,23.444,0,0,0,433.3,306.664a25.14,25.14,0,0,0,.138-3.562A9.79,9.79,0,0,1,433.41,301.787Z" transform="translate(-416.028 -301.787)"/></g><g transform="translate(141.804 72.344)"><path class="i" d="M604.261,345.147a11.53,11.53,0,0,0-3.095,2.826c-.8,1.031-1.6,2.367-2.512,3.848a29.768,29.768,0,0,1-3.425,4.529,28.914,28.914,0,0,1-8.214,6.176,25.271,25.271,0,0,1-2.87,1.229,5.976,5.976,0,0,1-1.1.316,5.985,5.985,0,0,1,1.041-.467c.67-.3,1.646-.714,2.794-1.339a30.914,30.914,0,0,0,8.043-6.2,31.308,31.308,0,0,0,3.407-4.451,40.617,40.617,0,0,1,2.606-3.826,10.016,10.016,0,0,1,2.3-2.13,5.557,5.557,0,0,1,.748-.41C604.16,345.17,604.255,345.135,604.261,345.147Z" transform="translate(-583.044 -345.145)"/></g><g transform="translate(83.499 10.177)"><path class="g" d="M546.509,268.882a1.314,1.314,0,0,1-.368.095l-1.066.19c-.927.153-2.272.357-3.939.582-3.331.451-7.95.973-13.068,1.348a65.072,65.072,0,0,1-7.242.26,20.564,20.564,0,0,1-5.845-1,13.244,13.244,0,0,1-3.569-1.8,8.815,8.815,0,0,1-.843-.687c-.181-.171-.271-.265-.261-.276.025-.028.415.317,1.2.829a14.376,14.376,0,0,0,3.568,1.657,21.231,21.231,0,0,0,5.767.9,70.929,70.929,0,0,0,7.2-.293c5.109-.374,9.724-.851,13.062-1.226l3.953-.45A10,10,0,0,1,546.509,268.882Z" transform="translate(-510.307 -267.591)"/></g></g><g transform="translate(80.309 167.562)"><g transform="translate(0 9.586)"><g transform="translate(32.233)"><path class="e" d="M603.753,385.976a21.539,21.539,0,0,1-20.934,25.606l-60.716-.673,1.6-19.661,52.057-7.764" transform="translate(-522.102 -383.484)"/></g><g transform="translate(0 3.631)"><path class="e" d="M519.475,393.042c-.278.092-3.785-1.48-6.927-2.933a22.647,22.647,0,0,0-10.663-2.066l-14.474.736a7.091,7.091,0,0,0,2.429,3.237c1.534.849,10.533,1.03,10.533,1.03l-.461.475a10.407,10.407,0,0,1-7.2,3.153l-1.383.034a13.512,13.512,0,0,1-3.02-.59l-3.57-1.443c-1.081-.487-2.222-.408-2.692.68-.425.984-.113,2.34,2.834,3.824,1.648.83,7.756,2.942,7.756,2.942a14.7,14.7,0,0,0,.355,2.578c.267.889,2.667,1.778,2.667,1.778a31.613,31.613,0,0,0,2.134,3.823,22.04,22.04,0,0,0,4.765,1.644,20.5,20.5,0,0,0,11.4-.087l5.517-1.646v-16.8" transform="translate(-481.891 -388.014)"/></g><g transform="translate(10.481 17.705)"><path class="f" d="M502.271,407.5a16.481,16.481,0,0,1-7.3-1.921c.042-.1,1.621.51,3.633,1.034S502.283,407.4,502.271,407.5Z" transform="translate(-494.966 -405.571)"/></g><g transform="translate(13.409 21.96)"><path class="f" d="M502.487,411.945a5.328,5.328,0,0,1-3.866-1.051,13.634,13.634,0,0,1,1.925.553A13.456,13.456,0,0,1,502.487,411.945Z" transform="translate(-498.618 -410.88)"/></g><g transform="translate(10.324 7.355)"><path class="f" d="M504.367,392.662a6.39,6.39,0,0,1-1.118,1.194,17.987,17.987,0,0,1-3.154,2.388,12.531,12.531,0,0,1-3.7,1.426,5.31,5.31,0,0,1-1.63.177,21.134,21.134,0,0,0,5.144-1.917,24.593,24.593,0,0,0,3.165-2.267A8.523,8.523,0,0,1,504.367,392.662Z" transform="translate(-494.77 -392.66)"/></g></g><g transform="translate(37.585)"><path class="k" d="M530.251,387.119l-1.473,22.234,57.2.021a21.388,21.388,0,0,0,11.02-3.052h0a21.389,21.389,0,0,0,9.974-22.464,65.853,65.853,0,0,0-3.691-12.333l-28.755,4.731.919,3.581Z" transform="translate(-528.778 -371.525)"/></g><g transform="translate(39.97 6.449)"><path class="g" d="M589.278,379.575a3.067,3.067,0,0,1-.577.133l-1.67.3-6.153,1.027-20.328,3.235L540.2,387.385l-6.173.9-1.682.223a3.123,3.123,0,0,1-.591.05,3.166,3.166,0,0,1,.578-.133l1.67-.3,6.154-1.028,20.329-3.235,20.345-3.113,6.175-.9,1.682-.224A3.31,3.31,0,0,1,589.278,379.575Z" transform="translate(-531.754 -379.57)"/></g><g transform="translate(56.468 13.485)"><path class="i" d="M564.1,412.728c-.1-.018.342-1.606.4-4.224a16.818,16.818,0,0,0-.083-2.133,19.88,19.88,0,0,0-.35-2.422,22.876,22.876,0,0,0-1.86-5.276,24.262,24.262,0,0,0-3.126-4.648q-.431-.482-.842-.941c-.277-.3-.576-.565-.848-.836-.536-.552-1.1-.994-1.6-1.419-2.043-1.64-3.5-2.4-3.448-2.48a5.932,5.932,0,0,1,1.023.519,11.091,11.091,0,0,1,1.151.7c.427.3.952.6,1.457,1.031a20.188,20.188,0,0,1,1.655,1.4c.281.269.589.533.875.834l.868.943a23.5,23.5,0,0,1,3.208,4.712,22.235,22.235,0,0,1,1.864,5.388,19.377,19.377,0,0,1,.319,2.472,16.03,16.03,0,0,1,.033,2.168,14.784,14.784,0,0,1-.159,1.78,8.994,8.994,0,0,1-.236,1.327A5.985,5.985,0,0,1,564.1,412.728Z" transform="translate(-552.336 -388.347)"/></g><g transform="translate(83.128 9.526)"><path class="i" d="M605.509,410.074a11.846,11.846,0,0,1-2.653-.319,13.6,13.6,0,0,1-2.968-1.045,11.689,11.689,0,0,1-3.342-2.49,10.632,10.632,0,0,1-2.459-4.41,11.957,11.957,0,0,1-.423-2.8,10.833,10.833,0,0,1,.238-3,9.042,9.042,0,0,1,1.184-2.941,6.65,6.65,0,0,1,2.4-2.288,5.956,5.956,0,0,1,3.355-.77,4.5,4.5,0,0,1,3.141,1.624,4.421,4.421,0,0,1,1.053,3.38,4.009,4.009,0,0,1-1.968,2.815,9.4,9.4,0,0,1-6.321.867A13.181,13.181,0,0,1,585.6,386.071a9.271,9.271,0,0,1,.228-2.662,20.574,20.574,0,0,0-.066,2.654,13.489,13.489,0,0,0,2.281,6.748,13.105,13.105,0,0,0,8.765,5.513,9.057,9.057,0,0,0,6.044-.836,3.6,3.6,0,0,0,1.772-2.526,4.014,4.014,0,0,0-.963-3.054,4.08,4.08,0,0,0-2.854-1.477,5.547,5.547,0,0,0-3.121.713,7.286,7.286,0,0,0-3.409,4.955,10.549,10.549,0,0,0-.246,2.9,11.64,11.64,0,0,0,.39,2.721,10.4,10.4,0,0,0,2.344,4.3,11.6,11.6,0,0,0,3.23,2.48,14.045,14.045,0,0,0,2.9,1.1C604.555,410,605.514,410.017,605.509,410.074Z" transform="translate(-585.593 -383.409)"/></g></g></g><g transform="translate(62.798 95.385)"><g transform="translate(0 0)"><g transform="translate(0 9.484)"><path class="m" d="M276.495,114.472H133.257a31.563,31.563,0,0,0-31.564,31.564v51.046H70.787l30.906,30.906v34.7a31.564,31.564,0,0,0,31.564,31.564H276.495a31.564,31.564,0,0,0,31.564-31.564V146.036A31.564,31.564,0,0,0,276.495,114.472Z" transform="translate(-70.787 -114.472)"/></g><g transform="translate(58.318)"><g transform="translate(30.195)"><g transform="translate(3.935)"><g transform="translate(45.803 12.401)"><path class="g" d="M252.2,120.591c-.907,2.343.649,4.9,2.394,6.71s3.857,3.53,4.406,5.982c.46,2.058-.3,4.2-.117,6.3.19,2.15,1.348,4.078,2,6.134,1.191,3.719.713,7.784-.35,11.541a21.335,21.335,0,0,1-4.3,8.5,11.323,11.323,0,0,1-8.4,4.022,3.3,3.3,0,0,1-2.483-.9,3.957,3.957,0,0,1-.718-2.2,215.041,215.041,0,0,1-.006-48.573" transform="translate(-243.257 -118.112)"/></g><g transform="translate(36.357 65.679)"><path class="g" d="M248.171,185.793c6.972-.3,13.415,6.371,12.862,13.328A14.85,14.85,0,0,1,271.7,215.746c-.456,2.355-1.5,4.6-1.647,6.992-.158,2.612.769,5.15,1.273,7.719a24.319,24.319,0,0,1-1.393,13.913c-1.1,2.653-3.15,5.393-6.022,5.474a5.906,5.906,0,0,1-4.838-2.828,14.938,14.938,0,0,1-1.945-5.476c-1.243-6.262-1.617-12.7-3.335-18.85s-5.056-12.209-10.619-15.343c-3.073-1.731-6.761-2.547-9.2-5.094a10,10,0,0,1-1.808-10.341,13.19,13.19,0,0,1,7.859-7.335" transform="translate(-231.472 -184.577)"/></g><g transform="translate(3.792)"><path class="g" d="M191.837,123.264c-.086-2.98,2.67-5.282,5.444-6.373s5.857-1.5,8.33-3.167c2.189-1.473,3.661-3.772,5.514-5.651a18.348,18.348,0,0,1,30.858,8.418c1.065,4.244.338,9.261-3.007,12.081-3.882,3.273-9.638,2.546-14.612,1.528s-10.6-2.022-14.757.9c-2.5,1.762-3.941,4.628-5.472,7.279s-3.452,5.36-6.348,6.357-6.826-.725-6.939-3.784" transform="translate(-190.848 -102.641)"/><g transform="translate(8.288 14.432)"><path class="e" d="M205.638,127.447a4.987,4.987,0,0,0-4.45,5.068h0l2.975,67.336c.124,7.953,11.75,12.421,20.264,12.224h0c8.6-.2,8.876-4.418,8.983-11.983.18-12.641.164-17.386.169-17.314,0,0,10.862-1.828,13.081-16.009,1.1-7.052.724-18.611.107-28.057-.555-8.5-6.212-18.926-14.684-18.01Z" transform="translate(-201.187 -120.645)"/><g transform="translate(35.901 22.181)"><g transform="translate(3.607 3.146)"><path class="g" d="M254.1,153.88a1.817,1.817,0,0,1-1.749,1.838,1.738,1.738,0,0,1-1.877-1.634,1.819,1.819,0,0,1,1.747-1.84A1.741,1.741,0,0,1,254.1,153.88Z" transform="translate(-250.475 -152.241)"/></g><path class="g" d="M253.16,150.22c-.225.237-1.6-.779-3.561-.77-1.954-.018-3.388.992-3.6.752-.105-.105.124-.534.748-.991a5,5,0,0,1,2.882-.9,4.788,4.788,0,0,1,2.835.909C253.067,149.685,253.271,150.113,253.16,150.22Z" transform="translate(-245.974 -148.316)"/></g><g transform="translate(16.671 22.589)"><g transform="translate(4.04 2.738)"><path class="g" d="M230.652,153.88a1.817,1.817,0,0,1-1.749,1.838,1.738,1.738,0,0,1-1.877-1.634,1.819,1.819,0,0,1,1.747-1.84A1.741,1.741,0,0,1,230.652,153.88Z" transform="translate(-227.025 -152.241)"/></g><path class="g" d="M229.171,150.729c-.225.237-1.606-.779-3.561-.77-1.954-.018-3.388.991-3.6.752-.1-.106.123-.534.749-.991a4.991,4.991,0,0,1,2.882-.9,4.8,4.8,0,0,1,2.835.908C229.076,150.193,229.281,150.622,229.171,150.729Z" transform="translate(-221.985 -148.825)"/></g><g transform="translate(30.038 22.687)"><path class="g" d="M239.611,165.245a13,13,0,0,1,3.177-.58c.5-.053.972-.153,1.056-.494a2.546,2.546,0,0,0-.337-1.48l-1.485-3.8c-2.063-5.411-3.558-9.861-3.34-9.942s2.069,4.239,4.132,9.65q.745,2,1.424,3.824a2.888,2.888,0,0,1,.264,1.96,1.252,1.252,0,0,1-.82.732,3.374,3.374,0,0,1-.848.12A12.689,12.689,0,0,1,239.611,165.245Z" transform="translate(-238.66 -148.947)"/></g><g transform="translate(13.396 57.111)"><path class="f" d="M236.9,196.913a36.06,36.06,0,0,1-19-5.022s4.628,9.727,18.813,8.369Z" transform="translate(-217.899 -191.891)"/></g><g transform="translate(24.339 42.378)"><path class="f" d="M237.384,174.836a3.525,3.525,0,0,0-3.163-1.3,3.215,3.215,0,0,0-2.22,1.2,2.039,2.039,0,0,0-.15,2.332,2.367,2.367,0,0,0,2.566.644,7.413,7.413,0,0,0,2.5-1.5,2.174,2.174,0,0,0,.557-.58.654.654,0,0,0,0-.729" transform="translate(-231.551 -173.512)"/></g><g transform="translate(24.92 40.351)"><path class="g" d="M232.591,170.983c.317-.019.326,2.1,2.147,3.608s4.081,1.264,4.1,1.562c.03.133-.5.414-1.458.442a5.287,5.287,0,0,1-3.42-1.184,4.605,4.605,0,0,1-1.665-3.024C232.209,171.5,232.445,170.971,232.591,170.983Z" transform="translate(-232.275 -170.983)"/></g><g transform="translate(15.804 19.607)"><path class="g" d="M229.83,146.563c-.192.532-2.146.285-4.44.566-2.3.236-4.15.912-4.456.435-.136-.228.185-.729.932-1.246a7.786,7.786,0,0,1,6.777-.763C229.486,145.894,229.911,146.311,229.83,146.563Z" transform="translate(-220.903 -145.105)"/></g><g transform="translate(35.693 16.405)"><path class="g" d="M252.377,143.13c-.343.445-1.692-.014-3.312-.031-1.62-.075-2.992.3-3.31-.16-.139-.225.076-.67.675-1.093a4.8,4.8,0,0,1,5.335.153C252.339,142.455,252.528,142.913,252.377,143.13Z" transform="translate(-245.714 -141.111)"/></g></g><g transform="translate(2.726 11.408)"><path class="g" d="M194.364,173.338a12.588,12.588,0,0,0,14.975-13.921c-.441-3.481-2.318-7.024-1.111-10.319,1.6-4.357,7.7-5.7,9.324-10.045.942-2.527.1-5.483,1.164-7.959,1-2.329,3.454-3.67,5.838-4.532s4.942-1.457,6.944-3.014,3.25-4.493,1.959-6.676a134.324,134.324,0,0,0-30.977,7.527c-2.313.864-4.744,1.9-6.111,3.959-1.448,2.176-1.378,4.987-1.256,7.6.594,12.729-1.343,24.653-.749,37.382" transform="translate(-194.249 -116.873)"/></g></g><g transform="translate(0 5.518)"><path class="h" d="M189.371,167.885a1,1,0,0,1-.232-.075,3.3,3.3,0,0,1-.645-.314,4.728,4.728,0,0,1-1.768-2.091,7.009,7.009,0,0,1-.462-4.305,13.743,13.743,0,0,1,2.576-5.149,37.665,37.665,0,0,0,3.89-5.723,8.821,8.821,0,0,0,.939-3.654,11.984,11.984,0,0,0-.834-3.944,12.108,12.108,0,0,1-.837-4.285,9.572,9.572,0,0,1,4.608-7.742,10.973,10.973,0,0,1,4.67-1.331,19.724,19.724,0,0,0,4.676-.818,6.063,6.063,0,0,0,3.286-2.959,22.81,22.81,0,0,0,1.557-4.18,22.5,22.5,0,0,1,1.6-4.049,15.165,15.165,0,0,1,5.315-5.973,11.489,11.489,0,0,1,6.73-1.745,8.614,8.614,0,0,1,5.295,2.172,8.447,8.447,0,0,1,2.37,3.636,6.816,6.816,0,0,1,.329,2.727,4.236,4.236,0,0,1-.166.944c-.027,0,.055-.327.083-.95a7.07,7.07,0,0,0-.4-2.669,8.307,8.307,0,0,0-7.529-5.565,11.223,11.223,0,0,0-6.528,1.744,14.86,14.86,0,0,0-5.157,5.856,22.176,22.176,0,0,0-1.558,3.989,23.066,23.066,0,0,1-1.58,4.259,7.317,7.317,0,0,1-1.432,1.893,6.212,6.212,0,0,1-2.066,1.26,19.9,19.9,0,0,1-4.777.843,10.585,10.585,0,0,0-4.506,1.275,9.179,9.179,0,0,0-4.42,7.4,11.751,11.751,0,0,0,.8,4.153,12.289,12.289,0,0,1,.836,4.069,9.151,9.151,0,0,1-.994,3.8,37.249,37.249,0,0,1-3.964,5.748,13.618,13.618,0,0,0-2.586,5.023,6.894,6.894,0,0,0,.382,4.19,4.77,4.77,0,0,0,1.666,2.087C189.056,167.772,189.384,167.854,189.371,167.885Z" transform="translate(-186.117 -109.526)"/></g><g transform="translate(44.454 2.062)"><path class="h" d="M241.575,105.22a1.37,1.37,0,0,1,.55.166,5.95,5.95,0,0,1,1.341.811,6.874,6.874,0,0,1,1.4,9.385,5.93,5.93,0,0,1-1.045,1.167c-.285.236-.463.339-.478.319a19.384,19.384,0,0,0,1.275-1.647,6.924,6.924,0,0,0-1.342-9A19.564,19.564,0,0,0,241.575,105.22Z" transform="translate(-241.574 -105.214)"/></g><g transform="translate(51.645 73.422)"><path class="h" d="M274.758,220.167a10.684,10.684,0,0,0,.4-1.5,6.912,6.912,0,0,0-.693-4.082,9.4,9.4,0,0,0-4.475-4.168,17.783,17.783,0,0,0-3.483-1.242c-1.251-.323-2.575-.591-3.9-1.017a8.89,8.89,0,0,1-3.579-1.957,5.95,5.95,0,0,1-1.688-3.4c-.219-1.191-.292-2.322-.555-3.331a6.6,6.6,0,0,0-1.291-2.553,7.354,7.354,0,0,0-3.429-2.333c-.958-.287-1.525-.288-1.521-.332a1.506,1.506,0,0,1,.408-.009,6.332,6.332,0,0,1,1.158.184,7.258,7.258,0,0,1,3.611,2.3,6.812,6.812,0,0,1,1.4,2.652c.289,1.046.375,2.192.6,3.347a5.586,5.586,0,0,0,1.6,3.183,8.563,8.563,0,0,0,3.422,1.852c1.3.418,2.614.688,3.876,1.019a17.773,17.773,0,0,1,3.551,1.293,9.577,9.577,0,0,1,4.571,4.385,6.864,6.864,0,0,1,.588,4.238,5.058,5.058,0,0,1-.362,1.117A1.478,1.478,0,0,1,274.758,220.167Z" transform="translate(-250.545 -194.236)"/></g></g><g transform="translate(0 12.216)"><path class="g" d="M199.343,179.915c-7.181-1.921-13.385-8.955-15.9-15.949s-2.519-14.637-1.873-22.041c.468-5.367,1.408-11.042,4.972-15.082,5.373-6.091,11.186-9.2,19.3-8.947" transform="translate(-181.208 -117.881)"/></g></g><g transform="translate(30.576 76.278)"><path class="a" d="M241.36,211.4l-6.693-1.682A3.812,3.812,0,0,0,236,205.053a6.128,6.128,0,0,0-5.114-3.792l-30.529-3.446a2.449,2.449,0,0,0-2.56,1.505q-2.033,5.158-.139,8.5l-.145,0-5.88,1.17-9.945,87.968L247,293.9Z" transform="translate(-181.683 -197.799)"/><g transform="translate(18.601 1.373)"><g transform="translate(0 9.315)"><path class="g" d="M236.359,212.7a7.188,7.188,0,0,1-1.226.235c-.793.129-1.946.273-3.376.41a78.743,78.743,0,0,1-22.355-1.111c-1.409-.279-2.543-.535-3.319-.743a7.082,7.082,0,0,1-1.2-.355,7.112,7.112,0,0,1,1.232.2c.785.158,1.925.37,3.335.611a92.651,92.651,0,0,0,22.278,1.107c1.428-.1,2.584-.2,3.38-.277A7.109,7.109,0,0,1,236.359,212.7Z" transform="translate(-204.888 -211.133)"/></g><g transform="translate(1.943 17.493)"><path class="b" d="M207.317,228.7a47.075,47.075,0,0,1,4.919-7.368,47.081,47.081,0,0,1-4.919,7.368Z" transform="translate(-207.311 -221.335)"/></g><g transform="translate(17.521 19.541)"><path class="b" d="M232.227,230.7a45.867,45.867,0,0,1-5.476-6.811,45.837,45.837,0,0,1,5.476,6.811Z" transform="translate(-226.746 -223.889)"/></g><g transform="translate(11.634 28.709)"><path class="b" d="M220.99,244.151a48.25,48.25,0,0,1-1.562-8.824,48.094,48.094,0,0,1,1.562,8.824Z" transform="translate(-219.401 -235.327)"/></g><g transform="translate(21.583 38.225)"><path class="b" d="M239.523,247.2a70.342,70.342,0,0,1-7.708,7.592,69.963,69.963,0,0,1,7.708-7.592Z" transform="translate(-231.812 -247.198)"/></g><g transform="translate(0.785 45.847)"><path class="b" d="M212.823,264.076a18.466,18.466,0,0,1-6.95-7.367c.107-.068,1.339,1.855,3.264,3.883S212.9,263.973,212.823,264.076Z" transform="translate(-205.867 -256.707)"/></g><g transform="translate(6.975 64.774)"><path class="b" d="M221.278,280.333c.036.12-1.829.711-3.944,1.834s-3.663,2.317-3.742,2.219a15.2,15.2,0,0,1,7.686-4.053Z" transform="translate(-213.59 -280.318)"/></g><g transform="translate(18.522 55.174)"><path class="b" d="M235.4,278.708a7.774,7.774,0,0,1-1.276-1.371c-.741-.887-1.724-2.145-2.749-3.579s-1.9-2.774-2.495-3.762a7.863,7.863,0,0,1-.883-1.652,8.924,8.924,0,0,1,1.131,1.491l2.587,3.68,2.641,3.641A8.983,8.983,0,0,1,235.4,278.708Z" transform="translate(-227.994 -268.342)"/></g><g transform="translate(17.302 75.391)"><path class="b" d="M236.224,293.584a37.909,37.909,0,0,1-9.751,1.61,40.335,40.335,0,0,1,4.861-.9A40.224,40.224,0,0,1,236.224,293.584Z" transform="translate(-226.473 -293.563)"/></g><g transform="translate(8.244)"><path class="b" d="M215.749,209.155c-.056-.046.33-.485.658-1.333a7.037,7.037,0,0,0,.348-3.48,14.133,14.133,0,0,0-1.034-3.419,6.557,6.557,0,0,1-.541-1.41,4.689,4.689,0,0,1,.808,1.285,11.175,11.175,0,0,1,1.18,3.485,6.471,6.471,0,0,1-.49,3.657A2.671,2.671,0,0,1,215.749,209.155Z" transform="translate(-215.172 -199.512)"/></g><g transform="translate(21.006 3.054)"><path class="b" d="M231.107,203.324a7.281,7.281,0,0,1,1.291,5.513c-.123,0-.133-1.28-.494-2.792S231,203.383,231.107,203.324Z" transform="translate(-231.093 -203.322)"/></g></g></g><g transform="translate(123.284 55.936)"><path class="e" d="M299.276,259.867l30.388-53.362,3.661-9.257s9.47-20.365,10.131-22.437c.764-2.4,2.1-2.6,2.964-2.261,1.346.531,1.778,2.537,1.186,4.612-.2.717-3.886,11.9-3.886,11.9a27.751,27.751,0,0,1,3.141-2.332c2.332-1.567,6.609-1.519,10.565-.11s4.939,2.152,4.463,3.715a2.081,2.081,0,0,1-1.268,1.258,4.109,4.109,0,0,1-2.927.064c-6.365-2.169-9.185.7-9.185.7l-.479,1.211s4.782-1.532,7.505.634a3.95,3.95,0,0,1,.992,1.159,5.261,5.261,0,0,1,1.947,8.863,2.188,2.188,0,0,1-2.415.612,2.8,2.8,0,0,1-.912-1.051,4.306,4.306,0,0,0-.434-.6l-1.817,3.2s-4.465,6.98-6.065,10.238l-20.912,55.728a14.758,14.758,0,0,1-19.245,8.539h0A14.758,14.758,0,0,1,299.276,259.867Z" transform="translate(-297.337 -172.422)"/><g transform="translate(34.414 22.511)"><g transform="translate(0.002 0.355)"><path class="e" d="M340.271,211.984a3.067,3.067,0,0,0,3.521-.613c.968-.837,1.623-1.978,2.528-2.882,2.705-2.705,7.235-2.959,9.808-5.79.359-.4.677-.995.368-1.428-.287-.4-.89-.35-1.374-.254l-12.432,2.462" transform="translate(-340.271 -200.948)"/></g><path class="f" d="M342.691,203.39a5.074,5.074,0,0,1,1.317-.4c.857-.214,2.1-.5,3.643-.838l5.422-1.153,1.57-.323a2.51,2.51,0,0,1,1.9.063,1.069,1.069,0,0,1,.4,1.129,2.187,2.187,0,0,1-.487.915,8.274,8.274,0,0,1-1.4,1.237c-2.071,1.432-4.339,2.02-6.147,2.97a9.53,9.53,0,0,0-2.36,1.61c-.64.619-1.143,1.324-1.674,1.926a4.456,4.456,0,0,1-3.294,1.848c-.955-.018-1.343-.467-1.313-.474a3.706,3.706,0,0,0,1.3.193,4.321,4.321,0,0,0,2.915-1.9c.489-.6.967-1.329,1.643-2.023a9.835,9.835,0,0,1,2.475-1.775c1.869-1.014,4.127-1.638,6.037-2.968a7.8,7.8,0,0,0,1.27-1.113c.348-.4.471-.871.22-1-.252-.186-.823-.074-1.355.036l-1.574.3-5.452,1c-1.554.274-2.814.484-3.688.613A5.079,5.079,0,0,1,342.691,203.39Z" transform="translate(-340.269 -200.505)"/></g><g transform="translate(50.512 17.161)"><path class="f" d="M360.362,197.83a5.228,5.228,0,0,1,1.427-1.922,4.041,4.041,0,0,1,2.4-.79,10.359,10.359,0,0,1,3.169.534,16.46,16.46,0,0,0,3.254.737,5.317,5.317,0,0,0,2.732-.421,2.073,2.073,0,0,0,1.162-1.455,1.223,1.223,0,0,0-.014-.683c-.046,0-.042.242-.162.638a1.959,1.959,0,0,1-1.129,1.2,5.272,5.272,0,0,1-2.55.29,18.2,18.2,0,0,1-3.164-.757,10.029,10.029,0,0,0-3.315-.515,4.233,4.233,0,0,0-2.592.963,3.769,3.769,0,0,0-1.082,1.513A1.312,1.312,0,0,0,360.362,197.83Z" transform="translate(-360.352 -193.831)"/></g><g transform="translate(45.659 3.937)"><path class="f" d="M359.123,177.334a13.21,13.21,0,0,0-.747,2.22c-.473,1.534-1.037,3.363-1.661,5.384l-1.742,5.359a13.136,13.136,0,0,0-.667,2.244,10.457,10.457,0,0,0,.977-2.131c.535-1.344,1.209-3.226,1.877-5.331s1.2-4.031,1.534-5.438A10.52,10.52,0,0,0,359.123,177.334Z" transform="translate(-354.297 -177.334)"/></g><g transform="translate(52.244 23.636)"><path class="f" d="M362.512,202.771a2.838,2.838,0,0,0,.732-.044,2.174,2.174,0,0,1,1.75.469,1.164,1.164,0,0,1,.281,1.117,6.177,6.177,0,0,1-.569,1.416,2.622,2.622,0,0,0-.3,1.84A2.234,2.234,0,0,0,365.833,209a2.537,2.537,0,0,0,2-.2,3.167,3.167,0,0,0,1.327-1.294,10.293,10.293,0,0,0,.875-2.883,6.052,6.052,0,0,0,.022-2.027,1.363,1.363,0,0,0-.281-.692c-.039.018.06.259.1.717a7.175,7.175,0,0,1-.167,1.945,11.034,11.034,0,0,1-.928,2.737,2.512,2.512,0,0,1-2.8,1.254,1.8,1.8,0,0,1-1.137-1.121,2.243,2.243,0,0,1,.249-1.534,6.17,6.17,0,0,0,.56-1.529,1.512,1.512,0,0,0-.435-1.42,2.27,2.27,0,0,0-2-.41A1.909,1.909,0,0,0,362.512,202.771Z" transform="translate(-362.512 -201.908)"/></g><g transform="translate(57.346 23.159)"><path class="f" d="M369.019,208.288c-.02-.01-.158.208-.14.653a2.038,2.038,0,0,0,.932,1.568,2.716,2.716,0,0,0,2.7.028,4.444,4.444,0,0,0,2.041-2.6,5.381,5.381,0,0,0,0-3.3,5.139,5.139,0,0,0-1.487-2.245,4.855,4.855,0,0,0-1.546-.932,1.387,1.387,0,0,0-.645-.138,8.463,8.463,0,0,1,1.967,1.311,5.065,5.065,0,0,1,1.3,2.133,5.124,5.124,0,0,1-.034,3.028,4.13,4.13,0,0,1-1.8,2.364,2.411,2.411,0,0,1-2.323.068,1.932,1.932,0,0,1-.923-1.307C368.988,208.527,369.058,208.3,369.019,208.288Z" transform="translate(-368.877 -201.313)"/></g><g transform="translate(43.248 28.728)"><path class="f" d="M355.409,214.687a1.909,1.909,0,0,0-1.076-.328,4.415,4.415,0,0,0-2.786.665l.341.231a12.872,12.872,0,0,0,.231-1.574,10.054,10.054,0,0,0-.812-5.42,25.339,25.339,0,0,1,.348,5.38c-.046.537-.118,1.053-.2,1.526l-.1.523.437-.293a4.629,4.629,0,0,1,2.528-.758C354.992,214.636,355.392,214.747,355.409,214.687Z" transform="translate(-351.29 -208.26)"/></g><g transform="translate(53.656 16.139)"><path class="f" d="M364.308,192.558c-.122.018.053.961.9,1.7s1.8.794,1.8.669c.028-.132-.765-.368-1.5-1.02C364.775,193.268,364.437,192.513,364.308,192.558Z" transform="translate(-364.274 -192.556)"/></g></g><g transform="translate(39.503 22.877)"><path class="n" d="M192.819,131.181" transform="translate(-192.819 -131.181)"/></g><g transform="translate(0 86.752)"><g transform="translate(82.111 1.449)"><path class="d" d="M245.974,312.133l31.778.312-5.346-23.061,1.786,4.35a21.9,21.9,0,0,0,20.263,13.586h0c10.05,0,17-7.478,21.248-16.583,9.941-21.29,19.522-55.574,19.522-55.574l-19.382-17.025c-14.022,26.528-27.2,49.569-27.2,49.569s-3.806-11.569-6.745-21.888-2.921-15.747-7.437-20.9c-6.945-7.915-16.845-9.884-26.036-12.252l-.344,42.836-2.1,56.625" transform="translate(-245.974 -212.673)"/></g><path class="d" d="M189.3,279.868l57.871,11.273L250,313.374l-88.738,0a17.482,17.482,0,0,1-17.663-18.857c1.277-16.2,2.664-36.17,3.718-44.607a57.857,57.857,0,0,1,6.555-19.242c4.478-8.434,19.408-19.267,32.5-19.8l2.479,55.128" transform="translate(-143.539 -210.865)"/><g transform="translate(28.401 16.968)"><path class="g" d="M185.313,282.457a2.511,2.511,0,0,1-.026-.53c0-.39,0-.893.006-1.517.008-1.368.018-3.259.032-5.575.006-4.707-.083-11.21-.448-18.382-.18-3.587-.415-7-.664-10.1a41.544,41.544,0,0,0-1.163-8.142,11.577,11.577,0,0,0-2.551-4.837,17.257,17.257,0,0,0-1.527-1.339,6.217,6.217,0,0,1,1.643,1.226,11.329,11.329,0,0,1,2.718,4.867,40.05,40.05,0,0,1,1.263,8.193c.27,3.1.517,6.522.7,10.114.366,7.182.408,13.694.326,18.405-.04,2.356-.105,4.261-.165,5.577l-.083,1.515A2.537,2.537,0,0,1,185.313,282.457Z" transform="translate(-178.97 -232.033)"/></g><g transform="translate(34.744 67.388)"><path class="g" d="M254.655,309.391a8.914,8.914,0,0,0-2.107-1.707,13.175,13.175,0,0,0-2.956-1.181c-1.2-.341-2.6-.606-4.147-.923-6.184-1.26-14.723-3.016-24.186-4.782s-18.067-3.2-24.3-4.2l-7.379-1.184-2-.336a4.422,4.422,0,0,1-.7-.145,4.588,4.588,0,0,1,.707.062l2.016.258c1.75.232,4.279.588,7.4,1.053,6.244.926,14.858,2.3,24.328,4.077s18,3.57,24.171,4.9c1.54.335,2.943.621,4.151.988a12.829,12.829,0,0,1,2.973,1.266,6.865,6.865,0,0,1,1.588,1.285,4.116,4.116,0,0,1,.337.41C254.627,309.334,254.66,309.386,254.655,309.391Z" transform="translate(-186.883 -294.933)"/></g><g transform="translate(20.277 67.384)"><path class="g" d="M183.474,294.936c.018.075-1.067.325-2.717,1a22.662,22.662,0,0,0-2.8,1.38,22.306,22.306,0,0,0-5.824,4.894,22.656,22.656,0,0,0-1.843,2.521c-.946,1.509-1.379,2.535-1.45,2.5a2.845,2.845,0,0,1,.251-.742,14.768,14.768,0,0,1,.947-1.915,19.665,19.665,0,0,1,1.8-2.613,20.653,20.653,0,0,1,5.929-4.982,19.7,19.7,0,0,1,2.885-1.323,14.8,14.8,0,0,1,2.049-.6A2.848,2.848,0,0,1,183.474,294.936Z" transform="translate(-168.835 -294.928)"/></g><g transform="translate(104.68 26.134)"><path class="g" d="M279.1,298.579a2.82,2.82,0,0,1-.12-.551c-.067-.406-.154-.934-.263-1.592-.221-1.384-.514-3.39-.851-5.872-.677-4.964-1.495-11.84-2.181-19.455s-1.1-14.529-1.324-19.535c-.111-2.5-.18-4.529-.209-5.929-.01-.667-.018-1.2-.025-1.614a2.832,2.832,0,0,1,.019-.564,2.865,2.865,0,0,1,.064.56l.1,1.61c.083,1.447.2,3.457.341,5.921.3,5,.762,11.9,1.445,19.513s1.456,14.483,2.058,19.455c.3,2.45.544,4.449.72,5.887.077.662.138,1.194.185,1.6A2.963,2.963,0,0,1,279.1,298.579Z" transform="translate(-274.129 -243.468)"/></g><g transform="translate(124.411 55.772)"><path class="g" d="M303.176,297.294c-.022.017-.187-.171-.465-.527a14.618,14.618,0,0,1-1.066-1.59,21.064,21.064,0,0,1-2.845-12.157,14.656,14.656,0,0,1,.25-1.9,2.291,2.291,0,0,1,.183-.68c.071.012-.087,1-.138,2.593a23.753,23.753,0,0,0,2.807,12C302.656,296.44,303.235,297.251,303.176,297.294Z" transform="translate(-298.743 -280.441)"/></g><g transform="translate(6.055 30.155)"><path class="i" d="M179.547,255.938c0,.014-.1.036-.3.064a7.706,7.706,0,0,1-.872.083,13.389,13.389,0,0,1-3.213-.251,23.248,23.248,0,0,1-4.559-1.428c-1.662-.688-3.424-1.574-5.271-2.491A39.365,39.365,0,0,0,160,249.681a18.2,18.2,0,0,0-4.607-.9,15.021,15.021,0,0,0-4.3.486c0-.014.09-.059.277-.131a6.461,6.461,0,0,1,.83-.279,10.864,10.864,0,0,1,3.2-.37,17.491,17.491,0,0,1,4.711.828,36.958,36.958,0,0,1,5.405,2.227c1.85.919,3.6,1.812,5.235,2.511a24.714,24.714,0,0,0,4.468,1.493A20.232,20.232,0,0,0,179.547,255.938Z" transform="translate(-151.093 -248.483)"/></g><g transform="translate(34.916 35.629)"><path class="i" d="M196.6,255.339a28.006,28.006,0,0,1-4.717,1.016,27.953,27.953,0,0,1-4.786.6,27.948,27.948,0,0,1,4.717-1.015A28.088,28.088,0,0,1,196.6,255.339Z" transform="translate(-187.097 -255.313)"/></g><g transform="translate(2.896 52.861)"><path class="i" d="M178.407,276.813a7.444,7.444,0,0,1-1.166.5c-.762.293-1.873.7-3.263,1.145A83.629,83.629,0,0,1,162.9,281.2c-2.2.386-4.3.665-6.228.857a25,25,0,0,1-5.144.14,8.8,8.8,0,0,1-3.341-.953,5.084,5.084,0,0,1-.794-.517c-.169-.135-.253-.212-.244-.223.024-.034.381.248,1.11.595a9.329,9.329,0,0,0,3.295.8,26.634,26.634,0,0,0,5.077-.229c1.912-.212,4.008-.5,6.2-.886a101.548,101.548,0,0,0,11.061-2.609c1.4-.412,2.519-.771,3.3-1.017A7.334,7.334,0,0,1,178.407,276.813Z" transform="translate(-147.152 -276.809)"/></g><g transform="translate(35.455 56.936)"><path class="i" d="M196.507,282.042a23.016,23.016,0,0,1-4.365.281,23.027,23.027,0,0,1-4.373-.136,23.194,23.194,0,0,1,4.365-.281A23.017,23.017,0,0,1,196.507,282.042Z" transform="translate(-187.77 -281.894)"/></g><g transform="translate(2.941 67.193)"><path class="i" d="M147.211,321.1a1.659,1.659,0,0,1,.084-.426l.322-1.2.243-.868c.1-.313.236-.645.368-1.006a23.765,23.765,0,0,1,.993-2.416l.652-1.374c.232-.475.529-.94.806-1.438a34.617,34.617,0,0,1,1.97-3.059,36.594,36.594,0,0,1,12.486-10.86,34.732,34.732,0,0,1,3.3-1.528c.531-.205,1.032-.435,1.536-.6l1.451-.456a23.732,23.732,0,0,1,2.531-.648c.376-.08.723-.169,1.047-.224l.893-.121,1.236-.152a1.688,1.688,0,0,1,.433-.024,1.817,1.817,0,0,1-.422.108l-1.22.229-.881.155c-.321.067-.663.167-1.033.257a25.636,25.636,0,0,0-2.5.7l-1.429.477c-.5.17-.99.406-1.513.616-1.056.4-2.119.977-3.252,1.547a37.489,37.489,0,0,0-12.357,10.749c-.721,1.043-1.438,2.015-1.982,3.006-.281.49-.582.946-.819,1.413l-.671,1.35a25.345,25.345,0,0,0-1.041,2.374c-.142.354-.288.68-.4.988l-.276.851-.4,1.177A1.731,1.731,0,0,1,147.211,321.1Z" transform="translate(-147.208 -294.69)"/></g><g transform="translate(30.812 68.98)"><path class="i" d="M194.312,296.92a14.349,14.349,0,0,0-3.294,4.137,20.189,20.189,0,0,0-1.842,5.441,55.715,55.715,0,0,0-.759,7.048,49.809,49.809,0,0,1-.821,7.1,19.346,19.346,0,0,1-2.009,5.488,12.286,12.286,0,0,1-2.444,3.091,8.161,8.161,0,0,1-.843.663,1.209,1.209,0,0,1-.32.193,14.131,14.131,0,0,0,3.349-4.09,19.835,19.835,0,0,0,1.89-5.424,52.946,52.946,0,0,0,.782-7.045,51.914,51.914,0,0,1,.8-7.1,19.662,19.662,0,0,1,1.959-5.5,12.394,12.394,0,0,1,2.4-3.122,8.078,8.078,0,0,1,.832-.676A1.248,1.248,0,0,1,194.312,296.92Z" transform="translate(-181.978 -296.918)"/></g><g transform="translate(56.785 71.803)"><path class="i" d="M214.42,331.28c-.115,0,.018-6.911.3-15.426s.6-15.417.714-15.414-.018,6.91-.3,15.428S214.535,331.284,214.42,331.28Z" transform="translate(-214.379 -300.44)"/></g><g transform="translate(77.133 75.68)"><path class="i" d="M241.213,331.052a5.241,5.241,0,0,1-.356-1,11.706,11.706,0,0,1-.326-1.2c-.106-.475-.251-1.011-.337-1.617a28.8,28.8,0,0,1-.426-4.281,29.89,29.89,0,0,1,1.592-10.378,28.713,28.713,0,0,1,1.689-3.957c.265-.552.563-1.02.806-1.441a11.749,11.749,0,0,1,.671-1.049,5.068,5.068,0,0,1,.64-.848c.069.045-.794,1.287-1.853,3.471a32.167,32.167,0,0,0-1.588,3.945,31.765,31.765,0,0,0-1.572,10.251,32.086,32.086,0,0,0,.333,4.24C240.841,329.585,241.293,331.03,241.213,331.052Z" transform="translate(-239.764 -305.277)"/></g><g transform="translate(17.948 9.459)"><path class="i" d="M189.618,226.065c-.03.068-1.27-.489-3.348-1.161a37.942,37.942,0,0,0-16.841-1.488c-2.164.3-3.481.628-3.5.556a4.263,4.263,0,0,1,.909-.3,24.787,24.787,0,0,1,2.546-.551,34.046,34.046,0,0,1,16.979,1.5,24.725,24.725,0,0,1,2.411.988A4.224,4.224,0,0,1,189.618,226.065Z" transform="translate(-165.93 -222.666)"/></g><g transform="translate(84.682 45.814)"><path class="i" d="M269.457,268.766a22.944,22.944,0,0,1-2.974-.046c-1.833-.071-4.366-.168-7.162-.239s-5.332-.1-7.167-.117a23.06,23.06,0,0,1-2.972-.1,2.929,2.929,0,0,1,.8-.1c.513-.036,1.256-.07,2.174-.1,1.837-.055,4.377-.075,7.181,0s5.338.215,7.169.361c.916.074,1.656.143,2.167.205A2.984,2.984,0,0,1,269.457,268.766Z" transform="translate(-249.181 -268.019)"/></g><g transform="translate(106.726 43.56)"><path class="i" d="M290.741,265.212c.023.071-1.006.416-2.568,1.186a25.152,25.152,0,0,0-10.016,8.929c-.943,1.463-1.405,2.447-1.472,2.414a2.68,2.68,0,0,1,.263-.719,15.991,15.991,0,0,1,.958-1.851,22.589,22.589,0,0,1,10.141-9.04,16.016,16.016,0,0,1,1.949-.74A2.709,2.709,0,0,1,290.741,265.212Z" transform="translate(-276.681 -265.206)"/></g><g transform="translate(85.678 17.715)"><path class="i" d="M277.725,233.117a11.987,11.987,0,0,0-4.074.572,28.058,28.058,0,0,0-4.109,1.827,33.417,33.417,0,0,1-5.082,2.284,20.7,20.7,0,0,1-10.046.655,19.129,19.129,0,0,1-2.962-.8,5.277,5.277,0,0,1-1.029-.454c.027-.08,1.507.558,4.041.964a21.529,21.529,0,0,0,9.867-.762,35.577,35.577,0,0,0,5.037-2.229,25.848,25.848,0,0,1,4.2-1.766,9.416,9.416,0,0,1,3.044-.436,4.924,4.924,0,0,1,.833.08C277.63,233.08,277.727,233.1,277.725,233.117Z" transform="translate(-250.423 -232.964)"/></g><g transform="translate(83.608 70.83)"><path class="i" d="M273.214,299.993a4.874,4.874,0,0,1-.933.435c-.3.132-.681.282-1.13.426s-.951.336-1.527.48a29.887,29.887,0,0,1-4.081.85,30.956,30.956,0,0,1-10.176-.305,29.814,29.814,0,0,1-4.022-1.093c-.567-.179-1.058-.4-1.5-.571s-.806-.344-1.1-.493a4.771,4.771,0,0,1-.9-.491c.033-.073,1.353.564,3.6,1.275a33.805,33.805,0,0,0,4,.995,33.161,33.161,0,0,0,10.055.3,33.982,33.982,0,0,0,4.054-.754C271.829,300.474,273.185,299.919,273.214,299.993Z" transform="translate(-247.841 -299.226)"/></g><g transform="translate(120.148 58.028)"><path class="i" d="M300.675,320.545c-.01.011-.117-.077-.312-.255s-.492-.431-.823-.807a19.051,19.051,0,0,1-2.536-3.4,27.689,27.689,0,0,1-3.572-13.424,53.843,53.843,0,0,1,1.818-13.84c.431-1.735.82-3.126,1.1-4.085l.335-1.1a1.508,1.508,0,0,1,.144-.376,1.429,1.429,0,0,1-.063.4c-.07.3-.156.673-.259,1.121l-.97,4.111a57.915,57.915,0,0,0-1.687,13.763,28.424,28.424,0,0,0,3.41,13.285,21.4,21.4,0,0,0,2.4,3.442C300.311,320.126,300.7,320.519,300.675,320.545Z" transform="translate(-293.425 -283.256)"/></g><g transform="translate(127.516 53.006)"><path class="i" d="M331.671,292.085a16.059,16.059,0,0,0-4.24-2.383,34.089,34.089,0,0,0-5.133-1.334,57.953,57.953,0,0,1-6.386-1.472,26.266,26.266,0,0,1-10.158-6.108,23.787,23.787,0,0,1-2.4-2.7c-.261-.337-.439-.617-.567-.8s-.184-.289-.172-.3a9.433,9.433,0,0,1,.865,1,29.862,29.862,0,0,0,2.475,2.586,27.313,27.313,0,0,0,10.083,5.925,63.665,63.665,0,0,0,6.335,1.492,31.612,31.612,0,0,1,5.161,1.435,12.312,12.312,0,0,1,3.16,1.761,6.748,6.748,0,0,1,.742.645C331.6,291.988,331.681,292.074,331.671,292.085Z" transform="translate(-302.616 -276.99)"/></g><g transform="translate(139.924 30.243)"><path class="i" d="M343.91,259.7a5.964,5.964,0,0,1-.858-.745c-.263-.253-.588-.556-.986-.887s-.825-.736-1.344-1.128A37.864,37.864,0,0,0,337,254.307a37.048,37.048,0,0,0-10.23-4.378,37.723,37.723,0,0,0-4.476-.875c-.642-.106-1.23-.14-1.743-.195s-.959-.083-1.323-.1a6,6,0,0,1-1.131-.107,5.911,5.911,0,0,1,1.136-.056c.366-.009.814-.007,1.334.03s1.113.046,1.763.135a33.477,33.477,0,0,1,4.535.794,34.758,34.758,0,0,1,10.339,4.424,33.591,33.591,0,0,1,3.707,2.732c.512.41.932.83,1.315,1.183s.7.673.942.944A5.892,5.892,0,0,1,343.91,259.7Z" transform="translate(-318.096 -248.593)"/></g><g transform="translate(84.477 4.545)"><path class="i" d="M260.05,216.545a5.856,5.856,0,0,1-1.521.733,28.838,28.838,0,0,1-7.914,1.844,5.868,5.868,0,0,1-1.689.015c-.01-.126,2.549-.341,5.617-1.064S260,216.428,260.05,216.545Z" transform="translate(-248.925 -216.535)"/></g></g><g transform="translate(96.821 168.887)"><g transform="translate(0 0)"><path class="e" d="M291.534,348.651a2.233,2.233,0,0,1-2.449,2.83h0a2.232,2.232,0,0,1-1.834-1.57l-.676-2.523.1.034a2.328,2.328,0,0,1-2.6,2.751h0c-1.057-.026-1.964-1.534-2.261-2.34h0a4.363,4.363,0,0,1-4.073-1.958l-4.706-7.341-8.713-6.373,5.269-18.83,18.756,12.139c.735.572.847.814,2.019,1.9l12.1,11.13c-1.374.825-2.537.761-4.44,0s-10.267-6.4-10.267-6.4l3.77,16.555" transform="translate(-264.324 -313.33)"/></g><g transform="translate(11.167 19.827)"><path class="f" d="M278.257,338.067c.018-.023.216.095.559.328l.619.432a3.82,3.82,0,0,1,.774.676,3.524,3.524,0,0,1,.637,1.086q.219.629.458,1.312l1.024,3.015c.716,2.143,1.342,4.091,1.775,5.505a13.655,13.655,0,0,1,.619,2.316,13.7,13.7,0,0,1-.9-2.227c-.5-1.392-1.174-3.322-1.889-5.462-.35-1.065-.682-2.079-.992-3.022l-.422-1.323a3.358,3.358,0,0,0-.539-1.014,3.871,3.871,0,0,0-.688-.677l-.576-.488C278.4,338.252,278.239,338.09,278.257,338.067Z" transform="translate(-278.255 -338.064)"/></g><g transform="translate(14.387 15.87)"><path class="f" d="M290.337,351.716a3.208,3.208,0,0,1-.268-.777q-.251-.9-.6-2.147c-.506-1.812-1.194-4.32-2.066-7.051a25.836,25.836,0,0,0-2.882-6.68,5.716,5.716,0,0,0-1.538-1.533c-.437-.275-.721-.354-.708-.4,0-.014.076,0,.213.033a2.686,2.686,0,0,1,.576.222,5.257,5.257,0,0,1,1.694,1.5,23.107,23.107,0,0,1,3.043,6.729c.876,2.745,1.521,5.27,1.954,7.1.215.919.375,1.664.475,2.182A3.047,3.047,0,0,1,290.337,351.716Z" transform="translate(-282.271 -333.128)"/></g><g transform="translate(19.662 14.508)"><path class="f" d="M296.48,352.517a3.735,3.735,0,0,1-.327-.842c-.2-.637-.451-1.418-.742-2.337-.609-1.978-1.424-4.72-2.3-7.755l-2.2-7.773a3.8,3.8,0,0,0-1.283-1.959,5.1,5.1,0,0,0-.777-.414c0-.011.085-.017.237.017a2.02,2.02,0,0,1,.631.263,3.771,3.771,0,0,1,1.47,1.994c.66,1.983,1.437,4.721,2.323,7.758s1.643,5.789,2.18,7.788q.362,1.4.615,2.374A3.785,3.785,0,0,1,296.48,352.517Z" transform="translate(-288.853 -331.429)"/></g></g></g></g></g><g transform="translate(317.462 93.258)"><g transform="translate(0 0)"><g transform="translate(18.865 29.98)"><g transform="translate(22.806 0.001)"><path class="h" d="M440.469,140.2a2.806,2.806,0,1,0,2.806-2.806A2.806,2.806,0,0,0,440.469,140.2Z" transform="translate(-440.469 -137.39)"/></g><g transform="translate(11.577 0)"><circle class="h" cx="2.806" cy="2.806" r="2.806"/></g><path class="h" d="M412.395,138.793a2.806,2.806,0,1,0,3.833-1.027A2.806,2.806,0,0,0,412.395,138.793Z" transform="translate(-412.018 -137.389)"/></g><path class="h" d="M421.558,100a3.343,3.343,0,0,0-.568-.009l-1.667.047c-.366.017-.778.016-1.229.055l-1.471.206-1.716.247-1.917.475a31.052,31.052,0,0,0-9.294,4.053,32.8,32.8,0,0,0-15.066,24.654,34.013,34.013,0,0,0-.091,4.494c.054.76.038,1.533.149,2.3l.349,2.315a32.981,32.981,0,0,0,3.124,9.146,35.227,35.227,0,0,0,5.974,8.22,34.538,34.538,0,0,0,8.607,6.183,31.274,31.274,0,0,0,10.491,3.22,20.838,20.838,0,0,0,2.8.238,25.191,25.191,0,0,0,2.828.051,33.584,33.584,0,0,0,5.666-.716,33.115,33.115,0,0,0,11.279-4.746l-.342.034,11.489,4.612.68.273-.194-.706q-1.74-6.323-3.378-12.282l-.058.3a32.966,32.966,0,0,0,6.131-14.035,29.84,29.84,0,0,0,.447-7.191,23.216,23.216,0,0,0-.326-3.453q-.131-.847-.261-1.681c-.1-.552-.271-1.088-.4-1.626a32.858,32.858,0,0,0-12.818-18.687,31.416,31.416,0,0,0-7.628-4.024l-1.719-.616-1.631-.414-1.492-.37c-.479-.091-.941-.141-1.374-.208-.869-.11-1.631-.26-2.3-.293l-1.688-.057-1.032-.022a1.6,1.6,0,0,0-.349.012,1.541,1.541,0,0,0,.349.048l1.027.081,1.677.113c.664.052,1.42.22,2.279.346a32.677,32.677,0,0,1,26.125,24.235c.125.529.289,1.056.386,1.6q.123.82.248,1.651a22.611,22.611,0,0,1,.3,3.392,29.292,29.292,0,0,1-.466,7.049,32.382,32.382,0,0,1-6.046,13.73l-.1.137.046.167q1.623,5.952,3.352,12.289l.486-.434-11.484-4.624-.18-.072-.163.107a32.431,32.431,0,0,1-11.028,4.636,32.99,32.99,0,0,1-5.538.7,24.84,24.84,0,0,1-2.766-.05,20.3,20.3,0,0,1-2.736-.231,30.6,30.6,0,0,1-10.26-3.138,33.866,33.866,0,0,1-8.431-6.034,34.6,34.6,0,0,1-5.867-8.032,32.4,32.4,0,0,1-3.089-8.95q-.176-1.142-.35-2.268c-.112-.751-.1-1.509-.155-2.254a32.388,32.388,0,0,1,14.746-28.771,31.255,31.255,0,0,1,9.144-4.122l1.893-.5,1.7-.278,1.456-.24c.447-.05.856-.061,1.22-.091l1.658-.12A3.078,3.078,0,0,0,421.558,100Z" transform="translate(-388.484 -99.989)"/></g></g></g></svg>