<?xml version="1.0" encoding="utf-8"?>
<!-- Generator: Adobe Illustrator 19.0.0, SVG Export Plug-In . SVG Version: 6.00 Build 0)  -->
<svg version="1.1" id="Layer_1" xmlns="http://www.w3.org/2000/svg" xmlns:xlink="http://www.w3.org/1999/xlink" x="0px" y="0px"
	 viewBox="-118 328.6 375 136.4" style="enable-background:new -118 328.6 375 136.4;" xml:space="preserve">
<style type="text/css">
	.st0{opacity:0.3;}
	.st1{fill:none;}
	.st2{fill:#EEEEEE;}
	.st3{fill:none;stroke:#5D5D5D;stroke-width:3;stroke-miterlimit:10;}
	.st4{fill:#FFFFFF;stroke:#666464;stroke-linecap:round;stroke-linejoin:round;}
	.st5{fill:#FFFFFF;stroke:#666464;stroke-miterlimit:10;}
	.st6{fill:none;stroke:#666464;stroke-linecap:round;stroke-linejoin:round;}
	.st7{fill:#5D5D5D;}
	.st8{fill:#FCFCFC;stroke:#666464;stroke-linecap:round;stroke-linejoin:round;}
	.st9{fill:none;stroke:#666464;stroke-width:2;stroke-linecap:round;stroke-linejoin:round;}
</style>
<g transform="translate(-4.361 -34.079)" class="st0">
	<g transform="translate(4.361 66.025)">
		<path class="st1" d="M89.8,426.4L73.9,427v-81l15.9,18.7V426.4z"/>
		<path class="st2" d="M196.9,429.9l-15.9,0.5V348l15.8,11.4C196.9,383,196.9,406.5,196.9,429.9z"/>
		<path class="st2" d="M89.8,429.9l-15.9,0.5V348l15.8,11.4C89.7,383,89.7,406.5,89.8,429.9z"/>
		<path class="st2" d="M65.1,398v-31.7h-1.8V361h-2.6v-5.5h-2.1v-3.8H57v-4.1h-2.4v-10.1h-1.5v10.1h-2.6v4.1h-1.2v3.8h-2.2v5.5h-2.8
			v5.2h-2.6v26.3h-3.1v5.4h-5.4v32.2h37V398H65.1z"/>
		<path class="st2" d="M-52.7,383.1v-15.9h-2.1v-8.9l-3.9-19.1l-3.9,19.1v8.9h-1.8v15.9h-3v47h17.5v-47H-52.7z"/>
		<path class="st2" d="M-15.1,368.3v-8h-1v-3.2h-0.4v-1.3h-2.1v1.3h-1.3v-1.2H-22v1.2h-1v-1.2H-25v1.2h-0.5v3.2h-2.4v-3.2h-9.2v3.2
			h-1.3v8h-4.4v61.8h31.6v-61.8H-15.1z"/>
		<path class="st2" d="M241.8,381v-6.3h-1v-2.5h-0.4v-1h-2.1v1H237v-1H235v1h-1v-1h-2.1v1h-0.5v2.5H229v-2.5h-9.2v2.5h-1.3v6.3h-4.4
			v49.2h31.6V381H241.8z"/>
		<path class="st2" d="M-75.5,377.2v-6.8h-1v-2.7h-0.4v-1.1h-2.1v1.1h-1.3v-1h-2.1v1h-1v-1h-2.1v1h-0.5v2.7h-2.4v-2.7h-9.2v2.7h-1.3
			v6.8h-4.4v52.9h31.6v-52.9H-75.5z"/>
		<path class="st2" d="M198.4,430l12,0.4v-61.8l-12,8.6C198.4,394.8,198.4,412.4,198.4,430z"/>
		<path class="st2" d="M163.5,431.2l12,0.4v-61.8l-12,8.6C163.5,396,163.5,413.6,163.5,431.2z"/>
		<path class="st2" d="M148,377.7V360h-2.7V350l-5.2-21.4l-5.2,21.4v9.9h-2.5v17.8h-4v52.5h23.3v-52.5H148z"/>
		<path class="st2" d="M118.8,368.5v-7.9h-8.3v7.9H105v-7.9h-8.5v7.9h-5.4v61.6h33.6v-61.6L118.8,368.5z"/>
		<path class="st2" d="M22.2,381.8v-6.6H14v6.6H8.4v-6.6h-8.5v6.6h-5.4v51.2h33.6v-51.2H22.2z"/>
		<line class="st3" x1="-118" y1="430.2" x2="257" y2="430.2"/>
	</g>
	<g transform="translate(17.32 34.589)">
		<path class="st4" d="M-108.5,460.7c0-0.2-0.2-0.4-0.5-0.6c0.1-0.2,0.1-0.3,0.1-0.5c0-0.9-1-1.6-2.3-1.6c-0.4,0-0.8,0.1-1.2,0.2
			c-0.4-0.2-0.8-0.2-1.3-0.2c-1-0.1-1.9,0.4-2.5,1.2c-0.1,0-0.1,0-0.2,0c-1,0-1.8,0.5-1.8,1.1c0,0.2,0.1,0.4,0.2,0.6l0,0
			c0,0.4,0.4,0.7,0.8,0.7h7.1c0.2,0,0.3-0.1,0.5-0.1C-108.9,461.3-108.5,461-108.5,460.7z"/>
		<path class="st4" d="M116.5,416.1v-5.9h-1.7v-2.1h-11.2v2.1h-4v-2.5H88.5v2.5h-1.7v5.9h-5v45.4h40.4v-45.4H116.5z"/>
		<path class="st5" d="M-24.5,343.4c-0.3-1.2-1.3-2-2.5-2.1c-0.5,0-1,0.1-1.4,0.4c0-0.1,0-0.2,0-0.4c0-1.9-2-3.4-4.5-3.4
			s-4.5,1.5-4.5,3.4c0,0.1,0,0.1,0,0.2c-0.7-1-1.8-1.5-2.9-1.5c-1.8,0-3.3,1.1-3.3,2.6c0,0.1,0,0.1,0,0.2c-0.5-0.3-1.1-0.4-1.6-0.4
			c-1.3,0-2.4,0.7-2.4,1.6c0,0.8,0.9,1.5,2.1,1.6v0h20.9l0.3-1C-24.3,344.1-24.3,343.7-24.5,343.4z"/>
		<path class="st5" d="M57.5,349.1c-0.3-1.2-1.3-2-2.5-2.1c-0.5,0-1,0.1-1.4,0.4c0-0.1,0-0.2,0-0.4c0-1.9-2-3.4-4.5-3.4
			s-4.5,1.5-4.5,3.4c0,0.1,0,0.1,0,0.2c-0.7-1-1.8-1.5-2.9-1.5c-1.8,0-3.3,1.1-3.3,2.6c0,0.1,0,0.1,0,0.2c-0.5-0.3-1.1-0.4-1.6-0.4
			c-1.3,0-2.4,0.7-2.4,1.6c0,0.8,0.9,1.5,2.1,1.6v0h20.9l0.3-1C57.7,349.9,57.6,349.5,57.5,349.1z"/>
		<path class="st5" d="M7.2,374.3c-0.5-1.7-1.8-3.6-3.7-3.6c-0.7,0-1.4,0.2-2,0.6c0-0.2,0-0.4,0-0.6c0-3.2-2.9-5.7-6.5-5.7
			s-6.5,2.6-6.5,5.7c0,0.1,0,0.2,0,0.3c-0.9-1.5-2.5-2.5-4.3-2.5c-2.5-0.1-4.6,1.8-4.7,4.3c0,0.1,0,0.2,0,0.4
			c-0.7-0.5-1.5-0.7-2.4-0.7c-1.9,0-3.5,1.2-3.5,2.7c0,1.4,1.3,2.5,3,2.7v0H7c0.1-0.6,0.3-1.1,0.4-1.7
			C7.4,375.6,7.3,374.9,7.2,374.3z"/>
		<path class="st5" d="M73.4,380.7c-0.3-0.9-1-1.5-1.9-1.6c-0.4,0-0.8,0.1-1.1,0.3c0-0.1,0-0.2,0-0.3c0-1.4-1.5-2.6-3.5-2.6
			s-3.5,1.2-3.5,2.6c0,0,0,0.1,0,0.1c-0.5-0.7-1.4-1.2-2.3-1.1c-1.2-0.1-2.3,0.7-2.5,2c0,0.1,0,0.1,0,0.2c-0.4-0.2-0.8-0.3-1.2-0.3
			c-1,0-1.9,0.6-1.9,1.2c0,0.6,0.7,1.1,1.6,1.2v0h16.1l0.2-0.8C73.6,381.3,73.5,381,73.4,380.7z"/>
		<path class="st5" d="M126.1,345.2c-0.5-1.4-1.8-3-3.6-3c-0.7,0-1.4,0.2-2,0.5c0-0.2,0-0.3,0-0.5c0-2.7-2.9-4.9-6.4-4.9
			s-6.4,2.2-6.4,4.9c0,0.1,0,0.2,0,0.2c-1-1.4-2.5-2.2-4.2-2.1c-2.6,0-4.7,1.6-4.7,3.6c0,0.1,0,0.2,0,0.3c-0.7-0.4-1.5-0.6-2.3-0.6
			c-1.9,0-3.5,1-3.5,2.3c0,1.2,1.3,2.1,3,2.3v0h29.9l0.4-1.4C126.3,346.3,126.2,345.7,126.1,345.2z"/>
		<path class="st5" d="M180.7,355.1c-0.4-1.3-1.5-2.2-2.8-2.4c-0.5,0-1.1,0.1-1.6,0.4c0-0.1,0-0.3,0-0.4c0-2.1-2.2-3.8-5-3.8
			s-5,1.7-5,3.8c0,0.1,0,0.1,0,0.2c-0.7-1.1-2-1.7-3.3-1.6c-2,0-3.6,1.3-3.6,2.8c0,0.1,0,0.2,0,0.2c-0.5-0.3-1.2-0.5-1.8-0.5
			c-1.5,0-2.7,0.8-2.7,1.8c0,0.9,1,1.6,2.3,1.8v0h23.1l0.3-1.1C180.9,356,180.9,355.5,180.7,355.1z"/>
		<path class="st5" d="M183.1,384.5c-0.3-1.1-1.3-1.9-2.4-2c-0.5,0-0.9,0.1-1.4,0.3c0-0.1,0-0.2,0-0.3c0-1.8-1.9-3.3-4.3-3.3
			s-4.3,1.5-4.3,3.3c0,0.1,0,0.1,0,0.2c-0.6-0.9-1.7-1.4-2.8-1.4c-1.7,0-3.1,1.1-3.1,2.5c0,0.1,0,0.1,0,0.2c-0.5-0.3-1-0.4-1.6-0.4
			c-1.3,0-2.3,0.7-2.3,1.6c0,0.8,0.9,1.4,2,1.5v0H183l0.3-1C183.3,385.2,183.2,384.8,183.1,384.5z"/>
		<path class="st5" d="M-61.6,378.2c-0.3-1.2-1.3-2-2.5-2.1c-0.5,0-1,0.1-1.4,0.4c0-0.1,0-0.2,0-0.4c0-1.9-2-3.4-4.5-3.4
			s-4.5,1.5-4.5,3.4c0,0.1,0,0.1,0,0.2c-0.7-1-1.8-1.5-3-1.5c-1.8,0-3.3,1.1-3.3,2.6c0,0.1,0,0.1,0,0.2c-0.5-0.3-1.1-0.4-1.6-0.4
			c-1.3,0-2.4,0.7-2.4,1.6c0,0.8,0.9,1.5,2.1,1.6v0h21l0.3-1C-61.4,379-61.5,378.6-61.6,378.2z"/>
		<path class="st6" d="M-1.8,328.9c0.7-0.2,1.4-0.1,2,0.3c0.5,0.3,0.9,0.8,1,1.4c-0.2-0.6,0-1.3,0.5-1.7c0.4-0.2,0.8-0.3,1.2-0.2"/>
		<path class="st6" d="M-60,358.3c0.9-0.2,1.8-0.1,2.6,0.4c0.7,0.4,1.1,1.1,1.3,1.8c-0.3-0.8,0-1.7,0.7-2.2c0.5-0.3,1.1-0.4,1.6-0.3
			"/>
		<path class="st6" d="M-51,363.4c0.5-0.1,1.1,0,1.5,0.2c0.4,0.2,0.7,0.6,0.8,1.1c-0.2-0.5,0-1,0.4-1.3c0.3-0.2,0.6-0.2,0.9-0.1"/>
		<path class="st6" d="M133.6,364.6c1-0.2,2-0.1,2.8,0.4c0.7,0.4,1.2,1.1,1.4,1.9c-0.3-0.9,0-1.8,0.7-2.3c0.5-0.3,1.1-0.4,1.7-0.3"
			/>
		<path class="st6" d="M200.3,397.6c0.6-0.2,1.2-0.1,1.8,0.3c0.4,0.3,0.8,0.7,0.9,1.2c-0.2-0.5,0-1.1,0.5-1.5
			c0.3-0.2,0.7-0.3,1.1-0.2"/>
		<path class="st6" d="M106.6,387.5c0.5-0.1,1.1,0,1.5,0.2c0.4,0.2,0.7,0.6,0.8,1c-0.2-0.5,0-1,0.4-1.3c0.3-0.2,0.6-0.2,0.9-0.1"/>
		<path class="st6" d="M23.5,391.8c0.8-0.2,1.6-0.1,2.3,0.3c0.6,0.4,1,0.9,1.2,1.6c-0.3-0.7,0-1.5,0.6-1.9c0.4-0.3,0.9-0.3,1.4-0.2"
			/>
		<path class="st6" d="M18.5,400.2c0.5-0.1,1,0,1.4,0.2c0.3,0.2,0.6,0.6,0.7,0.9c-0.2-0.4,0-0.9,0.4-1.2c0.3-0.2,0.6-0.2,0.9-0.1"/>
		<path class="st6" d="M-97.4,395.7c0.5-0.1,1,0,1.4,0.2c0.3,0.2,0.6,0.6,0.7,0.9c-0.2-0.4,0-0.9,0.4-1.2c0.3-0.2,0.6-0.2,0.9-0.1"
			/>
		<path class="st4" d="M-60,436.5v-24.7h-1.8v-4.1h-2.6v-4.3h-2.1v-3h-1.7v-3.2h-2.4v-7.8h-1.5v7.8h-2.6v3.2h-1.2v3H-78v4.3h-2.8
			v4.1h-2.6v20.5h-3.1v4.2H-92v25.1h37v-25.1H-60z"/>
		<path class="st4" d="M-50.8,424.1V422h-8.9V436l4.7,0c0,5,0,10,0,15l8-4.5l0.4,0.3c0-7.5,0-15.1,0-22.6L-50.8,424.1z"/>
		<path class="st4" d="M-85.9,428.2h-2.6v-3.4h-3.8v-1.7h-7.9v1.7h-3.7v3.4h-2.3v33.3h13.9c0-8.4,0-16.8,0-25.2h5.5v-4.6h0.8
			L-85.9,428.2z"/>
		<rect x="-98.7" y="420.5" class="st7" width="1.6" height="2.6"/>
		<rect x="-96.1" y="420.5" class="st7" width="1.5" height="2.6"/>
		<path class="st4" d="M-16.7,416.1v-5.8h-1v-2.3h-0.4v-1h-2.1v1h-1.3V407h-2.1v0.9h-1V407h-2.1v0.9h-0.5v2.3h-2.4v-2.3h-9.2v2.3
			h-1.3v5.8h-4.4v45.4h31.6v-45.4H-16.7z"/>
		<path class="st4" d="M-41,449.3v-3.3h-2v2.5l-4.1-1.8l-7.7,4.4v10.6h17.7v-10.8L-41,449.3z"/>
		<rect x="-35.9" y="402.1" class="st7" width="1.5" height="5.8"/>
		<rect x="-33.6" y="402.1" class="st7" width="1.8" height="5.8"/>
		<path class="st4" d="M8.6,408.2v-4.7H6v-5.1L1.3,385l-4.6,13.4v5.1h-2.4v4.7h-3.6v41.3H12v-41.3H8.6z"/>
		<path class="st8" d="M43.7,426.9l-11.1,0.2V395l11.1,7.4V426.9z"/>
		<path class="st8" d="M40.4,427h10v-18.9l-9.9,5.8L40.4,427z"/>
		<path class="st8" d="M74.2,418.9V412l-12.4-4.8v7.3l-2.4-0.9v47.9h16.9v-42L74.2,418.9z"/>
		<path class="st8" d="M86.7,429.9H69.7v3.4h1.2v28.2h15v-28.2h0.9L86.7,429.9z"/>
		<path class="st6" d="M102.3,418.9v-4.4h-3.3v-2.3h-5v2.3H91v4.4h-1.9v42.7h15.1v-42.7H102.3z"/>
		<path class="st4" d="M139.8,408.3v-10.4h-2.1v-5.8l-3.9-12.5l-3.9,12.5v5.8H128v10.4h-3v30.6h17.5v-30.6H139.8z"/>
		<path class="st4" d="M48.1,426.8v-4.4H37.8v4.4H30v-4.4H18.6v4.4h-8v34.7h44v-34.7H48.1z"/>
		<path class="st4" d="M163.3,418.5v-3.7h-3.8v-2.1h-7.5v2.1h-3.8v3.7h-2.6v43h19.8v-43H163.3z"/>
		<path class="st4" d="M24.3,448.7H10.8v-2.5H-1.5v2.5H-15v2.6h2.3v10.2H22v-10.2h2.4V448.7z"/>
		<path class="st4" d="M68.9,441.1H54.4v-2.8h-9.5v2.8H30.4v3.3h0.9v17.2h36.3v-17.2h1.2V441.1z"/>
		<path class="st4" d="M138.3,436.1v-3.9h-9.8v3.9h-6.4v-4.3h-9.9v4.3h-5.4v25.4h37.1v-25.4H138.3z"/>
		<path class="st4" d="M181,423.8v-2h-9.6v2h-3.7v37.7h17v-37.7H181z"/>
		<path class="st4" d="M202.5,436.1v-3.3h-7.6v3.3h-5.2v-3.3h-7.8v3.3h-5v25.4h31v-25.4H202.5z"/>
		<path class="st4" d="M220.4,451.3h-9.8v-1.4h-9.5v1.4h-10.3v2.2h1.9v8H219v-8h1.5L220.4,451.3z"/>
		<path class="st4" d="M116,451.3l-7.4-5.2l-6.9,5.2v10.2H116L116,451.3z"/>
		<line class="st6" x1="-101.6" y1="430.4" x2="-91.2" y2="430.4"/>
		<line class="st6" x1="-101.6" y1="433.9" x2="-91.2" y2="433.9"/>
		<line class="st6" x1="-101.6" y1="437.6" x2="-92.5" y2="437.6"/>
		<line class="st6" x1="-101.4" y1="441.2" x2="-92.3" y2="441.2"/>
		<line class="st6" x1="-101.4" y1="444.9" x2="-92.3" y2="444.9"/>
		<g transform="translate(10.519 123.702)">
			<path class="st4" d="M-112.2,330c-0.3-1-1.3-1.6-2.2-1.3c-0.6,0.2-1.1,0.6-1.3,1.2c-0.8-0.3-1.8,0.1-2.2,0.9s0.1,1.8,0.9,2.2
				c0.2,0.1,0.4,0.1,0.6,0.1h0c0,0,0,0,0,0.1c0,0.9,0.8,1.7,1.7,1.6c0.7,0,1.3-0.5,1.6-1.2c0.1,0,0.2,0,0.3,0c1.1,0,1.9-0.8,2-1.9
				C-110.8,331-111.4,330.2-112.2,330z"/>
			<line class="st6" x1="-114.4" y1="331.5" x2="-114.4" y2="338.1"/>
			<line class="st6" x1="-114.4" y1="332.9" x2="-113.2" y2="331.7"/>
			<line class="st6" x1="-114.4" y1="334.2" x2="-115.5" y2="333"/>
		</g>
		<line class="st6" x1="-101.6" y1="448.2" x2="-97.2" y2="448.2"/>
		<line class="st6" x1="-101.4" y1="451.6" x2="-99.6" y2="451.6"/>
		<path class="st4" d="M-60.2,436.5v-4.2h-10.5v4.2h-6.4v-4.2h-9.5v4.2H-92v25.1h37v-25.1L-60.2,436.5z"/>
		<g transform="translate(18.618 117.767)">
			<path class="st4" d="M-106.6,334.5c-0.1-1.6-1.5-2.9-3.2-2.9c0,0,0,0,0,0c-0.1-1.7-1.5-3.1-3.2-3c-1.6,0.1-2.9,1.4-3,3
				c0,0.1,0,0.2,0,0.3c-1.1,0.2-2,1.2-2.1,2.3c0.1,1.2,1,2.1,2.2,2.3c-0.1,0.2-0.1,0.5-0.1,0.7c0.4,1.8,2.1,3,3.9,2.6
				c1.3-0.3,2.3-1.3,2.6-2.5C-107.9,337.3-106.7,336.1-106.6,334.5z"/>
			<line class="st6" x1="-112.5" y1="334.7" x2="-112.5" y2="344.5"/>
			<line class="st6" x1="-112.5" y1="336.6" x2="-110.6" y2="334.9"/>
			<line class="st6" x1="-112.5" y1="338.6" x2="-114.4" y2="336.9"/>
		</g>
		<rect x="-86.5" y="439.4" class="st4" width="3.4" height="3"/>
		<rect x="-80.1" y="439.4" class="st4" width="3.4" height="3"/>
		<rect x="-80.1" y="443.9" class="st4" width="3.4" height="3"/>
		<rect x="-86.5" y="443.9" class="st4" width="3.4" height="3"/>
		<rect x="-86.5" y="448.6" class="st4" width="3.4" height="3"/>
		<rect x="-80.1" y="448.6" class="st4" width="3.4" height="3"/>
		<rect x="-80.1" y="453.2" class="st4" width="3.4" height="3"/>
		<rect x="-86.5" y="453.2" class="st4" width="3.4" height="3"/>
		<rect x="-70.6" y="439.4" class="st4" width="3.4" height="3"/>
		<rect x="-64.2" y="439.4" class="st4" width="3.4" height="3"/>
		<rect x="-70.6" y="444.1" class="st4" width="3.4" height="3"/>
		<rect x="-64.2" y="444.1" class="st4" width="3.4" height="3"/>
		<rect x="-64.2" y="448.6" class="st4" width="3.4" height="3"/>
		<rect x="-70.6" y="448.6" class="st4" width="3.4" height="3"/>
		<rect x="-70.6" y="453.2" class="st4" width="3.4" height="3"/>
		<rect x="-64.2" y="453.2" class="st4" width="3.4" height="3"/>
		<line class="st6" x1="-76.9" y1="436.2" x2="-76.9" y2="412.1"/>
		<line class="st6" x1="-73.6" y1="436.1" x2="-73.6" y2="412.1"/>
		<line class="st6" x1="-69.8" y1="432" x2="-69.8" y2="412.1"/>
		<line class="st6" x1="-66.1" y1="432" x2="-66.1" y2="412.1"/>
		<rect x="-56.1" y="428.3" class="st7" width="1.7" height="1.6"/>
		<rect x="-52.4" y="428.3" class="st7" width="1.7" height="1.6"/>
		<rect x="-56.1" y="432" class="st7" width="1.7" height="1.6"/>
		<rect x="-52.4" y="432" class="st7" width="1.7" height="1.6"/>
		<rect x="-52.4" y="435.9" class="st7" width="1.7" height="1.6"/>
		<rect x="-52.4" y="439.4" class="st7" width="1.7" height="1.6"/>
		<rect x="-52.4" y="443.3" class="st7" width="1.7" height="1.6"/>
		<rect x="-54.8" y="453.9" class="st4" width="4" height="4.7"/>
		<rect x="-49.1" y="453.9" class="st4" width="3.2" height="4.7"/>
		<rect x="-44.5" y="453.9" class="st4" width="5.1" height="4.7"/>
		<line class="st9" x1="-39.2" y1="422" x2="-29.6" y2="422"/>
		<line class="st9" x1="-26.7" y1="422" x2="-17.5" y2="422"/>
		<line class="st9" x1="-39" y1="426.5" x2="-29.8" y2="426.5"/>
		<line class="st9" x1="-26.5" y1="426.5" x2="-17.3" y2="426.5"/>
		<line class="st9" x1="-26.5" y1="430.9" x2="-17.3" y2="430.9"/>
		<line class="st9" x1="-39.2" y1="430.9" x2="-30" y2="430.9"/>
		<line class="st9" x1="-39" y1="435.3" x2="-29.8" y2="435.3"/>
		<line class="st9" x1="-26.7" y1="435.3" x2="-17.5" y2="435.3"/>
		<line class="st9" x1="-39.2" y1="439.6" x2="-30" y2="439.6"/>
		<line class="st9" x1="-26.7" y1="439.6" x2="-17.5" y2="439.6"/>
		<line class="st9" x1="-39" y1="443.9" x2="-29.8" y2="443.9"/>
		<line class="st9" x1="-26.7" y1="443.9" x2="-17.5" y2="443.9"/>
		<line class="st9" x1="-39.2" y1="448.3" x2="-30" y2="448.3"/>
		<line class="st9" x1="-26.7" y1="448.3" x2="-17.5" y2="448.3"/>
		<path class="st4" d="M-20.6,455.4l-1.8-4h-8.4c-0.4,1.3-0.7,2.7-1.1,4h-2v3.6h16.4v-3.6H-20.6z"/>
		<circle class="st4" cx="-30.7" cy="459.8" r="1.4"/>
		<circle class="st4" cx="-20.3" cy="460.1" r="1.4"/>
		<path class="st4" d="M-29.8,455.4h2.7v-2.2l-1.9,0L-29.8,455.4z"/>
		<path class="st4" d="M-22.7,455.4h-2.7v-2.2l1.9,0C-23.2,453.9-22.9,454.7-22.7,455.4z"/>
		<line class="st6" x1="-3.5" y1="411" x2="-3.5" y2="448.3"/>
		<line class="st6" x1="-0.1" y1="411" x2="-0.1" y2="445.9"/>
		<line class="st6" x1="3" y1="411" x2="3" y2="445.9"/>
		<line class="st6" x1="6.6" y1="411" x2="6.6" y2="445.9"/>
		<rect x="-8.1" y="454.8" class="st6" width="2.2" height="4.2"/>
		<rect x="-4.2" y="454.8" class="st6" width="2.2" height="4.2"/>
		<rect x="1.7" y="454.8" class="st6" width="2.2" height="4.2"/>
		<rect x="5.6" y="454.8" class="st6" width="2.2" height="4.2"/>
		<rect x="11.8" y="454.8" class="st6" width="2.2" height="4.2"/>
		<rect x="15.7" y="454.8" class="st6" width="2.2" height="4.2"/>
		<rect x="25.9" y="455.8" class="st6" width="3.1" height="1.9"/>
		<rect x="25.9" y="450.7" class="st6" width="3.1" height="1.9"/>
		<rect x="25.9" y="445.7" class="st6" width="3.1" height="1.9"/>
		<rect x="18.9" y="445.7" class="st6" width="3.1" height="1.9"/>
		<rect x="18.9" y="440.4" class="st6" width="3.1" height="1.9"/>
		<rect x="25.9" y="440.4" class="st6" width="3.1" height="1.9"/>
		<rect x="25.9" y="435.5" class="st6" width="3.1" height="1.9"/>
		<rect x="18.9" y="435.5" class="st6" width="3.1" height="1.9"/>
		<rect x="18.9" y="430.2" class="st6" width="3.1" height="1.9"/>
		<rect x="25.9" y="430.2" class="st6" width="3.1" height="1.9"/>
		<rect x="36.4" y="430.2" class="st6" width="3.1" height="1.9"/>
		<rect x="36.4" y="435.5" class="st6" width="3.1" height="1.9"/>
		<rect x="43.5" y="435.5" class="st6" width="3.1" height="1.9"/>
		<rect x="43.5" y="430.2" class="st6" width="3.1" height="1.9"/>
		<line class="st6" x1="49.7" y1="433.5" x2="49.7" y2="438.3"/>
		<rect x="35.6" y="447.1" class="st6" width="2.3" height="2.2"/>
		<rect x="40.6" y="447.1" class="st6" width="2.3" height="2.2"/>
		<rect x="45.9" y="447.1" class="st6" width="2.3" height="2.2"/>
		<rect x="51" y="447.1" class="st6" width="2.3" height="2.2"/>
		<rect x="56.2" y="447.1" class="st6" width="2.3" height="2.2"/>
		<rect x="61.4" y="447.1" class="st6" width="2.3" height="2.2"/>
		<rect x="61.4" y="450.9" class="st6" width="2.3" height="2.2"/>
		<rect x="40.6" y="450.9" class="st6" width="2.3" height="2.2"/>
		<rect x="35.6" y="450.9" class="st6" width="2.3" height="2.2"/>
		<rect x="35.6" y="455.2" class="st6" width="2.3" height="2.2"/>
		<rect x="40.6" y="455.2" class="st6" width="2.3" height="2.2"/>
		<g transform="translate(162.686 122.357)">
			<path class="st4" d="M-98.2,333.4h-4l-1.6-4.7H-118v8.4l17.1,0l0,0h2.7V333.4z"/>
			<ellipse class="st4" cx="-114.3" cy="337.7" rx="1.6" ry="1.6"/>
			<ellipse class="st4" cx="-102.1" cy="337.7" rx="1.6" ry="1.6"/>
			<rect x="-113.8" y="330.4" class="st7" width="4.7" height="3"/>
			<path class="st7" d="M-104.4,333.6h-3v-3.2l2,0L-104.4,333.6z"/>
			<rect x="-116.3" y="330.5" class="st7" width="1.4" height="2.8"/>
		</g>
		<path class="st4" d="M78.4,460.3c0-0.2-0.2-0.4-0.5-0.6c0.1-0.2,0.1-0.3,0.1-0.5c0-0.9-1-1.6-2.3-1.6c-0.4,0-0.8,0.1-1.2,0.2
			c-0.4-0.2-0.8-0.2-1.3-0.2c-1-0.1-1.9,0.4-2.5,1.2c0,0-0.1,0-0.1,0c-1,0-1.8,0.5-1.8,1.1c0,0.2,0.1,0.4,0.2,0.6l0,0
			c0,0.4,0.4,0.7,0.8,0.7H77c0.2,0,0.3-0.1,0.5-0.1C78,460.9,78.4,460.6,78.4,460.3z"/>
		<path class="st4" d="M102.9,460.3c0-0.2-0.2-0.4-0.5-0.6c0.1-0.2,0.1-0.3,0.1-0.5c0-0.9-1-1.6-2.3-1.6c-0.4,0-0.8,0.1-1.2,0.2
			c-0.4-0.2-0.8-0.2-1.3-0.2c-1-0.1-1.9,0.4-2.5,1.2c-0.1,0-0.1,0-0.1,0c-1,0-1.8,0.5-1.8,1.1c0,0.2,0.1,0.4,0.2,0.6l0,0
			c0,0.4,0.4,0.7,0.8,0.7h7.1c0.2,0,0.3-0.1,0.5-0.1C102.5,460.9,102.9,460.6,102.9,460.3z"/>
		<g transform="translate(201.273 118.167)">
			<path class="st4" d="M-112.6,335.1c-0.1,2.3-1.2,5.2-2.5,5.3c-1.3,0-2.7-2.8-2.8-5.2c-0.2-3.1,1.4-6.5,2.8-6.5
				C-113.8,328.7-112.5,332.2-112.6,335.1z"/>
			<line class="st6" x1="-115.3" y1="335" x2="-115.3" y2="343.4"/>
		</g>
		<g transform="translate(208.255 122.869)">
			<path class="st4" d="M-114.4,332.9c-0.1,1.5-0.8,3.5-1.7,3.5s-1.8-1.9-1.9-3.4c-0.1-2,0.9-4.3,1.9-4.3S-114.3,331-114.4,332.9z"
				/>
			<line class="st6" x1="-116.2" y1="332.9" x2="-116.2" y2="338.4"/>
		</g>
		<rect x="74.3" y="435.2" class="st7" width="1.5" height="1.6"/>
		<rect x="74.3" y="438.3" class="st7" width="1.5" height="1.6"/>
		<rect x="74.3" y="441.5" class="st7" width="1.5" height="1.6"/>
		<rect x="74.3" y="445" class="st7" width="1.5" height="1.6"/>
		<rect x="74.3" y="448.4" class="st7" width="1.5" height="1.6"/>
		<rect x="74.3" y="451.5" class="st7" width="1.5" height="1.6"/>
		<rect x="77.8" y="451.6" class="st7" width="1.5" height="1.6"/>
		<rect x="81" y="451.6" class="st7" width="1.5" height="1.6"/>
		<rect x="77.8" y="448.3" class="st7" width="1.5" height="1.6"/>
		<rect x="81.2" y="448.3" class="st7" width="1.5" height="1.6"/>
		<rect x="77.8" y="445" class="st7" width="1.5" height="1.6"/>
		<rect x="81.2" y="444.9" class="st7" width="1.5" height="1.6"/>
		<rect x="77.8" y="441.5" class="st7" width="1.5" height="1.6"/>
		<rect x="81" y="441.5" class="st7" width="1.5" height="1.6"/>
		<rect x="77.8" y="438.3" class="st7" width="1.5" height="1.6"/>
		<rect x="81.2" y="438.3" class="st7" width="1.5" height="1.6"/>
		<rect x="77.8" y="435.2" class="st7" width="1.5" height="1.6"/>
		<rect x="81.2" y="435.2" class="st7" width="1.5" height="1.6"/>
		<line class="st6" x1="35" y1="405.9" x2="41.6" y2="405.9"/>
		<line class="st6" x1="35.3" y1="410" x2="41.6" y2="410"/>
		<line class="st6" x1="35" y1="413.8" x2="40.5" y2="413.8"/>
		<line class="st6" x1="35" y1="417.5" x2="40.4" y2="417.5"/>
		<line class="st6" x1="35" y1="421.7" x2="40.4" y2="421.7"/>
		<line class="st6" x1="35" y1="425.3" x2="37.8" y2="425.3"/>
		<rect x="92.3" y="421.1" class="st7" width="1.3" height="1.4"/>
		<rect x="92.3" y="424.2" class="st7" width="1.3" height="1.4"/>
		<rect x="92.3" y="427.8" class="st7" width="1.3" height="1.4"/>
		<rect x="92.3" y="431.1" class="st7" width="1.3" height="1.4"/>
		<rect x="92.3" y="434.4" class="st7" width="1.3" height="1.4"/>
		<rect x="92.3" y="437.7" class="st7" width="1.3" height="1.4"/>
		<rect x="92.3" y="441.2" class="st7" width="1.3" height="1.4"/>
		<rect x="92.3" y="444.6" class="st7" width="1.3" height="1.4"/>
		<rect x="92.3" y="447.9" class="st7" width="1.3" height="1.4"/>
		<rect x="96" y="447.9" class="st7" width="1.3" height="1.4"/>
		<rect x="95.9" y="451.3" class="st7" width="1.3" height="1.4"/>
		<rect x="99.5" y="451.3" class="st7" width="1.3" height="1.4"/>
		<rect x="99.5" y="447.9" class="st7" width="1.3" height="1.4"/>
		<rect x="95.9" y="444.6" class="st7" width="1.3" height="1.4"/>
		<rect x="99.5" y="444.6" class="st7" width="1.3" height="1.4"/>
		<rect x="95.9" y="441.2" class="st7" width="1.3" height="1.4"/>
		<rect x="99.5" y="441.2" class="st7" width="1.3" height="1.4"/>
		<rect x="95.9" y="437.6" class="st7" width="1.3" height="1.4"/>
		<rect x="99.5" y="437.6" class="st7" width="1.3" height="1.4"/>
		<rect x="95.9" y="434.4" class="st7" width="1.3" height="1.4"/>
		<rect x="99.5" y="434.4" class="st7" width="1.3" height="1.4"/>
		<rect x="95.9" y="431.1" class="st7" width="1.3" height="1.4"/>
		<rect x="99.5" y="431.1" class="st7" width="1.3" height="1.4"/>
		<rect x="95.9" y="427.8" class="st7" width="1.3" height="1.4"/>
		<rect x="99.5" y="427.8" class="st7" width="1.3" height="1.4"/>
		<rect x="95.9" y="424.2" class="st7" width="1.3" height="1.4"/>
		<rect x="99.5" y="424.2" class="st7" width="1.3" height="1.4"/>
		<rect x="95.9" y="421.1" class="st7" width="1.3" height="1.4"/>
		<rect x="99.5" y="421.1" class="st7" width="1.3" height="1.4"/>
		<rect x="105.4" y="453.8" class="st6" width="2.4" height="4.5"/>
		<rect x="109.7" y="453.8" class="st6" width="2.4" height="4.5"/>
		<rect x="112.1" y="439.6" class="st6" width="3.9" height="2.7"/>
		<rect x="118.6" y="439.6" class="st6" width="3.9" height="2.7"/>
		<rect x="127.9" y="439.6" class="st6" width="3.9" height="2.7"/>
		<rect x="127.9" y="444.1" class="st6" width="3.9" height="2.7"/>
		<rect x="127.9" y="444" class="st6" width="3.9" height="2.7"/>
		<rect x="127.9" y="448.7" class="st6" width="3.9" height="2.7"/>
		<rect x="127.9" y="453.4" class="st6" width="3.9" height="2.7"/>
		<rect x="134.6" y="453.4" class="st6" width="3.9" height="2.7"/>
		<rect x="134.6" y="448.7" class="st6" width="3.9" height="2.7"/>
		<rect x="134.6" y="444" class="st6" width="3.9" height="2.7"/>
		<rect x="134.6" y="439.6" class="st6" width="3.9" height="2.7"/>
		<rect x="118.6" y="444" class="st6" width="3.9" height="2.7"/>
		<rect x="118.6" y="448.7" class="st6" width="3.9" height="2.7"/>
		<rect x="118.6" y="453.4" class="st6" width="3.9" height="2.7"/>
		<rect x="112.1" y="444" class="st6" width="3.9" height="2.7"/>
		<path class="st4" d="M154.5,460.6c0-0.2-0.2-0.4-0.5-0.6c0.1-0.2,0.1-0.3,0.1-0.5c0-0.9-1-1.6-2.3-1.6c-0.4,0-0.8,0.1-1.2,0.2
			c-0.4-0.2-0.8-0.2-1.3-0.2c-1-0.1-1.9,0.4-2.5,1.2c0,0-0.1,0-0.1,0c-1,0-1.8,0.5-1.8,1.1c0,0.2,0.1,0.4,0.2,0.6l0,0
			c0,0.4,0.4,0.7,0.8,0.7h7.1c0.2,0,0.3-0.1,0.5-0.1C154.1,461.2,154.5,461,154.5,460.6z"/>
		<line class="st6" x1="129.5" y1="414" x2="129.5" y2="431.8"/>
		<line class="st6" x1="133.8" y1="414" x2="133.8" y2="432.2"/>
		<line class="st6" x1="138.2" y1="414" x2="138.2" y2="432.2"/>
		<rect x="150.3" y="420.8" class="st4" width="11" height="2.2"/>
		<rect x="150.3" y="425.4" class="st4" width="11" height="2.2"/>
		<rect x="150.3" y="430" class="st4" width="11" height="2.2"/>
		<rect x="150.3" y="434.5" class="st4" width="11" height="2.2"/>
		<rect x="150.3" y="438.9" class="st4" width="11" height="2.2"/>
		<rect x="150.3" y="443.6" class="st4" width="11" height="2.2"/>
		<rect x="150.3" y="448.1" class="st4" width="11" height="2.2"/>
		<rect x="150.3" y="452.7" class="st4" width="11" height="2.2"/>
		<g transform="translate(257.126 117.951)">
			<path class="st4" d="M-108.5,330.9c-0.6-1.1-1.6-1.9-2.9-2.2c-1-0.2-2,0.1-2.9,0.6c-0.4,0.1-0.8,0.3-1.2,0.5
				c-1.2,0.8-2.1,2-2.4,3.4c-0.1,0.4-0.7,3.4,1.3,4.9c1.2,0.8,2.8,1,4.1,0.5c1-0.3,1.9-1,2.6-1.9c0.2,0,0.3,0,0.5,0
				c1.7,0,3.1-1.3,3.1-3C-106.2,332.4-107.2,331.2-108.5,330.9z"/>
			<line class="st6" x1="-112.6" y1="333.4" x2="-112.6" y2="343.9"/>
			<line class="st6" x1="-112.6" y1="335.5" x2="-110.8" y2="333.7"/>
			<line class="st6" x1="-112.6" y1="337.6" x2="-114.4" y2="335.8"/>
		</g>
		<rect x="157.3" y="449.4" class="st4" width="14.3" height="9.5"/>
		<path class="st4" d="M178.8,458.9h-7.2v-7.2h4.4l2.7,4L178.8,458.9z"/>
		<path class="st7" d="M176.4,455.7h-2.8v-2.5h1.5L176.4,455.7z"/>
		<circle class="st4" cx="163.2" cy="459.8" r="1.5"/>
		<circle class="st4" cx="174.8" cy="459.5" r="1.5"/>
		<rect x="171.7" y="428.5" class="st7" width="1.3" height="1.3"/>
		<rect x="175.5" y="428.5" class="st7" width="1.3" height="1.3"/>
		<rect x="179" y="428.5" class="st7" width="1.3" height="1.3"/>
		<rect x="179" y="432.2" class="st7" width="1.3" height="1.3"/>
		<rect x="175.5" y="432.2" class="st7" width="1.3" height="1.3"/>
		<rect x="171.7" y="432.2" class="st7" width="1.3" height="1.3"/>
		<rect x="171.7" y="436.2" class="st7" width="1.3" height="1.3"/>
		<rect x="175.5" y="436.2" class="st7" width="1.3" height="1.3"/>
		<rect x="175.5" y="439.8" class="st7" width="1.3" height="1.3"/>
		<rect x="175.5" y="443.4" class="st7" width="1.3" height="1.3"/>
		<rect x="175.5" y="447" class="st7" width="1.3" height="1.3"/>
		<rect x="171.7" y="439.8" class="st7" width="1.3" height="1.3"/>
		<rect x="171.7" y="443.4" class="st7" width="1.3" height="1.3"/>
		<rect x="171.7" y="447" class="st7" width="1.3" height="1.3"/>
		<rect x="182.2" y="442.2" class="st7" width="1.8" height="1.9"/>
		<rect x="182.2" y="438.1" class="st7" width="1.8" height="1.9"/>
		<rect x="187.8" y="438.1" class="st7" width="1.8" height="1.9"/>
		<rect x="195" y="438.1" class="st7" width="1.8" height="1.9"/>
		<rect x="200.2" y="438.1" class="st7" width="1.8" height="1.9"/>
		<rect x="200.2" y="442.2" class="st7" width="1.8" height="1.9"/>
		<rect x="195" y="442.2" class="st7" width="1.8" height="1.9"/>
		<rect x="195" y="446.1" class="st7" width="1.8" height="1.9"/>
		<rect x="200.2" y="446.1" class="st7" width="1.8" height="1.9"/>
		<rect x="187.8" y="442.2" class="st7" width="1.8" height="1.9"/>
		<rect x="187.8" y="445.8" class="st7" width="1.8" height="1.9"/>
		<rect x="182.2" y="445.8" class="st7" width="1.8" height="1.9"/>
		<rect x="182.2" y="449.7" class="st7" width="1.8" height="1.9"/>
		<rect x="187.8" y="449.7" class="st7" width="1.8" height="1.9"/>
		<g transform="translate(300.028 123.082)">
			<path class="st4" d="M-112,330.1c-0.4-0.7-1-1.2-1.8-1.4c-0.6-0.1-1.3,0-1.8,0.4c-0.3,0.1-0.5,0.2-0.8,0.3
				c-0.8,0.5-1.3,1.3-1.5,2.1c-0.1,0.2-0.5,2.1,0.8,3.1c0.8,0.5,1.7,0.6,2.6,0.3c0.7-0.2,1.2-0.6,1.6-1.2c0.1,0,0.2,0,0.3,0
				c1.1,0,2-0.8,2-1.9C-110.6,331-111.2,330.3-112,330.1z"/>
			<line class="st6" x1="-114.6" y1="331.6" x2="-114.6" y2="338.2"/>
			<line class="st6" x1="-114.6" y1="332.9" x2="-113.5" y2="331.8"/>
			<line class="st6" x1="-114.6" y1="334.3" x2="-115.7" y2="333.2"/>
		</g>
		<path class="st4" d="M198.5,460.4c0-0.2-0.2-0.4-0.5-0.6c0.1-0.2,0.1-0.3,0.1-0.5c0-0.9-1-1.6-2.3-1.6c-0.4,0-0.8,0.1-1.2,0.2
			c-0.4-0.2-0.8-0.2-1.3-0.2c-1-0.1-1.9,0.4-2.5,1.2c-0.1,0-0.1,0-0.2,0c-1,0-1.8,0.5-1.8,1.1c0,0.2,0.1,0.4,0.2,0.6l0,0
			c0,0.4,0.4,0.7,0.8,0.7h7.1c0.2,0,0.3-0.1,0.5-0.1C198.1,461,198.5,460.8,198.5,460.4z"/>
		<path class="st4" d="M224.3,460.6c0-0.2-0.2-0.4-0.5-0.6c0.1-0.2,0.1-0.3,0.1-0.5c0-0.9-1-1.6-2.3-1.6c-0.4,0-0.8,0.1-1.2,0.2
			c-0.4-0.2-0.8-0.2-1.3-0.2c-1-0.1-1.9,0.4-2.5,1.2c0,0-0.1,0-0.1,0c-1,0-1.8,0.5-1.8,1.1c0,0.2,0.1,0.4,0.2,0.6l0,0
			c0,0.4,0.4,0.7,0.8,0.7h7.1c0.2,0,0.3-0.1,0.5-0.1C223.9,461.2,224.3,461,224.3,460.6z"/>
		<rect x="203" y="454.3" class="st6" width="2.6" height="4.3"/>
		<rect x="205.6" y="454.3" class="st6" width="2.6" height="4.3"/>
		<path class="st7" d="M68.8,409.9l-2-0.8v-5.4h2V409.9z"/>
		<rect x="106.3" y="402" class="st7" width="1.6" height="6.1"/>
		<rect x="109.4" y="402" class="st7" width="1.6" height="6.1"/>
		<rect x="153.5" y="409.3" class="st7" width="1.6" height="3.4"/>
		<rect x="156.5" y="409.3" class="st7" width="1.6" height="3.4"/>
	</g>
</g>
</svg>
