<svg xmlns="http://www.w3.org/2000/svg" width="375" height="136.35" viewBox="0 0 375 136.35"><defs><style>.a,.f,.i{fill:none;}.b{fill:#eee;}.c,.g{fill:#5d5d5d;}.c{stroke:#5d5d5d;stroke-width:3px;}.c,.e{stroke-miterlimit:10;}.d,.e{fill:#fff;}.d,.e,.f,.h,.i{stroke:#666464;}.d,.f,.h,.i{stroke-linecap:round;stroke-linejoin:round;}.h{fill:#fcfcfc;}.i{stroke-width:2px;}</style></defs><g transform="translate(-4.361 -34.079)"><g transform="translate(4.361 66.025)"><path class="a" d="M331.983,194.267l-15.9.517V113.792l15.9,18.73Z" transform="translate(-124.232 -96.482)"/><path class="b" d="M506.067,199.07l-15.9.526V117.144l15.847,11.449Q506.041,163.832,506.067,199.07Z" transform="translate(-191.176 -97.771)"/><path class="b" d="M331.983,199.07l-15.9.526V117.144l15.847,11.449Q331.956,163.832,331.983,199.07Z" transform="translate(-124.232 -97.771)"/><path class="b" d="M281.837,160.566V128.85h-1.769V123.64h-2.59v-5.473H275.4v-3.824h-1.692v-4.121h-2.436V100.167H269.81v10.055h-2.564v4.121h-1.231v3.824h-2.18v5.473h-2.8v5.209H258.4v26.309H255.27v5.407h-5.437v32.243h36.979V160.566Z" transform="translate(-98.756 -91.243)"/><path class="b" d="M101.271,146.664v-15.9H99.2v-8.883L95.27,102.75l-3.9,19.134v8.883H89.526v15.9H86.5v46.983h17.54V146.664Z" transform="translate(-35.947 -92.236)"/><path class="b" d="M154.215,142.308v-7.954h-.962v-3.192h-.4v-1.308h-2.077v1.308h-1.337v-1.217h-2.077v1.217h-.952v-1.217h-2.077v1.217h-.462v3.192h-2.423v-3.192h-9.155v3.192H131.02v7.954h-4.436V204.07h31.593V142.308Z" transform="translate(-51.361 -102.659)"/><path class="b" d="M571.715,164.593V158.26h-.962v-2.542h-.4v-1.042h-2.077v1.042h-1.337v-.969h-2.077v.969h-.952v-.969h-2.077v.969h-.462v2.542h-2.423v-2.542h-9.155v2.542H548.52v6.333h-4.436v49.178h31.593V164.593Z" transform="translate(-211.909 -112.204)"/><path class="b" d="M56.215,157.842v-6.811h-.962V148.3h-.4v-1.12H52.772v1.12H51.435v-1.042H49.358V148.3h-.952v-1.042H46.329V148.3h-.462v2.733H43.444V148.3H34.289v2.733H33.02v6.811H28.583v52.889H60.177V157.842Z" transform="translate(-13.676 -109.32)"/><path class="b" d="M518.418,211.976l12.022.395V150.526l-11.983,8.587Q518.438,185.545,518.418,211.976Z" transform="translate(-202.039 -110.608)"/><path class="b" d="M461.752,213.892l12.022.395V152.443l-11.983,8.587Q461.771,187.461,461.752,213.892Z" transform="translate(-180.249 -111.345)"/><path class="b" d="M424.275,134.735V116.972h-2.749v-9.926l-5.217-21.379-5.174,21.379v9.926h-2.451v17.763h-4.017v52.5h23.285v-52.5Z" transform="translate(-158.297 -85.667)"/><path class="b" d="M371.821,145.395v-7.946h-8.259v7.946h-5.589v-7.946h-8.509v7.946h-5.422v61.6h33.619v-61.6Z" transform="translate(-134.984 -105.58)"/><path class="b" d="M214.821,167.942v-6.608h-8.259v6.608h-5.589v-6.608h-8.509v6.608h-5.422v51.227h33.619V167.942Z" transform="translate(-74.61 -114.764)"/><line class="c" x2="375" transform="translate(0 101.523)"/></g><g transform="translate(17.32 34.589)"><path class="d" d="M34.92,247.517c0-.226-.211-.431-.549-.588a1.152,1.152,0,0,0,.12-.486c0-.878-1.02-1.59-2.279-1.59a3.03,3.03,0,0,0-1.158.228,3.561,3.561,0,0,0-1.253-.228,2.688,2.688,0,0,0-2.466,1.228c-.05,0-.1-.009-.15-.009-.976,0-1.768.5-1.768,1.116a.827.827,0,0,0,.24.553v0a.716.716,0,0,0,.761.658h7.065a.83.83,0,0,0,.477-.149C34.538,248.1,34.92,247.825,34.92,247.517Z" transform="translate(-25.417 -115.445)"/><path class="d" d="M384.741,171.443v-5.9H383v-2.063H371.765v2.063h-4v-2.462H356.687v2.462h-1.744v5.9h-5.026v45.441H390.28V171.443Z" transform="translate(-150.202 -84.001)"/><path class="e" d="M162.948,55.017a2.959,2.959,0,0,0-2.539-2.135,2.875,2.875,0,0,0-1.41.36,2.679,2.679,0,0,0,.025-.36c0-1.891-2.015-3.424-4.5-3.424s-4.5,1.533-4.5,3.424c0,.056.007.111.011.166a3.422,3.422,0,0,0-2.947-1.462c-1.806,0-3.271,1.142-3.271,2.552a1.973,1.973,0,0,0,.027.209,3.155,3.155,0,0,0-1.629-.427c-1.338,0-2.423.724-2.423,1.616,0,.814.9,1.48,2.077,1.592v.023h20.945l.289-1A3.107,3.107,0,0,0,162.948,55.017Z" transform="translate(-69.399 -40.307)"/><path class="e" d="M296.115,64.35a2.959,2.959,0,0,0-2.539-2.135,2.876,2.876,0,0,0-1.41.361,2.61,2.61,0,0,0,.025-.361c0-1.891-2.015-3.423-4.5-3.423s-4.5,1.532-4.5,3.423c0,.056.008.111.011.166a3.42,3.42,0,0,0-2.947-1.462c-1.807,0-3.272,1.143-3.272,2.552a1.95,1.95,0,0,0,.027.208,3.154,3.154,0,0,0-1.628-.426c-1.339,0-2.424.723-2.424,1.616,0,.813.9,1.479,2.077,1.592v.023H295.98l.288-1A3.082,3.082,0,0,0,296.115,64.35Z" transform="translate(-120.608 -43.896)"/><path class="e" d="M207.917,102.986c-.481-1.664-1.846-3.58-3.664-3.58a3.7,3.7,0,0,0-2.035.6,5.164,5.164,0,0,0,.036-.6c0-3.17-2.908-5.74-6.495-5.74s-6.494,2.57-6.494,5.74c0,.094.01.186.016.279a4.763,4.763,0,0,0-4.253-2.451,4.516,4.516,0,0,0-4.721,4.279c0,.119.028.232.039.35a4.073,4.073,0,0,0-2.35-.715c-1.931,0-3.5,1.213-3.5,2.709,0,1.363,1.3,2.48,3,2.67v.039h30.226q.208-.838.416-1.677A6,6,0,0,0,207.917,102.986Z" transform="translate(-82.746 -57.307)"/><path class="e" d="M325.378,116.511a2.268,2.268,0,0,0-1.946-1.637,2.206,2.206,0,0,0-1.081.276,1.954,1.954,0,0,0,.02-.276c0-1.45-1.545-2.625-3.45-2.625s-3.45,1.175-3.45,2.625c0,.042.005.084.008.127a2.621,2.621,0,0,0-2.259-1.121,2.284,2.284,0,0,0-2.508,1.957,1.53,1.53,0,0,0,.021.159,2.422,2.422,0,0,0-1.248-.327c-1.026,0-1.858.555-1.858,1.239,0,.623.693,1.134,1.592,1.22v.018h16.058l.221-.767A2.363,2.363,0,0,0,325.378,116.511Z" transform="translate(-133.939 -64.453)"/><path class="e" d="M401.327,56.555c-.476-1.416-1.825-3.045-3.622-3.045a4.107,4.107,0,0,0-2.012.514,3.75,3.75,0,0,0,.036-.514c0-2.7-2.874-4.884-6.42-4.884s-6.42,2.187-6.42,4.884c0,.08.011.158.016.237a4.881,4.881,0,0,0-4.2-2.085c-2.578,0-4.668,1.63-4.668,3.64a2.786,2.786,0,0,0,.039.3,4.5,4.5,0,0,0-2.323-.608c-1.909,0-3.457,1.032-3.457,2.3,0,1.16,1.29,2.11,2.963,2.272V59.6h29.88l.411-1.427A4.42,4.42,0,0,0,401.327,56.555Z" transform="translate(-157.268 -39.986)"/><path class="e" d="M494.84,73.8a3.263,3.263,0,0,0-2.8-2.355,3.172,3.172,0,0,0-1.555.4,2.951,2.951,0,0,0,.028-.4c0-2.086-2.223-3.777-4.965-3.777s-4.966,1.691-4.966,3.777c0,.062.009.122.012.183a3.774,3.774,0,0,0-3.251-1.612c-1.993,0-3.61,1.26-3.61,2.815a2.061,2.061,0,0,0,.03.23,3.482,3.482,0,0,0-1.8-.47c-1.477,0-2.674.8-2.674,1.782,0,.9,1,1.632,2.291,1.757v.026h23.108l.318-1.1A3.409,3.409,0,0,0,494.84,73.8Z" transform="translate(-196.107 -47.309)"/><path class="e" d="M500.784,122a2.841,2.841,0,0,0-2.437-2.049,2.754,2.754,0,0,0-1.354.346,2.589,2.589,0,0,0,.025-.346c0-1.816-1.934-3.287-4.32-3.287s-4.321,1.471-4.321,3.287c0,.054.007.106.01.159a3.285,3.285,0,0,0-2.829-1.4c-1.734,0-3.141,1.1-3.141,2.45a1.952,1.952,0,0,0,.026.2,3.028,3.028,0,0,0-1.563-.409c-1.285,0-2.326.694-2.326,1.551,0,.78.868,1.42,1.994,1.528v.023h20.107l.277-.96A2.984,2.984,0,0,0,500.784,122Z" transform="translate(-199.668 -66.152)"/><path class="e" d="M102.521,111.619a2.969,2.969,0,0,0-2.547-2.141,2.888,2.888,0,0,0-1.415.361,2.6,2.6,0,0,0,.026-.361c0-1.9-2.022-3.434-4.515-3.434s-4.514,1.537-4.514,3.434c0,.056.007.111.011.167a3.431,3.431,0,0,0-2.956-1.467c-1.813,0-3.282,1.146-3.282,2.56a1.968,1.968,0,0,0,.027.209,3.165,3.165,0,0,0-1.633-.428c-1.343,0-2.431.726-2.431,1.621,0,.815.907,1.484,2.083,1.6v.023h21.01l.289-1A3.1,3.1,0,0,0,102.521,111.619Z" transform="translate(-46.134 -62.066)"/><path class="f" d="M214.25,34.842a2.54,2.54,0,0,1,2,.308,2.5,2.5,0,0,1,1.026,1.436,1.559,1.559,0,0,1,.513-1.744,1.537,1.537,0,0,1,1.231-.2" transform="translate(-98.032 -34.589)"/><path class="f" d="M119.576,82.615A3.484,3.484,0,0,1,122.21,83a3.131,3.131,0,0,1,1.35,1.8,1.907,1.907,0,0,1,.676-2.19,2.106,2.106,0,0,1,1.62-.258" transform="translate(-61.625 -52.935)"/><path class="f" d="M134.328,90.9a2.036,2.036,0,0,1,1.536.225,1.83,1.83,0,0,1,.787,1.052,1.112,1.112,0,0,1,.393-1.277,1.231,1.231,0,0,1,.945-.15" transform="translate(-67.298 -56.17)"/><path class="f" d="M434.29,92.864a3.727,3.727,0,0,1,2.816.414,3.354,3.354,0,0,1,1.444,1.929,2.039,2.039,0,0,1,.722-2.343,2.258,2.258,0,0,1,1.733-.276" transform="translate(-182.647 -56.867)"/><path class="f" d="M542.661,146.529a2.352,2.352,0,0,1,1.776.26,2.111,2.111,0,0,1,.91,1.217,1.286,1.286,0,0,1,.455-1.477,1.425,1.425,0,0,1,1.093-.174" transform="translate(-224.321 -77.552)"/><path class="f" d="M390.429,130.018a2.012,2.012,0,0,1,1.52.223,1.812,1.812,0,0,1,.779,1.041,1.1,1.1,0,0,1,.39-1.264,1.215,1.215,0,0,1,.935-.149" transform="translate(-165.781 -71.215)"/><path class="f" d="M255.406,137.074a3.035,3.035,0,0,1,2.293.337,2.728,2.728,0,0,1,1.176,1.571,1.66,1.66,0,0,1,.588-1.908,1.835,1.835,0,0,1,1.411-.224" transform="translate(-113.858 -73.892)"/><path class="f" d="M247.2,150.706a1.829,1.829,0,0,1,1.384.2,1.648,1.648,0,0,1,.71.948,1,1,0,0,1,.355-1.151,1.107,1.107,0,0,1,.852-.135" transform="translate(-110.704 -79.177)"/><path class="f" d="M58.81,143.406a1.829,1.829,0,0,1,1.384.2,1.646,1.646,0,0,1,.71.948,1,1,0,0,1,.354-1.151,1.107,1.107,0,0,1,.852-.135" transform="translate(-38.258 -76.37)"/><path class="d" d="M99.587,180.4V155.727H97.818v-4.052h-2.59v-4.257H93.15v-2.975H91.458v-3.206H89.022v-7.821H87.56v7.821H85v3.206H83.765v2.975h-2.18v4.257h-2.8v4.052H76.148v20.464H73.02V180.4H67.583v25.08h36.979V180.4Z" transform="translate(-41.632 -72.593)"/><path class="d" d="M129.091,188.432v-2.1h-8.924v13.941l4.654-.006q.01,7.5.019,15l8-4.462.423.27q-.009-11.324-.019-22.648Z" transform="translate(-61.853 -92.941)"/><path class="d" d="M64.836,193.276h-2.59v-3.36H58.425V188.25h-7.9v1.667H46.782v3.36H44.5v33.286H58.425q.022-12.594.045-25.189h5.539v-4.558h.826Z" transform="translate(-32.755 -93.678)"/><rect class="g" width="1.59" height="2.641" transform="translate(19.31 91.828)"/><rect class="g" width="1.462" height="2.641" transform="translate(21.913 91.828)"/><path class="d" d="M172.715,171.009v-5.847h-.962v-2.346h-.4v-.962h-2.077v.962h-1.337v-.894h-2.077v.894h-.952v-.894h-2.077v.894h-.462v2.346h-2.423v-2.346h-9.155v2.346H149.52v5.847h-4.436v45.4h31.593v-45.4Z" transform="translate(-71.434 -83.528)"/><path class="d" d="M141.88,228.46v-3.335h-2.026v2.454l-4.052-1.761-7.719,4.359v10.566h17.746V229.959Z" transform="translate(-64.897 -107.858)"/><rect class="g" width="1.5" height="5.808" transform="translate(82.144 73.479)"/><rect class="g" width="1.789" height="5.808" transform="translate(84.413 73.479)"/><path class="d" d="M220.047,149.4v-4.719h-2.616v-5.129l-4.668-13.386L208.2,139.553v5.129h-2.36V149.4h-3.59v41.287h21.182V149.4Z" transform="translate(-93.417 -69.805)"/><path class="h" d="M281.245,174.286l-11.078.2V142.333l11.078,7.437Z" transform="translate(-119.534 -76.021)"/><path class="h" d="M282.834,182.55h10V163.667l-9.949,5.847Z" transform="translate(-124.405 -84.225)"/><path class="h" d="M328.406,173.887V167.02l-12.412-4.77v7.261l-2.411-.85v47.9h16.874V174.61Z" transform="translate(-136.23 -83.68)"/><path class="h" d="M347.412,199.167H330.333v3.4h1.231v28.2H346.54v-28.2h.872Z" transform="translate(-142.671 -97.876)"/><path class="f" d="M375.149,177.033v-4.359h-3.282v-2.257h-4.975v2.257h-3.077v4.359h-1.9V219.7h15.13V177.033Z" transform="translate(-154.816 -86.821)"/><path class="d" d="M435.021,146.119v-10.36H432.95v-5.79L429.02,117.5l-3.9,12.469v5.79h-1.846v10.36H420.25v30.619h17.54V146.119Z" transform="translate(-177.248 -66.472)"/><path class="d" d="M271.893,191.359V187H261.542v4.359h-7.8V187h-11.36v4.359h-7.962v34.722h44.005V191.359Z" transform="translate(-105.787 -93.198)"/><path class="d" d="M471.486,176.971v-3.666h-3.77v-2.138h-7.462v2.138h-3.847v3.666h-2.616v43.022h19.771V176.971Z" transform="translate(-190.146 -87.109)"/><path class="d" d="M232.088,228.106H218.6v-2.523H206.29v2.523H192.75v2.572h2.257v10.24h34.722v-10.24h2.359Z" transform="translate(-89.764 -108.035)"/><path class="d" d="M305.049,215.52H290.535v-2.77H281v2.77H266.583V218.8h.923v17.181h36.312V218.8h1.231Z" transform="translate(-118.156 -103.1)"/><path class="d" d="M422.157,206.474v-3.851H412.31v3.851h-6.36v-4.307H396.1v4.307h-5.437v25.44H427.8v-25.44Z" transform="translate(-165.872 -99.03)"/><path class="d" d="M502.976,188.024v-1.983h-9.617v1.983h-3.693v37.694h17V188.024Z" transform="translate(-203.942 -92.829)"/><path class="d" d="M530.16,207.162v-3.279h-7.616v3.279h-5.154v-3.279h-7.847v3.279h-5v25.418h31V207.162Z" transform="translate(-209.662 -99.69)"/><path class="d" d="M556.786,233.044h-9.847v-1.408h-9.463v1.408H527.167v2.182h1.923v8.026h26.234v-8.026h1.462Z" transform="translate(-218.362 -110.362)"/><path class="d" d="M396.642,230.662l-7.386-5.162-6.924,5.162v10.224h14.309Z" transform="translate(-162.667 -108.003)"/><line class="f" x2="10.411" transform="translate(16.412 101.701)"/><line class="f" x2="10.411" transform="translate(16.412 105.214)"/><line class="f" x2="9.091" transform="translate(16.412 108.907)"/><line class="f" x2="9.091" transform="translate(16.604 112.561)"/><line class="f" x2="9.091" transform="translate(16.604 116.254)"/><g transform="translate(10.519 123.702)"><path class="d" d="M48.314,236.956a1.836,1.836,0,0,0-3.53-.086,1.651,1.651,0,1,0-.614,3.179h.017c0,.023,0,.045,0,.068a1.68,1.68,0,0,0,3.28.464,2.059,2.059,0,0,0,.322.028,1.909,1.909,0,0,0,1.954-1.861A1.877,1.877,0,0,0,48.314,236.956Z" transform="translate(-42.508 -235.582)"/><line class="d" x2="0.027" y2="6.526" transform="translate(3.616 2.898)"/><line class="d" y1="1.117" x2="1.117" transform="translate(3.643 3.084)"/><line class="d" x1="1.117" y1="1.117" transform="translate(2.499 4.4)"/></g><line class="f" x2="4.347" transform="translate(16.406 119.542)"/><line class="f" x2="1.782" transform="translate(16.604 122.985)"/><path class="d" d="M99.382,207.122v-4.206H88.868v4.206h-6.36v-4.206H73.02v4.206H67.583V232.2h36.979v-25.08Z" transform="translate(-41.632 -99.318)"/><g transform="translate(18.618 117.767)"><path class="d" d="M67.1,231.818a3.118,3.118,0,0,0-3.16-2.873c0-.007,0-.012,0-.018a3.118,3.118,0,0,0-6.231,0,2.851,2.851,0,0,0,.031.29,2.6,2.6,0,0,0-2.079,2.31,2.633,2.633,0,0,0,2.187,2.336,2.217,2.217,0,0,0-.138.731,3.333,3.333,0,0,0,6.521.073A3.068,3.068,0,0,0,67.1,231.818Z" transform="translate(-55.667 -225.938)"/><line class="d" x2="0.044" y2="9.878" transform="translate(5.505 6.013)"/><line class="d" y1="1.69" x2="1.858" transform="translate(5.549 6.295)"/><line class="d" x1="1.858" y1="1.69" transform="translate(3.647 8.287)"/></g><rect class="d" width="3.436" height="3" transform="translate(31.491 110.727)"/><rect class="d" width="3.436" height="3" transform="translate(37.902 110.727)"/><rect class="d" width="3.436" height="3" transform="translate(37.902 115.241)"/><rect class="d" width="3.436" height="3" transform="translate(31.491 115.241)"/><rect class="d" width="3.436" height="3" transform="translate(31.491 119.908)"/><rect class="d" width="3.436" height="3" transform="translate(37.902 119.908)"/><rect class="d" width="3.436" height="3" transform="translate(37.902 124.554)"/><rect class="d" width="3.436" height="3" transform="translate(31.491 124.554)"/><rect class="d" width="3.436" height="3" transform="translate(47.441 110.727)"/><rect class="d" width="3.436" height="3" transform="translate(53.826 110.727)"/><rect class="d" width="3.436" height="3" transform="translate(47.441 115.446)"/><rect class="d" width="3.436" height="3" transform="translate(53.826 115.446)"/><rect class="d" width="3.436" height="3" transform="translate(53.826 119.908)"/><rect class="d" width="3.436" height="3" transform="translate(47.441 119.908)"/><rect class="d" width="3.436" height="3" transform="translate(47.441 124.554)"/><rect class="d" width="3.436" height="3" transform="translate(53.826 124.554)"/><line class="f" y1="24.069" transform="translate(41.081 83.459)"/><line class="f" y1="23.953" transform="translate(44.441 83.459)"/><line class="f" y1="19.857" transform="translate(48.159 83.463)"/><line class="f" y1="19.857" transform="translate(51.948 83.463)"/><rect class="g" width="1.731" height="1.635" transform="translate(61.911 99.694)"/><rect class="g" width="1.731" height="1.635" transform="translate(65.603 99.694)"/><rect class="g" width="1.731" height="1.635" transform="translate(61.911 103.387)"/><rect class="g" width="1.731" height="1.635" transform="translate(65.603 103.387)"/><rect class="g" width="1.731" height="1.635" transform="translate(65.603 107.217)"/><rect class="g" width="1.731" height="1.635" transform="translate(65.603 110.727)"/><rect class="g" width="1.731" height="1.635" transform="translate(65.603 114.628)"/><rect class="d" width="3.975" height="4.712" transform="translate(63.187 125.235)"/><rect class="d" width="3.193" height="4.712" transform="translate(68.867 125.235)"/><rect class="d" width="5.052" height="4.712" transform="translate(73.508 125.235)"/><line class="i" x2="9.591" transform="translate(78.778 93.392)"/><line class="i" x2="9.232" transform="translate(91.292 93.392)"/><line class="i" x2="9.232" transform="translate(78.958 97.854)"/><line class="i" x2="9.232" transform="translate(91.472 97.854)"/><line class="i" x2="9.232" transform="translate(91.472 102.214)"/><line class="i" x2="9.232" transform="translate(78.778 102.214)"/><line class="i" x2="9.232" transform="translate(78.958 106.676)"/><line class="i" x2="9.232" transform="translate(91.292 106.676)"/><line class="i" x2="9.232" transform="translate(78.778 110.932)"/><line class="i" x2="9.232" transform="translate(91.292 110.932)"/><line class="i" x2="9.232" transform="translate(78.958 115.241)"/><line class="i" x2="9.232" transform="translate(91.292 115.241)"/><line class="i" x2="9.232" transform="translate(78.778 119.651)"/><line class="i" x2="9.232" transform="translate(91.292 119.651)"/><path class="d" d="M175.417,237.958l-1.768-4h-8.411q-.552,2-1.1,4h-2.049v3.591H178.5v-3.591Z" transform="translate(-77.971 -111.255)"/><circle class="d" cx="1.438" cy="1.438" r="1.438" transform="translate(85.852 129.677)"/><circle class="d" cx="1.438" cy="1.438" r="1.438" transform="translate(96.291 129.97)"/><path class="d" d="M168.708,239.138H171.4v-2.154l-1.949-.026Z" transform="translate(-80.519 -112.409)"/><path class="d" d="M178.651,239.138h-2.693v-2.154l1.949-.026Q178.279,238.048,178.651,239.138Z" transform="translate(-83.307 -112.409)"/><line class="f" y2="37.261" transform="translate(114.526 82.391)"/><line class="f" y2="34.876" transform="translate(117.911 82.391)"/><line class="f" y2="34.876" transform="translate(120.988 82.391)"/><line class="f" y2="34.876" transform="translate(124.578 82.391)"/><rect class="f" width="2.193" height="4.154" transform="translate(109.897 126.139)"/><rect class="f" width="2.193" height="4.154" transform="translate(113.821 126.139)"/><rect class="f" width="2.193" height="4.154" transform="translate(119.744 126.139)"/><rect class="f" width="2.193" height="4.154" transform="translate(123.629 126.139)"/><rect class="f" width="2.193" height="4.154" transform="translate(129.822 126.139)"/><rect class="f" width="2.193" height="4.154" transform="translate(133.707 126.139)"/><rect class="f" width="3.129" height="1.949" transform="translate(143.862 127.191)"/><rect class="f" width="3.129" height="1.949" transform="translate(143.862 122.062)"/><rect class="f" width="3.129" height="1.949" transform="translate(143.862 117.061)"/><rect class="f" width="3.129" height="1.949" transform="translate(136.862 117.061)"/><rect class="f" width="3.129" height="1.949" transform="translate(136.862 111.779)"/><rect class="f" width="3.129" height="1.949" transform="translate(143.862 111.779)"/><rect class="f" width="3.129" height="1.949" transform="translate(143.862 106.804)"/><rect class="f" width="3.129" height="1.949" transform="translate(136.862 106.804)"/><rect class="f" width="3.129" height="1.949" transform="translate(136.862 101.598)"/><rect class="f" width="3.129" height="1.949" transform="translate(143.862 101.598)"/><rect class="f" width="3.129" height="1.949" transform="translate(154.428 101.598)"/><rect class="f" width="3.129" height="1.949" transform="translate(154.428 106.804)"/><rect class="f" width="3.129" height="1.949" transform="translate(161.48 106.804)"/><rect class="f" width="3.129" height="1.949" transform="translate(161.48 101.598)"/><line class="f" y2="4.77" transform="translate(167.66 104.88)"/><rect class="f" width="2.308" height="2.18" transform="translate(153.556 118.446)"/><rect class="f" width="2.308" height="2.18" transform="translate(158.556 118.446)"/><rect class="f" width="2.308" height="2.18" transform="translate(163.89 118.446)"/><rect class="f" width="2.308" height="2.18" transform="translate(169.045 118.446)"/><rect class="f" width="2.308" height="2.18" transform="translate(174.225 118.446)"/><rect class="f" width="2.308" height="2.18" transform="translate(179.405 118.446)"/><rect class="f" width="2.308" height="2.18" transform="translate(179.405 122.267)"/><rect class="f" width="2.308" height="2.18" transform="translate(158.556 122.267)"/><rect class="f" width="2.308" height="2.18" transform="translate(153.556 122.267)"/><rect class="f" width="2.308" height="2.18" transform="translate(153.556 126.55)"/><rect class="f" width="2.308" height="2.18" transform="translate(158.556 126.55)"/><g transform="translate(162.686 122.357)"><path class="d" d="M309.546,238.1h-3.959L304,233.4H289.751v8.351l17.08.029-.01-.029h2.725Z" transform="translate(-289.751 -233.396)"/><ellipse class="d" cx="1.635" cy="1.591" rx="1.635" ry="1.591" transform="translate(2.104 7.46)"/><ellipse class="d" cx="1.635" cy="1.591" rx="1.635" ry="1.591" transform="translate(14.276 7.46)"/><rect class="g" width="4.671" height="2.978" transform="translate(4.175 1.723)"/><path class="g" d="M310.027,239.436h-3.008V236.2l1.985.029Z" transform="translate(-296.391 -234.472)"/><rect class="g" width="1.401" height="2.803" transform="translate(1.664 1.898)"/></g><path class="d" d="M338.586,246.789c0-.226-.212-.431-.549-.588a1.158,1.158,0,0,0,.119-.485c0-.878-1.02-1.59-2.278-1.59a3.019,3.019,0,0,0-1.158.228,3.548,3.548,0,0,0-1.253-.228A2.69,2.69,0,0,0,331,245.355c-.05,0-.1-.009-.149-.009-.977,0-1.768.5-1.768,1.116a.826.826,0,0,0,.241.553v0a.715.715,0,0,0,.761.658h7.065a.826.826,0,0,0,.476-.148C338.2,247.369,338.586,247.1,338.586,246.789Z" transform="translate(-142.19 -115.166)"/><path class="d" d="M378.4,246.789c0-.226-.211-.431-.549-.588a1.148,1.148,0,0,0,.12-.485c0-.878-1.02-1.59-2.278-1.59a3.02,3.02,0,0,0-1.159.228,3.543,3.543,0,0,0-1.253-.228,2.688,2.688,0,0,0-2.466,1.228c-.051,0-.1-.009-.15-.009-.976,0-1.768.5-1.768,1.116a.828.828,0,0,0,.24.553v0a.715.715,0,0,0,.761.658h7.066a.829.829,0,0,0,.476-.148C378.017,247.369,378.4,247.1,378.4,246.789Z" transform="translate(-157.5 -115.166)"/><g transform="translate(201.273 118.167)"><path class="d" d="M357.814,233c-.126,2.269-1.19,5.225-2.52,5.27s-2.661-2.79-2.827-5.193c-.212-3.07,1.417-6.529,2.827-6.488C356.689,226.629,357.975,230.093,357.814,233Z" transform="translate(-352.448 -226.588)"/><line class="f" y2="8.382" transform="translate(2.69 6.334)"/></g><g transform="translate(208.255 122.869)"><path class="d" d="M367.354,238.485c-.083,1.507-.79,3.469-1.673,3.5s-1.766-1.853-1.877-3.448c-.141-2.038.941-4.335,1.877-4.308S367.462,236.555,367.354,238.485Z" transform="translate(-363.793 -234.229)"/><line class="f" y2="5.565" transform="translate(1.786 4.206)"/></g><rect class="g" width="1.481" height="1.558" transform="translate(192.329 106.502)"/><rect class="g" width="1.481" height="1.558" transform="translate(192.329 109.65)"/><rect class="g" width="1.481" height="1.558" transform="translate(192.329 112.804)"/><rect class="g" width="1.481" height="1.558" transform="translate(192.329 116.308)"/><rect class="g" width="1.481" height="1.558" transform="translate(192.329 119.709)"/><rect class="g" width="1.481" height="1.558" transform="translate(192.329 122.87)"/><rect class="g" width="1.481" height="1.558" transform="translate(195.791 122.944)"/><rect class="g" width="1.481" height="1.558" transform="translate(198.975 122.944)"/><rect class="g" width="1.481" height="1.558" transform="translate(195.791 119.613)"/><rect class="g" width="1.481" height="1.558" transform="translate(199.215 119.613)"/><rect class="g" width="1.481" height="1.558" transform="translate(195.791 116.308)"/><rect class="g" width="1.481" height="1.558" transform="translate(199.215 116.231)"/><rect class="g" width="1.481" height="1.558" transform="translate(195.791 112.804)"/><rect class="g" width="1.481" height="1.558" transform="translate(198.975 112.804)"/><rect class="g" width="1.481" height="1.558" transform="translate(195.791 109.65)"/><rect class="g" width="1.481" height="1.558" transform="translate(199.215 109.65)"/><rect class="g" width="1.481" height="1.558" transform="translate(195.791 106.502)"/><rect class="g" width="1.481" height="1.558" transform="translate(199.215 106.502)"/><line class="f" x2="6.616" transform="translate(153.017 77.288)"/><line class="f" x2="6.347" transform="translate(153.287 81.365)"/><line class="f" x2="5.462" transform="translate(153.017 85.173)"/><line class="f" x2="5.411" transform="translate(153.017 88.827)"/><line class="f" x2="5.411" transform="translate(153.017 93.059)"/><line class="f" x2="2.738" transform="translate(153.017 96.674)"/><rect class="g" width="1.25" height="1.442" transform="translate(210.332 92.482)"/><rect class="g" width="1.25" height="1.442" transform="translate(210.332 95.501)"/><rect class="g" width="1.25" height="1.442" transform="translate(210.332 99.194)"/><rect class="g" width="1.25" height="1.442" transform="translate(210.332 102.415)"/><rect class="g" width="1.25" height="1.442" transform="translate(210.332 105.781)"/><rect class="g" width="1.25" height="1.442" transform="translate(210.332 109.07)"/><rect class="g" width="1.25" height="1.442" transform="translate(210.332 112.551)"/><rect class="g" width="1.25" height="1.442" transform="translate(210.332 115.955)"/><rect class="g" width="1.25" height="1.442" transform="translate(210.332 119.225)"/><rect class="g" width="1.25" height="1.442" transform="translate(214.04 119.225)"/><rect class="g" width="1.25" height="1.442" transform="translate(213.928 122.649)"/><rect class="g" width="1.25" height="1.442" transform="translate(217.486 122.649)"/><rect class="g" width="1.25" height="1.442" transform="translate(217.486 119.225)"/><rect class="g" width="1.25" height="1.442" transform="translate(213.928 115.955)"/><rect class="g" width="1.25" height="1.442" transform="translate(217.486 115.955)"/><rect class="g" width="1.25" height="1.442" transform="translate(213.928 112.551)"/><rect class="g" width="1.25" height="1.442" transform="translate(217.486 112.551)"/><rect class="g" width="1.25" height="1.442" transform="translate(213.928 108.929)"/><rect class="g" width="1.25" height="1.442" transform="translate(217.486 108.929)"/><rect class="g" width="1.25" height="1.442" transform="translate(213.928 105.781)"/><rect class="g" width="1.25" height="1.442" transform="translate(217.486 105.781)"/><rect class="g" width="1.25" height="1.442" transform="translate(213.928 102.415)"/><rect class="g" width="1.25" height="1.442" transform="translate(217.486 102.415)"/><rect class="g" width="1.25" height="1.442" transform="translate(213.928 99.194)"/><rect class="g" width="1.25" height="1.442" transform="translate(217.486 99.194)"/><rect class="g" width="1.25" height="1.442" transform="translate(213.928 95.501)"/><rect class="g" width="1.25" height="1.442" transform="translate(217.486 95.501)"/><rect class="g" width="1.25" height="1.442" transform="translate(213.928 92.482)"/><rect class="g" width="1.25" height="1.442" transform="translate(217.486 92.482)"/><rect class="f" width="2.366" height="4.501" transform="translate(223.448 125.158)"/><rect class="f" width="2.366" height="4.501" transform="translate(227.699 125.158)"/><rect class="f" width="3.911" height="2.677" transform="translate(230.065 110.907)"/><rect class="f" width="3.911" height="2.677" transform="translate(236.578 110.907)"/><rect class="f" width="3.911" height="2.677" transform="translate(245.945 110.907)"/><rect class="f" width="3.911" height="2.677" transform="translate(245.945 115.407)"/><rect class="f" width="3.911" height="2.677" transform="translate(245.945 115.334)"/><rect class="f" width="3.911" height="2.677" transform="translate(245.945 120.039)"/><rect class="f" width="3.911" height="2.677" transform="translate(245.945 124.732)"/><rect class="f" width="3.911" height="2.677" transform="translate(252.638 124.732)"/><rect class="f" width="3.911" height="2.677" transform="translate(252.638 120.039)"/><rect class="f" width="3.911" height="2.677" transform="translate(252.638 115.334)"/><rect class="f" width="3.911" height="2.677" transform="translate(252.638 110.907)"/><rect class="f" width="3.911" height="2.677" transform="translate(236.578 115.334)"/><rect class="f" width="3.911" height="2.677" transform="translate(236.578 120.039)"/><rect class="f" width="3.911" height="2.677" transform="translate(236.578 124.732)"/><rect class="f" width="3.911" height="2.677" transform="translate(230.065 115.334)"/><path class="d" d="M462.285,247.394c0-.226-.212-.431-.549-.588a1.16,1.16,0,0,0,.119-.486c0-.878-1.02-1.59-2.278-1.59a3.028,3.028,0,0,0-1.158.228,3.561,3.561,0,0,0-1.253-.228,2.69,2.69,0,0,0-2.467,1.228c-.05,0-.1-.01-.149-.01-.977,0-1.768.5-1.768,1.117a.824.824,0,0,0,.241.553v0a.716.716,0,0,0,.761.658h7.065a.827.827,0,0,0,.476-.149C461.9,247.974,462.285,247.7,462.285,247.394Z" transform="translate(-189.758 -115.398)"/><line class="f" y2="17.746" transform="translate(247.515 85.391)"/><line class="f" y2="18.202" transform="translate(251.772 85.391)"/><line class="f" y2="18.202" transform="translate(256.183 85.391)"/><rect class="d" width="11.027" height="2.154" transform="translate(268.287 92.11)"/><rect class="d" width="11.027" height="2.154" transform="translate(268.287 96.726)"/><rect class="d" width="11.027" height="2.154" transform="translate(268.287 101.316)"/><rect class="d" width="11.027" height="2.154" transform="translate(268.287 105.829)"/><rect class="d" width="11.027" height="2.154" transform="translate(268.287 110.266)"/><rect class="d" width="11.027" height="2.154" transform="translate(268.287 114.984)"/><rect class="d" width="11.027" height="2.154" transform="translate(268.287 119.472)"/><rect class="d" width="11.027" height="2.154" transform="translate(268.287 124.011)"/><g transform="translate(257.126 117.951)"><path class="d" d="M452.7,228.506a4.159,4.159,0,0,0-2.859-2.209,4.016,4.016,0,0,0-2.868.615,4.745,4.745,0,0,0-1.231.513,5.48,5.48,0,0,0-2.379,3.4c-.087.383-.719,3.359,1.251,4.9a4.62,4.62,0,0,0,4.137.484,5.273,5.273,0,0,0,2.582-1.883,3.265,3.265,0,0,0,.518.044A3.071,3.071,0,0,0,455,231.386,3.018,3.018,0,0,0,452.7,228.506Z" transform="translate(-443.199 -226.238)"/><line class="d" x2="0.043" y2="10.498" transform="translate(5.365 4.72)"/><line class="d" y1="1.796" x2="1.796" transform="translate(5.408 5.019)"/><line class="d" x1="1.796" y1="1.796" transform="translate(3.569 7.136)"/></g><rect class="d" width="14.348" height="9.501" transform="translate(275.339 120.754)"/><path class="d" d="M503.259,241.747H496.1v-7.173h4.405l2.749,4.02Z" transform="translate(-206.417 -111.492)"/><path class="g" d="M502.013,239.472h-2.846V237.01h1.539Z" transform="translate(-207.595 -112.429)"/><circle class="d" cx="1.539" cy="1.539" r="1.539" transform="translate(279.686 129.57)"/><circle class="d" cx="1.539" cy="1.539" r="1.539" transform="translate(291.245 129.333)"/><rect class="g" width="1.269" height="1.282" transform="translate(289.687 99.88)"/><rect class="g" width="1.269" height="1.282" transform="translate(293.456 99.88)"/><rect class="g" width="1.269" height="1.282" transform="translate(297.021 99.88)"/><rect class="g" width="1.269" height="1.282" transform="translate(297.021 103.552)"/><rect class="g" width="1.269" height="1.282" transform="translate(293.456 103.552)"/><rect class="g" width="1.269" height="1.282" transform="translate(289.687 103.552)"/><rect class="g" width="1.269" height="1.282" transform="translate(289.687 107.552)"/><rect class="g" width="1.269" height="1.282" transform="translate(293.456 107.552)"/><rect class="g" width="1.269" height="1.282" transform="translate(293.456 111.138)"/><rect class="g" width="1.269" height="1.282" transform="translate(293.456 114.779)"/><rect class="g" width="1.269" height="1.282" transform="translate(293.456 118.344)"/><rect class="g" width="1.269" height="1.282" transform="translate(289.687 111.138)"/><rect class="g" width="1.269" height="1.282" transform="translate(289.687 114.779)"/><rect class="g" width="1.269" height="1.282" transform="translate(289.687 118.344)"/><rect class="g" width="1.846" height="1.865" transform="translate(300.188 113.511)"/><rect class="g" width="1.846" height="1.865" transform="translate(300.188 109.434)"/><rect class="g" width="1.846" height="1.865" transform="translate(305.766 109.434)"/><rect class="g" width="1.846" height="1.865" transform="translate(312.952 109.434)"/><rect class="g" width="1.846" height="1.865" transform="translate(318.184 109.434)"/><rect class="g" width="1.846" height="1.865" transform="translate(318.184 113.511)"/><rect class="g" width="1.846" height="1.865" transform="translate(312.952 113.511)"/><rect class="g" width="1.846" height="1.865" transform="translate(312.952 117.411)"/><rect class="g" width="1.846" height="1.865" transform="translate(318.184 117.411)"/><rect class="g" width="1.846" height="1.865" transform="translate(305.766 113.511)"/><rect class="g" width="1.846" height="1.865" transform="translate(305.766 117.185)"/><rect class="g" width="1.846" height="1.865" transform="translate(300.188 117.185)"/><rect class="g" width="1.846" height="1.865" transform="translate(300.188 121.089)"/><rect class="g" width="1.846" height="1.865" transform="translate(305.766 121.089)"/><g transform="translate(300.028 123.082)"><path class="d" d="M518.9,236a2.623,2.623,0,0,0-1.8-1.393,2.532,2.532,0,0,0-1.809.388,2.989,2.989,0,0,0-.777.323,3.463,3.463,0,0,0-1.5,2.148c-.055.242-.454,2.12.79,3.094a2.914,2.914,0,0,0,2.609.305,3.326,3.326,0,0,0,1.629-1.188,2.041,2.041,0,0,0,.327.028,1.937,1.937,0,0,0,1.983-1.888A1.9,1.9,0,0,0,518.9,236Z" transform="translate(-512.907 -234.574)"/><line class="d" x2="0.027" y2="6.622" transform="translate(3.385 2.977)"/><line class="d" y1="1.133" x2="1.133" transform="translate(3.412 3.166)"/><line class="d" x1="1.133" y1="1.133" transform="translate(2.252 4.502)"/></g><path class="d" d="M533.744,247.066c0-.226-.211-.431-.549-.588a1.152,1.152,0,0,0,.12-.486c0-.878-1.02-1.59-2.279-1.59a3.03,3.03,0,0,0-1.158.228,3.561,3.561,0,0,0-1.253-.228,2.688,2.688,0,0,0-2.466,1.228c-.051,0-.1-.01-.15-.01-.976,0-1.768.5-1.768,1.117a.828.828,0,0,0,.24.553v0a.716.716,0,0,0,.761.658h7.065a.83.83,0,0,0,.477-.149C533.362,247.646,533.744,247.374,533.744,247.066Z" transform="translate(-217.237 -115.272)"/><path class="d" d="M575.66,247.4c0-.226-.212-.431-.549-.588a1.161,1.161,0,0,0,.119-.485c0-.878-1.02-1.59-2.278-1.59a3.017,3.017,0,0,0-1.158.228,3.546,3.546,0,0,0-1.253-.228,2.69,2.69,0,0,0-2.467,1.228c-.05,0-.1-.009-.149-.009-.977,0-1.768.5-1.768,1.116a.823.823,0,0,0,.241.553v0a.715.715,0,0,0,.761.658h7.066a.826.826,0,0,0,.476-.148C575.279,247.983,575.66,247.711,575.66,247.4Z" transform="translate(-233.356 -115.401)"/><rect class="f" width="2.628" height="4.283" transform="translate(320.985 125.678)"/><rect class="f" width="2.629" height="4.283" transform="translate(323.614 125.678)"/><path class="g" d="M327.648,162.772l-1.981-.782V156.6h1.981Z" transform="translate(-140.877 -81.509)"/><rect class="g" width="1.596" height="6.098" transform="translate(224.295 73.383)"/><rect class="g" width="1.596" height="6.098" transform="translate(227.353 73.383)"/><rect class="g" width="1.596" height="3.411" transform="translate(271.473 80.647)"/><rect class="g" width="1.596" height="3.411" transform="translate(274.531 80.647)"/></g></g></svg>