<svg xmlns="http://www.w3.org/2000/svg" width="59.044" height="37.709" viewBox="0 0 59.044 37.709"><defs><style>.a{fill:#bfbfbf;}</style></defs><path class="a" d="M64.924,42.684a3.349,3.349,0,0,0-2.159-.984c-10.254.063-20.508.032-30.793.032a2.275,2.275,0,0,0-1.778.7c-1.079,1.079-2.19,2.222-4.1,1.746a3.254,3.254,0,0,0-2.667,1.111,121.292,121.292,0,0,1-14.19,10.6c-1.111.7-.794,1.746-.444,2.508s1.175.794,2,.19c2.984-2.254,6.032-4.444,9.079-6.6,2-1.4,3.682-3.175,5.619-4.635a1.243,1.243,0,0,1,1.3-.286,1,1,0,0,1,.508,1.079c-.222,3.651.127,7.27-.063,10.92-.1,1.429-.1,2.508-1.492,3.27-.571.317-1.365.825-.7,1.778a1.635,1.635,0,0,0,2.19.667c2.222-1.048,4.413-2.19,6.7-3.175,2.508-1.079,4.825-2.6,7.492-3.333,1.079-.286,2.317-.6,3.016.6.73,1.3.19,2.508-.7,3.651a9.3,9.3,0,0,1-4.413,2.984,17.06,17.06,0,0,0-7.619,5.143,9.514,9.514,0,0,1-5.778,3.365,23.592,23.592,0,0,1-4.73.159,85.74,85.74,0,0,0-11.047.762c-.857.1-1.651.317-1.619,1.524s.857,1.3,1.683,1.46a1.677,1.677,0,0,0,.794,0c1.873-.381,3.809-.127,5.682-.317,3.714-.413,7.555.159,11.174-1.079a2.243,2.243,0,0,1,2.571.571c1.143,1.111,2.54,1.714,4.032.857a2.337,2.337,0,0,1,3.3.667c.984,1.111,4.317,1.016,5.365-.1a2.418,2.418,0,0,1,2.6-.7,4.193,4.193,0,0,0,3.556-.889,7.571,7.571,0,0,0,2.889-4.762c.254-1.333.857-1.46,1.9-1.46q4.286.048,8.571,0a4.809,4.809,0,0,0,4.762-4.825V56.366c0-2.952-.19-5.936.063-8.889C67.686,45.16,66.511,43.89,64.924,42.684ZM31.179,45.478a2.471,2.471,0,0,1,1.9-.6c9.492.032,19.016.063,28.507.063a3,3,0,0,1,2.571.952c.254.317.571.7.444,1.143-.159.508-.667.476-1.079.476H31.845c-.54,0-1.333.222-1.556-.444C30.131,46.43,30.734,45.922,31.179,45.478Zm11.46,27.3a9.141,9.141,0,0,1-.127,1.873c-.317,1.4-1.46,1.556-2.6,1.4-1.206-.159-1.238-1.079-1.111-2.032a12.726,12.726,0,0,0,.286-1.873c0-1.111.54-1.429,1.556-1.46C42.607,70.684,42.7,70.747,42.639,72.779Zm6.571-.952c-.063,1.238-1.556,3.111-2.508,3.143-.73.032-.921-.444-.921-2.381-.159-1.143.159-2.1,1.809-1.9C48.321,70.811,49.274,70.557,49.21,71.826Zm15.27-5.778a1.98,1.98,0,0,1-2.127,1.492c-2.857-.032-5.714,0-9.143,0-2.952.19-6.508-.317-10.032.317-.349.063-.825.222-.952-.254s.317-.571.635-.73a9.478,9.478,0,0,0,4.19-4.159,5.308,5.308,0,0,0-1.714-7.079c-1.587-.921-3.365-.635-5.079-.159-2.317.635-4.317,1.936-6.476,2.952-.857.413-1.683.889-2.54,1.27-.889.381-1.3.159-1.143-.889a16.143,16.143,0,0,0,0-4.286c-.127-1.048.381-1.46,1.333-1.524.635-.032,1.27-.032,1.9-.032H62.543c2.159,0,2.127.063,2.032,2.254A49.274,49.274,0,0,0,64.7,63.6,4.962,4.962,0,0,1,64.48,66.049Z" transform="translate(-8.472 -41.699)"/></svg>