<svg xmlns="http://www.w3.org/2000/svg" width="233.615" height="154.867" viewBox="0 0 233.615 154.867"><defs><style>.a{fill:#0894fe;}.b{fill:#93c7ea;}.c{fill:#f2f2f2;}.d{fill:#c4c9ce;}.e{fill:#1b2a67;}.f{fill:#3b5a80;}.g{fill:#0048cd;}.h{fill:#ffd2d4;}.i,.t{fill:#fff;}.j{fill:#201028;}.k{fill:#445eea;}.l{fill:#91a8f6;}.m{fill:#e0eef7;}.n{fill:#6eacce;}.o{fill:#2680eb;}.p{fill:#0a437d;}.q,.u{fill:none;}.q{stroke:#1b2a67;stroke-miterlimit:10;stroke-width:0.827px;}.q,.t,.u{stroke-linecap:round;}.r{fill:#75c6fa;}.s{fill:#d15e79;}.t,.u{stroke:#445eea;stroke-linejoin:round;}.t{stroke-width:2.761px;}.u{stroke-width:0.658px;}</style></defs><g transform="translate(-63.622 -149.378)"><g transform="translate(63.622 149.378)"><g transform="translate(10.382)"><path class="a" d="M276.678,240.464a1.592,1.592,0,1,1-1.591-1.592A1.593,1.593,0,0,1,276.678,240.464Zm-.789,0a.8.8,0,1,0-.8.8A.8.8,0,0,0,275.888,240.464Z" transform="translate(-106.868 -163.392)"/><g transform="translate(182.527 18.793)"><path class="a" d="M307.246,171.662h-9.015a.394.394,0,0,0,0,.789h9.015a.394.394,0,0,0,0-.789Z" transform="translate(-293.207 -171.66)"/><path class="a" d="M294.5,171.66h-1.762a.394.394,0,0,0,0,.789H294.5a.394.394,0,0,0,0-.789Z" transform="translate(-292.347 -171.66)"/><path class="a" d="M302.151,175.313a.394.394,0,0,1-.395.394h-1.128a.394.394,0,0,1,0-.789h1.128A.394.394,0,0,1,302.151,175.313Zm-3.1,0a.394.394,0,0,1-.394.394h-1.972a.394.394,0,1,1,0-.789h1.972A.394.394,0,0,1,299.051,175.313Zm-3.944,0a.394.394,0,0,1-.394.394h-1.972a.394.394,0,1,1,0-.789h1.972A.394.394,0,0,1,295.107,175.313Z" transform="translate(-292.347 -172.17)"/></g><g transform="translate(47.966 42.345)"><path class="a" d="M135.507,202.92a.4.4,0,0,0-.394.395v.914a.394.394,0,1,0,.789,0v-.914A.4.4,0,0,0,135.507,202.92Z" transform="translate(-133.166 -200.107)"/><path class="a" d="M134.114,201.832H133.2a.394.394,0,1,0,0,.789h.915a.394.394,0,0,0,0-.789Z" transform="translate(-132.804 -199.937)"/><path class="a" d="M135.507,199.585a.4.4,0,0,0-.394.395v.914a.394.394,0,0,0,.789,0v-.914A.4.4,0,0,0,135.507,199.585Z" transform="translate(-133.166 -199.585)"/><path class="a" d="M137.646,201.758h-.915a.394.394,0,0,0,0,.789h.915a.394.394,0,1,0,0-.789Z" transform="translate(-133.357 -199.925)"/></g><g transform="translate(147.163 16.777)"><path class="a" d="M253.122,172.6a.394.394,0,0,0-.395.394v.915a.394.394,0,0,0,.789,0V173A.394.394,0,0,0,253.122,172.6Z" transform="translate(-250.78 -169.792)"/><path class="a" d="M251.728,171.517h-.915a.394.394,0,1,0,0,.789h.915a.394.394,0,0,0,0-.789Z" transform="translate(-250.418 -169.622)"/><path class="a" d="M253.122,169.27a.394.394,0,0,0-.395.394v.914a.394.394,0,1,0,.789,0v-.914A.394.394,0,0,0,253.122,169.27Z" transform="translate(-250.78 -169.27)"/><path class="a" d="M255.26,171.442h-.915a.394.394,0,0,0,0,.789h.915a.394.394,0,1,0,0-.789Z" transform="translate(-250.971 -169.61)"/></g><g transform="translate(98.698)"><path class="a" d="M207.853,149.379h-9.014a.394.394,0,1,0,0,.789h9.014a.394.394,0,1,0,0-.789Z" transform="translate(-193.814 -149.378)"/><path class="a" d="M195.11,149.378h-1.761a.394.394,0,1,0,0,.789h1.761a.394.394,0,1,0,0-.789Z" transform="translate(-192.954 -149.378)"/><path class="a" d="M202.759,153.031a.4.4,0,0,1-.395.394h-1.128a.394.394,0,1,1,0-.789h1.128A.4.4,0,0,1,202.759,153.031Zm-3.1,0a.4.4,0,0,1-.395.394h-1.972a.394.394,0,0,1,0-.789h1.972A.4.4,0,0,1,199.659,153.031Zm-3.944,0a.394.394,0,0,1-.395.394H193.35a.394.394,0,1,1,0-.789h1.971A.394.394,0,0,1,195.715,153.031Z" transform="translate(-192.954 -149.888)"/></g><path class="a" d="M324.49,198.109a1.392,1.392,0,1,0,1.392-1.393A1.392,1.392,0,0,0,324.49,198.109Z" transform="translate(-114.854 -156.791)"/><g transform="translate(22.053 108.762)"><path class="a" d="M107.964,279.122h9.014a.394.394,0,1,0,0-.789h-9.014a.394.394,0,1,0,0,.789Z" transform="translate(-102.939 -278.333)"/><path class="a" d="M102.473,279.124h1.762a.394.394,0,0,0,0-.789h-1.762a.394.394,0,0,0,0,.789Z" transform="translate(-102.079 -278.333)"/></g><path class="a" d="M309.266,286.872s.538,3.842-3.949,3.753c0,0,3.854.039,3.753,3.643a4.373,4.373,0,0,1,3.883-3.469S309.964,291.485,309.266,286.872Z" transform="translate(-111.851 -170.908)"/><path class="a" d="M334.666,222.629s.539,3.841-3.949,3.752c0,0,3.854.04,3.753,3.644a4.374,4.374,0,0,1,3.884-3.47S335.365,227.242,334.666,222.629Z" transform="translate(-115.829 -160.848)"/><path class="a" d="M165.924,160.963s.539,3.841-3.949,3.752c0,0,3.855.04,3.753,3.644a4.375,4.375,0,0,1,3.884-3.47S166.623,165.576,165.924,160.963Z" transform="translate(-89.405 -151.192)"/><path class="a" d="M120.125,173.541s.539,3.842-3.949,3.753c0,0,3.854.04,3.753,3.644a4.374,4.374,0,0,1,3.884-3.47S120.824,178.154,120.125,173.541Z" transform="translate(-82.234 -153.162)"/><path class="a" d="M148.362,154.074s.187,1.338-1.376,1.308c0,0,1.344.013,1.308,1.27a1.524,1.524,0,0,1,1.354-1.209S148.606,155.682,148.362,154.074Z" transform="translate(-87.058 -150.113)"/><path class="a" d="M231.676,208.806s.188,1.339-1.376,1.308c0,0,1.344.014,1.307,1.27a1.525,1.525,0,0,1,1.354-1.209S231.919,210.414,231.676,208.806Z" transform="translate(-100.104 -158.684)"/><path class="a" d="M77.308,235.94s.187,1.339-1.376,1.309c0,0,1.344.014,1.308,1.27a1.524,1.524,0,0,1,1.354-1.209S77.552,237.548,77.308,235.94Z" transform="translate(-75.932 -162.933)"/><path class="a" d="M215.835,278.74s.187,1.338-1.376,1.308c0,0,1.344.014,1.307,1.27a1.526,1.526,0,0,1,1.355-1.209S216.078,280.348,215.835,278.74Z" transform="translate(-97.624 -169.635)"/><g transform="translate(54.262 80.374)"><path class="a" d="M151.053,251.825H142.3a2.031,2.031,0,0,1-.065-4.061,3.142,3.142,0,0,1,5.775-1.662,2.279,2.279,0,0,1,2.531,1.661h.512a2.031,2.031,0,1,1,0,4.062Zm-8.753-3.461a1.43,1.43,0,1,0,0,2.859h8.753a1.43,1.43,0,1,0,0-2.859h-1.01l-.04-.254a1.68,1.68,0,0,0-2.071-1.383l-.221.053-.111-.2a2.542,2.542,0,0,0-4.763,1.236c0,.074.005.148.011.22l.028.326Z" transform="translate(-140.269 -244.675)"/></g><g transform="translate(210.418 6.297)"><path class="a" d="M336.2,163.994h-8.754a2.031,2.031,0,0,1-.065-4.06,3.142,3.142,0,0,1,5.775-1.662,2.281,2.281,0,0,1,2.532,1.662h.512a2.031,2.031,0,0,1,0,4.061Zm-8.754-3.461a1.43,1.43,0,0,0,0,2.86H336.2a1.43,1.43,0,0,0,0-2.86h-1.01l-.041-.253a1.68,1.68,0,0,0-2.071-1.383l-.222.053-.111-.2a2.542,2.542,0,0,0-4.764,1.236c0,.074.005.148.012.22l.028.326Z" transform="translate(-325.417 -156.844)"/></g><g transform="translate(74.883 28.646)"><path class="a" d="M175.5,190.492h-8.753a2.031,2.031,0,0,1-.065-4.06,3.142,3.142,0,0,1,5.775-1.662,2.28,2.28,0,0,1,2.531,1.662h.512a2.031,2.031,0,1,1,0,4.061Zm-8.753-3.461a1.43,1.43,0,0,0,0,2.86H175.5a1.43,1.43,0,1,0,0-2.86h-1.01l-.04-.253a1.682,1.682,0,0,0-2.072-1.383l-.221.053-.11-.2a2.542,2.542,0,0,0-4.764,1.236c0,.074.005.148.011.22l.028.326Z" transform="translate(-164.718 -183.342)"/></g></g><g transform="translate(73.39 68.773)"><g transform="translate(35.459 43.703)"><path class="b" d="M207.3,318.6h0a7.074,7.074,0,0,1-8.733-4.881l-5.613-19.838a7.074,7.074,0,0,1,4.881-8.733h0a7.074,7.074,0,0,1,8.734,4.881l5.613,19.838A7.074,7.074,0,0,1,207.3,318.6Z" transform="translate(-192.68 -283.073)"/><path class="b" d="M200.116,319.682h0a7.075,7.075,0,0,1-.1-10l14.436-14.718a7.074,7.074,0,0,1,10-.1h0a7.074,7.074,0,0,1,.1,10l-14.436,14.719A7.075,7.075,0,0,1,200.116,319.682Z" transform="translate(-193.512 -284.319)"/><g transform="translate(23.453)"><path class="c" d="M232.462,290.637a6.2,6.2,0,1,1-8.6-1.723A6.2,6.2,0,0,1,232.462,290.637Z" transform="translate(-220.584 -283.541)"/><path class="c" d="M223.054,293.177h0a1.615,1.615,0,0,1-1.967-1.161l-.549-2.133a1.615,1.615,0,0,1,1.161-1.968h0a1.616,1.616,0,0,1,1.968,1.161l.549,2.133A1.615,1.615,0,0,1,223.054,293.177Z" transform="translate(-220.487 -283.54)"/><path class="c" d="M229.894,285.03l-2.2,5.561a1.677,1.677,0,0,1-2.175.944h0a1.677,1.677,0,0,1-.944-2.176l2.2-5.56a1.676,1.676,0,0,1,2.176-.944h0A1.676,1.676,0,0,1,229.894,285.03Z" transform="translate(-221.109 -282.737)"/><path class="c" d="M234.41,286.389l-2.653,5.357a1.677,1.677,0,0,1-2.247.759h0a1.677,1.677,0,0,1-.759-2.247L231.4,284.9a1.677,1.677,0,0,1,2.247-.759h0A1.677,1.677,0,0,1,234.41,286.389Z" transform="translate(-221.754 -282.93)"/><path class="c" d="M237.664,289.871l-3.7,4.693a1.677,1.677,0,0,1-2.356.277h0a1.676,1.676,0,0,1-.277-2.355l3.7-4.693a1.676,1.676,0,0,1,2.355-.277h0A1.677,1.677,0,0,1,237.664,289.871Z" transform="translate(-222.128 -283.429)"/></g></g><g transform="translate(21.005 0)"><g transform="translate(8.424 22.459)"><path class="c" d="M0,0H8.265V13.99a1.73,1.73,0,0,1-1.73,1.73h-4.8A1.731,1.731,0,0,1,0,13.99Z" transform="translate(0.618 0.449) rotate(2.253)"/><path class="d" d="M194.5,257.874l-8.258-.325-.127,3.244a5.434,5.434,0,0,0,5.635,5.737,5.7,5.7,0,0,0,2.44-.749Z" transform="translate(-185.619 -257.549)"/></g><g transform="translate(0)"><ellipse class="e" cx="10.298" cy="7.932" rx="10.298" ry="7.932" transform="translate(0 9.403) rotate(-15.799)"/><ellipse class="e" cx="9.15" cy="5.956" rx="9.15" ry="5.956" transform="translate(8.447 9.502) rotate(-9.641)"/><ellipse class="e" cx="9.15" cy="5.956" rx="9.15" ry="5.956" transform="matrix(0.734, -0.679, 0.679, 0.734, 2.617, 12.421)"/><path class="c" d="M199.053,253.517c.813,4.555-1.57,8.792-5.324,9.461h0c-3.752.67-7.454-2.48-8.267-7.036l-.64-3.585c-.813-4.555,1.57-8.792,5.324-9.461h0c3.753-.67,7.456,2.48,8.269,7.036Z" transform="translate(-176.97 -232.781)"/><path class="e" d="M190.358,242.089c-2.076-1.878-5.689-.97-8.07,2.03s-2.628,6.955-.552,8.834,5.689.971,8.07-2.029S192.433,243.969,190.358,242.089Z" transform="translate(-176.291 -232.516)"/><g transform="translate(2.748 16.504)"><g transform="translate(8.95 0.286)"><g transform="translate(3.36 1.83)"><g transform="translate(0 0.002)"><path class="f" d="M193.773,254.1a.377.377,0,0,1-.216-.686,2.443,2.443,0,0,1,2.517-.107.378.378,0,0,1-.38.653,1.675,1.675,0,0,0-1.708.075A.375.375,0,0,1,193.773,254.1Z" transform="translate(-193.396 -252.999)"/></g><g transform="translate(4.401)"><path class="f" d="M201.1,254.1a.378.378,0,0,1-.213-.066h0a1.673,1.673,0,0,0-1.707-.075.378.378,0,0,1-.38-.653,2.43,2.43,0,0,1,2.517.107.377.377,0,0,1-.216.687Z" transform="translate(-198.614 -252.997)"/></g><g transform="translate(1.293 1.71)"><path class="f" d="M195.716,255.434a.394.394,0,1,1-.378-.409A.393.393,0,0,1,195.716,255.434Z" transform="translate(-194.929 -255.025)"/></g><path class="f" d="M200.194,255.61a.394.394,0,1,1-.378-.409A.393.393,0,0,1,200.194,255.61Z" transform="translate(-194.337 -253.342)"/></g><g transform="translate(7.034 0.643)"><path class="g" d="M200.853,257.784c-.042,0-.084,0-.127,0a3.04,3.04,0,1,1,.127,0Zm-.008-5.671a2.574,2.574,0,0,0-.1,5.146,2.611,2.611,0,0,0,1.849-.682,2.573,2.573,0,0,0-1.645-4.461Z" transform="translate(-197.752 -251.59)"/></g><path class="g" d="M192.894,257.783c-.046,0-.094,0-.141,0a3.477,3.477,0,0,1-2.223-6.028,3.417,3.417,0,0,1,2.5-.921,3.477,3.477,0,0,1-.132,6.952Zm-.008-6.367A2.89,2.89,0,0,0,190,254.193h0a2.893,2.893,0,0,0,2.774,3,2.889,2.889,0,1,0,.227-5.774C192.964,251.417,192.925,251.417,192.886,251.417Z" transform="translate(-189.412 -250.827)"/><g transform="translate(6.096 3.483)"><path class="h" d="M196.9,255.5l1.279.051a.27.27,0,0,0,.28-.259h0a.269.269,0,0,0-.259-.279l-1.279-.051a.27.27,0,0,0-.28.259h0A.269.269,0,0,0,196.9,255.5Z" transform="translate(-196.64 -254.957)"/></g><g transform="translate(6.716 5.115)"><path class="f" d="M199.575,257.611a1.22,1.22,0,0,1-1.166.915c-.607.056-1.069-.263-1.033-.713a1.221,1.221,0,0,1,1.166-.915C199.149,256.843,199.612,257.162,199.575,257.611Z" transform="translate(-197.375 -256.893)"/></g><g transform="translate(4.797 7.809)"><path class="f" d="M198.962,260.53a1.973,1.973,0,0,1-2.119,1.807,2,2,0,0,1-1.741-2.206A9.769,9.769,0,0,1,198.962,260.53Z" transform="translate(-195.1 -260.086)"/><path class="i" d="M197.081,261.182c-.893-.1-1.444-.409-1.5-1.08a9.724,9.724,0,0,1,3.258.362C198.691,261.068,197.957,261.283,197.081,261.182Z" transform="translate(-195.176 -260.086)"/></g></g><g transform="translate(0 0)"><g transform="translate(6.893 8.106)"><path class="j" d="M193.093,262.756h0l-2.22,0a3.6,3.6,0,0,1-2.421-.932l-1.389-1.254a.269.269,0,0,1,.361-.4l1.39,1.254a3.066,3.066,0,0,0,2.06.793l2.22,0a.269.269,0,1,1,0,.539Z" transform="translate(-186.973 -260.099)"/><g transform="translate(4.681 1.847)"><path class="h" d="M193.962,263.369h0l-.9,0a.539.539,0,0,1,0-1.078h.9a.539.539,0,0,1,0,1.079Z" transform="translate(-192.523 -262.289)"/></g></g><circle class="k" cx="4.514" cy="4.514" r="4.514" transform="matrix(0.341, -0.94, 0.94, 0.341, 0, 8.489)"/><ellipse class="l" cx="3.853" cy="3.523" rx="3.853" ry="3.523" transform="matrix(0.039, -0.999, 0.999, 0.039, 1.449, 9.468)"/><path class="m" d="M185.075,257.038a1.25,1.25,0,1,1-1.15-1.607A1.421,1.421,0,0,1,185.075,257.038Z" transform="translate(-179.404 -251.262)"/></g></g></g></g><g transform="translate(12.581 31.373)"><path class="b" d="M193.414,322.5l-21.593.609a6.523,6.523,0,0,1-6.261-6.774l1.364-36.136a4.49,4.49,0,0,1,3.125-4.1l16.1-5.126,12.868,6.168a4.489,4.489,0,0,1,2.546,4.225l-1.371,34.875A6.523,6.523,0,0,1,193.414,322.5Z" transform="translate(-165.554 -268.564)"/><path class="n" d="M206.732,283.289c.074,3.768.03,7.532-.031,11.294s-.183,7.523-.317,11.283c-.16,3.758-.322,7.517-.568,11.272a10.064,10.064,0,0,1-.446,2.875,6.55,6.55,0,0,1-6.784,4.413,6.553,6.553,0,0,0,4.855-2.279,6.117,6.117,0,0,0,1.279-2.342,9.3,9.3,0,0,0,.266-2.7c.051-3.762.184-7.522.32-11.282.162-3.758.323-7.517.569-11.272S206.362,287.04,206.732,283.289Z" transform="translate(-170.726 -270.494)"/><path class="b" d="M3.786,0H7.892a3.786,3.786,0,0,1,3.786,3.786V8.5a0,0,0,0,1,0,0H0a0,0,0,0,1,0,0V3.786A3.786,3.786,0,0,1,3.786,0Z" transform="translate(15.394 0) rotate(3.691)"/></g><g transform="translate(0 42.064)"><path class="b" d="M155,313.443h0a7.075,7.075,0,0,1-3.82-9.247l7.908-19.039a7.074,7.074,0,0,1,9.246-3.821h0a7.075,7.075,0,0,1,3.82,9.247l-7.907,19.04A7.075,7.075,0,0,1,155,313.443Z" transform="translate(-150.637 -280.794)"/><path class="n" d="M170.861,281.437a6.961,6.961,0,0,1,3.268,2.3,7.315,7.315,0,0,1,1.487,3.821,8.018,8.018,0,0,1-.768,4.053l-1.494,3.674c-1.025,2.437-2.052,4.873-3.156,7.277l-1.661,3.6c-.59,1.187-1.145,2.388-1.764,3.561.394-1.267.853-2.508,1.277-3.763l1.382-3.72c.924-2.479,1.925-4.926,2.928-7.372l1.549-3.651a10.433,10.433,0,0,0,.67-1.777,6.9,6.9,0,0,0,.213-1.839A7.187,7.187,0,0,0,170.861,281.437Z" transform="translate(-153.164 -280.894)"/><g transform="translate(0.442 13.406)"><g transform="translate(30.949)"><g transform="translate(0 2.506)"><path class="g" d="M193.754,306.419l-3.6-.233a2.457,2.457,0,0,1-2.291-2.607l.1-1.624a2.456,2.456,0,0,1,2.607-2.291l3.6.232Zm-3.286-5.141a.838.838,0,0,0-.889.781l-.1,1.624a.838.838,0,0,0,.781.889l1.989.128.213-3.294Z" transform="translate(-187.856 -299.66)"/></g><g transform="translate(3.074)"><path class="o" d="M197.828,311.135l-3.116-.2a3.432,3.432,0,0,1-3.2-3.647l.646-10.016c.072-1.117,10.039-.475,9.967.643l-.646,10.016A3.433,3.433,0,0,1,197.828,311.135Z" transform="translate(-191.5 -296.688)"/><path class="g" d="M201.4,298.27c-.026.4-1.877.61-4.133.465s-4.065-.59-4.039-.992,1.876-.611,4.133-.466S201.424,297.867,201.4,298.27Z" transform="translate(-191.771 -296.773)"/></g></g><path class="b" d="M151.162,310.67h0a7.074,7.074,0,0,1,7.185-6.962l20.615.326a7.074,7.074,0,0,1,6.962,7.185h0a7.074,7.074,0,0,1-7.185,6.962l-20.614-.326A7.075,7.075,0,0,1,151.162,310.67Z" transform="translate(-151.161 -297.787)"/><path class="n" d="M159.681,303.65c2.647-.18,5.292-.244,7.937-.288s5.289-.029,7.932,0l3.965.091a8.03,8.03,0,0,1,4.025.908,7.328,7.328,0,0,1,2.913,2.886,6.96,6.96,0,0,1,.8,3.913,7.189,7.189,0,0,0-4.09-6.058,6.923,6.923,0,0,0-1.771-.536,10.341,10.341,0,0,0-1.9-.093l-3.966-.035c-2.643-.055-5.286-.111-7.929-.25S162.321,303.913,159.681,303.65Z" transform="translate(-152.495 -297.728)"/><g transform="translate(26.977 3.157)"><circle class="c" cx="6.198" cy="6.198" r="6.198" transform="translate(0 9.54) rotate(-50.316)"/><path class="c" d="M189.509,306.368h0a1.482,1.482,0,0,1-.916-1.885l.661-1.91a1.482,1.482,0,0,1,1.885-.916h0a1.481,1.481,0,0,1,.916,1.885l-.66,1.91A1.482,1.482,0,0,1,189.509,306.368Z" transform="translate(-183.986 -300.611)"/><path class="c" d="M202.43,307.646l-5.5.512a1.549,1.549,0,0,1-1.686-1.4h0a1.549,1.549,0,0,1,1.4-1.687l5.5-.512a1.55,1.55,0,0,1,1.687,1.4h0A1.55,1.55,0,0,1,202.43,307.646Z" transform="translate(-185.039 -301.077)"/><path class="c" d="M201.092,313.576l-5.513-.355a1.549,1.549,0,0,1-1.446-1.646h0a1.548,1.548,0,0,1,1.645-1.446l5.513.355a1.551,1.551,0,0,1,1.447,1.646h0A1.55,1.55,0,0,1,201.092,313.576Z" transform="translate(-184.866 -301.949)"/></g></g></g></g><g transform="translate(103.633 106.421)"><g transform="translate(64.423)"><g transform="translate(4.395 6.343)"><path class="k" d="M268.737,290.545a.646.646,0,0,1-.456-1.1l6.172-6.173a.646.646,0,0,1,.913.913l-6.172,6.173A.641.641,0,0,1,268.737,290.545Z" transform="translate(-268.091 -283.079)"/></g><path class="k" d="M263.526,285.579a.646.646,0,0,1-.646-.646V276.2a.646.646,0,0,1,1.293,0v8.729A.646.646,0,0,1,263.526,285.579Z" transform="translate(-262.88 -275.558)"/><g transform="translate(8.182 16.912)"><path class="k" d="M281.957,296.9h-8.73a.646.646,0,1,1,0-1.292h8.73a.646.646,0,1,1,0,1.292Z" transform="translate(-272.581 -295.61)"/></g></g><g transform="translate(0 16.526)"><path class="n" d="M191.268,328.835h53.411c1.489,0,1.949-1.207,1.949-2.7H188.569A2.7,2.7,0,0,0,191.268,328.835Z" transform="translate(-186.82 -300.004)"/><path class="n" d="M187.845,326.138h18.932a2.9,2.9,0,0,1-3.063,2.7H187.765A1.35,1.35,0,0,1,187.845,326.138Z" transform="translate(-186.496 -300.004)"/><g transform="translate(19.092)"><path class="m" d="M211.5,322.071h38.344a2.372,2.372,0,0,0,2.329-1.929l5.168-22.177a2.371,2.371,0,0,0-2.329-2.814H216.672a2.371,2.371,0,0,0-2.329,1.929l-5.168,22.176A2.372,2.372,0,0,0,211.5,322.071Z" transform="translate(-209.133 -295.152)"/><path class="n" d="M214.343,297.164a2.362,2.362,0,0,1,.945-1.481,2.36,2.36,0,0,1,.945,2.366l-5.167,22.177a2.367,2.367,0,0,1-.945,1.48,2.366,2.366,0,0,1-.947-2.366Z" transform="translate(-209.133 -295.235)"/><path class="i" d="M242.3,313.6h-6.288a2.336,2.336,0,0,1-2.336-2.336h0a2.336,2.336,0,0,1,2.336-2.335H242.3a2.336,2.336,0,0,1,2.335,2.335h0A2.336,2.336,0,0,1,242.3,313.6Z" transform="translate(-212.976 -297.309)"/></g><g transform="translate(4.506 25.53)"><path class="n" d="M194.4,326.77h-1.887a.674.674,0,0,1-.674-.674h0a.674.674,0,0,1,.674-.674H194.4a.673.673,0,0,1,.673.674h0A.673.673,0,0,1,194.4,326.77Z" transform="translate(-191.838 -325.422)"/><path class="n" d="M198.766,326.77h-1.887a.674.674,0,0,1-.674-.674h0a.674.674,0,0,1,.674-.674h1.887a.673.673,0,0,1,.673.674h0A.673.673,0,0,1,198.766,326.77Z" transform="translate(-192.522 -325.422)"/><path class="n" d="M203.133,326.77h-1.887a.674.674,0,0,1-.674-.674h0a.674.674,0,0,1,.674-.674h1.887a.673.673,0,0,1,.673.674h0A.673.673,0,0,1,203.133,326.77Z" transform="translate(-193.206 -325.422)"/><path class="n" d="M207.5,326.77h-1.886a.674.674,0,0,1-.674-.674h0a.674.674,0,0,1,.674-.674H207.5a.674.674,0,0,1,.674.674h0A.674.674,0,0,1,207.5,326.77Z" transform="translate(-193.889 -325.422)"/></g></g></g><path class="p" d="M261.045,332.4H99.706a1.617,1.617,0,0,1-1.617-1.618h0a1.617,1.617,0,0,1,1.617-1.617H261.045a1.617,1.617,0,0,1,1.617,1.617h0A1.617,1.617,0,0,1,261.045,332.4Z" transform="translate(-69.019 -177.53)"/><g transform="translate(45.526 124.274)"><path class="q" d="M128.02,315.312s-1.187-8.922-3.337-11.115" transform="translate(-118.709 -297.895)"/><g transform="translate(1.448)"><path class="r" d="M124.6,297.719c.574,1.9.457,3.619-.262,3.837s-1.768-1.148-2.342-3.05l-.017-.056a1.361,1.361,0,0,1,2.6-.787Z" transform="translate(-119.723 -296.725)"/><g transform="translate(0 2.56)"><path class="r" d="M128.424,302.443c-1.9.574-3.618.457-3.836-.262s1.148-1.768,3.049-2.342l.057-.017a1.361,1.361,0,0,1,.787,2.6Z" transform="translate(-120.138 -299.76)"/><path class="r" d="M121.1,304.72c1.9-.574,3.267-1.623,3.05-2.342s-1.935-.837-3.837-.262l-.057.018a1.36,1.36,0,0,0,.787,2.6Z" transform="translate(-119.317 -300.072)"/></g><g transform="translate(2.293 5.219)"><path class="r" d="M124.724,307.119c.535-1.913.381-3.628-.342-3.83s-1.743,1.184-2.278,3.1l-.015.058a1.36,1.36,0,0,0,2.62.731Z" transform="translate(-122.035 -302.969)"/><path class="r" d="M127.032,306.508c-1.5-1.3-2.326-2.809-1.835-3.379s2.108.021,3.612,1.318l.045.039a1.361,1.361,0,0,1-1.776,2.06Z" transform="translate(-122.508 -302.913)"/></g><path class="s" d="M125.509,302.624A.93.93,0,1,1,124.35,302,.929.929,0,0,1,125.509,302.624Z" transform="translate(-120.001 -297.545)"/></g><g transform="translate(0 8.408)"><path class="a" d="M123.405,310.236c2.47,1.946,3.876,4.281,3.14,5.216s-3.336.114-5.806-1.832A9.92,9.92,0,0,1,117.6,308.4,9.91,9.91,0,0,1,123.405,310.236Z" transform="translate(-117.6 -306.962)"/><path class="a" d="M133.528,312.914c-2.608,2.448-5.472,3.634-6.4,2.647s.436-3.771,3.044-6.219a11.282,11.282,0,0,1,6.4-2.648A11.284,11.284,0,0,1,133.528,312.914Z" transform="translate(-119.047 -306.694)"/></g><g transform="translate(1.487 15.927)"><path class="p" d="M130.636,327.81H122.1l-1.493-10.733h11.518Z" transform="translate(-119.558 -315.838)"/><rect class="p" width="13.623" height="3.991" rx="1.469"/></g></g><g transform="translate(0 13.531)"><g transform="translate(0 8.117)"><g transform="translate(71.226 24.588)"><path class="g" d="M158.3,220.3l4.231,4.537,32.248-13.451Z" transform="translate(-149.673 -205.324)"/><path class="a" d="M158.2,204.2,155.018,209l2.153,4.709-4.831.822-4.269,9.372,46.141-13.963Z" transform="translate(-148.072 -204.199)"/><path class="g" d="M158.461,214.606l-2.153-4.709,24.992,1.169Z" transform="translate(-149.361 -205.092)"/></g><g transform="translate(36.522 41.502)"><path class="a" d="M148.3,263.423q-.533,0-1.065-.007a.646.646,0,0,1-.639-.654.633.633,0,0,1,.654-.639c1.675.019,3.337-.007,5.162-.083h.028a.646.646,0,0,1,.027,1.292C151,263.393,149.64,263.423,148.3,263.423Zm-6.248-.255a.422.422,0,0,1-.057,0c-1.781-.153-3.534-.381-5.209-.679a.648.648,0,0,1-.524-.751.657.657,0,0,1,.751-.523c1.636.292,3.35.514,5.093.664a.647.647,0,0,1-.055,1.291ZM131.845,261.3a.65.65,0,0,1-.19-.03,37.42,37.42,0,0,1-4.93-1.9.647.647,0,1,1,.55-1.171,36.393,36.393,0,0,0,4.759,1.829.647.647,0,0,1-.19,1.266Zm-9.367-4.412a.649.649,0,0,1-.358-.109,34.371,34.371,0,0,1-4.161-3.269.647.647,0,1,1,.876-.951,33.072,33.072,0,0,0,4,3.144.647.647,0,0,1-.36,1.185Zm-7.622-7a.646.646,0,0,1-.506-.243,34.5,34.5,0,0,1-2.969-4.382.647.647,0,1,1,1.124-.64,33.2,33.2,0,0,0,2.857,4.216.647.647,0,0,1-.1.909A.639.639,0,0,1,114.856,249.885Zm-5.123-9a.647.647,0,0,1-.6-.418,31.745,31.745,0,0,1-1.454-5.1.647.647,0,0,1,1.269-.249,30.4,30.4,0,0,0,1.4,4.889.647.647,0,0,1-.377.834A.662.662,0,0,1,109.734,240.888Zm-2.063-10.148a.647.647,0,0,1-.644-.606c-.067-1.057-.1-2.169-.1-3.305v-.262q0-.843.03-1.689a.647.647,0,0,1,.647-.625h.021a.646.646,0,0,1,.625.667q-.027.827-.03,1.65v.26c0,1.11.034,2.194.1,3.224a.645.645,0,0,1-.6.687Z" transform="translate(-106.925 -224.253)"/></g><path class="a" d="M106.328,212.779q-1.481,0-2.915-.035a.647.647,0,0,1,.017-1.293h.017q2.5.063,5.167.014a.612.612,0,0,1,.659.634.645.645,0,0,1-.633.659Q107.469,212.78,106.328,212.779Zm7.49-.217a.646.646,0,0,1-.035-1.291c1.672-.1,3.409-.22,5.163-.375a.647.647,0,0,1,.114,1.289c-1.768.156-3.519.283-5.206.377Zm-15.577-.082h-.052c-1.8-.14-3.552-.332-5.206-.568a.647.647,0,0,1-.548-.732.656.656,0,0,1,.731-.548c1.628.233,3.352.421,5.125.557a.647.647,0,0,1-.049,1.292Zm25.931-.827a.647.647,0,0,1-.074-1.289q2.52-.295,5.137-.667a.647.647,0,1,1,.184,1.28q-2.637.376-5.171.671A.573.573,0,0,1,124.172,211.654Zm-36.211-.663a.675.675,0,0,1-.142-.016c-1.251-.281-2.47-.6-3.622-.94q-.736-.219-1.448-.455a.647.647,0,0,1,.407-1.228q.693.229,1.409.444c1.126.335,2.315.643,3.536.917a.648.648,0,0,1-.14,1.279Zm-9.824-3.323a.645.645,0,0,1-.282-.065,31.509,31.509,0,0,1-4.566-2.69.647.647,0,0,1,.751-1.053,30.349,30.349,0,0,0,4.379,2.579.647.647,0,0,1-.283,1.229Zm22.265-.578a.646.646,0,0,1-.646-.646v-.229c0-1.631-.066-3.288-.195-4.926a.647.647,0,1,1,1.29-.1c.131,1.67.2,3.362.2,5.027v.229A.646.646,0,0,1,100.4,207.091Zm-30.627-5.485a.645.645,0,0,1-.478-.21,22.547,22.547,0,0,1-3.109-4.337.648.648,0,0,1,1.135-.623,21.1,21.1,0,0,0,2.93,4.088.646.646,0,0,1-.478,1.082Zm29.794-4.887a.647.647,0,0,1-.637-.536,44.13,44.13,0,0,0-1.143-5,.647.647,0,0,1,1.241-.364,45.589,45.589,0,0,1,1.177,5.144.647.647,0,0,1-.528.747A.621.621,0,0,1,99.57,196.719Zm-34.754-4.132a.646.646,0,0,1-.623-.475q-.12-.435-.225-.879a12.523,12.523,0,0,1-.346-2.867,10.955,10.955,0,0,1,.125-1.659.646.646,0,1,1,1.278.194,9.814,9.814,0,0,0-.11,1.465,11.261,11.261,0,0,0,.311,2.569q.1.42.213.832a.65.65,0,0,1-.623.82Zm31.755-5.8a.648.648,0,0,1-.584-.368,21.918,21.918,0,0,0-2.653-4.28.647.647,0,1,1,1.009-.811,23.285,23.285,0,0,1,2.811,4.531.649.649,0,0,1-.583.928Zm-30.15-4.054a.64.64,0,0,1-.391-.132.648.648,0,0,1-.123-.907,14.661,14.661,0,0,1,4.05-3.578.647.647,0,0,1,.676,1.1,13.346,13.346,0,0,0-3.7,3.258A.648.648,0,0,1,66.421,182.733Zm23.609-3.846a.645.645,0,0,1-.354-.105,14.6,14.6,0,0,0-4.532-1.962.648.648,0,1,1,.31-1.258,15.952,15.952,0,0,1,4.933,2.137.647.647,0,0,1-.356,1.188Zm-14.985-1.648a.647.647,0,0,1-.183-1.268,24.372,24.372,0,0,1,5.085-.919l.195-.006a.688.688,0,0,1,.659.633.645.645,0,0,1-.633.659l-.142.006a23.025,23.025,0,0,0-4.8.867A.661.661,0,0,1,75.045,177.239Z" transform="translate(-63.622 -175.046)"/></g><g transform="translate(130.408 14.714)"><g transform="translate(28.813)"><path class="o" d="M260.23,182.867H294.8a7.825,7.825,0,0,1,7.825,7.825v17.831a7.825,7.825,0,0,1-7.825,7.824H272.195l-8.131,7.175v-7.175H260.23a7.825,7.825,0,0,1-7.825-7.824V190.692A7.825,7.825,0,0,1,260.23,182.867Z" transform="translate(-252.405 -182.867)"/><g transform="translate(11.874 9.073)"><path class="i" d="M267.464,195.587h24.513a.981.981,0,0,0,0-1.962H267.464a.981.981,0,0,0,0,1.962Z" transform="translate(-266.483 -193.625)"/><g transform="translate(0 6.536)"><path class="i" d="M267.464,203.338h24.513a.981.981,0,0,0,0-1.963H267.464a.981.981,0,0,0,0,1.963Z" transform="translate(-266.483 -201.375)"/></g><g transform="translate(20.918 13.074)"><path class="i" d="M292.266,211.088h3.595a.981.981,0,0,0,0-1.962h-3.595a.981.981,0,0,0,0,1.962Z" transform="translate(-291.285 -209.126)"/></g><g transform="translate(12.747 13.074)"><path class="i" d="M282.577,211.088h3.6a.981.981,0,0,0,0-1.962h-3.6a.981.981,0,0,0,0,1.962Z" transform="translate(-281.597 -209.126)"/></g><g transform="translate(0 13.074)"><path class="i" d="M267.464,211.088h8.171a.981.981,0,0,0,0-1.962h-8.171a.981.981,0,0,0,0,1.962Z" transform="translate(-266.483 -209.126)"/></g></g></g><g transform="translate(0 35.61)"><path class="o" d="M250.507,225.088H224.044a4.712,4.712,0,0,0-4.713,4.712v15.261a4.71,4.71,0,0,0,4.368,4.694l-5.457,8.943,14.381-8.925h17.884a4.712,4.712,0,0,0,4.712-4.712V229.8A4.712,4.712,0,0,0,250.507,225.088Z" transform="translate(-218.242 -225.088)"/><g transform="translate(11.628 4.209)"><circle class="t" cx="3.133" cy="3.133" r="3.133" transform="translate(2.974 4.431) rotate(-45)"/><path class="t" d="M246.84,246.946H232.029a4.747,4.747,0,0,1,4.747-4.748h5.317a4.747,4.747,0,0,1,4.748,4.748Z" transform="translate(-232.029 -231.976)"/></g></g></g><g transform="translate(117.951)"><path class="a" d="M216.251,190.927a12.922,12.922,0,0,1-2.607-.266.647.647,0,0,1-.5-.764.658.658,0,0,1,.764-.5,11.7,11.7,0,0,0,4.06.113.647.647,0,0,1,.192,1.28A13.023,13.023,0,0,1,216.251,190.927Zm5.871-1.511a.648.648,0,0,1-.315-1.215,11.468,11.468,0,0,0,3.151-2.562.646.646,0,0,1,.979.844,12.817,12.817,0,0,1-3.5,2.852A.658.658,0,0,1,222.121,189.416Zm-12.327-.348a.642.642,0,0,1-.343-.1,12.814,12.814,0,0,1-3.339-3.04.647.647,0,1,1,1.026-.789,11.524,11.524,0,0,0,3,2.734.647.647,0,0,1-.346,1.194Zm17.835-6.052a.639.639,0,0,1-.225-.041.646.646,0,0,1-.381-.832,11.454,11.454,0,0,0,.714-4,.646.646,0,0,1,1.293,0,12.733,12.733,0,0,1-.794,4.446A.649.649,0,0,1,227.629,183.016Zm-22.974-.642a.647.647,0,0,1-.618-.457,12.821,12.821,0,0,1-.565-3.769c0-.24.006-.479.019-.715a.662.662,0,0,1,.682-.609.646.646,0,0,1,.609.682c-.012.212-.018.427-.018.641a11.546,11.546,0,0,0,.508,3.389.649.649,0,0,1-.617.838Zm23.373-6.506a.647.647,0,0,1-.628-.492,11.385,11.385,0,0,0-1.662-3.7.647.647,0,0,1,1.068-.73,12.65,12.65,0,0,1,1.849,4.123.646.646,0,0,1-.472.783A.622.622,0,0,1,228.028,175.868Zm-22.9-1.925a.649.649,0,0,1-.593-.907,12.714,12.714,0,0,1,2.512-3.754.647.647,0,0,1,.931.9,11.408,11.408,0,0,0-2.257,3.375A.647.647,0,0,1,205.127,173.944Zm18.138-5.049a.64.64,0,0,1-.374-.119,11.377,11.377,0,0,0-3.672-1.726.647.647,0,0,1,.333-1.251,12.67,12.67,0,0,1,4.089,1.922.647.647,0,0,1-.376,1.174Zm-12.283-1.031a.647.647,0,0,1-.281-1.23,12.678,12.678,0,0,1,4.352-1.209.654.654,0,0,1,.7.584.647.647,0,0,1-.584.7,11.448,11.448,0,0,0-3.909,1.085A.635.635,0,0,1,210.982,167.864Z" transform="translate(-203.472 -165.422)"/><g transform="translate(4.301 6.583)"><path class="g" d="M217.05,173.227c-4.683,0-8.479,2.508-8.479,5.6v.016c0,.808.641,1.362,1.237,1.107l2.225-.95a1.335,1.335,0,0,0,.555-1.665l-.273-.746a33.581,33.581,0,0,0,9.438,0l-.277.958a1.35,1.35,0,0,0,.515,1.535l2.2,1.2c.535.293,1.16-.1,1.283-.831a3.771,3.771,0,0,0,.052-.626C225.528,175.735,221.732,173.227,217.05,173.227Z" transform="translate(-208.571 -173.227)"/><path class="a" d="M223.4,186.462h-11.75l1.741-5.455a2.467,2.467,0,0,1,2.351-1.717h3.568a2.467,2.467,0,0,1,2.351,1.717Z" transform="translate(-209.054 -174.176)"/></g><g transform="translate(75.735 66.452)"><path class="a" d="M306.048,269.717a12.852,12.852,0,0,1-2.61-.267.648.648,0,0,1-.5-.765.655.655,0,0,1,.766-.5,11.629,11.629,0,0,0,4.059.113.647.647,0,1,1,.191,1.279A13.165,13.165,0,0,1,306.048,269.717Zm5.87-1.51a.647.647,0,0,1-.315-1.213,11.532,11.532,0,0,0,3.15-2.563.646.646,0,1,1,.979.844,12.783,12.783,0,0,1-3.5,2.849A.634.634,0,0,1,311.918,268.207Zm-12.326-.348a.64.64,0,0,1-.343-.1,12.843,12.843,0,0,1-3.338-3.04.647.647,0,0,1,1.026-.79,11.505,11.505,0,0,0,3,2.735.647.647,0,0,1-.345,1.194Zm17.833-6.051a.649.649,0,0,1-.606-.873,11.432,11.432,0,0,0,.715-4,.646.646,0,1,1,1.292,0,12.742,12.742,0,0,1-.795,4.447A.648.648,0,0,1,317.425,261.807Zm-22.974-.644a.647.647,0,0,1-.618-.456,12.792,12.792,0,0,1-.564-3.768q0-.359.02-.714a.679.679,0,0,1,.681-.61.646.646,0,0,1,.61.681c-.012.213-.018.428-.018.643a11.49,11.49,0,0,0,.507,3.387.646.646,0,0,1-.427.808A.623.623,0,0,1,294.45,261.163Zm23.376-6.5a.646.646,0,0,1-.628-.492,11.43,11.43,0,0,0-1.662-3.7.647.647,0,0,1,1.068-.73,12.679,12.679,0,0,1,1.849,4.122.646.646,0,0,1-.472.783A.585.585,0,0,1,317.826,254.659Zm-22.9-1.925a.648.648,0,0,1-.592-.907,12.755,12.755,0,0,1,2.513-3.754.647.647,0,0,1,.931.9,11.44,11.44,0,0,0-2.259,3.375A.648.648,0,0,1,294.924,252.734Zm18.14-5.047a.64.64,0,0,1-.374-.119,11.375,11.375,0,0,0-3.672-1.727.647.647,0,0,1,.332-1.251,12.689,12.689,0,0,1,4.089,1.924.646.646,0,0,1-.375,1.173Zm-12.283-1.035a.647.647,0,0,1-.281-1.23,12.691,12.691,0,0,1,4.353-1.208.647.647,0,1,1,.12,1.288,11.392,11.392,0,0,0-3.911,1.085A.642.642,0,0,1,300.78,246.652Z" transform="translate(-293.268 -244.212)"/><g transform="translate(5.157 7.294)"><rect class="l" width="15.041" height="8.529" transform="translate(0 3.131)"/><g transform="translate(2.751)"><path class="k" d="M314.772,255.319v-1.044a1.39,1.39,0,0,1,1.391-1.391h0a1.39,1.39,0,0,1,1.391,1.391v1.731h-2.782" transform="translate(-304.544 -252.864)"/><path class="m" d="M312.9,254.252v8.864H302.645v-8.864a1.392,1.392,0,0,1,1.392-1.392h10.139l-.282.058A1.392,1.392,0,0,0,312.9,254.252Z" transform="translate(-302.645 -252.86)"/><g transform="translate(0.638 1.43)"><rect class="k" width="2.274" height="2.334" transform="translate(0 0.013)"/><g transform="translate(2.97)"><line class="u" x2="5.78"/><line class="u" x2="5.78" transform="translate(0 0.786)"/><line class="u" x2="5.78" transform="translate(0 1.572)"/><line class="u" x2="5.78" transform="translate(0.054 2.358)"/></g><line class="u" x2="8.751" transform="translate(0 3.134)"/><line class="u" x2="8.751" transform="translate(0 3.92)"/><line class="u" x2="8.751" transform="translate(0 4.688)"/><line class="u" x2="4.253" transform="translate(0 5.475)"/></g></g><path class="g" d="M310.729,265.1H299.383v-8.529Z" transform="translate(-299.383 -253.441)"/><path class="g" d="M303.764,265.1H315.11v-8.529Z" transform="translate(-300.069 -253.441)"/><path class="g" d="M314.424,265.971H299.383l6.755-3.607a1.342,1.342,0,0,1,1.531,0Z" transform="translate(-299.383 -254.311)"/></g></g></g></g></g></g></svg>