<svg xmlns="http://www.w3.org/2000/svg" width="573.154" height="410.965" viewBox="0 0 573.154 410.965"><defs><style>.a{fill:#ebebeb;}.b{fill:#e0e0e0;}.c{fill:#263238;}.d{fill:#f2f2f2;}.e{fill:#0048cd;}.f{opacity:0.4;}.g{opacity:0.2;}.h{fill:#455a64;}.i{fill:#fafafa;}.j{fill:#0894fe;}.k{opacity:0.3;}.l{fill:#cdcdcd;}.m{opacity:0.5;}</style></defs><g transform="translate(-88.423 -46.912)"><rect class="a" width="109.861" height="162.99" transform="translate(137.697 340.952) rotate(-70.852)"/><path class="b" d="M327.7,290.632a11.356,11.356,0,0,1-1.913.883l-5.592,2.268-20.679,8.092-68.585,26.243-.565.216-.324-.514-.782-1.24c-15.4-24.57-29.338-46.8-39.529-63.062l-11.834-19.2-3.155-5.26a11.463,11.463,0,0,1-1.014-1.888A11.655,11.655,0,0,1,175,238.9l3.389,5.112c2.977,4.61,7.134,11.05,12.234,18.95,10.284,16.2,24.35,38.351,39.9,62.831.267.425.535.849.782,1.24l-.888-.3L299.153,300.9,320,293.249l5.689-2.01A11.277,11.277,0,0,1,327.7,290.632Z"/><path class="b" d="M137.7,340.952c-.209-.351,16.31-10.557,36.89-22.793s37.441-21.874,37.649-21.522-16.306,10.555-36.893,22.794S137.906,341.3,137.7,340.952Z"/><path class="b" d="M263.868,313.11c.387-.132,6.924,17.963,14.6,40.411s13.588,40.761,13.2,40.894-6.922-17.959-14.6-40.415S263.481,313.242,263.868,313.11Z"/><rect class="b" width="154.526" height="104.156" transform="translate(475.74 236.034) rotate(-9.617)"/><path class="a" d="M628.095,210.219a10.789,10.789,0,0,1-1.187,1.608l-3.613,4.435L609.8,232.421l-45.027,53.1-.371.437-.5-.279-1.216-.674-61.622-34.375-18.6-10.558-5.021-2.933a10.976,10.976,0,0,1-1.705-1.106,11.127,11.127,0,0,1,1.842.859l5.148,2.7,18.812,10.168,61.822,34.016,1.215.674-.873.158,45.345-52.829,13.832-15.872,3.811-4.265A10.755,10.755,0,0,1,628.095,210.219Z"/><path class="a" d="M493.14,338.727c-.334-.2,8.738-16.215,20.26-35.773s21.137-35.261,21.471-35.064-8.737,16.211-20.262,35.776S493.474,338.923,493.14,338.727Z"/><path class="a" d="M585.3,258.025c.261-.287,13.95,11.769,30.571,26.924s29.889,27.676,29.628,27.963-13.947-11.767-30.573-26.927S585.035,258.311,585.3,258.025Z"/><rect class="a" width="74.993" height="111.261" transform="matrix(0.366, -0.931, 0.931, 0.366, 448.335, 116.702)"/><path class="b" d="M579.322,88.594a7.637,7.637,0,0,1-1.329.55l-3.876,1.393-14.328,4.948-47.5,16.006-.391.132-.207-.359-.5-.867-25.221-44.1L478.425,52.87,476.419,49.2a7.874,7.874,0,0,1-.64-1.316,8,8,0,0,1,.816,1.214l2.171,3.58c1.9,3.227,4.56,7.734,7.82,13.263l25.477,43.956c.171.3.342.593.5.867l-.6-.227,47.6-15.721,14.429-4.645,3.936-1.214A7.856,7.856,0,0,1,579.322,88.594Z"/><path class="b" d="M448.336,117.672c-.133-.246,11.415-6.751,25.79-14.528S500.267,89.258,500.4,89.5s-11.413,6.749-25.793,14.529S448.468,117.917,448.336,117.672Z"/><path class="b" d="M535.161,102.164c.267-.079,4.227,12.443,8.843,27.966s8.143,28.177,7.875,28.256-4.226-12.44-8.843-27.968S534.894,102.244,535.161,102.164Z"/><path class="c" d="M661.577,457.077c0,.143-128.315.26-286.563.26-158.3,0-286.591-.117-286.591-.26s128.287-.261,286.591-.261C533.262,456.816,661.577,456.933,661.577,457.077Z"/><path class="d" d="M116.7,184.456l14.317-5.07-6.144-8.206a30.57,30.57,0,0,1-.44-5.492,8.322,8.322,0,0,1,.474-2.778,12.731,12.731,0,0,1,1.491-3.182,1.09,1.09,0,0,0-.968-1.82c-.95.253-2.879,2.529-3.732,5.908s-3.167-1.593-4.043-3.389-3.847-7.229-4.613-7.4c-1.122-.246-1.594.911-.677,2.685.928,1.8,3.29,7.288,2.319,7.705s-5.291-8.8-5.291-8.8-.608-2.118-1.746-1.674c-2.053.8,3.275,10.25,3.8,11.137.368.616-.671,1.106-1.031.424-.37-.7-4.109-9.285-6.207-8.489-1.61.611,4.31,7.813,4.1,10.024s-3.935-5.918-5.449-5.272c-.564.241-.951.5,1.86,4.859a72.623,72.623,0,0,0,4.511,5.89h0l7.469,12.934"/><path class="e" d="M245.408,201.945s-7.054-16.487-11.93-24.5c-4.589-7.537-10.666-8.762-13.9-8.991a22.269,22.269,0,0,0-4.125-.843l-26.492-.226a25.083,25.083,0,0,0-15.811,5.8c-1.222,1-10.378,11.619-22.521,26.742l-21.253-22.964-12.67,7.492s13.761,47.513,31.028,44.25c10.231-1.933,18.233-9.057,18.233-9.057l13.445-10.837.311,1.795c.272,2.191.954,5.731,1.468,7.878,1.626,6.786,2.53,15.727-.962,21.65,0,0-4.792,3.664-.981,7.7h49.844s7.062-4.787.615-10.112L225.663,227.6l2.611-12.338.978-4.941,4.384,7.519s8.685,10.926,17.713,9.582c10.855-1.616,17.145-21.386,7.347-47.525l-11.8,3.589Z"/><g class="f"><path d="M116.7,184.456l1.252,3.965,14.074-8.588-2.656-2.869Z"/></g><g class="g"><path d="M180.224,240.135a15.748,15.748,0,0,0,10.5-6.464,16.41,16.41,0,0,0,2.978-12.239,5.446,5.446,0,0,0-2.078-3.9c-1.573-.984-3.717-.478-5.355-1.35-1.334-.711-2.049-2.172-2.973-3.37s-2.219-3.063-3.605-2.457c0,0,1.673,8.8,2.4,12.718.735,3.944.967,9.544-.407,13.661A17.713,17.713,0,0,1,180.224,240.135Z"/></g><path class="c" d="M148.624,208.043a12.242,12.242,0,0,1,.739-4.13,24.62,24.62,0,0,1,1.261-3.985,12.3,12.3,0,0,1-.739,4.13A24.777,24.777,0,0,1,148.624,208.043Z"/><path class="c" d="M151.776,205.847a17.006,17.006,0,0,1-1.2-5.929,17.031,17.031,0,0,1,1.2,5.929Z"/><path class="h" d="M246.836,147.638l-18.1,29.326,14.243,3.961,15.8-24.364Z"/><path class="d" d="M245.706,172.622l.619,4.286,2.523,3.249.254,2.663,9.079-2.762L254.513,167.1a26.716,26.716,0,0,0,.353-5.3l-2.493,3.314-.689-5.4-5.119-4.114a1.241,1.241,0,0,0-1.747.268h0a1.242,1.242,0,0,0,.135,1.611l4.108,3.621.266,4.472-2.97-2.765a2.155,2.155,0,0,0-1.048-.537l-4.129-.826a1.077,1.077,0,0,0-1.282.948h0a1.078,1.078,0,0,0,.754,1.137l3.754,1.155,3.8,3.835-3.712-1.415-5.05.707a.979.979,0,0,0-.843.969h0a.979.979,0,0,0,1.033.978l3.21-.179,1.885.59-4.343,1.15a.877.877,0,0,0-.652.891h0a.877.877,0,0,0,.949.83Z"/><g class="f"><path d="M246.9,183.491l-.387,4.8,13.768-3.8-1.58-4.6Z"/></g><path class="c" d="M228.739,176.964s-1.215-1.652-1.121-1.933,17.223-28.473,17.223-28.473l1.995,1.08Z"/><path class="c" d="M251.368,155.009a.627.627,0,1,1-.035.038"/><path class="i" d="M240.033,191.194a2.466,2.466,0,0,1-.522.705,4.6,4.6,0,0,1-2.226,1.157,9.9,9.9,0,0,1-3.974,0,13.672,13.672,0,0,0-5.128-.23,14.008,14.008,0,0,0-5.415,3.015c-1.788,1.375-3.675,3.071-6.219,3.871a10.179,10.179,0,0,1-4,.314,17.336,17.336,0,0,1-4.011-1.113c-2.624-1.031-5.14-2.479-7.9-3.481a15.818,15.818,0,0,0-4.19-.93,15.58,15.58,0,0,0-4.16.351c-2.707.559-5.245,1.5-7.779,2.04a19.656,19.656,0,0,1-13.372-1.85,20.041,20.041,0,0,1-6.959-5.977,14.108,14.108,0,0,1-1.666-2.936c.064-.035.544,1.08,1.835,2.81a20.466,20.466,0,0,0,6.966,5.763,19.4,19.4,0,0,0,13.09,1.7c2.486-.538,5.016-1.492,7.779-2.072a16.039,16.039,0,0,1,4.3-.369,16.26,16.26,0,0,1,4.34.959c2.815,1.025,5.335,2.48,7.907,3.5a16.954,16.954,0,0,0,3.882,1.093,9.712,9.712,0,0,0,3.793-.279c2.4-.737,4.281-2.377,6.087-3.748a14.287,14.287,0,0,1,5.611-3.035,13.731,13.731,0,0,1,5.257.306,9.906,9.906,0,0,0,3.879.1,4.672,4.672,0,0,0,2.2-1.031C239.855,191.442,240.009,191.176,240.033,191.194Z"/><path class="c" d="M245.7,210.243a18.433,18.433,0,0,1-.409-4.435,18.5,18.5,0,0,1,.132-4.453,18.437,18.437,0,0,1,.409,4.436A18.489,18.489,0,0,1,245.7,210.243Z"/><path class="d" d="M214.506,394.112c.439,1.734,10.637,58.926,10.637,58.926l15.624-1.169-2.856-58.4Z"/><path class="j" d="M241.24,452.775l-.049-1.644-16.651.347.1,5.421,1.029.042c4.58.15,23.3.464,26.335-.456C255.393,455.46,241.24,452.775,241.24,452.775Z"/><g class="k"><path d="M230.648,456.665a5.326,5.326,0,0,0-2.191-3.246,5.9,5.9,0,0,0-3.9-1.048l.1,4.308Z"/></g><g class="k"><path d="M248.161,454.315s4.966,1.231,4.368,2S233,457.426,224.64,456.9l.019-.345,22.08-.227S247.2,454.371,248.161,454.315Z"/></g><path class="c" d="M224.4,456.549a1.541,1.541,0,0,0,.286.024l.82.031,3.015.065c2.547.039,6.066.049,9.951-.018s7.4-.2,9.947-.33l3.01-.172.817-.059a1.588,1.588,0,0,0,.285-.034,1.806,1.806,0,0,0-.287,0l-.819.025-3.013.112c-2.544.094-6.059.206-9.944.275s-7.4.078-9.946.074l-3.015-.007-.82,0A1.734,1.734,0,0,0,224.4,456.549Z"/><path class="c" d="M246.741,456.566a5.988,5.988,0,0,1,.532-1.347,6.507,6.507,0,0,1,1-1.091,2.2,2.2,0,0,0-1.176,1A1.945,1.945,0,0,0,246.741,456.566Z"/><path class="c" d="M241.8,454.348c.047.027.275-.242.509-.6s.385-.671.338-.7-.276.242-.51.6S241.75,454.321,241.8,454.348Z"/><path class="c" d="M240.441,453.713c.038.037.3-.13.576-.373s.476-.472.439-.51-.3.129-.577.373S240.4,453.675,240.441,453.713Z"/><path class="c" d="M239.56,452.274a2.1,2.1,0,0,0,.867.086,2.065,2.065,0,0,0,.865-.1,2.1,2.1,0,0,0-.867-.086A2.065,2.065,0,0,0,239.56,452.274Z"/><path class="c" d="M239.245,451.253a1.772,1.772,0,0,0,.971.244,1.793,1.793,0,0,0,.994-.142,5.787,5.787,0,0,0-.983-.045A5.684,5.684,0,0,0,239.245,451.253Z"/><path class="c" d="M242.33,452.994a3.325,3.325,0,0,0,1.065-.026,6.678,6.678,0,0,0,1.129-.253,3.249,3.249,0,0,0,.644-.261.543.543,0,0,0,.256-.312.377.377,0,0,0-.17-.393,2.041,2.041,0,0,0-2.4.575,1.728,1.728,0,0,0-.333.667c-.038.17-.033.267-.021.268a2.707,2.707,0,0,1,.466-.853,1.929,1.929,0,0,1,.9-.567,1.766,1.766,0,0,1,1.271.058c.172.113.11.3-.076.407a3.279,3.279,0,0,1-.593.248,7.774,7.774,0,0,1-1.091.286C242.735,452.955,242.329,452.963,242.33,452.994Z"/><path class="c" d="M242.607,453.038a.923.923,0,0,0,.107-.69,1.55,1.55,0,0,0-.307-.719,1.083,1.083,0,0,0-.9-.488.393.393,0,0,0-.318.463,1.054,1.054,0,0,0,.191.439,3.03,3.03,0,0,0,.517.59,1.545,1.545,0,0,0,.618.39c.018-.025-.216-.174-.517-.482a3.537,3.537,0,0,1-.459-.586c-.151-.207-.259-.581.007-.631a.968.968,0,0,1,.711.408,1.573,1.573,0,0,1,.315.638A3.382,3.382,0,0,1,242.607,453.038Z"/><path class="c" d="M224.643,452.326c0,.035.473-.051,1.225.018a5.6,5.6,0,0,1,2.694.975,5.011,5.011,0,0,1,1.719,2.163c.268.657.3,1.1.34,1.1a.85.85,0,0,0-.007-.311,3.78,3.78,0,0,0-.2-.828,4.786,4.786,0,0,0-1.731-2.267,5.377,5.377,0,0,0-2.806-.959,4.757,4.757,0,0,0-.911.038A1.02,1.02,0,0,0,224.643,452.326Z"/><path class="c" d="M232.7,455.124a14.593,14.593,0,0,0,4.845-.045c-.006-.054-1.087.027-2.422.038S232.705,455.07,232.7,455.124Z"/><path class="c" d="M229.451,455.179c-.039.038.094.212.209.441s.181.432.238.428.08-.246-.056-.509S229.486,455.141,229.451,455.179Z"/><path class="c" d="M228.2,453.785c-.039.037.072.2.247.354s.349.257.387.22-.072-.2-.247-.354S228.234,453.748,228.2,453.785Z"/><path class="c" d="M226.429,453.169c.013.052.233.046.478.122s.423.192.466.157-.1-.246-.406-.335S226.411,453.122,226.429,453.169Z"/><path class="c" d="M225.175,452.887c-.019.048.078.125.216.172s.267.046.286,0-.078-.126-.217-.173S225.194,452.838,225.175,452.887Z"/><path class="d" d="M174.755,389.338c-.08,1.787-6.578,57.485-6.578,57.485l15.3,3.386,14.106-56.74Z"/><path class="j" d="M184.164,451.7l.344-1.609-16.255-3.627-1.193,5.289.989.286c4.413,1.236,22.517,6,25.686,5.827C197.271,457.671,184.164,451.7,184.164,451.7Z"/><g class="k"><path d="M172.95,452.951a5.319,5.319,0,0,0-1.355-3.674,5.9,5.9,0,0,0-3.539-1.946l-.932,4.206Z"/></g><g class="k"><path d="M190.519,454.838s4.531,2.378,3.767,2.981-19.229-3.568-27.226-6.071l.1-.33,21.5,5.035S189.569,454.662,190.519,454.838Z"/></g><path class="c" d="M166.908,451.351a1.709,1.709,0,0,0,.272.091l.788.225,2.914.782c2.464.644,5.879,1.491,9.669,2.351s7.239,1.566,9.739,2.047l2.965.55.808.137a1.7,1.7,0,0,0,.284.035,1.556,1.556,0,0,0-.277-.072l-.8-.171-2.953-.609c-2.493-.514-5.934-1.242-9.723-2.1s-7.206-1.685-9.678-2.3l-2.927-.724-.8-.191A1.666,1.666,0,0,0,166.908,451.351Z"/><path class="c" d="M188.6,456.686a6.05,6.05,0,0,1,.838-1.182,6.524,6.524,0,0,1,1.234-.821,2.2,2.2,0,0,0-1.38.688A1.95,1.95,0,0,0,188.6,456.686Z"/><path class="c" d="M184.331,453.355c.04.037.325-.17.638-.462s.534-.56.494-.6-.325.169-.638.462S184.291,453.318,184.331,453.355Z"/><path class="c" d="M183.164,452.415c.028.046.319-.055.649-.225s.575-.345.547-.391-.318.055-.648.225S183.137,452.369,183.164,452.415Z"/><path class="c" d="M182.651,450.807a2.067,2.067,0,0,0,.822.291.438.438,0,1,0-.822-.291Z"/><path class="c" d="M182.589,449.742a2.608,2.608,0,0,0,1.884.566,5.691,5.691,0,0,0-.944-.277A5.587,5.587,0,0,0,182.589,449.742Z"/><path class="c" d="M185.171,452.166a3.292,3.292,0,0,0,1.04.229,6.73,6.73,0,0,0,1.157.023,3.274,3.274,0,0,0,.687-.1.546.546,0,0,0,.324-.242.381.381,0,0,0-.072-.423,2.04,2.04,0,0,0-2.472-.013,1.709,1.709,0,0,0-.482.569c-.078.156-.1.251-.085.255a2.726,2.726,0,0,1,.656-.718,1.936,1.936,0,0,1,1.007-.337,1.767,1.767,0,0,1,1.221.358c.14.151.036.318-.17.378a3.331,3.331,0,0,1-.636.1,7.9,7.9,0,0,1-1.127.018C185.573,452.225,185.177,452.136,185.171,452.166Z"/><path class="c" d="M185.429,452.275a.923.923,0,0,0,.269-.645,1.552,1.552,0,0,0-.128-.77,1.085,1.085,0,0,0-.755-.689.4.4,0,0,0-.42.375,1.046,1.046,0,0,0,.081.471,3.1,3.1,0,0,0,.361.7,1.569,1.569,0,0,0,.508.525c.024-.019-.168-.22-.387-.591a3.5,3.5,0,0,1-.307-.678c-.1-.237-.113-.626.157-.611.265.035.478.336.594.565a1.578,1.578,0,0,1,.154.695A3.3,3.3,0,0,1,185.429,452.275Z"/><path class="c" d="M168.15,447.308c0,.034.473.063,1.186.308a5.618,5.618,0,0,1,2.385,1.589,5.021,5.021,0,0,1,1.155,2.51c.1.7.031,1.14.069,1.144a.832.832,0,0,0,.068-.3,3.863,3.863,0,0,0,0-.852,4.785,4.785,0,0,0-1.141-2.614,5.373,5.373,0,0,0-2.5-1.6,4.67,4.67,0,0,0-.9-.18A.985.985,0,0,0,168.15,447.308Z"/><path class="c" d="M175.31,451.943a14.582,14.582,0,0,0,4.717,1.109c.006-.054-1.063-.232-2.362-.539S175.328,451.892,175.31,451.943Z"/><path class="c" d="M172.142,451.223c-.048.028.04.228.1.478s.073.463.129.472.136-.219.066-.507S172.185,451.194,172.142,451.223Z"/><path class="c" d="M171.254,449.57c-.047.026.023.207.155.4s.278.333.324.306-.023-.207-.156-.4S171.3,449.543,171.254,449.57Z"/><path class="c" d="M169.684,448.551c0,.054.216.1.436.232s.366.288.415.264-.039-.263-.314-.422S169.679,448.5,169.684,448.551Z"/><path class="c" d="M168.534,447.978c-.03.043.046.141.169.22s.248.108.278.066-.046-.141-.169-.22S168.564,447.936,168.534,447.978Z"/><path class="c" d="M232.151,141.32c-.415-1.188-1.421-2.084-1.909-3.244-.731-1.736-.2-3.706,0-5.578s-.192-4.146-1.909-4.92a17.674,17.674,0,0,1-2.2-.732c-1.335-.831-1.265-2.739-1.388-4.307a8.65,8.65,0,0,0-.785-2.982l.281-.088A4.446,4.446,0,0,1,229.358,122a2.616,2.616,0,0,1-.173,2.51,1.647,1.647,0,0,1-1.942.625,1.357,1.357,0,0,1-.709-1.519.961.961,0,0,1,1.092-.614,1.082,1.082,0,0,1,.775.431c.114.179.125.3.154.3.01,0,.046-.13-.049-.358a1.156,1.156,0,0,0-.842-.6,1.417,1.417,0,0,0-.777.054,1.12,1.12,0,0,0-.668.678,1.713,1.713,0,0,0,.828,2,2.083,2.083,0,0,0,2.527-.695,3.106,3.106,0,0,0,.3-3.009,4.956,4.956,0,0,0-5.259-2.989,3.288,3.288,0,0,0,.306-2.657,3.739,3.739,0,0,0-2.307-2.316,4.936,4.936,0,0,0-2.931-.158,7.325,7.325,0,0,0-2.31,1.022c-.648.423-1.147.887-1.635,1.2a2.926,2.926,0,0,1-1.349.519,2.265,2.265,0,0,1-1.211-.251c-.036,0,.311.481,1.223.479a3.026,3.026,0,0,0,1.509-.467c.536-.306,1.059-.75,1.685-1.126a5.484,5.484,0,0,1,4.821-.708,3.2,3.2,0,0,1,1.949,1.976,2.585,2.585,0,0,1-.69,2.669,5.871,5.871,0,0,0-2.164-2.218c-2-1.128-4.954-.579-5.968,1.479l-16.408-5.632a8,8,0,0,0-7.537-1.516c-.113-.02-.221-.041-.344-.054a5.323,5.323,0,0,0-2.771.458,9.075,9.075,0,0,0-2.79,2.438,6.084,6.084,0,0,1-1.574,1.3,2.878,2.878,0,0,1-.314.13,15.165,15.165,0,0,1-2.192.076c-1.381-.316-2.808-1.109-4.51-1.283a7.118,7.118,0,0,0-2.845.205,5.445,5.445,0,0,0-2.536,1.6,4.382,4.382,0,0,0-1.1,2.919,8.018,8.018,0,0,0,.359,2.269,7.866,7.866,0,0,0-.483,3.1c.073,1.389.473,2.844.488,4.213a3.925,3.925,0,0,1-1.343.684c-.865.273-1.793.4-2.671.742a6.2,6.2,0,0,0-3.545,3.753,4.383,4.383,0,0,0,.444,4.132,6.309,6.309,0,0,0,1.156,5.294,32.32,32.32,0,0,1,2.572,2.75c1.078,1.676.924,3.821,1.2,5.794s1.416,4.2,3.4,4.332c1.6.105,3.041-1.24,4.641-1.109,2.245.185,3.163,2.874,4.461,4.714a8,8,0,0,0,7.446,3.243c2.041-.278,4.062-1.357,6.058-.85,2.51.637,4.017,3.579,6.581,3.946,1.908.274,3.674-.994,5.09-2.3s2.857-2.8,4.754-3.14c2.283-.41,4.481.97,6.78,1.286a7.663,7.663,0,0,0,7.555-3.791c1.264-2.289,1.26-5.1,2.44-7.431a41.676,41.676,0,0,1,3.047-4.27C232.033,144.811,232.728,142.973,232.151,141.32Zm-65.8-7.38a1.357,1.357,0,0,0-.564-.027,3.761,3.761,0,0,0,.449.112c-.1.074-.209.145-.307.224a6.054,6.054,0,0,0-1.937,2.978,4.238,4.238,0,0,1-.1-3.4,5.711,5.711,0,0,1,3.274-3.4c.8-.305,1.715-.429,2.646-.712a4.654,4.654,0,0,0,1.141-.507,4,4,0,0,1-.472,1.548C169.624,132.289,167.8,132.92,166.352,133.94Zm11.2-18.4a8.64,8.64,0,0,0-6.182,4.733,6.34,6.34,0,0,1-.156-1.366,3.791,3.791,0,0,1,.945-2.542,5.5,5.5,0,0,1,4.878-1.645,11.087,11.087,0,0,1,2.691.691A12.805,12.805,0,0,0,177.552,115.543Zm8.23-.695a5.584,5.584,0,0,1-.616.22,9.382,9.382,0,0,0,.835-.833,8.963,8.963,0,0,1,2.623-2.422,5.152,5.152,0,0,1,2.423-.528,7.191,7.191,0,0,0-1.234.619C188.408,112.8,187.3,114.152,185.782,114.848Z"/><path class="d" d="M221.352,149.2c.783-4.927.535-13.006.119-19.609a10.462,10.462,0,0,0-11.539-9.754l-17.189,1.818a3.485,3.485,0,0,0-3.117,3.535l1.771,42.224-3.975.011v7.646a15.84,15.84,0,1,0,31.679,0v-6.617a24.1,24.1,0,0,0-6.617-1.208c-.142.008-.355.015-.616.022.017-3.872.317-6.9.317-6.9S219.779,159.111,221.352,149.2Z"/><path class="c" d="M218.9,136.008a1.271,1.271,0,0,1-1.225,1.282,1.216,1.216,0,0,1-1.31-1.146,1.271,1.271,0,0,1,1.224-1.282A1.216,1.216,0,0,1,218.9,136.008Z"/><path class="c" d="M219.719,133.8c-.158.166-1.121-.546-2.488-.543-1.366-.016-2.369.688-2.517.52-.073-.074.087-.373.524-.691a3.482,3.482,0,0,1,2.015-.621,3.34,3.34,0,0,1,1.98.639C219.654,133.423,219.8,133.723,219.719,133.8Z"/><path class="c" d="M205.531,136.008a1.271,1.271,0,0,1-1.225,1.282,1.216,1.216,0,0,1-1.31-1.146,1.271,1.271,0,0,1,1.224-1.282A1.216,1.216,0,0,1,205.531,136.008Z"/><path class="c" d="M206.279,134.052c-.158.166-1.122-.546-2.488-.542-1.366-.016-2.369.687-2.518.519-.072-.074.087-.373.525-.691a3.482,3.482,0,0,1,2.015-.621,3.35,3.35,0,0,1,1.98.639C206.213,133.679,206.356,133.978,206.279,134.052Z"/><path class="c" d="M211.241,144.192a9.109,9.109,0,0,1,2.221-.4c.349-.036.679-.106.738-.344a1.781,1.781,0,0,0-.233-1.035q-.492-1.268-1.033-2.658a45.768,45.768,0,0,1-2.318-6.954,45.732,45.732,0,0,1,2.873,6.751q.518,1.4.989,2.674a2.022,2.022,0,0,1,.181,1.37.876.876,0,0,1-.574.511,2.363,2.363,0,0,1-.593.082A8.85,8.85,0,0,1,211.241,144.192Z"/><path class="l" d="M212.185,160.372a25.2,25.2,0,0,1-13.268-3.539s3.219,6.805,13.135,5.878Z"/><path class="l" d="M210.663,147.487a2.462,2.462,0,0,0-2.209-.914,2.242,2.242,0,0,0-1.553.833,1.425,1.425,0,0,0-.109,1.629,1.655,1.655,0,0,0,1.793.454,5.175,5.175,0,0,0,1.747-1.043,1.5,1.5,0,0,0,.391-.4.457.457,0,0,0,0-.509"/><path class="c" d="M207.217,145.138c.223-.013.225,1.471,1.5,2.525s2.85.89,2.861,1.1c.021.093-.352.289-1.02.307a3.7,3.7,0,0,1-2.389-.833,3.217,3.217,0,0,1-1.158-2.116C206.95,145.5,207.116,145.13,207.217,145.138Z"/><path class="c" d="M206.894,131.659c-.135.371-1.5.2-3.1.389-1.608.161-2.9.63-3.115.3-.1-.16.131-.509.654-.869a5.431,5.431,0,0,1,4.737-.523C206.655,131.19,206.952,131.482,206.894,131.659Z"/><path class="c" d="M219.216,131c-.241.31-1.182-.012-2.315-.027-1.132-.055-2.092.209-2.313-.116-.1-.158.055-.469.474-.763a3.351,3.351,0,0,1,3.728.115C219.191,130.533,219.322,130.852,219.216,131Z"/><path class="c" d="M225.159,120.753c-.677-2.638-2.679-5.086-5.357-5.582-1.747-.323-3.543.194-5.316.08-1.462-.1-1.995-1.259-3.387-1.716-2.322-.762-4.1-3.341-9.114-2.8-1.337.144-3.057,1.692-4.284,3.458-1.919-.827-4.45.063-5.833.668-2.866,1.254-4.66,4.481-5.225,7.76s-.1,6.651.359,9.949q.318,2.259.634,4.518a7.956,7.956,0,0,0,.8,2.88l-2.281,21.209a8.821,8.821,0,0,0,11.213-6.161c.886-4.169-1.435-8.418-1.067-12.663.218-2.528,1.647-4.884,1.638-7.42a9.783,9.783,0,0,0-.354-2.469h0c4.031-3.27,5.057-5.9,4.888-8.965a7.7,7.7,0,0,0,4.2,1.389c2.123.026,4.327-.8,6.314-.048,1.43.54,2.443,1.792,3.531,2.866s2.5,2.067,4.014,1.855a10.522,10.522,0,0,0,2.082-.732,2.518,2.518,0,0,1,2.138,0A16.56,16.56,0,0,0,225.159,120.753Z"/><path class="h" d="M165.923,142.459a17.3,17.3,0,0,0,3.287,1.881,11.766,11.766,0,0,0,4.3.91,9.056,9.056,0,0,0,5.473-1.65,8.353,8.353,0,0,0,3.542-5.8,6.107,6.107,0,0,0-.745-3.715,3.965,3.965,0,0,0-3.25-2.02,2.936,2.936,0,0,0-1.887.621,3.707,3.707,0,0,0-1.156,1.725,4.334,4.334,0,0,0,.759,4.135,7.215,7.215,0,0,0,3.923,2.332,11.1,11.1,0,0,0,4.8.079,10.409,10.409,0,0,0,4.369-1.969,8.372,8.372,0,0,0,3.066-8.167,6.771,6.771,0,0,0-.74-2.037,4.634,4.634,0,0,0-1.345-1.583,3.228,3.228,0,0,0-1.837-.689,1.7,1.7,0,0,0-1.526.86,2.416,2.416,0,0,0-.2,1.792,3.473,3.473,0,0,0,.969,1.546,8.618,8.618,0,0,0,11.633-.448,9.132,9.132,0,0,0,2.194-3.775,10.3,10.3,0,0,0,.311-3.749,4.484,4.484,0,0,1,.158.977,8.588,8.588,0,0,1-.266,2.829,9.2,9.2,0,0,1-2.179,3.928,8.606,8.606,0,0,1-5.314,2.613,8.762,8.762,0,0,1-6.849-2.052,3.91,3.91,0,0,1-1.1-1.748,2.877,2.877,0,0,1,.229-2.15,2.191,2.191,0,0,1,1.939-1.111,3.7,3.7,0,0,1,2.132.774,5.144,5.144,0,0,1,1.495,1.738,7.254,7.254,0,0,1,.8,2.182,8.886,8.886,0,0,1-3.239,8.693,10.919,10.919,0,0,1-4.6,2.077,11.591,11.591,0,0,1-5.041-.088,7.735,7.735,0,0,1-4.207-2.523,4.8,4.8,0,0,1-1.023-2.23,5.185,5.185,0,0,1,.189-2.4,4.206,4.206,0,0,1,1.331-1.961,3.438,3.438,0,0,1,2.216-.721,4.444,4.444,0,0,1,3.647,2.277,6.548,6.548,0,0,1,.781,4,8.725,8.725,0,0,1-3.767,6.068,9.323,9.323,0,0,1-5.7,1.639,11.735,11.735,0,0,1-4.381-1.018,11.931,11.931,0,0,1-2.452-1.432,7.317,7.317,0,0,1-.573-.466C165.978,142.526,165.917,142.466,165.923,142.459Z"/><path class="h" d="M225.737,125.229a1.724,1.724,0,0,1-.477.335,5.376,5.376,0,0,1-1.575.574,6.525,6.525,0,0,1-2.657-.045,7.215,7.215,0,0,1-3.125-1.626,9.27,9.27,0,0,1-2.463-3.491,3.149,3.149,0,0,1-.08-2.461,2.069,2.069,0,0,1,.931-1,1.564,1.564,0,0,1,1.435.017,2.2,2.2,0,0,1,1.031,2.541,3.611,3.611,0,0,1-1.957,2.086,7.557,7.557,0,0,1-5.79.083,13.841,13.841,0,0,1-2.669-1.286,9.775,9.775,0,0,1-2.272-1.807,2.284,2.284,0,0,1-.224-2.843,1.474,1.474,0,0,1,1.431-.507,2.12,2.12,0,0,1,1.222.767,1.821,1.821,0,0,1,.39,1.36,2.378,2.378,0,0,1-.553,1.229,3.238,3.238,0,0,1-2.2,1.106,5.877,5.877,0,0,1-2.24-.295,16.49,16.49,0,0,1-1.911-.735,6.812,6.812,0,0,1-2.794-2.141,3.914,3.914,0,0,1-.719-2.559,2.86,2.86,0,0,1,.583-1.576,1.567,1.567,0,0,1,.437-.39,3.027,3.027,0,0,0-.809,1.978,3.751,3.751,0,0,0,.752,2.368,6.585,6.585,0,0,0,2.709,1.971,8.737,8.737,0,0,0,3.949.932,2.783,2.783,0,0,0,1.877-.964,1.527,1.527,0,0,0,.137-1.974c-.442-.592-1.406-.853-1.86-.242a1.45,1.45,0,0,0-.266,1.08,2.107,2.107,0,0,0,.5,1.1,9.441,9.441,0,0,0,2.143,1.682,13.432,13.432,0,0,0,2.564,1.233,7.059,7.059,0,0,0,5.38-.048,3.111,3.111,0,0,0,1.693-1.757,1.7,1.7,0,0,0-.768-1.951,1.257,1.257,0,0,0-1.7.739,2.714,2.714,0,0,0,.069,2.1,8.965,8.965,0,0,0,2.3,3.364,6.976,6.976,0,0,0,2.94,1.618,6.542,6.542,0,0,0,2.551.133A8,8,0,0,0,225.737,125.229Z"/><path class="h" d="M196.86,148.489a1.541,1.541,0,0,1-.423.342,4.078,4.078,0,0,1-1.452.583,4.757,4.757,0,0,1-2.477-.16,4.007,4.007,0,0,1-2.479-2.158,1.687,1.687,0,0,1,.38-1.954,1.765,1.765,0,0,1,2.156,0,4.439,4.439,0,0,1,1.535,4.267,5.242,5.242,0,0,1-2.894,4.1,5.925,5.925,0,0,1-5.375-.4,5.994,5.994,0,0,1-2.059-1.919,3.4,3.4,0,0,1-.487-2.726,2.61,2.61,0,0,1,.7-1.222,1.843,1.843,0,0,1,1.327-.513,2.611,2.611,0,0,1,2.142,1.438,5.309,5.309,0,0,1,.587,2.335,7.782,7.782,0,0,1-.217,2.234,7.031,7.031,0,0,1-1.971,3.466,5.029,5.029,0,0,1-3,1.35,4.949,4.949,0,0,1-2.451-.39,4.3,4.3,0,0,1-1.3-.876,1.632,1.632,0,0,1-.342-.423,6.3,6.3,0,0,0,1.719,1.1,4.841,4.841,0,0,0,2.338.283,4.744,4.744,0,0,0,2.766-1.327,6.7,6.7,0,0,0,1.8-3.291,7.423,7.423,0,0,0,.179-2.1,4.883,4.883,0,0,0-.547-2.117,2.117,2.117,0,0,0-1.718-1.165A1.617,1.617,0,0,0,183.8,148.6a2.878,2.878,0,0,0,.429,2.3,5.5,5.5,0,0,0,1.875,1.737,5.414,5.414,0,0,0,4.883.383,4.747,4.747,0,0,0,2.621-3.685,4,4,0,0,0-1.3-3.826,1.329,1.329,0,0,0-1.634-.043,1.289,1.289,0,0,0-.287,1.5,3.711,3.711,0,0,0,2.221,2.007,4.632,4.632,0,0,0,2.338.238A6.109,6.109,0,0,0,196.86,148.489Z"/><path class="c" d="M155.554,391.578s6.682,12.994,24.13,6.683c0,0,17.077,9.281,33.412-1.114,0,0,21.154,2.836,32.663-2.732l-14.8-127.645-1.874-19.6h-46.67s-13.866,6.311-16.093,37.124-7.054,73.134-7.054,73.134Z"/><path class="h" d="M212.1,397.538a2.069,2.069,0,0,1-.052-.384c-.025-.281-.059-.656-.1-1.133-.08-1.025-.193-2.488-.338-4.357-.289-3.785-.652-9.265-1.053-16.04-.806-13.549-1.67-32.283-2.124-52.988s-.394-39.469-.177-53.041c.107-6.785.233-12.276.357-16.069.063-1.873.113-3.339.148-4.367.022-.479.039-.854.052-1.136a2.149,2.149,0,0,1,.036-.386,2.137,2.137,0,0,1,.018.388c0,.281,0,.657,0,1.136-.012,1.029-.029,2.5-.051,4.37-.045,3.823-.11,9.306-.19,16.069-.124,13.569-.116,32.318.329,53.024s1.259,39.429,1.97,52.98c.374,6.753.677,12.228.888,16.046.1,1.873.184,3.337.24,4.364.021.479.038.855.05,1.136A2.151,2.151,0,0,1,212.1,397.538Z"/><path class="h" d="M216.2,361.026c-.012-.023.1-.135.364-.2a1.7,1.7,0,0,1,1.136.144,1.932,1.932,0,0,1,1.074,1.35,1.938,1.938,0,0,1-3.079,1.75,1.938,1.938,0,0,1-.611-1.613,1.7,1.7,0,0,1,.458-1.049c.2-.192.348-.231.362-.209a2.4,2.4,0,0,0-.452,1.273A1.628,1.628,0,0,0,216,363.7a1.492,1.492,0,0,0,2.3-1.306,1.623,1.623,0,0,0-.775-1.1A2.39,2.39,0,0,0,216.2,361.026Z"/><path class="h" d="M215.161,323.1c-.013-.023.1-.134.364-.205a1.7,1.7,0,0,1,1.136.144,1.941,1.941,0,0,1,1.074,1.35,1.937,1.937,0,0,1-3.079,1.75,1.938,1.938,0,0,1-.611-1.613,1.7,1.7,0,0,1,.457-1.049c.2-.193.349-.231.363-.208a2.371,2.371,0,0,0-.452,1.272,1.628,1.628,0,0,0,.551,1.231,1.493,1.493,0,0,0,2.3-1.307,1.626,1.626,0,0,0-.775-1.1A2.39,2.39,0,0,0,215.161,323.1Z"/><path class="h" d="M214.552,289.581c-.012-.024.1-.135.364-.2a1.707,1.707,0,0,1,1.136.143,1.936,1.936,0,0,1,1.074,1.35,1.938,1.938,0,0,1-3.079,1.751,1.938,1.938,0,0,1-.611-1.613,1.707,1.707,0,0,1,.457-1.05c.2-.192.349-.23.363-.208a2.392,2.392,0,0,0-.452,1.273,1.63,1.63,0,0,0,.551,1.23,1.493,1.493,0,0,0,2.3-1.306,1.627,1.627,0,0,0-.775-1.1A2.384,2.384,0,0,0,214.552,289.581Z"/><path class="h" d="M213.358,253.717c-.013-.024.1-.135.364-.206a1.709,1.709,0,0,1,1.136.144,1.941,1.941,0,0,1,1.074,1.35,1.938,1.938,0,0,1-3.079,1.751,1.94,1.94,0,0,1-.611-1.614,1.707,1.707,0,0,1,.457-1.049c.2-.192.349-.231.363-.208a2.387,2.387,0,0,0-.452,1.273,1.628,1.628,0,0,0,.551,1.23,1.493,1.493,0,0,0,2.3-1.306,1.63,1.63,0,0,0-.775-1.1A2.384,2.384,0,0,0,213.358,253.717Z"/><g transform="translate(1 2)"><path class="e" d="M274.235,214.9l235.87-1.713,6.574,160.363-244.235-2.264Z"/><path class="j" d="M274.235,214.9l111.631-90.327a12.819,12.819,0,0,1,16.192.051l108.047,88.563"/><path class="c" d="M272.445,371.287c-.294-.276,18.589-20.893,42.171-46.044s42.946-45.325,43.241-45.049-18.585,20.888-42.176,46.048S272.739,371.563,272.445,371.287Z"/><path class="c" d="M516.68,373.551c-.3.268-18.691-19.932-41.069-45.113s-40.282-45.821-39.981-46.089,18.687,19.929,41.073,45.118S516.981,373.283,516.68,373.551Z"/><g class="m"><path d="M510.105,213.189,391.664,307.807,274.235,214.9"/></g><path class="i" d="M286.113,223.664,285.745,150l206.535-2.442,2.328,77.511-102.956,81.5Z"/><path class="c" d="M286.113,223.664s.668.5,1.937,1.484l5.6,4.365,21.313,16.669L391.784,306.4h-.265l102.929-81.538-.1.21c-.445-14.788-.912-30.3-1.387-46.087-.319-10.626-.634-21.128-.942-31.424l.262.252-206.537,2.349.165-.168c.081,23.179.145,41.583.189,54.2.013,6.309.023,11.169.03,14.461,0,1.64,0,2.887,0,3.733s-.015,1.273-.015,1.273-.016-.419-.027-1.252-.023-2.084-.04-3.715c-.026-3.288-.065-8.141-.115-14.44-.082-12.632-.2-31.056-.353-54.26v-.166l.167,0,206.533-2.534.255,0,.008.255c.309,10.295.625,20.8.945,31.424.473,15.786.938,31.3,1.381,46.086l0,.13-.1.08L391.785,306.736l-.133.105-.132-.1-76.759-60.422L293.54,229.573l-5.548-4.4C286.742,224.183,286.113,223.664,286.113,223.664Z"/><path class="c" d="M459.64,184.645c0,.144-31.585.452-70.54.689s-70.549.312-70.55.168,31.578-.452,70.547-.689S459.639,184.5,459.64,184.645Z"/><path class="c" d="M459.64,205.454c0,.144-31.585.452-70.54.689s-70.549.311-70.55.168,31.578-.452,70.547-.689S459.639,205.31,459.64,205.454Z"/><path class="c" d="M459.64,229.438c0,.144-31.585.452-70.54.688s-70.549.312-70.55.168,31.578-.452,70.547-.688S459.639,229.294,459.64,229.438Z"/><path class="c" d="M459.64,253.421c0,.144-30.133.444-67.3.669s-67.306.292-67.307.148,30.127-.443,67.3-.669S459.639,253.278,459.64,253.421Z"/><path class="c" d="M433.223,274.473a4.862,4.862,0,0,1-.827.058l-2.372.064-8.726.145-28.787.412c-11.246.188-21.428.252-28.8.26l-8.727-.021-2.373-.033a5.015,5.015,0,0,1-.827-.047,4.848,4.848,0,0,1,.827-.058l2.372-.065,8.725-.144,28.792-.413c11.242-.187,21.423-.251,28.792-.26l8.727.022,2.373.033A4.882,4.882,0,0,1,433.223,274.473Z"/><path class="c" d="M406.635,294.708c0,.144-6.735.26-15.04.26s-15.042-.116-15.042-.26,6.733-.261,15.042-.261S406.635,294.564,406.635,294.708Z"/><circle class="c" cx="24.948" cy="24.948" r="24.948" transform="translate(451.207 228.473)"/><circle class="h" cx="24.948" cy="24.948" r="24.948" transform="translate(444.712 228.473)"/><path class="a" d="M472.832,241.806v20.742H468.98V245.035h-4.386v-3.229Z"/></g><path class="e" d="M287.731,116.351l22.816-.007-3.084-3.545,0-8.489A8.314,8.314,0,0,0,299.143,96h0a8.314,8.314,0,0,0-8.311,8.316l0,8.079Z"/><path class="j" d="M295.95,115.23a3.524,3.524,0,1,0,6.888-1.184"/><path class="j" d="M0,0H2.238V4.757H0Z" transform="translate(298.17 92.544)"/><path class="c" d="M332.408,100.736a4.107,4.107,0,0,1-.16-.6c-.1-.428-.229-1.012-.4-1.761a21.2,21.2,0,0,0-.811-2.813c-.2-.544-.334-1.157-.611-1.762s-.55-1.258-.849-1.944a34.541,34.541,0,0,0-6.048-8.938,33.671,33.671,0,0,0-32.416-9.487c-.757.161-1.487.451-2.241.673a15.687,15.687,0,0,0-2.232.816,31.939,31.939,0,0,0-8.461,5.064,33.6,33.6,0,0,0-11.295,18.069,32.784,32.784,0,0,0-.655,11.606,32.176,32.176,0,0,0,3.427,11.476l.58,1.088.076.144-.045.147c-1.843,6.05-3.651,11.983-5.4,17.733l-.474-.429,14.285-7.449.177-.092.161.124a33.619,33.619,0,0,0,15.041,6.533,33.4,33.4,0,0,0,26.46-7.26,34.418,34.418,0,0,0,7.518-8.8,33.311,33.311,0,0,0,4.634-16.028q.011-1.48.017-2.63-.1-1.124-.168-1.913c-.04-.492-.071-.88-.1-1.173a2.086,2.086,0,0,1-.013-.4,2.186,2.186,0,0,1,.069.393c.037.292.087.678.149,1.169q.093.792.223,1.917.015,1.155.035,2.647a36.573,36.573,0,0,1-.9,7.241,36.966,36.966,0,0,1-3.605,9,34.667,34.667,0,0,1-7.558,8.969,33.819,33.819,0,0,1-26.848,7.492,34.166,34.166,0,0,1-15.338-6.617l.338.032L264.7,140.453l-.72.377.246-.805c1.748-5.751,3.553-11.685,5.393-17.736l.032.291-.593-1.111a32.876,32.876,0,0,1-3.5-11.733,33.459,33.459,0,0,1,.68-11.861,34.194,34.194,0,0,1,11.551-18.41,32.44,32.44,0,0,1,8.629-5.13,16.017,16.017,0,0,1,2.273-.822c.767-.223,1.511-.516,2.281-.676a33.681,33.681,0,0,1,38.847,18.9l.828,1.973c.268.614.4,1.235.586,1.786a19.787,19.787,0,0,1,.751,2.846c.143.757.253,1.349.335,1.781A4.31,4.31,0,0,1,332.408,100.736Z"/><path class="e" d="M608.31,338.209c3.266,11.055.787,25.257-3.171,36.083a54.675,54.675,0,0,1-21.095,26.666c-1.085.716-2.475,1.406-3.618.789a3.694,3.694,0,0,1-1.467-2.717,56.315,56.315,0,0,1,29.351-60.821"/><path class="j" d="M559.188,285.76c6.886-.187,11.425,7.461,12.115,14.316s-.837,13.971,1.175,20.559c2.556,8.368,10.377,14.37,12.747,22.792,2.794,9.932-2.654,20.238-2.915,30.553-.127,5.018.982,10.09.054,15.023a18.469,18.469,0,0,1-36.23.36c-1.612-7.727,1.793-15.935-.249-23.559-1.509-5.636-5.883-10.42-6.24-16.243-.425-6.929,4.939-12.919,5.933-19.79s-2.475-13.582-2.992-20.507c-.927-12.422,4.215-22.175,16.6-23.5"/><path class="c" d="M574.273,427.21a2.992,2.992,0,0,0,.2-.689c.121-.526.272-1.187.456-2,.373-1.738.948-4.246,1.7-7.334a238.176,238.176,0,0,1,16.633-46.69c1.369-2.868,2.509-5.174,3.32-6.757.369-.744.669-1.351.91-1.835a3.029,3.029,0,0,0,.278-.661,2.915,2.915,0,0,0-.394.6l-1.018,1.779c-.88,1.549-2.085,3.826-3.51,6.674a208.147,208.147,0,0,0-16.667,46.786c-.7,3.108-1.2,5.635-1.5,7.391-.136.819-.247,1.488-.336,2.022A2.994,2.994,0,0,0,574.273,427.21Z"/><path class="c" d="M559.475,319.636a6.816,6.816,0,0,0,.091,1.1q.144,1.162.388,3.143c.368,2.787.886,6.717,1.522,11.547,1.3,9.747,3.072,23.215,4.943,38.1s3.48,28.38,4.636,38.146c.578,4.837,1.048,8.772,1.381,11.564q.254,1.979.4,3.141a6.979,6.979,0,0,0,.184,1.091,7.135,7.135,0,0,0-.053-1.1q-.1-1.167-.28-3.154c-.284-2.8-.684-6.742-1.176-11.588-1.039-9.781-2.577-23.282-4.447-38.176s-3.72-28.35-5.134-38.084c-.722-4.818-1.31-8.739-1.727-11.519q-.32-1.97-.508-3.126A7.069,7.069,0,0,0,559.475,319.636Z"/><rect class="c" width="52.257" height="6.102" transform="translate(546.032 413.702)"/><path class="c" d="M550.877,419.8l6.137,37.018h32.414l4.248-37.018Z"/><path class="h" d="M593.841,419.554c0,.143-9.651.38-21.558.528s-21.565.152-21.567.008,9.649-.38,21.56-.528S593.84,419.41,593.841,419.554Z"/><path class="h" d="M592.061,438.081a1.181,1.181,0,0,1-.295.035l-.866.04a21.336,21.336,0,0,1-3.338-.129,10.215,10.215,0,0,1-4.94-1.852,6.951,6.951,0,0,1-2.152-2.546,5,5,0,0,1-.308-3.72,3.375,3.375,0,0,1,3.258-2.354,2.93,2.93,0,0,1,2.017,1.02,4.656,4.656,0,0,1,1.009,2.1c.634,3.163-1.585,6.678-4.964,7.781-3.436,1.162-7.573-.8-9.275-4.249a7.065,7.065,0,0,1-.753-2.8,4.584,4.584,0,0,1,.759-2.877,3.626,3.626,0,0,1,2.6-1.562,3.1,3.1,0,0,1,2.744,1.361,4.83,4.83,0,0,1,.9,2.923,6.61,6.61,0,0,1-.75,2.9,9.052,9.052,0,0,1-4.166,3.95,16.856,16.856,0,0,1-5.332,1.505,11.694,11.694,0,0,1-5.3-.461,7.649,7.649,0,0,1-3.981-3.123,5.483,5.483,0,0,1-.514-4.719,4.289,4.289,0,0,1,3.284-2.931,4.2,4.2,0,0,1,3.822,1.425,3.6,3.6,0,0,1,.34,3.675,5.727,5.727,0,0,1-2.2,2.508,12.961,12.961,0,0,1-2.6,1.261c-.828.31-1.595.56-2.293.761a28.634,28.634,0,0,1-3.253.745c-.377.063-.665.1-.859.124a1.246,1.246,0,0,1-.3.02,1.335,1.335,0,0,1,.287-.072l.848-.175c.743-.159,1.839-.4,3.215-.836.688-.214,1.446-.477,2.262-.8a12.882,12.882,0,0,0,2.525-1.271,5.431,5.431,0,0,0,2.051-2.394,3.252,3.252,0,0,0-.321-3.317,3.827,3.827,0,0,0-3.473-1.258,3.878,3.878,0,0,0-2.939,2.678,5.033,5.033,0,0,0,.5,4.336,7.183,7.183,0,0,0,3.749,2.909,11.235,11.235,0,0,0,5.079.42,16.4,16.4,0,0,0,5.164-1.468,8.553,8.553,0,0,0,3.932-3.727,5.069,5.069,0,0,0-.1-5.281,2.574,2.574,0,0,0-2.283-1.149,3.111,3.111,0,0,0-2.218,1.342,4.078,4.078,0,0,0-.668,2.555,6.569,6.569,0,0,0,.7,2.6c1.584,3.239,5.5,5.1,8.67,4.019,3.164-1.009,5.267-4.337,4.689-7.237a4.252,4.252,0,0,0-.9-1.908,2.525,2.525,0,0,0-1.727-.894,3,3,0,0,0-2.887,2.074,4.663,4.663,0,0,0,.26,3.458,6.672,6.672,0,0,0,2.028,2.455,10.113,10.113,0,0,0,4.792,1.883,24.637,24.637,0,0,0,3.309.225l.866.012A1.327,1.327,0,0,1,592.061,438.081Z"/></g></svg>