<svg xmlns="http://www.w3.org/2000/svg" width="676.187" height="427.1" viewBox="0 0 676.187 427.1"><defs><style>.a{fill:#e0e0e0;}.b{fill:#ebebeb;}.c{fill:#fafafa;}.d{fill:#263238;}.e{fill:#f5f5f5;}.f{fill:#455a64;}.g{fill:#fff;}.h,.l{fill:#0048cd;}.i{fill:#022d7c;}.j{fill:#002467;}.k{opacity:0.3;}.l{font-size:22px;font-family:SegoeUI-Bold, Segoe UI;font-weight:700;}.m{opacity:0.6;}.n{fill:#f2f2f2;}.o{fill:#cacaca;}.p{fill:#b6b6b6;}.q{fill:#c6c6c6;}.r{fill:#d4d3d3;}</style></defs><g transform="translate(-31.218 -37.238)"><path class="a" d="M134.108,257.89c-10.732,5.56-18.962,15.131-24.879,25.67s-9.731,22.1-13.509,33.585l-3.306,59.211c12.488-21.244,22.511-46.218,25.219-70.712l-8.31-.74c5.572-.85,10.249-4.888,13.224-9.675s4.508-10.307,6-15.741l-10.139,1.507A37.569,37.569,0,0,0,134.108,257.89Z"/><path class="b" d="M90.566,390.23s-27.105-32.442-26.792-63.413H74.723S62.83,319,63.771,314.617s1.254-20.96,1.254-20.96l10.011,2.5s-7.508-3.754-8.447-9.7,2.19-33.473,2.19-33.473,12.2,12.826,15.954,25.965,13.608,28.468,10.715,68.51S90.566,390.23,90.566,390.23Z"/><path class="b" d="M104.307,393.292s29.365-19.562,35.89-44.53l-8.8-2.395s11.273-3.686,11.474-7.413,3.578-17.126,3.578-17.126l-8.6-.178s6.857-1.375,8.912-5.948,5.563-27.391,5.563-27.391-12.615,7.643-18.507,17.385-17.169,19.91-23.6,52.736S104.307,393.292,104.307,393.292Z"/><path class="a" d="M76.183,281.275a1.708,1.708,0,0,1,.1.336l.237,1c.2.912.493,2.2.861,3.85.376,1.671.814,3.721,1.288,6.107s1.045,5.1,1.6,8.112c1.162,6.015,2.387,13.207,3.648,21.207,1.223,8.007,2.443,16.829,3.528,26.113,1.063,9.291,1.887,18.16,2.524,26.236.6,8.079,1.045,15.361,1.287,21.482.152,3.059.223,5.83.3,8.261s.125,4.527.14,6.24c.017,1.688.03,3.01.04,3.944,0,.429,0,.768,0,1.026a1.776,1.776,0,0,1-.019.35,1.786,1.786,0,0,1-.034-.349c-.013-.258-.029-.6-.049-1.025-.033-.933-.079-2.255-.138-3.941-.046-1.711-.117-3.8-.228-6.235s-.2-5.2-.374-8.253c-.289-6.116-.774-13.391-1.4-21.462-.662-8.069-1.5-16.93-2.562-26.214-1.084-9.277-2.29-18.1-3.485-26.1-1.235-8-2.421-15.193-3.536-21.213-.526-3.016-1.063-5.733-1.518-8.122s-.856-4.446-1.2-6.123c-.328-1.655-.584-2.952-.765-3.869l-.187-1.009A1.836,1.836,0,0,1,76.183,281.275Z"/><path class="b" d="M86.806,410.1S62,381.953,54.3,364.94l5.814-2.485c-4.214.7-8.532-1.115-11.8-3.866s-5.667-6.369-8.02-9.933l7.659-1.294A28.478,28.478,0,0,1,31.218,334.4c9.038,1.487,17.215,6.451,23.953,12.656a119.2,119.2,0,0,1,14.515,16.818,57.262,57.262,0,0,1,5.637,9.268C79.491,381.757,86.82,399.761,86.806,410.1Z"/><path class="a" d="M140.587,304.692a1.391,1.391,0,0,1-.114.287l-.381.818-1.509,3.123c-1.329,2.7-3.212,6.633-5.491,11.511s-4.917,10.721-7.744,17.253c-2.8,6.542-5.789,13.776-8.76,21.434-2.955,7.667-5.612,15.03-7.94,21.757-2.3,6.736-4.29,12.832-5.877,17.977s-2.846,9.316-3.681,12.209l-.984,3.326c-.111.355-.2.639-.269.861a1.326,1.326,0,0,1-.109.289,1.393,1.393,0,0,1,.058-.3c.056-.225.128-.514.219-.875.212-.8.511-1.924.89-3.353.775-2.911,1.973-7.1,3.524-12.262s3.5-11.274,5.775-18.024c2.305-6.742,4.951-14.116,7.908-21.79,2.974-7.665,5.976-14.9,8.806-21.437,2.853-6.527,5.521-12.362,7.851-17.219s4.258-8.769,5.643-11.444c.68-1.313,1.215-2.344,1.6-3.08l.426-.8A1.347,1.347,0,0,1,140.587,304.692Z"/><path class="a" d="M88.91,422.157a2.094,2.094,0,0,1-.12-.517l-.244-1.494c-.189-1.3-.513-3.172-.968-5.473s-1.084-5.024-1.9-8.016c-.839-2.984-1.868-6.235-3.122-9.586-1.274-3.344-2.65-6.465-3.993-9.259-1.368-2.782-2.687-5.246-3.875-7.269S72.518,376.9,71.8,375.8L71,374.514a2.018,2.018,0,0,1-.251-.468,2.082,2.082,0,0,1,.338.408l.886,1.229c.77,1.068,1.815,2.661,3.039,4.672S77.6,384.817,79,387.6c1.373,2.795,2.77,5.925,4.05,9.287,1.261,3.367,2.281,6.639,3.1,9.643.791,3.012,1.394,5.753,1.8,8.073s.679,4.2.807,5.515c.059.606.108,1.105.147,1.508A2.018,2.018,0,0,1,88.91,422.157Z"/><rect class="b" width="54.288" height="11.074" transform="translate(67.352 415.537)"/><path class="b" d="M72.525,426.611,78.4,463.859h32.8l5.473-37.248Z"/><path class="a" d="M118.31,426.611c0,.143-10.27.26-22.935.26s-22.938-.117-22.938-.26,10.268-.261,22.938-.261S118.31,426.467,118.31,426.611Z"/><rect class="c" width="157.428" height="107.314" transform="translate(528.42 99.867) rotate(-10.18)"/><path class="a" d="M547.387,205.491c-.142-.793-7.369-41.251-18.872-105.641l-.077.114,154.941-27.8.013,0-.141-.1c6.758,37.614,13.186,73.389,18.977,105.622l.089-.131-154.93,27.935,154.97-27.712.109-.02-.02-.111L683.489,72.022l-.022-.122-.119.022-.012,0L528.4,99.77l-.1.017.017.1C539.944,164.253,547.244,204.7,547.387,205.491Z"/><path class="a" d="M609.142,132.793s-.014-.121-.05-.343-.093-.555-.163-.973l-.634-3.675c-.556-3.164-1.348-7.678-2.3-13.124l-.08.118,22.747-4.063c.033.021-.264-.189-.138-.1v0l0,.01,0,.019.006.038.014.076.028.153.054.305.11.608q.108.607.217,1.21.217,1.206.43,2.391.427,2.372.837,4.649c.548,3.033,1.071,5.926,1.559,8.628l.087-.128-16.392,3-4.661.867-1.24.236-.321.064a.733.733,0,0,0-.112.027.691.691,0,0,0,.1-.012l.312-.05,1.223-.206,4.647-.8,16.481-2.9.107-.018-.019-.11c-.483-2.7-1-5.6-1.541-8.632q-.408-2.275-.833-4.649-.211-1.185-.428-2.391-.109-.6-.218-1.21l-.109-.609-.055-.305-.027-.153-.014-.076-.007-.038,0-.019,0-.01v0c.126.088-.171-.125-.143-.1L605.875,114.6l-.1.018.018.1c1,5.465,1.835,9.994,2.418,13.169.292,1.563.521,2.793.68,3.644l.182.95C609.116,132.689,609.142,132.793,609.142,132.793Z"/><path class="a" d="M554.586,104.662,676.7,82.734l14.294,79.6L568.88,184.265ZM676.328,83.283l-121.2,21.764,14.126,78.669,121.2-21.764Z"/><rect class="a" width="123.604" height="4.095" transform="translate(677.238 87.039) rotate(169.82)"/><rect class="a" width="4.487" height="58.495" transform="translate(690.724 162.144) rotate(169.821)"/><rect class="a" width="4.487" height="7.71" transform="translate(677.877 90.597) rotate(169.82)"/><path class="a" d="M667.553,103.645l5.888-13.59,1.6.73-5.889,13.591Zm6.126-12.963-5.514,12.725.746.342,5.514-12.725Z"/><path class="a" d="M666.953,122.5l10.609-1.9,2.1,11.7-10.609,1.9Zm10.236-1.356-9.7,1.741,1.933,10.762,9.695-1.741Z"/><rect class="a" width="123.604" height="4.633" transform="translate(690.725 162.144) rotate(169.82)"/><path class="a" d="M670.295,128.1a3.09,3.09,0,1,1,3.6,2.563A3.128,3.128,0,0,1,670.295,128.1Zm.457-.082a2.626,2.626,0,1,0,2.109-3.106A2.657,2.657,0,0,0,670.752,128.023Z"/><path class="a" d="M593.477,101.839l41.1-7.381,2.04,11.364-41.1,7.381Zm40.73-6.832-40.189,7.217,1.873,10.43,40.189-7.217Z"/><path class="a" d="M617.572,102.638l4.081-4.992,4.919,4.206-4.08,4.991Zm4.142-4.324-3.489,4.266,4.206,3.6,3.488-4.266Z"/><path class="a" d="M611.153,103.79l4.081-4.991,4.919,4.2L616.073,108Zm4.142-4.323-3.488,4.266,4.205,3.6,3.488-4.266Z"/><path class="a" d="M604.734,104.943l4.081-4.991,4.92,4.2-4.081,4.991Zm4.142-4.323-3.489,4.266,4.206,3.594,3.488-4.266Z"/><path class="a" d="M584.134,109.057a3.83,3.83,0,1,1,4.46,3.176A3.878,3.878,0,0,1,584.134,109.057Zm.457-.082a3.365,3.365,0,1,0,2.7-3.98A3.406,3.406,0,0,0,584.591,108.975Z"/><path class="a" d="M637.2,93.988l17.627-3.166,1.825,10.166-17.627,3.165Zm17.254-2.616-16.713,3L639.4,103.6l16.713-3Z"/><path class="a" d="M560.6,114.807l10.179-1.828,4.812,26.8-10.178,1.828Zm9.806-1.279-9.265,1.664,4.645,25.867,9.265-1.664Z"/><rect class="a" width="4.124" height="75.769" transform="translate(572.308 178.701) rotate(169.819)"/><path class="a" d="M575.7,130.619l-1.091-6.075a3.18,3.18,0,0,1,2.524-3.716l.74-.133a3.18,3.18,0,0,1,3.658,2.606l1.091,6.075a3.18,3.18,0,0,1-2.523,3.716l-.74.133A3.18,3.18,0,0,1,575.7,130.619Zm1.516-9.324a2.711,2.711,0,0,0-2.15,3.167l1.09,6.075a2.711,2.711,0,0,0,3.119,2.221l.74-.133a2.711,2.711,0,0,0,2.151-3.167l-1.091-6.075a2.711,2.711,0,0,0-3.119-2.221Z"/><path class="a" d="M630.33,143.217c.013.067,11.556-1.949,25.781-4.5s25.751-4.68,25.739-4.747-11.553,1.949-25.783,4.5S630.318,143.15,630.33,143.217Z"/><path class="a" d="M632.44,152.936a9.126,9.126,0,0,0-.179-1.484c-.142-.911-.354-2.167-.6-3.551s-.487-2.637-.672-3.54a9.043,9.043,0,0,0-.348-1.454,9.364,9.364,0,0,0,.18,1.484c.141.911.353,2.167.6,3.552s.487,2.636.671,3.539A9.175,9.175,0,0,0,632.44,152.936Z"/><path class="a" d="M667.861,136.237l13.454-2.416,4.5,25.06L672.361,161.3Zm13.082-1.867L668.4,136.622l4.332,24.126,12.542-2.252Z"/><path class="a" d="M539.578,107.6c.012.067,5.088-.788,11.336-1.91s11.3-2.087,11.293-2.154-5.087.788-11.337,1.911S539.566,107.531,539.578,107.6Z"/><path class="a" d="M555.3,194.1c.066-.012-3.46-19.955-7.874-44.538s-8.048-44.511-8.114-44.5,3.46,19.95,7.876,44.542S555.233,194.115,555.3,194.1Z"/><path class="a" d="M549.476,187.7c.012.067,4.561-.693,10.159-1.7s10.129-1.875,10.117-1.942-4.56.694-10.16,1.7S549.464,187.63,549.476,187.7Z"/><path class="a" d="M570.62,190.97a46.05,46.05,0,0,0-.712-4.648,45.7,45.7,0,0,0-.95-4.607,45.712,45.712,0,0,0,.712,4.649A45.711,45.711,0,0,0,570.62,190.97Z"/><path class="a" d="M690.675,167.5c-.012-.067-30.175,5.293-67.363,11.971s-67.338,12.148-67.326,12.215,30.169-5.292,67.37-11.972S690.687,167.569,690.675,167.5Z"/><path class="a" d="M691.617,169.625a29.343,29.343,0,0,0-.546-3.723,29.56,29.56,0,0,0-.783-3.681,29.256,29.256,0,0,0,.545,3.724A29.448,29.448,0,0,0,691.617,169.625Z"/><path class="a" d="M667.612,103.613a1.767,1.767,0,0,0,.386.263,11.448,11.448,0,0,0,1.124.592,13.366,13.366,0,0,0,4.011,1.148,16.358,16.358,0,0,0,4.157-.065c.526-.076.95-.151,1.239-.218a1.689,1.689,0,0,0,.446-.125c-.007-.04-.655.064-1.706.17a19.132,19.132,0,0,1-4.109-.007,15.058,15.058,0,0,1-3.971-1.063C668.211,103.9,667.632,103.574,667.612,103.613Z"/><path class="a" d="M625.765,165.808l5.889-13.589,1.6.731-5.889,13.59Zm6.126-12.962-5.514,12.725.746.341,5.514-12.725Z"/><path class="a" d="M625.824,165.776a1.728,1.728,0,0,0,.387.264,11.543,11.543,0,0,0,1.124.592,13.4,13.4,0,0,0,4.011,1.148,16.358,16.358,0,0,0,4.157-.065c.526-.077.949-.151,1.239-.219a1.7,1.7,0,0,0,.445-.124c-.007-.04-.654.064-1.705.17a19.142,19.142,0,0,1-4.109-.008,15.033,15.033,0,0,1-3.972-1.062C626.424,166.06,625.845,165.738,625.824,165.776Z"/><path class="a" d="M627.918,106.6c.066-.012-.289-2.295-.792-5.1s-.965-5.068-1.031-5.057.289,2.295.793,5.1S627.853,106.616,627.918,106.6Z"/><path class="a" d="M605.624,111.068c.065-.011-.294-2.32-.8-5.154s-.975-5.125-1.041-5.113.294,2.319.8,5.155S605.558,111.08,605.624,111.068Z"/><path class="a" d="M637.216,121.508l27.17-4.879,3.3,18.4-27.17,4.879Zm26.8-4.33-26.256,4.715,3.136,17.465,26.257-4.715Z"/><path class="a" d="M659.97,136.1c.066-.012-.59-3.971-1.465-8.841s-1.637-8.811-1.7-8.8.59,3.97,1.465,8.842S659.905,136.106,659.97,136.1Z"/><path class="a" d="M647.683,138.24c.065-.011-.588-3.957-1.46-8.811s-1.632-8.781-1.7-8.769.587,3.956,1.459,8.812S647.617,138.252,647.683,138.24Z"/><path class="a" d="M569.89,179.623l-4.163-23.184,42.07-7.555,4.163,23.184Zm-3.05-22.41,3.824,21.3,40.183-7.216L607.023,150Z"/><rect class="c" width="63.177" height="92.68" transform="matrix(0.196, -0.981, 0.981, 0.196, 43.009, 226.427)"/><path class="a" d="M146.275,182.644c-.093.465-4.858,24.187-12.44,61.94l.067-.046L43.03,226.357l-.007,0,.056.086c4.408-22.063,8.6-43.047,12.379-61.952l-.077.052,90.894,18.1L55.407,164.41l-.064-.012-.013.065c-3.782,18.9-7.978,39.888-12.391,61.95l-.014.071.07.014H43l90.877,18.153.056.011.011-.057C141.461,206.84,146.183,183.109,146.275,182.644Z"/><path class="a" d="M96.77,209.153s-.018.069-.046.2-.069.325-.121.569l-.445,2.15c-.378,1.853-.917,4.5-1.568,7.686l.07-.047-13.337-2.68c-.014-.018.1.161.054.084V217.1l0-.011.005-.022.009-.045.018-.09.035-.178.072-.357c.047-.238.094-.474.141-.71q.142-.706.28-1.4.277-1.391.544-2.727c.354-1.779.692-3.477,1.007-5.062l-.076.051,9.627,1.891,2.74.531.73.138.19.034a.484.484,0,0,0,.067.009.344.344,0,0,0-.059-.015l-.181-.041-.715-.15-2.718-.562-9.655-1.963-.063-.013-.012.065-1.018,5.06q-.267,1.335-.546,2.727-.14.694-.281,1.4l-.142.71-.071.357-.036.179-.018.089-.009.045,0,.022,0,.012v.008c-.05-.075.067.106.056.087l13.342,2.655.058.011.012-.059c.628-3.21,1.149-5.87,1.515-7.735.177-.92.316-1.643.413-2.143l.1-.56C96.762,209.215,96.77,209.153,96.77,209.153Z"/><path class="a" d="M120.59,236.327,48.967,222.008,58.3,175.32l71.623,14.318Zm-71.3-14.539L120.377,236l9.224-46.141L58.514,175.647Z"/><rect class="a" width="72.767" height="2.411" transform="translate(49.601 219.534) rotate(11.305)"/><rect class="a" width="2.642" height="34.437" transform="translate(58.408 175.483) rotate(11.306)"/><rect class="a" width="2.642" height="4.539" transform="matrix(0.981, 0.196, -0.196, 0.981, 50.018, 217.447)"/><path class="a" d="M58.488,212.526,52.332,218.7l-.717-.745,6.156-6.175Zm-6.151,5.78,5.764-5.782-.335-.348L52,217.958Z"/><path class="a" d="M62.883,202.323l-6.223-1.244,1.372-6.859,6.222,1.244Zm-5.9-1.464L62.67,202l1.262-6.312-5.687-1.137Z"/><rect class="a" width="72.767" height="2.728" transform="translate(58.408 175.483) rotate(11.305)"/><path class="a" d="M62.26,198.535a1.82,1.82,0,1,1-1.419-2.18A1.842,1.842,0,0,1,62.26,198.535Zm-.268-.053a1.546,1.546,0,1,0-1.826,1.246A1.566,1.566,0,0,0,61.992,198.482Z"/><path class="a" d="M98.677,229.487l-24.108-4.819L75.9,218l24.107,4.819Zm-23.785-5.039,23.572,4.712,1.223-6.117L76.115,218.33Z"/><path class="a" d="M85.65,223.855l-3.312,1.854-1.788-3.365,3.312-1.854Zm-3.2,1.475,2.831-1.585-1.529-2.876-2.83,1.585Z"/><path class="a" d="M89.415,224.607,86.1,226.462,84.315,223.1l3.312-1.854Zm-3.2,1.475,2.831-1.584-1.529-2.876-2.831,1.585Z"/><path class="a" d="M93.18,225.36l-3.312,1.854L88.08,223.85l3.311-1.855Zm-3.2,1.475,2.83-1.585-1.528-2.876-2.831,1.585Z"/><path class="a" d="M105.352,227.548a2.255,2.255,0,1,1-1.759-2.7A2.284,2.284,0,0,1,105.352,227.548Zm-.268-.054a1.981,1.981,0,1,0-2.34,1.6A2.006,2.006,0,0,0,105.084,227.494Z"/><path class="a" d="M73.033,224.361l-10.339-2.067,1.192-5.962L74.225,218.4Zm-10.016-2.287,9.8,1.959,1.083-5.414-9.8-1.96Z"/><path class="a" d="M119.485,229.473l-5.97-1.193,3.143-15.72,5.969,1.194Zm-5.647-1.414,5.434,1.087,3.033-15.172-5.434-1.086Z"/><rect class="a" width="2.428" height="44.606" transform="translate(126.847 191.947) rotate(11.305)"/><path class="a" d="M114.624,217.556l-.712,3.563a1.873,1.873,0,0,1-2.184,1.491l-.434-.086a1.873,1.873,0,0,1-1.443-2.217l.713-3.563a1.871,1.871,0,0,1,2.183-1.491l.434.086A1.873,1.873,0,0,1,114.624,217.556Zm-2.841,4.781a1.6,1.6,0,0,0,1.861-1.272l.712-3.563a1.6,1.6,0,0,0-1.229-1.889l-.434-.086a1.6,1.6,0,0,0-1.862,1.271l-.712,3.563a1.6,1.6,0,0,0,1.23,1.889Z"/><path class="a" d="M87.411,198.874c.008-.04-6.751-1.424-15.094-3.092s-15.116-2.988-15.124-2.949,6.75,1.423,15.1,3.092S87.4,198.913,87.411,198.874Z"/><path class="a" d="M88.351,193.1a5.248,5.248,0,0,0-.222.852c-.119.529-.274,1.263-.436,2.075s-.3,1.549-.4,2.084a5.263,5.263,0,0,0-.123.871,5.466,5.466,0,0,0,.221-.851c.119-.53.274-1.264.436-2.076s.3-1.549.4-2.084A5.387,5.387,0,0,0,88.351,193.1Z"/><path class="a" d="M65.346,194.6l-7.891-1.577,2.938-14.7,7.892,1.578Zm-7.568-1.8,7.355,1.471,2.829-14.15-7.356-1.471Z"/><path class="a" d="M129.445,237.955c.008-.04-2.957-.666-6.622-1.4s-6.643-1.3-6.651-1.256,2.957.665,6.623,1.4S129.437,237.994,129.445,237.955Z"/><path class="a" d="M139.486,187.177c-.039-.008-2.407,11.677-5.29,26.1s-5.189,26.119-5.15,26.127,2.406-11.675,5.29-26.1S139.524,187.184,139.486,187.177Z"/><path class="a" d="M141.294,191.941c.008-.039-2.648-.6-5.932-1.259s-5.953-1.157-5.96-1.118,2.647.6,5.932,1.26S141.286,191.981,141.294,191.941Z"/><path class="a" d="M130.417,185.59a54.05,54.05,0,0,0-1.085,5.428,27.3,27.3,0,0,0,.612-2.7A26.786,26.786,0,0,0,130.417,185.59Z"/><path class="a" d="M59.59,172.559c-.008.04,17.671,3.607,39.483,7.968s39.507,7.865,39.515,7.825-17.668-3.606-39.487-7.968S59.6,172.52,59.59,172.559Z"/><path class="a" d="M59.532,171.193a34.367,34.367,0,0,0-.868,4.342,17.265,17.265,0,0,0,.5-2.157A17.451,17.451,0,0,0,59.532,171.193Z"/><path class="a" d="M58.448,212.531a1,1,0,0,0-.155-.228,6.662,6.662,0,0,0-.488-.567,7.862,7.862,0,0,0-1.949-1.493,9.619,9.619,0,0,0-2.292-.861c-.3-.072-.552-.122-.725-.147a.951.951,0,0,0-.271-.028c-.005.023.372.106.97.274a11.285,11.285,0,0,1,2.25.89,8.852,8.852,0,0,1,1.946,1.439C58.181,212.246,58.429,212.547,58.448,212.531Z"/><path class="a" d="M94.783,187.483l-6.156,6.175-.717-.745,6.156-6.175Zm-6.151,5.78,5.764-5.782-.335-.348L88.3,192.915Z"/><path class="a" d="M94.743,187.488a.954.954,0,0,0-.155-.228,6.8,6.8,0,0,0-.487-.567,7.888,7.888,0,0,0-1.95-1.493,9.587,9.587,0,0,0-2.291-.861c-.305-.072-.553-.122-.726-.148a.966.966,0,0,0-.271-.027c0,.023.372.106.971.274a11.3,11.3,0,0,1,2.249.89,8.884,8.884,0,0,1,1.946,1.438C94.476,187.2,94.724,187.5,94.743,187.488Z"/><path class="a" d="M80.837,219.451c-.038-.008-.336,1.319-.665,2.964s-.564,2.985-.525,2.992.336-1.319.665-2.964S80.876,219.458,80.837,219.451Z"/><path class="a" d="M94.013,221.812c-.038-.007-.339,1.335-.672,3s-.57,3.018-.532,3.025.339-1.333.672-3S94.052,221.82,94.013,221.812Z"/><path class="a" d="M78.958,209.282,63.022,206.1,65.179,195.3l15.936,3.186Zm-15.614-3.406,15.4,3.078,2.047-10.244-15.4-3.078Z"/><path class="a" d="M69.638,196.385c-.038-.008-.533,2.3-1.1,5.159s-1,5.179-.964,5.187.533-2.3,1.1-5.16S69.677,196.392,69.638,196.385Z"/><path class="a" d="M76.832,197.859c-.038-.008-.531,2.294-1.1,5.141s-1,5.163-.961,5.17.531-2.294,1.1-5.142S76.871,197.866,76.832,197.859Z"/><path class="a" d="M125.822,205.817l-25.1-5.018,2.8-14.025,25.1,5.019Zm-23.925-5.8,23.141,4.625,2.411-12.063-23.141-4.626Z"/><path class="d" d="M704.268,463.737c0,.144-144.582.288-322.892.321-178.372.034-322.923-.055-322.923-.2s144.551-.288,322.923-.321C559.686,463.5,704.268,463.593,704.268,463.737Z"/><rect class="e" width="206.211" height="172.187" transform="translate(470.968 291.364)"/><path class="d" d="M677.179,463.551c.006-4.845.093-68.912.232-172.187v-.233h-.234l-206.192-.045h-.295v.278c.011,62.366.021,121.2.03,172.187v.247h.247l206.211-.247L470.968,463.3l.247.247c.009-50.986.019-109.821.03-172.187l-.277.277h.018l206.192-.045-.232-.232C677.086,394.639,677.172,458.71,677.179,463.551Z"/><rect class="f" width="21.416" height="50.076" transform="translate(609.727 413.475)"/><path class="c" d="M628.812,441.642a1.109,1.109,0,1,1-1.109-1.109A1.109,1.109,0,0,1,628.812,441.642Z"/><path class="a" d="M677.2,366.688c0,.107-46.052.192-102.847.192-56.814,0-102.856-.085-102.856-.192s46.042-.191,102.856-.191C631.146,366.5,677.2,366.583,677.2,366.688Z"/><path class="a" d="M677.2,372.789c0,.106-46.052.192-102.847.192-56.814,0-102.856-.086-102.856-.192s46.042-.192,102.856-.192C631.146,372.6,677.2,372.683,677.2,372.789Z"/><path class="a" d="M677.2,378.89c0,.106-46.052.192-102.847.192-56.814,0-102.856-.086-102.856-.192s46.042-.192,102.856-.192C631.146,378.7,677.2,378.784,677.2,378.89Z"/><path class="a" d="M677.2,384.99c0,.107-46.052.193-102.847.193-56.814,0-102.856-.086-102.856-.193s46.042-.191,102.856-.191C631.146,384.8,677.2,384.885,677.2,384.99Z"/><path class="a" d="M677.2,391.091c0,.106-46.052.192-102.847.192-56.814,0-102.856-.086-102.856-.192s46.042-.192,102.856-.192C631.146,390.9,677.2,390.985,677.2,391.091Z"/><path class="a" d="M677.2,397.192c0,.106-46.052.192-102.847.192-56.814,0-102.856-.086-102.856-.192S517.537,397,574.351,397C631.146,397,677.2,397.086,677.2,397.192Z"/><path class="a" d="M677.2,403.293c0,.106-46.052.192-102.847.192-56.814,0-102.856-.086-102.856-.192s46.042-.192,102.856-.192C631.146,403.1,677.2,403.187,677.2,403.293Z"/><path class="a" d="M677.2,409.394c0,.1-46.052.192-102.847.192-56.814,0-102.856-.087-102.856-.192s46.042-.192,102.856-.192C631.146,409.2,677.2,409.288,677.2,409.394Z"/><rect class="g" width="15.918" height="31.199" transform="translate(552.501 314.691)"/><path class="d" d="M568.419,345.89a1.117,1.117,0,0,1-.01-.161c0-.12-.007-.269-.011-.453q-.009-.629-.023-1.738c-.012-1.532-.028-3.723-.049-6.474-.022-5.531-.052-13.3-.087-22.373l.18.18-15.915.012c-.046.04.362-.359.189-.186v2.233q0,1.115,0,2.215,0,2.2,0,4.338c0,2.848-.006,5.6-.01,8.239-.013,5.267-.025,10.06-.035,14.168l-.144-.143,11.6.076,3.188.036.839.016a2.423,2.423,0,0,1,.3.015,1.652,1.652,0,0,1-.266.015l-.813.016-3.156.036-11.683.076h-.143v-.144c-.01-4.108-.022-8.9-.036-14.168,0-2.636-.006-5.391-.009-8.239q0-2.136,0-4.338V314.7c-.17.17.232-.241.2-.2l15.915.011h.182v.181c-.035,9.121-.065,16.933-.087,22.494-.021,2.733-.038,4.911-.049,6.433q-.015,1.086-.023,1.7c0,.176-.008.318-.011.433A.525.525,0,0,1,568.419,345.89Z"/><path class="d" d="M560.514,345.873c-.106,0-.192-7.021-.192-15.68s.086-15.682.192-15.682.192,7.02.192,15.682S560.62,345.873,560.514,345.873Z"/><path class="d" d="M568.236,331.374c0,.106-3.6.192-8.037.192s-8.038-.086-8.038-.192,3.6-.192,8.038-.192S568.236,331.268,568.236,331.374Z"/><rect class="c" width="15.918" height="31.199" transform="translate(643.357 414.769)"/><path class="d" d="M659.276,445.968a.871.871,0,0,1-.011-.161c0-.12-.007-.269-.011-.453q-.009-.629-.023-1.738c-.012-1.531-.028-3.723-.049-6.474-.022-5.53-.052-13.3-.087-22.373l.181.181-15.916.011c-.046.04.362-.359.189-.186v4.448q0,2.2,0,4.338c0,2.848-.006,5.6-.01,8.239-.013,5.268-.025,10.06-.035,14.168l-.143-.143,11.6.076,3.188.036.838.016a2.486,2.486,0,0,1,.3.015,1.667,1.667,0,0,1-.267.015L658.2,446l-3.156.036-11.682.077h-.144v-.144c-.01-4.108-.022-8.9-.036-14.168,0-2.636-.006-5.391-.009-8.239q0-2.136,0-4.338v-4.448c-.17.17.232-.241.2-.2l15.916.011h.181v.181c-.035,9.121-.065,16.933-.087,22.494-.021,2.733-.038,4.911-.049,6.433q-.015,1.086-.023,1.7c0,.177-.008.318-.011.433A.644.644,0,0,1,659.276,445.968Z"/><path class="d" d="M651.37,445.952c-.106,0-.192-7.022-.192-15.681s.086-15.681.192-15.681.192,7.019.192,15.681S651.476,445.952,651.37,445.952Z"/><path class="d" d="M659.092,431.452c0,.107-3.6.193-8.037.193s-8.038-.086-8.038-.193,3.6-.191,8.038-.191S659.092,431.347,659.092,431.452Z"/><path class="a" d="M545.916,355.985a3.062,3.062,0,0,1-.028-.433c-.008-.313-.019-.707-.032-1.192-.018-1.065-.042-2.527-.071-4.327l.131.13c-3.965.038-9.675.061-16.011.061-.172.172.233-.234.191-.191h0v1.542q0,.765,0,1.512c0,.995,0,1.964-.006,2.9l-.185-.185c4.59.011,8.564.051,11.415.087l3.355.051.911.024a2.083,2.083,0,0,1,.331.023,1.218,1.218,0,0,1-.286.023l-.872.024-3.313.051c-2.84.036-6.872.076-11.541.087h-.184v-.185c0-.933,0-1.9-.006-2.9q0-.747,0-1.512v-1.542h0c-.042.041.364-.364.193-.192,6.336,0,12.046.023,16.011.06l.133,0,0,.13c-.03,1.833-.054,3.322-.072,4.406-.013.473-.023.858-.032,1.163A1.879,1.879,0,0,1,545.916,355.985Z"/><path class="a" d="M646.078,308.544a2.467,2.467,0,0,1-.03-.41c-.01-.3-.022-.67-.036-1.114-.019-1-.044-2.354-.075-3.992l.141.141-11.546.051c-.172.171.233-.234.192-.192v1.44q0,.713,0,1.4c0,.923-.005,1.816-.008,2.671l-.181-.181c3.326.012,6.186.051,8.236.087l2.412.049a7.965,7.965,0,0,1,.9.045,5.542,5.542,0,0,1-.818.045l-2.37.05c-2.04.035-4.954.074-8.358.087h-.182v-.183c0-.855-.005-1.748-.008-2.671q0-.691,0-1.4v-1.44c-.043.041.363-.364.192-.192l11.546.051h.143l0,.141c-.031,1.673-.057,3.051-.076,4.078-.014.432-.026.789-.035,1.082A1.508,1.508,0,0,1,646.078,308.544Z"/><rect class="a" width="15.487" height="5.654" transform="translate(540.67 355.985)"/><rect class="a" width="15.488" height="5.654" transform="translate(559.687 304.74)"/><rect class="a" width="15.487" height="5.654" transform="translate(634.457 350.839)"/><rect class="a" width="12.175" height="5.654" transform="translate(664.32 329.973)"/><path class="h" d="M642.2,234.134l-141.755,1.012L454.79,291.364H687.3Z"/><path class="d" d="M642.2,234.133s1.053,1.39,3.084,3.994c2.071,2.647,5.063,6.472,8.908,11.384l32.955,41.972.151-.311-186.9-.086-45.608.005.212.445L500.637,235.3l-.189.091,102.488-.84,28.956-.275c6.7-.071,10.308-.145,10.308-.145s-3.56-.022-10.245,0l-28.925.139-102.586.624h-.116l-.074.091c-14.017,17.246-29.4,36.171-45.676,56.2l-.362.445h.574l45.608,0,186.9-.085h.4l-.247-.311L654.3,249.333l-8.971-11.3C643.285,235.456,642.2,234.133,642.2,234.133Z"/><path class="e" d="M571.044,258.809l10.876,18.127h49.109V258.809l-21.423-38.891L581.92,258.479Z"/><circle class="g" cx="8.007" cy="8.007" r="8.007" transform="translate(597.186 247.621) rotate(-22.385)"/><path class="d" d="M615.647,251.976a5.838,5.838,0,0,0-.146-1.982,7.969,7.969,0,0,0-2.9-4.539,8.181,8.181,0,0,0-7.778-1.24,8.241,8.241,0,0,0,0,15.522,8.186,8.186,0,0,0,7.779-1.24,7.971,7.971,0,0,0,2.9-4.54,5.832,5.832,0,0,0,.146-1.981c-.063,0-.03.713-.355,1.928a7.983,7.983,0,0,1-2.926,4.28,7.766,7.766,0,1,1,0-12.417,7.983,7.983,0,0,1,2.927,4.28C615.617,251.262,615.584,251.98,615.647,251.976Z"/><rect class="g" width="51.574" height="53.484" transform="translate(584.92 302.593)"/><path class="d" d="M636.494,356.077s-.006-.09-.009-.258-.005-.424-.009-.744c-.005-.665-.012-1.63-.02-2.884-.01-2.527-.025-6.211-.044-10.9-.02-9.364-.05-22.713-.085-38.7l.167.167-51.569.024h-.005l.192-.191c-.01,19.623-.019,37.986-.027,53.484l-.165-.165,37.35.085,10.488.042,2.773.02.715.009c.162,0,.248.009.248.009s-.074.006-.229.009l-.7.01-2.741.019-10.451.043-37.455.084h-.165v-.165c-.008-15.5-.017-33.861-.027-53.484V302.4h.2l51.569.025h.168v.167c-.035,16.034-.064,29.42-.084,38.81-.019,4.667-.034,8.339-.044,10.857-.009,1.24-.015,2.194-.02,2.851,0,.313-.007.553-.009.727S636.494,356.077,636.494,356.077Z"/><path class="d" d="M611.69,355.348c-.106,0-.192-11.735-.192-26.208s.086-26.211.192-26.211.192,11.733.192,26.211S611.8,355.348,611.69,355.348Z"/><path class="d" d="M635.927,331.048c0,.106-11.292.191-25.219.191s-25.221-.085-25.221-.191,11.29-.192,25.221-.192S635.927,330.942,635.927,331.048Z"/><rect class="c" width="15.918" height="31.199" transform="translate(650.184 314.053)"/><path class="d" d="M666.1,345.253a1.018,1.018,0,0,1-.011-.161c0-.12-.007-.269-.011-.453q-.008-.629-.023-1.738c-.011-1.532-.028-3.724-.049-6.474-.021-5.53-.052-13.3-.087-22.373l.181.18-15.916.012c-.046.04.362-.359.19-.186v2.233q0,1.115,0,2.215,0,2.2,0,4.338c0,2.847-.006,5.6-.009,8.239-.013,5.268-.025,10.06-.036,14.168l-.143-.143,11.595.076,3.188.036.839.016a2.449,2.449,0,0,1,.3.015,1.667,1.667,0,0,1-.267.015l-.812.016-3.156.036-11.683.076h-.143v-.144c-.01-4.108-.022-8.9-.035-14.168,0-2.636-.007-5.392-.01-8.239q0-2.136,0-4.338,0-1.1,0-2.215V314.06c-.171.17.232-.241.194-.2l15.916.011h.181v.181c-.035,9.121-.065,16.933-.087,22.494-.021,2.733-.037,4.911-.049,6.433q-.013,1.085-.022,1.7c-.005.176-.008.318-.011.432A.7.7,0,0,1,666.1,345.253Z"/><path class="d" d="M658.2,345.236c-.106,0-.192-7.021-.192-15.68s.086-15.682.192-15.682.193,7.02.193,15.682S658.3,345.236,658.2,345.236Z"/><path class="d" d="M665.919,330.737c0,.106-3.6.192-8.037.192s-8.038-.086-8.038-.192,3.6-.192,8.038-.192S665.919,330.631,665.919,330.737Z"/><rect class="e" width="7.852" height="61.011" transform="translate(689.261 402.54)"/><path class="d" d="M697.114,463.551s.025-.391.037-1.175c.01-.937.023-2.077.038-3.456.02-3.228.048-7.571.081-12.881.031-11.176.072-26.38.119-43.5v-.276h-.277l-7.849,0c-.561.554-.155.165-.28.294V407.5q0,2.459,0,4.867c0,3.208.005,6.346.008,9.4.011,6.085.021,11.825.031,17.1.045,10.33.083,18.821.108,24.681v.128l.127,0,5.88-.071c1.319-.023,1.972-.055,1.972-.055s-.717-.032-2.046-.055l-5.806-.072.126.127c.026-5.86.063-14.351.109-24.681.01-5.28.02-11.02.031-17.1,0-3.052.005-6.19.008-9.4q0-2.409,0-4.867v-4.943c-.122.118.273-.294-.275.261l7.849,0-.275-.275c.047,17.039.089,32.175.119,43.3.034,5.336.061,9.7.081,12.946.016,1.4.028,2.564.038,3.517C697.089,463.11,697.114,463.551,697.114,463.551Z"/><rect class="e" width="7.852" height="61.011" transform="translate(591.226 402.54)"/><path class="d" d="M599.078,463.551s.025-.391.038-1.175c.01-.937.022-2.077.037-3.456.021-3.228.048-7.571.082-12.881.03-11.176.072-26.38.119-43.5v-.276h-.277l-7.849,0c-.561.554-.155.165-.281.294V407.5q0,2.459,0,4.867c0,3.208.006,6.346.008,9.4.011,6.085.022,11.825.031,17.1.046,10.33.083,18.821.109,24.681v.128l.126,0,5.881-.071c1.319-.023,1.971-.055,1.971-.055s-.717-.032-2.045-.055l-5.807-.072.127.127c.025-5.86.063-14.351.109-24.681.009-5.28.019-11.02.03-17.1,0-3.052.006-6.19.009-9.4q0-2.409,0-4.867v-4.943c-.122.118.274-.294-.274.261l7.849,0-.275-.275c.047,17.039.088,32.175.119,43.3.033,5.336.061,9.7.081,12.946.015,1.4.028,2.564.038,3.517C599.053,463.11,599.078,463.551,599.078,463.551Z"/><path class="i" d="M537.644,402.848H707.4l-36.936-30.5H578.59Z"/><path class="h" d="M578.59,372.344l32.153,30.5-73.34,0Z"/><path class="j" d="M631.029,258.809h5.929L612.33,216.3l-2.724,3.613,21.423,38.891"/><path class="d" d="M609.582,219.931l-.008-.015,2.736-3.626.023-.033,24.649,42.54.023.039h-5.992Zm2.746-3.578-2.691,3.568,21.407,38.863h5.868Z"/><path class="b" d="M581.92,276.936V258.506H570.876Z"/><path class="h" d="M571.044,258.809h-8.883l30.75-42.715,19.419.21-30.41,42.175Z"/><path class="d" d="M571.044,258.809s.993.023,2.848-.009l8.033-.174.071,0,.044-.059,30.513-42.1.312-.431-.532-.005-9.025-.1-10.393-.109-.143,0-.083.116-30.634,42.8-.151.211.258,0,6.606-.063c1.5-.022,2.276-.069,2.276-.069s-.779-.047-2.278-.069l-6.6-.063.107.209,30.865-42.631-.225.114,10.393.115,9.025.1-.22-.436c-12.687,17.688-23.575,32.866-30.3,42.25l.114-.061-8.027.312C572.035,258.726,571.044,258.809,571.044,258.809Z"/><path class="d" d="M520.09,291.531c-.153,0-.277,38.511-.277,86.006,0,47.511.124,86.014.277,86.014s.278-38.5.278-86.014C520.368,330.042,520.243,291.531,520.09,291.531Z"/><rect class="c" width="15.918" height="31.199" transform="translate(557.974 415.686)"/><path class="d" d="M573.892,446.886a1.013,1.013,0,0,1-.011-.161c0-.12-.006-.269-.011-.454q-.008-.629-.022-1.737c-.012-1.532-.029-3.724-.05-6.474-.021-5.531-.051-13.3-.086-22.374l.18.181-15.916.011c-.046.041.362-.359.19-.185v2.233q0,1.115,0,2.215,0,2.2,0,4.338c0,2.847-.007,5.6-.01,8.239-.013,5.267-.025,10.059-.036,14.168l-.143-.144,11.595.077,3.188.036.839.016a2.437,2.437,0,0,1,.3.015,1.653,1.653,0,0,1-.267.015l-.812.015-3.156.037-11.683.076h-.143v-.144c-.011-4.109-.023-8.9-.036-14.168,0-2.637-.006-5.392-.01-8.239q0-2.136,0-4.338,0-1.1,0-2.215v-2.233c-.171.17.232-.242.194-.2l15.916.012h.181v.18c-.035,9.121-.066,16.934-.087,22.495-.021,2.733-.038,4.91-.05,6.432q-.013,1.086-.022,1.7c-.005.176-.008.318-.011.432A.62.62,0,0,1,573.892,446.886Z"/><path class="d" d="M565.987,446.869c-.106,0-.192-7.021-.192-15.68s.086-15.682.192-15.682.192,7.02.192,15.682S566.093,446.869,565.987,446.869Z"/><path class="d" d="M573.709,432.37c0,.106-3.6.192-8.037.192s-8.038-.086-8.038-.192,3.6-.192,8.038-.192S573.709,432.264,573.709,432.37Z"/><rect class="a" width="283.394" height="402.237" rx="11.449" transform="translate(233.318 61.502)"/><path class="d" d="M505.263,463.739s.3-.024.877-.058a12.41,12.41,0,0,0,2.551-.495,11.789,11.789,0,0,0,3.745-2.032,11.484,11.484,0,0,0,3.436-4.734,10.89,10.89,0,0,0,.744-3.461c.065-1.249.014-2.58.027-3.967q-.006-4.167-.013-9.107c-.007-6.583-.016-14.177-.025-22.726-.021-34.2-.051-83.686-.087-144.83-.01-30.574-.022-64.062-.034-100.013q-.006-26.964-.014-55.717,0-14.362-.006-29.137-.011-7.381-.02-14.861a11.158,11.158,0,0,0-8.7-10.561,15.751,15.751,0,0,0-3.718-.284h-3.807l-7.649,0-15.435,0-31.4,0-64.758.007L244.8,61.777A11.175,11.175,0,0,0,233.62,72.4c-.056,5.769-.016,11.569-.028,17.322q0,17.281,0,34.326,0,34.083-.005,67.11c-.005,44-.01,86.438-.016,126.867s-.017,78.846-.025,114.8q0,6.742,0,13.367c.011,2.2-.026,4.416.023,6.584a11.127,11.127,0,0,0,2.032,5.982,11.364,11.364,0,0,0,4.892,3.916,12.055,12.055,0,0,0,3.045.778c1.037.092,2.109.071,3.173.072l12.642.005,47.991.017,144.822.087,39.373.052,10.24.027c2.307.009,3.489.028,3.489.028s-1.182.019-3.489.028l-10.24.027-39.373.052-144.822.087-47.991.018-12.642,0c-1.062,0-2.127.022-3.22-.073a12.463,12.463,0,0,1-3.164-.807,11.789,11.789,0,0,1-5.084-4.065,11.563,11.563,0,0,1-2.117-6.216c-.051-2.206-.015-4.391-.027-6.6q0-6.626,0-13.367c-.008-35.953-.017-74.371-.026-114.8s-.01-82.869-.016-126.867q0-33,0-67.11,0-17.042,0-34.326c.013-5.765-.029-11.526.029-17.349A11.722,11.722,0,0,1,244.8,61.229l136.178.005,64.758.007,31.4,0,15.435,0,7.649,0h3.807a16.3,16.3,0,0,1,3.829.3,11.657,11.657,0,0,1,9.09,11.038q.008,7.488.016,14.877,0,14.772-.007,29.137-.006,28.725-.013,55.717c-.012,35.951-.024,69.439-.034,100.013-.036,61.144-.066,110.628-.087,144.83-.009,8.549-.018,16.143-.025,22.726q-.008,4.936-.013,9.107c-.017,1.39.03,2.71-.041,3.974a10.983,10.983,0,0,1-.764,3.494,11.557,11.557,0,0,1-3.487,4.759,11.763,11.763,0,0,1-3.78,2.02,11.978,11.978,0,0,1-2.566.47C505.558,463.734,505.263,463.739,505.263,463.739Z"/><g class="k"><path d="M260.2,453.749l237.636-1.3,2.723-45.914-7.281-27.69L258.042,415.6Z"/></g><path class="d" d="M505.263,463.739s.3-.024.877-.058a12.41,12.41,0,0,0,2.551-.495,11.789,11.789,0,0,0,3.745-2.032,11.484,11.484,0,0,0,3.436-4.734,10.89,10.89,0,0,0,.744-3.461c.065-1.249.014-2.58.027-3.967q-.006-4.167-.013-9.107c-.007-6.583-.016-14.177-.025-22.726-.021-34.2-.051-83.686-.087-144.83-.01-30.574-.022-64.062-.034-100.013q-.006-26.964-.014-55.717,0-14.362-.006-29.137-.011-7.381-.02-14.861a11.158,11.158,0,0,0-8.7-10.561,15.751,15.751,0,0,0-3.718-.284h-3.807l-7.649,0-15.435,0-31.4,0-64.758.007L244.8,61.777A11.175,11.175,0,0,0,233.62,72.4c-.056,5.769-.016,11.569-.028,17.322q0,17.281,0,34.326,0,34.083-.005,67.11c-.005,44-.01,86.438-.016,126.867s-.017,78.846-.025,114.8q0,6.742,0,13.367c.011,2.2-.026,4.416.023,6.584a11.127,11.127,0,0,0,2.032,5.982,11.364,11.364,0,0,0,4.892,3.916,12.055,12.055,0,0,0,3.045.778c1.037.092,2.109.071,3.173.072l12.642.005,47.991.017,144.822.087,39.373.052,10.24.027c2.307.009,3.489.028,3.489.028s-1.182.019-3.489.028l-10.24.027-39.373.052-144.822.087-47.991.018-12.642,0c-1.062,0-2.127.022-3.22-.073a12.463,12.463,0,0,1-3.164-.807,11.789,11.789,0,0,1-5.084-4.065,11.563,11.563,0,0,1-2.117-6.216c-.051-2.206-.015-4.391-.027-6.6q0-6.626,0-13.367c-.008-35.953-.017-74.371-.026-114.8s-.01-82.869-.016-126.867q0-33,0-67.11,0-17.042,0-34.326c.013-5.765-.029-11.526.029-17.349A11.722,11.722,0,0,1,244.8,61.229l136.178.005,64.758.007,31.4,0,15.435,0,7.649,0h3.807a16.3,16.3,0,0,1,3.829.3,11.657,11.657,0,0,1,9.09,11.038q.008,7.488.016,14.877,0,14.772-.007,29.137-.006,28.725-.013,55.717c-.012,35.951-.024,69.439-.034,100.013-.036,61.144-.066,110.628-.087,144.83-.009,8.549-.018,16.143-.025,22.726q-.008,4.936-.013,9.107c-.017,1.39.03,2.71-.041,3.974a10.983,10.983,0,0,1-.764,3.494,11.557,11.557,0,0,1-3.487,4.759,11.763,11.763,0,0,1-3.78,2.02,11.978,11.978,0,0,1-2.566.47C505.558,463.734,505.263,463.739,505.263,463.739Z"/><g class="k"><path d="M260.2,453.749l237.636-1.3,2.723-45.914-7.281-27.69L258.042,415.6Z"/></g><rect class="g" width="254.705" height="367.038" transform="translate(247.662 77.707)"/><path class="d" d="M502.367,444.745c0-2.115-.1-150.427-.237-367.038l.237.237-254.675.023h-.03l.261-.26c-.019,137.834-.037,265.178-.051,367.037l-.21-.209,254.705.21-254.705.209h-.21v-.21c-.014-101.859-.031-229.2-.05-367.037v-.261h.29l254.675.023h.238v.238C502.464,294.318,502.369,442.632,502.367,444.745Z"/><rect class="h" width="127.746" height="11.796" transform="translate(315.001 98.259)"/><rect class="a" width="55.707" height="11.797" transform="translate(261.995 125.859)"/><rect class="e" width="111.659" height="11.796" transform="translate(261.995 146.857)"/><rect class="e" width="111.659" height="11.797" transform="translate(324.967 163.23)"/><rect class="e" width="53.118" height="11.797" transform="translate(261.995 162.988)"/><rect class="e" width="53.118" height="11.796" transform="translate(383.99 146.491)"/><rect class="e" width="40.406" height="11.796" transform="translate(443.013 146.491)"/><rect class="e" width="40.406" height="11.796" transform="translate(443.013 163.192)"/><rect class="a" width="220.341" height="13.435" transform="translate(261.995 341.468)"/><rect class="a" width="220.341" height="13.435" transform="translate(261.995 183.797)"/><rect class="a" width="87.877" height="13.435" transform="translate(261.995 278.136)"/><rect class="a" width="109.867" height="13.435" transform="translate(374.868 278.136)"/><path class="d" d="M349.8,299.769c0,.157-19.658.284-43.9.284s-43.9-.127-43.9-.284,19.653-.284,43.9-.284S349.8,299.612,349.8,299.769Z"/><path class="d" d="M348.342,310.088c0,.157-19.331.284-43.171.284s-43.176-.127-43.176-.284,19.327-.284,43.176-.284S348.342,309.932,348.342,310.088Z"/><path class="d" d="M349.084,320.577c0,.157-19.5.284-43.543.284s-43.546-.127-43.546-.284,19.493-.284,43.546-.284S349.084,320.42,349.084,320.577Z"/><path class="d" d="M349.084,330.759c0,.157-19.5.284-43.543.284s-43.546-.127-43.546-.284,19.493-.284,43.546-.284S349.084,330.6,349.084,330.759Z"/><path class="d" d="M483.045,302.189c0,.157-20.36.284-45.47.284s-45.475-.127-45.475-.284,20.356-.284,45.475-.284S483.045,302.032,483.045,302.189Z"/><path class="d" d="M385.117,305.479a16.474,16.474,0,0,1-.115-1.888c-.043-1.16-.1-2.773-.119-4.692l.234.245-6.262.039.27-.283v1.774c0,.579,0,1.147-.007,1.7-.01,1.1-.019,2.133-.027,3.1l-.234-.245c1.827.024,3.361.079,4.465.125a14.459,14.459,0,0,1,1.8.12,9.331,9.331,0,0,1-1.648.121c-1.088.046-2.684.1-4.614.125l-.232,0,0-.249c-.008-.971-.017-2.009-.027-3.1,0-.554-.005-1.122-.007-1.7,0-.29,0-.584,0-.88V298.9c-.242.253.328-.347.27-.285l6.262.038.237,0,0,.244c-.023,2.027-.076,3.705-.119,4.848A10.88,10.88,0,0,1,385.117,305.479Z"/><path class="d" d="M483.045,314.829c0,.157-20.36.284-45.47.284s-45.475-.127-45.475-.284,20.356-.284,45.475-.284S483.045,314.672,483.045,314.829Z"/><path class="d" d="M385.117,318.119a16.472,16.472,0,0,1-.115-1.888c-.043-1.16-.1-2.773-.119-4.692l.234.245-6.262.039c-.059.061.512-.538.27-.283h0v1.773c0,.579,0,1.147-.007,1.7-.01,1.095-.019,2.133-.027,3.1l-.234-.246c1.827.024,3.361.08,4.465.126a14.466,14.466,0,0,1,1.8.12,9.415,9.415,0,0,1-1.648.12c-1.088.046-2.684.1-4.614.126l-.232,0,0-.249c-.008-.971-.017-2.009-.027-3.1,0-.554-.005-1.122-.007-1.7,0-.291,0-.584,0-.88v-.893h0c-.242.253.328-.347.27-.285l6.262.038h.237l0,.245c-.023,2.028-.076,3.7-.119,4.848A10.879,10.879,0,0,1,385.117,318.119Z"/><path class="d" d="M483.045,327.469c0,.157-20.36.284-45.47.284s-45.475-.127-45.475-.284,20.356-.284,45.475-.284S483.045,327.312,483.045,327.469Z"/><path class="d" d="M385.117,330.759A16.5,16.5,0,0,1,385,328.87c-.043-1.16-.1-2.772-.119-4.691l.234.245-6.262.038c-.059.062.512-.537.27-.282h0v1.773c0,.579,0,1.147-.007,1.7-.01,1.094-.019,2.133-.027,3.1l-.234-.246c1.827.024,3.361.08,4.465.126a13.993,13.993,0,0,1,1.8.12,9.418,9.418,0,0,1-1.648.12c-1.088.046-2.684.1-4.614.125l-.232,0,0-.248c-.008-.971-.017-2.01-.027-3.1,0-.554-.005-1.122-.007-1.7,0-.291,0-.584,0-.88v-.893h0c-.242.253.328-.348.27-.286l6.262.039h.237l0,.245c-.023,2.027-.076,3.705-.119,4.848A10.88,10.88,0,0,1,385.117,330.759Z"/><path class="d" d="M479.227,268.2s-.011-.369-.017-1.077-.01-1.766-.017-3.147c-.009-2.775-.023-6.869-.041-12.192-.021-10.638-.052-26.177-.091-45.824l.166.175-216.948.109h-.014l.271-.284c0,21.416-.005,42.289-.007,62.24l-.264-.277,154.947.126,45.512.079,12.24.036,3.173.018c.716.006,1.09.018,1.09.018s-.351.012-1.056.018l-3.141.018-12.183.036-45.451.079-155.131.127H262V268.2c0-19.951,0-40.824-.006-62.24v-.284h.284l216.948.109h.166v.174c-.039,19.691-.07,35.266-.092,45.929-.017,5.305-.031,9.386-.04,12.152q-.012,2.051-.017,3.116C479.238,267.855,479.227,268.2,479.227,268.2Z"/><path class="d" d="M479.227,221.625c0,.157-48.437.284-108.172.284-59.757,0-108.183-.127-108.183-.284s48.426-.283,108.183-.283C430.79,221.342,479.227,221.469,479.227,221.625Z"/><path class="d" d="M479.227,237.081c0,.157-48.437.284-108.172.284-59.757,0-108.183-.127-108.183-.284s48.426-.284,108.183-.284C430.79,236.8,479.227,236.924,479.227,237.081Z"/><path class="d" d="M479.227,252.705c0,.157-48.437.284-108.172.284-59.757,0-108.183-.127-108.183-.284s48.426-.284,108.183-.284C430.79,252.421,479.227,252.548,479.227,252.705Z"/><path class="d" d="M287.484,268.746c-.149,0-.27-14.079-.27-31.441s.121-31.444.27-31.444.271,14.075.271,31.444S287.634,268.746,287.484,268.746Z"/><path class="d" d="M360.851,266.854c-.149,0-.27-13.443-.27-30.022s.121-30.026.27-30.026.271,13.441.271,30.026S361,266.854,360.851,266.854Z"/><path class="d" d="M438.158,269.691c-.15,0-.271-13.866-.271-30.968s.121-30.971.271-30.971.27,13.864.27,30.971S438.307,269.691,438.158,269.691Z"/><path class="d" d="M476.912,130.692c0,.144-33.129.261-73.987.261s-73.994-.117-73.994-.261,33.122-.26,73.994-.26S476.912,130.549,476.912,130.692Z"/><path class="d" d="M372.409,135.942c0,.144-9.734.261-21.738.261s-21.74-.117-21.74-.261,9.731-.26,21.74-.26S372.409,135.8,372.409,135.942Z"/><path class="d" d="M437.887,366.322c0,.144-39.378.261-87.942.261-48.58,0-87.95-.117-87.95-.261s39.37-.26,87.95-.26C398.509,366.062,437.887,366.178,437.887,366.322Z"/><path class="d" d="M404.924,375.149a1.944,1.944,0,0,1-.369.027l-1.083.025-4.165.049-15.315.083-50.529.076-50.538-.076-15.315-.083-4.163-.049-1.083-.025a1.944,1.944,0,0,1-.369-.027,1.949,1.949,0,0,1,.369-.027l1.083-.026,4.163-.048,15.315-.083,50.538-.076,50.529.076,15.315.083,4.165.048,1.083.026A1.949,1.949,0,0,1,404.924,375.149Z"/><path class="d" d="M345.389,383.976a5.233,5.233,0,0,1-.847.052l-2.43.049-8.936.083-29.482.076-29.487-.076-8.936-.083-2.429-.049a5.232,5.232,0,0,1-.847-.052,5.129,5.129,0,0,1,.847-.053l2.429-.049,8.936-.082,29.487-.077,29.482.077,8.936.082,2.43.049A5.129,5.129,0,0,1,345.389,383.976Z"/><path class="d" d="M333.061,404.765c0,.154-13.15.278-29.368.278s-29.37-.124-29.37-.278,13.147-.277,29.37-.277S333.061,404.612,333.061,404.765Z"/><path class="d" d="M454.776,427.43c-.029-.018.189-.33.476-.975a6.99,6.99,0,0,0,.51-3.024,28.014,28.014,0,0,0-.8-4.854,15.3,15.3,0,0,1-.4-6.565,9.739,9.739,0,0,1,4.832-6.235,9.232,9.232,0,0,1,8.958.314,8.971,8.971,0,0,1,3.494,3.6,4.313,4.313,0,0,1,.432,2.639,2.313,2.313,0,0,1-2.005,1.848,19.623,19.623,0,0,1-2.688.064L464.9,414.2c-1.807-.044-3.643-.121-5.5-.286a39.788,39.788,0,0,1-10.6-2.3c-1.614-.543-3.355-.959-4.816-.278s-2.428,2.072-3.644,3.159a4.638,4.638,0,0,1-2.164,1.21,3.391,3.391,0,0,1-2.4-.43,21.511,21.511,0,0,1-3.292-3.019,4.742,4.742,0,0,0-1.668-1.1,2.659,2.659,0,0,0-1.831.052,10.344,10.344,0,0,0-2.833,2.384,7.006,7.006,0,0,1-6.167,1.935,6.593,6.593,0,0,1-4.173-2.616,6.773,6.773,0,0,1-1.239-2.882,4.278,4.278,0,0,1-.064-1.093c.03,0,.027.378.174,1.072a6.969,6.969,0,0,0,1.3,2.773,6.4,6.4,0,0,0,4.053,2.44,6.69,6.69,0,0,0,5.841-1.909,10.476,10.476,0,0,1,2.946-2.5,3.1,3.1,0,0,1,2.133-.077,5.165,5.165,0,0,1,1.838,1.178,21.826,21.826,0,0,0,3.222,2.933,2.89,2.89,0,0,0,2.055.364,4.148,4.148,0,0,0,1.922-1.1c1.164-1.032,2.129-2.482,3.768-3.262a4.979,4.979,0,0,1,2.629-.372,12.613,12.613,0,0,1,2.576.618,39.575,39.575,0,0,0,10.48,2.262c1.837.164,3.661.241,5.46.286l2.682.047a19.854,19.854,0,0,0,2.589-.051,1.758,1.758,0,0,0,1.571-1.421,3.8,3.8,0,0,0-.384-2.3,8.482,8.482,0,0,0-3.273-3.386,8.761,8.761,0,0,0-8.485-.348,9.347,9.347,0,0,0-4.666,5.919,15.2,15.2,0,0,0,.319,6.41,26.848,26.848,0,0,1,.708,4.913,6.792,6.792,0,0,1-.624,3.074A4.87,4.87,0,0,1,454.776,427.43Z"/><path class="d" d="M485.225,416.825a3.462,3.462,0,0,1-.72.051l-2.065.036-7.59.065c-6.409.054-15.261.175-25.034.459s-18.622.681-25.023,1l-7.581.378-2.062.084a3.567,3.567,0,0,1-.722-.008,3.575,3.575,0,0,1,.714-.1l2.056-.188c1.787-.154,4.374-.345,7.573-.554,6.4-.419,15.246-.877,25.029-1.163s18.638-.343,25.049-.3c3.206.022,5.8.062,7.593.111l2.064.069A3.6,3.6,0,0,1,485.225,416.825Z"/><path class="h" d="M349.757,426.4a8.448,8.448,0,0,1-8.153-6.316l-4.953-19a8.443,8.443,0,0,1,6.039-10.3L471.7,357.17a8.439,8.439,0,0,1,10.3,6.039l4.952,19A8.438,8.438,0,0,1,480.9,392.5L351.9,426.128A8.442,8.442,0,0,1,349.757,426.4Zm124.078-66.51a5.443,5.443,0,0,0-1.382.178L343.447,393.7a5.439,5.439,0,0,0-3.892,6.637l4.952,19a5.44,5.44,0,0,0,6.636,3.893L480.149,389.6a5.444,5.444,0,0,0,3.893-6.637l-4.953-19a5.447,5.447,0,0,0-5.254-4.07Z"/><text class="l" transform="matrix(0.964, -0.267, 0.267, 0.964, 351.085, 417.826)"><tspan x="0" y="0">EN TRÁMITE</tspan></text><path class="d" d="M6.326,0H124.273A6.326,6.326,0,0,1,130.6,6.326V37.879a0,0,0,0,1,0,0H0a0,0,0,0,1,0,0V6.326A6.326,6.326,0,0,1,6.326,0Z" transform="translate(315.925 51.484)"/><path class="d" d="M397.844,37.239H364.6L368.49,65.73h25.038Z"/><path class="f" d="M438.134,51.484c0,.152-25.481.274-56.907.274s-56.912-.122-56.912-.274,25.476-.274,56.912-.274S438.134,51.333,438.134,51.484Z"/><path class="f" d="M318.848,83.253c-.152,0-.274-5.359-.274-11.967s.122-11.967.274-11.967.274,5.357.274,11.967S319,83.253,318.848,83.253Z"/><path class="f" d="M442.3,80.418a108.063,108.063,0,0,1-.274-10.864,108.043,108.043,0,0,1,.274-10.865,107.679,107.679,0,0,1,.274,10.865A107.7,107.7,0,0,1,442.3,80.418Z"/><path class="f" d="M436,85.457c0,.151-26.157.274-58.415.274s-58.42-.123-58.42-.274,26.151-.274,58.42-.274S436,85.306,436,85.457Z"/><g class="k"><path d="M446.524,62.324l5.405,16.03v7.854h-6.095Z"/></g><path class="g" d="M98.116,86.773a27.986,27.986,0,1,0,11.008,39.982l7.788-1.46-4.428-6.111A27.993,27.993,0,0,0,98.116,86.773Z"/><path class="d" d="M98.116,86.773s.215.095.619.31,1.011.525,1.774.982a28.69,28.69,0,0,1,5.928,4.955,23.632,23.632,0,0,1,1.678,2.051q.408.564.837,1.155c.266.406.511.84.777,1.273a28.859,28.859,0,0,1,1.474,2.808c.231.5.414,1.03.628,1.558l.314.8.252.84a28.26,28.26,0,0,1,.291,15.731l-.032-.18,4.439,6.1.209.288-.35.066-7.786,1.472.157-.107a28.646,28.646,0,0,1-13.874,11.3,28.2,28.2,0,0,1-19.351.185,29.744,29.744,0,0,1-8.227-4.538,28.864,28.864,0,0,1-6.1-6.793c-.379-.647-.832-1.25-1.144-1.927l-.988-1.992a31.7,31.7,0,0,1-1.412-4.141,27.933,27.933,0,0,1,.577-16.283l.305-.928c.115-.3.258-.593.386-.889q.392-.882.779-1.75c.3-.559.622-1.1.928-1.641a12.4,12.4,0,0,1,.986-1.568,27.8,27.8,0,0,1,10.057-9,28.447,28.447,0,0,1,10.7-3.15,30.293,30.293,0,0,1,4.6-.046,28.805,28.805,0,0,1,3.817.6c.565.134,1.1.238,1.6.376l1.367.46,1.171.4.931.425,1.259.586c.281.135.42.216.42.216s-.155-.049-.444-.168L96.4,86.068l-.937-.4L94.286,85.3l-1.366-.434c-.494-.13-1.031-.225-1.593-.351a29.537,29.537,0,0,0-3.793-.547,30.643,30.643,0,0,0-4.553.088,28.328,28.328,0,0,0-10.556,3.186,27.507,27.507,0,0,0-9.872,8.917,11.991,11.991,0,0,0-.965,1.548c-.3.536-.617,1.068-.909,1.619q-.378.855-.761,1.725c-.124.291-.265.577-.377.876l-.3.914a27.508,27.508,0,0,0-.529,16.008,31.433,31.433,0,0,0,1.393,4.066l.973,1.954c.307.665.754,1.256,1.126,1.891a28.365,28.365,0,0,0,5.989,6.664,29.287,29.287,0,0,0,8.078,4.453,27.737,27.737,0,0,0,19-.171,28.218,28.218,0,0,0,13.652-11.074l.056-.088.1-.019,7.79-1.448-.142.354-4.416-6.12-.059-.082.026-.1a28,28,0,0,0-.21-15.518c-.081-.28-.163-.557-.243-.832l-.305-.8c-.209-.523-.385-1.05-.609-1.545a28.847,28.847,0,0,0-1.438-2.788c-.259-.431-.5-.862-.758-1.267L107.9,95.23a23.875,23.875,0,0,0-1.642-2.049,29.675,29.675,0,0,0-5.816-5.009c-.748-.473-1.348-.792-1.737-1.032S98.116,86.773,98.116,86.773Z"/><path class="h" d="M71.438,113.5l3.8-4.1,7.87,6.486,14.415-14.946,3.815,3.813L82.831,123.53Z"/><path class="f" d="M171.9,422.051,165.44,444.74s20.591,14.279,19.8,18.59l-43.87-11.12,8.641-35.773Z"/><path class="a" d="M152.35,439.376a1.859,1.859,0,0,0-1.75,1.758,1.787,1.787,0,0,0,1.7,1.773,1.962,1.962,0,0,0,1.844-1.871c-.084-.916-1.1-1.87-1.975-1.646"/><g class="m"><path class="g" d="M141.369,452.21l1.01-3.571,41.685,12s1.74,1.356,1.175,2.694Z"/></g><path class="d" d="M166.207,444.7c-.061.215-1.156.042-2.383.473-1.237.4-2.013,1.2-2.189,1.064-.187-.092.453-1.308,1.947-1.8S166.3,444.507,166.207,444.7Z"/><path class="d" d="M170.332,447.789c0,.223-1.022.357-1.976,1.091-.976.7-1.4,1.651-1.615,1.587-.21-.016-.044-1.325,1.159-2.214S170.378,447.581,170.332,447.789Z"/><path class="d" d="M171.568,454.032c-.206,0-.237-1.163.607-2.213s1.962-1.268,2.008-1.064c.077.209-.731.682-1.41,1.554C172.073,453.165,171.786,454.064,171.568,454.032Z"/><path class="d" d="M167.114,439.358c-.139.175-1.048-.374-2.279-.6-1.227-.249-2.271-.076-2.337-.291-.085-.188,1.033-.758,2.48-.474S167.261,439.214,167.114,439.358Z"/><path class="f" d="M156.525,427.393l-1.018,23.594s23.327,8.972,23.558,13.351l-45.221-.357.1-36.828Z"/><path class="a" d="M141.539,448.891a1.873,1.873,0,0,0-1.293,2.126,1.775,1.775,0,0,0,2.068,1.317,1.977,1.977,0,0,0,1.358-2.258,1.836,1.836,0,0,0-2.3-1.129"/><g class="m"><path class="g" d="M133.844,463.981,134,460.27,177.3,462s2.007.9,1.768,2.338Z"/></g><path class="d" d="M156.242,450.76c-.009.223-1.114.316-2.206,1.027-1.111.682-1.678,1.647-1.881,1.556-.2-.045.137-1.38,1.474-2.217S156.291,450.555,156.242,450.76Z"/><path class="d" d="M160.97,452.785c.048.217-.911.59-1.668,1.53-.785.918-.982,1.94-1.2,1.928-.207.034-.35-1.278.613-2.429S160.966,452.571,160.97,452.785Z"/><path class="d" d="M163.619,458.558c-.2.046-.5-1.074.077-2.3s1.613-1.7,1.705-1.514c.123.185-.552.838-1.011,1.847C163.909,457.6,163.839,458.538,163.619,458.558Z"/><path class="d" d="M155.885,445.357c-.094.2-1.1-.114-2.353-.038-1.251.051-2.225.467-2.339.274-.127-.162.828-.983,2.3-1.052S155.995,445.182,155.885,445.357Z"/><path class="d" d="M128.55,254.742V273.4l4.945,72.681s-3.078,35.258-4.968,55.16c-1.641,17.285,1.042,47.385,1.042,47.385h28.783l10.3-100.386,6.392-62.607,11.12-28.494Z"/><path class="d" d="M199.253,254.742l2.78,75.755c-.192,14.214-4.11,40.752-9.192,54l-23.125,50.812-1.338,4.572-17.2-4.212,12.789-179.655Z"/><path class="f" d="M179.336,274.807a2.94,2.94,0,0,1,.03.454c.007.325.017.766.03,1.33.01,1.2.024,2.917.043,5.116.013,4.443-.007,10.872-.142,18.816s-.38,17.4-.946,27.894c-.622,10.473-1.323,22.061-3.781,33.96-2.272,11.913-4.688,23.208-6.834,33.489s-4.03,19.548-5.447,27.361-2.423,14.161-3.009,18.562c-.33,2.2-.5,3.912-.668,5.07-.076.558-.136.995-.18,1.318a2.631,2.631,0,0,1-.08.447,2.852,2.852,0,0,1,.024-.453c.031-.324.072-.763.125-1.325.129-1.162.267-2.883.564-5.085.521-4.413,1.467-10.776,2.837-18.6s3.2-17.11,5.333-27.4,4.519-21.584,6.789-33.489c2.453-11.868,3.165-23.414,3.816-33.885.594-10.481.87-19.934,1.064-27.873s.265-14.367.318-18.809c.027-2.2.048-3.916.062-5.115.011-.564.019-1.005.025-1.33A2.653,2.653,0,0,1,179.336,274.807Z"/><path class="h" d="M216.133,230.718a12.89,12.89,0,0,1,.425,4.357c-.212,2.232-.319,7.727-6.27,9.6s-11.562-2.588-13.38-4.607-1.606-8.609-1.606-8.609l9.778-4.358Z"/><path class="h" d="M148.547,146.765l-4.954,7.956-20.053,8.538,5.017,82.327,3.607,14.916,66.78-2.22,2.932-4.977-4.968-63.325c-1.51-14.249-4.7-21.868-11.086-25.372l-4.176-2.854-1.576-5.232-5.888-5.507-18.857-4.9Z"/><g class="k"><path d="M126.34,239.321a20.482,20.482,0,0,0,20.179,8.976c6.706-1.129,12.365-5.555,18.794-7.768,11.188-3.852,23.949-.79,34.976-5.078.217-1.9.088-4.232.217-5.528-5.521-.284-11.393-.592-16.269-3.2l-4.424-1.628Z"/></g><path class="h" d="M123.54,163.259s-9.519,8.153-6.764,29.386c2.56,19.729,7.1,47.213,13.162,50.4s19.131,1.594,28.7-3.827,37.3-20.087,37.3-20.087l-11.478-20.406-36.987,14.348s-4.782-32.727-7.652-38.364"/><path class="d" d="M139.822,174.711s.106.206.288.625c.089.209.209.468.331.783l.362,1.117c.544,1.7,1.192,4.24,1.9,7.548,1.426,6.612,3.149,16.26,4.971,28.262l-.268-.156,36.965-14.4.207-.08.109.194L196.176,219l.136.241-.246.132L172.351,232.15l-11.633,6.262c-1.909,1.02-3.811,2.094-5.789,2.945a48.7,48.7,0,0,1-6.045,2.094,39.6,39.6,0,0,1-12.336,1.428,18.075,18.075,0,0,1-5.933-1.245l-.692-.31a6.6,6.6,0,0,1-.666-.414,6.952,6.952,0,0,1-1.076-1.087,14.716,14.716,0,0,1-1.566-2.517,56.911,56.911,0,0,1-3.709-10.705c-.929-3.551-1.666-7.034-2.33-10.41-1.31-6.755-2.281-13.09-3.093-18.881s-1.525-11.062-1.309-15.728a39.1,39.1,0,0,1,2.1-11.717,25.823,25.823,0,0,1,3.5-6.659,14.486,14.486,0,0,1,1.267-1.5,4.72,4.72,0,0,1,.5-.45s-.158.163-.454.489a16.794,16.794,0,0,0-1.218,1.524,26.586,26.586,0,0,0-3.391,6.665,39.3,39.3,0,0,0-1.993,11.656c-.185,4.635.55,9.879,1.388,15.662s1.829,12.108,3.155,18.847c.673,3.367,1.418,6.842,2.351,10.375a56.618,56.618,0,0,0,3.693,10.6,14.179,14.179,0,0,0,1.512,2.424,6.4,6.4,0,0,0,.989,1,6.171,6.171,0,0,0,.588.364l.661.294a17.592,17.592,0,0,0,5.76,1.2,39.138,39.138,0,0,0,12.161-1.424,48.454,48.454,0,0,0,5.97-2.073c1.955-.843,3.812-1.894,5.734-2.922l11.636-6.267,23.73-12.771-.109.373-11.465-20.414.315.113L147.546,213.26l-.232.09-.036-.247c-1.771-12-3.433-21.656-4.792-28.274-.672-3.311-1.285-5.86-1.791-7.56q-.189-.633-.335-1.122l-.3-.789C139.893,174.935,139.822,174.711,139.822,174.711Z"/><path class="h" d="M143.011,186.808l24.02-1.579,5.314,9.991-26.926,4.841Z"/><path class="d" d="M143.011,186.808c.016.013.09.345.218.96q.2,1,.537,2.66c.452,2.334,1.086,5.6,1.86,9.6l-.245-.17,24.236-4.425,2.679-.481-.2.4-5.3-10,.244.136-17.209,1-4.992.259-1.347.058a3.452,3.452,0,0,1-.488,0,2.072,2.072,0,0,1,.42-.056l1.289-.116,4.919-.393,17.375-1.272.165-.012.079.149c1.663,3.112,3.456,6.469,5.331,9.981l.179.336-.374.067-2.679.482-24.259,4.295-.21.037-.035-.207c-.691-4.069-1.255-7.4-1.659-9.773q-.264-1.644-.424-2.629A6.874,6.874,0,0,1,143.011,186.808Z"/><path class="d" d="M147.474,213.075c.148.115-2,2.642-3.8,6.255s-2.56,6.841-2.742,6.789a7.25,7.25,0,0,1,.4-2.133,27.018,27.018,0,0,1,1.848-4.9,25.518,25.518,0,0,1,2.809-4.425A7.106,7.106,0,0,1,147.474,213.075Z"/><path class="d" d="M171.6,167.309a8.675,8.675,0,0,1-1.335-.957l-3.483-2.766.3-.048a32.4,32.4,0,0,1-4.769,5.982l-.172.171-.19-.158-3.679-3.057c-3.95-3.227-7.633-6.013-10.32-8l-3.187-2.351a7.414,7.414,0,0,1-1.138-.909,7.292,7.292,0,0,1,1.261.731c.787.507,1.919,1.252,3.293,2.21,2.75,1.91,6.481,4.655,10.442,7.889,1.294,1.056,2.533,2.1,3.677,3.08l-.362.013a34.745,34.745,0,0,0,4.8-5.821l.13-.2.175.15,3.366,2.907A8.824,8.824,0,0,1,171.6,167.309Z"/><path class="d" d="M181.481,162.255a3.977,3.977,0,0,1,.195,1.34,20.088,20.088,0,0,1-.121,3.558l-.076.631-.364-.53a42.432,42.432,0,0,0-2.853-3.7c-.43-.5-.861-.971-1.288-1.42-.205-.213-.441-.471-.619-.627-.214-.133-.19-.141-.373.062-.637.889-1.23,1.716-1.77,2.471a14.221,14.221,0,0,1-1.751,2.2,14.177,14.177,0,0,1,1.427-2.424l1.68-2.549a.8.8,0,0,1,.5-.366.78.78,0,0,1,.619.187c.276.236.452.435.683.667q.658.675,1.316,1.433a33.249,33.249,0,0,1,2.835,3.792l-.44.1C181.508,164.223,181.358,162.26,181.481,162.255Z"/><path class="d" d="M138.724,171.48a12.167,12.167,0,0,1-1.491-1.77,19.478,19.478,0,0,0-3.938-3.812,12.9,12.9,0,0,0-5.054-1.976,17.553,17.553,0,0,1-2.28-.347,6.692,6.692,0,0,1,2.333-.042,11.638,11.638,0,0,1,5.312,1.9,16.213,16.213,0,0,1,3.939,4.035A8.018,8.018,0,0,1,138.724,171.48Z"/><path class="d" d="M190.916,186.223a26.988,26.988,0,0,1-1.9-5.12,27.051,27.051,0,0,1-1.37-5.286,27.033,27.033,0,0,1,1.9,5.12A27.032,27.032,0,0,1,190.916,186.223Z"/><path class="a" d="M156.777,193.813a1.294,1.294,0,1,0,.318-.243"/><g class="k"><path d="M141.41,179.612l6.737,19.958,22.212-3.994-21.414,8.392-1.8,6.919Z"/></g><g class="k"><path d="M144.205,155.6l19.862,18,3.072-8.4,3.219,1.071-3.442-2.851s-3.772,5.8-4.782,5.9Z"/></g><path class="d" d="M182.048,198.644a5.618,5.618,0,0,1-.4-1.21c-.253-.9-.567-2.015-.939-3.335-.792-2.815-1.93-6.691-3.329-10.926s-2.8-8.025-3.844-10.757c-.49-1.281-.9-2.364-1.236-3.237a5.682,5.682,0,0,1-.4-1.212,5.656,5.656,0,0,1,.6,1.128c.353.74.833,1.825,1.4,3.175,1.139,2.7,2.6,6.481,4.007,10.729s2.485,8.153,3.182,11c.349,1.423.61,2.58.769,3.384A5.655,5.655,0,0,1,182.048,198.644Z"/><path class="d" d="M181.755,176.469c3.758,3.749,13.271,13.511,13.271,13.511l2.548-1.535-13.41-14.309a1.676,1.676,0,0,0-2.151-.251h0A1.677,1.677,0,0,0,181.755,176.469Z"/><path class="n" d="M184.461,198.727l3.2-9a5.057,5.057,0,0,1,4.608-3.458,4.117,4.117,0,0,1,.486.024c1.913.212,11.691.85,11.691.85l3.785,4.24a1.96,1.96,0,0,1,.041,2.562h0l1.086,7.652-2.149,1.454.213,5.348s-1.913,1.276-2.763.851l-.851-.425-1.275-1.276-3.614,5.1-5,2.89Z"/><path class="o" d="M208.28,194.351a15.81,15.81,0,0,0-1.369-1.488,6.362,6.362,0,0,0-1.825-1.1,14.164,14.164,0,0,0-2.644-.358,45.038,45.038,0,0,1-6.98-.934,44.8,44.8,0,0,1,7.032.381,12.325,12.325,0,0,1,2.762.428,6.012,6.012,0,0,1,1.921,1.295A3.2,3.2,0,0,1,208.28,194.351Z"/><path class="o" d="M208.071,201.391a15.04,15.04,0,0,0-.787-1.958,7.642,7.642,0,0,0-3.78-3.168,14.383,14.383,0,0,0-5-.84,11.5,11.5,0,0,1-2.153-.07,6.644,6.644,0,0,1,2.145-.322,12.41,12.41,0,0,1,5.213.716,7.375,7.375,0,0,1,3.922,3.5A3.394,3.394,0,0,1,208.071,201.391Z"/><path class="o" d="M207.108,207.955a4.142,4.142,0,0,1-.511-2.109,6.967,6.967,0,0,0-.48-2.191,2.711,2.711,0,0,0-2.006-1.526,37.718,37.718,0,0,0-5.091-.733,5.761,5.761,0,0,1-2.112-.492,15.746,15.746,0,0,1,2.148.1,25.038,25.038,0,0,1,5.2.589,4.03,4.03,0,0,1,1.432.657,2.9,2.9,0,0,1,.9,1.2,6.563,6.563,0,0,1,.4,2.371C206.99,207.15,207.171,207.927,207.108,207.955Z"/><path class="f" d="M212.436,191.056,170.276,234.6l1.623,1.644,30.205-3.4,40.645-38.719-.045-1.864Z"/><g class="k"><path d="M215.165,218.423a7.908,7.908,0,0,0-6.087-2.038,11.167,11.167,0,0,0-6.005,2.535,8.074,8.074,0,0,0-2.989,4.278c-.7,3.013,1.3,6.175,4.027,7.633l.38-.437,10.385-8.339a2.918,2.918,0,0,0,1.2-1.533A2.429,2.429,0,0,0,215.165,218.423Z"/></g><path class="n" d="M210.713,214.35s4.09.079,5.42.744,5,4.57,5,4.57,0,2.658-1.062,2.764a10.115,10.115,0,0,1,.212,1.807c.106,1.487.319,2.338-1.7,3.613,0,0,.212,2.445-.532,3.082a15.1,15.1,0,0,1-1.594,1.169s-2.338,2.87-3.72,2.658-3.378,1.488-3.378,1.488-7.51-3.113-6.717-3.995l2.594-2.884s-5.147-3.75-5.04-4.919.531-1.275.531-1.275-.212-2.232,1.594-2.445c0,0,1.382-2.763,2.764-2.869s10.734,3.294,10.734,3.294l-3.507-2.975s-3.507-.532-3.4-1.7S210.713,214.35,210.713,214.35Z"/><path class="p" d="M210.092,228.352a51.61,51.61,0,0,1-4.744-2.3,51.936,51.936,0,0,1-4.754-2.285,24.883,24.883,0,0,1,9.5,4.588Z"/><path class="p" d="M214.959,225.1a37.156,37.156,0,0,1-6.1-1.978,37.172,37.172,0,0,1-5.906-2.5,37.182,37.182,0,0,1,6.1,1.978A37.233,37.233,0,0,1,214.959,225.1Z"/><path class="d" d="M242.584,194.041a2.706,2.706,0,0,1-.557.031l-1.609,0-6.043-.07-21.015-.4.193-.079-10.564,10.955-21.9,22.544-6.683,6.787-1.837,1.826a5.443,5.443,0,0,1-.668.61,5.617,5.617,0,0,1,.587-.688q.656-.705,1.762-1.9l6.556-6.91,21.786-22.657,10.588-10.931.081-.083.113,0,21.011.6,6.039.219,1.608.081A2.682,2.682,0,0,1,242.584,194.041Z"/><path class="f" d="M202.033,253.219l4.517,6.322s4.041,37.676,2.246,39.413-7.857,1.734-7.857,1.734l-1.656-45.121Z"/><rect class="f" width="78.336" height="13.077" transform="translate(123.696 253.219)"/><path class="f" d="M0,0H36.274a0,0,0,0,1,0,0V37.226a6.919,6.919,0,0,1-6.919,6.919H6.919A6.919,6.919,0,0,1,0,37.226V0A0,0,0,0,1,0,0Z" transform="translate(126.094 259.541)"/><path class="d" d="M162.368,271.487a15.645,15.645,0,0,1-.149-2.27,26.151,26.151,0,0,0-.8-6.08,4.037,4.037,0,0,0-.94-1.688,9.841,9.841,0,0,0-1.706-1.339,10.889,10.889,0,0,0-4.544-1.436c-3.4-.251-7.235-.139-11.217-.1-3.995.14-7.837-.324-11.176.411a7.312,7.312,0,0,0-4.162,2.1,7.208,7.208,0,0,0-1.322,3.873c-.241,2.584-.187,4.714-.239,6.173-.021.681-.038,1.238-.051,1.685a2.378,2.378,0,0,1-.056.588,2.319,2.319,0,0,1-.056-.588l-.054-1.685c-.013-1.463-.129-3.578.066-6.212a7.529,7.529,0,0,1,1.354-4.124,7.715,7.715,0,0,1,4.411-2.313,24.081,24.081,0,0,1,5.458-.469c1.88.032,3.825.029,5.821,0,4-.036,7.787-.137,11.281.148a11.266,11.266,0,0,1,4.728,1.553,10.238,10.238,0,0,1,1.768,1.428,4.408,4.408,0,0,1,1.01,1.874,23.927,23.927,0,0,1,.643,6.193c-.011.681-.02,1.238-.027,1.686A2.682,2.682,0,0,1,162.368,271.487Z"/><path class="d" d="M162.1,275.363c0,.154-7.976.278-17.814.278s-17.816-.124-17.816-.278,7.975-.277,17.816-.277S162.1,275.21,162.1,275.363Z"/><path class="d" d="M136.477,304.093c-.154,0-.278-6.45-.278-14.4s.124-14.406.278-14.406.277,6.448.277,14.406S136.63,304.093,136.477,304.093Z"/><path class="d" d="M152.829,303.963c-.154,0-.278-6.392-.278-14.275s.124-14.277.278-14.277.277,6.391.277,14.277S152.982,303.963,152.829,303.963Z"/><path class="d" d="M187.843,265.774a41.016,41.016,0,0,1-.171-12.712,59.672,59.672,0,0,1,.145,6.355A59.649,59.649,0,0,1,187.843,265.774Z"/><path class="d" d="M202.117,253.424a7.737,7.737,0,0,1,.484,2.119,50.986,50.986,0,0,1,.538,5.207,10.738,10.738,0,0,1-.119,2.931A3.7,3.7,0,0,1,201.8,265.8a2.536,2.536,0,0,1-1.527.622c-.4,0-.6-.1-.59-.125a3.035,3.035,0,0,0,1.857-.791,3.465,3.465,0,0,0,.983-1.928,11.639,11.639,0,0,0,.065-2.8C202.372,256.724,201.959,253.449,202.117,253.424Z"/><path class="d" d="M150.4,130.166a80.173,80.173,0,0,1-3.542-13.391,28.04,28.04,0,0,1,1.048-13.686c.241-.658,2.307-5.072,3-5.006.5.047-.768,4.163-.514,4.6a23.784,23.784,0,0,1,2.727,13.855,62.646,62.646,0,0,1-2.723,13.633"/><path class="n" d="M176.431,155.693c.022-3.266.05-5.843.075-5.843,0,0,11.2-1.174,11.892-12.279.334-5.364.122-16.467-.185-26.513a20.728,20.728,0,0,0-19.69-20.064l-1.071-.053c-11.6.1-17.989,10-17.569,21.588l.149,34.457,23.026,16.468Z"/><path class="q" d="M176.506,149.85a26.883,26.883,0,0,1-14.255-5s3.065,8.42,14.2,7.972Z"/><path class="d" d="M184.483,120.529a1.588,1.588,0,0,1-1.61,1.525,1.52,1.52,0,0,1-1.565-1.512,1.59,1.59,0,0,1,1.609-1.526A1.522,1.522,0,0,1,184.483,120.529Z"/><path class="d" d="M185.608,115.552c-.207.2-1.365-.753-3.073-.833-1.705-.105-3,.71-3.176.492-.087-.1.132-.461.7-.831a4.359,4.359,0,0,1,2.555-.65,4.188,4.188,0,0,1,2.433.921C185.55,115.081,185.709,115.464,185.608,115.552Z"/><path class="d" d="M169.166,120.633a1.588,1.588,0,0,1-1.61,1.525,1.519,1.519,0,0,1-1.564-1.512,1.59,1.59,0,0,1,1.609-1.526A1.52,1.52,0,0,1,169.166,120.633Z"/><path class="d" d="M168.847,115.408c-.207.2-1.367-.752-3.074-.833-1.7-.1-3,.711-3.176.493-.086-.1.131-.461.7-.83a4.342,4.342,0,0,1,2.555-.651,4.194,4.194,0,0,1,2.433.921C168.788,114.937,168.948,115.321,168.847,115.408Z"/><path class="d" d="M174.318,128.835a11.333,11.333,0,0,1,2.8-.362c.439-.023.856-.089.944-.383a2.227,2.227,0,0,0-.227-1.307q-.535-1.614-1.124-3.385c-1.555-4.816-2.657-8.768-2.463-8.829s1.613,3.794,3.168,8.61c.373,1.188.73,2.319,1.069,3.4a2.531,2.531,0,0,1,.141,1.723,1.1,1.1,0,0,1-.749.6,2.975,2.975,0,0,1-.746.066A11.172,11.172,0,0,1,174.318,128.835Z"/><path class="d" d="M169.233,129.766c.279,0,.19,1.851,1.711,3.246s3.5,1.289,3.506,1.549c.02.117-.458.338-1.293.319a4.622,4.622,0,0,1-2.932-1.188,4.02,4.02,0,0,1-1.315-2.716C168.877,130.2,169.107,129.749,169.233,129.766Z"/><path class="d" d="M169.1,108.474c-.192.456-1.886.151-3.9.293-2.018.1-3.663.606-3.908.177-.108-.205.195-.628.871-1.045a6.8,6.8,0,0,1,5.949-.358C168.83,107.874,169.182,108.258,169.1,108.474Z"/><path class="d" d="M185.185,109.84c-.319.373-1.476-.088-2.889-.178-1.41-.138-2.625.131-2.881-.289-.111-.2.1-.582.639-.923a4.191,4.191,0,0,1,4.649.377C185.183,109.25,185.327,109.658,185.185,109.84Z"/><path class="n" d="M150.38,120.8c-.186-.091-7.523-2.639-7.659,4.97s7.531,6.176,7.548,5.958S150.38,120.8,150.38,120.8Z"/><path class="r" d="M148,128.806c-.033-.025-.134.09-.36.189a1.328,1.328,0,0,1-.991,0c-.8-.31-1.452-1.6-1.465-2.97a4.377,4.377,0,0,1,.405-1.891,1.531,1.531,0,0,1,1.015-1,.675.675,0,0,1,.776.378c.1.214.047.365.088.379.02.019.165-.125.109-.44a.838.838,0,0,0-.29-.482,1,1,0,0,0-.73-.207,1.864,1.864,0,0,0-1.406,1.155,4.493,4.493,0,0,0-.5,2.113c.021,1.534.78,2.983,1.874,3.32a1.419,1.419,0,0,0,1.216-.18C147.979,128.99,148.022,128.82,148,128.806Z"/><path class="d" d="M183.4,98.407c1.238-.668-2.422-4.69-5.436-6.091-4.555-2.117-11.529-3.458-15.757-2.3-5.091,1.393-9.333,3.881-11.924,8.48a29.923,29.923,0,0,0-3.5,15.252,9.085,9.085,0,0,0,1.029,4.658c1.048,1.693,3.078,2.771,2.967,5.091a3.186,3.186,0,0,0,.77,2.33c1.378,1.494,3.094.118,3.89-1.271,1.7-2.965,1.919-6.522,2.1-9.935a22.274,22.274,0,0,0-.416-7.242c-.36-1.271-.947-2.475-1.237-3.765a4.571,4.571,0,0,1,.573-3.794,4.713,4.713,0,0,1,.624-.62,7.937,7.937,0,0,1,7.887-1.427c4.272,1.555,11.569,3.886,13.493,2.449,2.769-2.067,3.439-3.426,3.439-3.426Z"/><path class="h" d="M162.947,85.631c-.51.049-12.9,2.277-16.378,11.283s-2.7,11.852-2.7,11.852a5.992,5.992,0,0,0-1.33,1.045c-.537.577.081,3.491,1.7,3.237,12.222-4.775,26.433-4.682,42.218-3.492l12.109.385c3.372.543,4.6-.3,3.209-1.217-1.067-.7-10.513-4.987-10.513-4.987l-1.829-1.462-4.691-7.151s.659-.937-.527-1.794S173.02,84.681,162.947,85.631Z"/><path class="d" d="M189.432,102.275s-.163,0-.472-.017l-1.349-.089c-1.17-.1-2.869-.163-4.966-.21a93.639,93.639,0,0,0-16.325,1.287,143.843,143.843,0,0,0-15.981,3.664c-2.023.566-3.649,1.058-4.776,1.39l-1.3.381c-.3.085-.456.12-.456.12s.151-.061.444-.159l1.287-.418c1.119-.356,2.74-.869,4.759-1.453a134.306,134.306,0,0,1,15.988-3.726,89.615,89.615,0,0,1,16.36-1.23C186.852,101.922,189.432,102.275,189.432,102.275Z"/><g class="k"><path d="M151.5,90.524s13.32-1.552,19.115,1.558l-.672-.377,5.487,2.709a3.523,3.523,0,0,0,2.951.48,26.276,26.276,0,0,0-8.319-4.933C164.614,87.844,155.864,86.649,151.5,90.524Z"/></g><path class="d" d="M151.306,90.585a9.374,9.374,0,0,1,1.219-.724,16.519,16.519,0,0,1,3.619-1.359,19.619,19.619,0,0,1,5.7-.56,16.454,16.454,0,0,1,6.8,1.647,29.538,29.538,0,0,1,3.126,1.868c.97.663,1.934,1.251,2.8,1.9a17.74,17.74,0,0,0,2.5,1.741,5.715,5.715,0,0,0,2.532.629c3.249.189,5.274-.4,5.137-.608a.512.512,0,0,1-.271.245,4.174,4.174,0,0,1-1.013.292,17.677,17.677,0,0,1-3.861.214,5.822,5.822,0,0,1-2.6-.622,17.606,17.606,0,0,1-2.529-1.741c-.857-.64-1.83-1.23-2.8-1.888a29.911,29.911,0,0,0-3.107-1.853,16.454,16.454,0,0,0-6.721-1.642,19.885,19.885,0,0,0-5.659.513,17.461,17.461,0,0,0-3.618,1.29c-.409.2-.721.366-.928.486S151.306,90.585,151.306,90.585Z"/><g class="k"><path d="M145.248,100.68a29.736,29.736,0,0,0,6.574-.856c2.533-.437,5.037-.761,7.545-1.318,1.9-.423,4.149-.777,5.437-2.083a2.748,2.748,0,0,1-.952,2.528,13.24,13.24,0,0,1-4.1,1.6,69.729,69.729,0,0,1-15.128,2.23,16.4,16.4,0,0,1,.624-2.1"/></g><path class="h" d="M146.995,95.932c-1.53.584-2.472.983-2.572,2.26-.084,1.063.074,2.375,1.115,2.608a2.637,2.637,0,0,0,.969-.028L163.021,98.2a2.433,2.433,0,0,0,1.534-.629,1.656,1.656,0,0,0-.467-2.275,4.539,4.539,0,0,0-2.48-.668,54.467,54.467,0,0,0-14.613,1.3"/><path class="d" d="M164.293,97.8a1.586,1.586,0,0,0,.471-.694,2.05,2.05,0,0,0-.58-2.1,5.093,5.093,0,0,0-3.259-.875c-1.316.007-2.764.034-4.28.115a43.577,43.577,0,0,0-7.7,1.015c-.97.222-1.742.453-2.276.613l-.612.192a1.037,1.037,0,0,1-.218.054.915.915,0,0,1,.2-.093l.6-.228c.527-.184,1.3-.437,2.266-.678a39.809,39.809,0,0,1,7.722-1.078c1.521-.081,2.972-.1,4.292-.1a5.171,5.171,0,0,1,3.356.957,2.124,2.124,0,0,1,.557,2.227,1.394,1.394,0,0,1-.358.542A.784.784,0,0,1,164.293,97.8Z"/><path class="g" d="M186.213,97.369l-10.287-.675.74,2.94,11.206.263Z"/><path class="d" d="M170.231,105.81c0-.056,4.615-.507,10.318-1.006s10.33-.859,10.335-.8-4.613.506-10.318,1.006S170.236,105.866,170.231,105.81Z"/></g></svg>