<svg xmlns="http://www.w3.org/2000/svg" width="428.928" height="376.705" viewBox="0 0 428.928 376.705"><defs><style>.a{fill:#ebebeb;}.b{fill:#fafafa;}.c{fill:#e0e0e0;}.d{fill:#f5f5f5;}.e{fill:#fff;}.f{fill:#263238;}.g{fill:#0894fe;}.h,.i{fill:#6f7a88;}.h{font-size:16px;font-family:FormaDJRText-Bold-Edu, Forma DJR Text Edu;}.i{font-size:12px;font-family:FormaDJRText-Regular-Edu, Forma DJR Text Edu;}.j{fill:#f2f2f2;}.k{fill:#c4c9ce;}.l{fill:#455a64;}.m{fill:#2680eb;}.n{fill:none;stroke:#fff;stroke-miterlimit:10;stroke-width:0.02px;}.o{opacity:0.3;}.p{fill:#0a437d;}.q{fill:#75c6fa;}</style></defs><g transform="translate(-15.927 -43.168)"><g transform="translate(18.567 43.169)"><g transform="translate(286.995)"><rect class="a" width="96.469" height="91.494" rx="6.79" transform="translate(0 20.86) rotate(-12.488)"/><g transform="translate(24.437 26.217)"><g transform="translate(0 15.823)"><path class="b" d="M410.212,112.082a3.846,3.846,0,0,1-.624.182l-1.814.446-6.734,1.577L378.4,119.431l-.184.042-.068-.178-1.366-3.635c-3.965-10.652-7.5-20.157-9.816-26.37l.16.087-6.046,1.289-1.613.324a3.214,3.214,0,0,1-.561.086,3.176,3.176,0,0,1,.545-.162l1.6-.395,6.019-1.414.117-.027.043.114,9.967,26.314,1.363,3.635-.252-.136L400.977,114l6.763-1.447,1.831-.37A3.807,3.807,0,0,1,410.212,112.082Z" transform="translate(-358.909 -89.079)"/></g><g transform="translate(10.022 11.881)"><path class="b" d="M376.879,112.463a.583.583,0,0,1,.156-.053l.466-.123,1.814-.442,6.8-1.588,23.492-5.342-.164.214c-.19-4.113-.4-8.561-.608-13.164-.107-2.367-.212-4.694-.312-6.913l.264.2-27.724,6.136-8.218,1.774-2.219.459-.577.109a.794.794,0,0,1-.2.024.737.737,0,0,1,.19-.064l.569-.147,2.2-.532,8.188-1.9L408.7,84.832l.253-.058.012.259c.1,2.218.208,4.545.317,6.913.206,4.6.406,9.051.59,13.164l.008.177-.172.038-23.525,5.19-6.831,1.468-1.83.375-.473.088A.517.517,0,0,1,376.879,112.463Z" transform="translate(-369.854 -84.774)"/></g><g transform="translate(22.679 50.097)"><path class="b" d="M390.346,129.236c-.039.01-.1-.275-.35-.717a3.259,3.259,0,0,0-1.54-1.393,3.077,3.077,0,1,0,1.081,4.824,3.256,3.256,0,0,0,.8-1.917c.034-.505-.028-.79.011-.8a1.65,1.65,0,0,1,.16.8,3.252,3.252,0,0,1-.733,2.112,3.408,3.408,0,0,1-3.054,1.235,3.453,3.453,0,0,1-1.424-6.354,3.406,3.406,0,0,1,3.289-.186,3.249,3.249,0,0,1,1.563,1.6A1.658,1.658,0,0,1,390.346,129.236Z" transform="translate(-383.676 -126.508)"/></g><g transform="translate(43.18 45.504)"><path class="b" d="M412.735,124.22c-.039.01-.1-.275-.351-.717a3.255,3.255,0,0,0-1.54-1.393,3.076,3.076,0,1,0,1.081,4.824,3.265,3.265,0,0,0,.8-1.917c.034-.505-.029-.79.011-.8a1.658,1.658,0,0,1,.159.8,3.247,3.247,0,0,1-.732,2.111,3.407,3.407,0,0,1-3.054,1.236,3.454,3.454,0,0,1-1.424-6.355,3.405,3.405,0,0,1,3.289-.185,3.249,3.249,0,0,1,1.563,1.6A1.656,1.656,0,0,1,412.735,124.22Z" transform="translate(-406.064 -121.492)"/></g><g transform="translate(37.13)"><path class="b" d="M417.865,79.081a9.316,9.316,0,1,1-11.127-7.054A9.316,9.316,0,0,1,417.865,79.081Z" transform="translate(-399.457 -71.799)"/></g><g transform="translate(42.205 4.817)"><path class="c" d="M413.417,77.061a8.453,8.453,0,0,1-.851,1.731c-.572,1.04-1.391,2.461-2.317,4.017l-1,1.656-.1.174-.175-.1A30.031,30.031,0,0,1,405,82.16a30.321,30.321,0,0,1,4.172,2.014l-.279.077.98-1.665c.927-1.557,1.787-2.953,2.428-3.952A8.4,8.4,0,0,1,413.417,77.061Z" transform="translate(-404.999 -77.06)"/></g></g></g><g transform="translate(0 4.575)"><g transform="translate(39.502 128.469)"><path class="c" d="M71.414,193.878c-1.689-5.983-9.466-5.4-9.466-5.4l.214,4.161c4.494-.776,7.288,4.492,7.288,4.492Z" transform="translate(-61.948 -188.46)"/></g><g transform="translate(160.6 54.015)"><g transform="translate(0)"><path class="c" d="M196.741,117.95c9.02,2.732,14.632-7.67,14.632-7.67l-5.488-3.127c-2.683,6.372-11.692,5.635-11.692,5.635Z" transform="translate(-194.193 -107.153)"/></g></g><g transform="translate(229.726 116.518)"><path class="c" d="M277.977,179.545c-1.744-4.974-8.294-4.072-8.294-4.072l.4,3.51c3.764-.894,6.405,3.417,6.405,3.417Z" transform="translate(-269.683 -175.409)"/></g><g transform="translate(126.271)"><path class="c" d="M165,52.3c-1.745-4.974-8.294-4.073-8.294-4.073l.4,3.511c3.763-.894,6.4,3.417,6.4,3.417Z" transform="translate(-156.704 -48.165)"/></g><g transform="translate(48.123 63.65)"><path class="a" d="M79.657,121.811c-1.745-4.975-8.294-4.073-8.294-4.073l.4,3.51c3.763-.893,6.405,3.417,6.405,3.417Z" transform="translate(-71.363 -117.674)"/></g><g transform="translate(34.545 21.284)"><path class="a" d="M61.988,71.409c-5.2.853-5.453,7.46-5.453,7.46l3.526.216c-.225-3.861,4.479-5.713,4.479-5.713Z" transform="translate(-56.535 -71.409)"/></g><g transform="translate(0 165.228)"><path class="a" d="M21.357,239.4c9.02,2.732,14.631-7.671,14.631-7.671L30.5,228.6c-2.682,6.372-11.691,5.635-11.691,5.635Z" transform="translate(-18.81 -228.603)"/></g><g transform="translate(254.112 59.417)"><path class="c" d="M301.7,119.022c.61-4.177-4.372-5.97-4.372-5.97l-1.019,2.639c3,.764,3.274,4.8,3.274,4.8Z" transform="translate(-296.313 -113.052)"/></g><g transform="translate(227.428 19.513)"><g transform="translate(0)"><path class="a" d="M269.261,69.475c-3.517,2.334-1.526,7.241-1.526,7.241l2.645-1c-1.435-2.744,1.39-5.644,1.39-5.644Z" transform="translate(-267.173 -69.475)"/></g></g></g><g transform="translate(369.924 117.573)"><path class="d" d="M434.963,171.565,422.786,207.43l36.012,7.157,2.073-37.873Z" transform="translate(-422.786 -171.565)"/><g transform="translate(14.337 6.003)"><path class="e" d="M458.2,182.03c.042.017-.068.4-.4,1.028a10.485,10.485,0,0,1-1.813,2.41,9.845,9.845,0,0,1-3.817,2.378,10.742,10.742,0,0,1-5.5.279,10.939,10.939,0,0,1-5.024-2.259,8.794,8.794,0,0,1-2.578-3.689,9.8,9.8,0,0,1-.619-2.954,2.441,2.441,0,0,1,.083-1.1,17.132,17.132,0,0,0,.98,3.877,8.7,8.7,0,0,0,2.532,3.388,10.715,10.715,0,0,0,4.75,2.073,10.5,10.5,0,0,0,5.183-.207,9.909,9.909,0,0,0,3.677-2.131A19.21,19.21,0,0,0,458.2,182.03Z" transform="translate(-438.442 -178.121)"/></g></g></g><g transform="translate(15.927 419.284)"><path class="f" d="M435.455,454.144c0,.132-93.922.239-209.754.239-115.872,0-209.774-.107-209.774-.239s93.9-.238,209.774-.238C341.533,453.906,435.455,454.013,435.455,454.144Z" transform="translate(-15.927 -453.906)"/></g><g transform="translate(31.1 136.943)"><g transform="translate(0.238 0.239)"><path class="b" d="M0,0H223.3V174.805H0Z"/></g><path class="f" d="M256.034,320.619c0-1.642-.079-69.35-.2-174.805l.2.2-223.28.041h-.019l.238-.238c-.008,63.036-.016,122.644-.024,174.805l-.214-.214,223.3.214-223.3.214h-.214v-.214c-.007-52.161-.016-111.77-.024-174.805v-.239h.257l223.28.041h.2v.2C256.113,251.269,256.036,318.979,256.034,320.619Z" transform="translate(-32.497 -145.575)"/><g transform="translate(95.988 31.726)"><path class="g" d="M155.07,215.718a17.748,17.748,0,1,1,17.748-17.748A17.769,17.769,0,0,1,155.07,215.718Zm0-33.665a15.917,15.917,0,1,0,15.917,15.917A15.936,15.936,0,0,0,155.07,182.052Z" transform="translate(-137.321 -180.221)"/><g transform="translate(11.154 12.279)"><path class="g" d="M154.809,204.569a.917.917,0,0,1-.605-.228c-1.552-1.366-4.207-3.734-4.548-4.245a.916.916,0,0,1,1.514-1.031c.247.31,1.93,1.851,3.618,3.347l8.987-8.53a.916.916,0,1,1,1.261,1.328l-9.6,9.108A.911.911,0,0,1,154.809,204.569Z" transform="translate(-149.502 -193.63)"/></g></g><g transform="translate(0.798 17.077)"><path class="f" d="M256.108,164.463c0,.131-49.866.238-111.364.238-61.52,0-111.375-.107-111.375-.238s49.855-.239,111.375-.239C206.242,164.224,256.108,164.331,256.108,164.463Z" transform="translate(-33.369 -164.224)"/></g><g transform="translate(6.844 7.241)"><g transform="translate(0 0)"><circle class="f" cx="1.296" cy="1.296" r="1.296"/></g><g transform="translate(4.835 0)"><circle class="f" cx="1.296" cy="1.296" r="1.296"/></g><g transform="translate(9.597)"><path class="f" d="M53.043,154.779a1.3,1.3,0,1,1-1.3-1.3A1.3,1.3,0,0,1,53.043,154.779Z" transform="translate(-50.452 -153.482)"/></g></g><text class="h" transform="translate(57.827 101.225)"><tspan x="0" y="0">Cuenta Creada</tspan></text><text class="i" transform="translate(82.827 119.225)"><tspan x="0" y="0">¡Bienvenido!</tspan></text></g><g transform="translate(95.713 108.392)"><g transform="translate(299.405 127.6)"><path class="j" d="M436.336,272.37s11.113-6.762,13.617-4.774a15.911,15.911,0,0,1,4.82,7.708s5.87-22.389,11.471-21.539c3.212.487,1.636,2.99.2,6.133-1.337,2.918-3.618,13.629-3.618,13.629s10.621-12.6,13.743-12.374c2.415.177,2.762,2.3-.712,5.707S466.611,281,466.611,281s7.44-6.937,10.513-6.974c2.451-.03,4.035,1.672.863,4.427s-7.973,4.82-10.534,9.8c-3.156,6.142-9.887,21.45-9.887,21.45l-23.557-8.339s-3.834-15.627-3.987-19.423c0,0,.323-8.023.277-9.452s3.743-1.795,4.894.948.627,5.62,1.094,7.444a6.98,6.98,0,0,0,2.63,4.33c1.334.816,4.728.872,5.6-.137a14.436,14.436,0,0,0,2.146-5.748,26.084,26.084,0,0,0-.066-4.657S436.813,278.641,436.336,272.37Z" transform="translate(-430.022 -253.741)"/></g><g transform="translate(0 198.99)"><path class="j" d="M144.1,351.855l-16.369-6.132s-16.664-9.757-19.75-6.292a3.422,3.422,0,0,0-4.761,1.944c-.849,2.037,1.951,4.994,1.951,4.994s-.872.884.508,3.874,17.2,12.423,17.2,12.423,20.567,11.216,28.882,16.58l14.35-19.516-2-.745s-1.185-9.725-5.166-12.319c-4.332-2.821-9.558-10.456-10.708-13.448s-6.672-1.61-5.752,4.6,5.752,7.822,5.291,11.964S144.1,351.855,144.1,351.855Z" transform="translate(-103.057 -331.703)"/><g transform="translate(1.936 14.564)"><path class="k" d="M119.182,355.466a68.025,68.025,0,0,1-7.121-3.719,67.623,67.623,0,0,1-6.889-4.134,67.982,67.982,0,0,1,7.122,3.719A67.665,67.665,0,0,1,119.182,355.466Z" transform="translate(-105.171 -347.607)"/></g><g transform="translate(4.92 7.725)"><path class="k" d="M127.446,350.234a21.327,21.327,0,0,1-2.938-1.169c-1.789-.778-4.245-1.9-6.9-3.254a75.131,75.131,0,0,1-6.631-3.788c-.815-.54-1.468-.988-1.9-1.326s-.666-.527-.646-.554a29.851,29.851,0,0,1,2.724,1.593c1.673.994,4.025,2.3,6.67,3.651s5.072,2.515,6.824,3.371A20.263,20.263,0,0,1,127.446,350.234Z" transform="translate(-108.43 -340.139)"/></g><g transform="translate(12.936 14.435)"><path class="k" d="M131.627,359.868a10.417,10.417,0,0,1-1.45-.788l-3.858-2.3-.043-.026-.025-.052a54.44,54.44,0,0,0-2.778-5.32,12.957,12.957,0,0,0-2.082-2.752,2.628,2.628,0,0,0-3.225-.243,1.611,1.611,0,0,0-.514.47.283.283,0,0,1,.038.109l.066.2c.041.135.093.272.143.408.2.547.415,1.084.625,1.613l1.253,3.057,2.214,5.28-.03-.048c1.345,1.576,2.458,2.88,3.291,3.858l.879,1.071a1.7,1.7,0,0,1,.28.4c-.014.012-.137-.1-.36-.329l-.952-1.006-3.411-3.752-.017-.019-.013-.028c-.681-1.527-1.46-3.3-2.293-5.253l-1.276-3.055c-.214-.531-.432-1.068-.636-1.625-.051-.139-.1-.277-.15-.426l-.071-.219a1.475,1.475,0,0,1-.048-.327,1.035,1.035,0,0,1,.333-.487,3.067,3.067,0,0,1,.391-.3,3.19,3.19,0,0,1,1.973-.507,3.155,3.155,0,0,1,1.813.795,13.022,13.022,0,0,1,2.156,2.879,49.055,49.055,0,0,1,2.719,5.411l-.068-.078,3.775,2.434A10.61,10.61,0,0,1,131.627,359.868Z" transform="translate(-117.184 -347.466)"/></g><g transform="translate(30.658 25.168)"><path class="k" d="M149.67,361.014a10.014,10.014,0,0,1-2.011-.493,19.956,19.956,0,0,0-4.84-.854,8.857,8.857,0,0,0-4.666,1.143,18.476,18.476,0,0,0-1.614,1.239,3.7,3.7,0,0,1,1.432-1.523,8.354,8.354,0,0,1,4.858-1.336,16.23,16.23,0,0,1,4.93,1.01A8.138,8.138,0,0,1,149.67,361.014Z" transform="translate(-136.537 -359.187)"/></g><g transform="translate(41.024 22.664)"><path class="k" d="M149.394,356.46c.109.081-.3.789-.693,1.7s-.647,1.687-.782,1.661-.081-.886.345-1.852S149.295,356.38,149.394,356.46Z" transform="translate(-147.857 -356.453)"/></g></g><g transform="translate(136.665 28.412)"><path class="f" d="M252.542,260.854c1.129-7.715,10.112-18.777,18.062-18.789a20.527,20.527,0,0,1-.17-22.569c3.068-4.591,8.014-7.967,10.112-13.054,2.374-5.757.552-12.261.778-18.467.331-9.084,5.057-17.379,9.66-25.27,4.214-7.225,9.356-15.145,17.649-16.92,5.248-1.123,10.691.534,15.617,2.632,23.575,10.041,41.909,31.2,48.2,55.638,1.506,5.85,2.515,12.177,6.591,16.7,4.317,4.787,11.877,7.384,13.172,13.647.929,4.491-1.953,9.005-1.521,13.567.363,3.822,7.521,14.964,9.171,18.444,2.843,6,1.815,12.475-1.08,18.447s-10.262,11.791-16.8,13.417l-73.076-24.35c-6.875,3.914-13.724,19.054-21.616,19.985s-17.523,4.365-25.116-3.945C254.218,281.254,251.412,268.568,252.542,260.854Z" transform="translate(-252.302 -145.423)"/><g transform="translate(102.487 42.747)"><path class="f" d="M383.145,192.1c-.818,6.115.859,16.225,4.2,21.45,2.243,3.506,5.987,5.787,9.68,7.794s7.56,3.93,10.36,7.028,4.3,7.743,2.429,11.454c6.583,2.454,9.536,10.84,7.121,17.326S407.9,268.006,400.981,269.3l-30.14-9.066-6.619-38.462,17.4-29.669" transform="translate(-364.223 -192.105)"/></g><g transform="translate(125.108 81.957)"><path class="l" d="M388.927,234.926a3.5,3.5,0,0,1,.589.256,16.838,16.838,0,0,1,1.646.855,21.849,21.849,0,0,1,5.283,4.4,24.285,24.285,0,0,1,2.815,3.909,24.64,24.64,0,0,1,2.194,5.128,22.175,22.175,0,0,1,.082,12.835l-.11-.276a22.315,22.315,0,0,1,4.9,3.726,22.842,22.842,0,0,1,6.573,13.42,22.018,22.018,0,0,1-2.157,12.06,22.745,22.745,0,0,1-4.949,6.66,18.459,18.459,0,0,1-1.754,1.428,4.9,4.9,0,0,1-.656.438,4.876,4.876,0,0,1,.6-.514c.409-.313.977-.818,1.686-1.486a23.473,23.473,0,0,0,4.773-6.672,21.887,21.887,0,0,0,2.026-11.863,22.564,22.564,0,0,0-6.474-13.133,22.011,22.011,0,0,0-4.8-3.652l-.166-.092.055-.184a21.9,21.9,0,0,0-.03-12.576,23.721,23.721,0,0,0-4.845-8.951,22.834,22.834,0,0,0-5.136-4.464c-.663-.452-1.239-.7-1.6-.921A3.664,3.664,0,0,1,388.927,234.926Z" transform="translate(-388.927 -234.924)"/></g></g><g transform="translate(46.429 136.963)"><g transform="translate(0 13.237)"><path class="m" d="M279.944,278.422s-13.467,4.1-18.189,10.963c-3.34,4.857-37.532,78.906-37.532,78.906l-51.905-15.606L153.76,377.195l57.751,32.011a35.183,35.183,0,0,0,34.384-.152h0a35.18,35.18,0,0,0,13.865-14.342l14.684-28.134Z" transform="translate(-153.76 -278.422)"/></g><g transform="translate(109.324)"><path class="m" d="M276.226,438.484l8.1-34.933-6.141-25.365c-3.95-13.062-7.341-34.337-3.044-51.473L289.5,277.436l15.783-7.258,36.117-6.212c1.389.462,37.767,10.737,37.767,10.737a56.435,56.435,0,0,1,7.056,1.972L390.4,303.65l-12.542,44.46-5.462,44.3,12,46.075Z" transform="translate(-273.147 -263.966)"/><g transform="translate(0.395 65.837)"><path class="n" d="M273.579,335.863" transform="translate(-273.579 -335.863)"/></g><g transform="translate(85.02 69.095)"><path class="n" d="M365.993,339.421" transform="translate(-365.993 -339.421)"/></g></g><g transform="translate(132.942 5.289)"><path class="j" d="M299.272,274.43l10.474-4.687,47.2.657,11.164,6.48s-39,43.042-48.784,44.465C294.712,324.925,299.272,274.43,299.272,274.43Z" transform="translate(-298.939 -269.742)"/></g><g transform="translate(203.947 12.336)"><path class="m" d="M393.91,277.438s7.07,1.591,13.131,14.521S422.9,340.875,422.9,340.875l4.189-38.136,34.128,3.754-6.605,91.142s-12.078,17.515-32.281,15.9-45.851-65.478-45.851-65.478Z" transform="translate(-376.481 -277.438)"/></g><g transform="translate(245.033 37.637)"><path class="f" d="M421.356,389.771a.827.827,0,0,1-.006-.222c.007-.174.016-.385.027-.646q.055-.911.149-2.48c.13-2.155.387-5.266.744-9.108.712-7.685,2.014-18.267,3.608-29.927s2.949-22.231,3.745-29.9c.4-3.834.708-6.939.895-9.087q.151-1.563.238-2.472c.03-.258.054-.469.074-.642a.758.758,0,0,1,.042-.218.781.781,0,0,1,.006.222l-.027.646q-.055.909-.149,2.48c-.13,2.154-.386,5.265-.744,9.107-.712,7.685-2.014,18.267-3.609,29.932s-2.949,22.226-3.744,29.9c-.4,3.834-.708,6.939-.895,9.088q-.151,1.563-.238,2.472c-.03.258-.054.469-.074.642A.758.758,0,0,1,421.356,389.771Z" transform="translate(-421.348 -305.068)"/></g><g transform="translate(68.252 103.488)"><path class="f" d="M231.1,396.265a2.474,2.474,0,0,1-.377-.681,19.987,19.987,0,0,1-.793-1.965,29.452,29.452,0,0,1-1.338-13.816,19.523,19.523,0,0,1,.4-2.08,2.486,2.486,0,0,1,.239-.742c.077.016-.13,1.1-.306,2.862a34.906,34.906,0,0,0,1.325,13.672C230.756,395.211,231.168,396.235,231.1,396.265Z" transform="translate(-228.295 -376.98)"/></g><g transform="translate(69.305 102.24)"><path class="f" d="M236.933,397a3.348,3.348,0,0,1-.6-.68,24.513,24.513,0,0,1-1.424-2.021,35.14,35.14,0,0,1-5.324-15.3,24.267,24.267,0,0,1-.138-2.469,3.371,3.371,0,0,1,.049-.907c.081,0,.139,1.284.424,3.335a40.762,40.762,0,0,0,5.277,15.166C236.245,395.9,237,396.948,236.933,397Z" transform="translate(-229.444 -375.617)"/></g><g transform="translate(107.856 42.188)"><path class="f" d="M280.886,310.038a4.5,4.5,0,0,1-.173.739l-.582,2.092c-.527,1.861-1.266,4.474-2.176,7.684a169.562,169.562,0,0,0-5.425,25.722,59.936,59.936,0,0,0,2.2,25.97c.965,3.225,1.879,5.8,2.5,7.575q.453,1.284.721,2.048a4.446,4.446,0,0,1,.223.726,4.734,4.734,0,0,1-.312-.691q-.3-.753-.8-2.018c-.679-1.76-1.643-4.317-2.653-7.541a61.825,61.825,0,0,1-2.518-11.595,62.763,62.763,0,0,1,.163-14.527,157.934,157.934,0,0,1,5.574-25.761c.946-3.239,1.754-5.846,2.323-7.644q.42-1.3.668-2.067A4.44,4.44,0,0,1,280.886,310.038Z" transform="translate(-271.544 -310.038)"/></g><g transform="translate(198.716 14.723)"><path class="f" d="M384.687,367.561a1,1,0,0,1-.124-.224l-.32-.677-1.189-2.623c-.5-1.144-1.15-2.532-1.838-4.169-.662-1.656-1.412-3.534-2.24-5.606-.806-2.086-1.581-4.412-2.47-6.888q-.584-1.886-1.206-3.9-.308-1.005-.625-2.039c-.2-.694-.368-1.4-.558-2.12a93.5,93.5,0,0,1-3.228-18.963,54.652,54.652,0,0,1,1.973-19.106,33.881,33.881,0,0,1,7.559-13.7,26.438,26.438,0,0,1,8.52-6.249,19.854,19.854,0,0,1,2.7-1l.723-.2a1.04,1.04,0,0,1,.25-.053,1.021,1.021,0,0,1-.237.1l-.706.247a23.539,23.539,0,0,0-2.656,1.079,27,27,0,0,0-8.349,6.307,33.894,33.894,0,0,0-7.387,13.6,54.826,54.826,0,0,0-1.918,18.954,94.855,94.855,0,0,0,3.177,18.878q.277,1.071.547,2.114l.613,2.037q.609,2.005,1.179,3.892c.871,2.476,1.625,4.8,2.409,6.893.8,2.079,1.53,3.962,2.171,5.622.664,1.646,1.284,3.043,1.762,4.2l1.106,2.656.277.7A1.021,1.021,0,0,1,384.687,367.561Z" transform="translate(-370.768 -280.044)"/></g><g class="o" transform="translate(196.579 60.958)"><path d="M371.482,330.535c-4.46,21.106-4.521,42.819,3.161,62.977.445,1.169,2.209,5.327,3.459,5.388,1.585.079,2.337-1.894,2.612-3.457.563-3.212.908-8.5,1.472-11.713.707-4.023,1.663-13.335,1.663-13.335s-3.69-8.446-5.312-12.975c-3.01-8.4-5.555-16.423-6.962-26.219" transform="translate(-368.434 -330.535)"/></g><g transform="translate(139.23 142.725)"><path class="f" d="M362.56,419.829a3.323,3.323,0,0,1-.354.551l-1.1,1.528q-.367.5-.8,1.1c-.307.391-.673.789-1.049,1.232a36.726,36.726,0,0,1-2.67,2.9l-1.64,1.607c-.576.553-1.238,1.059-1.889,1.621a53.682,53.682,0,0,1-4.375,3.32,56.235,56.235,0,0,1-23.279,9.073,53.911,53.911,0,0,1-5.469.516c-.86.027-1.689.1-2.487.084l-2.3-.073a36.446,36.446,0,0,1-3.93-.331c-.577-.07-1.115-.116-1.606-.2l-1.334-.266-1.841-.384a3.416,3.416,0,0,1-.635-.165,3.406,3.406,0,0,1,.655.071l1.852.295,1.335.223c.49.067,1.028.1,1.6.157a39.093,39.093,0,0,0,3.913.258l2.28.042c.793.008,1.616-.076,2.47-.112,1.711-.038,3.517-.318,5.422-.556a57.305,57.305,0,0,0,23.1-9c1.563-1.113,3.083-2.13,4.368-3.26.652-.55,1.315-1.046,1.893-1.589l1.651-1.573a39.073,39.073,0,0,0,2.706-2.839c.385-.431.759-.82,1.075-1.2l.831-1.069,1.165-1.472A3.484,3.484,0,0,1,362.56,419.829Z" transform="translate(-305.806 -419.829)"/></g><g transform="translate(174.991 128.758)"><path class="f" d="M358.4,404.576a4.009,4.009,0,0,1-.122,1,23.028,23.028,0,0,1-.638,2.67,31.825,31.825,0,0,1-9.743,15.037,23.106,23.106,0,0,1-2.176,1.674,4.1,4.1,0,0,1-.863.52c-.05-.071,1.12-.9,2.815-2.447a35.186,35.186,0,0,0,9.645-14.886C358.044,405.964,358.319,404.56,358.4,404.576Z" transform="translate(-344.859 -404.576)"/></g></g><g transform="translate(160.156)"><g transform="translate(57.977)"><g transform="translate(0 22.938)"><path class="g" d="M341.478,139.445a37.1,37.1,0,0,1,32.256,54.969c-2.1,3.818-5.118,7.432-9.265,8.762a76.471,76.471,0,0,0-23.2-59.39" transform="translate(-341.27 -139.445)"/></g><g transform="translate(14.434 4.913)"><path class="g" d="M357.761,141.093c-1.9-3.945.134-8.881,3.517-11.659s7.791-3.9,12.049-4.917,8.669-2.072,12.128-4.756c-.5,6.859-2.2,13.916-6.643,19.168s-12.129,8.179-18.468,5.51" transform="translate(-357.032 -119.761)"/></g><g transform="translate(0.524 0.001)"><path class="g" d="M360.879,145.159c-2.914,1.226-6.388.46-9-1.327a20.514,20.514,0,0,1-6-7.23,31.079,31.079,0,0,1-3.858-10.92,18.287,18.287,0,0,1,1.932-11.287c5.013,5.34,10.533,9.828,13.4,16.569,1.684,3.96,1.48,10.307-.326,14.213" transform="translate(-341.842 -114.396)"/></g><g transform="translate(26.313 52.97)"><path class="f" d="M377.45,172.241a6.691,6.691,0,0,1,.25,1.274c.07.412.142.918.188,1.51s.134,1.264.148,2.012a40.877,40.877,0,0,1-.092,5.252,42.33,42.33,0,0,1-2.971,12.487,40.937,40.937,0,0,1-2.283,4.731c-.35.662-.726,1.225-1.038,1.73s-.6.927-.848,1.264a6.753,6.753,0,0,1-.8,1.025,6.813,6.813,0,0,1,.641-1.127c.223-.351.492-.782.776-1.3s.643-1.086.971-1.753a46.751,46.751,0,0,0,2.17-4.732,45.39,45.39,0,0,0,2.941-12.362,46.607,46.607,0,0,0,.193-5.2c.007-.743-.051-1.412-.077-2s-.066-1.1-.107-1.51A6.875,6.875,0,0,1,377.45,172.241Z" transform="translate(-370.005 -172.241)"/></g><g transform="translate(14.064 13.551)"><path class="f" d="M373.463,144.054a6.754,6.754,0,0,1-1.015.808,11.063,11.063,0,0,1-3.307,1.279,25.773,25.773,0,0,1-11.694-.667l-.134-.035-.031-.136c-.06-.275-.126-.569-.192-.865a20.47,20.47,0,0,1-.3-6.811,11.6,11.6,0,0,1,1.923-5.224,9.655,9.655,0,0,1,2.717-2.594,7.486,7.486,0,0,1,1.233-.612,7.486,7.486,0,0,1-1.13.766,10.321,10.321,0,0,0-2.541,2.629,11.6,11.6,0,0,0-1.767,5.092,20.777,20.777,0,0,0,.334,6.659c.065.29.129.579.189.847l-.164-.171a26.9,26.9,0,0,0,11.491.8,12.146,12.146,0,0,0,3.284-1.114A6.922,6.922,0,0,1,373.463,144.054Z" transform="translate(-356.629 -129.194)"/></g><g transform="translate(14.933 16.531)"><path class="f" d="M377.294,132.462c.014.087-1.34.277-3.439.9a29.765,29.765,0,0,0-3.6,1.333,29.217,29.217,0,0,0-7.824,5.127,29.838,29.838,0,0,0-2.657,2.768c-1.408,1.676-2.122,2.841-2.2,2.794a3.7,3.7,0,0,1,.444-.853,19.409,19.409,0,0,1,1.49-2.155,25.884,25.884,0,0,1,2.621-2.877,27.046,27.046,0,0,1,7.947-5.208,25.769,25.769,0,0,1,3.683-1.255,19.3,19.3,0,0,1,2.57-.506A3.675,3.675,0,0,1,377.294,132.462Z" transform="translate(-357.577 -132.448)"/></g><g transform="translate(7.502 23.223)"><path class="f" d="M361.325,147.188c.016,0,0,.1-.036.275a3.947,3.947,0,0,1-.245.757,5.929,5.929,0,0,1-1.81,2.289,6.293,6.293,0,0,1-4.116,1.329,6.2,6.2,0,0,1-5.386-7.86,6.3,6.3,0,0,1,2.725-3.359,5.937,5.937,0,0,1,2.789-.863,3.929,3.929,0,0,1,.794.045c.179.027.272.05.27.066,0,.05-.383,0-1.049.074a6.23,6.23,0,0,0-2.624.963,6.079,6.079,0,0,0-2.485,3.206,5.833,5.833,0,0,0,4.993,7.288,6.075,6.075,0,0,0,3.887-1.16,6.244,6.244,0,0,0,1.846-2.1C361.19,147.545,361.277,147.174,361.325,147.188Z" transform="translate(-349.463 -139.756)"/></g><g transform="translate(8.137 28.636)"><path class="f" d="M350.281,147.915c-.044.046-.318-.5.116-1.212a2.07,2.07,0,0,1,1.087-.849,4.025,4.025,0,0,1,1.635-.171,7.491,7.491,0,0,1,3.885,1.158c-.05.132-1.736-.531-3.917-.683a2.636,2.636,0,0,0-2.414.738A2.414,2.414,0,0,0,350.281,147.915Z" transform="translate(-350.156 -145.667)"/></g><g transform="translate(0.58)"><path class="f" d="M343.958,114.4a11.324,11.324,0,0,0-1.4,3.917,27.11,27.11,0,0,0-.216,4.545,29.69,29.69,0,0,0,.487,5.544,27.492,27.492,0,0,0,3.911,9.271c.744,1.065,1.4,1.893,1.863,2.451s.754.838.732.865a13.057,13.057,0,0,1-2.869-3.12,25.747,25.747,0,0,1-4.1-9.372,28.079,28.079,0,0,1-.46-5.637,24.647,24.647,0,0,1,.324-4.605,9.221,9.221,0,0,1,1.046-2.941A3.315,3.315,0,0,1,343.958,114.4Z" transform="translate(-341.904 -114.395)"/></g><g transform="translate(7.373 10.863)"><path class="f" d="M349.328,126.26a7.134,7.134,0,0,1,1.287,1.565,27.115,27.115,0,0,1,2.432,4.243,25.59,25.59,0,0,1,1.609,4.622,6.966,6.966,0,0,1,.314,2c-.149.035-.771-3-2.356-6.426C351.045,128.832,349.2,126.35,349.328,126.26Z" transform="translate(-349.322 -126.258)"/></g><g transform="translate(5.825 16.566)"><path class="f" d="M347.637,132.49c.1-.082,1.638,1.478,3.658,3.29a28.119,28.119,0,0,1,3.534,3.438,23.674,23.674,0,0,1-3.854-3.085A16.738,16.738,0,0,1,347.637,132.49Z" transform="translate(-347.631 -132.487)"/></g><g transform="translate(12.964 38.052)"><path class="b" d="M372.259,155.951c0,.005-.041.049-.132.13l-.4.342a18.474,18.474,0,0,1-1.563,1.162,23.53,23.53,0,0,1-12.076,3.965,17.886,17.886,0,0,1-1.947-.008l-.527-.038a.656.656,0,0,1-.183-.026.681.681,0,0,1,.185-.013l.528,0c.458.012,1.121,0,1.938-.052a24.936,24.936,0,0,0,12.009-3.944c.686-.444,1.229-.826,1.591-1.107l.425-.314A.747.747,0,0,1,372.259,155.951Z" transform="translate(-355.427 -155.951)"/></g><g transform="translate(18.419 49.135)"><path class="b" d="M378.155,168.054a.745.745,0,0,1-.134.128l-.408.339c-.353.3-.888.694-1.57,1.156a26.286,26.286,0,0,1-12,4.325c-.82.08-1.486.115-1.947.113h-.529a.7.7,0,0,1-.185-.014.708.708,0,0,1,.184-.025l.527-.035c.459-.02,1.121-.076,1.935-.172a28.12,28.12,0,0,0,11.939-4.3c.688-.445,1.233-.825,1.6-1.1l.429-.31A.636.636,0,0,1,378.155,168.054Z" transform="translate(-361.385 -168.053)"/></g><g transform="translate(22.066 65.299)"><path class="b" d="M376.993,185.706a2.33,2.33,0,0,1-.388.286c-.255.177-.639.409-1.126.676a18.137,18.137,0,0,1-8.32,2.176c-.555.006-1-.008-1.312-.038a2.341,2.341,0,0,1-.479-.06,2.4,2.4,0,0,1,.482-.015c.309.006.755,0,1.306-.023a20.123,20.123,0,0,0,8.262-2.161c.491-.249.884-.462,1.149-.619A2.329,2.329,0,0,1,376.993,185.706Z" transform="translate(-365.367 -185.705)"/></g><g transform="translate(34.289 62.809)"><path class="b" d="M381.225,183a4.323,4.323,0,0,1-1.237.335,4.38,4.38,0,0,1-1.273.148,8.636,8.636,0,0,1,2.51-.483Z" transform="translate(-378.715 -182.986)"/></g><g transform="translate(23.57 81.519)"><path class="b" d="M371.152,203.731a8.5,8.5,0,0,1-4.142-.3c.014-.055.925.137,2.066.219S371.146,203.675,371.152,203.731Z" transform="translate(-367.01 -203.418)"/></g><g transform="translate(7.799 33.942)"><path class="b" d="M352.322,151.468a11.031,11.031,0,0,1-2.534,1.4,11.029,11.029,0,0,1,2.534-1.4Z" transform="translate(-349.787 -151.462)"/></g><g transform="translate(0.827 24.332)"><path class="b" d="M347.132,140.971a12.358,12.358,0,0,0-4.958,3.523,3.111,3.111,0,0,1,.526-.744,9.006,9.006,0,0,1,3.558-2.527A3.132,3.132,0,0,1,347.132,140.971Z" transform="translate(-342.173 -140.967)"/></g><g transform="translate(13.327 29.533)"><path class="b" d="M356.532,152.1a9.543,9.543,0,0,0-.7-5.448,2.529,2.529,0,0,1,.408.721,7.113,7.113,0,0,1,.508,3.927A2.514,2.514,0,0,1,356.532,152.1Z" transform="translate(-355.824 -146.647)"/></g><g transform="translate(15.471 5.116)"><path class="b" d="M385.062,119.982a11.131,11.131,0,0,1-1,1.07,20.332,20.332,0,0,1-3.167,2.437,40.2,40.2,0,0,1-5.265,2.722c-2.04.9-4.324,1.8-6.639,2.907a25.933,25.933,0,0,0-6.073,3.873,15.3,15.3,0,0,0-3.567,4.643,11.135,11.135,0,0,0-1.088,3.8c-.082.937-.015,1.459-.046,1.46,0,0-.017-.129-.031-.377a8.034,8.034,0,0,1,0-1.088,10.83,10.83,0,0,1,1.04-3.851,15.233,15.233,0,0,1,3.57-4.715,25.7,25.7,0,0,1,6.108-3.916c2.324-1.115,4.612-2,6.651-2.9a41.627,41.627,0,0,0,5.265-2.676A21.685,21.685,0,0,0,384.008,121c.345-.32.609-.572.78-.753S385.062,119.982,385.062,119.982Z" transform="translate(-358.166 -119.982)"/></g><g transform="translate(21.528 15.984)"><path class="b" d="M383.144,131.851a1.123,1.123,0,0,1-.122.207l-.382.575c-.329.5-.843,1.2-1.514,2.035a36.208,36.208,0,0,1-13.118,10.183c-.976.442-1.78.768-2.347.962l-.651.227a1.108,1.108,0,0,1-.231.066A1.167,1.167,0,0,1,365,146l.637-.26c.557-.215,1.352-.559,2.317-1.015a38.222,38.222,0,0,0,13.07-10.146c.681-.822,1.211-1.506,1.558-1.993l.41-.553A1.124,1.124,0,0,1,383.144,131.851Z" transform="translate(-364.78 -131.851)"/></g><g transform="translate(1.669 3.117)"><path class="b" d="M343.093,117.8a17.48,17.48,0,0,1,2.776,1.47,22.977,22.977,0,0,1,9.272,11.7,17.588,17.588,0,0,1,.8,3.037.912.912,0,0,1-.07-.208c-.05-.188-.1-.385-.162-.6a21.9,21.9,0,0,0-.692-2.181,23.852,23.852,0,0,0-9.219-11.635,21.577,21.577,0,0,0-1.966-1.172l-.549-.3A1,1,0,0,1,343.093,117.8Z" transform="translate(-343.093 -117.799)"/></g></g><g transform="translate(0 14.508)"><g transform="translate(0 23.043)"><path class="f" d="M291.679,155.4c.358,4.854-2.847,9.189-6.077,12.83s-6.823,7.436-7.521,12.252c-1.237,8.535,7.12,16.461,5.4,24.912-.924,4.529-4.633,8.168-5.294,12.743-.639,4.425,1.733,8.756,4.672,12.125s6.345,2.876,8.945,6.513A36.558,36.558,0,0,0,303.08,246.8c9.366,5.129,20.606-2.291,25.124-3.623" transform="translate(-277.956 -155.403)"/></g><g transform="translate(13.568)"><path class="f" d="M363.755,173.173c4.318-1.879,4.656-17.35-6.175-19.137-4.345-.716-7.964-2.837-11.617-5.3-3.234-2.177-4.194-7.7-6.932-10.478A27.105,27.105,0,0,0,293.445,150.7c-1.573,6.269-.5,13.68,4.442,17.846,5.735,4.834,14.238,3.761,21.586,2.256s15.666-2.987,21.8,1.329c3.7,2.6,5.821,6.836,8.083,10.753s5.1,7.918,9.378,9.391c0,0,3.257,7.653.6,12.981s3.126-3.758,3.126-3.758,10.546-18.753,1.3-28.324" transform="translate(-292.773 -130.239)"/></g><g transform="translate(9.324 21.319)"><path class="j" d="M308.5,283.721c-.06-10.1,0-38.464,0-38.413,0,0-16.044-2.7-19.323-23.649-1.631-10.418-1.07-27.493-.159-41.449.82-12.562,9.177-27.957,21.692-26.606l39.068,9.967a7.365,7.365,0,0,1,6.573,7.485h0l-2.378,97.022Z" transform="translate(-288.138 -153.521)"/><g transform="translate(4.521 32.768)"><g transform="translate(3.006 3.467)"><path class="f" d="M296.359,195.513a2.686,2.686,0,0,0,2.584,2.716,2.569,2.569,0,0,0,2.774-2.416,2.687,2.687,0,0,0-2.58-2.717A2.571,2.571,0,0,0,296.359,195.513Z" transform="translate(-296.357 -193.092)"/></g><path class="f" d="M293.117,192.117c.332.352,2.371-1.15,5.261-1.136,2.887-.027,5,1.464,5.319,1.112.154-.157-.184-.789-1.106-1.464a7.371,7.371,0,0,0-4.257-1.322,7.079,7.079,0,0,0-4.188,1.342C293.256,191.328,292.954,191.961,293.117,192.117Z" transform="translate(-293.075 -189.306)"/></g><g transform="translate(32.928 37.374)"><path class="f" d="M324.139,197.147c.332.351,2.373-1.15,5.261-1.136,2.887-.027,5.005,1.464,5.319,1.111.154-.157-.18-.789-1.106-1.463a7.361,7.361,0,0,0-4.256-1.323,7.088,7.088,0,0,0-4.188,1.342C324.281,196.357,323.977,196.99,324.139,197.147Z" transform="translate(-324.098 -194.335)"/></g><g transform="translate(15.075 33.514)"><path class="f" d="M311.96,214.2c.015-.165-1.782-.479-4.692-.858-.737-.078-1.436-.226-1.559-.73a3.761,3.761,0,0,1,.5-2.187q1.047-2.676,2.195-5.614c3.048-7.994,5.256-14.568,4.934-14.688s-3.057,6.263-6.105,14.257q-1.1,2.957-2.1,5.648a4.28,4.28,0,0,0-.389,2.9A1.856,1.856,0,0,0,305.949,214a5.05,5.05,0,0,0,1.254.177C310.131,214.345,311.949,214.362,311.96,214.2Z" transform="translate(-304.601 -190.12)"/></g><g transform="translate(20.362 84.368)"><path class="k" d="M310.374,253.074a53.276,53.276,0,0,0,28.063-7.419c-.235.05-7.722,14.558-27.791,12.365Z" transform="translate(-310.374 -245.655)"/></g><g transform="translate(23.23 61.07)"><path class="k" d="M313.545,225.077c-.345-1.778,1.747-2.355,3.286-3.311s2.423-2.227,3.864-1.13a5.621,5.621,0,0,1,1.78,2.493,3.938,3.938,0,0,1,.288,2.046,3.986,3.986,0,0,1-1.287,2.139,6.1,6.1,0,0,1-3.137,1.641,4.368,4.368,0,0,1-3.4-.8,3.426,3.426,0,0,1-1.295-3.169" transform="translate(-313.507 -220.212)"/></g><g transform="translate(21.707 59.609)"><path class="f" d="M321.072,218.618c-.47-.028-.483,3.109-3.174,5.329s-6.028,1.868-6.053,2.307c-.045.2.743.611,2.154.652a7.806,7.806,0,0,0,5.054-1.748,6.8,6.8,0,0,0,2.459-4.469C321.634,219.378,321.286,218.6,321.072,218.618Z" transform="translate(-311.843 -218.618)"/></g><g transform="translate(32.526 31.574)"><path class="f" d="M323.673,190.157c.284.786,3.17.42,6.559.836,3.4.349,6.131,1.347,6.582.643.2-.337-.274-1.077-1.377-1.84a11.488,11.488,0,0,0-10.011-1.127C324.179,189.167,323.552,189.783,323.673,190.157Z" transform="translate(-323.658 -188.002)"/></g><g transform="translate(4.892 22.601)"><path class="f" d="M293.554,181.185c.506.657,2.5-.019,4.893-.047,2.394-.11,4.421.451,4.889-.234.205-.333-.113-.991-1-1.614a7.087,7.087,0,0,0-7.882.226C293.61,180.189,293.331,180.864,293.554,181.185Z" transform="translate(-293.48 -178.203)"/></g></g><g transform="translate(27.055 16.853)"><path class="f" d="M360.272,233.219c-5.759,1.161-6.273-1.77-10.576-5.77a18.915,18.915,0,0,1-5.788-15.955c.651-5.144,3.425-10.376,1.641-15.244-2.357-6.437-11.38-8.417-13.773-14.839-1.392-3.733-.143-8.1-1.72-11.758-1.483-3.44-5.1-5.422-8.625-6.695s-7.3-2.154-10.258-4.452-4.8-6.638-2.895-9.862a198.489,198.489,0,0,1,45.761,11.119c3.417,1.276,7.008,2.811,9.029,5.849,2.138,3.214,2.036,7.367,1.855,11.224q-1.316,28.206-2.632,56.411" transform="translate(-307.501 -148.644)"/></g><g transform="translate(27.369 9.783)"><path class="l" d="M373.646,225.54c.013.009.09-.079.229-.261a7.357,7.357,0,0,0,.578-.837,11.136,11.136,0,0,0,1.38-3.662,12.877,12.877,0,0,0-.337-6.185,11.825,11.825,0,0,0-4.873-6.555c-2.484-1.752-5.72-2.972-7.775-5.76a6.285,6.285,0,0,1-1.137-4.917,28.07,28.07,0,0,1,1.822-5.434,15.628,15.628,0,0,0-.269-12.5,13.7,13.7,0,0,0-4.25-5.279,16.594,16.594,0,0,0-6.423-2.663c-2.268-.517-4.531-.818-6.631-1.451A12.935,12.935,0,0,1,340.407,167,9.224,9.224,0,0,1,338,161.5a47.072,47.072,0,0,0-.986-6.089,20.987,20.987,0,0,0-5.652-9.907,16.547,16.547,0,0,0-8.9-4.414,13.22,13.22,0,0,0-8.095,1.225,12.793,12.793,0,0,0-4.683,4.054,10.834,10.834,0,0,0-1.638,3.554,5.561,5.561,0,0,0-.2,1.347,13.311,13.311,0,0,1,2.132-4.691,12.62,12.62,0,0,1,12.386-4.846,15.959,15.959,0,0,1,8.469,4.32,20.32,20.32,0,0,1,5.361,9.571,47.128,47.128,0,0,1,.938,6.006,10.09,10.09,0,0,0,2.634,6,13.77,13.77,0,0,0,5.932,3.282c2.2.664,4.47.962,6.69,1.472a15.746,15.746,0,0,1,6.085,2.5,12.818,12.818,0,0,1,3.974,4.922,14.79,14.79,0,0,1,.294,11.821,28.3,28.3,0,0,0-1.829,5.613,7.077,7.077,0,0,0,1.32,5.489c2.285,3,5.615,4.174,8.026,5.848A11.332,11.332,0,0,1,375,214.75a12.752,12.752,0,0,1,.474,5.968A14.045,14.045,0,0,1,373.646,225.54Z" transform="translate(-307.844 -140.923)"/></g></g><g transform="translate(53.981 88.099)"><g transform="translate(0.052)"><path class="f" d="M348.853,210.6a52.98,52.98,0,0,0-2.447,34.927c.948,3.426,2.257,6.978,1.448,10.439-.877,3.747-4.01,6.458-6.3,9.554a23.58,23.58,0,0,0,7.227,34.455c.605-3.444,3.809-5.792,6.969-7.289s6.651-2.608,9.061-5.142,3.091-7.178.29-9.271c8.061-2.106,12.63-11.682,10.934-19.84s-8.331-14.6-15.877-18.137" transform="translate(-336.963 -210.604)"/></g><g transform="translate(0 62.029)"><path class="f" d="M357.444,297.633c-1.441.791-2.84,1.5-3.018,3.132-.209,1.918,1.631,5.285,2.291,7.1a9.86,9.86,0,0,1-12.887,12.546c2.58.2,4.768-2.32,5-4.9s-1.02-5.064-2.558-7.145-3.4-3.93-4.7-6.165c-2.655-4.549-6.6-16.926-3.562-23.858" transform="translate(-336.906 -278.343)"/></g><g transform="translate(23.606 14.082)"><path class="l" d="M366.946,279.893a3.336,3.336,0,0,1,.5-.418c.336-.257.822-.647,1.437-1.163a32.009,32.009,0,0,0,4.708-4.869,24.463,24.463,0,0,0,4.461-8.9,20.05,20.05,0,0,0-.591-12.025,17.782,17.782,0,0,0-3.314-5.351c-1.347-1.55-2.816-2.9-4.193-4.213a43.263,43.263,0,0,1-3.758-3.912,16.8,16.8,0,0,1-2.463-4.051,10.7,10.7,0,0,1-.808-6.73,7.13,7.13,0,0,1,.685-1.735,3.355,3.355,0,0,1,.354-.544,12.008,12.008,0,0,0-.858,2.32,10.749,10.749,0,0,0,.936,6.554,16.72,16.72,0,0,0,2.46,3.935,43.949,43.949,0,0,0,3.754,3.843c1.383,1.3,2.868,2.653,4.243,4.226a18.117,18.117,0,0,1,3.406,5.485,20.308,20.308,0,0,1,.572,12.307,24.379,24.379,0,0,1-4.622,9,29.729,29.729,0,0,1-4.855,4.8c-.636.5-1.144.864-1.5,1.1A3.336,3.336,0,0,1,366.946,279.893Z" transform="translate(-362.685 -225.983)"/></g></g></g></g><g transform="translate(43.155 341.855)"><g transform="translate(28.778)"><path class="p" d="M79.7,401.345c2.315,2.9,6.381,1.635,8.178-.337s2.438-4.707,3.014-7.313c1.315-5.954,2.625-12.2,1-18.072a9.989,9.989,0,0,0-2.6-4.732,5.215,5.215,0,0,0-5.037-1.331c-2.047.68-3.212,2.8-4.025,4.8a42.837,42.837,0,0,0-3.07,18.616c.175,2.957.719,6.035,2.54,8.371" transform="translate(-77.088 -369.349)"/></g><g transform="translate(36.6 44.626)"><path class="q" d="M89.348,420.316a18.441,18.441,0,0,1,11.334-2.106c2.094.212,4.293.7,5.8,2.164s1.948,4.189.413,5.629a5.423,5.423,0,0,1-3.5,1.126c-3.022.155-6.405-.166-8.7,1.8-1.31,1.124-2.118,2.9-3.732,3.517a3.9,3.9,0,0,1-4.4-1.635,6.66,6.66,0,0,1-.793-4.875A7.509,7.509,0,0,1,89.348,420.316Z" transform="translate(-85.63 -418.083)"/></g><g transform="translate(0 11.809)"><path class="m" d="M71.493,407.151a11.059,11.059,0,0,0,1.079-10.267,19.615,19.615,0,0,0-6.567-8.349,32.455,32.455,0,0,0-11.174-5.679,11.518,11.518,0,0,0-4.9-.518,5.1,5.1,0,0,0-3.912,2.716c-1,2.234.255,4.789,1.565,6.855a82.224,82.224,0,0,0,7.755,10.332c2.293,2.6,4.893,5.145,8.2,6.177s6.66.676,8.232-1.674" transform="translate(-45.661 -382.246)"/></g><g transform="translate(33.955 48.891)"><path class="f" d="M82.915,451.621a6.687,6.687,0,0,0,.105-1.391c.035-1.009.078-2.276.129-3.785a54.652,54.652,0,0,1,.5-5.573,42.647,42.647,0,0,1,1.6-6.639,24.07,24.07,0,0,1,2.955-6.1,12.447,12.447,0,0,1,3.985-3.76,11.785,11.785,0,0,1,3.471-1.326,6.631,6.631,0,0,0,1.361-.285,6.475,6.475,0,0,0-1.4.066,10.766,10.766,0,0,0-3.633,1.193,12.427,12.427,0,0,0-4.213,3.806,23.5,23.5,0,0,0-3.069,6.23,39.891,39.891,0,0,0-1.575,6.745,46.861,46.861,0,0,0-.382,5.634c-.019,1.605.017,2.9.052,3.8A6.4,6.4,0,0,0,82.915,451.621Z" transform="translate(-82.741 -422.741)"/></g><g transform="translate(33.073 12.226)"><path class="f" d="M82.911,445.334a2.719,2.719,0,0,0,0-.643c-.031-.48-.071-1.086-.119-1.829-.1-1.587-.248-3.884-.342-6.727-.216-5.683-.221-13.545.181-22.213s1.18-16.5,1.979-22.127c.184-1.41.378-2.681.567-3.795s.326-2.078.48-2.857c.128-.733.233-1.331.316-1.806a2.738,2.738,0,0,0,.072-.638,2.653,2.653,0,0,0-.185.614l-.421,1.786c-.187.776-.369,1.733-.576,2.846s-.441,2.381-.651,3.791a207.976,207.976,0,0,0-2.15,22.158c-.4,8.686-.334,16.568-.014,22.259.145,2.846.351,5.144.523,6.728l.227,1.821A2.731,2.731,0,0,0,82.911,445.334Z" transform="translate(-81.779 -382.7)"/></g><g transform="translate(10.356 18.574)"><path class="f" d="M79.9,430.767a12.169,12.169,0,0,0-.134-1.91c-.147-1.224-.428-2.988-.91-5.141a68.423,68.423,0,0,0-2.159-7.437,66.967,66.967,0,0,0-3.715-8.727,47.629,47.629,0,0,0-10.172-13.84,23.626,23.626,0,0,0-2.306-1.889c-.353-.262-.666-.525-.981-.729l-.883-.53a12.259,12.259,0,0,0-1.673-.928,57.316,57.316,0,0,1,5.569,4.372,50.22,50.22,0,0,1,9.936,13.8,71.582,71.582,0,0,1,3.729,8.643,76.841,76.841,0,0,1,2.261,7.356c.53,2.127.869,3.87,1.084,5.078A12.4,12.4,0,0,0,79.9,430.767Z" transform="translate(-56.97 -389.632)"/></g></g><g transform="translate(26.571 62.744)"><g transform="translate(180.12 123.892)"><path class="g" d="M233.716,205.26c-1.689-5.983-9.465-5.4-9.465-5.4l.213,4.161c4.5-.775,7.289,4.493,7.289,4.493Z" transform="translate(-224.251 -199.842)"/></g><g transform="translate(108.377 59.703)"><path class="g" d="M150.6,129.745c-4.2.445-4.7,5.716-4.7,5.716l2.809.333c0-3.1,3.84-4.363,3.84-4.363Z" transform="translate(-145.904 -129.745)"/></g><g transform="translate(152.162)"><path class="g" d="M193.72,68.412c2.56,6.524,11.219,5.007,11.219,5.007l-.7-4.644c-4.957,1.371-8.677-4.229-8.677-4.229Z" transform="translate(-193.72 -64.546)"/></g><g transform="translate(49.816 114.084)"><path class="g" d="M86.652,189.131c-4.2.446-4.7,5.716-4.7,5.716l2.809.333c0-3.1,3.841-4.363,3.841-4.363Z" transform="translate(-81.953 -189.131)"/></g><g transform="translate(66.42 18.744)"><path class="g" d="M105.476,90.985c.61-4.177-4.371-5.97-4.371-5.97l-1.02,2.638c3,.765,3.274,4.8,3.274,4.8Z" transform="translate(-100.085 -85.015)"/></g><g transform="translate(0 86.071)"><path class="g" d="M27.6,161.292c-.754,6.55,7.922,8.135,7.922,8.135l1.566-4.286c-5.206-.47-5.957-6.6-5.957-6.6Z" transform="translate(-27.551 -158.54)"/></g><g transform="translate(204.591 51.555)"><path class="g" d="M252.627,126.511c4.215.24,5.563-4.879,5.563-4.879l-2.718-.785c-.5,3.058-4.5,3.684-4.5,3.684Z" transform="translate(-250.975 -120.847)"/></g></g></g></svg>