<svg xmlns="http://www.w3.org/2000/svg" width="139.499" height="147.465" viewBox="0 0 139.499 147.465"><defs><style>.a{fill:#252324;}.b{fill:#cecece;}.c{fill:#0249cc;}.d{fill:#0c0b0c;}.e{fill:#141414;}.f,.j{fill:#fcfcfc;}.g{fill:#060606;}.h{fill:#fdfdfd;}.i{fill:#fbf9fb;}.j{stroke:#868686;}.k{fill:#fefefe;}.l{fill:#0e1016;}.m{fill:#0048cc;}</style></defs><g transform="translate(-86.661 -184.67)"><path class="a" d="M89.89,212.889l-.4.327C89.5,212.957,89.674,212.9,89.89,212.889Z" transform="translate(-0.716 -7.138)"/><path class="a" d="M209.738,184.767a.152.152,0,0,1-.2-.095A.194.194,0,0,1,209.738,184.767Z" transform="translate(-31.079)"/><path class="a" d="M273.349,252.009l-.125-.232Z" transform="translate(-47.189 -16.974)"/><path class="b" d="M137.413,243.542a12.439,12.439,0,0,1-7.752,5.8c-2.257.675-4.479,1.474-6.754,2.071-1.008.264-1.827.92-2.846,1.1-.622.113-.36.635-.344.96.176,3.588.383,7.175.586,10.761q.22,3.869.451,7.738a3.208,3.208,0,0,0,.166,1.42.734.734,0,0,1-.434.5,101.035,101.035,0,0,1-20.133.81c-.212-.013-.4-.066-.454-.308.015-1.1-.006-2.2.057-3.289.04-.689-.228-.858-.882-.945a13.942,13.942,0,0,1-6.159-2.43,1.413,1.413,0,0,1-.69-1.514A64.606,64.606,0,0,1,95,253.585a28.238,28.238,0,0,1,1.929-5.275c2.05-3.625,5.41-5.167,9.328-5.791a2.68,2.68,0,0,0,1.264-.276l.763.066a6.523,6.523,0,0,0,5.477-.074l.708-.025c4.715.708,9.377.087,14.038-.56a2,2,0,0,0,.477-.2,1.082,1.082,0,0,0,.84-.244.562.562,0,0,0,.657-.3q2.085-3.251,4.167-6.5c.854-.953.891-2.4,1.96-3.224a14.5,14.5,0,0,0,1.132-1.606,1.287,1.287,0,0,1,1.6-.746,1.33,1.33,0,0,0,.867.287l1.858,1.123c1.288,1.3,1.394-.974,2.444-.74,0,1.564-.052,3.16.02,4.751.041.917-.243,1.277-1.164,1.156a10.4,10.4,0,0,0-1.3-.007c-.544,0-.815.238-.722.805-.329.473-.8.867-.825,1.507l-2.628,5.048Z" transform="translate(-1.403 -11.154)"/><path class="c" d="M204.393,294.228c1.274,2.864,2.548,5.725,3.587,8.688a8.007,8.007,0,0,1-.074,5.257h1.516c8,0,15.992.028,23.988-.028,1.319-.009,1.7.349,1.7,1.7q-.072,23.724,0,47.449c0,1.221-.235,1.644-1.556,1.623-5.051-.084-10.1-.066-15.156-.008-1.073.012-1.289-.334-1.287-1.336.03-14.718,0-29.436.049-44.154,0-1.218-.315-1.53-1.517-1.509-4.172.075-8.347.028-12.518.026a1.554,1.554,0,0,0-1.233-.29q-8.926-.018-17.852-.028c-.413,0-.894-.164-1.2.307-10.323.005-20.646.035-30.968-.017-1.25-.006-1.475.376-1.472,1.529q.058,22.007.025,44.015c0,1.384-.582,1.8-1.933,1.424-.306-.085-.451-.226-.453-.531s-.007-.615-.007-.923q0-23.786-.028-47.572c0-1.3.274-1.729,1.658-1.709,5.885.083,11.771.035,17.658.035H168.9c-1.021-2.5.493-4.08,1.873-5.646a2.166,2.166,0,0,0,.5-2.537c-1.1-2.835-2.091-5.715-3.152-8.652h10.49c2.154,0,4.311.079,6.458-.034,1.112-.058,1.515.334,1.771,1.352.447,1.777,1,3.533,1.6,5.267a58.994,58.994,0,0,0,2.183,6.562c.22.8.476,1.593.647,2.4.123.578.39.767.983.772,4.106.028,8.206.013,12.31.416,2.864.282,3.384-.474,3.061-3.435a10.1,10.1,0,0,0-.688-2.518c-.838-2.155-1.752-4.28-2.612-6.426-.185-.463-.572-.926-.208-1.477C204.2,294.382,204.3,294.309,204.393,294.228Zm-12.829,14.786c-13.8,0-27.6.014-41.4-.028-1.111,0-1.354.283-1.351,1.368q.058,23.2.026,46.406c0,.264-.007.527,0,.791.01.247-.049.543.338.579.443.041.493-.241.489-.577,0-.308,0-.616,0-.923q0-21.95-.027-43.9c0-1.259.324-1.638,1.609-1.636q32.5.056,64.995,0c1.352,0,1.68.383,1.676,1.708-.048,14.678-.016,29.355-.059,44.033,0,1.125.3,1.36,1.376,1.345q6.854-.1,13.71,0c1.086.016,1.364-.236,1.36-1.345q-.085-23.2-.044-46.4c0-1.163-.272-1.445-1.439-1.44C219.074,309.029,205.319,309.014,191.564,309.014Zm-17.62-.84c-.752-1.918-1.147-3.848-2.089-5.778-.674.86-1.243,1.57-1.8,2.293a3.145,3.145,0,0,0-.645,2.574.959.959,0,0,0,1.139.927C171.637,308.125,172.728,308.174,173.944,308.174Z" transform="translate(-15.516 -26.97)"/><path class="d" d="M209.618,321.733c.637.512.258,1.123.119,1.67a13.659,13.659,0,0,1-4.356,7.183c1.049.175,1.831.313,2.615.435a1.947,1.947,0,0,1,1.615.949c.635,1.2.237,1.937-1.119,1.989a18.173,18.173,0,0,1-2.37-.01c-1-.093-1.073.339-.879,1.156q1.76,7.4,3.471,14.8,1.758,7.6,3.482,15.207a3.75,3.75,0,0,1,.093.65c.016.341.113.778-.368.852-.46.071-.572-.371-.648-.69-.474-1.954-.92-3.914-1.372-5.873-.846-3.662-1.715-7.319-2.517-10.991-.164-.749-.452-.962-1.206-.945-2.37.054-4.745.067-7.115,0-1-.03-1.336.194-1.317,1.272.071,4.128.047,8.258.009,12.387-.005.629.422,1.436-.681,1.829-.388.138-.138,1.056-.129,1.613s-.07.876-.767.87c-3.462-.031-6.925-.014-10.5-.014.576-1.727,2.263-1.538,3.5-2.292-1.4-.47-1.061-1.652-1.123-2.59-.258-3.932-.424-7.87-.642-11.8-.031-.556.182-1.324-.855-1.254-.749.05-1.373-.15-1.706,1-.862,2.994-.675,6.04-.838,9.072-.081,1.486-.14,2.973-.218,4.458-.015.291.08.755-.31.764-1.351.032-.941,1.015-.929,1.7.013.715-.151.983-.933.971-3.118-.046-6.238-.014-9.356-.028-.275,0-.675.181-.8-.208-.116-.349.259-.519.464-.719a5.774,5.774,0,0,1,2.117-.961c.314-.124,1.348-.086.351-.908-.265-.219-.13-1.01-.066-1.525.31-2.489.161-4.991.247-7.486.254-7.45-.1-14.9-.04-22.35.022-2.873.35-5.686,2.435-7.929,2.42-2.6,5.554-3.1,8.894-2.928.61.031,1.216.131,1.824.2.24.464.18.783-.421.752-.526-.026-1.048-.11-1.573-.161-5.167-.5-8.848,1.762-9.953,6.158a17.688,17.688,0,0,0-.442,4.445c.035,5.489.088,10.978.08,16.468-.005,3.557-.055,7.114-.189,10.668-.044,1.173.277,1.565,1.449,1.435a15.506,15.506,0,0,1,2.9,0c.857.067,1.128-.214,1.132-1.079.016-3.512.092-7.024.16-10.536.119-6.1.235-12.2.805-18.279.323-3.451,1.84-4.568,5.241-3.908a5.867,5.867,0,0,1,4.087-5.941l2.731-.029c-.3.95-1.187.57-1.783.714-2.979.72-4.447,2.741-4.064,5.768.038.3,0,.608.048.906.314,2.159-.3,1.773,1.889,1.816.877.018,1.756-.017,2.632.011a.733.733,0,0,0,.844-.589c.763-2.146,2.4-2.985,4.594-2.989,1.972,0,3.944-.069,5.916-.075,4.37-.012,4.553-.161,5.356-4.583.023-.128.069-.252.1-.379Zm-11.85,18.582c0,1.842.011,3.684-.006,5.525-.007.654.1,1.027.923,1.009,2.41-.057,4.823-.037,7.235-.01.655.007.79-.126.625-.812-.88-3.656-1.709-7.324-2.521-11-.168-.762-.492-1.06-1.311-1.012-1.354.08-2.719.055-4.076.008-.692-.023-.9.208-.885.9C197.8,336.72,197.767,338.518,197.768,340.315Zm-4.462.265h-.041c0-.833.05-1.67-.012-2.5-.1-1.292.527-3.079-.3-3.745-.805-.651-2.512-.191-3.823-.217a2.554,2.554,0,0,1-.262,0c-.541-.071-.65.212-.655.692-.043,3.72-.3,7.436-.236,11.16.013.719.24.879.9.852,1.138-.046,2.282-.062,3.417,0,.781.046,1.071-.134,1.034-.988C193.253,344.089,193.306,342.333,193.306,340.58Zm-7.792-9.8c.2-.084.433-.187.669-.276.424-.161,1.242.287,1.062-.781-.142-.846.051-1.742-1.235-1.945-1.877-.3-2.969.456-3.282,2.615a75.532,75.532,0,0,0-.554,7.743c-.3,7.2-.477,14.394-.5,21.595,0,.536-.189,1.1.785,1.1s.766-.569.787-1.1q.264-6.434.526-12.87.326-8.017.657-16.033c.017-.406-.179-1.029.383-1.121C185.612,329.572,185.111,330.466,185.514,330.781Zm7.989,23.886h-.111c0-.7.038-1.406-.008-2.1-.1-1.428.651-3.371-.344-4.141-.917-.709-2.769-.208-4.209-.24-.087,0-.176,0-.263-.01-.493-.04-.574.22-.54.652.224,2.832.4,5.668.655,8.5.1,1.167-.41,2.813.383,3.378.827.589,2.361.185,3.587.215.088,0,.176-.007.264,0,.433.04.607-.107.6-.587C193.486,358.442,193.5,356.554,193.5,354.667Zm3.453-14.19c0-1.8-.082-3.608.028-5.4.076-1.226-.681-.976-1.328-.94s-1.517-.415-1.474.938c.113,3.642.146,7.288.126,10.932-.007,1.219.8.784,1.33.779s1.382.46,1.336-.77C196.906,344.171,196.956,342.322,196.956,340.477Zm-2.627,13.987h.138c0,1.84.053,3.682-.02,5.52-.043,1.075.657.826,1.2.787s1.351.441,1.333-.781c-.055-3.64-.061-7.282,0-10.923.02-1.133-.669-.9-1.272-.87s-1.461-.4-1.4.873C194.392,350.864,194.33,352.665,194.33,354.463Zm12.586-26.871c-3.251,0-6.357-.038-9.461.017a3.329,3.329,0,0,0-3.124,2.029c-.276.591-.17.948.551.813s1.436.262,2.18-.332c.63-.5,1.273.608,2.137.385a6.314,6.314,0,0,1,2.484-.022C204.126,330.861,205.61,329.563,206.916,327.592Zm-22.25,16.351a1.194,1.194,0,0,0,.546-1.062c.057-2.633.979-5.1,1.348-7.672.058-.4.608-1.078-.365-1.164-.654-.057-1.208-.147-1.266.929-.132,2.426.075,4.878-.494,7.281A1.994,1.994,0,0,0,184.666,343.943Zm8.216,18.692c1.139,0,2.279,0,3.418,0,.327,0,.719.107.705-.475-.012-.525-.33-.524-.7-.524q-3.286,0-6.572,0c-.353,0-.713-.046-.711.5s.355.5.708.5Zm-13.588-1c-1.142,0-2.283.006-3.424,0-.373,0-.548.126-.577.524-.034.462.222.482.557.481,2.195,0,4.389-.007,6.584,0,.4,0,.679-.058.723-.529.057-.61-.4-.465-.7-.47C181.4,361.623,180.347,361.634,179.294,361.635Zm6.151-14.653c.669-.451,1.658.424,1.709-.657.119-2.49.037-4.99.037-7.486l-.18-.024C186.507,341.439,186,344.063,185.444,346.982Z" transform="translate(-21.443 -34.491)"/><path class="e" d="M98.5,289.511c.058.241.242.294.455.308q-3.022,17.03-6.044,34.06c-1.747,9.841-3.481,19.685-5.277,29.517-.16.873.108,1,.818,1.149a24.744,24.744,0,0,0,7.2.374,1.168,1.168,0,0,0,1.186-1.088c.805-3.5,1.694-6.984,2.479-10.491,2.985-13.353,5.661-26.765,7.71-40.3.095-.623-.111-1.824.652-1.772.849.058.509,1.22.542,1.893.441,8.937.836,17.876,1.261,26.814.365,7.666.761,15.33,1.115,23,.028.614.131.913.815,1.029a26.592,26.592,0,0,0,7.6.255c.819-.1.963-.486.982-1.18.161-5.965.439-11.928.5-17.894.1-10.448-.019-20.9-.5-31.338-.229-4.949-.436-9.9-.9-14.834a.734.734,0,0,0,.434-.5c.764.754.505,1.774.557,2.643q.622,10.369.966,20.752c.326,10.141.206,20.281.1,30.42-.039,3.9-.34,7.79-.433,11.687-.02.865-.581.92-1.331,1.165a4.6,4.6,0,0,0,3.1.784,2.094,2.094,0,0,1,2.334,1.52c-.414.356-.912.161-1.363.17-3.377.069-6.759-.149-10.129.181-1.079.105-1.56-.2-1.339-1.325.211-1.078-.134-1.76-1.329-1.759-.81,0-.846-.512-.873-1.122-.169-3.766-.363-7.53-.54-11.295q-.532-11.353-1.059-22.705c-.2-4.2-.436-8.39-.772-12.6a16.511,16.511,0,0,0-.929,4.21c-1.727,10.116-3.693,20.183-6,30.184-1,4.336-2.042,8.661-3.019,13-.208.923-.623,1.408-1.589,1.328-.876-.072-1.473.279-1.527,1.187s-.595.964-1.258.87c-1.08-.154-2.161-.314-3.231-.524-.679-.134-1.362-.266-1.162-1.307.139-.724-.656-.655-1.023-.7-.955-.122-1.124-.569-.967-1.433q2.717-14.95,5.391-29.909,2.982-16.773,5.914-33.555C98.076,290.043,98.13,289.684,98.5,289.511Z" transform="translate(0 -26.264)"/><path class="b" d="M214.754,292.184c-.1.081-.19.154-.28-.008-1.672.344-3.337.728-5.019,1.016-.795.137-1,.37-.725,1.187.734,2.155,1.345,4.351,2.058,6.512.262.795.143,1.041-.754,1.073-3.02.107-6.037.31-9.054.476a58.992,58.992,0,0,1-2.183-6.562c-.6-1.734-1.153-3.49-1.6-5.267-.255-1.018-.658-1.41-1.771-1.352-2.147.113-4.3.034-6.458.034a13.941,13.941,0,0,1,3.411-2.825,24.832,24.832,0,0,1,6.4-3.078l.5.188a2.954,2.954,0,0,0,.742,2.307,2.627,2.627,0,0,0,2.985.787,3.02,3.02,0,0,0,2.1-3.141c.375-.477.837-.294,1.311-.2,3.1.6,5.128,2.712,7.072,4.951a20.577,20.577,0,0,0,1.024,2.537C214.633,291.258,215.009,291.667,214.754,292.184Z" transform="translate(-25.877 -24.926)"/><path class="f" d="M192.228,321.351a5.867,5.867,0,0,0-4.087,5.941c-3.4-.66-4.917.456-5.241,3.908-.57,6.079-.687,12.179-.805,18.279-.068,3.512-.144,7.024-.16,10.536,0,.864-.275,1.146-1.132,1.079a15.506,15.506,0,0,0-2.9,0c-1.171.13-1.493-.262-1.449-1.435.134-3.554.184-7.111.189-10.668.008-5.489-.045-10.978-.08-16.467a17.687,17.687,0,0,1,.442-4.445c1.1-4.4,4.786-6.662,9.953-6.158.524.051,1.047.134,1.573.161.6.031.66-.288.421-.752l.447-.026C190.339,321.7,191.289,321.167,192.228,321.351Z" transform="translate(-22.712 -34.56)"/><path class="g" d="M118.724,241.045l-.708.025c0-.438.027-.879-.015-1.313-.09-.935.076-1.455,1.248-1.357a1.736,1.736,0,0,0,1.915-1.749,37.056,37.056,0,0,0-.3-6.729,2.325,2.325,0,0,0-1.185,1.676c-.075.294-.149.837-.247.843-2.14.119-1.314,1.187-.742,2.2.055.1-.008.257-.012.388-.066,1.992-1.193,3.084-3.57,3.456-2.5.391-2.5.391-2.57,2.661l-.763-.066c.43-3.4-1.223-6.272-2.41-9.242a3.019,3.019,0,0,1,.685-3.7c1.224-1.347,2.256-2.715,4.091-3.22a10.741,10.741,0,0,1,3.263-.225,8.485,8.485,0,0,0,3.877-.4c.675-.3,1.113-.028,1.372.731a3.728,3.728,0,0,1-.53,3.37,2.981,2.981,0,0,0-.43,2.069c.161,2.211.677,4.424.143,6.657-.21.877-.677,1.7-1.53,1.764C118.788,239,118.563,239.822,118.724,241.045Z" transform="translate(-5.655 -9.991)"/><path class="e" d="M149.848,237.022l.475-.791q18.579.01,37.16.044c.927,0,.944-.385.942-1.084-.015-10.1-.027-20.206.015-30.308,0-1-.347-1.11-1.2-1.109q-21.874.036-43.75,0c-.985,0-1.325.194-1.309,1.266.069,4.392.022,8.785.031,13.177q.016,8.233.053,16.467a1.083,1.083,0,0,1-.84.244q-.018-15.415-.051-30.83c0-.892.338-1.1,1.17-1.1q22.794.03,45.589,0c.914,0,1.218.264,1.215,1.193q-.039,15.877,0,31.753c0,.873-.312,1.139-1.157,1.138Q169.019,237.028,149.848,237.022Z" transform="translate(-13.839 -4.634)"/><path class="g" d="M215.64,283.079c-1.945-2.239-3.976-4.351-7.072-4.951-.474-.092-.936-.274-1.311.2a7.961,7.961,0,0,1-.7-4.8c.078-1.072,0-2.27,1.1-3.094.469-.354.364-.973-.365-1.174a7.716,7.716,0,0,1-3.659-2.208c-.3-.32-.453-.377-.8-.033a4.932,4.932,0,0,1-3.39,1.51c-.431.012-.639.132-.657.581a15.643,15.643,0,0,0,.347,4.818,2.507,2.507,0,0,0,1.423,1.631c1.294.6,1.5,1.267.885,2.819l-.5-.187c.05-.978.034-1.83-1.192-2.226a2.523,2.523,0,0,1-1.418-1.951,50.732,50.732,0,0,1-.795-6.073c-.288-2.246,1.9-4.622,4.235-5.174a5.13,5.13,0,0,1,5.629,3.11,3.083,3.083,0,0,0,1.995,1.93c1.7.616,2.248,1.679,2.133,3.482-.031.481-.052.964-.12,1.441a2.2,2.2,0,0,0,1.641,2.6c1.933.709,2.053.949,1.96,2.914a3.336,3.336,0,0,0,1.037,2.708C217.392,282.231,217.365,282.281,215.64,283.079Z" transform="translate(-28.037 -19.727)"/><path class="e" d="M158.456,259.071q8.039,0,16.079,0a2.634,2.634,0,0,1,2.969,2.96c.015,3.339-.017,6.678.016,10.017a2.372,2.372,0,0,1-1.3,2.384,1.165,1.165,0,0,0-.778,1.392c.105.866.108,1.743.173,2.614a.615.615,0,0,1-.324.659c-.3.132-.465-.122-.589-.371-.648-1.312-1.788-2.258-2.577-3.463-.424-.648-1.038-.532-1.641-.532H142.544c-2.375,0-3.256-.854-3.268-3.223-.016-2.987-.022-5.975,0-8.962.019-2.37,1.152-3.475,3.5-3.475ZM174.6,276.877c0-.809.007-1.422,0-2.034-.008-.477.061-.837.651-.946,1.116-.206,1.431-1.025,1.431-2.046,0-3.251.013-6.5-.007-9.753-.009-1.376-.543-1.963-1.892-1.966q-16.277-.028-32.553,0c-1.469,0-1.946.538-1.951,2.009-.009,3.119,0,6.239,0,9.358,0,2.087.35,2.438,2.45,2.439,8.611,0,17.223.084,25.831-.052,2.458-.039,4.477.22,5.649,2.64C174.256,276.621,174.38,276.68,174.6,276.877Z" transform="translate(-13.304 -18.818)"/><path class="c" d="M221.4,261.215c0-2.742.005-5.483-.005-8.225,0-.505.294-.547.681-.546,3.9,0,7.808.01,11.712-.005.524,0,.676.2.672.7-.018,1.886-.037,3.773.007,5.658.02.837-.481.761-1.02.76-2.456-.005-4.913.012-7.369-.007C224.35,259.533,222.529,259.224,221.4,261.215Zm11.237-3.692,0-.255h-8.86l0,.255Zm-.21-1.236.02-.353h-8.478A45.854,45.854,0,0,0,232.43,256.287Zm-.052-1.506.034-.173H223.95l0,.173Z" transform="translate(-34.08 -17.141)"/><path class="c" d="M196.612,320.63c-.939-.184-1.889.347-2.825-.045.191-.6.947-1.011.631-1.794.3-.471.785-.307,1.2-.307q8.926,0,17.852.028a1.554,1.554,0,0,1,1.233.29c-.157.846.356,1.525.569,2.279l-.392.119a119.344,119.344,0,0,0-15.535-.6Z" transform="translate(-27.096 -33.84)"/><path class="c" d="M270.884,187.462l.129-.1-.1.129Z" transform="translate(-46.597 -0.682)"/><path class="c" d="M270.531,187.758l.264-.264.034.034-.264.264Z" transform="translate(-46.507 -0.714)"/><path class="c" d="M270.475,187.881l-.264.263-.034-.032.264-.264Z" transform="translate(-46.418 -0.804)"/><path class="c" d="M270.122,188.233l-.264.264-.034-.032.264-.264Z" transform="translate(-46.329 -0.893)"/><path class="c" d="M269.119,189.168l.27-.27.032.033-.27.269Z" transform="translate(-46.15 -1.069)"/><path class="c" d="M268.413,189.874l.27-.27.032.033-.269.269Z" transform="translate(-45.972 -1.248)"/><path class="c" d="M268.431,190l-.077.1.045-.134Z" transform="translate(-45.957 -1.339)"/><path class="c" d="M266.651,191.347l.127-.1-.095.128Z" transform="translate(-45.526 -1.665)"/><path class="c" d="M264.539,193.521l-.128.1.1-.128Z" transform="translate(-44.959 -2.23)"/><path class="c" d="M264.539,193.4l.264-.264.033.033-.264.264Z" transform="translate(-44.992 -2.141)"/><path class="c" d="M264.892,193.046l.264-.263.033.032-.264.264Z" transform="translate(-45.081 -2.052)"/><path class="c" d="M268.774,189.517l.258-.258.033.032-.258.258Z" transform="translate(-46.063 -1.161)"/><path class="c" d="M265.542,192.462l-.264.264-.033-.032.264-.264Z" transform="translate(-45.17 -1.963)"/><path class="c" d="M269.772,188.586l-.259.258-.032-.033.257-.258Z" transform="translate(-46.242 -0.982)"/><path class="c" d="M266.247,191.757l-.27.269-.032-.032.27-.27Z" transform="translate(-45.347 -1.784)"/><path class="c" d="M266.6,191.411l-.258.258-.033-.033.258-.258Z" transform="translate(-45.439 -1.697)"/><path class="c" d="M265.6,192.343l.258-.258.032.032-.258.258Z" transform="translate(-45.26 -1.876)"/><path class="h" d="M119.4,289.179c.467,4.935.673,9.885.9,14.834.485,10.441.607,20.889.5,31.338-.059,5.966-.337,11.93-.5,17.894-.019.694-.163,1.085-.982,1.18a26.592,26.592,0,0,1-7.6-.255c-.684-.116-.787-.415-.815-1.029-.354-7.666-.75-15.33-1.115-23-.425-8.938-.82-17.877-1.261-26.814-.034-.673.307-1.835-.542-1.893-.763-.052-.557,1.149-.652,1.772-2.049,13.533-4.725,26.945-7.71,40.3-.784,3.507-1.673,6.99-2.479,10.491a1.168,1.168,0,0,1-1.186,1.088,24.743,24.743,0,0,1-7.2-.374c-.71-.15-.978-.276-.818-1.149,1.8-9.832,3.53-19.676,5.277-29.517q3.023-17.03,6.044-34.06A101.03,101.03,0,0,0,119.4,289.179Z" transform="translate(-0.313 -26.434)"/><path class="f" d="M142.537,234.945q-.028-8.233-.053-16.467c-.009-4.393.038-8.785-.031-13.177-.016-1.071.323-1.268,1.309-1.266q21.875.044,43.75,0c.855,0,1.206.111,1.2,1.109-.042,10.1-.03,20.205-.015,30.308,0,.7-.015,1.087-.942,1.084q-18.581-.064-37.16-.044,1.313-2.524,2.627-5.048,1.966.024,3.932.046c.348,0,.722.037.9-.37a5.851,5.851,0,0,0,.534-2.443c-.037-2.578.055-5.157.037-7.736,0-.518.207-1.165-.408-1.551-.078-.973.51-2.311-1.366-2.215.176-.453.3-.778.425-1.1.178-.446.468-.974-.01-1.316-.536-.383-.854.19-1.161.521-.444.479-.852.992-1.262,1.5-.59.733-1.437.582-2.2.566-.234,0-.485-.545-.869-.289s-.265.693-.222,1.08l.493,4.423a1.287,1.287,0,0,0-1.6.746,14.5,14.5,0,0,1-1.132,1.606c-.471,0-.941.006-1.411-.008-.491-.015-.736.225-.7.7a7.593,7.593,0,0,0,.152,2.536q-2.083,3.251-4.167,6.5A.562.562,0,0,1,142.537,234.945Zm18.086-4.358a5.771,5.771,0,0,0-.906.076.533.533,0,0,0-.33.338.4.4,0,0,0,.344.475c1.576-.1,3.188.4,4.728-.278.625-.33.594-.964.707-1.53h.123c.318.638.982.272,1.442.5l-.059.421a7.265,7.265,0,0,0-1.023.087.48.48,0,0,0-.27.369c0,.134.155.387.247.389a14.324,14.324,0,0,0,4.707-.161c.067-.021.074-.234.108-.357l.828-.12c-.1.294.054.633.268.632,1.6-.007,3.224.446,4.79-.229a1.5,1.5,0,0,0,.626-1.176c-.048-3.415-.025-6.83-.022-10.246,0-.406.04-.817-.543-.835.18-1.455-.5-1.907-1.873-1.694a7.7,7.7,0,0,1-1.957,0c-1.046-.111-1.5.2-1.419,1.348.094,1.342,0,2.7-.01,4.048l-.613-.036c.159-1.49-.567-1.912-1.947-1.72a12.568,12.568,0,0,1-2.341.01c-.663-.033-.949.193-.924.889.031.865-.024,1.733-.043,2.6l-.075,0-.583-.047c-.106-2.131-.17-1.721-1.871-1.764-.658-.016-1.322.049-1.974-.014-1.051-.1-1.515.222-1.444,1.377a37.98,37.98,0,0,1,0,4.738c-.072,1.115.367,1.506,1.393,1.451Zm18.16-.406c-.073.273-.3.279-.517.286-.407.012-.9.029-.882.545.025.648.618.477,1.023.484.965.019,1.932-.019,2.9.013a1.448,1.448,0,0,0,1.679-1.625c.019-5.707.01-11.414.006-17.12,0-.326.126-.745-.43-.769.155-1.28-.318-1.859-1.684-1.652a8.654,8.654,0,0,1-2.237,0c-1.149-.13-1.4.383-1.39,1.434.041,5.537.055,11.076-.009,16.613C177.227,229.6,177.5,230.246,178.784,230.181Zm5.572-21.322c.255.01.66.111.709-.415.038-.415-.185-.634-.6-.708-.648-.114-1.283-.314-1.933-.393a11.881,11.881,0,0,0-6.957.835,23.01,23.01,0,0,0-6.2,5.123c-2.339,2.518-5.03,2.769-7.964,1.006-1.052-.633-2.054-1.348-3.115-1.963a11,11,0,0,0-12.246.834c-.287.222-.675.436-.413.814s.622.111.923-.086c.256-.169.517-.332.784-.483a10.512,10.512,0,0,1,7.56-1.458c2.166.461,3.882,1.783,5.7,2.908a7.954,7.954,0,0,0,5.087,1.4c2.4-.238,3.939-1.772,5.4-3.438,3.067-3.5,6.831-5.093,11.5-4.284Z" transform="translate(-14.112 -4.898)"/><path class="d" d="M155.114,226.154l-.493-4.423c-.043-.387-.166-.822.222-1.08s.635.285.869.289c.758.016,1.605.167,2.2-.566.41-.509.818-1.022,1.262-1.5.307-.331.625-.9,1.161-.521.477.341.188.87.01,1.316-.128.321-.25.645-.425,1.1,1.875-.1,1.287,1.242,1.365,2.215-.439.648.583,1.166.16,1.82a4.43,4.43,0,0,0-.387,2.554c-.008,1.707-.034,3.415.011,5.121.021.8-.263,1.1-1.062,1.056-.96-.049-1.925-.006-2.888,0-.093-.568.179-.807.722-.805a10.4,10.4,0,0,1,1.3.007c.921.121,1.205-.239,1.164-1.156-.072-1.591-.02-3.188-.02-4.751-1.05-.235-1.156,2.04-2.444.74.641-.661,1.3-1.307,1.919-1.986,1.239-1.357,1.179-1.709-.646-2.143-1.15-.273-1.357-.713-.772-1.66,0-.107-.007-.214-.01-.32l-.224.158c-.347.432-.937.836-.991,1.3-.106.909-1.452.22-1.338,1.215.087.769.137,1.541.2,2.312A1.33,1.33,0,0,1,155.114,226.154Zm5.141-3.82c-.043-.266.09-.639-.41-.631-.344.006-.61.119-.665.477-.081.534.4.451.684.567C160.31,222.927,160.219,222.57,160.255,222.334Z" transform="translate(-17.176 -8.487)"/><path class="i" d="M113.731,243.093c.072-2.27.072-2.27,2.57-2.661,2.377-.372,3.5-1.464,3.57-3.456,0-.131.066-.292.012-.388-.572-1.01-1.4-2.078.742-2.2.1-.005.172-.548.247-.843a2.325,2.325,0,0,1,1.185-1.676,37.055,37.055,0,0,1,.3,6.729,1.736,1.736,0,0,1-1.915,1.749c-1.172-.1-1.338.422-1.248,1.357.042.434.012.875.015,1.313A6.523,6.523,0,0,1,113.731,243.093Z" transform="translate(-6.847 -11.939)"/><path class="a" d="M157.7,235.14c.963,0,1.928-.046,2.888,0,.8.041,1.083-.252,1.062-1.056-.046-1.706-.019-3.414-.011-5.121a4.43,4.43,0,0,1,.387-2.554c.424-.654-.6-1.171-.16-1.82.616.386.406,1.033.409,1.551.017,2.579-.075,5.158-.037,7.736a5.851,5.851,0,0,1-.534,2.443c-.174.407-.548.373-.9.37q-1.966-.019-3.932-.046C156.895,236.007,157.367,235.613,157.7,235.14Z" transform="translate(-17.759 -10.098)"/><path class="i" d="M156.389,227.588c-.066-.771-.116-1.543-.2-2.312-.114-1,1.232-.306,1.338-1.215.054-.466.643-.87.991-1.3l.234.163c-.585.947-.377,1.387.772,1.66,1.825.435,1.886.787.646,2.143-.62.68-1.278,1.325-1.919,1.986Z" transform="translate(-17.584 -9.634)"/><path class="e" d="M148.961,235.209a7.593,7.593,0,0,1-.152-2.536c-.035-.472.21-.712.7-.7.47.014.941.007,1.411.008C149.852,232.807,149.815,234.256,148.961,235.209Z" transform="translate(-15.711 -11.965)"/><path class="j" d="M191.838,315c13.755,0,27.51.016,41.265-.029,1.167,0,1.441.277,1.439,1.44q-.043,23.2.044,46.4c0,1.109-.274,1.362-1.36,1.345q-6.854-.1-13.71,0c-1.075.015-1.379-.22-1.376-1.345.043-14.678.011-29.355.059-44.033,0-1.325-.323-1.71-1.676-1.708q-32.5.063-64.995,0c-1.285,0-1.613.377-1.609,1.636q.063,21.95.027,43.9c0,.308,0,.616,0,.923,0,.337-.046.619-.489.577-.386-.036-.327-.332-.338-.579-.01-.264,0-.527,0-.791q0-23.2-.026-46.406c0-1.085.241-1.371,1.351-1.368C164.24,315.016,178.039,315,191.838,315Z" transform="translate(-15.791 -32.958)"/><path class="i" d="M205.046,305.474c3.017-.166,6.034-.369,9.054-.476.9-.031,1.016-.278.754-1.073-.713-2.161-1.324-4.358-2.058-6.512-.279-.817-.069-1.05.725-1.187,1.682-.288,3.347-.672,5.019-1.016-.365.551.022,1.014.208,1.477.86,2.146,1.774,4.272,2.612,6.426a10.1,10.1,0,0,1,.688,2.518c.323,2.961-.2,3.717-3.061,3.435-4.1-.4-8.2-.388-12.31-.416-.593,0-.861-.193-.983-.772C205.522,307.067,205.266,306.275,205.046,305.474Z" transform="translate(-29.944 -27.96)"/><path class="i" d="M181.173,311.932c-1.216,0-2.307-.049-3.391.017a.959.959,0,0,1-1.139-.927,3.145,3.145,0,0,1,.645-2.574c.552-.723,1.121-1.434,1.8-2.293C180.026,308.084,180.422,310.014,181.173,311.932Z" transform="translate(-22.745 -30.728)"/><path class="f" d="M199.225,321.3a119.338,119.338,0,0,1,15.535.6c-.034.127-.08.251-.1.38-.8,4.422-.987,4.571-5.356,4.583-1.972.006-3.944.072-5.916.075-2.19,0-3.83.843-4.594,2.989a.733.733,0,0,1-.844.589c-.876-.028-1.755.007-2.632-.011-2.188-.043-1.575.343-1.889-1.816-.043-.3-.01-.607-.048-.906-.383-3.027,1.085-5.048,4.064-5.768C198.038,321.873,198.929,322.254,199.225,321.3Z" transform="translate(-26.978 -34.542)"/><path class="f" d="M206.676,344.711c0-1.8.028-3.6-.016-5.392-.016-.688.193-.919.885-.9,1.357.046,2.722.072,4.076-.008.82-.048,1.143.25,1.311,1.012.812,3.672,1.641,7.34,2.521,11,.164.686.03.82-.625.812-2.412-.027-4.825-.047-7.235.01-.821.019-.929-.355-.923-1.009C206.688,348.394,206.677,346.553,206.676,344.711Z" transform="translate(-30.352 -38.886)"/><path class="h" d="M198.9,344.966c0,1.753-.053,3.508.022,5.258.037.855-.253,1.034-1.034.988-1.136-.066-2.279-.05-3.417,0-.657.027-.884-.132-.9-.852-.067-3.724.193-7.44.236-11.16.005-.48.114-.763.655-.692a2.554,2.554,0,0,0,.262,0c1.311.026,3.017-.435,3.823.217.824.666.2,2.453.3,3.745.062.828.012,1.665.012,2.5Z" transform="translate(-27.04 -38.877)"/><path class="i" d="M188.974,333.044c-.4-.315.1-1.209-.7-1.078-.562.093-.366.716-.383,1.121q-.341,8.016-.657,16.033-.261,6.436-.526,12.87c-.022.53.193,1.1-.787,1.1s-.787-.562-.785-1.1c.024-7.2.205-14.4.5-21.595a75.536,75.536,0,0,1,.554-7.743c.313-2.159,1.4-2.913,3.282-2.615,1.286.2,1.093,1.1,1.235,1.945.18,1.068-.639.62-1.062.781C189.408,332.857,189.178,332.96,188.974,333.044Z" transform="translate(-24.903 -36.754)"/><path class="i" d="M199.118,363.811c0,1.887-.017,3.775.012,5.661.007.48-.166.627-.6.587-.087-.007-.176,0-.264,0-1.225-.03-2.76.374-3.587-.215-.793-.566-.279-2.211-.383-3.378-.255-2.829-.431-5.665-.655-8.5-.034-.433.047-.693.54-.652.087.007.176.008.263.01,1.44.032,3.292-.469,4.209.24,1,.769.249,2.713.344,4.141.046.7.008,1.4.008,2.1Z" transform="translate(-27.058 -43.635)"/><path class="k" d="M204.657,344.9c0,1.846-.051,3.694.018,5.537.046,1.23-.812.764-1.336.77s-1.336.44-1.33-.779c.021-3.644-.013-7.291-.126-10.933-.043-1.353.84-.9,1.474-.938s1.4-.286,1.328.94C204.574,341.289,204.657,343.1,204.657,344.9Z" transform="translate(-29.144 -38.911)"/><path class="i" d="M202.072,363.645c0-1.8.062-3.6-.021-5.393-.06-1.278.806-.841,1.4-.873s1.292-.262,1.272.87c-.064,3.64-.059,7.282,0,10.923.019,1.221-.8.743-1.333.781s-1.241.288-1.2-.787c.073-1.838.02-3.68.02-5.52Z" transform="translate(-29.186 -43.672)"/><path class="i" d="M214.619,329.809c-1.306,1.971-2.79,3.269-5.234,2.889a6.314,6.314,0,0,0-2.484.022c-.864.223-1.507-.888-2.137-.385-.744.595-1.466.2-2.18.332s-.827-.222-.551-.813a3.329,3.329,0,0,1,3.124-2.029C208.262,329.771,211.367,329.809,214.619,329.809Z" transform="translate(-29.146 -36.708)"/><path class="i" d="M189.037,348.339a1.994,1.994,0,0,1-.231-1.688c.569-2.4.362-4.855.494-7.281.058-1.076.612-.986,1.266-.929.973.086.423.765.365,1.164-.37,2.568-1.292,5.039-1.348,7.672A1.193,1.193,0,0,1,189.037,348.339Z" transform="translate(-25.815 -38.887)"/><path class="i" d="M198.834,376.381h-3.155c-.353,0-.707.048-.708-.5s.359-.5.711-.5q3.286,0,6.572,0c.373,0,.691,0,.7.524.014.582-.378.473-.705.475C201.113,376.385,199.973,376.381,198.834,376.381Z" transform="translate(-27.396 -48.237)"/><path class="i" d="M180.6,375.379c1.053,0,2.107-.011,3.159.007.308.005.761-.14.7.47-.044.471-.326.531-.723.529-2.195-.011-4.389-.007-6.584,0-.335,0-.592-.019-.557-.481.03-.4.2-.527.577-.524C178.314,375.386,179.456,375.38,180.6,375.379Z" transform="translate(-22.747 -48.236)"/><path class="i" d="M190.186,353c.56-2.919,1.063-5.542,1.567-8.167l.18.024c0,2.5.081,5-.037,7.486C191.844,353.427,190.855,352.552,190.186,353Z" transform="translate(-26.185 -40.512)"/><path class="f" d="M201.852,279.775c.617-1.552.409-2.219-.885-2.819a2.507,2.507,0,0,1-1.423-1.631,15.643,15.643,0,0,1-.347-4.818c.017-.449.226-.569.657-.581a4.932,4.932,0,0,0,3.39-1.51c.349-.344.5-.288.8.033a7.717,7.717,0,0,0,3.659,2.208c.728.2.834.82.365,1.174-1.093.824-1.017,2.022-1.1,3.094a7.961,7.961,0,0,0,.7,4.8,3.02,3.02,0,0,1-2.1,3.141,2.627,2.627,0,0,1-2.985-.787A2.954,2.954,0,0,1,201.852,279.775Z" transform="translate(-28.455 -21.123)"/><path class="f" d="M174.948,277.232c-.224-.2-.347-.256-.394-.353-1.171-2.42-3.191-2.679-5.649-2.64-8.608.136-17.221.054-25.831.052-2.1,0-2.45-.353-2.45-2.439,0-3.119-.007-6.239,0-9.358,0-1.471.481-2.007,1.951-2.009q16.277-.025,32.553,0c1.348,0,1.883.589,1.892,1.966.019,3.25,0,6.5.007,9.753,0,1.021-.315,1.84-1.431,2.046-.591.109-.66.469-.651.946C174.955,275.81,174.948,276.423,174.948,277.232ZM154.5,267.013c-.85-.436-1.679-.921-2.555-1.3a12.023,12.023,0,0,0-8.717-.226c-.314.1-.808.111-.684.6.141.557.622.321.991.254.17-.031.329-.124.5-.162,3.507-.79,6.855-.675,9.79,1.749-.371.543-.728,1.1-1.115,1.627a2.379,2.379,0,0,1-3.527.837c-.809-.43-1.54-1.006-2.316-1.5-2.34-1.5-3.839-.905-4.541,1.789-.363,1.393-.3,1.477,1.121,1.478h32.609a10.162,10.162,0,0,0-2.179-3.466,2.213,2.213,0,0,0-3.272-.143c-.4.341-.773.716-1.143,1.09-1.558,1.576-2.822,1.614-4.391.07a18.5,18.5,0,0,1-1.256-1.515,9.874,9.874,0,0,1,4.55-2.187,12.884,12.884,0,0,1,5.982.3c.3.086.751.27.893-.218s-.306-.544-.631-.645a15.543,15.543,0,0,0-3.623-.568c-2.952-.194-5.467.95-7.87,2.477a12.77,12.77,0,0,0-1.792-2.4,3.12,3.12,0,0,0-4.632-.477A5.847,5.847,0,0,0,154.5,267.013Z" transform="translate(-13.648 -19.173)"/><ellipse class="l" cx="6.265" cy="0.181" rx="6.265" ry="0.181" transform="translate(187.863 240.073)"/><path class="g" d="M233.3,257.47a45.856,45.856,0,0,1-8.458-.353h8.478Z" transform="translate(-34.952 -18.324)"/><path class="g" d="M233.242,255.515h-8.43v-.173h8.463Z" transform="translate(-34.943 -17.876)"/><path class="e" d="M185.4,209.926l-1.771-.309c-4.666-.809-8.431.787-11.5,4.284-1.461,1.666-3,3.2-5.4,3.438a7.954,7.954,0,0,1-5.087-1.4c-1.82-1.125-3.536-2.447-5.7-2.908a10.512,10.512,0,0,0-7.56,1.458c-.267.151-.528.314-.784.483-.3.2-.666.457-.923.086s.126-.592.413-.814a11,11,0,0,1,12.246-.834c1.062.614,2.063,1.33,3.115,1.963,2.934,1.764,5.625,1.512,7.964-1.006a23.01,23.01,0,0,1,6.2-5.123,11.881,11.881,0,0,1,6.957-.835c.651.079,1.286.279,1.933.393.418.074.64.294.6.708C186.063,210.036,185.658,209.935,185.4,209.926Z" transform="translate(-15.158 -5.965)"/><path class="l" d="M190.562,232.3c-1.283.065-1.558-.585-1.543-1.786.064-5.537.05-11.076.009-16.613-.007-1.051.241-1.564,1.39-1.434a8.654,8.654,0,0,0,2.237,0c1.366-.206,1.839.372,1.683,1.653-.012,5.557-.055,11.113-.011,16.669.009,1.124-.362,1.458-1.428,1.4A5.478,5.478,0,0,0,190.562,232.3Zm2.7-18.18c.082-.338.247-.748-.319-.772-.832-.037-1.667-.01-2.5-.008-.481,0-.4.363-.4.654q0,8.361-.006,16.721c0,.377.095.592.519.5.567.012,1.139-.01,1.7.046.777.077,1.071-.179,1.064-1.01C193.271,224.873,193.273,219.5,193.259,214.123Z" transform="translate(-25.89 -7.02)"/><path class="l" d="M180.836,227.106c.011-1.351.1-2.707.01-4.049-.081-1.147.373-1.459,1.419-1.348a7.7,7.7,0,0,0,1.957,0c1.372-.212,2.053.239,1.873,1.694-.226,2.447-.072,4.9-.09,7.349-.031,3.986-.007,3.956-4.048,3.727-.888-.05-1.1-.368-1.085-1.187C180.9,231.228,180.853,229.167,180.836,227.106Zm4.278-3.643c.186-.569.113-.935-.619-.9a15.6,15.6,0,0,1-1.831,0c-.6-.038-.861.145-.855.8.025,3.184.01,6.368.011,9.552,0,.35-.048.746.521.627.613.013,1.227,0,1.836.049.71.059,1.016-.161,1-.938C185.127,229.59,185.131,226.527,185.114,223.464Z" transform="translate(-23.82 -9.355)"/><path class="l" d="M174.453,235.861c-.459-.227-1.124.139-1.442-.5q-.015-2.639-.029-5.278c.019-.867.073-1.735.043-2.6-.025-.7.261-.922.924-.889a12.568,12.568,0,0,0,2.341-.01c1.38-.191,2.106.231,1.948,1.72,0,1.434-.011,2.867-.012,4.3,0,3.191,0,3.19-3.123,3.216C174.886,235.823,174.67,235.847,174.453,235.861Zm-.009-1.074c.607.011,1.218-.023,1.818.044.868.1,1.115-.253,1.085-1.094-.068-1.818-.043-3.639-.057-5.458.032-.365.252-.825-.429-.822-.788,0-1.578.022-2.365-.005-.626-.022-.561.389-.561.787q0,2.957,0,5.914C173.936,234.5,173.867,234.9,174.444,234.786Z" transform="translate(-21.834 -10.591)"/><path class="c" d="M174.931,235.215c.217-.013.433-.037.649-.039,3.123-.026,3.121-.025,3.123-3.216,0-1.434.008-2.867.012-4.3l.612.037c.017,2.061.067,4.122.036,6.183-.013.82.2,1.137,1.085,1.187,4.041.229,4.017.259,4.048-3.727.019-2.45-.135-4.9.09-7.349.583.018.544.43.543.835,0,3.416-.026,6.831.022,10.246a1.5,1.5,0,0,1-.626,1.176c-.084-.511-.458-.58-.879-.572a24.657,24.657,0,0,0-4.18.169l-.828.12c-1.21-.63-2.521-.1-3.767-.328Z" transform="translate(-22.312 -9.945)"/><path class="l" d="M166.409,236.4c-1.026.055-1.466-.335-1.393-1.451a37.977,37.977,0,0,0,0-4.738c-.071-1.155.393-1.477,1.444-1.377.653.063,1.316,0,1.974.014,1.7.043,1.765-.367,1.871,1.764-.015,1.52-.063,3.039-.031,4.558.017.849-.315,1.166-1.151,1.145C168.22,236.3,167.314,236.372,166.409,236.4Zm.063-1.024a14.564,14.564,0,0,1,1.556.059c1.055.148,1.357-.309,1.283-1.31-.086-1.164-.044-2.337-.058-3.506.071-.332.27-.749-.315-.773-.829-.034-1.662,0-2.493-.011-.426-.005-.5.244-.5.591,0,1.531,0,3.063,0,4.594C165.948,235.394,166.17,235.447,166.471,235.379Z" transform="translate(-19.817 -11.167)"/><path class="c" d="M190.611,232.876a5.478,5.478,0,0,1,2.336-.121c1.067.062,1.437-.272,1.428-1.4-.043-5.556,0-11.113.011-16.669.557.024.431.443.431.769,0,5.707.013,11.414-.006,17.12a1.448,1.448,0,0,1-1.679,1.625c-.965-.032-1.932.007-2.9-.013-.4-.007-1,.164-1.023-.484-.021-.516.474-.533.882-.545C190.312,233.155,190.538,233.149,190.611,232.876Z" transform="translate(-25.939 -7.593)"/><path class="c" d="M166.856,237.012c.905-.032,1.812-.108,2.716-.084.836.021,1.168-.3,1.151-1.145-.031-1.519.016-3.038.031-4.558l.583.047q-.009,2.637-.018,5.275c-.114.566-.083,1.2-.708,1.53-.13-.668-.66-.561-1.121-.572-.9-.019-1.809-.028-2.713-.04Z" transform="translate(-20.264 -11.775)"/><path class="g" d="M174.434,239.579c1.246.224,2.557-.3,3.767.328-.034.122-.041.335-.108.356a14.323,14.323,0,0,1-4.706.161c-.092,0-.249-.255-.247-.389a.48.48,0,0,1,.27-.369A7.265,7.265,0,0,1,174.434,239.579Z" transform="translate(-21.874 -13.888)"/><path class="g" d="M166.355,239.577c.9.013,1.809.021,2.713.04.461.01.991-.1,1.121.572-1.539.677-3.152.175-4.727.278a.4.4,0,0,1-.344-.475.533.533,0,0,1,.33-.338A5.772,5.772,0,0,1,166.355,239.577Z" transform="translate(-19.843 -13.888)"/><path class="g" d="M181.013,239.8a24.659,24.659,0,0,1,4.18-.169c.421-.008.794.061.879.572-1.566.675-3.191.222-4.79.229C181.067,240.431,180.917,240.092,181.013,239.8Z" transform="translate(-23.858 -13.9)"/><path class="i" d="M172.857,236.561q.009-2.638.018-5.275l.075,0q.015,2.639.029,5.278Z" transform="translate(-21.802 -11.79)"/><path class="i" d="M161.813,223.511c-.036.236.055.593-.391.412-.285-.116-.764-.033-.684-.567.055-.358.321-.471.665-.477C161.9,222.872,161.77,223.245,161.813,223.511Z" transform="translate(-18.734 -9.665)"/><path class="i" d="M159.3,222.7l.224-.158c0,.107.006.214.01.32Z" transform="translate(-18.374 -9.58)"/><path class="c" d="M164.332,270.711a18.5,18.5,0,0,0,1.256,1.515c1.569,1.543,2.834,1.506,4.391-.07.37-.374.743-.749,1.143-1.09a2.213,2.213,0,0,1,3.272.143,10.163,10.163,0,0,1,2.179,3.466H143.965c-1.423,0-1.484-.085-1.121-1.478.7-2.695,2.2-3.288,4.541-1.789.775.5,1.507,1.071,2.316,1.5a2.379,2.379,0,0,0,3.527-.837c.386-.531.744-1.084,1.115-1.627a18.824,18.824,0,0,0,3.467,1.824C160.281,272.96,162.343,272,164.332,270.711Z" transform="translate(-14.163 -21.687)"/><path class="l" d="M164.463,269.656c-1.989,1.293-4.051,2.249-6.523,1.557a18.822,18.822,0,0,1-3.467-1.824c-2.934-2.423-6.282-2.539-9.79-1.749-.17.038-.329.131-.5.162-.369.067-.849.3-.991-.254-.124-.489.37-.5.684-.6a12.022,12.022,0,0,1,8.717.226c.876.376,1.7.862,2.556,1.3,2.672,2.571,5.728,2.695,8.614.348,2.4-1.526,4.918-2.671,7.87-2.477a15.541,15.541,0,0,1,3.623.568c.325.1.772.158.631.645s-.588.3-.893.218a12.885,12.885,0,0,0-5.982-.3A9.874,9.874,0,0,0,164.463,269.656Z" transform="translate(-14.294 -20.633)"/><path class="c" d="M167.818,268.443c-2.885,2.347-5.942,2.223-8.614-.348a5.84,5.84,0,0,1,2.19-2.533,3.12,3.12,0,0,1,4.632.477A12.771,12.771,0,0,1,167.818,268.443Z" transform="translate(-18.349 -20.255)"/><path class="m" d="M193.778,214.7c.013,5.375.012,10.75.058,16.125.007.831-.287,1.087-1.064,1.01-.563-.056-1.135-.034-1.7-.046q0-7.18.005-14.359C191.076,214.7,191.075,214.7,193.778,214.7Z" transform="translate(-26.409 -7.595)"/><path class="i" d="M193.6,214.43c-2.7,0-2.7,0-2.7,2.73q0,7.18-.005,14.359c-.424.1-.52-.118-.519-.5q.009-8.361.006-16.721c0-.291-.08-.653.4-.654.834,0,1.669-.028,2.5.008C193.849,213.682,193.685,214.092,193.6,214.43Z" transform="translate(-26.233 -7.327)"/><path class="m" d="M185.623,224.075c.017,3.063.013,6.126.066,9.189.013.777-.294,1-1,.938-.61-.05-1.224-.035-1.836-.049q0-3.688,0-7.375C182.853,224.054,182.853,224.054,185.623,224.075Z" transform="translate(-24.33 -9.966)"/><path class="i" d="M185.443,223.77c-2.77-.021-2.77-.021-2.77,2.7q0,3.688,0,7.375c-.569.12-.521-.277-.521-.627,0-3.184.013-6.368-.011-9.552-.005-.653.253-.836.855-.8a15.6,15.6,0,0,0,1.831,0C185.556,222.835,185.629,223.2,185.443,223.77Z" transform="translate(-24.149 -9.662)"/><path class="c" d="M177.785,228.866c.013,1.819-.011,3.64.057,5.458.031.842-.217,1.192-1.085,1.094-.6-.067-1.211-.033-1.818-.044,0-1.224.01-2.447.01-3.67C174.951,228.891,174.949,228.891,177.785,228.866Z" transform="translate(-22.329 -11.179)"/><path class="i" d="M177.611,228.586c-2.835.025-2.834.025-2.835,2.838,0,1.224-.007,2.447-.01,3.67-.577.116-.508-.29-.508-.634q0-2.957,0-5.914c0-.4-.065-.809.561-.787.787.027,1.577.009,2.365.005C177.863,227.761,177.644,228.22,177.611,228.586Z" transform="translate(-22.156 -10.899)"/><path class="m" d="M169.748,231.232c.014,1.169-.028,2.342.058,3.506.074,1-.229,1.458-1.283,1.31a14.564,14.564,0,0,0-1.556-.059q0-.984,0-1.969C166.968,231.232,166.968,231.232,169.748,231.232Z" transform="translate(-20.312 -11.777)"/><path class="i" d="M169.57,230.965c-2.781,0-2.781,0-2.781,2.789q0,.985,0,1.969c-.3.067-.523.014-.524-.357,0-1.531,0-3.062,0-4.594,0-.347.074-.6.5-.591.831.011,1.664-.022,2.493.011C169.84,230.216,169.641,230.633,169.57,230.965Z" transform="translate(-20.134 -11.51)"/></g></svg>