<svg xmlns="http://www.w3.org/2000/svg" width="396.653" height="239.561" viewBox="0 0 396.653 239.561"><defs><style>.a{fill:#f5f5f5;}.b{fill:#e0e0e0;}.c{fill:#ebebeb;}.d{fill:#fff;}.e{fill:#fafafa;}.f{fill:#2680eb;}.g{fill:#75c6fa;}.h{opacity:0.3;}.i{fill:#263238;}.j{fill:#f2f2f2;}.k{fill:#455a64;}.l{fill:#c4c9ce;}.m{fill:none;stroke:#4e585d;stroke-miterlimit:10;}.n{fill:#0048cd;}.o{fill:#0a437d;}</style></defs><g transform="translate(-38.04 -44.625)"><g transform="translate(43.115 44.624)"><g transform="translate(336.572 46.185)"><g transform="translate(0 4.635)"><path class="a" d="M626.763,137.031c-2.421,6.062-6.3,15.862-8.078,20.364a2.589,2.589,0,0,0,1.451,3.357l16.561,6.6a2.59,2.59,0,0,0,3.364-1.448l8.035-20.175a5.749,5.749,0,0,0-3.214-7.469h0l1.182-2.968-10.845-4.32-1.118,2.806-.04-.015A5.749,5.749,0,0,0,626.763,137.031Z" transform="translate(-618.504 -130.969)"/></g><g transform="translate(16.028 5.013)"><path class="b" d="M646.274,131.61l-.537,1.349,10.692,4.7.691-1.734Z" transform="translate(-645.736 -131.61)"/></g><g transform="translate(14.976)"><path class="c" d="M2.992,0h8.42A2.992,2.992,0,0,1,14.4,2.992v.873A1.931,1.931,0,0,1,12.472,5.8H1.931A1.931,1.931,0,0,1,0,3.864V2.992A2.992,2.992,0,0,1,2.992,0Z" transform="matrix(0.929, 0.37, -0.37, 0.929, 2.144, 0)"/></g><g transform="translate(16.67 0.726)"><path class="b" d="M646.836,129.688a13.721,13.721,0,0,1,.925-2.736,13.678,13.678,0,0,1,1.209-2.623,13.685,13.685,0,0,1-.925,2.736A13.681,13.681,0,0,1,646.836,129.688Z" transform="translate(-646.827 -124.328)"/></g><g transform="translate(18.1 1.296)"><path class="b" d="M649.265,130.655a27.231,27.231,0,0,1,2.134-5.36,13.7,13.7,0,0,1-.925,2.737A13.769,13.769,0,0,1,649.265,130.655Z" transform="translate(-649.256 -125.295)"/></g><g transform="translate(19.529 1.865)"><path class="b" d="M651.693,131.622a27.183,27.183,0,0,1,2.135-5.36A13.73,13.73,0,0,1,652.9,129,13.723,13.723,0,0,1,651.693,131.622Z" transform="translate(-651.684 -126.262)"/></g><g transform="translate(20.958 2.434)"><path class="b" d="M654.121,132.589a27.183,27.183,0,0,1,2.135-5.36,13.712,13.712,0,0,1-.925,2.737A13.657,13.657,0,0,1,654.121,132.589Z" transform="translate(-654.112 -127.229)"/></g><g transform="translate(22.387 3.004)"><path class="b" d="M656.549,133.557a27.24,27.24,0,0,1,2.135-5.36,13.7,13.7,0,0,1-.925,2.736A13.727,13.727,0,0,1,656.549,133.557Z" transform="translate(-656.54 -128.197)"/></g><g transform="translate(23.817 3.573)"><path class="b" d="M658.978,134.524a27.232,27.232,0,0,1,2.134-5.36,13.662,13.662,0,0,1-.925,2.736A13.783,13.783,0,0,1,658.978,134.524Z" transform="translate(-658.969 -129.164)"/></g><g transform="translate(25.246 4.142)"><path class="b" d="M661.406,135.491a27.183,27.183,0,0,1,2.135-5.36,13.739,13.739,0,0,1-.925,2.736A13.716,13.716,0,0,1,661.406,135.491Z" transform="translate(-661.397 -130.131)"/></g><g transform="translate(26.675 4.711)"><path class="b" d="M663.834,136.458a27.284,27.284,0,0,1,2.135-5.36,13.7,13.7,0,0,1-.925,2.737A13.679,13.679,0,0,1,663.834,136.458Z" transform="translate(-663.825 -131.098)"/></g><g transform="translate(6.032 14.826)"><rect class="c" width="16.727" height="11.064" rx="1.483" transform="matrix(0.929, 0.37, -0.37, 0.929, 4.094, 0)"/><g transform="translate(0.976 0.857)"><path class="b" d="M644.213,164.23a1.185,1.185,0,0,1,.057-.177l.178-.484.69-1.815,2.517-6.492.068.158-13.631-5.4c-.044.018.375-.162.2-.085v0l0,0,0,.009-.007.019-.015.037-.03.074-.059.148-.118.3-.235.59q-.234.587-.465,1.166l-.91,2.278-1.719,4.292-.079-.182,9.749,3.957,2.8,1.158.751.317a2.257,2.257,0,0,1,.266.124,1.319,1.319,0,0,1-.248-.081l-.738-.275-2.8-1.075-9.886-3.863-.131-.051.052-.132,1.7-4.3.905-2.28q.231-.579.464-1.167l.235-.589.118-.3.059-.148.03-.075.015-.037.007-.018,0-.009,0,0v0c-.177.075.243-.106.2-.087l13.608,5.454.114.046-.046.112c-1.106,2.707-2.017,4.934-2.664,6.515-.31.744-.556,1.335-.737,1.767l-.195.453A.658.658,0,0,1,644.213,164.23Z" transform="translate(-630.409 -149.739)"/></g><g transform="translate(5.819 4.781)"><path class="b" d="M647.894,160.1a81.016,81.016,0,0,1-9.257-3.687,81,81,0,0,1,9.257,3.687Z" transform="translate(-638.637 -156.407)"/></g><g transform="translate(5.192 6.355)"><path class="b" d="M646.829,162.772a81.257,81.257,0,0,1-9.256-3.686,81.138,81.138,0,0,1,9.256,3.686Z" transform="translate(-637.572 -159.08)"/></g><g transform="translate(4.59 7.867)"><path class="b" d="M645.806,165.341a81.125,81.125,0,0,1-9.257-3.687,81.006,81.006,0,0,1,9.257,3.687Z" transform="translate(-636.549 -161.649)"/></g></g><g transform="translate(15.694 7.553)"><path class="b" d="M655.272,139.956a96.792,96.792,0,0,1-10.1-4.024,96.65,96.65,0,0,1,10.1,4.024Z" transform="translate(-645.168 -135.926)"/></g><g transform="translate(1.539 8.459)"><path class="d" d="M621.121,159.256a6.5,6.5,0,0,1,.327-.976l1-2.618c.856-2.206,2.059-5.245,3.4-8.6l1.909-4.719a10.162,10.162,0,0,1,2.15-3.579,4.526,4.526,0,0,1,2.5-1.277,3.165,3.165,0,0,1,.771,0,.861.861,0,0,1,.261.062,6.3,6.3,0,0,0-1.014.058,4.57,4.57,0,0,0-2.368,1.314,10.251,10.251,0,0,0-2.04,3.531l-1.887,4.727c-1.346,3.35-2.58,6.376-3.487,8.561l-1.09,2.582A6.628,6.628,0,0,1,621.121,159.256Z" transform="translate(-621.119 -137.466)"/></g><g transform="translate(0.878 33.163)"><path class="d" d="M639.27,187.176a4.375,4.375,0,0,1-.652-.527c-.2-.179-.448-.4-.749-.63s-.627-.523-1.019-.8a28.5,28.5,0,0,0-2.806-1.859,28.008,28.008,0,0,0-7.63-3.039,28.739,28.739,0,0,0-3.315-.579c-.476-.069-.909-.087-1.29-.12s-.708-.05-.977-.058A4.437,4.437,0,0,1,620,179.5a4.379,4.379,0,0,1,.838-.054c.27-.011.6-.015.984.005s.822.021,1.3.076a25.377,25.377,0,0,1,3.357.519,26.228,26.228,0,0,1,7.71,3.07,25.339,25.339,0,0,1,2.8,1.931c.387.29.708.589,1,.84s.53.479.719.673A4.335,4.335,0,0,1,639.27,187.176Z" transform="translate(-619.996 -179.438)"/></g></g><g transform="translate(0 81.986)"><rect class="b" width="53.416" height="73.375" rx="2.408" transform="translate(0 23.167) rotate(-25.704)"/><g transform="translate(3.366 2.702)"><rect class="e" width="47.451" height="68.3" transform="translate(0 20.58) rotate(-25.704)"/></g><g transform="translate(16.474 4.241)"><path class="c" d="M92.063,196.624a5.815,5.815,0,0,0-6.082-.636l-1.311-2.6a3.994,3.994,0,0,0-5.331-1.866h0a3.994,3.994,0,0,0-1.866,5.331l1.314,2.73-.911.457a5.816,5.816,0,0,0-3.207,5.121l-.018,1.353,18.614-8.96Zm-9.935.424a2.15,2.15,0,1,1,1-2.87A2.15,2.15,0,0,1,82.128,197.048Z" transform="translate(-74.652 -191.125)"/></g><g transform="translate(11.815 24.37)"><path class="b" d="M78.33,225.328c.036.077-2.529,1.388-5.73,2.928s-5.826,2.729-5.863,2.653,2.529-1.387,5.731-2.929S78.293,225.252,78.33,225.328Z" transform="translate(-66.736 -225.324)"/></g><g transform="translate(12.757 29.213)"><path class="b" d="M73.923,233.56a15.843,15.843,0,0,1-2.727,1.483,15.8,15.8,0,0,1-2.86,1.207,15.766,15.766,0,0,1,2.727-1.483A15.778,15.778,0,0,1,73.923,233.56Z" transform="translate(-68.336 -233.553)"/></g><g transform="translate(15.938 21.556)"><path class="b" d="M106.006,220.544c.037.077-7.156,3.615-16.065,7.9s-16.163,7.7-16.2,7.627,7.155-3.614,16.067-7.9S105.97,220.468,106.006,220.544Z" transform="translate(-73.741 -220.543)"/></g><g transform="translate(17.419 24.633)"><path class="b" d="M108.523,225.772c.036.076-7.157,3.615-16.066,7.9s-16.163,7.7-16.2,7.628,7.155-3.614,16.067-7.9S108.486,225.7,108.523,225.772Z" transform="translate(-76.257 -225.771)"/></g><g transform="translate(18.9 27.709)"><path class="b" d="M111.039,231c.036.077-7.157,3.615-16.066,7.9s-16.163,7.7-16.2,7.627,7.155-3.614,16.068-7.9S111,230.923,111.039,231Z" transform="translate(-78.773 -230.998)"/></g><g transform="translate(20.381 30.786)"><path class="b" d="M113.555,236.226c.036.077-7.157,3.616-16.066,7.9s-16.163,7.7-16.2,7.628,7.155-3.614,16.067-7.9S113.519,236.15,113.555,236.226Z" transform="translate(-81.29 -236.225)"/></g><g transform="translate(21.862 33.863)"><path class="b" d="M116.071,241.454c.037.076-7.157,3.615-16.065,7.9s-16.163,7.7-16.2,7.628,7.155-3.614,16.067-7.9S116.035,241.378,116.071,241.454Z" transform="translate(-83.806 -241.453)"/></g><g transform="translate(23.343 36.939)"><path class="b" d="M118.587,246.681c.037.077-7.157,3.615-16.065,7.9s-16.163,7.7-16.2,7.627,7.155-3.614,16.067-7.9S118.551,246.605,118.587,246.681Z" transform="translate(-86.322 -246.68)"/></g><g transform="translate(24.678 47.478)"><path class="b" d="M104.724,264.588a3.171,3.171,0,0,1-.609.358l-1.707.876c-1.447.728-3.457,1.713-5.684,2.786s-4.252,2.028-5.724,2.705l-1.749.788a3.139,3.139,0,0,1-.66.251,3.129,3.129,0,0,1,.608-.359l1.707-.876c1.447-.727,3.457-1.714,5.684-2.786s4.251-2.027,5.723-2.7l1.75-.788A3.085,3.085,0,0,1,104.724,264.588Z" transform="translate(-88.59 -264.586)"/></g><g transform="translate(40.733 13.195)"><path class="b" d="M121.038,206.346a13.6,13.6,0,0,1-2.517,1.381,13.493,13.493,0,0,1-2.651,1.106,13.578,13.578,0,0,1,2.518-1.382A13.513,13.513,0,0,1,121.038,206.346Z" transform="translate(-115.869 -206.338)"/></g><g transform="translate(28.324 57.71)"><path class="b" d="M103.166,281.975a35.477,35.477,0,0,1-4.124,2.155,35.32,35.32,0,0,1-4.257,1.879,35.465,35.465,0,0,1,4.124-2.155A35.243,35.243,0,0,1,103.166,281.975Z" transform="translate(-94.785 -281.97)"/></g><g transform="translate(29.809 60.369)"><path class="b" d="M105.828,286.492a36.552,36.552,0,0,1-4.194,2.189,36.466,36.466,0,0,1-4.327,1.912A36.6,36.6,0,0,1,101.5,288.4,36.679,36.679,0,0,1,105.828,286.492Z" transform="translate(-97.307 -286.487)"/></g><g transform="translate(56.755 45.587)"><path class="b" d="M147.142,261.383a16.505,16.505,0,0,1-4.051,1.949,16.56,16.56,0,0,1,4.051-1.949Z" transform="translate(-143.09 -261.373)"/></g><g transform="translate(58.105 48.034)"><path class="b" d="M149.436,265.54a16.566,16.566,0,0,1-4.051,1.95,16.566,16.566,0,0,1,4.051-1.95Z" transform="translate(-145.384 -265.53)"/></g><g transform="translate(31.918 65.179)"><path class="b" d="M104.8,294.67a15.438,15.438,0,0,1-3.911,1.883,15.461,15.461,0,0,1,3.911-1.883Z" transform="translate(-100.891 -294.66)"/></g><g transform="translate(60.774 50.897)"><path class="b" d="M152.852,270.408a8.708,8.708,0,0,1-2.933,1.411,8.722,8.722,0,0,1,2.933-1.411Z" transform="translate(-149.917 -270.394)"/></g><g transform="translate(34.849 67.771)"><path class="b" d="M105.871,305.113a.747.747,0,0,1,.163-.125l.5-.33,1.9-1.22,6.832-4.29.135-.084.058.148a3.852,3.852,0,0,1,.075,2.593,3.172,3.172,0,0,1-1.881,2.039,3.137,3.137,0,0,1-2.912-.328,2.738,2.738,0,0,1-.975-2.866,2.483,2.483,0,0,1,.563-1.068,1.549,1.549,0,0,1,.22-.21,1.059,1.059,0,0,1,.267-.182.438.438,0,0,1,.411.014.7.7,0,0,1,.234.27,5.283,5.283,0,0,1,.263,4.33,3.283,3.283,0,0,1-1.267,1.677,1.882,1.882,0,0,1-1.988-.044,2.838,2.838,0,0,1-1.18-1.477,6.823,6.823,0,0,1,.019-3.322l.036-.224.151.169a4.61,4.61,0,0,1,1.121,2.537,4.9,4.9,0,0,1-.2,2.088,4.372,4.372,0,0,1-.592,1.185c-.089.122-.169.207-.218.266s-.079.085-.084.082a5.492,5.492,0,0,0,.779-1.569,4.888,4.888,0,0,0,.141-2.03,4.462,4.462,0,0,0-1.111-2.412l.187-.055a6.684,6.684,0,0,0,.008,3.2,2.587,2.587,0,0,0,1.078,1.328,1.6,1.6,0,0,0,1.7.034,3.016,3.016,0,0,0,1.139-1.54,5,5,0,0,0-.257-4.079.418.418,0,0,0-.124-.156c-.035-.02-.065-.022-.129,0a1.514,1.514,0,0,0-.385.32,2.172,2.172,0,0,0-.491.936,2.436,2.436,0,0,0,.856,2.546,2.847,2.847,0,0,0,2.629.3,2.886,2.886,0,0,0,1.717-1.85,3.593,3.593,0,0,0-.052-2.407l.192.064-6.89,4.2-1.941,1.158-.517.3A.773.773,0,0,1,105.871,305.113Z" transform="translate(-105.871 -299.063)"/></g><g transform="translate(58.215 55.926)"><path class="b" d="M152.766,281.995a1.934,1.934,0,0,1-.1.552,2.288,2.288,0,0,1-.267.624,1.315,1.315,0,0,1-.739.563.913.913,0,0,1-.573-.019,1.154,1.154,0,0,1-.489-.381,10.974,10.974,0,0,1-.66-1.123l-1.463-2.669.268-.062c-.047,1.35-.1,2.822-.153,4.366-.014.367-.028.731-.042,1.088l-.023.609-.266-.547-2.211-4.544.244-.024a15.652,15.652,0,0,0-.56,4.106c0,1,.068,1.577.035,1.581a1.542,1.542,0,0,1-.085-.407c-.038-.268-.081-.664-.1-1.171a14.413,14.413,0,0,1,.46-4.177l.088-.338.157.315,2.249,4.525-.29.062q.02-.536.041-1.088c.061-1.543.12-3.015.174-4.365l.021-.529.247.467c.514.972.991,1.875,1.423,2.691a11.907,11.907,0,0,0,.614,1.108.787.787,0,0,0,.853.36,1.5,1.5,0,0,0,.961-1.046A3.744,3.744,0,0,1,152.766,281.995Z" transform="translate(-145.571 -278.939)"/></g><g transform="translate(54.324 56.775)"><path class="b" d="M149.981,280.383c.048.07-2.381,1.805-5.424,3.875s-5.55,3.692-5.6,3.622,2.381-1.8,5.425-3.875S149.934,280.313,149.981,280.383Z" transform="translate(-138.959 -280.381)"/></g><g transform="translate(60.175 57.291)"><path class="b" d="M157.056,281.26a47.372,47.372,0,0,1-3.978,3.622,47.323,47.323,0,0,1-4.178,3.389,47.276,47.276,0,0,1,3.978-3.621A47.269,47.269,0,0,1,157.056,281.26Z" transform="translate(-148.9 -281.258)"/></g></g><g transform="translate(68.962)"><g transform="translate(0)"><path class="a" d="M184.731,57.1h-2.477l-5.405-7.533V44.625s-3.829-.235-3.378,6.238-.036,4.826-.036,4.826-8.129.031-8.8.737c-.491.513-.713,8.588-.8,12.968a4.741,4.741,0,0,0,3.36,4.776,3.534,3.534,0,0,0,.875.118c2.028,0,12.387-1.649,12.387-1.649h4.278Z" transform="translate(-163.829 -44.624)"/><g transform="translate(22.227 11.121)"><path class="a" d="M207.358,63.519,205.835,80.46h-4.242V63.86Z" transform="translate(-201.593 -63.519)"/></g></g></g></g><g transform="translate(179.582 46.605)"><g transform="translate(102.777)"><path class="f" d="M494.825,59.988c-.64-5.154-5-9.96-10.194-9.963a11.386,11.386,0,0,0-8.081,3.842A20.968,20.968,0,0,0,474.5,56.3a21.075,21.075,0,0,0-1.53-2.786,11.386,11.386,0,0,0-7.167-5.357c-5.092-1.019-10.314,2.835-11.955,7.762s-.275,10.459,2.424,14.9a29.214,29.214,0,0,0,15.91,13.115c5.9-.756,13.81-5.993,17.329-9.812S495.464,65.142,494.825,59.988Z" transform="translate(-453.141 -47.989)"/><g transform="translate(0.723 11.262)"><path class="e" d="M493.458,77.117a.6.6,0,0,1-.172,0l-.5-.032-1.922-.158-7.064-.647.127-.078-2.943,7.673-.178.463-.116-.483-2.96-12.291-.959-4.008.3.059-5.391,7.413-.052.071-.086-.009L459.13,73.8l-3.513-.392-.929-.116a1.594,1.594,0,0,1-.318-.057,1.6,1.6,0,0,1,.323.007l.933.069,3.521.307,12.423,1.173-.138.062,5.367-7.431.214-.3.085.355.961,4.007,2.93,12.3-.293-.02,3-7.65.035-.088.092.01,7.054.756,1.916.223.5.067A.64.64,0,0,1,493.458,77.117Z" transform="translate(-454.37 -67.124)"/></g></g><g transform="translate(0 38.298)"><g transform="translate(6.015 5.882)"><g transform="translate(6.765)"><rect class="f" width="3.886" height="17.415"/></g><g transform="translate(0 6.765)"><rect class="f" width="3.886" height="17.415" transform="translate(0 3.886) rotate(-90)"/></g></g><path class="f" d="M307.709,127.69a1.342,1.342,0,0,1-.028-.235c-.012-.17-.029-.4-.05-.688q-.015-.23-.033-.507c-.021-.186-.061-.387-.095-.606a10.629,10.629,0,0,0-.307-1.494,13.86,13.86,0,0,0-1.614-3.839,14.391,14.391,0,0,0-17.288-6.132,13.2,13.2,0,0,0-3.636,1.958,13.146,13.146,0,0,0-3.037,3.052,13.909,13.909,0,0,0-2.053,3.958,14.244,14.244,0,0,0,0,9.065,13.93,13.93,0,0,0,2.053,3.959,16.283,16.283,0,0,0,1.408,1.666,16.113,16.113,0,0,0,1.63,1.386,13.175,13.175,0,0,0,3.636,1.958,14.428,14.428,0,0,0,17.288-6.133,13.861,13.861,0,0,0,1.613-3.839,10.543,10.543,0,0,0,.307-1.494c.034-.219.074-.42.095-.606s.023-.354.033-.507c.021-.29.038-.518.05-.688a1.342,1.342,0,0,1,.028-.235,1.323,1.323,0,0,1,0,.235c0,.171-.011.4-.019.692l-.019.51c-.015.187-.051.39-.081.61a10.245,10.245,0,0,1-.281,1.511,13.743,13.743,0,0,1-1.582,3.9,14.613,14.613,0,0,1-9.836,6.928,14.665,14.665,0,0,1-7.7-.617,13.443,13.443,0,0,1-3.714-1.988,16.34,16.34,0,0,1-1.666-1.412,16.541,16.541,0,0,1-1.44-1.7,14.188,14.188,0,0,1-2.1-4.041,14.516,14.516,0,0,1,0-9.258,14.2,14.2,0,0,1,2.1-4.039,13.4,13.4,0,0,1,3.1-3.109,13.452,13.452,0,0,1,3.713-1.988,14.662,14.662,0,0,1,7.7-.617,14.61,14.61,0,0,1,9.836,6.928,13.732,13.732,0,0,1,1.582,3.9,10.2,10.2,0,0,1,.281,1.511c.029.221.065.423.081.61l.019.51c.008.292.015.521.019.692A1.319,1.319,0,0,1,307.709,127.69Z" transform="translate(-278.522 -113.058)"/></g></g><g transform="translate(287.175 84)"><g transform="translate(0 73.086)"><g transform="translate(0 1.124)"><path class="g" d="M562.162,298.877s17.225-4.107,17.793-4.831l-14.166-36.485a26.695,26.695,0,0,0-16.52-16.1,46.84,46.84,0,0,0-16.731-2.584l-23.914-1.268a47.35,47.35,0,0,0-18.866,5.222,38.058,38.058,0,0,0-17.714,19.522l-10.72,26.79,27.049,5.656,1.028,28.78-4.079,39.712h74.7l-.521-62.946h0Z" transform="translate(-461.324 -237.607)"/></g><g class="h" transform="translate(95.633 52.794)"><path class="d" d="M643.858,325.4c.025.081-4.444,1.539-9.98,3.255s-10.046,3.043-10.072,2.962,4.443-1.538,9.981-3.255S643.833,325.318,643.858,325.4Z" transform="translate(-623.806 -325.395)"/></g><g transform="translate(22.501 15.004)"><path class="i" d="M514.591,273.332a3.816,3.816,0,0,1-.46-.627c-.273-.417-.692-1-1.232-1.71a29.84,29.84,0,0,0-2.028-2.373,28.941,28.941,0,0,0-5.93-4.787,30.012,30.012,0,0,0-2.747-1.482c-.8-.379-1.467-.664-1.932-.843a3.859,3.859,0,0,1-.71-.317,3.716,3.716,0,0,1,.75.2,19.559,19.559,0,0,1,1.981.759,25.7,25.7,0,0,1,2.8,1.437,26.753,26.753,0,0,1,5.99,4.835,25.8,25.8,0,0,1,2,2.437,19.483,19.483,0,0,1,1.159,1.776A3.774,3.774,0,0,1,514.591,273.332Z" transform="translate(-499.553 -261.189)"/></g><g transform="translate(29.974 35.854)"><path class="i" d="M516.287,296.615c.084.009-.75,8.8-1.863,19.626s-2.083,19.6-2.168,19.6.75-8.794,1.863-19.627S516.2,296.607,516.287,296.615Z" transform="translate(-512.251 -296.615)"/></g><g transform="translate(88.641 7.94)"><path class="i" d="M616.1,260.818a16.481,16.481,0,0,1-.385-1.783,31.452,31.452,0,0,0-2.95-8.225,16.425,16.425,0,0,1-.836-1.621c.018-.012.127.125.31.384s.43.643.716,1.132a24.554,24.554,0,0,1,2.973,8.29c.089.559.145,1.014.167,1.33A1.528,1.528,0,0,1,616.1,260.818Z" transform="translate(-611.927 -249.188)"/></g><g transform="translate(93.314 28.098)"><path class="i" d="M620.864,305.634a4.817,4.817,0,0,1-.145-.863c-.074-.558-.164-1.368-.261-2.37-.195-2-.4-4.777-.508-7.847s-.1-5.853-.044-7.865c.026-1.006.059-1.82.094-2.381a4.783,4.783,0,0,1,.084-.872,4.829,4.829,0,0,1,.035.875c0,.619,0,1.42,0,2.381,0,2.01.027,4.786.134,7.851s.278,5.835.417,7.84c.067.959.122,1.758.164,2.376A4.8,4.8,0,0,1,620.864,305.634Z" transform="translate(-619.867 -283.436)"/></g><g transform="translate(39.312 44.805)"><path class="d" d="M546.955,312.174a122.98,122.98,0,0,1-18.839-.351v2.447h18.839Z" transform="translate(-528.116 -311.823)"/></g><g class="h" transform="translate(35.378 3.425)"><path class="d" d="M562.94,242.552a2.32,2.32,0,0,1,.072.371c.041.266.095.627.164,1.086.119.952.284,2.347.42,4.115.283,3.538.528,8.565.614,14.5l0,.227-.2-.1c-3.756-1.826-7.968-3.816-12.349-6.006l-21.407-10.713-6.47-3.277-1.752-.9-.451-.242a.088.088,0,1,1,.015-.028l.466.215,1.779.853,6.516,3.191L551.8,256.473c4.381,2.19,8.584,4.186,12.33,6.026l-.2.128c-.062-5.928-.269-10.954-.5-14.49-.111-1.769-.249-3.163-.34-4.118-.051-.46-.091-.822-.121-1.089A2.4,2.4,0,0,1,562.94,242.552Z" transform="translate(-521.432 -241.517)"/></g><g class="h" transform="translate(1.79 48.017)"><path class="d" d="M494.493,324.569a1.264,1.264,0,0,1-.312-.054l-.879-.211-3.22-.818c-2.717-.7-6.472-1.647-10.63-2.654s-7.936-1.874-10.67-2.5l-3.237-.743-.878-.214a.159.159,0,1,1,.012-.06l.89.157c.772.142,1.885.364,3.259.649,2.747.569,6.533,1.4,10.7,2.411s7.91,1.993,10.614,2.742c1.352.375,2.444.687,3.2.913l.863.267A1.2,1.2,0,0,1,494.493,324.569Z" transform="translate(-464.366 -317.28)"/></g><g transform="translate(38.829)"><g transform="translate(34.768)"><path class="i" d="M586.367,235.7c.028-.087,1.617.763,3.181,3.072a28.811,28.811,0,0,1,3.785,9.989,41.07,41.07,0,0,1,.687,5.857c.012.906.039,1.767.012,2.573-.044.8-.053,1.555-.124,2.236s-.139,1.288-.2,1.836c-.075.538-.166,1-.233,1.374a4.419,4.419,0,0,1-.278,1.155,4.473,4.473,0,0,1,.042-1.188q.055-.589.128-1.378c.031-.545.067-1.156.106-1.827s.026-1.42.048-2.215c.005-.8-.04-1.646-.068-2.539a45.916,45.916,0,0,0-.724-5.766,31.556,31.556,0,0,0-3.548-9.872,13.809,13.809,0,0,0-1.962-2.5C586.689,235.983,586.342,235.744,586.367,235.7Z" transform="translate(-586.366 -235.698)"/></g><g transform="translate(0 0.172)"><path class="i" d="M535.306,235.992a13.17,13.17,0,0,1-1.244,1.79,24.864,24.864,0,0,0-2.771,5.174,35.426,35.426,0,0,0-2.057,8.458c-.429,3.265-.612,6.913-.852,10.73-.2,3.81-.208,7.458-.213,10.776s0,6.3,0,8.822c-.019,2.513-.064,4.548-.139,5.953a9.594,9.594,0,0,1-.217,2.179,10.441,10.441,0,0,1-.141-2.183c-.036-1.43-.089-3.454-.153-5.943-.063-2.51-.148-5.5-.193-8.823s-.058-6.983.142-10.83c.24-3.83.448-7.481.931-10.8a33.651,33.651,0,0,1,2.3-8.59,21.609,21.609,0,0,1,3.086-5.142A8.086,8.086,0,0,1,535.306,235.992Z" transform="translate(-527.295 -235.99)"/></g><g transform="translate(32.489 27.606)"><path class="i" d="M597.586,304.371a11.859,11.859,0,0,1-.116-1.944c-.035-1.252-.064-3.063-.088-5.3-.009-1.122-.02-2.347-.031-3.661s.024-2.732-.079-4.178a6.883,6.883,0,0,0-1.5-4.111,5.657,5.657,0,0,0-4.149-1.962,6.491,6.491,0,0,0-4.337,1.682,7.455,7.455,0,0,0-2.192,3.82c-.364,1.4-.518,2.807-.736,4.1s-.4,2.508-.573,3.616c-.355,2.21-.653,4-.872,5.229a11.848,11.848,0,0,1-.4,1.905,11.817,11.817,0,0,1,.167-1.94c.146-1.244.379-3.04.679-5.258.153-1.112.32-2.325.5-3.627.2-1.3.328-2.7.692-4.172a7.97,7.97,0,0,1,2.339-4.125,7.046,7.046,0,0,1,4.747-1.847,6.231,6.231,0,0,1,4.593,2.182,7.4,7.4,0,0,1,1.611,4.461c.091,1.508.022,2.9.024,4.222-.015,1.313-.03,2.539-.044,3.66-.031,2.238-.068,4.049-.106,5.3A11.789,11.789,0,0,1,597.586,304.371Z" transform="translate(-582.494 -282.602)"/></g><g transform="translate(39.619 22.465)"><path class="i" d="M596.891,273.866a9.98,9.98,0,0,1-2.283,5.87,8.26,8.26,0,0,1,3.8.073,13.057,13.057,0,0,1-1.011-5.943" transform="translate(-594.608 -273.866)"/></g><g transform="translate(34.97 29.404)"><path class="i" d="M599.342,292.106a18.869,18.869,0,0,0-.934-2.335,7.24,7.24,0,0,0-1.71-2.046,6.345,6.345,0,0,0-2.9-1.379,6.22,6.22,0,0,0-3.188.318,7,7,0,0,0-2.278,1.377,17.407,17.407,0,0,0-1.619,1.922,4.223,4.223,0,0,1,1.318-2.234,6.826,6.826,0,0,1,2.376-1.592,6.471,6.471,0,0,1,3.5-.4,6.586,6.586,0,0,1,3.156,1.553,7.026,7.026,0,0,1,1.728,2.276A4.287,4.287,0,0,1,599.342,292.106Z" transform="translate(-586.709 -285.655)"/></g></g></g><g transform="translate(5.107 117.569)"><g transform="translate(88.862 14.756)"><path class="j" d="M629.191,379.639c3.506-.012,6.637-2.526,8.288-5.617s2.068-6.684,2.231-10.185a82.737,82.737,0,0,0-3.37-27.489l-15.362,2.683,4.184,41.369Z" transform="translate(-620.979 -336.347)"/></g><g transform="translate(34.944)"><g transform="translate(0 2.769)"><path class="i" d="M529.371,376.412l50.014-1.823,12.131-58.609-52.679,2.927Z" transform="translate(-529.371 -315.98)"/></g><g transform="translate(25.745)"><path class="k" d="M573.112,315.965l.753-1.494,3.992-.294s1.013-2.618,6.717-2.885c5.114-.24,5.323,2.332,5.323,2.332h2.757v1.255Z" transform="translate(-573.112 -311.276)"/></g></g><g transform="translate(73.774 43.022)"><path class="j" d="M610.144,385.662l3.792-1.105a4.63,4.63,0,0,1,2.2-.1h0a4.62,4.62,0,0,1,2.351,1.242,31.451,31.451,0,0,1,3.566,3.888,3.679,3.679,0,0,1,0,3c-.424.567.931,3.486.762,4.458a5.976,5.976,0,0,1-.762,2.35c-.339.406,0,1.792-.847,2.842a13.889,13.889,0,0,1-1.609,1.7s-10.414.487-11.43,0a15.031,15.031,0,0,1-2.794-2.35s-.931-1.7.508-1.865l-5.928-2.27a1.407,1.407,0,0,1-.859-1.777.98.98,0,0,1,.522-.574s-2.66-.841-3.275-1.113c-1.23-.543-1.7-3.4.85-3.039,1.345.194,3.161.586,3.161.586a1.881,1.881,0,0,1,.387-2.521c.824-.572,4.534.125,4.534.125l4.875-3.477Z" transform="translate(-595.344 -384.372)"/><g transform="translate(10.202 15.174)"><path class="l" d="M618.6,411.9a8.764,8.764,0,0,1-3.079-.46,7.618,7.618,0,0,1-2.838-1.281c.041-.073,1.28.536,2.922.986C617.234,411.615,618.605,411.811,618.6,411.9Z" transform="translate(-612.678 -410.152)"/></g><g transform="translate(4.263 10.762)"><path class="l" d="M612.18,405.114a79.785,79.785,0,0,1-9.592-2.448,80.093,80.093,0,0,1,9.592,2.448Z" transform="translate(-602.588 -402.657)"/></g><g transform="translate(4.751 7.107)"><path class="l" d="M613.753,398.874a91.9,91.9,0,0,1-10.337-2.418,92.186,92.186,0,0,1,10.337,2.418Z" transform="translate(-603.416 -396.447)"/></g><g transform="translate(9.592 4.78)"><path class="l" d="M620.992,392.5a6.376,6.376,0,0,1-1.337.426l-1.468.379-.873.216a3.2,3.2,0,0,1-1,.1,5.427,5.427,0,0,1-.976-.159l-.875-.2-1.476-.354a6.422,6.422,0,0,1-1.345-.4,6.421,6.421,0,0,1,1.391.191l1.493.291a17.519,17.519,0,0,0,1.8.328,6.654,6.654,0,0,0,1.783-.278l1.49-.317A6.418,6.418,0,0,1,620.992,392.5Z" transform="translate(-611.641 -392.493)"/></g><g transform="translate(18.784 6.783)"><path class="l" d="M628.086,395.9c.032-.021.173.107.287.386a1.755,1.755,0,0,1-.657,2.1c-.253.164-.442.188-.456.152-.046-.072.617-.4.86-1.177A3.357,3.357,0,0,0,628.086,395.9Z" transform="translate(-627.258 -395.896)"/></g><g transform="translate(19.265 10.807)"><path class="l" d="M628.2,402.736c.074-.034.31.385.276.956s-.311.962-.38.919.051-.437.074-.936S628.122,402.766,628.2,402.736Z" transform="translate(-628.075 -402.734)"/></g><g transform="translate(19.206 15.177)"><path class="l" d="M628.225,410.161c.078-.029.234.254.16.623s-.327.57-.387.514.032-.286.087-.574S628.142,410.185,628.225,410.161Z" transform="translate(-627.975 -410.158)"/></g><g transform="translate(14.266 3.967)"><path class="l" d="M625.907,391.7a3.312,3.312,0,0,1-1-.051l-1.07-.138a4.064,4.064,0,0,0-1.274-.062,3.123,3.123,0,0,0-1.133.509c-.326.221-.61.463-.885.624a1.677,1.677,0,0,1-.959.329c-.017-.051.357-.155.839-.509a5.134,5.134,0,0,1,2.1-1.257,3.565,3.565,0,0,1,.715-.016c.24.024.436.071.641.1l1.064.2A3.248,3.248,0,0,1,625.907,391.7Z" transform="translate(-619.583 -391.112)"/></g></g><g transform="translate(92.56 42.946)"><path class="l" d="M635.083,399.54a5.17,5.17,0,0,1,.265-.748,5.758,5.758,0,0,0,.418-2.076,5.933,5.933,0,0,0-.222-1.445c-.122-.518-.359-1.033-.491-1.652a5.31,5.31,0,0,1,.128-1.924,3.386,3.386,0,0,0-.34-1.893,9,9,0,0,0-1.084-1.677c-.4-.513-.8-1.011-1.2-1.459a6.962,6.962,0,0,0-2.463-1.926,3.987,3.987,0,0,0-2.069-.314c-.5.066-.756.2-.767.172,0-.009.056-.046.178-.107a2.587,2.587,0,0,1,.569-.182,3.889,3.889,0,0,1,2.17.23,6.959,6.959,0,0,1,2.593,1.939c.41.454.809.946,1.222,1.462a9.072,9.072,0,0,1,1.125,1.733,3.656,3.656,0,0,1,.359,2.06,5.183,5.183,0,0,0-.148,1.833c.111.566.346,1.111.46,1.643a5.907,5.907,0,0,1,.193,1.508,5.37,5.37,0,0,1-.524,2.121A3.23,3.23,0,0,1,635.083,399.54Z" transform="translate(-627.262 -384.242)"/></g><g transform="translate(0 9.93)"><path class="j" d="M535.37,347.471,494.3,353.994l1.824-21.433-22.837-4.413-2.778,31.732-.481,7.274A14.2,14.2,0,0,0,476,379.678h0a14.2,14.2,0,0,0,12.6,1.912l8.825-2.876L540.461,363.4" transform="translate(-470.001 -328.148)"/><g transform="translate(65.369 13.386)"><g transform="translate(0 0.145)"><path class="j" d="M605.912,352.509a1.166,1.166,0,0,0-1.171-1.372c-2.315-.009-8.565.026-10.773.652-2.731.775-12.9,5.139-12.9,5.139l4.312,15.924,15.616.165s5.7-2.622,5.775-3.756a19.345,19.345,0,0,0-.142-2.125l1.721-.923c2.566-1.629.921-4.752.921-4.752a3.8,3.8,0,0,0,1.859-2.779,2.79,2.79,0,0,0-1.378-2.633s.708-2.518-.607-3.2-3.541.194-3.541.194A.942.942,0,0,0,605.912,352.509Z" transform="translate(-581.064 -351.136)"/></g><g transform="translate(13.177 1.771)"><path class="l" d="M616.02,353.908a1.62,1.62,0,0,1-.479.168c-.314.088-.775.191-1.349.29-1.147.2-2.745.377-4.5.566a36.915,36.915,0,0,0-4.46.679c-1.124.263-1.752.612-1.777.566-.011-.018.141-.115.427-.277a7.839,7.839,0,0,1,1.294-.5,27.149,27.149,0,0,1,4.483-.775c1.762-.189,3.356-.327,4.5-.476S616.008,353.861,616.02,353.908Z" transform="translate(-603.452 -353.899)"/></g><g transform="translate(20.601 4.96)"><path class="l" d="M624.146,359.324a3.724,3.724,0,0,1-1.1.561,17.6,17.6,0,0,1-2.847.829c-1.132.238-2.167.389-2.916.486a5.019,5.019,0,0,1-1.223.1,36.76,36.76,0,0,1,4.075-.882c1.122-.237,2.124-.5,2.838-.732A7.165,7.165,0,0,1,624.146,359.324Z" transform="translate(-616.065 -359.318)"/></g><g transform="translate(21.385 10.489)"><path class="l" d="M624.25,368.721a16.864,16.864,0,0,1-6.853,1.553c-.009-.09,1.554-.284,3.441-.715S624.219,368.637,624.25,368.721Z" transform="translate(-617.397 -368.712)"/></g><g transform="translate(22.001 15.211)"><path class="l" d="M623.725,376.746a11.83,11.83,0,0,1-5.281,1.275,381.93,381.93,0,0,0,5.281-1.275Z" transform="translate(-618.444 -376.734)"/></g><g transform="translate(16.741 10.728)"><path class="l" d="M611.906,370.788c.012.036-.16.14-.477.169a1.8,1.8,0,0,1-1.878-1.334c-.077-.308-.035-.505,0-.506.083-.021.169.763.873,1.263A3.194,3.194,0,0,0,611.906,370.788Z" transform="translate(-609.507 -369.117)"/></g><g transform="translate(17.146 15.877)"><path class="l" d="M611.862,379.322c.014.083-.611.121-1.144-.36s-.572-1.1-.488-1.1c.086-.019.238.473.692.866S611.871,379.233,611.862,379.322Z" transform="translate(-610.195 -377.866)"/></g><g transform="translate(15.856 6.48)"><path class="l" d="M609.152,362.73c.034.081-.4.218-.8-.085s-.387-.754-.3-.744c.086-.01.191.287.485.5S609.138,362.645,609.152,362.73Z" transform="translate(-608.004 -361.901)"/></g><path class="l" d="M581.064,356.828a.538.538,0,0,1,.122-.067l.371-.172,1.448-.641c1.266-.551,3.114-1.344,5.446-2.3,1.167-.476,2.453-1,3.861-1.52a14.708,14.708,0,0,1,2.241-.7,23.835,23.835,0,0,1,2.481-.307c1.708-.132,3.515-.192,5.4-.22l1.432-.012h.727a1.493,1.493,0,0,1,.777.161,1.256,1.256,0,0,1,.668,1.418.472.472,0,0,1-.181.2,1.658,1.658,0,0,1-.176.108,3.883,3.883,0,0,1-.355.167,5.763,5.763,0,0,1-.742.257.149.149,0,0,1-.181-.106.151.151,0,0,1,.1-.181,15.8,15.8,0,0,1,1.947-.434,7.084,7.084,0,0,1,2.059-.072,1.854,1.854,0,0,1,1.008.437,1.829,1.829,0,0,1,.5.992,5.131,5.131,0,0,1-.132,2.148l-.079-.178a2.841,2.841,0,0,1,.865.762,3.059,3.059,0,0,1,.449,2.786,4.109,4.109,0,0,1-1.79,2.133l.06-.2a4.907,4.907,0,0,1,.5,2.719,3.133,3.133,0,0,1-1.472,2.227l-.009.005-1.722.921.075-.143c.045.413.084.82.112,1.227.015.2.026.406.03.611,0,.1,0,.205,0,.311a.794.794,0,0,1-.128.341,3.687,3.687,0,0,1-.888.845c-.319.234-.646.444-.972.645a40.923,40.923,0,0,1-3.876,2.031.12.12,0,0,1-.053.011l-11.365-.174-3.144-.067-.824-.027a1.592,1.592,0,0,1-.281-.022,1.566,1.566,0,0,1,.282-.016l.824-.009h3.145l11.365.067-.053.011a41.17,41.17,0,0,0,3.838-2.035c.322-.2.642-.408.951-.635a3.492,3.492,0,0,0,.813-.772.537.537,0,0,0,.085-.21c0-.094,0-.19,0-.288,0-.2-.016-.4-.031-.6-.03-.4-.07-.807-.116-1.214a.144.144,0,0,1,.075-.144l1.719-.925-.009.005a2.833,2.833,0,0,0,1.333-2.021,4.625,4.625,0,0,0-.468-2.536.16.16,0,0,1,.06-.2,3.824,3.824,0,0,0,1.648-1.964,2.76,2.76,0,0,0-.4-2.5,2.573,2.573,0,0,0-.759-.675.162.162,0,0,1-.079-.178,4.853,4.853,0,0,0,.128-2.006,1.528,1.528,0,0,0-.41-.83,1.566,1.566,0,0,0-.845-.358,6.835,6.835,0,0,0-1.967.07,15.582,15.582,0,0,0-1.907.421l-.076-.287a5.433,5.433,0,0,0,.695-.24c.113-.048.225-.1.329-.154.1-.04.2-.154.244-.144a1.2,1.2,0,0,0-.1-.618,1.053,1.053,0,0,0-.451-.454,1.2,1.2,0,0,0-.642-.13h-.726l-1.429.008c-1.885.021-3.689.072-5.388.195a23.99,23.99,0,0,0-2.455.289,14.588,14.588,0,0,0-2.21.67c-1.407.51-2.7,1.019-3.867,1.483l-5.477,2.219-1.467.6-.381.149A.582.582,0,0,1,581.064,356.828Z" transform="translate(-581.064 -350.891)"/></g><g transform="translate(19.403 25.803)"><path class="l" d="M508.033,371.991a12.168,12.168,0,0,0-5.059,6.078,3.3,3.3,0,0,1,.306-1.161,9.174,9.174,0,0,1,3.666-4.405A3.282,3.282,0,0,1,508.033,371.991Z" transform="translate(-502.967 -371.987)"/></g></g></g><g transform="translate(39.201)"><g transform="translate(0 5.375)"><g transform="translate(5.653 1.831)"><path class="j" d="M575.878,142.887a20.744,20.744,0,0,0-20.64-19.118l-1.074,0c-11.584.653-17.5,10.856-16.528,22.418l2,46.351a2.092,2.092,0,0,0,1.2,1.8l26,12.2-.8-24.326s11.139-1.709,11.3-12.842C577.407,164,576.665,152.912,575.878,142.887Z" transform="translate(-537.532 -123.767)"/><g transform="translate(14.012 54.133)"><path class="l" d="M575.917,220.039a27,27,0,0,1-14.579-4.3s3.414,8.019,14.526,7.039Z" transform="translate(-561.338 -215.739)"/></g><g transform="translate(11.77 16.855)"><g transform="translate(1.069 6.031)"><g transform="translate(16.818)"><g transform="translate(1.568 1.709)"><path class="i" d="M593.757,166.993a1.59,1.59,0,0,1-1.536,1.6,1.521,1.521,0,0,1-1.636-1.437,1.59,1.59,0,0,1,1.534-1.6A1.521,1.521,0,0,1,593.757,166.993Z" transform="translate(-590.585 -165.553)"/></g><path class="i" d="M594.2,164.327c-.2.207-1.4-.687-3.111-.686-1.709-.024-2.966.855-3.151.645-.091-.093.11-.467.657-.864a4.364,4.364,0,0,1,2.524-.772,4.186,4.186,0,0,1,2.476.8C594.125,163.859,594.3,164.234,594.2,164.327Z" transform="translate(-587.921 -162.65)"/></g><g transform="translate(0 0.284)"><g transform="translate(1.568 1.944)"><path class="i" d="M565.183,167.876a1.589,1.589,0,0,1-1.536,1.6,1.52,1.52,0,0,1-1.636-1.437,1.59,1.59,0,0,1,1.534-1.6A1.522,1.522,0,0,1,565.183,167.876Z" transform="translate(-562.011 -166.436)"/></g><path class="i" d="M565.631,164.81c-.2.207-1.4-.686-3.112-.686-1.709-.023-2.966.854-3.152.644-.091-.093.109-.467.659-.863a4.362,4.362,0,0,1,2.523-.773,4.194,4.194,0,0,1,2.476.805C565.549,164.342,565.727,164.718,565.631,164.81Z" transform="translate(-559.346 -163.133)"/></g><g transform="translate(11.695 0.406)"><path class="i" d="M579.988,177.6a11.333,11.333,0,0,1,2.78-.5c.437-.044.85-.13.925-.428a2.229,2.229,0,0,0-.289-1.3q-.613-1.587-1.285-3.329c-1.785-4.74-3.075-8.637-2.884-8.707s1.794,3.714,3.578,8.455q.645,1.752,1.231,3.349a2.526,2.526,0,0,1,.223,1.715,1.094,1.094,0,0,1-.719.637,2.938,2.938,0,0,1-.742.1A11.129,11.129,0,0,1,579.988,177.6Z" transform="translate(-579.216 -163.339)"/></g><g transform="translate(7.15 15.836)"><path class="i" d="M571.774,189.555c.278-.015.278,1.842,1.865,3.163s3.564,1.121,3.578,1.381c.026.117-.441.36-1.277.381a4.626,4.626,0,0,1-2.987-1.048,4.03,4.03,0,0,1-1.444-2.652C571.439,190,571.647,189.544,571.774,189.555Z" transform="translate(-571.494 -189.555)"/></g></g><path class="i" d="M565.338,153.692c-.169.465-1.877.241-3.885.479-2.013.2-3.633.782-3.9.364-.118-.2.165-.637.82-1.087a6.8,6.8,0,0,1,5.929-.642C565.041,153.105,565.412,153.472,565.338,153.692Z" transform="translate(-557.529 -152.403)"/><g transform="translate(17.727 0.978)"><path class="i" d="M593.473,155.842c-.3.388-1.479-.018-2.9-.039-1.416-.072-2.618.255-2.893-.151-.121-.2.069-.587.594-.953a4.2,4.2,0,0,1,4.665.154C593.443,155.252,593.607,155.653,593.473,155.842Z" transform="translate(-587.648 -154.064)"/></g></g></g><g transform="translate(0 32.138)"><path class="j" d="M535.35,175.616c-.19-.083-7.645-2.278-7.417,5.333s7.823,5.813,7.829,5.594S535.35,175.616,535.35,175.616Z" transform="translate(-527.927 -175.26)"/><g transform="translate(2.607 2.49)"><path class="l" d="M535.843,185.47c-.034-.023-.13.1-.351.207a1.326,1.326,0,0,1-.99.049c-.813-.271-1.529-1.527-1.606-2.9a4.374,4.374,0,0,1,.314-1.909,1.533,1.533,0,0,1,.967-1.048.675.675,0,0,1,.793.34c.108.21.065.363.105.375.022.018.16-.132.089-.445a.844.844,0,0,0-.314-.468,1,1,0,0,0-.739-.172,1.863,1.863,0,0,0-1.35,1.221,4.5,4.5,0,0,0-.4,2.135c.095,1.533.923,2.944,2.033,3.23a1.421,1.421,0,0,0,1.207-.238C535.834,185.654,535.869,185.483,535.843,185.47Z" transform="translate(-532.357 -179.491)"/></g></g><g transform="translate(2.607)"><path class="i" d="M542.161,130.524l31.741.7a14.528,14.528,0,0,0-4.663-5.394,24.8,24.8,0,0,0-14.372-5.172c-5.177-.091-15.714,6.214-19.464,9.784-3,2.856-2.982,5.328-2.982,5.328-.477,4.115,1.827,8.793,2.743,12.834.472,2.084,1.384,8.388,1.384,8.388h0c1.749-.006,2.4-1.4,2.133-3.127l-.327-6.783a10.244,10.244,0,0,0,3.13-11.963C541.031,134.5,540.067,131.675,542.161,130.524Z" transform="translate(-532.357 -120.656)"/></g><g transform="translate(18.848 33.532)"><path class="l" d="M560.179,178.037a.207.207,0,1,1,.145-.239A.2.2,0,0,1,560.179,178.037Z" transform="translate(-559.95 -177.628)"/></g><g transform="translate(22.111 32.738)"><path class="l" d="M565.731,176.746a.243.243,0,1,1,.139-.268A.216.216,0,0,1,565.731,176.746Z" transform="translate(-565.494 -176.279)"/></g><g transform="translate(24.32 32.543)"><path class="l" d="M569.476,176.56c-.1.012-.2-.114-.225-.283s.046-.317.15-.33.2.114.225.283S569.579,176.547,569.476,176.56Z" transform="translate(-569.247 -175.947)"/></g><g transform="translate(20.492 35.754)"><path class="l" d="M562.931,181.644c-.1,0-.188-.054-.188-.121s.085-.12.189-.12.188.055.188.121S563.036,181.645,562.931,181.644Z" transform="translate(-562.743 -181.403)"/></g><g transform="translate(23.473 34.879)"><path class="l" d="M568.014,180.343a.216.216,0,1,1,.17-.23A.2.2,0,0,1,568.014,180.343Z" transform="translate(-567.807 -179.916)"/></g><g transform="translate(39.054 33.055)"><path class="l" d="M594.511,177.238a.215.215,0,1,1,.144-.245A.2.2,0,0,1,594.511,177.238Z" transform="translate(-594.28 -176.817)"/></g><g transform="translate(41.301 32.802)"><path class="l" d="M598.309,176.862a.244.244,0,1,1,.165-.254A.217.217,0,0,1,598.309,176.862Z" transform="translate(-598.098 -176.388)"/></g><g transform="translate(37.097 33.198)"><path class="l" d="M591.175,177.389a.167.167,0,1,1,.153-.2A.179.179,0,0,1,591.175,177.389Z" transform="translate(-590.955 -177.06)"/></g><g transform="translate(38.682 35.345)"><path class="l" d="M593.93,181.121a.22.22,0,1,1,.085-.276A.2.2,0,0,1,593.93,181.121Z" transform="translate(-593.649 -180.707)"/></g><g transform="translate(40.723 35.067)"><path class="l" d="M597.26,180.551a.161.161,0,1,1,.224-.1A.176.176,0,0,1,597.26,180.551Z" transform="translate(-597.116 -180.236)"/></g></g><g transform="translate(5.129)"><path class="i" d="M536.957,127.118a9.385,9.385,0,0,1,9.376-11.666,29.827,29.827,0,0,0,4.43.319c2.746-.3,4.865-2.5,7.411-3.571a9.672,9.672,0,0,1,11.412,3.424c.966,1.441,1.6,3.223,3.079,4.131,1.279.785,2.891.719,4.328,1.152a7.064,7.064,0,0,1,4.745,6.992,8.323,8.323,0,0,1-5.067,6.994,10.167,10.167,0,0,1-8.772-.62c-2.395-1.333-4.539-3.606-7.279-3.525-2.838.083-5.317,2.759-8.1,2.2a7.867,7.867,0,0,1-3.653-2.45,6.361,6.361,0,0,0-3.784-2.178c-1.486-.088-2.26,1.953-1.728,3.344l-6.4-4.549" transform="translate(-536.641 -111.524)"/></g><g transform="translate(8.925 7.403)"><path class="k" d="M577.7,128.612a.373.373,0,0,1-.051.111,3.019,3.019,0,0,1-.185.307,5.176,5.176,0,0,1-.909,1.034,5.643,5.643,0,0,1-1.888,1.093,5.383,5.383,0,0,1-2.88.171,5.7,5.7,0,0,1-3.037-1.727,37.768,37.768,0,0,1-2.19-3.345,4.121,4.121,0,0,0-3.641-1.853,4.789,4.789,0,0,0-2.16.582,4.041,4.041,0,0,0-1.592,1.637c-.383.7-.659,1.463-1.119,2.141A2.634,2.634,0,0,1,556.017,130a3.957,3.957,0,0,1-2.215-.64,8.317,8.317,0,0,1-1.686-1.395,7.057,7.057,0,0,0-3.147-2.242,3.993,3.993,0,0,0-3.188.749,5.49,5.49,0,0,0-1.751,2.169,9.009,9.009,0,0,0-.655,2.041c-.117.58-.172,1.038-.21,1.348a3.24,3.24,0,0,1-.067.474.369.369,0,0,1-.007-.122c0-.08,0-.2.012-.357a12.083,12.083,0,0,1,.155-1.364,8.761,8.761,0,0,1,.616-2.09,5.619,5.619,0,0,1,1.78-2.273,4.21,4.21,0,0,1,3.372-.821,7.242,7.242,0,0,1,3.289,2.289,8.088,8.088,0,0,0,1.637,1.344A3.67,3.67,0,0,0,556,129.7a2.326,2.326,0,0,0,1.8-1.109c.431-.633.705-1.391,1.1-2.116a4.35,4.35,0,0,1,1.712-1.756,5.078,5.078,0,0,1,2.3-.616,4.4,4.4,0,0,1,3.878,1.988,39.548,39.548,0,0,0,2.15,3.341,5.494,5.494,0,0,0,2.893,1.685,5.247,5.247,0,0,0,2.78-.122,5.643,5.643,0,0,0,1.864-1.021A7.239,7.239,0,0,0,577.7,128.612Z" transform="translate(-543.091 -124.101)"/></g><g transform="translate(37.767 12.026)"><path class="k" d="M603.616,131.957a1.718,1.718,0,0,1,.129.612,4.843,4.843,0,0,1-.161,1.7,5.9,5.9,0,0,1-1.19,2.24,6.949,6.949,0,0,1-2.51,1.828,10.308,10.308,0,0,1-5.537.626,14.463,14.463,0,0,1-1.663-.331,2.254,2.254,0,0,1-.59-.2c.011-.052.87.163,2.279.313a10.755,10.755,0,0,0,5.388-.691,6.9,6.9,0,0,0,2.419-1.731,5.965,5.965,0,0,0,1.2-2.117A6.738,6.738,0,0,0,603.616,131.957Z" transform="translate(-592.095 -131.957)"/></g></g><g transform="translate(31.785 113.994)"><g transform="translate(7.256)"><path class="m" d="M527.656,305.2" transform="translate(-527.656 -305.202)"/></g><g transform="translate(7.256 12.438)"><path class="m" d="M527.656,326.335" transform="translate(-527.656 -326.335)"/></g><g transform="translate(0 10.513)"><g transform="translate(2.531)"><g transform="translate(0.007 0.116)"><path class="b" d="M519.638,333.3a6.366,6.366,0,0,0,1.333,3.3,4.342,4.342,0,0,0,3.179,1.687,4.847,4.847,0,0,0,4.278-2.146c1.355-2.159,1.69-6.649.6-9.3-.748-1.826-2.428-3.523-4.4-3.57a4.863,4.863,0,0,0-4.766,3.7" transform="translate(-519.638 -323.26)"/></g><path class="i" d="M519.86,326.884a3.967,3.967,0,0,1,.479-1.27,5.248,5.248,0,0,1,.972-1.273,4.516,4.516,0,0,1,1.833-1.076,4.579,4.579,0,0,1,1.231-.2,3.712,3.712,0,0,1,1.347.177,5.308,5.308,0,0,1,2.4,1.723,6.942,6.942,0,0,1,1.413,2.943,12.666,12.666,0,0,1,.263,3.488,9.64,9.64,0,0,1-1.5,5.079,4.546,4.546,0,0,1-1.954,1.473,5.3,5.3,0,0,1-2.212.372h.018a3.332,3.332,0,0,1-1.585-.393,5.208,5.208,0,0,1-1.192-.832,5.929,5.929,0,0,1-1.3-1.935,5.714,5.714,0,0,1-.411-1.429,3.72,3.72,0,0,1-.037-.388c0-.088,0-.134.005-.134a7.943,7.943,0,0,0,.574,1.893,5.984,5.984,0,0,0,1.3,1.844,5.1,5.1,0,0,0,1.157.776,3.126,3.126,0,0,0,1.47.347h.018a4.711,4.711,0,0,0,3.912-1.772,9.462,9.462,0,0,0,1.428-4.919c.127-2.329-.264-4.675-1.589-6.236a5.076,5.076,0,0,0-2.264-1.661,3.509,3.509,0,0,0-1.263-.182,4.414,4.414,0,0,0-2.953,1.162,5.354,5.354,0,0,0-.985,1.207A11,11,0,0,0,519.86,326.884Z" transform="translate(-519.627 -323.063)"/></g><g transform="translate(1.153 0.117)"><g transform="translate(0.006 0.116)"><path class="b" d="M517.3,333.493a6.372,6.372,0,0,0,1.334,3.3,4.342,4.342,0,0,0,3.179,1.687,4.846,4.846,0,0,0,4.277-2.146c1.356-2.159,1.69-6.649.6-9.3-.748-1.826-2.428-3.523-4.4-3.57a4.863,4.863,0,0,0-4.766,3.7" transform="translate(-517.296 -323.458)"/></g><path class="i" d="M517.519,327.082a3.967,3.967,0,0,1,.479-1.27,5.218,5.218,0,0,1,.972-1.273,4.512,4.512,0,0,1,1.833-1.077,4.579,4.579,0,0,1,1.231-.2,3.725,3.725,0,0,1,1.347.177,5.309,5.309,0,0,1,2.4,1.724,6.942,6.942,0,0,1,1.414,2.943,12.69,12.69,0,0,1,.263,3.488,9.64,9.64,0,0,1-1.5,5.079,4.55,4.55,0,0,1-1.954,1.473,5.321,5.321,0,0,1-2.212.372h.018a3.335,3.335,0,0,1-1.586-.393,5.2,5.2,0,0,1-1.192-.832,5.928,5.928,0,0,1-1.3-1.935,5.689,5.689,0,0,1-.411-1.429,3.716,3.716,0,0,1-.037-.388c0-.088,0-.134.005-.134a7.906,7.906,0,0,0,.574,1.893,5.976,5.976,0,0,0,1.3,1.844,5.1,5.1,0,0,0,1.157.776,3.125,3.125,0,0,0,1.47.347h.018a4.708,4.708,0,0,0,3.912-1.772,9.462,9.462,0,0,0,1.428-4.919c.126-2.329-.264-4.675-1.589-6.236a5.081,5.081,0,0,0-2.265-1.661,3.507,3.507,0,0,0-1.262-.182,4.45,4.45,0,0,0-1.176.168,4.4,4.4,0,0,0-1.777.994,5.351,5.351,0,0,0-.985,1.207A10.98,10.98,0,0,0,517.519,327.082Z" transform="translate(-517.286 -323.261)"/></g><g transform="translate(0 3.187)"><g transform="translate(0.133 0.044)"><path class="b" d="M519.077,328.6a3.031,3.031,0,0,0-3.161,1.821,5.225,5.225,0,0,0,.007,3.841,4.758,4.758,0,0,0,.98,1.73,2.589,2.589,0,0,0,1.756.854,3.058,3.058,0,0,0,2.43-1.436,5.478,5.478,0,0,0,.83-4.515c-.268-1.021-1.019-2.066-2.074-2.095" transform="translate(-515.553 -328.553)"/></g><path class="i" d="M519.753,328.767a.572.572,0,0,1,.234-.006,1.636,1.636,0,0,1,.639.216A3.129,3.129,0,0,1,521.971,331a5.558,5.558,0,0,1-.363,3.6,4.69,4.69,0,0,1-1.319,1.732,2.552,2.552,0,0,1-2.271.544A3.166,3.166,0,0,1,516.2,335.4a6.609,6.609,0,0,1-.756-2.034,4.527,4.527,0,0,1,.588-3.555,3.157,3.157,0,0,1,2.054-1.305,2.231,2.231,0,0,1,.672,0c.15.032.227.053.225.064a4.419,4.419,0,0,0-.876.055,3.127,3.127,0,0,0-1.9,1.313,4.36,4.36,0,0,0-.489,3.374,6.471,6.471,0,0,0,.736,1.935,2.884,2.884,0,0,0,1.64,1.343,2.259,2.259,0,0,0,2-.485,4.456,4.456,0,0,0,1.248-1.615,5.433,5.433,0,0,0,.408-3.435,3.1,3.1,0,0,0-1.2-1.972A2.492,2.492,0,0,0,519.753,328.767Z" transform="translate(-515.327 -328.478)"/></g><g transform="translate(3.535 11.459)"><path class="i" d="M524.424,344.024c-.047.012-.111-.185-.313-.422a2.192,2.192,0,0,0-1-.644,5.517,5.517,0,0,0-1.235-.192c-.329-.024-.537-.051-.538-.094s.2-.091.536-.122a3.479,3.479,0,0,1,1.329.116,1.954,1.954,0,0,1,1.089.811C524.471,343.787,524.46,344.02,524.424,344.024Z" transform="translate(-521.333 -342.532)"/></g><g transform="translate(3.639 2.468)"><path class="i" d="M524.959,327.262c.027.026-.091.21-.365.427a2.928,2.928,0,0,1-2.592.469c-.333-.107-.507-.238-.491-.272a4.422,4.422,0,0,0,3.448-.623Z" transform="translate(-521.51 -327.256)"/></g></g></g></g><g transform="translate(50.339 90.288)"><g transform="translate(61.902)"><g transform="translate(8.094)"><path class="i" d="M221.4,139.953c.073-2.564-2.3-4.546-4.685-5.484s-5.04-1.294-7.168-2.726c-1.884-1.268-3.15-3.246-4.745-4.863a15.788,15.788,0,0,0-26.554,7.244c-.917,3.652-.291,7.969,2.587,10.4,3.341,2.816,8.293,2.191,12.574,1.315s9.125-1.74,12.7.773c2.155,1.516,3.39,3.982,4.708,6.264s2.971,4.612,5.463,5.47,5.875-.623,5.972-3.257" transform="translate(-177.859 -122.207)"/></g><g transform="translate(0 7.694)"><path class="i" d="M215.572,146.739c-.282,2.149,1.273,4.073,2.822,5.59s3.3,3.127,3.57,5.277c.319,2.511-1.514,4.985-.982,7.46.337,1.572,1.559,2.782,2.3,4.208a8.945,8.945,0,0,1,.456,6.589c-.638,2.164-1.655,7-3.159,8.679A34.732,34.732,0,0,1,203.712,194.6a65.3,65.3,0,0,1-18.628,1.022c-5.1-.314-10.962-.079-15.211-7.094-2.2-3.633-3.291-8.464-4.461-12.547-1.007-3.516-1.878-7.281-.831-10.785.61-2.042,1.839-3.858,2.44-5.9.751-2.554.477-5.285.779-7.93A18.194,18.194,0,0,1,193.686,137" transform="translate(-164.108 -135.279)"/></g><g transform="translate(5.621 3.607)"><g transform="translate(0 8.812)"><path class="j" d="M174.17,158.853c.478-7.317,5.346-16.285,12.636-15.5l22.756,5.805a4.291,4.291,0,0,1,3.829,4.36l-2.558,54.9.158.035S205.8,223.94,190.757,219.21c-2.984-.938-4.346-4.2-4.938-7.559l-.154.02c-.006-.4-.011-.77-.016-1.151a35.931,35.931,0,0,1-.089-7.538h0c-.042-4.433-.038-6.251-.041-6.209,0,0-9.346-1.573-11.256-13.776C173.313,176.928,173.64,166.982,174.17,158.853Z" transform="translate(-173.658 -143.307)"/></g><g transform="translate(2.634 6.211)"><g transform="translate(0 16.718)"><g transform="translate(0 4.97)"><g transform="translate(1.543 2.4)"><path class="i" d="M180.755,181.224a1.564,1.564,0,0,0,1.5,1.582,1.5,1.5,0,0,0,1.616-1.407,1.566,1.566,0,0,0-1.5-1.583A1.5,1.5,0,0,0,180.755,181.224Z" transform="translate(-180.754 -179.814)"/></g><path class="i" d="M178.158,177.374c.193.2,1.381-.67,3.064-.662,1.682-.016,2.915.853,3.1.647.09-.091-.107-.46-.644-.853a4.3,4.3,0,0,0-2.48-.77,4.125,4.125,0,0,0-2.44.782C178.238,176.914,178.062,177.282,178.158,177.374Z" transform="translate(-178.133 -175.736)"/><g transform="translate(16.547 0.351)"><g transform="translate(1.543 2.049)"><path class="i" d="M208.869,181.224a1.564,1.564,0,0,0,1.5,1.582,1.5,1.5,0,0,0,1.616-1.407,1.566,1.566,0,0,0-1.5-1.583A1.5,1.5,0,0,0,208.869,181.224Z" transform="translate(-208.868 -179.814)"/></g><path class="i" d="M206.271,177.97c.194.2,1.383-.67,3.065-.662,1.682-.016,2.915.852,3.1.647.089-.091-.1-.46-.644-.853a4.294,4.294,0,0,0-2.48-.77,4.125,4.125,0,0,0-2.44.782C206.353,177.51,206.176,177.878,206.271,177.97Z" transform="translate(-206.247 -176.332)"/></g><g transform="translate(6.148 0.435)"><path class="i" d="M192.865,190.5a11.173,11.173,0,0,0-2.733-.5c-.43-.045-.836-.132-.908-.425a2.188,2.188,0,0,1,.29-1.274q.609-1.559,1.278-3.271c1.776-4.656,3.062-8.486,2.874-8.556s-1.78,3.648-3.556,8.3q-.641,1.722-1.225,3.29a2.487,2.487,0,0,0-.227,1.687,1.077,1.077,0,0,0,.705.63,2.9,2.9,0,0,0,.73.1A10.92,10.92,0,0,0,192.865,190.5Z" transform="translate(-188.578 -176.474)"/></g><g transform="translate(9.227 30.057)"><path class="l" d="M193.81,231.124a31.034,31.034,0,0,0,16.347-4.321s-4.126,8.435-16.332,7.267Z" transform="translate(-193.81 -226.803)"/></g><g transform="translate(10.969 17.379)"><path class="l" d="M196.937,206.4a3.035,3.035,0,0,1,2.722-1.121,2.769,2.769,0,0,1,1.91,1.031,1.754,1.754,0,0,1,.129,2.006,2.035,2.035,0,0,1-2.208.553,6.368,6.368,0,0,1-2.149-1.289,1.857,1.857,0,0,1-.48-.5.562.562,0,0,1,0-.626" transform="translate(-196.769 -205.264)"/></g><g transform="translate(10.011 15.635)"><path class="i" d="M200.517,202.3c-.274-.016-.281,1.811-1.848,3.1s-3.511,1.088-3.526,1.343c-.026.115.433.356,1.255.38a4.548,4.548,0,0,0,2.943-1.018,3.963,3.963,0,0,0,1.433-2.6C200.844,202.743,200.641,202.29,200.517,202.3Z" transform="translate(-195.141 -202.3)"/></g></g><g transform="translate(15.812 2.755)"><path class="i" d="M205.007,173.227c.165.458,1.846.245,3.82.487,1.98.2,3.571.785,3.834.374.117-.2-.16-.627-.8-1.072a6.7,6.7,0,0,0-5.832-.657C205.3,172.651,204.936,173.01,205.007,173.227Z" transform="translate(-204.998 -171.972)"/></g><g transform="translate(0.612)"><path class="i" d="M179.215,169.029c.295.383,1.456-.011,2.85-.026,1.394-.065,2.574.262,2.848-.137.119-.194-.066-.577-.581-.94a4.125,4.125,0,0,0-4.591.132C179.247,168.448,179.085,168.842,179.215,169.029Z" transform="translate(-179.172 -167.291)"/></g></g><g transform="translate(7.695)"><path class="i" d="M225.3,187.475A10.832,10.832,0,0,1,212.414,175.5c.38-3,1.995-6.044.956-8.88-1.373-3.749-6.629-4.9-8.023-8.643-.81-2.175-.083-4.718-1-6.849-.864-2-2.972-3.158-5.024-3.9s-4.252-1.254-5.975-2.593-2.8-3.867-1.686-5.745a115.569,115.569,0,0,1,26.655,6.477c1.991.743,4.082,1.637,5.259,3.406,1.245,1.873,1.185,4.292,1.081,6.538q-.766,16.43-1.533,32.86" transform="translate(-191.207 -138.887)"/></g></g><g transform="translate(9.55)"><path class="k" d="M223.991,187.327a.784.784,0,0,0,.2-.126l.543-.413c.471-.37,1.165-.919,2.021-1.674a21.535,21.535,0,0,0,2.868-3.018,11.259,11.259,0,0,0,2.281-5.021,7.638,7.638,0,0,0-1.573-6.419,24.724,24.724,0,0,0-2.842-2.423,6.633,6.633,0,0,1-2.217-3.023c-.9-2.487-.5-5.367-.849-8.31a16.542,16.542,0,0,0-3.458-8.4,11.409,11.409,0,0,0-3.617-2.956,22.261,22.261,0,0,0-4.269-1.441,9.944,9.944,0,0,1-3.746-1.846,14.733,14.733,0,0,1-2.719-3c-1.532-2.177-2.665-4.5-4.125-6.429a13.942,13.942,0,0,0-2.4-2.552,9.182,9.182,0,0,0-2.85-1.552,6.071,6.071,0,0,0-5.418.54,4.989,4.989,0,0,0-1.924,3.651,3.639,3.639,0,0,0,.734,2.513,2.256,2.256,0,0,0,.5.476c.124.094.189.137.194.129s-.049-.066-.159-.171a2.646,2.646,0,0,1-.447-.5,3.614,3.614,0,0,1-.612-2.433,4.793,4.793,0,0,1,1.891-3.422,5.77,5.77,0,0,1,5.122-.424,8.834,8.834,0,0,1,2.711,1.514,13.658,13.658,0,0,1,2.307,2.495c1.414,1.9,2.525,4.215,4.078,6.449a15.141,15.141,0,0,0,2.8,3.112,10.437,10.437,0,0,0,3.919,1.951,22.079,22.079,0,0,1,4.174,1.411,10.922,10.922,0,0,1,3.447,2.823,16.093,16.093,0,0,1,3.35,8.13c.355,2.845-.057,5.767.906,8.413a7.108,7.108,0,0,0,2.381,3.217A24.828,24.828,0,0,1,230,170.952a7.257,7.257,0,0,1,1.53,6.061,11.038,11.038,0,0,1-2.147,4.9,22.449,22.449,0,0,1-2.769,3.044c-.829.774-1.5,1.349-1.949,1.745A6.019,6.019,0,0,0,223.991,187.327Z" transform="translate(-189.884 -128.335)"/></g></g></g><g transform="translate(106.788 58.756)"><g transform="translate(0 4.294)"><path class="i" d="M246.989,230.392c2.507-2.424,6.792-.317,8.9,2.465s3.6,6.366,6.79,7.764,7.35.2,10.032,2.423c3.7,3.071,1.622,10.189,5.619,12.859,1.587,1.06,3.68,1.022,5.376,1.9,4,2.061,3.949,7.7,3.331,12.153-.866,6.251-1.816,12.731-5.266,18.015s-10.164,9-16.136,6.964c-5.739-1.959-8.685-8.152-11.019-13.75l-9.69-23.232c-1.869-4.48-3.756-9.028-4.364-13.843s.21-10.016,3.272-13.783" transform="translate(-240.37 -229.329)"/></g><g transform="translate(1.591)"><path class="f" d="M249.709,222.049c1.822-.22,3.212,2.013,2.733,3.785s-2.181,2.954-3.914,3.56a5.844,5.844,0,0,1-3.024.349,2.978,2.978,0,0,1-2.289-1.842,1.733,1.733,0,0,1,.838-2.288c1.2-.75,1.9-1.338,2.847-1.86,1.447-.8,1.361-.906,2.808-1.7" transform="translate(-243.073 -222.034)"/></g></g><g transform="translate(38.78 66.826)"><g transform="translate(30.093)"><g transform="translate(0 4.508)"><path class="n" d="M180.168,250.471l7.078-5.363,26.666-1.7,1.073,3.576-8.674,54.128,6.843,64.577h-37.2Z" transform="translate(-175.951 -243.403)"/></g><g class="h" transform="translate(1.654 100.41)"><path d="M209.877,409.811c-.85-.908-2.246-2.158-3.49-2.186-8.907-.2-18.006-1.086-26.913-1.283l-.713,26.391c2.131-3.757,4.147-7.666,4.708-11.948.245-1.87.559-4.106,2.267-4.907a5.1,5.1,0,0,1,3.145-.069,73.869,73.869,0,0,0,9.687,1.67,15.536,15.536,0,0,0,9.448-2.062,5.769,5.769,0,0,0,2.26-2.441A2.989,2.989,0,0,0,209.877,409.811Z" transform="translate(-178.761 -406.343)"/></g><g transform="translate(8.979)"><path class="n" d="M192.213,248.412l-.825-7.74a2.453,2.453,0,0,1,2.219-2.7l24.549-2.218a1.159,1.159,0,0,1,1.263,1.119l.277,9.208-7.109,12.063-7.307,2.325h-8.934l-5.139-5.488Z" transform="translate(-191.207 -235.745)"/><g transform="translate(0.405 7.007)"><path class="i" d="M216.355,248.022c-.005.025-.352-.036-.982-.1a17.369,17.369,0,0,0-2.676-.045,26.315,26.315,0,0,0-3.931.566c-1.466.307-3.059.739-4.748,1.15a31.174,31.174,0,0,1-4.833.861,12.489,12.489,0,0,1-4.007-.271,8.461,8.461,0,0,1-2.5-1.039,6.272,6.272,0,0,1-.6-.431c-.128-.109-.191-.171-.185-.179s.294.2.843.507a9.177,9.177,0,0,0,2.489.931,12.792,12.792,0,0,0,3.934.2,33.058,33.058,0,0,0,4.785-.877c1.682-.409,3.283-.835,4.763-1.129a24.293,24.293,0,0,1,3.978-.506,14.6,14.6,0,0,1,2.7.143c.315.052.559.1.722.142A.841.841,0,0,1,216.355,248.022Z" transform="translate(-191.895 -247.65)"/></g><g class="h" transform="translate(1.154 7.153)"><path d="M193.6,249.34c-.657,1.807-.676,4.045.658,5.431a4.787,4.787,0,0,0,4.369,1.1,13.876,13.876,0,0,0,4.267-1.916c3.38-2.012,6.813-4.094,10.652-4.946a1.39,1.39,0,0,0,.69-.288.455.455,0,0,0,.022-.665.642.642,0,0,0-.318-.091c-3.4-.341-6.766.619-10.1,1.367s-6.884,1.277-10.094.118" transform="translate(-193.167 -247.898)"/></g><g transform="translate(4.79 1.966)"><path class="i" d="M200.836,239.093a2.249,2.249,0,0,0-.84.8,5.639,5.639,0,0,0-.335,2.82c.063,2.291.441,4.122.351,4.141a4.063,4.063,0,0,1-.333-1.184,18.26,18.26,0,0,1-.325-2.948,13.456,13.456,0,0,1,.034-1.641,2.874,2.874,0,0,1,.424-1.3,1.693,1.693,0,0,1,.693-.616C200.707,239.075,200.832,239.076,200.836,239.093Z" transform="translate(-199.345 -239.084)"/></g><g transform="translate(11.71 1.307)"><path class="i" d="M212.16,245.362a36.277,36.277,0,0,0-.176-3.747,36.528,36.528,0,0,0-.873-3.649,3.27,3.27,0,0,1,.5,1,12.053,12.053,0,0,1,.752,5.3A3.246,3.246,0,0,1,212.16,245.362Z" transform="translate(-211.103 -237.966)"/></g><g transform="translate(20.225 0.659)"><path class="i" d="M226.014,236.865a2.328,2.328,0,0,1,.468.911,6.333,6.333,0,0,1-.322,4.846,2.34,2.34,0,0,1-.584.841,8.11,8.11,0,0,0,.438-6.6Z" transform="translate(-225.569 -236.864)"/></g></g></g><g transform="translate(0 7.633)"><g transform="translate(0 7.423)"><path class="c" d="M150.145,261.326s-8.368,5.605-10.567,15.729c-1.729,7.958-6.464,49.991-6.464,49.991l-8.291,16.143,5.414,12.878h0a19.776,19.776,0,0,0,13.006-3.719l3.644-2.644,6.68-9.911Z" transform="translate(-124.823 -261.326)"/></g><g transform="translate(14.755)"><path class="c" d="M174.649,248.714l-14.189,7.423-3.348,11-2.984,31.894,5.618,37.392-9.853,31.328,16.991.126.4-18.365,1.7-59.445L170.65,252.2Z" transform="translate(-149.892 -248.714)"/></g><g transform="translate(27.671 3.299)"><path class="i" d="M176.806,300.573a3.213,3.213,0,0,1-.264-.443l-.706-1.3c-.294-.572-.578-1.307-.946-2.143-.175-.422-.318-.89-.493-1.378s-.36-1-.5-1.561a58.8,58.8,0,0,1-2.034-17.784c.019-.543.039-1.081.077-1.616l.006-.093.087-.036,2.483-1.044-.035.257L172,271.438l-.052-.041,0-.061a21.567,21.567,0,0,1,1.13-7.095c.624-2.076,1.308-3.865,1.906-5.334s1.122-2.619,1.5-3.4c.186-.391.334-.69.438-.89a1.661,1.661,0,0,1,.171-.3,1.951,1.951,0,0,1-.125.32l-.394.909c-.345.793-.839,1.952-1.415,3.427s-1.234,3.267-1.837,5.337a21.675,21.675,0,0,0-1.078,7l-.055-.1,2.486,1.986.2.158-.234.1L172.15,274.5l.093-.129c-.036.524-.057,1.062-.075,1.6a60.78,60.78,0,0,0,1.935,17.714c.134.557.317,1.071.478,1.56s.3.955.468,1.378c.352.837.619,1.576.895,2.153l.652,1.323A3.308,3.308,0,0,1,176.806,300.573Z" transform="translate(-171.837 -254.319)"/></g><g transform="translate(18.566 25.026)"><path class="i" d="M159.308,338.095a2.86,2.86,0,0,1-.137-.461l-.335-1.338c-.147-.581-.315-1.294-.479-2.129s-.381-1.78-.549-2.839c-.185-1.055-.383-2.212-.542-3.463-.19-1.247-.319-2.587-.47-4-.255-2.822-.426-5.936-.429-9.208.015-3.272.2-6.387.463-9.209.156-1.408.291-2.749.485-3.995.164-1.25.366-2.406.555-3.461.172-1.058.389-2,.56-2.836s.338-1.547.487-2.128q.214-.838.34-1.337a2.869,2.869,0,0,1,.139-.461,2.868,2.868,0,0,1-.079.476q-.106.5-.284,1.348c-.131.584-.285,1.3-.436,2.135s-.356,1.782-.514,2.839c-.175,1.055-.364,2.211-.517,3.458-.183,1.244-.308,2.582-.456,3.987-.25,2.815-.423,5.92-.438,9.182,0,3.261.165,6.366.4,9.182.143,1.406.263,2.743.441,3.988.148,1.248.333,2.4.5,3.46.154,1.058.352,2.005.5,2.842s.3,1.553.427,2.137l.279,1.35A2.807,2.807,0,0,1,159.308,338.095Z" transform="translate(-156.367 -291.234)"/></g><g transform="translate(18.558 100.598)"><path class="i" d="M163.14,419.633a6.468,6.468,0,0,1-.689,1.428,23.307,23.307,0,0,1-4.833,5.9,6.4,6.4,0,0,1-1.264.956,10.977,10.977,0,0,1,1.117-1.116,32.363,32.363,0,0,0,4.795-5.853A10.892,10.892,0,0,1,163.14,419.633Z" transform="translate(-156.353 -419.632)"/></g></g><g transform="translate(51.021 2.719)"><g transform="translate(0.167 10.515)"><path class="c" d="M251.151,259.142a19.525,19.525,0,0,1,12,13.89c4.64,20.462,12.583,47.679,12.708,56.459.159,11.184-4.732,18.84-11.115,20.251-5.048,1.116-50.808-1.388-50.808-1.388l-2.139-17.049,37.055-5.455L243.773,297.5l5.022-39.268Z" transform="translate(-211.792 -258.23)"/></g><g transform="translate(8.352)"><path class="c" d="M254.516,250.88l-10.245-4.187-10.8-6.328-.068,1.851h0a10.842,10.842,0,0,1,1.285,7.508l-8.988,46.89,2.039,34.259,4.182,33.573h32.5l-14.922-35.111,5.267-47.311Z" transform="translate(-225.698 -240.365)"/></g><g transform="translate(0 77.757)"><path class="i" d="M258.169,397.033a1.246,1.246,0,0,1-.221.031l-.654.062c-.577.063-1.431.057-2.533.086-2.205.011-5.406-.048-9.388-.178-7.963-.266-19.052-.8-31.567-1.524l-.126-.008-.016-.125c-.255-2.031-.524-4.174-.8-6.348-.46-3.679-.909-7.267-1.34-10.7l-.018-.145.145-.021,28.3-4.114,8.308-1.179,2.232-.3.579-.072a1.063,1.063,0,0,1,.2-.015,1.075,1.075,0,0,1-.194.042l-.574.1-2.225.354-8.3,1.267-28.28,4.218.127-.167c.432,3.434.883,7.022,1.347,10.7.273,2.175.541,4.317.8,6.348l-.142-.132c12.512.735,23.6,1.3,31.556,1.625,3.98.157,7.178.247,9.381.27,1.1-.011,1.955.012,2.529-.032l.655-.035A1.415,1.415,0,0,1,258.169,397.033Z" transform="translate(-211.508 -372.476)"/></g><g transform="translate(31.846 46.918)"><path class="i" d="M265.62,320.08a1.372,1.372,0,0,1,.079.315l.179.908c.152.834.36,1.968.613,3.349l1.928,11.066c.719,4.308,1.368,8.207,1.848,11.082.217,1.388.395,2.526.526,3.364.052.37.094.673.128.918a1.322,1.322,0,0,1,.024.323,1.279,1.279,0,0,1-.085-.313c-.049-.241-.11-.541-.185-.908-.155-.833-.366-1.966-.622-3.347-.512-2.829-1.2-6.742-1.936-11.067s-1.387-8.242-1.839-11.082c-.213-1.388-.388-2.527-.517-3.365l-.122-.919A1.268,1.268,0,0,1,265.62,320.08Z" transform="translate(-265.615 -320.08)"/></g><g transform="translate(9.371 3.302)"><path class="i" d="M238.893,245.975a.4.4,0,0,1,.041.114l.095.343c.075.3.207.747.328,1.334a41.812,41.812,0,0,1,.782,5.046,57.2,57.2,0,0,1,.195,7.7c-.1,2.926-.41,6.164-.852,9.594l-.014.108-.108.021-3.349.621.114-.207c.19.514.389,1.068.541,1.64a20.877,20.877,0,0,1-.383,11.367,35.812,35.812,0,0,1-3.935,8.477c-1.4,2.268-2.663,4.013-3.531,5.219l-1.016,1.378-.271.353c-.062.079-.1.117-.1.114a.6.6,0,0,1,.076-.132l.247-.371.969-1.411c.838-1.227,2.074-2.989,3.443-5.263a36.409,36.409,0,0,0,3.849-8.444,20.75,20.75,0,0,0,.358-11.206c-.15-.562-.344-1.1-.53-1.609l-.064-.174.178-.033,3.35-.617-.122.129c.447-3.423.769-6.649.886-9.564a59.551,59.551,0,0,0-.127-7.671,46.9,46.9,0,0,0-.69-5.042c-.1-.588-.219-1.035-.277-1.343-.028-.139-.05-.254-.068-.348A.415.415,0,0,1,238.893,245.975Z" transform="translate(-227.429 -245.975)"/></g><g transform="translate(18.051 42.407)"><path class="f" d="M244.96,321.407v-7.48s.1-1.846-1.457-1.457-1.263,3.3-1.263,3.3-.291,11.367.389,11.269.941-.972.941-.972V321.7Z" transform="translate(-242.178 -312.416)"/></g><g transform="translate(19.285 51.712)"><path class="i" d="M252.288,328.377a52.35,52.35,0,0,1-8.015,0,52.558,52.558,0,0,1,8.015,0Z" transform="translate(-244.273 -328.224)"/></g><g transform="translate(30.281 15.861)"><path class="i" d="M274.777,267.317a5.466,5.466,0,0,1-.838.311,19.463,19.463,0,0,0-2.223.962,17.287,17.287,0,0,0-6.013,5.124,12.771,12.771,0,0,0-1.182,1.926,12.16,12.16,0,0,0-.711,1.981,19.883,19.883,0,0,0-.6,3.535c-.087,1.021-.1,1.852-.111,2.426a7.121,7.121,0,0,1-.021.893,3.867,3.867,0,0,1-.1-.891,22.349,22.349,0,0,1,.014-2.444,18.591,18.591,0,0,1,.54-3.591,12.09,12.09,0,0,1,.712-2.037,12.635,12.635,0,0,1,1.207-1.978,16.652,16.652,0,0,1,6.164-5.137,15.477,15.477,0,0,1,2.283-.882A4.585,4.585,0,0,1,274.777,267.317Z" transform="translate(-262.957 -267.314)"/></g></g></g><g transform="translate(0 130.869)"><g transform="translate(0 16.734)"><path class="i" d="M58.936,372.986l53.535,19.828,45.128,6.9-53.655-26.157Z" transform="translate(-58.936 -372.986)"/><g transform="translate(19.262 6.784)"><g transform="translate(0 2.931)"><path class="j" d="M95.311,401.157a22.809,22.809,0,0,0-2.851-8.111,6.067,6.067,0,0,1-.73-1.523,1.746,1.746,0,0,1,.3-1.6c.687-.748,1.943-.415,2.787.15a9.825,9.825,0,0,1,3.605,5.046A29.251,29.251,0,0,1,99.6,401.31" transform="translate(-91.662 -389.492)"/></g><g transform="translate(1.392)"><path class="j" d="M117.149,394.011h-2.662a5.191,5.191,0,0,0-2.334-1.341,1.853,1.853,0,0,0-1.761.686c1.19-1.961,2.473-4.119,2.719-4.71.479-1.15-.575-2.012-2.3-2.012s-9.294,10.732-9.294,10.732,4.7-8.632,5.16-9.95c1.139-3.3-2.464-3.542-3.773-1.952-1.624,1.973-8.19,11.9-8.19,11.9a4.622,4.622,0,0,0-.383,3.928c.862,1.916,3.354,1.15,3.354,1.15a3.214,3.214,0,0,0,1.757,2.664c1.922,1.068,4.452-.171,4.452-.171l9.792,2.2s1.554-.157,3.544-.354a10.871,10.871,0,0,0,9.678-9.227h0Z" transform="translate(-94.027 -384.512)"/><g transform="translate(10.434 8.695)"><path class="l" d="M117.844,399.285a32.624,32.624,0,0,1-2.885,4.574c-.846,1.23-1.63,2.332-2.21,3.121a8.082,8.082,0,0,1-.992,1.239,8.258,8.258,0,0,1,.813-1.363c.534-.82,1.289-1.941,2.135-3.171s1.622-2.335,2.191-3.131l.679-.938A1.97,1.97,0,0,1,117.844,399.285Z" transform="translate(-111.756 -399.285)"/></g><g transform="translate(15.933 8.839)"><path class="l" d="M121.1,410.31a8.965,8.965,0,0,1,.869-1.6c.578-.965,1.4-2.281,2.309-3.735.45-.728.885-1.423,1.241-2.064a2.373,2.373,0,0,0,.215-1.817,4.5,4.5,0,0,0-.836-1.559c.011-.013.163.081.381.318a3.143,3.143,0,0,1,.664,1.183,2.547,2.547,0,0,1-.174,2.006c-.351.667-.779,1.363-1.23,2.094-.908,1.458-1.762,2.756-2.387,3.69A13.37,13.37,0,0,1,121.1,410.31Z" transform="translate(-121.098 -399.53)"/></g><g transform="translate(19.828 12.661)"><path class="l" d="M128.973,413.957a5.616,5.616,0,0,1,.521-1.528l.7-1.6a12.709,12.709,0,0,0,.719-1.976,2.308,2.308,0,0,0-.31-1.913,1.828,1.828,0,0,0-.7-.5,1.966,1.966,0,0,0-.73-.2,2.9,2.9,0,0,0-1.055.368c-.248.124-.393.183-.4.164s.112-.111.344-.268a5.094,5.094,0,0,1,.439-.264,1.63,1.63,0,0,1,.673-.217,2.081,2.081,0,0,1,.835.188,2.035,2.035,0,0,1,.816.554,2.533,2.533,0,0,1,.388,2.159,11.334,11.334,0,0,1-.759,2.024c-.277.6-.542,1.127-.761,1.571C129.246,413.405,129.014,413.969,128.973,413.957Z" transform="translate(-127.715 -406.023)"/></g><g transform="translate(22.888 11.323)"><path class="l" d="M132.915,403.754a1.058,1.058,0,0,1,.417.126,4.8,4.8,0,0,1,1.024.6,5.584,5.584,0,0,1,1.584,7.1,4.823,4.823,0,0,1-.67.979c-.189.207-.31.3-.324.291-.044-.036.391-.481.8-1.366a5.672,5.672,0,0,0-1.525-6.834C133.475,404.024,132.891,403.805,132.915,403.754Z" transform="translate(-132.915 -403.75)"/></g></g><g transform="translate(2.348 5.696)"><path class="l" d="M100.342,394.191a28.633,28.633,0,0,1-2.217,3.549,28.75,28.75,0,0,1-2.471,3.377,57.22,57.22,0,0,1,4.687-6.925Z" transform="translate(-95.651 -394.19)"/></g></g></g><g transform="translate(53.912 14.232)"><path class="j" d="M186.428,377.41l-6.12-1.387-5.878-5.537a4.176,4.176,0,0,0-2.622-1.128l-10.7-.616a4.175,4.175,0,0,0-2.933.978l-7.647,6.461,33.355,16.261,4.578.4Z" transform="translate(-150.533 -368.735)"/><g transform="translate(4.881 5.169)"><path class="l" d="M171.708,378.166c-.009.049-.793-.1-2.061-.257a8.936,8.936,0,0,0-4.843.5,12.564,12.564,0,0,0-2.308,1.443c-.677.507-1.283.978-1.819,1.339a9.891,9.891,0,0,1-1.323.77,1.835,1.835,0,0,1-.529.192c-.021-.047.705-.37,1.726-1.139.514-.379,1.1-.863,1.773-1.387a11.872,11.872,0,0,1,2.353-1.5,6.907,6.907,0,0,1,2.732-.611,12.1,12.1,0,0,1,2.268.173c.637.1,1.145.22,1.494.305A1.937,1.937,0,0,1,171.708,378.166Z" transform="translate(-158.825 -377.518)"/></g><g transform="translate(12.492 11.267)"><path class="l" d="M179.222,388.384c-.02.049-.438-.143-1.154-.219a6.227,6.227,0,0,0-2.752.383,14.47,14.47,0,0,0-2.519,1.293,5.077,5.077,0,0,1-1.04.581,4.288,4.288,0,0,1,.921-.762,10.866,10.866,0,0,1,2.533-1.4,5.638,5.638,0,0,1,2.887-.309A2.258,2.258,0,0,1,179.222,388.384Z" transform="translate(-171.757 -387.878)"/></g><g transform="translate(29.602 7.234)"><path class="l" d="M204.948,386.554c-.075.047-.938-1.231-2.074-2.752s-2.111-2.715-2.045-2.773a20.746,20.746,0,0,1,4.118,5.525Z" transform="translate(-200.827 -381.027)"/></g></g><g transform="translate(66.705)"><path class="f" d="M176.355,359.427l13.56-12.63a1.3,1.3,0,0,0-.095-1.975h0a1.294,1.294,0,0,0-1.653.063l-15.9,14.259" transform="translate(-172.268 -344.555)"/></g></g></g><g transform="translate(182.474 84.686)"><g transform="translate(41.495)"><g transform="translate(0 29.349)"><path class="l" d="M361.881,162.867c-.21-.085-8.42-2.238-7.923,6.065s8.729,6.091,8.73,5.852S361.881,162.867,361.881,162.867Z" transform="translate(-353.936 -162.554)"/><g transform="translate(2.126 2.758)"><path class="l" d="M361.449,173.717c-.038-.024-.138.11-.376.237a1.448,1.448,0,0,1-1.079.087c-.9-.27-1.719-1.618-1.848-3.112a4.779,4.779,0,0,1,.281-2.1,1.673,1.673,0,0,1,1.021-1.175.738.738,0,0,1,.878.345c.125.226.082.395.127.406.025.019.17-.149.082-.489a.922.922,0,0,0-.358-.5,1.1,1.1,0,0,0-.812-.164,2.036,2.036,0,0,0-1.434,1.378,4.918,4.918,0,0,0-.363,2.344c.154,1.67,1.1,3.184,2.324,3.459a1.551,1.551,0,0,0,1.31-.3C361.447,173.919,361.479,173.731,361.449,173.717Z" transform="translate(-357.548 -167.24)"/></g></g><g transform="translate(5.863)"><g transform="translate(22.814)"><path class="i" d="M402.66,112.69c4.219,0,8.514,0,13.8,2.757,3.331,1.739,5.407,4.5,7.143,7.827a18.022,18.022,0,0,1,1.963,8.762c-.153,2.871-.164,4.879-1.31,7.516" transform="translate(-402.66 -112.69)"/></g><g transform="translate(0.295 0.596)"><path class="j" d="M385.232,113.758a22.385,22.385,0,0,1,23.922,21.152c.544,10.4,1.022,21.651.907,27.315-.247,12.158-12.424,13.952-12.424,13.952s.268,3.606.569,8.078a16.019,16.019,0,0,1-15.372,17.082h0a16.015,16.015,0,0,1-16.61-15.412l-1.809-49a22.392,22.392,0,0,1,20.817-23.163Z" transform="translate(-364.4 -113.703)"/><g transform="translate(17.638 57.668)"><path class="l" d="M409.966,216.488a28.929,28.929,0,0,1-15.6-4.806s3.678,8.846,15.819,7.848Z" transform="translate(-394.367 -211.682)"/></g><g transform="translate(15.418 16.9)"><g transform="translate(1.13 6.761)"><g transform="translate(18.37)"><g transform="translate(1.712 2.728)"><path class="i" d="M430.1,160.122a1.737,1.737,0,0,1-1.689,1.739,1.66,1.66,0,0,1-1.777-1.58,1.737,1.737,0,0,1,1.686-1.74A1.663,1.663,0,0,1,430.1,160.122Z" transform="translate(-426.636 -158.539)"/></g><path class="i" d="M430.589,155.758c-.217.224-1.524-.76-3.394-.77-1.866-.037-3.245.913-3.446.683-.1-.1.124-.509.725-.939a4.764,4.764,0,0,1,2.761-.827,4.575,4.575,0,0,1,2.7.9C430.505,155.245,430.7,155.656,430.589,155.758Z" transform="translate(-423.727 -153.904)"/></g><g transform="translate(0 0.202)"><g transform="translate(1.758 2.526)"><path class="i" d="M398.968,160.123a1.736,1.736,0,0,1-1.688,1.738,1.66,1.66,0,0,1-1.777-1.579,1.737,1.737,0,0,1,1.687-1.74A1.662,1.662,0,0,1,398.968,160.123Z" transform="translate(-395.502 -158.54)"/></g><path class="i" d="M399.379,156.1c-.217.225-1.527-.759-3.394-.769-1.866-.036-3.245.914-3.446.683-.1-.1.122-.509.725-.939a4.755,4.755,0,0,1,2.76-.827,4.574,4.574,0,0,1,2.7.895C399.292,155.589,399.485,156,399.379,156.1Z" transform="translate(-392.516 -154.248)"/></g><g transform="translate(12.782 0.39)"><path class="i" d="M414.984,170.143a12.35,12.35,0,0,1,3.039-.523c.477-.045.93-.137,1.013-.461a2.426,2.426,0,0,0-.307-1.417q-.66-1.737-1.382-3.644c-1.919-5.189-3.3-9.454-3.094-9.53s1.935,4.069,3.853,9.258q.692,1.919,1.323,3.666a2.76,2.76,0,0,1,.233,1.874,1.2,1.2,0,0,1-.79.692,3.252,3.252,0,0,1-.811.107A12.185,12.185,0,0,1,414.984,170.143Z" transform="translate(-414.233 -154.566)"/></g><g transform="translate(7.713 17.214)"><path class="i" d="M405.931,183.152c.3-.015.292,2.014,2.016,3.467s3.886,1.248,3.9,1.531c.027.127-.485.39-1.4.407a5.049,5.049,0,0,1-3.255-1.164,4.4,4.4,0,0,1-1.56-2.905C405.562,183.64,405.792,183.139,405.931,183.152Z" transform="translate(-405.62 -183.152)"/></g></g><g transform="translate(0 0.067)"><path class="i" d="M399.13,143.961c-.188.506-2.052.251-4.246.5-2.2.2-3.973.83-4.26.372-.128-.219.184-.695.9-1.181a7.435,7.435,0,0,1,6.48-.663C398.809,143.318,399.211,143.721,399.13,143.961Z" transform="translate(-390.596 -142.531)"/></g><g transform="translate(19.741)"><path class="i" d="M430.5,144.379c-.332.422-1.615-.029-3.164-.062-1.546-.088-2.861.262-3.158-.184-.131-.217.079-.64.655-1.037a4.58,4.58,0,0,1,5.094.2C430.466,143.734,430.643,144.173,430.5,144.379Z" transform="translate(-424.136 -142.417)"/></g></g></g><g transform="translate(0 0)"><path class="i" d="M364.351,140.3s.529,2.811.67,4.081c.052.463-.009,5.616,1.242,5.873,1.076.221,3.215-.759,4.168-2.889S373.2,140.121,373,137.8a33.62,33.62,0,0,1,.219-9.512,13.648,13.648,0,0,1,4.632-8.122,8.657,8.657,0,0,1,8.965-1.22c1.756.881,3.069,2.441,4.705,3.528a7.3,7.3,0,0,0,5.015,1.3,4.719,4.719,0,0,0,3.876-3.178,5.139,5.139,0,0,0-1.921-5.118,11.743,11.743,0,0,0-5.295-2.168,28.484,28.484,0,0,0-15.786,1.1,20.579,20.579,0,0,0-11.534,10.559c-2.463,5.67-2.176,9.147-1.526,15.328" transform="translate(-363.898 -112.69)"/></g><g transform="translate(11.569 20.262)"><path class="i" d="M400.233,155.5a14.478,14.478,0,0,0-.316-2,8.234,8.234,0,0,0-3.013-4.479,8.127,8.127,0,0,0-7.7-1.146,8.136,8.136,0,0,0-3.767,2.833,8.08,8.08,0,0,0,0,9.589,8.143,8.143,0,0,0,3.767,2.833,8.192,8.192,0,0,0,10.713-5.625,14.479,14.479,0,0,0,.316-2,.434.434,0,0,1,.009.134l0,.394a3.756,3.756,0,0,1-.05.64,5.824,5.824,0,0,1-.154.863,8.318,8.318,0,0,1-6.514,6.209,8.4,8.4,0,0,1-4.411-.348,8.4,8.4,0,0,1-3.913-2.921,8.355,8.355,0,0,1,0-9.945,8.407,8.407,0,0,1,3.912-2.921,8.4,8.4,0,0,1,4.411-.348,8.316,8.316,0,0,1,6.514,6.209,5.763,5.763,0,0,1,.155.864,3.756,3.756,0,0,1,.05.64l0,.394A.44.44,0,0,1,400.233,155.5Z" transform="translate(-383.555 -147.116)"/><g transform="translate(21.402)"><path class="i" d="M436.6,155.5a14.492,14.492,0,0,0-.316-2,8.237,8.237,0,0,0-3.013-4.479,8.127,8.127,0,0,0-7.7-1.146,8.136,8.136,0,0,0-3.767,2.833,8.081,8.081,0,0,0,0,9.589,8.148,8.148,0,0,0,3.767,2.833A8.192,8.192,0,0,0,436.28,157.5a14.493,14.493,0,0,0,.316-2,.435.435,0,0,1,.009.134c0,.108,0,.237,0,.394a3.756,3.756,0,0,1-.05.64,5.757,5.757,0,0,1-.155.863,8.317,8.317,0,0,1-6.513,6.209,8.4,8.4,0,0,1-4.411-.348,8.4,8.4,0,0,1-3.913-2.921,8.355,8.355,0,0,1,0-9.945,8.4,8.4,0,0,1,3.912-2.921,8.4,8.4,0,0,1,4.411-.348,8.316,8.316,0,0,1,6.514,6.209,5.763,5.763,0,0,1,.155.864,3.756,3.756,0,0,1,.05.64c0,.157,0,.287,0,.394A.441.441,0,0,1,436.6,155.5Z" transform="translate(-419.918 -147.116)"/></g><g transform="translate(16.567 6.687)"><path class="i" d="M416.887,159.294a4.2,4.2,0,0,1-.763-.264,4.914,4.914,0,0,0-3.7.246c-.44.214-.69.4-.722.363s.18-.276.617-.552a4.237,4.237,0,0,1,3.881-.258C416.672,159.044,416.908,159.266,416.887,159.294Z" transform="translate(-411.703 -158.477)"/></g></g><g transform="translate(35.498 4.009)"><path class="i" d="M425.348,122.745c.12-.631-.088-.985.267-1.243.4-.294,1.171.479,1.451.788.089.1.376-.286.486-.36a2.115,2.115,0,0,0,.214-.807c-.052-.439-.743-.558-1.068-.858a3.268,3.268,0,0,0-1.146-.65,1.092,1.092,0,0,0-1.1.065,1.059,1.059,0,0,0-.244.822,2.282,2.282,0,0,0,.166.856,1.208,1.208,0,0,0,.585.628" transform="translate(-424.209 -119.501)"/></g><g transform="translate(0.002 18.169)"><path class="c" d="M363.9,146.538s5.961,2.186,9.064,3.5l-.175-3.049-8.673-3.43S363.9,145.824,363.9,146.538Z" transform="translate(-363.901 -143.559)"/></g><g transform="translate(0.558 16.405)"><path class="c" d="M364.847,140.568a66.823,66.823,0,0,1,8.321,3.519,66.713,66.713,0,0,1-8.321-3.519Z" transform="translate(-364.846 -140.562)"/></g></g></g><g transform="translate(47.213 66.208)"><path class="o" d="M366.151,239.608l-.461-14.43s2.866,13.205,17.88,13.033c14.349-.165,14.086-11.634,14.086-11.634l.512,5.816v23.493l-9.36,38.324-11.951,1.516L363.65,243.338Z" transform="translate(-363.65 -225.178)"/><g transform="translate(2.512 8.222)"><path class="i" d="M398.078,240.736a1.545,1.545,0,0,1-.173.307,8.163,8.163,0,0,1-.569.837,12.305,12.305,0,0,1-2.673,2.587,15.374,15.374,0,0,1-4.992,2.344,17.635,17.635,0,0,1-6.735.466,21.938,21.938,0,0,1-6.469-1.948,28.008,28.008,0,0,1-4.725-2.848,32.658,32.658,0,0,1-2.862-2.37c-.325-.294-.561-.541-.725-.7a1.524,1.524,0,0,1-.237-.262,1.549,1.549,0,0,1,.279.217l.762.659c.662.57,1.639,1.376,2.909,2.284a29.362,29.362,0,0,0,4.718,2.767,22.18,22.18,0,0,0,6.389,1.9,17.665,17.665,0,0,0,6.623-.435,15.553,15.553,0,0,0,4.94-2.248,13.114,13.114,0,0,0,2.7-2.484C397.789,241.129,398.051,240.719,398.078,240.736Z" transform="translate(-367.917 -239.147)"/></g></g><g transform="translate(0 66.423)"><g transform="translate(19.934 0)"><path class="c" d="M366.836,358.309l-.217-68.1L347.28,240.5l-.65-14.959-11.784,8.913s-17.158,59.05-17.423,57-.006,66.849-.006,66.849Z" transform="translate(-317.304 -225.545)"/><g transform="translate(48.914 64.029)"><path class="i" d="M400.563,402.877c-.085,0-.154-15.346-.154-34.272s.069-34.275.154-34.275.153,15.342.153,34.275S400.647,402.877,400.563,402.877Z" transform="translate(-400.409 -334.331)"/></g></g><g transform="translate(37.648 18.64)"><path class="b" d="M347.4,257.214l2.391,1.811-1.681,11.017,28.231,29.569L350.7,265.943l2.185-8.728Z" transform="translate(-347.4 -257.214)"/></g><g transform="translate(0.109 8.913)"><path class="c" d="M354.036,329.652l-43.323-12.7-1.435-32.907,11.882-43.354s-28.324,14.131-30.251,23.123-6.574,30.852-7.069,46.651c-.443,14.127-.507,23.573,2.719,28.081,9.238,12.915,70.121,15.221,94.444-.018" transform="translate(-283.621 -240.688)"/></g><g transform="translate(37.508)"><path class="i" d="M376.787,287.3a1.089,1.089,0,0,1-.141-.159l-.388-.486-1.471-1.885L369.42,277.8l-17.614-23.055-1.325-1.74-.044-.059.018-.071,2.191-8.727.143.183-5.486-.008h-.14v-.14c.009-3.564.016-6.832.023-9.727V234.4l.045-.035,8.515-6.471,2.337-1.754.614-.45a1.488,1.488,0,0,1,.217-.145,1.469,1.469,0,0,1-.2.172l-.594.477-2.3,1.8-8.453,6.552.046-.092c.007,2.9.015,6.163.023,9.727l-.14-.139,5.486-.008h.189l-.046.184c-.7,2.789-1.427,5.713-2.18,8.73l-.027-.13,1.325,1.74,17.543,23.109,5.289,7.026,1.426,1.919.365.5A1.132,1.132,0,0,1,376.787,287.3Z" transform="translate(-347.162 -225.544)"/></g><g transform="translate(69.25 0.917)"><path class="c" d="M418.289,232.535c-3.456-6.043-5.248-5.414-5.248-5.414l.18,2.154,0,4.526-1.637,19.419-10.5,42.2.217,63.533h39.676l4.939-77.554-.448-33.41Z" transform="translate(-401.091 -227.102)"/></g><g transform="translate(49.643 21.8)"><path class="c" d="M431.768,262.583s10.27,7.581,11.159,19.778c.722,9.908,2.38,37.033,2.68,42.938.467,9.2-6.694,30.732-25.339,24.632-11.18-3.658-52.49-17.7-52.49-17.7l2.748-17.543,49.032,2.921.973-40.9Z" transform="translate(-367.779 -262.583)"/></g><g transform="translate(27.253 74.978)"><path class="j" d="M354.318,353.88s-13.877-1.5-17.092-.725c-3.088.746-7.487,4.524-7.487,4.524l.063,5.483,22.326,6.24Z" transform="translate(-329.739 -352.933)"/></g><g transform="translate(69.249 0.936)"><path class="i" d="M401.091,289.086a.975.975,0,0,1,.061-.189l.209-.542.83-2.074,3.105-7.6,4.642-11.264c.44-1.055.876-2.157,1.421-3.232.523-1.087,1.141-2.151,1.778-3.227a71.1,71.1,0,0,1,4.407-6.36c.8-1.033,1.607-2.038,2.441-3l-.027.157-1.729-4.4-.058-.145.148-.051,7.232-2.458-.074.2-8.2-13.691a10.767,10.767,0,0,0-2.739-3.533,3.6,3.6,0,0,0-1.1-.444,4.023,4.023,0,0,1-.4-.1,3.038,3.038,0,0,1,.411.054,3.423,3.423,0,0,1,1.133.413,4.99,4.99,0,0,1,1.391,1.349,24.528,24.528,0,0,1,1.442,2.169l8.3,13.64.089.146-.163.056-7.226,2.478.091-.2,1.735,4.394.034.086-.061.071c-.825.955-1.632,1.961-2.428,2.988a71.834,71.834,0,0,0-4.393,6.328c-.634,1.069-1.251,2.126-1.772,3.2-.543,1.064-.976,2.15-1.422,3.209l-4.7,11.239-3.2,7.568-.883,2.052-.237.531A.972.972,0,0,1,401.091,289.086Z" transform="translate(-401.09 -227.134)"/></g><g transform="translate(27.443 85.218)"><path class="i" d="M421.884,390.848a1.443,1.443,0,0,1-.172.182l-.528.513a15.522,15.522,0,0,1-2.253,1.709,15.244,15.244,0,0,1-4.126,1.729,16.7,16.7,0,0,1-5.908.376,18.836,18.836,0,0,1-3.383-.716c-1.151-.367-2.3-.817-3.522-1.245-2.423-.879-5.021-1.795-7.756-2.755-5.471-1.916-11.5-3.967-17.861-6.052-12.716-4.177-24.309-7.7-32.712-10.206l-9.959-2.946-2.706-.8-.7-.217a1.583,1.583,0,0,1-.236-.084,1.469,1.469,0,0,1,.245.054l.71.187,2.723.749c2.363.659,5.776,1.629,9.987,2.853,8.42,2.456,20.027,5.944,32.746,10.122,6.358,2.086,12.391,4.146,17.859,6.077,2.733.967,5.329,1.892,7.749,2.782,1.212.432,2.378.893,3.506,1.258a18.666,18.666,0,0,0,3.336.727,16.629,16.629,0,0,0,5.842-.327,15.385,15.385,0,0,0,4.106-1.664,16.909,16.909,0,0,0,2.274-1.653l.547-.489A1.581,1.581,0,0,1,421.884,390.848Z" transform="translate(-330.061 -370.332)"/></g><g transform="translate(16.38 85.034)"><path class="i" d="M322.2,370.291c-.01.064-.779-.1-2.023-.055a9.326,9.326,0,0,0-2.144.354,9.911,9.911,0,0,0-2.414,1.1,11.243,11.243,0,0,0-3.356,3.45c-.659,1.059-.942,1.789-1,1.766a1.908,1.908,0,0,1,.164-.525,9.37,9.37,0,0,1,.646-1.353,10.522,10.522,0,0,1,3.377-3.6,9.555,9.555,0,0,1,2.5-1.114,8.682,8.682,0,0,1,2.215-.3,7.319,7.319,0,0,1,1.5.134A1.863,1.863,0,0,1,322.2,370.291Z" transform="translate(-311.265 -370.019)"/></g><g transform="translate(13.666 79.601)"><path class="i" d="M306.656,362.193c-.009,0,.009-.057.055-.155a1.485,1.485,0,0,1,.273-.385,2.777,2.777,0,0,1,1.539-.765,7.831,7.831,0,0,1,2.544.006,14.578,14.578,0,0,1,3.018.733,13.237,13.237,0,0,1,4.787,2.93,10.153,10.153,0,0,1,1.109,1.3,2.489,2.489,0,0,1,.322.537c-.049.036-.534-.716-1.581-1.679a14.179,14.179,0,0,0-4.741-2.8,15.5,15.5,0,0,0-2.954-.742,8.157,8.157,0,0,0-2.467-.072,2.834,2.834,0,0,0-1.494.637C306.78,362,306.682,362.209,306.656,362.193Z" transform="translate(-306.654 -360.788)"/></g><g transform="translate(12.285 30.301)"><path class="i" d="M321.866,289.938a5.266,5.266,0,0,1-.2-.893c-.087-.28-.215-.615-.348-1.007-.188-.371-.373-.809-.642-1.258a17.8,17.8,0,0,0-2.209-2.938,23.67,23.67,0,0,0-3.383-2.976,20.362,20.362,0,0,0-7.4-3.4,15.394,15.394,0,0,0-2.463-.313,5.361,5.361,0,0,1-.916-.075,5.247,5.247,0,0,1,.919-.045,12.928,12.928,0,0,1,2.5.22,19.461,19.461,0,0,1,7.534,3.362,22.663,22.663,0,0,1,3.413,3.034,16.875,16.875,0,0,1,2.19,3.022c.261.463.436.918.612,1.3.121.407.235.755.305,1.043A5.259,5.259,0,0,1,321.866,289.938Z" transform="translate(-304.308 -277.027)"/></g><g transform="translate(50.864 74.149)"><path class="i" d="M431.085,370.906a1.034,1.034,0,0,1-.015-.21l-.014-.616c-.016-.54-.038-1.338-.117-2.361a32.845,32.845,0,0,0-1.742-8.481,12.005,12.005,0,0,0-1.188-2.591,5.088,5.088,0,0,0-2.3-1.947c-1.972-.849-4.344-.737-6.757-.873l-15.8-.664c-13.055-.568-24.668-1.058-31.964-1.448l.1-.079c-.441,2.68-.79,4.806-1.032,6.281l-.287,1.664-.08.427a.646.646,0,0,1-.036.144.632.632,0,0,1,.01-.147l.055-.43q.085-.6.238-1.672c.222-1.479.543-3.61.947-6.3l.012-.082.085,0,31.967,1.329,15.8.688c1.214.061,2.4.089,3.552.184a10.341,10.341,0,0,1,3.295.739,5.329,5.329,0,0,1,2.392,2.051,12.124,12.124,0,0,1,1.194,2.649,31.9,31.9,0,0,1,1.657,8.545c.06,1.028.062,1.828.059,2.369-.007.258-.013.462-.017.616A1.072,1.072,0,0,1,431.085,370.906Z" transform="translate(-369.854 -351.524)"/></g><g transform="translate(102.591 55.146)"><path class="i" d="M457.893,319.238c.084,0,.153,4.749.153,10.606s-.069,10.607-.153,10.607-.154-4.749-.154-10.607S457.808,319.238,457.893,319.238Z" transform="translate(-457.739 -319.238)"/></g><g transform="translate(0 30.974)"><path class="i" d="M291.174,278.17s-.036.134-.121.391-.23.633-.354,1.148c-.286,1.019-.648,2.542-1.054,4.526-.819,3.966-1.829,9.768-2.961,17.033-.562,3.633-1.161,7.631-1.75,11.952-.3,2.158-.486,4.408-.642,6.737s-.278,4.733-.368,7.208c-.179,4.948-.284,10.175-.141,15.621.042,1.361.092,2.736.205,4.118.035.7.148,1.378.234,2.069a16.6,16.6,0,0,0,.5,2.032,11.566,11.566,0,0,0,1.95,3.727,8.408,8.408,0,0,0,3.347,2.577l.019.008.006,0a50.965,50.965,0,0,0,8.727,3.333c3.042.911,6.185,1.647,9.378,2.3a129.12,129.12,0,0,0,21.071,2.566,98.043,98.043,0,0,0,10.059-.263c3.278-.227,6.472-.569,9.563-1.028A100.867,100.867,0,0,0,366,360.242a87.974,87.974,0,0,0,13.878-5.955l.015.191-19.039-6.74-5.126-1.83-1.325-.481c-.3-.109-.447-.173-.447-.173s.157.045.457.145l1.335.454,5.145,1.779,19.07,6.65.224.078-.21.112a87.647,87.647,0,0,1-13.9,6.008,100.661,100.661,0,0,1-17.2,4.029c-3.1.464-6.3.811-9.583,1.041a98.019,98.019,0,0,1-10.088.271,128.955,128.955,0,0,1-21.123-2.565c-3.2-.659-6.351-1.4-9.4-2.311a51.157,51.157,0,0,1-8.782-3.36l.025.011a8.673,8.673,0,0,1-3.486-2.677,11.864,11.864,0,0,1-2-3.825,16.927,16.927,0,0,1-.51-2.072c-.087-.7-.2-1.4-.235-2.1-.112-1.39-.161-2.769-.2-4.133-.137-5.457-.024-10.687.164-15.639q.14-3.715.382-7.214c.162-2.33.353-4.589.66-6.752.6-4.322,1.212-8.319,1.787-11.951,1.158-7.262,2.2-13.062,3.052-17.024.422-1.982.8-3.5,1.105-4.519.133-.513.294-.886.381-1.142S291.174,278.17,291.174,278.17Z" transform="translate(-283.435 -278.17)"/></g><g transform="translate(27.253 48.834)"><path class="b" d="M329.739,340.92c7.245-8.021,6.926-22.284,2.769-32.4-.384,10.964-1.677,20.686-2.668,31.34" transform="translate(-329.739 -308.515)"/></g><g transform="translate(27.305 50.889)"><path class="i" d="M332.559,312.005a1.506,1.506,0,0,1,0,.351c-.017.262-.039.594-.065,1-.071.909-.169,2.156-.289,3.678-.258,3.141-.61,7.411-1,12.129-.37,4.721-.7,8.993-.951,12.135-.114,1.523-.208,2.769-.277,3.678l-.087,1a1.512,1.512,0,0,1-.051.347,1.493,1.493,0,0,1-.011-.351c.008-.262.017-.594.029-1,.029-.871.093-2.13.18-3.686.178-3.111.475-7.405.862-12.145s.78-9.024,1.088-12.124c.16-1.519.291-2.762.386-3.67.05-.4.091-.735.122-1A1.5,1.5,0,0,1,332.559,312.005Z" transform="translate(-329.826 -312.005)"/></g><g transform="translate(40.641 36.396)"><g transform="translate(7.103)"><path class="i" d="M364.706,287.381c.085,0,.153,2.785.153,6.219s-.068,6.219-.153,6.219-.153-2.784-.153-6.219S364.621,287.381,364.706,287.381Z" transform="translate(-364.553 -287.381)"/></g><g transform="translate(0 10.513)"><g transform="translate(2.531)"><g transform="translate(0.006 0.116)"><path class="b" d="M356.794,315.475a6.369,6.369,0,0,0,1.334,3.3,4.342,4.342,0,0,0,3.179,1.687,4.846,4.846,0,0,0,4.277-2.146c1.356-2.159,1.69-6.649.6-9.3-.748-1.826-2.428-3.523-4.4-3.57a4.863,4.863,0,0,0-4.766,3.7" transform="translate(-356.794 -305.44)"/></g><path class="i" d="M357.017,309.064a3.967,3.967,0,0,1,.479-1.27,5.207,5.207,0,0,1,.972-1.273,4.512,4.512,0,0,1,1.833-1.077,4.6,4.6,0,0,1,1.231-.2,3.737,3.737,0,0,1,1.347.177,5.309,5.309,0,0,1,2.4,1.724,6.942,6.942,0,0,1,1.414,2.943,12.689,12.689,0,0,1,.262,3.488,9.64,9.64,0,0,1-1.5,5.079,4.554,4.554,0,0,1-1.954,1.473,5.321,5.321,0,0,1-2.212.372h.018a3.336,3.336,0,0,1-1.586-.393,5.225,5.225,0,0,1-1.192-.832,5.929,5.929,0,0,1-1.3-1.935,5.686,5.686,0,0,1-.411-1.43,3.694,3.694,0,0,1-.037-.388.388.388,0,0,1,0-.134,7.966,7.966,0,0,0,.574,1.893,5.975,5.975,0,0,0,1.3,1.844,5.1,5.1,0,0,0,1.157.776,3.125,3.125,0,0,0,1.47.347h.018a4.708,4.708,0,0,0,3.912-1.772,9.462,9.462,0,0,0,1.428-4.919c.127-2.329-.264-4.675-1.589-6.236a5.081,5.081,0,0,0-2.265-1.661,3.506,3.506,0,0,0-1.262-.182,4.446,4.446,0,0,0-1.176.168,4.4,4.4,0,0,0-1.778.994,5.337,5.337,0,0,0-.985,1.207A10.982,10.982,0,0,0,357.017,309.064Z" transform="translate(-356.784 -305.243)"/></g><g transform="translate(1.153 0.117)"><g transform="translate(0.006 0.116)"><path class="b" d="M354.453,315.673a6.376,6.376,0,0,0,1.333,3.3,4.344,4.344,0,0,0,3.18,1.687,4.846,4.846,0,0,0,4.277-2.147c1.356-2.159,1.69-6.649.6-9.3-.747-1.826-2.427-3.523-4.4-3.57a4.863,4.863,0,0,0-4.766,3.7" transform="translate(-354.453 -305.638)"/></g><path class="i" d="M354.676,309.262a3.966,3.966,0,0,1,.479-1.27,5.206,5.206,0,0,1,.972-1.273,4.512,4.512,0,0,1,1.833-1.077,4.6,4.6,0,0,1,1.231-.2,3.733,3.733,0,0,1,1.347.177,5.307,5.307,0,0,1,2.4,1.724,6.935,6.935,0,0,1,1.413,2.943,12.686,12.686,0,0,1,.263,3.488,9.635,9.635,0,0,1-1.5,5.079,4.549,4.549,0,0,1-1.953,1.473,5.322,5.322,0,0,1-2.212.372h.018a3.336,3.336,0,0,1-1.586-.393,5.24,5.24,0,0,1-1.192-.832,5.948,5.948,0,0,1-1.3-1.935,5.684,5.684,0,0,1-.411-1.43,3.529,3.529,0,0,1-.037-.388c0-.088,0-.134,0-.134a7.963,7.963,0,0,0,.574,1.893,5.965,5.965,0,0,0,1.3,1.844,5.074,5.074,0,0,0,1.156.776,3.123,3.123,0,0,0,1.471.348h.018a4.709,4.709,0,0,0,3.912-1.772,9.468,9.468,0,0,0,1.428-4.92c.127-2.328-.264-4.674-1.589-6.235a5.072,5.072,0,0,0-2.264-1.661,3.507,3.507,0,0,0-1.262-.182,4.412,4.412,0,0,0-2.953,1.162,5.321,5.321,0,0,0-.985,1.207A10.966,10.966,0,0,0,354.676,309.262Z" transform="translate(-354.442 -305.441)"/></g><g transform="translate(0 3.187)"><g transform="translate(0.133 0.044)"><path class="b" d="M356.234,310.777a3.03,3.03,0,0,0-3.161,1.821,5.226,5.226,0,0,0,.007,3.841,4.759,4.759,0,0,0,.98,1.73,2.589,2.589,0,0,0,1.756.854,3.058,3.058,0,0,0,2.43-1.436,5.481,5.481,0,0,0,.83-4.515c-.268-1.021-1.019-2.066-2.075-2.095" transform="translate(-352.71 -310.732)"/></g><path class="i" d="M356.909,310.947a.576.576,0,0,1,.234-.006,1.626,1.626,0,0,1,.639.216,3.131,3.131,0,0,1,1.346,2.026,5.563,5.563,0,0,1-.363,3.6,4.691,4.691,0,0,1-1.32,1.732,2.551,2.551,0,0,1-2.271.544,3.168,3.168,0,0,1-1.815-1.483,6.624,6.624,0,0,1-.756-2.034,4.527,4.527,0,0,1,.588-3.555,3.16,3.16,0,0,1,2.054-1.306,2.242,2.242,0,0,1,.671,0,.671.671,0,0,1,.225.064,4.419,4.419,0,0,0-.876.055,3.124,3.124,0,0,0-1.9,1.313,4.36,4.36,0,0,0-.489,3.374,6.471,6.471,0,0,0,.736,1.935,2.883,2.883,0,0,0,1.64,1.343,2.26,2.26,0,0,0,2-.486,4.455,4.455,0,0,0,1.248-1.614,5.433,5.433,0,0,0,.408-3.435,3.094,3.094,0,0,0-1.2-1.972A2.481,2.481,0,0,0,356.909,310.947Z" transform="translate(-352.484 -310.658)"/></g><g transform="translate(3.535 11.459)"><path class="i" d="M361.581,326.2c-.046.012-.111-.185-.313-.421a2.192,2.192,0,0,0-1-.644,5.521,5.521,0,0,0-1.236-.192c-.328-.024-.536-.051-.537-.094s.2-.091.536-.122a3.468,3.468,0,0,1,1.329.116,1.954,1.954,0,0,1,1.089.811C361.628,325.967,361.616,326.2,361.581,326.2Z" transform="translate(-358.49 -324.712)"/></g><g transform="translate(3.639 2.468)"><path class="i" d="M362.116,309.442c.027.026-.091.21-.365.427a2.929,2.929,0,0,1-2.592.469c-.333-.107-.507-.238-.491-.273a4.423,4.423,0,0,0,3.448-.623Z" transform="translate(-358.666 -309.436)"/></g></g></g><g transform="translate(76.308 7.221)"><g transform="translate(11.863)"><path class="i" d="M433.239,237.815c0-.009.071.015.194.072a5.422,5.422,0,0,1,.523.27,10.665,10.665,0,0,1,1.764,1.261,12.66,12.66,0,0,1,3.789,5.995,38.4,38.4,0,0,1,1.443,6.978c.1.906.157,1.642.191,2.15a3.928,3.928,0,0,1,.015.793,4.03,4.03,0,0,1-.134-.781c-.076-.564-.172-1.28-.287-2.134a45.031,45.031,0,0,0-1.522-6.919,13.033,13.033,0,0,0-3.64-5.92A20.1,20.1,0,0,0,433.239,237.815Z" transform="translate(-433.239 -237.813)"/></g><g transform="translate(0 17.174)"><g transform="translate(4.311 45.937)"><path class="i" d="M420.629,346.719c1.706-.065,3.069-1.766,4.773-1.675a2.372,2.372,0,1,1-.4,4.724c-1.79-.208-2.839-2.307-4.6-2.71" transform="translate(-420.407 -345.04)"/></g><path class="i" d="M432.082,316.061a10.217,10.217,0,0,1-1.6-.132l.093-.581a6.775,6.775,0,0,0,5.264-1.027c1.742-1.28,2.865-3.571,3.337-6.807l.018-.124c.192-1.282.458-26.457.459-31.236a8.151,8.151,0,0,0-6.832-8.524c-.265-.049-6.222-1.044-9.382,7.11-3.309,8.538-8.6,24.994-8.949,26.923-.043.236-.108.529-.183.868-.55,2.47-1.695,7.607,1.732,10.567,3.82,3.3,6.833,2.022,6.959,1.966l.241.537c-.141.062-3.465,1.5-7.585-2.059-3.693-3.189-2.5-8.559-1.922-11.139.074-.33.137-.615.179-.845.353-1.944,5.662-18.469,8.98-27.03,3.343-8.628,9.959-7.491,10.026-7.478a8.856,8.856,0,0,1,7.325,9.1c0,3.937-.261,29.961-.466,31.323l-.018.121c-.5,3.4-1.7,5.82-3.571,7.2A6.761,6.761,0,0,1,432.082,316.061Z" transform="translate(-413.083 -266.992)"/></g><g transform="translate(9.493 23.346)"><path class="i" d="M446.586,285.283a11,11,0,0,0-1.225-2.934,9.98,9.98,0,0,0-6.106-4.3,11.068,11.068,0,0,0-7.451.972,13.136,13.136,0,0,0-2.59,1.856c-.008-.007.038-.069.134-.181a5.127,5.127,0,0,1,.44-.47,8.907,8.907,0,0,1,1.914-1.4,10.942,10.942,0,0,1,7.623-1.079,10.056,10.056,0,0,1,3.883,1.861,9.776,9.776,0,0,1,2.338,2.629,7.8,7.8,0,0,1,.908,2.19,4.663,4.663,0,0,1,.119.633A.621.621,0,0,1,446.586,285.283Z" transform="translate(-429.213 -277.479)"/></g></g><g transform="translate(104.626 76.404)"><path class="i" d="M474.734,364.377a20.376,20.376,0,0,0-.807-2.511,10.971,10.971,0,0,0-3.993-4.79,8.623,8.623,0,0,0-3.24-1.169,28.57,28.57,0,0,0-2.85-.3l-1.939-.134a3.2,3.2,0,0,1-.709-.1,3.279,3.279,0,0,1,.715-.022l1.943.037a24.227,24.227,0,0,1,2.886.234,8.621,8.621,0,0,1,3.359,1.189,10.671,10.671,0,0,1,4.028,4.966,9.444,9.444,0,0,1,.537,1.881A2.694,2.694,0,0,1,474.734,364.377Z" transform="translate(-461.196 -355.356)"/></g><g transform="translate(88.474 59.651)"><path class="j" d="M433.754,342.843s5.787-8.767,7.267-9.915,14.112-6.852,15.591-5.935.569,2.907.569,2.907,5.349-1.873,5.918-1.135a2.645,2.645,0,0,1,0,3.015s2.959-.455,2.959.456a3.747,3.747,0,0,1-1.707,3.072c-1.365,1.024-10.245,6.936-10.958,8.569l-2.876-.175Z" transform="translate(-433.754 -326.893)"/><g transform="translate(16.655 4.923)"><path class="l" d="M462.053,343.777a2.1,2.1,0,0,1,.264-.553,10.288,10.288,0,0,1,.951-1.37,15.915,15.915,0,0,1,4.2-3.534,31.67,31.67,0,0,1,4.965-2.334c.655-.248,1.19-.438,1.561-.562a2.3,2.3,0,0,1,.589-.164,2.4,2.4,0,0,1-.545.275l-1.524.652a40.117,40.117,0,0,0-4.888,2.395,17.579,17.579,0,0,0-4.19,3.411C462.516,343.04,462.1,343.806,462.053,343.777Z" transform="translate(-462.051 -335.257)"/></g><g transform="translate(9.313 2.889)"><path class="l" d="M449.578,342.213a3.068,3.068,0,0,1,.28-.644c.2-.4.493-.989.891-1.694a16.164,16.164,0,0,1,1.6-2.362,7.473,7.473,0,0,1,1.213-1.2c.488-.33,1-.639,1.533-.954a42.227,42.227,0,0,1,5.651-2.818,16.408,16.408,0,0,1,1.818-.609,3.043,3.043,0,0,1,.693-.124c.012.052-.959.277-2.429.933a53.607,53.607,0,0,0-5.578,2.882c-.527.313-1.043.621-1.519.938a7.512,7.512,0,0,0-1.167,1.136,17.869,17.869,0,0,0-1.624,2.29l-.972,1.64A3.148,3.148,0,0,1,449.578,342.213Z" transform="translate(-449.576 -331.802)"/></g></g></g></g><g transform="translate(38.04 283.878)"><path class="i" d="M434.693,451.273c0,.085-88.8.154-198.317.154-109.554,0-198.336-.069-198.336-.154s88.782-.153,198.336-.153C345.892,451.12,434.693,451.189,434.693,451.273Z" transform="translate(-38.04 -451.12)"/></g></g></svg>