<svg xmlns="http://www.w3.org/2000/svg" width="242" height="222.24" viewBox="0 0 242 222.24"><defs><style>.a{fill:#e0e0e0;}.b{fill:#f5f5f5;}.c{fill:#fff;}.d,.t{fill:none;stroke-miterlimit:10;}.d{stroke:#fbfbfb;stroke-width:0.25px;}.e{fill:#ebebeb;}.f{fill:#263238;}.g{fill:#c4c9ce;}.h{fill:#99a2ab;}.i{fill:#0a437d;}.j{opacity:0.6;}.k{opacity:0.3;}.l{fill:#455a64;}.m{fill:#75c6fa;}.n{fill:#fafafa;}.o{fill:#f2f2f2;}.p{fill:#0048cd;}.q{fill:#0894fe;}.r{opacity:0.2;}.s{fill:#2680eb;}.t{stroke:#fff;stroke-width:0.05px;}</style></defs><g transform="translate(-34.348 -133.651)"><g transform="translate(203.626 139.433)"><g transform="translate(1.855 0.001)"><rect class="a" width="36.909" height="53.498"/></g><g transform="translate(0.006 0.001)"><rect class="b" width="36.909" height="53.498"/></g><g transform="translate(4.491 5.694)"><g transform="translate(0.101 0.1)"><rect class="c" width="27.738" height="41.91"/></g><path class="a" d="M283.91,190.3s0-.071-.005-.205l-.005-.594c0-.527-.006-1.3-.011-2.3-.006-2.009-.014-4.936-.025-8.633-.011-7.39-.027-17.855-.045-30.178l.092.092-27.734.009h0l.1-.1c-.008,15.81-.015,30.387-.02,41.91l-.08-.08,20.189.042,5.578.02,1.464.009c.332,0,.506.009.506.009s-.164.005-.49.009l-1.449.009-5.56.02-20.239.042h-.08v-.08c-.006-11.522-.013-26.1-.02-41.91v-.1h.1l27.734.008H284v.092c-.018,12.348-.034,22.834-.045,30.239-.01,3.688-.019,6.608-.024,8.612,0,.993-.009,1.757-.011,2.28,0,.254,0,.448-.005.584S283.91,190.3,283.91,190.3Z" transform="translate(-256.071 -148.295)"/></g><g transform="translate(31.044 6.075)"><path class="d" d="M289.951,148.78" transform="translate(-289.951 -148.78)"/></g><g transform="translate(31.992 0)"><path class="a" d="M296.188,141.03a6.351,6.351,0,0,1-.658.955c-.43.574-1.038,1.354-1.732,2.2s-1.344,1.59-1.825,2.121a6.424,6.424,0,0,1-.812.829,6.866,6.866,0,0,1,.7-.922l1.777-2.156c.672-.817,1.281-1.556,1.775-2.157A6.911,6.911,0,0,1,296.188,141.03Z" transform="translate(-291.161 -141.029)"/></g><g transform="translate(32.469 47.569)"><g transform="translate(0.002 0.001)"><path class="c" d="M291.772,201.726a34.372,34.372,0,0,0,4.838,6.05" transform="translate(-291.772 -201.726)"/></g><path class="a" d="M296.609,207.776a5.563,5.563,0,0,1-.843-.767,27.092,27.092,0,0,1-3.432-4.292,5.544,5.544,0,0,1-.563-.991,7.6,7.6,0,0,1,.68.911c.407.571.979,1.353,1.646,2.187s1.3,1.564,1.772,2.087A7.61,7.61,0,0,1,296.609,207.776Z" transform="translate(-291.77 -201.725)"/></g><g transform="translate(0 47.491)"><g transform="translate(0.001 0.001)"><path class="c" d="M250.342,207.591l4.834-5.965" transform="translate(-250.342 -201.626)"/></g><path class="a" d="M255.176,201.626a73.307,73.307,0,0,1-4.834,5.965,73.727,73.727,0,0,1,4.834-5.965Z" transform="translate(-250.34 -201.625)"/></g><g transform="translate(0.005 0)"><path class="a" d="M250.349,141.03a66.581,66.581,0,0,1,4.535,5.735,33.351,33.351,0,0,1-2.346-2.8A33.185,33.185,0,0,1,250.349,141.03Z" transform="translate(-250.347 -141.029)"/></g><g transform="translate(14.4 14.304)"><rect class="a" width="9.288" height="26.37"/></g></g><g transform="translate(95.801 133.651)"><g transform="translate(0.237)"><path class="a" d="M164.782,133.651v34.758H114.86l-1.8-34.515Z" transform="translate(-113.061 -133.651)"/></g><g transform="translate(0 0.006)"><g transform="translate(0.237 0.237)"><rect class="c" width="34.442" height="49.922" transform="translate(0 34.442) rotate(-90)"/></g><path class="a" d="M163.155,168.575h-50.4V133.659h50.4Zm-49.922-.473h49.449V134.132H113.232Z" transform="translate(-112.759 -133.659)"/></g><g transform="translate(5.521 4.409)"><g transform="translate(0.123 0.113)"><rect class="c" width="39.108" height="25.884"/></g><path class="a" d="M159.035,139.39s-.067,0-.193.007l-.556.006-2.147.014-8.06.031-28.152.056.113-.114c0,7.909.007,16.671.01,25.881v0l-.123-.123,39.109.025-.1.1c.021-7.877.039-14.335.051-18.833.011-2.248.02-4,.025-5.208q.007-.892.011-1.368c0-.31.011-.475.011-.475s.007.151.01.455.006.763.012,1.35c.005,1.2.014,2.947.024,5.185.013,4.512.031,10.992.052,18.894v.1h-.1l-39.109.025H119.8v-.126c0-9.21.007-17.972.01-25.881v-.113h.113l28.227.056,8.034.031,2.125.013.543.007C158.976,139.386,159.035,139.39,159.035,139.39Z" transform="translate(-119.803 -139.277)"/></g><g transform="translate(0.236 0.144)"><path class="a" d="M113.061,133.837a4.228,4.228,0,0,1,.858.556c.511.369,1.206.892,1.957,1.493s1.411,1.169,1.877,1.6a4.057,4.057,0,0,1,.715.731c-.046.053-1.247-.937-2.745-2.134A27.267,27.267,0,0,1,113.061,133.837Z" transform="translate(-113.06 -133.835)"/></g><g transform="translate(44.751 0.241)"><path class="a" d="M175.268,133.96a48.131,48.131,0,0,1-5.407,4.279,48.373,48.373,0,0,1,5.407-4.279Z" transform="translate(-169.86 -133.958)"/></g><g transform="translate(44.552 30.177)"><g transform="translate(0.001 0.002)"><path class="c" d="M175.173,176.669l-5.566-4.511" transform="translate(-169.607 -172.158)"/></g><path class="a" d="M169.607,172.157a52.17,52.17,0,0,1,5.566,4.511,52.17,52.17,0,0,1-5.566-4.511Z" transform="translate(-169.606 -172.155)"/></g><g transform="translate(0.236 30.45)"><path class="a" d="M113.061,176.739a23.651,23.651,0,0,1,2.6-2.213,23.781,23.781,0,0,1,2.752-2.02,23.64,23.64,0,0,1-2.6,2.213A23.782,23.782,0,0,1,113.061,176.739Z" transform="translate(-113.06 -172.504)"/></g><g transform="translate(13.584 12.587)"><rect class="a" width="8.667" height="24.608" transform="translate(0 8.667) rotate(-90)"/></g></g><g transform="translate(34.348 258.566)"><g transform="translate(0 39.1)"><path class="b" d="M54.878,381.866c.491-1.945-.795-3.889-2.23-5.29s-3.151-2.655-3.9-4.515c-1.221-3.013.375-6.931-1.693-9.439-1.217-1.476-3.386-1.959-4.468-3.536a8.1,8.1,0,0,1-.981-2.825,28.745,28.745,0,0,0-7.224-13.334A24.938,24.938,0,0,0,37.255,355.8a16.4,16.4,0,0,1,2.157,4.884c.464,2.868-1.122,5.835-.4,8.649.825,3.219,4.459,5.356,4.649,8.673.161,2.8-2.27,5.281-2.072,8.083a7.579,7.579,0,0,0,1.267,3.32c2.19,3.593,5.39,6.059,10.22,5.951l5.917.174Z" transform="translate(-34.348 -342.927)"/></g><g transform="translate(5.049 0)"><g transform="translate(17.755 18.521)"><path class="a" d="M66.484,390.005a4.7,4.7,0,0,0,1.629-.045,9.832,9.832,0,0,0,1.92-.495,8.141,8.141,0,0,0,2.367-1.314,3.322,3.322,0,0,0,.969-1.307,6.114,6.114,0,0,0,.269-1.769,17.217,17.217,0,0,1,.127-1.915,5.283,5.283,0,0,1,.712-1.907c.69-1.229,1.842-2.4,2.207-4.061a13.415,13.415,0,0,0-.19-5.184,11.009,11.009,0,0,1,.107-5.559c.624-1.854,1.911-3.531,2.549-5.621.634-2.11.32-4.374.444-6.61a8.772,8.772,0,0,1,.752-3.289c.473-1.05,1.131-2.042,1.643-3.147,1.037-2.235,1.208-4.762,1.481-7.238q.2-1.873.4-3.783a18.55,18.55,0,0,1,.636-3.787,33.571,33.571,0,0,1,1.394-3.669,12.156,12.156,0,0,0,.676-1.915,19.293,19.293,0,0,0,.179-2.036,23.985,23.985,0,0,0-.18-4.094c-.168-1.365-.422-2.716-.577-4.084l-.028-.235-.032-.273-.241.123a9.132,9.132,0,0,0-3.169,2.705,14.516,14.516,0,0,0-1.937,3.617,44.444,44.444,0,0,0-1.8,7.757,21.037,21.037,0,0,1-2.39,7.169c-.642,1.057-1.421,2.024-2.1,3.055a8.358,8.358,0,0,0-1.449,3.38c-.335,2.5,1.055,4.7.781,6.912a7.673,7.673,0,0,1-1.061,3.076c-.532.948-1.158,1.828-1.752,2.713a17.38,17.38,0,0,0-1.573,2.738,8.669,8.669,0,0,0-.71,2.97c-.132,2,.161,3.886.025,5.674a13.057,13.057,0,0,1-1.432,4.871c-.708,1.459-1.5,2.78-2.155,4.06a20.686,20.686,0,0,0-.886,1.89,9.258,9.258,0,0,0-.509,1.873,11.779,11.779,0,0,0-.024,3.377,8.508,8.508,0,0,0,1.716,4.3,4.143,4.143,0,0,0,.482.516,2.331,2.331,0,0,0,.39.328c.221.161.339.235.339.235a7.473,7.473,0,0,1-1.152-1.126,8.571,8.571,0,0,1-1.63-4.268,11.768,11.768,0,0,1,.056-3.328,9.1,9.1,0,0,1,.513-1.829,20.662,20.662,0,0,1,.892-1.865c.665-1.269,1.462-2.585,2.184-4.053a13.285,13.285,0,0,0,1.483-4.956c.145-1.825-.14-3.723,0-5.672a8.372,8.372,0,0,1,.7-2.871,17.108,17.108,0,0,1,1.555-2.683c.593-.879,1.227-1.762,1.774-2.73a8,8,0,0,0,1.111-3.2c.272-2.362-1.109-4.567-.766-6.9a8.019,8.019,0,0,1,1.4-3.233c.669-1.013,1.453-1.98,2.114-3.064a21.385,21.385,0,0,0,2.446-7.289,44.2,44.2,0,0,1,1.786-7.692,14.111,14.111,0,0,1,1.885-3.522,8.768,8.768,0,0,1,3.036-2.594l-.274-.15c.009.075.019.157.028.238.157,1.384.411,2.738.578,4.087a23.6,23.6,0,0,1,.179,4.031,19.247,19.247,0,0,1-.17,1.974,11.9,11.9,0,0,1-.654,1.849,33.65,33.65,0,0,0-1.405,3.709,18.856,18.856,0,0,0-.644,3.85q-.2,1.912-.4,3.785c-.268,2.488-.44,4.974-1.438,7.131-.494,1.074-1.151,2.068-1.638,3.152a9.11,9.11,0,0,0-.774,3.411c-.115,2.284.194,4.513-.412,6.539s-1.882,3.7-2.524,5.615a11.261,11.261,0,0,0-.095,5.7,13.2,13.2,0,0,1,.22,5.086c-.332,1.591-1.451,2.747-2.155,4.011a5.461,5.461,0,0,0-.723,1.983,16.986,16.986,0,0,0-.114,1.937,6,6,0,0,1-.243,1.721,3.175,3.175,0,0,1-.91,1.25,8.123,8.123,0,0,1-2.31,1.32,10.18,10.18,0,0,1-1.892.525,7.6,7.6,0,0,1-1.2.123C66.626,390,66.484,390.005,66.484,390.005Z" transform="translate(-63.446 -316.669)"/><g transform="translate(3.036 3.537)"><path class="a" d="M85.618,321.182a.679.679,0,0,0-.056.179c-.034.142-.076.317-.128.534-.114.466-.248,1.171-.466,2.051s-.759,1.872-1.211,3.1c-.47,1.216-.946,2.623-1.382,4.2s-.832,3.334-1.24,5.213a21.93,21.93,0,0,1-1.861,5.789c-.479.963-1.02,1.939-1.447,3.006a13.96,13.96,0,0,0-.833,3.4,68.6,68.6,0,0,1-1.234,7.164c-1.159,4.854-2.263,9.478-3.267,13.689l-2.74,11.165c-.761,3.158-1.379,5.725-1.816,7.535q-.3,1.3-.475,2.053l-.114.536a.719.719,0,0,0-.027.186.685.685,0,0,0,.064-.176l.15-.527.545-2.035,1.932-7.506c.8-3.182,1.76-6.956,2.82-11.145,1.014-4.211,2.129-8.836,3.3-13.692a67.824,67.824,0,0,0,1.232-7.194,13.649,13.649,0,0,1,.8-3.317c.412-1.039.944-2.01,1.424-2.984a22.044,22.044,0,0,0,1.855-5.877c.394-1.884.767-3.633,1.191-5.21s.872-2.983,1.321-4.2c.429-1.22.942-2.227,1.154-3.134s.309-1.6.4-2.074l.091-.541A.711.711,0,0,0,85.618,321.182Z" transform="translate(-67.32 -321.182)"/></g></g><path class="a" d="M62.629,384.907c3.85-2.319,4.92-9.3,3.285-13.484s-4.479-8-4.939-12.477c-.354-3.437.752-6.974-.068-10.33-1.107-4.531-5.556-8.019-5.531-12.682.013-2.617,1.488-5.087,1.355-7.7-.164-3.205-2.64-5.735-4.18-8.55-2.357-4.31-2.54-9.42-3.365-14.264s-2.7-10.023-7.012-12.381c-.611,4.119-1.678,6.944-1.306,12.517.133,2,2.481,5.822,2.822,10.208.2,2.622.35,5.247.525,7.871a25.276,25.276,0,0,0,1.28,7.538c.712,1.827,1.849,3.484,2.38,5.372,1,3.551-.265,7.41.546,11.009.688,3.049,2.816,5.665,3.265,8.758.632,4.346-2.158,8.881-.694,13.022.727,2.055,2.43,3.7,2.923,5.821.382,1.647-.015,3.4.332,5.05.56,2.666,5.662,4.71,8.381,4.53" transform="translate(-40.791 -293.037)"/><g transform="translate(2.469 4.079)"><path class="e" d="M43.943,298.242a1.1,1.1,0,0,0,.018.232c.024.173.053.4.091.676.092.593.2,1.466.4,2.593.223,1.133.814,2.408,1.291,3.945.5,1.533,1,3.3,1.447,5.283s.834,4.173,1.234,6.532a27.437,27.437,0,0,0,2.023,7.382c.549,1.232,1.165,2.465,1.629,3.779a17.024,17.024,0,0,1,.839,4.171,84.32,84.32,0,0,0,1.184,8.995c1.218,6.091,2.379,11.893,3.434,17.174,1.111,5.26,2.113,10,2.955,13.986l2.025,9.423.569,2.558c.065.275.118.494.158.663a1.04,1.04,0,0,0,.067.223,1.07,1.07,0,0,0-.028-.231c-.031-.171-.071-.393-.121-.671-.119-.613-.287-1.475-.5-2.572-.455-2.256-1.106-5.477-1.907-9.448-.821-3.994-1.795-8.738-2.875-14-1.047-5.279-2.2-11.079-3.4-17.168a85.355,85.355,0,0,1-1.187-8.965,17.316,17.316,0,0,0-.868-4.254c-.478-1.342-1.1-2.581-1.651-3.8a27.273,27.273,0,0,1-2.032-7.293c-.414-2.355-.812-4.553-1.282-6.537s-.984-3.758-1.508-5.29c-.5-1.543-1.109-2.807-1.347-3.912s-.357-1.987-.473-2.573l-.129-.67A1.047,1.047,0,0,0,43.943,298.242Z" transform="translate(-43.941 -298.242)"/></g></g></g><g transform="translate(229.335 278.35)"><path class="b" d="M296.246,383.649c-9.6-5.7-12.54-17.383-12.964-28.047-.071-1.781-.4-3.638.325-5.259s2.622-2.83,4.267-2.2c1.364.524,2.053,2.015,2.884,3.229a10.412,10.412,0,0,0,4.458,3.67,3.967,3.967,0,0,0,3.67.06c1.469-.958,1.494-3.087,1.352-4.853l-.79-9.869a16.515,16.515,0,0,1,.145-5.285,5.492,5.492,0,0,1,3.17-3.959,3.332,3.332,0,0,1,4.277,1.923,16.448,16.448,0,0,1,.212,2.2,1.864,1.864,0,0,0,1.216,1.669,2.142,2.142,0,0,0,1.88-.954,23.526,23.526,0,0,0,3.745-6.676,32.671,32.671,0,0,1,3.448-6.858,9.574,9.574,0,0,1,6.2-4.108A5.733,5.733,0,0,1,329.9,321.8c.825,2.443-.441,5.076-1.873,7.208a39.5,39.5,0,0,1-7.63,8.43,3.255,3.255,0,0,0-1.263,1.578c-.3,1.206.905,2.293,2.1,2.594a20.449,20.449,0,0,0,4.156.16,3.982,3.982,0,0,1,3.543,1.821c.857,1.752-.513,3.755-1.908,5.1a33.891,33.891,0,0,1-9.568,6.507,11.4,11.4,0,0,0-3.581,2.079,3.276,3.276,0,0,0-.77,3.821,3.336,3.336,0,0,0,3.721,1.124,23.589,23.589,0,0,0,3.767-1.767c2.359-1.095,5.506-1.159,7.215.824a5.6,5.6,0,0,1,.96,4.9,12.917,12.917,0,0,1-2.355,4.562A34.045,34.045,0,0,1,312.656,382c-5.485,2.368-10.663,3.281-16.41,1.648" transform="translate(-283.144 -318.281)"/><g transform="translate(14.679 1.283)"><path class="a" d="M302.035,384.5c.074-4.242-.664-1.891.516-7.372a158.693,158.693,0,0,1,5.024-17.5l1.553-4.521c.513-1.482,1.022-2.952,1.608-4.359a79.266,79.266,0,0,1,3.832-7.892c1.34-2.451,2.7-4.729,3.99-6.849s2.536-4.07,3.745-5.8a62.822,62.822,0,0,1,6.305-7.733c.813-.852,1.465-1.491,1.913-1.919l.513-.484a1.286,1.286,0,0,1,.183-.156,1.335,1.335,0,0,1-.159.18l-.49.506c-.433.443-1.07,1.1-1.868,1.96a66.608,66.608,0,0,0-6.208,7.779c-1.193,1.734-2.422,3.688-3.7,5.81s-2.629,4.4-3.959,6.853a80.048,80.048,0,0,0-3.8,7.869c-.582,1.4-1.084,2.857-1.6,4.344l-1.55,4.517a162.715,162.715,0,0,0-5.039,17.46c-1.192,5.46-.476,3.086-.579,7.312" transform="translate(-301.874 -319.918)"/></g><g transform="translate(19.615 12.857)"><path class="a" d="M312.189,353.926a3.583,3.583,0,0,1-.228-.741c-.129-.481-.292-1.183-.481-2.053-.379-1.74-.821-4.161-1.3-6.832s-.953-5.079-1.357-6.809c-.2-.865-.369-1.564-.492-2.046a3.47,3.47,0,0,1-.155-.759,3.619,3.619,0,0,1,.277.724c.161.471.364,1.163.592,2.024.465,1.721.977,4.132,1.455,6.807l1.2,6.844c.15.823.277,1.516.379,2.072A3.5,3.5,0,0,1,312.189,353.926Z" transform="translate(-308.172 -334.686)"/></g><g transform="translate(23.632 26.167)"><path class="a" d="M335.69,351.679a4.951,4.951,0,0,1-.9.175c-.579.095-1.417.228-2.448.425-2.063.379-4.894,1-7.988,1.823s-5.861,1.7-7.844,2.384c-.995.336-1.792.63-2.345.83a4.821,4.821,0,0,1-.87.283,4.892,4.892,0,0,1,.824-.4c.539-.237,1.327-.564,2.314-.93,1.969-.745,4.736-1.652,7.839-2.484a80.333,80.333,0,0,1,8.033-1.734c1.038-.168,1.884-.266,2.47-.322A4.73,4.73,0,0,1,335.69,351.679Z" transform="translate(-313.298 -351.669)"/></g><g transform="translate(2.03 29.903)"><path class="a" d="M299.309,384.591a1.128,1.128,0,0,1-.176-.265l-.449-.793c-.386-.69-.92-1.7-1.563-2.964-1.288-2.52-2.957-6.057-4.745-9.985s-3.424-7.478-4.657-10.021c-.6-1.236-1.1-2.252-1.469-3.009l-.4-.821a1.227,1.227,0,0,1-.118-.3,1.175,1.175,0,0,1,.176.266l.449.792c.386.69.92,1.7,1.564,2.964,1.287,2.52,2.956,6.057,4.745,9.987s3.423,7.476,4.656,10.021c.6,1.235,1.1,2.252,1.469,3.008.158.328.288.6.395.821A1.184,1.184,0,0,1,299.309,384.591Z" transform="translate(-285.734 -356.436)"/></g><g transform="translate(15.604 46.104)"><path class="a" d="M332.51,377.11a1.214,1.214,0,0,1-.291.146l-.854.358-3.154,1.285c-2.663,1.086-6.323,2.629-10.366,4.339s-7.722,3.22-10.408,4.252c-1.343.516-2.433.922-3.193,1.188l-.876.3a1.174,1.174,0,0,1-.313.083,1.256,1.256,0,0,1,.29-.146l.855-.358,3.153-1.285c2.663-1.085,6.324-2.629,10.367-4.339s7.72-3.22,10.406-4.252c1.343-.516,2.433-.922,3.194-1.188l.876-.3A1.169,1.169,0,0,1,332.51,377.11Z" transform="translate(-303.055 -377.108)"/></g></g><g transform="translate(38.794 348.927)"><g transform="translate(0)"><path class="f" d="M270.3,408.471c0,.075-51.554.137-115.135.137-63.6,0-115.145-.062-115.145-.137s51.543-.136,115.145-.136C218.748,408.335,270.3,408.4,270.3,408.471Z" transform="translate(-40.021 -408.335)"/></g></g><g transform="translate(171.383 146.135)"><g transform="translate(40.382 14.403)"><g transform="translate(0 0.519)"><path class="f" d="M274.341,169.157c-3.766-1.617-8.142.692-9.834,3.256a21.833,21.833,0,0,0-2.9,8.673,71.136,71.136,0,0,0-.464,18.888c.2,1.852.561,3.868,1.978,5.078a6.151,6.151,0,0,0,5.052.947,6.873,6.873,0,0,0,4.2-2.1c1.571-1.886,1.365-4.623,1.2-7.073a73.506,73.506,0,0,1,2.632-25.1" transform="translate(-260.724 -168.619)"/></g><g transform="translate(5.411)"><path class="f" d="M267.628,172.435c1.728-3.433,6.958-5.285,11.217-4.137,3.582.966,7.408,4.644,7.667,8.422.376,5.48-2.585,11.076-.832,16.281,2.039,6.057,9.557,8.995,11.482,15.09a9.583,9.583,0,0,1-.827,7.578,4.654,4.654,0,0,1-3.046,2.471c-1.665.27-3.2-.85-4.518-1.908-3.552-2.855-7.166-5.778-9.641-9.605-2.916-4.51-4.037-9.991-4.086-15.361a85.625,85.625,0,0,1,1.871-15.976" transform="translate(-267.628 -167.958)"/></g><g transform="translate(3.289 2.035)"><path class="g" d="M282.021,179.651a8.092,8.092,0,0,0-7.271-9.061,8.252,8.252,0,0,0-8.793,7.085,84.417,84.417,0,0,0-1.036,8.923c.053,4.152,2.482,5.768,3.466,6.253a5.345,5.345,0,0,0,1.093.272h0a.028.028,0,0,1,.023.032l-.922,4.767c-.419,3.122,1.324,5.908,4.442,6.362s5.573-1.943,6.051-5.068Z" transform="translate(-264.92 -170.555)"/><g transform="translate(1.988 7.727)"><g transform="translate(0 0.95)"><path class="f" d="M267.466,182.13a.661.661,0,0,0,.534.751.632.632,0,0,0,.759-.491.659.659,0,0,0-.533-.751A.632.632,0,0,0,267.466,182.13Z" transform="translate(-267.457 -181.626)"/></g><g transform="translate(0)"><path class="f" d="M267.463,180.934c.069.1.617-.2,1.32-.093s1.166.531,1.255.456c.043-.033-.017-.2-.218-.394a1.806,1.806,0,0,0-.989-.471,1.743,1.743,0,0,0-1.066.18C267.525,180.746,267.43,180.89,267.463,180.934Z" transform="translate(-267.457 -180.414)"/></g></g><g transform="translate(8.64 8.865)"><g transform="translate(0 0.891)"><path class="f" d="M275.954,183.508a.659.659,0,0,0,.534.751.631.631,0,0,0,.759-.491.659.659,0,0,0-.533-.751A.631.631,0,0,0,275.954,183.508Z" transform="translate(-275.944 -183.004)"/></g><g transform="translate(0.238)"><path class="f" d="M276.254,182.386c.068.1.617-.2,1.319-.092s1.166.531,1.256.455c.042-.032-.016-.2-.218-.394a1.812,1.812,0,0,0-.99-.47,1.735,1.735,0,0,0-1.065.18C276.316,182.2,276.22,182.342,276.254,182.386Z" transform="translate(-276.247 -181.866)"/></g></g><g transform="translate(3.85 8.415)"><path class="f" d="M271.556,187.1a4.728,4.728,0,0,0-1.112-.372c-.176-.045-.341-.105-.353-.232a.923.923,0,0,1,.2-.515l.73-1.289a23.628,23.628,0,0,0,1.713-3.4,23.809,23.809,0,0,0-1.983,3.255q-.37.682-.708,1.3a1.046,1.046,0,0,0-.2.69.457.457,0,0,0,.257.306,1.254,1.254,0,0,0,.3.087A4.654,4.654,0,0,0,271.556,187.1Z" transform="translate(-269.833 -181.292)"/></g><g transform="translate(4.34 21.645)"><path class="h" d="M270.706,199.1a11.31,11.31,0,0,0,6.372-.927s-1.593,3.431-6.621,2.212Z" transform="translate(-270.458 -198.173)"/></g><g transform="translate(5.53 15.615)"><path class="h" d="M272.07,190.826a1.281,1.281,0,0,1,1.2-.3,1.17,1.17,0,0,1,.736.545.742.742,0,0,1-.067.846.859.859,0,0,1-.955.1,2.675,2.675,0,0,1-.82-.667.786.786,0,0,1-.171-.237.239.239,0,0,1,.04-.262" transform="translate(-271.977 -190.48)"/></g><g transform="translate(5.058 15.012)"><path class="f" d="M273.887,189.71c-.113-.024-.226.739-.958,1.186s-1.531.244-1.553.35c-.017.046.16.175.5.234a1.922,1.922,0,0,0,1.29-.249,1.675,1.675,0,0,0,.755-1C274,189.914,273.94,189.713,273.887,189.71Z" transform="translate(-271.375 -189.709)"/></g><g transform="translate(8.746 7.747)"><path class="f" d="M276.081,180.8c.042.2.756.213,1.567.433.814.2,1.444.542,1.578.386.06-.075-.029-.272-.27-.5a2.824,2.824,0,0,0-2.4-.624C276.238,180.578,276.064,180.706,276.081,180.8Z" transform="translate(-276.08 -180.44)"/></g><g transform="translate(2.452 6.28)"><path class="f" d="M268.059,179.136c.1.177.609.082,1.192.159.586.057,1.06.264,1.2.114.061-.074.007-.245-.187-.427a1.74,1.74,0,0,0-1.925-.22C268.108,178.9,268.016,179.05,268.059,179.136Z" transform="translate(-268.049 -178.567)"/></g></g><g transform="translate(7.552 1.629)"><path class="f" d="M270.36,170.976a8.573,8.573,0,0,0,5.928,6.865q-.118-.589-.236-1.177a12.053,12.053,0,0,0,6.55,5.821,8.3,8.3,0,0,0-12.2-10.808" transform="translate(-270.36 -170.037)"/></g><g transform="translate(23.658 9.46)"><path class="f" d="M301.672,213.885a6.792,6.792,0,0,0,.808-1.263,6.487,6.487,0,0,0,.418-3.988,8.359,8.359,0,0,0-1.016-2.609,13.822,13.822,0,0,0-1.983-2.555c-1.575-1.665-3.656-3.134-5.551-5.025a10.864,10.864,0,0,1-2.287-3.165,12.176,12.176,0,0,1-.979-3.5,30.8,30.8,0,0,1-.026-6.132c.132-1.739.27-3.141.36-4.111q.066-.695.107-1.116a2.123,2.123,0,0,1,.056-.389,2.13,2.13,0,0,1,0,.392c-.014.283-.032.656-.056,1.122-.067,1-.159,2.4-.273,4.115a31.9,31.9,0,0,0,.082,6.085,12.058,12.058,0,0,0,.973,3.425,10.674,10.674,0,0,0,2.238,3.085c1.869,1.868,3.952,3.347,5.539,5.044a13.858,13.858,0,0,1,2,2.615,8.463,8.463,0,0,1,1.01,2.687,6.457,6.457,0,0,1-.512,4.07,4.635,4.635,0,0,1-.625.94A2.207,2.207,0,0,1,301.672,213.885Z" transform="translate(-290.911 -180.029)"/></g></g><g transform="translate(70.16 186.6)"><path class="i" d="M307.41,387.674l2.488,12.2,4.75,9.079a1.276,1.276,0,0,1-.618,1.759h0a1.267,1.267,0,0,1-1.165-.072c-2.257-1.353-10.535-6.376-10.667-7.279-.153-1.046-3.478-12.692-3.478-12.692Z" transform="translate(-298.72 -387.674)"/><g class="j" transform="translate(3.292 14.865)"><path class="c" d="M314.939,414.811l-12.019-8.17.118.514a1.919,1.919,0,0,0,.72,1.113c.977.73,3.719,2.687,9.979,6.481a1.276,1.276,0,0,0,1.2.063Z" transform="translate(-302.92 -406.641)"/></g><g class="j" transform="translate(3.895 10.328)"><path class="c" d="M304.685,400.906a.772.772,0,0,1,.43.936.742.742,0,0,1-.924.434.814.814,0,0,1-.45-.993.77.77,0,0,1,1.011-.346" transform="translate(-303.69 -400.852)"/></g><g transform="translate(11.299 16.52)"><path class="f" d="M313.166,410.6a2.755,2.755,0,0,1,2.186-1.773c0-.032-.172-.092-.465-.067a2.035,2.035,0,0,0-1.69,1.371C313.112,410.411,313.134,410.595,313.166,410.6Z" transform="translate(-313.138 -408.752)"/></g><g transform="translate(12.551 18.527)"><path class="f" d="M314.747,412.58c.07.039.369-.444.956-.767a10.408,10.408,0,0,1,1.15-.422,1.415,1.415,0,0,0-1.285.185C314.9,411.946,314.676,412.562,314.747,412.58Z" transform="translate(-314.734 -411.313)"/></g><g transform="translate(9.237 14.51)"><path class="f" d="M310.513,408.327a6.55,6.55,0,0,1,3.1-2.114,3.486,3.486,0,0,0-3.1,2.114Z" transform="translate(-310.506 -406.188)"/></g><g transform="translate(8.175 12.013)"><path class="f" d="M309.154,403.993c.049.065.655-.368,1.52-.6s1.605-.178,1.614-.259a3.164,3.164,0,0,0-3.134.858Z" transform="translate(-309.151 -403.002)"/></g><g transform="translate(7.354 8.459)"><path class="f" d="M308.106,399.451a6.2,6.2,0,0,1,1.567-.665,6.261,6.261,0,0,1,1.7.037c.014-.03-.153-.152-.47-.249a2.774,2.774,0,0,0-2.454.471C308.192,399.252,308.082,399.428,308.106,399.451Z" transform="translate(-308.103 -398.467)"/></g><g transform="translate(6.631 5.795)"><path class="f" d="M309.3,397.378a1.063,1.063,0,0,0-.088-.463,3.275,3.275,0,0,0-.639-1.119,1.453,1.453,0,0,0-.76-.537.513.513,0,0,0-.538.24.836.836,0,0,0-.067.592,1.8,1.8,0,0,0,1.911,1.275,2.09,2.09,0,0,0,1.759-1.523.723.723,0,0,0-.1-.6.5.5,0,0,0-.572-.143,1.79,1.79,0,0,0-.705.6,3.64,3.64,0,0,0-.613,1.132,1.1,1.1,0,0,0-.091.462,5.794,5.794,0,0,1,.853-1.469,1.664,1.664,0,0,1,.627-.506.269.269,0,0,1,.313.076.5.5,0,0,1,.043.4,1.867,1.867,0,0,1-1.541,1.3,1.565,1.565,0,0,1-1.638-1.06.6.6,0,0,1,.029-.415.278.278,0,0,1,.3-.136,1.306,1.306,0,0,1,.652.443A4.808,4.808,0,0,1,309.3,397.378Z" transform="translate(-307.181 -395.068)"/></g></g><g transform="translate(36.529 187.636)"><g transform="translate(0.01)"><path class="i" d="M265.192,389.237l.578,9.908s-9.876,3.915-9.949,5.756l19.251-.429L274.806,389Z" transform="translate(-255.821 -388.996)"/></g><g class="j" transform="translate(14.967 9.152)"><path class="c" d="M275.831,400.7a.788.788,0,0,1,.563.886.756.756,0,0,1-.872.566.829.829,0,0,1-.592-.94.785.785,0,0,1,.973-.488" transform="translate(-274.905 -400.674)"/></g><g class="j" transform="translate(0 13.916)"><path class="c" d="M275.069,408.311l-.088-1.559-18.425,1s-.848.392-.738.993Z" transform="translate(-255.808 -406.752)"/></g><g transform="translate(9.643 9.964)"><path class="f" d="M268.114,401.8c.005.094.477.126.945.418s.725.682.81.643c.086-.02-.067-.579-.641-.922S268.092,401.718,268.114,401.8Z" transform="translate(-268.113 -401.709)"/></g><g transform="translate(7.643 10.897)"><path class="f" d="M265.561,402.941c-.019.092.392.242.719.633s.43.809.523.8c.089.013.141-.539-.276-1.017S265.562,402.852,265.561,402.941Z" transform="translate(-265.56 -402.901)"/></g><g transform="translate(5.763 11.774)"><path class="f" d="M263.95,405.625c.086.018.206-.455-.047-.964s-.7-.7-.734-.625.24.348.441.77S263.856,405.618,263.95,405.625Z" transform="translate(-263.162 -404.019)"/></g><g transform="translate(9.76 7.426)"><path class="f" d="M268.265,398.83c.041.085.469-.054,1-.03s.95.183,1,.1-.358-.408-.985-.428S268.217,398.757,268.265,398.83Z" transform="translate(-268.261 -398.471)"/></g><g class="k" transform="translate(9.498 2.079)"><path d="M267.927,391.773l.1,1.766,9.459-.3-.023-1.593Z" transform="translate(-267.927 -391.649)"/></g><g transform="translate(9.683 4.179)"><path class="f" d="M268.164,395.933a1.805,1.805,0,0,0,.964-.027,4.286,4.286,0,0,0,1-.332,4.638,4.638,0,0,0,.547-.306,1.211,1.211,0,0,0,.286-.234.41.41,0,0,0,.031-.5.516.516,0,0,0-.416-.206,1.252,1.252,0,0,0-.361.058,3.46,3.46,0,0,0-.595.219,3.388,3.388,0,0,0-.876.6c-.437.423-.582.778-.549.8s.254-.27.7-.621a3.859,3.859,0,0,1,.85-.5,3.528,3.528,0,0,1,.549-.183c.2-.058.376-.064.43.026.02.034.023.048-.019.108a.941.941,0,0,1-.21.171,5.209,5.209,0,0,1-.5.3,5.328,5.328,0,0,1-.924.378A6.671,6.671,0,0,0,268.164,395.933Z" transform="translate(-268.164 -394.328)"/></g><g transform="translate(8.497 2.874)"><path class="f" d="M267.962,395.705a1.541,1.541,0,0,0,.234-.937,3.122,3.122,0,0,0-.414-1.633.8.8,0,0,0-.625-.473.45.45,0,0,0-.4.277,1.3,1.3,0,0,0-.092.356,2.159,2.159,0,0,0,.014.65,2.219,2.219,0,0,0,.434.987c.387.49.782.594.789.562.031-.048-.3-.223-.6-.7a2.23,2.23,0,0,1-.324-.9,1.962,1.962,0,0,1,0-.558c.026-.205.1-.371.176-.353.1,0,.262.147.345.308a3.222,3.222,0,0,1,.25.517,3.459,3.459,0,0,1,.208.958C268,395.338,267.911,395.692,267.962,395.705Z" transform="translate(-266.65 -392.663)"/></g></g><g transform="translate(33.101 81.441)"><path class="f" d="M279.208,253.921s5.659,12.289,6.512,15.874,16.656,98.318,16.656,98.318l-14.515.88-19.717-92.67,7.931,92-14.284,1.192s-10.8-97.217-10.342-99.961c.69-4.141,4.182-16.058,4.182-16.058Z" transform="translate(-251.435 -253.496)"/><g transform="translate(13.104 4.545)"><path class="l" d="M271.64,276.98s0,.082-.116.16a.5.5,0,0,1-.56-.054,1.274,1.274,0,0,1-.342-.819l-.19-1.129c-.275-1.674-.636-3.99-1.019-6.55s-.715-4.881-.941-6.562c-.1-.8-.187-1.472-.254-1.994a3.859,3.859,0,0,1-.057-.737,3.836,3.836,0,0,1,.161.721c.089.519.2,1.183.339,1.98.275,1.675.636,3.991,1.02,6.551s.714,4.88.94,6.562q.082.62.15,1.135a1.205,1.205,0,0,0,.261.761.451.451,0,0,0,.465.086C271.6,277.042,271.629,276.973,271.64,276.98Z" transform="translate(-268.156 -259.295)"/></g><g transform="translate(14.63 6.139)"><path class="l" d="M270.576,261.594c-.012-.011.023-.082.139-.159a.8.8,0,0,1,1.182.541.919.919,0,0,1-.468.963.954.954,0,0,1-1.056-.178.875.875,0,0,1-.248-.835c.126-.506.482-.619.48-.586a1.448,1.448,0,0,0-.291.618.7.7,0,0,0,.227.618.728.728,0,0,0,.766.121.691.691,0,0,0,.342-.683.579.579,0,0,0-.412-.48A1,1,0,0,0,270.576,261.594Z" transform="translate(-270.103 -261.329)"/></g></g><g transform="translate(0 0)"><path class="g" d="M232.409,177.168l-8.9-13.731h0l-2.7-4.521s-.8-4.538-1.19-5.812c-.795-2.625-1.031-2.557-1.321-2.412-.779.388,1.222,4.671.258,4s-1.838-5.522-2.635-5.082c-1.039.573,1.138,5.017,1.294,5.408s-.4.629-.524.27c-.176-.516-2.158-5.9-3.184-5.346-.569.306.077,1.277.077,1.277s2.225,4.9,1.732,5.144-1.9-2.584-2.31-3.572-1.028-1.183-1.314-.647c-.194.366.977,3.423,1.4,4.391s1.635,3.6-.019,2.789-3.23-.816-3.658-.52a.576.576,0,0,0,.4,1.013,6.71,6.71,0,0,1,1.792.489,4.377,4.377,0,0,1,1.282.76c.442.379.8.718,1.1,1.014l2.207,4.591h0l9.76,19.154L246.4,202.749l5.151-9.289Z" transform="translate(-209.199 -149.58)"/></g><g transform="translate(64.524 74.194)"><path class="g" d="M302.995,274.38c.127.4.263.877.4,1.444a4.376,4.376,0,0,1,.089,1.488,6.685,6.685,0,0,1-.386,1.817c-.248.515.258,1.065.717.821s1.18-1.647,1.214-3.49,1.821.44,2.488,1.261,2.847,3.261,3.262,3.256c.608-.007.712-.66.027-1.463s-2.568-3.358-2.118-3.689,3.778,3.9,3.778,3.9.567,1.018,1.1.653c.961-.659-2.915-4.886-3.294-5.279-.263-.273.213-.65.48-.342s3.229,4.289,4.214,3.627c.756-.507-3.156-3.506-3.311-4.67s2.735,2.575,3.437,2.061c.262-.191.43-.371-1.54-2.279-.956-.926-4.621-3.72-4.621-3.72l-7.762-25.522-9.637.158Z" transform="translate(-291.529 -244.249)"/></g><g transform="translate(19.463 30.209)"><path class="m" d="M260.748,201.76h0a48.535,48.535,0,0,1-4.6-2.052l-15.288-11.583-6.826,9.112s17.442,15.735,17.733,15.663S260.748,201.76,260.748,201.76Z" transform="translate(-234.033 -188.126)"/><g transform="translate(16.911 13.596)"><path class="m" d="M266.568,205.474l-1.154.038a7.984,7.984,0,0,0-7.315,5.462c-1.165,3.507-1.1,4.654-1.9,7.27-1.932,6.26,1.538,13.855,1.538,13.855l-1.2,11.011,23.577.425,1.187-13.269,4.4-19.869s-.98-4.262-4.72-4.605C279.034,205.612,266.568,205.474,266.568,205.474Z" transform="translate(-255.61 -205.474)"/></g><g transform="translate(38.589 14.257)"><path class="m" d="M287.651,206.317s5.587-.024,7.289,6.413,5.086,23.382,5.086,23.382l-10.583,3.183-5.684-23.252a11.439,11.439,0,0,1-.458-4.066C283.476,209.652,284.349,206.632,287.651,206.317Z" transform="translate(-283.271 -206.317)"/></g><g transform="translate(26.195 10.348)"><path class="m" d="M267.457,204.895l1.863-3.565,3.147,1.783v1.548l1-1.548,7.431-1.783v4.4l-8.672.943Z" transform="translate(-267.457 -201.33)"/></g><g transform="translate(16.891 19.337)"><path class="f" d="M259.069,212.8a4.927,4.927,0,0,1-.392.755c-.137.236-.3.527-.462.879s-.379.736-.555,1.191c-.192.448-.4.939-.574,1.484-.2.535-.357,1.128-.532,1.746a22.231,22.231,0,0,0-.534,8.3c.095.636.17,1.243.3,1.8.1.563.246,1.077.379,1.546.116.474.277.885.4,1.252s.241.68.346.931a5.062,5.062,0,0,1,.292.8,5.1,5.1,0,0,1-.389-.757,8.487,8.487,0,0,1-.392-.919c-.135-.366-.31-.776-.439-1.25A15.756,15.756,0,0,1,256.1,229c-.144-.561-.229-1.173-.331-1.816a21.356,21.356,0,0,1,.54-8.394c.185-.624.347-1.221.562-1.759a15.688,15.688,0,0,1,.611-1.486c.188-.455.415-.839.6-1.184a8.62,8.62,0,0,1,.506-.861A5.148,5.148,0,0,1,259.069,212.8Z" transform="translate(-255.585 -212.8)"/></g><g transform="translate(26.659 11.85)"><path class="f" d="M272.04,203.247a4.561,4.561,0,0,1-.278,1.078c-.2.654-.5,1.553-.853,2.538l-.161.454-.056.157-.141-.085a10.282,10.282,0,0,1-1.882-1.444,2.8,2.8,0,0,1-.619-.733,26.05,26.05,0,0,0,2.639,1.944l-.2.071.159-.455c.348-.986.677-1.874.929-2.512A4.483,4.483,0,0,1,272.04,203.247Z" transform="translate(-268.049 -203.247)"/></g><g transform="translate(32.148 12.099)"><path class="f" d="M279.652,206.613a5.46,5.46,0,0,1-1.119.48c-.7.265-1.684.614-2.779.988l-.155.053-.024-.163-.02-.134c-.172-1.175-.313-2.241-.4-3.014a5.761,5.761,0,0,1-.087-1.259,5.767,5.767,0,0,1,.278,1.232c.137.766.308,1.827.48,3l.02.134-.179-.11c1.1-.371,2.086-.69,2.806-.909A5.466,5.466,0,0,1,279.652,206.613Z" transform="translate(-275.052 -203.564)"/></g><g transform="translate(40.644 46.952)"><path class="f" d="M285.9,248.037a3.812,3.812,0,0,1,.69,4.17,6.281,6.281,0,0,0-.69-4.17Z" transform="translate(-285.893 -248.034)"/></g><g transform="translate(43.875 40.315)"><path class="n" d="M300.6,239.574a8.363,8.363,0,0,1-1.512.462c-.945.245-2.259.545-3.724.82s-2.8.469-3.768.583a8.323,8.323,0,0,1-1.577.115,10.035,10.035,0,0,1,1.549-.307c.96-.162,2.285-.386,3.745-.66s2.776-.543,3.73-.74A9.868,9.868,0,0,1,300.6,239.574Z" transform="translate(-290.016 -239.567)"/></g><g transform="translate(42.363 33.875)"><path class="n" d="M298.974,231.354a8.408,8.408,0,0,1-1.555.574c-.976.309-2.342.676-3.855,1.047s-2.882.708-3.868.968a12.086,12.086,0,0,1-1.608.388,8.4,8.4,0,0,1,1.555-.574c.977-.309,2.342-.676,3.856-1.047s2.881-.708,3.868-.968A12.087,12.087,0,0,1,298.974,231.354Z" transform="translate(-288.087 -231.349)"/></g><g transform="translate(41.17 31.331)"><path class="f" d="M290.155,244.006a2.942,2.942,0,0,1-.193-.614l-.426-1.694c-.349-1.433-.812-3.418-1.306-5.612S287.3,231.9,287,230.454l-.342-1.714a2.978,2.978,0,0,1-.089-.637,2.844,2.844,0,0,1,.193.612l.426,1.694c.349,1.433.812,3.418,1.307,5.615s.928,4.188,1.229,5.633l.342,1.713A2.88,2.88,0,0,1,290.155,244.006Z" transform="translate(-286.565 -228.103)"/></g><g transform="translate(17.363 27.963)"><path class="n" d="M291.511,224.776c0,.075-7.912-.076-17.664-.339s-17.661-.537-17.659-.613,7.91.077,17.666.339S291.514,224.7,291.511,224.776Z" transform="translate(-256.188 -223.805)"/></g><g transform="translate(19.732 19.931)"><path class="n" d="M289.458,213.568a1.286,1.286,0,0,1-.3.045l-.879.077c-.763.062-1.869.137-3.236.219-2.734.164-6.514.342-10.692.456s-7.963.138-10.7.121c-1.37-.008-2.478-.024-3.244-.044l-.882-.029a1.34,1.34,0,0,1-.307-.029,1.333,1.333,0,0,1,.308-.026l.882-.022,3.242-.043c2.738-.033,6.519-.09,10.7-.2s7.954-.261,10.689-.376l3.24-.132.882-.026A1.3,1.3,0,0,1,289.458,213.568Z" transform="translate(-259.21 -213.558)"/></g><g transform="translate(12.175 10.812)"><path class="n" d="M249.57,211.454c-.057-.049,1.747-2.223,4.028-4.855s4.178-4.726,4.235-4.676-1.746,2.223-4.028,4.856S249.627,211.5,249.57,211.454Z" transform="translate(-249.568 -201.922)"/></g><g transform="translate(17.733 36.367)"><path class="n" d="M280.71,236.935c-.007.075-5.4-.4-12.038-1.063s-12.02-1.26-12.012-1.335,5.4.4,12.039,1.064S280.718,236.86,280.71,236.935Z" transform="translate(-256.66 -234.529)"/></g><g transform="translate(18.688 45.477)"><path class="n" d="M281.24,246.713c0,.076-5.233.019-11.684-.127s-11.68-.324-11.678-.4,5.232-.018,11.685.127S281.242,246.638,281.24,246.713Z" transform="translate(-257.878 -246.153)"/></g><g transform="translate(26.173 13.496)"><path class="f" d="M267.449,243.01a1.967,1.967,0,0,1-.019-.387c0-.254,0-.629.01-1.111.02-.965.069-2.36.185-4.081.06-.861.136-1.8.241-2.812s.257-2.085.4-3.212c.281-2.259.526-4.751.785-7.368a107.71,107.71,0,0,1,1.918-13.337c.384-1.683.774-3.026,1.068-3.944q.225-.654.361-1.051a1.957,1.957,0,0,1,.144-.36,2.161,2.161,0,0,1-.092.377l-.312,1.064c-.263.926-.623,2.272-.981,3.955a120.546,120.546,0,0,0-1.835,13.322c-.259,2.617-.512,5.111-.807,7.372-.149,1.132-.309,2.2-.422,3.205s-.2,1.944-.274,2.8c-.14,1.716-.218,3.108-.271,4.071l-.062,1.107A2.2,2.2,0,0,1,267.449,243.01Z" transform="translate(-267.429 -205.347)"/></g><g transform="translate(34.714 27.978)"><rect class="n" width="5.71" height="1.485"/></g><g class="k" transform="translate(39.518 32.5)"><path d="M286.274,229.6a11.592,11.592,0,0,0,.4,13.049q.534-3.687,1.067-7.373" transform="translate(-284.457 -229.595)"/></g></g><g transform="translate(55.13 23.864)"><path class="f" d="M281.888,182.2a6.031,6.031,0,0,1-.142,4.491,11.54,11.54,0,0,0-.989,4.469c.117,1.424.88,2.73,1.02,4.152.235,2.4-1.3,4.567-1.926,6.891a9.488,9.488,0,0,0,2.071,8.656,1.124,1.124,0,0,0,.79.469.843.843,0,0,0,.72-.712,3.736,3.736,0,0,0-.026-1.089c-.29-3.435,3.012-6.184,3.493-9.6.313-2.217-.6-4.415-.742-6.651-.172-2.813.89-5.543,1.234-8.341a6.5,6.5,0,0,0-.16-2.861,2.981,2.981,0,0,0-1.936-1.986,1.961,1.961,0,0,0-2.346,1.159" transform="translate(-279.543 -180.029)"/></g></g><g transform="translate(142.736 158.845)"><g transform="translate(0 2.393)"><path class="o" d="M195.222,200.816l-11.112,7.033,7.9-21.548,2.126-4.249c.284-.358.629-.769,1.056-1.234a4.766,4.766,0,0,1,1.283-.982,7.256,7.256,0,0,1,1.867-.756.625.625,0,0,0,.3-1.143c-.5-.264-2.2-.06-3.872,1.027s-.71-1.9-.378-3,1.2-4.538.946-4.908c-.376-.541-1.026-.239-1.332.864s-1.459,4.346-2.029,4.143,1.206-5.76,1.206-5.76.571-1.128-.081-1.385c-1.176-.464-2.621,5.585-2.744,6.164-.086.4-.714.2-.6-.223s1.893-5.5.7-5.988c-.915-.371-1.234,4.965-2.187,5.811s.654-4.021-.234-4.34c-.331-.118-.594-.161-1.113,2.767-.252,1.422-.538,6.411-.538,6.411l-2.587,5.1.062.053-10.594,22.375c-2.031,5.364,1.284,9.7,4.61,11.662h0a9.362,9.362,0,0,0,9.952-.281l12.836-8.572Z" transform="translate(-172.647 -168.851)"/></g><g transform="translate(20.287 175.075)"><g transform="translate(0.01)"><path class="l" d="M207.742,389.422l.566,9.723s-9.692,3.841-9.763,5.648l18.9-.1-.266-15.511Z" transform="translate(-198.545 -389.186)"/></g><g class="j" transform="translate(14.688 8.981)"><path class="c" d="M218.182,400.674a.773.773,0,0,1,.553.868.742.742,0,0,1-.857.556.813.813,0,0,1-.581-.922.77.77,0,0,1,.955-.48" transform="translate(-217.274 -400.645)"/></g><g class="j" transform="translate(0 13.958)"><path class="c" d="M217.439,408.549,217.422,407l-18.155.674s-.833.385-.725.975Z" transform="translate(-198.533 -406.996)"/></g><g transform="translate(9.464 9.777)"><path class="f" d="M210.609,401.753c.005.092.467.124.928.41s.711.669.795.631c.085-.02-.065-.568-.629-.905S210.587,401.669,210.609,401.753Z" transform="translate(-210.608 -401.661)"/></g><g transform="translate(7.501 10.694)"><path class="f" d="M208.1,402.87c-.019.09.384.238.706.621s.422.794.513.788c.087.013.139-.53-.27-1S208.1,402.782,208.1,402.87Z" transform="translate(-208.103 -402.83)"/></g><g transform="translate(5.656 11.553)"><path class="f" d="M206.523,405.5c.084.018.2-.446-.046-.946s-.684-.691-.721-.614.235.342.433.755S206.43,405.5,206.523,405.5Z" transform="translate(-205.749 -403.928)"/></g><g transform="translate(9.578 7.287)"><path class="f" d="M210.757,398.836c.041.083.461-.053.983-.03s.933.179.979.1-.352-.4-.967-.42S210.71,398.765,210.757,398.836Z" transform="translate(-210.753 -398.484)"/></g><g transform="translate(9.503 4.1)"><path class="f" d="M210.658,395.993a1.773,1.773,0,0,0,.946-.026,4.253,4.253,0,0,0,.984-.327,4.3,4.3,0,0,0,.537-.3,1.181,1.181,0,0,0,.281-.229.4.4,0,0,0,.031-.491.506.506,0,0,0-.409-.2,1.208,1.208,0,0,0-.353.057,3.338,3.338,0,0,0-1.444.806c-.429.416-.571.764-.539.781s.249-.264.688-.609a3.8,3.8,0,0,1,.833-.495,3.452,3.452,0,0,1,.539-.179c.2-.057.369-.063.422.025.02.034.023.047-.018.107a.949.949,0,0,1-.207.167,4.862,4.862,0,0,1-.493.3,5.264,5.264,0,0,1-.907.371A6.526,6.526,0,0,0,210.658,395.993Z" transform="translate(-210.658 -394.418)"/></g><g transform="translate(8.339 2.82)"><path class="f" d="M210.46,395.769a1.513,1.513,0,0,0,.23-.919,3.079,3.079,0,0,0-.406-1.6.782.782,0,0,0-.614-.464.442.442,0,0,0-.39.272,1.311,1.311,0,0,0-.089.35,2.1,2.1,0,0,0,.014.637,2.169,2.169,0,0,0,.426.968c.38.482.767.583.774.552.03-.047-.3-.218-.589-.682A2.181,2.181,0,0,1,209.5,394a1.912,1.912,0,0,1,.005-.547c.024-.2.1-.365.172-.346.093,0,.256.144.338.3a3.138,3.138,0,0,1,.245.508,3.4,3.4,0,0,1,.2.94C210.5,395.409,210.41,395.757,210.46,395.769Z" transform="translate(-209.172 -392.784)"/></g></g><g transform="translate(53.26 174.807)"><g transform="translate(0.012)"><path class="l" d="M249.539,389.207l.741,9.711s-9.622,4.015-9.659,5.823l18.881-.761-1.52-15.136Z" transform="translate(-240.62 -388.844)"/></g><g class="j" transform="translate(14.581 8.995)"><path class="c" d="M260.106,400.347a.771.771,0,0,1,.568.859.741.741,0,0,1-.846.571.813.813,0,0,1-.6-.912.77.77,0,0,1,.946-.5" transform="translate(-259.21 -400.321)"/></g><g class="j" transform="translate(0 13.609)"><path class="c" d="M259.5,407.736l-.114-1.527-18.06,1.3s-.826.4-.707.987Z" transform="translate(-240.605 -406.208)"/></g><g transform="translate(9.361 9.893)"><path class="f" d="M252.55,401.564c.007.092.469.116.935.394s.723.656.806.616c.084-.022-.075-.567-.645-.894S252.526,401.481,252.55,401.564Z" transform="translate(-252.549 -401.467)"/></g><g transform="translate(7.413 10.848)"><path class="f" d="M250.065,402.727c-.017.091.389.231.717.609s.436.786.527.778c.088.011.129-.532-.288-.993S250.063,402.639,250.065,402.727Z" transform="translate(-250.064 -402.685)"/></g><g transform="translate(5.585 11.742)"><path class="f" d="M248.531,405.389c.085.016.194-.449-.063-.944s-.7-.679-.732-.6.241.337.446.747S248.439,405.384,248.531,405.389Z" transform="translate(-247.731 -403.827)"/></g><g transform="translate(9.435 7.39)"><path class="f" d="M252.647,398.642c.042.082.46-.062.982-.048s.936.162.98.082-.359-.394-.975-.4S252.6,398.572,252.647,398.642Z" transform="translate(-252.643 -398.273)"/></g><g transform="translate(9.325 4.18)"><path class="f" d="M252.5,395.794a1.769,1.769,0,0,0,.946-.043,4.226,4.226,0,0,0,.977-.343,4.4,4.4,0,0,0,.531-.31,1.171,1.171,0,0,0,.277-.234.4.4,0,0,0,.023-.492.506.506,0,0,0-.412-.194,1.242,1.242,0,0,0-.353.063,3.344,3.344,0,0,0-1.429.833c-.422.423-.557.774-.525.79s.245-.268.676-.621a3.774,3.774,0,0,1,.824-.509,3.563,3.563,0,0,1,.536-.19c.2-.06.368-.068.423.019.02.033.023.046-.016.107a.99.99,0,0,1-.2.171,4.984,4.984,0,0,1-.488.306,5.276,5.276,0,0,1-.9.387A6.663,6.663,0,0,0,252.5,395.794Z" transform="translate(-252.503 -394.177)"/></g><g transform="translate(8.125 2.953)"><path class="f" d="M252.3,395.583a1.5,1.5,0,0,0,.212-.923,3.074,3.074,0,0,0-.17-1.031,3.122,3.122,0,0,0-.264-.564.783.783,0,0,0-.622-.453.443.443,0,0,0-.385.28,1.288,1.288,0,0,0-.083.35,2.118,2.118,0,0,0,.025.637,2.178,2.178,0,0,0,.444.96c.389.475.777.569.785.538.028-.047-.3-.212-.6-.672a2.178,2.178,0,0,1-.335-.876,1.963,1.963,0,0,1,0-.547c.021-.2.09-.367.166-.35.093,0,.259.139.342.3a3.137,3.137,0,0,1,.255.5,3.41,3.41,0,0,1,.221.936C252.331,395.222,252.246,395.571,252.3,395.583Z" transform="translate(-250.972 -392.612)"/></g></g><g transform="translate(26.697)"><g transform="translate(2.809 1.646)"><path class="o" d="M227.427,176.9l-1.854,21.494-10.765-.86c-.067-1.257.024-6.119.024-6.119s-4.48-.7-4.535-5.175c-.027-2.175.284-6.669.611-10.719a8.287,8.287,0,0,1,8.745-7.607h0A8.287,8.287,0,0,1,227.427,176.9Z" transform="translate(-210.296 -167.898)"/><g transform="translate(4.518 21.791)"><path class="o" d="M216.071,197.361a10.414,10.414,0,0,0,5.839-1.659s-1.38,3.223-5.849,2.82Z" transform="translate(-216.061 -195.702)"/></g></g><g transform="translate(4.474 9.358)"><g transform="translate(0 2.126)"><g transform="translate(0 0.866)"><path class="f" d="M212.429,182.168c.075.087.577-.247,1.264-.211s1.174.4,1.253.324c.038-.035-.035-.19-.247-.361a1.754,1.754,0,0,0-1-.362,1.684,1.684,0,0,0-1.011.272C212.471,181.982,212.392,182.129,212.429,182.168Z" transform="translate(-212.42 -181.557)"/></g><g transform="translate(6.299 0.864)"><path class="f" d="M220.468,182.263c.082.081.556-.292,1.243-.31s1.2.311,1.275.224c.035-.038-.049-.187-.274-.34a1.759,1.759,0,0,0-1.024-.283,1.687,1.687,0,0,0-.987.351C220.5,182.074,220.428,182.227,220.468,182.263Z" transform="translate(-220.457 -181.554)"/></g><g transform="translate(2.417)"><path class="f" d="M217.257,186.186a4.56,4.56,0,0,0-1.118-.2c-.176-.018-.342-.053-.371-.173a.893.893,0,0,1,.118-.521q.248-.637.52-1.338a22.992,22.992,0,0,0,1.167-3.5,23.116,23.116,0,0,0-1.446,3.4q-.261.7-.5,1.346a1.014,1.014,0,0,0-.091.69.439.439,0,0,0,.288.257,1.167,1.167,0,0,0,.3.042A4.475,4.475,0,0,0,217.257,186.186Z" transform="translate(-215.504 -180.452)"/></g><g transform="translate(4.002 6.211)"><path class="f" d="M219.72,188.376c-.112-.007-.114.74-.753,1.27s-1.434.448-1.44.553c-.011.047.177.145.513.154a1.862,1.862,0,0,0,1.2-.419,1.617,1.617,0,0,0,.583-1.065C219.855,188.556,219.771,188.371,219.72,188.376Z" transform="translate(-217.526 -188.376)"/></g></g><g transform="translate(6.489)"><path class="f" d="M220.7,178.255c.068.187.755.1,1.563.2.809.081,1.46.317,1.567.15.048-.081-.066-.256-.329-.438a2.735,2.735,0,0,0-2.385-.263C220.823,178.019,220.674,178.166,220.7,178.255Z" transform="translate(-220.699 -177.739)"/></g><g transform="translate(0.141 0.012)"><path class="f" d="M212.62,178.573c.139.179.683-.007,1.339-.016.654-.032,1.209.121,1.337-.067.056-.091-.031-.271-.274-.441a1.94,1.94,0,0,0-2.156.067C212.634,178.3,212.558,178.485,212.62,178.573Z" transform="translate(-212.6 -177.754)"/></g></g><g transform="translate(15.078 3.02)"><path class="f" d="M225.951,172.367l.025.019a3.525,3.525,0,0,1,1.309,2.278l.013.09c.176,1.277.143,2.577.332,3.853a5.787,5.787,0,0,0,1.572,3.452c.388.362,1.074.611,1.393.187a1.094,1.094,0,0,0,.159-.585c.239-3.084,1.082-5.821,1.075-9.046A2.72,2.72,0,0,0,230.7,170.4c-.676-.484-1.5-.985-2.25-.63s-1.723,1.76-2.3,2.355" transform="translate(-225.951 -169.651)"/></g><g transform="translate(18.256 12.531)"><path class="o" d="M230.181,181.928c.076-.033,3.077-.91,2.979,2.151a2.3,2.3,0,0,1-3.154,2.244C230,186.235,230.181,181.928,230.181,181.928Z" transform="translate(-230.006 -181.787)"/><g transform="translate(0.969 1.002)"><path class="g" d="M231.246,185.47c.013-.009.052.039.14.084a.538.538,0,0,0,.4.02,1.319,1.319,0,0,0,.648-1.165,1.752,1.752,0,0,0-.125-.768.618.618,0,0,0-.388-.422.272.272,0,0,0-.32.136c-.044.085-.027.146-.042.15s-.064-.053-.036-.179a.344.344,0,0,1,.127-.188.4.4,0,0,1,.3-.068.75.75,0,0,1,.542.492,1.811,1.811,0,0,1,.158.859,1.386,1.386,0,0,1-.82,1.3.573.573,0,0,1-.486-.1C231.249,185.544,231.235,185.475,231.246,185.47Z" transform="translate(-231.243 -183.066)"/></g></g><path class="f" d="M224.394,169.411c.754-1.224-1.312-2.984-2.823-3.459s-3.5.26-5,.759a8.329,8.329,0,0,1-2.894.712,6.742,6.742,0,0,1-1.94-.495,4.944,4.944,0,0,0-1.959-.386,1.846,1.846,0,0,0-1.611,1.021,1.157,1.157,0,0,0,.774,1.564,1.5,1.5,0,1,0-.4,2.786c-.435-.33-1.1.215-1.049.759a1.583,1.583,0,0,0,1.046,1.158,5.727,5.727,0,0,0,4.087-.063c1.322-.444,2.547-1.137,3.857-1.615s3.5-1.335,4.82-.871c.968.342,1.642,1.508,2.188,1.25a1.87,1.87,0,0,0,.969-1.376,5.438,5.438,0,0,0-.06-1.744" transform="translate(-206.712 -165.798)"/><g transform="translate(1.852 0.855)"><path class="l" d="M209.077,169.278c.026-.016.158.227.487.584a4.222,4.222,0,0,0,1.7,1.095,3.876,3.876,0,0,0,2.919-.118,13.811,13.811,0,0,0,2.959-2.279,6.348,6.348,0,0,1,3.441-1.653,3.527,3.527,0,0,1,2.927,1.014,2.675,2.675,0,0,1,.7,1.979,2.079,2.079,0,0,1-.132.563c-.055.12-.089.18-.1.176a4.948,4.948,0,0,0,.113-.745,2.632,2.632,0,0,0-.733-1.827,3.346,3.346,0,0,0-2.745-.882,6.193,6.193,0,0,0-3.273,1.607,13.353,13.353,0,0,1-3.039,2.3,4.163,4.163,0,0,1-4.824-1.154,2.885,2.885,0,0,1-.319-.477C209.095,169.345,209.068,169.282,209.077,169.278Z" transform="translate(-209.075 -166.888)"/></g><g transform="translate(16.972 4.569)"><path class="l" d="M230.606,179.6c-.012.011-.132-.084-.248-.327a2.058,2.058,0,0,1-.153-1.11c.067-.987.94-2.046,1.051-3.408a3.075,3.075,0,0,0-.339-1.827,2.34,2.34,0,0,0-1.137-.984,2,2,0,0,0-1.023-.139c-.245.039-.378.1-.39.072s.109-.108.365-.187a1.907,1.907,0,0,1,1.121.053,2.472,2.472,0,0,1,1.3,1.042,3.248,3.248,0,0,1,.4,2,5.569,5.569,0,0,1-.59,1.93,5.8,5.8,0,0,0-.55,1.479A2.354,2.354,0,0,0,230.606,179.6Z" transform="translate(-228.368 -171.628)"/></g></g><g transform="translate(22.267 79.154)"><path class="f" d="M233.937,267.691l17.592,102.374-13.874,1.689-19.7-91.32,1.64,90H206.314l-5.255-103.642Z" transform="translate(-201.059 -266.795)"/></g><g transform="translate(12.977 29.318)"><path class="p" d="M199.8,221.355l-4.959,3.081-5.632-10.813c2.477-1.785,10.4-6.886,12.41-8.2a9.589,9.589,0,0,1,1.593-.851,16.108,16.108,0,0,1,4.165-1.022c1.271-.173,2.238-.257,2.865-.335a18.44,18.44,0,0,0,11.112-.007h0q.654.028,1.266.1h0c3.7.537,7.242,3.1,9.431,5.495l8.755,7.877-8.588,10.268-2.654-3.144.625,14.505,2.535,18.037h-34.3s-.074-4.255.238-10.166c.439-8.311.875-21.242.875-21.242" transform="translate(-189.206 -203.206)"/><g transform="translate(10.192 11.003)"><path class="p" d="M202.273,233.508a16.237,16.237,0,0,0,.22-2.383c.1-1.473.232-3.507.416-5.75s.385-4.272.53-5.742a16.141,16.141,0,0,0,.172-2.387,13.669,13.669,0,0,0-.442,2.354c-.214,1.463-.457,3.493-.643,5.743s-.277,4.291-.3,5.77A13.65,13.65,0,0,0,202.273,233.508Z" transform="translate(-202.211 -217.246)"/></g><g transform="translate(39.649 12.957)"><path class="f" d="M239.885,219.738a6.388,6.388,0,0,0-.088,1.643c0,1.015.062,2.415.176,3.957s.267,2.937.413,3.941a6.368,6.368,0,0,0,.33,1.612,7.832,7.832,0,0,0-.06-1.641c-.089-1.159-.189-2.48-.3-3.94s-.2-2.781-.288-3.94A7.838,7.838,0,0,0,239.885,219.738Z" transform="translate(-239.796 -219.738)"/></g><g transform="translate(1.385 3.646)"><g transform="translate(29.8 11.029)"><rect class="n" width="5.71" height="1.485"/></g><g transform="translate(8.64)"><path class="n" d="M234.248,209.405a4.935,4.935,0,0,0-1.366-.193,6.509,6.509,0,0,0-3.488,1.274c-.666.44-1.35.992-2.118,1.551a14.679,14.679,0,0,1-2.631,1.518,15.422,15.422,0,0,1-3.216.965,15.78,15.78,0,0,1-3.6.189,14.466,14.466,0,0,1-3.542-.664,15.536,15.536,0,0,1-1.607-.605,14.5,14.5,0,0,1-1.452-.777c-1.864-1.1-3.1-2.626-4.408-3.532a5.339,5.339,0,0,0-3.5-1.141,4.1,4.1,0,0,0-1.324.373s.023-.023.074-.056a1.8,1.8,0,0,1,.236-.134,3.059,3.059,0,0,1,1-.289,5.346,5.346,0,0,1,3.618,1.089c1.352.911,2.6,2.415,4.428,3.475a14.566,14.566,0,0,0,1.43.754,15.412,15.412,0,0,0,1.58.588,14.356,14.356,0,0,0,3.481.647,15.769,15.769,0,0,0,3.535-.179,15.424,15.424,0,0,0,3.163-.933,14.766,14.766,0,0,0,2.6-1.471c.766-.545,1.462-1.092,2.144-1.529a6.46,6.46,0,0,1,3.593-1.219,3.434,3.434,0,0,1,1.031.161,2.01,2.01,0,0,1,.254.1C234.222,209.386,234.25,209.4,234.248,209.405Z" transform="translate(-201.998 -207.858)"/></g><g transform="translate(0 9.104)"><path class="n" d="M200.232,222.956c-.042.031-.378-.449-1.07-1.068a8.561,8.561,0,0,0-1.312-.959,8.718,8.718,0,0,0-3.761-1.193,8.537,8.537,0,0,0-1.625.027c-.923.107-1.474.306-1.491.256-.006-.018.127-.078.375-.171a5.6,5.6,0,0,1,1.089-.277,7.619,7.619,0,0,1,1.669-.087,8.233,8.233,0,0,1,3.875,1.229,7.6,7.6,0,0,1,1.313,1.032,5.207,5.207,0,0,1,.436.471,3.076,3.076,0,0,1,.294.383C200.173,222.82,200.248,222.945,200.232,222.956Z" transform="translate(-190.974 -219.475)"/></g><g transform="translate(9.264 16.479)"><path class="n" d="M231.765,230.046a1.287,1.287,0,0,1-.264.16l-.785.411-.571.291c-.212.1-.449.192-.7.3-.506.205-1.072.471-1.731.672l-1.025.343c-.357.117-.741.2-1.131.306-.779.227-1.633.37-2.529.541a29.249,29.249,0,0,1-11.771-.472c-.879-.242-1.719-.452-2.477-.741-.381-.137-.756-.251-1.1-.4l-.995-.425c-.641-.253-1.183-.563-1.672-.808-.242-.128-.471-.239-.674-.355l-.545-.335-.749-.473a1.361,1.361,0,0,1-.251-.179,1.25,1.25,0,0,1,.28.133l.774.426.554.313c.206.109.437.213.681.333.492.231,1.037.527,1.678.767l.994.405c.346.138.721.246,1.1.378.756.277,1.591.478,2.464.712a30.1,30.1,0,0,0,11.672.468c.889-.163,1.738-.3,2.513-.512.389-.1.77-.179,1.127-.289l1.023-.324c.659-.187,1.226-.439,1.734-.63.252-.1.491-.185.705-.277l.578-.268.8-.364A1.4,1.4,0,0,1,231.765,230.046Z" transform="translate(-202.794 -228.885)"/></g><g transform="translate(38.088 8.48)"><path class="n" d="M249.1,219a12.623,12.623,0,0,0-1.6-.131,7.884,7.884,0,0,0-3.65,1.1,17.535,17.535,0,0,0-3.062,2.373,10.956,10.956,0,0,1-1.212,1.078,8.521,8.521,0,0,1,1.078-1.217,14.7,14.7,0,0,1,3.06-2.471,7.426,7.426,0,0,1,3.785-1.054,4.8,4.8,0,0,1,1.189.165A1.186,1.186,0,0,1,249.1,219Z" transform="translate(-239.573 -218.678)"/></g><g transform="translate(8.666 28.7)"><path class="n" d="M232.291,244.48a1.386,1.386,0,0,1-.281.147l-.828.37c-.36.162-.8.35-1.333.534s-1.12.427-1.8.618l-1.06.321c-.37.11-.762.193-1.164.3-.8.216-1.676.368-2.593.543a37.827,37.827,0,0,1-12.1.1c-.919-.16-1.8-.3-2.6-.5-.4-.1-.8-.172-1.169-.276l-1.065-.3c-.683-.179-1.279-.409-1.81-.588s-.98-.356-1.342-.513l-.834-.356a1.407,1.407,0,0,1-.284-.141,1.416,1.416,0,0,1,.3.09l.851.307c.367.141.818.306,1.353.467s1.131.38,1.814.547l1.064.284c.37.1.763.169,1.165.259.8.192,1.676.319,2.59.472a39.28,39.28,0,0,0,12.018-.1c.911-.168,1.782-.31,2.582-.515.4-.1.792-.175,1.161-.278l1.059-.3c.68-.177,1.274-.4,1.8-.577s.98-.342,1.345-.489l.846-.322A1.434,1.434,0,0,1,232.291,244.48Z" transform="translate(-202.031 -244.478)"/></g><g transform="translate(8.32 41.168)"><path class="n" d="M234.169,261.7a1.541,1.541,0,0,1-.333-.023l-.948-.12c-.821-.114-2.012-.258-3.485-.409s-3.231-.29-5.187-.388-4.108-.125-6.367-.081-4.408.191-6.358.362-3.7.4-5.166.617-2.648.412-3.462.563l-.941.161a1.634,1.634,0,0,1-.332.038,1.539,1.539,0,0,1,.321-.092l.931-.212c.81-.183,1.99-.408,3.455-.65s3.217-.478,5.171-.676,4.11-.33,6.376-.385,4.425,0,6.385.1,3.722.266,5.2.447,2.663.35,3.48.5l.94.17A1.509,1.509,0,0,1,234.169,261.7Z" transform="translate(-201.59 -260.388)"/></g></g></g><g transform="translate(57.068 43.274)"><path class="o" d="M255.036,240.074l.513-4.817A20.383,20.383,0,0,1,253.8,222.15l-1.264-1.136-7.072,8.492,9.572,10.569" transform="translate(-245.464 -221.014)"/></g></g><g transform="translate(43.716 157.136)"><g transform="translate(0)"><g transform="translate(12.556 4.71)"><g transform="translate(1.166)"><path class="f" d="M83.756,170.293a9.917,9.917,0,0,0-9.718,7.944c-.405,2.331.033,4.865-1.042,6.971-1.424,2.793-5.152,4.078-5.991,7.1-.7,2.526.957,5.264.248,7.787-.513,1.824-2.147,3.111-2.942,4.829a5.486,5.486,0,0,0,.361,5.246,4.99,4.99,0,0,0,4.737,2.164,20.114,20.114,0,0,0,3.3-1.114c2.389-.782,4.981-.5,7.471-.147s5.046.748,7.493.172,4.792-2.39,5.156-4.876a10.87,10.87,0,0,0-.868-4.771c-3.26-10.261-1.757-21.456-4.07-31.971" transform="translate(-63.81 -169.627)"/></g><g transform="translate(4.333 7.18)"><path class="f" d="M75.52,181.728a10.831,10.831,0,0,0-2.19-2.14,4.124,4.124,0,0,0-2.9-.759,2.583,2.583,0,0,0-2.146,1.929,1.9,1.9,0,0,0,1.575,2.217,1.488,1.488,0,0,0-1.981,1.117,2.048,2.048,0,0,0,1.249,2.106,3.354,3.354,0,0,0,2.568-.069,9.955,9.955,0,0,0,2.232-1.393l2.383-1.8" transform="translate(-67.85 -178.788)"/></g><g transform="translate(2.364 3.646)"><path class="l" d="M66.746,210.582a1.3,1.3,0,0,1-.412-.187,2.162,2.162,0,0,1-.793-1.021,3.023,3.023,0,0,1-.048-2.042,6.388,6.388,0,0,1,1.477-2.279,15.28,15.28,0,0,0,2.089-2.477,4.811,4.811,0,0,0,.4-3.559,20.626,20.626,0,0,1-.752-4.1,3.962,3.962,0,0,1,.643-2.146,5.625,5.625,0,0,1,1.687-1.564c1.31-.835,2.756-1.288,3.918-2.107a4.829,4.829,0,0,0,1.429-1.466,5.426,5.426,0,0,0,.657-1.861,33.838,33.838,0,0,0,.241-3.731,13.268,13.268,0,0,1,.559-3.242,7.035,7.035,0,0,1,2.723-3.83,4.827,4.827,0,0,1,1.16-.576,2.828,2.828,0,0,1,.324-.092.364.364,0,0,1,.113-.02,6.578,6.578,0,0,0-1.536.776,7.041,7.041,0,0,0-2.6,3.8,13.305,13.305,0,0,0-.516,3.2,32.883,32.883,0,0,1-.219,3.762,5.669,5.669,0,0,1-.681,1.951,5.084,5.084,0,0,1-1.5,1.553c-1.2.848-2.656,1.306-3.923,2.117a5.367,5.367,0,0,0-1.608,1.485,3.7,3.7,0,0,0-.6,2,20.992,20.992,0,0,0,.731,4.047,6.838,6.838,0,0,1,.132,1.956,4.129,4.129,0,0,1-.579,1.764,15.045,15.045,0,0,1-2.143,2.495,6.328,6.328,0,0,0-1.473,2.2,2.939,2.939,0,0,0,0,1.957,2.19,2.19,0,0,0,.725,1.014C66.6,210.519,66.753,210.566,66.746,210.582Z" transform="translate(-65.338 -174.279)"/></g><g transform="translate(11.121 9.276)"><path class="l" d="M76.52,185.563a5.819,5.819,0,0,0,.18-4.1,3.577,3.577,0,0,1-.18,4.1Z" transform="translate(-76.512 -181.463)"/></g><g transform="translate(13.051 5.484)"><path class="l" d="M79.79,201.546a1.087,1.087,0,0,1-.194-.2,2.694,2.694,0,0,1-.395-.7,4.413,4.413,0,0,1,.04-2.921,14.383,14.383,0,0,1,2.224-3.741,9.432,9.432,0,0,0,1.2-2.218A8.514,8.514,0,0,0,83.1,189.1c.03-1.87-.329-3.643-.436-5.283a9.6,9.6,0,0,1,.5-4.323,5.374,5.374,0,0,1,1.731-2.365,3.906,3.906,0,0,1,.69-.409,1.1,1.1,0,0,1,.263-.095,9.253,9.253,0,0,0-.888.588,5.478,5.478,0,0,0-1.618,2.35,9.646,9.646,0,0,0-.429,4.235c.118,1.618.487,3.394.458,5.307a8.651,8.651,0,0,1-.454,2.745,9.543,9.543,0,0,1-1.243,2.273,14.79,14.79,0,0,0-2.248,3.658,4.427,4.427,0,0,0-.123,2.825A4.364,4.364,0,0,0,79.79,201.546Z" transform="translate(-78.975 -176.624)"/></g><g transform="translate(0 11.492)"><path class="f" d="M62.324,204.287a2.3,2.3,0,0,1,.154.243,1.608,1.608,0,0,0,.6.534,2.213,2.213,0,0,0,1.23.251,2.146,2.146,0,0,0,1.458-.729,3.474,3.474,0,0,0,.817-1.84,6.007,6.007,0,0,0-.19-2.347c-.2-.818-.513-1.655-.753-2.559a6.438,6.438,0,0,1-.215-2.894,5.413,5.413,0,0,1,1.347-2.571A12.635,12.635,0,0,1,68.8,190.6c.69-.505,1.377-.937,1.984-1.38a13.809,13.809,0,0,0,1.6-1.343,5.98,5.98,0,0,0,1.618-2.5,9.3,9.3,0,0,0,.206-1.089,3.085,3.085,0,0,1-.1,1.118,5.86,5.86,0,0,1-1.582,2.609,13.434,13.434,0,0,1-1.6,1.39c-.611.458-1.291.9-1.969,1.4a12.606,12.606,0,0,0-1.979,1.744A5.2,5.2,0,0,0,65.689,195a6.245,6.245,0,0,0,.205,2.774c.233.887.541,1.73.74,2.567a6.172,6.172,0,0,1,.169,2.441,3.644,3.644,0,0,1-.9,1.937,2.326,2.326,0,0,1-2.883.438,1.556,1.556,0,0,1-.59-.6.961.961,0,0,1-.089-.2C62.325,204.313,62.319,204.288,62.324,204.287Z" transform="translate(-62.322 -184.29)"/></g></g><g transform="translate(38.239 10.382)"><path class="f" d="M102.664,176.864a17.625,17.625,0,0,0,2.3,7.065c.941,1.349,2.774,2.127,3.052,3.748.234,1.365-.582,2.727-.449,4.105.209,2.173,2.6,3.5,3.283,5.574a4.95,4.95,0,0,1-1.53,4.934,11.029,11.029,0,0,1-4.836,2.388c-2.5.675-5.542.882-7.339-.99-1.231-1.282-1.509-3.183-1.665-4.955-.417-4.738-.4-9.5-.384-14.259" transform="translate(-95.092 -176.864)"/></g><g transform="translate(29.374 5.775)"><path class="o" d="M83.844,180.153a8.154,8.154,0,0,1,7.329-9.132,8.315,8.315,0,0,1,8.861,7.14,84.88,84.88,0,0,1,1.045,8.993c-.053,4.184-2.5,5.814-3.494,6.3a5.416,5.416,0,0,1-1.1.274h0a.028.028,0,0,0-.024.033l.929,4.8c.421,3.147-1.335,5.954-4.477,6.412s-5.618-1.958-6.1-5.108Z" transform="translate(-83.78 -170.985)"/><g transform="translate(12.808 8.481)"><path class="f" d="M102.731,182.33c-.069.1-.621-.2-1.33-.094s-1.176.535-1.265.46c-.043-.033.017-.2.219-.4a1.826,1.826,0,0,1,1-.474,1.755,1.755,0,0,1,1.074.182C102.669,182.141,102.766,182.286,102.731,182.33Z" transform="translate(-100.123 -181.806)"/></g><g transform="translate(6.424 9.729)"><path class="f" d="M94.585,183.923c-.069.1-.622-.2-1.33-.094s-1.175.535-1.265.46c-.043-.033.016-.2.22-.4a1.821,1.821,0,0,1,1-.474,1.755,1.755,0,0,1,1.074.182C94.523,183.734,94.62,183.879,94.585,183.923Z" transform="translate(-91.977 -183.399)"/></g><g transform="translate(10.492 8.481)"><path class="f" d="M98.357,187.661a4.8,4.8,0,0,1,1.121-.375c.178-.045.344-.106.357-.234a.931.931,0,0,0-.2-.518l-.736-1.3a24.05,24.05,0,0,1-1.727-3.427,23.849,23.849,0,0,1,2,3.28l.715,1.311a1.056,1.056,0,0,1,.2.7.458.458,0,0,1-.259.308,1.249,1.249,0,0,1-.3.088A4.664,4.664,0,0,1,98.357,187.661Z" transform="translate(-97.168 -181.807)"/></g><g transform="translate(6.252 21.815)"><path class="g" d="M98.18,199.755a11.4,11.4,0,0,1-6.423-.934s1.606,3.458,6.673,2.228Z" transform="translate(-91.757 -198.821)"/></g><g transform="translate(9.574 15.738)"><path class="g" d="M98.053,191.415a1.291,1.291,0,0,0-1.213-.307,1.182,1.182,0,0,0-.742.549.746.746,0,0,0,.067.853.865.865,0,0,0,.962.1,2.708,2.708,0,0,0,.827-.672.8.8,0,0,0,.172-.239.24.24,0,0,0-.04-.264" transform="translate(-95.997 -191.066)"/></g><g transform="translate(9.597 15.129)"><path class="f" d="M96.1,190.29c.114-.023.227.745.966,1.2s1.543.246,1.565.353c.018.047-.161.176-.505.236a1.934,1.934,0,0,1-1.3-.251,1.684,1.684,0,0,1-.76-1.009C95.986,190.5,96.044,190.294,96.1,190.29Z" transform="translate(-96.025 -190.289)"/></g><g transform="translate(5.478 7.867)"><path class="f" d="M93.959,181.386c-.042.2-.763.215-1.579.436-.821.205-1.455.546-1.591.39-.061-.075.03-.274.274-.5a2.85,2.85,0,0,1,2.415-.629C93.8,181.161,93.976,181.29,93.959,181.386Z" transform="translate(-90.77 -181.023)"/></g><g transform="translate(12.384 6.479)"><path class="f" d="M102.015,179.826c-.1.179-.613.083-1.2.161-.59.057-1.067.266-1.207.114-.062-.074-.007-.247.188-.431a1.758,1.758,0,0,1,1.941-.222C101.966,179.584,102.059,179.74,102.015,179.826Z" transform="translate(-99.582 -179.253)"/></g><g transform="translate(14.171 9.095)"><path class="f" d="M101.872,183.095a.66.66,0,0,0,.534.751.631.631,0,0,0,.759-.491.661.661,0,0,0-.533-.752A.632.632,0,0,0,101.872,183.095Z" transform="translate(-101.862 -182.59)"/></g><g transform="translate(7.691 10.306)"><path class="f" d="M93.6,184.641a.66.66,0,0,0,.534.751.632.632,0,0,0,.759-.491.662.662,0,0,0-.533-.752A.633.633,0,0,0,93.6,184.641Z" transform="translate(-93.593 -184.136)"/></g></g><g transform="translate(29.895 31.73)"><path class="o" d="M84.446,207.188l15.916-3.085-.454,8.87s-7.078,2.2-7.335,2.332-4.9,0-4.9,0Z" transform="translate(-84.446 -204.103)"/></g><g transform="translate(0.028 64.913)"><path class="o" d="M58.566,276.6c-.12.4-.248.882-.374,1.451a4.4,4.4,0,0,0-.064,1.488,6.723,6.723,0,0,0,.416,1.811c.258.511-.241,1.069-.7.832s-1.207-1.628-1.271-3.469-1.814.47-2.467,1.3-2.793,3.308-3.208,3.31c-.607,0-.723-.649-.051-1.463s2.513-3.4,2.056-3.724-3.714,3.957-3.714,3.957-.55,1.027-1.089.671c-.972-.643,2.835-4.933,3.207-5.332.259-.277-.223-.647-.485-.334s-3.158,4.34-4.155,3.7c-.764-.495,3.1-3.557,3.234-4.724s-2.693,2.621-3.4,2.118c-.265-.187-.437-.363,1.5-2.3.94-.942,4.559-3.8,4.559-3.8L59.9,246.444h9.64Z" transform="translate(-46.336 -246.444)"/></g><g transform="translate(59.068)"><path class="o" d="M121.669,191.6s13.727-5.463,15.906-7.148,15.877-14,15.877-14l1.82-1.53c.227-.356.48-.78.757-1.293a4.377,4.377,0,0,0,.469-1.414,6.7,6.7,0,0,0,.1-1.855c-.107-.563.524-.962.9-.608s.715,1.9.272,3.684,1.874.045,2.729-.576,3.593-2.416,3.992-2.3c.585.165.517.821-.352,1.422s-3.347,2.582-3,3.017,4.656-2.788,4.656-2.788.81-.837,1.231-.346c.759.884-4.078,3.967-4.545,4.249-.325.2.038.683.375.455s4.226-3.31,5.007-2.416c.6.685-3.954,2.573-4.4,3.658s3.307-1.783,3.853-1.105c.2.253.32.469-2.076,1.8-1.162.647-5.424,2.4-5.424,2.4l-.451.466L141.112,194.3,124.353,201Z" transform="translate(-121.669 -163.617)"/></g><g transform="translate(0 171.978)"><path class="i" d="M54.043,383.055l-2.688,12.154-4.9,9a1.275,1.275,0,0,0,.589,1.769h0a1.267,1.267,0,0,0,1.166-.052c2.279-1.317,10.638-6.2,10.786-7.1.17-1.043,3.687-12.632,3.687-12.632Z" transform="translate(-46.301 -383.055)"/><g class="j" transform="translate(0.744 14.952)"><path class="c" d="M47.25,410.1,59.4,402.133l-.125.513a1.923,1.923,0,0,1-.738,1.1c-.989.714-3.763,2.625-10.085,6.315a1.274,1.274,0,0,1-1.2.043Z" transform="translate(-47.25 -402.133)"/></g><g class="j" transform="translate(10.892 10.393)"><path class="c" d="M60.678,396.366a.772.772,0,0,0-.445.929.743.743,0,0,0,.917.45.815.815,0,0,0,.466-.986.77.77,0,0,0-1.006-.362" transform="translate(-60.199 -396.316)"/></g><g transform="translate(2.647 16.444)"><path class="f" d="M51.834,405.911a2.753,2.753,0,0,0-2.156-1.808c0-.032.173-.089.466-.059a2.032,2.032,0,0,1,1.668,1.4C51.891,405.726,51.866,405.909,51.834,405.911Z" transform="translate(-49.678 -404.036)"/></g><g transform="translate(1.457 18.431)"><path class="f" d="M50.248,407.867c-.071.038-.362-.45-.944-.782a10.357,10.357,0,0,0-1.143-.442,1.412,1.412,0,0,1,1.281.206C50.1,407.233,50.318,407.851,50.248,407.867Z" transform="translate(-48.16 -406.572)"/></g><g transform="translate(3.85 14.45)"><path class="f" d="M54.278,403.68a12.794,12.794,0,0,0-1.375-1.306,12.806,12.806,0,0,0-1.69-.858,3.487,3.487,0,0,1,3.065,2.164Z" transform="translate(-51.213 -401.493)"/></g><g transform="translate(4.921 11.979)"><path class="f" d="M55.7,399.371c-.05.065-.65-.379-1.511-.623s-1.6-.2-1.609-.286a3.164,3.164,0,0,1,3.12.909Z" transform="translate(-52.58 -398.34)"/></g><g transform="translate(5.663 8.446)"><path class="f" d="M56.784,394.848a6.233,6.233,0,0,0-1.556-.69,6.169,6.169,0,0,0-1.7.009c-.014-.031.155-.15.473-.242a2.777,2.777,0,0,1,2.447.511C56.7,394.649,56.808,394.826,56.784,394.848Z" transform="translate(-53.526 -393.831)"/></g><g transform="translate(5.981 5.775)"><path class="f" d="M55.5,392.751a1.064,1.064,0,0,1,.1-.461,3.271,3.271,0,0,1,.658-1.109,1.456,1.456,0,0,1,.769-.524.512.512,0,0,1,.534.248.834.834,0,0,1,.057.593,1.8,1.8,0,0,1-1.932,1.243,2.09,2.09,0,0,1-1.734-1.552.722.722,0,0,1,.111-.594.5.5,0,0,1,.574-.133,1.785,1.785,0,0,1,.694.61,3.648,3.648,0,0,1,.595,1.141,1.115,1.115,0,0,1,.083.464,5.8,5.8,0,0,0-.828-1.484,1.667,1.667,0,0,0-.618-.516.268.268,0,0,0-.313.071.5.5,0,0,0-.05.395,1.867,1.867,0,0,0,1.519,1.328,1.565,1.565,0,0,0,1.655-1.032.607.607,0,0,0-.022-.415.279.279,0,0,0-.293-.141,1.309,1.309,0,0,0-.659.432A4.846,4.846,0,0,0,55.5,392.751Z" transform="translate(-53.933 -390.424)"/></g></g><g transform="translate(36.196 176.412)"><path class="i" d="M101.923,388.757l-.369,9.732s9.769,3.644,9.876,5.448l-18.9-.038-.047-15.188Z" transform="translate(-92.486 -388.712)"/><g class="j" transform="translate(2.675 8.915)"><path class="c" d="M96.451,400.118a.772.772,0,0,0-.535.88.741.741,0,0,0,.867.538.813.813,0,0,0,.562-.934.769.769,0,0,0-.964-.46" transform="translate(-95.899 -400.087)"/></g><g class="j" transform="translate(0.047 13.657)"><path class="c" d="M92.546,407.669l.056-1.531,18.1.608s.84.368.744.96Z" transform="translate(-92.546 -406.138)"/></g><g transform="translate(7.65 9.595)"><path class="f" d="M103.971,401.041c0,.092-.465.133-.919.429s-.7.683-.781.647c-.085-.018.053-.57.61-.918S103.992,400.957,103.971,401.041Z" transform="translate(-102.247 -400.955)"/></g><g transform="translate(10.099 10.467)"><path class="f" d="M106.628,402.106c.021.089-.379.245-.693.635s-.406.8-.5.8c-.087.014-.15-.527.25-1S106.626,402.018,106.628,402.106Z" transform="translate(-105.372 -402.068)"/></g><g transform="translate(12.365 11.288)"><path class="f" d="M108.374,404.706c-.084.02-.211-.441.027-.946s.67-.705.709-.629-.229.346-.418.764S108.465,404.7,108.374,404.706Z" transform="translate(-108.264 -403.116)"/></g><g transform="translate(7.248 7.12)"><path class="f" d="M103.7,398.131c-.039.084-.462-.044-.984-.01s-.929.2-.977.119.343-.408.958-.44S103.744,398.059,103.7,398.131Z" transform="translate(-101.734 -397.797)"/></g><g class="k" transform="translate(0.002 1.972)"><path d="M101.848,391.228l-.063,1.734-9.287-.1-.009-1.563Z" transform="translate(-92.489 -391.228)"/></g><g transform="translate(6.379 3.962)"><path class="f" d="M103.5,395.295a1.771,1.771,0,0,1-.946-.007,4.255,4.255,0,0,1-.99-.306,4.582,4.582,0,0,1-.543-.29,1.167,1.167,0,0,1-.285-.223.4.4,0,0,1-.041-.491.507.507,0,0,1,.4-.21,1.268,1.268,0,0,1,.355.049,3.412,3.412,0,0,1,.588.2,3.327,3.327,0,0,1,.871.574c.437.407.586.752.555.77s-.255-.259-.7-.6a3.771,3.771,0,0,0-.843-.477,3.467,3.467,0,0,0-.543-.169c-.2-.053-.37-.054-.422.034-.019.034-.021.047.02.106a.95.95,0,0,0,.21.163,4.893,4.893,0,0,0,.5.287,5.2,5.2,0,0,0,.915.353A6.478,6.478,0,0,1,103.5,395.295Z" transform="translate(-100.626 -393.768)"/></g><g transform="translate(8.878 2.62)"><path class="f" d="M104.066,395.056a1.5,1.5,0,0,1-.248-.915,3.07,3.07,0,0,1,.374-1.61.783.783,0,0,1,.6-.477.442.442,0,0,1,.395.265,1.286,1.286,0,0,1,.1.347,2.091,2.091,0,0,1,0,.637,2.176,2.176,0,0,1-.406.977c-.37.489-.756.6-.763.567-.031-.046.292-.224.575-.694a2.184,2.184,0,0,0,.3-.889,1.953,1.953,0,0,0-.016-.547c-.029-.2-.1-.363-.179-.342-.094,0-.254.149-.332.309a3.14,3.14,0,0,0-.235.513,3.42,3.42,0,0,0-.186.944C104.019,394.7,104.117,395.042,104.066,395.056Z" transform="translate(-103.815 -392.055)"/></g></g><g transform="translate(3.761 69.601)"><path class="f" d="M74.532,252.425s-5.976,9.439-6.836,13.053c-.77,3.238-13.843,73.621-16.547,88.191a2.977,2.977,0,0,0,2.073,3.4l11.82,3.554a2.982,2.982,0,0,0,3.774-2.232L83.4,290.2l-4.272,67.557a3.459,3.459,0,0,0,3.559,3.676l11.581-.357a3.454,3.454,0,0,0,3.345-3.239c1.008-16.27,5.534-90.279,4.625-92.6-1.022-2.611-3.7-11.682-3.7-11.682Z" transform="translate(-51.099 -252.425)"/><g transform="translate(0.96 97.463)"><path class="l" d="M70.069,381.953a3.816,3.816,0,0,1-.724-.09c-.463-.074-1.129-.2-1.951-.368-1.642-.335-3.9-.869-6.355-1.584s-4.647-1.477-6.213-2.075c-.783-.3-1.412-.552-1.843-.737a3.773,3.773,0,0,1-.659-.313,3.721,3.721,0,0,1,.7.213l1.87.655c1.58.55,3.773,1.281,6.224,1.995s4.691,1.274,6.32,1.658l1.93.451A3.724,3.724,0,0,1,70.069,381.953Z" transform="translate(-52.325 -376.784)"/></g><g transform="translate(3.222 95.541)"><path class="l" d="M56.037,377.105a2.567,2.567,0,0,1-.652-2.774c.08.015-.013.662.172,1.423S56.1,377.057,56.037,377.105Z" transform="translate(-55.211 -374.331)"/></g><g transform="translate(4.701 95.805)"><path class="l" d="M57.9,374.668a3.691,3.691,0,0,1-.792,2.639,144.488,144.488,0,0,1,.792-2.639Z" transform="translate(-57.098 -374.668)"/></g><g transform="translate(42.556 99.363)"><path class="l" d="M105.441,379.209a5.95,5.95,0,0,1,.405,2.506,5.951,5.951,0,0,1-.405-2.506Z" transform="translate(-105.4 -379.209)"/></g><g transform="translate(43.85 98.707)"><path class="l" d="M107.207,378.371a6.43,6.43,0,0,1-.037,2.638,6.43,6.43,0,0,1,.037-2.638Z" transform="translate(-107.05 -378.371)"/></g><g transform="translate(32.352 3.292)"><path class="l" d="M97.524,256.625a1.962,1.962,0,0,1,0,.372c-.01.27-.024.623-.04,1.063-.038.924-.118,2.259-.237,3.907-.241,3.3-.69,7.843-1.423,12.833s-1.6,9.478-2.267,12.713c-.337,1.618-.621,2.924-.831,3.825-.1.428-.183.772-.245,1.035a1.875,1.875,0,0,1-.1.357,2,2,0,0,1,.05-.368q.074-.4.2-1.045c.182-.938.434-2.242.745-3.84.623-3.243,1.451-7.73,2.187-12.715s1.211-9.52,1.5-12.809c.135-1.622.245-2.946.324-3.9.038-.438.068-.791.091-1.06A1.9,1.9,0,0,1,97.524,256.625Z" transform="translate(-92.379 -256.625)"/></g><g transform="translate(21.994 2.542)"><path class="l" d="M105.209,256.407a1,1,0,0,1-.264.031l-.759.038c-.659.028-1.614.053-2.793.072-2.359.039-5.619.037-9.218-.063s-6.856-.281-9.209-.451c-1.177-.085-2.129-.164-2.785-.229l-.756-.08a.974.974,0,0,1-.262-.046.962.962,0,0,1,.266-.009l.759.029,2.789.142c2.354.121,5.608.27,9.2.371s6.852.132,9.21.143l2.792.014.759.013A.986.986,0,0,1,105.209,256.407Z" transform="translate(-79.163 -255.669)"/></g><g transform="translate(35.379 3.166)"><path class="l" d="M100.365,256.465a5.5,5.5,0,0,1,.008.893c-.02.62-.047,1.439-.079,2.43-.079,2.051-.207,4.883-.365,8.011-.085,1.566-.144,3.052-.249,4.413a8.627,8.627,0,0,1-.919,3.506,4.566,4.566,0,0,1-1.68,1.77,3.074,3.074,0,0,1-.611.271.712.712,0,0,1-.228.048,8.182,8.182,0,0,0,.783-.41,4.683,4.683,0,0,0,1.567-1.772,8.717,8.717,0,0,0,.837-3.434c.09-1.346.141-2.843.226-4.405.158-3.128.317-5.959.446-8.008.067-.989.124-1.806.166-2.426A5.6,5.6,0,0,1,100.365,256.465Z" transform="translate(-96.242 -256.465)"/></g><g transform="translate(15.81 8.992)"><path class="l" d="M81.468,263.9a2.276,2.276,0,0,1,0,.608,8.773,8.773,0,0,1-.292,1.634,9.914,9.914,0,0,1-7.644,7.138,8.866,8.866,0,0,1-1.65.179,2.276,2.276,0,0,1-.607-.038c0-.055.869-.015,2.216-.33a10.2,10.2,0,0,0,7.5-7C81.394,264.764,81.413,263.892,81.468,263.9Z" transform="translate(-71.272 -263.898)"/></g><g transform="translate(44.834 10.807)"><path class="l" d="M114.529,274.281a1.263,1.263,0,0,1-.413-.1,6.4,6.4,0,0,1-1.064-.464,8.714,8.714,0,0,1-1.437-.959,9.324,9.324,0,0,1-2.565-3.333,8.789,8.789,0,0,1-.559-1.633,6.4,6.4,0,0,1-.176-1.148,1.277,1.277,0,0,1,0-.426c.051,0,.1.6.358,1.525a10.011,10.011,0,0,0,.6,1.575,9.982,9.982,0,0,0,2.5,3.248,10.007,10.007,0,0,0,1.369.983C113.975,274.035,114.548,274.233,114.529,274.281Z" transform="translate(-108.306 -266.214)"/></g><g transform="translate(11.573 10.713)"><path class="l" d="M84.331,266.094s0,.08-.021.235-.05.4-.087.689c-.085.618-.207,1.506-.363,2.643-.317,2.3-.812,5.611-1.458,9.7-1.29,8.185-3.256,19.465-5.8,31.85s-5.208,23.527-7.258,31.556c-1.024,4.015-1.88,7.257-2.5,9.49-.306,1.106-.545,1.97-.712,2.571l-.191.667c-.045.15-.074.225-.074.225s.012-.08.047-.232.1-.387.166-.674l.661-2.584c.585-2.241,1.412-5.49,2.412-9.51,2-8.039,4.625-19.181,7.179-31.564s4.542-23.65,5.88-31.825c.671-4.088,1.2-7.4,1.543-9.689.178-1.134.317-2.02.414-2.636.049-.292.087-.519.114-.685S84.331,266.094,84.331,266.094Z" transform="translate(-65.866 -266.094)"/></g><g transform="translate(39.639 16.526)"><path class="l" d="M101.679,359.55a1.333,1.333,0,0,1,.007-.223c.012-.159.027-.375.048-.652.049-.586.12-1.428.211-2.5.2-2.188.478-5.33.826-9.206.69-7.774,1.78-18.5,2.6-30.379.4-5.94.678-11.606.794-16.763s.082-9.8-.016-13.7c-.124-3.9-.3-7.051-.453-9.227-.078-1.078-.139-1.919-.182-2.506l-.04-.652a1.336,1.336,0,0,1,0-.223,1.334,1.334,0,0,1,.032.221c.016.159.039.375.067.65.055.586.133,1.427.233,2.5.187,2.175.392,5.328.541,9.229.122,3.9.181,8.552.074,13.714s-.37,10.833-.773,16.776c-.82,11.884-1.94,22.61-2.679,30.379-.385,3.872-.7,7.011-.913,9.2-.112,1.074-.2,1.915-.262,2.5-.032.275-.056.491-.075.649A1.344,1.344,0,0,1,101.679,359.55Z" transform="translate(-101.677 -273.512)"/></g><g transform="translate(28.204 101.332)"><path class="l" d="M105.7,381.729c.008.075-4.151.595-9.289,1.161s-9.311.965-9.32.889,4.151-.595,9.29-1.161S105.688,381.654,105.7,381.729Z" transform="translate(-87.087 -381.72)"/></g></g><g transform="translate(27.245 6.422)"><path class="f" d="M88.785,173.2a6.825,6.825,0,0,0-1.138,6.782c.593,1.51,1.756,2.9,1.656,4.519-.124,2.009-2.176,3.582-2.063,5.592.128,2.264,3.024,3.693,3.026,5.961,0,2.284-1.394,3.18-4.089,3.671-1.727.314-2.686-1.822-3.543-3.354a12.871,12.871,0,0,1-1.312-5.061,51.759,51.759,0,0,1-.134-8.72,14.908,14.908,0,0,1,1.728-6.768,8.771,8.771,0,0,1,5.76-4.013" transform="translate(-81.065 -171.811)"/></g><g transform="translate(31.847 3.308)"><path class="f" d="M101.538,176.542c-.866,1.322-3.615.506-5.274-.4a3.947,3.947,0,0,1-5.388-1.116,2.181,2.181,0,0,1-3.582-.553,4.3,4.3,0,0,1,.659-4.431,6.185,6.185,0,0,1,3.774-2.053,8.753,8.753,0,0,1,8.891,3.663,5.858,5.858,0,0,1,.92,4.892" transform="translate(-86.936 -167.839)"/><g transform="translate(0.228 2.605)"><path class="l" d="M101.623,177c-.046.03-.516-.827-1.548-1.991a10.829,10.829,0,0,0-4.987-3.264,8.437,8.437,0,0,0-5.874.453,7.276,7.276,0,0,0-1.986,1.5c-.007-.005.024-.058.091-.152a3.089,3.089,0,0,1,.319-.4,5.381,5.381,0,0,1,1.488-1.129,8.344,8.344,0,0,1,6.037-.543,9.845,9.845,0,0,1,3.041,1.506,11.988,11.988,0,0,1,3.1,3.407A2.869,2.869,0,0,1,101.623,177Z" transform="translate(-87.228 -171.162)"/></g><g transform="translate(0.077 4.608)"><path class="l" d="M93.432,178.087c-.045.011-.15-.467-.475-1.169a5.516,5.516,0,0,0-1.883-2.277,4.225,4.225,0,0,0-2.835-.662,8.156,8.156,0,0,0-1.2.332c-.009-.014.085-.095.28-.205a3.012,3.012,0,0,1,.892-.317,4.135,4.135,0,0,1,3.017.625,5.2,5.2,0,0,1,1.909,2.429A3.161,3.161,0,0,1,93.432,178.087Z" transform="translate(-87.035 -173.718)"/></g></g><g transform="translate(9.319 19.815)"><path class="q" d="M78.768,203.9s-7.085,2.02-9.737,6.387-10.839,35.125-10.839,35.125l9.375,1.053,7.8-20.474,1.928,6.4-1.229,6.3,24,1.127,1.657-27.584,25.66-12.461,2.885-2.991-7.454-7.876-2.842,2.656L94.23,200.981s.959,7.6-5.978,8.7S78.768,203.9,78.768,203.9Z" transform="translate(-58.192 -188.9)"/><g transform="translate(34.286 25.303)"><rect class="n" width="5.71" height="1.485"/></g><g transform="translate(14.51 28.006)"><path class="f" d="M76.71,224.635c.072-.022,1.145,3.351,2.4,7.532s2.206,7.589,2.134,7.611-1.145-3.35-2.4-7.532S76.638,224.657,76.71,224.635Z" transform="translate(-76.706 -224.635)"/></g><g transform="translate(43.334 17.296)"><path class="f" d="M118.3,210.971a13.4,13.4,0,0,0-4.807,6.375,3.687,3.687,0,0,1,.3-1.166,10.133,10.133,0,0,1,3.468-4.6A3.678,3.678,0,0,1,118.3,210.971Z" transform="translate(-113.485 -210.969)"/></g><g class="r" transform="translate(14.153 29.207)"><path d="M77.061,226.415a37.137,37.137,0,0,0-.81,7.9,6.541,6.541,0,0,0,.222,1.942,2.5,2.5,0,0,0,1.173,1.509,5.383,5.383,0,0,0,1.145-5.89l-1.629-5.706" transform="translate(-76.25 -226.167)"/></g></g><g transform="translate(30.569 28.255)"><path class="f" d="M85.306,204.743a4.746,4.746,0,0,1,1.633,4.138c-.06,1.546-.508,3.057-.581,4.6a4.821,4.821,0,0,0,1.567,4.169l6.1-2.071c-1.2-.685-1.455-2.335-1.194-3.691a30.216,30.216,0,0,0,.97-4.023c.19-3.628-2.416-6.726-3.636-8.2" transform="translate(-85.306 -199.669)"/></g></g></g><g transform="translate(96.965 335.474)"><g transform="translate(0 0)"><path class="i" d="M116.607,391.169l-2.362,13.509H125.93l1.29-12.773Z" transform="translate(-114.245 -391.169)"/><g transform="translate(0.317 12.022)"><path class="i" d="M126.256,406.89a8.126,8.126,0,0,1-1.7.1c-1.052.012-2.5-.016-4.107-.076l-4.1-.174a9.546,9.546,0,0,1-1.7-.136,8.227,8.227,0,0,1,1.7-.092c1.052-.009,2.5.02,4.107.079l4.1.171A9.75,9.75,0,0,1,126.256,406.89Z" transform="translate(-114.649 -406.508)"/></g><g class="j" transform="translate(0 12.116)"><path class="i" d="M114.245,408.022H125.93l.112-1.1-11.586-.289-.211,1.262" transform="translate(-114.245 -406.628)"/></g></g><g transform="translate(5.692 2.134)"><path class="f" d="M121.52,404.155a98.891,98.891,0,0,1,1.552-10.263,98.805,98.805,0,0,1-1.552,10.263Z" transform="translate(-121.508 -393.892)"/></g><g transform="translate(1.357 6.411)"><path class="f" d="M125.9,405.315a5.594,5.594,0,0,0-.2-2.453,4.9,4.9,0,0,0-1.477-2.179,4.762,4.762,0,0,0-3-1.061,4.955,4.955,0,0,0-3.039.988,5.4,5.4,0,0,0-1.63,2.082,6.9,6.9,0,0,0-.516,2.418c-.009,0-.02-.059-.033-.173a3.543,3.543,0,0,1-.019-.5,5.277,5.277,0,0,1,.391-1.816,5.42,5.42,0,0,1,1.654-2.205,5.122,5.122,0,0,1,3.2-1.063,4.8,4.8,0,0,1,4.664,3.455,4.6,4.6,0,0,1,.173,1.85,3.147,3.147,0,0,1-.1.5C125.925,405.261,125.9,405.318,125.9,405.315Z" transform="translate(-115.977 -399.349)"/></g></g><g transform="translate(140.649 331.696)"><g transform="translate(0 0)"><path class="i" d="M178.915,386.349l2.842,9.316s10.423.24,11.116,1.911l-17.864,6.158L169.984,389.4Z" transform="translate(-169.984 -386.349)"/><g class="j" transform="translate(5.661 10.327)"><path class="c" d="M177.528,399.645a.771.771,0,0,0-.218,1.006.742.742,0,0,0,1,.224.814.814,0,0,0,.225-1.067.77.77,0,0,0-1.062-.119" transform="translate(-177.207 -399.526)"/></g><g class="j" transform="translate(4.574 10.564)"><path class="c" d="M176.27,406.65l-.45-1.465,17.3-5.357s.915.071,1.017.663Z" transform="translate(-175.82 -399.828)"/></g><g transform="translate(10.716 9.095)"><path class="f" d="M184.971,397.984c.027.089-.4.278-.727.707s-.435.874-.527.867c-.086.011-.136-.556.276-1.067S184.963,397.9,184.971,397.984Z" transform="translate(-183.658 -397.953)"/></g><g transform="translate(13.332 9.237)"><path class="f" d="M187.834,398.152c.049.078-.277.357-.447.828s-.12.89-.208.917-.313-.448-.092-1.03S187.8,398.07,187.834,398.152Z" transform="translate(-186.995 -398.135)"/></g><g transform="translate(15.715 9.394)"><path class="f" d="M190.329,400.071c-.073.046-.344-.348-.285-.9s.4-.886.464-.826-.1.4-.144.859S190.413,400.033,190.329,400.071Z" transform="translate(-190.035 -398.335)"/></g><g transform="translate(9.319 6.959)"><path class="f" d="M183.7,395.343c-.009.092-.451.11-.932.313s-.813.491-.884.432.191-.5.762-.729S183.722,395.26,183.7,395.343Z" transform="translate(-181.875 -395.228)"/></g></g><g class="k" transform="translate(0.672 1.846)"><path d="M179.66,388.7l.509,1.659-8.808,2.947-.521-1.474Z" transform="translate(-170.841 -388.704)"/></g><g transform="translate(7.441 4.466)"><path class="f" d="M182.577,392.787a1.785,1.785,0,0,1-.9.3,4.249,4.249,0,0,1-1.035.035,4.487,4.487,0,0,1-.607-.1,1.156,1.156,0,0,1-.343-.117.4.4,0,0,1-.2-.451.51.51,0,0,1,.314-.332,1.242,1.242,0,0,1,.352-.069,3.367,3.367,0,0,1,.622,0,3.323,3.323,0,0,1,1.011.257c.547.241.8.518.777.545-.03.043-.325-.161-.857-.332a3.782,3.782,0,0,0-.952-.175,3.6,3.6,0,0,0-.569.019c-.206.016-.368.07-.387.171-.006.038,0,.052.054.093a.977.977,0,0,0,.252.085,5.1,5.1,0,0,0,.566.107,5.275,5.275,0,0,0,.98.033A6.457,6.457,0,0,1,182.577,392.787Z" transform="translate(-179.479 -392.047)"/></g><g transform="translate(9.717 2.271)"><path class="f" d="M183.135,392.345c-.027.024-.307-.229-.534-.783a3.067,3.067,0,0,1-.216-1.021,3.158,3.158,0,0,1,.041-.622.781.781,0,0,1,.415-.648.441.441,0,0,1,.459.121,1.282,1.282,0,0,1,.205.3,2.122,2.122,0,0,1,.208.6,2.18,2.18,0,0,1-.063,1.056c-.19.583-.518.813-.535.786a7.912,7.912,0,0,0,.315-.844,2.176,2.176,0,0,0-.006-.938,1.958,1.958,0,0,0-.2-.512c-.093-.18-.217-.309-.281-.265-.089.03-.191.225-.212.4a3.2,3.2,0,0,0-.054.561,3.426,3.426,0,0,0,.134.953C182.972,392.021,183.177,392.315,183.135,392.345Z" transform="translate(-182.383 -389.247)"/></g></g><g transform="translate(92.975 213.946)"><path class="g" d="M113.372,236.1l-3.366,6.93a8.475,8.475,0,0,0,1.385,9.44h0a8.474,8.474,0,0,0,7.2,2.684l13.056-1.488-.006-7.782-12.874.375,3.22-5.664Z" transform="translate(-109.154 -236.104)"/></g><g transform="translate(104.265 159.661)"><g transform="translate(5.897 3.772)"><g transform="translate(0 1.98)"><path class="f" d="M134.684,198.088c-2.157-3.645-2.775-8.5-3.321-12.7-.256-1.977-.708-4.792.683-6.028,1.489-1.324,1.632-3.367,3.344-4.389a5.255,5.255,0,0,1,5.646.063" transform="translate(-131.084 -174.178)"/></g><g transform="translate(2.25)"><g transform="translate(2.491 3.998)"><path class="g" d="M141.969,211.557h0a5.848,5.848,0,0,0,6.308-5.59c.132-3.184.248-6.4.248-6.4s4.826-.437,5.19-5.212.237-15.8.237-15.8h0a16.64,16.64,0,0,0-16.819,1.031l.248,16.807-.026,9.041C137.378,208.467,138.947,211.316,141.969,211.557Z" transform="translate(-137.133 -176.753)"/></g><path class="f" d="M148.286,187.405a2.447,2.447,0,0,0-3.26-.722,2.776,2.776,0,0,0-.935,3.468,3.66,3.66,0,0,0,2.337,1.777,1.834,1.834,0,0,1,1.43,1.979c-.141,1.2-2.136,1.643-3.038,2.632-1.4,1.539-4.478,2.183-6.547,2.422-2.035.234-1.789.255-2.968-1.42a6.408,6.408,0,0,1-1.15-3.88l-.188-10.563a15.124,15.124,0,0,1,.252-3.789,5.1,5.1,0,0,1,2.008-3.129c1.164-.761,2.636-.821,3.96-1.245a32.656,32.656,0,0,0,4.612-2.41c1.55-.788,3.448-1.255,5-.47,1.113.563,1.857,1.678,2.94,2.3,1.542.882,3.644.689,4.386,2.961a3.844,3.844,0,0,1-.033,2.429,5.611,5.611,0,0,1-7.637,2.977,7.576,7.576,0,0,1-.1,3.34c-.177.528-.242,1.333-1.068,1.346" transform="translate(-133.955 -171.651)"/><g transform="translate(11.633 16.413)"><path class="h" d="M150.633,194.914c.02.007.019.09-.067.206a.715.715,0,0,1-.533.264,1.315,1.315,0,0,1-1.234-1.321,1.38,1.38,0,0,1,.353-1.009,1.433,1.433,0,0,1,.749-.429c.492-.1.774.081.754.112-.012.054-.293-.023-.688.121a1.2,1.2,0,0,0-.828,1.19,1.112,1.112,0,0,0,.9,1.1C150.436,195.168,150.6,194.883,150.633,194.914Z" transform="translate(-148.798 -192.594)"/></g></g></g><g transform="translate(0 0.87)"><path class="f" d="M133.422,178.64a5.59,5.59,0,1,0-7.653-3.779,1.348,1.348,0,0,1,.021.984c-.2.354-.678.4-1.06.546-1.35.509-1.534,2.57-.547,3.622a4.094,4.094,0,0,0,4.034.828,2.314,2.314,0,0,0,2.025,2.687,3.544,3.544,0,0,0,3.206-1.705,7.99,7.99,0,0,0,1.082-3.627" transform="translate(-123.56 -167.949)"/></g><g transform="translate(5.199 5.752)"><path class="b" d="M138.1,174.178a1.475,1.475,0,0,1,.021.487,6.919,6.919,0,0,1-.188,1.318A8,8,0,0,1,132,181.931a6.907,6.907,0,0,1-1.317.192,1.517,1.517,0,0,1-.488-.02c0-.051.694-.058,1.756-.359a8.3,8.3,0,0,0,5.794-5.81C138.042,174.872,138.047,174.174,138.1,174.178Z" transform="translate(-130.193 -174.178)"/></g><g transform="translate(7.218 1.23)"><path class="l" d="M133.362,168.505c0-.009.047-.027.144-.053a1.65,1.65,0,0,1,.438-.044,2.559,2.559,0,0,1,1.5.571,3.274,3.274,0,0,1,.752.84,3.88,3.88,0,0,1,.462,1.209,7.017,7.017,0,0,1-.118,2.915,11.827,11.827,0,0,1-2.24,4.748,10.308,10.308,0,0,1-1.078,1.179,2.221,2.221,0,0,1-.456.367c-.036-.037.592-.588,1.381-1.662a12.574,12.574,0,0,0,2.126-4.69,7.013,7.013,0,0,0,.137-2.807,3.7,3.7,0,0,0-.408-1.141,3.183,3.183,0,0,0-.679-.806,2.6,2.6,0,0,0-1.39-.614C133.572,168.481,133.367,168.531,133.362,168.505Z" transform="translate(-132.769 -168.408)"/></g><g transform="translate(1.995 6.053)"><path class="l" d="M126.107,177.452a1,1,0,0,1,.172-.355,4.767,4.767,0,0,1,.667-.842,5.614,5.614,0,0,1,6.6-1.068,4.766,4.766,0,0,1,.9.589c.194.165.286.27.275.283-.031.039-.451-.335-1.257-.7a5.778,5.778,0,0,0-6.381,1.033C126.43,176.993,126.149,177.481,126.107,177.452Z" transform="translate(-126.105 -174.562)"/></g><g transform="translate(11.391 10.805)"><path class="l" d="M138.095,180.627c.029-.034.632.457,1.67,1.155a26.8,26.8,0,0,0,4.277,2.341,25.319,25.319,0,0,0,2.517.935,7.975,7.975,0,0,0,2.118.46,2.512,2.512,0,0,0,1.38-.346c.29-.183.408-.343.427-.327s-.079.193-.368.415a2.452,2.452,0,0,1-1.44.451,7.578,7.578,0,0,1-2.191-.411,22.146,22.146,0,0,1-2.553-.926,22.454,22.454,0,0,1-4.279-2.433c-.509-.373-.9-.7-1.169-.928A2.122,2.122,0,0,1,138.095,180.627Z" transform="translate(-138.094 -180.625)"/></g><g transform="translate(9.9)"><path class="f" d="M136.244,171.616a2.207,2.207,0,0,1-.053-.665,5.256,5.256,0,0,1,.333-1.793,3.612,3.612,0,0,1,1.8-2.011,2.885,2.885,0,0,1,1.607-.288,2.72,2.72,0,0,1,1.571.78,3.461,3.461,0,0,1,.891,1.506,4.217,4.217,0,0,1,.118,1.618,6.47,6.47,0,0,1-.918,2.546,13.656,13.656,0,0,1-1.042,1.486,3.016,3.016,0,0,1-.439.5,3.231,3.231,0,0,1,.353-.563c.237-.354.592-.859.96-1.519a6.531,6.531,0,0,0,.835-2.477,4.04,4.04,0,0,0-.125-1.517,3.246,3.246,0,0,0-.824-1.385,2.478,2.478,0,0,0-1.414-.709,2.666,2.666,0,0,0-1.466.25,3.466,3.466,0,0,0-1.726,1.856,5.811,5.811,0,0,0-.406,1.726A5.339,5.339,0,0,1,136.244,171.616Z" transform="translate(-136.192 -166.839)"/></g></g><g transform="translate(135.763 148.952)"><path class="g" d="M196.682,157.612c-.777-.392-3.015,3.772-3.053,2.6s3.328-4.774,2.5-5.151c-1.08-.491-3.343,3.911-3.561,4.269s-.745.055-.53-.259c.31-.45,3.439-5.256,2.383-5.748-.586-.273-.978.824-.978.824s-2.6,4.712-3.089,4.463.933-3.071,1.484-3.987.334-1.532-.266-1.44c-.41.063-2.161,2.828-2.683,3.747s-1.911,3.464-2.248,1.652-1.277-3.078-1.77-3.243a.577.577,0,0,0-.572.928,6.707,6.707,0,0,1,.679,1.729,4.363,4.363,0,0,1,.157,1.482c-.039.582-.1,1.073-.155,1.49l-1.025,2.146s-7.385,16.877-8.673,19.313-11.532,13.081-11.532,13.081l2.167,12.453,16.653-18.03,8.8-24.778.218-.611s3.157-3.357,3.948-4.428C197.166,157.908,196.971,157.758,196.682,157.612Z" transform="translate(-163.749 -153.174)"/></g><g transform="translate(95.228 236.944)"><path class="l" d="M123.952,265.449s-5.241,11.862-6.375,23.621l-5.549,75.418,18.515,1.93,5.441-78.16s16.986,78.882,17.653,78.882,14.906-5.3,14.906-5.3l-16.77-96.008Z" transform="translate(-112.028 -265.449)"/><g transform="translate(15.131 20.647)"><path class="f" d="M148.015,295.873c-.022.092-3.774-.745-8.38-1.87s-8.322-2.11-8.3-2.2,3.774.745,8.381,1.87S148.038,295.781,148.015,295.873Z" transform="translate(-131.335 -291.794)"/></g><g transform="translate(0.946 81.491)"><path class="n" d="M131.886,372.6c0,.009-.065.023-.193.038a5.619,5.619,0,0,1-.562.048,10.607,10.607,0,0,1-2.07-.125,19.957,19.957,0,0,1-2.987-.724c-1.1-.343-2.293-.78-3.552-1.194a20.819,20.819,0,0,0-3.615-.868,11,11,0,0,0-3.018-.024,9.527,9.527,0,0,0-2.654.846c0-.009.049-.049.158-.118a4.219,4.219,0,0,1,.489-.283,6.876,6.876,0,0,1,1.977-.636,10.6,10.6,0,0,1,3.081-.035,19.858,19.858,0,0,1,3.668.857l3.544,1.215a21.881,21.881,0,0,0,2.941.773A18.324,18.324,0,0,0,131.886,372.6Z" transform="translate(-113.236 -369.428)"/></g><g transform="translate(0.735 78.122)"><path class="n" d="M131.9,365.305a4.936,4.936,0,0,1-.757-.016,16.6,16.6,0,0,0-2.052.06,59.95,59.95,0,0,0-6.68,1.225,24.749,24.749,0,0,1-3.734.481,12.989,12.989,0,0,1-3.072-.209,8.582,8.582,0,0,1-1.978-.629,5.033,5.033,0,0,1-.5-.261c-.111-.065-.168-.1-.163-.11a13.352,13.352,0,0,0,2.676.811,18.688,18.688,0,0,0,6.718-.35,48.724,48.724,0,0,1,6.719-1.15,13.071,13.071,0,0,1,2.073.027A3.449,3.449,0,0,1,131.9,365.305Z" transform="translate(-112.966 -365.129)"/></g><g transform="translate(34.648 70.933)"><path class="n" d="M174.272,355.958c.008.005-.027.063-.1.168a2.923,2.923,0,0,1-.368.428,4.608,4.608,0,0,1-1.784,1.046,7.743,7.743,0,0,1-3.05.321c-1.156-.085-2.393-.364-3.691-.576a12.092,12.092,0,0,0-3.673-.1,11.673,11.673,0,0,0-2.907.767,18.833,18.833,0,0,0-2.462,1.3c-.005-.007.043-.054.142-.136a5.488,5.488,0,0,1,.446-.34,10.257,10.257,0,0,1,1.8-1.007,11.18,11.18,0,0,1,2.947-.839,11.924,11.924,0,0,1,3.75.08c1.312.215,2.537.5,3.669.6a7.829,7.829,0,0,0,2.971-.254,4.855,4.855,0,0,0,1.77-.94C174.093,356.161,174.251,355.941,174.272,355.958Z" transform="translate(-156.237 -355.957)"/></g><g transform="translate(37.88 84.83)"><path class="n" d="M177.96,373.69a3.36,3.36,0,0,1-.484.581,12.306,12.306,0,0,1-1.541,1.375,14.6,14.6,0,0,1-6.209,2.711,14.989,14.989,0,0,1-6.769-.365,13,13,0,0,1-1.933-.726,3.47,3.47,0,0,1-.663-.364,4.739,4.739,0,0,1,.705.266,16.807,16.807,0,0,0,1.942.638,15.666,15.666,0,0,0,6.669.281,15.226,15.226,0,0,0,6.144-2.6A27.77,27.77,0,0,0,177.96,373.69Z" transform="translate(-160.361 -373.688)"/></g><g transform="translate(33.803 65.025)"><path class="n" d="M172.246,348.538c0,.026-.264-.021-.733-.011a5.475,5.475,0,0,0-1.919.444,10.584,10.584,0,0,0-2.495,1.553c-.872.694-1.772,1.545-2.843,2.3a7.58,7.58,0,0,1-3.4,1.4,11.313,11.313,0,0,1-3-.012c-.846-.108-1.52-.245-1.985-.345a3.736,3.736,0,0,1-.715-.187,3.885,3.885,0,0,1,.734.082c.469.067,1.147.175,1.987.256a11.868,11.868,0,0,0,2.942-.044A7.5,7.5,0,0,0,164.1,352.6c1.048-.737,1.952-1.581,2.843-2.273a10.21,10.21,0,0,1,2.579-1.535,5.128,5.128,0,0,1,1.991-.371,3.308,3.308,0,0,1,.548.064C172.184,348.51,172.247,348.529,172.246,348.538Z" transform="translate(-155.159 -348.418)"/></g><g transform="translate(2.029 60.541)"><path class="n" d="M133.832,344.308c0,.009-.053.047-.168.113a4.143,4.143,0,0,1-.516.263,6.834,6.834,0,0,1-2.064.533,11.46,11.46,0,0,1-3.157-.143,30.009,30.009,0,0,1-3.741-.951,33.756,33.756,0,0,0-3.7-.97,12.057,12.057,0,0,0-3.095-.214,9.365,9.365,0,0,0-2.771.7c0-.008.053-.046.169-.111a4.229,4.229,0,0,1,.519-.259,6.912,6.912,0,0,1,2.067-.519,11.613,11.613,0,0,1,3.157.159,30.658,30.658,0,0,1,3.739.957,32.71,32.71,0,0,0,3.7.963,11.928,11.928,0,0,0,3.095.2A9.27,9.27,0,0,0,133.832,344.308Z" transform="translate(-114.617 -342.697)"/></g><g transform="translate(30.935 49.232)"><path class="n" d="M168.974,328.269a.584.584,0,0,1-.053.2,3.637,3.637,0,0,1-.227.538,5.875,5.875,0,0,1-1.318,1.69,8.9,8.9,0,0,1-2.722,1.646,16.552,16.552,0,0,1-3.785.889c-1.364.182-2.666.292-3.835.473a24.711,24.711,0,0,0-3.092.55,5.307,5.307,0,0,0-1.849.963c-.386.314-.574.523-.593.5s.034-.063.121-.165a4.209,4.209,0,0,1,.4-.42,5.021,5.021,0,0,1,1.86-1.067,22.155,22.155,0,0,1,3.11-.614c1.179-.2,2.483-.315,3.838-.5a17.161,17.161,0,0,0,3.731-.853,9.05,9.05,0,0,0,2.683-1.556A7.038,7.038,0,0,0,168.974,328.269Z" transform="translate(-151.5 -328.268)"/></g><g transform="translate(3.169 45.324)"><path class="n" d="M116.072,325.67A10.506,10.506,0,0,0,118.7,326.9a8.222,8.222,0,0,0,3.115.268,9.75,9.75,0,0,0,3.623-1.24c1.214-.651,2.334-1.366,3.443-1.861a8.467,8.467,0,0,1,3.116-.784,4.779,4.779,0,0,1,2.133.376,3.375,3.375,0,0,1,.513.292c.11.077.165.121.161.128-.016.024-.248-.137-.715-.323a5,5,0,0,0-2.083-.281,8.576,8.576,0,0,0-3.02.819c-1.082.5-2.191,1.215-3.419,1.873a9.743,9.743,0,0,1-3.726,1.25,8.128,8.128,0,0,1-3.2-.334,7.5,7.5,0,0,1-1.957-.925,4.46,4.46,0,0,1-.473-.351C116.117,325.725,116.066,325.677,116.072,325.67Z" transform="translate(-116.071 -323.281)"/></g><g transform="translate(27.821 33.915)"><path class="n" d="M165.134,308.725a3.942,3.942,0,0,1-.412.66,11.432,11.432,0,0,1-1.414,1.583,12.085,12.085,0,0,1-6.251,3.013,15.228,15.228,0,0,1-3.856.025,12.356,12.356,0,0,0-3.1.029,5.42,5.42,0,0,0-1.948.7c-.418.262-.612.461-.629.443s.037-.06.128-.157a3.346,3.346,0,0,1,.443-.375,5.129,5.129,0,0,1,1.973-.8,11.845,11.845,0,0,1,3.149-.09,15.686,15.686,0,0,0,3.8-.043,12.4,12.4,0,0,0,6.164-2.886A19.628,19.628,0,0,0,165.134,308.725Z" transform="translate(-147.526 -308.724)"/></g><g transform="translate(4.186 31.106)"><path class="n" d="M135.19,306.629a10.294,10.294,0,0,0-2.665-.5,7.792,7.792,0,0,0-2.875.468c-.518.182-1.024.474-1.6.71a3.411,3.411,0,0,1-.933.244,2.326,2.326,0,0,1-1-.13,8.929,8.929,0,0,1-1.658-.951,7.232,7.232,0,0,0-1.558-.73,7.818,7.818,0,0,0-2.888-.384,10.236,10.236,0,0,0-2.645.585c0-.009.052-.043.163-.1a4.112,4.112,0,0,1,.5-.225,7.205,7.205,0,0,1,1.969-.451,7.732,7.732,0,0,1,2.98.337,7.361,7.361,0,0,1,1.622.742,9,9,0,0,0,1.607.922,2.348,2.348,0,0,0,1.742-.105c.551-.219,1.072-.514,1.614-.7a7.692,7.692,0,0,1,2.968-.425,7.272,7.272,0,0,1,1.983.386,4.786,4.786,0,0,1,.507.208C135.137,306.587,135.194,306.62,135.19,306.629Z" transform="translate(-117.369 -305.139)"/></g><g transform="translate(26.51 30.711)"><path class="n" d="M164.772,304.636a4.559,4.559,0,0,1-.566.574,17.349,17.349,0,0,1-1.691,1.406c-.381.266-.785.578-1.26.852-.234.14-.472.3-.727.437l-.8.417a18.3,18.3,0,0,1-3.76,1.371,17.925,17.925,0,0,1-3.979.448l-.9-.024c-.292-.013-.573-.052-.846-.075-.547-.038-1.047-.144-1.506-.22a16.2,16.2,0,0,1-2.129-.548,4.518,4.518,0,0,1-.755-.281c.017-.058,1.1.328,2.919.639.456.063.953.156,1.494.184.27.019.548.052.835.061l.889.012a18.583,18.583,0,0,0,3.916-.462,18.958,18.958,0,0,0,3.712-1.332l.793-.4c.253-.137.49-.286.725-.421.474-.263.881-.562,1.266-.815.751-.534,1.344-.99,1.734-1.328A4.587,4.587,0,0,1,164.772,304.636Z" transform="translate(-145.854 -304.635)"/></g><g transform="translate(4.701 15.419)"><path class="n" d="M155.568,285.394a2.21,2.21,0,0,1-.342.207l-1.008.542c-.881.458-2.159,1.122-3.8,1.815a22.093,22.093,0,0,1-6.021,1.673,14.4,14.4,0,0,1-3.707-.067,21.185,21.185,0,0,1-3.838-1.034c-2.555-.929-4.9-2.036-7.161-2.62a17.228,17.228,0,0,0-6.145-.484,17.948,17.948,0,0,0-4.078.905c-.466.167-.826.3-1.066.407a2.164,2.164,0,0,1-.375.138,2.165,2.165,0,0,1,.352-.188c.234-.12.589-.274,1.052-.456a16.838,16.838,0,0,1,4.094-1,17.088,17.088,0,0,1,6.23.433c2.3.578,4.653,1.685,7.19,2.607a21.253,21.253,0,0,0,3.787,1.026,14.27,14.27,0,0,0,3.639.081,22.459,22.459,0,0,0,5.974-1.6c1.642-.666,2.931-1.3,3.826-1.73l1.031-.5A2.165,2.165,0,0,1,155.568,285.394Z" transform="translate(-118.026 -285.123)"/></g><g transform="translate(8.125 5.824)"><path class="n" d="M155.418,274.92a5.132,5.132,0,0,0-.987-.922,6.378,6.378,0,0,0-3.513-.925,7.318,7.318,0,0,0-2.488.44c-.868.309-1.772.7-2.719,1.133a32.129,32.129,0,0,1-6.345,2.4,24.869,24.869,0,0,1-12.239-.163,24.65,24.65,0,0,1-3.516-1.269c-.4-.187-.7-.349-.909-.454a1.648,1.648,0,0,1-.307-.176,1.7,1.7,0,0,1,.332.127l.927.406a28.181,28.181,0,0,0,3.523,1.18,25.041,25.041,0,0,0,5.442.764,24.684,24.684,0,0,0,6.683-.68,32.889,32.889,0,0,0,6.306-2.366c.951-.425,1.866-.814,2.747-1.118a7.425,7.425,0,0,1,2.564-.419,6.3,6.3,0,0,1,3.573,1.031,3.661,3.661,0,0,1,.735.709A1.72,1.72,0,0,1,155.418,274.92Z" transform="translate(-122.396 -272.88)"/></g></g><g transform="translate(95.182 186.371)"><path class="s" d="M163.739,210.621l-7.383-9.7-.324.236-11.776,7.412L131.691,209s-8.815,0-12.121,6.947c-.363.761-7.6,15.23-7.6,15.23l11.177,4.1,1.809-5.169,2.31,11.72-3.327,9.659,28.008,1.5-2.325-14.039,2.11-16.778Z" transform="translate(-111.97 -200.919)"/><g transform="translate(16.764 32.322)"><path class="s" d="M148.861,242.161a2.892,2.892,0,0,1-.009.807,7.707,7.707,0,0,1-.539,2.139,10.418,10.418,0,0,1-4.906,5.234,14.463,14.463,0,0,1-7.077,1.419,16.6,16.6,0,0,1-2.186-.225,3.288,3.288,0,0,1-.785-.183c.009-.063,1.138.148,2.976.167a15.107,15.107,0,0,0,6.916-1.482,10.584,10.584,0,0,0,4.839-5.024A12.114,12.114,0,0,0,148.861,242.161Z" transform="translate(-133.36 -242.161)"/></g><g transform="translate(9.73 14.211)"><path class="s" d="M130.061,246.282c-.092.02-1.437-6.061-3-13.58s-2.761-13.631-2.669-13.65,1.436,6.061,3,13.581S130.152,246.263,130.061,246.282Z" transform="translate(-124.385 -219.052)"/></g><g class="r" transform="translate(18.796 34.246)"><path d="M136.016,252.3a2.546,2.546,0,0,1,1.591-2.727,15.819,15.819,0,0,1,3.323-.814,9.353,9.353,0,0,0,5.4-3.6c.176-.245.384-.523.684-.539a.652.652,0,0,1,.611.545,2.117,2.117,0,0,1,.056,1.048c-.521,2.687-2.694,3.809-4.917,5s-4,1.308-6.749,1.089" transform="translate(-135.954 -244.615)"/></g></g><g transform="translate(118.234 159.863)"><path class="t" d="M141.383,167.1" transform="translate(-141.383 -167.096)"/></g></g></svg>