<svg xmlns="http://www.w3.org/2000/svg" width="228.261" height="227.829" viewBox="0 0 228.261 227.829"><defs><style>.a{fill:#e0e0e0;}.b{fill:#f5f5f5;}.c{fill:#fff;}.d{fill:none;stroke:#fbfbfb;stroke-miterlimit:10;stroke-width:0.25px;}.e{fill:#ebebeb;}.f{fill:#263238;}.g{fill:#0894fe;}.h{fill:#fafafa;}.i{fill:#e8505b;}.j{opacity:0.3;}.k{fill:#0048cd;}.l{fill:#75c6fa;}.m{fill:#455a64;}.n{fill:#2680eb;}.o{fill:#f2f2f2;}.p{fill:#c4c9ce;}</style></defs><g transform="translate(-45.503 -101.198)"><g transform="translate(52.376 101.198)"><g transform="translate(2.827 0.001)"><rect class="a" width="56.23" height="81.503"/></g><g transform="translate(0.01 0.001)"><rect class="b" width="56.23" height="81.503"/></g><g transform="translate(6.844 8.675)"><g transform="translate(0.153 0.153)"><rect class="c" width="42.258" height="63.849"/></g><path class="a" d="M106.559,176.991s-.006-.108-.008-.313-.005-.511-.009-.9c0-.8-.01-1.977-.017-3.5-.009-3.06-.021-7.519-.038-13.153-.017-11.258-.04-27.2-.069-45.976l.141.14-42.253.013h0l.152-.152c-.012,24.086-.022,46.294-.031,63.848l-.121-.122,30.758.064,8.5.031,2.231.014c.5,0,.771.013.771.013s-.249.009-.746.013l-2.208.013-8.47.031-30.834.064h-.122v-.122c-.009-17.555-.019-39.762-.031-63.848v-.153h.157l42.253.013h.141v.141c-.029,18.812-.052,34.787-.069,46.068-.016,5.62-.029,10.069-.038,13.121-.007,1.513-.013,2.679-.017,3.474,0,.387-.006.683-.008.89S106.559,176.991,106.559,176.991Z" transform="translate(-64.148 -112.99)"/></g><g transform="translate(47.295 9.254)"><path class="d" d="M119.133,113.777" transform="translate(-119.133 -113.777)"/></g><g transform="translate(48.74 0)"><path class="a" d="M128.755,101.2a9.837,9.837,0,0,1-1,1.456c-.653.873-1.58,2.061-2.638,3.347s-2.047,2.423-2.779,3.231a9.777,9.777,0,0,1-1.237,1.262,10.513,10.513,0,0,1,1.073-1.4l2.707-3.285,2.7-3.286A10.5,10.5,0,0,1,128.755,101.2Z" transform="translate(-121.097 -101.198)"/></g><g transform="translate(49.467 72.47)"><g transform="translate(0.002 0.001)"><path class="c" d="M122.088,199.706a52.322,52.322,0,0,0,7.371,9.218" transform="translate(-122.088 -199.706)"/></g><path class="a" d="M129.458,208.924a8.394,8.394,0,0,1-1.285-1.169,41.183,41.183,0,0,1-5.228-6.539,8.322,8.322,0,0,1-.857-1.51,11.736,11.736,0,0,1,1.037,1.39c.619.87,1.49,2.06,2.507,3.333s1.986,2.382,2.7,3.178A11.569,11.569,0,0,1,129.458,208.924Z" transform="translate(-122.086 -199.705)"/></g><g transform="translate(0 72.351)"><g transform="translate(0.002 0.001)"><path class="c" d="M54.848,208.632l7.366-9.087" transform="translate(-54.848 -199.545)"/></g><path class="a" d="M62.213,199.545a56.149,56.149,0,0,1-3.564,4.639,55.87,55.87,0,0,1-3.8,4.448,56.142,56.142,0,0,1,3.564-4.64A55.86,55.86,0,0,1,62.213,199.545Z" transform="translate(-54.845 -199.544)"/></g><g transform="translate(0.008)"><path class="a" d="M54.858,101.2a50.709,50.709,0,0,1,3.575,4.273,50.931,50.931,0,0,1,3.335,4.464,50.826,50.826,0,0,1-3.575-4.274A50.9,50.9,0,0,1,54.858,101.2Z" transform="translate(-54.856 -101.198)"/></g><g transform="translate(21.939 21.792)"><rect class="a" width="14.15" height="40.175"/></g></g><g transform="translate(137.348 108.445)"><g transform="translate(0.226)"><path class="a" d="M219.979,111.049V144.2h-47.61l-1.715-32.917Z" transform="translate(-170.653 -111.049)"/></g><g transform="translate(0 0.006)"><g transform="translate(0.226 0.226)"><rect class="c" width="32.847" height="47.61" transform="translate(0 32.847) rotate(-90)"/></g><path class="a" d="M218.408,144.355H170.346v-33.3h48.062ZM170.8,143.9h47.159v-32.4H170.8Z" transform="translate(-170.346 -111.057)"/></g><g transform="translate(5.265 4.205)"><g transform="translate(0.117 0.108)"><rect class="c" width="37.297" height="24.685"/></g><path class="a" d="M214.918,116.872s-.064,0-.184.007l-.53.006-2.048.013-7.686.029-26.849.053.108-.108c0,7.542.007,15.9.01,24.682v0l-.118-.118,37.3.024-.093.093c.021-7.512.038-13.671.049-17.96.01-2.144.018-3.819.024-4.967q.007-.851.01-1.305c0-.3.01-.453.01-.453s.007.144.01.433.006.728.01,1.287c.006,1.143.013,2.811.024,4.946.012,4.3.029,10.482.049,18.018v.094h-.094l-37.3.024H177.5v-.121c0-8.783.007-17.14.01-24.682v-.108h.107l26.92.053,7.661.029,2.027.013.518.007C214.862,116.868,214.918,116.872,214.918,116.872Z" transform="translate(-177.503 -116.764)"/></g><g transform="translate(0.225 0.138)"><path class="a" d="M170.653,111.238a4.021,4.021,0,0,1,.819.53c.487.352,1.151.85,1.866,1.424s1.346,1.116,1.79,1.522a3.876,3.876,0,0,1,.681.7c-.044.05-1.189-.894-2.618-2.036A25.945,25.945,0,0,1,170.653,111.238Z" transform="translate(-170.651 -111.236)"/></g><g transform="translate(42.679 0.23)"><path class="a" d="M233.516,111.363a23.132,23.132,0,0,1-2.505,2.133,23.087,23.087,0,0,1-2.651,1.948,46.111,46.111,0,0,1,5.156-4.081Z" transform="translate(-228.359 -111.361)"/></g><g transform="translate(42.489 28.779)"><g transform="translate(0.001 0.002)"><path class="c" d="M233.411,154.473l-5.309-4.3" transform="translate(-228.102 -150.171)"/></g><path class="a" d="M228.1,150.17a49.427,49.427,0,0,1,5.309,4.3,49.67,49.67,0,0,1-5.309-4.3Z" transform="translate(-228.101 -150.168)"/></g><g transform="translate(0.225 29.04)"><path class="a" d="M170.653,154.561a45.18,45.18,0,0,1,5.1-4.036,45.175,45.175,0,0,1-5.1,4.036Z" transform="translate(-170.652 -150.523)"/></g><g transform="translate(12.955 12.004)"><rect class="a" width="8.266" height="23.468" transform="translate(0 8.266) rotate(-90)"/></g></g><g transform="translate(58.729 280.261)"><g transform="translate(9.321 24.156)"><path class="b" d="M78.031,396.217c-.878-.753-2.835-3.137-1.326-5.911a5.264,5.264,0,0,1,2.793-1.968,11.352,11.352,0,0,0,3.063-1.587c1.66-1.413,2.119-3.759,3.221-5.644a7.055,7.055,0,0,1,6.123-3.671c2.857.13,5.241,2.464,6.321,5.125s1.118,5.616,1.14,8.49c.013,1.589-.058,3.38-1.225,4.454-1.076.99-2.695,1-4.152.956l-15.617-.48" transform="translate(-76.151 -377.43)"/></g><g transform="translate(0 0)"><path class="a" d="M104.55,344.6H63.481l7.4,44.113a4.926,4.926,0,0,0,3.506,3.927c.047.015.1.026.144.039.122.032.24.073.366.095a5.1,5.1,0,0,0,.835.1l.007.043.2-.032H94.242a5.145,5.145,0,0,0,1.006-.1,4.944,4.944,0,0,0,4.155-4.311l3.566-30.394.161-1.209h-.019l1.413-12.037ZM96.8,372.733H92.588l.425-12.8H97.9Zm1.5-12.8h4.035l-1.5,12.8H97.211Zm-12.041,27L86.008,375.8h6.069l-.369,11.122ZM79.7,375.8h5.9l.256,11.122h-5.29Zm.456,11.122H75.214c-.47-3-1.081-6.906-1.743-11.122h5.823Zm-.694-14.193-.995-12.8h6.765l.3,12.8Zm6.473,0-.295-12.8h6.962l-.425,12.8Zm-.366-15.872L85.3,345h7.8l-.394,11.856Zm-.408,0H78.231L77.31,345h7.581Zm-7.342,0H70.487c-.26-1.638-.506-3.188-.729-4.582-.765-4.794-1.053-6.6-1.212-7.274H76.9Zm.238,3.07,1,12.8H72.989c-.2-1.3-.411-2.612-.617-3.928-.475-3.022-.952-6.044-1.4-8.875Zm-5.484,12.8H68.614l-2.147-12.8H70.56C71.185,363.888,71.879,368.291,72.577,372.733Zm.482,3.071c.6,3.848,1.2,7.643,1.743,11.122H70.994L69.128,375.8Zm19.058,11.122.369-11.122H96.54l-.951,11.122Zm1-30.065L93.509,345h5.663l-1.013,11.856ZM68.157,345c.163.857.912,5.523,1.916,11.856H65.951L63.963,345Zm31.016,41.921H96l.951-11.122h3.528Zm3.528-30.065H98.568L99.581,345h4.51Z" transform="translate(-63.481 -344.595)"/></g></g><g transform="translate(218.702 215.507)"><g transform="translate(0 0)"><g transform="translate(0.049 0)"><path class="b" d="M282.852,256.577v11.114H281V268.9h1.856v7.438h34.686v-6.768h-2.569v-1.474h2.569v-2.211h1.142v-1h-1.356v-8.3Z" transform="translate(-280.996 -256.577)"/></g><g transform="translate(27.38)"><path class="a" d="M318.147,256.609v19.6h9.211v-6.768h-2.569v-1.35l2.569.046v-2.211h1.164l-.022-1.143-1.356-.033v-8.176Z" transform="translate(-318.147 -256.577)"/></g><g transform="translate(0 12.037)"><path class="a" d="M308.966,273.062c0,.068-6.277.124-14.018.124s-14.018-.055-14.018-.124,6.275-.123,14.018-.123S308.966,272.994,308.966,273.062Z" transform="translate(-280.93 -272.939)"/></g><g transform="translate(0 10.909)"><path class="a" d="M308.966,271.528c0,.068-6.277.123-14.018.123s-14.018-.055-14.018-.123,6.275-.123,14.018-.123S308.966,271.46,308.966,271.528Z" transform="translate(-280.93 -271.405)"/></g><g transform="translate(1.8 7.871)"><path class="a" d="M311.413,267.4c0,.068-6.276.123-14.017.123s-14.019-.055-14.019-.123,6.275-.123,14.019-.123S311.413,267.33,311.413,267.4Z" transform="translate(-283.377 -267.275)"/></g><g transform="translate(1.973 16.15)"><path class="a" d="M311.649,278.652c0,.068-6.277.124-14.018.124s-14.019-.055-14.019-.124,6.275-.123,14.019-.123S311.649,278.584,311.649,278.652Z" transform="translate(-283.612 -278.529)"/></g></g></g><g transform="translate(144.351 208.93)"><g transform="translate(0)"><g transform="translate(0 52.64)"><g transform="translate(29.777 4.795)"><rect class="a" width="4.489" height="53.783" transform="translate(4.489 53.783) rotate(180)"/></g><path class="e" d="M180.219,326.511h64.2a6.969,6.969,0,0,0-6.969-6.969H187.187a6.969,6.969,0,0,0-6.968,6.969Z" transform="translate(-179.959 -319.282)"/><path class="a" d="M244.588,326.678H179.866v-.26a7.237,7.237,0,0,1,7.229-7.229H237.36a7.236,7.236,0,0,1,7.228,7.229Zm-64.2-.519h63.673a6.717,6.717,0,0,0-6.7-6.45H187.095A6.717,6.717,0,0,0,180.391,326.158Z" transform="translate(-179.866 -319.189)"/><g transform="translate(27.661 7.202)"><path class="a" d="M217.465,329.143a46.938,46.938,0,0,0,7.877,0,47.146,47.146,0,0,0-7.877,0Z" transform="translate(-217.465 -328.978)"/></g><g transform="translate(12.386 43.715)"><path class="e" d="M196.7,398.346h.635a19.1,19.1,0,1,1,38.2,0h.635a19.736,19.736,0,1,0-39.472,0Z" transform="translate(-196.702 -378.61)"/></g><g transform="translate(48.581 61.472)"><path class="a" d="M245.9,405.706a2.959,2.959,0,1,0,2.959-2.959A2.959,2.959,0,0,0,245.9,405.706Z" transform="translate(-245.901 -402.747)"/></g><g transform="translate(9.596 61.064)"><path class="a" d="M192.91,405.151a2.959,2.959,0,1,0,2.959-2.959A2.959,2.959,0,0,0,192.91,405.151Z" transform="translate(-192.91 -402.192)"/></g><g transform="translate(12.576 58.412)"><path class="e" d="M196.961,398.754c0,.091,8.588.166,19.179.166s19.181-.074,19.181-.166-8.586-.166-19.181-.166S196.961,398.662,196.961,398.754Z" transform="translate(-196.961 -398.588)"/></g></g><g transform="translate(26.438)"><path class="e" d="M255.713,251.826v39.592a9.4,9.4,0,0,1-9.4,9.4H215.8l4.144-48.993a4.19,4.19,0,0,1,4.19-4.19h27.386A4.19,4.19,0,0,1,255.713,251.826Z" transform="translate(-215.803 -247.636)"/></g><g transform="translate(55.564 1.895)"><path class="a" d="M255.394,301.217s.02-.043.07-.116l.224-.324c.2-.28.491-.7.839-1.257a20.808,20.808,0,0,0,2.273-5.043,20.442,20.442,0,0,0,.756-3.744,38.425,38.425,0,0,0,.12-4.4c0-3.114-.008-6.532-.013-10.121.018-7.168.035-13.656.047-18.388.021-2.33.038-4.226.051-5.573q.019-.952.03-1.515a3.312,3.312,0,0,1,.032-.528,3.244,3.244,0,0,1,.032.528q.011.562.03,1.515c.013,1.347.029,3.243.051,5.573.012,4.732.029,11.219.047,18.388,0,3.589-.009,7.007-.013,10.121a37.727,37.727,0,0,1-.152,4.426,20.3,20.3,0,0,1-.8,3.781,19.848,19.848,0,0,1-2.384,5.044c-.366.55-.672.96-.892,1.229A2.643,2.643,0,0,1,255.394,301.217Z" transform="translate(-255.393 -250.212)"/></g><g transform="translate(38.953 52.827)"><path class="a" d="M232.814,319.537a5.624,5.624,0,0,1,.969-.055l2.644-.032c2.232-.013,5.317-.01,8.724.015,1.7.017,3.329.019,4.8.057a15.527,15.527,0,0,1,3.917.427,6.057,6.057,0,0,1,2.355,1.234,3.956,3.956,0,0,1,.512.512c.108.125.16.194.152.2-.027.026-.249-.245-.742-.617a6.351,6.351,0,0,0-2.337-1.112,16.179,16.179,0,0,0-3.864-.352l-4.8-.031c-3.4-.024-6.486-.064-8.717-.109l-2.643-.07A5.648,5.648,0,0,1,232.814,319.537Z" transform="translate(-232.814 -319.443)"/></g></g></g><g transform="translate(45.503 328.437)"><path class="f" d="M273.764,410.216c0,.074-51.1.135-114.125.135-63.045,0-114.136-.061-114.136-.135s51.091-.135,114.136-.135C222.662,410.081,273.764,410.141,273.764,410.216Z" transform="translate(-45.503 -410.081)"/></g><g transform="translate(83.894 209.858)"><g transform="translate(0.123)"><rect class="g" width="3.804" height="28.473" transform="translate(0 3.804) rotate(-90)"/><g transform="translate(3.7 0.158)"><path class="h" d="M103.063,249.112a8.969,8.969,0,0,1,0,3.564,8.933,8.933,0,0,1,0-3.564Z" transform="translate(-102.883 -249.112)"/></g><g transform="translate(3.08 0.08)"><path class="h" d="M102.22,249.006a8.973,8.973,0,0,1,0,3.564,8.973,8.973,0,0,1,0-3.564Z" transform="translate(-102.041 -249.006)"/></g><g transform="translate(26.092 0.158)"><path class="h" d="M133.5,249.112a8.969,8.969,0,0,1,0,3.564,8.933,8.933,0,0,1,0-3.564Z" transform="translate(-133.32 -249.112)"/></g><g transform="translate(25.472 0.08)"><path class="h" d="M132.657,249.006a8.937,8.937,0,0,1,0,3.564,8.973,8.973,0,0,1,0-3.564Z" transform="translate(-132.478 -249.006)"/></g><g transform="translate(7.366 1.838)"><path class="h" d="M122.432,251.575c0,.1-3.261.179-7.283.179s-7.283-.08-7.283-.179,3.261-.179,7.283-.179S122.432,251.476,122.432,251.575Z" transform="translate(-107.866 -251.396)"/></g></g><g transform="translate(0 17.126)"><rect class="g" width="7.608" height="28.473" transform="translate(0 7.608) rotate(-90)"/><g transform="translate(0.071 0.642)"><path class="h" d="M126.55,277.875a.658.658,0,0,1-.154.088c-.1.054-.263.127-.475.217a8.265,8.265,0,0,1-1.93.553,5.032,5.032,0,0,1-3.133-.445,4.167,4.167,0,0,1-1.488-1.348,3.134,3.134,0,0,1-.518-2.192,2.305,2.305,0,0,1,.524-1.133,1.494,1.494,0,0,1,1.2-.545,1.724,1.724,0,0,1,1.207.65,2.356,2.356,0,0,1,.551,1.3,3.454,3.454,0,0,1-.981,2.7,4.337,4.337,0,0,1-2.737,1.337,7.28,7.28,0,0,1-3.176-.394,5.86,5.86,0,0,1-2.775-1.865,3.057,3.057,0,0,1-.647-1.643,2.134,2.134,0,0,1,.606-1.709,1.386,1.386,0,0,1,.891-.391,1.628,1.628,0,0,1,.931.262,2.472,2.472,0,0,1,1.048,1.535,3.587,3.587,0,0,1-1.123,3.352,5.605,5.605,0,0,1-3.206,1.3,7.886,7.886,0,0,1-3.323-.327,4.592,4.592,0,0,1-2.528-1.965,3.367,3.367,0,0,1-.317-3.022,1.59,1.59,0,0,1,1.162-.983,1.836,1.836,0,0,1,1.435.347,2.377,2.377,0,0,1,.678,2.563,4.442,4.442,0,0,1-1.435,2.022,6.459,6.459,0,0,1-3.9,1.516,6.3,6.3,0,0,1-4.706-1.9,4.6,4.6,0,0,1-.341-.4.627.627,0,0,1-.1-.147,7.25,7.25,0,0,0,2.117,1.614,6.2,6.2,0,0,0,3.022.627,6.281,6.281,0,0,0,3.749-1.509,4.19,4.19,0,0,0,1.335-1.908,2.1,2.1,0,0,0-.593-2.247,1.538,1.538,0,0,0-1.2-.283,1.273,1.273,0,0,0-.931.809,3.053,3.053,0,0,0,.31,2.726,4.264,4.264,0,0,0,2.356,1.812,7.579,7.579,0,0,0,3.174.3,5.262,5.262,0,0,0,3-1.22,3.235,3.235,0,0,0,1.013-3.007,2.115,2.115,0,0,0-.887-1.312,1.09,1.09,0,0,0-1.389.085,1.783,1.783,0,0,0-.5,1.425,2.708,2.708,0,0,0,.574,1.455,5.538,5.538,0,0,0,2.606,1.753,6.953,6.953,0,0,0,3.027.39,4.012,4.012,0,0,0,2.545-1.225,3.153,3.153,0,0,0,.917-2.449,1.818,1.818,0,0,0-1.477-1.7,1.225,1.225,0,0,0-.989.445,2.052,2.052,0,0,0-.472,1,2.9,2.9,0,0,0,.459,2.025,3.984,3.984,0,0,0,1.393,1.3,4.935,4.935,0,0,0,3.017.482,9.013,9.013,0,0,0,1.924-.482C126.323,277.957,126.544,277.861,126.55,277.875Z" transform="translate(-97.783 -273.049)"/></g></g><g transform="translate(2.543 3.779)"><g transform="translate(0 0.135)"><rect class="f" width="13.199" height="25.93" transform="translate(0 13.199) rotate(-90)"/></g><g transform="translate(4.13 0.588)"><path class="a" d="M106.935,254.833a56.942,56.942,0,0,1,.18,6.388,56.949,56.949,0,0,1-.18,6.389,57.276,57.276,0,0,1-.179-6.389A57.268,57.268,0,0,1,106.935,254.833Z" transform="translate(-106.756 -254.833)"/></g><g transform="translate(6.095 0.424)"><path class="a" d="M109.607,254.61a55.5,55.5,0,0,1,.18,6.306,55.484,55.484,0,0,1-.18,6.306,55.806,55.806,0,0,1-.179-6.306A55.827,55.827,0,0,1,109.607,254.61Z" transform="translate(-109.428 -254.61)"/></g><g transform="translate(22.82)"><path class="a" d="M132.34,254.034a61.882,61.882,0,0,1,.179,6.641,61.871,61.871,0,0,1-.179,6.641,61.523,61.523,0,0,1-.18-6.641A61.534,61.534,0,0,1,132.34,254.034Z" transform="translate(-132.161 -254.034)"/></g><g transform="translate(20.509 0.178)"><path class="a" d="M129.2,254.276a58.753,58.753,0,0,1,.179,6.47,58.723,58.723,0,0,1-.179,6.47,58.723,58.723,0,0,1-.179-6.47A58.753,58.753,0,0,1,129.2,254.276Z" transform="translate(-129.021 -254.276)"/></g></g></g><g transform="translate(212.189 293.256)"><g transform="translate(3.013 2.888)"><g transform="translate(1.949)"><path class="i" d="M309.356,367.276l-.833,15.309a1.034,1.034,0,0,1-1.024.978l-27.548.2a1.033,1.033,0,0,1-1.041-1.026l-.088-11.917a1.034,1.034,0,0,1,1.033-1.042l16.943-.015a1.034,1.034,0,0,0,.73-.3l2.923-2.922a1.031,1.031,0,0,1,.723-.3l7.142-.052A1.034,1.034,0,0,1,309.356,367.276Z" transform="translate(-278.822 -366.186)"/></g><g class="j" transform="translate(1.949)"><path d="M309.356,367.276l-.833,15.309a1.034,1.034,0,0,1-1.024.978l-27.548.2a1.033,1.033,0,0,1-1.041-1.026l-.088-11.917a1.034,1.034,0,0,1,1.033-1.042l16.943-.015a1.034,1.034,0,0,0,.73-.3l2.923-2.922a1.031,1.031,0,0,1,.723-.3l7.142-.052A1.034,1.034,0,0,1,309.356,367.276Z" transform="translate(-278.822 -366.186)"/></g><g transform="translate(1.928 1.573)"><rect class="b" width="30.1" height="17.987" transform="matrix(-1, 0.007, -0.007, -1, 30.231, 17.986)"/></g><g transform="translate(0 2.428)"><path class="g" d="M310.606,370.228,308.446,389a.665.665,0,0,1-.655.589l-29.334.215a.664.664,0,0,1-.667-.608l-1.615-18.745a.665.665,0,0,1,.658-.722l33.109-.243A.664.664,0,0,1,310.606,370.228Z" transform="translate(-276.173 -369.487)"/></g></g><g transform="translate(11.118)"><g transform="translate(1.949)"><path class="g" d="M320.372,363.35l-.832,15.309a1.033,1.033,0,0,1-1.025.978l-27.548.2a1.035,1.035,0,0,1-1.042-1.026l-.087-11.917a1.033,1.033,0,0,1,1.033-1.041l16.942-.015a1.032,1.032,0,0,0,.73-.3l2.924-2.922a1.034,1.034,0,0,1,.723-.3l7.142-.052A1.033,1.033,0,0,1,320.372,363.35Z" transform="translate(-289.839 -362.26)"/></g><g transform="translate(1.928 1.573)"><rect class="b" width="30.1" height="17.987" transform="matrix(-1, 0.007, -0.007, -1, 30.231, 17.986)"/></g><g transform="translate(0 2.428)"><path class="k" d="M321.623,366.3l-2.161,18.773a.664.664,0,0,1-.655.589l-29.334.215a.666.666,0,0,1-.667-.608l-1.614-18.745a.665.665,0,0,1,.658-.722l33.109-.243A.665.665,0,0,1,321.623,366.3Z" transform="translate(-287.19 -365.561)"/></g></g><g transform="translate(20.252 3.585)"><g transform="translate(1.948)"><path class="l" d="M332.788,368.223l-.832,15.309a1.035,1.035,0,0,1-1.025.978l-27.548.2a1.034,1.034,0,0,1-1.041-1.026l-.088-11.917a1.035,1.035,0,0,1,1.033-1.042l16.943-.015a1.032,1.032,0,0,0,.73-.3l2.923-2.922a1.031,1.031,0,0,1,.723-.3l7.143-.052A1.033,1.033,0,0,1,332.788,368.223Z" transform="translate(-302.254 -367.133)"/></g><g transform="translate(1.928 1.573)"><rect class="b" width="30.1" height="17.987" transform="translate(30.231 17.986) rotate(179.58)"/></g><g transform="translate(0 2.428)"><path class="g" d="M334.039,371.175l-2.161,18.772a.666.666,0,0,1-.655.589l-29.334.215a.664.664,0,0,1-.667-.608L299.608,371.4a.665.665,0,0,1,.657-.722l33.109-.242A.665.665,0,0,1,334.039,371.175Z" transform="translate(-299.605 -370.434)"/></g></g><g transform="translate(20.252 9.307)"><path class="m" d="M299.605,374.911v26.042h37.568V374.911Zm12.263,4.685a1.923,1.923,0,0,1,1.923-1.922h9.2a1.923,1.923,0,1,1,0,3.845h-9.2A1.923,1.923,0,0,1,311.868,379.6Z" transform="translate(-299.605 -374.911)"/></g><g transform="translate(0 9.307)"><path class="f" d="M272.077,374.911v26.042h20.252V374.911Z" transform="translate(-272.077 -374.911)"/></g></g><g transform="translate(56.509 234.591)"><g transform="translate(9.729)"><rect class="f" width="196.52" height="6.299"/></g><g transform="translate(0 5.524)"><path class="f" d="M79.9,290.027,60.463,378.548H63.75L86.763,290.8Z" transform="translate(-60.463 -290.027)"/></g><g transform="translate(176.177 5.339)"><path class="f" d="M306.805,289.774l19.432,88.707H322.95l-23.013-87.747Z" transform="translate(-299.937 -289.774)"/></g></g><g transform="translate(69.067 174.183)"><g transform="translate(0)"><g transform="translate(19.519 20.277)"><g transform="translate(0 5.087)"><path class="f" d="M112.524,234.885a13.459,13.459,0,0,1-1.383,1.071,32.317,32.317,0,0,0-5.977,5.875,13.345,13.345,0,0,1-1.1,1.364,7.349,7.349,0,0,1,.914-1.5,24.332,24.332,0,0,1,6.027-5.923A7.307,7.307,0,0,1,112.524,234.885Z" transform="translate(-104.066 -234.883)"/></g><g transform="translate(5.686 0.447)"><path class="f" d="M113.435,228.576a36.321,36.321,0,0,1-1.625,6.623,36.318,36.318,0,0,1,1.625-6.623Z" transform="translate(-111.795 -228.576)"/></g><g transform="translate(6.622)"><path class="m" d="M113.279,228.163c-.224.1-.288.646-.1.909a.679.679,0,0,0,.868.151.732.732,0,0,0,.289-.978.724.724,0,0,0-1.08-.066" transform="translate(-113.068 -227.967)"/></g><g transform="translate(6.649 2.287)"><path class="f" d="M115.646,231.094c.037.08-.5.4-1.2.725a3.188,3.188,0,0,1-1.337.433c-.037-.081.5-.405,1.2-.725A3.16,3.16,0,0,1,115.646,231.094Z" transform="translate(-113.104 -231.076)"/></g><g transform="translate(8.691 1.739)"><path class="m" d="M116.325,230.373a1.088,1.088,0,0,0-.427.541.484.484,0,0,0,.254.584.457.457,0,0,0,.424-.092.845.845,0,0,0,.245-.374.678.678,0,0,0,.024-.477.333.333,0,0,0-.388-.211" transform="translate(-115.88 -230.331)"/></g><g transform="translate(8.479 4.476)"><path class="m" d="M116.234,234.056a.654.654,0,1,1-.142.006" transform="translate(-115.591 -234.052)"/></g></g><g transform="translate(9.548)"><g transform="translate(4.708 6.524)"><path class="f" d="M96.963,209.273a7.176,7.176,0,0,1,.079,1.087c.024.752.057,1.751.1,2.961.067,2.5.138,5.954.2,9.768s.093,7.27.1,9.771c0,1.21,0,2.209-.006,2.961a6.933,6.933,0,0,1-.046,1.087,7.115,7.115,0,0,1-.079-1.084c-.024-.752-.057-1.751-.1-2.96-.068-2.5-.138-5.955-.2-9.772s-.093-7.271-.1-9.771c0-1.21,0-2.209.006-2.961A7.025,7.025,0,0,1,96.963,209.273Z" transform="translate(-96.911 -209.273)"/></g><path class="n" d="M100.138,204.844a4.82,4.82,0,1,1-5.186-4.424A4.82,4.82,0,0,1,100.138,204.844Z" transform="translate(-90.512 -200.405)"/><g class="j" transform="translate(0.677 2.266)"><path d="M95.378,210.872a10.087,10.087,0,0,1,.042-1.395,7.944,7.944,0,0,0-.494-3.244A4.5,4.5,0,0,0,92.75,203.9a6.805,6.805,0,0,0-1.317-.367c0-.018.132-.049.38-.049a2.9,2.9,0,0,1,1.026.207,4.422,4.422,0,0,1,2.384,2.417,7.151,7.151,0,0,1,.423,3.38A4.369,4.369,0,0,1,95.378,210.872Z" transform="translate(-91.433 -203.486)"/></g><g class="j" transform="translate(4.548 2.846)"><path d="M101.263,204.364a5.445,5.445,0,0,0-4.56,2.951c-.037-.012.024-.344.281-.82a4.308,4.308,0,0,1,3.416-2.21A1.58,1.58,0,0,1,101.263,204.364Z" transform="translate(-96.694 -204.273)"/></g><g class="j" transform="translate(2.632 1.313)"><path d="M98.42,204.2c-.053.012-.115-.318-.413-.728a2.171,2.171,0,0,0-3.378-.282c-.363.355-.478.67-.528.65-.033-.005.006-.366.361-.8a2.261,2.261,0,0,1,3.736.312C98.475,203.835,98.453,204.2,98.42,204.2Z" transform="translate(-94.09 -202.189)"/></g><g class="j" transform="translate(4.164 1.698)"><path d="M97.641,205.259c-.093.009-.2-.653-.6-1.343s-.917-1.116-.863-1.193c.037-.076.7.262,1.141,1.032A1.913,1.913,0,0,1,97.641,205.259Z" transform="translate(-96.172 -202.713)"/></g><g class="j" transform="translate(3.793 2.766)"><path d="M97.037,204.208c.023.095-.375.221-.7.543s-.558.694-.644.644c-.067-.033.022-.467.422-.876C96.541,204.115,97.034,204.131,97.037,204.208Z" transform="translate(-95.669 -204.165)"/></g></g><g transform="translate(0 18.109)"><g transform="translate(4.037 3.21)"><path class="f" d="M83.025,229.384c.084-.027,1.41,3.876,2.96,8.716s2.74,8.789,2.656,8.816-1.41-3.875-2.961-8.717S82.941,229.41,83.025,229.384Z" transform="translate(-83.021 -229.384)"/></g><g transform="translate(1.065 8.023)"><path class="f" d="M85.042,240.744a38.032,38.032,0,0,1-3.1-2.314,22.241,22.241,0,0,1-2.958-2.5,24.809,24.809,0,0,1,3.155,2.248A17.012,17.012,0,0,1,85.042,240.744Z" transform="translate(-78.981 -235.926)"/></g><g transform="translate(0.163 7.331)"><path class="m" d="M77.907,235.281a.8.8,0,0,0,.127,1.065.883.883,0,0,0,1.2-.2.793.793,0,0,0-.3-1.072.871.871,0,0,0-1.1.292" transform="translate(-77.755 -234.984)"/></g><g transform="translate(5.331 1.306)"><path class="f" d="M86.576,226.795a10.6,10.6,0,0,1-.767,3.04c-.572,1.628-.926,2.969-1.008,2.956a9.489,9.489,0,0,1,.7-3.058A27.938,27.938,0,0,1,86.576,226.795Z" transform="translate(-84.779 -226.795)"/></g><g transform="translate(6.479)"><path class="m" d="M86.837,225.124c-.32.23-.335.369-.458.743a.734.734,0,0,0,.439.951.848.848,0,0,0,.848-.572,1.017,1.017,0,0,0-.008-.968.56.56,0,0,0-.861-.095" transform="translate(-86.34 -225.02)"/></g><g transform="translate(1.451 10.498)"><path class="f" d="M79.508,240.433a6.623,6.623,0,0,1,2.669-1.123c.037.08-.533.4-1.272.71A3.374,3.374,0,0,1,79.508,240.433Z" transform="translate(-79.506 -239.29)"/></g><g transform="translate(0 10.95)"><path class="m" d="M77.835,240.058c-.221.115-.313.647-.3.871a.72.72,0,0,0,.341.549.859.859,0,1,0-.041-1.42" transform="translate(-77.533 -239.904)"/></g><g transform="translate(2.592 1.706)"><path class="m" d="M81.084,227.94a1.146,1.146,0,0,0,1.979,1.009.839.839,0,0,0,.223-.654,1.329,1.329,0,0,0-1.035-.951,1.183,1.183,0,0,0-1.167.6" transform="translate(-81.057 -227.339)"/></g></g><g transform="translate(16.08 18.018)"><g transform="translate(0 7.196)"><path class="f" d="M102.445,234.679a6.073,6.073,0,0,1-.382,1.276L101,238.977l-1.088,3.013a6.114,6.114,0,0,1-.511,1.23,43.1,43.1,0,0,1,3.044-8.541Z" transform="translate(-99.39 -234.678)"/></g><g transform="translate(0.01)"><path class="l" d="M107.566,229.881a4.125,4.125,0,1,1-3.178-4.892A4.126,4.126,0,0,1,107.566,229.881Z" transform="translate(-99.404 -224.897)"/><g class="j" transform="translate(1.336 1.054)"><path d="M102.672,233.319a6.705,6.705,0,0,1,.358-1.14,6.855,6.855,0,0,0,.377-2.774,3.857,3.857,0,0,0-1.206-2.433,7.073,7.073,0,0,0-.98-.634,1.767,1.767,0,0,1,1.125.459,3.782,3.782,0,0,1,1.38,2.574,6.069,6.069,0,0,1-.483,2.885A3.367,3.367,0,0,1,102.672,233.319Z" transform="translate(-101.22 -226.33)"/></g><g class="j" transform="translate(3.645 3.252)"><path d="M108.825,229.692a4.819,4.819,0,0,0-4.46,1.31c-.032-.023.094-.284.419-.617a3.653,3.653,0,0,1,3.355-.986C108.591,229.5,108.839,229.655,108.825,229.692Z" transform="translate(-104.359 -229.317)"/></g><g class="j" transform="translate(2.787 1.138)"><path d="M106.653,228.723c-.052,0-.029-.29-.177-.694a1.852,1.852,0,0,0-2.679-1.045c-.383.2-.558.423-.6.391-.032-.016.084-.308.483-.586a1.943,1.943,0,0,1,3.013,1.175C106.8,228.44,106.687,228.733,106.653,228.723Z" transform="translate(-103.192 -226.444)"/></g><g class="j" transform="translate(4.337 1.408)"><path d="M105.9,229.255c-.092-.019-.026-.585-.19-1.244s-.469-1.136-.4-1.194c.057-.062.531.374.707,1.119A1.539,1.539,0,0,1,105.9,229.255Z" transform="translate(-105.3 -226.811)"/></g><g class="j" transform="translate(3.49 2.444)"><path d="M105.554,228.334c-.006.1-.36.115-.7.295s-.629.422-.7.352c-.056-.053.115-.394.549-.637C105.168,228.113,105.572,228.258,105.554,228.334Z" transform="translate(-104.148 -228.219)"/></g></g></g><g transform="translate(5.043 9.214)"><g transform="translate(4.582 7.348)"><path class="f" d="M90.627,222.918a2.976,2.976,0,0,1,.16.686q.13.768.317,1.88c.253,1.588.581,3.784.924,6.213s.635,4.63.831,6.225c.085.745.157,1.376.216,1.891a2.951,2.951,0,0,1,.035.7,2.98,2.98,0,0,1-.159-.682q-.129-.768-.316-1.879c-.254-1.588-.582-3.787-.925-6.219s-.636-4.633-.831-6.228q-.127-1.117-.216-1.891A2.926,2.926,0,0,1,90.627,222.918Z" transform="translate(-90.617 -222.918)"/></g><path class="n" d="M92.487,215.943a4.125,4.125,0,1,1-5.085-2.86A4.124,4.124,0,0,1,92.487,215.943Z" transform="translate(-84.389 -212.93)"/><g class="j" transform="translate(0.233 2.553)"><path d="M89.23,222.065a6.683,6.683,0,0,1-.212-1.176,6.855,6.855,0,0,0-.953-2.632,3.863,3.863,0,0,0-2.2-1.6,7.08,7.08,0,0,0-1.163-.107,1.768,1.768,0,0,1,1.209-.116,3.78,3.78,0,0,1,2.417,1.64,6.077,6.077,0,0,1,.911,2.779A3.38,3.38,0,0,1,89.23,222.065Z" transform="translate(-84.705 -216.4)"/></g><g class="j" transform="translate(4.056 1.805)"><path d="M93.27,215.413a4.819,4.819,0,0,0-3.342,3.231c-.04-.006-.049-.3.085-.741a3.656,3.656,0,0,1,2.515-2.43C92.976,215.355,93.266,215.374,93.27,215.413Z" transform="translate(-89.902 -215.383)"/></g><g class="j" transform="translate(1.965 1.131)"><path d="M90.771,215.849c-.048.021-.16-.243-.479-.532a1.853,1.853,0,0,0-2.857.318c-.248.352-.3.634-.351.625-.035,0-.068-.311.157-.743a1.943,1.943,0,0,1,3.214-.358C90.77,215.531,90.806,215.843,90.771,215.849Z" transform="translate(-87.059 -214.467)"/></g><g class="j" transform="translate(3.062 1.601)"><path d="M90.2,217.014c-.09.026-.294-.506-.745-1.013s-.942-.789-.9-.875.645.085,1.146.663S90.287,217,90.2,217.014Z" transform="translate(-88.551 -215.107)"/></g><g class="j" transform="translate(3.101 2.353)"><path d="M89.585,216.157c.039.088-.266.269-.484.586s-.36.666-.452.634c-.074-.021-.082-.4.191-.819C89.139,216.14,89.565,216.08,89.585,216.157Z" transform="translate(-88.604 -216.128)"/></g></g><g transform="translate(6.479 33.428)"><path class="m" d="M90.087,272.857l-3.746-27.014h16.117l-3.29,27.014Z" transform="translate(-86.341 -245.843)"/></g></g><g transform="translate(7.944 43.857)"><path class="h" d="M101.821,260.154c0,.075-3.02.135-6.744.135s-6.745-.06-6.745-.135,3.019-.135,6.745-.135S101.821,260.08,101.821,260.154Z" transform="translate(-88.332 -260.019)"/></g><g transform="translate(8.186 45.594)"><path class="h" d="M101.573,262.516c0,.074-2.89.135-6.456.135s-6.456-.061-6.456-.135,2.89-.135,6.456-.135S101.573,262.441,101.573,262.516Z" transform="translate(-88.66 -262.381)"/></g><g transform="translate(8.416 47.256)"><path class="h" d="M101.453,264.775c0,.074-2.794.135-6.24.135s-6.24-.061-6.24-.135,2.793-.135,6.24-.135S101.453,264.7,101.453,264.775Z" transform="translate(-88.973 -264.64)"/></g><g transform="translate(8.666 49.062)"><path class="h" d="M101.323,267.229c0,.074-2.689.135-6,.135s-6.005-.061-6.005-.135,2.688-.135,6.005-.135S101.323,267.154,101.323,267.229Z" transform="translate(-89.313 -267.094)"/></g><g transform="translate(9.015 50.712)"><path class="h" d="M101.248,269.472c0,.075-2.565.135-5.729.135s-5.73-.06-5.73-.135,2.565-.135,5.73-.135S101.248,269.4,101.248,269.472Z" transform="translate(-89.788 -269.337)"/></g><g transform="translate(9.124 52.361)"><path class="h" d="M100.966,271.714c0,.075-2.47.135-5.515.135s-5.515-.06-5.515-.135,2.469-.135,5.515-.135S100.966,271.64,100.966,271.714Z" transform="translate(-89.935 -271.579)"/></g><g transform="translate(9.352 54.011)"><path class="h" d="M100.967,273.957a53.357,53.357,0,0,1-5.36.135,53.354,53.354,0,0,1-5.361-.135,53.088,53.088,0,0,1,5.361-.135A53.09,53.09,0,0,1,100.967,273.957Z" transform="translate(-90.246 -273.822)"/></g><g transform="translate(9.581 55.662)"><path class="h" d="M100.848,276.2a49.3,49.3,0,0,1-5.145.135,49.313,49.313,0,0,1-5.146-.135,48.914,48.914,0,0,1,5.146-.135A48.9,48.9,0,0,1,100.848,276.2Z" transform="translate(-90.557 -276.065)"/></g></g><g transform="translate(203.82 136.862)"><g transform="translate(0 0)"><g transform="translate(0.154 0.154)"><rect class="h" width="55.226" height="49.409"/></g><path class="f" d="M316.081,199.238s-.01-.317-.015-.918-.008-1.493-.015-2.648c-.008-2.32-.02-5.711-.035-10.03-.015-8.632-.039-20.968-.067-35.813l.131.131-55.222.024h0l.154-.154c-.007,17.976-.013,34.89-.018,49.409l-.135-.136,39.942.069,11.267.035,2.982.016.77.007c.174,0,.266.008.266.008s-.082.005-.25.007l-.755.008-2.957.015-11.236.036-40.028.068h-.136v-.135c-.005-14.519-.012-31.433-.018-49.409v-.154h.159l55.222.024h.131v.13c-.027,14.88-.051,27.243-.067,35.9-.015,4.306-.026,7.687-.034,10-.007,1.143-.012,2.022-.015,2.623S316.081,199.238,316.081,199.238Z" transform="translate(-260.7 -149.675)"/><g transform="translate(0.007 0.007)"><path class="f" d="M316.083,199.24s-.01-.317-.014-.917-.008-1.493-.015-2.647c-.007-2.32-.018-5.71-.032-10.03-.015-8.633-.038-20.968-.064-35.815l.125.126-55.222.022h0l.147-.148c-.007,17.976-.013,34.89-.018,49.409l-.129-.13,39.943.065,11.266.035,2.982.015.769.007c.174,0,.266.007.266.007s-.082,0-.251.007l-.755.007-2.957.015-11.237.034-40.027.065h-.13v-.13c-.005-14.519-.011-31.433-.018-49.409v-.147h.152l55.222.022h.125v.125c-.026,14.879-.049,27.242-.064,35.895-.015,4.307-.025,7.688-.033,10-.006,1.145-.011,2.023-.014,2.623S316.083,199.24,316.083,199.24Z" transform="translate(-260.709 -149.684)"/></g></g><g transform="translate(8.346 8.786)"><path class="f" d="M285.028,161.764c0,.082-2.907.148-6.492.148s-6.492-.066-6.492-.148,2.906-.147,6.492-.147S285.028,161.683,285.028,161.764Z" transform="translate(-272.044 -161.617)"/></g><g transform="translate(9.059 12.495)"><path class="f" d="M308.685,166.807c0,.082-7.986.148-17.834.148s-17.837-.066-17.837-.148,7.984-.148,17.837-.148S308.685,166.725,308.685,166.807Z" transform="translate(-273.014 -166.659)"/></g><g transform="translate(8.441 18.927)"><rect class="f" width="2.327" height="2.327"/></g><g transform="translate(14.168 18.927)"><rect class="f" width="2.327" height="2.327"/></g><g transform="translate(20.001 18.821)"><rect class="g" width="2.327" height="2.327"/></g><g transform="translate(25.622 18.927)"><rect class="f" width="2.327" height="2.327"/></g><g transform="translate(31.35 18.927)"><rect class="f" width="2.327" height="2.327"/></g><g transform="translate(37.077 18.927)"><rect class="f" width="2.327" height="2.327"/></g><g transform="translate(42.804 18.927)"><rect class="f" width="2.327" height="2.327"/></g><g transform="translate(8.441 23.873)"><rect class="f" width="2.327" height="2.327"/></g><g transform="translate(14.168 23.873)"><rect class="f" width="2.327" height="2.327"/></g><g transform="translate(19.895 23.873)"><rect class="f" width="2.327" height="2.327"/></g><g transform="translate(25.622 23.873)"><rect class="f" width="2.327" height="2.327"/></g><g transform="translate(31.35 23.873)"><rect class="f" width="2.327" height="2.327"/></g><g transform="translate(37.182 23.768)"><rect class="g" width="2.327" height="2.327"/></g><g transform="translate(42.804 23.873)"><rect class="f" width="2.327" height="2.327"/></g><g transform="translate(8.441 28.82)"><rect class="f" width="2.327" height="2.327"/></g><g transform="translate(14.274 28.714)"><rect class="g" width="2.327" height="2.327"/></g><g transform="translate(19.895 28.82)"><rect class="f" width="2.327" height="2.327"/></g><g transform="translate(25.622 28.82)"><rect class="f" width="2.327" height="2.327"/></g><g transform="translate(31.35 28.82)"><rect class="f" width="2.327" height="2.327"/></g><g transform="translate(37.077 28.82)"><rect class="f" width="2.327" height="2.327"/></g><g transform="translate(42.804 28.82)"><rect class="f" width="2.327" height="2.327"/></g><g transform="translate(8.441 33.766)"><rect class="f" width="2.327" height="2.327"/></g><g transform="translate(14.168 33.766)"><rect class="f" width="2.327" height="2.327"/></g><g transform="translate(19.895 33.766)"><rect class="f" width="2.327" height="2.327"/></g><g transform="translate(25.728 33.66)"><rect class="g" width="2.327" height="2.327"/></g><g transform="translate(31.35 33.766)"><rect class="f" width="2.327" height="2.327"/></g><g transform="translate(37.077 33.766)"><rect class="f" width="2.327" height="2.327"/></g><g transform="translate(42.804 33.766)"><rect class="f" width="2.327" height="2.327"/></g><g transform="translate(8.441 38.712)"><rect class="f" width="2.327" height="2.327"/></g><g transform="translate(14.168 38.712)"><rect class="f" width="2.327" height="2.327"/></g><g transform="translate(19.895 38.712)"><rect class="f" width="2.327" height="2.327"/></g><g transform="translate(25.622 38.712)"><rect class="f" width="2.327" height="2.327"/></g><g transform="translate(31.35 38.712)"><rect class="f" width="2.327" height="2.327"/></g><g transform="translate(37.182 38.607)"><rect class="g" width="2.327" height="2.327"/></g><g transform="translate(42.804 38.712)"><rect class="f" width="2.327" height="2.327"/></g></g><g transform="translate(124.879 112.264)"><g transform="translate(14.041 119.894)"><path class="o" d="M172.484,282.381c.285,3.7,6.013,41.535,6.013,41.535L176.59,338.5l2.242,33.443,11.256-1.15,4.2-46.71,3.9-44.871Z" transform="translate(-172.484 -279.21)"/></g><g transform="translate(20.289 209.026)"><path class="f" d="M192.873,400.365h0s12.851,4.822,12.988,7.2l-24.877-.1-.007-6.5.913.213A18.479,18.479,0,0,0,192.873,400.365Z" transform="translate(-180.976 -400.365)"/><g transform="translate(0.035 6.376)"><path class="m" d="M205.428,409.167c0,.075-5.464.135-12.2.135s-12.2-.06-12.2-.135,5.462-.135,12.2-.135S205.428,409.092,205.428,409.167Z" transform="translate(-181.023 -409.032)"/></g></g><g transform="translate(6.743 119.894)"><path class="o" d="M162.563,281.624c.285,3.7,4.3,14.608,4.3,14.608l1.763,46.829.285,28.123,11.256-1.15,2.547-38.24,1.652-52.584Z" transform="translate(-162.563 -279.21)"/></g><g transform="translate(24.491 139.951)"><path class="p" d="M190.843,306.472a.853.853,0,0,1,0,.182c-.006.133-.013.308-.023.53-.027.482-.066,1.165-.115,2.037-.113,1.785-.274,4.341-.473,7.491-.39,6.325-1.067,15.055-1.526,24.714-.534,9.651-1.017,18.386-1.369,24.728-.188,3.15-.339,5.706-.446,7.491-.057.871-.1,1.554-.135,2.036l-.042.529a.915.915,0,0,1-.024.18.865.865,0,0,1,0-.181l.015-.53c.02-.483.048-1.167.084-2.039.086-1.787.209-4.343.36-7.5.33-6.343.786-15.081,1.29-24.734.459-9.659,1.166-18.388,1.605-24.71.235-3.148.425-5.7.558-7.485.071-.87.126-1.553.166-2.035l.049-.528A.963.963,0,0,1,190.843,306.472Z" transform="translate(-186.688 -306.472)"/></g><g transform="translate(32.234 43.687)"><path class="k" d="M201.625,175.622l4.8,9.3,6.983,13.528,6.581-3.032.781-1.848c2.689,6.147,10.55,9.823,4.68,13.074l-20.233,9.467-8.006-14.324Z" transform="translate(-197.213 -175.622)"/></g><g transform="translate(2.809 11.011)"><path class="f" d="M162.673,131.206a4.4,4.4,0,0,0-.445,3.954c.276.72.746,1.522.376,2.2s-1.331.71-2.073.966a2.924,2.924,0,0,0-1.841,3.266,3.574,3.574,0,0,1,.232,1.438,3.138,3.138,0,0,1-.861,1.243,3.638,3.638,0,0,0,2.134,5.921,4.69,4.69,0,0,1,1.674.382c.564.347.81,1.024,1.207,1.553a3.055,3.055,0,0,0,5.5-1.816" transform="translate(-157.216 -131.206)"/></g><g transform="translate(12.363)"><path class="f" d="M175.623,123.095a3.339,3.339,0,0,1-.939-4.243,5.187,5.187,0,0,1,3.84-2.526,7.317,7.317,0,0,1,6.3,2.089c.867.892,1.568,2.056,2.743,2.465,1.033.36,2.175.035,3.259.176a4.917,4.917,0,0,1,3.444,2.483,10.619,10.619,0,0,1,1.225,4.189c.157,1.335.262,2.8,1.189,3.776.9.951,2.331,1.152,3.455,1.828a4.729,4.729,0,0,1,1.4,6.459c-.445.649-1.084,1.244-1.135,2.029a5.862,5.862,0,0,0,.633,2.04,3.192,3.192,0,0,1-2.731,3.963c-.932.054-1.931-.31-2.766.107s-1.14,1.415-1.67,2.175a3.992,3.992,0,0,1-4.867,1.257c-.686-.336-1.333-.891-2.1-.84s-1.359.7-2.107.845a2.7,2.7,0,0,1-2.492-1.342,13.614,13.614,0,0,0-1.733-2.427c-.976-.868-2.348-1.083-3.583-1.508a10.1,10.1,0,0,1-5.706-14.155" transform="translate(-170.202 -116.239)"/><g transform="translate(0.58 5.936)"><path class="o" d="M172.988,127.361a2.239,2.239,0,0,0-2,2.275h0l1.335,30.225c.056,3.57,5.274,5.576,9.1,5.487h0c3.86-.09,3.984-1.983,4.032-5.379.081-5.674.074-7.8.077-7.772,0,0,4.875-.82,5.871-7.186a67.95,67.95,0,0,0,.049-12.594c-.249-3.817-2.789-8.5-6.592-8.084Z" transform="translate(-170.99 -124.308)"/><g transform="translate(16.115 9.957)"><g transform="translate(0.811 1.053)"><path class="f" d="M195.627,140.009a.816.816,0,0,1-.785.825A.78.78,0,0,1,194,140.1a.817.817,0,0,1,.784-.826A.782.782,0,0,1,195.627,140.009Z" transform="translate(-193.998 -139.273)"/></g><path class="f" d="M196.121,138.7c-.1.107-.72-.349-1.6-.345s-1.521.444-1.616.337c-.046-.047.056-.24.336-.444a2.239,2.239,0,0,1,1.293-.4,2.145,2.145,0,0,1,1.273.408C196.079,138.456,196.171,138.648,196.121,138.7Z" transform="translate(-192.895 -137.842)"/></g><g transform="translate(7.483 10.139)"><g transform="translate(0.802 0.87)"><path class="f" d="M183.881,140.009a.816.816,0,0,1-.785.825.78.78,0,0,1-.843-.733.817.817,0,0,1,.784-.826A.781.781,0,0,1,183.881,140.009Z" transform="translate(-182.252 -139.273)"/></g><path class="f" d="M184.388,138.945c-.1.107-.721-.349-1.6-.346s-1.521.445-1.616.338c-.046-.047.055-.24.336-.444a2.239,2.239,0,0,1,1.293-.4,2.15,2.15,0,0,1,1.273.408C184.345,138.7,184.437,138.9,184.388,138.945Z" transform="translate(-181.162 -138.09)"/></g><g transform="translate(13.483 10.183)"><path class="f" d="M189.745,145.465a5.875,5.875,0,0,1,1.426-.26c.224-.024.436-.068.474-.221a1.14,1.14,0,0,0-.152-.664q-.318-.813-.667-1.706a29.389,29.389,0,0,1-1.5-4.463,29.491,29.491,0,0,1,1.855,4.332q.334.9.639,1.716a1.3,1.3,0,0,1,.118.879.563.563,0,0,1-.369.329,1.505,1.505,0,0,1-.38.054A5.693,5.693,0,0,1,189.745,145.465Z" transform="translate(-189.318 -138.149)"/></g><g transform="translate(6.013 25.636)"><path class="p" d="M187.691,161.408a16.191,16.191,0,0,1-8.527-2.254s2.16,4.486,8.527,3.876Z" transform="translate(-179.164 -159.154)"/></g><g transform="translate(10.926 19.023)"><path class="p" d="M188.459,150.759a1.582,1.582,0,0,0-1.419-.584,1.447,1.447,0,0,0-1,.537.915.915,0,0,0-.067,1.047,1.06,1.06,0,0,0,1.151.288,3.317,3.317,0,0,0,1.121-.672.953.953,0,0,0,.25-.26.294.294,0,0,0,0-.327" transform="translate(-185.841 -150.165)"/></g><g transform="translate(11.186 18.113)"><path class="f" d="M186.337,148.928c.143-.009.146.945.964,1.619s1.832.568,1.84.7c.013.06-.226.185-.655.2a2.373,2.373,0,0,1-1.535-.531,2.064,2.064,0,0,1-.747-1.358C186.166,149.159,186.272,148.923,186.337,148.928Z" transform="translate(-186.195 -148.928)"/></g><g transform="translate(7.094 8.801)"><path class="f" d="M184.64,136.925c-.086.239-.964.128-1.994.255-1.032.106-1.863.409-2,.2-.061-.1.083-.327.419-.559a3.487,3.487,0,0,1,3.042-.343C184.486,136.625,184.677,136.812,184.64,136.925Z" transform="translate(-180.633 -136.271)"/></g><g transform="translate(16.022 8.305)"><path class="f" d="M195.759,136.5c-.154.2-.76-.006-1.488-.014-.727-.034-1.343.137-1.485-.071-.063-.1.035-.3.3-.491a2.154,2.154,0,0,1,2.4.068C195.742,136.2,195.827,136.4,195.759,136.5Z" transform="translate(-192.768 -135.596)"/></g></g><g transform="translate(5.643 3.631)"><path class="f" d="M178.3,123.029a4.353,4.353,0,0,0,5.137,4.3c.972-.177,2.037-.669,2.879-.151.885.544.922,1.879,1.707,2.56,1.122.974,2.905.06,4.329.483,1.1.326,1.787,1.377,2.518,2.262s1.825,1.725,2.924,1.4a12.893,12.893,0,0,0-.436-2.934,4.343,4.343,0,0,0-1.666-2.391,16.024,16.024,0,0,1-1.406-.818c-.913-.737-1.125-2.019-1.688-3.049a4.771,4.771,0,0,0-3.635-2.411c-1.251-.128-2.542.247-3.762-.06-.9-.227-1.69-.813-2.6-.987-1.78-.338-3.434.939-4.724,2.21" transform="translate(-177.873 -121.175)"/></g></g><g transform="translate(12.002 33.67)"><path class="f" d="M171.027,162.007l14.3,1.835-.138,4.944,14.769,18.49-4.214,25.236L183.9,208.171l-14.184-24.238.361-18.7Z" transform="translate(-169.712 -162.007)"/></g><g transform="translate(2.876 99.664)"><path class="k" d="M157.307,261.8l6.967,50.129s14.314,4.026,27.49-1.793l5.427-48.467-14.414-9.962Z" transform="translate(-157.307 -251.711)"/></g><g transform="translate(1.261 36.242)"><path class="k" d="M165.983,165.5l-2.447,4.043s-6.809,2.872-8.3,6.383S165.983,213.8,165.983,213.8s-9.362,11.277-9.256,25.214c0,0,18.619,5.958,36.173,2.021l-2.873-39.576s-.425-9.15-3.191-12.66S165.983,165.5,165.983,165.5Z" transform="translate(-155.112 -165.502)"/></g><g transform="translate(27.483 37.697)"><path class="k" d="M190.832,167.48l-.077,2.752s9.908,15.959,10.555,19.23c1.583,8.015-1.16,21.261-1.16,21.261l1.16,30.905,5.67-1.965-3.468-30.8,1.287-7.027s2.619-11.535,1.279-14.216c-.994-1.989-3.773-9.938-6.159-14.146a5.273,5.273,0,0,0-4.149-2.654l-2.2-.185Z" transform="translate(-190.755 -167.48)"/></g><g transform="translate(9.888 39.776)"><path class="f" d="M193.017,200.382a2.707,2.707,0,0,1-.127-.411c-.069-.272-.181-.671-.342-1.179a23.016,23.016,0,0,0-1.762-4.14,22.655,22.655,0,0,0-3.994-5.318,77.569,77.569,0,0,0-6.419-5.094l-.034-.027-.012-.04-.005-.018-1.111-3.828.151.093-2.817.5-.068.012-.047-.049c-1.435-1.507-2.775-2.9-3.928-4.194l-3-3.38-1.969-2.2-.526-.587a1.32,1.32,0,0,1-.171-.213,1.285,1.285,0,0,1,.2.182l.556.559c.48.493,1.171,1.223,2.025,2.156l3.041,3.341c1.162,1.277,2.509,2.662,3.951,4.163l-.115-.038,2.815-.51.118-.021.033.115,1.115,3.827.005.018-.046-.068a73.916,73.916,0,0,1,6.426,5.128,22.36,22.36,0,0,1,3.987,5.4,21.4,21.4,0,0,1,1.694,4.2c.146.515.242.919.294,1.2A2.409,2.409,0,0,1,193.017,200.382Z" transform="translate(-166.839 -170.306)"/></g><g transform="translate(30.303 40.831)"><path class="f" d="M202.657,200.761a1.629,1.629,0,0,1,.041-.346c.043-.252.1-.578.168-.981.153-.884.366-2.108.626-3.606.25-1.524.546-3.341.756-5.368.053-.506.1-1.027.122-1.557a8.169,8.169,0,0,0-.037-1.613c-.138-1.094-.362-2.224-.6-3.376-.291-1.384-.6-2.724-.9-4l.091.094-3.021-.884-.115-.034.032-.116.477-1.76.035.116c-1.846-1.56-3.218-3.024-4.215-4.008l-1.138-1.158a3.594,3.594,0,0,1-.385-.426,3.543,3.543,0,0,1,.434.376l1.182,1.112c1.023.954,2.417,2.395,4.274,3.931l.054.045-.019.071q-.221.846-.461,1.765l-.085-.149,3.026.867.073.021.018.074c.313,1.275.622,2.616.914,4,.24,1.156.462,2.288.6,3.4a8.342,8.342,0,0,1,.031,1.656c-.029.537-.075,1.061-.132,1.57-.224,2.038-.541,3.853-.815,5.376s-.53,2.748-.711,3.593l-.218.972A1.772,1.772,0,0,1,202.657,200.761Z" transform="translate(-194.587 -171.74)"/></g><g transform="translate(36.44 74.306)"><path class="f" d="M204.528,254.782c-.075,0-.491-8.4-.928-18.763s-.733-18.773-.658-18.777.49,8.4.928,18.765S204.6,254.779,204.528,254.782Z" transform="translate(-202.93 -217.242)"/></g><g transform="translate(2.694 109.625)"><path class="f" d="M198.074,265.506a2.46,2.46,0,0,1-.391.17l-1.14.437c-.494.191-1.1.419-1.826.63s-1.532.505-2.457.718l-1.444.366c-.5.13-1.034.214-1.58.329-1.091.241-2.273.4-3.516.578a58.944,58.944,0,0,1-8.148.419,65.632,65.632,0,0,1-8.127-.738c-1.237-.207-2.414-.4-3.5-.649-1.1-.215-2.1-.475-3.021-.706-.924-.216-1.741-.48-2.466-.684s-1.341-.406-1.843-.577l-1.156-.393a2.515,2.515,0,0,1-.4-.155,2.51,2.51,0,0,1,.413.1l1.17.345c.506.155,1.126.344,1.854.532s1.546.439,2.47.644,1.926.468,3.019.672c1.087.237,2.261.422,3.494.622a68.206,68.206,0,0,0,8.1.714,61.115,61.115,0,0,0,8.112-.4c1.237-.172,2.415-.321,3.5-.551.544-.11,1.076-.188,1.577-.313l1.443-.347c.925-.2,1.735-.476,2.459-.677s1.337-.41,1.836-.586l1.156-.389A2.511,2.511,0,0,1,198.074,265.506Z" transform="translate(-157.06 -265.25)"/></g><g transform="translate(0 45.273)"><path class="k" d="M154.785,179.173s-3.742,6.409,1.066,14.976,18.724,28,18.724,28a19.5,19.5,0,0,0,5.567,1.35c2.339.141,13.659-6.1,17.3-8.141l.732-2.307-2.206-4.02-2.333-4.251-12.973,3.779-13.849-27.485S162.659,175.163,154.785,179.173Z" transform="translate(-153.398 -177.778)"/><g transform="translate(6.743 7.715)"><path class="f" d="M162.563,203.89s.057.068.158.207l.442.623,1.678,2.409,6.134,8.893,4.226,6.151.575.836c.211.263.408.541.634.8a7.921,7.921,0,0,0,1.558,1.369,6.666,6.666,0,0,0,4.12,1.07,9.456,9.456,0,0,0,1.118-.132c.14-.041.33-.131.5-.2s.35-.154.525-.235c.7-.32,1.407-.659,2.118-1l4.346-2.125,9.108-4.541-.068.08.115-.36q.31-.979.618-1.947l.01.106-4.535-8.272.152.063-12.977,3.765-.094.027-.044-.087-8.41-16.738-2.343-4.7q-.394-.806-.609-1.245l-.152-.321a.573.573,0,0,1-.046-.112.538.538,0,0,1,.063.1l.168.313.642,1.229c.56,1.09,1.371,2.671,2.4,4.675l8.5,16.695-.138-.06,12.969-3.792.1-.029.051.093,4.541,8.268.028.051-.018.055-.618,1.947-.114.36-.018.054-.051.026-9.113,4.537-4.351,2.119c-.714.341-1.419.679-2.125,1-.175.082-.352.161-.53.236a4.436,4.436,0,0,1-.566.22,9.53,9.53,0,0,1-1.14.132,6.9,6.9,0,0,1-4.264-1.119,8.129,8.129,0,0,1-1.6-1.416c-.23-.264-.432-.549-.646-.82l-.572-.839-4.2-6.172-6.064-8.942-1.636-2.438-.42-.638C162.6,203.968,162.563,203.89,162.563,203.89Z" transform="translate(-162.563 -188.265)"/></g><g transform="translate(25.216 30.782)"><path class="f" d="M187.68,225.662c-.072-.035.522-1.335,1.082-3s.884-3.057.962-3.041a15.381,15.381,0,0,1-2.044,6.042Z" transform="translate(-187.674 -219.62)"/></g></g><g transform="translate(12 84.174)"><path class="f" d="M175.506,236.168a3.664,3.664,0,0,1-1.039-.569,15.556,15.556,0,0,1-2.186-1.839,23.948,23.948,0,0,1-1.9-2.131,4.663,4.663,0,0,1-.674-.972c.067-.054,1.2,1.348,2.76,2.91a23.639,23.639,0,0,0,2.108,1.877A8.555,8.555,0,0,1,175.506,236.168Z" transform="translate(-169.709 -230.656)"/></g><g transform="translate(7.631 4.137)"><path class="f" d="M171.223,137a.71.71,0,0,0,.27,1.348c2.138.483,2.42-3.692,1.943-4.886a12.448,12.448,0,0,0,2.145-2.256,8.965,8.965,0,0,0,.984-4.322c.771.045,4.054-1.039,3.7-1.139-.8-.229-2.43-.745-2.857-1.437a4.877,4.877,0,0,0-4.242-2.438,4.025,4.025,0,0,0-3.623,3.181,5.788,5.788,0,0,0-4.974,3.2,6.709,6.709,0,0,0,.18,6.239,3.276,3.276,0,0,1,.65,1.538,3.626,3.626,0,0,1-.884,1.855,6.032,6.032,0,0,0-.153,5.529c.78,1.739,1.329,2.35,2.438,2.7,2.17.681-.347,5.152,3.264,5.152" transform="translate(-163.771 -121.863)"/></g><g transform="translate(11.373 19.212)"><path class="o" d="M172.656,144.164a1.856,1.856,0,0,0-2.716-1.579,2.543,2.543,0,0,0-1.078,2.559c.157,3.833,3.973,2.884,3.976,2.774C172.839,147.849,172.735,145.749,172.656,144.164Z" transform="translate(-168.857 -142.354)"/><g transform="translate(0.978 1.156)"><path class="p" d="M171.958,146.928c-.017-.011-.065.05-.176.106a.663.663,0,0,1-.5.031,1.653,1.653,0,0,1-.826-1.451,2.213,2.213,0,0,1,.148-.964.772.772,0,0,1,.481-.533.341.341,0,0,1,.4.167c.056.105.035.182.055.188s.079-.068.042-.224a.423.423,0,0,0-.16-.234.5.5,0,0,0-.373-.082.938.938,0,0,0-.673.622,2.268,2.268,0,0,0-.188,1.079,1.733,1.733,0,0,0,1.042,1.615.714.714,0,0,0,.607-.127C171.955,147.022,171.972,146.935,171.958,146.928Z" transform="translate(-170.186 -143.925)"/></g></g><g transform="translate(18.615 2.08)"><path class="m" d="M203.555,140.477c-.013-.01.087-.119.217-.362a2.874,2.874,0,0,0,.342-1.14,2.934,2.934,0,0,0-.408-1.8,3.8,3.8,0,0,0-1.991-1.424,11.187,11.187,0,0,1-2.84-1.256,4.792,4.792,0,0,1-1.656-3.135c-.207-1.256-.1-2.579-.2-3.918a7.09,7.09,0,0,0-.406-1.986,3.975,3.975,0,0,0-1.141-1.689,3.641,3.641,0,0,0-1.88-.767,7.175,7.175,0,0,0-2.025.063,13.836,13.836,0,0,1-2,.276,2.478,2.478,0,0,1-1.847-.655,7.326,7.326,0,0,1-1.042-1.529,3.564,3.564,0,0,0-1.117-1.22,4.138,4.138,0,0,0-2.877-.622,4.351,4.351,0,0,0-2.222,1.063,5.553,5.553,0,0,0-1.17,1.485,8.209,8.209,0,0,0-.591,1.516c-.005,0,0-.038.01-.108s.026-.177.063-.311a5.246,5.246,0,0,1,.424-1.145,5.511,5.511,0,0,1,1.163-1.549,4.476,4.476,0,0,1,2.294-1.14,4.319,4.319,0,0,1,3.03.624,3.784,3.784,0,0,1,1.2,1.284,7.225,7.225,0,0,0,1.011,1.472,2.223,2.223,0,0,0,1.671.577,13.761,13.761,0,0,0,1.959-.278,7.364,7.364,0,0,1,2.1-.068,3.9,3.9,0,0,1,2.017.825,4.239,4.239,0,0,1,1.221,1.8,7.335,7.335,0,0,1,.418,2.06c.1,1.368-.011,2.682.184,3.9a4.576,4.576,0,0,0,1.546,3,11.246,11.246,0,0,0,2.773,1.256,3.925,3.925,0,0,1,2.05,1.523,3.011,3.011,0,0,1,.383,1.893,2.76,2.76,0,0,1-.4,1.156A1.428,1.428,0,0,1,203.555,140.477Z" transform="translate(-178.701 -119.067)"/></g><g transform="translate(33.429 13.726)"><path class="m" d="M198.894,134.9c.026,0,0,.312.054.864a6.07,6.07,0,0,0,.675,2.223,5.765,5.765,0,0,0,.934,1.3,7.538,7.538,0,0,0,1.453,1.141,4.583,4.583,0,0,1,.8.661,2.206,2.206,0,0,1,.535.974,7.353,7.353,0,0,1,.007,2.258,2.668,2.668,0,0,0,.48,2.012,4.95,4.95,0,0,0,1.669,1.109,6.273,6.273,0,0,1,1.619,1,2.514,2.514,0,0,1,.518.719,2.484,2.484,0,0,1,.2.789,2.765,2.765,0,0,1-.808,2.215,2.132,2.132,0,0,1-.541.366.7.7,0,0,1-.215.073,3.966,3.966,0,0,0,.682-.514,2.706,2.706,0,0,0,.692-2.12,2.146,2.146,0,0,0-.684-1.365,6.205,6.205,0,0,0-1.574-.943,5.1,5.1,0,0,1-1.763-1.163,2.267,2.267,0,0,1-.5-1.038,4.452,4.452,0,0,1-.051-1.161,7.337,7.337,0,0,0,.007-2.175,2.622,2.622,0,0,0-1.226-1.5,7.612,7.612,0,0,1-1.475-1.193,5.924,5.924,0,0,1-1.55-3.67,4.16,4.16,0,0,1,.013-.648A.711.711,0,0,1,198.894,134.9Z" transform="translate(-198.837 -134.897)"/></g><g transform="translate(4.184 6.116)"><path class="m" d="M161.16,148.216a.449.449,0,0,1-.139-.044,2.3,2.3,0,0,1-.381-.192,3.232,3.232,0,0,1-1.119-1.168,3.15,3.15,0,0,1-.306-2.481,3.4,3.4,0,0,1,2.292-2.275l-.06.18a5.216,5.216,0,0,1-1.017-1.92,2.749,2.749,0,0,1,.381-2.315,2.064,2.064,0,0,1,1.01-.778,3.024,3.024,0,0,1,1.293-.065,4.847,4.847,0,0,0,1.236.051,1.245,1.245,0,0,0,.929-.656,2.415,2.415,0,0,0,.12-1.752c-.149-.59-.4-1.156-.541-1.76a5.146,5.146,0,0,1,.436-3.447,4.925,4.925,0,0,1,2.209-2.179,5.076,5.076,0,0,1,2.589-.529l-.1.081a2.7,2.7,0,0,1,.926-1.688,2.977,2.977,0,0,1,1.285-.66,2.517,2.517,0,0,1,.9-.04,1.228,1.228,0,0,1,.3.08,3.107,3.107,0,0,0-1.183.055,2.942,2.942,0,0,0-1.214.67,2.567,2.567,0,0,0-.841,1.6l-.01.086-.086-.005a4.934,4.934,0,0,0-2.479.543,4.724,4.724,0,0,0-2.088,2.094,4.919,4.919,0,0,0-.4,3.277c.131.572.385,1.134.544,1.755a2.669,2.669,0,0,1-.143,1.948,1.518,1.518,0,0,1-1.123.792,4.989,4.989,0,0,1-1.309-.051,2.792,2.792,0,0,0-1.18.05,1.807,1.807,0,0,0-.884.678,2.5,2.5,0,0,0-.353,2.1,5.023,5.023,0,0,0,.957,1.839l.1.135-.165.045a3.218,3.218,0,0,0-2.175,2.111,3.035,3.035,0,0,0,.245,2.364,3.329,3.329,0,0,0,1.042,1.173C160.981,148.128,161.168,148.2,161.16,148.216Z" transform="translate(-159.085 -124.553)"/></g><g transform="translate(9.72 6.981)"><path class="m" d="M175.741,125.73a2.282,2.282,0,0,0-.765.64,3.534,3.534,0,0,0-.282,2.651l.021.1-.094.024a3.706,3.706,0,0,0-2.47,2.175,2.891,2.891,0,0,0-.2.935,5.722,5.722,0,0,0,.12,1.013,7.568,7.568,0,0,1,.146,1.09,1.8,1.8,0,0,1-.3,1.131,4.647,4.647,0,0,1-1.9,1.429,6.441,6.441,0,0,0-1.78,1.165,4.791,4.791,0,0,0-1.432,3.212,5,5,0,0,0,.505,2.369c.255.523.468.772.447.789s-.063-.054-.164-.172a4.122,4.122,0,0,1-.376-.568,4.861,4.861,0,0,1-.6-2.423,4.932,4.932,0,0,1,1.447-3.383,6.6,6.6,0,0,1,1.835-1.225,4.462,4.462,0,0,0,1.8-1.34,2.646,2.646,0,0,0,.124-2.029,5.759,5.759,0,0,1-.118-1.064,3.1,3.1,0,0,1,.224-1.023,3.884,3.884,0,0,1,2.656-2.278l-.074.12a3.562,3.562,0,0,1,.387-2.762,1.614,1.614,0,0,1,.6-.488A.915.915,0,0,1,175.741,125.73Z" transform="translate(-166.61 -125.729)"/></g><g transform="translate(40.613 54.814)"><path class="f" d="M210.379,190.747a3.556,3.556,0,0,1,.294.654c.083.215.2.474.3.786l.328,1.067c.1.4.193.846.3,1.322.052.485.167,1,.175,1.548a13.478,13.478,0,0,1-.232,3.555,37.591,37.591,0,0,1-1.966,6.139l-.692,1.822a3.639,3.639,0,0,1-.279.66,3.647,3.647,0,0,1,.18-.694c.129-.444.341-1.076.611-1.854a44.663,44.663,0,0,0,1.88-6.124,13.921,13.921,0,0,0,.249-3.491c0-.541-.106-1.047-.148-1.525-.091-.472-.172-.912-.26-1.312l-.287-1.069c-.088-.313-.189-.576-.256-.8A3.739,3.739,0,0,1,210.379,190.747Z" transform="translate(-208.602 -190.747)"/></g><g class="j" transform="translate(11.35 75.374)"><path d="M168.825,218.694c.653,2.472,2.353,5.625,3.55,8.4a25.324,25.324,0,0,0,4.861,7.552c2.089,2.186,5.111,3.689,8.1,3.245a14.53,14.53,0,0,0,5.785-2.768l5.245-3.553a6.236,6.236,0,0,0,1.7-1.477,2.118,2.118,0,0,0,.271-2.133l-7.761,3.776a22.549,22.549,0,0,1-5.67,2.152,7.6,7.6,0,0,1-5.824-1.047,11.278,11.278,0,0,1-2.486-2.86l-7.768-11.288" transform="translate(-168.825 -218.694)"/></g><g transform="translate(5.033 44.784)"><path class="f" d="M169.064,182.858c-.041.025-.354-.5-.977-1.257a12.531,12.531,0,0,0-6.3-4.093c-.943-.262-1.552-.334-1.546-.382a1.326,1.326,0,0,1,.432.007,7.79,7.79,0,0,1,1.161.189,11.287,11.287,0,0,1,6.406,4.16,7.893,7.893,0,0,1,.645.984A1.316,1.316,0,0,1,169.064,182.858Z" transform="translate(-160.239 -177.114)"/></g><g class="j" transform="translate(2.972 109.719)"><path d="M157.438,265.378a37.863,37.863,0,0,0,18.971,7.085c6.924.552,13.141-1.9,19.376-4.958V266.33a56.57,56.57,0,0,1-20.327,2.453A74.9,74.9,0,0,1,157.438,265.378Z" transform="translate(-157.438 -265.378)"/></g><g transform="translate(40.326 45.004)"><g transform="translate(17.915 15.903)"><path class="o" d="M232.564,211.122s4.868-1.463,8.024-12.092l-6.155,7.313Z" transform="translate(-232.564 -199.03)"/></g><g transform="translate(4.285)"><path class="a" d="M214.037,213.1s10.376-27.287,10.641-27.332,12.769-8.358,12.769-8.358l1.485.338-12.5,9.138-11.065,26.891Z" transform="translate(-214.037 -177.413)"/></g><g transform="translate(5.259 0.338)"><path class="f" d="M215.36,214.707l11.424-27.7,12.5-9.138c.185,0-11.422,28.039-11.422,28.039Z" transform="translate(-215.36 -177.872)"/></g><g transform="translate(0 15.903)"><path class="o" d="M212.364,208.354s1.665-3.792,2.541-4.332a11.152,11.152,0,0,0,3.72-3.64c.449-.969,1.191-.647,1.191-.647l-1.364,3.811,7.567-4.516a2.52,2.52,0,0,1-.415,2.263c-.839,1.148-.561,1.042-.561,1.042s.91.547.453,1.359a18.289,18.289,0,0,1-1.227,1.806,2.365,2.365,0,0,1,.5,1.98,4.142,4.142,0,0,1,.121,2c-.2,1.159-2.292,3.363-2.292,3.363l-10.456,4.98-3.929-7.305Z" transform="translate(-208.212 -199.03)"/><g transform="translate(8.275 2.995)"><path class="p" d="M223.967,203.105a13.3,13.3,0,0,1-2.184,1.5,13.442,13.442,0,0,1-2.323,1.279,26.564,26.564,0,0,1,4.506-2.782Z" transform="translate(-219.46 -203.101)"/></g><g transform="translate(12.879 2.867)"><path class="p" d="M229.81,202.929a31.212,31.212,0,0,1-4.089,4.026,31.09,31.09,0,0,1,4.089-4.026Z" transform="translate(-225.719 -202.927)"/></g><g transform="translate(14.373 6.091)"><path class="p" d="M229.787,207.312a9.316,9.316,0,0,1-2.033,2.387,9.387,9.387,0,0,1,2.033-2.387Z" transform="translate(-227.749 -207.309)"/></g><g transform="translate(15.507 8.262)"><path class="p" d="M230.385,210.266c.056.049-.175.4-.469.823s-.547.759-.613.724.091-.441.4-.875S230.332,210.218,230.385,210.266Z" transform="translate(-229.29 -210.261)"/></g></g><g transform="translate(18.281 7.084)"><path class="o" d="M234.406,203.838s3.887-3.038,4.42-4.4c.105-.269,2.489-4.073,2.5-5.565v-2.756l-.963-4.074c-1.328.158-1.566,1.093-1.482,2.275.036.515.436,2.379.436,2.379l-.413,2.175a8.842,8.842,0,0,0-.8-3.144c-.3-.509-.987-.2-1.264.07-.537.514-.242,1.145-.06,2.735a14.818,14.818,0,0,1,.214,3.563,7.98,7.98,0,0,0-.843-3.32c-.316-.549-.673-.859-1.053-.661-.4.212-.814.939-.467,2.083a12.742,12.742,0,0,1,.752,4.149,9.162,9.162,0,0,1-1.083-1.826.579.579,0,0,0-1.086,0c-.285.739-.159,1,.418,3.109C233.928,201.738,234.406,203.838,234.406,203.838Z" transform="translate(-233.06 -187.042)"/><g transform="translate(5.521 6.83)"><path class="p" d="M240.569,202.328a5.278,5.278,0,0,1,.433-.82,5.114,5.114,0,0,0,.39-.9,1.419,1.419,0,0,0,.063-.537c-.018-.2-.053-.408-.086-.621a24.883,24.883,0,0,1-.486-3.127,14.871,14.871,0,0,1,.752,3.083c.035.218.068.429.084.644a1.614,1.614,0,0,1-.09.632,4.26,4.26,0,0,1-.463.92A2.353,2.353,0,0,1,240.569,202.328Z" transform="translate(-240.566 -196.326)"/></g><g transform="translate(2.957 6.54)"><path class="p" d="M237.086,195.932a15.662,15.662,0,0,1,1.318,3.379,24.812,24.812,0,0,1,.639,2.487,2.785,2.785,0,0,1,.1,1.065,8.508,8.508,0,0,1-.283-1.022c-.168-.63-.421-1.5-.711-2.451C237.569,197.48,237.018,195.961,237.086,195.932Z" transform="translate(-237.08 -195.931)"/></g><g transform="translate(1.233 10.545)"><path class="p" d="M236.662,206.332c-.043-.005-.013-.308-.1-.777a5.989,5.989,0,0,0-.65-1.743c-.349-.648-.707-1.228-.914-1.677a1.827,1.827,0,0,1-.255-.759,3.4,3.4,0,0,1,.424.669c.245.418.624.974.984,1.64a4.816,4.816,0,0,1,.6,1.846A1.38,1.38,0,0,1,236.662,206.332Z" transform="translate(-234.737 -201.375)"/></g></g></g><g transform="translate(12.806 209.664)"><g transform="translate(0 0.003)"><path class="f" d="M182.531,401.236h0s12.666,4.753,12.8,7.1l-24.52-.1-.007-6.412.9.21A18.22,18.22,0,0,0,182.531,401.236Z" transform="translate(-170.804 -401.236)"/><g transform="translate(0.035 6.282)"><path class="m" d="M194.906,409.91c0,.075-5.385.135-12.027.135s-12.028-.06-12.028-.135,5.384-.135,12.028-.135S194.906,409.836,194.906,409.91Z" transform="translate(-170.851 -409.775)"/></g></g><g transform="translate(11.886)"><path class="m" d="M199.6,408.331a10.715,10.715,0,0,0-1.334-1.685,11.716,11.716,0,0,0-4.45-2.576c-1.944-.668-3.652-1.389-4.888-1.914-.617-.265-1.112-.487-1.452-.647a2.422,2.422,0,0,1-.517-.274,2.492,2.492,0,0,1,.558.177l1.484.566c1.252.478,2.973,1.171,4.9,1.834a11.107,11.107,0,0,1,4.5,2.7,6.194,6.194,0,0,1,.959,1.283A1.88,1.88,0,0,1,199.6,408.331Z" transform="translate(-186.961 -401.232)"/></g></g></g></g></svg>