<svg xmlns="http://www.w3.org/2000/svg" width="238.267" height="209.762" viewBox="0 0 238.267 209.762"><defs><style>.a{fill:#263c3b;}.b{fill:#fff;}.c{fill:#75c6fa;}.d{fill:#0894fe;}.e{fill:none;}.f{fill:#bddcfb;}.g{fill:#0048cd;}</style></defs><g transform="translate(-37.225 -161.043)"><g transform="translate(60.86 173.374)"><path class="a" d="M169.83,375.661a.3.3,0,0,1,0-.6l.6-.008a.3.3,0,0,1,.3.3.3.3,0,0,1-.3.3l-.6.007Zm-2.4-.006h0l-.6-.011a.3.3,0,1,1,.012-.6l.6.01a.3.3,0,0,1,0,.6Zm5.4-.067a.3.3,0,0,1-.011-.6l.6-.026a.311.311,0,0,1,.314.286.3.3,0,0,1-.287.314l-.6.026Zm-8.4-.022h-.014l-.6-.029a.3.3,0,0,1-.285-.315.3.3,0,0,1,.316-.285l.6.029a.3.3,0,0,1-.013.6Zm11.394-.141a.3.3,0,0,1-.021-.6l.6-.044a.3.3,0,0,1,.046.6l-.6.044Zm-14.39-.038h-.023l-.6-.047a.3.3,0,0,1,.049-.6l.6.047a.3.3,0,0,1-.022.6Zm17.381-.216a.3.3,0,0,1-.03-.6l.6-.061a.3.3,0,0,1,.064.6l-.6.062Zm-20.369-.053-.032,0-.6-.065a.3.3,0,0,1,.066-.6l.6.065a.3.3,0,0,1-.032.6Zm23.351-.291a.3.3,0,0,1-.039-.6l.593-.08a.3.3,0,1,1,.082.594l-.6.08Zm-26.331-.07a.259.259,0,0,1-.041,0l-.6-.083a.3.3,0,1,1,.085-.594l.593.082a.3.3,0,0,1-.04.6Zm29.3-.366a.3.3,0,0,1-.048-.6l.591-.1a.3.3,0,1,1,.1.592l-.593.1A.288.288,0,0,1,184.764,374.392Zm-32.267-.085a.3.3,0,0,1-.05,0l-.594-.1a.3.3,0,1,1,.1-.591l.59.1a.3.3,0,0,1-.049.6Zm35.223-.44a.3.3,0,0,1-.057-.595l.588-.116a.3.3,0,0,1,.118.588l-.59.116A.322.322,0,0,1,187.719,373.867Zm-38.175-.1a.281.281,0,0,1-.06-.006l-.59-.119a.3.3,0,0,1,.121-.588l.587.119a.3.3,0,0,1-.058.594Zm41.112-.514a.3.3,0,0,1-.066-.593l.584-.133a.3.3,0,0,1,.136.585l-.587.134A.3.3,0,0,1,190.657,373.251Zm-44.046-.117a.317.317,0,0,1-.068-.007l-.586-.138a.3.3,0,0,1,.138-.584l.583.136a.3.3,0,0,1-.067.593Zm46.964-.589a.3.3,0,0,1-.075-.591l.578-.151a.3.3,0,1,1,.154.58l-.583.153A.3.3,0,0,1,193.574,372.545Zm-49.878-.132a.316.316,0,0,1-.077-.01l-.582-.156a.3.3,0,0,1,.157-.579l.578.154a.3.3,0,0,1-.077.59Zm52.772-.663a.3.3,0,0,1-.084-.588l.574-.169a.3.3,0,1,1,.172.575l-.578.17A.286.286,0,0,1,196.469,371.75Zm-55.662-.148a.294.294,0,0,1-.085-.013l-.577-.173a.3.3,0,0,1,.175-.575l.572.173a.3.3,0,0,1-.085.588Zm58.53-.736a.3.3,0,0,1-.093-.585l.569-.187a.3.3,0,1,1,.189.57l-.572.188A.32.32,0,0,1,199.337,370.866Zm-61.4-.166a.3.3,0,0,1-.094-.015l-.573-.192a.3.3,0,1,1,.192-.568l.57.191a.3.3,0,0,1-.095.585Zm64.242-.806a.3.3,0,0,1-.1-.583l.562-.2a.3.3,0,0,1,.207.563l-.567.206A.3.3,0,0,1,202.176,369.894Zm-67.087-.185a.3.3,0,0,1-.1-.018l-.568-.209a.3.3,0,0,1,.211-.562l.562.208a.3.3,0,0,1-.1.582Zm69.9-.873a.3.3,0,0,1-.11-.579l.556-.221a.3.3,0,1,1,.223.557l-.559.222A.3.3,0,0,1,204.985,368.836Zm-72.707-.2a.289.289,0,0,1-.111-.022l-.56-.227a.3.3,0,0,1,.227-.555l.557.225a.3.3,0,0,1-.112.578Zm75.474-.936a.3.3,0,0,1-.118-.575l.547-.237a.3.3,0,0,1,.24.55l-.55.238A.3.3,0,0,1,207.752,367.7Zm-78.251-.226a.31.31,0,0,1-.12-.025l-.553-.244a.3.3,0,1,1,.245-.548l.549.242a.3.3,0,0,1-.12.575Zm80.98-1a.3.3,0,0,1-.127-.573l.54-.253a.3.3,0,1,1,.257.542l-.542.256A.3.3,0,0,1,210.481,366.472Zm-83.718-.251a.3.3,0,0,1-.128-.029l-.545-.261a.3.3,0,0,1,.261-.54l.541.258a.3.3,0,0,1-.128.572Zm86.411-1.056a.3.3,0,0,1-.136-.568l.532-.271a.3.3,0,0,1,.274.534l-.534.272A.3.3,0,0,1,213.174,365.165Zm-89.109-.275a.291.291,0,0,1-.136-.033l-.537-.276a.3.3,0,0,1,.277-.533l.533.276a.3.3,0,0,1-.137.567Zm91.76-1.114a.3.3,0,0,1-.144-.564l.524-.286a.3.3,0,1,1,.29.525l-.527.288A.3.3,0,0,1,215.825,363.776Zm-94.415-.3a.3.3,0,0,1-.145-.038l-.527-.293a.3.3,0,1,1,.293-.524l.525.291a.3.3,0,0,1-.146.563Zm97.023-1.173a.3.3,0,0,1-.151-.56l.514-.3a.3.3,0,0,1,.306.517l-.518.3A.3.3,0,0,1,218.433,362.3Zm-99.633-.32a.3.3,0,0,1-.153-.042l-.518-.309a.3.3,0,0,1,.309-.515l.516.308a.3.3,0,0,1-.154.558ZM221,360.756a.3.3,0,0,1-.159-.555l.5-.318a.3.3,0,1,1,.322.507l-.509.321A.3.3,0,0,1,221,360.756Zm-104.759-.342a.3.3,0,0,1-.16-.047l-.509-.325a.3.3,0,1,1,.325-.5l.505.322a.3.3,0,0,1-.161.554Zm107.276-1.284a.3.3,0,0,1-.167-.55l.5-.334a.3.3,0,1,1,.337.5l-.5.335A.3.3,0,0,1,223.512,359.13Zm-109.788-.365a.3.3,0,0,1-.169-.052l-.5-.34a.3.3,0,1,1,.34-.494l.5.338a.3.3,0,0,1-.169.548Zm112.254-1.339a.3.3,0,0,1-.175-.545l.486-.348a.3.3,0,0,1,.352.486l-.489.351A.3.3,0,0,1,225.978,357.426Zm-114.715-.385a.3.3,0,0,1-.175-.057l-.488-.355a.3.3,0,0,1,.355-.484l.484.352a.3.3,0,0,1-.176.543Zm117.129-1.392a.3.3,0,0,1-.182-.54l.474-.362a.3.3,0,1,1,.367.475l-.479.366A.3.3,0,0,1,228.392,355.649Zm-119.535-.405a.3.3,0,0,1-.183-.062l-.476-.369a.3.3,0,0,1,.369-.474l.474.367a.3.3,0,0,1-.184.538ZM230.751,353.8a.3.3,0,0,1-.189-.534l.464-.377a.3.3,0,0,1,.38.465l-.466.38A.3.3,0,0,1,230.751,353.8Zm-124.246-.425a.3.3,0,0,1-.189-.068l-.465-.384a.3.3,0,1,1,.383-.461l.462.381a.3.3,0,0,1-.191.532Zm126.547-1.5a.3.3,0,0,1-.2-.528l.451-.391a.3.3,0,1,1,.395.453l-.455.394A.3.3,0,0,1,233.053,351.878Zm-128.839-.443a.3.3,0,0,1-.2-.074l-.453-.4a.3.3,0,1,1,.4-.451l.45.4a.3.3,0,0,1-.2.527ZM235.3,349.887a.3.3,0,0,1-.2-.522l.44-.405a.3.3,0,0,1,.408.441l-.443.408A.3.3,0,0,1,235.3,349.887Zm-133.315-.459a.3.3,0,0,1-.2-.08l-.441-.411a.3.3,0,1,1,.41-.438l.438.408a.3.3,0,0,1-.2.521Zm135.5-1.6a.3.3,0,0,1-.209-.515l.428-.419a.3.3,0,0,1,.421.428l-.43.421A.3.3,0,0,1,237.48,347.829Zm-137.668-.476a.3.3,0,0,1-.211-.086l-.428-.423a.3.3,0,0,1,.423-.425l.425.421a.3.3,0,0,1,0,.425A.3.3,0,0,1,99.813,347.353ZM239.6,345.7a.3.3,0,0,1-.215-.509l.415-.431a.3.3,0,1,1,.434.415l-.418.434A.3.3,0,0,1,239.6,345.7Zm-141.892-.49a.3.3,0,0,1-.217-.093l-.415-.436a.3.3,0,0,1,.436-.413l.412.434a.3.3,0,0,1-.217.507Zm143.947-1.7a.3.3,0,0,1-.222-.5l.4-.443a.3.3,0,0,1,.446.4l-.405.447A.3.3,0,0,1,241.655,343.517Zm-145.986-.5a.3.3,0,0,1-.223-.1l-.4-.449a.3.3,0,1,1,.449-.4l.4.446a.3.3,0,0,1-.223.5Zm147.974-1.747a.3.3,0,0,1-.227-.5l.388-.456a.3.3,0,1,1,.458.388l-.391.458A.3.3,0,0,1,243.643,341.268ZM93.7,340.753a.3.3,0,0,1-.23-.106l-.387-.461a.3.3,0,0,1,.461-.385l.385.458a.3.3,0,0,1-.229.494Zm151.864-1.8a.3.3,0,0,1-.233-.489L245.7,338a.3.3,0,0,1,.471.374l-.377.471A.3.3,0,0,1,245.562,338.958ZM91.8,338.434a.3.3,0,0,1-.235-.113l-.372-.471a.3.3,0,1,1,.471-.371l.371.469a.3.3,0,0,1-.235.486Zm155.614-1.843a.3.3,0,0,1-.239-.481l.36-.479a.3.3,0,1,1,.481.359l-.362.481A.3.3,0,0,1,247.411,336.591ZM89.967,336.06a.3.3,0,0,1-.241-.121l-.358-.484a.3.3,0,0,1,.484-.356l.355.48a.3.3,0,0,1-.06.42A.3.3,0,0,1,89.967,336.06Zm159.221-1.891a.3.3,0,0,1-.244-.474l.345-.489a.3.3,0,1,1,.491.344l-.348.493A.3.3,0,0,1,249.188,334.168ZM88.211,333.63a.3.3,0,0,1-.247-.128l-.343-.494a.3.3,0,0,1,.494-.341l.341.49a.3.3,0,0,1-.245.473Zm162.679-1.938a.3.3,0,0,1-.166-.05.3.3,0,0,1-.083-.416l.33-.5a.3.3,0,1,1,.5.329l-.332.5A.3.3,0,0,1,250.89,331.693ZM86.53,331.15a.3.3,0,0,1-.251-.136l-.329-.5a.3.3,0,1,1,.5-.326l.326.5a.3.3,0,0,1-.086.415A.3.3,0,0,1,86.53,331.15Zm165.987-1.985a.3.3,0,0,1-.255-.458l.315-.51a.3.3,0,1,1,.512.314l-.317.512A.3.3,0,0,1,252.517,329.165Zm-167.592-.545a.3.3,0,0,1-.256-.143l-.313-.513a.3.3,0,0,1,.514-.311l.311.51a.3.3,0,0,1-.255.457Zm169.141-2.032a.3.3,0,0,1-.26-.451l.3-.52a.3.3,0,0,1,.522.3l-.3.523A.3.3,0,0,1,254.066,326.589ZM83.4,326.044a.3.3,0,0,1-.261-.151l-.3-.522a.3.3,0,0,1,.523-.3l.294.519a.3.3,0,0,1-.111.41A.293.293,0,0,1,83.4,326.044Zm172.137-2.078a.292.292,0,0,1-.142-.037.3.3,0,0,1-.121-.406l.283-.529a.3.3,0,1,1,.53.283l-.285.532A.3.3,0,0,1,255.535,323.966Zm-173.584-.544a.3.3,0,0,1-.265-.159l-.281-.53a.3.3,0,1,1,.532-.279l.278.527a.3.3,0,0,1-.265.441ZM256.924,321.3a.3.3,0,0,1-.133-.032.3.3,0,0,1-.135-.4l.268-.537a.3.3,0,1,1,.538.265l-.268.54A.3.3,0,0,1,256.924,321.3ZM80.586,320.76a.3.3,0,0,1-.27-.168l-.264-.539a.3.3,0,0,1,.54-.263l.262.536a.3.3,0,0,1-.136.4A.29.29,0,0,1,80.586,320.76Zm177.645-2.172a.29.29,0,0,1-.126-.028.3.3,0,0,1-.146-.4l.251-.545a.3.3,0,0,1,.546.249l-.253.549A.3.3,0,0,1,258.23,318.588ZM79.3,318.056a.3.3,0,0,1-.273-.176l-.248-.545a.3.3,0,1,1,.547-.247l.246.543a.3.3,0,0,1-.148.4A.3.3,0,0,1,79.3,318.056Zm180.152-2.218a.3.3,0,0,1-.276-.418l.234-.553a.3.3,0,1,1,.553.232l-.235.556A.3.3,0,0,1,259.454,315.839ZM78.1,315.317a.3.3,0,0,1-.277-.184l-.23-.553a.3.3,0,1,1,.555-.229l.228.55a.3.3,0,0,1-.16.392A.29.29,0,0,1,78.1,315.317Zm182.491-2.266a.291.291,0,0,1-.109-.021.3.3,0,0,1-.17-.389l.217-.56a.3.3,0,1,1,.56.215l-.218.564A.3.3,0,0,1,260.593,313.051Zm-183.609-.517a.3.3,0,0,1-.281-.192l-.214-.563a.3.3,0,1,1,.561-.212l.213.56a.3.3,0,0,1-.172.388A.313.313,0,0,1,76.984,312.534Zm184.663-2.3a.306.306,0,0,1-.1-.017.3.3,0,0,1-.182-.383l.2-.567a.3.3,0,1,1,.567.2l-.2.57A.3.3,0,0,1,261.646,310.23Zm-185.7-.513a.3.3,0,0,1-.283-.2l-.2-.569a.3.3,0,1,1,.567-.194l.2.565a.3.3,0,0,1-.283.4Zm186.661-2.34a.3.3,0,0,1-.286-.392l.181-.573a.3.3,0,0,1,.573.179l-.184.577A.3.3,0,0,1,262.612,307.377ZM75,306.869a.3.3,0,0,1-.286-.21l-.179-.575a.3.3,0,0,1,.573-.178l.178.572a.3.3,0,0,1-.2.377A.306.306,0,0,1,75,306.869ZM263.486,304.5a.3.3,0,0,1-.083-.011.3.3,0,0,1-.206-.371l.164-.576a.3.3,0,1,1,.578.162l-.164.579A.3.3,0,0,1,263.486,304.5Zm-189.34-.511a.3.3,0,0,1-.289-.218l-.161-.58a.3.3,0,0,1,.579-.159l.16.576a.3.3,0,0,1-.207.371A.319.319,0,0,1,74.146,303.992Zm190.126-2.386a.3.3,0,0,1-.075-.009.3.3,0,0,1-.217-.364l.146-.58a.3.3,0,1,1,.583.144l-.146.584A.3.3,0,0,1,264.272,301.605Zm-190.9-.514a.3.3,0,0,1-.291-.227l-.143-.585a.3.3,0,1,1,.583-.141l.142.58a.3.3,0,0,1-.218.364A.322.322,0,0,1,73.376,301.091Zm191.592-2.4a.339.339,0,0,1-.065-.007.3.3,0,0,1-.228-.358l.128-.585a.3.3,0,1,1,.587.126l-.128.588A.3.3,0,0,1,264.968,298.686ZM72.7,298.168a.3.3,0,0,1-.293-.237l-.126-.588a.3.3,0,1,1,.587-.123l.126.585a.3.3,0,0,1-.23.357A.319.319,0,0,1,72.7,298.168Zm192.877-2.421a.3.3,0,0,1-.056-.005.3.3,0,0,1-.239-.351l.11-.589a.3.3,0,0,1,.59.109l-.111.591A.3.3,0,0,1,265.573,295.746Zm-193.467-.521a.3.3,0,0,1-.295-.246l-.108-.592a.3.3,0,0,1,.591-.105l.107.589a.3.3,0,0,1-.24.349A.289.289,0,0,1,72.107,295.225Zm193.982-2.436a.366.366,0,0,1-.047,0,.3.3,0,0,1-.249-.344l.092-.591a.3.3,0,0,1,.593.09l-.093.6A.3.3,0,0,1,266.089,292.79Zm-194.481-.524a.3.3,0,0,1-.3-.255l-.09-.595a.3.3,0,0,1,.594-.088l.089.593a.3.3,0,0,1-.252.342A.327.327,0,0,1,71.607,292.266Zm194.907-2.447-.038,0a.3.3,0,0,1-.26-.336l.074-.594a.3.3,0,0,1,.6.073l-.075.6A.3.3,0,0,1,266.514,289.819ZM71.2,289.292a.3.3,0,0,1-.3-.263l-.071-.6a.3.3,0,0,1,.263-.332.3.3,0,0,1,.332.263l.071.594a.3.3,0,0,1-.261.334Zm195.651-2.457h-.029a.3.3,0,0,1-.27-.328l.056-.6a.3.3,0,0,1,.6.055l-.056.6A.3.3,0,0,1,266.848,286.836ZM70.88,286.308a.3.3,0,0,1-.3-.273l-.052-.6a.3.3,0,0,1,.273-.324.294.294,0,0,1,.324.273l.053.6a.3.3,0,0,1-.272.326Zm196.213-2.464h-.02a.3.3,0,0,1-.28-.32l.038-.6a.3.3,0,0,1,.6.036l-.038.6A.3.3,0,0,1,267.092,283.844Zm-196.44-.529a.3.3,0,0,1-.3-.282l-.035-.6a.3.3,0,0,1,.6-.034l.034.6a.3.3,0,0,1-.281.318Zm196.593-2.469h-.012a.3.3,0,0,1-.288-.311l.019-.6a.32.32,0,0,1,.309-.291.3.3,0,0,1,.291.309l-.019.6A.3.3,0,0,1,267.245,280.846Zm-196.73-.53a.3.3,0,0,1-.3-.291l-.017-.6a.3.3,0,0,1,.293-.308H70.5a.3.3,0,0,1,.3.293l.017.6a.3.3,0,0,1-.291.309Zm196.792-2.469h0a.3.3,0,0,1-.3-.3V276.8a.3.3,0,0,1,.6,0v.141l0,.6A.3.3,0,0,1,267.307,277.847Zm-196.839-.53a.3.3,0,0,1-.3-.3v-.6a.3.3,0,0,1,.3-.3h0a.3.3,0,0,1,.3.3v.6A.3.3,0,0,1,70.469,277.317ZM267.277,274.7a.3.3,0,0,1-.3-.292l-.017-.6a.3.3,0,0,1,.291-.309.292.292,0,0,1,.31.291l.017.6a.3.3,0,0,1-.292.308Zm-196.766-.387H70.5a.3.3,0,0,1-.291-.309l.019-.6a.3.3,0,1,1,.6.022l-.019.6A.3.3,0,0,1,70.511,274.316ZM267.155,271.7a.3.3,0,0,1-.3-.283l-.035-.6a.3.3,0,0,1,.6-.037l.035.6a.3.3,0,0,1-.283.316Zm-196.511-.387h-.019a.3.3,0,0,1-.281-.318l.037-.6a.3.3,0,0,1,.319-.28.3.3,0,0,1,.28.319l-.037.6A.3.3,0,0,1,70.644,271.317Zm196.3-2.606a.3.3,0,0,1-.3-.275l-.053-.6a.3.3,0,1,1,.6-.055l.054.6a.3.3,0,0,1-.273.324Zm-196.077-.386H70.84a.3.3,0,0,1-.272-.326l.055-.6a.294.294,0,0,1,.327-.27.3.3,0,0,1,.27.327l-.055.6A.3.3,0,0,1,70.868,268.325Zm195.774-2.6a.3.3,0,0,1-.3-.265l-.071-.595a.3.3,0,0,1,.261-.334.3.3,0,0,1,.334.261l.072.6a.3.3,0,0,1-.263.333Zm-195.46-.385a.208.208,0,0,1-.037,0,.3.3,0,0,1-.262-.334l.074-.6a.3.3,0,0,1,.335-.26.3.3,0,0,1,.26.336l-.073.594A.3.3,0,0,1,71.182,265.34Zm195.068-2.59a.3.3,0,0,1-.3-.257l-.089-.591a.3.3,0,1,1,.593-.092l.09.6a.3.3,0,0,1-.254.34A.216.216,0,0,1,266.249,262.75Zm-194.663-.384a.322.322,0,0,1-.045,0,.3.3,0,0,1-.252-.341l.092-.6a.3.3,0,1,1,.593.095l-.091.59A.3.3,0,0,1,71.586,262.366Zm194.179-2.578a.3.3,0,0,1-.295-.247l-.107-.589a.3.3,0,0,1,.59-.109l.108.592a.3.3,0,0,1-.242.349A.272.272,0,0,1,265.765,259.787Zm-193.684-.382a.27.27,0,0,1-.054-.005.3.3,0,0,1-.242-.349l.11-.592a.3.3,0,0,1,.59.111l-.11.589A.3.3,0,0,1,72.081,259.406Zm193.11-2.564a.3.3,0,0,1-.293-.239l-.126-.585a.3.3,0,0,1,.587-.128l.126.589a.3.3,0,0,1-.232.356A.31.31,0,0,1,265.191,256.842Zm-192.524-.38a.327.327,0,0,1-.064-.006.3.3,0,0,1-.23-.357l.128-.588a.3.3,0,1,1,.586.129l-.128.585A.3.3,0,0,1,72.668,256.462Zm191.859-2.548a.3.3,0,0,1-.291-.229l-.143-.582a.3.3,0,0,1,.583-.145l.144.584a.3.3,0,0,1-.22.363A.311.311,0,0,1,264.527,253.915Zm-191.184-.377a.317.317,0,0,1-.072-.009.3.3,0,0,1-.219-.364l.146-.584a.3.3,0,1,1,.582.148l-.146.58A.3.3,0,0,1,73.343,253.538Zm190.431-2.529a.3.3,0,0,1-.289-.22l-.161-.576a.3.3,0,0,1,.578-.164l.162.58a.3.3,0,0,1-.209.369A.309.309,0,0,1,263.773,251.009Zm-189.665-.373a.283.283,0,0,1-.081-.012.3.3,0,0,1-.208-.369l.164-.58a.3.3,0,1,1,.577.166l-.164.575A.3.3,0,0,1,74.108,250.636Zm188.823-2.507a.3.3,0,0,1-.287-.212l-.179-.571a.3.3,0,0,1,.572-.181l.18.575a.3.3,0,0,1-.2.375A.293.293,0,0,1,262.931,248.129Zm-187.969-.371a.3.3,0,0,1-.09-.014.3.3,0,0,1-.2-.376l.183-.578a.3.3,0,1,1,.571.184l-.182.572A.3.3,0,0,1,74.962,247.758ZM262,245.275a.3.3,0,0,1-.284-.2l-.2-.565a.3.3,0,1,1,.566-.2l.2.57a.3.3,0,0,1-.187.381A.286.286,0,0,1,262,245.275ZM75.908,244.9a.3.3,0,0,1-.283-.4l.2-.571a.3.3,0,0,1,.566.2l-.2.567A.3.3,0,0,1,75.908,244.9Zm185.074-2.447a.3.3,0,0,1-.281-.194l-.214-.56a.3.3,0,1,1,.56-.215l.215.562a.3.3,0,0,1-.174.387A.29.29,0,0,1,260.982,242.451Zm-184.041-.383a.312.312,0,0,1-.108-.019.3.3,0,0,1-.173-.388l.218-.563a.3.3,0,0,1,.559.217l-.217.561A.3.3,0,0,1,76.941,242.068Zm182.936-2.408a.3.3,0,0,1-.278-.186l-.229-.549a.3.3,0,1,1,.553-.233l.231.554a.3.3,0,0,1-.163.392A.311.311,0,0,1,259.878,239.661Zm-181.817-.387a.29.29,0,0,1-.116-.024.3.3,0,0,1-.16-.392l.235-.557a.3.3,0,0,1,.552.236l-.234.553A.3.3,0,0,1,78.061,239.274Zm180.633-2.359a.3.3,0,0,1-.274-.177l-.246-.543a.3.3,0,0,1,.546-.25l.248.547a.3.3,0,0,1-.273.423Zm-179.428-.4a.294.294,0,0,1-.124-.027.3.3,0,0,1-.148-.4l.251-.549a.3.3,0,0,1,.545.252l-.25.546A.3.3,0,0,1,79.265,236.516Zm178.16-2.311a.3.3,0,0,1-.27-.169l-.263-.535a.3.3,0,0,1,.538-.266l.264.539a.3.3,0,0,1-.269.431ZM80.554,233.8a.3.3,0,0,1-.133-.032.3.3,0,0,1-.136-.4l.268-.54a.3.3,0,0,1,.538.267l-.268.539A.3.3,0,0,1,80.554,233.8Zm175.52-2.262a.3.3,0,0,1-.266-.161l-.279-.527a.3.3,0,0,1,.529-.282l.281.53a.3.3,0,0,1-.126.405A.3.3,0,0,1,256.073,231.535Zm-174.149-.415a.3.3,0,0,1-.265-.441l.285-.532a.3.3,0,0,1,.528.285l-.283.529A.3.3,0,0,1,81.925,231.119Zm172.716-2.213a.3.3,0,0,1-.261-.152l-.3-.519a.3.3,0,0,1,.521-.3l.3.522a.3.3,0,0,1-.261.448Zm-171.264-.42a.3.3,0,0,1-.149-.039.3.3,0,0,1-.112-.409l.3-.523a.3.3,0,1,1,.519.3l-.3.52A.3.3,0,0,1,83.376,228.486Zm169.752-2.164a.3.3,0,0,1-.257-.145l-.311-.509a.3.3,0,0,1,.512-.314l.313.513a.3.3,0,0,1-.257.456ZM84.908,225.9a.3.3,0,0,1-.256-.457l.317-.513a.3.3,0,1,1,.509.316l-.314.51A.3.3,0,0,1,84.908,225.9Zm166.63-2.115a.3.3,0,0,1-.253-.137l-.326-.5a.3.3,0,0,1,.5-.329l.328.5a.3.3,0,0,1-.088.415A.3.3,0,0,1,251.538,223.784ZM86.516,223.36a.3.3,0,0,1-.25-.465l.332-.5a.3.3,0,0,1,.5.332l-.331.5A.3.3,0,0,1,86.516,223.36Zm163.353-2.066a.3.3,0,0,1-.248-.13l-.341-.49a.3.3,0,0,1,.492-.344l.343.494a.3.3,0,0,1-.246.471ZM88.2,220.872a.3.3,0,0,1-.172-.055.3.3,0,0,1-.074-.418l.347-.493a.3.3,0,0,1,.49.347l-.345.49A.3.3,0,0,1,88.2,220.872Zm159.924-2.016a.3.3,0,0,1-.242-.122l-.356-.479a.3.3,0,1,1,.481-.359l.359.483a.3.3,0,0,1-.242.478Zm-158.164-.419a.3.3,0,0,1-.179-.06.3.3,0,0,1-.062-.42l.362-.481a.3.3,0,0,1,.479.362l-.359.479A.3.3,0,0,1,89.962,218.437Zm156.347-1.966a.3.3,0,0,1-.237-.115l-.37-.468a.3.3,0,1,1,.469-.374l.373.471a.3.3,0,0,1-.051.421A.293.293,0,0,1,246.31,216.472ZM91.8,216.058a.3.3,0,0,1-.235-.487l.377-.471a.3.3,0,1,1,.468.377l-.374.468A.3.3,0,0,1,91.8,216.058Zm152.625-1.916a.3.3,0,0,1-.23-.108l-.385-.457a.3.3,0,1,1,.458-.388l.387.46a.3.3,0,0,1-.23.493ZM93.7,213.736a.3.3,0,0,1-.23-.494l.39-.458a.3.3,0,1,1,.456.39l-.388.456A.3.3,0,0,1,93.7,213.736Zm148.762-1.865a.3.3,0,0,1-.225-.1l-.4-.446a.3.3,0,0,1,.446-.4l.4.448a.3.3,0,0,1-.225.5Zm-146.789-.4a.3.3,0,0,1-.223-.5l.4-.447a.3.3,0,0,1,.444.4l-.4.445A.3.3,0,0,1,95.672,211.472Zm144.762-1.812a.3.3,0,0,1-.217-.094l-.412-.433a.3.3,0,1,1,.433-.415l.415.436a.3.3,0,0,1-.218.507Zm-142.722-.389a.3.3,0,0,1-.217-.507l.417-.434a.3.3,0,0,1,.432.417l-.415.431A.3.3,0,0,1,97.713,209.271Zm140.628-1.761a.3.3,0,0,1-.212-.087L237.7,207a.3.3,0,0,1,.42-.428l.428.423a.3.3,0,0,1-.212.512Zm-138.523-.377a.3.3,0,0,1-.211-.514l.43-.421a.3.3,0,0,1,.418.43l-.427.419A.3.3,0,0,1,99.818,207.133Zm136.365-1.708a.3.3,0,0,1-.205-.081l-.438-.408a.3.3,0,0,1,.408-.44l.441.411a.3.3,0,0,1-.205.519Zm-134.2-.366a.3.3,0,0,1-.2-.52l.443-.408a.3.3,0,1,1,.406.443l-.44.405A.3.3,0,0,1,101.987,205.059Zm131.975-1.654a.3.3,0,0,1-.2-.075l-.451-.4a.3.3,0,0,1,.395-.452l.453.4a.3.3,0,0,1-.2.525Zm-129.744-.352a.3.3,0,0,1-.2-.527l.455-.394a.3.3,0,0,1,.392.455l-.452.392A.3.3,0,0,1,104.218,203.053Zm127.462-1.6a.3.3,0,0,1-.192-.069l-.462-.381a.3.3,0,1,1,.381-.464l.464.383a.3.3,0,0,1-.192.531Zm-125.172-.338a.3.3,0,0,1-.191-.532l.466-.38a.3.3,0,1,1,.377.466l-.463.378A.3.3,0,0,1,106.508,201.116Zm122.832-1.545a.3.3,0,0,1-.184-.063l-.473-.367a.3.3,0,1,1,.366-.476l.476.369a.3.3,0,0,1-.184.537Zm-120.485-.321a.3.3,0,0,1-.184-.538l.478-.366a.3.3,0,1,1,.363.478l-.474.364A.3.3,0,0,1,108.854,199.25Zm118.088-1.488a.3.3,0,0,1-.178-.058l-.484-.352a.3.3,0,1,1,.351-.486l.488.354a.3.3,0,0,1-.177.542Zm-115.687-.306a.3.3,0,0,1-.176-.543l.489-.351a.3.3,0,1,1,.349.489l-.485.349A.3.3,0,0,1,111.256,197.456Zm113.235-1.431a.3.3,0,0,1-.169-.052l-.5-.338a.3.3,0,1,1,.336-.5l.5.339a.3.3,0,0,1-.17.547Zm-110.781-.288a.3.3,0,0,1-.169-.549l.5-.335a.3.3,0,1,1,.334.5l-.5.334A.3.3,0,0,1,113.71,195.736Zm108.276-1.373a.3.3,0,0,1-.162-.048l-.5-.322a.3.3,0,1,1,.321-.507l.509.324a.3.3,0,0,1-.163.552Zm-105.771-.27a.3.3,0,0,1-.161-.553l.509-.321a.3.3,0,0,1,.319.509l-.505.319A.3.3,0,0,1,116.215,194.093Zm103.218-1.314a.3.3,0,0,1-.154-.043l-.515-.306a.3.3,0,0,1,.306-.517l.519.309a.3.3,0,0,1-.155.557Zm-100.665-.253a.3.3,0,0,1-.154-.558l.517-.3a.3.3,0,1,1,.3.517l-.514.3A.3.3,0,0,1,118.768,192.526Zm98.063-1.254a.3.3,0,0,1-.146-.038l-.524-.291a.3.3,0,1,1,.289-.526l.528.293a.3.3,0,0,1-.147.562Zm-95.464-.233a.3.3,0,0,1-.146-.563l.526-.288a.3.3,0,0,1,.288.527l-.524.288A.3.3,0,0,1,121.366,191.038Zm92.817-1.194a.3.3,0,0,1-.138-.034l-.534-.275a.3.3,0,0,1,.273-.534l.536.276a.3.3,0,0,1-.138.567Zm-90.175-.214a.3.3,0,0,1-.138-.567l.534-.273a.3.3,0,1,1,.271.536l-.532.27A.292.292,0,0,1,124.009,189.631Zm87.484-1.131a.3.3,0,0,1-.13-.029l-.542-.258a.3.3,0,1,1,.257-.543l.545.26a.3.3,0,0,1-.131.57Zm-84.8-.194a.3.3,0,0,1-.129-.571l.542-.256a.3.3,0,0,1,.255.544l-.54.255A.3.3,0,0,1,126.691,188.3Zm82.07-1.068a.3.3,0,0,1-.121-.026l-.55-.242a.3.3,0,0,1,.24-.551l.554.244a.3.3,0,0,1-.123.575Zm-79.349-.175a.3.3,0,0,1-.121-.575l.55-.239a.3.3,0,1,1,.237.552l-.546.237A.313.313,0,0,1,129.413,187.062Zm76.579-1a.294.294,0,0,1-.113-.022l-.557-.225a.3.3,0,1,1,.223-.557l.56.226a.3.3,0,0,1-.113.578Zm-73.823-.155a.3.3,0,0,1-.112-.578l.56-.223a.3.3,0,0,1,.22.559l-.555.221A.31.31,0,0,1,132.169,185.9Zm71.017-.938a.3.3,0,0,1-.1-.019l-.564-.208a.3.3,0,0,1,.206-.564l.567.21a.3.3,0,0,1-.1.581Zm-68.216-.14a.3.3,0,0,1-.1-.582l.565-.206a.3.3,0,0,1,.2.565l-.563.2A.289.289,0,0,1,134.97,184.826Zm65.377-.866a.3.3,0,0,1-.1-.016l-.57-.19a.3.3,0,0,1,.188-.57l.574.191a.3.3,0,0,1-.1.585Zm-62.543-.125a.3.3,0,0,1-.095-.585l.572-.189a.3.3,0,0,1,.186.571l-.569.187A.311.311,0,0,1,137.8,183.835Zm59.674-.793a.312.312,0,0,1-.088-.013l-.573-.171a.3.3,0,0,1,.171-.576l.577.173a.3.3,0,0,1-.087.588Zm-56.812-.11a.3.3,0,0,1-.086-.588l.578-.17a.3.3,0,0,1,.169.576l-.575.169A.3.3,0,0,1,140.666,182.932Zm53.927-.717a.292.292,0,0,1-.078-.01l-.579-.154a.3.3,0,1,1,.154-.58l.582.155a.3.3,0,0,1-.078.59Zm-51.038-.1a.3.3,0,0,1-.077-.59l.582-.153a.3.3,0,0,1,.151.581l-.58.152A.314.314,0,0,1,143.554,182.117Zm48.129-.639a.328.328,0,0,1-.069-.008l-.583-.137a.3.3,0,1,1,.135-.585l.586.138a.3.3,0,0,1-.069.592Zm-45.216-.088a.3.3,0,0,1-.067-.593l.587-.135a.3.3,0,1,1,.132.585l-.583.133A.279.279,0,0,1,146.466,181.391Zm42.286-.56a.288.288,0,0,1-.06-.006l-.587-.118a.3.3,0,1,1,.117-.588l.59.119a.3.3,0,0,1-.06.594Zm-39.353-.076a.3.3,0,0,1-.058-.594l.59-.117a.3.3,0,1,1,.116.589l-.588.116A.28.28,0,0,1,149.4,180.755Zm36.4-.481a.315.315,0,0,1-.052,0l-.59-.1a.3.3,0,1,1,.1-.592l.594.1a.3.3,0,0,1-.051.6Zm-33.453-.065a.3.3,0,0,1-.05-.6l.594-.1a.3.3,0,1,1,.1.593l-.59.1A.407.407,0,0,1,152.35,180.209Zm30.487-.4a.289.289,0,0,1-.042,0l-.593-.083a.3.3,0,1,1,.08-.595l.6.083a.3.3,0,0,1-.042.6Zm-27.521-.052a.3.3,0,0,1-.041-.6l.6-.08a.3.3,0,0,1,.08.595l-.594.08A.263.263,0,0,1,155.317,179.754Zm24.544-.324-.034,0-.595-.065a.3.3,0,0,1-.267-.329.292.292,0,0,1,.329-.268l.6.065a.3.3,0,0,1-.033.6Zm-21.565-.042a.3.3,0,0,1-.032-.6l.6-.062a.3.3,0,1,1,.06.6l-.6.062Zm18.577-.244h-.024l-.6-.046a.3.3,0,0,1-.277-.321.3.3,0,0,1,.321-.277l.6.046a.3.3,0,0,1-.023.6Zm-15.588-.03a.3.3,0,0,1-.023-.6l.6-.044a.3.3,0,0,1,.042.6l-.6.044Zm12.593-.165h-.015l-.6-.029a.3.3,0,0,1-.286-.313.305.305,0,0,1,.313-.286l.6.028a.3.3,0,0,1-.014.6Zm-9.6-.018a.3.3,0,0,1-.014-.6l.6-.026a.294.294,0,0,1,.312.288.3.3,0,0,1-.287.312l-.6.026Zm6.6-.087h-.006l-.6-.01a.3.3,0,0,1,0-.6h0l.6.01a.3.3,0,0,1-.006.6Zm-3.6-.006a.3.3,0,0,1,0-.6l.6-.008h0a.3.3,0,0,1,0,.6l-.6.008Z" transform="translate(-70.168 -178.23)"/></g><g transform="translate(52.26 186.059)"><g transform="translate(0.3 0.3)"><rect class="b" width="64.405" height="84.48" rx="6.066"/></g><g transform="translate(4.482 8.232)"><rect class="c" width="56.041" height="68.616"/></g><g transform="translate(0)"><path class="a" d="M118.536,280.991h-55.7a4.657,4.657,0,0,1-4.652-4.652V200.563a4.657,4.657,0,0,1,4.652-4.652h55.7a4.656,4.656,0,0,1,4.651,4.652v75.776A4.657,4.657,0,0,1,118.536,280.991Zm-55.7-84.48a4.056,4.056,0,0,0-4.051,4.052v75.776a4.056,4.056,0,0,0,4.051,4.051h55.7a4.056,4.056,0,0,0,4.051-4.051V200.563a4.056,4.056,0,0,0-4.051-4.052Z" transform="translate(-58.182 -195.911)"/></g><g transform="translate(18.073 33.039)"><g transform="translate(0.3 0.3)"><rect class="b" width="28.26" height="18.402"/></g><path class="a" d="M112.233,260.964H83.373v-19h28.86Zm-28.259-.6h27.659v-17.8H83.973Z" transform="translate(-83.373 -241.962)"/></g><g transform="translate(28.273 37.633)"><path class="a" d="M97.591,258.179v-9.813l8.774,4.907Zm.6-8.789v7.766l6.944-3.883Z" transform="translate(-97.591 -248.366)"/></g></g><g transform="translate(104.48 229.091)"><g transform="translate(5.737 20.965)"><path class="b" d="M237.692,357.466H138.964V288.115a3,3,0,0,1,3-3h92.726a3,3,0,0,1,3,3Z" transform="translate(-138.964 -285.114)"/></g><g transform="translate(5.437 20.665)"><path class="a" d="M237.874,357.648H138.546V288a3.3,3.3,0,0,1,3.3-3.3h92.726a3.3,3.3,0,0,1,3.3,3.3Zm-98.728-.6h98.127V288a2.7,2.7,0,0,0-2.7-2.7H141.847a2.7,2.7,0,0,0-2.7,2.7Z" transform="translate(-138.546 -284.696)"/></g><g transform="translate(0.3 89.553)"><path class="b" d="M200.5,380.715l-1.748,3.137H173.626l-1.748-3.137H131.386v4.322a4.043,4.043,0,0,0,4.043,4.043H236.945a4.043,4.043,0,0,0,4.043-4.043v-4.322Z" transform="translate(-131.386 -380.715)"/></g><g transform="translate(12.988 28.911)"><rect class="c" width="84.225" height="56.041"/></g><g transform="translate(16.982)"><g transform="translate(7.36 0.347)"><path class="b" d="M226.414,274.167l-30.376-17.791L164.9,274.167" transform="translate(-164.897 -256.376)"/></g><g transform="translate(0.3 74.816)"><g transform="translate(0 4.995)"><rect class="b" width="75.636" height="5.699"/></g><g transform="translate(2.836)"><rect class="b" width="69.963" height="4.995"/></g></g><g transform="translate(7.932 28.929)"><rect class="b" width="9.625" height="3.652"/><g transform="translate(0 42.138)"><rect class="b" width="9.625" height="3.652"/></g><g transform="translate(1.75 3.74)"><rect class="b" width="6.125" height="38.398"/></g><g transform="translate(16.916)"><rect class="b" width="9.625" height="3.652"/><g transform="translate(0 42.138)"><rect class="b" width="9.625" height="3.652"/></g><g transform="translate(1.75 3.74)"><rect class="b" width="6.125" height="38.398"/></g></g><g transform="translate(33.832)"><rect class="b" width="9.625" height="3.652"/><g transform="translate(0 42.138)"><rect class="b" width="9.625" height="3.652"/></g><g transform="translate(1.75 3.74)"><rect class="b" width="6.125" height="38.398"/></g></g><g transform="translate(50.748)"><rect class="b" width="9.625" height="3.652"/><g transform="translate(0 42.138)"><rect class="b" width="9.625" height="3.652"/></g><g transform="translate(1.75 3.74)"><rect class="b" width="6.125" height="38.398"/></g></g></g><g transform="translate(3.137 23.837)"><rect class="b" width="69.963" height="4.995"/></g><g transform="translate(0.3 18.138)"><rect class="b" width="75.636" height="5.699"/></g><g transform="translate(10.637 2.243)"><path class="d" d="M224.427,274.913l-27.139-15.9-27.822,15.9" transform="translate(-169.466 -259.018)"/></g><g transform="translate(15.017 4.646)"><path class="b" d="M175.719,275.99l-.149-.261,23.388-13.362.075.044,22.741,13.319-.152.259-22.666-13.275Z" transform="translate(-175.57 -262.368)"/></g><g transform="translate(3.137 76.128)"><rect class="d" width="69.963" height="3.683"/></g><g transform="translate(0 17.838)"><path class="a" d="M230.875,287.054H154.639v-6.3h76.236Zm-75.636-.6h75.035v-5.1H155.24Z" transform="translate(-154.639 -280.755)"/></g><g transform="translate(7.211)"><path class="a" d="M164.988,274.291l-.3-.521,31.291-17.877.15.088,30.376,17.791-.3.518-30.226-17.7Z" transform="translate(-164.69 -255.892)"/></g><g transform="translate(2.837 23.536)"><path class="a" d="M229.156,294.293H158.593v-5.6h70.563Zm-69.963-.6h69.363V289.3H159.193Z" transform="translate(-158.593 -288.698)"/></g><g transform="translate(0 74.516)"><g transform="translate(0 4.995)"><path class="a" d="M230.875,373.017H154.639v-6.3h76.236Zm-75.636-.6h75.035v-5.1H155.24Z" transform="translate(-154.639 -366.718)"/></g><g transform="translate(2.837)"><path class="a" d="M229.156,365.351H158.593v-5.6h70.563Zm-69.963-.6h69.363v-4.394H159.193Z" transform="translate(-158.593 -359.756)"/></g></g><g transform="translate(7.631 28.628)"><path class="a" d="M175.5,300.049H165.276V295.8H175.5Zm-9.624-.6H174.9V296.4h-9.025Z" transform="translate(-165.276 -295.796)"/><g transform="translate(0 42.138)"><path class="a" d="M175.5,358.782H165.276V354.53H175.5Zm-9.624-.6H174.9V355.13h-9.025Z" transform="translate(-165.276 -354.53)"/></g><g transform="translate(1.751 3.74)"><path class="a" d="M174.441,340.007h-6.725v-39h6.725Zm-6.125-.6h5.525v-37.8h-5.525Z" transform="translate(-167.716 -301.009)"/></g><g transform="translate(16.916)"><path class="a" d="M199.08,300.049H188.855V295.8H199.08Zm-9.625-.6h9.025V296.4h-9.025Z" transform="translate(-188.855 -295.796)"/><g transform="translate(0 42.138)"><path class="a" d="M199.08,358.782H188.855V354.53H199.08Zm-9.625-.6h9.025V355.13h-9.025Z" transform="translate(-188.855 -354.53)"/></g><g transform="translate(1.75 3.74)"><path class="a" d="M198.019,340.007h-6.725v-39h6.725Zm-6.124-.6h5.524v-37.8h-5.524Z" transform="translate(-191.294 -301.009)"/></g></g><g transform="translate(33.832)"><path class="a" d="M222.658,300.049H212.433V295.8h10.225Zm-9.624-.6h9.024V296.4h-9.024Z" transform="translate(-212.433 -295.796)"/><g transform="translate(0 42.138)"><path class="a" d="M222.658,358.782H212.433V354.53h10.225Zm-9.624-.6h9.024V355.13h-9.024Z" transform="translate(-212.433 -354.53)"/></g><g transform="translate(1.75 3.74)"><path class="a" d="M221.6,340.007h-6.725v-39H221.6Zm-6.125-.6H221v-37.8h-5.524Z" transform="translate(-214.872 -301.009)"/></g></g><g transform="translate(50.748)"><path class="a" d="M246.236,300.049H236.011V295.8h10.225Zm-9.624-.6h9.025V296.4h-9.025Z" transform="translate(-236.011 -295.796)"/><g transform="translate(0 42.138)"><path class="a" d="M246.236,358.782H236.011V354.53h10.225Zm-9.624-.6h9.025V355.13h-9.025Z" transform="translate(-236.011 -354.53)"/></g><g transform="translate(1.751 3.74)"><path class="a" d="M245.176,340.007h-6.725v-39h6.725Zm-6.125-.6h5.524v-37.8h-5.524Z" transform="translate(-238.451 -301.009)"/></g></g></g></g><g transform="translate(0.3 91.783)"><path class="c" d="M198.748,386.961H173.626l-1.748-3.137H131.386v2.091a4.043,4.043,0,0,0,4.043,4.043H236.945a4.043,4.043,0,0,0,4.043-4.043v-2.091H200.5Z" transform="translate(-131.386 -383.824)"/></g><g transform="translate(0 89.253)"><path class="a" d="M236.827,389.261H135.311a4.347,4.347,0,0,1-4.343-4.343V380.3h40.967l1.749,3.137h24.769L200.2,380.3h40.967v4.622A4.347,4.347,0,0,1,236.827,389.261ZM131.568,380.9v4.022a3.747,3.747,0,0,0,3.743,3.742H236.827a3.747,3.747,0,0,0,3.742-3.742V380.9H200.554l-1.749,3.137H173.332l-1.749-3.137Z" transform="translate(-130.968 -380.297)"/></g></g><g transform="translate(216.119 198.005)"><g transform="translate(0 0)"><circle class="c" cx="10.874" cy="10.874" r="10.874" transform="translate(0 21.47) rotate(-80.835)"/></g><g transform="translate(9.017 6.345)"><path class="a" d="M303.373,226.8c1.28.389,2.685.866,2.672,2.585,0,1.392-1.079,2.308-2.672,2.5v1.768h-1.1v-1.756a5.323,5.323,0,0,1-3.124-1.367l.639-1.28a4.865,4.865,0,0,0,2.485,1.243v-2.51c-1.255-.376-2.609-.841-2.609-2.51,0-1.342,1.029-2.233,2.609-2.408v-1.656h1.1v1.644a5.6,5.6,0,0,1,2.56.878l-.616,1.3a5.674,5.674,0,0,0-1.944-.753Zm-1.1-.376v-1.97c-.59.1-.953.4-.953.878C301.315,225.885,301.7,226.2,302.269,226.424Zm1.1,4.052c.652-.138,1.029-.489,1.029-1.016,0-.59-.427-.9-1.029-1.142Z" transform="translate(-299.145 -221.406)"/></g><g transform="translate(2.66 2.661)"><path class="a" d="M300.092,235.884a9.806,9.806,0,1,1,9.806-9.806A9.818,9.818,0,0,1,300.092,235.884Zm0-19.012a9.206,9.206,0,1,0,9.206,9.206A9.216,9.216,0,0,0,300.092,216.871Z" transform="translate(-290.285 -216.271)"/></g></g><g transform="translate(259.417 281.504)"><path class="a" d="M354.965,345.021A8.037,8.037,0,1,1,363,336.984,8.046,8.046,0,0,1,354.965,345.021Zm0-15.474a7.437,7.437,0,1,0,7.437,7.436A7.445,7.445,0,0,0,354.965,329.547Z" transform="translate(-346.928 -328.947)"/><g transform="translate(0.477 0.476)"><g transform="translate(5.216 5.216)"><path class="e" d="M354.919,336.937c-.036.726-.056,1.488-.056,2.289s.02,1.563.056,2.288c.725.036,1.487.056,2.289.056s1.563-.02,2.289-.056c.035-.725.056-1.487.056-2.288s-.021-1.563-.056-2.289c-.725-.035-1.487-.055-2.289-.055S355.644,336.9,354.919,336.937Z" transform="translate(-354.863 -336.882)"/></g><g transform="translate(10.513 9.195)"><path class="a" d="M366.645,343.2a7.643,7.643,0,0,0,.21-.77,30.677,30.677,0,0,1-4.567.611c-.011.237-.026.472-.041.707A33.233,33.233,0,0,0,366.645,343.2Z" transform="translate(-362.247 -342.428)"/></g><g transform="translate(0 9.195)"><path class="a" d="M347.593,342.428a7.64,7.64,0,0,0,.209.77,33.243,33.243,0,0,0,4.4.548c-.015-.235-.029-.469-.041-.707A30.678,30.678,0,0,1,347.593,342.428Z" transform="translate(-347.593 -342.428)"/></g><g transform="translate(10.513 4.607)"><path class="a" d="M362.288,336.74a30.587,30.587,0,0,1,4.567.611,7.641,7.641,0,0,0-.21-.77,33.227,33.227,0,0,0-4.4-.549C362.262,336.268,362.276,336.5,362.288,336.74Z" transform="translate(-362.247 -336.033)"/></g><g transform="translate(5.272 4.513)"><path class="a" d="M357.23,336.6c.8,0,1.563.02,2.289.055-.012-.241-.027-.472-.043-.7-.741-.036-1.494-.055-2.246-.055s-1.5.019-2.246.055c-.015.232-.031.464-.042.7C355.666,336.625,356.428,336.6,357.23,336.6Z" transform="translate(-354.941 -335.901)"/></g><g transform="translate(5.272 9.849)"><path class="a" d="M357.23,343.395c-.8,0-1.563-.02-2.289-.056.011.241.027.473.042.705.742.035,1.494.055,2.246.055s1.5-.019,2.246-.055c.016-.232.031-.464.043-.705C358.793,343.375,358.031,343.395,357.23,343.395Z" transform="translate(-354.941 -343.339)"/></g><g transform="translate(0 4.607)"><path class="a" d="M347.8,336.582a7.638,7.638,0,0,0-.209.77,30.574,30.574,0,0,1,4.566-.611c.011-.237.026-.473.041-.707A33.237,33.237,0,0,0,347.8,336.582Z" transform="translate(-347.593 -336.033)"/></g><g transform="translate(4.512)"><path class="a" d="M354.586,337.172c0-.8.02-1.563.056-2.289.011-.241.027-.472.042-.7a30.708,30.708,0,0,1,.611-4.567,7.688,7.688,0,0,0-.77.21,33.365,33.365,0,0,0-.548,4.4c-.015.235-.029.47-.041.707-.036.741-.055,1.494-.055,2.246s.019,1.5.055,2.246c.011.238.026.472.041.707a33.25,33.25,0,0,0,.548,4.4,7.648,7.648,0,0,0,.77.209,30.681,30.681,0,0,1-.611-4.566c-.015-.232-.031-.464-.042-.705C354.606,338.735,354.586,337.973,354.586,337.172Z" transform="translate(-353.882 -329.611)"/></g><g transform="translate(9.195)"><path class="a" d="M361.179,329.821a7.624,7.624,0,0,0-.769-.21,30.613,30.613,0,0,1,.611,4.567c.016.232.031.463.043.7.035.726.056,1.488.056,2.289s-.021,1.563-.056,2.288c-.012.241-.027.473-.043.705a30.586,30.586,0,0,1-.611,4.566,7.637,7.637,0,0,0,.769-.209,33.239,33.239,0,0,0,.549-4.4c.015-.235.029-.469.041-.707.035-.742.054-1.494.054-2.246s-.019-1.505-.054-2.246c-.011-.237-.026-.473-.041-.707A33.241,33.241,0,0,0,361.179,329.821Z" transform="translate(-360.41 -329.611)"/></g></g></g><g transform="translate(252.215 269.859)"><circle class="f" cx="4.705" cy="4.705" r="4.705"/></g><g transform="translate(37.225 278.054)"><path class="f" d="M44.688,327.871a3.732,3.732,0,1,1-3.732-3.732A3.732,3.732,0,0,1,44.688,327.871Z" transform="translate(-37.225 -324.139)"/></g><g transform="translate(46.248 161.043)"><circle class="f" cx="5.714" cy="5.714" r="5.714"/></g><g transform="translate(262.922 209.666)"><path class="d" d="M359.505,232.662a3.846,3.846,0,1,1-3.846-3.846A3.846,3.846,0,0,1,359.505,232.662Z" transform="translate(-351.813 -228.816)"/></g><g transform="translate(103.829 164.855)"><g transform="translate(0.3 0.3)"><rect class="b" width="30.112" height="56.878" rx="2.58"/></g><path class="a" d="M158.622,223.833h-26.41a2.153,2.153,0,0,1-2.151-2.151V168.507a2.153,2.153,0,0,1,2.151-2.151h26.41a2.153,2.153,0,0,1,2.15,2.151v53.176A2.153,2.153,0,0,1,158.622,223.833Zm-26.41-56.877a1.552,1.552,0,0,0-1.55,1.55v53.176a1.552,1.552,0,0,0,1.55,1.551h26.41a1.553,1.553,0,0,0,1.55-1.551V168.507a1.552,1.552,0,0,0-1.55-1.55Z" transform="translate(-130.061 -166.356)"/><g transform="translate(1.973 6.295)"><rect class="d" width="26.766" height="43.773"/></g><g transform="translate(13.125 51.09)"><circle class="d" cx="2.23" cy="2.23" r="2.23"/></g></g><g transform="translate(89.633 342.357)"><g transform="translate(0.686 0.435)"><path class="b" d="M128.078,429.592l-2.566-15.217L111.23,420.9l5.289,2.73-3.925,7.606,6.269,3.235,3.925-7.606Z" transform="translate(-111.23 -414.375)"/></g><g transform="translate(0 0)"><path class="a" d="M118.722,434.7l-6.8-3.511,3.925-7.606-5.571-2.876,15.2-6.94,2.731,16.195-5.556-2.868Zm-5.993-3.769,5.736,2.96,3.925-7.606,5.023,2.593-2.4-14.24-13.364,6.1,5.008,2.584Z" transform="translate(-110.274 -413.768)"/></g></g><g transform="translate(130.563 341.771)"><g transform="translate(0.3 0.3)"><rect class="b" width="48.843" height="6.316"/></g><g transform="translate(0.3 2.405)"><rect class="d" width="42.106" height="4.211"/></g><g transform="translate(0 0)"><path class="a" d="M216.768,419.867H167.324v-6.916h49.444Zm-48.844-.6h48.243v-5.716H167.924Z" transform="translate(-167.324 -412.951)"/></g><g transform="translate(0.3 9.142)"><rect class="a" width="1.474" height="1.474"/><g transform="translate(2.702)"><rect class="a" width="1.474" height="1.474"/></g><g transform="translate(5.404)"><rect class="a" width="1.474" height="1.474"/></g><g transform="translate(8.105)"><rect class="a" width="1.474" height="1.474"/></g><g transform="translate(10.807)"><rect class="a" width="1.474" height="1.474"/></g><g transform="translate(13.509)"><rect class="a" width="1.474" height="1.474"/></g><g transform="translate(16.211)"><rect class="a" width="1.474" height="1.474"/></g><g transform="translate(18.913)"><rect class="a" width="1.474" height="1.474"/></g></g></g><g transform="translate(221.595 229.131)"><g transform="translate(0.3 0.3)"><rect class="b" width="42.658" height="22.305"/></g><g transform="translate(0.3 3.646)"><rect class="d" width="42.658" height="18.959"/></g><path class="a" d="M337.467,278.853H294.209v-22.9h43.258Zm-42.658-.6h42.058v-21.7H294.809Z" transform="translate(-294.209 -255.948)"/><g transform="translate(0.3 24.256)"><rect class="a" width="42.658" height="0.6"/></g><g transform="translate(0.3 26.208)"><rect class="a" width="42.658" height="0.6"/></g><g transform="translate(0.3 28.16)"><rect class="a" width="42.658" height="0.6"/></g><g transform="translate(0.3 30.111)"><rect class="a" width="42.658" height="0.6"/></g><g transform="translate(13.441 4.659)"><circle class="b" cx="6.273" cy="6.273" r="6.273" transform="translate(0 4.771) rotate(-22.35)"/></g><g transform="translate(15.055 6.273)"><path class="a" d="M321.768,277.838a6.573,6.573,0,1,1,6.573-6.573A6.581,6.581,0,0,1,321.768,277.838Zm0-12.547a5.973,5.973,0,1,0,5.973,5.973A5.98,5.98,0,0,0,321.768,265.292Z" transform="translate(-315.194 -264.692)"/></g><g transform="translate(5.458 11.731)"><rect class="f" width="5.855" height="1.952"/><g transform="translate(26.487)"><rect class="f" width="5.855" height="1.952"/></g></g></g><g transform="translate(79.749 175.53)"><g transform="translate(0.3 0.3)"><circle class="b" cx="8.992" cy="8.992" r="8.992"/></g><g transform="translate(4.746 4.733)"><path class="a" d="M103.112,190.136v-.025a1.982,1.982,0,1,1,3.922-.026v.026a2.119,2.119,0,0,1-1.974,2.279A2.092,2.092,0,0,1,103.112,190.136Zm3.26,0v-.025c0-.994-.6-1.732-1.312-1.732-.751,0-1.286.776-1.286,1.706v.026c0,1.006.6,1.732,1.311,1.732C105.837,191.843,106.372,191.092,106.372,190.136Zm-2.05,6.33,6.2-8.444a.29.29,0,0,1,.243-.141.272.272,0,0,1,.28.268.261.261,0,0,1-.05.166l-6.2,8.444a.29.29,0,0,1-.242.14.271.271,0,0,1-.28-.268A.256.256,0,0,1,104.322,196.466Zm3.96-1.771v-.026a1.982,1.982,0,1,1,3.923-.025v.025a2.119,2.119,0,0,1-1.974,2.28A2.092,2.092,0,0,1,108.282,194.7Zm3.261,0v-.026c0-.993-.6-1.732-1.312-1.732-.751,0-1.286.778-1.286,1.707v.025c0,1.007.6,1.733,1.311,1.733C111.007,196.4,111.543,195.651,111.543,194.7Z" transform="translate(-103.112 -187.832)"/></g><path class="a" d="M105.789,199.819a9.292,9.292,0,1,1,9.292-9.292A9.3,9.3,0,0,1,105.789,199.819Zm0-17.983a8.691,8.691,0,1,0,8.691,8.691A8.7,8.7,0,0,0,105.789,181.835Z" transform="translate(-96.497 -181.235)"/></g><g transform="translate(143.607 199.555)"><g transform="translate(17.768)"><path class="a" d="M214.217,218.478l-.845-3.006-2.929.873-.172-.575,3.513-1.047,1.01,3.592Z" transform="translate(-210.272 -214.723)"/></g><g transform="translate(0 0.817)"><path class="a" d="M185.986,228.751l-.48-.36,5.648-7.532,3.132,5.369,5.817-8.053,2.226,3.562,3.777-5.875.5.325-4.289,6.671-2.255-3.608-5.834,8.078-3.141-5.385Z" transform="translate(-185.506 -215.862)"/></g></g><g transform="translate(174.476 165.553)"><g transform="translate(0.3 0.3)"><rect class="b" width="37.318" height="58.876" rx="2.51"/></g><g transform="translate(2.148 0.3)"><rect class="f" width="2.376" height="58.876"/></g><path class="a" d="M264.349,226.805H230.633a2.1,2.1,0,0,1-2.1-2.1V169.43a2.1,2.1,0,0,1,2.1-2.1h33.717a2.1,2.1,0,0,1,2.1,2.1V224.7A2.1,2.1,0,0,1,264.349,226.805Zm-33.717-58.876a1.5,1.5,0,0,0-1.5,1.5V224.7a1.5,1.5,0,0,0,1.5,1.5h33.717a1.5,1.5,0,0,0,1.5-1.5V169.43a1.5,1.5,0,0,0-1.5-1.5Z" transform="translate(-228.532 -167.329)"/><g transform="translate(7.428 9.855)"><g transform="translate(0.3 0.081)"><rect class="b" width="26.138" height="11.353"/></g><g transform="translate(0.3 0.3)"><rect class="b" width="26.138" height="11.134"/></g><g transform="translate(0.3 2.483)"><rect class="d" width="26.138" height="8.951"/></g><path class="a" d="M265.623,192.8H238.885V181.066h26.738Zm-26.138-.6h25.537V181.666H239.485Z" transform="translate(-238.885 -181.066)"/></g><g transform="translate(2.701 16.379)"><rect class="a" width="0.6" height="33.757"/></g><g transform="translate(7.73 26.27)"><path class="a" d="M247.046,208.9h-7.74v-4.957h7.74Zm-7.14-.6h6.539v-3.756h-6.539Z" transform="translate(-239.306 -203.945)"/><g transform="translate(9.197)"><path class="a" d="M259.865,208.9h-7.74v-4.957h7.74Zm-7.139-.6h6.539v-3.756h-6.539Z" transform="translate(-252.125 -203.945)"/></g><g transform="translate(18.394)"><path class="a" d="M272.684,208.9h-7.74v-4.957h7.74Zm-7.139-.6h6.539v-3.756h-6.539Z" transform="translate(-264.944 -203.945)"/></g></g><g transform="translate(7.73 32.87)"><path class="a" d="M247.046,218.1h-7.74v-4.957h7.74Zm-7.14-.6h6.539v-3.756h-6.539Z" transform="translate(-239.306 -213.145)"/><g transform="translate(9.197)"><path class="a" d="M259.865,218.1h-7.74v-4.957h7.74Zm-7.139-.6h6.539v-3.756h-6.539Z" transform="translate(-252.125 -213.145)"/></g><g transform="translate(18.394)"><path class="a" d="M272.684,218.1h-7.74v-4.957h7.74Zm-7.139-.6h6.539v-3.756h-6.539Z" transform="translate(-264.944 -213.145)"/></g></g><g transform="translate(7.73 39.471)"><path class="a" d="M247.046,227.3h-7.74v-4.957h7.74Zm-7.14-.6h6.539v-3.756h-6.539Z" transform="translate(-239.306 -222.345)"/><g transform="translate(9.197)"><path class="a" d="M259.865,227.3h-7.74v-4.957h7.74Zm-7.139-.6h6.539v-3.756h-6.539Z" transform="translate(-252.125 -222.345)"/></g><g transform="translate(18.394)"><path class="a" d="M272.684,227.3h-7.74v-4.957h7.74Zm-7.139-.6h6.539v-3.756h-6.539Z" transform="translate(-264.944 -222.345)"/></g></g><g transform="translate(7.73 46.071)"><path class="a" d="M247.046,236.5h-7.74v-4.957h7.74Zm-7.14-.6h6.539v-3.756h-6.539Z" transform="translate(-239.306 -231.545)"/><g transform="translate(9.197)"><path class="a" d="M259.865,236.5h-7.74v-4.957h7.74Zm-7.139-.6h6.539v-3.756h-6.539Z" transform="translate(-252.125 -231.545)"/></g><g transform="translate(18.394)"><path class="a" d="M272.684,236.5h-7.74v-4.957h7.74Zm-7.139-.6h6.539v-3.756h-6.539Z" transform="translate(-264.944 -231.545)"/></g></g></g><g transform="translate(52.121 262.763)"><g transform="translate(4.955)"><g transform="translate(0 22.895)"><g transform="translate(0.3 0.301)"><path class="b" d="M88.619,335.156H65.314v41.349l1.528,2.18,1.955-2.177,2.16,2.177,1.955-2.177,2.16,2.177,1.958-2.32,1.832,2.32,2.16-2.177,1.955,2.177,2.16-2.177,1.955,2.177,1.528-2.18Z" transform="translate(-65.314 -335.156)"/></g><path class="a" d="M87,379.049l-2-2.221L82.847,379l-1.956-2.177-2.174,2.192-1.814-2.3-1.933,2.29L72.8,376.828,70.849,379l-2.16-2.177-1.994,2.221-1.8-2.567V334.737H88.8v41.745Zm-18.335-3.1,2.16,2.177,1.955-2.177,2.152,2.17,1.984-2.351,1.85,2.343,2.144-2.162,1.956,2.177,2.159-2.177,1.916,2.131,1.256-1.793V335.337H65.5v40.955l1.257,1.793Z" transform="translate(-64.895 -334.737)"/><g transform="translate(3.169 23.102)"><g transform="translate(0 12.032)"><g transform="translate(0 0)"><rect class="a" width="1.203" height="1.083"/></g><g transform="translate(2.647)"><g transform="translate(7.438)"><rect class="a" width="7.482" height="1.083"/></g><rect class="a" width="6.393" height="1.083"/></g></g><g transform="translate(0 9.626)"><rect class="a" width="1.203" height="1.083"/><g transform="translate(2.647)"><rect class="a" width="6.393" height="1.083"/><g transform="translate(7.438)"><rect class="a" width="7.482" height="1.083"/></g></g></g><g transform="translate(0 7.219)"><g transform="translate(0 0)"><rect class="a" width="1.203" height="1.083"/></g><g transform="translate(2.647)"><rect class="a" width="6.393" height="1.083"/><g transform="translate(7.438)"><rect class="a" width="7.482" height="1.083"/></g></g></g><g transform="translate(0 4.813)"><rect class="a" width="1.203" height="1.083"/><g transform="translate(2.647)"><rect class="a" width="6.393" height="1.083"/><g transform="translate(7.438)"><rect class="a" width="7.482" height="1.083"/></g></g></g><g transform="translate(0 2.407)"><rect class="a" width="1.203" height="1.083"/><g transform="translate(2.647)"><rect class="a" width="6.393" height="1.083"/><g transform="translate(7.438)"><rect class="a" width="7.482" height="1.083"/></g></g></g><g transform="translate(0 0)"><rect class="a" width="1.203" height="1.083"/></g><g transform="translate(2.647)"><rect class="a" width="6.393" height="1.083"/><g transform="translate(7.438)"><rect class="a" width="7.482" height="1.083"/></g></g></g></g><g transform="translate(4.505 23.195)"><path class="a" d="M76.046,356.272h-.9a3.974,3.974,0,0,1-3.97-3.97V335.156h.6V352.3a3.374,3.374,0,0,0,3.37,3.37h.9Z" transform="translate(-71.174 -335.156)"/></g><g transform="translate(9.306)"><g transform="translate(0.3 0.482)"><path class="b" d="M78.284,347.026h23.305V305.677l-1.528-2.18-1.955,2.177-2.16-2.177-1.955,2.177-2.16-2.177-1.958,2.32-1.832-2.32-2.16,2.177L83.927,303.5l-2.16,2.177L79.812,303.5l-1.528,2.18Z" transform="translate(-78.284 -303.496)"/></g><path class="a" d="M101.771,347.136h-23.9V305.393l1.8-2.568,2,2.221,2.159-2.177,1.955,2.177,2.175-2.192,1.814,2.3,1.933-2.29,2.167,2.184,1.956-2.177,2.159,2.177,2-2.221,1.8,2.567Zm-23.305-.6h22.705V305.581l-1.257-1.794L98,305.92l-2.159-2.177-1.955,2.177-2.153-2.17L89.747,306.1l-1.85-2.343-2.145,2.162L83.8,303.743l-2.159,2.177-1.916-2.132-1.257,1.794Z" transform="translate(-77.866 -302.825)"/></g><g transform="translate(12.475 8.095)"><rect class="a" width="1.203" height="1.083"/><g transform="translate(2.647)"><rect class="a" width="6.706" height="1.083"/><g transform="translate(7.543)"><rect class="a" width="7.377" height="1.083"/></g></g><g transform="translate(0 2.406)"><g transform="translate(0 0)"><rect class="a" width="1.203" height="1.083"/></g><g transform="translate(2.647)"><rect class="a" width="6.706" height="1.083"/><g transform="translate(7.543)"><rect class="a" width="7.377" height="1.083"/></g></g></g><g transform="translate(0 4.813)"><g transform="translate(0 0)"><rect class="a" width="1.203" height="1.083"/></g><g transform="translate(2.647)"><rect class="a" width="6.706" height="1.083"/><g transform="translate(7.543)"><rect class="a" width="7.377" height="1.083"/></g></g></g><g transform="translate(0 7.219)"><rect class="a" width="1.203" height="1.083"/><g transform="translate(2.647)"><rect class="a" width="6.706" height="1.083"/><g transform="translate(7.543)"><rect class="a" width="7.377" height="1.083"/></g></g></g><g transform="translate(0 9.626)"><g transform="translate(0 0)"><rect class="a" width="1.203" height="1.083"/></g><g transform="translate(2.647)"><rect class="a" width="6.706" height="1.083"/><g transform="translate(7.543)"><rect class="a" width="7.377" height="1.083"/></g></g></g><g transform="translate(0 12.032)"><rect class="a" width="1.203" height="1.083"/><g transform="translate(2.647)"><g transform="translate(7.543)"><rect class="a" width="7.377" height="1.083"/></g><rect class="a" width="6.706" height="1.083"/></g></g><g transform="translate(0 14.439)"><rect class="a" width="1.203" height="1.083"/><g transform="translate(2.647)"><rect class="a" width="6.706" height="1.083"/><g transform="translate(7.543)"><rect class="a" width="7.377" height="1.083"/></g></g></g><g transform="translate(0 16.845)"><rect class="a" width="1.203" height="1.083"/><g transform="translate(2.647)"><g transform="translate(7.543)"><rect class="a" width="7.377" height="1.083"/></g><rect class="a" width="6.706" height="1.083"/></g></g><g transform="translate(0 19.252)"><rect class="a" width="1.203" height="1.083"/><g transform="translate(2.647)"><rect class="a" width="6.706" height="1.083"/><g transform="translate(7.543)"><rect class="a" width="7.377" height="1.083"/></g></g></g><g transform="translate(0 21.658)"><rect class="a" width="1.203" height="1.083"/><g transform="translate(2.647)"><g transform="translate(7.543)"><rect class="a" width="7.377" height="1.083"/></g><rect class="a" width="6.706" height="1.083"/></g></g><g transform="translate(0 24.065)"><rect class="a" width="1.203" height="1.083"/><g transform="translate(2.647)"><rect class="a" width="6.706" height="1.083"/><g transform="translate(7.543)"><rect class="a" width="7.377" height="1.083"/></g></g></g><g transform="translate(0 26.471)"><rect class="a" width="1.203" height="1.083"/><g transform="translate(2.647)"><g transform="translate(7.543)"><rect class="a" width="7.377" height="1.083"/></g><rect class="a" width="6.706" height="1.083"/></g></g><g transform="translate(0 28.878)"><rect class="a" width="1.203" height="1.083"/><g transform="translate(2.647)"><rect class="a" width="6.706" height="1.083"/><g transform="translate(7.543)"><rect class="a" width="7.377" height="1.083"/></g></g></g></g></g><g transform="translate(1.951 62.907)"><g transform="translate(0.3 0.3)"><rect class="b" width="29.833" height="3.555"/></g><path class="a" d="M91.141,394.663H60.708v-4.155H91.141Zm-29.832-.6H90.541v-2.954H61.308Z" transform="translate(-60.708 -390.508)"/></g><g transform="translate(0 66.532)"><g transform="translate(0.3 0.3)"><rect class="b" width="33.736" height="3.555"/></g><g transform="translate(0.3 1.434)"><rect class="d" width="33.736" height="2.421"/></g><path class="a" d="M92.325,399.715H57.988V395.56H92.325Zm-33.736-.6H91.724V396.16H58.588Z" transform="translate(-57.988 -395.56)"/></g></g><g transform="translate(218.833 271.031)"><g transform="translate(10.729 15.774)"><path class="b" d="M328.551,372.992V349.9a7.5,7.5,0,0,0-2.2-5.3l-8.26-8.26H305.314v27.106s4.461,4.74,4.182,8.922C309.5,372.086,328.551,372.992,328.551,372.992Z" transform="translate(-305.314 -336.337)"/></g><g transform="translate(13.517 0.501)"><g transform="translate(0 24.902)"><path class="d" d="M309.531,350.168a3.138,3.138,0,0,1-.331-.411v10.229h5.018V354.96Z" transform="translate(-309.2 -349.757)"/></g><path class="d" d="M309.2,315.048V336.44a3.031,3.031,0,0,1,4.768-.423l.25.256V315.048Z" transform="translate(-309.2 -315.048)"/></g><g transform="translate(23.299 15.562)"><path class="a" d="M333.8,372.909h-.6v-23.1a7.146,7.146,0,0,0-2.108-5.088l-8.26-8.26.425-.425,8.259,8.26a7.746,7.746,0,0,1,2.284,5.513Z" transform="translate(-322.834 -336.041)"/></g><g transform="translate(10.246 35.849)"><path class="a" d="M309.632,380.419h-.6v-.659a7.149,7.149,0,0,0-2.108-5.088,7.746,7.746,0,0,1-2.284-5.514v-4.841h.6v4.841a7.15,7.15,0,0,0,2.108,5.089,7.745,7.745,0,0,1,2.284,5.513Z" transform="translate(-304.641 -364.318)"/></g><path class="a" d="M309.9,350.5H294.632a4.278,4.278,0,0,1-4.273-4.273v-27.6a4.278,4.278,0,0,1,4.273-4.273H309.9a4.278,4.278,0,0,1,4.273,4.273V341.89l-5.74-5.86a2.723,2.723,0,0,0-2.055-.842,2.779,2.779,0,0,0-2.023.917,2.808,2.808,0,0,0,.07,3.848l7.532,7.7-.132.2a12.583,12.583,0,0,0-1.134,2.395l-.062.173-.283.037A3.129,3.129,0,0,1,309.9,350.5Zm-15.265-35.548a3.677,3.677,0,0,0-3.673,3.673v27.6a3.677,3.677,0,0,0,3.673,3.673H309.9a2.1,2.1,0,0,0,.287-.024,13.729,13.729,0,0,1,1.007-2.143l-7.2-7.359a3.408,3.408,0,0,1-.085-4.671,3.374,3.374,0,0,1,2.456-1.114,3.425,3.425,0,0,1,2.5,1.022l4.711,4.81v-21.8a3.676,3.676,0,0,0-3.673-3.673Z" transform="translate(-290.359 -314.35)"/><g transform="translate(19.034 33.175)"><path class="a" d="M319.046,373.077c-4.691-5.544-.276-12.417-.231-12.486l.5.329c-.043.066-4.211,6.572.187,11.77Z" transform="translate(-316.889 -360.591)"/></g><g transform="translate(23.299 26.593)"><rect class="a" width="0.6" height="3.512" transform="translate(0 0.424) rotate(-45.003)"/></g><g transform="translate(11.478 51.85)"><g transform="translate(0.3 0.3)"><path class="b" d="M306.776,403.769V387.04h25.189v16.729" transform="translate(-306.776 -387.04)"/></g><g transform="translate(0.3 3.175)"><rect class="d" width="25.189" height="13.853"/></g><path class="a" d="M332.147,403.651h-.6V387.222H306.958v16.429h-.6V386.622h25.789Z" transform="translate(-306.357 -386.622)"/><g transform="translate(2.308 5.192)"><path class="a" d="M311.46,397.631a1.886,1.886,0,1,1,1.887-1.887A1.889,1.889,0,0,1,311.46,397.631Zm0-3.173a1.286,1.286,0,1,0,1.286,1.286A1.288,1.288,0,0,0,311.46,394.458Z" transform="translate(-309.574 -393.858)"/></g></g><g transform="translate(6.713 5.589)"><rect class="f" width="1.2" height="16.45"/></g><g transform="translate(6.713 23.293)"><rect class="f" width="1.2" height="1.952"/></g><g transform="translate(6.713 26.918)"><rect class="f" width="1.2" height="1.952"/></g><g transform="translate(3.368 5.589)"><rect class="f" width="1.2" height="10.595"/></g></g><g transform="translate(148.835 169.22)"><path class="g" d="M208.149,180.12a7.679,7.679,0,1,0-15.357,0c0,4.295,7.679,14.446,7.679,14.446S208.149,184.935,208.149,180.12Z" transform="translate(-192.792 -172.441)"/><g transform="translate(2.563 2.678)"><g transform="translate(0.3 0.301)"><circle class="b" cx="4.816" cy="4.816" r="4.816"/></g><path class="a" d="M201.48,186.405a5.116,5.116,0,1,1,5.115-5.115A5.121,5.121,0,0,1,201.48,186.405Zm0-9.631A4.516,4.516,0,1,0,206,181.29,4.521,4.521,0,0,0,201.48,176.774Z" transform="translate(-196.365 -176.174)"/></g></g><g transform="translate(227.94 168.934)"><g transform="translate(0.3 0.3)"><circle class="b" cx="10.624" cy="10.624" r="10.624"/></g><path class="a" d="M313.977,193.891A10.924,10.924,0,1,1,324.9,182.966,10.936,10.936,0,0,1,313.977,193.891Zm0-21.248A10.324,10.324,0,1,0,324.3,182.966,10.336,10.336,0,0,0,313.977,172.642Z" transform="translate(-303.053 -172.042)"/><g transform="translate(3.513 7.776)"><g transform="translate(3.017 1.232)"><path class="a" d="M312.432,185.152h7.451a.277.277,0,1,0,0-.554h-7.451a.277.277,0,0,0,0,.554Z" transform="translate(-312.155 -184.598)"/></g><path class="a" d="M320.5,183.692a.276.276,0,0,0-.347.181l-1.663,5.258h-6.859l-1.97-6.25h-1.435a.277.277,0,0,0,0,.554h1.028l1.971,6.25H318.9l1.785-5.645A.277.277,0,0,0,320.5,183.692Z" transform="translate(-307.95 -182.881)"/><g transform="translate(3.571 2.909)"><path class="a" d="M319.824,187.213a.277.277,0,0,0-.278-.277H313.2a.277.277,0,1,0,0,.555h6.341A.277.277,0,0,0,319.824,187.213Z" transform="translate(-312.927 -186.936)"/></g><g transform="translate(4.249 4.587)"><path class="a" d="M314.149,189.275a.277.277,0,1,0,0,.554h4.987a.277.277,0,1,0,0-.554Z" transform="translate(-313.872 -189.275)"/></g><g transform="translate(3.898 7.497)"><path class="a" d="M314.168,193.33a.785.785,0,1,0,.785.785A.785.785,0,0,0,314.168,193.33Z" transform="translate(-313.383 -193.33)"/></g><g transform="translate(8.955 7.497)"><path class="a" d="M321.218,193.33a.785.785,0,1,0,.785.785A.785.785,0,0,0,321.218,193.33Z" transform="translate(-320.432 -193.33)"/></g></g><g transform="translate(12.028 4.196)"><path class="d" d="M326.29,181.127a3.236,3.236,0,1,1-3.236-3.236A3.235,3.235,0,0,1,326.29,181.127Z" transform="translate(-319.818 -177.891)"/><g transform="translate(0.678 0.678)"><path class="a" d="M323.321,183.953a2.558,2.558,0,1,1,2.558-2.558A2.562,2.562,0,0,1,323.321,183.953Zm0-4.817a2.258,2.258,0,1,0,2.258,2.258A2.261,2.261,0,0,0,323.321,179.136Z" transform="translate(-320.763 -178.836)"/></g><g transform="translate(1.611 1.611)"><path class="a" d="M324.859,181.306h-.715v-.715a.455.455,0,1,0-.91,0v.715h-.715a.455.455,0,1,0,0,.91h.715v.715a.455.455,0,0,0,.91,0v-.715h.715a.455.455,0,0,0,0-.91Z" transform="translate(-322.063 -180.136)"/></g></g></g><g transform="translate(201.944 346.216)"><g transform="translate(0 0.859)"><rect class="f" width="11.323" height="11.323"/></g><g transform="translate(1.175 2.035)"><path class="a" d="M277.431,430.956h-8.974v-8.974h8.974Zm-8.674-.3h8.374v-8.373h-8.374Z" transform="translate(-268.457 -421.982)"/></g><g transform="translate(3.064)"><path class="a" d="M280.146,419.146l-6.021,6.131-.438-1.642h-2.6l2.121,4.319,10.218-8.807Z" transform="translate(-271.09 -419.146)"/></g></g><g transform="translate(248.834 196.256)"><path class="a" d="M339.687,219.861a4.165,4.165,0,0,1-2.3.649,4.05,4.05,0,0,1-3.137-1.375,4.768,4.768,0,0,1-1.113-2.658h-.958v-.758h.881v-.232c0-.248.015-.479.031-.7h-.912v-.773H333.2a4.9,4.9,0,0,1,1.268-2.612,4.075,4.075,0,0,1,3.06-1.283,4.378,4.378,0,0,1,2.055.5l-.309,1.019a3.558,3.558,0,0,0-1.73-.433,2.691,2.691,0,0,0-2.04.85,3.649,3.649,0,0,0-.927,1.963h4.312v.773h-4.451c-.016.2-.031.433-.031.649v.278h4.482v.758H334.51a3.718,3.718,0,0,0,.849,2.025,2.939,2.939,0,0,0,2.18.9,4.007,4.007,0,0,0,1.885-.51Z" transform="translate(-332.176 -210.125)"/></g></g></svg>