<svg xmlns="http://www.w3.org/2000/svg" width="224.241" height="167.109" viewBox="0 0 224.241 167.109"><defs><style>.a,.h{fill:#ebebeb;}.b{fill:#f0f0f0;}.c{fill:#f5f5f5;}.d{fill:#e7e7e7;}.e{fill:#fafafa;}.aa,.ab,.ac,.f,.v,.x,.y{fill:#fff;}.g{fill:#e0e0e0;}.aa,.h{opacity:0.5;}.i,.j,.l,.w,.z{fill:#007cff;}.j,.q,.r,.x{opacity:0.2;}.k{fill:#0048cd;}.ab,.l{opacity:0.6;}.m,.n{fill:none;stroke:#0048cd;stroke-width:0.1px;}.n{stroke-linecap:round;stroke-linejoin:round;}.o{fill:#263238;}.p{fill:#f2f2f2;}.s{fill:#0894fe;}.t{fill:#c4c9ce;}.u{fill:#ffc3bd;}.v,.z{opacity:0.8;}.w{opacity:0.3;}.y{opacity:0.4;}.ac{opacity:0.7;}</style></defs><g transform="translate(-30.492 -191.828)"><g transform="translate(30.492 191.828)"><rect class="a" width="224.241" height="0.112" transform="translate(0 146.854)"/><rect class="a" width="11.418" height="0.112" transform="translate(130.153 149.908)"/><rect class="a" width="27.058" height="0.112" transform="translate(177.2 152.335)"/><rect class="a" width="27.955" height="0.112" transform="translate(99.769 149.964)"/><rect class="a" width="5.849" height="0.112" transform="translate(75.794 153.319)"/><rect class="a" width="26.629" height="0.112" transform="translate(87.323 153.319)"/><rect class="a" width="17.246" height="0.112" transform="translate(23.527 151.425)"/><path class="a" d="M145.979,318.68h-86.6a2.562,2.562,0,0,1-2.559-2.56V194.388a2.562,2.562,0,0,1,2.559-2.56h86.6a2.563,2.563,0,0,1,2.56,2.56V316.12A2.563,2.563,0,0,1,145.979,318.68Zm-86.6-126.74a2.451,2.451,0,0,0-2.447,2.448V316.12a2.451,2.451,0,0,0,2.447,2.448h86.6a2.451,2.451,0,0,0,2.447-2.448V194.388a2.451,2.451,0,0,0-2.447-2.448Z" transform="translate(-39.683 -191.828)"/><path class="a" d="M295.011,318.68h-86.6a2.562,2.562,0,0,1-2.559-2.56V194.388a2.562,2.562,0,0,1,2.559-2.56h86.6a2.563,2.563,0,0,1,2.56,2.56V316.12A2.563,2.563,0,0,1,295.011,318.68Zm-86.6-126.74a2.451,2.451,0,0,0-2.447,2.448V316.12a2.451,2.451,0,0,0,2.447,2.448h86.6a2.451,2.451,0,0,0,2.448-2.448V194.388a2.451,2.451,0,0,0-2.448-2.448Z" transform="translate(-91.709 -191.828)"/></g><g transform="translate(60.016 198.047)"><g transform="translate(0 84.203)"><g transform="translate(8.768)"><path class="b" d="M105.127,330.746s-.2,5.844-7.9,5.844-7.9-5.844-7.9-5.844Z" transform="translate(-89.32 -330.746)"/></g><g transform="translate(27.445)"><path class="b" d="M133.822,330.746s-.2,5.844-7.9,5.844-7.9-5.844-7.9-5.844Z" transform="translate(-118.015 -330.746)"/></g><g transform="translate(0 5.844)"><g transform="translate(2.471 3.836)"><rect class="b" width="17.684" height="42.78" transform="translate(0 0)"/><rect class="b" width="57.184" height="3.972" transform="translate(3.396 42.78)"/><rect class="c" width="46.29" height="42.78" transform="translate(63.975 42.78) rotate(180)"/><rect class="b" width="32.385" height="13.164" transform="translate(57.022 18.368) rotate(180)"/><rect class="b" width="32.385" height="13.164" transform="translate(57.022 35.281) rotate(180)"/></g><rect class="b" width="48.647" height="3.836" transform="translate(20.156)"/><rect class="d" width="20.156" height="3.836" transform="translate(20.156 3.836) rotate(180)"/></g></g><g transform="translate(50.074)"><g transform="translate(1.432 0.979)"><rect class="e" width="90.124" height="64.698" transform="translate(4.698 2.225)"/><path class="f" d="M170.076,271,193,206.3h17.2L187.279,271Z" transform="translate(-160.249 -204.079)"/><path class="f" d="M241.144,271l22.923-64.7h6.275L247.419,271Z" transform="translate(-185.059 -204.079)"/><path class="g" d="M254.1,202.886H155.38a.4.4,0,0,0-.4.4h0a.4.4,0,0,0,.4.4H254.1a.4.4,0,0,0,.4-.4h0A.4.4,0,0,0,254.1,202.886Z" transform="translate(-154.979 -202.886)"/><rect class="b" width="1.068" height="64.976" transform="translate(50.294 67.062) rotate(180)"/><rect class="g" width="0.534" height="64.976" transform="translate(50.828 67.062) rotate(180)"/><rect class="b" width="1.068" height="91.37" transform="translate(4.075 35.108) rotate(-90)"/><path class="b" d="M252.609,270.223h0V205.347H161.24v64.876h0v1.068h91.369Zm-90.3,0V206.415h89.234v63.808Z" transform="translate(-157.165 -203.745)"/><rect class="g" width="0.534" height="65.944" transform="translate(95.979 67.546) rotate(180)"/></g><path class="h" d="M281.259,201.382v75.979h19.289l-3.537-75.979Z" transform="translate(-197.631 -201.382)"/><path class="h" d="M172.069,201.382v75.979H152.78l3.537-75.979Z" transform="translate(-152.78 -201.382)"/></g><g transform="translate(80.356 53.899)"><g transform="translate(0 32.141)"><rect class="a" width="94.702" height="15.614" transform="translate(1.293)"/><rect class="c" width="34.839" height="13.754" transform="translate(60.016 0.93)"/><rect class="c" width="34.839" height="13.754" transform="translate(23.938 0.93)"/><path class="c" d="M229.7,396.537H227.6l4.471-38.981h2.093Z" transform="translate(-209.183 -341.942)"/><path class="c" d="M201.4,396.537H199.3l4.471-38.981h2.093Z" transform="translate(-199.304 -341.942)"/><path class="c" d="M314.855,396.537h2.093l-4.471-38.981h-2.093Z" transform="translate(-238.081 -341.942)"/><path class="c" d="M343.155,396.537h2.093l-4.471-38.981h-2.093Z" transform="translate(-247.961 -341.942)"/></g><g transform="translate(22.314)"><path class="g" d="M265.925,307.156H258.6l-3.048,17.192h7.323Z" transform="translate(-241.254 -292.207)"/><path class="d" d="M274.546,284.189H233.585l1.246,24.916h40.961Z" transform="translate(-233.585 -284.189)"/><path class="e" d="M274.141,285.1H235.123l1.187,23.734h39.018Z" transform="translate(-234.122 -284.506)"/></g></g><g transform="translate(141.342 50.385)"><rect class="g" width="1.442" height="0.665" rx="0.332" transform="translate(13.745 33.576) rotate(-180)"/><path class="d" d="M330.59,285.092l-8.88,8.88a6.279,6.279,0,1,1,8.88-8.88Z" transform="translate(-302.379 -280.348)"/><path class="d" d="M316.9,284.76l3.462,3.462,4.483-4.483-3.461-3.462a3.17,3.17,0,0,0-4.483,0h0A3.17,3.17,0,0,0,316.9,284.76Z" transform="translate(-301.016 -278.985)"/><rect class="d" width="0.749" height="20.898" transform="translate(1.102 16) rotate(-135)"/><rect class="d" width="0.749" height="20.898" transform="matrix(-0.86, 0.51, -0.51, -0.86, 11.753, 33.585)"/><circle class="d" cx="1.292" cy="1.292" r="1.292" transform="translate(14.587)"/><circle class="d" cx="0.824" cy="0.824" r="0.824" transform="translate(0 14.925)"/><path class="d" d="M305.328,329.856h6.086l.478,2.417h-7.041Z" transform="translate(-297.135 -296.617)"/></g></g><ellipse class="c" cx="86.956" cy="5.078" rx="86.956" ry="5.078" transform="translate(55.657 348.78)"/><g transform="translate(70.336 208.518)"><g transform="translate(0 0)"><path class="i" d="M205.951,289.18H98.964a5.552,5.552,0,0,1-5.507-5.382l-1.405-60.6a5.249,5.249,0,0,1,5.257-5.382H204.3A5.551,5.551,0,0,1,209.8,223.2l1.405,60.6A5.249,5.249,0,0,1,205.951,289.18Z" transform="translate(-91.826 -217.589)"/><path class="i" d="M205.831,289.283H98.844a5.767,5.767,0,0,1-5.731-5.6l-1.406-60.6a5.474,5.474,0,0,1,5.481-5.611H204.175a5.768,5.768,0,0,1,5.731,5.6l1.405,60.6a5.474,5.474,0,0,1-5.481,5.611ZM97.188,217.918a5.024,5.024,0,0,0-5.033,5.152l1.406,60.6a5.315,5.315,0,0,0,5.282,5.162H205.831a5.025,5.025,0,0,0,5.033-5.152l-1.405-60.6a5.316,5.316,0,0,0-5.283-5.162Z" transform="translate(-91.706 -217.469)"/></g><g transform="translate(1.897 -1)"><path class="f" d="M207.329,289.18H100.342a5.552,5.552,0,0,1-5.507-5.382L93.43,223.2a5.249,5.249,0,0,1,5.257-5.382H205.674a5.551,5.551,0,0,1,5.507,5.382l1.405,60.6A5.249,5.249,0,0,1,207.329,289.18Z" transform="translate(-93.204 -217.589)"/><path class="i" d="M207.209,289.283H100.222a5.767,5.767,0,0,1-5.731-5.6l-1.406-60.6a5.473,5.473,0,0,1,5.481-5.611H205.553a5.768,5.768,0,0,1,5.731,5.6l1.405,60.6a5.474,5.474,0,0,1-5.481,5.611ZM98.566,217.918a5.024,5.024,0,0,0-5.033,5.152l1.406,60.6a5.315,5.315,0,0,0,5.282,5.162H207.209a5.025,5.025,0,0,0,5.033-5.152l-1.405-60.6a5.316,5.316,0,0,0-5.283-5.162Z" transform="translate(-93.084 -217.469)"/></g><g transform="translate(11.092 7.675)"><path class="g" d="M121.857,238.768l-7.234-6.736c3.422-3.7,9.5-3.7,13.472,0a10.5,10.5,0,0,1,2.781,4.271Z" transform="translate(-110.798 -229.26)"/><path class="j" d="M118.3,240.481l-9.428.83a9.334,9.334,0,0,1,.236-4.088,8.645,8.645,0,0,1,1.959-3.478Z" transform="translate(-108.746 -230.826)"/><path class="k" d="M121.5,244.911l-5.221,5.639a8.855,8.855,0,0,1-1.756-2.268,8.48,8.48,0,0,1-.915-2.675Z" transform="translate(-110.445 -234.724)"/><path class="l" d="M123.17,244.77l9.019-2.465a9.123,9.123,0,0,1-1.785,9.2c-3.422,3.695-9.5,3.695-13.472,0Z" transform="translate(-111.604 -233.814)"/></g><g transform="translate(35.867 7.675)"><path class="j" d="M159.921,238.768l-7.235-6.736c3.422-3.7,9.5-3.7,13.472,0a10.5,10.5,0,0,1,2.781,4.271Z" transform="translate(-148.861 -229.26)"/><path class="g" d="M156.361,240.481l-9.428.83a9.344,9.344,0,0,1,.236-4.088,8.661,8.661,0,0,1,1.959-3.478Z" transform="translate(-146.809 -230.826)"/><path class="l" d="M159.568,244.911l-5.222,5.639a8.87,8.87,0,0,1-1.756-2.268,8.479,8.479,0,0,1-.915-2.675Z" transform="translate(-148.508 -234.724)"/><path class="k" d="M161.233,244.77l9.019-2.465a9.122,9.122,0,0,1-1.785,9.2c-3.422,3.695-9.5,3.695-13.471,0Z" transform="translate(-149.667 -233.814)"/></g><g transform="translate(38.391 -82.809)"><path class="m" d="M29.241,227.486a2.587,2.587,0,0,0-.924.579,4.773,4.773,0,0,0-1.26,2.865,1.219,1.219,0,0,0-1.29-.132,1.582,1.582,0,0,0-.731,1.605,4.319,4.319,0,0,0,.681,1.737c-.792-.163-1.5.681-1.473,1.473a2.52,2.52,0,0,0,1.29,1.89,4.562,4.562,0,0,0,3.16.579" transform="translate(0 -115.237)"/><rect class="m" width="15.168" height="1.107" transform="translate(28.875 121.839)"/><path class="m" d="M162.233,308.69h2.448a.6.6,0,0,0-.051-.4,1.181,1.181,0,0,0-.163-.163c-.03,0-.081-.03-.132,0-.1.03-.1.213-.132.213s.051-.234-.081-.417a.523.523,0,0,0-.132-.132c-.03,0-.163-.1-.264-.051a.3.3,0,0,0-.1.163c-.051.234.03.417,0,.447-.03,0-.051-.051-.163-.163s-.163-.183-.264-.183c-.132-.03-.234.051-.234.081a.4.4,0,0,0-.1.163c-.051.132,0,.234-.051.264s-.1-.051-.264-.1a.293.293,0,0,0-.163-.03.28.28,0,0,0-.213.132A1.811,1.811,0,0,1,162.233,308.69Z" transform="translate(-128.421 -189.95)"/><path class="m" d="M127.075,302.984c.762,0,1.5,0,2.266-.03a.524.524,0,0,0-.213-.549c-.1-.051-.285-.1-.366-.03a.157.157,0,0,0-.051.1c-.03,0,.1-.417-.081-.609a.294.294,0,0,0-.183-.081c-.183,0-.284.264-.284.284-.081.162-.051.315-.081.315s-.03-.1-.1-.284a1,1,0,0,0-.284-.417.238.238,0,0,0-.183-.081c-.132.03-.183.213-.213.234a.564.564,0,0,0,.03.4c.081.213.264.345.234.366h-.132a1.338,1.338,0,0,0-.264-.03.187.187,0,0,0-.1.163A.258.258,0,0,0,127.075,302.984Z" transform="translate(-95.711 -184.243)"/><path class="m" d="M125.411,324.628h-5a.531.531,0,0,1-.528-.528v-.163a.531.531,0,0,1,.528-.528h5a.531.531,0,0,1,.528.528v.163A.525.525,0,0,1,125.411,324.628Z" transform="translate(-89.048 -204.547)"/><path class="m" d="M111.22,233.527h-1.209v.63h1.209v-.63" transform="translate(-79.856 -120.862)"/><rect class="m" width="1.209" height="0.63" transform="translate(40.05 111.639)"/><line class="m" x1="0.711" transform="translate(31.364 112.665)"/><path class="m" d="M129.166,225.708h1.158v-.579h-1.158Z" transform="translate(-97.69 -113.043)"/><path class="m" d="M98.224,318.47h1v-.66h-1" transform="translate(-68.881 -199.333)"/><path class="n" d="M150.532,280.826v.081" transform="translate(-117.583 -164.9)"/><path class="n" d="M151.71,286.653v-.081" transform="translate(-118.68 -170.249)"/><path class="n" d="M29.241,221a2.585,2.585,0,0,0-.924.579,4.773,4.773,0,0,0-1.26,2.865,1.219,1.219,0,0,0-1.29-.132,1.582,1.582,0,0,0-.731,1.605,4.319,4.319,0,0,0,.681,1.737c-.792-.163-1.5.681-1.473,1.473a2.521,2.521,0,0,0,1.29,1.89,4.562,4.562,0,0,0,3.16.579" transform="translate(0 -109.201)"/><line class="n" y1="0.183" transform="translate(40.548 106.59)"/><line class="n" y2="0.762" transform="translate(42.387 107.667)"/><line class="n" y2="0.63" transform="translate(42.387 108.591)"/><line class="n" y1="0.183" transform="translate(42.387 106.59)"/><line class="n" y2="0.183" transform="translate(42.387 109.221)"/><line class="n" y1="0.163" transform="translate(42.387 108.429)"/><line class="n" y1="0.427" transform="translate(42.387 109.404)"/><line class="n" y2="0.762" transform="translate(40.548 105.828)"/><line class="n" y2="0.152" transform="translate(42.387 107.515)"/><line class="n" y2="0.345" transform="translate(40.548 107.667)"/><line class="n" y1="0.742" transform="translate(40.548 106.773)"/><line class="n" y2="0.152" transform="translate(40.548 107.515)"/><line class="n" y2="0.742" transform="translate(42.387 106.773)"/><line class="n" y2="0.762" transform="translate(42.387 105.828)"/><line class="n" x2="0.183" transform="translate(41.391 106.59)"/><path class="n" d="M260.747,145.6h0v-.183h0" transform="translate(-220.199 -38.824)"/><path class="n" d="M287.417,145.6h0v-.183h0" transform="translate(-245.03 -38.824)"/><line class="n" x2="0.843" transform="translate(40.548 106.59)"/><line class="n" x1="0.813" transform="translate(41.574 106.59)"/><line class="n" x2="1.839" transform="translate(40.548 106.773)"/><line class="n" y1="0.762" transform="translate(41.391 105.828)"/><line class="n" y2="0.762" transform="translate(41.574 105.828)"/><line class="n" y2="0.762" transform="translate(41.391 107.667)"/><line class="n" y2="0.762" transform="translate(41.574 107.667)"/><path class="n" d="M260.747,158.822h0v.152h0" transform="translate(-220.199 -51.308)"/><line class="n" x1="0.843" transform="translate(40.548 107.667)"/><line class="n" x2="0.183" transform="translate(41.391 107.667)"/><line class="n" x1="0.813" transform="translate(41.574 107.667)"/><path class="n" d="M287.417,158.975h0v-.152h0" transform="translate(-245.03 -51.308)"/><line class="n" x2="1.839" transform="translate(40.548 107.515)"/><line class="n" x1="0.183" transform="translate(41.391 108.429)"/><line class="n" x2="0.427" transform="translate(40.964 108.429)"/><line class="n" x1="1.239" transform="translate(41.147 108.591)"/><path class="n" d="M287.417,172.246h0v-.163h0" transform="translate(-245.03 -63.655)"/><line class="n" x2="0.813" transform="translate(41.574 108.429)"/><path class="n" d="M287.417,183.76h0v-.183h0" transform="translate(-245.03 -74.355)"/><line class="n" x1="0.61" transform="translate(41.777 109.221)"/><line class="n" x2="0.417" transform="translate(41.97 109.404)"/><line class="n" y1="2.631" transform="translate(29.241 119.055)"/><path class="n" d="M300.825,227.781V237.2" transform="translate(-257.514 -115.512)"/><path class="n" d="M96.75,229v-6.522" transform="translate(-67.509 -110.573)"/><line class="n" y2="0.366" transform="translate(43.311 111.903)"/><line class="n" y1="0.183" transform="translate(29.241 111.619)"/><line class="n" y2="0.102" transform="translate(29.241 111.802)"/><path class="n" d="M89.088,365.082v-.711h.528" transform="translate(-60.376 -242.685)"/><path class="n" d="M89.088,365.082v.4h15.147v-1.107h-.549" transform="translate(-60.376 -242.685)"/><line class="n" x1="7.965" transform="translate(30.318 121.687)"/><line class="n" x1="1.077" transform="translate(29.241 121.687)"/><line class="n" x1="1.453" transform="translate(41.858 121.687)"/><line class="n" y1="1.788" transform="translate(31.029 116.952)"/><line class="n" y1="2.164" transform="translate(31.029 114.636)"/><line class="n" y2="2.164" transform="translate(36.444 114.636)"/><line class="n" y1="1.788" transform="translate(36.444 116.952)"/><line class="n" y2="7.051" transform="translate(38.282 114.636)"/><line class="n" y2="7.051" transform="translate(41.858 114.636)"/><line class="n" x1="3.576" transform="translate(38.282 121.687)"/><rect class="n" width="2.997" height="6.421" transform="translate(38.577 114.9)"/><g transform="translate(38.14 113.925)"><path class="m" d="M229.646,252.408h.1a.175.175,0,0,0,.163-.163v-.284a.175.175,0,0,0-.163-.163h-3.759a.175.175,0,0,0-.163.163v.284a.175.175,0,0,0,.163.163h.081" transform="translate(-225.826 -251.798)"/><line class="m" x2="3.576" transform="translate(0.244 0.61)"/></g><line class="n" x1="0.183" y1="0.163" transform="translate(40.964 108.429)"/><path class="n" d="M109.747,232.791h-1.209v.63h1.209v-.63" transform="translate(-78.484 -120.176)"/><rect class="n" width="1.209" height="0.63" transform="translate(39.938 111.588)"/><line class="n" x1="0.711" transform="translate(31.262 112.614)"/><path class="n" d="M126.072,224.285v-.63h.1" transform="translate(-94.81 -111.67)"/><path class="n" d="M128.155,224.285h.5v-.63h-1.107" transform="translate(-96.182 -111.67)"/><path class="n" d="M96.75,317.7h1v-.63h-1" transform="translate(-67.509 -198.647)"/><line class="n" y1="0.63" transform="translate(29.241 118.426)"/><path class="n" d="M145.964,259.166h3.972v.2h-.163" transform="translate(-113.33 -144.733)"/><path class="n" d="M122.093,259.166h-1.768v.2h.163" transform="translate(-89.459 -144.733)"/><line class="n" x1="1.128" transform="translate(33.812 114.636)"/><line class="n" x1="0.163" transform="translate(32.522 114.636)"/><line class="n" x2="1.311" transform="translate(31.029 114.636)"/><line class="n" x2="0.975" transform="translate(32.685 114.636)"/><line class="n" x1="1.311" transform="translate(35.133 114.636)"/><path class="n" d="M240.85,292.613H240.8l-.681.681v.051h.061l.681-.681A.136.136,0,0,1,240.85,292.613Z" transform="translate(-200.993 -175.874)"/><path class="n" d="M136.752,282.3l-.366.366v.051h.061l.315-.315" transform="translate(-104.413 -166.271)"/><path class="n" d="M144.343,277.671l.183-.183v-.051h-.051l-.132.132" transform="translate(-111.821 -161.744)"/><path class="n" d="M148.829,286.791l-.162.163h-.051V286.9l.183-.183" transform="translate(-115.799 -170.387)"/><path class="n" d="M151.71,279.931l.549-.528v-.051h-.051l-.5.5" transform="translate(-118.68 -163.527)"/><line class="n" x1="0.427" y2="0.396" transform="translate(32.522 115.977)"/><path class="n" d="M131.951,295.57l-.132.1v.051h.061l.183-.163" transform="translate(-100.16 -178.618)"/><line class="n" y1="0.264" x2="0.284" transform="translate(32.055 116.536)"/><line class="n" x1="0.711" y2="0.63" transform="translate(32.949 115.297)"/><line class="n" x1="0.427" y2="0.366" transform="translate(32.522 115.926)"/><line class="n" x1="0.711" y2="0.599" transform="translate(32.949 115.378)"/><path class="n" d="M163.056,269.14l.081-.051v-.051h-.051l-.03.03" transform="translate(-129.244 -153.924)"/><line class="n" y1="0.345" x2="0.366" transform="translate(31.973 116.455)"/><path class="n" d="M257.005,296.587h.051l.681-.681v-.051h-.051l-.681.681C256.985,296.556,256.985,296.587,257.005,296.587Z" transform="translate(-216.701 -178.892)"/><path class="n" d="M235.684,284.864h.051L238.1,282.5v-.051h-.051l-2.367,2.367C235.654,284.833,235.654,284.864,235.684,284.864Z" transform="translate(-196.843 -166.408)"/><line class="n" y2="0.264" transform="translate(32.339 116.536)"/><line class="n" y2="0.081" transform="translate(32.522 116.292)"/><line class="n" y1="0.427" transform="translate(32.522 116.373)"/><line class="n" y2="0.081" transform="translate(32.339 116.455)"/><line class="n" y1="0.152" transform="translate(32.339 116.8)"/><line class="n" y1="0.345" transform="translate(32.339 116.109)"/><line class="n" y1="0.081" transform="translate(32.339 116.028)"/><line class="n" y1="0.63" transform="translate(32.522 116.952)"/><line class="n" y1="0.864" transform="translate(32.339 116.952)"/><line class="n" y1="0.081" transform="translate(32.522 115.845)"/><line class="n" y2="0.366" transform="translate(32.522 115.926)"/><line class="n" y2="1.392" transform="translate(32.339 114.636)"/><line class="n" y2="1.209" transform="translate(32.522 114.636)"/><line class="n" y1="0.152" transform="translate(32.522 116.8)"/><line class="n" x1="0.183" transform="translate(32.339 114.636)"/><line class="n" y2="0.66" transform="translate(33.66 114.636)"/><line class="n" y2="0.498" transform="translate(33.812 114.636)"/><line class="n" y2="0.152" transform="translate(33.812 116.8)"/><line class="n" y1="0.081" transform="translate(33.812 115.134)"/><line class="n" y1="0.264" transform="translate(33.66 118.476)"/><line class="n" y2="0.152" transform="translate(33.66 116.8)"/><line class="n" y1="1.585" transform="translate(33.812 115.215)"/><line class="n" y1="1.392" transform="translate(33.812 116.952)"/><line class="n" y1="1.524" transform="translate(33.66 116.952)"/><line class="n" y2="0.081" transform="translate(33.66 115.297)"/><line class="n" y1="1.422" transform="translate(33.66 115.378)"/><line class="n" x2="0.152" transform="translate(33.66 114.636)"/><line class="n" y2="2.164" transform="translate(34.94 114.636)"/><line class="n" y2="0.152" transform="translate(35.133 116.8)"/><line class="n" y1="0.945" transform="translate(35.133 116.952)"/><line class="n" y2="2.164" transform="translate(35.133 114.636)"/><line class="n" y1="1.239" transform="translate(34.94 116.952)"/><line class="n" y2="0.152" transform="translate(34.94 116.8)"/><line class="n" x2="0.193" transform="translate(34.94 114.636)"/><line class="n" x1="0.467" transform="translate(31.872 116.952)"/><line class="n" x1="0.762" transform="translate(31.029 116.952)"/><line class="n" x2="0.081" transform="translate(31.791 116.952)"/><line class="n" x2="0.284" transform="translate(32.055 116.8)"/><line class="n" x2="1.311" transform="translate(35.133 116.952)"/><line class="n" x2="0.193" transform="translate(34.94 116.952)"/><line class="n" x1="0.193" transform="translate(34.94 116.8)"/><line class="n" x1="1.128" transform="translate(33.812 116.8)"/><line class="n" x2="0.183" transform="translate(32.339 116.8)"/><line class="n" x2="0.579" transform="translate(33.081 116.8)"/><line class="n" x2="0.559" transform="translate(33.101 116.952)"/><line class="n" x2="1.128" transform="translate(33.812 116.952)"/><line class="n" x1="0.152" transform="translate(33.66 116.952)"/><line class="n" x1="0.152" transform="translate(33.66 116.8)"/><line class="n" x1="0.559" transform="translate(32.522 116.8)"/><line class="n" x2="0.945" transform="translate(31.029 116.8)"/><line class="n" x2="0.081" transform="translate(31.973 116.8)"/><line class="n" x2="0.183" transform="translate(32.339 116.952)"/><line class="n" x2="1.311" transform="translate(35.133 116.8)"/><line class="n" x2="0.579" transform="translate(32.522 116.952)"/><line class="n" y2="0.152" transform="translate(36.444 116.8)"/><line class="n" y2="0.152" transform="translate(31.029 116.8)"/><path class="n" d="M141.874,304.843a.54.54,0,0,0-.183.234" transform="translate(-109.352 -187.261)"/><path class="n" d="M144.343,304.02l.03-.03c.031-.031.051-.031.1-.031.03,0,.051.031.081.051a.826.826,0,0,1,.132.681.3.3,0,0,1,.4-.162" transform="translate(-111.821 -186.438)"/><path class="n" d="M125.365,302.709a.3.3,0,0,1,0-.264.269.269,0,0,1,.234-.132.732.732,0,0,1,.264.081.927.927,0,0,1-.213-.925c.03-.081.1-.163.183-.163.1,0,.163.081.213.163.132.213.234.417.345.63a2.6,2.6,0,0,1,.1-.345" transform="translate(-94.123 -183.968)"/><path class="n" d="M155.247,313.135V312.9a.607.607,0,0,0-.264-.4h-.03" transform="translate(-121.698 -194.394)"/><g transform="translate(33.599 117.743)"><path class="n" d="M183.451,308.171a.6.6,0,0,0-.051-.478.262.262,0,0,0-.213-.132.3.3,0,0,0-.183.213,1.258,1.258,0,0,0-.051-.447.271.271,0,0,0-.4-.1c-.031.03-.051.051-.051.081" transform="translate(-180.952 -307.174)"/><path class="n" d="M160.846,316.026c.03-.03.051-.081.081-.1s.051-.03.1-.03" transform="translate(-160.785 -315.293)"/><path class="n" d="M159.962,318.074a.459.459,0,0,1,.051-.264" transform="translate(-159.962 -317.077)"/><path class="n" d="M179.412,310.117c.051.081.081.183.183.234,0-.1-.03-.213-.03-.315a.33.33,0,0,1,.03-.183" transform="translate(-178.071 -309.668)"/><path class="n" d="M164.458,311.7l-.081-.081a.313.313,0,0,0-.417.03.477.477,0,0,0-.132.416.948.948,0,0,0-.264-.183.6.6,0,0,0-.213-.03" transform="translate(-163.117 -311.248)"/></g><line class="n" x2="0.061" transform="translate(33.599 118.741)"/><line class="n" x2="0.762" transform="translate(32.522 118.741)"/><line class="n" x1="0.965" transform="translate(35.133 118.741)"/><line class="n" x1="0.264" transform="translate(33.284 118.741)"/><path class="n" d="M122.485,321.641h-.244" transform="translate(-91.243 -202.9)"/><line class="n" x1="1.128" transform="translate(33.812 118.741)"/><path class="n" d="M196.554,321.641h-.345" transform="translate(-160.111 -202.9)"/><line class="n" x1="0.051" transform="translate(33.548 118.741)"/><line class="n" x2="1.097" transform="translate(31.242 118.741)"/><line class="n" x1="0.183" transform="translate(32.339 118.741)"/><line class="n" x2="0.152" transform="translate(33.66 118.741)"/><line class="n" x2="0.193" transform="translate(34.94 118.741)"/><path class="n" d="M124.368,323.154H119.38a.531.531,0,0,1-.528-.528v-.163a.531.531,0,0,1,.528-.528h5a.531.531,0,0,1,.528.528v.163A.547.547,0,0,1,124.368,323.154Z" transform="translate(-88.087 -203.174)"/><g transform="translate(38.039 114.027)"><path class="n" d="M228.172,253.882h.1a.175.175,0,0,0,.163-.163v-.284a.175.175,0,0,0-.163-.162h-3.759a.175.175,0,0,0-.163.162v.284a.175.175,0,0,0,.163.163h.081" transform="translate(-224.352 -253.272)"/><line class="n" x2="3.576" transform="translate(0.244 0.61)"/></g><path class="m" d="M99.606,114.185c-3.688-3.546-6.39-6.136-6.685-6.38a.578.578,0,0,0-.356-.152.5.5,0,0,0-.406.213c-1.971,1.879-3.952,3.759-5.923,5.628-.254.234-.518.467-.772.691a.461.461,0,0,1-.508,0,.491.491,0,0,1-.142-.528.566.566,0,0,1,.213-.295q3.414-3.322,6.827-6.634a1.952,1.952,0,0,1,.325-.3c.173-.132.264-.2.366-.2.122,0,.223.071.406.234a2.034,2.034,0,0,1,.295.274q3.52,3.429,7.04,6.868a.507.507,0,0,1-.183.66A.5.5,0,0,1,99.606,114.185Z" transform="translate(-56.376 -2.332)"/><path class="n" d="M99.606,111.68c-3.688-3.546-6.39-6.136-6.685-6.38a.578.578,0,0,0-.356-.152.5.5,0,0,0-.406.213c-1.971,1.879-3.952,3.759-5.923,5.628-.254.234-.518.467-.772.691a.461.461,0,0,1-.508,0,.492.492,0,0,1-.142-.528.566.566,0,0,1,.213-.295q3.414-3.322,6.827-6.634a1.951,1.951,0,0,1,.325-.3c.173-.132.264-.2.366-.2.122,0,.223.071.406.234a2.035,2.035,0,0,1,.295.274q3.52,3.429,7.04,6.868a.507.507,0,0,1-.183.66A.479.479,0,0,1,99.606,111.68Z" transform="translate(-56.376)"/><path class="n" d="M186.712,166.083a1.219,1.219,0,1,0-1.219,1.219A1.223,1.223,0,0,0,186.712,166.083Z" transform="translate(-148.999 -56.933)"/><line class="n" y1="1.026" transform="translate(36.677 109.303)"/><line class="n" y1="1.006" transform="translate(36.301 107.962)"/><line class="n" y2="1.026" transform="translate(36.301 109.303)"/><line class="n" y2="1.006" transform="translate(36.677 107.962)"/><line class="n" x1="0.996" transform="translate(36.677 109.303)"/><line class="n" x1="0.376" transform="translate(36.301 108.967)"/><line class="n" x2="0.996" transform="translate(35.306 108.967)"/><line class="n" x2="0.376" transform="translate(36.301 109.303)"/><line class="n" x1="0.996" transform="translate(36.677 108.967)"/><line class="n" x2="0.996" transform="translate(35.306 109.303)"/><path class="n" d="M182.266,162.018a1.575,1.575,0,1,0-1.575,1.575A1.583,1.583,0,0,0,182.266,162.018Z" transform="translate(-144.197 -52.817)"/><g transform="translate(40.05 105.056)"><line class="m" x1="0.813" transform="translate(1.422 0.874)"/><g transform="translate(0 0)"><path class="m" d="M255.762,124.039h.163a.229.229,0,0,0,.213-.213v-.447a.229.229,0,0,0-.213-.213H253.74a.229.229,0,0,0-.213.213v.447a.229.229,0,0,0,.213.213h.163" transform="translate(-253.527 -123.165)"/><line class="m" x2="0.183" transform="translate(1.239 0.874)"/></g><line class="m" x2="0.843" transform="translate(0.396 0.874)"/></g><g transform="translate(40.213 104.954)"><line class="n" x1="0.813" transform="translate(1.422 0.874)"/><path class="n" d="M258.12,122.565h.163a.229.229,0,0,0,.213-.213V121.9a.229.229,0,0,0-.213-.213H256.1a.229.229,0,0,0-.213.213v.447a.229.229,0,0,0,.213.213h.162" transform="translate(-255.885 -121.691)"/><line class="n" x2="0.193" transform="translate(1.229 0.874)"/><line class="n" x2="0.833" transform="translate(0.396 0.874)"/></g></g></g><g transform="translate(156.583 216.889)"><path class="o" d="M267.867,230.8s-6.276-2.753-8.121,5.01c-1.485,6.249-4.634,8.594-4.634,8.594s11.1,4.286,17.291-.739Z" transform="translate(-234.997 -230.33)"/><path class="p" d="M252.766,270.459c-.23.619-.444,1.15-.692,1.7s-.491,1.09-.749,1.629c-.516,1.076-1.1,2.119-1.69,3.154a38.347,38.347,0,0,1-4.158,5.886l-.3.344c-.108.122-.161.2-.387.426a3.514,3.514,0,0,1-1.5.883,3.674,3.674,0,0,1-1.591.089,5.113,5.113,0,0,1-1.231-.358,8.547,8.547,0,0,1-1.812-1.079,16.574,16.574,0,0,1-1.442-1.241,30.826,30.826,0,0,1-4.459-5.616l1.591-1.2a45.972,45.972,0,0,0,4.878,4.495,9.238,9.238,0,0,0,2.476,1.453c.359.122.606.07.544.049-.021-.009-.061.017-.046-.013-.025.024.1-.129.172-.229l.246-.324a45.39,45.39,0,0,0,3.543-5.525c.53-.967,1.02-1.959,1.5-2.952.24-.5.473-1,.694-1.5s.447-1.025.63-1.478Z" transform="translate(-227.195 -243.848)"/><path class="o" d="M259.042,262.924c-1.674-.059-4.638,6.036-4.638,6.036l4.36,5.291s5.089-6.382,4.39-8.446C262.428,263.656,261.486,263.009,259.042,262.924Z" transform="translate(-234.75 -241.708)"/><path class="q" d="M259.888,265.188l-2.265,7.107,2.042,2.471Z" transform="translate(-235.874 -242.499)"/><path class="p" d="M232.181,279.319l-4.666-1.176,3.146-2.479s2.33.985,2.479,2.616Z" transform="translate(-225.363 -246.156)"/><path class="p" d="M224.209,275.456l2.407-1.793,2.891,1.3-3.146,2.48Z" transform="translate(-224.209 -245.457)"/><path class="p" d="M277.619,426.214H273.68l.193-9.123h3.939Z" transform="translate(-241.479 -295.528)"/><path class="o" d="M269.146,430.406h4.425a.312.312,0,0,1,.314.269l.5,3.5a.632.632,0,0,1-.631.7c-1.543-.027-2.287-.117-4.233-.117-1.2,0-4.636.124-6.29.124-1.617,0-1.742-1.635-1.053-1.783,3.087-.664,5.264-1.58,6.3-2.453A1.029,1.029,0,0,1,269.146,430.406Z" transform="translate(-237.327 -300.176)"/><g class="r" transform="translate(32.294 121.566)"><path d="M273.923,417.095l-.1,4.7h3.941l.1-4.7Z" transform="translate(-273.823 -417.095)"/></g><path class="o" d="M259.1,264.15c-.087,2.492.345,8.306,2.963,21.85l15.992-.476c-.462-6.5-.589-10.514,2.125-23.964a47.176,47.176,0,0,0-6.818-.693,50.893,50.893,0,0,0-7.261.216c-1.851.225-3.845.609-5.156.883A2.316,2.316,0,0,0,259.1,264.15Z" transform="translate(-236.386 -240.98)"/><path class="p" d="M275.876,248.354c-.389,2.35-.719,6.644.963,8.155a9.045,9.045,0,0,1-5.546,3.958c-3.685-1.869-1.716-3.742-1.716-3.742,2.587-.7,2.462-2.631,1.954-4.433Z" transform="translate(-239.864 -236.622)"/><g transform="translate(27.324 19.286)"><path class="g" d="M272.495,266.462l.477-.934,2.56.579Z" transform="translate(-268.39 -261.903)"/><path class="f" d="M273.227,263.584c.822-.374,4.628-2.853,4.778-3.625.3.324,1.908.423,1.908.423a31.371,31.371,0,0,1-2.83,7.668A8.413,8.413,0,0,0,273.227,263.584Z" transform="translate(-268.645 -259.959)"/><path class="g" d="M271.537,266.462l-.215-.934-1.57.112Z" transform="translate(-267.433 -261.903)"/><path class="f" d="M270.078,263.717c-1.271-.841-.959-2.6-.835-3.376-.3.324-1.908.424-1.908.424s-2.279,4.179-.41,7.418C267.809,265.86,268.708,264.614,270.078,263.717Z" transform="translate(-266.188 -260.092)"/></g><path class="q" d="M275.436,250.823l-2.572,2.33a7.48,7.48,0,0,1,.262,1.282,3.215,3.215,0,0,0,2.4-2.352A3.506,3.506,0,0,0,275.436,250.823Z" transform="translate(-241.195 -237.484)"/><path class="p" d="M275.552,237.158c-.049,3.909.014,5.565-1.857,7.662-2.815,3.154-7.605,2.238-8.725-1.607-1.008-3.461-.758-9.273,2.981-11.01A5.333,5.333,0,0,1,275.552,237.158Z" transform="translate(-238.261 -230.803)"/><path class="s" d="M278.321,242.731h-.006l-4.911-.244a.112.112,0,0,1-.106-.118.106.106,0,0,1,.118-.106l4.91.243a.112.112,0,0,1-.005.225Z" transform="translate(-241.346 -234.495)"/><path class="o" d="M263.656,299.307s2.022,29.261,3.15,41.224c1.174,12.443,2.708,39.115,2.708,39.115h5.327s1.109-27.124.689-39.4c-.458-13.38-.164-41.289-.164-41.289Z" transform="translate(-237.98 -254.288)"/><path class="i" d="M277.952,422.014H271.7l-.458-1.994,7-.244Z" transform="translate(-240.629 -296.465)"/><path class="q" d="M279.808,314.835c-.646-.717-1.364-.345-2.144,1.7-2.66,6.978.175,18.114,2.261,24.527C279.768,333.08,279.771,322.558,279.808,314.835Z" transform="translate(-242.493 -259.713)"/><path class="o" d="M271.235,242.384c.016.317-.14.583-.348.593s-.388-.239-.4-.557.14-.583.348-.593S271.219,242.067,271.235,242.384Z" transform="translate(-240.363 -234.344)"/><path class="o" d="M265.724,242.514c.016.317-.14.583-.348.593s-.389-.239-.4-.557.14-.583.348-.593S265.708,242.2,265.724,242.514Z" transform="translate(-238.439 -234.389)"/><path class="o" d="M265.234,241.88l-.773-.182S264.882,242.274,265.234,241.88Z" transform="translate(-238.261 -234.298)"/><path class="t" d="M267.705,243.213a8.491,8.491,0,0,1-1.032,2.081,1.367,1.367,0,0,0,1.142.157Z" transform="translate(-239.033 -234.827)"/><path class="o" d="M270.877,247.757a3,3,0,0,1-.465.058.093.093,0,0,1-.1-.089.1.1,0,0,1,.089-.1,2.506,2.506,0,0,0,2-1.083.093.093,0,0,1,.161.094A2.613,2.613,0,0,1,270.877,247.757Z" transform="translate(-240.304 -235.974)"/><path class="u" d="M281.853,244.564a2.857,2.857,0,0,1-1.409,1.666c-.894.452-1.535-.3-1.45-1.245.077-.851.635-2.112,1.61-2.172A1.283,1.283,0,0,1,281.853,244.564Z" transform="translate(-243.332 -234.686)"/><path class="o" d="M272.782,240.288a.186.186,0,0,1-.2-.09,2.206,2.206,0,0,0-1.543-.868.186.186,0,0,1,.036-.371,2.549,2.549,0,0,1,1.831,1.055.187.187,0,0,1-.07.255A.179.179,0,0,1,272.782,240.288Z" transform="translate(-240.499 -233.342)"/><path class="o" d="M264.238,239.589a.187.187,0,0,1-.163-.321,1.852,1.852,0,0,1,1.635-.478.187.187,0,0,1-.093.361h0a1.48,1.48,0,0,0-1.291.392A.184.184,0,0,1,264.238,239.589Z" transform="translate(-238.105 -233.271)"/><path class="p" d="M292.418,268.894c.523,2.093,1.071,4.228,1.632,6.329s1.175,4.193,1.853,6.22c.662,1.99,1.516,4.029,2.293,6.1s1.561,4.143,2.274,6.247l-1.806.848c-1.165-1.9-2.259-3.837-3.306-5.8-.525-.982-1.036-1.97-1.533-2.975s-.985-2.06-1.414-3.124c-.853-2.125-1.565-4.264-2.2-6.419s-1.22-4.3-1.715-6.519Z" transform="translate(-246.651 -243.792)"/><path class="o" d="M289.2,261.909c1.617.439,3.7,5.9,3.7,5.9l-6.084,4.629s-2.4-4.538-1.792-6.629C285.665,263.63,287.354,261.407,289.2,261.909Z" transform="translate(-245.406 -241.329)"/><path class="i" d="M270.217,430.928a1.481,1.481,0,0,1-.956-.242.516.516,0,0,1-.169-.454.3.3,0,0,1,.158-.248c.482-.264,2.053.537,2.23.629a.093.093,0,0,1-.025.174A6.715,6.715,0,0,1,270.217,430.928Zm-.7-.815a.365.365,0,0,0-.174.034.113.113,0,0,0-.062.1.335.335,0,0,0,.107.3,2.519,2.519,0,0,0,1.761.107A5.071,5.071,0,0,0,269.514,430.113Z" transform="translate(-239.877 -300.01)"/><path class="i" d="M271.963,430.294a.084.084,0,0,1-.038-.008c-.47-.212-1.4-1.062-1.326-1.508.017-.105.092-.237.35-.263a.676.676,0,0,1,.517.161,2.627,2.627,0,0,1,.59,1.518.093.093,0,0,1-.039.084A.1.1,0,0,1,271.963,430.294Zm-.939-1.6a.548.548,0,0,0-.056,0c-.171.017-.181.085-.185.107-.044.268.586.937,1.066,1.226a2.168,2.168,0,0,0-.5-1.215A.489.489,0,0,0,271.025,428.7Z" transform="translate(-240.403 -299.514)"/><path class="p" d="M311.85,426.214h-3.939l-2.383-9.123h3.939Z" transform="translate(-252.598 -295.528)"/><path class="o" d="M312.784,430.406h-4.425a.24.24,0,0,0-.255.269l.268,3.5a.828.828,0,0,0,.786.7c1.537-.027,2.261-.117,4.207-.117,1.2,0,2.39.124,4.043.124,1.617,0,1.381-1.635.66-1.783-3.234-.664-3.339-1.58-4.571-2.453A1.257,1.257,0,0,0,312.784,430.406Z" transform="translate(-253.496 -300.176)"/><g class="r" transform="translate(52.932 121.566)"><path d="M305.531,417.095l1.227,4.7H310.7l-1.227-4.7Z" transform="translate(-305.531 -417.095)"/></g><path class="o" d="M282.734,298.763c4.553,6.1,7.324,28.5,9.337,40.471,2.094,12.456,7.245,40.344,7.245,40.344H293.99s-7.242-28.387-11.038-40.407c-4.19-13.269-10.457-40.407-10.457-40.407Z" transform="translate(-241.066 -254.22)"/><path class="i" d="M310.685,422.014h-6.25l-.458-1.994,7-.244Z" transform="translate(-252.056 -296.465)"/><path class="i" d="M315.408,429.894a1.482,1.482,0,0,0,.758-.631.518.518,0,0,0-.044-.483.3.3,0,0,0-.25-.156c-.549-.031-1.621,1.37-1.741,1.53a.1.1,0,0,0,0,.108.094.094,0,0,0,.1.038A6.69,6.69,0,0,0,315.408,429.894Zm.282-1.038a.359.359,0,0,1,.171-.044.114.114,0,0,1,.1.064.335.335,0,0,1,.032.316c-.123.3-.691.61-1.542.856A5.074,5.074,0,0,1,315.691,428.856Z" transform="translate(-255.594 -299.554)"/><path class="i" d="M314.132,430.076a.091.091,0,0,0,.031-.024c.333-.394.8-1.561.547-1.932-.061-.089-.185-.174-.43-.087a.675.675,0,0,0-.4.368,2.628,2.628,0,0,0,.122,1.624.094.094,0,0,0,.072.059A.1.1,0,0,0,314.132,430.076Zm.158-1.846.052-.022c.161-.058.2,0,.214.018.155.223-.126,1.1-.433,1.565a2.163,2.163,0,0,1-.071-1.313A.491.491,0,0,1,314.29,428.23Z" transform="translate(-255.48 -299.334)"/><path class="o" d="M270.745,241.75l-.773-.182S270.393,242.144,270.745,241.75Z" transform="translate(-240.185 -234.253)"/><path class="i" d="M279.579,297.25l.451,1.42c.059.109-.068.227-.254.232l-16.459.489c-.144,0-.266-.062-.277-.153l-.187-1.427c-.013-.1.109-.186.267-.191l16.194-.482A.29.29,0,0,1,279.579,297.25Z" transform="translate(-237.7 -253.652)"/><g transform="translate(26.411 43.41)"><path class="o" d="M285.06,299.085l.434-.013c.087,0,.151-.049.143-.1l-.258-1.854c-.008-.054-.085-.1-.171-.094l-.434.013c-.086,0-.15.049-.143.1l.259,1.854C284.9,299.045,284.974,299.088,285.06,299.085Z" transform="translate(-271.714 -297.021)"/><path class="o" d="M265.216,299.675l.434-.013c.087,0,.151-.049.143-.1l-.258-1.854c-.008-.054-.085-.1-.171-.094l-.434.013c-.087,0-.151.049-.143.1l.258,1.854C265.053,299.635,265.13,299.678,265.216,299.675Z" transform="translate(-264.786 -297.227)"/><path class="o" d="M275.138,299.38l.434-.013c.087,0,.151-.049.143-.1l-.258-1.854c-.008-.054-.085-.1-.171-.094l-.434.013c-.087,0-.151.049-.143.1l.259,1.854C274.975,299.34,275.052,299.383,275.138,299.38Z" transform="translate(-268.25 -297.124)"/></g><path class="p" d="M305.226,305.979l3.135,2.878-3.973.51s-1.492-2.043-.782-3.519Z" transform="translate(-251.86 -256.693)"/><path class="p" d="M309.424,313.739l-3.35.247-1.164-3,3.973-.51Z" transform="translate(-252.382 -258.307)"/><path class="o" d="M271.709,231.556s-3.307-1.517-6.951,3.08a13.711,13.711,0,0,0,7.343.4Z" transform="translate(-238.365 -230.674)"/><path class="o" d="M274.708,231s.8,11.557,0,17.315c4.636-1.468,9.07-6.057,9.07-6.057S283.128,229.606,274.708,231Z" transform="translate(-241.838 -230.526)"/><g transform="translate(24.832 4.959)"><path class="s" d="M269.937,243.707c-1.041,0-2-1.287-2.136-2.87a3.212,3.212,0,0,1,.648-2.415,1.355,1.355,0,0,1,1.008-.474c1.041,0,2,1.288,2.136,2.87h0a3.215,3.215,0,0,1-.648,2.415A1.355,1.355,0,0,1,269.937,243.707Zm-.48-5.534a1.136,1.136,0,0,0-.843.4,2.989,2.989,0,0,0-.59,2.244c.128,1.469.985,2.665,1.913,2.665a1.137,1.137,0,0,0,.843-.4,2.994,2.994,0,0,0,.59-2.244h0C271.242,239.368,270.384,238.173,269.457,238.173Z" transform="translate(-264.253 -237.948)"/><path class="s" d="M264.134,243.707c-.844,0-1.614-1.26-1.754-2.87a3.518,3.518,0,0,1,.586-2.557.929.929,0,0,1,.687-.332c.844,0,1.614,1.261,1.754,2.87h0a3.524,3.524,0,0,1-.585,2.557A.932.932,0,0,1,264.134,243.707Zm-.48-5.534a.7.7,0,0,0-.522.258,3.352,3.352,0,0,0-.527,2.387c.125,1.444.826,2.665,1.53,2.665a.7.7,0,0,0,.523-.259,3.354,3.354,0,0,0,.527-2.387h0C265.059,239.392,264.358,238.173,263.654,238.173Z" transform="translate(-262.36 -237.948)"/><path class="s" d="M267.533,242.377a.119.119,0,0,1-.047-.01.659.659,0,0,0-.615-.008.112.112,0,0,1-.123-.187.877.877,0,0,1,.833-.008.112.112,0,0,1-.048.214Z" transform="translate(-263.874 -239.385)"/></g></g><g transform="translate(81.32 273.089)"><g transform="translate(0 20.043)"><rect class="i" width="122.585" height="4.186"/><rect class="v" width="122.585" height="4.186"/><rect class="w" width="35.879" height="4.186" transform="translate(86.707)"/><path class="i" d="M252.243,409.731h-2.392L246.673,353.9h5.57Z" transform="translate(-156.788 -349.71)"/><path class="i" d="M289.828,409.731h2.392L289.041,353.9h-5.57Z" transform="translate(-169.634 -349.71)"/><path class="i" d="M110.973,409.731h-2.392l3.178-55.835h5.57Z" transform="translate(-108.581 -349.71)"/><path class="i" d="M150.262,409.731h2.392l3.178-55.835h-5.57Z" transform="translate(-123.131 -349.71)"/></g><g transform="translate(46.858)"><g transform="translate(7.648)"><path class="i" d="M222.627,316.672H196.475a1.356,1.356,0,0,0-1.278,1.088l-2.86,16.381a.892.892,0,0,0,.9,1.088h26.153a1.356,1.356,0,0,0,1.278-1.088l2.86-16.381A.892.892,0,0,0,222.627,316.672Z" transform="translate(-192.32 -316.672)"/><path class="x" d="M222.627,316.672H196.475a1.356,1.356,0,0,0-1.278,1.088l-2.86,16.381a.892.892,0,0,0,.9,1.088h26.153a1.356,1.356,0,0,0,1.278-1.088l2.86-16.381A.892.892,0,0,0,222.627,316.672Z" transform="translate(-192.32 -316.672)"/></g><g transform="translate(7.149)"><path class="i" d="M221.862,316.672H195.709a1.355,1.355,0,0,0-1.278,1.088l-2.861,16.381a.892.892,0,0,0,.9,1.088h26.153a1.355,1.355,0,0,0,1.278-1.088l2.861-16.381A.892.892,0,0,0,221.862,316.672Z" transform="translate(-191.554 -316.672)"/><path class="y" d="M221.862,316.672H195.709a1.355,1.355,0,0,0-1.278,1.088l-2.861,16.381a.892.892,0,0,0,.9,1.088h26.153a1.355,1.355,0,0,0,1.278-1.088l2.861-16.381A.892.892,0,0,0,221.862,316.672Z" transform="translate(-191.554 -316.672)"/></g><path class="f" d="M192.71,335.022a.464.464,0,0,1-.365-.154.488.488,0,0,1-.091-.409l2.86-16.381a.913.913,0,0,1,.836-.717H222.1a.465.465,0,0,1,.365.154.489.489,0,0,1,.091.409L219.7,334.3a.912.912,0,0,1-.836.717Z" transform="translate(-184.645 -316.912)"/><g transform="translate(0 18.558)"><path class="i" d="M214.916,345.183H182.027a1.462,1.462,0,0,0-1.457,1.457h35.8A1.462,1.462,0,0,0,214.916,345.183Z" transform="translate(-180.57 -345.183)"/></g><path class="y" d="M214.916,345.183H182.027a1.462,1.462,0,0,0-1.457,1.457h35.8A1.462,1.462,0,0,0,214.916,345.183Z" transform="translate(-180.57 -326.625)"/><path class="z" d="M228.626,345.183H221.3a1.462,1.462,0,0,0-1.458,1.457h10.241A1.462,1.462,0,0,0,228.626,345.183Z" transform="translate(-194.28 -326.625)"/></g><g transform="translate(93.096 12.725)"><rect class="i" width="5.87" height="7.318" rx="1.19"/><path class="i" d="M260.358,343.169c-1.161,0-2.071-1.256-2.071-2.86,0-1.576.93-2.86,2.071-2.86s2.071,1.284,2.071,2.86C262.429,341.913,261.52,343.169,260.358,343.169Zm0-5.061c-.765,0-1.412,1.008-1.412,2.2s.647,2.2,1.412,2.2,1.412-1.008,1.412-2.2S261.124,338.108,260.358,338.108Z" transform="translate(-253.938 -336.65)"/></g></g><g transform="translate(90.215 244.424)"><g transform="translate(9.478)"><path class="i" d="M149.029,312.613l-.417.648-.439.707c-.291.477-.575.963-.857,1.449-.558.978-1.094,1.97-1.593,2.975a41.191,41.191,0,0,0-2.507,6.148c-.159.521-.3,1.041-.438,1.563l-.184.782-.077.391-.038.2a.8.8,0,0,1-.029.13c-.022.029-.035-.013-.079-.115a.7.7,0,0,0-.215-.262c-.077-.045-.092-.016-.048.04a1.315,1.315,0,0,0,.306.214,5.163,5.163,0,0,0,1.209.412,14.276,14.276,0,0,0,1.536.271c1.067.139,2.249.207,3.346.265l.113.006a1.574,1.574,0,0,1,.445,3.053,18.289,18.289,0,0,1-1.886.571,19.113,19.113,0,0,1-1.936.376,11.761,11.761,0,0,1-4.387-.113,6.156,6.156,0,0,1-1.347-.5,5.119,5.119,0,0,1-1.444-1.084,4.682,4.682,0,0,1-1.049-1.841,5.352,5.352,0,0,1-.188-1.9c.012-.168.021-.232.031-.316l.029-.249.059-.5c.049-.329.094-.661.15-.988.111-.655.237-1.305.4-1.943a39.091,39.091,0,0,1,2.572-7.319c.542-1.161,1.12-2.3,1.755-3.407.314-.556.644-1.1.987-1.647.171-.272.346-.543.529-.813s.354-.521.589-.847a3.138,3.138,0,0,1,5.188,3.528Z" transform="translate(-136.807 -284.862)"/><path class="o" d="M174,287.141c.046.3.242.523.44.494s.322-.3.276-.6-.242-.523-.439-.494S173.956,286.838,174,287.141Z" transform="translate(-149.788 -277.486)"/><path class="t" d="M174.336,288.276a10.94,10.94,0,0,0,1.831,2.371,1.761,1.761,0,0,1-1.4.487Z" transform="translate(-149.908 -278.093)"/><path class="o" d="M171.864,284.683a.181.181,0,0,0,.1-.049,1.421,1.421,0,0,1,1.229-.42.18.18,0,0,0,.077-.351,1.782,1.782,0,0,0-1.557.514.18.18,0,0,0,0,.254A.182.182,0,0,0,171.864,284.683Z" transform="translate(-148.973 -276.544)"/><path class="p" d="M159.138,292.594c.128,2.824-.085,7.931-2.278,9.475,0,0,.335,2.895,5.432,3.655,5.6.837,3.094-2.382,3.094-2.382-2.951-1.187-2.533-3.445-1.681-5.5Z" transform="translate(-143.807 -279.601)"/><path class="g" d="M155.4,307.277c-.215-1.276-.445-2.734.516-2.959,1.058-.247,6.538.483,8.271,1.78s.842,3.588.842,3.588Z" transform="translate(-143.232 -283.677)"/><path class="i" d="M165.686,312.756c.208,4.522-.005,13.488-3.068,27.055h-20.28c-.127-2.82,2.786-14.983,2.532-28.348a5.052,5.052,0,0,1,5.041-5.143c.4,0,.818.016,1.254.049a71.2,71.2,0,0,1,8.548,1.114c.842.189,1.664.416,2.408.645A5.073,5.073,0,0,1,165.686,312.756Z" transform="translate(-138.736 -284.393)"/><path class="q" d="M173.319,328.706c-.323,2.3-1.067,6.283,1.619,10.683.3-1.825.551-3.534.753-5.13Z" transform="translate(-149.433 -292.207)"/><path class="p" d="M197.021,334.646l3.411-1.175-1.39-3.6a4.322,4.322,0,0,0-3.446,2.81Z" transform="translate(-157.33 -292.614)"/><path class="p" d="M204.091,332.311l.361-2.9-3.561.3,1.389,3.6Z" transform="translate(-159.178 -292.455)"/><path class="i" d="M174.862,314.312c.188.663.424,1.426.646,2.143s.462,1.455.709,2.175c.486,1.445,1.017,2.869,1.58,4.26a42.939,42.939,0,0,0,1.865,4,17.763,17.763,0,0,0,2.25,3.331l-3.288-.51c.631-.271,1.284-.553,1.938-.875s1.322-.648,1.983-1.005l2.015-1.066c.674-.355,1.364-.737,2.035-1.069l.072-.035a1.589,1.589,0,0,1,1.977,2.375,23.935,23.935,0,0,1-1.608,1.907c-.56.6-1.15,1.179-1.759,1.742s-1.252,1.1-1.927,1.609a24.083,24.083,0,0,1-2.143,1.462,2.588,2.588,0,0,1-3.113-.343l-.174-.167a21.162,21.162,0,0,1-3.432-4.334,38.764,38.764,0,0,1-2.4-4.556c-.7-1.537-1.306-3.1-1.86-4.665-.271-.787-.536-1.575-.774-2.373s-.46-1.574-.677-2.453a3.139,3.139,0,0,1,6.066-1.614Z" transform="translate(-147.936 -286.367)"/><path class="p" d="M158.3,285.436c.783,3.681,1.054,5.875,3.215,7.5a5,5,0,0,0,7.914-3.78c.3-3.457-1.032-8.9-4.889-9.831A5.132,5.132,0,0,0,158.3,285.436Z" transform="translate(-144.267 -274.915)"/><path class="o" d="M163.343,284.011c1.756-.133,1.657-.943,1.258-1.541a13.444,13.444,0,0,1-.872-2.74s2.442.648,1.944-1.694-3.806-5.307-6.687-3.488c-5.746-.947-7.615,1.37-6.743,3.513-4.56,2.018-1.271,6.1.548,6.1-1.619,1.446.8,3.526,4.716,5.863C160.39,286.568,164.626,287.5,163.343,284.011Z" transform="translate(-141.389 -273.104)"/><path class="o" d="M161.811,275.246a.445.445,0,0,1-.321-.135,5.407,5.407,0,0,0-5.225-1.421.448.448,0,1,1-.2-.873,6.362,6.362,0,0,1,6.07,1.668.448.448,0,0,1-.321.762Z" transform="translate(-143.407 -272.632)"/><path class="o" d="M154.889,293.346a.446.446,0,0,1-.318-.132c-1.265-1.271-1.784-2.268-1.635-3.138a2.034,2.034,0,0,1,1.273-1.45.449.449,0,1,1,.389.808c-.471.226-.725.486-.778.793-.064.374.125,1.086,1.387,2.354a.448.448,0,0,1-.318.765Z" transform="translate(-142.429 -278.2)"/><path class="p" d="M167.164,287.956a4.248,4.248,0,0,0,1.658,2.17c1.027.676,1.721-.088,1.587-1.2-.122-1-.8-2.556-1.906-2.79C167.416,285.906,166.819,286.883,167.164,287.956Z" transform="translate(-147.37 -277.335)"/><g transform="translate(48.523 96.475)"><path class="i" d="M220.423,434.149c.486,0,.956-.068,1.114-.286a.341.341,0,0,0-.007-.393.447.447,0,0,0-.285-.21c-.631-.172-1.956.583-2.012.616a.088.088,0,0,0-.044.092.09.09,0,0,0,.071.074A6.65,6.65,0,0,0,220.423,434.149Zm.6-.736a.69.69,0,0,1,.174.02.272.272,0,0,1,.176.126c.064.112.041.167.018.2-.176.245-1.135.25-1.84.15A4.067,4.067,0,0,1,221.024,433.413Z" transform="translate(-214.089 -425.173)"/><path class="i" d="M219.278,433.557a.09.09,0,0,0,.036-.008c.458-.205,1.364-1.025,1.3-1.454-.017-.1-.088-.226-.335-.251a.665.665,0,0,0-.5.154,2.569,2.569,0,0,0-.588,1.46.092.092,0,0,0,.037.082A.09.09,0,0,0,219.278,433.557Zm.925-1.537a.508.508,0,0,1,.054,0c.161.017.172.08.175.1.042.258-.575.9-1.041,1.183a2.113,2.113,0,0,1,.5-1.17A.479.479,0,0,1,220.2,432.02Z" transform="translate(-214.089 -424.687)"/><path class="p" d="M212.317,429.63h3.792l-.723-8.781h-3.792Z" transform="translate(-211.438 -420.85)"/><path class="o" d="M216.03,433.665h-4.14a.275.275,0,0,0-.284.259l-.25,3.37a.655.655,0,0,0,.646.674c1.49-.025,3.635-.113,5.512-.113,2.2,0,2.423.12,5,.12,1.556,0,1.755-1.573,1.082-1.716-3.062-.649-3.808-.719-6.606-2.3A1.987,1.987,0,0,0,216.03,433.665Z" transform="translate(-211.354 -425.323)"/><path class="q" d="M215.384,420.853l.373,4.526h-3.793l-.373-4.526Z" transform="translate(-211.436 -420.851)"/></g><path class="i" d="M184.247,434.154a1.219,1.219,0,0,0,.911-.251.366.366,0,0,0,0-.426.414.414,0,0,0-.282-.209c-.552-.13-1.6.587-1.645.618a.09.09,0,0,0,.03.161A4.774,4.774,0,0,0,184.247,434.154Zm.475-.723a.458.458,0,0,1,.111.012.238.238,0,0,1,.165.121c.081.147.034.21.018.23-.163.212-.936.216-1.5.12A2.955,2.955,0,0,1,184.721,433.431Z" transform="translate(-152.999 -328.704)"/><path class="i" d="M183.279,433.556a.089.089,0,0,0,.043-.01c.393-.213,1.151-1.044,1.071-1.466a.293.293,0,0,0-.286-.236.493.493,0,0,0-.383.115c-.44.36-.531,1.454-.534,1.5a.089.089,0,0,0,.089.1Zm.765-1.537a.281.281,0,0,1,.04,0c.117.014.127.068.131.09.048.25-.436.877-.826,1.174a2.159,2.159,0,0,1,.448-1.188A.319.319,0,0,1,184.045,432.02Z" transform="translate(-152.999 -328.211)"/><path class="p" d="M178,429.63h3.792l1.906-8.781H179.9Z" transform="translate(-151.186 -324.374)"/><path class="o" d="M181.368,433.665h-4.26a.331.331,0,0,0-.323.259l-.749,3.37a.557.557,0,0,0,.555.674c1.487-.026,2.21-.113,4.083-.113,1.153,0,2.632.12,4.223.12,1.557,0,1.8-1.573,1.148-1.716-2.922-.639-3.127-1.521-4.062-2.362A.919.919,0,0,0,181.368,433.665Z" transform="translate(-150.497 -328.848)"/><path d="M156.132,357.773s21.037,6.383,21.556,14.833c.956,15.561-6.677,28.826-6.677,28.826h-5.688s2.16-6.576,2.935-20.674c.974-17.715-32.52.415-26.328-22.985Z" transform="translate(-138.328 -302.354)"/><g class="r" transform="translate(27.73 96.478)"><path d="M180.393,420.853h3.793l-.984,4.526h-3.793Z" transform="translate(-179.409 -420.853)"/></g><path class="o" d="M165.981,357.773s27.2,1.777,28.277,16.231c1.236,16.6,1.594,27.428,1.594,27.428h-5.634s-2.9-10.178-5.4-24.807c-.749-4.382-10.045-5.137-18.818-5.656-7.578-.448-13.4-.885-14.034-9.294l.1-3.9Z" transform="translate(-142.099 -302.354)"/><path class="i" d="M217,422.529c.029,0-.363,2.667-.363,2.667h-7.813l-.212-2.38Z" transform="translate(-161.875 -324.961)"/><path class="i" d="M185.081,422.529c.029,0-.717,2.667-.717,2.667H176.55l.144-2.38Z" transform="translate(-150.681 -324.961)"/></g><g transform="translate(0 39.038)"><path class="i" d="M154.383,360.989l-3.807-25.862a2.949,2.949,0,0,0-2.918-2.52H125.2a2.949,2.949,0,0,0-2.918,3.379l3.681,25h0a2.192,2.192,0,0,0,2.192,2.192H169.1a2.192,2.192,0,0,0-2.192-2.192Z" transform="translate(-122.246 -332.607)"/><path class="aa" d="M154.383,360.989l-3.807-25.862a2.949,2.949,0,0,0-2.918-2.52H125.2a2.949,2.949,0,0,0-2.918,3.379l3.681,25h0a2.192,2.192,0,0,0,2.192,2.192H169.1a2.192,2.192,0,0,0-2.192-2.192Z" transform="translate(-122.246 -332.607)"/><path class="w" d="M147.658,332.607H125.2a2.949,2.949,0,0,0-2.918,3.379l3.681,25a2.192,2.192,0,0,0,2.192,2.192h23.82Z" transform="translate(-122.246 -332.607)"/><g transform="translate(2.727 30.574)"><path class="i" d="M127.706,419.4h-1.271l3.178-39.822h1.271Z" transform="translate(-126.435 -379.579)"/><path class="ab" d="M127.706,419.4h-1.271l3.178-39.822h1.271Z" transform="translate(-126.435 -379.579)"/></g><g transform="translate(24.322 30.574)"><path class="i" d="M160.883,419.4h-1.271l3.178-39.822h1.271Z" transform="translate(-159.613 -379.579)"/><path class="ab" d="M160.883,419.4h-1.271l3.178-39.822h1.271Z" transform="translate(-159.613 -379.579)"/></g><g transform="translate(23.097 30.574)"><path class="i" d="M162.179,419.4h-1.271l-3.178-39.822H159Z" transform="translate(-157.731 -379.579)"/><path class="ac" d="M162.179,419.4h-1.271l-3.178-39.822H159Z" transform="translate(-157.731 -379.579)"/></g><g transform="translate(44.692 30.574)"><path class="i" d="M195.357,419.4h-1.271l-3.178-39.822h1.271Z" transform="translate(-190.908 -379.579)"/><path class="ac" d="M195.357,419.4h-1.271l-3.178-39.822h1.271Z" transform="translate(-190.908 -379.579)"/></g></g></g></g></svg>