<svg xmlns="http://www.w3.org/2000/svg" width="157.535" height="153.684" viewBox="0 0 157.535 153.684"><defs><style>.a{fill:#7aa9ff;}.a,.b,.c,.d,.g,.h,.j,.k,.l,.m,.n,.o,.q,.r,.v{fill-rule:evenodd;}.b,.p{fill:#6fa0fd;}.c{fill:#3f79da;}.d{fill:#bedaf7;}.e{fill:#edf7fb;}.f,.n{fill:#aabeeb;}.g,.x{fill:#407adb;}.h,.i{fill:#424b96;}.j{fill:#f2f2f2;}.k{fill:#03c;}.l{fill:#c4c9ce;}.m{fill:#3b70cc;}.o,.t{fill:#b7cdfe;}.q{fill:#5e94ea;}.r{fill:#505bb5;}.s{fill:#3f79dc;}.u,.v{fill:#fff;}.w{fill:#cfd8fc;}</style></defs><g transform="translate(-66.858 -243.645)"><g transform="translate(80.805 334.448)"><path class="a" d="M140.05,462.575H107.764a5.27,5.27,0,0,1-2.109-1.28,13.736,13.736,0,0,1-2.732-3.592c.006.07,6.121,1.805,5.352.437-.733-1.268-5.927-1.236-7.363-3.058a37.572,37.572,0,0,1-3.16-4.993c-.01.048,4.5,2.892,4.409,1.5-.091-1.286-5.251-3.552-6.386-5.77-1.13-2.1,4.476,1.691,5.065.988.561-.544-5.387-4.4-6.552-6.318-1.218-1.825-1.416-5.369-.572-4.594s2.2,2,2.2,1.181c-.039-.767-3.584-5.711-3.551-7.362-.028-1.55,3.787,2.85,4.074,2.262.237-.467-4.367-5.016-4.8-7.678-.473-2.58-.106-4.808.122-4.767.21.059,2.31,3.455,2.8,3.306.412-.078-.674-15.956,6.829-19.348,6.232,4.034,11.952,14.423,11.98,14.417.45-.136.985-3.248,1.2-3.345.2-.1,1.312,1.242,2.014,3.006.638,1.727-.675,6.746-.11,6.922.475.114,1.223-4.361,2.057-3.458.752.862.855,5.33,1.418,5.711.512.368.73-1.037.92-1.874s2.089.846,2.4,2.272c.228,1.4-.694,6.91.162,6.691.736-.29,1.586-5.349,2.361-3.91.693,1.367-.475,5.738.563,6.111.961.32,1.211-3.638,1.248-3.62-.006.007,1.369,1.937,2.052,3.243.632,1.278-1.489,5.461-.615,6.213.794.686,1.671-4.4,1.728-4.371a7.64,7.64,0,0,1,1.781,2.342c.946,1.69-.492,3.839.392,5.467.9,1.611,2.568-.957,2.57-.949C140.664,451.746,140.893,458.29,140.05,462.575Z" transform="translate(-91.41 -403.495)"/></g><g transform="translate(68.837 343.047)"><path class="b" d="M130.943,459.831l-30.12,11.624a5.278,5.278,0,0,1-2.428-.435,13.733,13.733,0,0,1-3.842-2.368c.031.064,6.36-.519,5.151-1.518-1.14-.92-5.974.982-7.97-.2a37.585,37.585,0,0,1-4.747-3.52c.008.049,5.242,1.077,4.655-.185-.548-1.167-6.178-1.424-8.035-3.083-1.81-1.55,4.784-.035,5.081-.9.328-.709-6.608-2.162-8.387-3.535-1.793-1.263-3.254-4.5-2.188-4.08s2.772,1.077,2.476.311c-.312-.7-5.4-4.038-5.964-5.59-.584-1.437,4.56,1.3,4.614.644.053-.521-5.88-3.108-7.238-5.436-1.37-2.236-1.83-4.447-1.6-4.492.218-.021,3.4,2.392,3.8,2.077.356-.221-6.375-14.643-.6-20.509,7.267,1.52,16.343,9.153,16.368,9.137.372-.289-.251-3.385-.081-3.555.15-.168,1.672.686,2.962,2.08,1.217,1.382,1.8,6.537,2.389,6.5.485-.065-.429-4.508.674-3.967,1.012.534,2.718,4.664,3.379,4.818.61.158.307-1.231.183-2.08s2.252.037,3.059,1.255c.718,1.227,1.84,6.7,2.561,6.183.582-.535-.446-5.561.8-4.5,1.138,1.025,1.622,5.524,2.725,5.5,1.012-.047-.18-3.829-.139-3.826,0,.009,1.975,1.313,3.082,2.286,1.05.964.577,5.631,1.663,6.017.988.354-.027-4.71.039-4.7a7.647,7.647,0,0,1,2.5,1.543c1.491,1.236.923,3.758,2.334,4.96,1.419,1.179,2.051-1.818,2.056-1.811C127.617,449.508,130.187,455.53,130.943,459.831Z" transform="translate(-70.342 -418.633)"/></g><g transform="translate(153.356 326.252)"><path class="a" d="M219.554,456.212h36.692a6,6,0,0,0,2.4-1.454,15.6,15.6,0,0,0,3.1-4.083c-.007.081-6.956,2.052-6.083.5.833-1.442,6.737-1.4,8.368-3.475a42.788,42.788,0,0,0,3.592-5.675c.012.055-5.117,3.287-5.011,1.709.1-1.461,5.969-4.037,7.258-6.557,1.285-2.384-5.087,1.921-5.756,1.124-.637-.619,6.122-5,7.447-7.181,1.385-2.073,1.61-6.1.65-5.221s-2.5,2.277-2.5,1.342c.044-.873,4.073-6.49,4.036-8.367.032-1.762-4.3,3.24-4.629,2.571-.27-.531,4.962-5.7,5.45-8.726.537-2.932.12-5.464-.139-5.418-.24.067-2.626,3.928-3.182,3.758-.467-.089.767-18.134-7.761-21.989-7.083,4.585-13.584,16.392-13.616,16.385-.512-.154-1.12-3.692-1.369-3.8-.228-.117-1.492,1.412-2.29,3.417-.725,1.963.768,7.667.126,7.867-.54.129-1.39-4.956-2.338-3.93-.854.98-.973,6.058-1.611,6.491-.582.419-.829-1.179-1.046-2.13s-2.373.961-2.73,2.583c-.258,1.594.789,7.853-.185,7.6-.836-.329-1.8-6.079-2.683-4.444-.788,1.553.541,6.521-.64,6.945-1.093.365-1.376-4.134-1.418-4.113.007.008-1.556,2.2-2.332,3.686-.719,1.452,1.692,6.206.7,7.06-.9.779-1.9-5.005-1.964-4.968a8.682,8.682,0,0,0-2.024,2.661c-1.075,1.92.559,4.363-.445,6.214-1.023,1.831-2.919-1.088-2.921-1.079C218.856,443.9,218.595,451.341,219.554,456.212Z" transform="translate(-219.13 -389.067)"/></g><g transform="translate(179.08 313.243)"><g transform="translate(8.384 5.233)"><path class="c" d="M296.285,375.729a63.536,63.536,0,0,0-8.4,13.01,82.705,82.705,0,0,0-8.277,26.025l-.44-.158a84.563,84.563,0,0,1,8.067-25.6,63.247,63.247,0,0,1,8.666-13.54C296.1,375.241,296.483,375.505,296.285,375.729Z" transform="translate(-279.173 -375.379)"/></g><g transform="translate(0.803 37.331)"><path class="c" d="M273.525,439.042s-.792-4.307-7.7-7.159A12.875,12.875,0,0,0,273.525,439.042Z" transform="translate(-265.828 -431.883)"/></g><g transform="translate(0 33.171)"><path class="c" d="M273.44,432.589s-1.009-4.746-9.026-8.029A15.3,15.3,0,0,0,273.44,432.589Z" transform="translate(-264.414 -424.56)"/></g><g transform="translate(1.769 29.369)"><path class="c" d="M275.311,427.107s-.319-4.84-7.782-9.239A15.3,15.3,0,0,0,275.311,427.107Z" transform="translate(-267.529 -417.868)"/></g><g transform="translate(3.801 25.753)"><path class="c" d="M277.881,421.5s.189-4.847-6.775-10A15.3,15.3,0,0,0,277.881,421.5Z" transform="translate(-271.106 -411.502)"/></g><g transform="translate(3.366 20.142)"><path class="c" d="M278.577,413.354s.091-5.592-8.238-11.73A18.676,18.676,0,0,0,278.577,413.354Z" transform="translate(-270.339 -401.624)"/></g><g transform="translate(4.461 15.812)"><path class="c" d="M280.806,406.177s.1-5.809-8.538-12.176A19.353,19.353,0,0,0,280.806,406.177Z" transform="translate(-272.268 -394.001)"/></g><g transform="translate(7.439 11.356)"><path class="c" d="M284,399.537s1.024-5.719-6.491-13.379A19.348,19.348,0,0,0,284,399.537Z" transform="translate(-277.509 -386.158)"/></g><g transform="translate(11.448 7.819)"><path class="c" d="M288.84,392.664s1.6-4.99-4.212-12.733A17.449,17.449,0,0,0,288.84,392.664Z" transform="translate(-284.567 -379.931)"/></g><g transform="translate(13.707 4.775)"><path class="c" d="M292.833,386.377s1.246-4.5-4.269-11.805A17.2,17.2,0,0,0,292.833,386.377Z" transform="translate(-288.544 -374.572)"/></g><g transform="translate(15.974 2.362)"><path class="c" d="M296.618,380.626s.859-3.811-4.082-10.3A16.218,16.218,0,0,0,296.618,380.626Z" transform="translate(-292.534 -370.324)"/></g><g transform="translate(19.384 0.673)"><path class="c" d="M300.756,377.3s1.212-3.158-2.1-9.95A16.127,16.127,0,0,0,300.756,377.3Z" transform="translate(-298.538 -367.351)"/></g><g transform="translate(22.018)"><path class="c" d="M304.575,373.878s1.333-2.594-1.115-7.712A10.61,10.61,0,0,0,304.575,373.878Z" transform="translate(-303.175 -366.166)"/></g><g transform="translate(24.753 0.106)"><path class="c" d="M307.99,372.22s3.681-.646,4.309-5.867C312.3,366.353,308.131,368.071,307.99,372.22Z" transform="translate(-307.99 -366.353)"/></g><g transform="translate(23.539 5.283)"><path class="c" d="M313.4,375.643s-2.723-1.043-7.545,1.946A10.612,10.612,0,0,0,313.4,375.643Z" transform="translate(-305.852 -375.467)"/></g><g transform="translate(8.484 42.728)"><path class="c" d="M279.349,442.847s3.352-2.82,10.493-.627A12.877,12.877,0,0,1,279.349,442.847Z" transform="translate(-279.349 -441.385)"/></g><g transform="translate(9.645 36.154)"><path class="c" d="M281.393,432.3s3.325-3.532,11.881-2.178A15.3,15.3,0,0,1,281.393,432.3Z" transform="translate(-281.393 -429.812)"/></g><g transform="translate(10.386 32.024)"><path class="c" d="M282.7,425.985s2.939-3.86,11.589-3.407A15.3,15.3,0,0,1,282.7,425.985Z" transform="translate(-282.697 -422.541)"/></g><g transform="translate(11.477 27.798)"><path class="c" d="M284.618,418.961s3.487-4.373,13.818-3.81A18.678,18.678,0,0,1,284.618,418.961Z" transform="translate(-284.618 -415.101)"/></g><g transform="translate(12.883 23.637)"><path class="c" d="M287.093,411.792s3.617-4.546,14.333-3.964A19.352,19.352,0,0,1,287.093,411.792Z" transform="translate(-287.093 -407.776)"/></g><g transform="translate(14.096 18.308)"><path class="c" d="M289.228,404.589s2.848-5.064,13.519-6.193A19.352,19.352,0,0,1,289.228,404.589Z" transform="translate(-289.228 -398.396)"/></g><g transform="translate(15.946 14.399)"><path class="c" d="M292.485,397.326s2.482-4.614,12.087-5.812A17.453,17.453,0,0,1,292.485,397.326Z" transform="translate(-292.485 -391.514)"/></g><g transform="translate(18.168 9.706)"><path class="c" d="M296.4,389.645s1.9-4.268,10.8-6.393A17.2,17.2,0,0,1,296.4,389.645Z" transform="translate(-296.397 -383.252)"/></g><g transform="translate(21.656 7.136)"><path class="c" d="M302.538,382.064s2.079-2.669,9.607-3.336A16.128,16.128,0,0,1,302.538,382.064Z" transform="translate(-302.538 -378.728)"/></g><g transform="translate(8.929 39.678)"><path class="c" d="M280.132,437.5s3.8-3.019,12.072-.454A15.3,15.3,0,0,1,280.132,437.5Z" transform="translate(-280.132 -436.015)"/></g></g><g transform="translate(155.52 334.448)"><path class="b" d="M222.939,450.317l34.231,13.211a6,6,0,0,0,2.76-.494,15.6,15.6,0,0,0,4.367-2.691c-.035.072-7.229-.59-5.854-1.726,1.3-1.045,6.79,1.116,9.059-.229a42.683,42.683,0,0,0,5.394-4c-.009.056-5.957,1.224-5.29-.21.623-1.326,7.021-1.617,9.131-3.5,2.057-1.761-5.437-.039-5.774-1.024-.372-.807,7.51-2.457,9.533-4.018,2.038-1.435,3.7-5.113,2.486-4.636s-3.15,1.225-2.813.353c.354-.8,6.137-4.589,6.778-6.353.663-1.632-5.182,1.473-5.245.732-.06-.592,6.683-3.532,8.227-6.178,1.557-2.542,2.08-5.055,1.821-5.1-.247-.024-3.863,2.718-4.321,2.36-.4-.252,7.244-16.642.677-23.309-8.259,1.727-18.575,10.4-18.6,10.384-.423-.328.284-3.847.091-4.039-.171-.191-1.9.78-3.366,2.363-1.383,1.57-2.044,7.429-2.715,7.385-.55-.074.487-5.124-.766-4.509-1.15.607-3.089,5.3-3.84,5.475-.694.181-.349-1.4-.208-2.364s-2.56.043-3.476,1.427c-.816,1.395-2.092,7.61-2.91,7.028-.662-.608.507-6.321-.9-5.112-1.294,1.166-1.843,6.278-3.1,6.249-1.15-.053.205-4.352.158-4.348,0,.01-2.244,1.492-3.5,2.6-1.193,1.1-.656,6.4-1.89,6.839-1.122.4.031-5.353-.044-5.342a8.671,8.671,0,0,0-2.846,1.754c-1.7,1.4-1.05,4.271-2.653,5.637-1.613,1.34-2.331-2.066-2.337-2.058C226.718,438.584,223.8,445.428,222.939,450.317Z" transform="translate(-222.939 -403.495)"/></g><g transform="translate(82.591 319.396)"><g transform="translate(5.713 5.233)"><path class="c" d="M104.667,386.56a63.556,63.556,0,0,1,8.395,13.01,82.7,82.7,0,0,1,8.277,26.025l.44-.158a84.564,84.564,0,0,0-8.068-25.6,63.268,63.268,0,0,0-8.666-13.54C104.85,386.073,104.469,386.337,104.667,386.56Z" transform="translate(-104.612 -386.211)"/></g><g transform="translate(22.764 37.331)"><path class="c" d="M134.627,449.874s.792-4.307,7.7-7.159A12.875,12.875,0,0,1,134.627,449.874Z" transform="translate(-134.627 -442.715)"/></g><g transform="translate(22.238 33.171)"><path class="c" d="M133.7,443.421s1.009-4.745,9.026-8.029A15.3,15.3,0,0,1,133.7,443.421Z" transform="translate(-133.702 -435.392)"/></g><g transform="translate(21.712 29.369)"><path class="c" d="M132.776,437.939s.319-4.84,7.783-9.239A15.3,15.3,0,0,1,132.776,437.939Z" transform="translate(-132.776 -428.7)"/></g><g transform="translate(20.687 25.753)"><path class="c" d="M130.972,432.334s-.189-4.847,6.776-10A15.3,15.3,0,0,1,130.972,432.334Z" transform="translate(-130.971 -422.334)"/></g><g transform="translate(19.66 20.142)"><path class="c" d="M129.163,424.186s-.091-5.592,8.238-11.73A18.677,18.677,0,0,1,129.163,424.186Z" transform="translate(-129.163 -412.456)"/></g><g transform="translate(18.265 15.812)"><path class="c" d="M126.707,417.008s-.1-5.808,8.538-12.175A19.351,19.351,0,0,1,126.707,417.008Z" transform="translate(-126.707 -404.833)"/></g><g transform="translate(17.287 11.356)"><path class="c" d="M125.033,410.368s-1.024-5.718,6.491-13.378A19.348,19.348,0,0,1,125.033,410.368Z" transform="translate(-124.986 -396.99)"/></g><g transform="translate(15.342 7.819)"><path class="c" d="M121.763,403.5s-1.6-4.99,4.212-12.733A17.452,17.452,0,0,1,121.763,403.5Z" transform="translate(-121.562 -390.763)"/></g><g transform="translate(13.148 4.775)"><path class="c" d="M117.82,397.209s-1.247-4.5,4.269-11.8A17.2,17.2,0,0,1,117.82,397.209Z" transform="translate(-117.699 -385.404)"/></g><g transform="translate(11.15 2.362)"><path class="c" d="M114.239,391.458s-.859-3.81,4.082-10.3A16.221,16.221,0,0,1,114.239,391.458Z" transform="translate(-114.182 -381.156)"/></g><g transform="translate(9.446 0.673)"><path class="c" d="M111.4,388.133s-1.212-3.158,2.1-9.95A16.122,16.122,0,0,1,111.4,388.133Z" transform="translate(-111.182 -378.183)"/></g><g transform="translate(7.483)"><path class="c" d="M108.089,384.71s-1.333-2.594,1.115-7.712A10.61,10.61,0,0,1,108.089,384.71Z" transform="translate(-107.727 -376.998)"/></g><g transform="translate(2.202 0.106)"><path class="c" d="M102.74,383.052s-3.681-.646-4.309-5.867C98.431,377.185,102.6,378.9,102.74,383.052Z" transform="translate(-98.431 -377.185)"/></g><g transform="translate(0.18 5.283)"><path class="c" d="M94.871,386.474s2.723-1.043,7.545,1.947A10.611,10.611,0,0,1,94.871,386.474Z" transform="translate(-94.871 -386.298)"/></g><g transform="translate(12.287 42.728)"><path class="c" d="M126.678,453.679s-3.351-2.82-10.494-.628A12.876,12.876,0,0,0,126.678,453.679Z" transform="translate(-116.184 -452.217)"/></g><g transform="translate(9.738 36.154)"><path class="c" d="M123.578,443.131s-3.325-3.532-11.882-2.178A15.3,15.3,0,0,0,123.578,443.131Z" transform="translate(-111.696 -440.644)"/></g><g transform="translate(9.289 32.024)"><path class="c" d="M122.5,436.817s-2.938-3.86-11.589-3.407A15.3,15.3,0,0,0,122.5,436.817Z" transform="translate(-110.907 -433.373)"/></g><g transform="translate(5.969 27.797)"><path class="c" d="M118.879,429.793s-3.487-4.373-13.818-3.811A18.677,18.677,0,0,0,118.879,429.793Z" transform="translate(-105.061 -425.932)"/></g><g transform="translate(4.049 23.637)"><path class="c" d="M116.015,422.623s-3.617-4.546-14.333-3.963A19.35,19.35,0,0,0,116.015,422.623Z" transform="translate(-101.682 -418.608)"/></g><g transform="translate(3.649 18.308)"><path class="c" d="M114.5,415.421s-2.848-5.064-13.52-6.193A19.353,19.353,0,0,0,114.5,415.421Z" transform="translate(-100.978 -409.228)"/></g><g transform="translate(3.232 14.399)"><path class="c" d="M112.329,408.158s-2.482-4.614-12.086-5.812A17.451,17.451,0,0,0,112.329,408.158Z" transform="translate(-100.243 -402.346)"/></g><g transform="translate(2.293 9.706)"><path class="c" d="M109.393,400.477s-1.9-4.268-10.8-6.393A17.2,17.2,0,0,0,109.393,400.477Z" transform="translate(-98.59 -394.084)"/></g><g transform="translate(0 7.136)"><path class="c" d="M104.161,392.9s-2.079-2.669-9.607-3.336A16.135,16.135,0,0,0,104.161,392.9Z" transform="translate(-94.554 -389.56)"/></g><g transform="translate(10.264 39.678)"><path class="c" d="M124.694,448.334s-3.8-3.019-12.072-.454A15.3,15.3,0,0,0,124.694,448.334Z" transform="translate(-112.622 -446.847)"/></g></g><g transform="translate(87.478 389.462)"><path class="d" d="M160.4,508.208c31.527,0,57.241-1.767,57.241-3.934s-25.714-3.934-57.241-3.934-57.242,1.767-57.242,3.934S128.871,508.208,160.4,508.208Z" transform="translate(-103.157 -500.341)"/></g><g transform="translate(66.858 243.645)"><g transform="translate(41.884 11.48)"><path class="b" d="M213.114,274.309V391.671a10.453,10.453,0,0,1-10.454,10.455H151.046a10.453,10.453,0,0,1-10.455-10.455V274.309a10.457,10.457,0,0,1,10.455-10.455h51.613A10.456,10.456,0,0,1,213.114,274.309Z" transform="translate(-140.591 -263.854)"/></g><g transform="translate(44.72 14.315)"><path class="e" d="M13.412,0H53.438A13.413,13.413,0,0,1,66.851,13.413V119.187A13.413,13.413,0,0,1,53.438,132.6H13.413A13.413,13.413,0,0,1,0,119.187V13.412A13.412,13.412,0,0,1,13.412,0Z"/></g><g transform="translate(57.296 120.918)"><ellipse class="f" cx="20.304" cy="3.573" rx="20.304" ry="3.573"/></g><g transform="translate(114.407 32.867)"><path class="g" d="M268.868,329.2h-.608V301.5h.608a1.371,1.371,0,0,1,1.37,1.371v24.949A1.371,1.371,0,0,1,268.868,329.2Z" transform="translate(-268.26 -301.504)"/></g><g transform="translate(40.046 32.396)"><path class="g" d="M139.193,314.144h-.564a1.274,1.274,0,0,1-1.274-1.274V301.949a1.274,1.274,0,0,1,1.274-1.274h.564Z" transform="translate(-137.355 -300.675)"/></g><g transform="translate(40.281 52.27)"><path class="g" d="M139.372,343.949h-.492a1.111,1.111,0,0,1-1.111-1.111v-6.066a1.111,1.111,0,0,1,1.111-1.111h.492Z" transform="translate(-137.769 -335.661)"/></g><g transform="translate(61.029 11.48)"><path class="b" d="M174.294,263.854h34.28v4.922a4.936,4.936,0,0,1-4.922,4.922H179.216a4.936,4.936,0,0,1-4.922-4.922Z" transform="translate(-174.294 -263.854)"/></g><g transform="translate(68.472 15.211)"><path class="h" d="M189.777,271.614a1.19,1.19,0,1,1-1.19-1.191A1.19,1.19,0,0,1,189.777,271.614Z" transform="translate(-187.396 -270.423)"/><g transform="translate(3.434 0.317)"><rect class="i" width="15.961" height="1.746" rx="0.873"/></g></g><g transform="translate(37.467 49.312)"><g transform="translate(0 3.533)"><g transform="translate(0 4.272)"><path class="j" d="M133.9,344.347c1.2-.6,2.913.611,3.843,2.7.685.148,1.152,1.166,1.065,2.387a2.85,2.85,0,0,1-1.051,2.2,1.571,1.571,0,0,1-.51.411c-1.212.6-2.945-.633-3.869-2.76S132.689,344.95,133.9,344.347Z" transform="translate(-132.815 -344.194)"/></g><g transform="translate(69.595 19.555)"><path class="j" d="M260.248,371.251c-1.2-.6-2.913.611-3.843,2.7-.685.148-1.151,1.166-1.064,2.388a2.85,2.85,0,0,0,1.05,2.2,1.568,1.568,0,0,0,.51.411c1.213.6,2.945-.633,3.869-2.76S261.461,371.854,260.248,371.251Z" transform="translate(-255.33 -371.098)"/></g><g transform="translate(2.237 10.611)"><path class="k" d="M171.6,370.786l-8.7,1.235c-11.039,1.567-18.82-5.366-22.47-16.667a4.365,4.365,0,0,1-3.677,1.189c1.754,14.334,10,22.578,24.441,25.665.36,11.228.967,23.367.694,34.4a63.372,63.372,0,0,0,24.4.6,172.063,172.063,0,0,1,.324-31.89c3.723,3.736,10.567,8.218,12.978,7.776,4.259-.781,6.54-11.478,7.881-21.134a3.852,3.852,0,0,1-3.345-2.424,159.3,159.3,0,0,1-5.683,14.944c-7.712-5.054-10.592-9.634-19.357-14.113Z" transform="translate(-136.753 -355.354)"/></g><g transform="translate(36.959 21.748)"><path class="j" d="M197.877,374.96h7.607v3.879c2.114,2.069,1.006,3.657-2.012,3.5-2.57-.134-5.6-1.028-5.6-4.073Z" transform="translate(-197.877 -374.96)"/></g><g transform="translate(36.959 21.748)"><path class="l" d="M197.877,374.96h7.607v1.94l-6.431,4.031a3.352,3.352,0,0,1-1.176-2.666Z" transform="translate(-197.877 -374.96)"/></g><g transform="translate(29.024)"><path class="h" d="M202.477,343.553l-10.634,14.87.1,1.641c-2.947-4.113-6-4.943-7.329-9.338-1.747-5.788-.274-10.754,4.861-12.606,1.518-.547,3.319.533,4.76-.241,3.708-1.989,5.319-1.217,5.645.174.542,2.311,4.383-.991,5.516,1.2C206.513,341.415,205.164,343.167,202.477,343.553Z" transform="translate(-183.909 -336.674)"/></g><g transform="translate(32.651 6.878)"><path class="j" d="M198,349.748a13.237,13.237,0,0,0,7.232-.965c3.74,6.287,3.874,15.122-2.766,16.817-3.674.938-8.615-.469-9.206-4.924-2.615-.264-3.768-4.506-2.369-5.608,1.471-1.159,2.481,1.011,2.714,2.265l.641-.189-.343-3.378A8.189,8.189,0,0,0,198,349.748Z" transform="translate(-190.293 -348.783)"/></g><g transform="translate(32.651 6.878)"><path class="j" d="M198,349.748a13.237,13.237,0,0,0,7.232-.965,11.028,11.028,0,0,1-6.986,3.369c-3.1,5.186-1.577,11.342,5.323,13.075a7.511,7.511,0,0,1-1.1.373c-3.674.938-8.615-.469-9.206-4.924-2.615-.264-3.768-4.506-2.369-5.608,1.471-1.159,2.481,1.011,2.714,2.265l.641-.189-.343-3.378A8.189,8.189,0,0,0,198,349.748Z" transform="translate(-190.293 -348.783)"/></g></g><g transform="translate(63.546)"><g transform="translate(7.096 23.439)"><path class="m" d="M257.173,372.365l2.831-.648,1.057,4.615a.682.682,0,0,1-.511.815l-1.5.344a.682.682,0,0,1-.815-.511Z" transform="translate(-257.173 -371.717)"/></g><g transform="translate(0 7.723)"><path class="n" d="M248.974,350.839c6.456-1.01,11.908-2.755,14.987-6.79l6.343,14.363-4.255,5.164c-6.042-3.778-10.432-3.538-16-3.008a4.81,4.81,0,0,1-5.343-4.192h0a4.931,4.931,0,0,1,.446-2.647v0l.043-.09.006-.011a5.131,5.131,0,0,1,.308-.537v0l.052-.078.01-.015c.017-.024.034-.049.051-.073l.01-.014.055-.076,0,0,.059-.078.01-.013q.122-.156.255-.3l.01-.01.053-.057.026-.027.048-.049.032-.032.047-.046.031-.03.049-.047.032-.03.051-.046.024-.022.058-.05.081-.068.052-.041.036-.028.049-.038.04-.03.051-.038.037-.027.053-.037.042-.029.045-.031.057-.037.037-.024.06-.037.038-.024.064-.037.031-.018h0l.027-.015.073-.04.032-.017.066-.035.042-.022.061-.031.042-.02.06-.028.046-.02.061-.027.043-.018.071-.029.034-.014.078-.03.032-.013h0l.1-.036h0l.043-.015.068-.022.044-.014.068-.02.047-.014.064-.018.048-.013.073-.018.039-.009.08-.018.036-.007.078-.015.04-.008Z" transform="translate(-244.682 -344.049)"/></g><g transform="translate(2.584 7.723)"><path class="o" d="M250.939,350.839c6.456-1.01,11.908-2.755,14.987-6.79a31.444,31.444,0,0,0-1.421,15.012,37.083,37.083,0,0,0-12.27-.348l-3-7.273.02-.011.073-.04.032-.017.066-.035.042-.022.061-.031.042-.02.06-.028.046-.02.061-.027.043-.018.071-.029.034-.014.078-.03.032-.013h0l.1-.036h0l.043-.015.068-.022.044-.014.068-.02.047-.014.064-.018.048-.013.073-.018.039-.009.08-.018.036-.007.078-.015.04-.008Z" transform="translate(-249.23 -344.049)"/></g><g transform="translate(0 14.341)"><path class="g" d="M248.974,355.872q.527-.083,1.044-.172a22.693,22.693,0,0,0-.073,5.92,24.6,24.6,0,0,0,.752,3.92q-.32.028-.643.06a4.81,4.81,0,0,1-5.343-4.192h0A5.107,5.107,0,0,1,248.974,355.872Z" transform="translate(-244.682 -355.7)"/></g><g transform="translate(18.574)"><path class="o" d="M284.093,330.48c4.623-.513,9.206,6.6,10.237,15.884s-1.881,17.229-6.5,17.742-9.207-6.6-10.237-15.884S279.469,330.993,284.093,330.48Z" transform="translate(-277.38 -330.454)"/></g><g transform="translate(19.612 1.043)"><path class="n" d="M285,332.312c4.05-.45,8.117,6.249,9.084,14.961s-1.533,16.139-5.582,16.589-8.117-6.249-9.084-14.961S280.947,332.761,285,332.312Z" transform="translate(-279.207 -332.29)"/></g><g transform="translate(18.879 1.453)"><ellipse class="p" cx="6.689" cy="14.738" rx="6.689" ry="14.738" transform="translate(0 1.476) rotate(-6.333)"/></g><g transform="translate(20.307 9.924)"><path class="q" d="M284.412,366.765a24.257,24.257,0,0,1-3.784-11.188,29.156,29.156,0,0,1,.112-7.653c2.1-.05,4.249,4.176,4.85,9.593C286.03,361.476,285.521,365,284.412,366.765Z" transform="translate(-280.431 -347.924)"/></g><g transform="translate(20.315 14.738)"><path class="r" d="M285.176,357.578l-4.732-1.179c.02.923.082,1.872.19,2.839a31.734,31.734,0,0,0,.642,3.747l4.343-1.592Z" transform="translate(-280.444 -356.399)"/></g><g transform="translate(20.631 17.825)"><path class="h" d="M281,362.582l4.637-.749.222,1.908-4.343,1.592C281.309,364.451,281.136,363.531,281,362.582Z" transform="translate(-281.001 -361.833)"/></g><g transform="translate(24.266 15.914)"><path class="n" d="M288.181,358.472c.536-.059,1.065.748,1.182,1.8s-.223,1.958-.758,2.017-1.065-.747-1.182-1.8S287.645,358.531,288.181,358.472Z" transform="translate(-287.399 -358.469)"/></g><g transform="translate(5.106 14.254)"><path class="h" d="M254.4,355.546a22.65,22.65,0,0,0-.078,5.953,24.514,24.514,0,0,0,.755,3.93l-.494.044a24.6,24.6,0,0,1-.752-3.92,22.69,22.69,0,0,1,.073-5.92Z" transform="translate(-253.67 -355.546)"/></g></g></g><g transform="translate(21.254 39.138)"><g transform="translate(2.895 3.893)"><path class="o" d="M124.66,319.4l4.286,5.925a9.435,9.435,0,1,1-15.289,11.061l-4.287-5.925L113,327.83l4.286,5.924a4.968,4.968,0,0,0,6.917,1.11h0a4.968,4.968,0,0,0,1.11-6.917l-4.286-5.925Z" transform="translate(-109.37 -319.396)"/></g><g transform="translate(0 8.355)"><rect class="i" width="4.482" height="4.954" transform="matrix(0.81, -0.586, 0.586, 0.81, 0.079, 2.706)"/><path class="s" d="M107.244,334.05l-.033-.045-2.937-4.059.045-.034,3.678-2.66.033.045,2.936,4.06-.045.033Zm-2.812-4.079,2.837,3.921,3.539-2.56-2.837-3.922Z" transform="translate(-104.274 -327.252)"/></g><g transform="translate(11.737 0)"><rect class="i" width="4.482" height="4.954" transform="translate(0 2.627) rotate(-35.883)"/></g></g><g transform="translate(138.907 51.53)"><g transform="translate(0.349)"><path class="o" d="M312,340.122l.419,1.046,10.187-3.74-1.4-3.07Z" transform="translate(-312.005 -334.358)"/></g><g transform="translate(1.326 12.629)"><path class="o" d="M313.724,356.939l.14,1.954,15.351,2.233L329,356.591Z" transform="translate(-313.724 -356.591)"/></g><g transform="translate(0 20.584)"><path class="o" d="M312.018,370.593l-.628,1.465,7.954,6.908,1.465-2.442Z" transform="translate(-311.39 -370.593)"/></g></g><g transform="translate(6.398 73.63)"><rect class="t" width="26.867" height="25.025" rx="10.924"/><g transform="translate(4.501 5.415)"><path class="u" d="M3.516,0H14.349a3.516,3.516,0,0,1,3.516,3.516V10.68A3.515,3.515,0,0,1,14.35,14.2H3.515A3.515,3.515,0,0,1,0,10.68V3.516A3.516,3.516,0,0,1,3.516,0Z"/><g transform="translate(1.464 1.463)"><path class="o" d="M96.091,391.929l-7.468-6.558,7.468,4.743,7.468-4.743Z" transform="translate(-88.622 -385.372)"/></g></g></g><g transform="translate(105.93 9.672)"><g transform="translate(0 0)"><circle class="t" cx="11.135" cy="11.135" r="11.135" transform="translate(0 6.497) rotate(-16.96)"/></g><g transform="translate(7.534 7.913)"><path class="v" d="M275.077,276.826l-4.958,2.255c-.074-.04-.157-.116-.234-.166a2.124,2.124,0,1,0-.557,3.813,2.17,2.17,0,0,0,.538-.247,1.878,1.878,0,0,0,.226-.166,2.007,2.007,0,0,1,.222-.2,4.864,4.864,0,0,1,.457.247c1.346.753,2.761,1.5,4.107,2.244.308.17.186.072.283.415a2.135,2.135,0,1,0,.582-2.108,3.078,3.078,0,0,0-.327.388c-.094-.018-3.2-1.734-3.422-1.86l-1.145-.621-.025-.531c.795-.362,1.579-.724,2.388-1.086.147-.066,2.3-1.061,2.4-1.075a2.152,2.152,0,0,0,1.2.679,2.126,2.126,0,0,0,2.386-1.328,2.175,2.175,0,0,0-.035-1.6,2.127,2.127,0,0,0-4.049.493C275.079,276.537,275.1,276.674,275.077,276.826Z" transform="translate(-266.6 -274.602)"/></g></g><g transform="translate(11.316)"><path class="o" d="M91.094,264.766h28.823a6.123,6.123,0,1,0,0-12.241,6.352,6.352,0,0,0-3.437,1,6.071,6.071,0,0,0-10.086-5.92,4.968,4.968,0,1,0-9.4,3.023c-.1-.007-.2-.011-.3-.011a4.443,4.443,0,0,0-4.248,5.733,4.315,4.315,0,1,0-1.346,8.415Z" transform="translate(-86.78 -243.645)"/></g><g transform="translate(51.077 34.339)"><g transform="translate(4.58)"><path class="w" d="M1.068,0H48.489a1.068,1.068,0,0,1,1.068,1.068v0a1.068,1.068,0,0,1-1.068,1.068H1.068A1.068,1.068,0,0,1,0,1.068v0A1.068,1.068,0,0,1,1.068,0Z"/></g><g transform="translate(4.58 5.979)"><rect class="w" width="49.557" height="2.135" rx="1.068"/></g><g transform="translate(4.58 11.957)"><path class="w" d="M1.068,0H48.489a1.068,1.068,0,0,1,1.068,1.068v0a1.068,1.068,0,0,1-1.068,1.068H1.068A1.068,1.068,0,0,1,0,1.068v0A1.068,1.068,0,0,1,1.068,0Z"/></g><path class="x" d="M1.068,0H1.64A1.068,1.068,0,0,1,2.708,1.068v0A1.068,1.068,0,0,1,1.64,2.136H1.068A1.068,1.068,0,0,1,0,1.068v0A1.068,1.068,0,0,1,1.068,0Z"/><g transform="translate(0 5.979)"><path class="x" d="M1.068,0h.573A1.068,1.068,0,0,1,2.708,1.068v0A1.068,1.068,0,0,1,1.641,2.135H1.068A1.068,1.068,0,0,1,0,1.068v0A1.068,1.068,0,0,1,1.068,0Z"/></g><g transform="translate(0 11.957)"><path class="x" d="M1.068,0H1.64A1.068,1.068,0,0,1,2.708,1.068v0A1.068,1.068,0,0,1,1.64,2.136H1.068A1.068,1.068,0,0,1,0,1.068v0A1.068,1.068,0,0,1,1.068,0Z"/></g></g><g transform="translate(51.077 132.639)"><g transform="translate(4.58)"><path class="w" d="M1.068,0H48.489a1.068,1.068,0,0,1,1.068,1.068v0a1.068,1.068,0,0,1-1.068,1.068H1.068A1.068,1.068,0,0,1,0,1.068v0A1.068,1.068,0,0,1,1.068,0Z"/></g><g transform="translate(4.58 5.979)"><path class="w" d="M1.068,0H48.489a1.068,1.068,0,0,1,1.068,1.068v0a1.068,1.068,0,0,1-1.068,1.068H1.068A1.068,1.068,0,0,1,0,1.068v0A1.068,1.068,0,0,1,1.068,0Z"/></g><path class="x" d="M1.068,0h.573A1.068,1.068,0,0,1,2.708,1.068v0A1.068,1.068,0,0,1,1.641,2.135H1.068A1.068,1.068,0,0,1,0,1.068v0A1.068,1.068,0,0,1,1.068,0Z"/><g transform="translate(0 5.979)"><path class="x" d="M1.068,0H1.64A1.068,1.068,0,0,1,2.708,1.068v0A1.068,1.068,0,0,1,1.64,2.136H1.068A1.068,1.068,0,0,1,0,1.068v0A1.068,1.068,0,0,1,1.068,0Z"/></g></g><g transform="translate(101.787 112.033)"><g transform="translate(0)"><rect class="t" width="42.186" height="28.978" rx="7.537"/></g><g transform="translate(15.411 9.162)"><path class="v" d="M273.175,457l11.365,5.327-11.365,5.327Z" transform="translate(-273.175 -456.997)"/></g></g><g transform="translate(18.834 115.488)"><path class="o" d="M102.277,450.309h6.113l1.564-2.6a1.169,1.169,0,0,1,1.18-.761h6.09a1.168,1.168,0,0,1,1.18.761l1.564,2.6h6.113a2.27,2.27,0,0,1,2.263,2.264v15.48a2.27,2.27,0,0,1-2.263,2.263h-23.8a2.27,2.27,0,0,1-2.263-2.263v-15.48A2.27,2.27,0,0,1,102.277,450.309Z" transform="translate(-100.014 -446.95)"/><g transform="translate(8.512 8.604)"><path class="v" d="M120.652,473.4A5.654,5.654,0,1,0,115,467.75,5.665,5.665,0,0,0,120.652,473.4Z" transform="translate(-114.998 -462.096)"/></g></g><g transform="translate(0 43.685)"><path class="o" d="M68.787,322.116a5.956,5.956,0,0,1,8.832,7.909l2.7,2.941a.827.827,0,0,1-.05,1.166l-.494.453a.827.827,0,0,1-1.166-.05l-2.7-2.941a5.956,5.956,0,0,1-7.122-9.478Zm1.529,1.665a3.7,3.7,0,1,0,5.222.224A3.7,3.7,0,0,0,70.316,323.782Z" transform="translate(-66.858 -320.549)"/></g></g></g></svg>