<svg xmlns="http://www.w3.org/2000/svg" width="28.86" height="28.861" viewBox="0 0 28.86 28.861"><defs><style>.a{fill:#0048cd;}</style></defs><path class="a" d="M88.883,158.889q0-5.269,0-10.538a3.84,3.84,0,0,1,3.854-3.874q10.561,0,21.121,0a3.827,3.827,0,0,1,3.861,3.731c.041,1.351.016,2.7.016,4.056q0,8.488,0,16.976a3.876,3.876,0,0,1-3.225,4.027,4.445,4.445,0,0,1-.789.06c-1.867,0-3.733-.006-5.6.01-.359,0-.477-.092-.475-.465q.028-4.74.017-9.48c0-.3.076-.408.392-.4,1,.018,2,.009,3,.006.547,0,.748-.167.817-.706q.2-1.529.364-3.063c.056-.5-.213-.792-.754-.8-1.1-.01-2.205-.025-3.307.007-.44.013-.545-.134-.529-.549.031-.822,0-1.646.013-2.469a1.631,1.631,0,0,1,1.746-1.871c.629-.046,1.263-.021,1.895-.033.6-.012.791-.2.794-.8q.005-1.235,0-2.469c0-.556-.192-.763-.729-.757a29.385,29.385,0,0,0-3.568.051,5.056,5.056,0,0,0-4.6,5.2c-.052,1.085-.027,2.175-.012,3.262,0,.32-.076.442-.415.43-.69-.024-1.381-.012-2.072-.005-.6.005-.823.224-.823.833,0,1.014.012,2.028.028,3.041.007.474.229.688.714.693.735.007,1.47.014,2.2,0,.29-.007.376.093.375.378q-.019,4.806-.015,9.612c0,.272-.09.353-.355.352-3.4-.009-6.791.022-10.185-.023a3.8,3.8,0,0,1-3.751-3.882Q88.881,164.158,88.883,158.889Z" transform="translate(-88.883 -144.476)"/></svg>