<svg xmlns="http://www.w3.org/2000/svg" xmlns:xlink="http://www.w3.org/1999/xlink" width="541.632" height="361.088" viewBox="0 0 541.632 361.088"><defs><style>.a,.j{fill:none;}.b{clip-path:url(#a);}.c{fill:#2680eb;}.d{fill:#fff;}.e{fill:#0a437d;}.f{fill:#0048cd;}.g{fill:#75c6fa;}.h{fill:#3b5a80;}.i,.n,.o,.u{fill:#96afbe;}.j{stroke:#f6f6f6;stroke-miterlimit:10;stroke-width:4px;}.k{fill:#f6f6f6;}.l,.n{opacity:0.3;}.m{fill:#f5f5f7;}.o{opacity:0.1;}.ah,.o,.u{mix-blend-mode:multiply;isolation:isolate;}.p{fill:#222a48;}.q{fill:#f2f2f2;}.r{fill:#d97d8b;}.s{fill:#0894fe;}.t{fill:#7b96a6;}.u{opacity:0.2;}.v{fill:#707070;}.w{fill:#c4c9ce;}.x{fill:#f4f9fd;}.y{fill:#99a2ab;}.z{fill:#3e4e9a;}.aa{fill:#f6eee5;}.ab{fill:#ffb794;}.ac{fill:#2b3f7f;}.ad{fill:#4d5a7e;}.ae{fill:#ee6261;}.af{fill:#6f7a88;}.ag{fill:#d19e5c;}.ah{opacity:0.4;fill:url(#b);}</style><clipPath id="a"><rect class="a" width="541.632" height="361.088"/></clipPath><radialGradient id="b" cx="0.5" cy="0.5" r="0.476" gradientTransform="translate(-0.054) scale(1.109 1)" gradientUnits="objectBoundingBox"><stop offset="0" stop-color="#ac6821"/><stop offset="1" stop-color="#ac6821" stop-opacity="0"/></radialGradient></defs><g transform="translate(-11.714 -133.963)"><g transform="translate(11.714 133.963)"><g class="b"><g transform="translate(0.001 6.316)"><g transform="translate(0 24.667)"><g transform="translate(46.663 43.3)"><path class="c" d="M81.848,184.544c-16.781,22.73-34.28,49.1-38.54,77.607-.052.431.64.572.74.143a169.3,169.3,0,0,1,7.421-22.82c11.032-3.035,21.861-5.53,27.656-16.481,5.91-11.257,5.158-25.933,4.035-38.2C83.082,184.14,82.19,184.108,81.848,184.544Z" transform="translate(-43.305 -184.254)"/><g transform="translate(8.298 7.16)"><path class="d" d="M48.954,236.947c7.539-16.917,17.219-33.9,29.52-47.815.083-.093.211.041.134.136-8.053,9.907-14.173,20.7-20.151,31.676,5.557-5.641,11.645-10.694,16.91-16.676.1-.117.266.053.168.17-5.226,6.27-10.935,13.087-17.741,17.728q-2.745,5.052-5.536,10.126c.456-.256.929-.483,1.4-.715.083-.041.155.081.072.124-.52.263-1.032.539-1.569.767-.885,1.6-1.761,3.2-2.669,4.795C49.289,237.616,48.8,237.3,48.954,236.947Z" transform="translate(-48.923 -189.101)"/><path class="d" d="M52.77,220.284a99.031,99.031,0,0,0,12.882-8.6c.111-.089.269.064.158.157A68.067,68.067,0,0,1,52.955,220.6C52.746,220.707,52.565,220.4,52.77,220.284Z" transform="translate(-47.131 -178.339)"/></g></g><g transform="translate(43.514)"><path class="e" d="M42.382,271.9c.034.346.62.338.614-.028.087-9.385.007-18.815.149-28.244,2.4-4.854,7.566-7.539,11.154-11.428a49.856,49.856,0,0,0,6.694-9.32,66.94,66.94,0,0,0,7.767-25.892c.991-10.04-2.818-43.17-7.05-42.019-2.2.6-9.3,17.006-11.182,22.43A156.4,156.4,0,0,0,43.849,204.9C40.418,226.992,40.7,249.673,42.382,271.9Z" transform="translate(-41.174 -154.939)"/><g transform="translate(1.058 5.794)"><path class="d" d="M41.974,229.538l.043-.037c.514-11.876,3.189-23.87,5.694-35.388,2.7-12.409,5.852-24.093,12.238-35.161.118-.205.422-.025.316.185a130.548,130.548,0,0,0-9.83,26.99c.427-.671.947-1.3,1.391-1.936.176-.248.586-.016.414.242a17.506,17.506,0,0,1-2,2.817.169.169,0,0,1-.083.038c-2.2,8.868-3.777,17.942-5.127,26.992.1-.115.2-.239.3-.35.068-.075.185.021.137.106-.167.3-.355.6-.538.9-.681,4.594-1.312,9.179-1.945,13.724,8.179-6.991,15.164-15.232,19.1-25.384.018-.047.095-.028.077.021-3.86,10.532-9.944,19.894-19.31,26.282q-.257,1.837-.517,3.668c-.035.253-.439.186-.437-.059,0-1.081.055-2.167.1-3.251A.251.251,0,0,1,41.974,229.538Z" transform="translate(-41.89 -158.862)"/><path class="d" d="M44.565,204.347c6.251-9.328,12.089-18.388,16.663-28.7.05-.114.248-.033.2.086-3.855,10.245-9.253,20.626-16.554,28.855C44.729,204.756,44.439,204.536,44.565,204.347Z" transform="translate(-40.628 -150.879)"/><path class="d" d="M50.19,178.518c2.589-4.58,5.319-9.04,7.756-13.71.068-.13.248-.016.192.112a71.261,71.261,0,0,1-7.549,13.832C50.418,178.988,50.04,178.782,50.19,178.518Z" transform="translate(-37.947 -156.053)"/><path class="d" d="M49.507,175.42a.041.041,0,0,1,0,.081A.041.041,0,0,1,49.507,175.42Z" transform="translate(-38.275 -150.962)"/></g></g><g transform="translate(12.16 14.19)"><path class="f" d="M46.158,240.172a95.567,95.567,0,0,1-2.193,18.492l.291,2.025a88.2,88.2,0,0,0,3.307-20.613.633.633,0,0,0,.03-.637l0-.021a136.579,136.579,0,0,0-2.071-27.929c-2.907-17.25-9.257-33.8-21.288-46.732a.857.857,0,0,0-1.328.275c-4.854,12.343-3.161,27.072.973,39.385a72.1,72.1,0,0,0,9.541,18.707C37.544,228.927,42.805,233.835,46.158,240.172Z" transform="translate(-19.947 -164.546)"/><g transform="translate(5.232 5.867)"><path class="d" d="M23.965,168.639c11.4,18.5,19.334,40.443,20.3,62.3.016.387-.635.49-.69.093-.269-1.963-.57-3.91-.885-5.848-.006-.006-.013,0-.019-.007-4.716-4.518-9.558-9.284-12.936-14.929-.059-.1.084-.217.162-.126,4.1,4.69,7.932,9.493,12.566,13.676-.817-4.833-1.783-9.589-2.929-14.275-.306-.35-.6-.709-.9-1.061-.2-.232.133-.57.338-.338l.275.3A165.129,165.129,0,0,0,33.287,189.5c-2.9-3.461-6.146-6.453-8.261-10.623a.088.088,0,0,1,.152-.089c1.7,2.386,3.344,4.784,5.273,7,.768.882,1.61,1.706,2.408,2.567A146.22,146.22,0,0,0,23.525,168.9.255.255,0,0,1,23.965,168.639Z" transform="translate(-23.488 -168.518)"/><path class="d" d="M25.459,184.073c3.685,4.959,7.885,9.691,11.31,14.818.1.146-.115.3-.238.183-4.4-4.13-8.126-9.77-11.32-14.857C25.11,184.058,25.351,183.929,25.459,184.073Z" transform="translate(-22.678 -161.126)"/><path class="d" d="M33.444,194.873l.157.157a.12.12,0,0,1-.168.17l-.158-.158C33.165,194.934,33.335,194.764,33.444,194.873Z" transform="translate(-18.836 -155.96)"/></g></g><g transform="translate(0 54.634)"><path class="g" d="M11.72,193.042c.916,9.52,5.923,20.891,12.031,28.226a29.96,29.96,0,0,0,9.756,7.614c4.224,2.09,8.65,4.5,13.021,6.214a85.554,85.554,0,0,1,4.61,16.375c.14-.477.281-.973.422-1.451-2.806-24.1-18.4-44.7-38.353-57.927A.968.968,0,0,0,11.72,193.042Z" transform="translate(-11.714 -191.926)"/><g transform="translate(6.848 7.945)"><path class="d" d="M16.4,197.6c-.14-.124.049-.377.2-.263,10.573,7.832,20.1,19.251,25.421,31.328.146.331-.307.619-.495.289q-1.391-2.435-2.835-4.758l-.013,0c-4.554-.858-8.867-4.062-12.247-7.1-.092-.083.043-.216.134-.134A28.025,28.025,0,0,0,32.33,221c1.857.942,3.854,1.536,5.787,2.291-1.688-2.678-3.448-5.247-5.284-7.738-4.9-1.669-9.566-4.679-13.685-7.693-.129-.095-.015-.307.129-.22A137.168,137.168,0,0,0,32,214.444a114.062,114.062,0,0,0-8.979-10.471c-1.548-.817-3.117-1.638-4.617-2.513a.128.128,0,0,1,.1-.233,16.654,16.654,0,0,1,3.544,1.742C20.24,201.148,18.387,199.351,16.4,197.6Z" transform="translate(-16.351 -197.306)"/><path class="d" d="M16.732,203.144a5.755,5.755,0,0,1,.768.548c.074.065-.021.158-.1.126a5.783,5.783,0,0,1-.8-.453C16.466,203.275,16.593,203.055,16.732,203.144Z" transform="translate(-16.258 -194.53)"/></g></g><g transform="translate(18.684 105.797)"><path class="f" d="M76.405,232.812c-1.117,13.264-3.706,44.012-4.725,56.149-.239,2.846-2.043,4.993-4.189,4.993H33.329c-2.146,0-3.95-2.146-4.189-4.993-1.04-12.372-3.629-42.935-4.749-56.147-.284-3.335,1.674-6.25,4.189-6.25H72.216C74.73,226.564,76.686,229.477,76.405,232.812Z" transform="translate(-24.363 -226.564)"/></g></g><g transform="translate(120.528)"><path class="h" d="M0,0H13.6V39.276H0Z" transform="translate(23.897 48.96) rotate(180)"/><rect class="i" width="17.077" height="28.578" transform="translate(7.128 102.765) rotate(-90)"/><rect class="j" width="54.782" height="54.782" transform="translate(54.782) rotate(90)"/><rect class="j" width="54.782" height="54.782" transform="translate(54.782 77.233) rotate(90)"/><rect class="k" width="20.795" height="20.795" transform="translate(37.789 16.993) rotate(90)"/><rect class="k" width="20.795" height="20.795" transform="translate(37.789 94.226) rotate(90)"/></g><g transform="translate(184.506 9.331)"><path class="h" d="M163.681,255.3h14.932s0,30.356-7.127,30.356S163.681,255.3,163.681,255.3Z" transform="translate(-123.718 -91.719)"/><path class="h" d="M334.523,255.3h14.932s0,30.356-7.127,30.356S334.523,255.3,334.523,255.3Z" transform="translate(-42.21 -91.719)"/><path class="k" d="M181.867,312.068s-46.831-108.008-10.86-138.434,216.5-46.746,260.235,1.072c27.827,30.425-1.644,137.361-1.644,137.361Z" transform="translate(-126.705 -144.556)"/><g class="l" transform="translate(37.564 105.863)"><path class="m" d="M162.057,255.012H297.566s.659-27.831-19.4-33.774-82.227-6.254-96.37,0S162.057,255.012,162.057,255.012Z" transform="translate(-162.057 -216.017)"/><path class="i" d="M282.212,229.075c-7.188-8.189-18.455-10.455-28.761-11.521-28.2-2.922-62.258-.47-74.719,2.052-.112.022-.256.39.183.323,11.513-1.758,54.554-2.588,68.193-1.208,11.521,1.165,23.484,2.445,31.458,9.8,6.864,6.329,10.933,16.179,10.873,26.069,0,.9.715.857.737,0C290.424,244.919,288.382,236.1,282.212,229.075Z" transform="translate(-154.156 -216.226)"/><g transform="translate(136.04)"><path class="m" d="M390.026,255.012H254.517s-.657-27.831,19.4-33.774,82.227-6.254,96.37,0S390.026,255.012,390.026,255.012Z" transform="translate(-253.986 -216.017)"/><path class="i" d="M262.141,229.075c7.188-8.189,18.455-10.455,28.761-11.521,28.2-2.922,62.258-.47,74.719,2.052.112.022.255.39-.183.323-11.512-1.758-54.554-2.588-68.193-1.208-11.521,1.165-23.483,2.445-31.458,9.8-6.864,6.329-10.933,16.179-10.873,26.069.006.9-.715.857-.737,0C253.928,244.919,255.971,236.1,262.141,229.075Z" transform="translate(-254.157 -216.226)"/></g><path class="i" d="M411.756,242.259c-61.851-.634-123.744-.291-185.6-.148-17.574.041-35.145.129-52.719.357a.067.067,0,0,0,0,.134c61.858.807,123.738.344,185.6.309,17.572-.01,35.148.081,52.718-.1A.277.277,0,0,0,411.756,242.259Z" transform="translate(-156.658 -203.982)"/></g><g transform="translate(80.026 46.605)"><g class="l"><path class="i" d="M191.3,186.288a9.959,9.959,0,0,1,1.188-3.5,14.39,14.39,0,0,1,2.152-3,11.674,11.674,0,0,1,6.332-3.674c-.851.936-1.719,1.7-2.526,2.535-.812.818-1.622,1.617-2.384,2.468C194.476,182.767,193.023,184.5,191.3,186.288Z" transform="translate(-190.568 -176.108)"/><path class="i" d="M190.8,176.27a9.977,9.977,0,0,1,3.5,1.186,14.358,14.358,0,0,1,3,2.154,11.668,11.668,0,0,1,3.675,6.332c-.936-.851-1.7-1.719-2.535-2.527-.82-.811-1.619-1.62-2.47-2.383C194.327,179.447,192.591,177.994,190.8,176.27Z" transform="translate(-190.804 -176.031)"/></g><g class="l" transform="translate(22.777 27.205)"><path class="i" d="M206.719,204.708a9.978,9.978,0,0,1,1.186-3.5,14.445,14.445,0,0,1,2.152-3,11.676,11.676,0,0,1,6.334-3.675c-.851.936-1.721,1.7-2.527,2.535-.812.82-1.622,1.619-2.384,2.47C209.9,201.185,208.441,202.92,206.719,204.708Z" transform="translate(-205.988 -194.526)"/><path class="i" d="M206.224,194.689a9.957,9.957,0,0,1,3.5,1.186,14.444,14.444,0,0,1,3,2.152,11.673,11.673,0,0,1,3.674,6.334c-.936-.851-1.7-1.721-2.535-2.527-.818-.812-1.617-1.622-2.468-2.384C209.745,197.866,208.01,196.411,206.224,194.689Z" transform="translate(-206.224 -194.448)"/></g><g class="l" transform="translate(67.91 27.205)"><path class="i" d="M237.274,204.708a9.977,9.977,0,0,1,1.186-3.5,14.4,14.4,0,0,1,2.154-3,11.677,11.677,0,0,1,6.332-3.675c-.851.936-1.719,1.7-2.527,2.535-.811.82-1.622,1.619-2.383,2.47C240.451,201.185,239,202.92,237.274,204.708Z" transform="translate(-236.543 -194.526)"/><path class="i" d="M236.779,194.689a9.948,9.948,0,0,1,3.5,1.186,14.444,14.444,0,0,1,3,2.152,11.664,11.664,0,0,1,3.674,6.334c-.935-.851-1.7-1.721-2.533-2.527s-1.619-1.622-2.47-2.384C240.3,197.866,238.566,196.411,236.779,194.689Z" transform="translate(-236.779 -194.448)"/></g><g class="l" transform="translate(113.042 27.205)"><path class="i" d="M267.829,204.708a9.949,9.949,0,0,1,1.188-3.5,14.392,14.392,0,0,1,2.152-3,11.677,11.677,0,0,1,6.332-3.675c-.851.936-1.719,1.7-2.526,2.535-.812.82-1.622,1.619-2.384,2.47C271.006,201.185,269.553,202.92,267.829,204.708Z" transform="translate(-267.098 -194.526)"/><path class="i" d="M267.334,194.689a9.947,9.947,0,0,1,3.5,1.186,14.406,14.406,0,0,1,3,2.152,11.676,11.676,0,0,1,3.675,6.334c-.936-.851-1.7-1.721-2.535-2.527-.82-.812-1.619-1.622-2.47-2.384C270.857,197.866,269.121,196.411,267.334,194.689Z" transform="translate(-267.334 -194.448)"/></g><g class="l" transform="translate(158.176 27.205)"><path class="i" d="M298.385,204.708a9.918,9.918,0,0,1,1.186-3.5,14.391,14.391,0,0,1,2.152-3,11.677,11.677,0,0,1,6.332-3.675c-.849.936-1.719,1.7-2.526,2.535-.812.82-1.622,1.619-2.384,2.47C301.561,201.185,300.107,202.92,298.385,204.708Z" transform="translate(-297.654 -194.526)"/><path class="i" d="M297.89,194.689a9.957,9.957,0,0,1,3.5,1.186,14.394,14.394,0,0,1,3,2.152,11.667,11.667,0,0,1,3.675,6.334c-.936-.851-1.7-1.721-2.535-2.527-.82-.812-1.619-1.622-2.468-2.384C301.411,197.866,299.676,196.411,297.89,194.689Z" transform="translate(-297.89 -194.448)"/></g><g class="l" transform="translate(45.416)"><path class="i" d="M222.046,186.288a9.987,9.987,0,0,1,1.186-3.5,14.4,14.4,0,0,1,2.154-3,11.674,11.674,0,0,1,6.332-3.674c-.851.936-1.719,1.7-2.526,2.535-.812.818-1.622,1.617-2.384,2.468C225.223,182.767,223.77,184.5,222.046,186.288Z" transform="translate(-221.315 -176.108)"/><path class="i" d="M221.551,176.27a9.977,9.977,0,0,1,3.5,1.186,14.4,14.4,0,0,1,3,2.154,11.677,11.677,0,0,1,3.675,6.332c-.936-.851-1.7-1.719-2.535-2.527-.82-.811-1.619-1.62-2.47-2.383C225.074,179.447,223.338,177.994,221.551,176.27Z" transform="translate(-221.551 -176.031)"/></g><g class="l" transform="translate(90.833)"><path class="i" d="M252.793,186.288a9.988,9.988,0,0,1,1.186-3.5,14.4,14.4,0,0,1,2.154-3,11.674,11.674,0,0,1,6.332-3.674c-.851.936-1.719,1.7-2.526,2.535-.812.818-1.623,1.617-2.384,2.468C255.97,182.767,254.517,184.5,252.793,186.288Z" transform="translate(-252.062 -176.108)"/><path class="i" d="M252.3,176.27a9.977,9.977,0,0,1,3.5,1.186,14.4,14.4,0,0,1,3,2.154,11.666,11.666,0,0,1,3.674,6.332c-.935-.851-1.7-1.719-2.533-2.527-.82-.811-1.619-1.62-2.47-2.383C255.821,179.447,254.085,177.994,252.3,176.27Z" transform="translate(-252.298 -176.031)"/></g><g class="l" transform="translate(136.249)"><path class="i" d="M283.54,186.288a9.988,9.988,0,0,1,1.186-3.5,14.4,14.4,0,0,1,2.154-3,11.669,11.669,0,0,1,6.332-3.674c-.851.936-1.719,1.7-2.527,2.535-.812.818-1.622,1.617-2.383,2.468C286.717,182.767,285.262,184.5,283.54,186.288Z" transform="translate(-282.809 -176.108)"/><path class="i" d="M283.045,176.27a9.977,9.977,0,0,1,3.5,1.186,14.4,14.4,0,0,1,3,2.154,11.666,11.666,0,0,1,3.674,6.332c-.936-.851-1.7-1.719-2.535-2.527-.818-.811-1.617-1.62-2.468-2.383C286.566,179.447,284.831,177.994,283.045,176.27Z" transform="translate(-283.045 -176.031)"/></g><g class="l" transform="translate(181.665)"><path class="i" d="M314.287,186.288a9.988,9.988,0,0,1,1.186-3.5,14.445,14.445,0,0,1,2.152-3,11.679,11.679,0,0,1,6.334-3.674c-.851.936-1.721,1.7-2.527,2.535-.812.818-1.622,1.617-2.384,2.468C317.464,182.767,316.009,184.5,314.287,186.288Z" transform="translate(-313.556 -176.108)"/><path class="i" d="M313.792,176.27a9.987,9.987,0,0,1,3.5,1.186,14.4,14.4,0,0,1,3,2.154,11.665,11.665,0,0,1,3.674,6.332c-.936-.851-1.7-1.719-2.535-2.527-.818-.811-1.617-1.62-2.468-2.383C317.313,179.447,315.578,177.994,313.792,176.27Z" transform="translate(-313.792 -176.031)"/></g></g><g transform="translate(0 80.812)"><path class="k" d="M136.924,213.656c2.87-21.885,47.926-13.8,53.331-8.066s15.134,82.8,9.73,82.8h-41.62C155.307,288.39,133.861,237.01,136.924,213.656Z" transform="translate(-136.626 -199.266)"/><path class="n" d="M181.548,204.675c-5.041-4.041-14.762-4.6-23.465-5.3-.137-.012-.131.194,0,.208,6.772.82,20.235,4.225,22.043,6.6,4.746,6.242,10.241,51.981,10.733,79.441.006.378.29.3.307-.078C192.731,252.571,187.347,209.325,181.548,204.675Z" transform="translate(-126.437 -199.216)"/></g><g transform="translate(282.206 80.812)"><path class="m" d="M392.366,213.656c-2.87-21.885-47.926-13.8-53.332-8.066s-15.134,82.8-9.728,82.8h41.619C373.982,288.39,395.428,237.01,392.366,213.656Z" transform="translate(-327.66 -199.266)"/><path class="n" d="M337.572,204.675c5.041-4.041,14.762-4.6,23.465-5.3.137-.012.131.194,0,.208-6.771.82-20.233,4.225-22.043,6.6-4.746,6.242-10.241,51.981-10.731,79.441-.007.378-.291.3-.309-.078C326.389,252.571,331.773,209.325,337.572,204.675Z" transform="translate(-327.68 -199.216)"/></g></g></g></g></g><path class="o" d="M500.293,337.142c0,10.674-40.139,19.332-89.651,19.332-22.675,0-43.381-1.82-59.168-4.808a3.5,3.5,0,0,0-1.3,0,308.859,308.859,0,0,1-47.332,4.641,3.62,3.62,0,0,0-3.424,4.127,4.353,4.353,0,0,1,.024.461c0,10.681-40.137,19.332-89.649,19.332s-89.644-8.651-89.644-19.332a4.312,4.312,0,0,1,.059-.715,3.558,3.558,0,0,0-3.35-4.145c-40.365-1.882-70.6-9.625-70.6-18.894,0-10.681,40.139-19.332,89.651-19.332,32.276,0,60.579,3.679,76.357,9.2a3.588,3.588,0,0,0,2.378,0c15.786-5.518,44.074-9.2,76.359-9.2,22.673,0,43.394,1.812,59.174,4.808a3.513,3.513,0,0,0,1.3,0c15.786-3,36.492-4.808,59.167-4.808C460.155,317.81,500.293,326.461,500.293,337.142Z" transform="translate(16.479 87.713)"/><g transform="translate(72.697 232.968)"><g transform="translate(8.272)"><path class="p" d="M116.864,209.074c6.752,7.867,2.356,58.661,4.449,64.822,1.48,4.356,3.6,8.9,2.827,10.889s-13,9.356-31.2,7.539S60.162,277.836,59.069,275.29s5.635-8.248,7.428-14.631,6.567-42.648,13.425-51.9C87.687,198.284,107.714,198.413,116.864,209.074Z" transform="translate(-58.434 -200.99)"/><path class="p" d="M58.637,271.964a30.553,30.553,0,0,0,6.647-12.312c1.47-5.072,2.357-10.319,3.323-15.5q1.529-8.2,3.068-16.4c.91-4.826,1.7-9.733,4.034-14.137a27.453,27.453,0,0,1,9.9-10.489c.061-.037.133.044.072.086a29.069,29.069,0,0,0-9.462,10.6c-2.446,4.736-3.168,10.081-4.124,15.247q-1.489,8.045-3,16.084a146.062,146.062,0,0,1-3.233,14.728c-1.321,4.437-3.316,9.222-6.987,12.312C58.736,272.295,58.513,272.1,58.637,271.964Z" transform="translate(-58.6 -199.974)"/><path class="p" d="M97.257,205.97c3.7,3.526,4.467,8.616,4.889,13.414.573,6.52.917,13.058,1.128,19.6.219,6.746.037,13.49.21,20.235a65.056,65.056,0,0,0,3.761,19.35.123.123,0,0,1-.225.1c-5.383-11.421-4.1-24.406-4.409-36.585q-.255-10.112-.874-20.217c-.341-5.446-.532-11.569-4.579-15.812C97.1,205.99,97.2,205.914,97.257,205.97Z" transform="translate(-40.213 -198.623)"/><path class="p" d="M94.876,204.045c8.151,6.066,8.771,16.848,9.158,26.018.461,10.892-.157,21.781-.158,32.673,0,6.133-.325,12.71,2.093,18.508a.152.152,0,0,1-.278.124c-1.947-4.207-2.168-8.821-2.3-13.357-.158-5.436-.069-10.874.027-16.309.189-10.765.721-21.777-.9-32.475-.852-5.629-2.916-11.481-7.709-15.1A.053.053,0,0,1,94.876,204.045Z" transform="translate(-41.334 -199.537)"/></g><g transform="translate(43.716 55.96)"><path class="q" d="M108.917,313.606c-2.276-.864-9.842-15.8-16.05-32.3-5.821-15.447-10.445-32.276-8.422-40.214,1.768-6.931,15.567,7.137,19.628,14.409,1.276,2.276,4.1,9.357,6.939,17.019,3.75,10.142,7.526,21.316,7.747,23.75C119.164,300.538,113.31,315.279,108.917,313.606Z" transform="translate(-81.944 -238.707)"/><path class="q" d="M101.031,298.651c3.783,5.424,38.988-1.143,58.181-19.96,1.651-1.619-2.613-7.953-7.511-8.121s-37.314,8.307-42.22,11.564S98.642,295.226,101.031,298.651Z" transform="translate(-74.061 -223.754)"/><path class="r" d="M111.012,272.52a58.243,58.243,0,0,0-18.145,8.786c-5.821-15.447-10.445-32.276-8.422-40.214,1.768-6.931,15.567,7.137,19.628,14.409C105.349,257.777,108.172,264.859,111.012,272.52Z" transform="translate(-81.944 -238.707)"/><path class="s" d="M83.045,250.515c1.065,6.263.851,17.795,8.083,29.235,1.09,1.724,5.647-6.445,19.549-12.625,1.809-.805-5.173-14.114-14.709-23.554C89.6,237.27,80.46,235.333,83.045,250.515Z" transform="translate(-82.596 -238.875)"/></g><g transform="translate(12.785 125.287)"><g transform="translate(27.598)"><path class="i" d="M177.464,337.658c-4.428.557-11.3.442-19.351-.183-22.834-1.744-55.084-7.552-67.537-13.6a19.7,19.7,0,0,1-3.126-1.823c-11.882-8.811-9.366-33.14,11.288-36.127,11.654-1.685,70.5,16.18,81.92,22.6S195.727,335.364,177.464,337.658Z" transform="translate(-80.339 -285.809)"/><path class="t" d="M186.28,322.387c-6.055,3.343-12.88,3.173-19.573,2.592-7.322-.635-14.631-1.437-21.922-2.359q-11.532-1.458-23-3.369c-6.372-1.062-12.772-2.131-19.015-3.821C95.636,313.5,88.7,310.617,82.9,305.955c-.056-.044-.136.034-.08.081,10.053,8.452,23.319,10.9,35.9,13.059q23.167,3.975,46.6,6.1c7.019.631,14.8,1.257,21.081-2.583A.129.129,0,0,0,186.28,322.387Z" transform="translate(-79.162 -276.204)"/><path class="u" d="M154.806,335.041c-22.834-1.744-55.084-7.552-67.537-13.6,1.486-6.823,3.849-15.778,6.592-19.276,4.681-5.976,3.575-11.25,3.575-11.25C131.9,297.4,159.715,327.838,154.806,335.041Z" transform="translate(-77.033 -283.376)"/></g><g transform="translate(0 0.06)"><path class="i" d="M74.627,285.85S61.161,306.937,61.67,324.467s12.208,27.44,24.269,31,80.658,9.146,92.6,1.27,10.925-21.849,2.541-28.2S105.962,304.4,105.962,304.4s3.529-6.885,3.529-18.546Z" transform="translate(-61.655 -285.85)"/><path class="t" d="M175.663,353.745c-5.157,1.911-10.622,1.969-16.053,1.932q-8.262-.055-16.52-.391-16.89-.685-33.7-2.53c-10.244-1.124-22.145-2.044-30.769-8.294-7.3-5.285-11.377-14.145-12.289-22.948-1.241-11.945,3.23-23.464,8.585-33.892a.029.029,0,0,0-.05-.03c-9.366,16.065-14.518,38.882-.3,53.933,6.923,7.331,17.334,9.385,26.929,10.688,11.793,1.6,23.716,2.5,35.6,3.1q10.128.507,20.269.6c6.16.056,12.514.269,18.343-2.037C175.775,353.841,175.742,353.716,175.663,353.745Z" transform="translate(-59.701 -285.026)"/><g transform="translate(44.169 7.391)"><path class="t" d="M95.39,290.941a24.9,24.9,0,0,1-3.767,10.687c-.276.439.394.826.694.4A16.9,16.9,0,0,0,95.62,291C95.62,290.851,95.412,290.789,95.39,290.941Z" transform="translate(-91.558 -290.854)"/><path class="t" d="M151.993,316.026c-12.3-3.869-52.933-16.156-60.048-17.864a.283.283,0,0,0-.151.545c7.066,2.724,14.428,4.75,21.654,7.006,7.359,2.3,45.31,12.5,51.913,16.741,3.158,2.027,6.059,4.594,7.188,9.363.061.255.344.1.307-.158C171.429,321.552,160.581,318.726,151.993,316.026Z" transform="translate(-91.538 -287.371)"/></g><path class="t" d="M85.792,290.028c-.009-.165-.3-.216-.344-.041-.77,2.829-1.487,6.746-4.465,8.547-2.811,1.7-7.089,2.009-10.369,2.129-.332.012-.318.408,0,.439,3.575.347,8.576.092,11.5-1.975C84.98,297.1,85.962,293.063,85.792,290.028Z" transform="translate(-57.498 -283.929)"/></g></g><g transform="translate(19.523 54.86)"><path class="s" d="M92.14,238.182c5.931.31,9.97,6.128,13.907,11.434s11.477,16.041,12.721,23.161c1.213,6.942-5.57,15.935-5.57,15.935s-1.492,16.192-2.567,21.812a11.946,11.946,0,0,1-9.219,9.428C93.932,321.4,80.2,317.932,73.162,312c-1.889-1.592-9.963-41.583-5.737-55.976C70.757,244.673,78.065,237.447,92.14,238.182Z" transform="translate(-66.217 -238.13)"/><g transform="translate(15.31 47.218)"><path class="v" d="M76.834,272.488c4.753.994,8.7,2.82,13.888,2.167,4.476-.563,8.558-2.539,12.428-4.538a.146.146,0,0,1,.168.238,26.06,26.06,0,0,1-13.044,5.431c-5.069.529-9.261-1.173-13.583-3C76.48,272.7,76.6,272.441,76.834,272.488Z" transform="translate(-76.583 -270.097)"/><path class="v" d="M92.455,272.706a9.491,9.491,0,0,1,6.843-1.473c.164.034.123.27-.044.285a23.936,23.936,0,0,0-3.177.36,19.6,19.6,0,0,0-3.315,1.259C92.442,273.271,92.189,272.9,92.455,272.706Z" transform="translate(-69.063 -269.623)"/></g><path class="v" d="M103.148,261.306c-.151-.315-.312-.625-.471-.936a31.144,31.144,0,0,0-2.161-5.4c-.033-.074-.161-.021-.13.055a31.516,31.516,0,0,1,1.027,3.074c-1.322-2.223-2.8-4.363-4.217-6.508a.022.022,0,0,0-.037.022c1.461,2.86,2.976,5.657,4.549,8.459a17.6,17.6,0,0,1,2.185,9.993.118.118,0,0,0,.23.033A13.418,13.418,0,0,0,103.148,261.306Z" transform="translate(-51.457 -231.714)"/></g><g transform="translate(26.534 2.236)"><g transform="translate(11.259 33.057)"><path class="q" d="M91.126,259.251c-6.289.61-12.3-9.5-12.529-10.9a76.211,76.211,0,0,1,1.189-10.442c.087-.482.176-.965.263-1.446s.177-.941.278-1.4c.123-.612.253-1.21.383-1.806.973-4.52,1.839-8.381,1.839-8.381l1.894,1.288,13.05,9.656L94.159,247.15l-.2.693-.071.226S94.8,258.893,91.126,259.251Z" transform="translate(-78.586 -224.883)"/><path class="w" d="M93.573,247.843a12.278,12.278,0,0,1-5.846-.811c-4.247-1.64-6.657-5.17-8.328-9.12.087-.482.176-.965.263-1.446s.177-.941.278-1.4c.123-.612.253-1.21.383-1.806.973-4.52,1.839-8.381,1.839-8.381l1.894,1.288,13.05,9.656L93.771,247.15Z" transform="translate(-78.199 -224.883)"/></g><g transform="translate(36.47 25.49)"><path class="q" d="M100.621,232.572a.492.492,0,0,1-.083.043,3.537,3.537,0,0,1-4.885-1.487l.679-5.663s3.973-6.861,7.071-5.535a.028.028,0,0,0,.019.01C106.483,221.3,103.938,230.874,100.621,232.572Z" transform="translate(-95.654 -219.76)"/><path class="r" d="M101.987,221.757c.056-.01.072.066.027.09-2.346,1.192-3.434,3.554-4.131,5.966a1.952,1.952,0,0,1,2.866-.78c.068.04.016.145-.055.136a2.174,2.174,0,0,0-2.321.959,10.6,10.6,0,0,0-.979,2.027c-.095.227-.5.145-.436-.112l.016-.059C96.649,226.892,98.687,222.351,101.987,221.757Z" transform="translate(-95.04 -218.807)"/><path class="v" d="M102.279,228.753a23.388,23.388,0,0,1-1.657,3.82.492.492,0,0,1-.083.043,3.537,3.537,0,0,1-4.885-1.487l.679-5.663s3.973-6.861,7.071-5.535A22.923,22.923,0,0,1,102.279,228.753Z" transform="translate(-95.654 -219.76)"/></g><path class="x" d="M99.687,227.343a1.7,1.7,0,0,0-.635,3.329A1.7,1.7,0,0,0,99.687,227.343Z" transform="translate(-58.195 -190.669)"/><path class="q" d="M111.66,230.939c-2.222,20.8-13.988,20.7-17.588,20.916-4.087.244-19.7-2.037-19.638-22.951s10.431-26.456,19.795-25.944S113.88,210.143,111.66,230.939Z" transform="translate(-69.308 -202.3)"/><g transform="translate(20.908 20.308)"><g transform="translate(1.766 6.085)"><path class="p" d="M88.938,221.393c-.01-.055-.112.066-.111.124.034,1.425-.167,3.062-1.459,3.524-.04.015-.037.086.01.08C88.953,224.913,89.2,222.738,88.938,221.393Z" transform="translate(-85.825 -219.89)"/><path class="p" d="M88.168,220.377c-2.288-.192-2.505,4.4-.384,4.578C89.869,225.13,90.086,220.538,88.168,220.377Z" transform="translate(-86.314 -220.371)"/></g><g transform="translate(13.893 6.692)"><path class="p" d="M94.824,221.659c.019-.053.1.083.09.14-.251,1.4-.3,3.05.9,3.706.037.021.022.09-.024.077C94.268,225.135,94.36,222.947,94.824,221.659Z" transform="translate(-94.524 -220.369)"/><path class="p" d="M96.269,220.785c2.291.162,1.8,4.733-.323,4.583C93.855,225.221,94.349,220.649,96.269,220.785Z" transform="translate(-94.494 -220.782)"/></g><path class="v" d="M87.8,228.614c.275.39.524.9,1.025,1.041a3.761,3.761,0,0,0,1.57-.072.05.05,0,0,1,.047.083,1.917,1.917,0,0,1-1.919.43,1.516,1.516,0,0,1-.87-1.443C87.649,228.567,87.762,228.558,87.8,228.614Z" transform="translate(-83.908 -210.37)"/><path class="p" d="M97.487,219.13a13.8,13.8,0,0,1-1.366-.468,2.343,2.343,0,0,1-1.3-.744.743.743,0,0,1,.114-.9,1.843,1.843,0,0,1,1.857-.205,2.719,2.719,0,0,1,1.572,1.16A.793.793,0,0,1,97.487,219.13Z" transform="translate(-80.541 -216.057)"/><path class="p" d="M86.93,218.478a13.653,13.653,0,0,0,1.422-.254,2.333,2.333,0,0,0,1.4-.535.745.745,0,0,0,.028-.908,1.846,1.846,0,0,0-1.805-.487,2.705,2.705,0,0,0-1.73.9A.793.793,0,0,0,86.93,218.478Z" transform="translate(-84.67 -216.252)"/><g transform="translate(5.326 0.054)"><path class="v" d="M93.849,230.125s.022,2.146-.1,3.142c-.012.093-.258.106-.6.084-.018,0-.027.007-.04,0a4.767,4.767,0,0,1-4.369-2.353c-.056-.106.083-.192.165-.118a7.2,7.2,0,0,0,4.162,1.789c.106-.267-.161-3.676,0-3.668a8.725,8.725,0,0,1,2.195.8c.083-4.473-.552-8.923-.4-13.377a.136.136,0,0,1,.267-.031c1,4.617,1.013,9.767,1.047,14.39C96.179,231.354,94.226,230.345,93.849,230.125Z" transform="translate(-88.724 -216.288)"/></g><g transform="translate(4.755 14.544)"><path class="p" d="M93.347,227.9a5.83,5.83,0,0,1-2.359,1.781,2.612,2.612,0,0,1-1.6.08c-1.149-.316-1.165-1.375-.942-2.279a6.255,6.255,0,0,1,.533-1.38A7.561,7.561,0,0,0,93.347,227.9Z" transform="translate(-88.338 -226.098)"/><path class="v" d="M90.988,229.231a2.612,2.612,0,0,1-1.6.08c-1.149-.316-1.165-1.375-.942-2.279A2.711,2.711,0,0,1,90.988,229.231Z" transform="translate(-88.338 -225.652)"/></g><path class="p" d="M87.825,220.6c-.414.241-.827.681-1.313.7-.563.03-.963-.471-1.306-.951-.035-.049-.078-.01-.081.05-.055.879.241,1.8,1.179,1.973.854.16,1.51-.589,1.77-1.464C88.122,220.749,87.992,220.5,87.825,220.6Z" transform="translate(-85.119 -214.306)"/><path class="p" d="M96.435,221.067c.335.281.645.759,1.074.835.5.087.919-.368,1.29-.806.038-.046.071,0,.065.056-.069.876-.456,1.755-1.313,1.833-.783.071-1.264-.74-1.378-1.632C96.15,221.186,96.3,220.954,96.435,221.067Z" transform="translate(-79.846 -213.969)"/></g><g transform="translate(3.899)"><path class="p" d="M77.108,232.077c2.035-.47,3.13-6.21,3.13-6.21a30.555,30.555,0,0,0,13.653-7.123,27.352,27.352,0,0,0,6.01-7.953s3.325,5.164,5.617,8.2c2.272,3.007,7.013,5.811,7.013,5.811s1.313-9.236-3.016-14.424-12.956-11.059-24.44-5.846c0,0-8.4,3.487-10.558,10.5S74.343,232.715,77.108,232.077Z" transform="translate(-73.604 -202.503)"/><path class="p" d="M98.833,207.207c0-.075-.111-.062-.114.009-.193,5.554-4.563,9.719-9.029,12.443-4.174,2.545-8.492,3.535-13.281,4.111a.108.108,0,0,0,.016.216,26,26,0,0,0,14.447-4.637C94.978,216.59,99.028,212.5,98.833,207.207Z" transform="translate(-72.311 -200.283)"/></g><g transform="translate(0 23.068)"><path class="q" d="M79.187,224.473s-3.227-7.282-6.448-6.253-1.665,10.975,1.5,12.913a3.537,3.537,0,0,0,5.016-.957Z" transform="translate(-70.964 -218.12)"/><path class="v" d="M72.535,220.112c-.055-.016-.08.059-.037.087,2.2,1.437,3.031,3.9,3.464,6.377a1.952,1.952,0,0,0-2.765-1.084c-.071.031-.031.142.04.14a2.174,2.174,0,0,1,2.2,1.2,10.567,10.567,0,0,1,.755,2.121c.069.235.479.2.445-.066l-.009-.059C77.288,225.793,75.751,221.059,72.535,220.112Z" transform="translate(-70.242 -217.172)"/></g><path class="x" d="M74.786,226.176a1.7,1.7,0,0,0-.635,3.329A1.7,1.7,0,0,0,74.786,226.176Z" transform="translate(-70.075 -191.225)"/></g><g transform="translate(39.13 46.906)"><g transform="translate(46.261)"><path class="p" d="M152.158,281.33a29.471,29.471,0,0,1-7.669,3.6,39.423,39.423,0,0,1-18.9,1.641c-2.761-.5-5.965-1.253-8.281-2.941-2.267-1.659-3.291-4.708-4.028-7.3-1.749-6.149-4.275-25.394,2.634-37.114,3.393-5.758,10.982-7.114,17.351-6.224,5.6.784,10.554,3.211,13.552,8.143,3.338,5.5,3.7,12.071,4.385,18.3.428,3.846,1.015,7.685,1.792,11.483.349,1.681.6,3.83,2.157,4.814.461.294,1.118.357,1.341.88C157.153,278.149,153.189,280.631,152.158,281.33Z" transform="translate(-110.551 -232.745)"/><path class="p" d="M113.814,245.263a20.079,20.079,0,0,1,5.468-9.738.215.215,0,0,0-.26-.335c-2.706,1.671-4.306,4.891-5.284,7.809a63.373,63.373,0,0,0-2.539,12.919c-.975,8.617-.21,17.167,3.294,25.167.015.033.071.009.058-.024-3.062-7.437-3.549-15.681-2.8-23.622A79.59,79.59,0,0,1,113.814,245.263Z" transform="translate(-110.81 -231.594)"/><path class="p" d="M150.559,275.648c-2.852-1.643-2.936-5.566-3.3-8.486q-.481-3.924-.972-7.849c-.586-4.73-.622-10.155-2.52-14.576-3.157-7.352-11.891-13.39-19.79-10.969a.2.2,0,0,0,.1.386c3.065-.517,5.908-.7,8.8.674a23.608,23.608,0,0,1,5.7,3.914,18.824,18.824,0,0,1,5.988,12.063c.684,5.186,1.3,10.383,1.96,15.573.446,3.53.541,7.493,3.99,9.319C150.563,275.713,150.592,275.666,150.559,275.648Z" transform="translate(-104.593 -232.516)"/></g><path class="d" d="M91.125,320.7s-2.347,7.722-2.417,7.932-9.217,1.306-9.217,2.948c0,2.619,17.227,3.421,17.843,2.737a4.969,4.969,0,0,0,.7-2.394l4.585-8.35S96.531,318.779,91.125,320.7Z" transform="translate(-79.491 -191)"/><path class="d" d="M111.935,327.459s-1.046,8-1.078,8.221-8.877,2.805-8.607,4.424c.431,2.583,17.555.541,18.052-.235a4.962,4.962,0,0,0,.3-2.477l3.151-8.99S116.953,324.68,111.935,327.459Z" transform="translate(-68.636 -188.049)"/><g transform="translate(32.236 44.397)"><path class="q" d="M127.157,274.017c-.626,2.323-3.806,8.248-7.081,13.656-2.934,4.861-5.939,9.3-7.232,10.318-2.712,2.149-10.746.539-11.507-4.115-.428-2.648,5.44-12.133,11.879-19.795,4.908-5.845,10.159-10.626,13.2-10.515C129,263.652,128.347,269.6,127.157,274.017Z" transform="translate(-101.315 -262.439)"/><path class="s" d="M123.313,274.017c-.626,2.323-3.806,8.248-7.081,13.656-1.055-4.306-2.846-10.165-6.86-13.592,4.908-5.845,10.159-10.626,13.2-10.515C125.153,263.652,124.5,269.6,123.313,274.017Z" transform="translate(-97.471 -262.439)"/><path class="h" d="M124.744,273.6a40.722,40.722,0,0,0-1.662,4.789c-.195,1.018-.134,1.988-.892,2.793a2.772,2.772,0,0,1-4.35-.415c-.842-1.307.1-2.727-2.465-2.532-.8.059-1.151.414-1.951-.022-1.529-.83-.365-3.591-1.514-4.3-.3-.186-1.4-.216-1.8-.5a1.805,1.805,0,0,1,.12-2.956,9.189,9.189,0,0,1,2.238-.835c1.449-.558,6.26-5.817,9.679-6.671,2.143-.536,2.883.325,3.609,2.477C126.6,267.908,125.511,271.242,124.744,273.6Z" transform="translate(-97.461 -262.802)"/></g><g transform="translate(7.576 78.379)"><path class="p" d="M121.98,285.808s-.9,6.078-2.093,6.8-17.459,10.641-22.409,15.795S84.62,339.5,84.62,340.892s6.385,6.969,14.36,4.193c1.752-.61,11.193-20.817,12.978-23s19.626-7.535,29.143-11.5,11.486-24.716,11.486-24.716Z" transform="translate(-84.62 -285.808)"/><path class="p" d="M142.475,285.873c2.062,2.115,7.767,14.6,5.586,23.13s-13.306,12.688-17.072,16.653-8.109,26.473-9.5,27.464-10.2,2.474-15.174-2.614c-1.885-1.929,1.973-23.7,4.157-32.391,1.093-4.353,12.984-16.1,12.984-16.1s-9.32-6.684-9.518-16.2Z" transform="translate(-74.508 -285.808)"/></g><g transform="translate(41.19 42.6)"><path class="h" d="M130.017,261.687c-4.242.424-10.694,4.691-16.149,16.545-3.561,7.737-7.18,21.911-6.188,26.374,1.248,5.616,24.151,8.592,35.795,1.118,3.684-2.365,3.6-24.623,1.969-30.659C143.193,266.738,139.626,260.726,130.017,261.687Z" transform="translate(-107.311 -261.586)"/><path class="s" d="M119.326,266.538c-1.066,1.514-2.062,3.055-3,4.623.192-.671.374-1.344.606-1.985.031-.086-.106-.143-.148-.062a14.313,14.313,0,0,0-1.656,4.117l0,.013a62.134,62.134,0,0,0-4.235,9.421,66.16,66.16,0,0,0-2.449,8.922,35.4,35.4,0,0,0-1.037,8.923c.013.207.335.279.383.052.606-2.892.736-5.882,1.326-8.79a69.013,69.013,0,0,1,2.337-8.6,71.841,71.841,0,0,1,8.106-16.5C119.659,266.529,119.426,266.4,119.326,266.538Z" transform="translate(-107.377 -259.252)"/></g><g transform="translate(43.963 0.725)"><g transform="translate(13.065 33.355)"><path class="q" d="M119.57,270.411a2.442,2.442,0,0,0,2.637,2.52c3.266-.176,7.372-4.759,7.71-5.461a26.889,26.889,0,0,0,.479-5.195c0-.239,0-.479,0-.718s-.007-.467-.021-.693c-.009-.3-.025-.6-.041-.9-.12-2.241-.244-4.152-.244-4.152l-1.507.679L118.1,261.572l.931,5.6.052.343.022.111.291,1.685,0,.015Z" transform="translate(-118.099 -255.817)"/><path class="y" d="M119.081,267.51a13.188,13.188,0,0,0,4.251-.517,13.866,13.866,0,0,0,7.063-4.718c0-.239,0-.479,0-.718s-.007-.467-.021-.693c-.009-.3-.025-.6-.041-.9-.12-2.241-.244-4.152-.244-4.152l-1.507.679L118.1,261.572l.931,5.6Z" transform="translate(-118.099 -255.817)"/></g><path class="q" d="M140.275,265.484c-3.555,6.415-9.155,8.285-15.083,8.208-4.845-.061-15.938-2.845-15.938-14.762a.949.949,0,0,1,.007-.145,29.085,29.085,0,0,1,1.031-6.515c1.564-6.157,4.715-13.427,7.972-15.555,6.012-3.922,15.541-3.6,22.362,3.486C146.118,245.916,143.907,258.945,140.275,265.484Z" transform="translate(-109.254 -232.774)"/><g transform="translate(0.007 12.474)"><path class="p" d="M121.015,246.307a12.064,12.064,0,0,1-1.044-.715c-.4-.279-.744-.459-.928-.932a.654.654,0,0,1,.306-.736,1.616,1.616,0,0,1,1.617.26,2.369,2.369,0,0,1,1.056,1.347A.7.7,0,0,1,121.015,246.307Z" transform="translate(-104.605 -240.671)"/><path class="p" d="M112.336,243.42a12.28,12.28,0,0,0,1.256-.028,2.028,2.028,0,0,0,1.275-.273.646.646,0,0,0,.145-.777,1.6,1.6,0,0,0-1.484-.66,2.365,2.365,0,0,0-1.609.547A.691.691,0,0,0,112.336,243.42Z" transform="translate(-108.1 -241.681)"/><g transform="translate(5.768 14.446)"><path class="p" d="M118.507,251.541a5.111,5.111,0,0,1-.052.656c-.115.867-.52,2.316-1.92,2.374a2.412,2.412,0,0,1-1.473-.473,6.516,6.516,0,0,1-1.9-2.637A5.914,5.914,0,0,0,118.507,251.541Z" transform="translate(-113.164 -251.461)"/><path class="v" d="M117.842,251.961c-.115.867-.52,2.316-1.92,2.374a2.412,2.412,0,0,1-1.473-.473,3.619,3.619,0,0,1,1.619-1.521A3.74,3.74,0,0,1,117.842,251.961Z" transform="translate(-112.551 -251.226)"/></g><g transform="translate(12.122 7.111)"><path class="p" d="M119.618,246.539c2.1.616.712,4.765-1.232,4.193C116.475,250.171,117.862,246.024,119.618,246.539Z" transform="translate(-117.466 -246.495)"/><path class="p" d="M121.824,248.885c-.669.285-1.182.22-1.362-.535a3.362,3.362,0,0,0-.349-.982,1.684,1.684,0,0,0-1.2-.84c-.037-.007-.047.043-.024.064a3.555,3.555,0,0,1,.854,1.493,2.419,2.419,0,0,0,.6,1.13,1.081,1.081,0,0,0,1.5-.25C121.895,248.9,121.892,248.857,121.824,248.885Z" transform="translate(-116.794 -246.48)"/></g><g transform="translate(2.233 3.635)"><path class="p" d="M113.473,244.6c-1.79-.66-3.117,3.344-1.458,3.954C113.646,249.153,114.973,245.148,113.473,244.6Z" transform="translate(-110.538 -243.961)"/><path class="p" d="M110.832,244.18c.216.668.555,1.009,1.12.69a2.418,2.418,0,0,1,.8-.329,1.383,1.383,0,0,1,1.214.388.032.032,0,0,1-.025.056,2.557,2.557,0,0,0-1.406.261,1.752,1.752,0,0,1-1.041.229,1.138,1.138,0,0,1-.719-1.258C110.779,244.139,110.81,244.114,110.832,244.18Z" transform="translate(-110.77 -244.142)"/></g><path class="v" d="M116.816,243.88c-1.05,2.477-1.087,2.938-2.244,5.369-.578-.112-3.177-.8-3.052-.52a23.744,23.744,0,0,0,2.084,3.027c-.493.609-1.874,1.025-1.833,1.1,2.287,4.126,5.976,3.226,7.352,2.479.276-.149.186-.171.027-.117-1.3.448-4.905,1.066-6.6-2.188a3.236,3.236,0,0,0,1.613-1.223c.044-.062-1.267-1.654-1.715-2.484.8.174,1.753.461,2.341.6a23.548,23.548,0,0,0,2.256-5.972A.12.12,0,0,0,116.816,243.88Z" transform="translate(-108.182 -240.671)"/><path class="v" d="M115.475,255.553a.939.939,0,0,0-.074.876.951.951,0,0,0,.758.551.887.887,0,0,0,.739-.214.727.727,0,0,0,.18-.77.031.031,0,0,0-.061.007.693.693,0,0,1-1.247.409.607.607,0,0,1,.074-.783.376.376,0,0,1,.468.019.2.2,0,0,1-.083.335.468.468,0,0,1-.337-.148c-.015-.019-.041,0-.037.021a.386.386,0,0,0,.431.34.443.443,0,0,0,.4-.452.611.611,0,0,0-.52-.517A.652.652,0,0,0,115.475,255.553Z" transform="translate(-106.365 -235.224)"/></g><path class="p" d="M136.571,261.237c-2.089-.805-3.03-5.86-2.35-9.032,0,0-11.089-1.288-12.377-12.193,0,0-7.287,5.7-10.068,4.329-.991-.489.739-7.066,5.369-9.675a11.956,11.956,0,0,1,9.572-.767,20.29,20.29,0,0,1,16.04,6.013c6.332,6.53,2.335,23-3.517,26.678C137.955,267.4,136.571,261.237,136.571,261.237Z" transform="translate(-108.179 -233.236)"/><path class="s" d="M119.608,233.252c.889.124,14.018,3.084,16.741,11.313s-2.682,19.093-2.682,19.093,9.124-9.021,6.155-19.758S119.608,233.252,119.608,233.252Z" transform="translate(-104.314 -233.228)"/><g transform="translate(25.39 23.294)"><path class="q" d="M126.959,252.4s4.455-4.145,7.474-3.281c3.193.914,1.951,6.852-.99,8.513-3.451,1.948-7-.355-7-.355Z" transform="translate(-126.443 -249.006)"/><path class="q" d="M131.788,251.37a7.815,7.815,0,0,1,1.833-.566.066.066,0,0,0-.016-.13c-2.555.173-5.408,1.864-5.938,4.566a.086.086,0,0,0,.158.064q.2-.315.393-.623a5.153,5.153,0,0,1,1.936-1.158,4.323,4.323,0,0,1,2.307.022c.089.027.118-.1.035-.136a4.283,4.283,0,0,0-3.521.173,6.8,6.8,0,0,1,1.35-1.359,7.93,7.93,0,0,1,1.462-.852" transform="translate(-125.86 -248.21)"/><path class="q" d="M126.906,254.677c-.016-.009-.031.019-.013.028S126.924,254.685,126.906,254.677Z" transform="translate(-126.232 -246.301)"/></g></g><g transform="translate(32.239 72.243)"><path class="q" d="M101.317,284.954c.058,4.074,11.424,14.606,13.016,15.038s5.012-2.5,5.2-3.96c.2-1.558-6.7-12.867-8.623-13.993C109.025,280.938,101.279,282.288,101.317,284.954Z" transform="translate(-101.317 -281.654)"/><path class="q" d="M108.134,294.687c.006.217,3.617,2.913,3.9,3.3a33.848,33.848,0,0,0,4.226,4.725c1.257.9,6.891,1.9,7.628,1.338s.622-3.71-.406-4.737-2.421-1.44-2.761-2.016-1.69-3.174-2.675-3.513a15.348,15.348,0,0,1-1.607-.645s-1.987-4.7-2.233-4.947S108.005,290.566,108.134,294.687Z" transform="translate(-98.066 -278.541)"/></g><g transform="translate(57.028 43.829)"><g transform="translate(10.988)"><path class="q" d="M152.325,299.643c-1.672,9.192-22.069,16.829-23.948,16.091s-3.307-3.554-2.7-5.162,13.14-11.7,13.069-14.069c-.047-1.474-2.625-5.932-5.019-9.682-1.468-2.307-2.864-4.355-3.561-5.29-1.832-2.451-3.4-13.83-.381-17.622,2.276-2.854,8.653,4.046,14.069,12.777C148.963,284.925,153.206,294.791,152.325,299.643Z" transform="translate(-125.538 -262.017)"/><path class="s" d="M143.033,276.686a26.508,26.508,0,0,0-10.127,10.134c-1.468-2.307-2.864-4.355-3.561-5.29-1.832-2.451-3.4-13.83-.381-17.622C131.24,261.055,137.617,267.955,143.033,276.686Z" transform="translate(-124.714 -262.017)"/><g transform="translate(0.735)"><path class="h" d="M143.542,275.393c-1.038,1.551-3.1.282-4.688,1.709-1.049.944-.408,2.953-1.359,3.827-1.34,1.232-2.747-.591-4.331,0-1.391.518-1.137,2.984-2.74,2.91-2.829-.13-5.984-15.056-3.455-19.792,1.205-2.254,2.9-1.849,4.972-.7,3.9,2.164,5.731,5.795,8.09,7.427C141.613,271.864,144.988,273.234,143.542,275.393Z" transform="translate(-126.032 -262.417)"/><path class="s" d="M131.448,279.862a1.246,1.246,0,0,1-1.093.236c-2.64-1.207-3.35-8.066-3.749-10.325-.009-.052-.093-.037-.09.015a40.1,40.1,0,0,0,.437,4.128,13.376,13.376,0,0,1-.792-1.981c-.022-.081-.145-.043-.124.037a11.894,11.894,0,0,0,1.245,3.6c.533,2.256,1.318,4.576,2.838,4.973a1.455,1.455,0,0,0,1.411-.521C131.617,279.9,131.587,279.77,131.448,279.862Z" transform="translate(-126.035 -258.923)"/></g></g><path class="v" d="M136.4,300.782c-.095.193-4.5,1.161-4.916,1.4a33.911,33.911,0,0,1-5.8,2.561c-1.514.3-7.059-1.112-7.5-1.928s.963-3.637,2.323-4.148,2.8-.313,3.347-.7,2.848-2.193,3.886-2.1a15.266,15.266,0,0,0,1.73.075s3.749-3.461,4.075-3.585S138.214,297.079,136.4,300.782Z" transform="translate(-118.099 -248.131)"/></g></g><g transform="translate(2.291 60.267)"><path class="q" d="M85.82,267.049a151.394,151.394,0,0,1-3.473,15.424c-2.95,11.325-6.907,24.759-8.288,27.106-2.227,3.783-16.241,12.641-19.08,8.675-1.61-2.251,1.452-22.434,6.883-41.5,4.124-14.48,9.62-28.326,15.48-33.171C83.068,238.857,86.653,258.626,85.82,267.049Z" transform="translate(-54.551 -241.278)"/><path class="y" d="M83.458,267.049a151.4,151.4,0,0,1-3.473,15.424A45.322,45.322,0,0,0,59.5,276.755c4.124-14.48,9.62-28.326,15.48-33.171C80.706,238.857,84.291,258.626,83.458,267.049Z" transform="translate(-52.189 -241.278)"/><path class="q" d="M54.843,296.754c.035,6.725,21.273,18.32,55.022,16.57,2.449-.127,2.514-8.148-1.671-11.149s-29.731-14.084-35.988-14.238S54.819,292.506,54.843,296.754Z" transform="translate(-54.411 -219.776)"/><g transform="translate(6.437)"><path class="s" d="M77.349,242.573c-11.224,5.963-19.216,25.972-18.381,27.26S70.3,272.3,81.017,283.017c.991.991,4.422-13.224,4-24.484C84.586,247.132,83.693,239.2,77.349,242.573Z" transform="translate(-58.909 -241.79)"/><path class="v" d="M78.2,263c-.263,1.037-.57,2.059-.88,3.08.4-2.857.517-5.709.641-8.6,0-.053-.077-.05-.081,0a103.36,103.36,0,0,1-3.368,17.5c-.131.371-.755.095-.815.038-.191-.179-.344.061-.154.223.643.551,1.136.575,1.214.459,1.38-2.025,1.885-5.168,2.285-7.727a.184.184,0,0,0,.152-.121,26.3,26.3,0,0,0,1.137-4.824C78.341,262.95,78.219,262.912,78.2,263Z" transform="translate(-51.97 -234.322)"/></g><path class="q" d="M87.1,309.555c.26.258,9.077.331,9.975.557s9.114,2.034,12.133,2.007,13.077-3.842,13.6-5.189-3.3-5.1-6.111-5.44-5.487.4-6.688,0-6.334-2.377-8.282-1.91-3.284.647-3.284.647-8.563-3.978-9.239-4.062S82.142,304.619,87.1,309.555Z" transform="translate(-39.914 -215.849)"/></g><g transform="translate(0 76.824)"><g transform="translate(53.091 53.958)"><path class="z" d="M149.058,299.854c-.047.588-6.942,7.973-12.063,13.3-2.907,3.021-5.241,5.38-5.43,5.456-.524.216-20.465-5.154-20.539-5.139s-.044.607-.264.6a24.074,24.074,0,0,1-3.631-1.536c-.077-.185-.134-.709-.272-.778s-17.9-6.821-17.916-7.375,20.914-14.966,21.688-14.849c5.031.765,10.811,3.388,13.687,4.818,1.14.564,1.824.942,1.824.942C136.743,295.019,149.133,298.931,149.058,299.854Z" transform="translate(-88.943 -289.53)"/></g><path class="aa" d="M108.932,312.4a24.027,24.027,0,0,0-9.4-4.808,44.634,44.634,0,0,1-10.208-4.061l21.13-14s12.913,3,15.078,6.227a42.86,42.86,0,0,1,9.7-.1,63.973,63.973,0,0,1,9.925,2.489c1.607.545,3.035,1.151,3.035,1.151s-16.87,18.195-17.173,18.248-6.883-1.547-9.356-2.338C118.637,314.237,113.833,312.5,108.932,312.4Z" transform="translate(-35.671 -235.572)"/><g transform="translate(55.785 68.435)"><path class="aa" d="M129.486,311.306a32.822,32.822,0,0,1-9-2.868c-2.579-1.21-5.219-2.5-8.121-2.591a7.843,7.843,0,0,0-3.96.83l-.046-.058a.038.038,0,0,0,.028-.056c-1.275-2.647-4.027-4.264-6.73-5.12-3.346-1.056-6.894-1.185-10.272-2.112-.01,0-.013.015,0,.018,5.741,1.632,13.458,1.163,16.815,7.072-4.193-5.16-11.883-4.319-17.418-7.08-.013-.007-.022.013-.009.021,5.6,2.869,13.431,1.9,17.574,7.344l-.006,0c-.024.013-.009.053.016.04l.018-.007,0,.006a.031.031,0,0,0,.053-.031c3.394-1.578,7.031-.487,10.263.975,1.743.79,3.451,1.656,5.256,2.3a29.768,29.768,0,0,0,5.523,1.39A.039.039,0,0,0,129.486,311.306Z" transform="translate(-90.767 -299.331)"/><path class="aa" d="M107.281,306.408l-.027-.031a.022.022,0,0,0-.006-.024c-.024-.025-.049-.047-.072-.072a7.847,7.847,0,0,0-2.417-2.087,28.07,28.07,0,0,0-3.727-1.572,34.566,34.566,0,0,0-3.753-.973q-2.211-.5-4.363-1.224c-.01,0-.018.012-.007.015q1.841.634,3.728,1.1c1.343.332,2.708.582,4.025,1.012a33.141,33.141,0,0,1,3.53,1.427,7.771,7.771,0,0,1,2.479,1.814A12.148,12.148,0,0,0,103,303.646a45.76,45.76,0,0,0-5.594-1.69v0a48.551,48.551,0,0,1,5.425,1.674,11.732,11.732,0,0,1,4.3,2.688c.035.041.071.081.1.124A.031.031,0,0,0,107.281,306.408Z" transform="translate(-89.747 -298.809)"/><path class="aa" d="M121.67,308.938c-1.672-.471-3.353-.9-5-1.462-1.578-.538-3.1-1.222-4.641-1.842a19.191,19.191,0,0,0-4.558-1.331,16.392,16.392,0,0,0-4.789.22c-.013,0-.012.025,0,.024a18.528,18.528,0,0,1,5.136-.127,21.8,21.8,0,0,1,4.7,1.482c1.484.61,2.954,1.247,4.48,1.75s3.1.938,4.665,1.321C121.686,308.978,121.691,308.944,121.67,308.938Z" transform="translate(-85.085 -297.004)"/><path class="aa" d="M117.118,307.929c-2.476-.606-4.775-1.734-7.205-2.483a22.66,22.66,0,0,0-7.253-.9c-.018,0-.015.027,0,.027a24.452,24.452,0,0,1,7.744,1.087c2.245.743,4.4,1.744,6.708,2.279C117.125,307.947,117.127,307.932,117.118,307.929Z" transform="translate(-85.098 -296.845)"/><path class="aa" d="M118,308.561c-2.691-.368-5.061-1.746-7.588-2.644a22.607,22.607,0,0,0-7.606-1.34v.006a24.723,24.723,0,0,1,8.123,1.536c2.332.889,4.557,2.137,7.066,2.458A.008.008,0,1,0,118,308.561Z" transform="translate(-85.023 -296.828)"/></g></g><path class="w" d="M135.557,268.853c-1.43-2.129,7.533,3.124,10.081,8.549.982,2.093-2.736,10.812-6.038,9.653s-4.547-7.647-4.043-10.124S136.8,270.7,135.557,268.853Z" transform="translate(-13.686 -168.844)"/></g><g transform="translate(313.051 312.439)"><g transform="translate(0 58.949)"><g transform="translate(1.709)"><path class="ab" d="M265.141,328.148l-1.269,8.137s.77,7.747-1.83,7.97c-2.582.225-45.156,4.188-45.165,1.9.007-2.267,24.569-8.409,24.969-9.449.133-.315-.118-4.2-.532-9.517-.951-12.366-2.789-32.311-2.789-32.311l28.328-.182Z" transform="translate(-216.877 -294.701)"/><path class="d" d="M263.872,325.791s.77,7.747-1.83,7.97c-2.582.225-45.156,4.188-45.165,1.9.007-2.267,24.569-8.409,24.969-9.449.133-.315-.118-4.2-.532-9.517a61,61,0,0,0,23.827.954Z" transform="translate(-216.877 -284.206)"/></g><g transform="translate(0 41.697)"><path class="c" d="M241.508,323.048c-1.3-.48-24.845,6.744-24.923,9.5s45.509-.263,47.029-1.292.991-7.857.923-8.133S256.074,328.421,241.508,323.048Z" transform="translate(-215.308 -322.884)"/><path class="d" d="M264.492,328.307c-8.142.777-16.284,1.675-24.44,2.3-7.47.567-15.814.993-23.158-.733-.78-.183-1.622.833-.9,1.459,2.041,1.764,4.741,1.851,7.352,2.111a89.026,89.026,0,0,0,13.416.244c9.232-.474,18.453-1.585,27.656-2.443C266.28,331.067,266.37,328.128,264.492,328.307Z" transform="translate(-215.72 -320.368)"/><g transform="translate(16.115)"><path class="d" d="M232.033,327.692c-.814-1.817-2.681-3.646-4.774-3.625a.565.565,0,0,0-.408,1c.69.554,1.411,1.092,2.061,1.691s1.208,1.31,1.869,1.91C231.4,329.235,232.352,328.407,232.033,327.692Z" transform="translate(-226.63 -322.387)"/><path class="d" d="M233.4,327.124c-.814-1.818-2.681-3.647-4.774-3.626a.566.566,0,0,0-.408,1c.69.555,1.411,1.093,2.061,1.691s1.208,1.31,1.869,1.91C232.773,328.668,233.721,327.839,233.4,327.124Z" transform="translate(-225.977 -322.659)"/><path class="d" d="M234.771,326.555c-.814-1.817-2.681-3.646-4.774-3.625a.566.566,0,0,0-.408,1c.69.554,1.411,1.092,2.062,1.691s1.207,1.31,1.867,1.91C234.142,328.1,235.09,327.27,234.771,326.555Z" transform="translate(-225.324 -322.93)"/></g></g></g><g transform="translate(16.813)"><path class="h" d="M301.228,293.256s-3.966-4.935-6.146-5.926-32.118-27.579-40.047-31.543-23.2,4.758-26.963,11.7,4.56,78.509,6.145,80.1,15.465,5.025,20.421,4.431,12.49-5.422,13.481-6.613-5.551-31.125-4.758-31.721,4.106,11.7,19.9,18.834,32.443-4.957,38.192-9.913,8.328-29.9,8.328-29.9Z" transform="translate(-227.103 -254.792)"/><path class="v" d="M252.068,287.669a.1.1,0,0,0-.191.053,45.006,45.006,0,0,1,1.117,7.368,23.815,23.815,0,0,0-5.516-10.786c-.075-.08-.226.031-.157.121,3.313,4.3,4.628,9.588,5.92,14.761.01.239.024.479.034.719a.3.3,0,0,0,.6,0A34.676,34.676,0,0,0,252.068,287.669Z" transform="translate(-217.465 -240.725)"/><path class="v" d="M248.308,288.088c0-.031-.052-.032-.05,0a233.7,233.7,0,0,0,6.273,41.487c.049.2.354.115.312-.086C251.914,315.783,249.958,302,248.308,288.088Z" transform="translate(-217.01 -238.918)"/><path class="v" d="M313.967,282.847c-1.247,6.994-3.047,14.718-7.158,20.679a28.04,28.04,0,0,1-17.456,11.244,30.609,30.609,0,0,1-22.276-3.778c-5.743-3.662-10.278-9.272-14.328-14.606-.012-.016-.04,0-.028.015,3.322,4.439,6.473,8.933,10.768,12.552a28.6,28.6,0,0,0,14.761,6.576c11.162,1.521,23.01-2.845,29.18-12.35,3.86-5.947,5.583-13.4,6.793-20.263C314.251,282.753,314,282.682,313.967,282.847Z" transform="translate(-214.882 -241.452)"/></g></g><g transform="translate(316.951 262.684)"><path class="q" d="M300.6,290.453c-7.858,6.724-17.867,11.109-27.359,13.964a133.807,133.807,0,0,1-30.84,5.3c-1.721,1.261-10.254-1.046-14.973-3.037-4.965-2.086-9.388-2.125-9.049-5.059.318-2.681,4.465-4.536,11.619-5.567,4.551-.659,11.182.412,12.641-.23a138.191,138.191,0,0,0,13.988-7.922c9.477-5.908,19.762-13.006,21.2-14.917,1.238-1.641,7.479-21.57,9.564-35.416,3.164-21.007,21.047-19.374,24.322-9.143C316.089,242.062,310.64,281.873,300.6,290.453Z" transform="translate(-218.361 -221.108)"/><path class="v" d="M288.24,290.453c-7.858,6.724-17.867,11.109-27.359,13.964-2.118-1.412-4.164-2.919-6.162-4.48-3.092-2.411-6.709-5-8.826-8.375a14.8,14.8,0,0,1-1.626-3.663c9.477-5.908,19.762-13.006,21.2-14.917,1.238-1.641,7.479-21.57,9.564-35.416,3.164-21.007,21.047-19.374,24.322-9.143C303.729,242.062,298.28,281.873,288.24,290.453Z" transform="translate(-206.001 -221.108)"/></g><g transform="translate(358.421 260.891)"><g transform="translate(2.897)"><path class="f" d="M248.791,280.771c-1.548,1.281,1.486,20.987,8.684,27.229,1,.867,27.905-11.668,33.291-19.281s8.57-32.025,8.987-43.9-1.493-23.025-10.192-24.693-15.222,5.66-17.693,17.576-5.938,29.784-7.173,32.121S250.255,279.559,248.791,280.771Z" transform="translate(-248.397 -219.894)"/></g><path class="ac" d="M246.631,264.324c-.784,3.2.953,14.505,2.4,17.45s8.459,9.251,9.662,9.34,9.966-3.26,10.518-3.787-6.115-8.589-7.307-12.037-2.288-18.029-3.278-18.716S247.09,262.449,246.631,264.324Z" transform="translate(-246.436 -202.417)"/></g><g transform="translate(352.996 350.347)"><g transform="translate(104.788 40.18)"><g transform="translate(0 3.526)"><path class="d" d="M326.661,315.04s4.566-6.306,6.659-4.747,36.561,26.833,35.051,28.546c-1.51,1.691-23.96-10.013-24.95-9.5-.309.146-12.012,7.323-18.545,7.852-2.329-3.455-12.089-22.52-11.1-25.377Z" transform="translate(-313.705 -310.045)"/></g><g transform="translate(12.795)"><path class="c" d="M339.547,330.121c.656,1.223,23.062,11.44,24.95,9.43s-34.22-30-36.04-30.241-5.956,5.22-6.089,5.473S332.215,316.437,339.547,330.121Z" transform="translate(-322.367 -306.873)"/><path class="d" d="M326.233,310.113c6.607,4.821,13.294,9.552,19.808,14.5,5.965,4.532,12.489,9.75,16.837,15.914.462.654,1.767.453,1.64-.495-.356-2.674-2.318-4.532-4.1-6.458a89.14,89.14,0,0,0-9.876-9.086c-7.222-5.771-14.857-11.059-22.31-16.524C326.729,306.862,324.71,309,326.233,310.113Z" transform="translate(-320.781 -307.658)"/><g transform="translate(19.64 20.538)"><path class="d" d="M338.781,323.074c-.6,1.9-.414,4.505,1.165,5.879a.565.565,0,0,0,.969-.479c-.148-.873-.331-1.753-.419-2.634s-.034-1.781-.13-2.668C340.276,322.336,339.016,322.326,338.781,323.074Z" transform="translate(-334.326 -321.101)"/><path class="d" d="M337.378,322.59c-.6,1.9-.414,4.507,1.165,5.88a.566.566,0,0,0,.97-.479c-.148-.873-.331-1.753-.419-2.634s-.035-1.781-.13-2.668C338.875,321.853,337.615,321.843,337.378,322.59Z" transform="translate(-334.995 -321.332)"/><path class="d" d="M335.977,322.107c-.6,1.9-.414,4.507,1.165,5.88a.565.565,0,0,0,.969-.479c-.148-.873-.331-1.753-.42-2.634s-.034-1.781-.13-2.668C337.472,321.37,336.212,321.36,335.977,322.107Z" transform="translate(-335.663 -321.562)"/></g></g></g><path class="h" d="M352.842,280.456s3.066,10.631,2.538,18.693c-.381,5.809-4.5,18.21-16,22.176-7.938,2.737-54.455,10.837-54.455,10.837s31.721-9.78,39.122-11.1,37.273-1.322,39.916-.529,6.873,14.539,7.666,19.3-4.493,11.631-6.344,12.159-95.462,4.907-103.8,2.644c-16.075-4.362-19.908-21.412-18.058-29.871s39.914-29.173,42.294-31.505,3.815-12.58,3.815-12.58Z" transform="translate(-242.653 -280.456)"/><path class="v" d="M328.058,307.058c-4.951.154-10.328.532-15.27.82-4.614.269-9.257.44-13.826,1.083a91.317,91.317,0,0,0-15.035,3.579,27.107,27.107,0,0,0-8.264,1.386c-.037.012-.024.06.016.053a55.121,55.121,0,0,1,6.541-.891c-3.028,1-6.027,2.089-9.034,3.19-.031.01-.009.055.022.044,8.289-2.6,16.848-5.236,25.588-6.514,9.492-1.387,19.765-1.579,29.332-2.461C328.532,307.311,328.483,307.045,328.058,307.058Z" transform="translate(-228.256 -267.764)"/><path class="v" d="M347.07,309.674c-21.979-.12-44.137-.461-65.88,3.284-.035.006-.019.058.015.053,21.821-3.133,43.861-3.32,65.865-3.2A.068.068,0,0,0,347.07,309.674Z" transform="translate(-224.439 -266.547)"/><path class="v" d="M330.743,281.947c0-.03-.058-.024-.055.009.716,6.716,1.03,14.443-1.127,20.938-2.145,6.464-8.536,10.555-14.578,12.945-12.068,4.774-25.343,3.612-37.394,8.384-.2.08-.356.312-.145.238,13.071-4.6,27.669-3.372,40.306-9.349,5.22-2.468,10.356-6.437,12.217-12.106C332.128,296.427,331.8,288.681,330.743,281.947Z" transform="translate(-226.265 -279.754)"/><path class="v" d="M310.908,297.779c-4.118-.994-8.564-1-12.44-2.795-4.089-1.889-5.97-5.789-7.331-9.626-.1-.288-.567-.171-.49.126,1.034,4.027,2.09,7.99,6.276,10.193,3.885,2.044,9.551,2.557,13.938,2.43A.166.166,0,0,0,310.908,297.779Z" transform="translate(-219.922 -278.196)"/><path class="v" d="M280.927,294.726a41.229,41.229,0,0,1-1.653-9.938.121.121,0,0,0-.242,0,23.694,23.694,0,0,0,1.034,9.9c-6.205,3.533-20.985,13.4-26.083,16.9-4.176,2.861-8.322,6.233-10.267,11.058-2.058,5.1-.409,10.487,1.431,15.391a.124.124,0,0,0,.239-.065c-1.573-5.784-2.988-11.607.288-17.1,2.8-4.694,7.594-7.662,12.038-10.6C262.444,307.126,281.113,294.674,280.927,294.726Z" transform="translate(-242.763 -278.445)"/></g><g transform="translate(385.089 254.654)"><path class="f" d="M284.833,218.773C271,220.352,266.105,235.1,265.467,251.8c-1.053,27.5.393,70.889,2.972,74.27s22.665-3.329,46.5-3.329c13.481,0,23.786,19.362,28.283,15,4.236-4.111,4.684-18.781,3.588-26.447-1.545-10.808-29.6-69.5-33.732-76.49S296.83,217.4,284.833,218.773Z" transform="translate(-264.189 -214.25)"/><path class="ac" d="M265.7,241.484a.117.117,0,0,0-.235,0q-.173,4.161-.322,8.329c-.2-1.566-.313-3.145-.492-4.7-.012-.1-.165-.1-.161,0a30.847,30.847,0,0,0,.582,6.756c-.7,21.049-.669,42.174,2.885,62.992.074.434.719.244.657-.182C265.1,290.439,265.546,265.9,265.7,241.484Z" transform="translate(-264.49 -203.411)"/><path class="ac" d="M285.5,215.68c1.886.133,5.876,2.3,8.787,5.709,1.1,1.288-2.746,20.366-12.19,30.263-.851.891-6.239-11.5-6.985-11.5s-5.75,11.6-5.925,11.5-3.523-10.012-3.385-13.183,2.517-11.5,5.69-15.762S282.859,215.5,285.5,215.68Z" transform="translate(-263.865 -215.671)"/></g><g transform="translate(354.78 209.609)"><g transform="translate(28.761 32.354)"><path class="q" d="M290.3,225.9c-.864,6.963-6.009,17.176-11.065,17.9s-8.143-2.941-8.57-5.208c-.357-1.9.266-3.855-.171-6.112a7.035,7.035,0,0,0-.378-1.347,53.737,53.737,0,0,0-6.674-11.325l15.848-11.192s1.739-2.053,1.987-1.412c1.241,3.152,2.845,6.483,4.357,9.446C288.123,221.524,290.359,225.42,290.3,225.9Z" transform="translate(-263.442 -207.079)"/><path class="y" d="M285.634,216.649a28.367,28.367,0,0,1-3.919,8.586c-2.357,3.427-6.789,7.066-11.221,7.244a7.035,7.035,0,0,0-.378-1.347,53.737,53.737,0,0,0-6.674-11.325l15.848-11.192s1.739-2.053,1.987-1.412C282.517,210.355,284.121,213.686,285.634,216.649Z" transform="translate(-263.442 -207.079)"/></g><path class="p" d="M249.241,192.147s-3.343,9.4-.722,16.419,6.65,9.719,7.391,9.718S249.241,192.147,249.241,192.147Z" transform="translate(-242.279 -181.849)"/><g transform="translate(8.201 2.901)"><path class="q" d="M278.765,191.65c5.644,5.479,14.106,25.845,12.5,32.885-1.545,6.778-16.375,17-26.108,11.715-9.433-5.121-18.1-32.586-14.991-39.331C254.74,186.987,270.426,183.557,278.765,191.65Z" transform="translate(-249.523 -187.14)"/></g><g transform="translate(12.995 22.169)"><g transform="translate(15.282 5.037)"><path class="p" d="M263.148,204.967c-.01-.055.13.024.149.08.474,1.365,1.248,2.848,2.641,2.827.043,0,.065.069.018.08C264.386,208.316,263.379,206.336,263.148,204.967Z" transform="translate(-263.099 -202.947)"/><path class="p" d="M263.827,203.743c2.106-1,3.945,3.288,1.994,4.211C263.9,208.865,262.062,204.579,263.827,203.743Z" transform="translate(-263.115 -203.594)"/></g><g transform="translate(3.164 9.732)"><path class="p" d="M256.841,207.412c-.031-.046-.077.108-.052.161.612,1.31,1.093,2.911.081,3.868-.031.03,0,.095.043.069C258.29,210.675,257.631,208.554,256.841,207.412Z" transform="translate(-254.018 -206.472)"/><path class="p" d="M255.954,206.835c-2.205.755-.533,5.109,1.508,4.409C259.472,210.556,257.8,206.2,255.954,206.835Z" transform="translate(-254.911 -206.773)"/></g><path class="v" d="M266.881,213.351c-.185.448-.318,1.012-.781,1.259a3.81,3.81,0,0,1-1.57.279.051.051,0,0,0-.028.093,1.947,1.947,0,0,0,1.994,0,1.54,1.54,0,0,0,.539-1.623C267.023,213.269,266.909,213.286,266.881,213.351Z" transform="translate(-247.182 -193.928)"/><path class="p" d="M265.555,202.685a17.97,17.97,0,0,1-1.91.127,3.1,3.1,0,0,1-1.973-.241.985.985,0,0,1-.325-1.16,2.444,2.444,0,0,1,2.165-1.2,3.583,3.583,0,0,1,2.514.612A1.052,1.052,0,0,1,265.555,202.685Z" transform="translate(-248.711 -200.184)"/><path class="p" d="M254.393,207.093a17.9,17.9,0,0,0,1.513-1.173,3.1,3.1,0,0,0,1.316-1.49.986.986,0,0,0-.527-1.083,2.443,2.443,0,0,0-2.418.538,3.585,3.585,0,0,0-1.474,2.127A1.052,1.052,0,0,0,254.393,207.093Z" transform="translate(-252.769 -198.744)"/><path class="d" d="M262.037,213.828s2.341,2.179,4.186.708c1.39-1.108-.876-3.907-.876-3.907S264.03,213.112,262.037,213.828Z" transform="translate(-248.347 -195.2)"/><g transform="translate(5.111 3.57)"><path class="v" d="M268.292,214.526a4.914,4.914,0,0,1-2.152,3.306,6.193,6.193,0,0,1-1.594.772,1.64,1.64,0,0,1-.326.1c-.1.031-.194.056-.31.081a.361.361,0,0,1-.393-.183l0-.01a.678.678,0,0,1-.046-.14l0-.01-.047-.118c-.467-1.009-1.035-2.606-1.035-2.606-.292.347-1.829,2.021-2.028,1.474-1.634-4.535-3.452-9.576-4.12-14.433a.134.134,0,0,1,.257-.069c1.743,4.3,2.718,8.867,4.4,13.21a8.641,8.641,0,0,1,1.855-1.564c.162-.019,1.043,3.106,1.289,3.544a.166.166,0,0,0,.03.044c1.811-.517,2.882-1.592,4.055-3.461C268.185,214.341,268.328,214.385,268.292,214.526Z" transform="translate(-256.229 -202.601)"/></g></g><path class="p" d="M287.291,211.362c-4.009,1-7.462-7.793-10.48-11.359-3.142-3.715-8.761-.64-12.233,1.855-6.056,4.349-12.08,4.242-15.359,1.39-6.685-5.815-5.287-13.552.557-16.341,6.428-3.069,22.709-.641,25-.87s7.424-2.1,11.942,1.623C291.542,191.637,292.48,210.074,287.291,211.362Z" transform="translate(-243.589 -185.097)"/><path class="p" d="M270.95,195.826c-5.877,3.623-12.97,12.066-20.645,8-3.449-1.829-6.015-5.059-5.832-9.1a9.354,9.354,0,0,1,6.458-8.124c.092-.033.031-.164-.059-.136A9.538,9.538,0,0,0,244.1,193.9c-.637,3.839,1.227,7.069,4.207,9.331,8.4,6.372,16.069-3.058,22.724-7.306C271.092,195.879,271.015,195.786,270.95,195.826Z" transform="translate(-243.971 -184.56)"/><path class="p" d="M274.678,185.776c-2.511-1.006-5.18-.588-7.626.086-.024.007-.01.05.015.046,2.524-.465,5.213-.778,7.693.419,2.761,1.334,4.155,4.375,4.925,7.275,1.439,5.419.548,9.894-.77,15.041-.049.191.074.192.133,0,1.75-5.676,2.762-11.375.452-17.273C278.545,188.934,277.105,186.746,274.678,185.776Z" transform="translate(-232.965 -185.175)"/><g transform="translate(43.312 19.065)"><path class="q" d="M273.293,206.525s1.078-8.51,4.718-8.442,5.108,10.8,2.443,13.781a3.809,3.809,0,0,1-5.47.563Z" transform="translate(-273.293 -198.083)"/><path class="v" d="M277.547,200.177c.052-.033.1.035.065.08-1.83,2.162-1.92,4.96-1.6,7.645a2.1,2.1,0,0,1,2.517-1.973c.083.012.075.137,0,.158a2.342,2.342,0,0,0-1.9,1.923,11.231,11.231,0,0,0-.123,2.421c0,.264-.434.35-.48.069l-.009-.064C274.4,207.5,274.524,202.147,277.547,200.177Z" transform="translate(-272.485 -197.088)"/></g></g><g transform="translate(313.316 293.791)"><path class="c" d="M262.52,251.7a9.273,9.273,0,0,1-4.772,3.774,31.614,31.614,0,0,1,3.015,9.634c.294,1.827,1.374,8.967-7.056,13.354q-.884.463-1.916.883s9.195,6.2,10.941,7.065,4.572,3.727,2.523,5.905-7.145-.066-7.145-.066a8.206,8.206,0,0,1-.456,8.739c.786,1.044,6.566,4.7,5.727,7.411a11.5,11.5,0,0,1-11.97,7.957c-2.808-.442-5.406-9.728-5.406-9.728-3.514.777-9.4.775-12.573-.83a4.447,4.447,0,0,1-.452-.254.314.314,0,0,1-.05-.025,9.938,9.938,0,0,1-4.913-7.657l-.021-.222a9.651,9.651,0,0,1,.191-2.917c.393-7.019,5.134-13.363,5.281-13.561l0,0a16.14,16.14,0,0,1-8.848-4.48,10.85,10.85,0,0,1-2.761-6.417c-.041-.384-.062-.777-.071-1.182a29.7,29.7,0,0,1,2.123-11.911,9.045,9.045,0,0,1-4.349-2.962c-2.871-3.588-1.236-8.765,4.134-10.043,3.632-.87,5.984,1.991,7.128,3.936.139-.1.278-.2.418-.292a17.881,17.881,0,0,1,7.762-2.966,17.5,17.5,0,0,1,6.814.613,18.527,18.527,0,0,1,4.425,1.886c.056.033.115.065.17.1.79-2.007,2.812-5.71,6.832-5.236C262.728,242.855,264.954,247.807,262.52,251.7Z" transform="translate(-214.819 -242.167)"/><path class="c" d="M232.467,269.943a19.168,19.168,0,0,0-4.773,11.532,23.989,23.989,0,0,1-2.939.461c-5.093.428-6.056-1.832-5.368-3.911.419-1.27,1.913-2.548,3.755-3.708A60.111,60.111,0,0,1,232.467,269.943Z" transform="translate(-214.33 -228.915)"/><path class="p" d="M231.191,269.943a19.168,19.168,0,0,0-4.773,11.532,23.989,23.989,0,0,1-2.939.461,12.006,12.006,0,0,0-1.609-7.616l0,0A60.111,60.111,0,0,1,231.191,269.943Z" transform="translate(-213.053 -228.915)"/><path class="h" d="M241.541,248.028s1-4.053,4.126-3.684,4.387,3.188,3,5.4a5.46,5.46,0,0,1-3.854,2.43Z" transform="translate(-203.666 -241.14)"/><path class="h" d="M227.817,248.689s-1.468-3.91-4.526-3.18-3.987,3.676-2.353,5.716a4.966,4.966,0,0,0,3.7,1.99Z" transform="translate(-213.876 -240.616)"/><path class="c" d="M234.057,287.557a21.477,21.477,0,0,1-9.707,6.9c-7.366,2.473-10.79-9.673-6.7-10.235,3.474-.479,9.663-3.464,11.446-4.349a9.927,9.927,0,0,0,4.911,7.656A.173.173,0,0,0,234.057,287.557Z" transform="translate(-215.9 -224.176)"/><path class="f" d="M221.681,273.694a8.534,8.534,0,0,1,1,6.391c-.148.767,1.052.922,1.2.161a9.706,9.706,0,0,0-1.248-7.3c-.449-.635-1.4.111-.953.746Z" transform="translate(-213.197 -227.597)"/><path class="v" d="M240.642,294.546a10.374,10.374,0,0,1,1.712-3.3,12.1,12.1,0,0,1,2.688-2.606,12.225,12.225,0,0,1,3.356-1.66,13,13,0,0,1,3.665-.607,20.3,20.3,0,0,0-3.541.963,14.644,14.644,0,0,0-1.656.752c-.27.137-.529.294-.79.445s-.513.323-.755.5a14.136,14.136,0,0,0-2.674,2.445A14.318,14.318,0,0,0,240.642,294.546Z" transform="translate(-204.095 -221.075)"/><path class="v" d="M242.541,283.379a15.768,15.768,0,0,1,1.22,1.256c.388.433.753.883,1.115,1.338s.7.923,1.03,1.4a15.87,15.87,0,0,1,.925,1.487,15.775,15.775,0,0,1-1.222-1.255c-.387-.434-.753-.885-1.114-1.34s-.7-.923-1.03-1.4A16.035,16.035,0,0,1,242.541,283.379Z" transform="translate(-203.189 -222.505)"/><path class="v" d="M234.742,280.629a10.9,10.9,0,0,1-1.451-1.956c-.1-.176-.213-.347-.31-.526l-.287-.541c-.2-.356-.354-.733-.53-1.1a29.566,29.566,0,0,1-1.544-4.64,42.67,42.67,0,0,1-1-9.71l.015-1.222c.013-.408.041-.814.061-1.222s.034-.814.077-1.219l.115-1.219a35.053,35.053,0,0,1,.807-4.821,25.823,25.823,0,0,1,1.564-4.632,15.243,15.243,0,0,1,1.191-2.136,6.231,6.231,0,0,1,1.653-1.778,4.509,4.509,0,0,0-.857.854c-.126.157-.239.324-.36.486s-.219.34-.328.508a15.079,15.079,0,0,0-1.083,2.162,25.835,25.835,0,0,0-1.417,4.619,45.617,45.617,0,0,0-.954,9.622,44.686,44.686,0,0,0,.882,9.626,29.774,29.774,0,0,0,1.4,4.628c.157.372.294.753.477,1.114l.258.548c.09.182.191.356.285.535A12.034,12.034,0,0,0,234.742,280.629Z" transform="translate(-209.356 -241.336)"/><path class="v" d="M216.558,283.481a8.854,8.854,0,0,1,2.572,1.329,8.994,8.994,0,0,1,2.033,2.086,8.286,8.286,0,0,1,1.177,2.665,8.985,8.985,0,0,1,.211,1.44,9.884,9.884,0,0,1-.024,1.449,11.13,11.13,0,0,0-.368-2.843,9.67,9.67,0,0,0-.49-1.338,8.451,8.451,0,0,0-.706-1.236,9.4,9.4,0,0,0-1.945-2.075,10.448,10.448,0,0,0-1.179-.815A9.278,9.278,0,0,0,216.558,283.481Z" transform="translate(-215.586 -222.456)"/><path class="v" d="M217.351,285.324c.458-.127.916-.254,1.368-.4s.907-.279,1.355-.434c.9-.3,1.789-.626,2.66-1s1.727-.772,2.563-1.216c.408-.239.827-.461,1.216-.731.411-.241.777-.539,1.168-.814a13.871,13.871,0,0,1-2.292,1.706,23.923,23.923,0,0,1-2.561,1.278c-.886.355-1.783.682-2.7.951A23.347,23.347,0,0,1,217.351,285.324Z" transform="translate(-215.207 -223.767)"/><path class="f" d="M250.448,269.406a31.09,31.09,0,0,1-23.037,2.49c-.811-2.882,1.721-2.678,1.721-2.678,12.439,1.267,18.323-1.815,18.323-1.815C250.251,266.419,250.448,269.406,250.448,269.406Z" transform="translate(-210.484 -230.222)"/><g transform="translate(11.165 39.185)"><path class="p" d="M260.88,274.165a9.6,9.6,0,0,0-3.291,6.1l-.591-.2-1.415-.471a18.1,18.1,0,0,1,2.18,5.411c.089.352.136.563.136.563a55.575,55.575,0,0,1-5.929,2.3c-18.51,5.962-28.577-2.64-28.511-3.059.027-.174.058-.349.092-.524,1.143-6.068,5.671-13.1,5.671-13.1a27.873,27.873,0,0,0,8.607,1.152,31.259,31.259,0,0,0,14.428-3.644l8.1,5.134Z" transform="translate(-223.459 -268.695)"/><path class="ad" d="M227.4,272.488a30.243,30.243,0,0,0-1.931,3.032c.016-.106.035-.211.058-.316a12.681,12.681,0,0,1,.436-1.486c.027-.074-.084-.121-.114-.047a8.605,8.605,0,0,0-.684,2.428,12.427,12.427,0,0,0-1.425,4.781.1.1,0,0,0,.2.033,31.022,31.022,0,0,1,3.505-8.4C227.455,272.49,227.416,272.464,227.4,272.488Z" transform="translate(-223.325 -266.89)"/></g><path class="ae" d="M250.424,273.075a8.476,8.476,0,0,0-3.066,5.709c-.031.778-1.23.612-1.2-.16,0-.04,0-.08.009-.121a9.622,9.622,0,0,1,3.354-6.239c.05-.05.1-.095.154-.14C250.267,271.607,251.009,272.563,250.424,273.075Z" transform="translate(-201.463 -227.945)"/><path class="f" d="M259.032,281.006a30.456,30.456,0,0,1-4.505,1.824l-.445.148a55.141,55.141,0,0,1-9.6,2.2,32.323,32.323,0,0,1-11.876-.1,20.269,20.269,0,0,1-9.817-5.139c-.541-.561.418-1.3.951-.747.059.062.127.129.2.2a19,19,0,0,0,2.947,2.136c6.086,3.585,13.1,3.3,19.834,2.075,1.279-.233,2.579-.5,3.873-.82a35.51,35.51,0,0,0,7.558-2.674c.133-.065.266-.133.4-.2C259.245,279.532,259.713,280.648,259.032,281.006Z" transform="translate(-212.687 -224.6)"/><path class="ad" d="M247.323,277.013a11.752,11.752,0,0,1-1.753-.44c-.573-.183-1.133-.4-1.685-.643a16.937,16.937,0,0,1-1.612-.809,10.975,10.975,0,0,1-1.5-1.009c.57.205,1.117.442,1.668.671l1.64.706c.542.242,1.087.482,1.628.734S246.788,276.728,247.323,277.013Z" transform="translate(-204.033 -226.926)"/><g transform="translate(12.527 20.47)"><g transform="translate(3.792 5.245)"><path class="h" d="M241.112,264.845c.257,3.208-2.7,6.065-6.607,6.38s-7.284-2.033-7.542-5.241,2.7-6.065,6.607-6.38S240.854,261.637,241.112,264.845Z" transform="translate(-226.947 -259.576)"/><g transform="translate(4.677 2.452)"><path class="p" d="M233.268,263.23c-.013-.038-.089-.03-.09.015a4.75,4.75,0,0,1-.083,1.106,1.121,1.121,0,0,1-1.078.9,2.475,2.475,0,0,1-1.823-1.35c-.022-.033-.092-.007-.078.03a2.142,2.142,0,0,0,2.129,1.6C233.5,265.342,233.507,263.971,233.268,263.23Z" transform="translate(-230.114 -260.296)"/><path class="p" d="M230.882,261.273c0-.049-.087-.05-.089,0a12.125,12.125,0,0,0,.784,5.064c.046.112.236.065.211-.059A49.543,49.543,0,0,1,230.882,261.273Z" transform="translate(-229.793 -261.236)"/></g><path class="p" d="M228.68,261.523c.112.671,2.592,1.585,3.381,1.433s3.025-1.536,2.948-2.189c-.095-.784-1.694-.99-3.332-.861C230.492,260,228.55,260.743,228.68,261.523Z" transform="translate(-226.124 -259.436)"/></g><g transform="translate(0 5.393)"><path class="p" d="M226.415,259.676c-2.783-.028-2.626,4.662-.049,4.687C228.9,264.389,228.748,259.7,226.415,259.676Z" transform="translate(-224.381 -259.676)"/></g><g transform="translate(18.245 4.601)"><path class="p" d="M238.485,259.152c-2.764.323-2.015,4.957.547,4.656C241.552,263.512,240.8,258.88,238.485,259.152Z" transform="translate(-236.732 -259.14)"/></g><path class="p" d="M225.741,256.892a1.7,1.7,0,0,0-1.182.653.586.586,0,0,0,.384.923,3.482,3.482,0,0,0,.993-.14C226.865,258.166,226.637,256.679,225.741,256.892Z" transform="translate(-224.343 -255.621)"/><path class="p" d="M238.014,256.026a1.707,1.707,0,0,1,1.276.442.586.586,0,0,1-.22.975,3.456,3.456,0,0,1-1,.033C237.125,257.475,237.094,255.972,238.014,256.026Z" transform="translate(-218.197 -256.025)"/></g></g><g transform="translate(324.781 271.569)"><path class="q" d="M314.566,296.171c-10.515,7.51-25.749,11.126-39.1,12.839a185.64,185.64,0,0,1-28.524,1.412c-1.833,1.109-10.127-1.928-14.656-4.322-4.767-2.514-9.176-2.935-8.573-5.829.539-2.641,4.837-4.131,12.055-4.545,4.591-.253,11.1,1.388,12.608.873,3.347-1.126,10.722-4.037,18.566-7.3,11.919-4.972,24.908-10.784,26.447-12.5,1.372-1.53,9.31-20.84,12.592-34.458,4.981-20.657,22.641-17.47,25.028-7C334.186,249.312,325.3,288.495,314.566,296.171Z" transform="translate(-223.661 -227.123)"/><path class="v" d="M300.585,296.171c-10.515,7.51-25.749,11.126-39.1,12.839a28.672,28.672,0,0,1-8.524-19.715c11.919-4.972,24.908-10.784,26.447-12.5,1.372-1.53,9.31-20.84,12.592-34.458,4.981-20.657,22.641-17.47,25.028-7C320.205,249.312,311.324,288.495,300.585,296.171Z" transform="translate(-209.681 -227.123)"/></g><g transform="translate(373.12 269.78)"><path class="f" d="M260.735,283.28c-1.651,1.142-.338,21.037,6.291,27.879.92.95,28.812-9.205,34.837-16.322s11.313-31.161,12.759-42.954.507-23.066-8.015-25.483-15.654,4.319-19.149,15.976-8.5,29.156-9.931,31.378S262.3,282.2,260.735,283.28Z" transform="translate(-254.621 -225.911)"/><path class="ac" d="M314.328,253.414c-1.061,1.322-2.126,2.694-3.08,4.128,1.189-3.908,2.44-7.8,3.864-11.606.068-.185-.225-.263-.294-.083-2.471,6.424-5.049,12.772-7.155,19.335-1.917,5.981-3.368,13.744-7.465,18.569-2.1,2.47-11.727,8.223-16.978,10.567-6.019,2.688-12.095,5-18.263,7.253a.14.14,0,0,0,.074.269c15.282-2.734,34.3-14.706,36.34-17.473,3.393-4.609,5.427-11.759,7-17.1q1.05-3.576,2.114-7.168c1.366-2.171,2.585-4.419,4.047-6.536C314.609,253.449,314.418,253.3,314.328,253.414Z" transform="translate(-252.345 -216.446)"/><path class="ac" d="M284.474,243.783a.08.08,0,0,0-.155-.043c-.567,1.7-1.2,3.388-1.809,5.087.022-.982-.016-1.969-.047-2.928,0-.084-.133-.087-.131,0a30.593,30.593,0,0,1-.7,5.479c-.458,1.393-2.307,7.266-3.3,10.8-.322.765-.656,1.524-1.027,2.261-1.106,2.2-3.263,2.993-5.347,4.065a127.859,127.859,0,0,0-11.589,6.354c-.016.012-.006.043.015.034a142.208,142.208,0,0,0,13.4-6.341c1.443-.727,2.97-1.414,3.857-2.833a17.283,17.283,0,0,0,1.656-4.09C281.129,256.2,283.553,247.408,284.474,243.783Z" transform="translate(-254.493 -217.432)"/><path class="ac" d="M256.891,268c-1.058,3.239-.3,15.066.892,18.239s7.632,10.309,8.823,10.508,10.21-2.479,10.8-2.975-5.353-9.417-6.245-13.084-.73-18.827-1.656-19.623S257.509,266.1,256.891,268Z" transform="translate(-256.387 -209.177)"/></g><g transform="translate(255.249 328.579)"><path class="i" d="M193.152,313.283c1.82-.774,36.96.784,37.665.4s4.192-8.513,5.631-7.96-.292,16.707-1.328,17.338-50.145,12.752-52.35,12.808S187.893,315.518,193.152,313.283Z" transform="translate(-173.831 -246.643)"/><g transform="translate(18.026 31.995)"><path class="q" d="M193.751,306c1.935.886,14.406,2.12,18.771.335s15.916-11.164,17.806-14.055-.365-6.323-4.555-4.278-14.835,7.377-16.069,7.913-10.843-.229-13.879-.217C188.971,295.723,187.27,303.026,193.751,306Z" transform="translate(-188.364 -287.379)"/><path class="i" d="M223.18,288.656c1.164-.245,4.9,5.35,4.257,7.852-.415,1.626-11.415,8.609-13.919,9.483-3.942,1.378-11.4,3.075-18.993-.112s-7.577-10.631-.356-11.117c5.1-.344,15.542-.319,16.479-.474S222.09,288.884,223.18,288.656Z" transform="translate(-188.792 -286.774)"/></g><g transform="translate(0 39.734)"><path class="i" d="M199.75,293.4c4.688,1.95,12.795,13.558,15.935,24.453s2.62,14.3-4.554,20.232c-9.461,7.824-9.442,12.976-14.759,14.332-6.66,1.7-12.313-.4-14.832-2.99-5.344-5.5-6.34-11.7-3.1-22.7,1.9-6.467,4.783-21.864,7.643-27.264C189.4,293.2,194.91,291.387,199.75,293.4Z" transform="translate(-176.588 -292.618)"/><path class="t" d="M207.243,318.733a45.245,45.245,0,0,0-5.2-12.515,30.3,30.3,0,0,0-1.6-4.672.077.077,0,0,0-.145.05c.251.916.455,1.914.724,2.885-.973-1.617-1.985-3.208-3-4.784-.038-.059-.121,0-.089.061,4.926,8.931,15.263,24.693,4.685,33.254a.147.147,0,0,0,.164.244C207.929,330.6,208.37,323.746,207.243,318.733Z" transform="translate(-166.407 -289.253)"/><path class="i" d="M200.207,319.56c2.038-.34,29.053,5.609,38.159,9.623.765.338,6.34-7.622,7.666-6.709s-4.381,16.9-5.588,17.286-54.205,2.529-57.777-.795C180.98,337.4,194.321,320.545,200.207,319.56Z" transform="translate(-173.757 -279.771)"/><path class="t" d="M240.663,348.375c-7.462.263-14.922.749-22.38,1.1-.914.043-1.837.09-2.761.137-.053-.3-.108-.607-.154-.905-.022-.137-.232-.139-.223.009.019.3.031.606.046.913l-.792.04c-.027-.347-.05-.694-.053-1.043,0-.2-.294-.182-.3.01-.018.323-.037.687-.038,1.052-6.214.3-12.555.487-18.631-.668a24.837,24.837,0,0,1-8.086-3,2.421,2.421,0,0,0,.25-.276.13.13,0,0,0-.164-.2,2.623,2.623,0,0,0-.409.267c-.219-.137-.44-.272-.651-.417.253-.2.51-.4.761-.6a.17.17,0,1,0-.216-.26c-.261.232-.516.47-.774.7a14.408,14.408,0,0,1-5.75-7.722c-1.139-3.9-.371-8,.505-11.866.7-3.066,1.356-6.127,1.935-9.216.143-.022.281-.043.4-.053.248-.021.238-.4-.015-.39-.09.006-.2.01-.3.015.022-.117.047-.233.069-.352.035-.2.072-.394.108-.592a2.915,2.915,0,0,0,.631.013c.161-.016.21-.269.03-.3a4.473,4.473,0,0,0-.6-.05c1.25-6.843,2.634-13.719,6.5-19.639.033-.05-.05-.109-.084-.061-3.889,5.38-5.369,11.871-6.561,18.292-.087.467-.174.932-.26,1.4-.2,0-.393,0-.586-.015-.115-.006-.131.18-.019.2.179.034.363.069.551.1-.065.347-.129.693-.194,1.038a1.305,1.305,0,0,0-.778.31.036.036,0,0,0,.009.058,1.385,1.385,0,0,0,.685.072c-.48,2.547-.981,5.087-1.572,7.614-.839,3.579-1.744,7.292-1.337,11a13.832,13.832,0,0,0,6.281,10.465c-.291.266-.586.526-.873.795-.064.061.028.173.1.118.331-.254.654-.518.982-.778.222.145.459.272.69.408-.189.177-.369.365-.538.536a.115.115,0,0,0,.145.176c.233-.158.49-.328.73-.514,7.131,4,17.738,3.973,25.018,3.713.674-.024,1.349-.056,2.022-.081a3.581,3.581,0,0,0,.219,1.247.162.162,0,0,0,.315-.055,8.2,8.2,0,0,0-.12-1.21l.787-.034a7.419,7.419,0,0,0,.149,1.2c.041.188.321.123.321-.055a7.167,7.167,0,0,0-.108-1.157c8.368-.338,16.753-.8,25.1-1.378A.058.058,0,0,0,240.663,348.375Z" transform="translate(-175.271 -291.477)"/></g><g transform="translate(8.754 43.542)"><path class="q" d="M188.676,313.4c2.136,1.193,16.315,3.747,21.481,2.1s19.26-11.34,21.69-14.478.161-7.279-4.829-5.318-17.675,7.1-19.14,7.6-12.4-1.253-15.885-1.517C184.137,301.188,181.52,309.4,188.676,313.4Z" transform="translate(-181.572 -295.196)"/><path class="i" d="M221.165,297.293c1.375.414,6.669,8.8,4.161,10.544s-11.6,8.287-15.131,8.764-15.71.108-20.016-2.366c-6.142-3.527-10.425-11.427-5.555-14.387,5.3-3.219,18.947,1.77,21.832,1.873S218.96,296.631,221.165,297.293Z" transform="translate(-182.514 -294.224)"/><g transform="translate(3.043 3.645)"><path class="t" d="M190.166,299.072a.1.1,0,0,1,.034-.2,47.477,47.477,0,0,1,6.115,1.195c2.006.459,4.071.8,6.049,1.36a2.37,2.37,0,0,1,1.4.025,11.317,11.317,0,0,1,2.307-1.129,81.708,81.708,0,0,1,8.171-2.654c.055-.013.069.069.024.09-2.294,1.084-4.74,1.9-7.114,2.792a16.371,16.371,0,0,0-3.26,1.477,15.411,15.411,0,0,0-2.758,2.73c-.095.1-.307.01-.232-.134a8.255,8.255,0,0,1,2.344-2.8,3.312,3.312,0,0,0-1.567.386c-.718.4-1.316.993-2.03,1.4-.109.062-.26-.071-.161-.176a8.165,8.165,0,0,1,2.3-1.8,26.491,26.491,0,0,1-5.316-.962C194.366,300.156,192.247,299.651,190.166,299.072Z" transform="translate(-181.946 -297.664)"/><path class="t" d="M189.856,312.45a38.758,38.758,0,0,1,6.687.708c2.609.375,8.289.325,10.84-.579,4.99-1.77,10.369-5.978,14.948-8.535a.049.049,0,0,1,.056.081,51.56,51.56,0,0,1-7.987,5.609,40.666,40.666,0,0,1-7.046,3.47,30.162,30.162,0,0,1-9.471.623c-.5-.068-.994-.14-1.49-.211-1.217.288-2.513.39-3.749.561-.1.013-.133-.14-.037-.165a25.012,25.012,0,0,1,2.545-.57c-1.768-.253-3.536-.508-5.306-.752A.121.121,0,0,1,189.856,312.45Z" transform="translate(-182.105 -294.624)"/><path class="t" d="M184.577,305.91c-.072-3.031,1.637-7.159,5.083-7.448a.032.032,0,0,1,.01.064c-3.643.538-5.154,4.976-4.793,8.188a10.629,10.629,0,0,0,5.5,7.716c.035.021,0,.081-.034.064A10.008,10.008,0,0,1,184.577,305.91Z" transform="translate(-184.575 -297.283)"/></g></g><g transform="translate(3.367)"><g transform="translate(11.471 31.859)"><path class="q" d="M196.7,300.126a2.206,2.206,0,0,1-2.3,2.36c-2.954-.053-6.811-4.059-7.137-4.681a24.237,24.237,0,0,1-.6-4.676l-.019-.647c-.007-.217-.009-.422,0-.626,0-.275,0-.542.009-.811.034-2.027.086-3.758.086-3.758l1.383.566,9.628,4.244-.659,5.083-.037.31-.015.1-.21,1.532,0,.012Z" transform="translate(-186.633 -287.287)"/><path class="w" d="M197.045,297.489a11.913,11.913,0,0,1-3.855-.329,12.518,12.518,0,0,1-6.53-4.031l-.019-.647c-.007-.217-.009-.422,0-.626,0-.275,0-.542.009-.811.034-2.027.086-3.758.086-3.758l1.383.566,9.628,4.244-.659,5.083Z" transform="translate(-186.633 -287.287)"/></g><path class="p" d="M196.07,268.251a10.924,10.924,0,0,1,6.267,3.6c2.493,2.984,1.987,8.866,1.987,8.866Z" transform="translate(-170.66 -264.51)"/><path class="q" d="M214.214,288.971c.386,10.761-10.075,13.549-14.4,14.229-4.062.628-10.719-.569-14.479-5.566-4.062-5.393-6.352-18.879-1.576-24.21,5.929-6.628,15.669-7.362,21.114-3.846,2.712,1.759,6.075,7.874,7.936,13.221a27.433,27.433,0,0,1,1.287,4.92A11.916,11.916,0,0,1,214.214,288.971Z" transform="translate(-177.813 -264.868)"/><g transform="translate(17.482 12.265)"><path class="p" d="M193.277,278.477c.334-.2.609-.446.92-.68.35-.264.656-.44.806-.873a.59.59,0,0,0-.3-.653,1.459,1.459,0,0,0-1.452.287,2.152,2.152,0,0,0-.911,1.25A.63.63,0,0,0,193.277,278.477Z" transform="translate(-189.933 -272.995)"/><path class="p" d="M201.519,275.5a10.738,10.738,0,0,1-1.131.086,1.83,1.83,0,0,1-1.171-.133.583.583,0,0,1-.2-.685,1.451,1.451,0,0,1,1.276-.725,2.131,2.131,0,0,1,1.495.35A.624.624,0,0,1,201.519,275.5Z" transform="translate(-186.756 -274.022)"/><g transform="translate(8.416 13.092)"><path class="p" d="M196.4,283.13a4.625,4.625,0,0,0,.068.591c.131.778.544,2.074,1.811,2.08a2.169,2.169,0,0,0,1.313-.473,5.887,5.887,0,0,0,1.629-2.443A5.343,5.343,0,0,1,196.4,283.13Z" transform="translate(-196.401 -282.885)"/><path class="v" d="M196.447,283.456c.131.778.544,2.074,1.811,2.08a2.169,2.169,0,0,0,1.313-.473,3.256,3.256,0,0,0-1.511-1.323A3.381,3.381,0,0,0,196.447,283.456Z" transform="translate(-196.379 -282.62)"/></g><g transform="translate(4.426 6.734)"><path class="p" d="M194.594,278.631c-1.873.623-.487,4.325,1.248,3.746C197.55,281.809,196.164,278.107,194.594,278.631Z" transform="translate(-193.699 -278.581)"/></g><g transform="translate(13.661 3.728)"><path class="p" d="M200.441,276.651c1.551-.752,3.1,2.731,1.66,3.427C200.688,280.763,199.141,277.28,200.441,276.651Z" transform="translate(-199.952 -276.546)"/></g><path class="v" d="M198.768,276.9c1.028,2.2.583,1.445,1.706,3.6.517-.121,2.842-.826,2.739-.567a21.448,21.448,0,0,1-1.784,2.8c.465.535,1.725.866,1.691.932a4.765,4.765,0,0,1-6.558,2.476c-.254-.126-.174-.149-.028-.1,1.188.363,4.363,1.074,5.985-2.165a3.012,3.012,0,0,1-1.551-1.019c-.043-.056,1.047-1.591,1.424-2.355-.713.183-1.567.473-2.095.616a12,12,0,0,1-1.734-4.145A.108.108,0,0,1,198.768,276.9Z" transform="translate(-187.987 -272.684)"/><path class="v" d="M198.223,286.647a.853.853,0,0,1,.095.79.864.864,0,0,1-.668.521.8.8,0,0,1-.672-.17.653.653,0,0,1-.188-.69c.006-.031.052-.024.055.006a.626.626,0,0,0,1.139.329.551.551,0,0,0-.092-.706.341.341,0,0,0-.422.033.181.181,0,0,0,.084.3.428.428,0,0,0,.3-.145.02.02,0,0,1,.034.018.349.349,0,0,1-.378.321.4.4,0,0,1-.38-.4.551.551,0,0,1,.452-.483A.593.593,0,0,1,198.223,286.647Z" transform="translate(-187.811 -268.136)"/></g><path class="p" d="M188.4,278.363s3.257,4.829,3.108,7.3-3.461,9.419-3.334,11.015a7.7,7.7,0,0,1-.462,3.074s-4.482-1.942-7.44-9.706a13.981,13.981,0,0,1,1.677-13.7s3.292-7.6,9.514-9.213,13.383.44,14.406,1.861-.417,4.976,1.7,6.725a14.178,14.178,0,0,1-13.471-.214,7.6,7.6,0,0,0,4.821,2.482S194.689,280.727,188.4,278.363Z" transform="translate(-178.702 -265.326)"/><path class="p" d="M196.146,275.618a15.49,15.49,0,0,1-11.786-1.7c-.162-.1-.323.139-.191.264,2.9,2.761,8.462,2.724,12,1.523A.046.046,0,0,0,196.146,275.618Z" transform="translate(-176.361 -261.817)"/><path class="p" d="M186.248,274.874c-.019-.037-.084-.007-.066.031a38.538,38.538,0,0,0,1.774,3.62c1.275,2.192,1.583,3.6.516,6.009-1.174,2.654-3.062,5.066-3.53,7.988a.186.186,0,0,0,.362.086,34.131,34.131,0,0,1,2.378-5.443,16.4,16.4,0,0,0,1.957-4.511C190.157,279.819,187.493,277.185,186.248,274.874Z" transform="translate(-175.971 -261.359)"/><path class="p" d="M203.19,274.119c-5,1.753-11.538,1.866-14.931-2.914a.124.124,0,0,0-.213.126c2.545,5.025,10.8,5.375,15.164,2.839A.027.027,0,0,0,203.19,274.119Z" transform="translate(-174.496 -263.128)"/><path class="p" d="M201.911,275.358c-1.747-2.171.586-5.637-2.015-7.253-2.371-1.473-5.74-1.483-8.419-1.551-.123,0-.108.174.007.185,2.659.253,7.281.225,8.753,2.8.783,1.374.51,2.476.75,3.97a3.328,3.328,0,0,0,.824,1.928C201.862,275.493,201.958,275.415,201.911,275.358Z" transform="translate(-172.893 -265.32)"/><path class="p" d="M199.172,266.021c-4.346-.38-9.084-.34-12.709,2.428-2.511,1.917-5.932,6.053-5.641,9.415.018.216.343.332.442.1a21.683,21.683,0,0,1,6.328-8.846c3.381-2.569,7.49-2.9,11.589-2.84C199.352,266.283,199.334,266.034,199.172,266.021Z" transform="translate(-177.944 -265.655)"/><path class="p" d="M188.751,265.725c-4.79,1.815-8.99,8.13-8.061,13.347.027.154.281.136.3-.012.848-5.2,2.97-10.545,7.849-13.134A.112.112,0,0,0,188.751,265.725Z" transform="translate(-178.06 -265.718)"/><path class="p" d="M185.187,295.138a19.4,19.4,0,0,1-5.62-10.394c-.733-4.57.715-8.412,3.27-11.994.066-.093-.046-.211-.127-.126-6.523,6.767-4.075,16.846,2.362,22.645C185.155,295.343,185.266,295.219,185.187,295.138Z" transform="translate(-178.868 -262.438)"/><g transform="translate(4.696 22.922)"><path class="q" d="M190.5,284.1s-4.157-3.6-6.855-2.721c-2.854.929-1.541,6.251,1.168,7.654,3.179,1.648,6.309-.547,6.309-.547Z" transform="translate(-182.046 -281.236)"/><path class="v" d="M185.013,283.328a7.053,7.053,0,0,0-1.674-.452.059.059,0,0,1,.01-.117c2.312.072,4.942,1.507,5.51,3.929a.078.078,0,0,1-.14.064c-.127-.186-.251-.369-.377-.551a4.623,4.623,0,0,0-1.784-.982,3.9,3.9,0,0,0-2.083.095c-.08.027-.111-.09-.037-.121a3.87,3.87,0,0,1,3.185.041,6.078,6.078,0,0,0-1.263-1.183,7.069,7.069,0,0,0-1.347-.722" transform="translate(-181.451 -280.51)"/><path class="r" d="M187.786,286.217a.014.014,0,0,1,.013.025A.014.014,0,0,1,187.786,286.217Z" transform="translate(-179.311 -278.861)"/></g></g></g><g transform="translate(161.531 381.019)"><path class="v" d="M124.319,341s-11.1-5.551-9.251-16.124,13.3-18.108,26.566-23.659c0,0-17.182,12.82-19.7,24.5-2.3,10.642,4.108,14.49,4.108,14.49Z" transform="translate(-112.321 -301.221)"/><path class="w" d="M244.359,349.745c2.453,1.674-1.984,12.953-10.839,15.728-5.6,1.755-53.6,0-63.508,0H114.1c-3.569,0,3.371-27.557,11.1-36.478s24.056-12.888,31.391-10.508,24.979,21.61,32.509,21.61c6.349,0,12.164-6.344,19.566-8.195,5.038-1.26,11.366,1.453,14.142,5.022s7.931,10.641,11.5,12.226S242.9,348.753,244.359,349.745Z" transform="translate(-113.141 -293.308)"/><path class="p" d="M196.351,341.552c-.594,2.445,5.75,5.547,7.27,5.384s3.355-6.219,1.492-7.792C203.913,338.131,196.723,340.025,196.351,341.552Z" transform="translate(-73.46 -283.264)"/><g transform="translate(0 37.328)"><path class="af" d="M170.607,362.626a6.5,6.5,0,0,1-1.111.063c-.222,0-.484.007-.77.015-.5,0-1.086.009-1.761.016-.229,0-.467.009-.713.009-12.99.095-50.888-.1-52.61-.1-2.069,0,2.047-17.059,16.313-29.858a23.756,23.756,0,0,1,4.925-3.346h.009c5.892-3.046,13.837-4.362,19.261.855,7.193,6.916.833,25.576,1.523,25.854s7.328-1.935,10.65-.833c1.928.643,3.022,2.9,3.625,4.75C170.377,361.374,170.559,362.483,170.607,362.626Z" transform="translate(-113.141 -326.37)"/><path class="af" d="M163.014,359.973c-.811-2.572-1.9-4.549-4.733-5.224-2.812-.668-6.616.037-9.341,1.227A55.018,55.018,0,0,0,151.6,342.4c.142-3.711-.22-8.377-2.69-11.362-2.287-2.761-6.43-3.871-9.86-4.161a19.842,19.842,0,0,0-2.338-.044c-.01-.006-.013-.018-.027-.021a10.5,10.5,0,0,0-6.291.394c-.035.013-.034.078.01.074a27.2,27.2,0,0,1,3.31-.115,16.8,16.8,0,0,0-5.848,2.226c-.075.049-.027.191.065.154a22.065,22.065,0,0,1,10.481-1.826c3.538.326,8.188,1.6,10.167,4.781,2,3.213,2.08,7.7,1.815,11.359a92.08,92.08,0,0,1-2.359,12.9c-.081.363,4.808-1.437,8.278-1.388a7.268,7.268,0,0,1,4.059,1.3,8.551,8.551,0,0,1,2.5,3.425C162.954,360.266,163.07,360.149,163.014,359.973Z" transform="translate(-106.134 -326.492)"/><path class="af" d="M150.111,352.022c-.229,0-.467.009-.713.009-.055-.287-.111-.564-.191-.84a12.29,12.29,0,0,0-.73-1.9.084.084,0,0,1,.136-.095A4.971,4.971,0,0,1,150.111,352.022Z" transform="translate(-96.285 -315.671)"/><path class="af" d="M151.838,351.984c-.222,0-.484.007-.77.015a7.171,7.171,0,0,0-.142-.713,11.842,11.842,0,0,0-.762-1.95c-.047-.1.072-.2.151-.12A5.98,5.98,0,0,1,151.838,351.984Z" transform="translate(-95.483 -315.665)"/></g><path class="c" d="M167.834,359.254c-.991-.5-9.942-14.279-.14-26.26.892-1.09-2.755-1.626-3.569-1.189s-11.2,11-1.487,27.331Z" transform="translate(-91.493 -286.702)"/><g transform="translate(60.382 55.472)"><path class="af" d="M201.473,356.983H159.4c-6.7,0-8.152-20.555,1.492-17.985,0,0,11.871,8.383,19.286,9.967s13.908,1.055,16.938,2.245S202.528,356.983,201.473,356.983Z" transform="translate(-154.02 -338.775)"/><path class="af" d="M193.07,350.51c-4.563-.682-9.13-.889-13.642-1.954a41.215,41.215,0,0,1-12.549-5.086c-3.065-1.928-5.945-5.006-9.836-4.6-.093.01-.1.149,0,.149,3.963-.019,7.13,3.759,10.32,5.679a39.728,39.728,0,0,0,10.136,4.205,65.065,65.065,0,0,0,10.572,1.849c4.114.409,9.538.148,11.707,4.493.08.157.192.063.127-.1C198.733,352.151,196.063,350.957,193.07,350.51Z" transform="translate(-152.612 -338.747)"/><path class="af" d="M184.7,352.022h-.722a7.191,7.191,0,0,0-.182-.832,13.263,13.263,0,0,0-.73-1.9.083.083,0,0,1,.134-.095A4.973,4.973,0,0,1,184.7,352.022Z" transform="translate(-140.166 -333.815)"/><path class="af" d="M186.16,352.015h-.77a5.332,5.332,0,0,0-.151-.73,10.55,10.55,0,0,0-.761-1.95c-.047-.1.08-.2.151-.12A5.968,5.968,0,0,1,186.16,352.015Z" transform="translate(-139.492 -333.808)"/></g><path class="af" d="M180.562,330.6c-1.632.962-6.434,8.6-9.962,10.671s-10.792,4.23-10.9,10.01,12.557,12.081,18.678,8.152,8.925-14.39,8.716-18.239S184.608,328.218,180.562,330.6Z" transform="translate(-90.926 -287.389)"/><g transform="translate(116.897 62.781)"><path class="ag" d="M196.7,346.9v-.143a.306.306,0,0,0-.566-.149l-.071.126C195.788,347.226,196.7,347.468,196.7,346.9Z" transform="translate(-190.501 -342.419)"/><path class="ag" d="M194.593,347.714v-.143a.307.307,0,0,0-.567-.151l-.069.126C193.682,348.04,194.59,348.283,194.593,347.714Z" transform="translate(-191.505 -342.03)"/><path class="ag" d="M195.191,345.841V345.7a.307.307,0,0,0-.567-.149l-.069.126C194.278,346.167,195.188,346.411,195.191,345.841Z" transform="translate(-191.22 -342.923)"/><path class="ag" d="M192.968,345.914v-.143a.307.307,0,0,0-.567-.149l-.069.126C192.057,346.24,192.965,346.484,192.968,345.914Z" transform="translate(-192.281 -342.888)"/><path class="ag" d="M193.672,344.163v-.143a.306.306,0,0,0-.566-.149l-.071.124C192.759,344.489,193.669,344.733,193.672,344.163Z" transform="translate(-191.946 -343.724)"/></g><path class="ah" d="M187.881,338.856c-2.737.14-3.818,2.846-3.668,4.688a3.513,3.513,0,0,0,3.863,3.446,3.7,3.7,0,0,0,3.471-4.061C191.535,340.915,190.032,338.747,187.881,338.856Z" transform="translate(-79.239 -283.267)"/><g transform="translate(107.05 55.586)"><path class="p" d="M187.281,338.887c-2.877.581-1.688,5.384.978,4.846C190.883,343.2,189.694,338.4,187.281,338.887Z" transform="translate(-185.614 -338.853)"/></g></g></g></svg>