<svg xmlns="http://www.w3.org/2000/svg" width="28.415" height="29" viewBox="0 0 28.415 29"><defs><style>.a{fill:#e94335;}.b{fill:#34a752;}.c{fill:#4285f3;}.d{fill:#f9ba06;}.e{fill:#aac8f7;}.f{fill:#71a3f5;}.g{fill:#87b1f6;}.h{fill:#679cf5;}.i{fill:#f9c633;}.j{fill:#74c288;}.k{fill:#367df2;}</style></defs><g transform="translate(-129.623 -180.322)"><path class="a" d="M136.694,188.318a9.136,9.136,0,0,1,1.965-3.037,14.048,14.048,0,0,1,9.018-4.834,14.854,14.854,0,0,1,8.474,1.385,9.239,9.239,0,0,1,3.212,2.41q-1.91,1.876-3.829,3.764c-.19.187-.32.229-.563.026a7.945,7.945,0,0,0-9-1.086,7.746,7.746,0,0,0-3.683,3.483c-.254.48-.5.964-.748,1.447-.331-.018-.534-.263-.77-.443Q138.728,189.88,136.694,188.318Z" transform="translate(-5.572)"/><path class="b" d="M159.27,270.224a13.365,13.365,0,0,1-6.738,3.277c-.6.109-1.214.132-1.821.194a6.128,6.128,0,0,0-2.59,0,14.514,14.514,0,0,1-11.243-7.287,6.058,6.058,0,0,1-.329-.736c.249-.166.508-.32.745-.5q2.066-1.576,4.124-3.162a8.506,8.506,0,0,0,8.193,6.054,9.149,9.149,0,0,0,5.011-1.49C156.116,267.861,157.7,269.036,159.27,270.224Z" transform="translate(-5.457 -64.375)"/><path class="c" d="M208.015,249.929c-1.572-1.188-3.154-2.363-4.649-3.65a9.613,9.613,0,0,0,1.72-1.822,9.368,9.368,0,0,0,1.067-2.549,1.392,1.392,0,0,0-.944-.185q-3.332-.008-6.664-.011l-.137-.141q0-2.59,0-5.18l.14-.134,13.24.005.12.124.15.427a2.041,2.041,0,0,1,.154,1.1,6.574,6.574,0,0,0,0,2.745,13.785,13.785,0,0,1-2.5,7.285A9.5,9.5,0,0,1,208.015,249.929Z" transform="translate(-54.202 -44.079)"/><path class="d" d="M135.96,227.366q-2.061,1.582-4.124,3.162c-.238.181-.5.335-.745.5a11.881,11.881,0,0,1-1.468-5.33,6.124,6.124,0,0,0,0-2.612,11.909,11.909,0,0,1,1.5-5.041q2.037,1.558,4.076,3.115c.236.18.439.425.77.443A9.319,9.319,0,0,0,135.96,227.366Z" transform="translate(0 -29.73)"/><path class="e" d="M211.277,235.526l-13.24-.005a.254.254,0,0,0-.131,0q-.072,0-.145,0c.118-.311.386-.152.572-.152,4.195-.011,8.39.005,12.584-.024.621,0,.747.213.629.738l-.15-.427Z" transform="translate(-53.697 -43.344)"/><path class="f" d="M198.544,261.947q3.332.005,6.664.011a1.392,1.392,0,0,1,.944.185q-3.462-.02-6.923-.04c-.276,0-.551-.015-.827-.022,0-.049,0-.1,0-.145A.514.514,0,0,0,198.544,261.947Z" transform="translate(-54.201 -64.315)"/><path class="g" d="M197.78,241.679q0,.072,0,.145c-.237-.034-.155-.223-.155-.351,0-1.747.011-3.495.019-5.242q.072,0,.145,0a.334.334,0,0,0-.009.136q0,2.59,0,5.18A.4.4,0,0,0,197.78,241.679Z" transform="translate(-53.575 -44.059)"/><path class="h" d="M262.993,246.819a6.575,6.575,0,0,1,0-2.745Q262.993,245.447,262.993,246.819Z" transform="translate(-104.988 -50.24)"/><path class="i" d="M129.623,241.83a6.124,6.124,0,0,1,0,2.612Q129.623,243.136,129.623,241.83Z" transform="translate(0 -48.471)"/><path class="j" d="M191.146,316.626a6.127,6.127,0,0,1,2.59,0Z" transform="translate(-48.483 -107.304)"/><path class="k" d="M198.391,236.355a.334.334,0,0,1,.009-.136.254.254,0,0,1,.131,0Z" transform="translate(-54.19 -44.043)"/><path class="k" d="M261.529,236.281l.12.124Z" transform="translate(-103.949 -44.098)"/><path class="k" d="M198.4,261.455a.4.4,0,0,1,0-.129l.137.141A.511.511,0,0,1,198.4,261.455Z" transform="translate(-54.198 -63.835)"/></g></svg>