<svg xmlns="http://www.w3.org/2000/svg" width="600.341" height="341.705" viewBox="0 0 600.341 341.705"><defs><style>.a{fill:#ebebeb;}.b{fill:#e0e0e0;}.c{fill:#f5f5f5;}.d{fill:#263238;}.e{fill:#0a437d;}.f{fill:#2680eb;}.g{fill:#f2f2f2;}.h{fill:#455a64;}.i{fill:#c4c9ce;}</style></defs><g transform="translate(-74.829 -88.729)"><path class="a" d="M346.91,428.008a24.736,24.736,0,0,1,36.132-24.058c1.9-5.079,3.844-10.25,7.21-14.5s8.442-7.507,13.86-7.314v45.872Z"/><path class="a" d="M196.315,250.535,167.09,309.489l8.726.332-24.763,46.846H164.06l-20.29,41.62H257.185l-24.972-41.62,11.966-.52-23.932-46.823,8.844-.52Z"/><path class="b" d="M201.257,318.924c.144,0-.105,24.968-.556,55.756s-.933,55.756-1.077,55.754.105-24.963.556-55.762S201.113,318.922,201.257,318.924Z"/><path class="b" d="M215.157,332.666a19.4,19.4,0,0,1-1.9,2.724c-1.237,1.636-3,3.852-4.983,6.27l-5.1,6.171a22.842,22.842,0,0,1-2.191,2.495,19.4,19.4,0,0,1,1.9-2.724c1.237-1.636,3-3.852,4.984-6.271l5.1-6.17A22.846,22.846,0,0,1,215.157,332.666Z"/><path class="b" d="M200.981,350.326a60.629,60.629,0,0,1-6.4-4.661,60.194,60.194,0,0,1-6.084-5.072,60.528,60.528,0,0,1,6.4,4.661A60.1,60.1,0,0,1,200.981,350.326Z"/><path class="b" d="M200.205,379.244a15.665,15.665,0,0,1-2.132-1.7c-1.28-1.089-3.05-2.591-5.036-4.21s-3.816-3.049-5.141-4.084a15.557,15.557,0,0,1-2.1-1.744,13,13,0,0,1,2.316,1.448c1.385.961,3.256,2.351,5.251,3.976s3.732,3.178,4.953,4.34A13.011,13.011,0,0,1,200.205,379.244Z"/><path class="b" d="M216.367,361.369a3.415,3.415,0,0,1-.523.8c-.361.494-.914,1.185-1.617,2.022-1.4,1.677-3.448,3.9-5.752,6.3s-4.386,4.574-5.854,6.183a31.868,31.868,0,0,1-2.416,2.575,3.415,3.415,0,0,1,.523-.8c.361-.494.914-1.185,1.617-2.022,1.4-1.677,3.448-3.9,5.753-6.3s4.385-4.574,5.853-6.182A31.658,31.658,0,0,1,216.367,361.369Z"/><path class="b" d="M434.213,317.62h118.5l22.144-31.439,23.206,32.325,27.273-.434-29.4-39.59-132.124.549Z"/><path class="c" d="M493.473,318.073v110.2H611.8v-110.2H598.24l-23.385-31.892L552.638,317.59Z"/><rect class="b" width="27.677" height="47.781" transform="translate(510.192 380.497)"/><rect class="b" width="43.601" height="27.008" transform="translate(554.459 379.152)"/><rect class="a" width="1" height="27.26" transform="translate(566.548 379.153)"/><rect class="a" width="1" height="27.26" transform="translate(584.68 379.153)"/><rect class="a" width="18.132" height="1" transform="translate(567.048 393.105)"/><rect class="b" width="43.601" height="27.008" transform="translate(554.459 325.095)"/><rect class="a" width="1" height="27.261" transform="translate(566.548 325.095)"/><rect class="a" width="1" height="27.261" transform="translate(584.68 325.095)"/><rect class="a" width="18.132" height="1" transform="translate(567.048 339.048)"/><rect class="b" width="27.498" height="26.036" transform="translate(507.484 325.339)"/><rect class="b" width="48.027" height="110.205" transform="translate(445.446 318.073)"/><rect class="a" width="1" height="26.036" transform="translate(520.733 325.339)"/><rect class="a" width="27.498" height="1" transform="translate(507.484 338.497)"/><circle class="b" cx="5.831" cy="5.831" r="5.831" transform="translate(568.956 301.389)"/><path class="c" d="M533.2,300.068l7.359-9.076V269.162H525.146v31.075Z"/><path class="a" d="M533.2,300.068V269.162h7.359v21.831Z"/><rect class="a" width="18.165" height="3.213" transform="translate(523.431 265.949)"/><rect class="c" width="89.361" height="61.997" transform="translate(404.112 366.281)"/><rect class="b" width="55.948" height="61.997" transform="translate(404.112 366.281)"/><rect class="c" width="36.592" height="41.901" transform="translate(415.141 386.268)"/><rect class="a" width="23.572" height="6.003" transform="translate(464.981 386.098)"/><path class="a" d="M434.213,317.62v3.191H552.638V317.59Z"/><path class="a" d="M552.638,320.811l22.148-31.09.068-3.54L552.71,317.62Z"/><rect class="a" width="26.524" height="2.059" transform="translate(598.24 318.073)"/><rect class="b" width="9.786" height="3.721" transform="translate(518.644 373.175)"/><path class="d" d="M675.17,428.278c0,.144-134.4.26-300.156.26-165.812,0-300.185-.116-300.185-.26s134.373-.261,300.185-.261C540.769,428.017,675.17,428.134,675.17,428.278Z"/><path class="e" d="M442.929,138.215c-22.148-30.464-54.354-44.666-87.956-44.665,0,0-82.294,0-106.664,73.67-8.982,27.15-6.992,56.634,3.906,83.073a152.345,152.345,0,0,0,15.374,28.59c21.248,30.692,87.384,114.505,87.384,114.505h14.376C387.808,367.75,434.281,282.58,448.2,255.274,465.677,220.986,468.364,173.2,442.929,138.215ZM368.7,274.492a70.295,70.295,0,1,1,70.3-70.295A70.295,70.295,0,0,1,368.7,274.492Z"/><path class="f" d="M457.4,138.792c-22.148-30.464-54.354-44.666-87.956-44.665,0,0-82.294,0-106.665,73.669-8.981,27.15-6.992,56.634,3.906,83.074a152.412,152.412,0,0,0,15.375,28.59c21.248,30.692,87.384,114.5,87.384,114.5s76.408-105.119,93.227-138.114C480.149,221.562,482.836,173.777,457.4,138.792ZM368.793,275.069a70.295,70.295,0,1,1,70.3-70.3A69.776,69.776,0,0,1,368.793,275.069Z"/><path class="e" d="M368.7,133.9a70.312,70.312,0,0,0-66.26,46.808,60.24,60.24,0,1,1,7.353,61.824A70.29,70.29,0,1,0,368.7,133.9Z"/><path class="g" d="M508.867,236.428a14.294,14.294,0,0,0-9.669-2.386c-5.763.657-14.107,1.5-14.107,1.5l.031.274L444.789,238.3l-12.345-25.058-18.718,12.332s2.461,3.944,12.952,23.316a21,21,0,0,0,21.494,10.779l47.49-6.95v-.091c4.9-.277,10.222-.735,10.992-1.438,1.471-1.346,2.814-6.245,2.814-6.245s8.457,5.034,10.093,5.145,1.925-1.249,2.943-2.692C523.2,246.418,514.476,240.247,508.867,236.428Z"/><path class="h" d="M434.928,211.61s-7.84-15.09-15.024-29.336c-8.823-17.5-28.276-21-28.276-21l-28.182-3.7s-23.55-10.657-45.5,15.792l-18.043,20.115,3.83,3.444,17.857,16.055,3.53,3.174,8.081-8.319-3.757,21.077-6.629,29.38.02.017,14.328-1.731,9.7-59.254,54.634,4.358-4.286,37.359c.878-.134,7.489-1.437,9.636-10.419a18.536,18.536,0,0,0,.047-8.714L410.051,228Z"/><path class="d" d="M346.863,197.285l-9.7,59.255-14.328,1.731a70.261,70.261,0,0,0,70.729,12.5L397.211,239l4.286-37.359Z"/><path class="d" d="M350.1,154.626l-1.186,48.131,9.116,1.44,1.222-48.773S356.053,153.919,350.1,154.626Z"/><path class="d" d="M388.662,203.016l7.506-41.339c.43-.461,6.6,1.752,8.451,3.857l-6.742,38.35Z"/><path class="h" d="M358.362,197.117a2.51,2.51,0,0,1,.136.825,13.006,13.006,0,0,1,.026,2.282,6.241,6.241,0,0,1-1.134,3.232,4.208,4.208,0,0,1-1.593,1.34,3.7,3.7,0,0,1-2.23.27,5.271,5.271,0,0,1-3.422-2.429,7.648,7.648,0,0,1-1.008-3.269,12.8,12.8,0,0,1,.006-2.282,2.413,2.413,0,0,1,.143-.824c.1,0-.016,1.2.217,3.063a7.7,7.7,0,0,0,1.049,3.057,4.9,4.9,0,0,0,3.107,2.172,3.372,3.372,0,0,0,3.348-1.387,6.134,6.134,0,0,0,1.151-2.984C358.367,198.316,358.26,197.116,358.362,197.117Z"/><path class="h" d="M352.962,201.37a2.082,2.082,0,1,1,2.7-1.165A2.082,2.082,0,0,1,352.962,201.37Z"/><path class="h" d="M395.716,201.632a2.082,2.082,0,1,1-2.082-2.082A2.082,2.082,0,0,1,395.716,201.632Z"/><path class="h" d="M398.514,200.19a7.422,7.422,0,0,1-.477,2.433,6.077,6.077,0,0,1-1.389,2.363,3.855,3.855,0,0,1-3.163,1.164,4.629,4.629,0,0,1-3-1.548,5.307,5.307,0,0,1-1.167-2.487,5.8,5.8,0,0,1-.053-1.835c.064-.428.147-.654.178-.648a14.287,14.287,0,0,0,.234,2.4,5.256,5.256,0,0,0,1.167,2.248,4.283,4.283,0,0,0,2.692,1.347,3.44,3.44,0,0,0,2.777-.987,6.127,6.127,0,0,0,1.381-2.149C398.225,201.1,398.425,200.165,398.514,200.19Z"/><path class="h" d="M352.83,219.954c-.072-.008-.1-.4-.082-1.033.008-.315.027-.688.055-1.1.018-.222.034-.436.051-.649l.03-.343.017-.176.009-.088,0-.045,0-.022v-.019c-.258.23.351-.317.288-.26h0a11.969,11.969,0,0,1,3.45.634,11.978,11.978,0,0,1-3.506-.116h0c-.064.056.545-.49.287-.258v.019l0,.023-.005.045-.009.09-.019.178-.038.348c-.027.217-.053.433-.081.658-.055.419-.112.795-.167,1.11C353.005,219.578,352.9,219.962,352.83,219.954Z"/><path class="h" d="M351.37,233.739a23.222,23.222,0,0,1,.733-6.891,23.134,23.134,0,0,1-.733,6.891Z"/><path class="h" d="M353.4,245.668a11.994,11.994,0,0,1-3.251-1.323c.031.056-.271-.495-.143-.262v-.021l0-.023.005-.045.009-.089.02-.177.041-.345.085-.651c.058-.415.117-.788.174-1.1.114-.624.221-1.007.292-1s.1.4.074,1.039c-.01.317-.031.694-.063,1.112-.018.224-.036.439-.054.655l-.034.346-.017.177-.01.089,0,.045,0,.022v.02h0c.128.234-.175-.316-.143-.26A12,12,0,0,1,353.4,245.668Z"/><path class="h" d="M362.638,250.257a12.9,12.9,0,0,1-4.621-2.295,12.9,12.9,0,0,1,4.621,2.295Z"/><path class="h" d="M373.637,252.793a12.006,12.006,0,0,1-3.146,1.556c-.427-.016-.119-.005-.215-.009h0l0,0-.005,0-.01-.005-.02-.01-.041-.02-.08-.04-.159-.08-.309-.158-.582-.306c-.369-.2-.7-.383-.972-.545-.546-.324-.868-.557-.836-.621s.412.052,1,.291c.294.12.64.271,1.021.445l.6.279.313.151.159.078.081.04.04.019.021.01.01.006.005,0h0l-.213-.008A11.94,11.94,0,0,1,373.637,252.793Z"/><path class="h" d="M381.108,249.764c.054.133-.738.58-1.77,1s-1.912.65-1.966.516.739-.58,1.771-1S381.054,249.63,381.108,249.764Z"/><path class="h" d="M388.447,243.453a12,12,0,0,1-.1,3.508c-.323.429-.09.119-.163.215h0l-.005,0-.01,0-.021.008-.042.017-.083.034-.166.066-.323.127-.615.232c-.393.146-.749.27-1.052.367-.6.194-.992.281-1.019.214s.312-.274.881-.556c.284-.14.627-.3,1.01-.469l.6-.261.321-.134.164-.068.083-.034.042-.017.021-.009.01,0,.006,0h0c-.072.1.162-.214-.16.214A11.975,11.975,0,0,1,388.447,243.453Z"/><path class="h" d="M389.783,230.495a20.5,20.5,0,0,1-.668,6.479,20.492,20.492,0,0,1,.668-6.479Z"/><path class="h" d="M387.331,220.159a11.985,11.985,0,0,1,3.507.116c.463.571.128.159.232.287v.01l0,.011,0,.023-.005.045-.009.089-.019.177-.04.345-.082.652c-.056.415-.114.788-.17,1.1-.112.625-.217,1.008-.288,1s-.1-.4-.078-1.039c.009-.317.028-.694.058-1.112l.053-.655.031-.346.018-.177.009-.09,0-.045,0-.022,0-.011v-.009h0c.1.127-.231-.287.231.284A11.974,11.974,0,0,1,387.331,220.159Z"/><path class="h" d="M375.062,218.836a18.429,18.429,0,0,1,6.134.661,18.36,18.36,0,0,1-6.134-.661Z"/><path class="h" d="M362.793,217.513a18.369,18.369,0,0,1,6.135.661,18.43,18.43,0,0,1-6.135-.661Z"/><path class="g" d="M298.5,200.567q-.093,1.8-.093,3.63a70.618,70.618,0,0,0,1.424,14.142l.03.137c.12.58.265,1.151.4,1.727.548,2.258,1.193,4.487,1.911,6.683.094.273.182.549.278.821,2.585-.576,10.066-7.052,18.677-15.147l-17.843-16.043C300.784,199.008,299.3,200.287,298.5,200.567Z"/><path class="d" d="M411.116,96.71c.62,6.906,8.5,12.734,15.43,12.518,3.824-.119,7.69-1.819,11.365-.755,6.159,1.782,8.649,10.375,14.957,11.527,4.718.862,9.075-2.963,13.864-3.22,3.519-.188,6.84,1.57,9.755,3.551s5.7,4.273,9.044,5.4,6.4-.875,9.766-1.9c.836,2.147,1.378,4.781,2.453,7.055s2.373,6.328.465,7.21c0,0-5.308,2.751-8.38,2.6a9.992,9.992,0,0,0,9.68,2.621c.852,5.135,1.493,11.061-1.984,14.935a11.924,11.924,0,0,1-5.977,3.349c-11.146,2.877-22.79-4.91-34.1-2.784-4.645.872-8.892,3.379-13.578,3.992a17.434,17.434,0,0,1-13.061-3.687c-4.461-3.611-7.531-9.651-13.191-10.6-2.511-.419-5.055.3-7.506.992s-5.023,1.355-7.513.825-4.835-2.651-4.721-5.194"/><path class="g" d="M388.96,163.825c1.249-6.967,2.692-14.279,2.692-14.279s9.242.091,13.166-11.3c3.743-10.861,6.446-36.988,6.446-36.988h0a34.19,34.19,0,0,0-38.963,1.986h0L363.088,160c-1.07,6.588,3.743,12.755,10.806,13.846h0C381.028,174.946,387.77,170.462,388.96,163.825Z"/><path class="d" d="M404.391,120.829a1.525,1.525,0,0,1-1.716,1.26,1.459,1.459,0,0,1-1.31-1.627,1.526,1.526,0,0,1,1.714-1.262A1.46,1.46,0,0,1,404.391,120.829Z"/><path class="d" d="M407.123,119.575c-.22.164-1.21-.879-2.828-1.16-1.612-.3-2.945.32-3.086.091-.07-.1.182-.423.765-.709a4.189,4.189,0,0,1,2.512-.315,4.012,4.012,0,0,1,2.208,1.169C407.125,119.12,407.23,119.5,407.123,119.575Z"/><path class="d" d="M387.788,118.2a1.526,1.526,0,0,1-1.716,1.261,1.46,1.46,0,0,1-1.31-1.628,1.527,1.527,0,0,1,1.715-1.262A1.46,1.46,0,0,1,387.788,118.2Z"/><path class="d" d="M390.149,117.191c-.221.163-1.212-.88-2.829-1.16-1.612-.3-2.945.319-3.086.09-.07-.1.18-.423.765-.708a4.19,4.19,0,0,1,2.512-.315,4.022,4.022,0,0,1,2.209,1.168C390.149,116.735,390.256,117.12,390.149,117.191Z"/><path class="d" d="M393.9,130.216a10.83,10.83,0,0,1,2.71-.012c.42.031.825.017.944-.252a2.127,2.127,0,0,0-.06-1.272q-.318-1.6-.667-3.359c-.907-4.775-1.486-8.672-1.294-8.707s1.085,3.807,1.992,8.582q.32,1.764.612,3.369a2.422,2.422,0,0,1-.071,1.658,1.052,1.052,0,0,1-.785.484,2.846,2.846,0,0,1-.719-.026A10.716,10.716,0,0,1,393.9,130.216Z"/><path class="i" d="M391.652,149.546A30.265,30.265,0,0,1,376.7,142.6s2.389,8.719,14.308,9.687Z"/><path class="i" d="M392.535,133.992a2.959,2.959,0,0,0-2.422-1.542,2.7,2.7,0,0,0-2.01.662,1.711,1.711,0,0,0-.468,1.9,1.987,1.987,0,0,0,2.026.91,6.231,6.231,0,0,0,2.284-.87,1.823,1.823,0,0,0,.546-.4.55.55,0,0,0,.1-.6"/><path class="d" d="M388.949,130.5c.266.031-.04,1.787,1.243,3.3s3.185,1.646,3.156,1.894c.005.115-.477.268-1.27.15a4.437,4.437,0,0,1-2.652-1.482,3.863,3.863,0,0,1-.929-2.745C388.559,130.865,388.831,130.465,388.949,130.5Z"/><path class="d" d="M380.225,94.873c3.13,6.9,13.276,15.308,21.112,18.29-.713-1.425-5.117-5.433-5.829-6.857,3.161,3.436,7.73,8.1,12.56,9.263a3.015,3.015,0,0,0,1.726.054,2.3,2.3,0,0,0,1.2-1.676,49.617,49.617,0,0,0,1.655-10.658,11.933,11.933,0,0,0-2.8-8.352c-2.671-3-7.031-4.438-11.225-5.332a27.184,27.184,0,0,0-10.67-.558c-3.469.667-6.706,2.668-7.749,5.609"/><path class="d" d="M361.543,120.882a67.457,67.457,0,0,1,.3-8.035c.79-6.1,2.691-28.268,23.156-22.564l-2.179,5.679s1.572,14.269-8.932,21.932c0,0,.045,14.242-7.23,19.381,0,0-5.074-9.658-5.117-16.393"/><path class="g" d="M374.328,116.927a7.1,7.1,0,0,0-3.814-.423,4.953,4.953,0,0,0-3.2,2.019,5.177,5.177,0,0,0-.692,3.739,8.773,8.773,0,0,0,1.579,3.527,5.944,5.944,0,0,0,2.009,1.91,2.833,2.833,0,0,0,2.681.055"/><path class="i" d="M372.3,124.4c.135.071-.544.733-1.635.223a2.506,2.506,0,0,1-1.2-1.485,5.667,5.667,0,0,1-.257-2.189,3.326,3.326,0,0,1,.918-2.113,2.215,2.215,0,0,1,1.817-.682c1.183.181,1.4,1.062,1.267,1.062-.111.079-.494-.422-1.3-.373a2.145,2.145,0,0,0-1.732,2.19c-.087,1.314.2,2.581.835,3C371.664,124.52,372.237,124.283,372.3,124.4Z"/><path class="d" d="M492.8,117.893a2.993,2.993,0,0,1-.551.815,4.934,4.934,0,0,1-2.436,1.4,7.159,7.159,0,0,1-4.433-.312,20.287,20.287,0,0,1-5-3.139c-1.716-1.3-3.64-2.836-6.1-3.374a8.423,8.423,0,0,0-3.831.166,20.613,20.613,0,0,0-3.847,1.569c-1.282.643-2.576,1.364-3.967,1.987a12.249,12.249,0,0,1-4.522,1.206,7.783,7.783,0,0,1-4.659-1.359,15.088,15.088,0,0,1-3.5-3.551c-2-2.665-3.618-5.552-6.065-7.446a8.269,8.269,0,0,0-4.088-1.717,13.52,13.52,0,0,0-4.325.192c-2.809.518-5.428,1.407-8.005,1.732a17.272,17.272,0,0,1-7.134-.618,18.348,18.348,0,0,1-8.625-5.569,13.431,13.431,0,0,1-2.079-3.169.893.893,0,0,1,.149.2l.391.615a18.03,18.03,0,0,0,10.268,7.569,17.028,17.028,0,0,0,6.974.542c2.518-.333,5.118-1.232,7.975-1.775a13.97,13.97,0,0,1,4.479-.213,8.768,8.768,0,0,1,4.33,1.8c2.566,1.986,4.193,4.914,6.171,7.539a14.658,14.658,0,0,0,3.372,3.434,7.277,7.277,0,0,0,4.352,1.279,11.807,11.807,0,0,0,4.338-1.15c1.366-.606,2.658-1.319,3.954-1.962a20.958,20.958,0,0,1,3.947-1.583,8.829,8.829,0,0,1,4.035-.145c2.6.592,4.534,2.188,6.241,3.506a20.328,20.328,0,0,0,4.884,3.158,7.005,7.005,0,0,0,4.277.386,5,5,0,0,0,2.41-1.279C492.622,118.182,492.778,117.875,492.8,117.893Z"/><path class="f" d="M262.475,316.536l-18.138,36.589,5.416.206-15.369,29.074h8.072l-12.593,25.831h70.39l-15.5-25.831,7.426-.323-14.853-29.06,5.489-.323Z"/><path class="d" d="M265.542,358.981c.144,0,.034,15.5-.246,34.606s-.623,34.6-.767,34.6-.033-15.494.246-34.609S265.4,358.979,265.542,358.981Z"/><path class="d" d="M274.169,368.387a6.065,6.065,0,0,1-1.086,1.607,43.93,43.93,0,0,1-3.159,3.43c-1.287,1.283-2.442,2.44-3.252,3.306a8.889,8.889,0,0,1-1.363,1.365,6.046,6.046,0,0,1,1.086-1.607,43.755,43.755,0,0,1,3.16-3.431c1.286-1.282,2.441-2.439,3.251-3.3A8.89,8.89,0,0,1,274.169,368.387Z"/><path class="d" d="M265.371,378.47a46.4,46.4,0,0,1-7.75-6.04,46.536,46.536,0,0,1,7.75,6.04Z"/><path class="d" d="M264.89,396.418a51,51,0,0,1-4.512-3.593,50.89,50.89,0,0,1-4.429-3.693,36.753,36.753,0,0,1,8.941,7.286Z"/><path class="d" d="M274.92,385.324c.131.1-1.933,2.774-4.827,5.727l-3.651,3.815a10.969,10.969,0,0,1-1.552,1.552c-.131-.1,1.932-2.773,4.827-5.727l3.651-3.815A11.037,11.037,0,0,1,274.92,385.324Z"/></g></svg>