<svg xmlns="http://www.w3.org/2000/svg" width="380.765" height="334.367" viewBox="0 0 380.765 334.367"><defs><style>.a{fill:#f5f5f5;}.b{fill:#ebebeb;}.c{fill:#e0e0e0;}.d{fill:#fafafa;}.e{fill:#fff;}.f{fill:#0048cd;}.g{opacity:0.3;}.h{fill:#0894fe;}.i{fill:#263238;}.j{opacity:0.2;}.k{fill:#f2f2f2;}.l{fill:#c4c9ce;}.m{fill:#455a64;}.n{fill:#0a437d;}.o{fill:#eb996e;}</style></defs><g transform="translate(-17.788 -48.621)"><g transform="translate(45.469 48.622)"><g transform="translate(57.924 15.609)"><g transform="translate(3.278 12.24)"><rect class="a" width="39.339" height="124.673"/></g><g transform="translate(22.948 12.24)"><rect class="b" width="19.669" height="124.33"/></g><g transform="translate(7.77)"><rect class="a" width="13.891" height="12.24"/></g><g transform="translate(18.351)"><rect class="b" width="3.311" height="12.24"/></g><g transform="translate(0 11.526)"><path class="c" d="M122.989,82.682v-.714h43.768v.714" transform="translate(-122.989 -81.968)"/></g><g transform="translate(11.044 17.578)"><rect class="d" width="3.33" height="7.021"/></g><g transform="translate(3.278 27.22)"><path class="c" d="M146.686,101.39c0,.074-4.4.134-9.834.134s-9.836-.06-9.836-.134,4.4-.134,9.836-.134S146.686,101.316,146.686,101.39Z" transform="translate(-127.017 -101.256)"/></g><g transform="translate(23.119 17.578)"><g transform="translate(7.765)"><rect class="c" width="3.33" height="7.021"/></g><g transform="translate(0 9.643)"><path class="c" d="M171.069,101.39c0,.074-4.4.134-9.835.134s-9.835-.06-9.835-.134,4.4-.134,9.835-.134S171.069,101.316,171.069,101.39Z" transform="translate(-151.4 -101.256)"/></g></g><g transform="translate(23.119 31.518)"><g transform="translate(7.765)"><rect class="c" width="3.33" height="7.021"/></g><g transform="translate(0 9.643)"><path class="c" d="M171.069,118.521c0,.074-4.4.134-9.835.134s-9.835-.06-9.835-.134,4.4-.134,9.835-.134S171.069,118.447,171.069,118.521Z" transform="translate(-151.4 -118.387)"/></g></g><g transform="translate(23.119 45.878)"><g transform="translate(7.765)"><rect class="c" width="3.33" height="7.021"/></g><g transform="translate(0 9.643)"><path class="c" d="M171.069,136.169c0,.074-4.4.134-9.835.134s-9.835-.06-9.835-.134,4.4-.134,9.835-.134S171.069,136.1,171.069,136.169Z" transform="translate(-151.4 -136.035)"/></g></g><g transform="translate(23.119 60.239)"><g transform="translate(7.765)"><rect class="c" width="3.33" height="7.021"/></g><g transform="translate(0 9.643)"><path class="c" d="M171.069,153.817c0,.074-4.4.134-9.835.134s-9.835-.06-9.835-.134,4.4-.134,9.835-.134S171.069,153.743,171.069,153.817Z" transform="translate(-151.4 -153.683)"/></g></g><g transform="translate(23.119 74.189)"><g transform="translate(7.765)"><rect class="c" width="3.33" height="7.021"/></g><g transform="translate(0 9.643)"><path class="c" d="M171.069,170.96c0,.074-4.4.134-9.835.134s-9.835-.06-9.835-.134,4.4-.134,9.835-.134S171.069,170.886,171.069,170.96Z" transform="translate(-151.4 -170.826)"/></g></g><g transform="translate(23.119 88.195)"><g transform="translate(7.765)"><rect class="c" width="3.33" height="7.021"/></g><g transform="translate(7.765 14.19)"><rect class="c" width="3.33" height="7.021"/></g><g transform="translate(0 9.643)"><path class="c" d="M171.069,188.173c0,.074-4.4.133-9.835.133s-9.835-.059-9.835-.133,4.4-.134,9.835-.134S171.069,188.1,171.069,188.173Z" transform="translate(-151.4 -188.039)"/></g></g><g transform="translate(11.044 31.73)"><rect class="d" width="3.33" height="7.021"/></g><g transform="translate(3.278 41.374)"><path class="c" d="M146.686,118.782c0,.074-4.4.134-9.834.134s-9.836-.06-9.836-.134,4.4-.133,9.836-.133S146.686,118.708,146.686,118.782Z" transform="translate(-127.017 -118.649)"/></g><g transform="translate(11.044 45.883)"><rect class="d" width="3.33" height="7.021"/></g><g transform="translate(3.278 55.526)"><path class="c" d="M146.686,136.175c0,.074-4.4.134-9.834.134s-9.836-.06-9.836-.134,4.4-.134,9.836-.134S146.686,136.1,146.686,136.175Z" transform="translate(-127.017 -136.041)"/></g><g transform="translate(11.044 60.036)"><rect class="d" width="3.33" height="7.021"/></g><g transform="translate(3.278 69.679)"><path class="c" d="M146.686,153.568c0,.074-4.4.133-9.834.133s-9.836-.059-9.836-.133,4.4-.134,9.836-.134S146.686,153.494,146.686,153.568Z" transform="translate(-127.017 -153.434)"/></g><g transform="translate(11.044 74.189)"><rect class="d" width="3.33" height="7.021"/></g><g transform="translate(3.278 83.831)"><path class="c" d="M146.686,170.96c0,.074-4.4.134-9.834.134s-9.836-.06-9.836-.134,4.4-.134,9.836-.134S146.686,170.886,146.686,170.96Z" transform="translate(-127.017 -170.826)"/></g><g transform="translate(11.044 88.342)"><rect class="d" width="3.33" height="7.021"/></g><g transform="translate(3.278 97.985)"><path class="c" d="M146.686,188.353c0,.074-4.4.134-9.834.134s-9.836-.06-9.836-.134,4.4-.134,9.836-.134S146.686,188.279,146.686,188.353Z" transform="translate(-127.017 -188.219)"/></g><g transform="translate(11.044 102.494)"><rect class="d" width="3.33" height="7.021"/></g></g><g transform="translate(201.992 42.044)"><g transform="translate(3.278 12.24)"><rect class="a" width="39.339" height="124.673"/></g><g transform="translate(22.948 12.24)"><rect class="b" width="19.669" height="124.33"/></g><g transform="translate(7.77)"><rect class="a" width="13.891" height="12.24"/></g><g transform="translate(18.351)"><rect class="b" width="3.311" height="12.24"/></g><g transform="translate(0 11.526)"><path class="c" d="M300.036,115.169v-.714H343.8v.714" transform="translate(-300.036 -114.455)"/></g><g transform="translate(11.044 17.578)"><rect class="d" width="3.33" height="7.021"/></g><g transform="translate(3.279 27.22)"><path class="c" d="M323.734,133.876c0,.074-4.4.134-9.835.134s-9.835-.06-9.835-.134,4.4-.134,9.835-.134S323.734,133.8,323.734,133.876Z" transform="translate(-304.065 -133.742)"/></g><g transform="translate(23.119 17.578)"><g transform="translate(7.765)"><rect class="c" width="3.33" height="7.021"/></g><g transform="translate(0 9.642)"><path class="c" d="M348.116,133.876c0,.074-4.4.134-9.834.134s-9.836-.06-9.836-.134,4.4-.134,9.836-.134S348.116,133.8,348.116,133.876Z" transform="translate(-328.447 -133.742)"/></g></g><g transform="translate(23.119 31.518)"><g transform="translate(7.765)"><rect class="c" width="3.33" height="7.021"/></g><g transform="translate(0 9.643)"><path class="c" d="M348.116,151.007c0,.074-4.4.134-9.834.134s-9.836-.06-9.836-.134,4.4-.133,9.836-.133S348.116,150.933,348.116,151.007Z" transform="translate(-328.447 -150.874)"/></g></g><g transform="translate(23.119 45.878)"><g transform="translate(7.765)"><rect class="c" width="3.33" height="7.021"/></g><g transform="translate(0 9.643)"><path class="c" d="M348.116,168.655c0,.074-4.4.134-9.834.134s-9.836-.06-9.836-.134,4.4-.133,9.836-.133S348.116,168.581,348.116,168.655Z" transform="translate(-328.447 -168.522)"/></g></g><g transform="translate(23.119 60.239)"><g transform="translate(7.765)"><rect class="c" width="3.33" height="7.021"/></g><g transform="translate(0 9.642)"><path class="c" d="M348.116,186.3c0,.074-4.4.134-9.834.134s-9.836-.06-9.836-.134,4.4-.134,9.836-.134S348.116,186.229,348.116,186.3Z" transform="translate(-328.447 -186.169)"/></g></g><g transform="translate(23.119 74.189)"><g transform="translate(7.765)"><rect class="c" width="3.33" height="7.021"/></g><g transform="translate(0 9.643)"><path class="c" d="M348.116,203.446c0,.074-4.4.134-9.834.134s-9.836-.06-9.836-.134,4.4-.133,9.836-.133S348.116,203.373,348.116,203.446Z" transform="translate(-328.447 -203.313)"/></g></g><g transform="translate(23.119 88.195)"><g transform="translate(7.765)"><rect class="c" width="3.33" height="7.021"/></g><g transform="translate(7.765 14.19)"><rect class="c" width="3.33" height="7.021"/></g><g transform="translate(0 9.643)"><path class="c" d="M348.116,220.659c0,.074-4.4.134-9.834.134s-9.836-.06-9.836-.134,4.4-.134,9.836-.134S348.116,220.585,348.116,220.659Z" transform="translate(-328.447 -220.525)"/></g></g><g transform="translate(11.044 31.73)"><rect class="d" width="3.33" height="7.021"/></g><g transform="translate(3.279 41.373)"><path class="c" d="M323.734,151.269c0,.074-4.4.133-9.835.133s-9.835-.059-9.835-.133,4.4-.134,9.835-.134S323.734,151.2,323.734,151.269Z" transform="translate(-304.065 -151.135)"/></g><g transform="translate(11.044 45.883)"><rect class="d" width="3.33" height="7.021"/></g><g transform="translate(3.279 55.527)"><path class="c" d="M323.734,168.661c0,.074-4.4.134-9.835.134s-9.835-.06-9.835-.134,4.4-.133,9.835-.133S323.734,168.587,323.734,168.661Z" transform="translate(-304.065 -168.528)"/></g><g transform="translate(11.044 60.036)"><rect class="d" width="3.33" height="7.021"/></g><g transform="translate(3.279 69.679)"><path class="c" d="M323.734,186.054c0,.074-4.4.134-9.835.134s-9.835-.06-9.835-.134,4.4-.134,9.835-.134S323.734,185.98,323.734,186.054Z" transform="translate(-304.065 -185.92)"/></g><g transform="translate(11.044 74.189)"><rect class="d" width="3.33" height="7.021"/></g><g transform="translate(3.279 83.832)"><path class="c" d="M323.734,203.446c0,.074-4.4.134-9.835.134s-9.835-.06-9.835-.134,4.4-.133,9.835-.133S323.734,203.373,323.734,203.446Z" transform="translate(-304.065 -203.313)"/></g><g transform="translate(11.044 88.342)"><rect class="d" width="3.33" height="7.021"/></g><g transform="translate(3.279 97.984)"><path class="c" d="M323.734,220.839c0,.074-4.4.134-9.835.134s-9.835-.06-9.835-.134,4.4-.134,9.835-.134S323.734,220.765,323.734,220.839Z" transform="translate(-304.065 -220.705)"/></g><g transform="translate(11.044 102.494)"><rect class="d" width="3.33" height="7.021"/></g></g><g transform="translate(225.239 99.731)"><g transform="translate(4.788 2.924)"><rect class="b" width="63.696" height="84.013"/><g transform="translate(33.83)"><rect class="c" width="29.866" height="84.013"/></g></g><g transform="translate(4.788 14.299)"><g transform="translate(13.356)"><rect class="a" width="5.727" height="13.914"/></g><g transform="translate(13.356 54.458)"><rect class="a" width="5.727" height="13.914"/></g><g transform="translate(0 19.092)"><path class="a" d="M368.319,212.5c0,.156-7.573.283-16.914.283s-16.916-.127-16.916-.283,7.573-.283,16.916-.283S368.319,212.345,368.319,212.5Z" transform="translate(-334.489 -212.218)"/></g></g><g transform="translate(4.788 41.734)"><g transform="translate(13.356)"><rect class="a" width="5.727" height="13.914"/></g><g transform="translate(0 19.093)"><path class="a" d="M368.319,246.217c0,.156-7.573.283-16.914.283s-16.916-.127-16.916-.283,7.573-.283,16.916-.283S368.319,246.061,368.319,246.217Z" transform="translate(-334.489 -245.934)"/></g></g><g transform="translate(44.961 14.299)"><rect class="a" width="5.727" height="13.914"/></g><g transform="translate(57.386 14.299)"><rect class="a" width="5.727" height="13.914"/></g><g transform="translate(44.961 40.702)"><rect class="a" width="5.727" height="13.914"/></g><g transform="translate(57.386 40.702)"><rect class="a" width="5.727" height="13.914"/></g><g transform="translate(44.961 67.105)"><rect class="a" width="5.727" height="13.914"/></g><g transform="translate(57.386 67.105)"><rect class="a" width="5.727" height="13.914"/></g><rect class="c" width="73.273" height="3.029"/><g transform="translate(5.337 3.032)"><path class="b" d="M398.756,175.192c0,.156-14.237.283-31.795.283s-31.8-.127-31.8-.283,14.234-.283,31.8-.283S398.756,175.036,398.756,175.192Z" transform="translate(-335.164 -174.909)"/></g></g><g transform="translate(22.983 78.848)"><g transform="translate(4.824 18.011)"><path class="b" d="M144.118,259.142H86.23l-.252-91.488h57.888Z" transform="translate(-85.978 -167.654)"/></g><g transform="translate(33.768 18.011)"><rect class="c" width="28.944" height="91.488"/></g><g transform="translate(11.434)"><rect class="b" width="20.442" height="18.011"/></g><g transform="translate(27.004)"><rect class="c" width="4.872" height="18.011"/></g><g transform="translate(0 16.96)"><rect class="c" width="64.406" height="1.051"/></g><g transform="translate(16.251 25.866)"><rect class="e" width="4.9" height="10.332"/></g><g transform="translate(4.824 40.056)"><path class="c" d="M114.921,194.943c0,.109-6.48.2-14.471.2s-14.472-.088-14.472-.2,6.478-.2,14.472-.2S114.921,194.834,114.921,194.943Z" transform="translate(-85.978 -194.745)"/></g><g transform="translate(34.02 25.866)"><g transform="translate(11.427)"><rect class="a" width="4.9" height="10.332"/></g><g transform="translate(0 14.19)"><path class="b" d="M150.8,194.943c0,.109-6.48.2-14.471.2s-14.473-.088-14.473-.2,6.478-.2,14.473-.2S150.8,194.834,150.8,194.943Z" transform="translate(-121.857 -194.745)"/></g></g><g transform="translate(34.02 46.379)"><g transform="translate(11.427)"><rect class="a" width="4.9" height="10.332"/></g><g transform="translate(0 14.19)"><path class="b" d="M150.8,220.151c0,.109-6.48.2-14.471.2s-14.473-.089-14.473-.2,6.478-.2,14.473-.2S150.8,220.043,150.8,220.151Z" transform="translate(-121.857 -219.954)"/></g></g><g transform="translate(34.02 67.511)"><g transform="translate(11.427)"><rect class="a" width="4.9" height="10.332"/></g><g transform="translate(0 14.189)"><path class="b" d="M150.8,246.121c0,.109-6.48.2-14.471.2s-14.473-.088-14.473-.2,6.478-.2,14.473-.2S150.8,246.012,150.8,246.121Z" transform="translate(-121.857 -245.923)"/></g></g><g transform="translate(34.02 88.643)"><g transform="translate(11.427)"><rect class="a" width="4.9" height="10.332"/></g><g transform="translate(0 14.19)"><path class="b" d="M150.8,272.09c0,.109-6.48.2-14.471.2s-14.473-.089-14.473-.2,6.478-.2,14.473-.2S150.8,271.981,150.8,272.09Z" transform="translate(-121.857 -271.893)"/></g></g><g transform="translate(16.251 46.692)"><rect class="e" width="4.9" height="10.332"/></g><g transform="translate(4.824 60.882)"><path class="c" d="M114.921,220.536c0,.109-6.48.2-14.471.2s-14.472-.089-14.472-.2,6.478-.2,14.472-.2S114.921,220.427,114.921,220.536Z" transform="translate(-85.978 -220.339)"/></g><g transform="translate(16.251 67.518)"><rect class="e" width="4.9" height="10.332"/></g><g transform="translate(4.824 81.708)"><path class="c" d="M114.921,246.13c0,.109-6.48.2-14.471.2s-14.472-.088-14.472-.2,6.478-.2,14.472-.2S114.921,246.021,114.921,246.13Z" transform="translate(-85.978 -245.932)"/></g><g transform="translate(16.251 88.345)"><rect class="e" width="4.9" height="10.332"/></g><g transform="translate(4.824 102.534)"><path class="c" d="M114.921,271.723c0,.109-6.48.2-14.471.2s-14.472-.089-14.472-.2,6.478-.2,14.472-.2S114.921,271.615,114.921,271.723Z" transform="translate(-85.978 -271.526)"/></g></g><g transform="translate(275.164 68.789)"><path class="a" d="M429.995,142.735c.306-2.223-2.832-4.053-5.19-4.243a13.313,13.313,0,0,1-3.358-.29c-2.309-.8-3.23-3.786-5.483-4.737-1.684-.71-3.622-.077-5.255.744s-3.245,1.856-5.069,1.972c-1.587.1-3.309-.487-4.7.288-1.034.578-1.575,1.769-2.529,2.473a6.032,6.032,0,0,1-3.306.9,9.323,9.323,0,0,0-3.409.557,2.693,2.693,0,0,0-1.706,2.734Z" transform="translate(-389.958 -133.157)"/></g><g transform="translate(154.599)"><path class="b" d="M304.463,63.613c.479-3.481-4.433-6.344-8.124-6.642-1.761-.142-3.589.127-5.257-.454-3.613-1.259-5.056-5.927-8.582-7.414-2.636-1.112-5.67-.122-8.225,1.164s-5.08,2.905-7.935,3.087c-2.483.159-5.179-.762-7.352.452-1.619.9-2.466,2.769-3.959,3.869a9.444,9.444,0,0,1-5.175,1.4,14.577,14.577,0,0,0-5.336.872c-1.649.755-3.013,2.5-2.671,4.28Z" transform="translate(-241.794 -48.622)"/></g><g transform="translate(0 51.174)"><path class="a" d="M101.766,123.461c.382-2.775-3.535-5.057-6.477-5.294a16.711,16.711,0,0,1-4.19-.362c-2.881-1-4.031-4.725-6.842-5.911-2.1-.886-4.52-.1-6.558.928s-4.05,2.315-6.326,2.461c-1.979.127-4.129-.608-5.86.36-1.291.72-1.967,2.208-3.156,3.085a7.532,7.532,0,0,1-4.126,1.119,11.61,11.61,0,0,0-4.253.695,3.362,3.362,0,0,0-2.13,3.413Z" transform="translate(-51.805 -111.51)"/></g></g><g transform="translate(48.649 156.471)"><g transform="translate(0 16.474)"><g transform="translate(1.03)"><path class="f" d="M73.948,201.409A17.376,17.376,0,0,0,60.253,228.93l0,0,.169.23.024.033,12.307,16.739a2.642,2.642,0,0,0,4.321-.09l11.124-16.537a18.824,18.824,0,0,0,3.549-10.521A17.381,17.381,0,0,0,73.948,201.409Zm.413,30.015a13.067,13.067,0,1,1,13.067-13.067A13.068,13.068,0,0,1,74.361,231.424Z" transform="translate(-56.98 -201.404)"/></g><path class="h" d="M72.682,201.409A17.376,17.376,0,0,0,58.987,228.93l0,0,.169.23.024.033,12.307,16.739a2.642,2.642,0,0,0,4.321-.09l11.124-16.537a18.824,18.824,0,0,0,3.549-10.521A17.38,17.38,0,0,0,72.682,201.409Zm.413,27.659a9.9,9.9,0,1,1,9.9-9.9A9.9,9.9,0,0,1,73.1,229.068Z" transform="translate(-55.714 -201.404)"/></g><g transform="translate(276.904 0)"><g transform="translate(0.785)"><path class="f" d="M409.9,181.163a13.242,13.242,0,0,0-10.438,20.974l0,0,.129.175.018.025,9.379,12.757a2.013,2.013,0,0,0,3.293-.069l8.477-12.6a14.346,14.346,0,0,0,2.7-8.018A13.245,13.245,0,0,0,409.9,181.163Zm.314,22.875a9.958,9.958,0,1,1,9.958-9.958A9.958,9.958,0,0,1,410.216,204.038Z" transform="translate(-396.97 -181.159)"/></g><path class="h" d="M408.937,181.163A13.242,13.242,0,0,0,398.5,202.137l0,0,.129.175.018.025,9.379,12.757a2.013,2.013,0,0,0,3.293-.069l8.477-12.6a14.347,14.347,0,0,0,2.7-8.018A13.246,13.246,0,0,0,408.937,181.163Zm.315,21.08a7.542,7.542,0,1,1,7.542-7.542A7.543,7.543,0,0,1,409.252,202.243Z" transform="translate(-396.005 -181.159)"/></g></g><g transform="translate(17.788 218.784)"><g transform="translate(0.247 0.176)"><path class="e" d="M76.209,274.419,18.092,418.743l108.969-17.919,79.911,17.919,81.848-17.919L398.273,421.7l-58.6-147.283L274.29,257.953l-66.108,12.592-67.561-12.592Z" transform="translate(-18.092 -257.953)"/></g><path class="i" d="M76.152,274.379s.356-.1,1.068-.286l3.181-.826,12.465-3.215,47.673-12.242.023-.006.023,0,67.569,12.553H208.1l66.1-12.617.037-.007.037.009L339.661,274.2l.094.024.036.09,58.62,147.275.142.356-.377-.072-56.3-10.739-53.148-10.14h.084L206.958,418.9l-.044.01-.044-.01-79.907-17.933.072,0L18.061,418.855l-.273.045.1-.256,42.6-105.579,11.6-28.7,3.025-7.457c.683-1.678,1.04-2.529,1.04-2.529s-.337.874-1.01,2.563-1.679,4.2-2.994,7.488L60.615,313.179,18.179,418.76l-.169-.211L126.974,400.6l.036-.007.036.008L206.959,418.5h-.087l81.846-17.926.042-.009.043.008,53.149,10.137,56.3,10.741-.234.285L339.438,274.449l.13.114L274.191,258.08l.074,0-66.112,12.566-.028,0-.027,0-67.554-12.631.046,0L92.929,270.145l-12.492,3.166-3.2.8C76.52,274.294,76.152,274.379,76.152,274.379Z" transform="translate(-17.788 -257.737)"/><g transform="translate(10.418 5.503)"><path class="e" d="M81.927,279.513,30.59,412.7,128.9,396.716,210.51,415.6l80.637-19.372L391.4,415.6l-52.789-136.09L277.587,264.5,210.51,277.092,141.981,264.5Z" transform="translate(-30.59 -264.5)"/></g><g transform="translate(16.122 34.085)"><path class="h" d="M37.6,404.442l78.144-18.1-2.886-16.835,6.493-4.088-10.1-39.316L78,299.625Z" transform="translate(-37.6 -299.625)"/></g><g transform="translate(10.418 113.376)"><path class="b" d="M30.59,437.392l3.81-9.885,131.023-30.441,7.117,19.587-2.307,3.955-24.61,4.671-16.719-3.87Z" transform="translate(-30.59 -397.066)"/></g><g transform="translate(152.368 93.591)"><path class="b" d="M205.035,390.641l5.2,19.379,15.087,6.559,21.472-9.541,45.035-13.118-14.053-21.168Z" transform="translate(-205.035 -372.753)"/></g><g transform="translate(97.061 97.557)"><path class="c" d="M140.037,398.727l24.346-5.281-4.858-15.818-17.736,4.286-4.722,3.331Z" transform="translate(-137.068 -377.627)"/></g><g transform="translate(95.061 66.233)"><path class="h" d="M134.609,339.132l8.84,29.007,13.813-3.039-2.486-11.146,30.388-6.811Z" transform="translate(-134.609 -339.132)"/></g><g transform="translate(58.823 5.503)"><path class="b" d="M90.077,287.118l38.238,30.7,50.764,9.623,54.146-13.461-24.716-39.291L153.062,264.5,93.008,279.513Z" transform="translate(-90.077 -264.5)"/></g><g transform="translate(184.648 17.05)"><path class="b" d="M244.705,278.69l79.384,121.853,6.942-1.668L254.2,279.021l-3.805.714Z" transform="translate(-244.705 -278.69)"/></g><g transform="translate(120.338 62.43)"><path class="c" d="M165.673,356.151,175.732,385.4l89.293-22.813L248.5,334.458Z" transform="translate(-165.673 -334.458)"/></g><g transform="translate(170.014 118.657)"><path class="c" d="M226.721,436.8l.869-1.292,5.865-8.719,14.074-4.474,9.678-7.292,41.968-11.469,13.033,22.295-65.164,15.655" transform="translate(-226.721 -403.557)"/></g><g transform="translate(244.352 5.503)"><path class="c" d="M318.076,266.952l21.034,23.4,53.051-10.834L331.138,264.5Z" transform="translate(-318.076 -264.5)"/></g><g transform="translate(270.975 23.947)"><path class="c" d="M409.421,312.52l-38.964,10.825L350.793,297.3l48.793-10.138Z" transform="translate(-350.793 -287.166)"/></g><g transform="translate(198.309 8.93)"><path class="b" d="M261.493,276.38l40.851,58.679,47.148-13.528-47.148-52.82Z" transform="translate(-261.493 -268.711)"/></g><g transform="translate(312.522 126.797)"><path class="c" d="M401.851,432.026l47.141-18.466,11.563,29.81Z" transform="translate(-401.851 -413.56)"/></g><g transform="translate(263.221 65.092)"><path class="h" d="M341.264,344.407l25.613-6.677,27.056,32.465L367.6,378.94Z" transform="translate(-341.264 -337.73)"/></g><g transform="translate(294.606 51.511)"><path class="c" d="M379.834,331.958l28.5,32.677,21.47-7.2L415.687,321.04Z" transform="translate(-379.834 -321.04)"/></g><g transform="translate(294.606 91.707)"><path class="h" d="M401.118,416.362l-21.284-29.525,51.445-16.4,10.454,26.951-6.7,6.752Z" transform="translate(-379.834 -370.437)"/></g><g transform="translate(241.665 74.115)"><path class="c" d="M314.774,354.3l39.108,59.308,24.081,4.879,4.543-2.079-49.553-67.587Z" transform="translate(-314.774 -348.818)"/></g><g transform="translate(16.122 77.976)"><path class="c" d="M102.871,399.373l-9.743-45.81-34.357,6L37.6,414.49Z" transform="translate(-37.6 -353.563)"/></g><g transform="translate(58.823 7.71)"><path class="h" d="M144.236,267.211v20.973l7.355.929,20.538,23.927,17.655-2.028,8.4,12.181-19.109,4.75-50.764-9.623-38.238-30.7,2.931-7.6Z" transform="translate(-90.077 -267.211)"/></g><g transform="translate(220.361 8.93)"><path class="c" d="M288.593,272.419l28.847,42.1,24.847-6.713-34.894-39.091Z" transform="translate(-288.593 -268.711)"/></g><g transform="translate(294.606 31.832)"><path class="b" d="M390.27,321.148l-10.435-16.317,28.22-7.976,6.776,17.469Z" transform="translate(-379.834 -296.856)"/></g><g transform="translate(263.221 107.564)"><path class="b" d="M341.264,394.644l13.659-4.721,26.493,35.918-22.6-4.579Z" transform="translate(-341.264 -389.924)"/></g><g transform="translate(137.211 136.568)"><path class="h" d="M186.409,433.31l12.7-1.546,4.232-6.2,15.866,4.988-4.149,9.387Z" transform="translate(-186.409 -425.567)"/></g><g transform="translate(10.178 5.325)"><path class="i" d="M81.872,279.472s1.338-.352,3.959-1.016l11.62-2.933L141.9,264.357l.023-.006.023,0,68.537,12.551h-.055L277.5,264.288l.037-.007.037.009,61.026,15,.1.024.036.093c16.161,41.646,34.006,87.635,52.808,136.083l.138.356-.374-.072-50.3-9.718L291.053,396.4l.089,0L210.5,415.76l-.046.011-.046-.011-81.6-18.9.072,0L30.56,412.809l-.264.042.1-.249c15.89-41.139,28.751-74.434,37.641-97.448,4.449-11.493,7.9-20.419,10.247-26.475l2.671-6.876c.6-1.547.92-2.331.92-2.331s-.3.807-.89,2.365l-2.641,6.907c-2.329,6.066-5.76,15.008-10.18,26.522L30.678,412.712l-.168-.206,98.309-16.015.037-.007.036.009L210.5,415.365h-.093l80.634-19.38.045-.011.045.009,49.954,9.652,50.3,9.721-.237.282-52.771-136.1.133.117-61.019-15.03.074,0L210.482,277.2l-.027,0-.027,0-68.521-12.633.044,0L97.514,275.616,85.868,278.5C83.235,279.149,81.872,279.472,81.872,279.472Z" transform="translate(-30.296 -264.281)"/></g><g class="j" transform="translate(109.216 0.176)"><path d="M231.916,418.743l1.211-148.2-67.561-12.592-13.561,142.87Z" transform="translate(-152.005 -257.953)"/></g><g class="j" transform="translate(255.445 -0.824)"><path d="M332.938,257.953l14.529,142.87L456.92,421.7l-58.6-147.283Z" transform="translate(-332.938 -257.953)"/></g></g><g transform="translate(116.533 75.322)"><g transform="translate(5.273 15.971)"><path class="f" d="M232.459,101.086c-47.2,1.1-85.693,39.567-86.816,86.769a88.547,88.547,0,0,0,16.723,54.088l-.024.007.867,1.178c.042.055.081.111.123.167l62.987,85.673a13.522,13.522,0,0,0,22.115-.463l56.932-84.639c10.774-16.431,18.163-33.6,18.163-53.848A88.957,88.957,0,0,0,232.459,101.086Zm2.113,153.621a66.878,66.878,0,1,1,66.878-66.878A66.877,66.877,0,0,1,234.573,254.707Z" transform="translate(-145.617 -101.062)"/></g><g transform="translate(0 15.971)"><path class="h" d="M225.979,101.086c-47.2,1.1-85.693,39.567-86.816,86.769a88.557,88.557,0,0,0,16.723,54.088l-.023.007.867,1.178c.041.055.081.111.122.167l62.987,85.673a13.523,13.523,0,0,0,22.115-.463l56.932-84.639c10.774-16.431,18.163-33.6,18.163-53.848A88.957,88.957,0,0,0,225.979,101.086Zm2.114,153.621a66.878,66.878,0,1,1,66.878-66.878A66.878,66.878,0,0,1,228.094,254.707Z" transform="translate(-139.137 -101.062)"/></g><g class="g" transform="translate(54.567 153.18)"><path d="M279.059,269.68c-1.07,1.212-71.793,19.884-72.863,21.1,13.563,4.136,30.132,7.738,44.288,6.917,7.983-.463,16.306-1.885,22.617-6.8S282.9,276.692,279.059,269.68Z" transform="translate(-206.196 -269.68)"/></g><g transform="translate(8.743)"><g transform="translate(29.174)"><g transform="translate(5.042 18.216)"><path class="i" d="M208.865,103.82a18.485,18.485,0,0,0-4.625,16.467c.62,2.816,1.86,5.956.312,8.39-1.531,2.409-5.141,2.851-6.589,5.312-1.7,2.9.573,6.534.287,9.882a6.655,6.655,0,0,1-6.321,5.878,25.958,25.958,0,0,0,13.523,3.744l2.925-5.078c-1.127,1.793-.409,4.3,1.129,5.751a10.869,10.869,0,0,0,5.773,2.418,32.944,32.944,0,0,0,27.943-8.655" transform="translate(-191.93 -103.82)"/></g><g transform="translate(17.914)"><path class="i" d="M268.873,117.306c-1.02-2.083-2.5-3.938-3.295-6.118-1.708-4.682-.118-10.445-3.069-14.462-2.1-2.859-5.864-3.876-9.366-4.439s-7.23-.935-10.079-3.049c-2.09-1.55-3.484-3.893-5.568-5.45-2.971-2.219-6.944-2.555-10.64-2.266a22.2,22.2,0,0,0-10.789,3.339,12.185,12.185,0,0,0-5.607,9.455c-.04,1.855.449,3.727.122,5.554-.36,2.01-1.659,3.716-2.338,5.642a9.763,9.763,0,0,0,4.043,11.252L242.8,146.519c5.716,1.29,18.52-3.034,22.154-7.63S271.447,122.57,268.873,117.306Z" transform="translate(-207.749 -81.434)"/></g><g transform="translate(22.54 13.828)"><path class="k" d="M213.434,115.594c0-7.727,4.511-17.489,12.231-17.158l24.326,4.553a4.52,4.52,0,0,1,4.323,4.324l1.054,57.9.168.025s-4.4,16.637-20.544,12.688c-3.2-.783-4.857-4.122-5.708-7.612l-.16.031c-.033-.419-.063-.808-.1-1.208a37.846,37.846,0,0,1-.608-7.922h0c-.347-4.658-.466-6.57-.466-6.526,0,0-9.935-1.017-12.775-13.719C213.766,134.66,213.431,124.179,213.434,115.594Z" transform="translate(-213.434 -98.428)"/><g transform="translate(1.926 14.743)"><g transform="translate(0 5.003)"><g transform="translate(0 0.789)"><g transform="translate(20.359 2.958)"><path class="i" d="M240.821,128.89a1.649,1.649,0,0,0,1.691,1.561,1.577,1.577,0,0,0,1.6-1.59,1.65,1.65,0,0,0-1.688-1.562A1.578,1.578,0,0,0,240.821,128.89Z" transform="translate(-240.82 -127.299)"/></g><g transform="translate(3.555 4.241)"><path class="i" d="M220.171,130.467a1.648,1.648,0,0,0,1.69,1.56,1.576,1.576,0,0,0,1.6-1.589,1.649,1.649,0,0,0-1.688-1.562A1.577,1.577,0,0,0,220.171,130.467Z" transform="translate(-220.17 -128.876)"/></g><path class="i" d="M215.828,125.856c.219.273,1.6-.9,3.534-.886,1.933-.022,3.334,1.14,3.548.864.106-.121-.114-.614-.723-1.14a4.425,4.425,0,0,0-2.835-1.03,4.374,4.374,0,0,0-2.818,1.046C215.93,125.24,215.72,125.733,215.828,125.856Z" transform="translate(-215.801 -123.664)"/></g><g transform="translate(17.867)"><path class="i" d="M237.8,125.239c.262.242,1.6-1.047,3.652-1.246,2.047-.231,3.659.75,3.856.459.1-.13-.186-.588-.891-1.033a4.991,4.991,0,0,0-3.118-.7,4.861,4.861,0,0,0-2.875,1.325C237.841,124.627,237.671,125.131,237.8,125.239Z" transform="translate(-237.758 -122.694)"/></g><g transform="translate(7.91 0.69)"><path class="i" d="M230.117,138.345a11.7,11.7,0,0,0-2.908-.339c-.455-.018-.889-.081-.984-.385a2.3,2.3,0,0,1,.217-1.359q.536-1.681,1.121-3.526c1.55-5.018,2.641-9.132,2.439-9.193s-1.623,3.958-3.173,8.975c-.371,1.237-.727,2.415-1.064,3.543a2.62,2.62,0,0,0-.124,1.789,1.137,1.137,0,0,0,.785.614,3.07,3.07,0,0,0,.774.059A11.55,11.55,0,0,0,230.117,138.345Z" transform="translate(-225.522 -123.542)"/></g><g transform="translate(12.594 30.861)"><path class="l" d="M231.278,166.279a32.7,32.7,0,0,0,16.895-5.659s-3.616,9.074-16.532,8.678Z" transform="translate(-231.278 -160.62)"/></g><g transform="translate(13.366 18.345)"><path class="l" d="M232.381,146.607a3.2,3.2,0,0,1,2.786-1.365,2.919,2.919,0,0,1,2.078.954,1.848,1.848,0,0,1,.273,2.1,2.144,2.144,0,0,1-2.284.732,6.729,6.729,0,0,1-2.348-1.208,1.961,1.961,0,0,1-.538-.492.592.592,0,0,1-.039-.659" transform="translate(-232.226 -145.239)"/></g><g transform="translate(12.443 16.391)"><path class="i" d="M236.441,142.838c-.289,0-.173,1.923-1.732,3.39s-3.619,1.383-3.617,1.653c-.019.122.48.345,1.346.314a4.794,4.794,0,0,0,3.025-1.272,4.175,4.175,0,0,0,1.33-2.835C236.817,143.281,236.572,142.818,236.441,142.838Z" transform="translate(-231.092 -142.837)"/></g></g><g transform="translate(17.225)"><path class="i" d="M236.982,118.1c.2.47,1.958.132,4.051.251,2.1.079,3.808.582,4.057.133.11-.214-.21-.649-.917-1.072a7.055,7.055,0,0,0-6.177-.293C237.253,117.476,236.892,117.878,236.982,118.1Z" transform="translate(-236.968 -116.546)"/></g><g transform="translate(0.959 0.491)"><path class="i" d="M217.042,119.216c.381.38,1.749-.124,3.423-.249,1.671-.177,3.113.076,3.413-.365.131-.213-.118-.6-.762-.944a5.264,5.264,0,0,0-2.827-.484,5.194,5.194,0,0,0-2.681.98C217.041,118.6,216.872,119.03,217.042,119.216Z" transform="translate(-216.979 -117.15)"/></g></g></g><g transform="translate(30.579 13.642)"><path class="i" d="M257.224,104.051c-1.425-1.64-3.662-2.273-5.777-2.766A118.129,118.129,0,0,0,223.581,98.2c-.881,2.049.538,4.471,2.46,5.6s4.218,1.364,6.4,1.848,4.465,1.378,5.6,3.3c1.21,2.04.8,4.714,1.911,6.812,1.9,3.611,7.381,4.093,9.263,7.713,1.423,2.739.184,6.04.191,9.127a11.028,11.028,0,0,0,12.469,10.93q-1.35-16.5-2.7-32.995C258.987,108.247,258.731,105.786,257.224,104.051Z" transform="translate(-223.313 -98.199)"/></g><g transform="translate(56.559 16.818)"><path class="i" d="M289.014,129.259c-1.939-1.3-4.287-2.335-5.284-4.449-1.452-3.078.6-7.222-1.472-9.919-1.893-2.461-6.346-1.7-8.14-4.231-1.4-1.979-.4-4.043-1.081-5.858s-3.57-3.084-5.445-2.593l-11.873,23.683c-.369,7.438-1.22,11.489.929,15.509,1.179,2.205,2.609,4.315,3.287,6.721s.441,5.275-1.361,7.007c9.006-.551,16.7-6.384,23.784-11.973l7.5-5.915a6.021,6.021,0,0,0,1.981-2.184C292.755,132.908,290.953,130.562,289.014,129.259Z" transform="translate(-255.239 -102.103)"/></g><g transform="translate(29.669 4.498)"><path class="m" d="M276.12,138.121a4.273,4.273,0,0,1-.926.317,8.211,8.211,0,0,1-2.8.192,8.68,8.68,0,0,1-4.163-1.541,8.537,8.537,0,0,1-3.278-4.851,8.821,8.821,0,0,1-.187-3.458,14.068,14.068,0,0,1,1.19-3.542,13.269,13.269,0,0,0,1.225-3.675,4.473,4.473,0,0,0-1.007-3.711c-.963-.972-2.505-1.027-3.981-1.394a4.123,4.123,0,0,1-2.1-1.141,4.027,4.027,0,0,1-.94-2.25c-.209-1.634.277-3.222.363-4.782a5.115,5.115,0,0,0-.305-2.278,3.209,3.209,0,0,0-1.539-1.627,9,9,0,0,0-4.676-.572,9.752,9.752,0,0,1-4.781-.708,8.729,8.729,0,0,1-3.619-2.966,14.383,14.383,0,0,1-1.758-4.107,20.119,20.119,0,0,0-1.435-3.882,8.993,8.993,0,0,0-2.538-2.864,10.1,10.1,0,0,0-11.91,0,12.328,12.328,0,0,0-3.065,3.095,16.3,16.3,0,0,0-1.7,3.336.851.851,0,0,1,.053-.243c.048-.156.1-.4.216-.7a11.814,11.814,0,0,1,1.256-2.51,12.254,12.254,0,0,1,3.064-3.219,10.551,10.551,0,0,1,5.5-2.055,10.727,10.727,0,0,1,6.832,1.945,9.413,9.413,0,0,1,2.687,3,20.394,20.394,0,0,1,1.492,3.963,14.01,14.01,0,0,0,1.706,3.962,8.242,8.242,0,0,0,3.417,2.782,9.241,9.241,0,0,0,4.55.656,9.445,9.445,0,0,1,4.941.629A3.74,3.74,0,0,1,259.7,105.8a5.621,5.621,0,0,1,.343,2.51c-.1,1.653-.57,3.191-.374,4.693a3.531,3.531,0,0,0,.806,1.97,3.619,3.619,0,0,0,1.848,1c.7.188,1.447.28,2.178.477a4.274,4.274,0,0,1,2.016,1.059,4.922,4.922,0,0,1,1.124,4.108,13.583,13.583,0,0,1-1.286,3.8,13.779,13.779,0,0,0-1.188,3.428,8.463,8.463,0,0,0,.147,3.3,8.259,8.259,0,0,0,3.09,4.7,8.589,8.589,0,0,0,4.014,1.576A9.718,9.718,0,0,0,276.12,138.121Z" transform="translate(-222.194 -86.962)"/></g><g transform="translate(49.124 3.184)"><path class="i" d="M290.305,120.8a1.891,1.891,0,0,1,.4.687,3.229,3.229,0,0,1-.073,2.263,3.413,3.413,0,0,1-.972,1.358,3.58,3.58,0,0,1-1.832.774,4.492,4.492,0,0,1-4.249-1.931,6.014,6.014,0,0,1-1.016-2.627,8.366,8.366,0,0,1,.214-3.032c.436-2.027,1.457-4.085,1.169-6.342a4.16,4.16,0,0,0-1.463-2.918,4.546,4.546,0,0,0-3.38-.557,11.017,11.017,0,0,1-3.913.141,3.386,3.386,0,0,1-1.773-1.113,4.823,4.823,0,0,1-.927-1.874,15.917,15.917,0,0,1-.234-4.007,8.792,8.792,0,0,0-.72-3.641,9.36,9.36,0,0,0-4.909-4.86,13.24,13.24,0,0,0-6.376-.545,18.407,18.407,0,0,1-5.764-.1,11.867,11.867,0,0,1-4.344-1.952,11.748,11.748,0,0,1-2.58-2.5,8.52,8.52,0,0,1-1.457-2.678A16.5,16.5,0,0,0,247.72,87.9a12,12,0,0,0,2.588,2.387,11.71,11.71,0,0,0,4.253,1.829,18.3,18.3,0,0,0,5.649.028,13.582,13.582,0,0,1,6.6.531,9.815,9.815,0,0,1,5.2,5.1,9.282,9.282,0,0,1,.771,3.843,15.674,15.674,0,0,0,.218,3.876,3.356,3.356,0,0,0,2.325,2.617,10.735,10.735,0,0,0,3.722-.146,5.018,5.018,0,0,1,3.741.668,4.628,4.628,0,0,1,1.643,3.262,8.849,8.849,0,0,1-.351,3.433c-.29,1.07-.64,2.075-.875,3.063a8.024,8.024,0,0,0-.237,2.881,5.665,5.665,0,0,0,.919,2.467,4.178,4.178,0,0,0,3.91,1.852,3.333,3.333,0,0,0,1.71-.677,3.286,3.286,0,0,0,1.1-3.394C290.453,121.037,290.279,120.818,290.305,120.8Z" transform="translate(-246.103 -85.347)"/></g><g transform="translate(0 17.743)"><path class="i" d="M185.915,142.617a3.561,3.561,0,0,0,.356,2.326,3.1,3.1,0,0,0,2.115,1.618,3.25,3.25,0,0,0,3.144-1.352,2.983,2.983,0,0,0,.5-1.972,6.219,6.219,0,0,0-.657-2.208c-.685-1.442-1.88-2.948-2.007-4.934a7.26,7.26,0,0,1,1.988-5.529,8.526,8.526,0,0,1,2.571-1.851,12.548,12.548,0,0,1,3.109-.9,16.794,16.794,0,0,0,3.035-.754,4.138,4.138,0,0,0,2.189-1.826,5.086,5.086,0,0,0,.5-2.758,10.183,10.183,0,0,0-.616-2.715,21.014,21.014,0,0,1-1.529-5.1,7.971,7.971,0,0,1,.985-4.552,10.3,10.3,0,0,1,2.559-2.859,19.35,19.35,0,0,0,2.1-1.929,6.009,6.009,0,0,0,1.2-2.081c.009,0,0,.056-.015.162a2.648,2.648,0,0,1-.117.461,4.833,4.833,0,0,1-.908,1.588,17.8,17.8,0,0,1-2.06,2.019,10.2,10.2,0,0,0-2.427,2.816,7.647,7.647,0,0,0-.877,4.333A21.1,21.1,0,0,0,202.6,119.6a10.565,10.565,0,0,1,.66,2.841,5.565,5.565,0,0,1-.544,3.037,4.642,4.642,0,0,1-2.446,2.066,17.035,17.035,0,0,1-3.13.785,12.076,12.076,0,0,0-2.987.858,8.022,8.022,0,0,0-2.419,1.731,6.789,6.789,0,0,0-1.88,5.139c.094,1.82,1.208,3.27,1.918,4.786a6.565,6.565,0,0,1,.668,2.368,3.364,3.364,0,0,1-.605,2.213,3.557,3.557,0,0,1-3.5,1.426,3.431,3.431,0,0,1-2.58-3.614A1.883,1.883,0,0,1,185.915,142.617Z" transform="translate(-185.734 -103.239)"/></g></g><g transform="translate(30.909 73.654)"><path class="n" d="M189.319,205.033s1.367-10.94,6.642-16.41S223.3,176.3,223.3,176.3s.911,7.8,6.195,9.685c5.607,2,11.938,1.247,16.043-3.515a25.662,25.662,0,0,0,5.127-10.525s26.354,2.425,30.652,9.653,9.855,35.224,9.855,35.224l-24.64,5.23,3.35,48.227H204.409l1.282-45.259-17.825,2.545Z" transform="translate(-187.866 -171.949)"/><g transform="translate(73.661 24.07)"><path class="i" d="M278.505,229.159a4.068,4.068,0,0,1-.088-1.088c-.02-.7-.029-1.712-.029-2.962,0-2.5.04-5.954.119-9.767s.182-7.268.286-9.767c.051-1.25.1-2.261.151-2.96a4.1,4.1,0,0,1,.133-1.086,4.037,4.037,0,0,1,.088,1.086c.02.7.029,1.711.029,2.961,0,2.5-.04,5.956-.12,9.772s-.182,7.269-.285,9.769c-.052,1.249-.1,2.261-.152,2.959A4.052,4.052,0,0,1,278.505,229.159Z" transform="translate(-278.389 -201.529)"/></g><g transform="translate(11.742 31.844)"><path class="i" d="M202.308,211.083c.151-.044,1.688,4.847,3.434,10.922s3.039,11.037,2.889,11.08-1.688-4.847-3.434-10.923S202.158,211.126,202.308,211.083Z" transform="translate(-202.296 -211.083)"/></g><g transform="translate(75.233 7.9)"><path class="i" d="M295.788,181.675c.02.1-1.169.319-2.967,1a21.412,21.412,0,0,0-11.085,9.642c-.927,1.687-1.308,2.833-1.4,2.8a2.468,2.468,0,0,1,.186-.832,13.66,13.66,0,0,1,.863-2.153,19.536,19.536,0,0,1,11.307-9.834,13.648,13.648,0,0,1,2.252-.557A2.5,2.5,0,0,1,295.788,181.675Z" transform="translate(-280.322 -181.658)"/></g><g transform="translate(7.655 18.883)"><path class="i" d="M197.315,195.155a22.68,22.68,0,0,1,1.763,6.933,22.681,22.681,0,0,1-1.763-6.933Z" transform="translate(-197.273 -195.154)"/></g></g><g transform="translate(51.012 119.463)"><path class="k" d="M291.393,228.244s-7.381,37.479-8.225,40.685-2.208,11.84-11.146,13.625c-12.065,2.41-59.452.728-59.452.728l8.939-11.316,41.459-11.626,5.666-27.269Z" transform="translate(-212.571 -228.244)"/></g><g transform="translate(49.002 156.86)"><path class="o" d="M220.268,274.2a2.633,2.633,0,0,1,.354.863,12.279,12.279,0,0,1,.475,2.5,14.413,14.413,0,0,1-1.693,8.163,16.835,16.835,0,0,1-2.712,3.759,9.075,9.075,0,0,1-3.165,2.108,8.834,8.834,0,0,1-2.492.561,2.733,2.733,0,0,1-.933-.031,19.039,19.039,0,0,0,3.271-.9,9.207,9.207,0,0,0,2.946-2.1,17.653,17.653,0,0,0,2.589-3.667,15.085,15.085,0,0,0,1.789-7.862C220.6,275.489,220.166,274.229,220.268,274.2Z" transform="translate(-210.101 -274.202)"/></g><g transform="translate(0 73.654)"><g transform="translate(19.492 33.643)"><path class="k" d="M173.836,218.5s6.682,22.482,9.454,32.2c2.946,10.322,9.381,33.76,23.1,29.6,10.437-3.168,7.364-16.694,7.364-16.694l-10.679-30.871-8.306,1.386-8.066-20.818Z" transform="translate(-173.836 -213.293)"/></g><g transform="translate(40.473 54.165)"><path class="l" d="M214.911,269.266a11.632,11.632,0,0,0,0-5.086,15.805,15.805,0,0,0-2.224-5.053,44.872,44.872,0,0,0-4.329-5.31,44.142,44.142,0,0,1-4.345-5.4,33.994,33.994,0,0,1-2.729-4.967,30.925,30.925,0,0,1-1.338-3.573,5.8,5.8,0,0,1-.324-1.361,7.745,7.745,0,0,1,.533,1.29c.323.834.8,2.039,1.492,3.476a37.7,37.7,0,0,0,2.8,4.843,47.56,47.56,0,0,0,4.334,5.315,41.751,41.751,0,0,1,4.345,5.4,15.523,15.523,0,0,1,2.178,5.254,9.882,9.882,0,0,1,.046,3.835,6.687,6.687,0,0,1-.286,1C214.982,269.16,214.929,269.273,214.911,269.266Z" transform="translate(-199.62 -238.514)"/></g><path class="k" d="M182.244,205.592s.047-8.978-.743-11.509l-6.343-14.177s-1.635-1-2.415,1.826c-.768,2.781,1.695,5.732,1.695,5.732l.193,3.711-2.568-2.087-4.942-9.261s-3.4-6.743-4.288-5.672-.592,3.238.877,6.148l3.331,6.6s.5,1.171-1.246-.529-5.549-9.934-6.335-10.962-1.865-4.046-3.569-3.364.478,4.3.478,4.3l5.451,12.209s-3.16-4.624-3.731-5.4-1.885-3.427-2.921-4.775-2.165-1.872-2.916-1.548a1.521,1.521,0,0,0-.944,1.861l5.82,10.1s2.909,4.528,2.9,4.872-2.536-1.5-2.536-1.5l-2.44-3.11s-2.638-4.657-4.024-4.4-1.134,1.284-1.134,1.284l4.9,8.479,7.11,9.146,7.6,7.554,4.392-1.416Z" transform="translate(-149.882 -171.949)"/><g transform="translate(18.251 15.684)"><path class="l" d="M172.434,207.665a17.661,17.661,0,0,0,.455-2.829c.284-1.682.865-4.191,2.923-5.814a4.828,4.828,0,0,1,2.955-1.127h.364l-.025-.395c-.112-1.741-.05-3.4-.113-4.5-.035-1.121-.155-1.793-.244-1.778a9.286,9.286,0,0,0-.173,1.772,45.661,45.661,0,0,0-.141,4.613l.338-.394a5.335,5.335,0,0,0-3.412,1.238,7.393,7.393,0,0,0-2.3,3.21,11.75,11.75,0,0,0-.682,3.108A8.419,8.419,0,0,0,172.434,207.665Z" transform="translate(-172.31 -191.224)"/></g></g></g></g></g></svg>