<svg xmlns="http://www.w3.org/2000/svg" width="321.088" height="286.984" viewBox="0 0 321.088 286.984"><defs><style>.a{fill:#070708;}.b{fill:#0d96fd;}.c{fill:#054bcd;}.d{fill:#0e95fa;}.e{fill:#f7f9fa;}.f{fill:#0148cc;}.g{fill:#fdfdfd;}.h{fill:#fefefe;}.i{fill:#fbfcfc;}.j{fill:#0b1318;}.k{fill:#078cf8;}.l{fill:#74c6f9;}.m{fill:#7bc8fa;}.n{fill:#7fcafa;}.o{fill:#75c6fa;}</style></defs><g transform="translate(-59.251 -165.26)"><path class="a" d="M346.576,409.823c-3.482-.045-6.964-.131-10.446-.131q-105.565-.013-211.129,0c-.758,0-1.518.038-2.276.057l-.385-.043c-.627-.043-1.255-.124-1.882-.125q-29.835-.009-59.669-.038c-.492,0-1.48.693-1.536-.633-.059-1.4.993-.866,1.6-.878,4.175-.084,8.351-.159,12.526-.12,1.18.011,1.5-.292,1.459-1.466-.087-2.716-.062-5.437.02-8.153.033-1.1-.161-1.519-1.411-1.51-3.791.026-3.791-.042-3.791-3.82q0-43.325-.006-86.652c0-.753-.087-1.505-.133-2.259.04-.333-.158-.346-.4-.3l-6.443-.092L62.609,293.4l.04-.039q29.037-.011,58.076-.033c.675,0,1.39.215,2.029-.209,4.24.023,8.483-.038,12.718.113,1.829.065,2.786-.3,2.391-2.333-.2-1.044.24-1.437,1.335-1.392,1.959.082,3.927.081,5.886.007,1.931-.072,4.479.866,5.628-.4,1.2-1.323.389-3.879.583-5.886.093-.962-.186-1.315-1.224-1.307-9.114.057-18.229.061-27.345.081l-.385-.042c-2.65-.043-5.3-.134-7.949-.114-2.129.017-3.528-1.118-3.3-3.14.331-2.946,1.108-5.851,1.3-8.8.166-2.567.739-5.066.871-7.636.12-2.3.6-4.587.931-6.877.35-2.418.724-4.832,1.071-7.25.362-2.52.51-5.064,1-7.574.43-2.213.6-4.476.878-6.718a45.857,45.857,0,0,1,.856-6.512c.55-2,2.511-2.254,4.346-2.332l.375-.044,17.433.1q-.211.864-.421,1.728-7.695-.017-15.389-.033c-4.833-.006-4.81,0-5.449,4.824q-3.085,23.274-6.194,46.544c-.2,1.466.23,2.364,1.965,2.359,11.78-.032,23.56-.045,35.339.021,1.442.007,1.57-.527,1.615-1.741.224-6.056.556-12.108.851-18.16,1.436.269,2.586,1.214,3.907,1.7a64.945,64.945,0,0,0,15.4,3.718c3.912.426,3.918.368,6.19-2.3,1.206,2.9,1.207,2.915,4.528,2.638a49.689,49.689,0,0,0,9.8-1.992c.142,8.984.138,17.968-.391,26.94-.083,1.406.2,1.975,1.8,1.926,4.111-.125,8.23-.084,12.344-.015,1.174.02,1.487-.32,1.475-1.486-.061-5.508-.027-11.016-.027-16.525,0-3.644,0-3.644,3.6-3.678a1.286,1.286,0,0,0,1.137.007l2.569-.105.758.055.737-.013,2.923-.038a1.867,1.867,0,0,0,1.559.033,2.888,2.888,0,0,0,.753.061c2.031-.37,2.473.534,2.43,2.457-.128,5.759.018,11.524-.087,17.284-.029,1.644.51,1.988,2.035,1.955,4.494-.1,8.992,0,13.487-.055,1.114-.012,1.576.242,1.531,1.469-.094,2.529-.082,5.066,0,7.6.035,1.13-.235,1.623-1.456,1.525-1.258-.1-2.544.089-3.795-.05-1.591-.179-1.981.378-1.974,1.955.064,14.627.031,29.254.04,43.88,0,7.534.038,15.068.059,22.6-.476,8.906.64,17.847-.691,26.743-.334,2.231.05,4.559-.083,6.832-.1,1.642.275,2.251,2.1,2.2,5.317-.141,10.64-.059,15.961-.043,1.359,0,2.743.3,3.071-1.714.143-.883,1.142-1.335,1.955-1.675,3.552-1.481,7-3.412,11.028-3.154,1.447.093,1.422-1.013,1.318-1.692-.1-.659.485-2.014-.947-1.982-1.1.026-1-.55-1.064-1.289-.082-1,.108-1.667,1.456-1.658-1.447-.4-1.509-1.387-1.47-2.431.619-2.352,0-4.767.663-7.228.451-1.672-.185-3.929-.251-5.911-.135-4.042-.011-8.093.035-12.141.026-2.191-.02-4.4.207-6.569a86.387,86.387,0,0,0,.245-9.483c-.034-4.966-.06-9.943.108-14.9.23-6.777.062-13.551.182-20.324.023-1.262,1.312-2.46.188-3.77a1.8,1.8,0,0,0,.379-1.919,9.611,9.611,0,0,1,.5-6.493c.067-.141.264-.445.034-.417-1.675.2-.663-1.046-.679-1.458a71.468,71.468,0,0,1-.009-7.694c.278-4.048.251-8.114.389-12.158a64.556,64.556,0,0,0-.064-10.439h41.309l.154,2.224.015.712q0,.611,0,1.222,0,.46.009.922l.048,1.827a.333.333,0,0,0,.111.346l.087.394c-.177,6.077.322,12.135.529,18.2.148,4.29.059,8.6.618,12.87.149,5.431.262,10.864.456,16.294.34,9.51.74,19.018,1.1,28.527q.765,20.2,1.5,40.4a4.707,4.707,0,0,1-.614,2.729c-1.019,1.773.276,3.585,2.935,4.543a35.31,35.31,0,0,1,4.9,2.007c.789.427,1.725.871,1.881,1.763.286,1.645,1.328,1.593,2.577,1.579,3.983-.048,7.967-.017,12.389-.017-1.91-2.393-1.024-4.791-.665-7.107,2.183-14.1,4.438-28.192,6.677-42.285.7-4.429,1.438-8.854,2.134-13.284.116-.739.108-1.5.156-2.246.438-.194.373-.614.43-.973,1.36-8.39,2.794-16.769,4.018-25.18.274-1.886,1.17-3.769.027-5.865-1.2-2.2-2.637-4.278-3.628-6.584-.84-1.955-.338-2.668,1.762-2.7,1.328-.017,2.662-.083,3.982.02,1.279.1,1.751-.292,1.8-1.64.262-7.285-2.622-13.411-6.829-19.079-1.14-2.782-2.936-4.786-6.1-5.218a7.7,7.7,0,0,1-1.253-.419.916.916,0,0,1-.638-1.335.807.807,0,0,1,1.392-.2,4.153,4.153,0,0,0,2.211.966,3.675,3.675,0,0,0-.885-2.1c-1.11-1.679-2.518-3.161-3.342-5.03-.231-.523-1.057-1.113-.243-1.6.841-.506,1.2.461,1.543.986.74,1.12,1.2,2.438,2.383,3.412,0-1.2-.009-2.24,0-3.283.006-.533.114-1.092.788-1.05.519.033.657.516.663.989q.022,1.422.032,2.846c.007,1.568-.1,3.164.9,4.526,1.3,1.778,2.626,3.538,3.939,5.306a2.213,2.213,0,0,0,.35,1.252,42.408,42.408,0,0,1,5.652,11.812c.858-5.156,1.465-10.237,2.588-15.2,1.536-6.793-.792-12.593-3.941-18.292q-1.585-3.2-3.172-6.392c-.308-.618-.6-1.207-1.4-1.4-1.581-.384-3.14-.856-4.708-1.291l-.07.027c-.236-1.366-.009-2.119,1.655-1.494a17.26,17.26,0,0,1,2.992,1.131c-.493-1.079-.81-1.816-1.165-2.535-.559-1.129-1.195-2.223-1.695-3.378-.215-.5-.3-1.229.437-1.43.611-.165.8.433,1.013.9,1.135,2.449,2.271,4.9,3.448,7.327.187.388.238,1.032.97.964.176-.613.344-1.218.525-1.821.245-.818-.065-2.379,1.222-2.052,1.167.3.087,1.614.161,2.473a.376.376,0,0,1-.064.177c-1.516,2.895-.553,5.45,1.08,7.916,1.645,3.648,3.452,7.233,4.309,11.231a49.076,49.076,0,0,0,1.68-6.013,60.047,60.047,0,0,0,.289-21.622,43.564,43.564,0,0,0-3.621-12.384c-1.013-1.8-2.057-3.593-3.027-5.42a3.558,3.558,0,0,0-3.146-2.021,25.167,25.167,0,0,1-3.155-.594c-.46-.094-.9-.28-.766-.858.122-.542.541-.6,1.041-.506,1.044.191,2.1.339,3.362.538a29.589,29.589,0,0,0-2.838-4.407c-.395-.492-1.267-1.091-.476-1.729.816-.657,1.15.4,1.571.847.515.552.934,1.192,1.4,1.789,1.217,1.552,1.953,3.46,3.627,4.983.062-1.255.141-2.3.157-3.343.013-.961.393-1.427,1.4-1.207l-.024-.028a38.926,38.926,0,0,1-.011,3.927,7.642,7.642,0,0,0,1.833,6.4c1.4,4.232,2.959,8.407,3.666,12.85.444,2.788.691,5.593,1.066,8.385l.013.371q-.005,2.663-.009,5.326c.072.122.123.328.22.351.245.061.43-.05.41-.351q1.1-2.616,2.207-5.228c.473-1.228.872-2.5,1.436-3.685,1.223-2.578,1.914-5.156.751-7.965a11.191,11.191,0,0,1-.49-2.4c-.076-.441-.117-.959.426-1.118.662-.2.829.329,1.01.827.411,1.125.209,2.431.981,3.582.695-1.779,1.326-3.419,1.976-5.052.227-.571.426-1.377,1.269-.988.737.34.254.969.06,1.476q-1.59,4.146-3.176,8.292c-.136.357-.539.73,0,1.168a5.663,5.663,0,0,1,2.533-1.513c.46-.216.973-.559,1.3.078a1.119,1.119,0,0,1-.523,1.445,12.337,12.337,0,0,1-2.567,1.2c-2.408.8-3.049,2.723-3.3,4.933a8.309,8.309,0,0,0-1.9,3.343,160.15,160.15,0,0,0-7.593,26.552c-.5,2.382-.8,4.806-1.161,7.215a1.054,1.054,0,0,0,.2.845c.29.215.673-.071.755-.345.4-1.322,1.624-2.234,1.784-3.663,3.147-2.674,6.147-5.441,6.677-9.886.082-.686.245-1.362.374-2.042.1-.541.3-1.025.983-.807.522.166.527.6.424,1.087-.21,1-.358,2.02-.569,3.252,1.691-.966,2.243-2.694,3.628-3.587.394-.253.763-.547,1.168-.18.422.382.214.806-.128,1.146-.931.922-1.618,2.047-2.619,2.926-1.284,1.126-2.425,2.416-3.793,3.8,1.329,0,2.275.051,3.211-.016a.968.968,0,0,1,1.135.967c.089.653-.41.846-.96.893a6.2,6.2,0,0,1-1.134.05,6.637,6.637,0,0,0-6.995,3.669c-2.891,4.028-5.211,8.284-5.322,13.415a3.333,3.333,0,0,0-.267,1.92l.032.768c2.206.717,4.47.149,6.7.3.94.631.944,1.349.563,2.408-.98,2.715-2.942,4.9-3.947,7.588a2.517,2.517,0,0,0-.366,1.39c1.505,8.991,3.046,17.976,4.473,26.979,1.35,8.521,2.536,17.069,3.875,25.591.922,5.869,2.015,11.709,2.973,17.572,1.039,6.357,1.925,12.738,3.061,19.076a6.929,6.929,0,0,1-.918,5.723c2.046,0,3.769.017,5.491-.007.887-.013,2.133-.077,2.155.885.026,1.138-1.267.658-1.98.665q-15.669.167-31.339.26Zm-218.155-9.944c.021-.5.015-1.01.068-1.51.126-1.167-.062-1.826-1.551-1.833-1.563-.009-1.595.779-1.5,1.883.042.5.044,1.006.065,1.51-.021,2.268.022,4.539-.088,6.8-.062,1.278.646,1.284,1.529,1.225.748-.05,1.692.328,1.62-1.1C128.443,404.537,128.46,402.206,128.421,399.879Zm100.368,0c-.039,2.317-.018,4.638-.141,6.952-.072,1.376.8,1.128,1.582,1.121s1.664.27,1.6-1.118c-.114-2.315-.082-4.638-.111-6.958.018-.375.06-.751.05-1.126-.024-1.053.416-2.221-1.521-2.222s-1.482,1.181-1.514,2.224C228.719,399.127,228.767,399.5,228.788,399.879Zm-4.449,0c-.029,2.383-.037,4.766-.1,7.148-.033,1.337.943.9,1.582.907s1.608.423,1.568-.911c-.073-2.38-.088-4.761-.126-7.142.021-.375.068-.752.057-1.126-.032-1.043.433-2.226-1.514-2.224s-1.5,1.17-1.522,2.222C224.28,399.125,224.321,399.5,224.339,399.876Zm-103.095-.037c-.029,2.341.016,4.685-.115,7.019-.071,1.272.671,1.136,1.427,1.087.724-.048,1.73.4,1.674-1.049-.092-2.338-.076-4.68-.105-7.021.018-.569.035-1.138.055-1.707.031-.845.139-1.721-1.187-1.579-.986.105-2.141-.088-1.851,1.549A14.25,14.25,0,0,1,121.245,399.84Zm-40.564-.053c-.045,2.382-.056,4.764-.147,7.144-.056,1.454.984.939,1.684,1.015.8.086,1.439.092,1.372-1.115-.13-2.317-.078-4.643-.1-6.966.024-.566.006-1.137.079-1.7.148-1.119-.212-1.575-1.428-1.525-1.06.044-1.722.2-1.551,1.45C80.665,398.652,80.653,399.223,80.681,399.787Zm-1.647.01c.031-.5.031-1.01.1-1.508.159-1.2-.259-1.63-1.542-1.648-1.416-.021-1.333.764-1.29,1.681q.035.756.075,1.511c-.342,2.383-.034,4.78-.163,7.167-.062,1.154.718,1,1.371.934s1.727.473,1.686-.828C79.191,404.67,79.583,402.217,79.033,399.8Zm97.866,5.717c1.3-.633,2.628-1.2,3.878-1.917a3.2,3.2,0,0,1,3.325-.053c2.832,1.376,5.755,2.566,8.646,3.822a4.851,4.851,0,0,0,1.986.528c8.988-.021,17.975-.035,26.962.013,1.186.006,1.319-.488,1.3-1.464-.053-2.53-.116-5.068.017-7.593.089-1.668-.3-2.261-2.127-2.226-6.453.125-12.918-.155-19.363.106-6.314.257-12.66-.966-18.97.775-2.289.631-4.9.087-7.368.078.06-1.161-.806-.9-1.443-.9-5.066-.012-10.133.031-15.2-.032-1.307-.017-2.008,1.313-3.538,1.036-2.824-.511-5.715-.367-8.615-.8-4.954-.747-10.1-.168-15.167-.235-1.172-.016-1.313.45-1.3,1.43.053,2.786.078,5.575-.01,8.358-.037,1.154.246,1.492,1.445,1.476q7.979-.108,15.959,0c1.39.018,2.369-.06,2.059-1.822-.111-.633.388-.825.85-1.079,4.407-2.412,4.4-2.418,8.007,1a6.3,6.3,0,0,1,.668.673,3.335,3.335,0,0,0,2.98,1.224c4.179-.07,8.363-.142,12.537.024C176.375,408.008,177.19,407.468,176.9,405.514ZM288.6,310.12q-1.416,14.911-2.832,29.822c-.957,10.061-1.981,20.115-2.854,30.182-.434,5.011-1.231,9.995-1.247,15.04-.725,3.413-.659,6.914-1.145,10.357-.158,1.112.181,2.4-1.675,2.18-.6-.071-.586.525-.669.955-.587,3.025-1.181,6.048-1.8,9.223,9.168,0,18.218,0,27.268.009.659,0,.917-.219.818-.885a19.537,19.537,0,0,0-.386-2.816c-.707-2.314.936-5.356-2.123-6.956-.1-.054-.088-.353-.108-.542-.81-7.605-1.647-15.208-2.375-22.821-.071-.746-.613-1.712.275-2.413a.478.478,0,0,0,.358.686.394.394,0,0,0,.527-.337c.023-.361.024-.752-.531-.688-1.371-.108-.971-1.342-1.331-2.092a26.055,26.055,0,0,0-.4-4.863c-.981-8.274-1.658-16.582-2.915-24.826-1.485-9.733-2.929-19.472-4.391-29.208-.421-2.716-.514-5.5-1.756-8.069Zm-114.24.7c0-2.007-.042-4.016.013-6.021.028-1.025-.559-1.224-1.3-1.043-.827.2-2.15-.791-2.414.868-.286,1.792-.505,3.594-.753,5.392-.439.924-.111,2.074-.538,2.884-1.038,1.966.769,4.84-2.023,6.184.753.237-.685,1.222.468,1.353.4.045.483.417.3.723-1.041,1.793-.352,3.814-.789,5.712a89.644,89.644,0,0,0-1.674,9.74c-.268,2.311-.625,4.715-.9,7.035-.339,2.83-.851,5.738-1.212,8.554-.352,2.758-.922,5.516-1.255,8.284-.957,7.976-2.336,15.906-3.589,23.846-.542,3.429-.947,6.937-1.273,10.574,5.322,0,10.633-.066,15.941.042,1.542.031,1.84-.446,1.822-1.882-.176-14.048-.271-28.1-.407-42.145Q174.584,330.873,174.36,310.824Zm-57.316,85.782-.016-1.683c1.2,0,2.407-.015,3.61-.016,3.216,0,3.216,0,3.216-3.249v-39.9c0-.926-.229-2.01,1.412-1.9v2.042q0,20.708-.021,41.416c0,1.141.146,1.636,1.494,1.62,6.585-.081,13.172-.064,19.758-.01,1.092.01,1.394-.367,1.434-1.373.286-7.129.629-14.256.918-21.387.325-8.018.615-16.04.918-24.06.467-12.4,1.264-24.778,1.45-37.185.109-1.949.176-3.9.345-5.848.1-1.09-.33-1.409-1.366-1.4-7.824.037-15.648.067-23.472.016-1.271-.009-1.491.559-1.466,1.568.046,1.889.083,3.779.124,5.668-.039,2.781-.106,5.56-.111,8.34-.016,8.163,0,16.325-.026,24.488,0,.462.415,1.269-.527,1.334s-.873-.685-.867-1.324c0-.444,0-.887,0-1.329q-.024-15.755-.046-31.509c.461-1.842-.168-3.7.056-5.534.161-1.317-.293-1.69-1.652-1.68-9.492.065-18.984.032-28.476.033-7.022,0-14.044.038-21.065-.026-1.335-.012-1.77.357-1.677,1.689.126,1.827.073,3.667.1,5.5a2.489,2.489,0,0,0-.057.375q-.009,41.184-.043,82.369c0,1.2.478,1.274,1.441,1.269,5.313-.026,10.627.007,15.941.02l-.286,1.75a6.518,6.518,0,0,1-.942-.024c-1.675-.281-2.27.318-2.147,2.083a56.887,56.887,0,0,1,0,7.348c-.105,1.716.576,2.063,2.032,1.69H118.18c1.255.368,1.622-.11,1.569-1.379-.1-2.311-.028-4.629-.028-6.945C119.721,396.755,119.721,396.755,117.044,396.606Zm74.05-85.707a6.176,6.176,0,0,0-.3,2.6c-.681,9.576-1.285,19.16-2.048,28.73-.753,9.441-1.64,18.871-2.515,28.3-.695,7.482-1.421,14.961-2.232,22.43-.169,1.554.105,1.995,1.771,1.986q22.324-.112,44.648,0c1.59.007,1.944-.383,1.942-1.954q-.083-40.089-.044-80.177c0-.629-.073-1.258-.112-1.887.021-1.9-.037-3.8.09-5.683.089-1.337-.485-1.538-1.645-1.535q-18.86.05-37.721,0c-1.061,0-1.6.158-1.619,1.409C191.28,307.048,190.939,308.964,191.094,310.9Zm157.362-7.907c.779,2.411,2.2,4.208,3.21,6.218.6,1.2,1.625,2.31,1.4,3.786-.871,5.67-1.788,11.335-2.7,17q-2.616,16.347-5.24,32.692c-1.228,7.659-2.474,15.315-3.685,22.977-.964,6.107-1.933,12.214-2.8,18.335-.378,2.66.841,3.944,3.474,3.947,5.828.01,11.656-.012,17.483.021.756,0,1.52-.523,2.108-.339,2.245.707,4.511.3,6.745.271,3.51-.045,4.509-1.449,3.908-4.917-.011-.062-.038-.122-.048-.185-.384-2.492-.948-4.976-1.1-7.483-.138-2.325-1.782-4.366-1.134-6.8.044-.16-.092-.363-.122-.55q-.275-1.68-.542-3.363-2.174-13.739-4.345-27.477c-.6-3.8-1.2-7.6-1.77-11.409-.545-3.615-1.327-7.187-1.826-10.814-.739-5.371-1.45-10.761-2.569-16.06-.954-4.515-1.065-8.656,2.074-12.423a7.046,7.046,0,0,0,1.537-3.43ZM92.68,294.572c-9.058,0-18.116.023-27.174-.028-1.263-.007-1.839.215-1.718,1.626a25.528,25.528,0,0,1,0,4.555c-.143,1.509.47,1.749,1.823,1.741,10.958-.053,21.916-.029,32.876-.029,7.158,0,14.315-.023,21.473.024,1.19.007,1.733-.236,1.62-1.555a23.352,23.352,0,0,1,0-4.176c.158-1.657-.284-2.231-2.1-2.208C110.543,294.631,101.611,294.572,92.68,294.572Zm123.185,0c-7.473,0-14.946.043-22.419-.039-1.338-.015-1.767.45-1.79,1.641-.028,1.519.022,3.049-.153,4.552-.17,1.466.35,1.756,1.747,1.75,12.92-.057,25.839-.034,38.759-.034,2.09,0,4.181-.048,6.268.021,1.016.033,1.324-.334,1.289-1.31a46.188,46.188,0,0,1,.011-4.938c.1-1.339-.346-1.685-1.674-1.674C230.558,294.6,223.212,294.571,215.865,294.571ZM208.9,282.942c0,2.972.05,5.946-.024,8.916-.029,1.174.347,1.505,1.5,1.483q5.31-.106,10.623,0c1.2.024,1.657-.256,1.641-1.56q-.1-8.726,0-17.453c.013-1.222-.411-1.471-1.53-1.452-3.6.064-7.211.083-10.813-.009-1.262-.032-1.445.455-1.421,1.537C208.942,277.25,208.9,280.1,208.9,282.942Zm-71.477,11.628c-4.177,0-8.357.072-12.532-.037-1.587-.042-2.355.24-2.116,2.029a15.98,15.98,0,0,1,.006,3.791c-.174,1.628.3,2.155,2.041,2.133,8.1-.1,16.206-.121,24.306.006,2.024.032,2.877-.4,2.662-2.536a18.553,18.553,0,0,1,.194-3.966c.142-1.2-.3-1.467-1.459-1.448C146.16,294.613,141.792,294.571,137.423,294.571Zm8.487-3.737c-1.828,0-3.658.046-5.482-.018-1.006-.035-1.31.339-1.3,1.313.011.9.314,1.211,1.214,1.2,3.529-.037,7.058-.053,10.586.006,1.147.02,1.141-.62,1.192-1.431.065-1.025-.511-1.1-1.3-1.082C149.188,290.855,147.549,290.834,145.91,290.834ZM174.4,298.55c0-.819.02-1.64-.006-2.458-.022-.707.236-1.5-1.025-1.559-1.233-.055-1.482.54-1.577,1.537-.132,1.376-.289,2.751-.525,4.113-.419,2.411-.413,2.391,2.03,2.286.977-.042,1.159-.443,1.114-1.272C174.36,300.316,174.4,299.432,174.4,298.55Zm-.444-16.269c-.795,3.861-1.218,7.331.133,10.789A73.818,73.818,0,0,0,173.953,282.281ZM270.2,367.694c1.028-1.181-1.321-1.131-.7-2.179.241-.406.056-.784-.43-.736a.678.678,0,0,0-.619.9C268.647,366.722,269.563,367.082,270.2,367.694Zm2.043,23.076c-.317-.478.12-1.313-.723-1.359-.223-.011-.47.415-.706.64.971.294-.023,1.582.8,1.754C272.147,391.917,272.269,391.235,272.24,390.77ZM270.3,311.346c.091-.741.35-1.4-.521-1.615-.242-.061-.717-.19-.767.218C268.919,310.685,269.547,310.934,270.3,311.346ZM159.912,374.525c-.043-.023-.1-.078-.128-.066-.182.076-.185.176-.006.26.028.013.1-.027.127-.062S159.908,374.57,159.912,374.525Z" transform="translate(0 10.973)"/><path class="b" d="M108.69,221.508c-.439,2.161-1.914,2.316-3.818,2.3-10.132-.076-20.264-.012-30.4-.007-.563,0-1.124-.1-1.685-.147-1.4-.664-1.443-1.92-1.442-3.226q.017-13.3.006-26.591,0-10.257,0-20.514c0-1.29-.016-2.627,1.75-2.848a16.3,16.3,0,0,1,1.68-.172q15.373-.033,30.744-.032c1.492,0,2.906.294,3.089,2.21.021,1.971-.287,3.955-.2,5.9.138,3.222.116,6.429.042,9.646-.026,1.136-.833,2.333.117,3.441-.188.109-.29.252-.194.477l.044.725-.493-.12c-.33-.846-1.475-.544-1.839-1.359-.235,1.315-.024,2.156,1.564,1.6.143.692.536.476.929.254q.022,5.582.043,11.165a50.277,50.277,0,0,0,.068,5.921c.115.943-2.12,1.746-.11,2.659-.626,1.459.35,2.9.043,4.363A11.117,11.117,0,0,0,108.69,221.508Zm-6.163-10.157c.179-.037.361-.061.533-.114.463-.142,1.043-.258.966-.883-.109-.9-.807.027-1.134-.3-.126-.124-.251-.249-.375-.374-.048-.555-.16-1.091-.157-1.668.055-9.929.048-19.857.088-29.786,0-.965-.273-1.338-1.284-1.333q-11.2.046-22.4,0c-.95,0-1.321.252-1.318,1.279q.046,18.888,0,37.777c0,1.006.351,1.3,1.323,1.3q11.2-.042,22.4,0c1.035,0,1.3-.417,1.278-1.36C102.42,214.383,102.495,212.867,102.526,211.351Zm2.99-1.074c.15.951-1.119,1.384-.888,2.621C105.569,212.088,106.5,211.561,105.516,210.277Z" transform="translate(2.696 1.116)"/><path class="c" d="M73.5,170.457c-1.766.221-1.747,1.558-1.75,2.848q-.013,10.256,0,20.514,0,13.3-.006,26.591c0,1.306.038,2.562,1.442,3.226-2.548.68-3.62-.637-3.606-3.165.079-15.551.042-31.1.039-46.655C69.616,170.471,70.017,170.12,73.5,170.457Z" transform="translate(2.302 1.136)"/><path class="d" d="M312.589,247.085c.253-2.21.894-4.135,3.3-4.933a12.338,12.338,0,0,0,2.567-1.2,1.119,1.119,0,0,0,.523-1.445c-.331-.637-.845-.295-1.3-.078a5.663,5.663,0,0,0-2.533,1.513c-.538-.438-.135-.811,0-1.168q1.578-4.151,3.176-8.292c.194-.508.677-1.136-.06-1.476-.844-.389-1.042.417-1.269.988-.651,1.633-1.282,3.272-1.976,5.052-.772-1.151-.57-2.457-.981-3.582-.181-.5-.349-1.022-1.01-.827-.543.159-.5.676-.426,1.118a11.191,11.191,0,0,0,.49,2.4c1.163,2.809.472,5.387-.751,7.965-.564,1.189-.962,2.457-1.436,3.685-1.926-3.358-1.635-6.957-1.03-10.535a12.162,12.162,0,0,1,4.517-7.645,2.824,2.824,0,0,1,4.024.1c5.194,4.52,2.909,11.272-2.019,15.417C315.169,245.173,313.861,246.107,312.589,247.085Z" transform="translate(55.756 13.946)"/><path class="d" d="M306.944,275.3a6.637,6.637,0,0,1,6.995-3.669,6.2,6.2,0,0,0,1.134-.05c.55-.046,1.049-.24.96-.893a.968.968,0,0,0-1.135-.967c-.937.067-1.882.016-3.211.016,1.368-1.387,2.509-2.677,3.793-3.8,1-.879,1.689-2,2.619-2.926.342-.34.55-.764.128-1.146-.4-.367-.774-.073-1.168.18-1.386.893-1.937,2.621-3.628,3.587.21-1.231.358-2.248.569-3.252.1-.492.1-.921-.424-1.087-.679-.218-.879.267-.983.807-.13.68-.292,1.356-.374,2.042-.53,4.445-3.53,7.211-6.677,9.886a23.1,23.1,0,0,1,3.592-10.544c1.664-2.573,5.672-4.7,8.349-4.061a2.685,2.685,0,0,1,2.01,1.755c1.761,4.258.712,8.327-3.464,11.067A17.5,17.5,0,0,1,306.944,275.3Z" transform="translate(54.892 20.96)"/><path class="d" d="M305.074,218.024c-1-.22-1.382.246-1.4,1.207-.016,1.044-.094,2.089-.157,3.343-1.674-1.524-2.41-3.431-3.627-4.983-.467-.6-.887-1.238-1.4-1.789-.422-.451-.756-1.5-1.571-.847-.791.638.081,1.238.476,1.729a29.589,29.589,0,0,1,2.838,4.407c-1.266-.2-2.317-.347-3.362-.538-.5-.09-.918-.035-1.041.506-.131.578.306.764.766.858a25.167,25.167,0,0,0,3.155.594,3.558,3.558,0,0,1,3.146,2.021c.97,1.827,2.014,3.615,3.027,5.42-.284.246-.572.119-.88.043a15.471,15.471,0,0,1-10.261-8.171c-1.187-2.646-2.156-5.291.066-7.911l1.856-.548h3.046C302.247,214.1,304.3,215.325,305.074,218.024Z" transform="translate(52.213 10.722)"/><path class="e" d="M121.721,269.667l.385.042q.015,5.558.028,11.116c-.638.424-1.354.209-2.029.209q-29.037.031-58.076.033c.647-.609,1.449-.335,2.177-.335q27.546-.024,55.091-.013c2.418,0,2.419,0,2.42-2.5Q121.719,273.942,121.721,269.667Z" transform="translate(0.619 23.27)"/><path class="e" d="M111.225,235.939l-.375.044q0-34.36.006-68.72c0-.673-.229-1.4.3-2q.026,12.539.05,25.079Q111.226,213.138,111.225,235.939Z" transform="translate(11.491 0)"/><path class="e" d="M101.942,191.061c-.95-1.108-.143-2.305-.117-3.441.075-3.217.1-6.424-.042-9.646-.083-1.941.225-3.924.2-5.9.58.5.369,1.175.369,1.782q.017,22.714,0,45.427c0,.613.194,1.278-.3,1.817a11.117,11.117,0,0,1-.059-4.361c.307-1.466-.669-2.9-.043-4.363-2.01-.912.225-1.716.11-2.659A50.277,50.277,0,0,1,102,203.8q-.017-5.584-.043-11.165c.035-.163.077-.329-.161-.373l-.044-.725Z" transform="translate(9.33 1.52)"/><path class="d" d="M304.784,227.48a7.642,7.642,0,0,1-1.833-6.4,38.926,38.926,0,0,0,.011-3.927A17.383,17.383,0,0,1,304.784,227.48Z" transform="translate(54.301 11.566)"/><path class="e" d="M110.85,374.125l.385.043q-.037,15.762-.072,31.526c-.537-.6-.306-1.328-.307-2Q110.836,388.911,110.85,374.125Z" transform="translate(11.491 46.552)"/><path class="e" d="M62.074,279.021l.066,10.255c-.744-.655-.424-1.536-.386-2.293C61.885,284.33,61.311,281.647,62.074,279.021Z" transform="translate(0.535 25.355)"/><path class="e" d="M308.844,285.854c-2.23-.148-4.494.419-6.7-.3C304.375,285.725,306.636,285.185,308.844,285.854Z" transform="translate(54.135 26.801)"/><path class="e" d="M299.173,213.513h-3.046A1.842,1.842,0,0,1,299.173,213.513Z" transform="translate(52.794 10.575)"/><path class="e" d="M302.125,285.27a3.333,3.333,0,0,1,.267-1.92C302.366,284,302.61,284.684,302.125,285.27Z" transform="translate(54.122 26.32)"/><path class="e" d="M308.942,247.621c.021.3-.165.412-.41.351-.1-.023-.148-.229-.22-.351Z" transform="translate(55.51 18.357)"/><path class="e" d="M308.321,243.334l-.013-.371a1.471,1.471,0,0,1,.128.26C308.444,243.247,308.362,243.3,308.321,243.334Z" transform="translate(55.509 17.318)"/><path class="e" d="M67.32,287.486c.243-.046.441-.033.4.3Z" transform="translate(1.798 27.237)"/><path class="e" d="M294.209,374.225l.444-.011-.362.308C294.262,374.423,294.235,374.325,294.209,374.225Z" transform="translate(52.367 46.571)"/><path class="f" d="M177.777,267.809a49.6,49.6,0,0,1-9.8,1.993c-3.321.278-3.323.267-4.528-2.638-2.272,2.672-2.278,2.729-6.19,2.3a64.945,64.945,0,0,1-15.4-3.718c-1.321-.486-2.471-1.431-3.908-1.7.021-6.7.843-13.351,1.228-20.03.24-4.161.614-8.316.922-12.475.042-.563.159-1.258-.473-1.5-.748-.289-1.116.4-1.45.912a6.964,6.964,0,0,0-1.1,3.369c-.553,7.687-1.125,15.374-1.789,23.052-.131,1.519.674,3.518-.676,4.457-1.286.893-3.206.163-4.838.313-1.014.093-1.42-.247-1.586-1.285-.614-3.858-1.387-7.693-2-11.553-1-6.319-2.862-12.6-.976-19.073q.209-.864.421-1.728a53.946,53.946,0,0,1,6.725-11.586c3.346-4.719,6.549-9.546,9.653-14.429,1.653-2.6,3.79-3.755,6.818-3.368,1,.128,2.007.187,3.011.279l.759.166c.448.344.923.655,1.337,1.035,1.255,1.152,2.353,1.7,3.6-.137.635-.932,1.354-.577,1.589.556.521,2.523,1.071,5.039,1.611,7.559.6,2.156.693,4.446,1.739,6.944.588-2.574,1.076-4.711,1.563-6.847.631-2.781.8-5.681,2.14-8.468a5.409,5.409,0,0,1,.871,1.161c.619,1.752,1.324,1.211,2.092.131.146-.205.309-.4.466-.6.258.045.492.032.609-.258,1.129.13,2.266.205,3.384.4a6.632,6.632,0,0,1,5.337,3.731c2.692,5.711,4.784,11.666,7.222,17.48,1.241,2.961,2.46,5.933,3.592,8.938.366.97,1.1,1.136,1.884,1.3,2.59.554,5.245.887,7.768,1.657,4.032,1.23,8.147,2.052,12.247,2.959.478.106.851.237.827.817q-.422,2.827-.841,5.653a2.488,2.488,0,0,0-.347.869c.037,1.817-.978,2.069-2.47,1.794-1.552-.287-3.118-.5-4.679-.74-4.8-.752-9.619-1.415-14.4-2.286-4.862-.887-8.155-4.289-11.478-7.582-.317-.552-.186-1.427-1.142-1.57-.33,3.7-1.34,7.349-.215,11.046q.936,9.905,1.87,19.811C178.872,266.031,179.265,267.25,177.777,267.809ZM153.64,209.5c-1.765-.437-3.535-.954-5.386-.515A8.906,8.906,0,0,0,153.64,209.5Zm16.6,1.388c1.724.389,3.431.951,5.209.479A8.532,8.532,0,0,0,170.239,210.887Z" transform="translate(14.52 7.532)"/><path class="g" d="M211.807,208.355h-6.253c1.17-3.722,2.218-4.479,6.253-4.644l1.432-.009c8.468.02,16.937,0,25.4.089,1.7.017,2.715-.067,2.063-2.216-.3-.973-.055-1.973-1.6-1.959-8.657.076-17.315.081-25.971.109L211.9,199.7c-1.063-.021-2.127-.049-3.189-.06-1-.011-2,0-3.022,0,1-2.962,2.326-3.8,6.14-3.941l1.384-.021,26.642.086c-.062.553-.134,1.1-.187,1.656-.033.357.125.611.5.625.163,0,.477-.124.473-.172-.065-.851.943-2.025-.687-2.424-1.037-1.381.164-2.44.8-3.768H213.217l-1.384-.021c-1.069-.015-2.138-.035-3.206-.044-1-.007-2,0-3.167,0,1.431-2.7,2.629-5.368,6.336-4.581l1.456-.017c3.8.015,7.593.051,11.389.039,6.135-.018,12.269-.07,18.4-.108,1.389.644,2.8.33,4.295-.022-.073,1.443-.182,2.748-.192,4.053-.01,1.2-.928,2.829,1.3,3.21a8.825,8.825,0,0,1,1.065-3.28c.342-.555.739-1.136,1.483-.852.681.258.493.972.451,1.493-.122,1.5-.437,3-.474,4.5-.065,2.564,1.425,3.994,3.971,3.888,1.826-.076,3.647-.268,5.47-.407l.048.044q-.006,1.135-.012,2.271a17.281,17.281,0,0,1-2.548.371c-3.716,0-7.387.588-11.087.773-.784.039-1.07.41-1.273,1.094-.426,1.433-.932,2.843-1.4,4.262l-30.89.023Z" transform="translate(32.586 4.821)"/><path class="c" d="M264.16,264.766q0-.611,0-1.222c.841-.318,2.046.724,2.595-.692l-.007,0c3.777.07,3.144.826,3.074,3.466-.037,1.4.329,1.882,1.79,1.831,3.1-.11,6.206-.007,9.31-.042a2.938,2.938,0,0,1,3.1,1.977c.351.9.664,1.669-1.3,1.161,2.676,1.378,1.552,3.45,1.542,4.988-.017,2.473-.11,4.94.091,7.411a3.245,3.245,0,0,1-.108.73c-.888.1-.955-1.058-1.9-.964.4.79-.28,1.173-.876,1.593,1,.7,1.845-.21,2.314-.035a4.725,4.725,0,0,1-1.668,6.146c.6-.556,1.185-1.027,1.8-.8.719.264.061,1,.194,1.456a13.058,13.058,0,0,1,.231,3.955c-.035,2.548-1.032,3.586-3.59,3.606-5.068.043-10.136,0-15.2-.013-.559-4.273-.47-8.58-.618-12.87-.208-6.064-.707-12.122-.529-18.2a15.966,15.966,0,0,1,2.434-.1c1.544.163,1.689-.655,1.737-1.914.06-1.564-.75-1.613-1.877-1.414Zm19.325,9.5-.139.1c-.048.034-.1.067-.144.1l.275-.2.048-.045Z" transform="translate(45.67 21.751)"/><path class="h" d="M297.469,173.784c1.262.05,2.525.116,3.788.144.911.021,1.2.3.57,1.108-1.146,1.45-1.992,3.345-4.385,2.918l-1.351.049c-.817-.055-1.635-.16-2.452-.16q-39.214-.013-78.428,0c-.695,0-1.389.053-2.085.079l-1.23-.023h-6.4c1.3-2.943,3.176-4.538,6.371-4.033l1.283-.037c.569.029,1.136.084,1.7.084q39.581.007,79.161,0a19.942,19.942,0,0,0,2.062-.207A1.768,1.768,0,0,0,297.469,173.784Z" transform="translate(32.596 1.881)"/><path class="i" d="M294.627,220.283a15.471,15.471,0,0,0,10.261,8.171c.308.076.6.2.88-.043A43.564,43.564,0,0,1,309.39,240.8a60.047,60.047,0,0,1-.289,21.622,49.076,49.076,0,0,1-1.68,6.013c-.857-4-2.665-7.583-4.309-11.231a21.84,21.84,0,0,0,.3-8.351c-.729-5.322-3.227-9.013-9.119-8.845q-.031-9.372-.06-18.744C294.233,220.888,294.2,220.487,294.627,220.283Z" transform="translate(52.372 12.264)"/><path class="e" d="M155.593,212.758c-.539-2.519-1.09-5.036-1.611-7.559-.235-1.134-.954-1.488-1.589-.556-1.249,1.834-2.347,1.289-3.6.137-.413-.379-.889-.691-1.335-1.035q1.093-2.2,2.188-4.411a14.39,14.39,0,0,0,.525-4.038c1.608-2.034.2-3.911-.241-5.87-.251-1.1-.756-2.652.786-3.112,1.384-.413,1.4,1.112,1.7,1.995.157.47.378.6.8.556.6-.059.395-.537.406-.862.021-.624-.213-1.415.418-1.754,1.976-1.06,2.36-3.138,3.417-5.307v2.4a1.752,1.752,0,0,0,.467-.121q1.4-.976,2.785-1.97c1.872-1.337,1.871-1.338,2.81.807a53.736,53.736,0,0,1,.5,12.731c-.214,1.985-.929,2.992-2.885,3.186-.526.051-1.434-.28-1.288.827.117.884.715,1.1,1.514.923q1.557,2.68,3.113,5.357c-.157.2-.32.391-.466.6-.768,1.08-1.474,1.622-2.092-.131a5.409,5.409,0,0,0-.871-1.161c-1.338,2.787-1.509,5.688-2.139,8.467-.651-2.559-1.722-5.087-.428-7.768.254-.525.24-1.359-.417-1.414-.823-.068-1.812-.695-2.486-.048-.77.739-.114,1.478.457,2.127a1.318,1.318,0,0,1,.283.854A22.458,22.458,0,0,1,155.593,212.758Zm4.871-25.8.042-.054-.053.061-.037.053Zm1.52,1.91a1.115,1.115,0,0,0-.028.355c-.465.3-1.088.441-1.113,1.161-.291,0-.609-.061-.772.269-.022.044.132.237.154.229.264-.1.52-.232.778-.355.775.007.9-.609,1.1-1.152.237-.219.346-.432-.024-.627-.075-.219-.141-.441-.235-.652-.009-.018-.283.033-.287.07A.614.614,0,0,0,161.984,188.866Z" transform="translate(19.659 3.359)"/><path class="i" d="M301.9,252.117c3.149,5.7,5.477,11.5,3.941,18.292-1.123,4.964-1.729,10.045-2.588,15.2a42.408,42.408,0,0,0-5.652-11.812,2.213,2.213,0,0,1-.35-1.252,7.077,7.077,0,0,0,.327-3.143,21.222,21.222,0,0,0-3.461-10.154c.044-3.43.071-6.86.147-10.289.015-.643-.313-1.384.352-1.921A12.97,12.97,0,0,0,301.9,252.117Z" transform="translate(52.347 18.227)"/><path class="i" d="M295.85,268.919c4.207,5.668,7.09,11.795,6.829,19.079-.049,1.348-.521,1.74-1.8,1.64-1.319-.1-2.654-.037-3.982-.02-2.1.027-2.6.74-1.762,2.7.992,2.306,2.43,4.385,3.628,6.584,1.143,2.1.247,3.979-.027,5.865-1.224,8.411-2.659,16.79-4.018,25.18-.057.359.007.779-.43.973q-.024-25.376-.049-50.752c0-3.167-.017-6.336.015-9.5.006-.653-.3-1.416.426-1.927C295.087,268.681,295.4,269.217,295.85,268.919Z" transform="translate(52.364 23.061)"/><path class="i" d="M288.4,180.42h4.723c-.907,2.963-2.511,4.517-4.713,4.658a2.052,2.052,0,0,0-1.542.04c-.819-.033-1.639-.094-2.458-.094q-16.777-.011-33.553-.007c-.773-2.053-1.917-3.735-4.236-4.245.618-.478,1.339-.275,2.013-.276,5.68-.017,11.361,0,17.042-.012q10.6-.028,21.2-.09Z" transform="translate(41.76 3.373)"/><path class="i" d="M287.616,186.988h4.745c-.7,3.029-2.232,4.5-4.79,4.706l-1.467.034c-.88-.04-1.761-.115-2.64-.115q-16.648-.018-33.3-.017.174-2.264.35-4.527c4.856-.007,9.711-.007,14.567-.026q10.5-.038,20.993-.1A1.987,1.987,0,0,0,287.616,186.988Z" transform="translate(42.551 4.834)"/><path class="j" d="M296.332,175.058a1.768,1.768,0,0,1-1.388-.086,18.724,18.724,0,0,1,.028-2.847c.309-1.984-.516-2.367-2.385-2.363q-36.954.1-73.908.043c-1.647,0-3.3.1-4.938-.028-1.4-.106-1.735.438-1.642,1.723a35.071,35.071,0,0,1-.082,3.6l-1.283.037c-.038-2.021-.044-4.045-.128-6.064-.034-.844.269-1.158,1.086-1.061a8.184,8.184,0,0,0,.949,0q40.817,0,81.636-.038c1.7,0,2.377.366,2.18,2.153C296.278,171.759,296.363,173.415,296.332,175.058Z" transform="translate(33.733 0.606)"/><path class="a" d="M163.627,183.151c-.939-2.145-.938-2.144-2.81-.807q-1.387.992-2.785,1.97a1.752,1.752,0,0,1-.467.121v-2.4c-1.057,2.169-1.441,4.247-3.417,5.307-.631.339-.4,1.13-.418,1.754-.011.325.194.8-.406.862-.419.042-.641-.087-.8-.556-.3-.883-.312-2.408-1.7-1.995-1.542.46-1.037,2.009-.786,3.112.445,1.959,1.849,3.836.241,5.87-3.363-5.6-4.967-11.283-1.079-17.373a6.371,6.371,0,0,1,4.109-3.085,19.332,19.332,0,0,1,8.475-.076c3.34.828,4.892,5.37,2.855,8.215C164.112,183.979,164.778,182.562,163.627,183.151Z" transform="translate(19.543 2.264)"/><path class="h" d="M287.24,200.628h5.334c-2.023,1.838-1.987,5.011-5.332,4.7l-1.529.024q-14.15-.048-28.3-.089c-.69,0-1.379.1-2.068.159-.863-.2-1.939.117-2.29-1.194-.324-1.211-.816-2.376-1.233-3.561,3.346.011,6.69.04,10.036.032q11.929-.031,23.856-.093Z" transform="translate(42.92 7.878)"/><path class="h" d="M287.619,194.062h5.2c-1.634,2.065-2.438,4.369-5.257,4.133a1.825,1.825,0,0,0-1.387.075,7.119,7.119,0,0,0-2.629-.213q-16.505-.046-33.008-.075l-.048-.044-.539-3.766q13.269-.011,26.54-.029c3.22-.009,6.44-.076,9.66-.116Z" transform="translate(42.503 6.412)"/><path class="i" d="M211.783,185.052c-1.642-.011-3.285,0-4.926-.048-.462-.013-1.167.292-1.323-.311-.1-.377.3-.907.526-1.341a5.035,5.035,0,0,1,5.726-2.9l1.461-.018q12.468.028,24.934.066c.733,0,1.518-.232,2.19.29a9.3,9.3,0,0,0-.432,4.19l-26.7.086Z" transform="translate(32.6 3.366)"/><path class="h" d="M285.537,207.356c1.192.05,2.385.133,3.577.138s1.6.422.8,1.436c-1.12,1.427-1.9,3.406-4.32,2.941l-1.472.034c-.816-.04-1.631-.115-2.447-.117q-10.105-.029-20.209-.035a10,10,0,0,1-2.43-3.749c.528-.829,1.368-.488,2.07-.49,6.682-.027,13.364-.01,20.045-.022a8.668,8.668,0,0,0,3-.208A1.82,1.82,0,0,0,285.537,207.356Z" transform="translate(44.528 9.366)"/><path class="h" d="M211.839,211.823h-6.413c1.544-2.694,2.9-5.172,6.479-4.388l1.238-.027c1.51.029,3.022.076,4.532.084q10.489.061,20.977.1c-1.821,1.432-4.094,2.279-5.5,4.25l-19.927,0Z" transform="translate(32.579 9.367)"/><path class="d" d="M297.65,272.115c-.448.3-.763-.237-1.172-.186-2.224-1.485-4.778-2.393-6.862-4.154-3.539-2.992-4.5-7.23-2.387-11.321,1.043-2.018,2.374-2.482,4.52-1.723,1.664.588,2.819,1.854,4.157,2.88a21.222,21.222,0,0,1,3.461,10.154,7.077,7.077,0,0,1-.327,3.143c-1.313-1.768-2.639-3.528-3.939-5.306-1-1.362-.889-2.958-.9-4.526q-.007-1.423-.032-2.846c-.006-.473-.144-.956-.663-.989-.674-.042-.781.517-.788,1.05-.012,1.043,0,2.085,0,3.283-1.187-.973-1.644-2.292-2.383-3.412-.347-.525-.7-1.492-1.543-.986-.813.488.012,1.077.243,1.6.824,1.869,2.232,3.351,3.342,5.03a3.675,3.675,0,0,1,.885,2.1,4.153,4.153,0,0,1-2.211-.966.807.807,0,0,0-1.392.2.916.916,0,0,0,.638,1.335,7.7,7.7,0,0,0,1.253.419C294.713,267.329,296.51,269.333,297.65,272.115Z" transform="translate(50.564 19.865)"/><path class="e" d="M195.732,237.293q.42-2.827.841-5.653c.876-.653,1.886-.357,2.847-.4,2.409.775,4.84,1.52,5.974,4.558-2.775-1.987-5.02-.3-7.771.6a3.778,3.778,0,0,0,3.228-.248,2.908,2.908,0,0,1,2.325-.223c1.03.294,2.42,1,3.094-.115.635-1.054-.747-1.789-1.353-2.6.187-.012.375-.015.561-.039,1.055-.141,1.87.18,2.489-1.574.838-2.374,2.559-4.947,6.053-4.13l1.379-.062c1.5.373,3.066-.219,4.547.35a63.411,63.411,0,0,1-10.07,2.769.9.9,0,0,0-.8,1.24,43.307,43.307,0,0,1,1.174,6.874c.174,1.1.7,1.527,1.743,1.453-1.2.534-2.462.237-3.7.276-1.105.035-.6-.6-.394-1.09.468-.286.3-.561.027-.9-.915-1.112-3.288-.788-4.947.569-1.053.86-1.516,1.746-.772,3.008a2.163,2.163,0,0,1-1.6-.851c-.144-.993,1.334-1.379.923-2.87l-1.587,1.866C198.4,239.37,197.779,237.261,195.732,237.293Z" transform="translate(30.419 13.828)"/><path class="i" d="M284.6,214.268H290c-1.981,1.862-2.342,4.669-5.357,4.324a1.985,1.985,0,0,0-1.54.043l-16.229-.021a29.112,29.112,0,0,1-3.368-4.225c.692-.012,1.383-.029,2.075-.034q8.775-.064,17.549-.121Z" transform="translate(45.524 10.915)"/><path class="i" d="M211.781,218.547h-6.239c.873-3.012,2.531-4.105,6.272-4.245l1.383-.021,17.268.088a23.081,23.081,0,0,1-2.673,4.26l-14.56-.062Z" transform="translate(32.605 10.926)"/><path class="d" d="M294.862,236.41c5.892-.168,8.39,3.523,9.119,8.845a21.84,21.84,0,0,1-.3,8.351c-1.633-2.465-2.6-5.021-1.08-7.916a.376.376,0,0,0,.064-.177c-.075-.858,1.005-2.175-.161-2.473-1.286-.327-.977,1.234-1.222,2.052-.181.6-.349,1.208-.525,1.821-.731.068-.783-.576-.97-.964-1.178-2.429-2.314-4.878-3.448-7.327-.215-.465-.4-1.063-1.013-.9-.739.2-.652.933-.437,1.43.5,1.154,1.136,2.249,1.695,3.378.356.719.673,1.456,1.165,2.535a17.26,17.26,0,0,0-2.992-1.131c-1.663-.625-1.891.128-1.655,1.494C290.581,242.42,291.559,237.405,294.862,236.41Z" transform="translate(51.803 15.857)"/><path class="i" d="M211.783,225.493c-1.066-.016-2.131-.038-3.2-.046-.994-.009-1.988,0-3.021,0,1.456-3.961,2.122-4.439,6.21-4.545l1.452-.021,12.59.015q-1.117,2.3-2.237,4.594l-10.36.022Z" transform="translate(32.61 12.396)"/><path class="i" d="M283.537,220.873h4.718c-.721,2.995-2.271,4.488-4.725,4.655l-1.525.024c-3.4-.148-6.8-.169-10.191.007-1.461-1.3-2.243-3.093-3.337-4.659L282,220.833A2.052,2.052,0,0,0,283.537,220.873Z" transform="translate(46.632 12.386)"/><path class="i" d="M282.922,247.857c1.315.029,2.629.05,3.941.1.351.012.8-.138,1,.3.183.421-.188.691-.422.959-1.247,1.434-1.871,3.707-4.462,3.351l-1.45-.039H271q.853-2.381,1.707-4.762a52.264,52.264,0,0,0,8.75.06Z" transform="translate(47.195 18.388)"/><path class="h" d="M282.313,241.247c1.263.049,2.525.114,3.788.141.927.021,1.169.312.57,1.12-.333.449-.562.972-.854,1.454-.775,1.283-1.658,2.4-3.408,2.122a1.221,1.221,0,0,0-1.5-.291l-7.424-.182q.737-2.086,1.474-4.171c1.987-.23,4,.21,5.98-.269A1.843,1.843,0,0,0,282.313,241.247Z" transform="translate(47.747 16.919)"/><path class="h" d="M282.275,227.564l4.871.237a5.439,5.439,0,0,1-4.869,4.375,1.754,1.754,0,0,0-1.39.087c-1.734-.463-3.506-.087-5.252-.245q-.979-1.919-1.96-3.839c.473-.737,1.222-.424,1.862-.468,1.783-.122,3.585.216,5.356-.221A1.832,1.832,0,0,0,282.275,227.564Z" transform="translate(47.79 13.87)"/><path class="h" d="M281.917,234.516h5.257c-1.783,1.9-2.228,4.567-5.256,4.316l-1.529.026-4.68-.166q.156-2.04.311-4.078l4.371-.125Z" transform="translate(48.244 15.43)"/><path class="d" d="M302.188,252.847a12.97,12.97,0,0,1-7.283-5.079c-.763-1.286-2.385-2.145-1.995-4,1.569.435,3.128.907,4.709,1.291.8.193,1.088.783,1.4,1.4Q300.606,249.648,302.188,252.847Z" transform="translate(52.064 17.497)"/><path class="j" d="M282.22,251.654l1.45.039c0,1.7-.082,3.412.013,5.109.071,1.26-.371,1.613-1.607,1.6-4.731-.056-9.465-.009-14.2,0l.3-1.423,1.558-.141c3.721.022,7.444.018,11.165.084.986.018,1.35-.292,1.3-1.293C282.143,254.306,282.209,252.978,282.22,251.654Z" transform="translate(46.499 19.255)"/><path class="e" d="M269.041,256.115l-.3,1.423c-.871,2.255-2.387,4.33-1.959,6.952l.007,0-2.61-.02-.154-2.224a30.987,30.987,0,0,0,1.222-3.971C265.826,255.111,265.861,255.117,269.041,256.115Z" transform="translate(45.639 20.118)"/><path class="j" d="M204.572,232.556c.605.814,1.987,1.549,1.353,2.6-.674,1.118-2.064.408-3.094.115a2.908,2.908,0,0,0-2.325.223,3.778,3.778,0,0,1-3.228.248c2.751-.894,5-2.585,7.771-.6-1.134-3.038-3.565-3.782-5.974-4.558,1.432-.973,2.555.114,3.719.629A9.539,9.539,0,0,1,204.572,232.556Z" transform="translate(30.763 14.473)"/><path class="j" d="M281.019,214.981l-1.464-.035q0-1.939,0-3.877l1.471-.034Q281.022,213.007,281.019,214.981Z" transform="translate(49.1 10.202)"/><path class="j" d="M281.064,235.24l-1.527-.028q.02-1.893.042-3.784a1.754,1.754,0,0,1,1.39-.087Q281.017,233.289,281.064,235.24Z" transform="translate(49.097 14.706)"/><path class="j" d="M279.582,197.529a1.825,1.825,0,0,1,1.387-.075q.048,1.95.1,3.9l-1.526-.024Q279.56,199.428,279.582,197.529Z" transform="translate(49.097 7.153)"/><path class="j" d="M279.538,238.064l1.527-.024-.1,3.9a1.843,1.843,0,0,1-1.378-.077Q279.561,239.965,279.538,238.064Z" transform="translate(49.097 16.221)"/><path class="j" d="M281.063,181.136l-1.525-.027q.026-1.943.053-3.883l1.35-.049Q281,179.157,281.063,181.136Z" transform="translate(49.097 2.656)"/><path class="j" d="M281.022,194.775l-1.469-.037q0-1.939,0-3.877l1.467-.034Z" transform="translate(49.1 5.699)"/><path class="j" d="M281.073,221.574a2.049,2.049,0,0,1-1.541-.042v-3.667a1.985,1.985,0,0,1,1.54-.043Q281.073,219.7,281.073,221.574Z" transform="translate(49.096 11.685)"/><path class="j" d="M280.967,228.192a1.832,1.832,0,0,1-1.383-.073q-.024-1.711-.045-3.422l1.525-.024Q281.014,226.432,280.967,228.192Z" transform="translate(49.097 13.242)"/><path class="j" d="M280.968,207.984a1.82,1.82,0,0,1-1.383-.073q-.024-1.711-.046-3.423l1.527-.023Q281.016,206.224,280.968,207.984Z" transform="translate(49.097 8.738)"/><path class="j" d="M279.553,244.973a1.222,1.222,0,0,1,1.5.292q-.018,1.622-.038,3.242l-1.463-.037Q279.554,246.722,279.553,244.973Z" transform="translate(49.1 17.737)"/><path class="j" d="M281.072,187.618a1.99,1.99,0,0,1-1.54-.042v-3.288a2.052,2.052,0,0,1,1.542-.04Q281.072,185.932,281.072,187.618Z" transform="translate(49.096 4.203)"/><path class="j" d="M212.106,181.158l-1.463.018.106-4.046,1.23.023Q212.044,179.156,212.106,181.158Z" transform="translate(33.742 2.646)"/><path class="j" d="M212.055,215.014l-1.384.021V211l1.384.021Z" transform="translate(33.748 10.194)"/><path class="a" d="M212.082,201.367l-1.432.009q.048-2,.1-4.01l1.227.024Q212.026,199.379,212.082,201.367Z" transform="translate(33.743 7.156)"/><path class="j" d="M212.055,194.807l-1.384.021v-4.039l1.384.021Z" transform="translate(33.748 5.69)"/><path class="j" d="M161.931,201.633q-1.557-2.678-3.113-5.357c.429-.937.739-.253.949.114.947,1.65,1.853,3.321,2.772,4.986C162.423,201.664,162.189,201.678,161.931,201.633Z" transform="translate(22.191 6.807)"/><path class="a" d="M211.978,208.043l-1.238.027q-.046-1.812-.09-3.627l1.434.012Q212.031,206.249,211.978,208.043Z" transform="translate(33.743 8.733)"/><path class="a" d="M212.1,221.571l-1.452.021V217.77l1.452.021Z" transform="translate(33.742 11.704)"/><path class="a" d="M210.641,184.2l1.455.017v3.4l-1.456.017Q210.642,185.915,210.641,184.2Z" transform="translate(33.741 4.221)"/><path class="a" d="M210.65,224.652l1.437.016q-.005,1.658-.012,3.319l-1.379.062Q210.673,226.351,210.65,224.652Z" transform="translate(33.743 13.237)"/><path class="j" d="M149.783,195.88q-1.1,2.2-2.188,4.411l-.761-.166c.654-1.209,1.3-2.421,1.964-3.625C149.007,196.125,149.2,195.678,149.783,195.88Z" transform="translate(19.52 6.814)"/><path class="g" d="M121.668,293.535q.024,15.755.046,31.509c0,.443,0,.885,0,1.329-.006.64-.089,1.39.867,1.324s.526-.872.527-1.334c.028-8.163.01-16.325.026-24.488,0-2.78.072-5.559.111-8.34,2.961,0,5.92.013,8.881,0,2.891-.016,5.8-.264,8.669-.04,2.775.214,5.531-.49,8.286.044-.186,12.407-.983,24.789-1.45,37.185-.3,8.02-.593,16.042-.918,24.06-.29,7.131-.632,14.258-.918,21.387-.04,1.006-.342,1.383-1.434,1.373-6.586-.054-13.173-.071-19.758.01-1.349.016-1.5-.479-1.494-1.62q.05-20.708.021-41.416v-2.042c-1.641-.114-1.412.971-1.412,1.9v39.9c0,3.248,0,3.247-3.216,3.249-1.2,0-2.407.011-3.61.016-.988-1.507-.539-3.347-.98-5.006a13.437,13.437,0,0,1-.141-4.347c.267-2.53-.761-4.933-.795-7.478-.044-3.357-.654-6.7-.885-10.061-.153-2.22-.855-4.374-.707-6.621.75-1.049-.214-.8-.658-.81-2.407-.028-4.814.018-7.22-.034-.632-.013-1.529.433-1.861-.426a2.683,2.683,0,0,1,.331-2.662,36.217,36.217,0,0,1,4.367-4.637,3.637,3.637,0,0,1,4.462-.7c1.439.627,2.447,2.036,4.456,2.337-1.225-2.361-3.641-2.339-5.225-3.55,3-1.768,6.048-2.558,9.373-.609-.461-1.081-1.511-1.009-2.185-1.716a24.6,24.6,0,0,1,8.1-.615c.5.059,1.125.246,1.213-.461.1-.78-.682-.631-1.1-.693a24.661,24.661,0,0,0-4.345-.032c-1.623.05-3.069.812-4.662,1.087-.168-1.362,1.335-1.741,1.131-3.089a10.2,10.2,0,0,1-8.146,5.091c.681-1.486,1.338-2.915,1.995-4.345-1.091.289-1.439,1.105-1.8,1.936-.5,1.136-.748,2.747-1.633,3.283-2.885,1.751-4.783,4.4-7.008,6.875-.363-1.116-1.411-1.865-1.2-3.144a46.792,46.792,0,0,1,5.534-16.171,2.092,2.092,0,0,1,1.921-1.235c1.531-.045,3.057-.219,4.97-.369-1.962-1.14-3.7-.27-5.3-.448.943-3.758,3.66-4.9,7.214-4.863-1.189-.786-2.273-.126-3.291-.487,1.1-1.915,2.853-3.255,4.171-4.97a13.6,13.6,0,0,0-4.866,4.336c-.77-.719-.106-1.738-1.389-2.8,1.19,3.8-1.137,5.743-2.9,8.148a9.989,9.989,0,0,0-.947-4.22,3.453,3.453,0,0,0-.013,2.411,7.286,7.286,0,0,1-.761,5.2,33.713,33.713,0,0,0-3.382,8.556c-.521,2.191-1.131,4.361-1.8,6.929-.684-2.162-2.495-2.882-3.474-4.336,1.318-.2,2.49-.688,2.864-2.089.4-1.482-.455-2.53-1.51-3.424a10.535,10.535,0,0,0-3.474-1.856,21.96,21.96,0,0,0-10.822-.6c-2.769.454-5.58.9-8.012,2.486-.621.21-1.3.329-1.645.982l1.356.2c.439.567,1.152.471,1.73.654a14.857,14.857,0,0,1,8.517,6.715,7.575,7.575,0,0,0,3.664,3.117c2.619,1.143,7.221-.355,6.705-4.15A3.842,3.842,0,0,1,95,333.7c3.14,1.958,4.555,4.618,3.677,8.393-.208.889-.427,1.131-1.279,1.114-2.336-.046-4.674-.032-7.011,0-.438,0-1.379-.315-.808.794l-3.346,33.548c-5.315-.012-10.628-.045-15.941-.02-.962,0-1.442-.068-1.441-1.269q.062-41.186.043-82.369a2.489,2.489,0,0,1,.057-.375q3.085,0,6.172.007c3.721,0,7.442.012,11.162-.009.961,0,2.021.309,2.744-.729.136-.2.619-.461.742-.009.312,1.138,1.2.719,1.865.729,2.972.04,5.944.059,8.915-.007.9-.021,1.812.286,2.674-.762.507-.614,1.442.88,2.6.868,3.007-.032,6.01-.357,9.031-.117C117.118,293.67,119.4,293.531,121.668,293.535Z" transform="translate(2.14 28.366)"/><path class="k" d="M235.517,274.813c-1.312-1.334-1.7-3.126-2.379-4.777a2.466,2.466,0,0,0-.6-1.45q-.459-2.632-.918-5.267l-.059-4.415.105-3.907q.191-2.078.383-4.155a13.205,13.205,0,0,0,.382-4.205,19.36,19.36,0,0,1,3.051-8.206c3.266-5.011,6.376-10.127,9.414-15.28a9.555,9.555,0,0,0,1.714-3.616c-1.1.463-1.364,1.36-1.812,2.063-5.242,8.2-9.526,17.011-15.572,24.712-.2.249-.115.719-.163,1.086a13.7,13.7,0,0,1-6.659.552c-3.144-.364-6.3-.636-9.412-1.217l-1.41-.071c-.675-.086-1.291-.56-2.018-.3-1.047.075-1.569-.349-1.743-1.453a43.307,43.307,0,0,0-1.174-6.874.9.9,0,0,1,.8-1.24,63.411,63.411,0,0,0,10.07-2.769c2.411-.489,5.165-.438,5.826-3.691q1.119-2.3,2.237-4.594a7.022,7.022,0,0,0,1.97-3.732,23.081,23.081,0,0,0,2.673-4.26q1.332-2.042,2.661-4.083c1.405-1.97,3.678-2.818,5.5-4.25,1.326-.518,2.638-1.081,3.984-1.542a1.978,1.978,0,0,0,1.5-2.256c.472-1.419.978-2.829,1.4-4.262.2-.685.489-1.055,1.273-1.094,3.7-.185,7.37-.777,11.087-.773a17.283,17.283,0,0,0,2.548-.371c1.3-.044.977,1.4,1.713,1.877.417,1.185.909,2.35,1.233,3.561.351,1.311,1.427.994,2.29,1.192,1.872,1.222,3.89,2.253,5.3,4.073a10.016,10.016,0,0,0,2.429,3.749l3.036,4.186a29.112,29.112,0,0,0,3.368,4.225c.363,1.642,1.59,2.661,2.709,3.758,1.094,1.566,1.876,3.357,3.337,4.659a26.166,26.166,0,0,0,3.018,4.1q.98,1.921,1.96,3.839.42,2.076.841,4.153l-.311,4.078q-.627,2.119-1.252,4.237-.737,2.086-1.474,4.171a13.586,13.586,0,0,0-1.322,3.618q-.855,2.381-1.707,4.762c-.978,1.6-1.213,3.49-1.96,5.183l-1.558.141c-3.181-1-3.215-1-3.795,2.156a30.987,30.987,0,0,1-1.222,3.971Zm30.26-45.034c.894-1.514-.256-2.859-.136-4.283,1.721-.291,3.338-.555,4.953-.839,1.515-.268,3.078-.407,4.363-1.439a68.91,68.91,0,0,1-25.043,1.052,2.24,2.24,0,0,0,1.938,1.053,54.24,54.24,0,0,0,7.575.433c3.28-.04,3.275-.011,4.053,3.122.082.33.015.788.665.917.505-1.061-.249-2.036-.248-3.039,0-.38-.536-.867.17-1.094.824-.267.737.507.862.906C265.256,227.623,265.5,228.707,265.777,229.779Z" transform="translate(32.839 7.546)"/><path class="h" d="M209.475,293.524c.039.629.112,1.258.112,1.887q.009,40.089.044,80.177c0,1.571-.352,1.962-1.942,1.954q-22.324-.1-44.648,0c-1.666.009-1.939-.432-1.771-1.986.811-7.469,1.537-14.948,2.232-22.43.876-9.431,1.762-18.862,2.515-28.3.763-9.57,1.367-19.154,2.048-28.73a6.176,6.176,0,0,1,.3-2.6c5.545.011,11.088.044,16.632.017,1.195,0,2.522.437,3.507-.746a.416.416,0,0,1,.747.135c.256.928.992.61,1.551.615,3.22.027,6.441.018,9.662.01.846,0,1.76.121,2.176-.918.611.506,1.094,1.074,2.1.966A44.867,44.867,0,0,1,209.475,293.524Z" transform="translate(22.728 28.379)"/><path class="g" d="M297.548,286.863h14.064a7.046,7.046,0,0,1-1.537,3.43c-3.139,3.768-3.028,7.908-2.074,12.423,1.119,5.3,1.831,10.689,2.569,16.06.5,3.627,1.28,7.2,1.826,10.814.572,3.806,1.17,7.607,1.77,11.409q2.166,13.739,4.345,27.477.266,1.682.542,3.363c.031.187.166.39.122.55-.648,2.431,1,4.472,1.134,6.8.149,2.507.713,4.991,1.1,7.483.01.062.037.122.048.185.6,3.468-.4,4.872-3.908,4.917-2.234.029-4.5.435-6.745-.271-.588-.185-1.353.342-2.108.339-5.827-.033-11.655-.011-17.483-.021-2.633,0-3.852-1.288-3.474-3.947.871-6.121,1.84-12.228,2.8-18.335,1.211-7.661,2.457-15.318,3.685-22.977q2.623-16.346,5.24-32.692c.907-5.664,1.824-11.329,2.7-17,.226-1.476-.795-2.581-1.4-3.786C299.752,291.071,298.327,289.275,297.548,286.863Z" transform="translate(50.909 27.103)"/><path class="g" d="M130,224.6c-1.886,6.47-.028,12.755.976,19.073.613,3.859,1.386,7.694,2,11.553.166,1.038.572,1.378,1.586,1.285,1.631-.15,3.551.58,4.838-.313,1.35-.939.545-2.939.676-4.457.664-7.678,1.236-15.365,1.789-23.052a6.964,6.964,0,0,1,1.1-3.369c.334-.514.7-1.2,1.45-.912.632.245.515.94.473,1.5-.308,4.159-.682,8.313-.922,12.475-.385,6.678-1.207,13.329-1.228,20.03-.294,6.052-.626,12.1-.85,18.16-.045,1.214-.174,1.749-1.615,1.741-11.779-.066-23.559-.053-35.339-.021-1.735,0-2.161-.893-1.965-2.359q3.091-23.272,6.194-46.544c.64-4.822.616-4.83,5.449-4.824Q122.3,224.578,130,224.6Z" transform="translate(9.733 13.168)"/><path class="c" d="M83.309,368.17l3.346-33.548,21.8.015c-.148,2.246.554,4.4.707,6.621.231,3.359.841,6.7.885,10.061.034,2.545,1.061,4.948.795,7.478a13.437,13.437,0,0,0,.141,4.347c.44,1.659-.009,3.5.98,5.006q.007.842.016,1.683c-.493.345-1.34.682-.213,1.234.444.218.621.544.5.856-.587,1.509.439,2.826.444,4.267,0,.924.155,1.779-1.319,2.014,1.25-.081,2.067.5,1.557,1.332-.473.772.19,1,.168,1.482H81.97l1.053-11.1Zm26.176-21.8-.307-.482c-.089.142-.247.282-.247.426s.154.286.241.43Zm.19,3.714c-.038-.042-.086-.122-.114-.116a1.119,1.119,0,0,0-.241.11c.039.04.086.121.115.116A.941.941,0,0,0,109.674,350.087Z" transform="translate(5.064 37.747)"/><path class="i" d="M156.468,293.413q.209,20.049.418,40.1c.136,14.048.231,28.1.407,42.145.018,1.436-.28,1.913-1.822,1.882-5.308-.108-10.619-.042-15.941-.042.327-3.637.731-7.145,1.273-10.574,1.253-7.94,2.632-15.87,3.589-23.846.333-2.767.9-5.526,1.255-8.284.361-2.816.873-5.724,1.212-8.554.279-2.32.636-4.724.9-7.035a89.645,89.645,0,0,1,1.674-9.74c.437-1.9-.252-3.919.789-5.712.179-.306.1-.677-.3-.723-1.153-.131.285-1.115-.468-1.353,2.792-1.344.984-4.218,2.023-6.184.427-.81.1-1.959.537-2.882C153.26,294.189,154.947,293.343,156.468,293.413Z" transform="translate(17.892 28.384)"/><path class="g" d="M202.138,343.416c6.693,2.77,12.47,7.1,18.3,11.232,3.477,2.468,7.236,4.5,10.577,7.172a16.966,16.966,0,0,0,3.76,1.735c-.039,1.044.023,2.034,1.47,2.431-1.349-.009-1.538.662-1.456,1.658.061.739-.032,1.315,1.064,1.289,1.432-.032.846,1.323.947,1.982.1.68.128,1.785-1.318,1.692-4.031-.258-7.475,1.673-11.028,3.154-.813.34-1.812.792-1.955,1.675-.328,2.017-1.712,1.718-3.071,1.714-5.321-.016-10.644-.1-15.961.043-1.822.048-2.194-.561-2.1-2.2.133-2.273-.251-4.6.083-6.832C202.777,361.263,201.662,352.322,202.138,343.416Z" transform="translate(31.661 39.707)"/><path class="g" d="M259.2,340.858c.36.751-.04,1.985,1.331,2.092l-.355.34c-.888.7-.346,1.667-.275,2.413.728,7.614,1.565,15.216,2.375,22.821.02.188,0,.488.108.542,3.058,1.6,1.416,4.642,2.123,6.956a19.537,19.537,0,0,1,.386,2.816c.1.667-.159.885-.818.885-9.049-.013-18.1-.009-27.268-.009.62-3.175,1.214-6.2,1.8-9.223.083-.43.066-1.026.669-.955,1.856.216,1.518-1.069,1.675-2.18.485-3.442.419-6.944,1.146-10.358a91.231,91.231,0,0,0,7.126-6.871c2.361-2.794,5.351-4.892,7.741-7.628A4.058,4.058,0,0,1,259.2,340.858Z" transform="translate(39.573 39.137)"/><path class="g" d="M164.02,372.343c.291,1.954-.525,2.495-2.475,2.416-4.174-.166-8.358-.094-12.537-.024a3.335,3.335,0,0,1-2.98-1.224,6.3,6.3,0,0,0-.668-.673c-3.6-3.419-3.6-3.413-8.007-1-.462.253-.961.445-.85,1.079.309,1.762-.669,1.84-2.059,1.822q-7.979-.106-15.959,0c-1.2.016-1.482-.322-1.445-1.476.088-2.783.062-5.573.01-8.358-.018-.98.124-1.445,1.3-1.43,5.065.067,10.213-.512,15.167.235,2.9.438,5.792.293,8.615.8,1.53.278,2.231-1.053,3.538-1.036,5.065.062,10.132.02,15.2.032.637,0,1.5-.258,1.443.9,1.241.372,1.612,1.168,1.559,2.473A21.08,21.08,0,0,0,164.02,372.343Z" transform="translate(12.879 44.144)"/><path class="e" d="M91.857,279.986c8.932,0,17.864.059,26.794-.05,1.821-.022,2.262.551,2.1,2.208a23.352,23.352,0,0,0,0,4.176c.113,1.319-.43,1.563-1.62,1.555-7.157-.048-14.315-.024-21.473-.024-10.959,0-21.918-.023-32.876.029-1.354.007-1.966-.232-1.823-1.741a25.528,25.528,0,0,0,0-4.555c-.121-1.411.455-1.634,1.718-1.626C73.741,280.009,82.8,279.986,91.857,279.986Z" transform="translate(0.823 25.559)"/><path class="i" d="M155.769,372.333a21.08,21.08,0,0,1-.155-5.457c.053-1.3-.318-2.1-1.559-2.473,2.465.009,5.079.553,7.368-.078,6.31-1.741,12.657-.519,18.97-.775,6.445-.262,12.91.018,19.363-.106,1.825-.035,2.216.558,2.127,2.226-.133,2.525-.07,5.063-.017,7.593.02.976-.114,1.47-1.3,1.464-8.987-.049-17.974-.034-26.962-.013a4.851,4.851,0,0,1-1.986-.528c-2.891-1.256-5.814-2.446-8.646-3.822a3.2,3.2,0,0,0-3.325.053C158.4,371.13,157.066,371.7,155.769,372.333Z" transform="translate(21.13 44.154)"/><path class="e" d="M191.767,279.983c7.347,0,14.693.034,22.039-.032,1.328-.011,1.769.335,1.674,1.674a46.188,46.188,0,0,0-.011,4.938c.035.976-.273,1.343-1.289,1.31-2.087-.068-4.179-.021-6.268-.021-12.92,0-25.839-.023-38.759.034-1.4.006-1.917-.284-1.747-1.75.175-1.5.125-3.033.153-4.552.023-1.191.452-1.656,1.79-1.641C176.821,280.026,184.294,279.983,191.767,279.983Z" transform="translate(24.098 25.561)"/><path class="d" d="M121.67,294.667c-2.27,0-4.55.135-6.807-.045-3.021-.24-6.024.086-9.031.117-1.163.012-2.1-1.482-2.6-.868-.862,1.048-1.776.741-2.674.762-2.97.066-5.943.048-8.915.007-.665-.01-1.553.41-1.865-.729-.124-.452-.607-.187-.742.009-.723,1.038-1.783.724-2.744.729-3.72.021-7.441.01-11.162.009q-3.085,0-6.172-.007c-.023-1.833.029-3.674-.1-5.5-.093-1.332.341-1.7,1.677-1.689,7.022.064,14.044.026,21.065.026,9.492,0,18.984.032,28.476-.033,1.359-.01,1.814.363,1.652,1.68C121.5,290.971,122.131,292.825,121.67,294.667Z" transform="translate(2.138 27.234)"/><path class="d" d="M208.182,294.668a44.867,44.867,0,0,0-4.731.049c-1.009.108-1.492-.46-2.1-.966-.416,1.039-1.329.917-2.176.918-3.221.009-6.442.017-9.662-.01-.559,0-1.3.313-1.551-.615a.416.416,0,0,0-.747-.135c-.986,1.183-2.312.741-3.507.746-5.545.027-11.088-.006-16.632-.017-.155-1.936.186-3.852.215-5.777.02-1.251.558-1.411,1.619-1.409q18.86.044,37.721,0c1.159,0,1.734.2,1.645,1.535C208.145,290.873,208.2,292.773,208.182,294.668Z" transform="translate(24.022 27.234)"/><path class="e" d="M181.631,272.3c0-2.846.042-5.692-.021-8.537-.024-1.082.159-1.569,1.421-1.537,3.6.092,7.209.072,10.813.009,1.119-.02,1.543.23,1.53,1.452q-.094,8.726,0,17.453c.016,1.3-.437,1.585-1.641,1.56q-5.309-.108-10.623,0c-1.157.022-1.533-.309-1.5-1.483C181.681,278.249,181.631,275.275,181.631,272.3Z" transform="translate(27.27 21.612)"/><path class="e" d="M125.853,279.983c4.368,0,8.736.043,13.1-.028,1.154-.02,1.6.245,1.459,1.448a18.553,18.553,0,0,0-.194,3.966c.215,2.14-.638,2.568-2.662,2.536-8.1-.127-16.2-.11-24.306-.006-1.744.022-2.215-.505-2.041-2.133a15.98,15.98,0,0,0-.006-3.791c-.24-1.789.528-2.07,2.116-2.029C117.5,280.056,121.676,279.983,125.853,279.983Z" transform="translate(11.57 25.56)"/><path class="d" d="M139.19,294.674c-2.755-.534-5.512.17-8.286-.044-2.871-.224-5.778.024-8.669.04-2.961.017-5.92,0-8.881,0-.04-1.889-.077-3.779-.124-5.668-.024-1.009.2-1.576,1.466-1.568,7.824.051,15.648.021,23.472-.016,1.036,0,1.461.314,1.366,1.4C139.366,290.77,139.3,292.724,139.19,294.674Z" transform="translate(12.03 27.227)"/><path class="e" d="M131.352,276.924c1.639,0,3.277.022,4.915-.01.788-.015,1.364.058,1.3,1.082-.051.811-.045,1.45-1.192,1.431-3.528-.059-7.057-.043-10.586-.006-.9.009-1.2-.3-1.214-1.2-.012-.975.291-1.349,1.3-1.313C127.694,276.97,129.524,276.924,131.352,276.924Z" transform="translate(14.558 24.883)"/><path class="d" d="M154.193,294.575c-1.521-.071-3.208.775-4.456-.8.249-1.8.468-3.6.755-5.393.264-1.659,1.587-.668,2.414-.868.742-.181,1.329.018,1.3,1.043C154.152,290.559,154.192,292.569,154.193,294.575Z" transform="translate(20.167 27.222)"/><path class="i" d="M83.4,363.5l-1.053,11.1c-1.455.373-2.136.026-2.031-1.69a56.887,56.887,0,0,0,0-7.348c-.122-1.765.472-2.364,2.147-2.083A6.518,6.518,0,0,0,83.4,363.5Z" transform="translate(4.69 44.164)"/><path class="e" d="M107.788,374.6c.022-.481-.641-.71-.168-1.482.51-.832-.307-1.412-1.557-1.332,1.475-.235,1.322-1.09,1.319-2.014,0-1.441-1.031-2.758-.444-4.267.121-.312-.056-.638-.5-.856-1.127-.552-.28-.889.213-1.234,2.677.149,2.677.149,2.677,2.86,0,2.316-.068,4.633.028,6.945C109.409,374.489,109.042,374.968,107.788,374.6Z" transform="translate(10.393 44.164)"/><path class="e" d="M75.943,366.024c.549,2.42.158,4.873.235,7.31.04,1.3-1.046.762-1.686.828s-1.433.22-1.371-.934c.128-2.387-.18-4.784.163-7.167Z" transform="translate(3.09 44.746)"/><path class="e" d="M79.61,366.094c.023,2.322-.028,4.648.1,6.966.067,1.207-.574,1.2-1.372,1.115-.7-.076-1.74.439-1.684-1.015.09-2.38.1-4.762.147-7.143Z" transform="translate(3.879 44.744)"/><path class="e" d="M112.849,366.1c.029,2.341.013,4.682.105,7.021.056,1.449-.95,1-1.674,1.049-.756.049-1.5.185-1.427-1.087.131-2.334.086-4.679.115-7.019Z" transform="translate(11.277 44.754)"/><path class="e" d="M197.2,366.091c.038,2.381.053,4.762.126,7.142.04,1.334-.927.915-1.568.911s-1.615.429-1.582-.907c.06-2.382.067-4.764.1-7.146Z" transform="translate(30.071 44.761)"/><path class="e" d="M200.843,366.089c.029,2.32,0,4.643.111,6.958.067,1.388-.825,1.11-1.6,1.118s-1.655.254-1.582-1.121c.122-2.314.1-4.635.141-6.952Z" transform="translate(30.873 44.76)"/><path class="e" d="M116.363,366.091c.039,2.327.022,4.658.139,6.981.072,1.423-.872,1.046-1.62,1.1-.883.059-1.591.053-1.529-1.225.11-2.262.067-4.533.088-6.8Z" transform="translate(12.057 44.761)"/><path class="e" d="M154.02,283.963c0,.882-.037,1.766.011,2.646.045.829-.137,1.23-1.114,1.272-2.443.105-2.449.126-2.03-2.286.236-1.361.393-2.737.525-4.113.1-1,.345-1.592,1.577-1.537,1.261.055,1,.852,1.025,1.559C154.04,282.323,154.02,283.143,154.02,283.963Z" transform="translate(20.377 25.56)"/><path class="b" d="M186.661,263.807c-.061-4.6-.677-9.152-1.116-13.719-.056-.593-.117-1.272.605-1.366.794-.1.784.632.841,1.194.461,4.565,1.127,9.113,1.139,13.717l-.71.23Z" transform="translate(28.141 18.6)"/><path class="c" d="M190.065,263.492q.6-6.006,1.2-12.01c.061-.605-.033-1.456.9-1.329.906.124.618.98.559,1.549-.4,3.939-1,7.857-1.1,11.823A1.87,1.87,0,0,1,190.065,263.492Z" transform="translate(29.155 18.918)"/><path class="f" d="M249.259,294.166l-2.459,0q.352-4.034.7-8.065C248.746,288.664,248.839,291.45,249.259,294.166Z" transform="translate(41.8 26.932)"/><path class="l" d="M153.183,269.926a73.818,73.818,0,0,1,.133,10.789C151.965,277.257,152.388,273.787,153.183,269.926Z" transform="translate(20.77 23.328)"/><path class="k" d="M116.364,366.7l-2.921.05c-.021-.5-.023-1.009-.065-1.51-.09-1.1-.059-1.892,1.5-1.883,1.488.007,1.677.666,1.551,1.833C116.378,365.69,116.384,366.2,116.364,366.7Z" transform="translate(12.057 44.152)"/><path class="k" d="M200.832,366.7l-2.928,0c-.021-.375-.07-.752-.057-1.126.032-1.043-.433-2.226,1.514-2.224s1.5,1.169,1.521,2.222C200.892,365.948,200.85,366.324,200.832,366.7Z" transform="translate(30.884 44.15)"/><path class="k" d="M197.193,366.7h-2.928c-.018-.377-.06-.752-.051-1.128.026-1.052-.415-2.221,1.522-2.222s1.482,1.181,1.514,2.224C197.261,365.95,197.213,366.326,197.193,366.7Z" transform="translate(30.074 44.15)"/><path class="k" d="M112.854,366.691l-2.881-.037a14.25,14.25,0,0,0-.1-1.7c-.29-1.637.866-1.444,1.851-1.549,1.327-.142,1.218.734,1.187,1.579C112.89,365.552,112.872,366.122,112.854,366.691Z" transform="translate(11.272 44.159)"/><path class="k" d="M79.6,366.668l-2.808-.077c-.028-.565-.016-1.136-.092-1.694-.171-1.252.49-1.406,1.551-1.45,1.217-.05,1.576.406,1.428,1.525C79.61,365.53,79.629,366.1,79.6,366.668Z" transform="translate(3.884 44.171)"/><path class="l" d="M266.677,264.481c1.128-.2,1.937-.15,1.877,1.414-.048,1.258-.192,2.076-1.737,1.914a15.962,15.962,0,0,0-2.434.1c-.029-.131-.057-.263-.086-.394C266.451,267.571,266.387,265.887,266.677,264.481Z" transform="translate(45.7 22.096)"/><path class="b" d="M75.93,366.6l-2.66.037q-.039-.756-.075-1.511c-.043-.917-.126-1.7,1.29-1.681,1.283.018,1.7.45,1.542,1.648C75.96,365.589,75.96,366.1,75.93,366.6Z" transform="translate(3.104 44.171)"/><path class="i" d="M266.707,264.477c-.29,1.406-.225,3.09-2.379,3.035a.33.33,0,0,1-.113-.345,1.7,1.7,0,0,0-.048-1.828q-.005-.462-.009-.922Z" transform="translate(45.67 22.1)"/><path class="m" d="M232.073,340.3c-.633-.611-1.549-.972-1.751-2.01a.678.678,0,0,1,.619-.9c.487-.048.671.33.43.736C230.753,339.173,233.1,339.123,232.073,340.3Z" transform="translate(38.123 38.363)"/><path class="n" d="M233.681,358.89c.029.466-.093,1.147-.63,1.035-.822-.171.172-1.46-.8-1.754.236-.225.483-.651.706-.64C233.8,357.576,233.365,358.412,233.681,358.89Z" transform="translate(38.558 42.853)"/><path class="n" d="M264.151,262.836l2.61.02c-.549,1.416-1.754.374-2.595.692Z" transform="translate(45.668 21.748)"/><path class="l" d="M232.07,294c-.752-.412-1.379-.662-1.288-1.4.05-.407.525-.279.767-.218C232.42,292.606,232.161,293.26,232.07,294Z" transform="translate(38.229 28.318)"/><path class="l" d="M264.167,265.171a1.7,1.7,0,0,1,.048,1.828Z" transform="translate(45.671 22.268)"/><path class="c" d="M184.787,260.988a.33.33,0,0,1-.191.191,1.294,1.294,0,0,1-1.141-.007.416.416,0,0,1-.186-.192Z" transform="translate(27.641 21.334)"/><path class="g" d="M256.276,342.57c.555-.064.554.328.531.688a.394.394,0,0,1-.527.337.478.478,0,0,1-.358-.686Z" transform="translate(43.825 39.517)"/><path class="c" d="M187.072,261.143l.71-.23a.165.165,0,0,1,.028.216Z" transform="translate(28.488 21.319)"/><path class="i" d="M141.613,345.37c0,.045.015.1-.006.132s-.1.076-.127.062c-.179-.084-.176-.185.006-.26C141.516,345.292,141.572,345.347,141.613,345.37Z" transform="translate(18.298 40.128)"/><path class="j" d="M101.415,210.142c-.032,1.516-.106,3.033-.078,4.547.017.943-.243,1.365-1.278,1.36q-11.2-.048-22.4,0c-.972,0-1.324-.294-1.323-1.3q.04-18.888,0-37.777c0-1.027.368-1.283,1.318-1.279q11.2.039,22.4,0c1.011,0,1.288.368,1.284,1.333-.04,9.929-.033,19.857-.088,29.786,0,.577.109,1.113.157,1.668A1.8,1.8,0,0,0,101.415,210.142Zm-23.55-14.591c0,5.7.034,11.4-.027,17.093-.013,1.207.262,1.6,1.54,1.582q9.5-.106,18.993,0c1.267.013,1.552-.357,1.547-1.575q-.07-17,0-34c0-1.2-.242-1.618-1.54-1.6q-9.494.106-18.991,0c-1.285-.013-1.562.384-1.548,1.6C77.9,184.282,77.865,189.917,77.865,195.551Z" transform="translate(3.807 2.325)"/><path class="n" d="M101.34,188.973c-1.589.558-1.8-.284-1.564-1.6.364.814,1.509.512,1.839,1.359C101.526,188.817,101.434,188.9,101.34,188.973Z" transform="translate(9.014 4.929)"/><path class="l" d="M96.883,204.167a1.8,1.8,0,0,1-.01-1.667c.125.125.249.251.375.374.327.323,1.025-.6,1.134.3.077.625-.5.741-.966.883C97.244,204.106,97.062,204.13,96.883,204.167Z" transform="translate(8.339 8.3)"/><path class="n" d="M99.456,202.985c.98,1.284.053,1.811-.888,2.621C98.337,204.369,99.606,203.936,99.456,202.985Z" transform="translate(8.757 8.408)"/><path class="n" d="M101.808,188.606c.238.044.2.21.161.373-.394.221-.786.438-.929-.254.094-.075.186-.155.275-.238Z" transform="translate(9.314 5.177)"/><path class="n" d="M101.833,187.6l-.194.477C101.543,187.853,101.645,187.71,101.833,187.6Z" transform="translate(9.439 4.98)"/><path class="b" d="M154.179,208.566a22.458,22.458,0,0,0,.712-6.154,1.318,1.318,0,0,0-.283-.854c-.571-.648-1.228-1.388-.457-2.127.674-.647,1.663-.021,2.486.048.657.055.671.889.417,1.414-1.294,2.681-.223,5.208.428,7.768-.488,2.138-.976,4.274-1.564,6.848C154.872,213.012,154.776,210.722,154.179,208.566Z" transform="translate(21.073 7.552)"/><path class="j" d="M168.783,229.262l-1.357,9.476c-1.125-3.7-.115-7.347.215-11.046C168.6,227.835,168.466,228.711,168.783,229.262Z" transform="translate(23.994 13.915)"/><path class="e" d="M149.292,207.719a8.906,8.906,0,0,1-5.386-.515C145.756,206.765,147.527,207.283,149.292,207.719Z" transform="translate(18.868 9.311)"/><path class="e" d="M161.884,208.773a8.532,8.532,0,0,1,5.209.479C165.315,209.724,163.608,209.162,161.884,208.773Z" transform="translate(22.875 9.646)"/><path class="a" d="M233.673,185.432a9.293,9.293,0,0,1,.432-4.188c.164-.253.333-.506.494-.764a3.909,3.909,0,0,1,5.027-1.853c3.258,1.009,6.248,3.054,9.888,2.6,2.319.51,3.463,2.191,4.236,4.245q.227,1.757.452,3.512-.174,2.264-.35,4.527c-.066,1.386-.611,2.743-.264,4.155l.539,3.766c-1.823.139-3.644.331-5.47.407-2.546.106-4.036-1.323-3.971-3.888.038-1.5.352-3,.474-4.5.042-.521.23-1.235-.451-1.493-.745-.284-1.141.3-1.483.852a8.825,8.825,0,0,0-1.065,3.28c-2.223-.382-1.3-2.008-1.3-3.21.01-1.3.119-2.61.192-4.053-1.491.352-2.906.666-4.295.022A8.726,8.726,0,0,1,233.673,185.432Z" transform="translate(38.866 2.917)"/><path class="m" d="M252.135,201.41c-.736-.476-.41-1.921-1.713-1.877q.006-1.135.012-2.271,16.5.035,33.008.075a7.119,7.119,0,0,1,2.629.213q-.022,1.9-.044,3.8-11.927.05-23.856.093C258.826,201.45,255.481,201.421,252.135,201.41Z" transform="translate(42.608 7.133)"/><path class="n" d="M211.841,201.383q-.055-1.988-.109-3.977c8.657-.028,17.315-.033,25.971-.109,1.549-.013,1.308.986,1.6,1.959.652,2.149-.359,2.233-2.063,2.216C228.778,201.384,220.309,201.4,211.841,201.383Z" transform="translate(33.985 7.141)"/><path class="m" d="M242.732,204.434a1.978,1.978,0,0,1-1.5,2.256c-1.346.461-2.659,1.024-3.984,1.542q-10.487-.05-20.976-.1c-1.51-.009-3.022-.055-4.532-.084q.053-1.794.106-3.588Z" transform="translate(33.985 8.731)"/><path class="m" d="M211.8,194.8v-4H239.34c-.632,1.328-1.833,2.387-.8,3.768a.33.33,0,0,1-.1.316Z" transform="translate(34 5.694)"/><path class="l" d="M238.533,184.141a8.726,8.726,0,0,0,3.091,3.418c-6.135.038-12.269.089-18.4.108-3.8.012-7.593-.024-11.389-.039v-3.4Z" transform="translate(34.007 4.208)"/><path class="j" d="M233.624,194.2a.33.33,0,0,0,.1-.316c1.63.4.622,1.573.687,2.424,0,.049-.311.177-.473.172-.375-.013-.533-.268-.5-.625C233.489,195.306,233.561,194.755,233.624,194.2Z" transform="translate(38.821 6.381)"/><path class="n" d="M280.006,272.182l-.275.2c.048-.033.1-.066.144-.1l.139-.1Z" transform="translate(49.14 23.831)"/><path class="n" d="M279.964,272.194l.039-.049-.047.045Z" transform="translate(49.19 23.823)"/><path class="l" d="M211.759,174.775a35.071,35.071,0,0,0,.082-3.6c-.093-1.285.245-1.829,1.642-1.723,1.637.124,3.291.028,4.938.028q36.954,0,73.908-.043c1.869,0,2.694.379,2.385,2.363a18.724,18.724,0,0,0-.028,2.847,19.942,19.942,0,0,1-2.062.207q-39.579.015-79.161,0C212.9,174.859,212.328,174.8,211.759,174.775Z" transform="translate(33.991 0.931)"/><path class="o" d="M254.395,181.51c-3.64.452-6.63-1.592-9.888-2.6a3.909,3.909,0,0,0-5.027,1.853c-.161.258-.33.511-.494.764-.673-.523-1.458-.289-2.19-.291q-12.468-.053-24.934-.066-.061-2-.125-4c.7-.027,1.39-.079,2.085-.079q39.214-.005,78.428,0c.817,0,1.635.105,2.452.16l-.051,3.883q-10.6.048-21.2.09c-5.681.015-11.362,0-17.042.012C255.734,181.235,255.012,181.032,254.395,181.51Z" transform="translate(33.985 2.635)"/><path class="d" d="M159.669,187.753c-.2.542-.33,1.158-1.105,1.151-.055-.046-.109-.094-.16-.143.024-.719.648-.863,1.113-1.161C159.568,187.649,159.619,187.7,159.669,187.753Z" transform="translate(22.099 4.979)"/><path class="d" d="M158.7,188.693c-.258.122-.514.251-.778.355-.022.009-.176-.185-.154-.229.163-.33.481-.271.772-.269C158.6,188.6,158.649,188.647,158.7,188.693Z" transform="translate(21.958 5.19)"/><path class="d" d="M159.414,187.45a.612.612,0,0,1-.423-.7c0-.037.279-.088.287-.07.094.21.16.433.235.652Z" transform="translate(22.228 4.773)"/><path class="d" d="M158.082,185.765l.054-.061-.042.054Z" transform="translate(22.027 4.557)"/><path class="d" d="M158.1,185.748l-.048.059.036-.052Z" transform="translate(22.021 4.567)"/><path class="d" d="M159.441,187.211c.371.2.262.408.024.629-.049-.053-.1-.1-.152-.153a1.125,1.125,0,0,1,.028-.356Z" transform="translate(22.301 4.893)"/><path class="l" d="M250.536,187.686q-.226-1.755-.452-3.512,16.777,0,33.553.007c.819,0,1.639.061,2.458.094v3.288q-10.5.05-20.992.1C260.247,187.679,255.393,187.679,250.536,187.686Z" transform="translate(42.532 4.216)"/><path class="m" d="M249.973,194.9c-.347-1.412.2-2.77.264-4.155q16.648.006,33.3.017c.879,0,1.76.075,2.64.115q0,1.939,0,3.877c-3.219.042-6.438.109-9.658.117Q263.244,194.909,249.973,194.9Z" transform="translate(42.482 5.681)"/><path class="m" d="M260,208.643c-1.41-1.821-3.428-2.852-5.3-4.073.689-.055,1.378-.16,2.068-.158q14.15.031,28.3.089l.048,3.422a8.668,8.668,0,0,1-3,.208c-6.682.012-13.364,0-20.045.022C261.372,208.155,260.532,207.814,260,208.643Z" transform="translate(43.562 8.726)"/><path class="m" d="M264.06,215.124l-3.036-4.186q10.107.015,20.211.035c.816,0,1.631.077,2.447.117q0,1.939,0,3.877-8.775.061-17.549.122C265.443,215.095,264.753,215.112,264.06,215.124Z" transform="translate(44.971 10.181)"/><path class="m" d="M231.731,211.015q-1.33,2.042-2.661,4.083l-17.268-.088q0-2,0-4Z" transform="translate(34 10.198)"/><path class="l" d="M222.187,224.647c-.66,3.253-3.414,3.2-5.826,3.691-1.481-.569-3.051.023-4.547-.35q.005-1.66.012-3.319Z" transform="translate(34.003 13.236)"/><path class="j" d="M206.786,237.372c-1.113-.713-1.7.878-1.73.955-.816,1.856-2.57,1.37-3.962,1.725-.743-1.261-.28-2.147.773-3.007,1.658-1.356,4.032-1.68,4.947-.569C207.087,236.811,207.254,237.086,206.786,237.372Z" transform="translate(31.532 15.723)"/><path class="j" d="M199.859,239.107c-1.109.251-.675-.516-.664-1l1.587-1.866C201.193,237.728,199.715,238.114,199.859,239.107Z" transform="translate(31.17 15.819)"/><path class="l" d="M268.97,221.574c-1.119-1.1-2.345-2.116-2.709-3.758l16.229.021V221.5Z" transform="translate(46.138 11.714)"/><path class="l" d="M226.391,217.849a7.022,7.022,0,0,1-1.97,3.732l-12.59-.015v-3.78Z" transform="translate(34.007 11.707)"/><path class="m" d="M274.223,228.826a26.164,26.164,0,0,1-3.018-4.1c3.4-.176,6.793-.155,10.191-.007q.022,1.71.045,3.422c-1.771.438-3.573.1-5.356.221C275.445,228.4,274.7,228.088,274.223,228.826Z" transform="translate(47.24 13.225)"/><path class="l" d="M269.4,256.837c.747-1.692.982-3.578,1.96-5.183h10.52c-.011,1.324-.077,2.652-.013,3.974.048,1-.317,1.311-1.3,1.293C276.845,256.855,273.122,256.859,269.4,256.837Z" transform="translate(46.838 19.255)"/><path class="m" d="M272.4,248.42a13.632,13.632,0,0,1,1.323-3.618l7.424.182q0,1.748,0,3.5A52.28,52.28,0,0,1,272.4,248.42Z" transform="translate(47.506 17.728)"/><path class="m" d="M274.686,242.162q.625-2.119,1.252-4.237l4.68.166q.024,1.9.048,3.8C278.69,242.373,276.673,241.932,274.686,242.162Z" transform="translate(48.016 16.196)"/><path class="l" d="M276.117,235.347q-.42-2.076-.841-4.153c1.746.158,3.518-.219,5.252.245q-.022,1.891-.042,3.784Z" transform="translate(48.147 14.695)"/><path class="i" d="M231.817,248.046l.059,4.415-18.626.067-1.454-.012c-1.76-.01-3.518-.011-5.278-.038-.347-.006-.813.17-1.006-.264-.183-.413.223-.673.43-.964a21.256,21.256,0,0,1,2.127-2.862c1.049-1.041,2.509-.231,3.753-.516l1.394-.01c.822.02,1.645.051,2.467.059Q223.749,247.989,231.817,248.046Z" transform="translate(32.588 18.405)"/><path class="h" d="M232.285,241.447q-.193,2.076-.383,4.155l-18.705.106-1.4-.009h-6.249c1.2-3.594,2.085-4.194,6.316-4.411l1.249-.016c.758.029,1.515.079,2.275.084Q223.838,241.409,232.285,241.447Z" transform="translate(32.607 16.942)"/><path class="a" d="M210.651,251.663l1.454.012c0,1.33.06,2.663-.012,3.99-.056,1.022.345,1.278,1.316,1.269,6.08-.05,12.16-.045,18.24-.06a2.466,2.466,0,0,1,.6,1.45c-6.692,0-13.382-.021-20.074.044-1.253.011-1.641-.355-1.562-1.595C210.72,255.076,210.646,253.368,210.651,251.663Z" transform="translate(33.732 19.257)"/><path class="e" d="M185.207,262.358l-1.518-.009c-.692-1.96-1.394-3.917-2.07-5.883-.2-.583-.532-1.343.315-1.6.693-.21.923.528,1.1,1.05C183.78,258.057,184.488,260.21,185.207,262.358Z" transform="translate(27.221 19.963)"/><path class="a" d="M211.975,242l-1.249.016q-.026-2.012-.05-4.024l1.41.071Q212.029,240.034,211.975,242Z" transform="translate(33.749 16.211)"/><path class="j" d="M210.662,244.893l1.4.009v3.617l-1.394.01Q210.663,246.711,210.662,244.893Z" transform="translate(33.746 17.749)"/><path class="j" d="M110.654,341.1l-21.8-.015c-.571-1.109.371-.789.808-.794,2.337-.031,4.675-.045,7.011,0,.852.017,1.071-.225,1.279-1.114.878-3.775-.537-6.435-3.677-8.391-.889-1.044-1.9-.3-2.781-.075-1.441.377-2.819.991-4.224,1.5,1.315-1.636,3.2-2.019,5.13-2.665a30.4,30.4,0,0,0-4.846-2.277,23.1,23.1,0,0,0-14.078-1.712l-1.356-.2c.35-.653,1.024-.772,1.645-.982,6.679-.212,13.173.461,19.007,4.444.144-2.024-1.218-3.177-1.482-5.006a7.2,7.2,0,0,1,2.2,3.49c.362.865.04,2.087,1.228,2.556.98,1.454,2.791,2.174,3.474,4.336.674-2.568,1.284-4.737,1.8-6.929a33.712,33.712,0,0,1,3.382-8.556,7.286,7.286,0,0,0,.761-5.2,3.453,3.453,0,0,1,.013-2.411,9.989,9.989,0,0,1,.947,4.22c1.765-2.405,4.092-4.344,2.9-8.148,1.283,1.065.619,2.084,1.389,2.8a13.6,13.6,0,0,1,4.866-4.336c-1.318,1.714-3.072,3.055-4.171,4.97,1.017.361,2.1-.3,3.291.487-3.554-.033-6.271,1.105-7.214,4.863,1.6.177,3.338-.692,5.3.448-1.913.15-3.439.324-4.97.369a2.092,2.092,0,0,0-1.921,1.235,46.792,46.792,0,0,0-5.534,16.171c-.21,1.279.838,2.028,1.2,3.144,2.226-2.479,4.124-5.124,7.008-6.875.884-.537,1.134-2.147,1.633-3.283.364-.83.713-1.647,1.8-1.936-.657,1.43-1.313,2.859-1.995,4.345a10.2,10.2,0,0,0,8.146-5.091c.2,1.348-1.3,1.727-1.131,3.089,1.592-.275,3.039-1.037,4.662-1.087a24.655,24.655,0,0,1,4.345.032c.418.062,1.2-.087,1.1.693-.088.707-.713.52-1.213.461a24.6,24.6,0,0,0-8.1.615c.674.707,1.724.635,2.185,1.716-3.325-1.949-6.369-1.159-9.373.609,1.585,1.211,4,1.189,5.225,3.55-2.009-.3-3.017-1.71-4.456-2.337a3.637,3.637,0,0,0-4.462.7,36.214,36.214,0,0,0-4.367,4.637,2.683,2.683,0,0,0-.331,2.662c.333.858,1.229.412,1.861.426,2.405.053,4.813.006,7.22.034C110.44,340.292,111.4,340.047,110.654,341.1Zm-11.948-.479c1.075-1.642,1.412-2.821,0-4.286Z" transform="translate(2.868 31.287)"/><path class="d" d="M73.226,322A23.1,23.1,0,0,1,87.3,323.715a30.4,30.4,0,0,1,4.846,2.277c-1.93.646-3.815,1.028-5.13,2.665,1.405-.514,2.783-1.128,4.224-1.5.88-.23,1.892-.97,2.781.075a3.828,3.828,0,0,0-.182,1.112c.516,3.8-4.086,5.294-6.705,4.15a7.575,7.575,0,0,1-3.664-3.117,14.857,14.857,0,0,0-8.517-6.715C74.378,322.474,73.665,322.571,73.226,322Z" transform="translate(3.115 34.844)"/><path class="d" d="M94.417,326.969c-1.187-.468-.866-1.691-1.228-2.556a7.2,7.2,0,0,0-2.2-3.49c.264,1.829,1.626,2.983,1.482,5.006-5.834-3.983-12.328-4.655-19.007-4.444,2.432-1.591,5.244-2.032,8.012-2.486a21.96,21.96,0,0,1,10.822.6,10.535,10.535,0,0,1,3.474,1.856c1.055.894,1.906,1.942,1.51,3.424C96.907,326.28,95.735,326.768,94.417,326.969Z" transform="translate(3.167 34.177)"/><path class="l" d="M231.378,256.885c-6.08.015-12.16.01-18.24.06-.971.009-1.372-.247-1.316-1.269.072-1.327.013-2.66.012-3.99l18.626-.067Q230.92,254.252,231.378,256.885Z" transform="translate(34.003 19.247)"/><path class="m" d="M211.8,248.537v-3.617l18.706-.106q-.053,1.954-.105,3.907-8.067-.061-16.135-.125C213.448,248.588,212.625,248.556,211.8,248.537Z" transform="translate(34 17.731)"/><path class="m" d="M211.738,242.013q.055-1.97.111-3.938c3.116.581,6.268.852,9.412,1.217a13.7,13.7,0,0,0,6.659-.552c.879-1.334,2.243-.52,3.368-.759a13.205,13.205,0,0,1-.382,4.205q-8.447-.044-16.894-.089C213.253,242.093,212.5,242.043,211.738,242.013Z" transform="translate(33.986 16.201)"/><path class="e" d="M228.339,242.915c-1.125.24-2.489-.575-3.368.759.048-.367-.034-.836.163-1.086,6.046-7.7,10.33-16.508,15.572-24.712.449-.7.712-1.6,1.812-2.063a9.555,9.555,0,0,1-1.714,3.616c-3.038,5.153-6.147,10.269-9.414,15.28A19.36,19.36,0,0,0,228.339,242.915Z" transform="translate(36.935 11.268)"/><path class="e" d="M257.881,225.387c-.278-1.072-.521-2.156-.849-3.211-.125-.4-.038-1.173-.862-.906-.706.227-.17.714-.17,1.094,0,1,.753,1.977.248,3.039-.651-.13-.583-.587-.665-.917-.778-3.133-.773-3.162-4.053-3.122a54.24,54.24,0,0,1-7.574-.433,2.24,2.24,0,0,1-1.938-1.053,68.909,68.909,0,0,0,25.043-1.052c-1.285,1.032-2.848,1.171-4.363,1.439-1.614.284-3.232.548-4.953.839C257.626,222.528,258.775,223.873,257.881,225.387Z" transform="translate(40.735 11.939)"/><path class="g" d="M104.571,344.319l-.313.374c-.087-.144-.242-.287-.241-.43s.158-.284.247-.426Z" transform="translate(9.977 39.801)"/><path class="g" d="M104.691,347.29a1.009,1.009,0,0,1-.241.109c-.029,0-.076-.076-.115-.116a1.119,1.119,0,0,1,.241-.11C104.6,347.167,104.652,347.248,104.691,347.29Z" transform="translate(10.048 40.544)"/><path class="g" d="M77.591,195.3c0-5.634.035-11.269-.028-16.9-.013-1.213.263-1.611,1.548-1.6q9.494.1,18.991,0c1.3-.015,1.543.4,1.54,1.6q-.066,17,0,34c0,1.218-.28,1.589-1.547,1.575q-9.5-.1-18.993,0c-1.278.013-1.553-.375-1.54-1.582C77.625,206.7,77.591,201,77.591,195.3Z" transform="translate(4.081 2.573)"/><path class="e" d="M93.86,335.023v-4.286C95.272,332.2,94.935,333.381,93.86,335.023Z" transform="translate(7.714 36.881)"/></g></svg>