<svg xmlns="http://www.w3.org/2000/svg" width="325.559" height="314.367" viewBox="0 0 325.559 314.367"><defs><style>.a{fill:#f5f5f5;}.b{fill:#e0e0e0;}.c{fill:#fff;}.d{fill:none;stroke:#fbfbfb;stroke-miterlimit:10;stroke-width:0.25px;}.e{fill:#ebebeb;}.f{fill:#263238;}.g{fill:#0a437d;}.h{fill:#455a64;}.i{fill:#0048cd;}.j{fill:#f2f2f2;}.k{fill:#c4c9ce;}.l{fill:#99a2ab;}.m{opacity:0.6;}.n{fill:#75c6fa;}.o{fill:#0894fe;}.p{fill:#2680eb;}</style></defs><g transform="translate(-41.05 -115.338)"><path class="a" d="M53.567,300.933s6.394-2.1,9.458,12.655S66.55,336.5,66.55,336.5s1,3.19,3.353,1.925,6.276-5.6,9.2-3.828c3.029,1.837,3.11,5.8,1.011,11.019s-6.276,16.821-6.65,17.871c-.367,1.032-.188,2.748,1.55,2.142s12.719-7.683,15.766-2.271-5.189,18.989-6.061,20.491-.744,2.279-.084,2.89,4.126-2.116,7.332-4,7.253-3.508,8.749-.239-.81,14.515-16.229,29.592l-7.6,6.519-9.542-3.184c-20-8.057-26.425-17.572-26.289-21.165s4.5-3.636,8.179-3.116,7.928,1.719,8.3.9.2-1.584-1.18-2.64-14.169-10.466-13.417-16.63,13.6-3.81,15.44-3.914,1.349-1.758.616-2.571c-.746-.828-9.033-9.96-12.963-13.984s-5.368-7.718-3.268-10.572c2.025-2.752,7.31-.242,9.963.031s2.365-3.059,2.365-3.059-2.684-7.713-5.479-22.523S53.7,300.9,53.7,300.9"/><path class="b" d="M76.936,416.5c-2.093-10.869-5.113-25.86-8.5-42.408s-6.446-31.524-8.6-42.38c-1.069-5.418-1.936-9.807-2.538-12.859-.3-1.506-.533-2.681-.695-3.5-.081-.387-.143-.689-.189-.907s-.076-.307-.076-.307.008.107.042.313l.155.914c.147.818.359,2,.631,3.508.552,3.045,1.384,7.446,2.432,12.881,2.093,10.869,5.113,25.858,8.5,42.4s6.448,31.531,8.6,42.387"/><path class="b" d="M73.85,340.881a3.018,3.018,0,0,0-.428.585c-.258.388-.614.96-1.046,1.671-.862,1.423-2,3.421-3.215,5.649-1.185,2.2-2.256,4.181-3.084,5.717q-.554,1.016-.942,1.727a3.015,3.015,0,0,0-.318.651,2.936,2.936,0,0,0,.433-.582c.257-.389.613-.961,1.038-1.677.848-1.433,1.96-3.444,3.174-5.672l3.124-5.692.951-1.723A2.952,2.952,0,0,0,73.85,340.881Z"/><path class="b" d="M63.883,356.81c.049-.081-3.964-2.612-8.962-5.652s-9.092-5.441-9.141-5.361,3.963,2.612,8.963,5.654S63.834,356.891,63.883,356.81Z"/><path class="b" d="M70.235,381.985a3.082,3.082,0,0,0-.7-.234l-1.939-.527c-1.637-.447-3.894-1.071-6.361-1.848s-4.68-1.548-6.277-2.12l-1.892-.675a3.127,3.127,0,0,0-.71-.211,3.087,3.087,0,0,0,.66.335c.434.194,1.067.464,1.857.778,1.577.631,3.782,1.445,6.259,2.22s4.75,1.369,6.405,1.756c.828.19,1.5.336,1.967.422A3.073,3.073,0,0,0,70.235,381.985Z"/><path class="b" d="M82.422,369.561a2.6,2.6,0,0,0-.53.432c-.326.295-.789.729-1.356,1.271-1.135,1.084-2.685,2.6-4.383,4.284s-3.222,3.229-4.312,4.356c-.546.564-.983,1.025-1.279,1.348a2.6,2.6,0,0,0-.436.528,2.657,2.657,0,0,0,.53-.433c.325-.294.789-.729,1.356-1.271,1.134-1.083,2.685-2.6,4.383-4.284s3.221-3.228,4.311-4.356c.546-.564.983-1.024,1.28-1.348A2.694,2.694,0,0,0,82.422,369.561Z"/><path class="b" d="M90.853,391.073a4.263,4.263,0,0,0-.672.561l-1.743,1.623c-1.461,1.381-3.463,3.306-5.659,5.447s-4.172,4.1-5.59,5.52c-.666.681-1.225,1.251-1.666,1.7a4.263,4.263,0,0,0-.579.658,4.261,4.261,0,0,0,.672-.562l1.743-1.623c1.461-1.381,3.463-3.306,5.66-5.448s4.171-4.094,5.589-5.519c.667-.681,1.225-1.251,1.667-1.7A4.3,4.3,0,0,0,90.853,391.073Z"/><path class="b" d="M75.22,406.105a4.816,4.816,0,0,0-.882-.317l-2.435-.756c-2.055-.64-4.891-1.532-7.994-2.6s-5.892-2.1-7.9-2.868l-2.385-.9a4.921,4.921,0,0,0-.89-.294,4.854,4.854,0,0,0,.839.418c.549.248,1.35.594,2.346,1,1.992.823,4.77,1.9,7.882,2.968s5.962,1.93,8.037,2.51c1.039.288,1.881.512,2.468.653A5.074,5.074,0,0,0,75.22,406.105Z"/><rect class="b" width="66.48" height="96.36" transform="translate(277.962 130.732)"/><rect class="a" width="66.48" height="96.36" transform="translate(274.632 130.732)"/><rect class="c" width="49.961" height="75.487" transform="translate(282.891 141.169)"/><path class="b" d="M332.852,216.656s-.007-.128-.01-.37-.005-.6-.01-1.07c0-.949-.011-2.337-.02-4.14-.01-3.618-.025-8.89-.044-15.55-.02-13.311-.049-32.16-.082-54.357l.166.165-49.955.015h-.006l.181-.18c-.014,28.476-.027,54.732-.037,75.487l-.144-.144,36.365.075,10.047.037,2.637.016c.6.005.912.016.912.016s-.294.01-.882.015l-2.61.016-10.014.037-36.455.076h-.144v-.144c-.01-20.755-.023-47.011-.037-75.487v-.181h.187l49.955.015h.166v.166c-.034,22.241-.062,41.128-.082,54.465-.019,6.644-.034,11.9-.044,15.513-.009,1.788-.016,3.166-.02,4.107-.005.457-.008.807-.01,1.052S332.852,216.656,332.852,216.656Z"/><path class="d" d="M330.536,141.672"/><path class="b" d="M341.3,130.732a11.455,11.455,0,0,1-1.185,1.722c-.772,1.033-1.868,2.437-3.119,3.956s-2.42,2.864-3.286,3.82a11.562,11.562,0,0,1-1.463,1.493,12.5,12.5,0,0,1,1.269-1.659l3.2-3.884,3.2-3.884A12.419,12.419,0,0,1,341.3,130.732Z"/><path class="c" d="M333.106,216.412a61.882,61.882,0,0,0,8.714,10.9"/><path class="b" d="M341.82,227.31a9.941,9.941,0,0,1-1.519-1.382,48.691,48.691,0,0,1-6.181-7.73,9.82,9.82,0,0,1-1.013-1.786,14.013,14.013,0,0,1,1.225,1.643c.733,1.029,1.763,2.436,2.965,3.94s2.348,2.817,3.191,3.758A13.867,13.867,0,0,1,341.82,227.31Z"/><path class="c" d="M274.622,227.016l8.708-10.744"/><path class="b" d="M283.33,216.272a66.493,66.493,0,0,1-4.213,5.486,66.114,66.114,0,0,1-4.495,5.258,66.39,66.39,0,0,1,4.214-5.486A66,66,0,0,1,283.33,216.272Z"/><path class="b" d="M274.632,130.732a60.155,60.155,0,0,1,4.226,5.053,59.784,59.784,0,0,1,3.943,5.277,60.181,60.181,0,0,1-4.226-5.053A59.857,59.857,0,0,1,274.632,130.732Z"/><rect class="b" width="16.729" height="47.498" transform="translate(300.557 156.495)"/><path class="b" d="M135.751,115.338v53.094H59.493l-2.747-52.723Z"/><rect class="c" width="52.611" height="76.257" transform="translate(56.746 168.32) rotate(-90)"/><path class="b" d="M133.365,168.682H56.384V115.347h76.981Zm-76.257-.724h75.534V116.071H57.108Z"/><rect class="c" width="59.739" height="39.538" transform="translate(65.005 122.245)"/><path class="b" d="M124.744,122.245s-.1.007-.3.011l-.849.01-3.281.021-12.311.046-43,.085.173-.173c0,12.081.01,25.465.015,39.534v0L65,161.6l59.739.038-.15.15c.033-12.032.06-21.9.079-28.767.016-3.434.029-6.116.038-7.955.007-.908.013-1.606.017-2.09s.016-.726.016-.726.011.231.016.694.01,1.166.017,2.063c.009,1.831.022,4.5.038,7.921.019,6.892.046,16.789.079,28.86v.15h-.151L65,161.972h-.188v-.193c0-14.069.01-27.453.015-39.534v-.173H65l43.117.085,12.271.046,3.247.021.83.01C124.655,122.239,124.744,122.245,124.744,122.245Z"/><path class="b" d="M56.746,115.561a6.453,6.453,0,0,1,1.311.849c.78.564,1.842,1.363,2.989,2.28s2.156,1.787,2.867,2.438A6.186,6.186,0,0,1,65,122.245c-.071.08-1.9-1.432-4.194-3.26A41.562,41.562,0,0,1,56.746,115.561Z"/><path class="b" d="M133,115.709a37.029,37.029,0,0,1-4.012,3.416,36.929,36.929,0,0,1-4.247,3.12,37.114,37.114,0,0,1,4.013-3.416A37.016,37.016,0,0,1,133,115.709Z"/><path class="c" d="M132.943,168.327l-8.5-6.891"/><path class="b" d="M124.44,161.436a39.84,39.84,0,0,1,4.37,3.3,40.251,40.251,0,0,1,4.133,3.592,39.8,39.8,0,0,1-4.37-3.3A39.968,39.968,0,0,1,124.44,161.436Z"/><path class="b" d="M56.746,168.32a36.088,36.088,0,0,1,3.97-3.38,36.274,36.274,0,0,1,4.2-3.086,36.228,36.228,0,0,1-3.971,3.381A36.374,36.374,0,0,1,56.746,168.32Z"/><rect class="b" width="13.239" height="37.589" transform="translate(77.134 147.803) rotate(-90)"/><path class="e" d="M314.182,291.627a26.795,26.795,0,1,1,.969-37.837A26.765,26.765,0,0,1,314.182,291.627Z"/><path class="a" d="M309.8,287a20.419,20.419,0,1,1,.739-28.835A20.4,20.4,0,0,1,309.8,287Z"/><path class="b" d="M310.257,286.556c-.088-.087.5-.766,1.411-2.081a21.652,21.652,0,0,0,2.922-6.015,20.9,20.9,0,0,0,.833-4.514,20.413,20.413,0,0,0-.318-5.236,19.995,19.995,0,0,0-1.893-5.457,19.831,19.831,0,0,0-1.615-2.6,19.953,19.953,0,0,0-4.463-4.423,19.9,19.9,0,0,0-2.614-1.591,20.058,20.058,0,0,0-5.475-1.844,20.469,20.469,0,0,0-5.238-.268,20.945,20.945,0,0,0-4.507.875,21.683,21.683,0,0,0-5.985,2.978c-1.3.922-1.979,1.519-2.067,1.43-.066-.063.462-.808,1.69-1.908a18.889,18.889,0,0,1,6-3.546,20.461,20.461,0,0,1,10.344-.98,19.621,19.621,0,0,1,2.965.7,19.875,19.875,0,0,1,2.954,1.19,20.767,20.767,0,0,1,2.833,1.7,20.9,20.9,0,0,1,4.814,4.77,20.909,20.909,0,0,1,1.722,2.818,20.833,20.833,0,0,1,1.949,5.9,20.448,20.448,0,0,1-.883,10.353,18.9,18.9,0,0,1-3.49,6.038C311.062,286.086,310.321,286.621,310.257,286.556Z"/><path class="b" d="M288.5,282.235l-2.546,2.484-2.217-2.274,2.477-2.416a15.05,15.05,0,0,1-3.7-7.434l3.992-1.456a12.837,12.837,0,0,0,2.689,5.984l3.8-3.7c-1.848-3.121-3.757-6.76-.506-9.932,2.41-2.35,6.185-2.618,10.1.574L305.1,261.6l2.217,2.273-2.478,2.418a14.374,14.374,0,0,1,3.116,5.966l-3.9,1.592a13.023,13.023,0,0,0-2.211-4.632l-3.864,3.771c1.871,3.1,3.734,6.694.53,9.82C296.144,285.114,292.412,285.382,288.5,282.235Zm7.83-12.075,3.227-3.15c-1.448-.938-2.573-.772-3.324-.04C295.438,267.746,295.67,268.849,296.329,270.16Zm-1.664,9.255c.8-.777.584-1.857-.028-3.168l-3.137,3.06C292.859,280.2,293.937,280.124,294.665,279.415Z"/><path class="e" d="M209.208,323.4a28.133,28.133,0,1,1-35.771-17.311A28.1,28.1,0,0,1,209.208,323.4Z"/><path class="a" d="M202.883,325.588a21.439,21.439,0,1,1-27.26-13.192A21.414,21.414,0,0,1,202.883,325.588Z"/><path class="b" d="M202.658,324.955a12.655,12.655,0,0,1-1.379-2.25,22.782,22.782,0,0,0-4.488-5.4,22.012,22.012,0,0,0-3.957-2.752,21.54,21.54,0,0,0-5.146-1.963,21,21,0,0,0-6.04-.551,20.632,20.632,0,0,0-3.184.419,20.913,20.913,0,0,0-6.163,2.353,20.935,20.935,0,0,0-2.654,1.811,20.959,20.959,0,0,0-4.134,4.439,21.432,21.432,0,0,0-2.525,4.894,21.954,21.954,0,0,0-1.114,4.689,22.732,22.732,0,0,0,.257,7.014,12.488,12.488,0,0,1,.472,2.6,6.289,6.289,0,0,1-1.093-2.442,19.807,19.807,0,0,1-.793-7.278,21.5,21.5,0,0,1,3.542-10.318,21.766,21.766,0,0,1,4.375-4.841,21.874,21.874,0,0,1,2.85-1.975,21.927,21.927,0,0,1,6.647-2.539,21.848,21.848,0,0,1,3.441-.427,21.794,21.794,0,0,1,6.488.691,21.47,21.47,0,0,1,9.52,5.328,19.862,19.862,0,0,1,4.264,5.952A6.305,6.305,0,0,1,202.658,324.955Z"/><path class="b" d="M189.1,343.895l1.274,3.511-3.135,1.136L186,345.126a15.8,15.8,0,0,1-8.714.323l.336-4.449a13.477,13.477,0,0,0,6.889.02l-1.9-5.235c-3.786.417-8.093.666-9.719-3.816-1.205-3.323.174-7.05,4.921-9.41l-1.262-3.48,3.135-1.137,1.239,3.417a15.072,15.072,0,0,1,7.056-.4l-.168,4.424a13.658,13.658,0,0,0-5.388.109l1.934,5.329c3.774-.448,8.019-.674,9.622,3.745C195.167,337.83,193.808,341.515,189.1,343.895Zm-8.159-12.718-1.615-4.45c-1.524.979-1.853,2.127-1.478,3.161C178.249,330.984,179.406,331.24,180.944,331.177Zm8.132,5.6c-.4-1.1-1.523-1.363-3.042-1.346l1.569,4.326C189.045,338.844,189.439,337.779,189.076,336.777Z"/><path class="e" d="M102.338,253.924a23.612,23.612,0,1,1-23.9-23.26A23.586,23.586,0,0,1,102.338,253.924Z"/><path class="a" d="M96.72,253.995A17.994,17.994,0,1,1,78.5,236.268,17.974,17.974,0,0,1,96.72,253.995Z"/><path class="b" d="M96.708,253.431a10.7,10.7,0,0,1-.5-2.158,19.125,19.125,0,0,0-2.144-5.489,18.465,18.465,0,0,0-2.423-3.24,18.068,18.068,0,0,0-3.578-2.926,17.712,17.712,0,0,0-4.665-2.039,17.323,17.323,0,0,0-2.647-.509,17.6,17.6,0,0,0-5.532.242,17.583,17.583,0,0,0-2.593.739,17.648,17.648,0,0,0-4.468,2.44,18.04,18.04,0,0,0-3.307,3.229,18.5,18.5,0,0,0-2.13,3.44,19.088,19.088,0,0,0-1.652,5.655,10.611,10.611,0,0,1-.311,2.192,5.27,5.27,0,0,1-.225-2.234,16.639,16.639,0,0,1,1.3-6.007,18.029,18.029,0,0,1,5.553-7.279,17.284,17.284,0,0,1,2.23-1.5,17.538,17.538,0,0,1,2.537-1.2,18.33,18.33,0,0,1,2.792-.819,18.418,18.418,0,0,1,5.967-.261,18.31,18.31,0,0,1,2.853.571,18.363,18.363,0,0,1,4.985,2.268,18.038,18.038,0,0,1,6.171,6.765,16.66,16.66,0,0,1,1.82,5.87A5.276,5.276,0,0,1,96.708,253.431Z"/><path class="b" d="M80.9,264.925l.084,3.134-2.8.074-.082-3.048a13.266,13.266,0,0,1-7.026-2.051l1.446-3.454A11.312,11.312,0,0,0,78,261.42l-.126-4.673c-3.126-.67-6.622-1.612-6.73-5.613-.079-2.965,2.006-5.569,6.412-6.191l-.083-3.106,2.8-.075.082,3.05a12.649,12.649,0,0,1,5.725,1.553l-1.306,3.479a11.464,11.464,0,0,0-4.32-1.34l.129,4.756c3.124.643,6.565,1.587,6.671,5.531C87.333,261.7,85.274,264.276,80.9,264.925Zm-3.13-12.29-.108-3.972c-1.473.376-2.039,1.2-2.014,2.127C75.672,251.768,76.525,252.278,77.767,252.635Zm4.993,6.613c-.027-.979-.852-1.488-2.066-1.877l.1,3.861C82.188,260.887,82.784,260.143,82.76,259.248Z"/><path class="e" d="M214.159,152.2a20.808,20.808,0,0,0,2.631-10.156,20.6,20.6,0,0,0-20.48-20.717,20.276,20.276,0,0,0-5.447.746,20.782,20.782,0,0,1,0,39.942,20.256,20.256,0,0,0,16.294-2.4l9.633,3.724Z"/><path class="f" d="M347.313,418.607c0,.1-67.519.185-150.79.185-83.3,0-150.8-.083-150.8-.185s67.5-.185,150.8-.185C279.794,418.422,347.313,418.505,347.313,418.607Z"/><path class="g" d="M126.992,395.807l.58,17.671,4.488,13.844a1.811,1.811,0,0,1-1.283,2.316h0a1.8,1.8,0,0,1-1.615-.378c-2.838-2.433-13.233-11.437-13.2-12.733.035-1.5-1.848-18.6-1.848-18.6Z"/><path class="b" d="M130.777,429.638l-14.884-14.3.042.748a2.723,2.723,0,0,0,.744,1.729c1.194,1.255,4.568,4.648,12.43,11.451a1.811,1.811,0,0,0,1.668.374Z"/><path class="c" d="M119.2,409.44a1.1,1.1,0,0,1,.38,1.412,1.054,1.054,0,0,1-1.4.388,1.156,1.156,0,0,1-.394-1.5,1.093,1.093,0,0,1,1.5-.242"/><path class="f" d="M126.312,422.15c.1.043.45-.9,1.472-1.459a5.52,5.52,0,0,1,2.011-.5c.012-.044-.219-.169-.635-.2a2.884,2.884,0,0,0-2.693,1.516C126.281,421.876,126.268,422.138,126.312,422.15Z"/><path class="f" d="M127.7,424.444c.088.071.622-.534,1.521-.846a14.845,14.845,0,0,1,1.711-.319,2.008,2.008,0,0,0-1.843-.047C128.069,423.594,127.607,424.4,127.7,424.444Z"/><path class="f" d="M123.8,419.251a17.956,17.956,0,0,1,2.26-1.465,18.159,18.159,0,0,1,2.584-.756,4.951,4.951,0,0,0-4.844,2.221Z"/><path class="f" d="M123.178,413.894c.053.1,1.006-.359,2.272-.475,1.265-.134,2.289.132,2.321.02a4.5,4.5,0,0,0-4.593.455Z"/><path class="f" d="M122.876,408.711a8.885,8.885,0,0,1,2.352-.558,8.834,8.834,0,0,1,2.374.458c.027-.039-.178-.249-.6-.462a3.947,3.947,0,0,0-3.549.075C123.044,408.454,122.848,408.673,122.876,408.711Z"/><path class="f" d="M125.142,407.169a1.52,1.52,0,0,0-.013-.669,4.64,4.64,0,0,0-.628-1.719,2.056,2.056,0,0,0-.937-.933.728.728,0,0,0-.81.207,1.183,1.183,0,0,0-.235.813,2.561,2.561,0,0,0,2.372,2.24,2.97,2.97,0,0,0,2.827-1.713,1.034,1.034,0,0,0,0-.859.717.717,0,0,0-.768-.336,2.534,2.534,0,0,0-1.129.67,5.179,5.179,0,0,0-1.128,1.438,1.575,1.575,0,0,0-.237.625A8.2,8.2,0,0,1,126,405.078a2.365,2.365,0,0,1,1-.559.38.38,0,0,1,.42.18.713.713,0,0,1-.034.565,2.653,2.653,0,0,1-2.468,1.457,2.224,2.224,0,0,1-2.041-1.873.86.86,0,0,1,.14-.574.393.393,0,0,1,.446-.121,1.855,1.855,0,0,1,.807.775A6.859,6.859,0,0,1,125.142,407.169Z"/><path class="g" d="M161.393,398.432l-.916,13.213s13.123,5.368,13.192,7.827l-25.683-.855.581-20.646Z"/><path class="b" d="M152.572,410.268a1.051,1.051,0,0,0-.765,1.173,1.01,1.01,0,0,0,1.156.769,1.107,1.107,0,0,0,.8-1.247,1.048,1.048,0,0,0-1.291-.666"/><path class="b" d="M147.986,418.617l.14-2.079,24.572,1.6s1.127.536.971,1.337Z"/><path class="f" d="M160.9,411.529c-.009.125-.638.161-1.268.544-.641.366-.977.9-1.09.845-.115-.028.1-.772.868-1.222S160.929,411.414,160.9,411.529Z"/><path class="f" d="M163.555,412.732c.024.123-.526.318-.97.834s-.585,1.074-.71,1.064c-.118.016-.181-.722.383-1.353S163.556,412.613,163.555,412.732Z"/><path class="f" d="M164.977,416.007c-.115.023-.268-.609.077-1.285s.94-.93.99-.824c.067.106-.326.462-.6,1.021S165.1,416,164.977,416.007Z"/><path class="f" d="M160.772,408.494c-.056.113-.626-.079-1.336-.055s-1.271.23-1.332.12c-.07-.093.484-.539,1.321-.556S160.837,408.4,160.772,408.494Z"/><path class="f" d="M160.908,405.825a2.413,2.413,0,0,1-1.286-.049,5.833,5.833,0,0,1-1.332-.458,6.152,6.152,0,0,1-.726-.417,1.579,1.579,0,0,1-.378-.315.548.548,0,0,1-.036-.67.69.69,0,0,1,.56-.268,1.653,1.653,0,0,1,.48.083,4.59,4.59,0,0,1,.79.3,4.521,4.521,0,0,1,1.161.818c.577.571.765,1.047.721,1.069-.058.04-.335-.362-.926-.838a5.128,5.128,0,0,0-1.126-.685,4.754,4.754,0,0,0-.731-.252c-.269-.08-.5-.09-.575.029-.027.045-.03.063.024.145a1.275,1.275,0,0,0,.278.23,6.725,6.725,0,0,0,.667.411,7.154,7.154,0,0,0,1.227.518A8.932,8.932,0,0,1,160.908,405.825Z"/><path class="f" d="M160.738,406a2.05,2.05,0,0,1-.3-1.253,4.154,4.154,0,0,1,.576-2.173,1.064,1.064,0,0,1,.842-.622.6.6,0,0,1,.525.377,1.731,1.731,0,0,1,.116.476,2.83,2.83,0,0,1-.028.866,2.967,2.967,0,0,1-.593,1.311c-.524.648-1.053.781-1.062.738-.04-.064.406-.292.811-.919a2.957,2.957,0,0,0,.447-1.195,2.647,2.647,0,0,0,0-.744c-.031-.274-.126-.5-.229-.473-.128-.007-.352.192-.464.406a4.266,4.266,0,0,0-.342.687,4.648,4.648,0,0,0-.292,1.275C160.689,405.509,160.807,405.983,160.738,406Z"/><path class="f" d="M108.589,268.035l3.8,142.043,20.26-.609,4.832-146.276Z"/><path class="f" d="M150.7,262.952s15.042,60.216,15.5,70.483-3.219,74.441-3.219,74.441H143.151l1.656-73.079-15.066-61.845,3.646-9.683Z"/><path class="h" d="M138.46,270.347a.775.775,0,0,1,.008.193l-.011.563c-.02.523-.047,1.246-.081,2.164-.087,1.908-.212,4.618-.365,7.954-.345,6.74-.819,16-1.342,26.235-.567,10.234-1.079,19.5-1.452,26.235-.2,3.334-.366,6.043-.482,7.949-.063.916-.114,1.639-.15,2.161l-.048.561a.78.78,0,0,1-.029.191.724.724,0,0,1-.009-.192c0-.148.007-.333.012-.562.019-.523.046-1.246.08-2.163.088-1.907.212-4.617.365-7.954.345-6.74.819-16.005,1.343-26.241.566-10.232,1.079-19.494,1.451-26.233.2-3.335.367-6.043.482-7.949.064-.916.114-1.638.15-2.16l.048-.561A.691.691,0,0,1,138.46,270.347Z"/><path class="a" d="M136.236,185.74s7.359,36.524,7.466,46.816,3.721,30.4,3.721,30.4H115.539l-.688-55.645-2.27-16.6,4.788-6.827Z"/><path class="i" d="M136.62,186.816s7.606,2.233,9.617,5.047c1.587,2.219,3.726,44.231,3.726,44.231l3.264,37-3.192-.3-4.5-13.851Z"/><path class="i" d="M146.237,191.863l21.475,19.7,26.422-8.56L199.4,214.1,171.2,226.9c-4.029,1.719-6.555.773-9.351-1.467l-14.79-11.845Z"/><path class="f" d="M189.214,206.541a.58.58,0,1,1-.784-.238A.58.58,0,0,1,189.214,206.541Z"/><path class="f" d="M188.7,207.411a.611.611,0,0,1-.174-.026.589.589,0,0,1-.353-.29.6.6,0,1,1,.527.316Zm0-1.159a.556.556,0,0,0-.264.066.562.562,0,0,0-.273.333.562.562,0,0,0,.374.7.562.562,0,1,0,.163-1.1Z"/><path class="f" d="M191.429,206.014a.58.58,0,1,1-.784-.238A.58.58,0,0,1,191.429,206.014Z"/><path class="f" d="M190.918,206.885a.611.611,0,0,1-.174-.026.589.589,0,0,1-.353-.29.6.6,0,0,1,.7-.853.6.6,0,0,1,.108,1.1A.6.6,0,0,1,190.918,206.885Zm0-1.16a.557.557,0,0,0-.264.067.562.562,0,0,0,.1,1.033.568.568,0,0,0,.428-.042.562.562,0,0,0-.1-1.033A.583.583,0,0,0,190.917,205.725Z"/><path class="f" d="M193.537,205.589a.579.579,0,1,1-.784-.238A.579.579,0,0,1,193.537,205.589Z"/><path class="f" d="M193.027,206.459a.584.584,0,0,1-.175-.026.6.6,0,0,1-.108-1.1.6.6,0,0,1,.809.245h0a.6.6,0,0,1-.526.879Zm0-1.159a.57.57,0,0,0-.264.066.563.563,0,0,0-.23.76.55.55,0,0,0,.332.273.561.561,0,0,0,.658-.8h0A.562.562,0,0,0,193.025,205.3Z"/><path class="b" d="M194.4,203.558l2.044-.748,4.692,9.885-2,.851Z"/><path class="f" d="M146.925,199.648a6.516,6.516,0,0,1,.123,1.105c.08.777.183,1.789.308,3.009.295,2.6.689,6.081,1.124,9.924.429,3.879.772,7.4.932,9.952.085,1.277.122,2.313.13,3.029a6.271,6.271,0,0,1-.037,1.113,6.548,6.548,0,0,1-.107-1.107c-.052-.712-.129-1.743-.247-3.014-.226-2.545-.609-6.054-1.039-9.932s-.806-7.389-1.016-9.94c-.107-1.275-.166-2.309-.191-3.025A6.266,6.266,0,0,1,146.925,199.648Z"/><path class="f" d="M151.616,204.578a40.451,40.451,0,0,1-1.345,5.294,40.41,40.41,0,0,1-1.7,5.192,40.532,40.532,0,0,1,1.345-5.295A40.5,40.5,0,0,1,151.616,204.578Z"/><path class="f" d="M167.484,218.221a2.207,2.207,0,0,1-.476-.939,6.781,6.781,0,0,1,.313-4.989c.288-.588.553-.9.589-.873a9.372,9.372,0,0,0-.426,6.8Z"/><path class="b" d="M165.027,241.045l2.749.213-1.092,11.465-2.653-.3Z"/><path class="i" d="M117.374,184.677l-14.816,9.447a9.625,9.625,0,0,0-3.592,10.915l11.366,35.712-4.1,32.449,32.473-1.379-.789-14.224-2.758-25.446a50.619,50.619,0,0,0-3.486-13.735Z"/><path class="i" d="M101.892,207l14.822,31.012a9.179,9.179,0,0,0,6.166,4.974l41.125,9.742,1.048-11.973L133.66,228.944l-15.792-30.309a9.016,9.016,0,0,0-12.651-3.555h0A9.017,9.017,0,0,0,101.892,207Z"/><path class="f" d="M165.053,240.751a.7.7,0,0,1-.169-.046l-.485-.165-1.862-.666-6.886-2.534-23.21-8.675-.066-.025-.033-.065c-.877-1.737-1.8-3.56-2.731-5.414-2.576-5.016-5.14-9.736-7.538-13.992-1.2-2.128-2.356-4.141-3.449-6.018l-1.592-2.711c-.252-.439-.509-.858-.779-1.251a10.565,10.565,0,0,0-4.788-3.986,8.967,8.967,0,0,0-3.644-.65,6.506,6.506,0,0,0-3.049.815.905.905,0,0,1,.172-.123,2.929,2.929,0,0,1,.545-.3,6.382,6.382,0,0,1,2.325-.537,8.979,8.979,0,0,1,3.726.6,10.729,10.729,0,0,1,4.94,4.026c.281.4.543.823.8,1.258l1.611,2.7c1.106,1.872,2.273,3.881,3.481,6.006,2.417,4.25,4.992,8.971,7.571,13.991.949,1.849,1.866,3.675,2.73,5.421l-.1-.09,23.167,8.79,6.847,2.637,1.839.727.473.2A.639.639,0,0,1,165.053,240.751Z"/><path class="f" d="M158.064,248.214a.579.579,0,1,1-.58-.579A.58.58,0,0,1,158.064,248.214Z"/><path class="f" d="M157.484,248.811a.6.6,0,1,1,.6-.6A.6.6,0,0,1,157.484,248.811Zm0-1.159a.562.562,0,1,0,.562.562A.562.562,0,0,0,157.484,247.652Z"/><path class="f" d="M160.266,248.793a.58.58,0,1,1-.58-.579A.58.58,0,0,1,160.266,248.793Z"/><path class="f" d="M159.686,249.39a.6.6,0,1,1,.6-.6A.6.6,0,0,1,159.686,249.39Zm0-1.158a.562.562,0,1,0,.562.561A.562.562,0,0,0,159.686,248.232Z"/><circle class="f" cx="0.579" cy="0.579" r="0.579" transform="translate(161.167 248.832)"/><path class="f" d="M161.746,250.008a.6.6,0,1,1,.6-.6A.6.6,0,0,1,161.746,250.008Zm0-1.158a.562.562,0,1,0,.562.561A.562.562,0,0,0,161.746,248.85Z"/><path class="f" d="M164.005,252.724a.855.855,0,0,1-.2-.032l-.579-.13-2.215-.53-8.133-2c-6.868-1.685-16.345-4.069-26.854-6.5-1.313-.315-2.617-.564-3.9-.912a8.551,8.551,0,0,1-3.515-1.756,10.216,10.216,0,0,1-2.151-3.12l-1.551-3.242c-2-4.221-3.8-8.024-5.319-11.228-1.494-3.183-2.706-5.768-3.558-7.584-.4-.879-.721-1.571-.95-2.069l-.238-.542a.823.823,0,0,1-.07-.19.793.793,0,0,1,.1.174l.272.526c.243.491.582,1.173,1.013,2.04.877,1.8,2.125,4.371,3.663,7.532,1.538,3.194,3.363,6.985,5.39,11.193q.762,1.578,1.559,3.232a9.951,9.951,0,0,0,2.078,3.009,8.225,8.225,0,0,0,3.372,1.671c1.254.339,2.572.591,3.883.906,10.517,2.436,19.983,4.859,26.836,6.61l8.1,2.116,2.2.6.569.165A.745.745,0,0,1,164.005,252.724Z"/><path class="f" d="M130.789,250.78c.015.021-.16.168-.49.414s-.813.591-1.425,1a22.956,22.956,0,0,1-5.108,2.656,11.66,11.66,0,0,1-5.726.573,7.608,7.608,0,0,1-1.687-.485,1.868,1.868,0,0,1-.566-.306,20.052,20.052,0,0,0,2.292.533,12.414,12.414,0,0,0,5.566-.665,27.359,27.359,0,0,0,5.089-2.527A17.848,17.848,0,0,1,130.789,250.78Z"/><path class="f" d="M132.588,254.9a.862.862,0,0,1,.1.267,6.1,6.1,0,0,1,.188.8,8.784,8.784,0,0,1-.028,3.011A9.194,9.194,0,0,1,131,263.039a9.11,9.11,0,0,1-10.025,2.8,9.2,9.2,0,0,1-3.686-2.521,8.779,8.779,0,0,1-1.585-2.56,5.977,5.977,0,0,1-.251-.779.8.8,0,0,1-.051-.282,10.821,10.821,0,0,0,2.081,3.445,9.161,9.161,0,0,0,3.607,2.376,8.905,8.905,0,0,0,9.646-2.7,9.164,9.164,0,0,0,1.853-3.9A10.863,10.863,0,0,0,132.588,254.9Z"/><path class="j" d="M118.969,156.408l.094,26.458a7.871,7.871,0,0,0,8.287,7.832h0a7.875,7.875,0,0,0,7.454-7.9c-.009-1.992-.013-3.653,0-3.857,0,0,6.733-.658,7.2-7.326.223-3.222.144-9.9,0-15.935a12.451,12.451,0,0,0-11.743-12.13l-.644-.036C122.65,143.524,118.767,149.445,118.969,156.408Z"/><path class="j" d="M134.82,178.845a15.539,15.539,0,0,1-8.558-2.968s1.783,4.919,8.475,4.7Z"/><path class="f" d="M140.348,159.6a.955.955,0,0,1-.974.909.913.913,0,0,1-.933-.915.956.956,0,0,1,.973-.91A.914.914,0,0,1,140.348,159.6Z"/><path class="f" d="M140.538,158.478c-.125.117-.817-.458-1.843-.514s-1.806.414-1.91.282c-.051-.058.082-.276.423-.5a2.613,2.613,0,0,1,1.538-.379,2.51,2.51,0,0,1,1.458.563C140.505,158.194,140.6,158.425,140.538,158.478Z"/><path class="f" d="M130.385,159.524a.955.955,0,0,1-.974.909.913.913,0,0,1-.933-.915.955.955,0,0,1,.973-.91A.914.914,0,0,1,130.385,159.524Z"/><path class="f" d="M130.331,158.246c-.126.117-.818-.458-1.843-.514s-1.806.415-1.911.283c-.051-.059.081-.276.424-.5a2.612,2.612,0,0,1,1.538-.38A2.517,2.517,0,0,1,130,157.7C130.3,157.963,130.392,158.194,130.331,158.246Z"/><path class="f" d="M133.579,166.307a6.829,6.829,0,0,1,1.682-.205c.264-.012.515-.05.569-.226a1.339,1.339,0,0,0-.131-.787q-.315-.971-.66-2.038a34.272,34.272,0,0,1-1.442-5.314,34.351,34.351,0,0,1,1.866,5.186l.628,2.048a1.521,1.521,0,0,1,.077,1.036.661.661,0,0,1-.453.358,1.786,1.786,0,0,1-.448.036A6.63,6.63,0,0,1,133.579,166.307Z"/><path class="f" d="M130.743,156.119c-.117.273-1.133.082-2.344.159-1.213.052-2.2.349-2.349.09-.064-.124.12-.377.527-.624a4.083,4.083,0,0,1,3.576-.19C130.584,155.757,130.794,155.989,130.743,156.119Z"/><path class="f" d="M140.451,156.031c-.194.222-.886-.06-1.735-.119-.847-.09-1.578.067-1.729-.186-.066-.123.06-.35.387-.552a2.52,2.52,0,0,1,2.792.246C140.452,155.676,140.537,155.922,140.451,156.031Z"/><path class="j" d="M119.233,161.38c-.111-.056-4.508-1.618-4.622,2.953s4.5,3.742,4.509,3.611S119.233,161.38,119.233,161.38Z"/><path class="k" d="M117.767,166.178c-.02-.015-.081.053-.217.112a.8.8,0,0,1-.6,0,1.969,1.969,0,0,1-.867-1.79,2.648,2.648,0,0,1,.251-1.135.922.922,0,0,1,.614-.6.406.406,0,0,1,.465.23c.058.13.027.22.051.229s.1-.075.068-.264a.511.511,0,0,0-.173-.291.6.6,0,0,0-.437-.127,1.116,1.116,0,0,0-.85.687,2.715,2.715,0,0,0-.308,1.267,2.068,2.068,0,0,0,1.112,2,.853.853,0,0,0,.732-.1C117.756,166.288,117.782,166.186,117.767,166.178Z"/><path class="f" d="M116.7,161.08a2.4,2.4,0,0,1,2.132,1.251c.26.668.283,1.41.542,2.079a1.614,1.614,0,0,0,1.6,1.171,1.405,1.405,0,0,0,1.01-.987,3.86,3.86,0,0,0,.1-1.47c-.148-2.146-.475-4.284-.438-6.435a10.97,10.97,0,0,1,1.7-6.126,6.005,6.005,0,0,1,5.507-2.7c1.412.195,2.67,1.009,4.067,1.286a5.583,5.583,0,0,0,4.719-1.281,2.214,2.214,0,0,1,.225-.161,1.233,1.233,0,0,0,.52-1.4,1.177,1.177,0,0,0-.244-.452c-2.647-2.744-7.642-3.752-11.386-3.034a13.339,13.339,0,0,0-9.138,6.5c-1.785,3.369-1.588,8.207-.913,11.757"/><path class="f" d="M131.158,167.111c.167-.009.169,1.1,1.12,1.89s2.133.667,2.142.822c.015.07-.264.216-.764.229a2.762,2.762,0,0,1-1.788-.623,2.409,2.409,0,0,1-.867-1.584C130.958,167.38,131.082,167.1,131.158,167.111Z"/><path class="j" d="M194.96,204.685s5-4.4,5.953-4.72,8.481-.461,8.99-.084,8.134,4.559,6.872,5.2-6.554-2.355-6.554-2.355l-.889.118s4.613,2.463,5.436,3.412c.757.874.033,1.92-.829,1.518s-4.821-2.687-5.133-2.6,4.219,2.737,4.636,3.228c.561.66.2,1.937-.669,1.569-.512-.218-4.693-2.987-4.693-2.987a41.538,41.538,0,0,1,3.381,3.093c.369.711-.34,1.353-1.068.907-.5-.307-2.648-2.42-3.318-2.828,0,0-.74-.053-1.828,1.1s-5.377,2.751-5.377,2.751Z"/><path class="l" d="M216.752,205.1a3.953,3.953,0,0,1-1.618-.1,9.174,9.174,0,0,1-1.694-.507c-.6-.283-1.239-.612-1.917-.956l-1.435-.743.094.023a23.067,23.067,0,0,1-3.873-.11,23.048,23.048,0,0,1,3.867-.275h.046l.049.024,1.429.721,1.885.976a11.527,11.527,0,0,0,1.614.571C216.144,204.972,216.757,205.034,216.752,205.1Z"/><path class="j" d="M196.823,205.957a1.709,1.709,0,0,0,1.883.648c.7-.148,1.325-.528,2.01-.726,2.049-.592,4.328.5,6.346-.186.281-.1.6-.3.564-.6-.032-.273-.34-.41-.6-.493l-6.73-2.145"/><path class="l" d="M200.293,202.456a2.853,2.853,0,0,1,.751.158c.476.126,1.161.321,2,.571l2.957.9.853.265c.264.105.655.124.91.542a.6.6,0,0,1-.106.66,1.219,1.219,0,0,1-.484.316,4.634,4.634,0,0,1-1.016.227,26.981,26.981,0,0,1-3.8-.206,5.343,5.343,0,0,0-1.585.151c-.479.13-.915.339-1.336.49a2.488,2.488,0,0,1-2.1.015c-.461-.266-.53-.589-.513-.584a2.071,2.071,0,0,0,.582.444,2.409,2.409,0,0,0,1.933-.141c.4-.161.831-.389,1.347-.546a5.5,5.5,0,0,1,1.686-.2,31.3,31.3,0,0,0,3.745.176,4.384,4.384,0,0,0,.92-.2c.276-.1.463-.3.376-.43-.073-.158-.382-.257-.671-.346l-.849-.278-2.93-.979c-.832-.284-1.5-.521-1.965-.693A2.755,2.755,0,0,1,200.293,202.456Z"/><path class="j" d="M166.538,241.325l8.3-.822s10.976,7.518,9.924,9.172-2.857,0-2.857,0,1.955,2.406-1.2,3.158c0,0-.752,1.654-1.955,1.5l-.752.01s-.68,2.1-1.693,1.644a32.847,32.847,0,0,1-4.077-3.157l-8.514-.752Z"/><path class="k" d="M171.7,249.883s-2.126.816-2.568,1.67-.7,2.866.673,3.232a12.149,12.149,0,0,0,2.415-.076l-.524-2.235a15.716,15.716,0,0,1,1.267-1.31C173.418,250.787,172.923,249.317,171.7,249.883Z"/><path class="k" d="M174.1,251.018s-2.126.817-2.568,1.67a1.877,1.877,0,0,0,1.222,2.653,9.9,9.9,0,0,0,2.193-.074l-.223-.434c-.431-.838-.615-1.516.143-2.076.042-.031.465-.428.5-.457A.926.926,0,0,0,174.1,251.018Z"/><path class="k" d="M174.607,255.189a1.235,1.235,0,0,1-.173-1.461,2.019,2.019,0,0,1,1.246-.909.933.933,0,0,1,.972.158.818.818,0,0,1,.137.639,3.348,3.348,0,0,1-.835,1.553c-.2.248-.441.52-.758.512s-.557-.3-.74-.572"/><path class="g" d="M129.741,188.264l1.866-.706,1.619,2.891-.9,3.086-1.9.471-1.9-2.391Z"/><path class="g" d="M130.42,194.006s2.416,13.285,4.43,22.63c0,0,1.651,7.78,2.32,9.575a26.3,26.3,0,0,0,3.043,5l2.339.9-1.429-13.131-8.8-25.447Z"/><path class="a" d="M118.539,180.191l11.2,8.073-2.422,6.66-10.192-10.5Z"/><path class="a" d="M131.606,187.558l3.131-6.983,1.771,5.76-2.46,6.054Z"/><path class="f" d="M129.74,188.264a1.838,1.838,0,0,1-.125.512c-.126.387-.277.848-.454,1.393-.4,1.188-.984,2.861-1.68,4.815l-.1.271-.194-.214-2.611-2.881c-2.03-2.252-3.851-4.3-5.156-5.8l-1.53-1.787a3.84,3.84,0,0,1-.524-.689,3.914,3.914,0,0,1,.63.593l1.619,1.708c1.354,1.453,3.206,3.478,5.235,5.73l2.594,2.9-.291.057c.721-1.945,1.349-3.6,1.805-4.77.214-.531.4-.981.547-1.358A1.921,1.921,0,0,1,129.74,188.264Z"/><path class="f" d="M136.508,186.335a7.944,7.944,0,0,1-.523,1.634c-.366.992-.9,2.352-1.5,3.846l-.262.643-.184.45-.16-.458a31.453,31.453,0,0,0-2.233-4.587,4.723,4.723,0,0,1,.934,1.165,15.4,15.4,0,0,1,1.645,3.3l-.343-.008c.084-.206.172-.424.261-.644.607-1.494,1.175-2.839,1.6-3.806A7.959,7.959,0,0,1,136.508,186.335Z"/><path class="i" d="M278.911,396.59l4.32,17.144,7.327,12.574a1.811,1.811,0,0,1-.762,2.536h0a1.8,1.8,0,0,1-1.658-.026c-3.29-1.775-15.36-8.365-15.606-9.638-.285-1.473-5.758-17.782-5.758-17.782Z"/><g class="m"><path class="c" d="M289.8,428.844,272.214,418.03l.2.722a2.731,2.731,0,0,0,1.1,1.532c1.433.972,5.451,3.571,14.579,8.548a1.806,1.806,0,0,0,1.709.012Z"/></g><g class="m"><path class="c" d="M274.191,411.566a1.1,1.1,0,0,1,.671,1.3,1.055,1.055,0,0,1-1.283.676,1.156,1.156,0,0,1-.7-1.38,1.091,1.091,0,0,1,1.411-.555"/></g><path class="f" d="M283.843,422.475a3.911,3.911,0,0,1,2.986-2.656c0-.046-.249-.119-.664-.065a2.892,2.892,0,0,0-2.309,2.055C283.754,422.214,283.8,422.473,283.843,422.475Z"/><path class="f" d="M285.688,424.422c.1.051.5-.654,1.306-1.15a14.764,14.764,0,0,1,1.605-.675,2.008,2.008,0,0,0-1.811.346C285.866,423.513,285.586,424.4,285.688,424.422Z"/><path class="f" d="M280.775,420.175a9.306,9.306,0,0,1,4.262-3.2,4.951,4.951,0,0,0-4.262,3.2Z"/><path class="f" d="M279.026,415.073c.074.09.907-.564,2.119-.947,1.208-.4,2.265-.357,2.273-.473a4.5,4.5,0,0,0-4.392,1.42Z"/><path class="f" d="M277.631,410.073a5.749,5.749,0,0,1,4.6-1.1c.018-.043-.227-.206-.683-.324a3.951,3.951,0,0,0-3.452.827C277.74,409.786,277.6,410.042,277.631,410.073Z"/><path class="f" d="M279.517,408.085a1.517,1.517,0,0,0-.155-.651,4.651,4.651,0,0,0-.979-1.547,2.061,2.061,0,0,0-1.114-.713.727.727,0,0,0-.747.375,1.184,1.184,0,0,0-.057.844,2.561,2.561,0,0,0,2.794,1.686,2.971,2.971,0,0,0,2.4-2.275,1.031,1.031,0,0,0-.182-.839.712.712,0,0,0-.821-.165,2.529,2.529,0,0,0-.961.893,5.183,5.183,0,0,0-.8,1.646,1.583,1.583,0,0,0-.1.661,8.231,8.231,0,0,1,1.115-2.141,2.375,2.375,0,0,1,.857-.759.381.381,0,0,1,.448.088.709.709,0,0,1,.087.558,2.649,2.649,0,0,1-2.1,1.948,2.221,2.221,0,0,1-2.392-1.4.86.86,0,0,1,.014-.591.4.4,0,0,1,.41-.213,1.867,1.867,0,0,1,.954.586A6.866,6.866,0,0,1,279.517,408.085Z"/><path class="i" d="M225.368,399.79,226.283,413s-13.123,5.368-13.192,7.826l25.684-.854-.582-20.647Z"/><path class="b" d="M234.188,411.626a1.05,1.05,0,0,1,.765,1.172,1.009,1.009,0,0,1-1.156.769,1.106,1.106,0,0,1-.8-1.246,1.047,1.047,0,0,1,1.291-.666"/><path class="b" d="M238.775,419.975l-.141-2.079-24.572,1.6s-1.127.535-.971,1.336Z"/><path class="f" d="M225.862,412.886c.009.125.638.161,1.268.544.641.366.977.9,1.091.845.114-.028-.1-.771-.869-1.221S225.831,412.772,225.862,412.886Z"/><path class="f" d="M223.206,414.09c-.025.122.525.318.969.834s.585,1.073.71,1.063c.118.016.181-.721-.383-1.353S223.2,413.97,223.206,414.09Z"/><path class="f" d="M221.783,417.365c.115.023.268-.61-.077-1.286s-.94-.93-.99-.823c-.067.1.326.461.6,1.02S221.658,417.357,221.783,417.365Z"/><path class="f" d="M225.988,409.852c.056.112.626-.08,1.336-.055s1.271.229,1.332.12c.07-.094-.484-.54-1.321-.557S225.923,409.755,225.988,409.852Z"/><path class="f" d="M225.852,407.183a2.421,2.421,0,0,0,1.286-.05,5.783,5.783,0,0,0,1.332-.458,6.143,6.143,0,0,0,.726-.417,1.56,1.56,0,0,0,.378-.315.547.547,0,0,0,.036-.669.691.691,0,0,0-.56-.269,1.722,1.722,0,0,0-.48.083,4.672,4.672,0,0,0-.79.3,4.522,4.522,0,0,0-1.16.818c-.578.572-.766,1.047-.722,1.07.058.039.335-.363.926-.839a5.191,5.191,0,0,1,1.126-.684,4.866,4.866,0,0,1,.731-.253c.27-.08.5-.09.575.029.027.045.031.064-.024.145a1.275,1.275,0,0,1-.278.23,6.434,6.434,0,0,1-.667.411,7,7,0,0,1-1.227.518A8.827,8.827,0,0,0,225.852,407.183Z"/><path class="f" d="M226.022,407.357a2.055,2.055,0,0,0,.3-1.254,4.154,4.154,0,0,0-.576-2.172,1.059,1.059,0,0,0-.842-.622.6.6,0,0,0-.525.376,1.739,1.739,0,0,0-.116.476,2.835,2.835,0,0,0,.028.867,2.963,2.963,0,0,0,.593,1.31c.524.649,1.053.781,1.062.738.04-.064-.406-.291-.811-.918a2.957,2.957,0,0,1-.447-1.195,2.647,2.647,0,0,1,0-.744c.031-.275.126-.5.229-.474.128-.006.352.192.464.407a4.256,4.256,0,0,1,.342.686,4.663,4.663,0,0,1,.292,1.275C226.071,406.866,225.953,407.34,226.022,407.357Z"/><path class="f" d="M218.36,256.054l4.131,153.766,20.26-.609L241.2,277.238l25.817,135.643,18.3-4.776L261.687,256.347Z"/><path class="h" d="M229.461,410.023c-.1,0-.185-31.874-.185-71.184s.083-71.191.185-71.191.185,31.867.185,71.191S229.563,410.023,229.461,410.023Z"/><path class="h" d="M272.793,412.834c-.1.015-4.834-30.545-10.57-68.25s-10.306-68.3-10.2-68.311,4.832,30.538,10.571,68.256S272.894,412.819,272.793,412.834Z"/><path class="f" d="M247.391,159.9a31.574,31.574,0,0,0,1.713-4.894c.243-1.277.626-3.193.112-4.386a3.067,3.067,0,0,0-3.318-2.013,7.414,7.414,0,0,0-4.291-5.814,18.882,18.882,0,0,0-7.106-1.847,6.04,6.04,0,0,0-2.663.334,3.41,3.41,0,0,0-1.6,1.727,5.882,5.882,0,0,0-5.222-.837c-1.954.531-4.185,1.587-5.042,3.421a5.72,5.72,0,0,0-.155,4.334c.38,1.194,1.643,3.068,2.818,2.631"/><path class="j" d="M237.514,193.063h0a8.772,8.772,0,0,1-8.579-9.207c.123-2.454.236-4.434.236-4.434s-6.685-.868-6.934-7.524.521-21.974.521-21.974h0a23.147,23.147,0,0,1,23.325,2.339l1.006.735-.623,31.468A8.773,8.773,0,0,1,237.514,193.063Z"/><path class="j" d="M229.158,179.327a15.493,15.493,0,0,0,8.618-2.685s-2.053,5.166-8.712,4.733Z"/><path class="j" d="M246.442,159.915c.112-.052,4.541-1.468,4.509,3.088s-4.6,3.585-4.605,3.454S246.442,159.915,246.442,159.915Z"/><path class="k" d="M247.749,164.741c.021-.015.079.056.213.118a.789.789,0,0,0,.593.016,1.962,1.962,0,0,0,.921-1.755,2.637,2.637,0,0,0-.214-1.138.918.918,0,0,0-.593-.613.4.4,0,0,0-.47.214c-.062.127-.034.218-.058.226s-.1-.077-.059-.265a.5.5,0,0,1,.181-.284.6.6,0,0,1,.44-.113,1.114,1.114,0,0,1,.824.712,2.686,2.686,0,0,1,.266,1.271,2.06,2.06,0,0,1-1.171,1.96.849.849,0,0,1-.725-.126C247.757,164.851,247.734,164.749,247.749,164.741Z"/><path class="f" d="M224.488,160.322a.951.951,0,0,0,.941.937.91.91,0,0,0,.958-.882.951.951,0,0,0-.94-.937A.91.91,0,0,0,224.488,160.322Z"/><path class="f" d="M224.253,159.259c.121.121.828-.431,1.852-.453,1.021-.038,1.785.469,1.893.341.053-.056-.072-.277-.4-.507a2.609,2.609,0,0,0-1.52-.427,2.5,2.5,0,0,0-1.47.515C224.295,158.978,224.194,159.205,224.253,159.259Z"/><path class="f" d="M234.514,160.311a.951.951,0,0,0,.941.937.911.911,0,0,0,.959-.882.952.952,0,0,0-.94-.937A.911.911,0,0,0,234.514,160.311Z"/><path class="f" d="M234.316,159.2c.121.121.829-.43,1.851-.453s1.786.47,1.894.342c.053-.057-.072-.278-.406-.507a2.6,2.6,0,0,0-1.519-.427,2.5,2.5,0,0,0-1.47.515C234.358,158.916,234.257,159.143,234.316,159.2Z"/><path class="f" d="M230.793,166.878a6.814,6.814,0,0,0-1.67-.258c-.262-.02-.51-.066-.559-.243a1.334,1.334,0,0,1,.155-.779q.345-.957.723-2.009a34.272,34.272,0,0,0,1.6-5.247,34.118,34.118,0,0,0-2.024,5.106q-.36,1.058-.69,2.02a1.51,1.51,0,0,0-.109,1.029.655.655,0,0,0,.439.371,1.792,1.792,0,0,0,.445.051A6.631,6.631,0,0,0,230.793,166.878Z"/><path class="f" d="M233.822,167.511c-.167-.006-.141,1.1-1.072,1.917s-2.116.72-2.121.875c-.014.07.269.209.769.21a2.761,2.761,0,0,0,1.772-.667A2.407,2.407,0,0,0,234,168.24C234.028,167.774,233.9,167.5,233.822,167.511Z"/><path class="f" d="M233.951,155.194c.108.276,1.126.118,2.33.233,1.207.09,2.183.417,2.336.164.068-.121-.107-.379-.505-.638a4.069,4.069,0,0,0-3.555-.3C234.121,154.839,233.9,155.063,233.951,155.194Z"/><path class="f" d="M224.555,156.288c.186.228.885-.031,1.732-.064.846-.062,1.569.117,1.728-.13.07-.12-.049-.35-.368-.562a2.512,2.512,0,0,0-2.788.156C224.565,155.935,224.473,156.177,224.555,156.288Z"/><path class="f" d="M247.44,153.522c-.042,1.942.445,4.092.153,6.006-.044.289-.772,1.077-.831,1.363-.349,1.7-1.03,2.437-2.076.723a15.188,15.188,0,0,1-.866-3.265q-.684-3.059-1.366-6.118a10.652,10.652,0,0,1-5.032,1.328,5.176,5.176,0,0,1-4.39-2.444,5.371,5.371,0,0,1-8.3,1.3,2.243,2.243,0,0,1-2.95.707,2.664,2.664,0,0,1-1.155-2.91c.418-1.637,2.136-2.562,3.743-3.079,6.285-2.022,13.325-.737,19.1,2.46a9.672,9.672,0,0,1,2.341,1.674c.668.694,1.591,1.507,1.642,2.469"/><path class="h" d="M242.654,152.99a3.314,3.314,0,0,1,1.033.166,3.515,3.515,0,0,1,.951.612c.323.282.647.654,1.034,1.016a3.353,3.353,0,0,0,1.295.813,2.313,2.313,0,0,0,1.261.017c.705-.2.985-.585.95-.609a7.469,7.469,0,0,1-1.008.339,2.233,2.233,0,0,1-1.092-.09,3.3,3.3,0,0,1-1.14-.756c-.37-.345-.7-.713-1.07-1.007a3.28,3.28,0,0,0-1.09-.6C243.062,152.684,242.621,152.959,242.654,152.99Z"/><path class="h" d="M243.432,154.98a2.058,2.058,0,0,1,.721.321,3.752,3.752,0,0,1,.58.658,3.1,3.1,0,0,0,2.94,1.245c.547-.082.833-.285.813-.325-.022-.058-.332.044-.836.05a3.419,3.419,0,0,1-1.845-.5c-.65-.368-.974-1.058-1.495-1.359S243.4,154.934,243.432,154.98Z"/><path class="h" d="M225.868,142.032c0-.021-.215-.056-.584.054a2.544,2.544,0,0,0-1.284.964,6.1,6.1,0,0,0-.372,5.135,7.224,7.224,0,0,0,3.262,4.01,6.376,6.376,0,0,0,1.457.622,1.408,1.408,0,0,0,.574.1,18.775,18.775,0,0,1-1.888-.954,7.387,7.387,0,0,1-3.034-3.9,6.129,6.129,0,0,1,.23-4.857,2.606,2.606,0,0,1,1.108-.976C225.664,142.083,225.871,142.064,225.868,142.032Z"/><path class="h" d="M220.355,144.8a2.905,2.905,0,0,0,.057,1.283,7.944,7.944,0,0,0,3.373,5.072,2.881,2.881,0,0,0,1.162.548,10.2,10.2,0,0,1-4.592-6.9Z"/><path class="k" d="M183.633,237.588l-9.742.494a2.3,2.3,0,0,0-2.188,2.341c.046,2.225.421,5.273,2.157,4.984l1.11-4.851,8.085,7.134a5.87,5.87,0,0,0,2.913,1.428l1.9-.2Z"/><path class="b" d="M230.224,185.407l-5.093,1.682L222.6,229.377v37.507l31.263,3.463.363-54.093-2.019-26.922-4.775-5.707Z"/><path class="b" d="M228.657,187.431v-4.1l18.579-2.586-.746,9.44-4.27,7.4-6.976.389-5.042-3.114Z"/><path class="f" d="M230.321,186.952a9.5,9.5,0,0,1,.16-3.73,9.552,9.552,0,0,1-.16,3.73Z"/><path class="f" d="M234.968,186.614a11.835,11.835,0,0,1,.244-4.165,11.895,11.895,0,0,1-.244,4.165Z"/><path class="f" d="M239.461,186.144a13.251,13.251,0,0,1,.323-4.4,13.25,13.25,0,0,1-.323,4.4Z"/><path class="f" d="M243.775,185.435a8.548,8.548,0,0,1,.191-4.17,19.738,19.738,0,0,1-.191,4.17Z"/><path class="f" d="M241.713,203.31a2.839,2.839,0,0,1-.247.7c-.179.438-.459,1.063-.821,1.827-.723,1.53-1.8,3.608-3.117,5.828s-2.633,4.158-3.632,5.524c-.5.683-.914,1.227-1.213,1.594a2.9,2.9,0,0,1-.492.548,24.726,24.726,0,0,1,1.491-2.292c.941-1.4,2.212-3.352,3.528-5.563s2.421-4.26,3.2-5.755A24.974,24.974,0,0,1,241.713,203.31Z"/><path class="n" d="M247.341,182.967l5.044,2.429,9.738,2.382a8.113,8.113,0,0,1,6.659,9.025l-5.1,39.769,6.086,38.555-24.14-.719-1.416-14.343V220.3Z"/><path class="f" d="M244.213,229.471a2.425,2.425,0,0,1,.071-.493c.069-.356.16-.82.274-1.4.263-1.253.628-2.993,1.075-5.126.951-4.357,2.25-10.307,3.684-16.88.4-1.811.8-3.575,1.172-5.266l.046.164-1.673-1.751-.093-.1.069-.114,2.809-4.671-.01.14-3.093-7.5c-.35-.877-.631-1.579-.84-2.1a5.076,5.076,0,0,1-.267-.754,5.171,5.171,0,0,1,.354.718c.228.513.535,1.205.919,2.067.79,1.831,1.891,4.385,3.213,7.447l.031.072-.041.068-2.774,4.692-.024-.211,1.68,1.743.067.069-.021.1c-.373,1.692-.763,3.456-1.162,5.268-1.476,6.564-2.812,12.5-3.791,16.857-.495,2.122-.9,3.854-1.19,5.1-.141.572-.255,1.031-.342,1.383A2.633,2.633,0,0,1,244.213,229.471Z"/><path class="n" d="M184.046,235.986,205.4,224.078l10.349-27.91a14.985,14.985,0,0,1,8.284-8.623l2.748-1.146.013,73.489.55,17.408-11.573-3.466,5.9-34.99-2.04-17.222-2.028,8.332a11.318,11.318,0,0,1-5.272,7.086L190.1,248.584Z"/><path class="b" d="M184.306,236.527l-1.8.536,5.057,12.055,2.356-.914Z"/><path class="f" d="M209.268,229.033a9.908,9.908,0,0,0-3.96-4.771,5.978,5.978,0,0,1,3.96,4.771Z"/><path class="f" d="M186.607,236.141c.023.048-.1.144-.118.351a.319.319,0,1,0,.551-.162c-.122-.167-.281-.178-.289-.232-.024-.041.2-.159.47.043a.632.632,0,1,1-.986.289C186.354,236.114,186.606,236.093,186.607,236.141Z"/><path class="f" d="M188.331,235.414c.023.049-.1.144-.118.351a.32.32,0,1,0,.551-.162c-.123-.167-.282-.178-.289-.231-.025-.041.2-.159.469.042a.632.632,0,1,1-.985.29C188.078,235.388,188.329,235.366,188.331,235.414Z"/><path class="f" d="M226.786,230.6a2.1,2.1,0,0,1-.094-.453c-.051-.338-.116-.772-.2-1.309-.161-1.185-.383-2.822-.655-4.824-.523-4.118-1.235-9.731-2.023-15.933q-.162-1.321-.32-2.6l-.006-.047.017-.043c.539-1.369,1.061-2.7,1.56-3.966l0,.135-1.541-3.519-.023-.054.015-.054c.946-3.421,1.741-6.3,2.314-8.366.281-.977.508-1.763.676-2.347a5.49,5.49,0,0,1,.274-.823,5.581,5.581,0,0,1-.176.849c-.146.59-.344,1.384-.589,2.371-.54,2.078-1.291,4.966-2.185,8.4l-.008-.108,1.565,3.509.03.066-.027.069-1.546,3.972.011-.089q.159,1.279.323,2.6c.746,6.207,1.421,11.824,1.916,15.946.223,2.008.406,3.65.538,4.838l.128,1.318A2.267,2.267,0,0,1,226.786,230.6Z"/><path class="f" d="M221.647,239.045a1.312,1.312,0,0,1-.073-.348c-.038-.272-.083-.6-.139-1-.114-.93-.268-2.18-.455-3.7-.378-3.123-.909-7.435-1.547-12.192s-1.266-9.057-1.725-12.169c-.22-1.514-.4-2.76-.536-3.687-.053-.4-.1-.733-.132-1.005a1.326,1.326,0,0,1-.021-.355,1.273,1.273,0,0,1,.1.342c.054.27.12.6.2.994.166.865.39,2.118.652,3.67.526,3.1,1.193,7.4,1.833,12.161s1.129,9.08,1.441,12.212c.156,1.566.271,2.834.339,3.712.027.4.05.738.069,1.011A1.268,1.268,0,0,1,221.647,239.045Z"/><path class="f" d="M218.7,265.168a3.487,3.487,0,0,0,.495.6,2.258,2.258,0,0,0,1.949.437,3.31,3.31,0,0,0,2.114-2.079,12.976,12.976,0,0,0,.6-3.821,8.756,8.756,0,0,0-.4-3.809,6.972,6.972,0,0,0-1.936-2.445,9.13,9.13,0,0,1-1.479-1.61,1.988,1.988,0,0,1-.349-.724c.03-.014.155.242.466.64a11.007,11.007,0,0,0,1.537,1.5,6.933,6.933,0,0,1,2.075,2.509,8.791,8.791,0,0,1,.45,3.962,12.593,12.593,0,0,1-.65,3.927,3.535,3.535,0,0,1-2.371,2.2,2.346,2.346,0,0,1-2.1-.585,1.7,1.7,0,0,1-.346-.5C218.7,265.242,218.684,265.172,218.7,265.168Z"/><path class="f" d="M210.76,237.588s.689-8.143,7.156-8.9A9.553,9.553,0,0,1,210.76,237.588Z"/><path class="i" d="M245.327,268.085c.423.282,18.778,12.283,18.778,12.283l2.117-1.694,1-27.532L249.34,237.588l-2.46.847Z"/><path class="b" d="M249.142,237.979l.733,29.8h-3.946l1.322-29.208Z"/><path class="j" d="M255.051,274.615a2.31,2.31,0,0,0,2.118,1.441c.053,0,.1.043.155.129a2.1,2.1,0,0,0,1.785,1.111,3.853,3.853,0,0,0,2.014-.581c.981-.6,2.729-4.518,2.729-4.518l4.142-9.224-6.966-1.882-8.847,2.757c0,.16-2.071,8.537-2.071,8.537a2.126,2.126,0,0,0,2.486-1.317,22.657,22.657,0,0,1,1.561-2.923l.659,3.77-2.515.86a1.67,1.67,0,0,0,1.077,1.913Z"/><path class="n" d="M258.174,209.843l11.6,21.342L260.332,259.2l10.494,5.909,13.336-31.161a8.844,8.844,0,0,0-.114-7.211l-16.361-35.143Z"/><path class="b" d="M260.332,259.2l-.979,2.171,9.9,5.335,1.037-1.9Z"/><path class="f" d="M260.332,259.2a.528.528,0,0,1,.032-.143l.122-.413.5-1.585c.46-1.4,1.113-3.4,1.927-5.887,1.677-5.028,4.011-12.029,6.684-20.043l.016.149c-1.35-2.293-2.736-4.715-4.137-7.216-2.554-4.566-4.9-8.965-6.911-13.033-.992-2.04-1.917-3.988-2.7-5.85a11.726,11.726,0,0,1-.968-5.531,12.817,12.817,0,0,1,1.036-4.525,8.846,8.846,0,0,1,2.047-2.843,6.97,6.97,0,0,1,1.848-1.221,3.814,3.814,0,0,1,.727-.259,8.164,8.164,0,0,0-2.477,1.585,8.861,8.861,0,0,0-1.956,2.823,12.732,12.732,0,0,0-.963,4.453,11.5,11.5,0,0,0,.988,5.4c.79,1.849,1.724,3.788,2.721,5.819,2.022,4.052,4.376,8.441,6.929,13,1.4,2.5,2.782,4.921,4.124,7.212l.043.072-.027.078c-2.721,8-5.1,14.985-6.806,20l-2.028,5.852-.559,1.566-.153.4A.438.438,0,0,1,260.332,259.2Z"/><path class="f" d="M277.61,230.986a8.2,8.2,0,0,1-1.144-.4,8.12,8.12,0,0,0-5.628.175,8.419,8.419,0,0,1-1.116.474,2.725,2.725,0,0,1,1.008-.712,7.05,7.05,0,0,1,5.829-.182A2.734,2.734,0,0,1,277.61,230.986Z"/><path class="f" d="M255.855,204.765l8.332,27.879,1.175-9.166Z"/><path class="f" d="M269.618,259.536c.023.049-.105.144-.118.351a.32.32,0,1,0,.551-.162c-.123-.167-.282-.178-.289-.231-.024-.041.2-.159.47.042a.633.633,0,1,1-.986.29C269.365,259.51,269.616,259.488,269.618,259.536Z"/><path class="f" d="M270.455,257.529c.023.048-.1.144-.118.351a.319.319,0,1,0,.551-.162c-.122-.167-.282-.178-.289-.232-.024-.041.2-.159.47.043a.632.632,0,1,1-.986.289C270.2,257.5,270.454,257.481,270.455,257.529Z"/><path class="f" d="M281.852,222.017c-1.243.656-1.677,2.484-1.533,3.881a32.82,32.82,0,0,1,.62,4.161,17.124,17.124,0,0,1-.532,2.956,5.118,5.118,0,0,0,.089,2.962,2.279,2.279,0,0,0,2.35,1.486l.984-1.99a10.95,10.95,0,0,0-.138-9.982Z"/><path class="i" d="M342.645,371.9a7.952,7.952,0,0,1,4.121-5.264c2.2-.948,4.749-.408,7,.41s4.463,1.913,6.854,2.06,5.09-.986,5.806-3.272c.673-2.15-.623-4.442-2.246-6a14.17,14.17,0,0,0-23.216,5.574"/><path class="o" d="M323.7,381.511c-3.508-3.333-3.333-9.135-1.583-13.646s5.57-7.976,9.836-10.259a31.151,31.151,0,0,1,27.148-.88,12.886,12.886,0,0,0-10.418,6.118c-1.923,3.193-2.35,7.068-3.938,10.44a16.438,16.438,0,0,1-21.045,8.227"/><path class="n" d="M322.014,361.488c-3.884-4.585-4.4-11.945-3.829-17.927s1.958-12,1.015-17.936c-.559-3.516-1.923-6.873-2.384-10.4s.192-7.521,2.928-9.8c3.143-2.619,8.094-2,11.364.458s5.165,6.322,6.55,10.172c3.042,8.459,4.158,17.839,1.659,26.474s-8.362,16.355-16.966,18.962"/><path class="f" d="M320.15,399.106a3.274,3.274,0,0,1-.015-.529c.005-.346,0-.857.029-1.515.05-1.315.176-3.217.471-5.553a74.165,74.165,0,0,1,1.492-8.131,37.511,37.511,0,0,1,3.711-9.415,39.258,39.258,0,0,1,6.064-8.107,38.6,38.6,0,0,1,6.357-5.286c.97-.671,1.909-1.18,2.716-1.652.829-.435,1.552-.792,2.144-1.078l1.4-.588a3.211,3.211,0,0,1,.495-.184,3.34,3.34,0,0,1-.47.244l-1.369.641c-.582.3-1.294.674-2.11,1.122-.8.484-1.721,1-2.677,1.683a39.963,39.963,0,0,0-12.268,13.362c-3.571,6.247-4.549,12.815-5.258,17.419-.322,2.325-.483,4.219-.571,5.53l-.089,1.51A3.291,3.291,0,0,1,320.15,399.106Z"/><path class="g" d="M286.648,343.4c-7.187,4.337-7.164,8.283-5.964,12.008s5.611,6.313,9.267,4.918c2.067-.788,3.565-2.585,4.844-4.39a20.3,20.3,0,0,1,4.272-5.035c1.793-1.3,4.391-1.792,6.192-.507"/><path class="i" d="M281.268,348.155c1.878-2.6,6.521-3.348,9.452-2.053s5.078,3.865,7,6.429,3.793,5.273,6.455,7.058,6.381,2.43,9.034.633a7.765,7.765,0,0,0,3.069-5.314,17.7,17.7,0,0,0-.422-6.266c-.634-3.014-1.67-6.162-4.082-8.077-2.688-2.134-6.418-2.235-9.848-2.123a36.891,36.891,0,0,0-11.626,1.789c-3.694,1.364-7.464,4.311-9.032,7.924"/><path class="f" d="M314.177,393.35a.554.554,0,0,1-.019-.157l-.025-.464c-.015-.433-.035-1.029-.062-1.784-.045-1.576-.109-3.81-.188-6.559-.087-2.769-.2-6.066-.4-9.722s-.476-7.675-1.03-11.858a38.164,38.164,0,0,0-1.191-6.022,31.136,31.136,0,0,0-2.2-5.269,30.324,30.324,0,0,0-2.779-4.362,28.426,28.426,0,0,0-3.033-3.33,22.27,22.27,0,0,0-5.379-3.667c-.351-.161-.657-.319-.932-.431l-.7-.272-.43-.174a.555.555,0,0,1-.144-.07.593.593,0,0,1,.154.039l.442.144.715.245c.281.1.592.252.95.4a21.537,21.537,0,0,1,5.479,3.613,28.085,28.085,0,0,1,3.091,3.335,30.315,30.315,0,0,1,2.83,4.386,31.233,31.233,0,0,1,2.241,5.314,38,38,0,0,1,1.208,6.073c.557,4.2.819,8.226,1.008,11.885s.273,6.961.331,9.732.079,5.013.086,6.563c0,.755,0,1.351,0,1.785,0,.188-.005.341-.007.464A.566.566,0,0,1,314.177,393.35Z"/><path class="f" d="M316.763,396.6a20.623,20.623,0,0,1-.787-3.087,32.381,32.381,0,0,1-.33-8.67,57.664,57.664,0,0,1,2.739-12.579c1.475-4.624,3.477-9.568,5.187-14.883a68.337,68.337,0,0,0,2.064-7.874,69.907,69.907,0,0,0,1.019-7.513,109.818,109.818,0,0,0,.229-12.847c-.124-3.66-.319-6.619-.44-8.665-.059-1.007-.106-1.8-.139-2.355-.012-.256-.021-.458-.028-.613a.952.952,0,0,1,0-.21,1.072,1.072,0,0,1,.031.207c.016.155.036.356.061.611.047.558.114,1.346.2,2.352.16,2.043.389,5,.542,8.664a106.126,106.126,0,0,1-.161,12.881,69.354,69.354,0,0,1-1.005,7.549,67.8,67.8,0,0,1-2.067,7.911c-1.716,5.332-3.725,10.27-5.211,14.876a58.484,58.484,0,0,0-2.794,12.509,33.43,33.43,0,0,0,.226,8.628c.176,1.006.338,1.786.48,2.305.06.249.108.446.145.6A1.049,1.049,0,0,1,316.763,396.6Z"/><path class="h" d="M334.579,399.845H300.836l-.77-6.495h34.513Z"/><path class="h" d="M304.457,399.106l4.219,19.484h18.335l3.947-19.484Z"/><path class="h" d="M334.579,399.845c0,.089-7.419.14-16.568.114s-16.569-.118-16.569-.207,7.417-.14,16.57-.114S334.579,399.756,334.579,399.845Z"/><path class="f" d="M328.788,409.462a13.914,13.914,0,0,0-2.972-1.7,10.51,10.51,0,0,0-3.614-.726,12.722,12.722,0,0,0-4.442.815c-1.538.52-2.975,1.126-4.373,1.459a10.41,10.41,0,0,1-3.78.114,7.8,7.8,0,0,1-2.429-.769,4.855,4.855,0,0,1-.586-.372c-.126-.1-.189-.15-.183-.159.018-.026.288.167.824.419a8.531,8.531,0,0,0,2.406.656,10.583,10.583,0,0,0,3.682-.178c1.35-.337,2.786-.949,4.336-1.474a12.614,12.614,0,0,1,4.553-.807,10.34,10.34,0,0,1,3.692.811,9.6,9.6,0,0,1,2.2,1.283,5.773,5.773,0,0,1,.524.452C328.739,409.392,328.8,409.454,328.788,409.462Z"/><path class="c" d="M328.532,410.763a14.748,14.748,0,0,0-2.854-1.68,9.688,9.688,0,0,0-3.485-.719,12.554,12.554,0,0,0-4.3.774c-1.486.5-2.881,1.073-4.213,1.432a10.829,10.829,0,0,1-3.633.407,6.153,6.153,0,0,1-2.38-.637,4.246,4.246,0,0,1-.568-.359c-.122-.092-.183-.145-.176-.154.018-.026.279.162.8.4a6.558,6.558,0,0,0,2.341.522,11.06,11.06,0,0,0,3.538-.466c1.305-.367,2.689-.949,4.192-1.451a12.45,12.45,0,0,1,4.406-.765,9.542,9.542,0,0,1,5.673,2.08,5.624,5.624,0,0,1,.5.441C328.485,410.7,328.539,410.755,328.532,410.763Z"/><path class="c" d="M329.122,408.17a15.969,15.969,0,0,0-3.051-1.8,11.234,11.234,0,0,0-3.7-.891,12.008,12.008,0,0,0-4.585.808,41.331,41.331,0,0,1-4.528,1.479,11.533,11.533,0,0,1-3.9.007,8.8,8.8,0,0,1-2.507-.794,4.663,4.663,0,0,1-.608-.378c-.132-.1-.2-.153-.19-.162.018-.026.3.174.853.427a9.644,9.644,0,0,0,2.488.682,11.764,11.764,0,0,0,3.811-.073,45.571,45.571,0,0,0,4.481-1.492,11.95,11.95,0,0,1,4.706-.8,11.011,11.011,0,0,1,3.777.978,10.9,10.9,0,0,1,2.251,1.355,6.165,6.165,0,0,1,.54.467C329.071,408.1,329.129,408.162,329.122,408.17Z"/><path class="f" d="M334.877,399.873c0,.089-7.59.161-16.951.161s-16.953-.072-16.953-.161,7.588-.161,16.953-.161S334.877,399.784,334.877,399.873Z"/><path class="p" d="M77.024,392.46c1.214,1.734,3.573,1.16,4.666.1a8.813,8.813,0,0,0,1.977-4.054c.961-3.341,1.931-6.846,1.216-10.248a5.693,5.693,0,0,0-1.309-2.786,2.973,2.973,0,0,0-2.819-.938,4.35,4.35,0,0,0-2.462,2.587,24.416,24.416,0,0,0-2.414,10.484,8.475,8.475,0,0,0,1.145,4.853"/><path class="o" d="M81.571,401.238a10.519,10.519,0,0,1,6.525-.793,5.427,5.427,0,0,1,3.224,1.439,2.32,2.32,0,0,1,.033,3.218,3.088,3.088,0,0,1-2.032.516c-1.725-.021-3.639-.324-5.017.714-.786.592-1.31,1.576-2.25,1.867a2.223,2.223,0,0,1-2.445-1.088,3.8,3.8,0,0,1-.276-2.8A4.279,4.279,0,0,1,81.571,401.238Z"/><path class="n" d="M73.692,394.947a6.306,6.306,0,0,0,.981-5.8,11.188,11.188,0,0,0-3.437-4.986,18.508,18.508,0,0,0-6.156-3.632,6.556,6.556,0,0,0-2.768-.47,2.907,2.907,0,0,0-2.324,1.4c-.647,1.236-.026,2.735.646,3.957a46.78,46.78,0,0,0,4.043,6.157,10.938,10.938,0,0,0,4.446,3.809c1.847.706,3.766.623,4.745-.657"/><path class="f" d="M76.942,418.607a3.742,3.742,0,0,0,.11-.788c.056-.573.126-1.293.209-2.149a30.79,30.79,0,0,1,.484-3.153,24.232,24.232,0,0,1,1.146-3.721,13.686,13.686,0,0,1,1.9-3.367,7.086,7.086,0,0,1,2.4-2,6.707,6.707,0,0,1,2.023-.63,3.72,3.72,0,0,0,.784-.114,3.721,3.721,0,0,0-.8-.012,6.131,6.131,0,0,0-2.109.549,7.081,7.081,0,0,0-2.534,2.014,13.421,13.421,0,0,0-1.97,3.435,22.858,22.858,0,0,0-1.138,3.782,26.894,26.894,0,0,0-.419,3.193c-.068.913-.094,1.652-.106,2.163A3.688,3.688,0,0,0,76.942,418.607Z"/><path class="f" d="M77.09,416.953a1.546,1.546,0,0,0,.022-.366l0-1.045c0-.907,0-2.219.046-3.84.08-3.241.36-7.716.9-12.634s1.262-9.345,1.918-12.52c.155-.8.312-1.512.459-2.139s.259-1.171.375-1.609l.244-1.016a1.5,1.5,0,0,0,.064-.361,1.545,1.545,0,0,0-.127.343c-.08.263-.18.6-.3,1-.135.434-.273.972-.43,1.6s-.337,1.339-.506,2.134a118.619,118.619,0,0,0-2.018,12.532c-.54,4.929-.783,9.416-.805,12.666-.019,1.625.016,2.94.057,3.847.026.425.047.771.064,1.045A1.564,1.564,0,0,0,77.09,416.953Z"/><path class="f" d="M77.112,408.3a6.968,6.968,0,0,0-.008-1.092c-.04-.7-.136-1.716-.334-2.958a38.865,38.865,0,0,0-.962-4.309,38.082,38.082,0,0,0-1.8-5.1,27.148,27.148,0,0,0-5.292-8.24,13.378,13.378,0,0,0-1.245-1.158c-.191-.161-.36-.322-.532-.45l-.483-.333a6.958,6.958,0,0,0-.919-.588,32.443,32.443,0,0,1,3.013,2.688,28.626,28.626,0,0,1,5.16,8.21,40.745,40.745,0,0,1,1.812,5.052c.473,1.583.786,3.04,1.024,4.267s.356,2.233.434,2.928A7.084,7.084,0,0,0,77.112,408.3Z"/><path class="i" d="M181.811,121.332a1.832,1.832,0,0,1,.361-.009l1.064.027a11.128,11.128,0,0,1,1.722.17c.338.053.707.087,1.093.167l1.224.3a20.4,20.4,0,0,1,15.043,18.623,20.3,20.3,0,0,1-2.8,11.52,20.649,20.649,0,0,1-9.867,8.587,20.229,20.229,0,0,1-6.845,1.507,19.6,19.6,0,0,1-7.159-.891l-.213-.067.168,0-11.965,4.145-.487.169.153-.492c1.073-3.442,2.111-6.774,3.106-9.967l.052.24a20.466,20.466,0,0,1-4.8-17.718,20.156,20.156,0,0,1,3.087-7.375,20.691,20.691,0,0,1,4.737-4.942,22.012,22.012,0,0,1,2.482-1.61,23.108,23.108,0,0,1,2.385-1.082,16.266,16.266,0,0,1,2.153-.684,13.359,13.359,0,0,1,1.846-.387c.56-.074,1.053-.158,1.483-.195l1.089-.035.664-.012a.884.884,0,0,1,.226.01.936.936,0,0,1-.225.032l-.662.055-1.08.075c-.426.05-.914.147-1.468.233a13.543,13.543,0,0,0-1.82.42,16.2,16.2,0,0,0-2.119.712,23,23,0,0,0-2.339,1.1,21.881,21.881,0,0,0-2.429,1.615,20.5,20.5,0,0,0-4.616,4.9,19.87,19.87,0,0,0-2.98,7.251,20.061,20.061,0,0,0,4.759,17.3l.094.1-.042.135c-.988,3.195-2.019,6.529-3.085,9.973l-.333-.322,11.962-4.154.083-.028.086.027.207.065a19.124,19.124,0,0,0,6.976.87,19.72,19.72,0,0,0,6.672-1.461,20.185,20.185,0,0,0,9.645-8.355,20.222,20.222,0,0,0-6.079-27.007,20.253,20.253,0,0,0-5.8-2.69l-1.206-.323c-.381-.087-.746-.129-1.08-.19a12.028,12.028,0,0,0-1.705-.218l-1.058-.08A1.9,1.9,0,0,1,181.811,121.332Z"/><path class="n" d="M169.781,143.157l3.148-3.148,6.071,5.4,11.918-11.468,2.923,3.148-15.29,14.391Z"/></g></svg>