<svg xmlns="http://www.w3.org/2000/svg" width="432.909" height="298.568" viewBox="0 0 432.909 298.568"><defs><style>.a{fill:#ebebeb;}.b{fill:#e0e0e0;}.c{fill:#fff;}.d{fill:#f5f5f5;}.e{fill:#263238;}.f{fill:#0048cd;}.g{fill:#e8505b;}.h{fill:#f2f2f2;}.i{fill:#c4c9ce;}.j{fill:#75c6fa;}.k{opacity:0.3;}.l{opacity:0.4;}.m{fill:#fafafa;}</style></defs><g transform="translate(-30.392 -114.035)"><path class="a" d="M99.239,400.055c13.837-11.321,15.628-30.363,13.668-47.185-.327-2.809-.257-5.8-1.816-8.162s-4.864-3.787-7.322-2.39c-2.038,1.159-2.763,3.668-3.784,5.778a16.674,16.674,0,0,1-6.175,6.86c-1.741,1.081-3.942,1.834-5.816,1.006-2.571-1.138-3.135-4.469-3.347-7.273l-1.182-15.667a25.829,25.829,0,0,0-1.537-8.249c-1.1-2.585-3.251-4.894-6.012-5.418s-5.974,1.289-6.319,4.077a25.679,25.679,0,0,0,.205,3.494,2.959,2.959,0,0,1-1.52,2.918c-1.1.421-2.306-.28-3.222-1.029-3.16-2.587-5.446-6.066-7.6-9.536s-4.261-7.03-7.17-9.895-6.787-5.007-10.869-4.9-8.21,2.941-8.915,6.963,1.955,7.847,4.757,10.834a63.139,63.139,0,0,0,14.2,11.321,5.192,5.192,0,0,1,2.4,2.159c.768,1.816-.873,3.819-2.69,4.587-2.059.869-4.371.842-6.563,1.282s-4.51,1.6-5.179,3.732c-.927,2.96,1.744,5.76,4.292,7.529a54.6,54.6,0,0,0,16.808,7.825c2.149.583,4.4,1.063,6.2,2.371s3.024,3.743,2.169,5.8-3.415,2.9-5.635,2.686-4.272-1.23-6.419-1.835c-4.019-1.131-9.033-.45-11.259,3.082a8.793,8.793,0,0,0-.314,7.916,20.443,20.443,0,0,0,4.867,6.567,54.715,54.715,0,0,0,24.621,14.241c9.3,2.35,17.75,2.5,26.475-1.489"/><path class="b" d="M100.453,412.55a122.163,122.163,0,0,0-6.533-22.691,250.427,250.427,0,0,0-12.305-26.183l-3.584-6.7c-1.18-2.2-2.35-4.373-3.628-6.432a125.48,125.48,0,0,0-8.032-11.419c-2.733-3.51-5.457-6.742-8.026-9.747s-5.031-5.752-7.376-8.165a100.858,100.858,0,0,0-11.913-10.567c-1.5-1.135-2.692-1.979-3.508-2.541l-.93-.634c-.211-.14-.326-.2-.326-.2s.1.086.3.239l.907.667c.8.585,1.975,1.449,3.457,2.6a105.385,105.385,0,0,1,11.8,10.644c2.326,2.421,4.763,5.179,7.324,8.186s5.265,6.249,7.985,9.759a126.179,126.179,0,0,1,7.986,11.395c1.27,2.052,2.43,4.213,3.612,6.416l3.58,6.7A255.1,255.1,0,0,1,93.555,390a123.863,123.863,0,0,1,6.6,22.6"/><path class="b" d="M74.293,350.512a6.852,6.852,0,0,0,.161-1.22c.079-.786.16-1.928.241-3.338.164-2.822.263-6.726.361-11.032s.265-8.2.49-11.012c.108-1.406.21-2.544.292-3.328a6.718,6.718,0,0,0,.077-1.227,6.992,6.992,0,0,0-.241,1.206c-.132.78-.28,1.916-.426,3.322-.3,2.813-.518,6.718-.616,11.029-.092,4.268-.174,8.13-.237,11.029-.042,1.351-.079,2.474-.106,3.342A6.877,6.877,0,0,0,74.293,350.512Z"/><path class="b" d="M37.259,346.79a1.346,1.346,0,0,0,.38.029l1.088,0c.943,0,2.308-.007,3.994.043,3.371.07,8.026.338,13.145.859s9.732,1.213,13.052,1.806c1.663.285,3,.553,3.927.734l1.069.2a1.314,1.314,0,0,0,.379.043,1.268,1.268,0,0,0-.36-.127l-1.051-.281c-.916-.231-2.249-.545-3.908-.869-3.313-.669-7.932-1.4-13.065-1.931s-9.8-.744-13.184-.738c-1.69-.011-3.059.039-4,.092l-1.087.076A1.264,1.264,0,0,0,37.259,346.79Z"/><path class="b" d="M93.459,389.217a2.27,2.27,0,0,0,.2-.463l.51-1.357c.438-1.18,1.031-2.9,1.736-5.039,1.414-4.272,3.186-10.233,5.057-16.835s3.6-12.571,4.936-16.862l1.607-5.076c.177-.565.32-1.023.433-1.382a2.233,2.233,0,0,0,.124-.492,2.3,2.3,0,0,0-.205.464c-.132.352-.3.8-.509,1.356-.438,1.18-1.03,2.9-1.735,5.039-1.415,4.272-3.187,10.232-5.059,16.837s-3.6,12.568-4.935,16.86c-.666,2.1-1.211,3.826-1.606,5.076-.178.565-.321,1.023-.434,1.383A2.3,2.3,0,0,0,93.459,389.217Z"/><path class="b" d="M43.716,377.792a2.555,2.555,0,0,0,.5.147l1.448.339,5.332,1.218c4.5,1.033,10.7,2.536,17.541,4.214s13.06,3.137,17.58,4.1c2.26.48,4.092.852,5.362,1.085l1.465.263a2.446,2.446,0,0,0,.516.063,2.312,2.312,0,0,0-.5-.147l-1.448-.34-5.331-1.217c-4.5-1.033-10.7-2.538-17.544-4.215s-13.058-3.136-17.577-4.1c-2.26-.481-4.092-.852-5.363-1.086l-1.464-.263A2.317,2.317,0,0,0,43.716,377.792Z"/><rect class="c" width="75.502" height="50.891" transform="translate(158.32 136.049) rotate(-16.745)"/><path class="b" d="M245.282,163.029s-.108-.307-.291-.89q-.279-.9-.8-2.575c-.7-2.268-1.709-5.573-3-9.8-2.574-8.465-6.268-20.612-10.767-35.409l.259.14L158.4,136.3h0l.174-.324,14.641,48.739-.3-.159L225.005,169l14.908-4.419,3.977-1.166,1.031-.3c.234-.065.361-.094.361-.094s-.1.041-.326.113l-1,.315-3.914,1.208-14.82,4.525L173.05,185.01l-.228.069-.069-.228C168.28,170,163.3,153.492,158.07,136.124l-.075-.249.25-.075.005,0,72.31-21.7.2-.061.06.2c4.428,14.875,8.062,27.086,10.595,35.6,1.246,4.22,2.22,7.521,2.889,9.785q.483,1.66.743,2.551C245.212,162.742,245.282,163.029,245.282,163.029Z"/><path class="b" d="M230.62,114.3a.811.811,0,0,1-.1.22l-.339.62q-.49.864-1.345,2.363l-5.045,8.668c-4.33,7.342-10.295,17.46-16.944,28.736l-.112.189-.206-.08-2.213-.857-32.565-12.7-9.847-3.9-2.667-1.086-.689-.295a.932.932,0,0,1-.228-.117.939.939,0,0,1,.247.067l.708.247,2.7.995,9.906,3.751,32.62,12.56,2.213.858-.318.11,17.083-28.653,5.184-8.586,1.428-2.314.381-.594A.913.913,0,0,1,230.62,114.3Z"/><path class="a" d="M440.969,308.948s-4.685-4.642-13.833,6.952-13.124,18.541-13.124,18.541-2.277,2.358-3.782.22-3.05-7.658-6.387-7.384c-3.461.284-5.267,3.723-5.713,9.217s-1.864,17.5-2,18.579c-.13,1.065-1.039,2.491-2.3,1.2s-7.786-12.3-12.827-8.895-3.767,18.919-3.66,20.617-.346,2.324-1.192,2.571-2.691-3.663-4.676-6.719-4.821-6.253-7.565-4.042-5.646,13.08,1.269,33.05l3.809,9.044,9.759,1.388c21.065,1.7,30.861-3.833,32.316-7.042s-2.35-5.157-5.806-6.314-7.7-1.965-7.675-2.845.52-1.476,2.19-1.8,17.006-2.97,19.046-8.7-10.257-9.3-11.822-10.193-.413-2.132.586-2.524c1.017-.4,12.281-4.776,17.489-6.582s8.085-4.416,7.494-7.837c-.57-3.3-6.3-3.414-8.748-4.336s-.733-3.717-.733-3.717,5.73-5.587,14.666-17.346,3.11-15.189,3.11-15.189"/><path class="b" d="M432.758,319.318a1.279,1.279,0,0,1-.16.254l-.51.713-2,2.713c-1.745,2.351-4.3,5.73-7.475,9.892-6.349,8.324-15.231,19.738-25.1,32.3-9.84,12.567-18.746,23.941-25.218,32.208l-7.606,9.789-2.079,2.653c-.227.281-.409.505-.551.682a1.26,1.26,0,0,1-.2.221,1.333,1.333,0,0,1,.159-.254l.51-.713c.48-.649,1.15-1.557,2-2.712,1.745-2.351,4.3-5.73,7.475-9.891,6.349-8.324,15.232-19.739,25.1-32.3l25.214-32.2,7.606-9.79c.885-1.129,1.581-2.018,2.08-2.653.227-.281.408-.506.551-.682A1.3,1.3,0,0,1,432.758,319.318Z"/><path class="b" d="M405.693,335.087a12.338,12.338,0,0,1,.369,2.619c.149,1.625.283,3.876.372,6.361.065,2.391.124,4.553.173,6.362a16.5,16.5,0,0,1,0,2.64,11.137,11.137,0,0,1-.366-2.621c-.132-1.627-.237-3.878-.325-6.362-.083-2.388-.157-4.549-.219-6.357A14.391,14.391,0,0,1,405.693,335.087Z"/><path class="b" d="M407.454,353.416c-.012-.143,4.611-.645,10.325-1.122a103.807,103.807,0,0,1,10.369-.6,103.834,103.834,0,0,1-10.326,1.123A103.567,103.567,0,0,1,407.454,353.416Z"/><path class="b" d="M390.861,372.7a15.176,15.176,0,0,1,2.663.426c1.633.309,3.885.74,6.386,1.138s4.775.7,6.423.917a15.39,15.39,0,0,1,2.662.428,12.642,12.642,0,0,1-2.7-.062c-1.662-.121-3.955-.363-6.467-.769s-4.766-.891-6.383-1.293A12.7,12.7,0,0,1,390.861,372.7Z"/><path class="b" d="M385.618,356.475a11.826,11.826,0,0,1,.97,2.3c.536,1.441,1.242,3.444,1.991,5.666s1.4,4.245,1.847,5.716a11.879,11.879,0,0,1,.621,2.416,11.871,11.871,0,0,1-.97-2.3c-.535-1.441-1.242-3.444-1.991-5.667s-1.4-4.244-1.847-5.716A11.857,11.857,0,0,1,385.618,356.475Z"/><path class="b" d="M368.806,371.641a19.408,19.408,0,0,1,1.222,2.952c.692,1.845,1.613,4.406,2.6,7.245s1.855,5.42,2.458,7.3a19.4,19.4,0,0,1,.873,3.072,19.489,19.489,0,0,1-1.221-2.951c-.692-1.845-1.614-4.406-2.6-7.246s-1.854-5.419-2.457-7.3A19.375,19.375,0,0,1,368.806,371.641Z"/><path class="b" d="M375.928,391.666a24.487,24.487,0,0,1,3.389.448c2.084.323,4.961.772,8.149,1.192s6.082.745,8.179.973a24.558,24.558,0,0,1,3.389.452,20.284,20.284,0,0,1-3.421-.085c-2.109-.134-5.018-.4-8.216-.824s-6.073-.929-8.144-1.346A20.3,20.3,0,0,1,375.928,391.666Z"/><rect class="d" width="77.587" height="56.698" transform="matrix(0.031, -1, 1, 0.031, 394.487, 288.161)"/><rect class="c" width="77.587" height="56.698" transform="matrix(0.031, -1, 1, 0.031, 384.048, 298.463)"/><path class="b" d="M440.72,300.194s-.005-.134,0-.381c0-.263.011-.625.019-1.1.024-.978.058-2.4.1-4.237.1-3.709.242-9.1.424-15.93.388-13.648.938-33.005,1.59-55.913l.228.243-56.666-1.706h-.006l.268-.253c-.9,28.967-1.738,55.785-2.416,77.55l-.205-.219,41.154,1.367,11.448.4,3.015.116c.684.029,1.048.056,1.048.056s-.334.005-1-.008l-2.977-.067-11.4-.294-41.294-1.15-.213,0,.007-.213c.651-21.766,1.453-48.585,2.32-77.552l.007-.261.261.008h.006l56.665,1.755.236.007-.008.236c-.749,22.968-1.382,42.376-1.828,56.06-.235,6.8-.421,12.177-.548,15.873-.068,1.819-.12,3.221-.156,4.188-.02.46-.036.814-.047,1.07C440.732,300.079,440.72,300.194,440.72,300.194Z"/><path class="b" d="M420.955,238.862c0,.144-6.174.072-13.778-.16s-13.767-.537-13.762-.681,6.172-.072,13.778.16S420.959,238.718,420.955,238.862Z"/><path class="b" d="M435.644,246.055c-.005.144-9.508-.029-21.225-.387s-21.215-.764-21.21-.908,9.506.03,21.226.387S435.648,245.912,435.644,246.055Z"/><path class="b" d="M435.429,253.086c0,.143-9.508-.03-21.224-.388s-21.215-.764-21.211-.908,9.506.03,21.227.387S435.434,252.942,435.429,253.086Z"/><path class="b" d="M435.215,260.116c-.005.144-9.509-.03-21.225-.388s-21.215-.764-21.21-.908,9.506.03,21.226.388S435.219,259.972,435.215,260.116Z"/><path class="b" d="M435,267.146c0,.144-9.508-.03-21.224-.388s-21.215-.764-21.211-.908,9.506.03,21.226.388S435,267,435,267.146Z"/><path class="b" d="M434.785,274.176c0,.144-9.508-.03-21.224-.388s-21.215-.764-21.211-.908,9.506.03,21.227.388S434.79,274.032,434.785,274.176Z"/><path class="b" d="M434.571,281.206c-.005.144-9.508-.03-21.225-.387s-21.215-.765-21.21-.909,9.506.03,21.226.388S434.575,281.062,434.571,281.206Z"/><path class="b" d="M414.73,287.637c0,.144-5.114.1-11.412-.088s-11.4-.465-11.4-.608,5.113-.105,11.413.088S414.735,287.493,414.73,287.637Z"/><rect class="c" width="47.936" height="59.96" transform="translate(256.992 213.904) rotate(-68.29)"/><path class="b" d="M330.431,191.548s-.093-.034-.268-.1l-.781-.3-3.024-1.192-11.407-4.516-40.26-15.981.117-.051-17.72,44.536,0,0-.056-.131,55.7,22.2-.109.047c5.36-13.415,9.8-24.534,12.908-32.3,1.557-3.886,2.779-6.933,3.612-9.013l.955-2.373c.217-.537.335-.816.335-.816s-.1.272-.311.806l-.931,2.365-3.565,9.012-12.847,32.384-.031.078-.078-.031L256.955,214l-.094-.037.037-.094,0-.005,17.74-44.528.034-.084.084.034,40.281,16.086,11.37,4.553,3,1.206.767.311C330.347,191.51,330.431,191.548,330.431,191.548Z"/><rect class="a" width="41.901" height="55.748" transform="matrix(0.37, -0.929, 0.929, 0.37, 259.994, 211.903)"/><path class="b" d="M260.2,212.024l27.724-17,5.178,19.6,10.823-5.067,8.068,23.083Z"/><path class="b" d="M305.069,198.42a4.389,4.389,0,1,1-2.455-5.7A4.39,4.39,0,0,1,305.069,198.42Z"/><path class="b" d="M129.454,240.858a2.47,2.47,0,0,0,1.187.2,2.137,2.137,0,0,0,1.276-.637,12.4,12.4,0,0,0,1.056-1.723l6.485-11.319,2.158-3.745,1.149-1.992a6.551,6.551,0,0,0,.528-1.005,1.916,1.916,0,0,0,.03-1.067,1.8,1.8,0,0,0-.575-.907,9.674,9.674,0,0,0-1.032-.614l-2.225-1.244-4.643-2.6-20.659-11.594a1.872,1.872,0,0,0-2.429.607l-1.551,2.651-3.042,5.224-5.756,9.871q-.345.59-.684,1.172a1.972,1.972,0,0,0-.322,1.142,1.8,1.8,0,0,0,.406,1.074,3.173,3.173,0,0,0,.99.7l4.368,2.472,7.837,4.443c4.76,2.717,8.622,4.922,11.329,6.466l3.067,1.781.791.475a1.4,1.4,0,0,1,.261.177,1.4,1.4,0,0,1-.287-.131l-.817-.429-3.115-1.7-11.41-6.322-7.867-4.388-4.381-2.449a3.57,3.57,0,0,1-1.123-.8,2.263,2.263,0,0,1-.518-1.351,2.448,2.448,0,0,1,.38-1.4l.68-1.174,5.73-9.887,3.035-5.227,1.57-2.686a2.394,2.394,0,0,1,3.114-.766l20.638,11.63,4.632,2.618,2.219,1.254a9.513,9.513,0,0,1,1.1.668,2.225,2.225,0,0,1,.71,1.133,2.341,2.341,0,0,1-.044,1.307,6.657,6.657,0,0,1-.571,1.083l-1.163,1.984-2.187,3.729c-2.785,4.721-5.044,8.551-6.628,11.235a11.638,11.638,0,0,1-1.121,1.731,2.231,2.231,0,0,1-1.376.633,2.029,2.029,0,0,1-.921-.146A1.079,1.079,0,0,1,129.454,240.858Z"/><path class="b" d="M124.169,220.357l2.521,4.475-5.2.1-5.2.1,2.679-4.571,2.679-4.571Z"/><path class="e" d="M463.3,411.019c0,.152-95.647.276-213.6.276-118,0-213.627-.124-213.627-.276s95.626-.277,213.627-.277C367.654,410.742,463.3,410.866,463.3,411.019Z"/><path class="f" d="M141.813,347.486l-30.2-30.326L126.8,289.276c15.182-19.433,47.317-18.181,47.317-18.181a184.194,184.194,0,0,1,47.394,2.861c25.526,4.967,23.47,21.86,23.47,21.86l3.42,62.572,3.665,50.949-94.147,1.9-16.1-63.749"/><path class="f" d="M192.529,408.3,108.2,409.335A27.412,27.412,0,0,1,83.091,370.2l36.056-66.867,32.842,22.2-22.4,46.5,68.266,1.218Z"/><path class="f" d="M241.965,285.659l67.671,104.478-39.479,2.582s-23.576-37.154-23.043-36.385C248.078,357.725,241.965,285.659,241.965,285.659Z"/><path class="g" d="M139.137,351.976"/><path class="e" d="M150.3,331.536a2.078,2.078,0,0,1,.094-.537c.1-.4.214-.9.359-1.514.312-1.314.767-3.214,1.244-5.579s.978-5.194,1.324-8.359a44.141,44.141,0,0,0,.036-10.3,27.155,27.155,0,0,0-3.493-9.618,38.807,38.807,0,0,0-5.023-6.761,47.568,47.568,0,0,0-4.1-3.963,20.9,20.9,0,0,1-1.581-1.38,2.124,2.124,0,0,1,.46.292c.287.211.728.5,1.25.932a39.694,39.694,0,0,1,4.238,3.867,37.306,37.306,0,0,1,5.168,6.771,27.082,27.082,0,0,1,3.6,9.787,43.134,43.134,0,0,1-.075,10.43,84.531,84.531,0,0,1-1.441,8.383c-.525,2.362-1.035,4.254-1.408,5.554-.187.65-.342,1.152-.454,1.49A2.175,2.175,0,0,1,150.3,331.536Z"/><path class="e" d="M147.584,335.139a9.725,9.725,0,0,1-.581,1.512c-.4.959-1.01,2.338-1.774,4.034-1.527,3.394-3.7,8.053-6.2,13.15s-4.858,9.671-6.607,12.955c-.875,1.643-1.6,2.965-2.106,3.872a9.566,9.566,0,0,1-.84,1.383,9.586,9.586,0,0,1,.66-1.477l1.959-3.947c1.693-3.409,3.96-7.971,6.466-13.015L144.9,340.53c.781-1.611,1.429-2.946,1.923-3.964A9.523,9.523,0,0,1,147.584,335.139Z"/><path class="e" d="M192.529,408.3a.638.638,0,0,1,0-.176c.012-.139.025-.306.042-.514.049-.485.115-1.148.2-1.993.195-1.776.475-4.312.826-7.5.746-6.463,1.8-15.57,3.037-26.3l.236.266-24.909.022-43.579-.076-13.207-.083-3.59-.049-.934-.025a.16.16,0,1,1,0-.054l.934-.026,3.59-.048,13.207-.083,43.579-.076,24.909.022h.27l-.033.266c-1.316,10.72-2.432,19.819-3.225,26.277l-.959,7.486c-.117.842-.208,1.5-.274,1.985l-.08.509A.612.612,0,0,1,192.529,408.3Z"/><path class="e" d="M130.181,372.741a24,24,0,0,1-1.683-2.108,32.868,32.868,0,0,0-9.817-8.29,24.077,24.077,0,0,1-2.359-1.306,9.851,9.851,0,0,1,2.529.979,27.023,27.023,0,0,1,9.94,8.394A9.9,9.9,0,0,1,130.181,372.741Z"/><path class="e" d="M249.8,379.357a5.488,5.488,0,0,1-.133-.864q-.1-.923-.282-2.489c-.231-2.162-.541-5.294-.875-9.168-.684-7.747-1.473-18.462-2.176-30.306s-1.191-22.581-1.472-30.352c-.144-3.885-.236-7.03-.285-9.2q-.025-1.576-.041-2.5a5.44,5.44,0,0,1,.021-.874,5.527,5.527,0,0,1,.084.87q.051.927.139,2.5c.109,2.221.262,5.35.45,9.2.375,7.766.923,18.493,1.623,30.337s1.434,22.556,2.024,30.307c.3,3.839.538,6.962.709,9.18q.117,1.572.185,2.5A5.383,5.383,0,0,1,249.8,379.357Z"/><path class="b" d="M174.525,322.508a8.428,8.428,0,0,1,.107-1.367c.115-.953.269-2.222.457-3.782.439-3.3,1.04-7.824,1.736-13.059l.388.238-6.47,4.53-6.582,4.578-.474.33.087-.569c.794-5.191,1.479-9.672,1.98-12.942.254-1.54.461-2.792.616-3.733a8.482,8.482,0,0,1,.278-1.332,8.228,8.228,0,0,1-.114,1.356c-.119.946-.278,2.2-.474,3.753-.454,3.278-1.075,7.768-1.8,12.97l-.387-.239,6.568-4.6,6.484-4.51.471-.328-.083.566c-.77,5.225-1.435,9.738-1.92,13.033-.248,1.552-.449,2.814-.6,3.763A8.584,8.584,0,0,1,174.525,322.508Z"/><path class="b" d="M212.157,326.564a8.3,8.3,0,0,1-.982-.956l-2.617-2.769c-2.258-2.448-5.351-5.8-8.933-9.682l.431-.146c-.2,2.451-.423,5.11-.652,7.871-.241,2.8-.473,5.5-.686,7.988l-.05.576-.382-.431-8.687-9.8c-1.022-1.179-1.852-2.138-2.477-2.86a8.353,8.353,0,0,1-.847-1.065,8.334,8.334,0,0,1,.97.954l2.584,2.764,8.826,9.672-.431.144c.206-2.486.429-5.186.661-7.99.237-2.76.466-5.418.676-7.869l.05-.572.381.426c3.527,3.931,6.572,7.328,8.8,9.807l2.51,2.867A8.583,8.583,0,0,1,212.157,326.564Z"/><path class="b" d="M231.1,325.225a8.637,8.637,0,0,1-.68,1.19l-2.024,3.227-7.133,11.076-.25-.38,7.783-1.343,7.906-1.339.569-.1-.321.478-7.3,10.866-2.148,3.115a8.4,8.4,0,0,1-.818,1.086,8.156,8.156,0,0,1,.68-1.178l2.028-3.194,7.149-10.969.248.381-7.9,1.363-7.787,1.319-.566.1.316-.477,7.289-10.974,2.145-3.148A8.383,8.383,0,0,1,231.1,325.225Z"/><path class="b" d="M205.913,344.6a8.308,8.308,0,0,1-.679,1.191l-2.024,3.227c-1.8,2.8-4.274,6.636-7.133,11.076l-.25-.381,7.783-1.342,7.906-1.339.569-.1-.321.477-7.3,10.867-2.148,3.115a8.222,8.222,0,0,1-.819,1.086,8.377,8.377,0,0,1,.681-1.178c.511-.8,1.191-1.877,2.028-3.194l7.149-10.969.248.381-7.9,1.363-7.787,1.319-.566.1.316-.477,7.289-10.974L205.1,345.7A8.637,8.637,0,0,1,205.913,344.6Z"/><path class="b" d="M260.335,324.95a8.436,8.436,0,0,1-.679,1.191l-2.025,3.227L250.5,340.444l-.249-.381,7.783-1.342,7.9-1.339.57-.1-.321.477-7.3,10.867c-.885,1.284-1.606,2.329-2.147,3.115a8.334,8.334,0,0,1-.819,1.086,8.42,8.42,0,0,1,.68-1.178l2.028-3.194c1.807-2.772,4.282-6.569,7.149-10.969l.249.381-7.9,1.363-7.788,1.319-.566.1.317-.477c2.922-4.4,5.446-8.2,7.288-10.974l2.146-3.148A8.426,8.426,0,0,1,260.335,324.95Z"/><path class="b" d="M132.886,308.943a8.306,8.306,0,0,1-.679,1.191l-2.024,3.227c-1.8,2.8-4.274,6.636-7.133,11.076l-.25-.381,7.783-1.342,7.906-1.339.569-.1-.321.477-7.3,10.867-2.148,3.114a8.2,8.2,0,0,1-.819,1.087,8.375,8.375,0,0,1,.681-1.178c.511-.806,1.191-1.877,2.028-3.194,1.806-2.772,4.281-6.57,7.149-10.969l.248.381-7.9,1.363-7.787,1.319-.566.1.316-.476,7.289-10.974,2.145-3.148A8.544,8.544,0,0,1,132.886,308.943Z"/><path class="b" d="M93.352,383.716a8.42,8.42,0,0,1,.921,1.016l2.438,2.927,8.311,10.222-.439.118c.356-2.434.742-5.074,1.142-7.815.416-2.783.816-5.462,1.184-7.93l.086-.571.354.454,8.059,10.319,2.293,3.009a8.271,8.271,0,0,1,.778,1.116,8.439,8.439,0,0,1-.908-1.013l-2.406-2.92-8.2-10.2.439-.117-1.16,7.933-1.166,7.812-.085.568-.354-.449c-3.274-4.144-6.1-7.724-8.166-10.338l-2.326-3.017A8.528,8.528,0,0,1,93.352,383.716Z"/><path class="b" d="M183.645,335.3a8.472,8.472,0,0,1-1.359.175l-3.8.328-13.137.98.153-.429,5.761,5.4,5.831,5.5.42.4-.574.031-13.074.717-3.78.162a8.26,8.26,0,0,1-1.361,0,8.367,8.367,0,0,1,1.351-.166l3.771-.306,13.062-.9-.155.428-5.848-5.485-5.744-5.421-.417-.394.571-.034,13.149-.794,3.806-.185A8.54,8.54,0,0,1,183.645,335.3Z"/><path class="b" d="M161.487,385.7a8.564,8.564,0,0,1,.94,1l2.495,2.88,8.509,10.056-.436.128c.308-2.441.642-5.088.989-7.836.361-2.791.709-5.478,1.029-7.952l.074-.573.363.447,8.259,10.16,2.352,2.963a8.436,8.436,0,0,1,.8,1.1,8.289,8.289,0,0,1-.928-1l-2.463-2.873-8.4-10.041.437-.126c-.312,2.475-.651,5.163-1,7.955-.355,2.747-.7,5.393-1.013,7.833l-.073.569-.364-.442-8.366-10.176-2.385-2.971A8.33,8.33,0,0,1,161.487,385.7Z"/><path class="b" d="M121.884,348.74a8.49,8.49,0,0,1-1.359.175l-3.8.328-13.137.98.153-.429,5.761,5.4,5.831,5.5.42.4-.575.032-13.073.717-3.78.162a8.4,8.4,0,0,1-1.361,0,8.4,8.4,0,0,1,1.35-.167l3.771-.305,13.063-.9-.155.428-5.848-5.485-5.744-5.421-.418-.394.571-.035,13.15-.793,3.806-.185A8.39,8.39,0,0,1,121.884,348.74Z"/><path class="b" d="M155.907,384.569a8.472,8.472,0,0,1-1.359.175l-3.8.328-13.137.979.153-.428,5.761,5.4,5.831,5.5.42.4-.574.032-13.074.716-3.78.163a8.407,8.407,0,0,1-1.361,0,8.426,8.426,0,0,1,1.351-.167l3.771-.306,13.062-.9-.155.428-5.848-5.485-5.744-5.421-.417-.394.571-.035,13.149-.794,3.806-.184A8.39,8.39,0,0,1,155.907,384.569Z"/><path class="b" d="M232.718,293.411a8.354,8.354,0,0,1-1.36.175l-3.795.329-13.138.979.154-.428,5.76,5.4,5.831,5.5.42.4-.574.031-13.074.717-3.78.162a8.479,8.479,0,0,1-1.36,0,8.232,8.232,0,0,1,1.35-.167l3.771-.306,13.062-.9-.154.427c-1.82-1.706-3.8-3.559-5.848-5.485l-5.745-5.421-.417-.394.571-.034,13.15-.794,3.8-.184A8.494,8.494,0,0,1,232.718,293.411Z"/><path class="h" d="M195.356,384.569s16.826-4.847,22.393-6.267c2.171-.554,11.464,4.349,17.883,8.425,0,0,8.84,5.241,8.125,6.856-.787,1.777-4.048,1.413-9.245-1.032,0,0,1.813,5.267-1.747,5.154,0,0,1.766,5.692-1.57,6.281s-4.122-6.674-7.066-7.066-9.029-.785-9.029-.785-5.067,8.391-8.993,8.98-13.022-.472-13.022-.472Z"/><path class="i" d="M224.073,385.729a28.2,28.2,0,0,1,4.7,2.656,28.226,28.226,0,0,1,4.422,3.1,55.923,55.923,0,0,1-9.121-5.752Z"/><path class="i" d="M223.078,388.965a35.034,35.034,0,0,1,5.578,2.288,35.109,35.109,0,0,1,5.362,2.761,35.051,35.051,0,0,1-5.58-2.288A35.081,35.081,0,0,1,223.078,388.965Z"/><path class="i" d="M224.879,396.81a27.765,27.765,0,0,1,7.524,1.031,27.857,27.857,0,0,1-7.524-1.031Z"/><path class="e" d="M173.47,211.016A3.457,3.457,0,0,1,168.6,215.1c-2.279-1.156-2.568-4.3-2.12-6.818s1.3-5.2.249-7.53c-.808-1.781-2.557-2.909-3.921-4.311a11.034,11.034,0,0,1-3.064-9.358,9.276,9.276,0,0,1,6.377-7.294c3.35-.936,7.478.093,9.971-2.332,1.807-1.757,1.918-4.637,3.317-6.734,2.17-3.256,6.76-3.773,10.638-3.243s7.825,1.774,11.622.829c3.172-.789,5.775-3,8.748-4.364a17.13,17.13,0,0,1,22.3,23.517,10.95,10.95,0,0,1-5.315,5.258"/><path class="h" d="M192.766,293.615h0a19.278,19.278,0,0,0,19.256-19.545l-.254-18.384s15.444-1.547,16.467-16.847.284-50.6.284-50.6h0a53.291,53.291,0,0,0-53.835,3.808l-2.364,1.623,1.15,80.945A19.278,19.278,0,0,0,192.766,293.615Z"/><path class="e" d="M224.462,215.949a2.291,2.291,0,0,1,.025-4.554,1.039,1.039,0,0,1,.373,0,2.291,2.291,0,0,1-.026,4.554A1.033,1.033,0,0,1,224.462,215.949Z"/><path class="e" d="M227.465,211.064c-.255.252-1.695-.987-3.8-1.112-2.107-.156-3.7.881-3.917.6-.107-.127.158-.592.854-1.064a5.208,5.208,0,0,1,6.161.411C227.387,210.457,227.587,210.953,227.465,211.064Z"/><path class="e" d="M203.069,211.579a2.227,2.227,0,1,1-3.1.562A2.225,2.225,0,0,1,203.069,211.579Z"/><path class="e" d="M204.458,211.673c-.254.252-1.695-.987-3.8-1.111-2.107-.157-3.7.88-3.917.6-.108-.127.158-.592.853-1.063a5.206,5.206,0,0,1,6.161.41C204.38,211.066,204.581,211.562,204.458,211.673Z"/><path class="e" d="M211.966,229.531c-.005-.166,1.314-.359,3.45-.537.555-.03.995-.131,1.051-.425a3.013,3.013,0,0,0-.309-1.6l-1.434-4.376c-1.972-6.231-3.313-11.361-3-11.461s2.171,4.868,4.142,11.1c.464,1.52.907,2.971,1.344,4.4a3.525,3.525,0,0,1,.177,2.309,1.448,1.448,0,0,1-1,.829,3.533,3.533,0,0,1-.947.071C213.3,229.8,211.972,229.7,211.966,229.531Z"/><path class="c" d="M204.988,231.487a39.567,39.567,0,0,0,10.178,3.569,5.835,5.835,0,0,1-7,1.945C203.672,235.074,204.988,231.487,204.988,231.487Z"/><path class="i" d="M211.8,255.467a35.651,35.651,0,0,1-19.651-6.761s4.117,11.277,19.471,10.73Z"/><path class="e" d="M228.625,192.1s-9.24,4.7-21.5-1.126c-8.044-3.821-17.368-5.583-19.384-3.942s-2.289,9.859-10.134,12.409c0,0,.846,15.651-5.409,15.214s-2.824-24.77-2.824-24.77l15.131-7.758,16.609-3.474,15.751,1.909,12.218,3.092Z"/><path class="h" d="M173.342,209.628c-.255-.127-10.351-3.685-10.587,6.8s10.341,8.56,10.366,8.26S173.342,209.628,173.342,209.628Z"/><path class="i" d="M170.007,220.644c-.045-.035-.186.124-.5.259a1.829,1.829,0,0,1-1.365,0c-1.1-.432-1.992-2.211-2-4.1a6.021,6.021,0,0,1,.569-2.6,2.114,2.114,0,0,1,1.406-1.372.932.932,0,0,1,1.067.525c.134.3.062.505.118.524.028.027.229-.171.154-.606a1.167,1.167,0,0,0-.4-.666,1.382,1.382,0,0,0-1-.29,2.569,2.569,0,0,0-1.945,1.583,6.2,6.2,0,0,0-.7,2.909c.02,2.114,1.057,4.115,2.563,4.588a1.958,1.958,0,0,0,1.677-.24C169.983,220.9,170.043,220.664,170.007,220.644Z"/><path class="e" d="M168,176.8a5.786,5.786,0,0,1,6.474,2.415,16.338,16.338,0,0,0-3.019-1.792A16.415,16.415,0,0,0,168,176.8Z"/><path class="e" d="M174.311,170.52c.184.011-.1,2.211.263,4.834a20.7,20.7,0,0,0,1.464,4.569c-.05.035-.433-.373-.88-1.158a9.842,9.842,0,0,1-1.1-3.333A10.909,10.909,0,0,1,174.311,170.52Z"/><path class="e" d="M217.4,206.028c-.056-.123.394-.484,1.244-.832a9.578,9.578,0,0,1,7.018.07c.843.364,1.285.734,1.227.856-.128.278-2.148-.511-4.74-.516C219.556,205.56,217.521,206.308,217.4,206.028Z"/><path class="e" d="M194.016,203.822c-.056-.123.393-.484,1.244-.832a9.575,9.575,0,0,1,7.017.07c.844.364,1.286.734,1.228.856-.129.278-2.148-.511-4.74-.516C196.174,203.354,194.139,204.1,194.016,203.822Z"/><path class="e" d="M215.593,207.676a4.751,4.751,0,0,1,.04.621c.013.444.03,1,.05,1.692.016.743.034,1.62.055,2.625a9.941,9.941,0,0,0,.5,3.4,9.1,9.1,0,0,0,2.21,3.494,8.9,8.9,0,0,0,4.134,2.27,8.449,8.449,0,0,0,2.557.224,8.207,8.207,0,0,0,2.616-.552,8.817,8.817,0,0,0,4.313-3.489,8.985,8.985,0,0,0,1.406-5.119c0-1.789.009-3.517.014-5.166l.241.241-12.977-.118-3.768-.065-1.019-.03a1.974,1.974,0,0,1-.371-.029,10.631,10.631,0,0,1,1.285-.058l3.713-.066,13.137-.117.242,0v.245c.005,1.649.009,3.377.014,5.166a9.45,9.45,0,0,1-1.479,5.4,9.284,9.284,0,0,1-4.571,3.685,8.69,8.69,0,0,1-2.769.571,8.908,8.908,0,0,1-2.7-.254,9.288,9.288,0,0,1-4.324-2.429,9.407,9.407,0,0,1-2.257-3.686,10.037,10.037,0,0,1-.439-3.541q.03-1.546.054-2.693c.021-.678.038-1.231.051-1.669A2.758,2.758,0,0,1,215.593,207.676Z"/><path class="e" d="M191.076,207.159a4.533,4.533,0,0,1,.04.62l.051,1.692q.022,1.116.054,2.625a9.962,9.962,0,0,0,.5,3.4,9.114,9.114,0,0,0,2.211,3.5,8.9,8.9,0,0,0,4.133,2.27,8.487,8.487,0,0,0,2.558.224,8.234,8.234,0,0,0,2.616-.552,8.822,8.822,0,0,0,4.313-3.489,8.978,8.978,0,0,0,1.4-5.119c.005-1.789.01-3.517.014-5.167l.242.242-12.977-.118-3.769-.065-1.019-.03a2.113,2.113,0,0,1-.371-.029,10.673,10.673,0,0,1,1.285-.058l3.714-.066,13.137-.118.241,0v.244c0,1.65.009,3.378.014,5.167a9.468,9.468,0,0,1-1.479,5.4,9.292,9.292,0,0,1-4.572,3.685,8.682,8.682,0,0,1-2.769.57,8.847,8.847,0,0,1-2.7-.254,9.289,9.289,0,0,1-4.324-2.429,9.393,9.393,0,0,1-2.256-3.685,10.039,10.039,0,0,1-.44-3.541c.021-1.031.039-1.931.055-2.693.02-.679.037-1.231.05-1.669A2.96,2.96,0,0,1,191.076,207.159Z"/><path class="e" d="M215.813,208.4a22.965,22.965,0,0,1-6.9,0,23.053,23.053,0,0,1,6.9,0Z"/><path class="e" d="M171.955,208.542a88,88,0,0,1,9.56-.289,88.306,88.306,0,0,1,9.562.231,87.811,87.811,0,0,1-9.561.29A87.835,87.835,0,0,1,171.955,208.542Z"/><path class="j" d="M364.092,220.965l-29.769-10.69-29.48,10.546c-3.764,1.778-7.065,2.842-7.065,6.348v17.455a65.978,65.978,0,0,0,9.711,34.741,60.45,60.45,0,0,0,27.123,23.954c12.05-3.914,21.045-14.349,26.544-23.273a65.978,65.978,0,0,0,9.711-34.74v-15.7C370.867,224.609,368.217,222.167,364.092,220.965Z"/><g class="k"><path class="f" d="M334.612,293.189a48.077,48.077,0,0,1-21.459-19.107A52.2,52.2,0,0,1,305.47,246.6V234.352c0-2.774,1.673-5.372,5-6.923l23.862-8.922-.005-8.232-29.48,10.546c-3.094,1.352-7.065,2.842-7.065,6.348v17.455a65.978,65.978,0,0,0,9.711,34.741,60.45,60.45,0,0,0,27.123,23.954Z"/></g><g class="l"><path d="M334.612,303.319a35.838,35.838,0,0,0,5.848-2.508,52.463,52.463,0,0,0,12.376-9.736,66.7,66.7,0,0,0,8.609-11.566,63.508,63.508,0,0,0,9.422-35.075l.018-14.412c-.018-7.176-3.7-7.705-6.793-9.057l-29.769-10.69.005,8.232,24.14,9.066c3.323,1.551,5,4.149,5,6.923V246.74a52.2,52.2,0,0,1-7.683,27.486,46.993,46.993,0,0,1-21.169,18.963Z"/></g><path class="c" d="M342.22,245.811l.033-2.356a7.729,7.729,0,0,0-15.458-.012l-.034,2.4a4.322,4.322,0,0,0-3.687,4.273v13.9a4.325,4.325,0,0,0,4.325,4.325h14.426a4.325,4.325,0,0,0,4.325-4.325v-13.9A4.324,4.324,0,0,0,342.22,245.811Zm-5.635,14.742h-3.773l.589-2.725a2.3,2.3,0,1,1,2.493-.043C336.161,258.841,336.585,260.553,336.585,260.553Zm3.97-14.762H328.428l.032-2.336a6.064,6.064,0,0,1,12.128-.012Z"/><path class="c" d="M310.294,245.641a9.425,9.425,0,0,1-.446-2.417,41.388,41.388,0,0,1-.242-5.927c.033-1.159.11-2.262.215-3.261a6.989,6.989,0,0,1,.665-2.635,3.023,3.023,0,0,1,1.3-1.31c.4-.187.655-.179.659-.15a3.368,3.368,0,0,0-1.634,1.626,7.239,7.239,0,0,0-.516,2.513c-.079.992-.14,2.084-.173,3.232-.068,2.295.005,4.375.089,5.88A14.7,14.7,0,0,1,310.294,245.641Z"/><path class="c" d="M310.732,253.24c-.144,0-.275-.715-.292-1.6s.085-1.609.228-1.612.275.714.292,1.6S310.875,253.237,310.732,253.24Z"/><path class="e" d="M279.324,325.225l-33.2,82.088H186.275v3.706H364.551l36.465-85.794Z"/><path class="m" d="M330.063,373.689c-1.2,4.131-4.7,6.744-7.822,5.837s-4.67-4.993-3.468-9.124,4.7-6.745,7.823-5.837S331.266,369.557,330.063,373.689Z"/></g></svg>