<svg xmlns="http://www.w3.org/2000/svg" width="128.855" height="125.152" viewBox="0 0 128.855 125.152"><defs><style>.a{fill:#868686;}.b{fill:#cecece;}.c{fill:#4686c6;}.d{fill:#ebebeb;}.e{fill:#03c;}.f,.g{fill:none;}.g,.h{stroke:#000;stroke-linecap:round;stroke-linejoin:round;stroke-width:0.5px;}.h{fill:#0249cc;}</style></defs><g transform="translate(-23.99 -103.465)"><path class="a" d="M56.71,227.486a16.8,16.8,0,0,0-6,3.761c-4.949,4.751-7.324,11.811-8.182,18.607a7.914,7.914,0,0,0-8.38-.858c-3.563,1.848-5.278,6.334-4.751,10.425.33,4.091,2.376,7.654,4.421,11.283-5.146-1.055-9.765,4.421-9.568,9.568s4.091,9.567,8.38,12.272a29.631,29.631,0,0,0,20.52,3.761" transform="translate(0 -68.347)"/><path class="b" d="M0,0H98.51V7.192H0Z" transform="translate(54.335 221.425)"/><path class="c" d="M162.568,313.96h15.9a3.9,3.9,0,0,0-.33-2.573,7.7,7.7,0,0,0-1.056-1.055c-.2,0-.527-.2-.858,0-.66.2-.66,1.385-.858,1.385s.33-1.518-.527-2.705a3.393,3.393,0,0,0-.858-.858c-.2,0-1.055-.66-1.715-.33a1.942,1.942,0,0,0-.66,1.056c-.33,1.518.2,2.705,0,2.9-.2,0-.33-.33-1.056-1.055-.66-.66-1.055-1.188-1.715-1.188a1.328,1.328,0,0,0-1.518.528,2.579,2.579,0,0,0-.66,1.056c-.33.858,0,1.518-.33,1.715s-.66-.33-1.715-.66a1.9,1.9,0,0,0-1.056-.2,1.82,1.82,0,0,0-1.385.858A11.72,11.72,0,0,1,162.568,313.96Z" transform="translate(-76.166 -112.659)"/><path class="c" d="M127.267,310.575c4.949,0,9.765,0,14.714-.2.2-1.518-.33-3.1-1.385-3.563-.66-.33-1.848-.66-2.376-.2a1.022,1.022,0,0,0-.33.66c-.2,0,.66-2.705-.527-3.958a1.911,1.911,0,0,0-1.188-.528c-1.188,0-1.847,1.716-1.847,1.848-.528,1.055-.33,2.045-.528,2.045s-.2-.66-.66-1.847a6.5,6.5,0,0,0-1.847-2.706,1.547,1.547,0,0,0-1.188-.528c-.858.2-1.188,1.385-1.385,1.518a3.663,3.663,0,0,0,.2,2.573c.528,1.385,1.715,2.243,1.518,2.376h-.858a8.682,8.682,0,0,0-1.715-.2,1.217,1.217,0,0,0-.66,1.055A1.677,1.677,0,0,0,127.267,310.575Z" transform="translate(-56.766 -109.274)"/><rect class="d" width="19.464" height="41.7" transform="translate(118.666 177.35)"/><path class="e" d="M155.777,331.327H123.315a3.45,3.45,0,0,1-3.431-3.431V326.84a3.449,3.449,0,0,1,3.431-3.431h32.462a3.449,3.449,0,0,1,3.431,3.431V327.9A3.408,3.408,0,0,1,155.777,331.327Z" transform="translate(-52.814 -121.316)"/><path class="c" d="M117.863,233.527h-7.852v4.091h7.852v-4.091" transform="translate(-47.363 -71.683)"/><rect class="c" width="7.852" height="4.091" transform="translate(126.914 155.18)"/><line class="f" x1="4.619" transform="translate(70.5 161.844)"/><path class="c" d="M129.166,228.89h7.522v-3.761h-7.522Z" transform="translate(-57.94 -67.046)"/><path class="c" d="M98.224,322.1h6.466V317.81H98.224" transform="translate(-40.853 -118.224)"/><path class="g" d="M150.532,280.826v.527" transform="translate(-69.738 -97.802)"/><path class="g" d="M151.71,287.1v-.528" transform="translate(-70.389 -100.975)"/><path class="g" d="M56.71,221a16.8,16.8,0,0,0-6,3.761c-4.949,4.751-7.324,11.811-8.182,18.606a7.915,7.915,0,0,0-8.38-.858c-3.563,1.848-5.278,6.334-4.751,10.425.33,4.091,2.376,7.654,4.421,11.283-5.146-1.056-9.765,4.421-9.568,9.567s4.091,9.568,8.38,12.273a29.631,29.631,0,0,0,20.52,3.761" transform="translate(0 -64.767)"/><line class="g" y1="1.188" transform="translate(130.147 122.388)"/><line class="g" y2="4.949" transform="translate(142.09 129.382)"/><line class="g" y2="4.091" transform="translate(142.09 135.386)"/><line class="g" y1="1.188" transform="translate(142.09 122.388)"/><line class="g" y2="1.188" transform="translate(142.09 139.477)"/><line class="g" y1="1.056" transform="translate(142.09 134.33)"/><line class="g" y1="2.771" transform="translate(142.09 140.664)"/><line class="g" y2="4.949" transform="translate(130.147 117.439)"/><line class="g" y2="0.99" transform="translate(142.09 128.392)"/><line class="g" y2="2.243" transform="translate(130.147 129.382)"/><line class="g" y1="4.817" transform="translate(130.147 123.575)"/><line class="g" y2="0.99" transform="translate(130.147 128.392)"/><line class="g" y2="4.817" transform="translate(142.09 123.575)"/><line class="g" y2="4.949" transform="translate(142.09 117.439)"/><line class="g" x2="1.188" transform="translate(135.624 122.388)"/><path class="g" d="M260.747,146.6h0v-1.188h0" transform="translate(-130.6 -23.026)"/><path class="g" d="M287.417,146.6h0v-1.188h0" transform="translate(-145.327 -23.026)"/><line class="g" x2="5.476" transform="translate(130.147 122.388)"/><line class="g" x1="5.278" transform="translate(136.811 122.388)"/><line class="g" x2="11.943" transform="translate(130.147 123.575)"/><line class="g" y1="4.949" transform="translate(135.624 117.439)"/><line class="g" y2="4.949" transform="translate(136.811 117.439)"/><line class="g" y2="4.949" transform="translate(135.624 129.382)"/><line class="g" y2="4.949" transform="translate(136.811 129.382)"/><path class="g" d="M260.747,158.822h0v.99h0" transform="translate(-130.6 -30.431)"/><line class="g" x1="5.476" transform="translate(130.147 129.382)"/><line class="g" x2="1.188" transform="translate(135.624 129.382)"/><line class="g" x1="5.278" transform="translate(136.811 129.382)"/><path class="g" d="M287.417,159.812h0v-.99h0" transform="translate(-145.327 -30.431)"/><line class="g" x2="11.943" transform="translate(130.147 128.392)"/><line class="g" x1="1.188" transform="translate(135.624 134.33)"/><line class="g" x2="2.771" transform="translate(132.852 134.33)"/><line class="g" x1="8.05" transform="translate(134.04 135.386)"/><path class="g" d="M287.417,173.139h0v-1.056h0" transform="translate(-145.327 -37.754)"/><line class="g" x2="5.278" transform="translate(136.811 134.33)"/><path class="g" d="M287.417,184.764h0v-1.188h0" transform="translate(-145.327 -44.1)"/><line class="g" x1="3.959" transform="translate(138.131 139.477)"/><line class="g" x2="2.705" transform="translate(139.384 140.664)"/><line class="g" y1="17.089" transform="translate(56.71 203.346)"/><path class="g" d="M300.825,227.781v61.164" transform="translate(-152.731 -68.51)"/><path class="g" d="M96.75,264.836v-42.36" transform="translate(-40.04 -65.581)"/><line class="g" y2="2.375" transform="translate(148.094 156.896)"/><line class="g" y1="1.188" transform="translate(56.71 155.048)"/><line class="g" y2="0.66" transform="translate(56.71 156.236)"/><path class="g" d="M89.088,368.99v-4.619h3.431" transform="translate(-35.809 -143.936)"/><path class="g" d="M89.088,368.99v2.573h98.378v-7.192H183.9" transform="translate(-35.809 -143.936)"/><line class="g" x1="51.729" transform="translate(63.704 220.435)"/><line class="g" x1="6.994" transform="translate(56.71 220.435)"/><line class="g" x1="9.435" transform="translate(138.659 220.435)"/><line class="g" y1="11.613" transform="translate(68.323 189.688)"/><line class="g" y1="14.054" transform="translate(68.323 174.644)"/><line class="g" y2="14.054" transform="translate(103.491 174.644)"/><line class="g" y1="11.613" transform="translate(103.491 189.688)"/><line class="g" y2="45.791" transform="translate(115.433 174.644)"/><line class="g" y2="45.791" transform="translate(138.659 174.644)"/><line class="g" x1="23.225" transform="translate(115.433 220.435)"/><rect class="g" width="19.464" height="41.7" transform="translate(117.347 176.36)"/><g transform="translate(114.51 170.026)"><path class="c" d="M250.635,255.757h.66a1.135,1.135,0,0,0,1.055-1.055v-1.848a1.135,1.135,0,0,0-1.055-1.056H226.881a1.135,1.135,0,0,0-1.055,1.056V254.7a1.135,1.135,0,0,0,1.055,1.055h.528" transform="translate(-225.826 -251.798)"/><line class="f" x2="23.225" transform="translate(1.583 3.959)"/></g><line class="g" x1="1.188" y1="1.056" transform="translate(132.852 134.33)"/><path class="g" d="M116.39,232.791h-7.852v4.091h7.852v-4.091" transform="translate(-46.549 -71.276)"/><rect class="g" width="7.852" height="4.091" transform="translate(126.188 154.85)"/><line class="g" x1="4.619" transform="translate(69.841 161.514)"/><path class="g" d="M126.072,227.746v-4.091h.66" transform="translate(-56.232 -66.232)"/><path class="g" d="M131.5,227.746h3.233v-4.091h-7.192" transform="translate(-57.045 -66.232)"/><path class="g" d="M96.75,321.164h6.466v-4.091H96.75" transform="translate(-40.04 -117.818)"/><line class="g" y1="4.091" transform="translate(56.71 199.255)"/><path class="g" d="M145.964,259.166h25.8v1.32h-1.056" transform="translate(-67.216 -85.841)"/><path class="g" d="M131.806,259.166H120.326v1.32h1.056" transform="translate(-53.058 -85.841)"/><line class="g" x1="7.324" transform="translate(86.402 174.644)"/><line class="g" x1="1.056" transform="translate(78.022 174.644)"/><line class="g" x2="8.512" transform="translate(68.323 174.644)"/><line class="g" x2="6.334" transform="translate(79.078 174.644)"/><line class="g" x1="8.512" transform="translate(94.979 174.644)"/><path class="g" d="M244.87,292.613h-.33l-4.421,4.421v.33h.4l4.421-4.421A.886.886,0,0,1,244.87,292.613Z" transform="translate(-119.209 -104.311)"/><path class="g" d="M138.762,282.3l-2.376,2.376V285h.4l2.046-2.045" transform="translate(-61.927 -98.615)"/><path class="g" d="M144.343,278.955l1.188-1.188v-.33h-.33l-.858.858" transform="translate(-66.321 -95.93)"/><path class="g" d="M150,287.182l-1.055,1.056h-.33v-.33l1.188-1.188" transform="translate(-68.68 -101.056)"/><path class="g" d="M151.71,283.113l3.563-3.431v-.33h-.33l-3.233,3.233" transform="translate(-70.389 -96.988)"/><line class="g" x1="2.771" y2="2.573" transform="translate(78.022 183.354)"/><path class="g" d="M132.677,295.626l-.858.66v.33h.4l1.188-1.056" transform="translate(-59.405 -105.938)"/><line class="g" y1="1.716" x2="1.847" transform="translate(74.987 186.983)"/><line class="g" x1="4.619" y2="4.091" transform="translate(80.793 178.933)"/><line class="g" x1="2.771" y2="2.375" transform="translate(78.022 183.024)"/><line class="g" x1="4.619" y2="3.893" transform="translate(80.793 179.461)"/><path class="g" d="M163.056,269.7l.528-.33v-.33h-.33l-.2.2" transform="translate(-76.654 -91.292)"/><line class="g" y1="2.243" x2="2.375" transform="translate(74.459 186.455)"/><path class="g" d="M257.089,300.606h.33l4.421-4.421v-.33h-.33l-4.421,4.421C256.957,300.408,256.957,300.606,257.089,300.606Z" transform="translate(-128.525 -106.101)"/><path class="g" d="M235.81,298.15h.33l15.373-15.374v-.33h-.33L235.81,297.82C235.612,297.952,235.612,298.15,235.81,298.15Z" transform="translate(-116.748 -98.696)"/><line class="g" y2="1.716" transform="translate(76.834 186.983)"/><line class="g" y2="0.528" transform="translate(78.022 185.399)"/><line class="g" y1="2.771" transform="translate(78.022 185.927)"/><line class="g" y2="0.528" transform="translate(76.834 186.455)"/><line class="g" y1="0.99" transform="translate(76.834 188.698)"/><line class="g" y1="2.243" transform="translate(76.834 184.212)"/><line class="g" y1="0.528" transform="translate(76.834 183.684)"/><line class="g" y1="4.091" transform="translate(78.022 189.688)"/><line class="g" y1="5.608" transform="translate(76.834 189.688)"/><line class="g" y1="0.528" transform="translate(78.022 182.496)"/><line class="g" y2="2.375" transform="translate(78.022 183.024)"/><line class="g" y2="9.039" transform="translate(76.834 174.644)"/><line class="g" y2="7.852" transform="translate(78.022 174.644)"/><line class="g" y1="0.99" transform="translate(78.022 188.698)"/><line class="g" x1="1.188" transform="translate(76.834 174.644)"/><line class="g" y2="4.289" transform="translate(85.412 174.644)"/><line class="g" y2="3.233" transform="translate(86.402 174.644)"/><line class="g" y2="0.99" transform="translate(86.402 188.698)"/><line class="g" y1="0.528" transform="translate(86.402 177.878)"/><line class="g" y1="1.716" transform="translate(85.412 199.585)"/><line class="g" y2="0.99" transform="translate(85.412 188.698)"/><line class="g" y1="10.293" transform="translate(86.402 178.405)"/><line class="g" y1="9.039" transform="translate(86.402 189.688)"/><line class="g" y1="9.897" transform="translate(85.412 189.688)"/><line class="g" y2="0.528" transform="translate(85.412 178.933)"/><line class="g" y1="9.237" transform="translate(85.412 179.461)"/><line class="g" x2="0.99" transform="translate(85.412 174.644)"/><line class="g" y2="14.054" transform="translate(93.726 174.644)"/><line class="g" y2="0.99" transform="translate(94.979 188.698)"/><line class="g" y1="6.136" transform="translate(94.979 189.688)"/><line class="g" y2="14.054" transform="translate(94.979 174.644)"/><line class="g" y1="8.05" transform="translate(93.726 189.688)"/><line class="g" y2="0.99" transform="translate(93.726 188.698)"/><line class="g" x2="1.254" transform="translate(93.726 174.644)"/><line class="g" x1="3.035" transform="translate(73.799 189.688)"/><line class="g" x1="4.949" transform="translate(68.323 189.688)"/><line class="g" x2="0.528" transform="translate(73.272 189.688)"/><line class="g" x2="1.847" transform="translate(74.987 188.698)"/><line class="g" x2="8.512" transform="translate(94.979 189.688)"/><line class="g" x2="1.254" transform="translate(93.726 189.688)"/><line class="g" x1="1.254" transform="translate(93.726 188.698)"/><line class="g" x1="7.324" transform="translate(86.402 188.698)"/><line class="g" x2="1.188" transform="translate(76.834 188.698)"/><line class="g" x2="3.761" transform="translate(81.651 188.698)"/><line class="g" x2="3.629" transform="translate(81.783 189.688)"/><line class="g" x2="7.324" transform="translate(86.402 189.688)"/><line class="g" x1="0.99" transform="translate(85.412 189.688)"/><line class="g" x1="0.99" transform="translate(85.412 188.698)"/><line class="g" x1="3.629" transform="translate(78.022 188.698)"/><line class="g" x2="6.136" transform="translate(68.323 188.698)"/><line class="g" x2="0.528" transform="translate(74.459 188.698)"/><line class="g" x2="1.188" transform="translate(76.834 189.688)"/><line class="g" x2="8.512" transform="translate(94.979 188.698)"/><line class="g" x2="3.761" transform="translate(78.022 189.688)"/><line class="g" y2="0.99" transform="translate(103.491 188.698)"/><line class="g" y2="0.99" transform="translate(68.323 188.698)"/><path class="g" d="M142.879,304.843a3.506,3.506,0,0,0-1.188,1.518" transform="translate(-64.856 -111.064)"/><path class="g" d="M144.343,304.355l.2-.2c.2-.2.33-.2.66-.2.2,0,.33.2.527.33,1.056,1.055,1.056,2.9.858,4.421a1.946,1.946,0,0,1,2.573-1.055" transform="translate(-66.321 -110.576)"/><path class="g" d="M125.533,310.412a1.958,1.958,0,0,1,0-1.716,1.746,1.746,0,0,1,1.518-.858,4.746,4.746,0,0,1,1.715.528c-1.385-1.716-2.243-3.959-1.385-6,.2-.528.66-1.055,1.188-1.055.66,0,1.056.528,1.386,1.055.858,1.386,1.518,2.706,2.243,4.091a16.861,16.861,0,0,1,.66-2.243" transform="translate(-55.825 -109.112)"/><path class="g" d="M156.865,316.6v-1.518a3.943,3.943,0,0,0-1.715-2.573h-.2" transform="translate(-72.179 -115.295)"/><g transform="translate(85.016 194.823)"><path class="g" d="M188.642,313.652a3.871,3.871,0,0,0-.33-3.1,1.7,1.7,0,0,0-1.385-.858,1.917,1.917,0,0,0-1.188,1.385,8.176,8.176,0,0,0-.33-2.9,1.758,1.758,0,0,0-2.573-.66c-.2.2-.33.33-.33.527" transform="translate(-172.411 -307.174)"/><path class="g" d="M160.846,316.752c.2-.2.33-.528.528-.66.2-.2.33-.2.66-.2" transform="translate(-160.45 -311.989)"/><path class="g" d="M159.962,319.526a2.977,2.977,0,0,1,.33-1.716" transform="translate(-159.962 -313.047)"/><path class="g" d="M179.412,311.568c.33.528.527,1.188,1.188,1.518,0-.66-.2-1.385-.2-2.046a2.143,2.143,0,0,1,.2-1.188" transform="translate(-170.702 -308.653)"/><path class="g" d="M170.543,312.505l-.528-.528a2.033,2.033,0,0,0-2.705.2,3.1,3.1,0,0,0-.858,2.705,6.153,6.153,0,0,0-1.715-1.188,3.864,3.864,0,0,0-1.385-.2" transform="translate(-161.833 -309.59)"/></g><line class="g" x2="0.396" transform="translate(85.016 201.301)"/><line class="g" x2="4.949" transform="translate(78.022 201.301)"/><line class="g" x1="6.268" transform="translate(94.979 201.301)"/><line class="g" x1="1.716" transform="translate(82.971 201.301)"/><path class="g" d="M123.824,321.641h-1.583" transform="translate(-54.116 -120.34)"/><line class="g" x1="7.324" transform="translate(86.402 201.301)"/><path class="g" d="M198.452,321.641h-2.243" transform="translate(-94.962 -120.34)"/><line class="g" x1="0.33" transform="translate(84.686 201.301)"/><line class="g" x2="7.126" transform="translate(69.709 201.301)"/><line class="g" x1="1.188" transform="translate(76.834 201.301)"/><line class="g" x2="0.99" transform="translate(85.412 201.301)"/><line class="g" x2="1.254" transform="translate(93.726 201.301)"/><path class="g" d="M154.68,329.853h-32.4a3.449,3.449,0,0,1-3.431-3.431v-1.056a3.45,3.45,0,0,1,3.431-3.431h32.463a3.45,3.45,0,0,1,3.431,3.431v1.056A3.552,3.552,0,0,1,154.68,329.853Z" transform="translate(-52.245 -120.502)"/><g transform="translate(113.85 170.686)"><path class="g" d="M249.161,257.231h.66a1.136,1.136,0,0,0,1.056-1.056v-1.848a1.135,1.135,0,0,0-1.056-1.055H225.408a1.135,1.135,0,0,0-1.056,1.055v1.848a1.136,1.136,0,0,0,1.056,1.056h.528" transform="translate(-224.352 -253.272)"/><line class="g" x2="23.225" transform="translate(1.584 3.959)"/></g><path class="b" d="M181,157.949c-23.951-23.027-41.5-39.853-43.416-41.436a3.753,3.753,0,0,0-2.309-.99,3.277,3.277,0,0,0-2.639,1.385c-12.8,12.206-25.666,24.413-38.467,36.553-1.649,1.518-3.365,3.035-5.014,4.487a3,3,0,0,1-3.3,0,3.192,3.192,0,0,1-.924-3.431A3.678,3.678,0,0,1,86.32,152.6q22.17-21.575,44.339-43.085a12.673,12.673,0,0,1,2.111-1.979c1.122-.858,1.715-1.32,2.376-1.32.792,0,1.451.462,2.639,1.518a13.216,13.216,0,0,1,1.914,1.781q22.862,22.269,45.725,44.6a3.294,3.294,0,0,1-1.188,4.289A3.26,3.26,0,0,1,181,157.949Z" transform="translate(-33.437 -1.383)"/><path class="h" d="M181,155.444c-23.951-23.027-41.5-39.853-43.416-41.436a3.753,3.753,0,0,0-2.309-.99,3.277,3.277,0,0,0-2.639,1.385c-12.8,12.206-25.666,24.413-38.467,36.553-1.649,1.518-3.365,3.035-5.014,4.487a3,3,0,0,1-3.3,0,3.192,3.192,0,0,1-.924-3.431A3.674,3.674,0,0,1,86.32,150.1q22.17-21.576,44.339-43.086a12.691,12.691,0,0,1,2.111-1.979c1.122-.858,1.715-1.32,2.376-1.32.792,0,1.451.462,2.639,1.518a13.217,13.217,0,0,1,1.914,1.781q22.862,22.269,45.725,44.6a3.293,3.293,0,0,1-1.188,4.289A3.109,3.109,0,0,1,181,155.444Z" transform="translate(-33.437)"/><path class="g" d="M200.109,172.781a7.918,7.918,0,1,0-7.917,7.918A7.94,7.94,0,0,0,200.109,172.781Z" transform="translate(-88.371 -33.767)"/><line class="g" y1="6.664" transform="translate(105.008 140.004)"/><line class="g" y1="6.532" transform="translate(102.567 131.295)"/><line class="g" y2="6.664" transform="translate(102.567 140.004)"/><line class="g" y2="6.532" transform="translate(105.008 131.295)"/><line class="g" x1="6.466" transform="translate(105.008 140.004)"/><line class="g" x1="2.441" transform="translate(102.567 137.827)"/><line class="g" x2="6.466" transform="translate(96.101 137.827)"/><line class="g" x2="2.441" transform="translate(102.567 140.004)"/><line class="g" x1="6.466" transform="translate(105.008 137.827)"/><line class="g" x2="6.466" transform="translate(96.101 140.004)"/><path class="g" d="M199.571,170.67A10.227,10.227,0,1,0,189.344,180.9,10.279,10.279,0,0,0,199.571,170.67Z" transform="translate(-85.523 -31.326)"/><g transform="translate(126.914 112.425)"><line class="f" x1="5.278" transform="translate(9.237 5.674)"/><path class="c" d="M268.043,128.839H269.1a1.49,1.49,0,0,0,1.385-1.385v-2.9a1.489,1.489,0,0,0-1.385-1.385H254.912a1.49,1.49,0,0,0-1.385,1.385v2.9a1.49,1.49,0,0,0,1.385,1.385h1.056" transform="translate(-253.527 -123.165)"/><line class="f" x2="1.188" transform="translate(8.05 5.674)"/><line class="f" x2="5.476" transform="translate(2.573 5.674)"/></g><g transform="translate(127.97 111.765)"><line class="g" x1="5.278" transform="translate(9.237 5.674)"/><path class="g" d="M270.4,127.365h1.056a1.49,1.49,0,0,0,1.385-1.385v-2.9a1.49,1.49,0,0,0-1.385-1.385H257.27a1.49,1.49,0,0,0-1.385,1.385v2.9a1.49,1.49,0,0,0,1.385,1.385h1.055" transform="translate(-255.885 -121.691)"/><line class="g" x2="1.254" transform="translate(7.984 5.674)"/><line class="g" x2="5.41" transform="translate(2.573 5.674)"/></g></g></svg>