<svg xmlns="http://www.w3.org/2000/svg" width="57.341" height="45.223" viewBox="0 0 57.341 45.223"><defs><style>.a{fill:none;stroke:#707070;}</style></defs><g transform="translate(25.82 -44.178)"><path class="a" d="M74.545,86.236,85.59,112.261c-.6-.088-1.146-.193-1.7-.244-1.689-.156-3.377-.365-5.07-.415-1.883-.056-3.774-.024-5.654.091-1.738.106-3.469.348-5.2.574A64.05,64.05,0,0,0,59,114.109c-1.857.521-3.715,1.046-5.545,1.651-1.774.587-3.513,1.279-5.267,1.925-.075.027-.151.049-.258.082-.331-.783-.652-1.552-.979-2.318-.461-1.08-.93-2.157-1.388-3.238-.353-.833-.691-1.672-1.046-2.5-.076-.177-.052-.259.132-.345,1.283-.6,2.576-1.184,3.836-1.831,1.465-.751,2.91-1.543,4.344-2.35,1.163-.655,2.323-1.32,3.439-2.051q2.356-1.543,4.64-3.2,1.731-1.247,3.375-2.613c1.06-.881,2.1-1.8,3.08-2.763,1.324-1.3,2.626-2.635,3.858-4.025.956-1.079,1.79-2.265,2.675-3.407C74.112,86.842,74.317,86.548,74.545,86.236Z" transform="translate(-64.812 -38.52)"/><path class="a" d="M498.945,76.88a1.354,1.354,0,0,1-2.63.565c-.456-1.057-.887-2.123-1.338-3.182-.81-1.9-1.633-3.8-2.439-5.706-.788-1.861-1.557-3.731-2.342-5.593-.6-1.421-1.213-2.836-1.816-4.255q-1.334-3.136-2.663-6.274c-.218-.514-.444-1.025-.649-1.543a1.313,1.313,0,0,1,.743-1.782,1.337,1.337,0,0,1,1.742.722c.725,1.685,1.425,3.382,2.138,5.072q.849,2.014,1.7,4.026c.891,2.085,1.793,4.164,2.68,6.25q1.65,3.88,3.283,7.767.752,1.781,1.495,3.565A1.992,1.992,0,0,1,498.945,76.88Z" transform="translate(-474.491 -3.895)"/><path class="a" d="M157.577,501c1.34-.452,2.644-.9,3.955-1.329a2.271,2.271,0,0,1,2.42.99.271.271,0,0,1-.019.236,1.223,1.223,0,0,0,.639,2.024.272.272,0,0,1,.058.036,1.3,1.3,0,0,0,.844,1.965,1.257,1.257,0,0,0-.114,1.226,1.108,1.108,0,0,0,.967.733,1.246,1.246,0,0,0-.068,1.391,1,1,0,0,0,.923.579c.227,0,.271.1.294.283a1.423,1.423,0,0,1-.914,1.518c-.824.346-1.654.677-2.469,1.043a1.875,1.875,0,0,1-2.574-1.1c-.481-1.317-1.064-2.6-1.594-3.9-.573-1.407-1.131-2.819-1.7-4.226C158.019,501.985,157.8,501.5,157.577,501Z" transform="translate(-170.006 -422.983)"/><path class="a" d="M-21.213,423.6l3.518,8.291c-2.534,1.519-5.326,1.243-6.9-1.378a4.436,4.436,0,0,1,.606-5.3A7.839,7.839,0,0,1-21.213,423.6Z" transform="translate(0 -352.292)"/><path class="a" d="M582.707,176.02a1.187,1.187,0,0,1,1.554.568c.469,1.017.9,2.052,1.34,3.081.626,1.459,1.24,2.924,1.873,4.38a1.278,1.278,0,0,1-.631,1.746Z" transform="translate(-565.41 -121.946)"/><path class="a" d="M590.945,44.82l.37.144L589.63,48.9l-.353-.178Z" transform="translate(-571.52)"/><path class="a" d="M722.112,302.023c.03.23.074.423-.256.407-1.255-.061-2.511-.108-3.766-.161-.057,0-.114-.011-.2-.019l-.035-.391Z" transform="translate(-691.108 -239.066)"/><path class="a" d="M700.351,385.265l-.136.361-3.86-1.806.139-.373Z" transform="translate(-671.111 -314.949)"/><path class="a" d="M704.235,199.336l-.129-.377,3.945-1.5.169.357Z" transform="translate(-678.32 -141.968)"/><path class="a" d="M661.8,105.927l.278.271-3.1,2.973-.255-.29Z" transform="translate(-636.113 -56.834)"/></g></svg>