<svg xmlns="http://www.w3.org/2000/svg" width="21" height="21" viewBox="0 0 21 21"><defs><style>.a{fill:none;stroke:#95989a;}</style></defs><path class="a" d="M11.99,2A10,10,0,1,0,22,12,9.989,9.989,0,0,0,11.99,2Zm4.19,5.76L15.12,8.82,14.06,7.76,13,8.82l1.06,1.06L13,10.94,14.06,12l1.06-1.06L16.18,12l1.06-1.06L16.18,9.88l1.06-1.06ZM7.82,12l1.06-1.06L9.94,12,11,10.94,9.94,9.88,11,8.82,9.94,7.76,8.88,8.82,7.82,7.76,6.76,8.82,7.82,9.88,6.76,10.94ZM12,14a5.5,5.5,0,0,0-5.11,3.5H17.11A5.5,5.5,0,0,0,12,14Z" transform="translate(-1.5 -1.5)"/></svg>