<svg xmlns="http://www.w3.org/2000/svg" width="22" height="14.777" viewBox="0 0 22 14.777"><defs><style>.a{fill:#99a2ab;}</style></defs><g transform="translate(-8.579 -156.266)"><path class="a" d="M8.579,163.1c.157-.2.32-.4.471-.6a14.961,14.961,0,0,1,6.879-5.536,10.782,10.782,0,0,1,10.548,1.688,15.77,15.77,0,0,1,3.994,4.273.622.622,0,0,1,.076.52,15.092,15.092,0,0,1-7.112,6.8,9.467,9.467,0,0,1-9.79-1.359,19.623,19.623,0,0,1-4.812-5.2,3.333,3.333,0,0,0-.255-.306Zm15.624.551a4.588,4.588,0,1,0-4.595,4.586A4.595,4.595,0,0,0,24.2,163.653Z"/><path class="a" d="M153.428,241.224a2.76,2.76,0,1,1,2.8-2.724A2.721,2.721,0,0,1,153.428,241.224Z" transform="translate(-133.845 -74.809)"/></g></svg>