<svg xmlns="http://www.w3.org/2000/svg" width="20.171" height="20.33" viewBox="0 0 20.171 20.33"><defs><style>.a{fill:#1fc26b;}</style></defs><g transform="translate(-61.666 -150.709)"><path class="a" d="M71.766,150.709a10.116,10.116,0,0,1,9.9,8.274,9.737,9.737,0,0,1,.022,3.493,10.088,10.088,0,0,1-14.332,7.4.343.343,0,0,0-.242-.013l-4.888,1.16a.4.4,0,0,1-.525-.51q.511-2.485,1.025-4.968a.461.461,0,0,0-.039-.319,10.1,10.1,0,0,1,6.124-14.075A9.523,9.523,0,0,1,71,150.742C71.255,150.724,71.51,150.719,71.766,150.709Zm.034,17.979c.286-.017.618-.023.95-.066a7.715,7.715,0,0,0,3.028-1.042,7.9,7.9,0,0,0,3.8-7.8,7.675,7.675,0,0,0-.573-2.1,7.916,7.916,0,0,0-2.077-2.838,7.751,7.751,0,0,0-4.637-1.913,8.088,8.088,0,0,0-2.3.178,7.647,7.647,0,0,0-2.643,1.141,7.766,7.766,0,0,0-2.733,3.18,7.87,7.87,0,0,0-.545,5.21,9.205,9.205,0,0,0,.917,2.278.439.439,0,0,1,.042.318c-.2.95-.388,1.9-.59,2.85-.033.156.005.163.136.132.738-.178,1.478-.351,2.217-.526a2.3,2.3,0,0,1,.726-.152,2.3,2.3,0,0,1,.674.311A7.9,7.9,0,0,0,71.8,168.688Z" transform="translate(0 0)"/><path class="a" d="M130.588,224.386a5.778,5.778,0,0,1-2.885-.864,12.032,12.032,0,0,1-3.986-3.761,4.752,4.752,0,0,1-.863-2.8,2.4,2.4,0,0,1,.537-1.4,4.652,4.652,0,0,1,.719-.738.717.717,0,0,1,1.165.246c.282.6.547,1.214.811,1.825a.756.756,0,0,1-.129.825c-.129.159-.254.323-.372.491a.7.7,0,0,0,0,.853,6.558,6.558,0,0,0,.943,1.1,11.359,11.359,0,0,0,1.926,1.556,2.827,2.827,0,0,0,.427.224.686.686,0,0,0,.782-.157c.149-.142.29-.291.435-.437a.783.783,0,0,1,.835-.218c.6.175,1.193.343,1.791.513a.74.74,0,0,1,.44,1.218,4.287,4.287,0,0,1-1,1.1,2.293,2.293,0,0,1-1.163.407C130.846,224.375,130.691,224.38,130.588,224.386Z" transform="translate(-56.18 -58.68)"/></g></svg>