<svg xmlns="http://www.w3.org/2000/svg" width="37.466" height="38.389" viewBox="0 0 37.466 38.389"><defs><style>.a{fill:none;stroke:#95989a;}</style></defs><path class="a" d="M25.814,20.579a5.341,5.341,0,1,0,5.341,5.341A5.357,5.357,0,0,0,25.814,20.579ZM39.835,25.92a13.518,13.518,0,0,1-.134,1.816l3.953,3.1a.944.944,0,0,1,.214,1.2L40.129,38.5a.945.945,0,0,1-1.148.4L34.333,37.03a14.323,14.323,0,0,1-3.151,1.843l-.694,4.941a.969.969,0,0,1-.935.8H22.075a.972.972,0,0,1-.935-.775L20.446,38.9a13.733,13.733,0,0,1-3.151-1.843l-4.647,1.869a.945.945,0,0,1-1.148-.4L7.76,32.063a.944.944,0,0,1,.214-1.2l3.953-3.1a14.254,14.254,0,0,1-.134-1.843,13.516,13.516,0,0,1,.134-1.816l-3.953-3.1a.944.944,0,0,1-.214-1.2L11.5,13.342a.945.945,0,0,1,1.148-.4l4.647,1.869a14.323,14.323,0,0,1,3.151-1.843l.694-4.941a.969.969,0,0,1,.935-.8h7.478A.972.972,0,0,1,30.487,8l.694,4.941a13.733,13.733,0,0,1,3.151,1.843l4.647-1.869a.945.945,0,0,1,1.148.4l3.739,6.463a.944.944,0,0,1-.214,1.2l-3.953,3.1a14.254,14.254,0,0,1,.134,1.843Z" transform="translate(-7.081 -6.727)"/></svg>