<svg xmlns="http://www.w3.org/2000/svg" width="26.058" height="19.237" viewBox="0 0 26.058 19.237"><defs><style>.a{fill:#95989a;}.b,.c{fill:none;stroke:#95989a;}.b{stroke-width:0.7px;}.c{stroke-width:0.5px;}</style></defs><g transform="translate(0.35 0.35)"><path class="a" d="M7.839,4.888a.982.982,0,1,1-1.008.982,1,1,0,0,1,1.008-.982m0,4.208c1.425,0,2.928.683,2.928.982v.514H4.912v-.514c0-.3,1.5-.982,2.928-.982m0-5.1a1.871,1.871,0,1,0,1.92,1.87A1.895,1.895,0,0,0,7.839,4Zm0,4.208C6.558,8.208,4,8.835,4,10.079v1.4h7.679v-1.4C11.679,8.835,9.121,8.208,7.839,8.208Z" transform="translate(0 1.689)"/><path class="b" d="M26.358,19.477V5.039A2.183,2.183,0,0,0,24.053,3H3.305A2.183,2.183,0,0,0,1,5.039V19.477a2.2,2.2,0,0,0,2.305,2.06H24.053A2.2,2.2,0,0,0,26.358,19.477Zm-2.305.021H3.305V5.029H24.053Z" transform="translate(-1 -3)"/><path class="c" d="M3,9.461h8.031V8.569H3Zm0,1.785h8.031v-.892H3ZM3,7.677h8.031V6.785H3ZM3,5v.892h8.031V5Z" transform="translate(10.475 0.704)"/></g></svg>