<svg xmlns="http://www.w3.org/2000/svg" width="36.703" height="27.252" viewBox="0 0 36.703 27.252"><defs><style>.a{fill:#99a2ab;}</style></defs><path class="a" d="M9.32,5.231a1.361,1.361,0,1,1-1.4,1.361,1.379,1.379,0,0,1,1.4-1.361m0,5.831c1.975,0,4.057.946,4.057,1.361v.713H5.264v-.713c0-.415,2.081-1.361,4.057-1.361M9.32,4A2.626,2.626,0,0,0,6.66,6.592a2.661,2.661,0,0,0,5.32,0A2.626,2.626,0,0,0,9.32,4Zm0,5.831C7.544,9.831,4,10.7,4,12.423v1.944H14.64V12.423C14.64,10.7,11.1,9.831,9.32,9.831Z" transform="translate(1 3.991)"/><path class="a" d="M37.7,27.223V6a3.179,3.179,0,0,0-3.337-3H4.337A3.179,3.179,0,0,0,1,6V27.223a3.2,3.2,0,0,0,3.337,3.028h30.03A3.2,3.2,0,0,0,37.7,27.223Zm-3.337.03H4.337V5.983h30.03Z" transform="translate(-1 -3)"/><path class="a" d="M3,11.1H13.977V9.879H3Zm0,2.439H13.977v-1.22H3ZM3,8.659H13.977V7.439H3ZM3,5V6.22H13.977V5Z" transform="translate(16 4)"/></svg>