<svg xmlns="http://www.w3.org/2000/svg" width="25.832" height="19.643" viewBox="0 0 25.832 19.643"><defs><style>.a{fill:#6f7a88;}</style></defs><g transform="translate(-35.321 -122.424)"><path class="a" d="M35.431,165.089c.179.006.227-.163.321-.257q2.826-2.814,5.642-5.639c.528-.528.679-.526,1.216.009.826.824,1.646,1.655,2.478,2.473.292.288.46.569.125.93-.077.082-.18.16-.061.283.078.081.152.2.282.161a16.725,16.725,0,0,1,4.218-.16,2.636,2.636,0,0,0,2.154-.961c.159-.189.315-.308.051-.548-.241-.219-.167-.491.045-.706q1.19-1.2,2.393-2.4c.385-.38.677-.128.968.164q2.674,2.683,5.356,5.357c.208.207.43.4.646.6v.459q-1.232,1.235-2.462,2.472c-.267.271-.545.45-.883.129-.162-.154-.251-.077-.373.043a4.867,4.867,0,0,0-1.233,1.628,5.9,5.9,0,0,1-1.577,1.943c-.182.176-.256.283-.073.552a1.43,1.43,0,0,1-.3,2.04.5.5,0,0,0-.219.59,1.49,1.49,0,0,1-1.84,1.834c-.269-.059-.385-.043-.55.18a1.361,1.361,0,0,1-1.51.558.4.4,0,0,0-.469.185,1.491,1.491,0,0,1-2.452.136q-2.891-2.87-5.764-5.759a3.22,3.22,0,0,1-.756-1.135,4.333,4.333,0,0,0-1.192-1.586c-.132-.124-.223-.237-.415-.062-.339.308-.621.127-.888-.142q-1.353-1.366-2.714-2.724c-.044-.044-.066-.147-.165-.078Zm14.251,4.58c.23-.027.37.174.529.332q1.385,1.373,2.766,2.751c.2.2.417.349.706.152a.477.477,0,0,0,.213-.547,1.03,1.03,0,0,0-.347-.445c-1.65-1.65-3.321-3.279-4.937-4.961a2.03,2.03,0,0,0-1.915-.825.95.95,0,0,1-.392-.055,1.909,1.909,0,0,1-1.453-1.77.844.844,0,0,0-.489-.712c-.2-.108-.32.2-.457.33-1.183,1.17-2.352,2.353-3.538,3.521-.2.2-.263.318-.015.53a5.18,5.18,0,0,1,1.49,2.068,2.488,2.488,0,0,0,.633.805c1.772,1.771,3.538,3.548,5.319,5.31.281.277.57.852,1.055.35.44-.456-.077-.74-.352-1.019-.885-.9-1.78-1.79-2.675-2.68-.245-.244-.373-.522-.113-.8.281-.3.583-.192.844.076.107.11.216.217.325.324q1.609,1.6,3.219,3.19c.177.174.359.357.65.207a.489.489,0,0,0,.293-.508c-.015-.218-.188-.325-.319-.456q-1.517-1.526-3.042-3.044a.6.6,0,0,1-.217-.66.461.461,0,0,1,.374-.312c.29-.062.459.127.636.3q1.869,1.863,3.739,3.726c.26.26.544.4.836.085.273-.295.106-.55-.136-.787-.655-.643-1.3-1.3-1.95-1.945l-1.623-1.623a.521.521,0,0,1-.147-.621A.486.486,0,0,1,49.682,169.669Zm1.284-1.781,2.579,2.563c.1.1.179.2.32.043a6.633,6.633,0,0,0,1.448-1.683,5.132,5.132,0,0,1,1.4-1.916c.318-.268.222-.417-.024-.658-1.146-1.123-2.294-2.246-3.4-3.409-.371-.39-.588-.457-.95-.009a2.931,2.931,0,0,1-2.535,1.062c-1.145-.038-2.293-.012-3.439,0-.5.006-.634.258-.4.707a.918.918,0,0,0,.994.523,2.148,2.148,0,0,1,2.176.93,2.041,2.041,0,0,0,2.41.684c.658-.171.74.3.83.636.121.449-.366.281-.58.37A4.338,4.338,0,0,1,50.966,167.888ZM44.141,162.2c-.054-.064-.1-.119-.144-.167-.606-.609-1.217-1.213-1.818-1.828-.152-.156-.235-.093-.359.031q-2.469,2.475-4.949,4.938c-.163.161-.147.241.011.394.577.558,1.147,1.122,1.7,1.708.215.23.329.182.525-.016q2.381-2.4,4.78-4.785C43.961,162.394,44.037,162.309,44.141,162.2Zm15.844,2.47c-.059-.07-.114-.147-.18-.213q-2.447-2.451-4.894-4.9c-.168-.169-.264-.195-.442,0-.415.447-.855.871-1.293,1.3-.14.136-.216.228-.034.408q2.48,2.46,4.942,4.937c.118.118.2.207.366.038.463-.481.942-.946,1.414-1.418C59.9,164.77,59.938,164.725,59.985,164.668Z" transform="translate(-0.11 -35.662)"/><path class="a" d="M102.253,203.536a2.893,2.893,0,0,1-1.239,1.26.481.481,0,0,1-.51-.636,2.51,2.51,0,0,1,1.105-1.112A.475.475,0,0,1,102.253,203.536Z" transform="translate(-59.928 -76.976)"/><path class="a" d="M72.828,236.074a1.456,1.456,0,0,1-.989.972.491.491,0,0,1-.508-.506c-.024-.289.726-1.02,1.008-.988A.486.486,0,0,1,72.828,236.074Z" transform="translate(-33.13 -106.912)"/></g></svg>