<?xml version="1.0" encoding="utf-8"?>
<!-- Generator: Adobe Illustrator 25.2.0, SVG Export Plug-In . SVG Version: 6.00 Build 0)  -->
<svg version="1.1" id="Layer_1" xmlns="http://www.w3.org/2000/svg" xmlns:xlink="http://www.w3.org/1999/xlink" x="0px" y="0px"
	 viewBox="0 0 20 20" style="enable-background:new 0 0 20 20;" xml:space="preserve">
<style type="text/css">
	.st0{fill:none;stroke:#4C4C4C;stroke-width:0.5;stroke-miterlimit:10;}
</style>
<path class="st0" d="M10,0.6c-5.2,0-9.4,4.2-9.4,9.4s4.2,9.4,9.4,9.4s9.4-4.2,9.4-9.4S15.2,0.6,10,0.6z M10,3.4
	c1.6,0,2.8,1.3,2.8,2.8S11.6,9.1,10,9.1S7.2,7.8,7.2,6.2S8.4,3.4,10,3.4z M10,16.8c-2.3,0-4.4-1.1-5.6-3c0-1.9,3.8-2.9,5.6-2.9
	s5.6,1,5.6,2.9C14.4,15.6,12.3,16.8,10,16.8z"/>
</svg>
