<svg xmlns="http://www.w3.org/2000/svg" width="234.499" height="226.438" viewBox="0 0 234.499 226.438"><defs><style>.a{fill:#f5f5f5;}.b{fill:#e0e0e0;}.c{fill:#fff;}.d{fill:none;stroke:#fbfbfb;stroke-miterlimit:10;stroke-width:0.25px;}.e{fill:#ebebeb;}.f{fill:#263238;}.g{fill:#0a437d;}.h{fill:#455a64;}.i{fill:#0048cd;}.j{fill:#f2f2f2;}.k{fill:#c4c9ce;}.l{fill:#99a2ab;}.m{opacity:0.6;}.n{fill:#75c6fa;}.o{fill:#0894fe;}.p{fill:#2680eb;}</style></defs><g transform="translate(-41.05 -115.338)"><g transform="translate(41.05 248.947)"><g transform="translate(0 0)"><path class="a" d="M50.066,300.9s4.606-1.514,6.813,9.115a125.639,125.639,0,0,1,2.539,16.5s.723,2.3,2.415,1.387,4.521-4.033,6.625-2.757c2.182,1.323,2.24,4.178.728,7.937S64.666,345.2,64.4,345.96s-.135,1.979,1.116,1.543,9.161-5.534,11.356-1.636-3.738,13.678-4.366,14.76-.536,1.642-.061,2.082,2.972-1.524,5.281-2.883,5.224-2.527,6.3-.172-.583,10.455-11.69,21.315l-5.476,4.7-6.873-2.293c-14.409-5.8-19.034-12.657-18.936-15.245s3.239-2.619,5.891-2.244,5.711,1.238,5.981.65.143-1.141-.85-1.9-10.206-7.539-9.664-11.979,9.8-2.744,11.121-2.819.972-1.266.444-1.852-6.506-7.174-9.337-10.073-3.867-5.559-2.354-7.615c1.459-1.982,5.265-.174,7.176.022s1.7-2.2,1.7-2.2a125.564,125.564,0,0,1-3.947-16.223c-2.013-10.668,2.945-11.009,2.945-11.009" transform="translate(-41.05 -300.83)"/></g><g transform="translate(11.009 9.59)"><path class="b" d="M71.174,387.872c-1.508-7.829-3.683-18.627-6.125-30.546s-4.643-22.707-6.195-30.526c-.77-3.9-1.395-7.064-1.828-9.262-.216-1.085-.384-1.931-.5-2.518-.058-.279-.1-.5-.136-.653s-.055-.221-.055-.221.006.077.03.225l.112.658.455,2.527c.4,2.193,1,5.363,1.752,9.278,1.508,7.829,3.683,18.625,6.124,30.541s4.644,22.712,6.2,30.531" transform="translate(-56.334 -314.144)"/></g><g transform="translate(17.118 28.849)"><path class="b" d="M71.323,340.881a2.175,2.175,0,0,0-.308.421c-.186.28-.442.691-.753,1.2-.621,1.025-1.441,2.464-2.316,4.069l-2.221,4.118-.679,1.244a2.172,2.172,0,0,0-.229.469,2.116,2.116,0,0,0,.312-.419c.185-.28.442-.692.748-1.208.611-1.032,1.412-2.481,2.286-4.086l2.25-4.1.685-1.241A2.127,2.127,0,0,0,71.323,340.881Z" transform="translate(-64.815 -340.881)"/></g><g transform="translate(3.407 32.388)"><path class="b" d="M58.819,353.729c.035-.058-2.855-1.881-6.455-4.071s-6.549-3.919-6.584-3.861,2.855,1.881,6.456,4.073S58.784,353.787,58.819,353.729Z" transform="translate(-45.78 -345.795)"/></g><g transform="translate(8.142 54.409)"><path class="b" d="M65.234,380.413a2.218,2.218,0,0,0-.506-.169l-1.4-.38c-1.179-.322-2.8-.771-4.582-1.331s-3.371-1.115-4.521-1.527l-1.363-.486a2.255,2.255,0,0,0-.511-.152,2.219,2.219,0,0,0,.475.241c.313.14.769.334,1.338.56,1.136.454,2.724,1.041,4.508,1.6s3.421.986,4.614,1.265c.6.137,1.08.242,1.417.3A2.215,2.215,0,0,0,65.234,380.413Z" transform="translate(-52.354 -376.366)"/></g><g transform="translate(20.943 49.506)"><path class="b" d="M78.982,369.561a1.876,1.876,0,0,0-.382.311c-.235.212-.568.525-.977.915-.818.781-1.934,1.871-3.157,3.086s-2.321,2.326-3.106,3.138c-.393.406-.708.738-.921.971a1.871,1.871,0,0,0-.314.38,1.915,1.915,0,0,0,.382-.312c.234-.212.568-.525.977-.915.817-.78,1.934-1.871,3.157-3.086s2.32-2.325,3.105-3.138c.393-.406.708-.738.922-.971A1.939,1.939,0,0,0,78.982,369.561Z" transform="translate(-70.125 -369.56)"/></g><g transform="translate(24.413 65.001)"><path class="b" d="M86.4,391.073a3.069,3.069,0,0,0-.484.4l-1.255,1.169c-1.052.995-2.494,2.381-4.076,3.923s-3.005,2.95-4.026,3.976l-1.2,1.225a3.074,3.074,0,0,0-.417.474,3.069,3.069,0,0,0,.484-.4l1.255-1.169c1.052-.995,2.494-2.381,4.077-3.924s3-2.949,4.026-3.975l1.2-1.225A3.1,3.1,0,0,0,86.4,391.073Z" transform="translate(-74.943 -391.072)"/></g><g transform="translate(8.413 70.252)"><path class="b" d="M68.929,403.939a3.471,3.471,0,0,0-.635-.228l-1.754-.545c-1.48-.461-3.523-1.1-5.758-1.875s-4.244-1.516-5.693-2.066l-1.718-.65a3.548,3.548,0,0,0-.641-.212,3.5,3.5,0,0,0,.6.3c.4.179.972.428,1.69.722,1.435.593,3.436,1.368,5.677,2.138s4.294,1.39,5.789,1.808c.748.207,1.355.369,1.778.47A3.653,3.653,0,0,0,68.929,403.939Z" transform="translate(-52.73 -398.362)"/></g></g><g transform="translate(209.29 126.425)"><g transform="translate(2.407 0.001)"><rect class="b" width="47.885" height="69.408"/></g><g transform="translate(0.009 0.001)"><rect class="a" width="47.885" height="69.408"/></g><g transform="translate(5.827 7.388)"><g transform="translate(0.131 0.13)"><rect class="c" width="35.987" height="54.373"/></g><path class="b" d="M318.827,195.492s-.005-.092-.007-.267,0-.436-.007-.771c0-.684-.008-1.683-.014-2.982-.007-2.606-.018-6.4-.032-11.2-.014-9.588-.035-23.165-.059-39.153l.12.119-35.983.011h0l.13-.13c-.01,20.511-.019,39.423-.027,54.373l-.1-.1,26.194.054,7.237.027,1.9.012c.43,0,.657.012.657.012s-.212.007-.635.011l-1.88.011-7.213.027-26.258.055h-.1v-.1c-.007-14.95-.017-33.862-.027-54.373v-.13h.135l35.983.011h.12v.12c-.024,16.02-.045,29.624-.059,39.231-.014,4.786-.025,8.574-.032,11.174-.006,1.288-.012,2.28-.014,2.958,0,.329-.006.581-.007.758S318.827,195.492,318.827,195.492Z" transform="translate(-282.71 -140.988)"/></g><g transform="translate(40.276 7.881)"><path class="d" d="M330.536,141.672" transform="translate(-330.536 -141.672)"/></g><g transform="translate(41.506 0)"><path class="b" d="M338.765,130.732a8.252,8.252,0,0,1-.854,1.24c-.556.744-1.346,1.755-2.247,2.85s-1.743,2.063-2.367,2.752a8.325,8.325,0,0,1-1.054,1.075,9,9,0,0,1,.914-1.195l2.306-2.8,2.3-2.8A8.943,8.943,0,0,1,338.765,130.732Z" transform="translate(-332.243 -130.731)"/></g><g transform="translate(42.126 61.715)"><g transform="translate(0.001 0.001)"><path class="c" d="M333.106,216.412a44.573,44.573,0,0,0,6.277,7.85" transform="translate(-333.106 -216.412)"/></g><path class="b" d="M339.382,224.262a7.158,7.158,0,0,1-1.094-1,35.07,35.07,0,0,1-4.452-5.568,7.07,7.07,0,0,1-.73-1.286,10.1,10.1,0,0,1,.882,1.183c.528.741,1.27,1.755,2.136,2.838s1.691,2.029,2.3,2.707A9.993,9.993,0,0,1,339.382,224.262Z" transform="translate(-333.104 -216.411)"/></g><g transform="translate(0 61.614)"><g transform="translate(0.002 0.001)"><path class="c" d="M274.622,224.011l6.272-7.739" transform="translate(-274.622 -216.272)"/></g><path class="b" d="M280.894,216.272a47.894,47.894,0,0,1-3.035,3.952,47.62,47.62,0,0,1-3.238,3.787,95.44,95.44,0,0,1,6.272-7.739Z" transform="translate(-274.62 -216.271)"/></g><g transform="translate(0.007)"><path class="b" d="M274.631,130.732a43.331,43.331,0,0,1,3.044,3.64,43.061,43.061,0,0,1,2.84,3.8,43.346,43.346,0,0,1-3.044-3.64A43.117,43.117,0,0,1,274.631,130.732Z" transform="translate(-274.629 -130.731)"/></g><g transform="translate(18.683 18.558)"><rect class="b" width="12.05" height="34.213"/></g></g><g transform="translate(52.095 115.338)"><g transform="translate(0.261)"><path class="b" d="M113.653,115.338v38.244H58.725l-1.979-37.976Z" transform="translate(-56.746 -115.338)"/></g><g transform="translate(0 0.007)"><g transform="translate(0.261 0.261)"><g transform="translate(0 0)"><rect class="c" width="37.896" height="54.928" transform="translate(0 37.896) rotate(-90)"/></g></g><path class="b" d="M111.833,153.764H56.384V115.347h55.449Zm-54.928-.522h54.407V115.868H56.905Z" transform="translate(-56.384 -115.347)"/></g><g transform="translate(6.074 4.851)"><g transform="translate(0.135 0.125)"><rect class="c" width="43.03" height="28.479"/></g><path class="b" d="M107.982,122.2s-.074.005-.212.008l-.612.007-2.363.015-8.868.033-30.975.061.125-.125c0,8.7.007,18.342.011,28.476v0l-.135-.135,43.03.027-.108.108c.024-8.667.043-15.772.057-20.721.012-2.474.021-4.405.027-5.73.005-.654.009-1.157.012-1.505s.012-.523.012-.523.008.166.012.5.007.84.012,1.486c.006,1.319.016,3.243.027,5.705.014,4.964.033,12.093.057,20.788v.108h-.109l-43.03.027h-.135v-.139c0-10.134.007-19.774.011-28.476v-.125h.125l31.057.061,8.839.033,2.339.015.6.007C107.918,122.192,107.982,122.2,107.982,122.2Z" transform="translate(-64.817 -122.072)"/></g><g transform="translate(0.259 0.158)"><path class="b" d="M56.746,115.56a4.648,4.648,0,0,1,.944.612c.562.406,1.327.982,2.153,1.642s1.553,1.287,2.065,1.756a4.455,4.455,0,0,1,.787.8c-.051.058-1.371-1.031-3.021-2.348A29.935,29.935,0,0,1,56.746,115.56Z" transform="translate(-56.744 -115.558)"/></g><g transform="translate(49.238 0.265)"><path class="b" d="M130.692,115.708a26.669,26.669,0,0,1-2.89,2.461,26.6,26.6,0,0,1-3.059,2.247,53.1,53.1,0,0,1,5.949-4.708Z" transform="translate(-124.742 -115.706)"/></g><g transform="translate(49.019 33.202)"><g transform="translate(0.001 0.002)"><path class="c" d="M130.565,166.4l-6.125-4.964" transform="translate(-124.44 -161.436)"/></g><path class="b" d="M124.44,161.435a28.7,28.7,0,0,1,3.148,2.376,29,29,0,0,1,2.977,2.587,57.3,57.3,0,0,1-6.125-4.964Z" transform="translate(-124.438 -161.433)"/></g><g transform="translate(0.26 33.503)"><path class="b" d="M56.746,166.51a26,26,0,0,1,2.86-2.435,26.13,26.13,0,0,1,3.029-2.223,26.1,26.1,0,0,1-2.86,2.435A26.2,26.2,0,0,1,56.746,166.51Z" transform="translate(-56.744 -161.851)"/></g><g transform="translate(14.946 13.849)"><g transform="translate(0 0)"><rect class="b" width="9.536" height="27.075" transform="translate(0 9.536) rotate(-90)"/></g></g></g><g transform="translate(205.233 209.032)"><g transform="translate(0 0)"><path class="e" d="M301.541,278.7a19.3,19.3,0,1,1,.7-27.254A19.279,19.279,0,0,1,301.541,278.7Z" transform="translate(-268.987 -245.414)"/><g transform="translate(4.587 4.587)"><path class="a" d="M300.163,277.15a14.708,14.708,0,1,1,.532-20.77A14.692,14.692,0,0,1,300.163,277.15Z" transform="translate(-275.355 -251.783)"/></g><g transform="translate(8.827 4.104)"><path class="b" d="M302.142,276.642c-.063-.063.362-.552,1.016-1.5a15.6,15.6,0,0,0,2.1-4.333,15.058,15.058,0,0,0,.6-3.251,14.706,14.706,0,0,0-.229-3.772,14.4,14.4,0,0,0-1.364-3.931,14.284,14.284,0,0,0-1.163-1.872,14.372,14.372,0,0,0-3.215-3.186,14.34,14.34,0,0,0-1.883-1.146,14.449,14.449,0,0,0-3.944-1.328,14.745,14.745,0,0,0-3.773-.193,15.088,15.088,0,0,0-3.246.63,15.617,15.617,0,0,0-4.311,2.145c-.94.664-1.425,1.094-1.489,1.03-.048-.045.333-.582,1.217-1.374a13.605,13.605,0,0,1,4.325-2.554,14.738,14.738,0,0,1,7.451-.706,14.134,14.134,0,0,1,2.136.507,14.317,14.317,0,0,1,2.128.857,14.959,14.959,0,0,1,2.041,1.222,15.056,15.056,0,0,1,3.467,3.436,15.059,15.059,0,0,1,1.24,2.03,15.005,15.005,0,0,1,1.4,4.25,14.729,14.729,0,0,1-.636,7.457,13.612,13.612,0,0,1-2.514,4.349C302.721,276.3,302.188,276.689,302.142,276.642Z" transform="translate(-281.242 -251.112)"/></g></g><g transform="translate(9.74 11.658)"><path class="b" d="M286.824,276.463l-1.834,1.789-1.6-1.638,1.784-1.74a10.841,10.841,0,0,1-2.667-5.355l2.875-1.049a9.246,9.246,0,0,0,1.937,4.31l2.734-2.668c-1.331-2.248-2.706-4.869-.365-7.154,1.736-1.693,4.455-1.886,7.274.413l1.818-1.773,1.6,1.637-1.785,1.742a10.354,10.354,0,0,1,2.244,4.3l-2.813,1.147a9.381,9.381,0,0,0-1.593-3.336l-2.783,2.716c1.348,2.232,2.69,4.822.382,7.073C292.331,278.537,289.642,278.73,286.824,276.463Zm5.64-8.7,2.324-2.269c-1.043-.676-1.853-.556-2.394-.029C291.822,266.027,291.989,266.821,292.464,267.765Zm-1.2,6.666c.573-.56.421-1.338-.02-2.282l-2.26,2.2C289.964,275,290.741,274.943,291.265,274.432Z" transform="translate(-282.51 -261.599)"/></g></g><g transform="translate(122.762 251.609)"><g transform="translate(0)"><path class="e" d="M193.9,318.118a20.264,20.264,0,1,1-25.766-12.469A20.242,20.242,0,0,1,193.9,318.118Z" transform="translate(-154.492 -304.525)"/><g transform="translate(4.822 4.813)"><path class="a" d="M191.22,321.566a15.442,15.442,0,1,1-19.635-9.5A15.425,15.425,0,0,1,191.22,321.566Z" transform="translate(-161.187 -311.207)"/></g><g transform="translate(4.444 4.238)"><path class="b" d="M190.911,320.886a9.118,9.118,0,0,1-.993-1.621,16.41,16.41,0,0,0-3.233-3.89,15.857,15.857,0,0,0-2.85-1.982,15.516,15.516,0,0,0-3.707-1.414,15.123,15.123,0,0,0-4.351-.4,14.865,14.865,0,0,0-2.293.3,15.064,15.064,0,0,0-4.439,1.695,15.081,15.081,0,0,0-1.912,1.3,15.1,15.1,0,0,0-2.978,3.2,15.439,15.439,0,0,0-1.819,3.525,15.813,15.813,0,0,0-.8,3.377,16.374,16.374,0,0,0,.185,5.052,9,9,0,0,1,.34,1.87,4.529,4.529,0,0,1-.787-1.759,14.267,14.267,0,0,1-.571-5.242,15.487,15.487,0,0,1,2.551-7.432,15.678,15.678,0,0,1,3.151-3.487,15.752,15.752,0,0,1,2.053-1.423,15.793,15.793,0,0,1,4.788-1.829,15.734,15.734,0,0,1,2.479-.308,15.7,15.7,0,0,1,4.673.5,15.465,15.465,0,0,1,6.857,3.838,14.306,14.306,0,0,1,3.071,4.287A4.542,4.542,0,0,1,190.911,320.886Z" transform="translate(-160.661 -310.409)"/></g></g><g transform="translate(12.959 9.664)"><path class="b" d="M184.455,336.636l.918,2.529-2.258.818-.892-2.461a11.383,11.383,0,0,1-6.277.233l.242-3.2a9.707,9.707,0,0,0,4.962.014l-1.368-3.771c-2.727.3-5.829.48-7-2.749-.868-2.394.125-5.078,3.545-6.778l-.909-2.507,2.258-.819.892,2.461a10.856,10.856,0,0,1,5.082-.285l-.121,3.187a9.838,9.838,0,0,0-3.881.079l1.393,3.839c2.718-.323,5.776-.485,6.931,2.7C188.823,332.267,187.844,334.922,184.455,336.636Zm-5.877-9.161-1.163-3.205c-1.1.705-1.335,1.532-1.065,2.277C176.637,327.336,177.47,327.521,178.578,327.475Zm5.857,4.034c-.287-.791-1.1-.982-2.191-.97l1.13,3.116C184.413,333,184.7,332.231,184.435,331.509Z" transform="translate(-172.484 -317.942)"/></g></g><g transform="translate(51.181 198.406)"><path class="e" d="M89.13,247.418a17.008,17.008,0,1,1-17.219-16.754A16.989,16.989,0,0,1,89.13,247.418Z" transform="translate(-55.115 -230.662)"/><g transform="translate(4.047 4.037)"><path class="a" d="M86.655,249.036a12.961,12.961,0,1,1-13.122-12.769A12.947,12.947,0,0,1,86.655,249.036Z" transform="translate(-60.734 -236.267)"/></g><g transform="translate(3.9 3.544)"><path class="b" d="M86.589,248.439a7.705,7.705,0,0,1-.362-1.554,13.777,13.777,0,0,0-1.544-3.954,13.3,13.3,0,0,0-1.745-2.334,13.014,13.014,0,0,0-2.577-2.108A12.76,12.76,0,0,0,77,237.021a12.473,12.473,0,0,0-1.907-.367,12.674,12.674,0,0,0-3.985.174,12.664,12.664,0,0,0-1.868.532,12.709,12.709,0,0,0-3.218,1.758,12.993,12.993,0,0,0-2.382,2.326,13.322,13.322,0,0,0-1.534,2.478A13.749,13.749,0,0,0,60.917,248a7.643,7.643,0,0,1-.224,1.579,3.8,3.8,0,0,1-.162-1.609,11.985,11.985,0,0,1,.934-4.327,12.986,12.986,0,0,1,4-5.243,12.451,12.451,0,0,1,1.606-1.079,12.638,12.638,0,0,1,1.827-.864,13.207,13.207,0,0,1,2.011-.59,13.264,13.264,0,0,1,4.3-.188,13.19,13.19,0,0,1,2.055.411,13.227,13.227,0,0,1,3.591,1.634,12.993,12.993,0,0,1,4.445,4.873,12,12,0,0,1,1.311,4.228A3.8,3.8,0,0,1,86.589,248.439Z" transform="translate(-60.529 -235.583)"/></g><g transform="translate(11.497 7.995)"><path class="b" d="M78.15,258.446l.061,2.257-2.015.053-.059-2.2a9.556,9.556,0,0,1-5.061-1.477l1.042-2.488a8.148,8.148,0,0,0,3.948,1.325l-.091-3.366c-2.252-.483-4.77-1.161-4.848-4.043-.057-2.136,1.445-4.011,4.619-4.459l-.06-2.237,2.015-.054.059,2.2a9.111,9.111,0,0,1,4.124,1.119l-.941,2.506a8.258,8.258,0,0,0-3.112-.965l.093,3.426c2.25.463,4.729,1.143,4.805,3.984C82.786,256.124,81.3,257.979,78.15,258.446ZM75.9,249.594l-.078-2.861c-1.061.271-1.469.867-1.451,1.532C74.386,248.969,75,249.337,75.9,249.594Zm3.6,4.763c-.019-.705-.614-1.072-1.488-1.352l.075,2.781C79.08,255.538,79.509,255,79.492,254.357Z" transform="translate(-71.076 -241.762)"/></g></g><g transform="translate(148.96 119.648)"><g transform="translate(0)"><path class="e" d="M207.643,143.56a14.988,14.988,0,0,0,1.9-7.315,14.838,14.838,0,0,0-14.752-14.922,14.6,14.6,0,0,0-3.923.537,14.969,14.969,0,0,1,0,28.77A14.59,14.59,0,0,0,202.6,148.9l6.939,2.682Z" transform="translate(-190.863 -121.322)"/></g></g><g transform="translate(44.413 333.649)"><g transform="translate(0)"><path class="f" d="M262.957,418.555c0,.073-48.634.133-108.614.133-60,0-108.624-.06-108.624-.133s48.624-.133,108.624-.133C214.323,418.422,262.957,418.482,262.957,418.555Z" transform="translate(-45.719 -418.422)"/></g></g><g transform="translate(82.411 134.977)"><g transform="translate(11.265 182.382)"><path class="g" d="M123.389,395.807l.418,12.728,3.233,9.972a1.3,1.3,0,0,1-.924,1.668h0a1.3,1.3,0,0,1-1.163-.272c-2.044-1.752-9.532-8.238-9.51-9.172.025-1.08-1.331-13.4-1.331-13.4Z" transform="translate(-114.111 -395.807)"/><g transform="translate(1.284 14.067)"><path class="b" d="M126.614,425.638l-10.721-10.3.03.539a1.961,1.961,0,0,0,.536,1.245c.86.9,3.29,3.348,8.953,8.248a1.3,1.3,0,0,0,1.2.269Z" transform="translate(-115.893 -415.336)"/></g><g transform="translate(2.546 9.716)"><path class="c" d="M118.764,409.4a.789.789,0,0,1,.274,1.017.759.759,0,0,1-1.006.279.833.833,0,0,1-.284-1.079.787.787,0,0,1,1.079-.174" transform="translate(-117.646 -409.295)"/></g><g transform="translate(8.773 17.41)"><path class="f" d="M126.306,421.542c.074.031.324-.651,1.06-1.051a3.977,3.977,0,0,1,1.449-.362c.009-.032-.158-.122-.457-.147a2.077,2.077,0,0,0-1.94,1.092C126.284,421.345,126.274,421.534,126.306,421.542Z" transform="translate(-126.291 -419.977)"/></g><g transform="translate(9.781 19.629)"><path class="f" d="M127.7,424.056c.063.051.448-.385,1.1-.609a10.7,10.7,0,0,1,1.232-.23,1.447,1.447,0,0,0-1.328-.034C127.963,423.444,127.63,424.025,127.7,424.056Z" transform="translate(-127.69 -423.058)"/></g><g transform="translate(6.976 15.22)"><path class="f" d="M123.8,418.6a12.931,12.931,0,0,1,1.628-1.055A13.071,13.071,0,0,1,127.29,417a3.566,3.566,0,0,0-3.489,1.6Z" transform="translate(-123.796 -416.937)"/></g><g transform="translate(6.529 12.388)"><path class="f" d="M123.177,413.645c.038.074.725-.259,1.637-.342s1.649.1,1.672.014a3.238,3.238,0,0,0-3.308.328Z" transform="translate(-123.175 -413.005)"/></g><g transform="translate(6.312 8.613)"><path class="f" d="M122.875,408.446a4.143,4.143,0,0,1,3.4-.072c.019-.028-.128-.179-.431-.333a2.843,2.843,0,0,0-2.556.054C123,408.261,122.855,408.419,122.875,408.446Z" transform="translate(-122.873 -407.764)"/></g><g transform="translate(6.055 5.758)"><path class="f" d="M124.408,406.227a1.094,1.094,0,0,0-.009-.482,3.342,3.342,0,0,0-.452-1.238,1.481,1.481,0,0,0-.675-.672.524.524,0,0,0-.583.149.852.852,0,0,0-.169.586,1.844,1.844,0,0,0,1.709,1.613,2.139,2.139,0,0,0,2.036-1.234.744.744,0,0,0,0-.619.516.516,0,0,0-.553-.242,1.825,1.825,0,0,0-.813.483,3.73,3.73,0,0,0-.812,1.036,1.134,1.134,0,0,0-.171.45,5.908,5.908,0,0,1,1.112-1.336,1.7,1.7,0,0,1,.719-.4.274.274,0,0,1,.3.13.513.513,0,0,1-.024.407,1.911,1.911,0,0,1-1.778,1.049,1.6,1.6,0,0,1-1.47-1.349.62.62,0,0,1,.1-.414.283.283,0,0,1,.321-.087,1.336,1.336,0,0,1,.581.558A4.941,4.941,0,0,1,124.408,406.227Z" transform="translate(-122.518 -403.801)"/></g></g><g transform="translate(35.665 183.941)"><g transform="translate(0 0)"><path class="g" d="M157.643,398.3l-.66,9.517s9.452,3.867,9.5,5.638l-18.5-.616.419-14.871Z" transform="translate(-147.986 -397.971)"/><g transform="translate(2.741 8.831)"><path class="b" d="M152.354,410.258a.757.757,0,0,0-.551.845.728.728,0,0,0,.833.554.8.8,0,0,0,.579-.9.755.755,0,0,0-.93-.48" transform="translate(-151.791 -410.232)"/></g><g transform="translate(0 13.374)"><path class="b" d="M147.986,418.035l.1-1.5,17.7,1.15s.812.386.7.963Z" transform="translate(-147.986 -416.538)"/></g><g transform="translate(7.581 9.672)"><path class="f" d="M160.23,411.492c-.007.09-.46.116-.913.392s-.7.648-.785.609c-.083-.02.07-.556.625-.88S160.253,411.41,160.23,411.492Z" transform="translate(-158.511 -411.398)"/></g><g transform="translate(9.947 10.593)"><path class="f" d="M163.063,412.717c.017.089-.379.229-.7.6s-.421.774-.511.766c-.085.012-.13-.52.276-.975S163.064,412.631,163.063,412.717Z" transform="translate(-161.796 -412.677)"/></g><g transform="translate(12.141 11.455)"><path class="f" d="M164.939,415.411c-.083.017-.193-.439.055-.926s.677-.67.713-.594-.235.333-.433.735S165.029,415.4,164.939,415.411Z" transform="translate(-164.842 -413.875)"/></g><g transform="translate(7.284 7.225)"><path class="f" d="M160.024,408.356c-.04.081-.451-.057-.962-.04s-.916.166-.959.086.349-.388.952-.4S160.071,408.287,160.024,408.356Z" transform="translate(-158.098 -408.002)"/></g><g transform="translate(6.53 4.089)"><path class="f" d="M159.829,405.216a1.737,1.737,0,0,1-.926-.035,4.2,4.2,0,0,1-.959-.33,4.431,4.431,0,0,1-.523-.3,1.136,1.136,0,0,1-.272-.227.4.4,0,0,1-.026-.483.5.5,0,0,1,.4-.193,1.19,1.19,0,0,1,.346.06,3.306,3.306,0,0,1,.569.217,3.256,3.256,0,0,1,.836.589c.416.411.551.754.519.77s-.241-.261-.667-.6a3.694,3.694,0,0,0-.811-.493,3.422,3.422,0,0,0-.527-.182c-.194-.058-.361-.065-.414.021-.019.032-.022.045.017.1a.918.918,0,0,0,.2.166,4.851,4.851,0,0,0,.48.3,5.148,5.148,0,0,0,.884.373A6.442,6.442,0,0,1,159.829,405.216Z" transform="translate(-157.051 -403.648)"/></g><g transform="translate(8.971 2.867)"><path class="f" d="M160.655,404.867a1.477,1.477,0,0,1-.214-.9,2.992,2.992,0,0,1,.415-1.565.767.767,0,0,1,.606-.448.434.434,0,0,1,.378.272,1.247,1.247,0,0,1,.084.343,2.038,2.038,0,0,1-.02.624,2.137,2.137,0,0,1-.427.944c-.377.467-.758.563-.765.532-.029-.046.292-.21.584-.662a2.13,2.13,0,0,0,.322-.861,1.907,1.907,0,0,0,0-.536c-.022-.2-.091-.359-.165-.341-.092-.005-.254.138-.334.292a3.073,3.073,0,0,0-.246.495,3.347,3.347,0,0,0-.21.918C160.619,404.514,160.7,404.855,160.655,404.867Z" transform="translate(-160.44 -401.951)"/></g></g></g><g transform="translate(7.288 86.687)"><g transform="translate(0 0.174)"><path class="f" d="M108.589,266.681l2.734,102.314,14.594-.438,3.48-105.362Z" transform="translate(-108.589 -263.194)"/></g><g transform="translate(15.235)"><path class="f" d="M144.839,262.952s10.835,43.373,11.167,50.769-2.319,53.62-2.319,53.62H139.4l1.193-52.639-10.852-44.547,2.626-6.975Z" transform="translate(-129.741 -262.952)"/></g><g transform="translate(18.663 5.327)"><path class="h" d="M137.352,270.347a.558.558,0,0,1,.006.139l-.008.406c-.014.377-.034.9-.058,1.559-.063,1.374-.153,3.326-.263,5.729-.249,4.855-.59,11.527-.967,18.9-.408,7.372-.777,14.044-1.046,18.9-.146,2.4-.264,4.353-.347,5.726-.045.66-.082,1.181-.108,1.557l-.035.4a.562.562,0,0,1-.021.138.521.521,0,0,1-.006-.138c0-.107.005-.24.009-.4.014-.377.033-.9.058-1.558.063-1.374.153-3.326.263-5.729.249-4.855.59-11.528.967-18.9.408-7.37.777-14.042,1.045-18.9.146-2.4.264-4.353.347-5.726.046-.66.082-1.18.108-1.556l.035-.4A.5.5,0,0,1,137.352,270.347Z" transform="translate(-134.499 -270.347)"/></g></g><g transform="translate(0 29.733)"><g transform="translate(10.163)"><path class="a" d="M129.62,185.22s5.3,26.308,5.378,33.721,2.68,21.894,2.68,21.894H114.712l-.5-40.081L112.581,188.8l3.449-4.917Z" transform="translate(-112.581 -183.882)"/></g><g transform="translate(27.478 2.113)"><path class="i" d="M136.62,186.816s5.479,1.608,6.927,3.635c1.143,1.6,2.684,31.86,2.684,31.86l2.351,26.654-2.3-.215-3.244-9.977Z" transform="translate(-136.62 -186.816)"/><g transform="translate(6.927 3.635)"><path class="i" d="M146.237,191.863l15.468,14.192,19.032-6.166,3.79,7.99L164.221,217.1c-2.9,1.238-4.722.557-6.736-1.057l-10.653-8.532Z" transform="translate(-146.237 -191.863)"/></g><g transform="translate(37.085 13.288)"><g transform="translate(0 0.686)"><g transform="translate(0.013 0.013)"><path class="f" d="M188.909,206.455a.418.418,0,1,1-.565-.171A.418.418,0,0,1,188.909,206.455Z" transform="translate(-188.123 -206.234)"/></g><path class="f" d="M188.536,207.077a.44.44,0,0,1-.125-.019.424.424,0,0,1-.254-.209.429.429,0,1,1,.38.228Zm0-.835a.4.4,0,0,0-.19.048.4.4,0,0,0-.2.24.4.4,0,0,0,.269.5.4.4,0,1,0,.117-.792Z" transform="translate(-188.105 -206.217)"/></g><g transform="translate(1.596 0.307)"><g transform="translate(0.012 0.013)"><path class="f" d="M191.124,205.928a.418.418,0,1,1-.565-.171A.418.418,0,0,1,191.124,205.928Z" transform="translate(-190.338 -205.708)"/></g><path class="f" d="M190.751,206.551a.44.44,0,0,1-.125-.019.424.424,0,0,1-.254-.209.43.43,0,0,1,.5-.614.43.43,0,0,1,.078.791A.429.429,0,0,1,190.751,206.551Zm0-.836a.4.4,0,0,0-.19.048.4.4,0,0,0,.073.744.41.41,0,0,0,.308-.03.4.4,0,0,0-.073-.744A.42.42,0,0,0,190.75,205.715Z" transform="translate(-190.321 -205.69)"/></g><g transform="translate(3.114)"><g transform="translate(0.013 0.013)"><path class="f" d="M193.232,205.5a.417.417,0,1,1-.565-.171A.417.417,0,0,1,193.232,205.5Z" transform="translate(-192.446 -205.282)"/></g><path class="f" d="M192.86,206.125a.421.421,0,0,1-.126-.019.431.431,0,0,1-.078-.791.431.431,0,0,1,.583.176h0a.432.432,0,0,1-.177.583A.436.436,0,0,1,192.86,206.125Zm0-.835a.411.411,0,0,0-.19.048.405.405,0,0,0-.166.547.4.4,0,0,0,.239.2.4.4,0,0,0,.474-.578h0A.4.4,0,0,0,192.858,205.29Z" transform="translate(-192.428 -205.264)"/></g></g><g transform="translate(41.616 11.521)"><path class="b" d="M194.4,203.349l1.472-.539,3.38,7.12-1.439.613Z" transform="translate(-194.396 -202.81)"/></g><g transform="translate(7.404 9.243)"><path class="f" d="M146.918,199.648a4.693,4.693,0,0,1,.089.8c.058.56.132,1.289.222,2.167.212,1.876.5,4.38.81,7.148.309,2.794.556,5.329.671,7.168.061.92.088,1.666.094,2.182a4.515,4.515,0,0,1-.027.8,4.717,4.717,0,0,1-.077-.8c-.037-.513-.093-1.255-.178-2.171-.163-1.833-.439-4.361-.748-7.154s-.581-5.322-.732-7.16c-.077-.918-.12-1.663-.138-2.179A4.513,4.513,0,0,1,146.918,199.648Z" transform="translate(-146.899 -199.648)"/></g><g transform="translate(8.601 12.794)"><path class="f" d="M150.761,204.578a58.2,58.2,0,0,1-2.193,7.553,58.1,58.1,0,0,1,2.193-7.553Z" transform="translate(-148.561 -204.578)"/></g><g transform="translate(21.649 17.721)"><path class="f" d="M167.258,216.318a1.589,1.589,0,0,1-.343-.676,4.884,4.884,0,0,1,.225-3.594c.207-.424.4-.646.424-.629a6.751,6.751,0,0,0-.307,4.9Z" transform="translate(-166.675 -211.419)"/></g></g><g transform="translate(0 0.573)"><g transform="translate(47.223 40.602)"><path class="b" d="M164.749,241.045l1.98.153-.787,8.258-1.911-.218Z" transform="translate(-164.031 -241.045)"/></g><path class="i" d="M112.087,184.677l-10.672,6.8a6.933,6.933,0,0,0-2.587,7.862l8.187,25.723-2.952,23.373,23.39-.993-.568-10.246L124.9,218.872a36.461,36.461,0,0,0-2.511-9.893Z" transform="translate(-98.471 -184.677)"/><g transform="translate(1.717 6.559)"><path class="i" d="M101.6,203.3l10.676,22.338a6.611,6.611,0,0,0,4.441,3.583l29.622,7.017.755-8.624-22.612-8.5L113.11,197.278A6.494,6.494,0,0,0,104,194.717h0A6.5,6.5,0,0,0,101.6,203.3Z" transform="translate(-100.856 -193.783)"/></g><g transform="translate(4.538 7)"><path class="f" d="M148.192,227.785a.5.5,0,0,1-.122-.033l-.349-.119-1.341-.48-4.96-1.825L124.7,219.08l-.048-.018-.024-.047c-.632-1.251-1.294-2.564-1.967-3.9-1.855-3.613-3.7-7.013-5.43-10.078-.864-1.533-1.7-2.983-2.484-4.335l-1.147-1.953c-.182-.316-.367-.618-.561-.9a7.61,7.61,0,0,0-3.449-2.871,6.459,6.459,0,0,0-2.625-.468,4.687,4.687,0,0,0-2.2.587.651.651,0,0,1,.124-.089,2.11,2.11,0,0,1,.393-.215,4.6,4.6,0,0,1,1.675-.387,6.468,6.468,0,0,1,2.684.432,7.728,7.728,0,0,1,3.558,2.9c.2.29.391.593.574.906l1.16,1.945c.8,1.348,1.637,2.8,2.507,4.326,1.741,3.061,3.6,6.462,5.453,10.078.684,1.332,1.344,2.647,1.966,3.9l-.072-.065,16.687,6.331,4.932,1.9,1.325.524.341.141A.462.462,0,0,1,148.192,227.785Z" transform="translate(-104.772 -194.395)"/></g><g transform="translate(42.077 45.336)"><g transform="translate(0.013 0.013)"><path class="f" d="M157.74,248.052a.417.417,0,1,1-.418-.417A.417.417,0,0,1,157.74,248.052Z" transform="translate(-156.905 -247.635)"/></g><path class="f" d="M157.317,248.477a.43.43,0,1,1,.43-.43A.431.431,0,0,1,157.317,248.477Zm0-.835a.4.4,0,1,0,.4.4A.405.405,0,0,0,157.317,247.642Z" transform="translate(-156.887 -247.617)"/><g transform="translate(1.586 0.417)"><g transform="translate(0.013 0.013)"><path class="f" d="M159.942,248.631a.417.417,0,1,1-.418-.417A.418.418,0,0,1,159.942,248.631Z" transform="translate(-159.107 -248.214)"/></g><path class="f" d="M159.519,249.056a.43.43,0,1,1,.43-.43A.43.43,0,0,1,159.519,249.056Zm0-.834a.4.4,0,1,0,.4.4A.405.405,0,0,0,159.519,248.222Z" transform="translate(-159.089 -248.196)"/></g><g transform="translate(3.07 0.862)"><g transform="translate(0.013 0.013)"><circle class="f" cx="0.417" cy="0.417" r="0.417"/></g><path class="f" d="M161.579,249.674a.43.43,0,1,1,.43-.43A.43.43,0,0,1,161.579,249.674Zm0-.834a.4.4,0,1,0,.4.4A.4.4,0,0,0,161.579,248.84Z" transform="translate(-161.149 -248.814)"/></g></g><g transform="translate(4.538 20.317)"><path class="f" d="M147.437,241.581a.615.615,0,0,1-.144-.023l-.417-.094-1.6-.382-5.858-1.442c-4.947-1.214-11.773-2.931-19.343-4.684-.946-.227-1.885-.406-2.809-.657a6.159,6.159,0,0,1-2.532-1.265,7.358,7.358,0,0,1-1.549-2.247l-1.117-2.335c-1.441-3.04-2.739-5.78-3.831-8.088-1.076-2.293-1.949-4.155-2.563-5.463l-.684-1.49-.171-.39a.593.593,0,0,1-.05-.137.572.572,0,0,1,.075.125l.2.379c.175.354.419.845.73,1.469.632,1.3,1.531,3.148,2.638,5.425l3.882,8.062,1.123,2.328a7.168,7.168,0,0,0,1.5,2.167,5.924,5.924,0,0,0,2.429,1.2c.9.244,1.853.426,2.8.653,7.575,1.755,14.394,3.5,19.33,4.761l5.838,1.524,1.583.43.41.119A.537.537,0,0,1,147.437,241.581Z" transform="translate(-104.771 -212.884)"/></g><g transform="translate(12.472 47.612)"><path class="f" d="M126.593,250.779c.011.015-.115.121-.353.3s-.586.426-1.026.72a16.536,16.536,0,0,1-3.679,1.913,8.4,8.4,0,0,1-4.124.413,5.482,5.482,0,0,1-1.215-.349,1.345,1.345,0,0,1-.408-.22,14.435,14.435,0,0,0,1.651.384,8.941,8.941,0,0,0,4.009-.479,19.7,19.7,0,0,0,3.666-1.82A12.854,12.854,0,0,1,126.593,250.779Z" transform="translate(-115.787 -250.777)"/></g><g transform="translate(12.195 50.58)"><path class="f" d="M127.781,254.9a.621.621,0,0,1,.073.192,4.392,4.392,0,0,1,.135.574,6.328,6.328,0,0,1-.02,2.169,6.622,6.622,0,0,1-1.33,2.929,6.562,6.562,0,0,1-7.221,2.018,6.626,6.626,0,0,1-2.655-1.816,6.323,6.323,0,0,1-1.142-1.844,4.306,4.306,0,0,1-.181-.561.577.577,0,0,1-.037-.2,7.794,7.794,0,0,0,1.5,2.481,6.6,6.6,0,0,0,2.6,1.711,6.414,6.414,0,0,0,6.948-1.941,6.6,6.6,0,0,0,1.335-2.81A7.825,7.825,0,0,0,127.781,254.9Z" transform="translate(-115.402 -254.898)"/></g></g></g><g transform="translate(11.624 0)"><g transform="translate(0 0.656)"><g transform="translate(3.135)"><path class="j" d="M118.967,152.8l.068,19.058A5.67,5.67,0,0,0,125,177.5h0a5.672,5.672,0,0,0,5.369-5.69c-.006-1.435-.009-2.631,0-2.778,0,0,4.85-.474,5.183-5.277.161-2.321.1-7.129,0-11.478a8.968,8.968,0,0,0-8.458-8.737l-.464-.026C121.618,143.521,118.821,147.786,118.967,152.8Z" transform="translate(-118.961 -143.514)"/><g transform="translate(5.259 23.311)"><path class="j" d="M132.426,178.015a11.193,11.193,0,0,1-6.164-2.138s1.284,3.543,6.1,3.384Z" transform="translate(-126.262 -175.877)"/></g></g><g transform="translate(8.232 8.175)"><g transform="translate(0.381 1.636)"><g transform="translate(7.353 0.167)"><g transform="translate(1.2 0.952)"><path class="f" d="M139.815,159.348a.688.688,0,0,1-.7.655.658.658,0,0,1-.672-.659.689.689,0,0,1,.7-.655A.658.658,0,0,1,139.815,159.348Z" transform="translate(-138.441 -158.688)"/></g><path class="f" d="M139.485,158.167c-.09.084-.588-.33-1.328-.37s-1.3.3-1.376.2c-.037-.042.059-.2.3-.357a1.882,1.882,0,0,1,1.108-.273,1.808,1.808,0,0,1,1.05.406C139.462,157.962,139.529,158.129,139.485,158.167Z" transform="translate(-136.774 -157.366)"/></g><g transform="translate(1.377 1.062)"><path class="f" d="M129.852,159.268a.688.688,0,0,1-.7.655.658.658,0,0,1-.672-.659.688.688,0,0,1,.7-.655A.658.658,0,0,1,129.852,159.268Z" transform="translate(-128.478 -158.608)"/></g><path class="f" d="M129.278,157.935c-.091.084-.589-.33-1.328-.37s-1.3.3-1.376.2c-.037-.043.058-.2.305-.357a1.882,1.882,0,0,1,1.108-.274,1.813,1.813,0,0,1,1.049.406C129.254,157.731,129.322,157.9,129.278,157.935Z" transform="translate(-126.566 -157.134)"/><g transform="translate(5.051 0.434)"><path class="f" d="M133.579,163.91a4.919,4.919,0,0,1,1.212-.148c.19-.009.371-.036.41-.163a.964.964,0,0,0-.094-.567q-.227-.7-.475-1.468a24.688,24.688,0,0,1-1.039-3.828,24.743,24.743,0,0,1,1.344,3.735l.452,1.475a1.1,1.1,0,0,1,.055.746.476.476,0,0,1-.326.258,1.286,1.286,0,0,1-.323.026A4.775,4.775,0,0,1,133.579,163.91Z" transform="translate(-133.579 -157.737)"/></g></g><g transform="translate(0 0.265)"><path class="f" d="M129.427,155.87c-.084.2-.816.059-1.688.115-.874.037-1.588.251-1.692.065-.046-.089.086-.272.38-.449a2.941,2.941,0,0,1,2.576-.137C129.312,155.61,129.464,155.777,129.427,155.87Z" transform="translate(-126.038 -155.23)"/></g><g transform="translate(7.875)"><path class="f" d="M139.477,155.7c-.14.16-.638-.043-1.25-.086-.61-.065-1.137.048-1.245-.134-.048-.089.043-.252.279-.4a1.815,1.815,0,0,1,2.011.177C139.478,155.449,139.539,155.626,139.477,155.7Z" transform="translate(-136.97 -154.863)"/></g></g><g transform="translate(0 12.651)"><path class="j" d="M117.94,161.3c-.08-.04-3.247-1.165-3.329,2.127s3.239,2.7,3.248,2.6S117.94,161.3,117.94,161.3Z" transform="translate(-114.609 -161.078)"/><g transform="translate(0.835 1.053)"><path class="k" d="M117.208,165.161c-.014-.011-.058.038-.156.081a.578.578,0,0,1-.429,0A1.419,1.419,0,0,1,116,163.95a1.907,1.907,0,0,1,.181-.818.664.664,0,0,1,.442-.429.292.292,0,0,1,.335.166c.042.094.019.158.037.165s.072-.054.049-.19a.368.368,0,0,0-.125-.21.434.434,0,0,0-.315-.091.8.8,0,0,0-.612.495,1.955,1.955,0,0,0-.222.913,1.49,1.49,0,0,0,.8,1.443.614.614,0,0,0,.527-.074C117.2,165.24,117.219,165.166,117.208,165.161Z" transform="translate(-115.768 -162.541)"/></g></g></g><g transform="translate(1.158)"><path class="f" d="M116.567,155.912a1.729,1.729,0,0,1,1.536.9c.187.481.2,1.016.39,1.5a1.163,1.163,0,0,0,1.152.843,1.012,1.012,0,0,0,.728-.711,2.78,2.78,0,0,0,.071-1.059c-.107-1.546-.342-3.086-.315-4.635a7.9,7.9,0,0,1,1.225-4.413,4.326,4.326,0,0,1,3.967-1.942c1.017.14,1.923.727,2.929.926a4.021,4.021,0,0,0,3.4-.923,1.6,1.6,0,0,1,.162-.116.888.888,0,0,0,.375-1.007.848.848,0,0,0-.176-.326c-1.907-1.977-5.5-2.7-8.2-2.185a9.608,9.608,0,0,0-6.582,4.679c-1.286,2.427-1.144,5.911-.658,8.469" transform="translate(-116.217 -142.603)"/></g><g transform="translate(11.801 17.653)"><path class="f" d="M131.112,167.111c.12-.006.122.794.807,1.361s1.536.48,1.543.592c.011.05-.19.156-.55.165a1.99,1.99,0,0,1-1.288-.449A1.735,1.735,0,0,1,131,167.64C130.968,167.3,131.057,167.107,131.112,167.111Z" transform="translate(-130.992 -167.111)"/></g></g><g transform="translate(69.501 41.094)"><path class="j" d="M194.96,203.278a40.949,40.949,0,0,1,4.288-3.4c.683-.232,6.109-.332,6.476-.061s5.859,3.284,4.95,3.746-4.721-1.7-4.721-1.7l-.64.085a26.522,26.522,0,0,1,3.916,2.458c.545.63.024,1.383-.6,1.093s-3.473-1.935-3.7-1.872,3.039,1.971,3.339,2.325c.4.475.143,1.4-.482,1.13-.369-.157-3.38-2.152-3.38-2.152a29.917,29.917,0,0,1,2.435,2.228c.266.512-.245.975-.769.653-.36-.221-1.907-1.743-2.39-2.037,0,0-.533-.038-1.317.8s-3.873,1.982-3.873,1.982Z" transform="translate(-194.96 -199.654)"/><g transform="translate(8.175 1.996)"><path class="l" d="M213.831,204.349a2.847,2.847,0,0,1-1.165-.073,6.609,6.609,0,0,1-1.22-.365c-.429-.2-.892-.441-1.381-.689l-1.034-.535.068.017a16.616,16.616,0,0,1-2.79-.079,16.6,16.6,0,0,1,2.785-.2h.033l.035.017,1.029.519,1.358.7a8.307,8.307,0,0,0,1.163.411C213.393,204.26,213.835,204.3,213.831,204.349Z" transform="translate(-206.309 -202.425)"/></g><g transform="translate(1.34 2.014)"><g transform="translate(0.002 0.004)"><path class="j" d="M196.823,204.978a1.231,1.231,0,0,0,1.356.467c.5-.107.954-.38,1.448-.523,1.476-.426,3.117.362,4.571-.134.2-.069.431-.218.406-.431-.023-.2-.245-.3-.434-.355l-4.848-1.545" transform="translate(-196.823 -202.456)"/></g><path class="l" d="M199.322,202.454a2.055,2.055,0,0,1,.541.114c.343.091.836.231,1.444.411l2.13.645.614.191c.19.076.472.089.655.39a.429.429,0,0,1-.076.475.878.878,0,0,1-.349.228,3.338,3.338,0,0,1-.732.164,19.435,19.435,0,0,1-2.737-.148,3.849,3.849,0,0,0-1.142.109c-.345.094-.659.244-.962.353a1.792,1.792,0,0,1-1.516.011c-.332-.192-.382-.424-.37-.421a1.491,1.491,0,0,0,.419.32,1.735,1.735,0,0,0,1.392-.1c.289-.116.6-.28.97-.393a3.958,3.958,0,0,1,1.214-.144,22.551,22.551,0,0,0,2.7.127,3.157,3.157,0,0,0,.663-.145c.2-.071.333-.215.271-.31-.053-.114-.275-.185-.483-.249l-.612-.2-2.11-.705c-.6-.2-1.083-.375-1.415-.5A1.986,1.986,0,0,1,199.322,202.454Z" transform="translate(-196.821 -202.45)"/></g></g><g transform="translate(46.993 70.517)"><path class="j" d="M165.748,241.1l5.98-.592s7.906,5.415,7.148,6.607-2.058,0-2.058,0a1.313,1.313,0,0,1-.867,2.275s-.542,1.191-1.408,1.083l-.542.007s-.49,1.509-1.219,1.184a23.661,23.661,0,0,1-2.937-2.274l-6.133-.542Z" transform="translate(-163.713 -240.503)"/></g><g transform="translate(50.644 77.181)"><path class="k" d="M170.885,249.847s-1.531.588-1.85,1.2-.5,2.064.485,2.328a8.752,8.752,0,0,0,1.74-.055l-.377-1.61a11.321,11.321,0,0,1,.913-.944C172.121,250.5,171.765,249.439,170.885,249.847Z" transform="translate(-168.781 -249.755)"/></g><g transform="translate(52.484 77.998)"><path class="k" d="M173.323,250.982s-1.531.588-1.85,1.2a1.352,1.352,0,0,0,.88,1.911,7.126,7.126,0,0,0,1.58-.053l-.161-.313c-.31-.6-.443-1.092.1-1.5.03-.022.335-.308.357-.329A.667.667,0,0,0,173.323,250.982Z" transform="translate(-171.336 -250.889)"/></g><g transform="translate(54.6 79.344)"><path class="k" d="M174.514,254.509a.889.889,0,0,1-.125-1.052,1.454,1.454,0,0,1,.9-.655.672.672,0,0,1,.7.114.589.589,0,0,1,.1.46,2.412,2.412,0,0,1-.6,1.119c-.142.179-.318.375-.546.369s-.4-.219-.533-.412" transform="translate(-174.274 -252.757)"/></g><g transform="translate(13.437 27.075)"><g transform="translate(8.209 5.306)"><path class="g" d="M129.4,188.067l1.344-.509,1.166,2.082-.649,2.223-1.371.339-1.367-1.722Z" transform="translate(-128.522 -187.558)"/><g transform="translate(1.367 4.305)"><path class="g" d="M130.42,193.874s1.74,9.569,3.191,16.3c0,0,1.189,5.6,1.671,6.9a18.943,18.943,0,0,0,2.192,3.6l1.685.651-1.029-9.458-6.338-18.329Z" transform="translate(-130.42 -193.535)"/></g></g><path class="a" d="M118.144,180.191l8.069,5.815-1.745,4.8-7.342-7.56Z" transform="translate(-117.126 -180.191)"/><g transform="translate(10.43 0.276)"><path class="a" d="M131.606,185.6l2.255-5.03,1.275,4.149-1.772,4.361Z" transform="translate(-131.606 -180.575)"/></g><g transform="translate(0.174 2.658)"><path class="f" d="M126.279,187.038a1.325,1.325,0,0,1-.09.369c-.091.279-.2.611-.327,1-.288.856-.709,2.061-1.21,3.468l-.07.2-.14-.154-1.881-2.075c-1.462-1.622-2.774-3.1-3.714-4.179l-1.1-1.287a2.765,2.765,0,0,1-.377-.5,2.821,2.821,0,0,1,.454.427l1.166,1.23c.975,1.047,2.309,2.505,3.771,4.127l1.868,2.086-.21.041c.519-1.4.972-2.595,1.3-3.436.154-.382.285-.707.394-.978A1.383,1.383,0,0,1,126.279,187.038Z" transform="translate(-117.368 -183.881)"/></g><g transform="translate(10.452 4.425)"><path class="f" d="M135.146,186.335a5.721,5.721,0,0,1-.377,1.177c-.264.715-.646,1.694-1.083,2.77l-.189.463-.133.324-.115-.33a22.654,22.654,0,0,0-1.608-3.3,3.4,3.4,0,0,1,.673.839,11.094,11.094,0,0,1,1.185,2.377l-.247-.006.188-.464c.437-1.076.846-2.045,1.155-2.741A5.733,5.733,0,0,1,135.146,186.335Z" transform="translate(-131.637 -186.335)"/></g></g></g><g transform="translate(135.159 133.768)"><g transform="translate(68.48 184.155)"><path class="i" d="M275.516,396.59l3.112,12.349L283.906,418a1.3,1.3,0,0,1-.549,1.827h0a1.3,1.3,0,0,1-1.194-.019c-2.37-1.279-11.064-6.025-11.241-6.942-.205-1.061-4.147-12.808-4.147-12.808Z" transform="translate(-266.774 -396.59)"/><g class="m" transform="translate(3.918 15.443)"><path class="c" d="M284.878,425.819l-12.664-7.789.143.52a1.967,1.967,0,0,0,.789,1.1c1.032.7,3.926,2.572,10.5,6.157a1.3,1.3,0,0,0,1.231.009Z" transform="translate(-272.214 -418.03)"/></g><g class="m" transform="translate(4.354 10.742)"><path class="c" d="M273.807,411.549a.79.79,0,0,1,.483.936.76.76,0,0,1-.924.487.833.833,0,0,1-.506-.994.786.786,0,0,1,1.016-.4" transform="translate(-272.819 -411.503)"/></g><g transform="translate(12.259 16.671)"><path class="f" d="M283.829,421.709a2.817,2.817,0,0,1,2.151-1.913c0-.033-.179-.086-.478-.047a2.083,2.083,0,0,0-1.663,1.48C283.765,421.521,283.8,421.707,283.829,421.709Z" transform="translate(-283.793 -419.735)"/></g><g transform="translate(13.609 18.668)"><path class="f" d="M285.682,423.887c.073.037.357-.471.941-.828a10.625,10.625,0,0,1,1.156-.486,1.446,1.446,0,0,0-1.3.249C285.811,423.232,285.609,423.871,285.682,423.887Z" transform="translate(-285.668 -422.508)"/></g><g transform="translate(10.077 14.663)"><path class="f" d="M280.772,419.272a6.7,6.7,0,0,1,3.07-2.3,3.566,3.566,0,0,0-3.07,2.3Z" transform="translate(-280.763 -416.947)"/></g><g transform="translate(8.821 12.185)"><path class="f" d="M279.025,414.635c.053.065.653-.406,1.526-.682s1.631-.257,1.637-.341a3.241,3.241,0,0,0-3.164,1.023Z" transform="translate(-279.021 -413.506)"/></g><g transform="translate(7.816 8.608)"><path class="f" d="M277.63,409.644a4.141,4.141,0,0,1,3.31-.794c.013-.031-.164-.148-.492-.233a2.846,2.846,0,0,0-2.487.6C277.708,409.438,277.6,409.622,277.63,409.644Z" transform="translate(-277.626 -408.541)"/></g><g transform="translate(6.944 5.868)"><path class="f" d="M278.649,407.148a1.092,1.092,0,0,0-.112-.469,3.349,3.349,0,0,0-.705-1.114,1.484,1.484,0,0,0-.8-.514.524.524,0,0,0-.538.27.853.853,0,0,0-.041.608,1.845,1.845,0,0,0,2.013,1.214,2.14,2.14,0,0,0,1.727-1.639.742.742,0,0,0-.131-.6.513.513,0,0,0-.591-.119,1.821,1.821,0,0,0-.692.643,3.733,3.733,0,0,0-.574,1.186,1.14,1.14,0,0,0-.071.476,5.927,5.927,0,0,1,.8-1.542,1.711,1.711,0,0,1,.617-.547.275.275,0,0,1,.323.063.511.511,0,0,1,.063.4,1.908,1.908,0,0,1-1.514,1.4,1.6,1.6,0,0,1-1.723-1.006.619.619,0,0,1,.01-.426.285.285,0,0,1,.3-.153,1.344,1.344,0,0,1,.687.422A4.944,4.944,0,0,1,278.649,407.148Z" transform="translate(-276.414 -404.737)"/></g></g><g transform="translate(29.801 186.127)"><g transform="translate(0.011)"><path class="i" d="M221.934,399.661l.659,9.517s-9.452,3.867-9.5,5.637l18.5-.615-.419-14.872Z" transform="translate(-213.091 -399.328)"/></g><g transform="translate(14.324 8.832)"><path class="b" d="M233.845,411.616a.756.756,0,0,1,.551.844.727.727,0,0,1-.833.554.8.8,0,0,1-.579-.9.754.754,0,0,1,.93-.48" transform="translate(-232.962 -411.59)"/></g><g transform="translate(0 13.374)"><path class="b" d="M231.587,419.393l-.1-1.5-17.7,1.15s-.812.385-.7.962Z" transform="translate(-213.076 -417.896)"/></g><g transform="translate(9.209 9.672)"><path class="f" d="M225.862,412.85c.007.09.46.116.913.392s.7.648.786.609c.082-.02-.071-.555-.626-.879S225.839,412.767,225.862,412.85Z" transform="translate(-225.861 -412.756)"/></g><g transform="translate(7.296 10.593)"><path class="f" d="M223.206,414.074c-.018.088.378.229.7.6s.421.773.511.766c.085.012.13-.519-.276-.975S223.2,413.988,223.206,414.074Z" transform="translate(-223.205 -414.034)"/></g><g transform="translate(5.498 11.456)"><path class="f" d="M221.482,416.768c.083.017.193-.439-.055-.926s-.677-.67-.713-.593.235.332.433.735S221.392,416.763,221.482,416.768Z" transform="translate(-220.708 -415.232)"/></g><g transform="translate(9.297 7.225)"><path class="f" d="M225.987,409.714c.04.081.451-.058.962-.04s.915.165.959.086-.349-.389-.952-.4S225.94,409.644,225.987,409.714Z" transform="translate(-225.983 -409.359)"/></g><g transform="translate(9.202 4.089)"><path class="f" d="M225.852,406.574a1.744,1.744,0,0,0,.926-.036,4.166,4.166,0,0,0,.959-.33,4.427,4.427,0,0,0,.523-.3,1.124,1.124,0,0,0,.272-.227.394.394,0,0,0,.026-.482.5.5,0,0,0-.4-.194,1.24,1.24,0,0,0-.346.06,3.363,3.363,0,0,0-.569.217,3.257,3.257,0,0,0-.836.589c-.416.412-.552.754-.52.771s.241-.261.667-.6a3.738,3.738,0,0,1,.811-.493,3.5,3.5,0,0,1,.527-.182c.195-.058.361-.065.414.021.019.032.022.046-.017.1a.917.917,0,0,1-.2.166,4.625,4.625,0,0,1-.48.3,5.043,5.043,0,0,1-.884.373A6.358,6.358,0,0,0,225.852,406.574Z" transform="translate(-225.852 -405.005)"/></g><g transform="translate(8.041 2.867)"><path class="f" d="M225.523,406.225a1.48,1.48,0,0,0,.214-.9,2.991,2.991,0,0,0-.415-1.564.762.762,0,0,0-.606-.448.433.433,0,0,0-.378.271,1.253,1.253,0,0,0-.084.343,2.042,2.042,0,0,0,.02.625,2.135,2.135,0,0,0,.427.944c.377.467.758.563.765.532.029-.046-.292-.21-.584-.661a2.129,2.129,0,0,1-.322-.861,1.907,1.907,0,0,1,0-.536c.022-.2.091-.359.165-.341.092,0,.254.138.334.293a3.066,3.066,0,0,1,.246.494,3.359,3.359,0,0,1,.21.918C225.559,405.871,225.474,406.212,225.523,406.225Z" transform="translate(-224.239 -403.309)"/></g></g><g transform="translate(33.607 82.927)"><path class="f" d="M218.36,256.054l2.975,110.757,14.594-.438-1.121-95.06,18.6,97.7,13.181-3.44L249.568,256.265Z" transform="translate(-218.36 -256.054)"/><g transform="translate(7.863 8.351)"><path class="h" d="M229.409,370.2c-.073,0-.133-22.959-.133-51.274s.06-51.279.133-51.279.133,22.954.133,51.279S229.483,370.2,229.409,370.2Z" transform="translate(-229.276 -267.648)"/></g><g transform="translate(24.243 14.564)"><path class="h" d="M266.982,374.638c-.073.011-3.482-22-7.614-49.16s-7.423-49.193-7.351-49.2,3.48,22,7.614,49.165S267.055,374.627,266.982,374.638Z" transform="translate(-252.016 -276.273)"/></g></g><g transform="translate(34.408)"><path class="f" d="M239.582,154.592a22.744,22.744,0,0,0,1.234-3.525,6.225,6.225,0,0,0,.081-3.159,2.209,2.209,0,0,0-2.39-1.45,5.34,5.34,0,0,0-3.091-4.188,13.6,13.6,0,0,0-5.118-1.33,4.351,4.351,0,0,0-1.918.241,2.456,2.456,0,0,0-1.153,1.244,4.237,4.237,0,0,0-3.761-.6c-1.407.382-3.014,1.143-3.632,2.464a4.12,4.12,0,0,0-.112,3.122c.274.86,1.183,2.21,2.03,1.9" transform="translate(-219.472 -140.925)"/><g transform="translate(0.772 3.773)"><g transform="translate(1.184 1.184)"><path class="j" d="M233.227,180.4h0a6.319,6.319,0,0,1-6.179-6.632c.089-1.768.17-3.194.17-3.194s-4.815-.625-4.995-5.42.375-15.828.375-15.828h0a16.673,16.673,0,0,1,16.8,1.685l.725.529-.449,22.666A6.319,6.319,0,0,1,233.227,180.4Z" transform="translate(-222.187 -147.807)"/><g transform="translate(4.953 20.77)"><path class="j" d="M229.132,178.576a11.16,11.16,0,0,0,6.208-1.934,6.1,6.1,0,0,1-6.275,3.409Z" transform="translate(-229.064 -176.642)"/></g><g transform="translate(17.401 8.543)"><path class="j" d="M246.415,159.846c.081-.037,3.271-1.057,3.248,2.224s-3.312,2.582-3.317,2.488S246.415,159.846,246.415,159.846Z" transform="translate(-246.346 -159.667)"/><g transform="translate(1.008 1.063)"><path class="k" d="M247.748,163.734c.015-.011.057.04.153.085a.568.568,0,0,0,.427.012,1.413,1.413,0,0,0,.663-1.264,1.9,1.9,0,0,0-.154-.82.661.661,0,0,0-.427-.442.291.291,0,0,0-.339.154c-.045.091-.025.157-.042.163s-.07-.055-.042-.191a.362.362,0,0,1,.13-.2.431.431,0,0,1,.317-.081.8.8,0,0,1,.594.513,1.935,1.935,0,0,1,.192.916,1.484,1.484,0,0,1-.843,1.412.612.612,0,0,1-.522-.091C247.754,163.814,247.737,163.74,247.748,163.734Z" transform="translate(-247.745 -161.142)"/></g></g><g transform="translate(1.476 4.732)"><g transform="translate(0 2.719)"><g transform="translate(0 0.044)"><g transform="translate(0.181 0.884)"><path class="f" d="M224.488,160.075a.685.685,0,0,0,.678.675.655.655,0,0,0,.69-.635.685.685,0,0,0-.677-.675A.656.656,0,0,0,224.488,160.075Z" transform="translate(-224.488 -159.44)"/></g><path class="f" d="M224.249,158.966c.087.087.6-.31,1.334-.326s1.286.338,1.364.246c.038-.04-.052-.2-.292-.365a1.879,1.879,0,0,0-1.095-.308,1.8,1.8,0,0,0-1.059.371C224.279,158.764,224.206,158.927,224.249,158.966Z" transform="translate(-224.237 -158.212)"/></g><g transform="translate(7.248)"><g transform="translate(0.154 0.92)"><path class="f" d="M234.514,160.064a.685.685,0,0,0,.678.675.656.656,0,0,0,.691-.635.686.686,0,0,0-.677-.675A.656.656,0,0,0,234.514,160.064Z" transform="translate(-234.514 -159.429)"/></g><path class="f" d="M234.312,158.9c.087.087.6-.31,1.333-.326s1.286.339,1.364.246c.038-.041-.052-.2-.292-.365a1.875,1.875,0,0,0-1.094-.308,1.8,1.8,0,0,0-1.059.371C234.342,158.7,234.269,158.865,234.312,158.9Z" transform="translate(-234.3 -158.151)"/></g><g transform="translate(2.831 0.137)"><path class="f" d="M230.058,164.49a4.909,4.909,0,0,0-1.2-.186c-.189-.014-.367-.048-.4-.175a.961.961,0,0,1,.112-.561l.521-1.447a24.682,24.682,0,0,0,1.156-3.779,24.578,24.578,0,0,0-1.458,3.678q-.259.762-.5,1.455a1.088,1.088,0,0,0-.079.741.472.472,0,0,0,.316.267,1.292,1.292,0,0,0,.321.037A4.776,4.776,0,0,0,230.058,164.49Z" transform="translate(-228.167 -158.341)"/></g><g transform="translate(4.604 6.742)"><path class="f" d="M232.929,167.511c-.12,0-.1.8-.772,1.381s-1.524.519-1.528.63c-.01.05.194.151.554.151a1.989,1.989,0,0,0,1.276-.48,1.734,1.734,0,0,0,.6-1.157C233.077,167.7,232.983,167.5,232.929,167.511Z" transform="translate(-230.628 -167.511)"/></g></g><g transform="translate(6.992)"><path class="f" d="M233.949,154.965c.078.2.811.085,1.678.168.869.065,1.572.3,1.683.118.049-.087-.077-.273-.364-.46a2.931,2.931,0,0,0-2.561-.218C234.072,154.71,233.915,154.871,233.949,154.965Z" transform="translate(-233.945 -154.376)"/></g><g transform="translate(0.208 0.581)"><path class="f" d="M224.547,155.979c.134.164.637-.022,1.248-.046.609-.045,1.13.084,1.245-.094.05-.086-.035-.252-.265-.4a1.81,1.81,0,0,0-2.008.112C224.554,155.725,224.488,155.9,224.547,155.979Z" transform="translate(-224.526 -155.183)"/></g></g></g><path class="f" d="M239.917,151.464a34.819,34.819,0,0,1,.11,4.326c-.032.208-.556.776-.6.982-.251,1.222-.742,1.755-1.5.521a10.941,10.941,0,0,1-.624-2.352q-.493-2.2-.984-4.407a7.673,7.673,0,0,1-3.625.957,3.728,3.728,0,0,1-3.162-1.76,3.869,3.869,0,0,1-5.981.938,1.616,1.616,0,0,1-2.125.509,1.919,1.919,0,0,1-.832-2.1c.3-1.179,1.539-1.845,2.7-2.218a17.7,17.7,0,0,1,13.758,1.772,6.968,6.968,0,0,1,1.686,1.206c.481.5,1.146,1.085,1.183,1.778" transform="translate(-220.543 -146.163)"/></g><g transform="translate(16.697 8.565)"><path class="h" d="M242.654,152.941a2.385,2.385,0,0,1,.744.12,2.532,2.532,0,0,1,.685.441c.233.2.466.471.745.732a2.414,2.414,0,0,0,.933.586,1.666,1.666,0,0,0,.908.012c.508-.142.71-.421.684-.439a5.378,5.378,0,0,1-.726.244,1.609,1.609,0,0,1-.787-.065,2.378,2.378,0,0,1-.821-.545c-.267-.248-.506-.514-.771-.725a2.363,2.363,0,0,0-.785-.429C242.947,152.721,242.63,152.919,242.654,152.941Z" transform="translate(-242.652 -152.816)"/></g><g transform="translate(17.257 10.06)"><path class="h" d="M243.431,154.955a1.482,1.482,0,0,1,.519.231,2.7,2.7,0,0,1,.418.474,2.233,2.233,0,0,0,2.118.9c.394-.059.6-.205.586-.234s-.239.032-.6.036a2.463,2.463,0,0,1-1.329-.357c-.468-.265-.7-.762-1.077-.979S243.406,154.922,243.431,154.955Z" transform="translate(-243.43 -154.891)"/></g><g transform="translate(2.722 0.781)"><path class="h" d="M225.136,142.026c0-.015-.155-.04-.421.039a1.832,1.832,0,0,0-.925.694,4.394,4.394,0,0,0-.268,3.7,5.2,5.2,0,0,0,2.35,2.888,4.594,4.594,0,0,0,1.049.448,1.014,1.014,0,0,0,.413.069,13.527,13.527,0,0,1-1.36-.687,5.321,5.321,0,0,1-2.185-2.807,4.415,4.415,0,0,1,.166-3.5,1.877,1.877,0,0,1,.8-.7C224.989,142.062,225.138,142.049,225.136,142.026Z" transform="translate(-223.251 -142.01)"/></g><g transform="translate(0.606 2.788)"><path class="h" d="M220.343,144.8a2.093,2.093,0,0,0,.041.924,5.722,5.722,0,0,0,2.43,3.653,2.075,2.075,0,0,0,.837.395,7.348,7.348,0,0,1-3.308-4.972Z" transform="translate(-220.314 -144.796)"/></g></g><g transform="translate(0 69.626)"><path class="k" d="M180.3,237.588l-7.017.356a1.657,1.657,0,0,0-1.576,1.686c.033,1.6.3,3.8,1.554,3.59l.8-3.494,5.824,5.139a4.228,4.228,0,0,0,2.1,1.029l1.369-.142Z" transform="translate(-171.702 -237.588)"/></g><g transform="translate(36.665 28.683)"><g transform="translate(0 2.074)"><path class="b" d="M228.093,184.909l-3.668,1.212-1.82,30.46V243.6l22.519,2.494.261-38.963-1.454-19.392-3.439-4.111Z" transform="translate(-222.605 -183.626)"/></g><g transform="translate(4.359)"><path class="b" d="M228.657,185.562V182.61l13.382-1.863-.538,6.8-3.076,5.331-5.025.28-3.632-2.243Z" transform="translate(-228.657 -180.747)"/></g><g transform="translate(5.47 1.783)"><path class="f" d="M230.287,185.909a6.845,6.845,0,0,1,.115-2.687,6.88,6.88,0,0,1-.115,2.687Z" transform="translate(-230.199 -183.222)"/></g><g transform="translate(8.833 1.226)"><path class="f" d="M234.94,185.449a8.526,8.526,0,0,1,.176-3,8.567,8.567,0,0,1-.176,3Z" transform="translate(-234.869 -182.449)"/></g><g transform="translate(12.081 0.717)"><path class="f" d="M239.438,184.913a9.545,9.545,0,0,1,.233-3.17,9.543,9.543,0,0,1-.233,3.17Z" transform="translate(-239.377 -181.743)"/></g><g transform="translate(15.122 0.373)"><path class="f" d="M243.726,184.269a6.157,6.157,0,0,1,.138-3,14.216,14.216,0,0,1-.138,3Z" transform="translate(-243.598 -181.265)"/></g><g transform="translate(6.903 16.252)"><path class="f" d="M239.049,203.31a2.047,2.047,0,0,1-.178.5c-.129.315-.331.766-.591,1.316-.521,1.1-1.3,2.6-2.245,4.2s-1.9,2.995-2.616,3.979c-.359.492-.658.884-.874,1.148a2.086,2.086,0,0,1-.354.395,17.825,17.825,0,0,1,1.074-1.651c.678-1.008,1.593-2.414,2.541-4.007s1.744-3.068,2.306-4.145A17.984,17.984,0,0,1,239.049,203.31Z" transform="translate(-232.189 -203.31)"/></g></g><g transform="translate(52.227 30.282)"><g transform="translate(0.002)"><path class="n" d="M246.466,182.967l3.633,1.75,7.014,1.716a5.844,5.844,0,0,1,4.8,6.5l-3.673,28.646,4.384,27.771-17.388-.518-1.02-10.331V209.861Z" transform="translate(-244.213 -182.967)"/></g><g transform="translate(0 0.475)"><path class="f" d="M244.212,216.648a1.745,1.745,0,0,1,.051-.355c.05-.256.115-.591.2-1.007.189-.9.452-2.156.774-3.692.685-3.138,1.621-7.424,2.654-12.159.29-1.3.573-2.575.844-3.793l.033.118-1.205-1.261-.067-.07.05-.082,2.023-3.365-.007.1-2.228-5.4c-.252-.632-.455-1.137-.605-1.513a3.658,3.658,0,0,1-.192-.543,3.722,3.722,0,0,1,.255.517c.164.37.385.868.662,1.489.569,1.319,1.362,3.159,2.314,5.364l.022.052-.03.049-2,3.38-.017-.152,1.21,1.255.048.05-.015.068c-.269,1.219-.55,2.489-.837,3.795l-2.731,12.142-.857,3.674c-.1.412-.184.743-.246,1A1.9,1.9,0,0,1,244.212,216.648Z" transform="translate(-244.21 -183.626)"/></g></g><g transform="translate(7.783 32.755)"><g transform="translate(1.108 0)"><path class="n" d="M184.046,222.116l15.385-8.577,7.454-20.1a10.793,10.793,0,0,1,5.967-6.211l1.979-.825.009,52.934.4,12.539-8.336-2.5,4.251-25.2-1.469-12.4-1.461,6a8.152,8.152,0,0,1-3.8,5.1l-16.016,8.318Z" transform="translate(-184.046 -186.399)"/></g><g transform="translate(0 36.107)"><path class="b" d="M183.8,236.527l-1.295.386,3.642,8.683,1.7-.658Z" transform="translate(-182.508 -236.527)"/></g><g transform="translate(16.422 27.265)"><path class="f" d="M208.16,227.7a7.137,7.137,0,0,0-2.852-3.437,4.306,4.306,0,0,1,2.852,3.437Z" transform="translate(-205.306 -224.252)"/></g><g transform="translate(2.659 35.747)"><path class="f" d="M186.493,236.109c.017.035-.076.1-.085.253a.23.23,0,1,0,.4-.117c-.088-.12-.2-.128-.208-.167s.143-.115.339.031a.455.455,0,1,1-.71.208C186.311,236.09,186.492,236.074,186.493,236.109Z" transform="translate(-186.199 -236.026)"/></g><g transform="translate(3.9 35.223)"><path class="f" d="M188.217,235.382c.017.035-.076.1-.085.253a.23.23,0,1,0,.4-.117c-.089-.12-.2-.128-.208-.166s.143-.115.338.03a.456.456,0,1,1-.709.209C188.035,235.363,188.215,235.348,188.217,235.382Z" transform="translate(-187.923 -235.3)"/></g><g transform="translate(29.52)"><path class="f" d="M225.864,218.24a1.508,1.508,0,0,1-.068-.326l-.142-.943-.472-3.475c-.377-2.966-.89-7.009-1.457-11.477q-.117-.952-.23-1.875l0-.034.012-.031c.388-.986.764-1.942,1.124-2.857l0,.1-1.11-2.535-.017-.039.011-.039c.681-2.464,1.254-4.535,1.667-6.026l.487-1.691a3.952,3.952,0,0,1,.2-.593,4.029,4.029,0,0,1-.127.612c-.105.425-.248,1-.424,1.708-.389,1.5-.93,3.577-1.574,6.051l-.006-.078,1.127,2.528.022.048-.019.05-1.114,2.861.008-.064q.115.922.233,1.875c.537,4.471,1.024,8.517,1.38,11.486.161,1.446.292,2.629.388,3.485l.092.949A1.637,1.637,0,0,1,225.864,218.24Z" transform="translate(-223.491 -186.399)"/></g><g transform="translate(24.854 13.101)"><path class="f" d="M220.351,229.407a.946.946,0,0,1-.053-.251c-.027-.2-.06-.434-.1-.723-.082-.67-.193-1.57-.328-2.664-.272-2.249-.655-5.355-1.114-8.782s-.912-6.524-1.243-8.765c-.158-1.091-.289-1.988-.386-2.656-.038-.289-.069-.528-.1-.724a.957.957,0,0,1-.015-.256.915.915,0,0,1,.068.246c.039.194.086.431.144.716.12.623.281,1.526.47,2.643.379,2.235.859,5.33,1.32,8.76s.813,6.54,1.038,8.8c.112,1.128.2,2.041.244,2.674.019.291.036.532.05.728A.914.914,0,0,1,220.351,229.407Z" transform="translate(-217.013 -204.587)"/></g><g transform="translate(26.063 47.046)"><path class="f" d="M218.694,261.4a2.51,2.51,0,0,0,.357.43,1.626,1.626,0,0,0,1.4.315,2.384,2.384,0,0,0,1.523-1.5,9.347,9.347,0,0,0,.429-2.752,6.306,6.306,0,0,0-.285-2.744,5.02,5.02,0,0,0-1.394-1.761,6.579,6.579,0,0,1-1.065-1.16,1.431,1.431,0,0,1-.251-.522c.022-.01.112.174.336.461a7.927,7.927,0,0,0,1.107,1.08,4.994,4.994,0,0,1,1.495,1.807,6.332,6.332,0,0,1,.324,2.854,9.071,9.071,0,0,1-.468,2.829,2.546,2.546,0,0,1-1.708,1.588,1.69,1.69,0,0,1-1.516-.421,1.222,1.222,0,0,1-.249-.359C218.7,261.458,218.686,261.408,218.694,261.4Z" transform="translate(-218.692 -251.713)"/></g><g transform="translate(20.35 30.464)"><path class="f" d="M210.76,235.1s.5-5.865,5.154-6.408A6.881,6.881,0,0,1,210.76,235.1Z" transform="translate(-210.76 -228.692)"/></g></g><g transform="translate(53.032 35.924)"><g transform="translate(0 33.702)"><path class="i" d="M245.327,259.555c.3.2,13.526,8.847,13.526,8.847l1.525-1.22.722-19.831-12.882-9.763-1.772.61Z" transform="translate(-245.327 -237.588)"/><g transform="translate(0.434 0.281)"><path class="b" d="M248.243,237.979l.528,21.463h-2.842l.952-21.038Z" transform="translate(-245.929 -237.979)"/></g><g transform="translate(3.445 16.929)"><path class="j" d="M253.669,270.832a1.664,1.664,0,0,0,1.526,1.038c.038,0,.076.031.112.093a1.513,1.513,0,0,0,1.286.8,2.776,2.776,0,0,0,1.451-.419c.707-.431,1.966-3.254,1.966-3.254l2.983-6.644-5.018-1.356-6.372,1.986c0,.115-1.492,6.149-1.492,6.149a1.532,1.532,0,0,0,1.791-.949,16.319,16.319,0,0,1,1.124-2.105l.475,2.716-1.812.619a1.2,1.2,0,0,0,.776,1.378Z" transform="translate(-250.11 -261.091)"/></g></g><g transform="translate(9.254 0.572)"><path class="n" d="M258.174,204.738l8.352,15.373-6.8,20.178,7.559,4.256,9.606-22.445a6.371,6.371,0,0,0-.082-5.194l-11.785-25.313Z" transform="translate(-258.174 -191.593)"/></g><g transform="translate(10.103 49.269)"><path class="b" d="M260.059,259.2l-.705,1.564,7.131,3.843.747-1.368Z" transform="translate(-259.353 -259.199)"/></g><g transform="translate(6.88)"><path class="f" d="M258.807,240.067a.381.381,0,0,1,.023-.1l.088-.3.361-1.142,1.388-4.24c1.208-3.622,2.889-8.664,4.814-14.437l.012.107c-.972-1.652-1.971-3.4-2.98-5.2-1.84-3.289-3.532-6.457-4.978-9.388-.715-1.469-1.381-2.873-1.943-4.214a8.447,8.447,0,0,1-.7-3.984,9.232,9.232,0,0,1,.746-3.259,6.373,6.373,0,0,1,1.474-2.048,5.02,5.02,0,0,1,1.331-.879,2.746,2.746,0,0,1,.524-.187,5.88,5.88,0,0,0-1.784,1.142,6.382,6.382,0,0,0-1.409,2.033,9.17,9.17,0,0,0-.694,3.207,8.281,8.281,0,0,0,.712,3.888c.569,1.332,1.242,2.728,1.96,4.191,1.456,2.919,3.152,6.08,4.991,9.367,1.008,1.8,2,3.545,2.97,5.195l.031.052-.019.056c-1.96,5.761-3.672,10.794-4.9,14.408l-1.461,4.215-.4,1.128-.11.29C258.826,240.036,258.811,240.069,258.807,240.067Z" transform="translate(-254.879 -190.799)"/></g><g transform="translate(17.571 28.089)"><path class="f" d="M275.4,230.653a5.91,5.91,0,0,1-.824-.29,5.849,5.849,0,0,0-4.054.126,6.06,6.06,0,0,1-.8.341,1.963,1.963,0,0,1,.726-.513,5.078,5.078,0,0,1,4.2-.131A1.968,1.968,0,0,1,275.4,230.653Z" transform="translate(-269.721 -229.795)"/></g><g transform="translate(7.583 10.059)"><path class="f" d="M255.855,204.765l6,20.081.847-6.6Z" transform="translate(-255.855 -204.765)"/></g><g transform="translate(17.203 49.429)"><path class="f" d="M269.5,259.5c.017.035-.076.1-.085.253a.23.23,0,1,0,.4-.117c-.089-.12-.2-.128-.208-.166s.143-.115.339.03a.456.456,0,1,1-.71.209C269.322,259.485,269.5,259.47,269.5,259.5Z" transform="translate(-269.21 -259.422)"/></g><g transform="translate(17.806 47.983)"><path class="f" d="M270.341,257.5c.017.035-.076.1-.085.253a.23.23,0,1,0,.4-.117c-.088-.12-.2-.128-.208-.167s.143-.115.339.031a.455.455,0,1,1-.71.208C270.159,257.477,270.34,257.462,270.341,257.5Z" transform="translate(-270.047 -257.414)"/></g><g transform="translate(25.143 22.486)"><path class="f" d="M281.4,222.017a2.885,2.885,0,0,0-1.1,2.8,23.633,23.633,0,0,1,.447,3,12.336,12.336,0,0,1-.383,2.129,3.686,3.686,0,0,0,.064,2.134,1.641,1.641,0,0,0,1.693,1.07l.709-1.433a7.887,7.887,0,0,0-.1-7.19Z" transform="translate(-280.233 -222.017)"/></g></g></g><g transform="translate(213.226 251.033)"><g transform="translate(43.852 37.576)"><path class="i" d="M342.175,367.426a5.728,5.728,0,0,1,2.968-3.792,6.945,6.945,0,0,1,5.043.3,18.1,18.1,0,0,0,4.937,1.484c1.722.107,3.666-.71,4.182-2.357.485-1.549-.449-3.2-1.618-4.325a10.206,10.206,0,0,0-16.722,4.015" transform="translate(-340.965 -355.893)"/></g><g transform="translate(29.4 36.237)"><path class="o" d="M322.917,373.826c-2.527-2.4-2.4-6.58-1.14-9.829a14.892,14.892,0,0,1,7.085-7.39,22.438,22.438,0,0,1,19.555-.634,9.282,9.282,0,0,0-7.5,4.407c-1.385,2.3-1.693,5.091-2.837,7.52a11.84,11.84,0,0,1-15.159,5.926" transform="translate(-320.901 -354.035)"/></g><g transform="translate(26.36)"><path class="n" d="M320.522,345.332c-2.8-3.3-3.17-8.6-2.758-12.913s1.41-8.645.731-12.919c-.4-2.533-1.385-4.951-1.717-7.493s.138-5.417,2.109-7.059c2.264-1.886,5.83-1.441,8.185.33s3.72,4.554,4.718,7.327c2.191,6.093,2.995,12.849,1.195,19.069s-6.023,11.78-12.221,13.658" transform="translate(-316.681 -303.726)"/></g><g transform="translate(28.849 38.422)"><path class="f" d="M320.146,387.348a2.357,2.357,0,0,1-.011-.381c0-.249,0-.617.021-1.091.036-.947.127-2.317.339-4a53.44,53.44,0,0,1,1.075-5.857,27.02,27.02,0,0,1,2.673-6.782,28.276,28.276,0,0,1,4.368-5.839,27.8,27.8,0,0,1,4.579-3.807c.7-.483,1.375-.85,1.956-1.19.6-.313,1.118-.57,1.544-.776l1.007-.424a2.32,2.32,0,0,1,.357-.133,2.394,2.394,0,0,1-.339.176l-.986.462c-.419.217-.932.485-1.52.808-.573.349-1.24.723-1.928,1.212a28.786,28.786,0,0,0-8.837,9.625c-2.572,4.5-3.277,9.231-3.787,12.547-.232,1.675-.348,3.039-.411,3.983l-.064,1.088A2.373,2.373,0,0,1,320.146,387.348Z" transform="translate(-320.135 -357.067)"/></g><g transform="translate(0 24.985)"><g transform="translate(0 3.593)"><path class="g" d="M284.812,343.4c-5.177,3.124-5.16,5.966-4.3,8.649s4.042,4.547,6.675,3.542a8.172,8.172,0,0,0,3.489-3.162,14.626,14.626,0,0,1,3.077-3.627,3.947,3.947,0,0,1,4.46-.365" transform="translate(-280.084 -343.4)"/></g><g transform="translate(0.853)"><path class="i" d="M281.268,345.43c1.353-1.871,4.7-2.411,6.808-1.479a13.629,13.629,0,0,1,5.042,4.631,20.625,20.625,0,0,0,4.65,5.084c1.917,1.285,4.6,1.75,6.507.456a5.593,5.593,0,0,0,2.211-3.828,12.749,12.749,0,0,0-.3-4.513c-.457-2.171-1.2-4.438-2.94-5.818-1.936-1.537-4.623-1.61-7.093-1.529a26.573,26.573,0,0,0-8.374,1.289,11.625,11.625,0,0,0-6.506,5.708" transform="translate(-281.268 -338.412)"/></g><g transform="translate(11.22 0.573)"><path class="f" d="M309,378.206a.4.4,0,0,1-.014-.113l-.018-.334c-.011-.312-.025-.741-.045-1.285-.032-1.135-.079-2.744-.135-4.724s-.144-4.369-.288-7-.343-5.528-.742-8.541a27.488,27.488,0,0,0-.858-4.338,22.426,22.426,0,0,0-1.586-3.8,21.843,21.843,0,0,0-2-3.142,20.471,20.471,0,0,0-2.185-2.4,16.043,16.043,0,0,0-3.874-2.641c-.253-.116-.473-.23-.671-.31l-.506-.2-.31-.125a.4.4,0,0,1-.1-.05.427.427,0,0,1,.111.028l.318.1.515.176c.2.074.426.182.684.292a15.513,15.513,0,0,1,3.947,2.6,20.234,20.234,0,0,1,2.226,2.4,21.838,21.838,0,0,1,2.038,3.159,22.5,22.5,0,0,1,1.614,3.828,27.369,27.369,0,0,1,.87,4.374c.4,3.025.59,5.925.726,8.561s.2,5.014.238,7.01.057,3.611.062,4.727q0,.816,0,1.286c0,.135,0,.246-.005.334A.407.407,0,0,1,309,378.206Z" transform="translate(-295.661 -339.208)"/></g></g><g transform="translate(25.512 9.779)"><path class="f" d="M316.41,374.419a14.85,14.85,0,0,1-.567-2.224,23.323,23.323,0,0,1-.238-6.245,41.535,41.535,0,0,1,1.973-9.061c1.062-3.331,2.5-6.892,3.736-10.72A49.227,49.227,0,0,0,322.8,340.5a50.355,50.355,0,0,0,.734-5.412,79.1,79.1,0,0,0,.165-9.254c-.089-2.636-.23-4.768-.317-6.241-.042-.725-.076-1.294-.1-1.7-.009-.184-.015-.33-.02-.442a.684.684,0,0,1,0-.151.772.772,0,0,1,.022.149c.012.112.026.256.044.44.034.4.082.97.143,1.694.115,1.472.28,3.6.39,6.241a76.44,76.44,0,0,1-.116,9.278,49.954,49.954,0,0,1-.724,5.438,48.84,48.84,0,0,1-1.489,5.7c-1.236,3.841-2.683,7.4-3.753,10.715a42.127,42.127,0,0,0-2.013,9.01,24.078,24.078,0,0,0,.163,6.215c.127.725.243,1.286.346,1.66.043.179.078.321.1.429A.759.759,0,0,1,316.41,374.419Z" transform="translate(-315.503 -317.302)"/></g><g transform="translate(14.393 64.557)"><path class="h" d="M324.926,398.029H300.621l-.555-4.678h24.86Z" transform="translate(-300.066 -393.35)"/></g><g transform="translate(17.556 68.702)"><path class="h" d="M304.457,399.106,307.5,413.14H320.7l2.843-14.034Z" transform="translate(-304.457 -399.106)"/></g><g transform="translate(15.384 69.081)"><path class="h" d="M325.311,399.785c0,.064-5.344.1-11.934.082s-11.935-.085-11.935-.149,5.342-.1,11.935-.082S325.311,399.721,325.311,399.785Z" transform="translate(-301.442 -399.631)"/></g><g transform="translate(18.962 74.193)"><path class="f" d="M322.528,408.7a10.021,10.021,0,0,0-2.141-1.227,7.572,7.572,0,0,0-2.6-.523,9.164,9.164,0,0,0-3.2.587c-1.108.375-2.143.811-3.15,1.051a7.5,7.5,0,0,1-2.723.082,5.616,5.616,0,0,1-1.75-.554,3.5,3.5,0,0,1-.422-.268c-.091-.069-.136-.108-.132-.115s.207.12.594.3a6.148,6.148,0,0,0,1.733.473,7.622,7.622,0,0,0,2.652-.128c.972-.243,2.007-.684,3.123-1.062a9.085,9.085,0,0,1,3.28-.581,7.447,7.447,0,0,1,2.659.584,6.912,6.912,0,0,1,1.584.924,4.16,4.16,0,0,1,.377.326C322.493,408.647,322.534,408.692,322.528,408.7Z" transform="translate(-306.409 -406.729)"/></g><g transform="translate(19.333 75.153)"><path class="c" d="M322.488,410.007a10.621,10.621,0,0,0-2.056-1.21,6.978,6.978,0,0,0-2.51-.518,9.043,9.043,0,0,0-3.1.557c-1.07.358-2.075.773-3.035,1.031a7.8,7.8,0,0,1-2.617.293,4.432,4.432,0,0,1-1.714-.459,3.066,3.066,0,0,1-.409-.259c-.088-.066-.132-.1-.127-.111s.2.117.575.289a4.724,4.724,0,0,0,1.686.376,7.967,7.967,0,0,0,2.548-.336c.94-.264,1.937-.684,3.02-1.045a8.967,8.967,0,0,1,3.174-.551,6.872,6.872,0,0,1,4.086,1.5,4.049,4.049,0,0,1,.362.318C322.454,409.958,322.493,410,322.488,410.007Z" transform="translate(-306.924 -408.062)"/></g><g transform="translate(18.7 73.065)"><path class="c" d="M322.668,407.329a11.51,11.51,0,0,0-2.2-1.3,8.092,8.092,0,0,0-2.668-.642,8.65,8.65,0,0,0-3.3.582,29.773,29.773,0,0,1-3.262,1.065,8.305,8.305,0,0,1-2.811.005,6.338,6.338,0,0,1-1.806-.572,3.355,3.355,0,0,1-.438-.272c-.1-.071-.142-.11-.137-.117s.213.125.614.308a6.945,6.945,0,0,0,1.792.491,8.474,8.474,0,0,0,2.745-.053,32.819,32.819,0,0,0,3.228-1.075,8.607,8.607,0,0,1,3.39-.576,7.931,7.931,0,0,1,2.721.7,7.846,7.846,0,0,1,1.621.976,4.441,4.441,0,0,1,.389.336C322.631,407.278,322.673,407.323,322.668,407.329Z" transform="translate(-306.046 -405.163)"/></g><g transform="translate(15.046 69.139)"><path class="f" d="M325.394,399.828c0,.064-5.467.116-12.21.116s-12.211-.052-12.211-.116,5.466-.116,12.211-.116S325.394,399.764,325.394,399.828Z" transform="translate(-300.973 -399.712)"/></g></g><g transform="translate(54.494 301.982)"><g transform="translate(11.643 0)"><path class="p" d="M76.7,387.425c.874,1.249,2.574.836,3.361.073a6.348,6.348,0,0,0,1.424-2.92c.692-2.406,1.391-4.931.876-7.382a4.1,4.1,0,0,0-.943-2.007,2.142,2.142,0,0,0-2.031-.676,3.133,3.133,0,0,0-1.773,1.863,17.587,17.587,0,0,0-1.739,7.552,6.1,6.1,0,0,0,.825,3.5" transform="translate(-75.879 -374.459)"/></g><g transform="translate(14.029 18.585)"><path class="o" d="M80.905,400.965a7.577,7.577,0,0,1,4.7-.571,3.909,3.909,0,0,1,2.322,1.036,1.671,1.671,0,0,1,.024,2.318,2.224,2.224,0,0,1-1.464.372c-1.243-.015-2.621-.233-3.614.514-.566.426-.944,1.135-1.621,1.345a1.6,1.6,0,0,1-1.761-.784,2.736,2.736,0,0,1-.2-2.019A3.082,3.082,0,0,1,80.905,400.965Z" transform="translate(-79.191 -400.261)"/></g><g transform="translate(0 4.017)"><path class="n" d="M69.783,390.776a4.543,4.543,0,0,0,.707-4.181A8.059,8.059,0,0,0,68.014,383a13.331,13.331,0,0,0-4.434-2.616,4.722,4.722,0,0,0-1.994-.339,2.094,2.094,0,0,0-1.674,1.012,3.132,3.132,0,0,0,.465,2.85,33.7,33.7,0,0,0,2.912,4.435,7.878,7.878,0,0,0,3.2,2.744c1.33.509,2.713.449,3.418-.473" transform="translate(-59.715 -380.036)"/></g><g transform="translate(12.393 20.319)"><path class="f" d="M76.936,414.149a2.694,2.694,0,0,0,.079-.568c.04-.413.091-.931.151-1.548a22.181,22.181,0,0,1,.349-2.271,17.456,17.456,0,0,1,.825-2.68,9.857,9.857,0,0,1,1.369-2.425,5.1,5.1,0,0,1,1.73-1.438,4.83,4.83,0,0,1,1.457-.454,2.68,2.68,0,0,0,.565-.082,2.676,2.676,0,0,0-.575-.009,4.416,4.416,0,0,0-1.519.4,5.1,5.1,0,0,0-1.825,1.451,9.668,9.668,0,0,0-1.419,2.474,16.461,16.461,0,0,0-.82,2.724,19.371,19.371,0,0,0-.3,2.3c-.049.658-.068,1.19-.076,1.558A2.656,2.656,0,0,0,76.936,414.149Z" transform="translate(-76.92 -402.668)"/></g><g transform="translate(12.392 5.016)"><path class="f" d="M77.042,407.015a1.113,1.113,0,0,0,.016-.264l0-.753c0-.653,0-1.6.033-2.766.058-2.335.259-5.558.648-9.1s.909-6.731,1.382-9.018c.112-.573.225-1.089.331-1.541s.187-.844.27-1.159l.176-.732a1.077,1.077,0,0,0,.046-.26,1.115,1.115,0,0,0-.091.247c-.058.189-.13.429-.218.722-.1.313-.2.7-.31,1.151s-.243.964-.364,1.537a85.44,85.44,0,0,0-1.454,9.027c-.389,3.55-.564,6.782-.58,9.123-.014,1.17.012,2.118.041,2.771.019.306.034.555.046.753A1.126,1.126,0,0,0,77.042,407.015Z" transform="translate(-76.92 -381.423)"/></g><g transform="translate(4.191 6.923)"><path class="f" d="M73.873,401.521a5.018,5.018,0,0,0-.006-.787c-.029-.506-.1-1.236-.241-2.131a27.99,27.99,0,0,0-.693-3.1,27.431,27.431,0,0,0-1.3-3.673,19.556,19.556,0,0,0-3.812-5.935,9.64,9.64,0,0,0-.9-.834c-.138-.116-.259-.232-.383-.324l-.348-.24a5.014,5.014,0,0,0-.662-.423,23.361,23.361,0,0,1,2.17,1.936,20.619,20.619,0,0,1,3.717,5.914,29.346,29.346,0,0,1,1.305,3.639c.341,1.14.566,2.19.738,3.074s.256,1.608.313,2.109A5.1,5.1,0,0,0,73.873,401.521Z" transform="translate(-65.534 -384.07)"/></g></g><g transform="translate(127.633 119.648)"><path class="i" d="M176.061,121.329a1.319,1.319,0,0,1,.26-.006l.766.019a8.016,8.016,0,0,1,1.24.122c.243.038.509.063.787.12l.882.218a14.692,14.692,0,0,1,10.835,13.414,14.62,14.62,0,0,1-2.018,8.3,14.873,14.873,0,0,1-7.107,6.185,14.571,14.571,0,0,1-4.93,1.085,14.12,14.12,0,0,1-5.157-.642l-.153-.048h.121l-8.618,2.986-.351.122.11-.354,2.237-7.179.037.173a14.742,14.742,0,0,1-3.458-12.762,14.518,14.518,0,0,1,2.224-5.312,14.9,14.9,0,0,1,3.412-3.56,15.857,15.857,0,0,1,1.788-1.16,16.644,16.644,0,0,1,1.718-.779,11.714,11.714,0,0,1,1.551-.493,9.621,9.621,0,0,1,1.33-.279c.4-.053.758-.114,1.068-.14l.784-.025.478-.009a.636.636,0,0,1,.163.007.675.675,0,0,1-.162.023l-.477.04-.778.054c-.307.036-.658.106-1.057.168a9.756,9.756,0,0,0-1.311.3,11.666,11.666,0,0,0-1.526.513,16.561,16.561,0,0,0-1.685.792,15.76,15.76,0,0,0-1.75,1.163,14.768,14.768,0,0,0-3.325,3.531,14.312,14.312,0,0,0-2.146,5.223,14.45,14.45,0,0,0,3.428,12.464l.068.076-.03.1c-.712,2.3-1.454,4.7-2.222,7.184l-.24-.232,8.616-2.992.06-.02.062.019.149.047a13.775,13.775,0,0,0,5.025.627,14.2,14.2,0,0,0,4.806-1.052,14.539,14.539,0,0,0,6.947-6.018,14.566,14.566,0,0,0-4.379-19.453,14.588,14.588,0,0,0-4.176-1.938l-.869-.233c-.274-.063-.537-.093-.778-.137a8.662,8.662,0,0,0-1.228-.157l-.762-.058A1.365,1.365,0,0,1,176.061,121.329Z" transform="translate(-161.255 -121.322)"/><g transform="translate(6.141 9.087)"><path class="n" d="M169.781,140.578l2.267-2.268,4.373,3.887,8.584-8.26,2.106,2.268L176.1,146.571Z" transform="translate(-169.781 -133.938)"/></g></g></g></svg>