<svg xmlns="http://www.w3.org/2000/svg" width="231.315" height="210.867" viewBox="0 0 231.315 210.867"><defs><style>.a{fill:#f5f5f5;}.b{fill:#ebebeb;}.c{fill:#e0e0e0;}.d{fill:#263238;}.e{fill:#0a437d;}.f{fill:#75c6fa;}.g{fill:#2680eb;}.h{fill:#0894fe;}.i{fill:#0048cd;}.j{fill:#fff;}.k{fill:#455a64;}.l{fill:#f2f2f2;}.m{fill:#c4c9ce;}.n{opacity:0.5;}.o{fill:#e8505b;}.p{opacity:0.7;}.q{opacity:0.3;}.r{fill:#fafafa;}.s{opacity:0.2;}.t{fill:#eb996e;}</style></defs><g transform="translate(-27.804 -45.596)"><g transform="translate(44.143 45.637)"><g transform="translate(0 44.627)"><path class="a" d="M122.247,158.474a31.69,31.69,0,1,1-35.908-26.73A31.656,31.656,0,0,1,122.247,158.474Z" transform="translate(-59.194 -131.41)"/><g transform="translate(7.541 7.524)"><path class="b" d="M121.731,166.489a24.15,24.15,0,1,1-27.364-20.37A24.122,24.122,0,0,1,121.731,166.489Z" transform="translate(-73.681 -145.865)"/></g><g transform="translate(7.103 6.607)"><path class="c" d="M121.214,164.9a14.286,14.286,0,0,1-1.049-2.782,25.622,25.622,0,0,0-3.821-6.924,24.734,24.734,0,0,0-3.8-3.883,24.193,24.193,0,0,0-5.277-3.262,23.69,23.69,0,0,0-6.565-1.89,23.445,23.445,0,0,0-3.612-.211,23.592,23.592,0,0,0-7.317,1.3,23.539,23.539,0,0,0-3.32,1.441,23.648,23.648,0,0,0-5.514,4.035,24.174,24.174,0,0,0-3.831,4.88,24.742,24.742,0,0,0-2.226,4.952,25.641,25.641,0,0,0-1.2,7.815c0,1.889.118,2.948-.027,2.972-.106.021-.467-1-.693-2.934a22.351,22.351,0,0,1,.665-8.22,24.186,24.186,0,0,1,6.1-10.665,23.355,23.355,0,0,1,2.7-2.386A23.661,23.661,0,0,1,85.6,147.09a24.627,24.627,0,0,1,3.571-1.582,24.737,24.737,0,0,1,7.893-1.4,24.631,24.631,0,0,1,3.9.257,24.636,24.636,0,0,1,7.032,2.139,24.2,24.2,0,0,1,9.4,7.911,22.358,22.358,0,0,1,3.457,7.489C121.308,163.8,121.32,164.879,121.214,164.9Z" transform="translate(-72.84 -144.103)"/></g><g transform="translate(20.963 14.776)"><path class="c" d="M114.972,190.5l.665,4.154-3.709.592-.647-4.042c-3.707.365-7.414-.22-9.709-1.488l1.314-4.851a15.175,15.175,0,0,0,7.617,1.481l-.992-6.194c-4.277-.341-9.1-.977-9.944-6.281-.629-3.931,1.686-7.763,7.438-9.368l-.659-4.117,3.709-.594.648,4.043a16.982,16.982,0,0,1,7.89,1.056l-1.123,4.859a15.393,15.393,0,0,0-5.984-1.021l1.01,6.306c4.27.3,9.015.953,9.852,6.181C122.966,185.078,120.682,188.867,114.972,190.5Zm-6.333-15.8-.844-5.266c-1.894.759-2.5,1.96-2.3,3.184C105.7,173.921,106.924,174.448,108.639,174.705Zm7.81,7.917c-.208-1.3-1.4-1.83-3.08-2.133l.819,5.118C115.978,184.9,116.639,183.809,116.45,182.622Z" transform="translate(-99.467 -159.796)"/></g></g><g transform="translate(135.41 32.144)"><g transform="translate(0)"><path class="a" d="M362.05,118.482a23.029,23.029,0,1,1-31.6-7.709A23,23,0,0,1,362.05,118.482Z" transform="translate(-319.338 -107.427)"/><g transform="translate(5.477 5.471)"><path class="b" d="M362.41,126.363a17.55,17.55,0,1,1-24.085-5.876A17.53,17.53,0,0,1,362.41,126.363Z" transform="translate(-329.861 -117.938)"/></g><g transform="translate(4.963 4.848)"><path class="c" d="M361.647,125.321c-.089.059-.552-.561-1.49-1.564a18.635,18.635,0,0,0-4.52-3.55,17.994,17.994,0,0,0-3.64-1.523,17.565,17.565,0,0,0-4.456-.687,17.226,17.226,0,0,0-4.929.6,17.028,17.028,0,0,0-2.477.883,17.126,17.126,0,0,0-4.528,2.942,17.044,17.044,0,0,0-1.813,1.905,17.218,17.218,0,0,0-2.546,4.263,17.57,17.57,0,0,0-1.18,4.351,17.973,17.973,0,0,0-.086,3.945,18.634,18.634,0,0,0,1.411,5.57,10.281,10.281,0,0,1,.824,2c-.065.044-.595-.536-1.3-1.767a16.236,16.236,0,0,1-1.885-5.689,17.583,17.583,0,0,1,1.062-8.867,17.027,17.027,0,0,1,1.132-2.363,17.225,17.225,0,0,1,1.539-2.264,17.863,17.863,0,0,1,1.941-2.071,17.979,17.979,0,0,1,4.885-3.174,17.979,17.979,0,0,1,2.68-.933,17.918,17.918,0,0,1,5.311-.561,17.592,17.592,0,0,1,8.535,2.628,16.251,16.251,0,0,1,4.435,4.032A5.147,5.147,0,0,1,361.647,125.321Z" transform="translate(-328.872 -116.741)"/></g></g><g transform="translate(14.284 11.761)"><path class="c" d="M362.638,149.176l1.623,2.591-2.314,1.448-1.579-2.521a12.929,12.929,0,0,1-6.918,1.756l-.5-3.619a11.033,11.033,0,0,0,5.516-1.168l-2.419-3.864c-2.959.984-6.363,1.924-8.434-1.385-1.535-2.452-1.072-5.673,2.322-8.377l-1.608-2.569,2.314-1.449,1.579,2.522a12.342,12.342,0,0,1,5.579-1.53l.626,3.57a11.2,11.2,0,0,0-4.294,1.012l2.463,3.934c2.944-1.007,6.3-1.918,8.345,1.344C366.45,143.28,365.995,146.463,362.638,149.176Zm-8.715-8.777-2.057-3.284c-1.052,1.045-1.118,2.021-.64,2.784C351.733,140.708,352.7,140.714,353.923,140.4Zm7.471,3.084c-.508-.81-1.453-.829-2.666-.554l2,3.193C361.724,145.144,361.857,144.224,361.394,143.483Z" transform="translate(-346.78 -130.021)"/></g></g><g transform="translate(128.946)"><path class="a" d="M325.085,67.557a11.858,11.858,0,1,1,3.682-16.341A11.845,11.845,0,0,1,325.085,67.557Z" transform="translate(-306.92 -45.674)"/><g transform="translate(2.817 2.82)"><path class="b" d="M326.175,67.768a9.037,9.037,0,1,1,2.807-12.453A9.027,9.027,0,0,1,326.175,67.768Z" transform="translate(-312.332 -51.092)"/></g><g transform="translate(6.783 2.552)"><path class="c" d="M330.067,67.368c-.031-.045.284-.289.792-.782a9.6,9.6,0,0,0,1.787-2.359,9.232,9.232,0,0,0,.751-1.888,9.032,9.032,0,0,0,.313-2.3,8.848,8.848,0,0,0-.351-2.532,8.77,8.77,0,0,0-.477-1.267,8.832,8.832,0,0,0-1.556-2.3,8.8,8.8,0,0,0-1-.916,8.857,8.857,0,0,0-2.217-1.272,9.04,9.04,0,0,0-2.251-.568,9.287,9.287,0,0,0-2.032-.008,9.592,9.592,0,0,0-2.855.777,5.278,5.278,0,0,1-1.021.443c-.023-.033.271-.311.9-.683a8.36,8.36,0,0,1,2.912-1.022,9.046,9.046,0,0,1,4.574.466,8.684,8.684,0,0,1,1.226.561,8.8,8.8,0,0,1,1.179.771,9.205,9.205,0,0,1,1.084.981,9.9,9.9,0,0,1,.941,1.174,10.027,10.027,0,0,1,.738,1.311,9.254,9.254,0,0,1,.5,1.372,8.809,8.809,0,0,1,.275,1.382,8.693,8.693,0,0,1,.062,1.348,9.049,9.049,0,0,1-1.276,4.418,8.365,8.365,0,0,1-2.035,2.32A2.651,2.651,0,0,1,330.067,67.368Z" transform="translate(-319.951 -50.577)"/></g><g transform="translate(5.74 7.339)"><path class="c" d="M320.034,68.026l-1.319.859-.767-1.178,1.284-.835a6.66,6.66,0,0,1-.967-3.546l1.859-.288a5.682,5.682,0,0,0,.651,2.83l1.967-1.28c-.534-1.514-1.048-3.258.637-4.355,1.249-.813,2.911-.6,4.334,1.12l1.308-.851.767,1.178-1.284.836a6.353,6.353,0,0,1,.838,2.858l-1.832.354a5.763,5.763,0,0,0-.56-2.2l-2,1.3c.545,1.506,1.045,3.228-.616,4.308C323.1,69.935,321.462,69.73,320.034,68.026Zm4.44-4.567,1.672-1.089c-.548-.532-1.05-.557-1.439-.3C324.295,62.335,324.3,62.834,324.474,63.46Zm-1.52,3.874c.413-.269.414-.755.261-1.377l-1.626,1.058C322.1,67.519,322.576,67.579,322.953,67.334Z" transform="translate(-317.948 -59.774)"/></g></g></g><g transform="translate(27.804 256.192)"><path class="d" d="M259.119,450.318c0,.075-51.786.136-115.652.136-63.889,0-115.663-.061-115.663-.136s51.775-.135,115.663-.135C207.333,450.183,259.119,450.244,259.119,450.318Z" transform="translate(-27.804 -450.183)"/></g><g transform="translate(34.943 148.805)"><g transform="translate(0 45.775)"><path class="e" d="M65.327,377.582c.588-2.277-.905-4.562-2.579-6.215s-3.674-3.131-4.545-5.316c-1.411-3.538.486-8.121-1.921-11.073-1.416-1.736-3.955-2.318-5.211-4.173a9.494,9.494,0,0,1-1.132-3.316,33.682,33.682,0,0,0-8.376-15.673,29.22,29.22,0,0,0,3.286,15.105c.975,1.857,2.172,3.666,2.495,5.738.524,3.364-1.353,6.829-.527,10.132.945,3.777,5.188,6.306,5.389,10.194.17,3.288-2.7,6.173-2.482,9.458a8.875,8.875,0,0,0,1.463,3.9c2.542,4.226,6.276,7.136,11.936,7.042l6.932.243Z" transform="translate(-41.52 -331.816)"/></g><g transform="translate(6.116)"><g transform="translate(20.31 21.733)"><path class="d" d="M95.8,371.434a5.527,5.527,0,0,0,1.909-.041,11.6,11.6,0,0,0,2.253-.567,9.558,9.558,0,0,0,2.782-1.524,3.877,3.877,0,0,0,1.145-1.525,7.181,7.181,0,0,0,.326-2.071,20.082,20.082,0,0,1,.161-2.242,6.181,6.181,0,0,1,.847-2.229c.817-1.436,2.174-2.8,2.613-4.745a15.72,15.72,0,0,0-.188-6.077,12.887,12.887,0,0,1,.162-6.512c.743-2.168,2.264-4.126,3.024-6.569.757-2.469.4-5.124.564-7.743a10.27,10.27,0,0,1,.9-3.849c.561-1.227,1.339-2.384,1.946-3.676,1.231-2.612,1.448-5.572,1.784-8.473q.246-2.192.5-4.43a21.712,21.712,0,0,1,.77-4.433,39.129,39.129,0,0,1,1.658-4.29,14.278,14.278,0,0,0,.8-2.241,22.594,22.594,0,0,0,.224-2.384,28.131,28.131,0,0,0-.185-4.8c-.188-1.6-.477-3.186-.649-4.789-.01-.094-.021-.189-.031-.276l-.036-.319-.284.142a10.718,10.718,0,0,0-3.732,3.149,17,17,0,0,0-2.293,4.226,52.017,52.017,0,0,0-2.159,9.078,24.665,24.665,0,0,1-2.849,8.384c-.759,1.235-1.679,2.362-2.483,3.566a9.8,9.8,0,0,0-1.72,3.951c-.41,2.933,1.206,5.508.869,8.105a8.992,8.992,0,0,1-1.265,3.6c-.629,1.108-1.369,2.135-2.071,3.167a20.349,20.349,0,0,0-1.861,3.2,10.126,10.126,0,0,0-.852,3.476c-.169,2.338.162,4.556-.008,6.649a15.312,15.312,0,0,1-1.711,5.7c-.839,1.705-1.771,3.248-2.553,4.743a24.454,24.454,0,0,0-1.051,2.209,10.912,10.912,0,0,0-.608,2.191,13.84,13.84,0,0,0-.051,3.957,9.973,9.973,0,0,0,1.983,5.046,4.826,4.826,0,0,0,.561.607,2.808,2.808,0,0,0,.455.387c.259.191.4.277.4.277a8.741,8.741,0,0,1-1.342-1.327,10.039,10.039,0,0,1-1.882-5.012,13.735,13.735,0,0,1,.088-3.9,10.654,10.654,0,0,1,.613-2.14,24.194,24.194,0,0,1,1.057-2.18c.788-1.482,1.73-3.018,2.586-4.735a15.555,15.555,0,0,0,1.771-5.8c.182-2.138-.14-4.364.037-6.647a9.788,9.788,0,0,1,.835-3.358,20.041,20.041,0,0,1,1.84-3.135c.7-1.025,1.45-2.057,2.1-3.187a9.369,9.369,0,0,0,1.323-3.745c.334-2.766-1.27-5.359-.853-8.085a9.4,9.4,0,0,1,1.662-3.779c.791-1.182,1.716-2.31,2.5-3.576a25.036,25.036,0,0,0,2.914-8.524,51.839,51.839,0,0,1,2.144-9,16.575,16.575,0,0,1,2.233-4.115A10.271,10.271,0,0,1,119,286.17l-.32-.177.032.28c.174,1.622.464,3.212.65,4.793a27.614,27.614,0,0,1,.184,4.725,22.574,22.574,0,0,1-.213,2.313,13.985,13.985,0,0,1-.778,2.161,39.348,39.348,0,0,0-1.671,4.337,22.1,22.1,0,0,0-.78,4.507l-.492,4.433c-.331,2.913-.549,5.826-1.733,8.347-.586,1.255-1.362,2.416-1.939,3.683a10.669,10.669,0,0,0-.929,3.991c-.151,2.675.2,5.291-.527,7.661s-2.231,4.326-3,6.563a13.2,13.2,0,0,0-.148,6.674,15.5,15.5,0,0,1,.224,5.962c-.4,1.862-1.719,3.209-2.553,4.686a6.421,6.421,0,0,0-.86,2.318A20.083,20.083,0,0,0,104,365.7a7.021,7.021,0,0,1-.3,2.015,3.714,3.714,0,0,1-1.075,1.459,9.51,9.51,0,0,1-2.716,1.531,11.94,11.94,0,0,1-2.221.6,8.835,8.835,0,0,1-1.41.136C95.968,371.428,95.8,371.434,95.8,371.434Z" transform="translate(-92.289 -285.628)"/><g transform="translate(3.511 4.137)"><path class="d" d="M120.942,293.575a.793.793,0,0,0-.067.209l-.153.624c-.136.546-.3,1.371-.561,2.4s-.9,2.188-1.439,3.621c-.559,1.421-1.126,3.067-1.647,4.917s-1,3.9-1.488,6.1a25.692,25.692,0,0,1-2.219,6.77c-.568,1.126-1.208,2.266-1.716,3.513a16.383,16.383,0,0,0-1,3.978,80.243,80.243,0,0,1-1.494,8.387c-1.39,5.681-2.714,11.092-3.92,16.018l-3.285,13.065L99.777,372q-.361,1.525-.57,2.4c-.055.254-.1.461-.137.627a.824.824,0,0,0-.032.218.8.8,0,0,0,.076-.206l.181-.617c.158-.579.375-1.375.651-2.382.556-2.11,1.345-5.1,2.315-8.782l3.378-13.041c1.217-4.928,2.554-10.34,3.956-16.023a79.255,79.255,0,0,0,1.492-8.422,16,16,0,0,1,.961-3.882c.49-1.215,1.12-2.349,1.688-3.487a25.85,25.85,0,0,0,2.213-6.875c.475-2.2.923-4.252,1.43-6.1s1.043-3.49,1.577-4.912c.51-1.427,1.119-2.6,1.374-3.664s.372-1.871.481-2.427c.045-.257.081-.465.11-.633A.833.833,0,0,0,120.942,293.575Z" transform="translate(-99.035 -293.575)"/></g></g><path class="f" d="M78.319,351.461c4.528-2.692,5.826-10.658,3.938-15.575s-5.2-9.41-5.7-14.653c-.392-4.03.928-8.166-.011-12.106-1.266-5.316-6.457-9.433-6.4-14.9.033-3.066,1.778-5.951,1.639-9.014-.171-3.757-3.054-6.738-4.84-10.048-2.734-5.066-2.914-11.056-3.849-16.736s-3.1-11.763-8.134-14.555c-.744,4.823-2.013,8.125-1.614,14.659.143,2.346,2.869,6.838,3.24,11.98.221,3.074.375,6.151.563,9.227a29.58,29.58,0,0,0,1.45,8.841c.822,2.146,2.143,4.1,2.754,6.311,1.148,4.168-.361,8.682.567,12.9.785,3.578,3.262,6.656,3.768,10.284.711,5.1-2.588,10.393-.9,15.255.838,2.412,2.822,4.349,3.385,6.841.437,1.933-.04,3.978.356,5.92.638,3.128,6.6,5.557,9.79,5.364" transform="translate(-53.27 -243.876)"/><g transform="translate(2.935 4.787)"><path class="d" d="M58.911,253.073a1.289,1.289,0,0,0,.02.272c.026.2.06.464.1.793.1.7.221,1.719.456,3.041.253,1.33.938,2.827,1.486,4.632.578,1.8,1.152,3.876,1.66,6.2s.949,4.895,1.4,7.663a32.123,32.123,0,0,0,2.321,8.664c.636,1.448,1.348,2.9,1.883,4.44a19.949,19.949,0,0,1,.955,4.893,98.705,98.705,0,0,0,1.328,10.548c1.387,7.146,2.708,13.951,3.91,20.146l3.37,16.409,2.31,11.055c.277,1.28.5,2.286.65,3,.074.322.134.579.18.778a1.235,1.235,0,0,0,.076.262,1.2,1.2,0,0,0-.032-.271c-.035-.2-.08-.461-.136-.787l-.568-3.017-2.171-11.083c-.935-4.685-2.045-10.251-3.277-16.428-1.191-6.193-2.5-13-3.874-20.14a99.972,99.972,0,0,1-1.333-10.514,20.274,20.274,0,0,0-.987-4.991c-.551-1.576-1.274-3.031-1.909-4.467a31.984,31.984,0,0,1-2.333-8.559c-.469-2.763-.921-5.342-1.46-7.669s-1.128-4.41-1.731-6.209c-.575-1.811-1.281-3.3-1.553-4.592s-.4-2.331-.537-3.019c-.06-.326-.108-.585-.146-.785A1.2,1.2,0,0,0,58.911,253.073Z" transform="translate(-58.909 -253.073)"/></g></g><g transform="translate(195.045 76.537)"><g transform="translate(7.56)"><path class="g" d="M434.522,390.942a5.794,5.794,0,0,1,3,3.4,10.237,10.237,0,0,1,.4,4.608,18.049,18.049,0,0,1-3.867,8.4c-2.518-2.2-3.1-6.03-3.269-7.993-.272-3.1,1.122-8.875,3.734-8.413" transform="translate(-430.755 -390.916)"/></g><g transform="translate(13.675 15.134)"><path class="h" d="M442.617,426.223a4.943,4.943,0,0,1,1.6-4.7,6.564,6.564,0,0,1,4.842-1.513,2.764,2.764,0,0,1,2.125.955,2.114,2.114,0,0,1,.032,2.142,4.288,4.288,0,0,1-1.586,1.562c-2.181,1.369-4.544,2.293-7.011,1.553" transform="translate(-442.503 -419.991)"/></g><g transform="translate(10.556 18.086)"><path class="d" d="M436.515,438.111a3.489,3.489,0,0,1,.09-.614c.08-.432.182-.99.3-1.66a17.354,17.354,0,0,1,1.714-5.3,10.617,10.617,0,0,1,3.807-4.045,7.165,7.165,0,0,1,1.552-.687,4.278,4.278,0,0,1,.447-.113.452.452,0,0,1,.16-.022,11.224,11.224,0,0,0-2.079.955,10.958,10.958,0,0,0-3.7,4.019,18.671,18.671,0,0,0-1.753,5.23c-.152.7-.276,1.26-.373,1.647A3.27,3.27,0,0,1,436.515,438.111Z" transform="translate(-436.511 -425.662)"/></g><g transform="translate(10.529 4.516)"><path class="d" d="M436.584,399.591a1.207,1.207,0,0,1,.031.268c.012.2.027.454.046.771.036.669.075,1.639.114,2.836.078,2.4.138,5.707.123,9.365s-.106,6.97-.2,9.365c-.049,1.2-.1,2.166-.138,2.835-.021.316-.039.571-.052.77a1.29,1.29,0,0,1-.033.268,1.244,1.244,0,0,1-.011-.27c0-.2.007-.455.011-.772.017-.7.041-1.659.069-2.837.059-2.395.124-5.7.14-9.361s-.021-6.965-.059-9.36c-.019-1.177-.034-2.14-.045-2.837,0-.317,0-.573,0-.772A1.3,1.3,0,0,1,436.584,399.591Z" transform="translate(-436.459 -399.591)"/></g><g transform="translate(0 14.302)"><path class="f" d="M425.664,427.278a11.564,11.564,0,0,0-6.314-8.471c-.842-.4-1.94-.666-2.632-.04a2.394,2.394,0,0,0-.2,2.622,9.879,9.879,0,0,0,9.085,6.134" transform="translate(-416.231 -418.393)"/></g><g transform="translate(3.525 17.551)"><path class="d" d="M423,424.636a2.954,2.954,0,0,1,.535.233,5.72,5.72,0,0,1,.6.322c.226.142.5.28.768.483a10,10,0,0,1,.879.662,11.346,11.346,0,0,1,.936.85,12.85,12.85,0,0,1,1.778,2.285,12.593,12.593,0,0,1,1.172,2.648,10.982,10.982,0,0,1,.3,1.23,9.22,9.22,0,0,1,.151,1.09,8.633,8.633,0,0,1,.042.907,5.255,5.255,0,0,1-.02.683,3.027,3.027,0,0,1-.065.579c-.049,0,.036-.831-.11-2.154a10.036,10.036,0,0,0-.175-1.071,11.484,11.484,0,0,0-.31-1.206,13.087,13.087,0,0,0-1.166-2.6,13.382,13.382,0,0,0-1.735-2.256,12.073,12.073,0,0,0-.908-.852c-.289-.264-.586-.474-.852-.674C423.741,425.023,422.983,424.678,423,424.636Z" transform="translate(-423.004 -424.634)"/></g></g></g><g transform="translate(71.475 45.596)"><g transform="translate(1.909 71.09)"><path class="i" d="M246.432,207.7s-24.3-17.223-27.381-18.917c-2.932-1.613-12.23-2.785-13.066-2.988l-16.651-3.62-25.441.76-7.3,4.388-18.465,8.5a21.891,21.891,0,0,0-11.1,11.586l-11.662,28.478,28.935,8.558.9,30.039-6.825,47.326h84.7l-4.261-90.7,8.817,1.941Z" transform="translate(-115.369 -182.171)"/><g transform="translate(4.356 44.358)"><path class="j" d="M148.854,273.208s-.3.224-.895.567a7.386,7.386,0,0,1-2.7.99,10.081,10.081,0,0,1-4.223-.612,30.455,30.455,0,0,1-4.81-2.091c-1.651-.859-3.195-1.73-4.645-2.43a25.748,25.748,0,0,0-3.965-1.584,15.384,15.384,0,0,0-2.819-.574c-.339-.035-.6-.053-.782-.059s-.273-.02-.273-.02a7.991,7.991,0,0,1,1.058.038,14.615,14.615,0,0,1,2.837.542,25.148,25.148,0,0,1,3.987,1.568c1.456.7,3,1.566,4.651,2.424a30.989,30.989,0,0,0,4.791,2.093,10.107,10.107,0,0,0,4.182.631,7.512,7.512,0,0,0,2.693-.951c.3-.166.526-.3.678-.394S148.854,273.208,148.854,273.208Z" transform="translate(-123.738 -267.389)"/></g><g transform="translate(9.867 31.918)"><path class="j" d="M152.7,247.718s-.067,0-.193,0l-.552-.026c-.479-.023-1.171-.075-2.024-.16a53.231,53.231,0,0,1-13.031-3c-.8-.3-1.45-.552-1.891-.741l-.508-.217c-.116-.051-.174-.083-.174-.083s.064.018.182.062l.515.2c.446.177,1.095.421,1.9.708a57.449,57.449,0,0,0,13.012,2.994c.851.094,1.542.159,2.02.194l.55.046C152.631,247.706,152.7,247.718,152.7,247.718Z" transform="translate(-134.325 -243.491)"/></g><g transform="translate(20.525 6.609)"><path class="j" d="M180.715,194.867a10.908,10.908,0,0,1-.675.949,13.264,13.264,0,0,1-2.257,2.229,19.972,19.972,0,0,1-4.037,2.416,41.07,41.07,0,0,1-5.416,1.976c-1.961.58-3.84,1.1-5.521,1.65a32.23,32.23,0,0,0-4.361,1.741,19.236,19.236,0,0,0-2.717,1.621c-.311.209-.528.4-.688.518s-.242.179-.242.179.306-.28.905-.731a18.259,18.259,0,0,1,2.708-1.656,31.512,31.512,0,0,1,4.364-1.767c1.683-.56,3.562-1.079,5.522-1.659a41.84,41.84,0,0,0,5.4-1.963,20.25,20.25,0,0,0,4.032-2.386,13.781,13.781,0,0,0,2.271-2.2c.248-.28.4-.53.524-.684S180.715,194.867,180.715,194.867Z" transform="translate(-154.801 -194.867)"/></g><g transform="translate(74.522 5.514)"><path class="j" d="M282.533,197.74s-.078-.039-.22-.12-.347-.211-.626-.351a15.943,15.943,0,0,0-2.418-1.047,26.82,26.82,0,0,0-3.786-.972c-1.448-.276-3.055-.49-4.74-.726l-8.634-1.223-2.615-.383-.71-.109c-.162-.026-.247-.045-.247-.045s.086,0,.25.023l.713.09,2.62.349,8.638,1.19c1.685.236,3.294.453,4.745.736a26.035,26.035,0,0,1,3.793,1,14.964,14.964,0,0,1,2.412,1.083C282.251,197.538,282.533,197.74,282.533,197.74Z" transform="translate(-258.537 -192.764)"/></g><g transform="translate(28.076 16.236)"><path class="j" d="M227.952,213.362s-.193.09-.564.253-.921.4-1.635.684c-1.431.567-3.521,1.35-6.164,2.124a67.3,67.3,0,0,1-9.44,2.084,65.5,65.5,0,0,1-11.824.415c-4.2-.137-8.2-.32-11.832-.091a36.51,36.51,0,0,0-9.472,1.729,23.435,23.435,0,0,0-5.826,2.857c-.623.45-1.1.8-1.407,1.073s-.48.39-.48.39.158-.143.466-.407.777-.634,1.4-1.091a23.133,23.133,0,0,1,5.826-2.9,36.332,36.332,0,0,1,9.491-1.756c3.639-.234,7.646-.054,11.842.082a65.9,65.9,0,0,0,11.807-.4,68.107,68.107,0,0,0,9.432-2.059c2.644-.763,4.736-1.534,6.17-2.089.717-.28,1.27-.506,1.642-.666S227.952,213.362,227.952,213.362Z" transform="translate(-169.307 -213.362)"/></g><g transform="translate(84.926 21.326)"><path class="j" d="M288.306,223.143a.36.36,0,0,1-.093.042l-.274.1c-.237.089-.588.2-1.023.327a13.609,13.609,0,0,1-3.5.536,12.161,12.161,0,0,1-3.507-.5c-.435-.132-.783-.25-1.018-.346l-.271-.109a.375.375,0,0,1-.092-.045.357.357,0,0,1,.1.024l.278.09c.239.083.589.19,1.024.312a12.946,12.946,0,0,0,3.485.469,14.666,14.666,0,0,0,3.483-.5c.437-.117.789-.217,1.031-.294l.28-.082A.368.368,0,0,1,288.306,223.143Z" transform="translate(-278.525 -223.142)"/></g><g transform="translate(32.936 36.054)"><path class="j" d="M223.995,251.436s-2.5.527-6.575,1.135c-2.038.307-4.475.612-7.187.882s-5.7.473-8.847.593-6.144.109-8.869.05-5.178-.2-7.233-.358c-4.112-.311-6.639-.656-6.639-.656s.159.01.461.039l1.321.131c1.146.121,2.807.265,4.862.411s4.506.268,7.23.335,5.719.051,8.862-.058,6.129-.333,8.842-.584,5.147-.561,7.186-.858,3.686-.558,4.821-.763l1.308-.225C223.837,251.457,223.995,251.436,223.995,251.436Z" transform="translate(-178.645 -251.436)"/></g><g transform="translate(80.155 32.925)"><path class="j" d="M287.876,247.077s-.065.008-.189.013l-.543.016c-.471.013-1.154.02-2,.018-1.686,0-4.018-.066-6.582-.286s-4.873-.567-6.533-.867c-.83-.15-1.5-.282-1.96-.383l-.53-.116c-.121-.028-.183-.048-.183-.048s.066.006.188.027l.534.1,1.965.348c1.662.28,3.967.612,6.529.834s4.889.293,6.574.316l2,.017.543,0C287.811,247.07,287.876,247.077,287.876,247.077Z" transform="translate(-269.359 -245.425)"/></g><g transform="translate(30.244 55.119)"><path class="j" d="M215.9,288.979s-.146.027-.427.067l-1.228.171c-.533.077-1.185.167-1.949.216s-1.629.16-2.591.175c-.962.033-2.015.086-3.148.067-.566,0-1.151,0-1.754-.01l-1.858-.061c-2.543-.1-5.335-.3-8.259-.551s-5.712-.5-8.25-.669-4.827-.264-6.75-.237l-1.372.009-1.222.06c-.763.032-1.421.067-1.954.134l-1.233.122c-.282.027-.431.035-.431.035s.147-.023.428-.057l1.231-.143c.534-.074,1.191-.114,1.955-.152l1.223-.069,1.373-.017c1.925-.037,4.217.061,6.757.213s5.326.415,8.252.661,5.713.451,8.253.56l1.857.066c.6.016,1.187.009,1.752.016,1.131.023,2.183-.025,3.144-.054.962-.011,1.828-.113,2.59-.159s1.416-.127,1.949-.2l1.23-.15C215.748,288.991,215.9,288.979,215.9,288.979Z" transform="translate(-173.473 -288.063)"/></g><g transform="translate(80.497 49.325)"><path class="j" d="M292.833,277.532s-.079.015-.231.032l-.663.071c-.576.061-1.411.131-2.444.2-2.066.142-4.929.243-8.089.162s-6.016-.337-8.071-.587c-1.029-.124-1.859-.238-2.43-.329l-.658-.106c-.15-.025-.229-.044-.229-.044s.08,0,.232.022l.661.085c.574.079,1.4.181,2.433.3,2.057.23,4.908.47,8.065.554s6.016-.008,8.082-.13c1.033-.06,1.869-.119,2.445-.167l.665-.05C292.752,277.532,292.833,277.532,292.833,277.532Z" transform="translate(-270.017 -276.932)"/></g><g transform="translate(29.472 68.531)"><path class="j" d="M246.2,314.139s-.262-.011-.76-.045-1.232-.1-2.179-.13c-1.893-.1-4.64-.119-8.025.049s-7.405.566-11.849,1.152-9.315,1.34-14.448,2a125.872,125.872,0,0,1-14.545,1.107,66.806,66.806,0,0,1-11.873-.861,47.461,47.461,0,0,1-7.782-1.963c-.453-.142-.846-.293-1.184-.431l-.859-.34c-.464-.184-.706-.286-.706-.286s.247.088.714.266l.863.329c.339.134.733.283,1.187.421a48.387,48.387,0,0,0,7.781,1.928,67.344,67.344,0,0,0,11.86.836,127.179,127.179,0,0,0,14.532-1.115c5.13-.661,10-1.419,14.449-1.994s8.469-.977,11.858-1.129a79.687,79.687,0,0,1,8.031-.015C245.155,314.027,246.2,314.139,246.2,314.139Z" transform="translate(-171.989 -313.83)"/></g><g transform="translate(29.914 87.951)"><path class="j" d="M217.984,351.461s-2.5.427-6.583.863c-2.039.222-4.474.421-7.182.576-2.708.14-5.69.227-8.82.21s-6.112-.158-8.819-.336-5.138-.427-7.173-.678c-4.073-.495-6.569-.957-6.569-.957s.158.017.456.059l1.307.191c.567.087,1.261.189,2.069.289s1.726.236,2.746.341c2.036.242,4.467.467,7.171.655,2.706.173,5.684.3,8.813.327s6.107-.068,8.814-.2c2.706-.149,5.141-.34,7.18-.552,1.021-.091,1.941-.211,2.75-.3s1.5-.181,2.073-.259l1.309-.172C217.826,351.475,217.984,351.461,217.984,351.461Z" transform="translate(-172.838 -351.138)"/></g><g transform="translate(75.214 84.547)"><path class="j" d="M288.021,344.6s-.094.035-.277.092l-.8.242c-.694.21-1.705.5-2.959.831-2.506.672-6,1.5-9.893,2.221s-7.457,1.172-10.039,1.433c-1.291.131-2.337.223-3.061.273l-.833.057c-.191.012-.291.013-.291.013s.1-.016.289-.034l.832-.078c.723-.063,1.768-.166,3.057-.307,2.579-.28,6.133-.752,10.028-1.464s7.383-1.536,9.893-2.189c1.255-.325,2.269-.6,2.967-.8l.805-.222C287.923,344.62,288.021,344.6,288.021,344.6Z" transform="translate(-259.867 -344.599)"/></g><g transform="translate(28.199 105.457)"><path class="j" d="M196.548,389.29a37.881,37.881,0,0,1-4.051.4c-1.257.071-2.757.076-4.419.005a45.773,45.773,0,0,1-10.657-1.784c-1.6-.474-3.012-.968-4.177-1.444a37.766,37.766,0,0,1-3.7-1.7s.091.035.259.112l.734.341c.317.152.707.333,1.168.524s.978.43,1.567.646c1.166.466,2.583.951,4.177,1.419a46.874,46.874,0,0,0,10.634,1.78c1.658.077,3.156.079,4.41.018.628-.012,1.195-.068,1.692-.1s.926-.074,1.275-.115l.805-.083C196.451,389.294,196.548,389.29,196.548,389.29Z" transform="translate(-169.544 -384.77)"/></g><g transform="translate(53.832 108.649)"><path class="j" d="M270.234,390.9s-.177.035-.517.091l-1.488.239c-1.292.208-3.165.489-5.482.82-4.633.663-11.049,1.483-18.155,2.19s-13.562,1.158-18.235,1.418c-2.337.131-4.228.222-5.536.273l-1.506.058c-.344.012-.525.013-.525.013s.181-.016.525-.035l1.5-.078,5.533-.307c4.672-.279,11.121-.746,18.229-1.45s13.52-1.514,18.156-2.158l5.486-.786,1.491-.219C270.054,390.923,270.234,390.9,270.234,390.9Z" transform="translate(-218.789 -390.903)"/></g><g transform="translate(25.395 126.114)"><path class="j" d="M246.767,426.161s-1.138.237-3.213.577-5.089.759-8.835,1.07a115.237,115.237,0,0,1-13.194.323c-4.969-.16-10.41-.714-16.1-1.412s-11.111-1.4-16.064-1.789a103.417,103.417,0,0,0-13.182-.293,65.949,65.949,0,0,0-8.831,1.009c-1.032.2-1.83.364-2.367.5s-.823.182-.823.182.281-.073.819-.2,1.333-.311,2.364-.516a64.349,64.349,0,0,1,8.835-1.045,102.454,102.454,0,0,1,13.195.27c4.956.382,10.378,1.085,16.069,1.781s11.126,1.255,16.09,1.42a116.656,116.656,0,0,0,13.184-.3c3.745-.3,6.759-.712,8.835-1.035,1.037-.166,1.842-.3,2.387-.4S246.767,426.161,246.767,426.161Z" transform="translate(-164.157 -424.455)"/></g><g transform="translate(106.941 20.866)"><g transform="translate(0)"><path class="j" d="M337.152,222.257s-.151.413-.489,1.132a20.834,20.834,0,0,1-1.7,2.9,37.612,37.612,0,0,1-3.134,3.88c-1.259,1.394-2.706,2.865-4.176,4.454a38.085,38.085,0,0,0-3.8,4.762,19.906,19.906,0,0,0-2.237,4.429,13.694,13.694,0,0,0-.721,3.267c-.054.393-.036.7-.054.91s-.019.319-.019.319a11.252,11.252,0,0,1,.031-1.233,13.285,13.285,0,0,1,.691-3.288,19.686,19.686,0,0,1,2.225-4.458,37.576,37.576,0,0,1,3.8-4.78c1.471-1.591,2.921-3.059,4.182-4.447a38.584,38.584,0,0,0,3.144-3.857,21.914,21.914,0,0,0,1.725-2.876c.187-.35.3-.639.388-.826S337.152,222.257,337.152,222.257Z" transform="translate(-320.819 -222.257)"/></g></g><g transform="translate(99.299 13.712)"><path class="j" d="M306.138,224.636s.059-.047.177-.129l.518-.352c.454-.3,1.095-.758,1.866-1.349s1.659-1.335,2.6-2.205a36.117,36.117,0,0,0,5.411-6.348c.71-1.071,1.307-2.063,1.765-2.921s.814-1.56,1.037-2.056l.265-.567c.062-.129.1-.195.1-.195a28.076,28.076,0,0,1-1.334,2.854c-.451.864-1.042,1.863-1.749,2.94a34.988,34.988,0,0,1-5.426,6.366c-.95.869-1.844,1.612-2.626,2.193A28.052,28.052,0,0,1,306.138,224.636Z" transform="translate(-306.138 -208.513)"/></g><g transform="translate(18.25 7.854)"><g transform="translate(28.933 2.115)"><g transform="translate(14.916)"><path class="k" d="M234.67,245.53a.554.554,0,0,1,.125-.058l.376-.145c.335-.113.812-.325,1.419-.606a18.723,18.723,0,0,0,4.607-3.276,36.511,36.511,0,0,0,5.274-6.543,92.683,92.683,0,0,0,5.14-8.955,155.615,155.615,0,0,0,7.3-17.292c.821-2.26,1.457-4.1,1.9-5.368l.514-1.461c.057-.155.1-.279.14-.378a.552.552,0,0,1,.056-.126.524.524,0,0,1-.031.134l-.116.386c-.112.357-.269.851-.467,1.477-.416,1.279-1.026,3.128-1.825,5.4a144.735,144.735,0,0,1-7.238,17.348,89.694,89.694,0,0,1-5.171,8.97,35.864,35.864,0,0,1-5.349,6.546,18.141,18.141,0,0,1-4.689,3.232,13.293,13.293,0,0,1-1.446.564l-.385.121A.54.54,0,0,1,234.67,245.53Z" transform="translate(-234.67 -201.323)"/></g><g transform="translate(14.044 30.934)"><path class="k" d="M232.995,285.038a1.8,1.8,0,0,1,.285-.217l.84-.581c.728-.507,1.773-1.251,3.031-2.216,2.525-1.919,5.839-4.787,9.4-8.063,1.787-1.635,3.5-3.18,4.981-4.661a38.549,38.549,0,0,0,3.672-4.167,23.059,23.059,0,0,0,2.01-3.157c.218-.386.353-.7.461-.91a1.82,1.82,0,0,1,.171-.314,1.835,1.835,0,0,1-.123.335c-.092.215-.214.539-.418.934a20.782,20.782,0,0,1-1.952,3.221,36.635,36.635,0,0,1-3.65,4.228c-1.478,1.5-3.188,3.05-4.975,4.684a123.361,123.361,0,0,1-9.468,8.018c-1.275.949-2.34,1.671-3.086,2.153-.373.242-.669.419-.869.541A1.877,1.877,0,0,1,232.995,285.038Z" transform="translate(-232.995 -260.752)"/></g><g transform="translate(0 72.658)"><path class="k" d="M206.014,379.12a.51.51,0,0,1,.062-.117l.205-.331c.183-.288.464-.706.84-1.236.754-1.056,1.916-2.536,3.448-4.278,3.084-3.465,7.406-8.186,12.168-13.416l12.239-13.354,3.731-4.027,1.024-1.086L240,341a.506.506,0,0,1,.1-.089.516.516,0,0,1-.079.106l-.252.3-.988,1.119-3.669,4.082L222.93,359.919l-12.223,13.362c-1.548,1.723-2.726,3.18-3.5,4.215-.387.519-.681.927-.878,1.206l-.226.315A.5.5,0,0,1,206.014,379.12Z" transform="translate(-206.013 -340.91)"/></g></g><g transform="translate(76.935)"><path class="k" d="M298.822,216.692a4.873,4.873,0,0,1-.2-.792,9.192,9.192,0,0,1-.166-.943c-.048-.37-.122-.79-.146-1.26-.04-.469-.077-.983-.074-1.537-.021-.554.016-1.145.043-1.767a22.761,22.761,0,0,1,1.947-7.823c.268-.562.512-1.1.79-1.58.257-.491.531-.928.786-1.323s.5-.74.72-1.044a9.184,9.184,0,0,1,.588-.755,4.943,4.943,0,0,1,.544-.607,4.833,4.833,0,0,1-.464.67c-.159.208-.349.464-.549.777s-.453.651-.683,1.058-.505.837-.751,1.327c-.268.479-.5,1.016-.76,1.576a23.862,23.862,0,0,0-1.927,7.743c-.033.615-.079,1.2-.066,1.748-.013.549.014,1.058.041,1.524.012.467.073.885.107,1.255s.078.686.121.944A4.981,4.981,0,0,1,298.822,216.692Z" transform="translate(-298.234 -197.26)"/></g><g transform="translate(81.148 28.761)"><path class="k" d="M310.277,261.859a98.715,98.715,0,0,1-3.945-9.344,98.851,98.851,0,0,1,3.945,9.344Z" transform="translate(-306.328 -252.514)"/></g><g transform="translate(0 11.232)"><path class="k" d="M161.114,229.211c-.04.022-.445-.723-1.211-1.852A26.012,26.012,0,0,0,152.316,220c-1.151-.732-1.908-1.114-1.887-1.155a2.622,2.622,0,0,1,.551.229c.349.16.841.421,1.432.769a23.063,23.063,0,0,1,7.644,7.418c.366.581.642,1.064.811,1.409A2.648,2.648,0,0,1,161.114,229.211Z" transform="translate(-150.429 -218.839)"/></g></g><g transform="translate(43.223 3.744)"><g transform="translate(6.143 10.265)"><path class="k" d="M210.229,212.226a1.729,1.729,0,0,1-.005-.536,4.209,4.209,0,0,1,.317-1.256,4.1,4.1,0,0,1,.877-1.322l.029-.028.015.035a.122.122,0,1,1-.048.023l.044.007a5.217,5.217,0,0,0-.816,1.327A6.581,6.581,0,0,0,210.229,212.226Z" transform="translate(-210.21 -209.084)"/></g><g transform="translate(12.919 13.488)"><path class="k" d="M223.361,218.766a1.816,1.816,0,0,1-.107-.519,4.9,4.9,0,0,1,.39-2.509,1.788,1.788,0,0,1,.259-.462,6.51,6.51,0,0,0-.543,3.49Z" transform="translate(-223.226 -215.276)"/></g><g transform="translate(19.802 13.594)"><path class="k" d="M237.215,218.27a5.642,5.642,0,0,0-.764-2.791,1.287,1.287,0,0,1,.259.349,3.964,3.964,0,0,1,.55,2.009A1.28,1.28,0,0,1,237.215,218.27Z" transform="translate(-236.45 -215.479)"/></g><g transform="translate(25.26 11.106)"><path class="k" d="M248.81,213.1a5.928,5.928,0,0,0-1.875-2.4,1.4,1.4,0,0,1,.391.236,4.21,4.21,0,0,1,1.349,1.727A1.419,1.419,0,0,1,248.81,213.1Z" transform="translate(-246.935 -210.699)"/></g><g transform="translate(29.226 6.936)"><path class="k" d="M256.988,204.8a2.9,2.9,0,0,0-2.433-2.1c0-.007.048-.01.137-.009a1.771,1.771,0,0,1,.372.048,2.6,2.6,0,0,1,1.811,1.564,1.77,1.77,0,0,1,.1.36C256.991,204.749,257,204.8,256.988,204.8Z" transform="translate(-254.555 -202.689)"/></g><g transform="translate(31.195)"><path class="k" d="M261.221,190.167a2.916,2.916,0,0,0-2.883-.531,2.386,2.386,0,0,1,2.883.531Z" transform="translate(-258.338 -189.363)"/></g><g transform="translate(1.643 5.656)"><path class="k" d="M201.566,202.426a1.235,1.235,0,0,1,.109-.446,2.991,2.991,0,0,1,1.475-1.6,1.251,1.251,0,0,1,.435-.146,3.657,3.657,0,0,0-2.02,2.2Z" transform="translate(-201.564 -200.228)"/></g><g transform="translate(0 0.541)"><path class="k" d="M198.408,192.23a1.5,1.5,0,0,1,.259-.421,3.816,3.816,0,0,1,1.951-1.32,1.511,1.511,0,0,1,.487-.084,4.856,4.856,0,0,0-2.7,1.824Z" transform="translate(-198.407 -190.402)"/></g></g><g transform="translate(28.877 38.071)"><path class="d" d="M172.255,255.34c0,.007-.023-.028-.035.005a.712.712,0,0,0-.043.171c-.027.158-.056.394-.086.7-.06.611-.13,1.5-.2,2.593-.149,2.192-.321,5.223-.484,8.572s-.284,6.384-.358,8.581c-.035,1.066-.064,1.944-.085,2.6-.011.281-.021.514-.029.707a.854.854,0,0,1-.028.247.87.87,0,0,1-.027-.247c-.006-.194-.013-.427-.021-.708-.011-.615-.014-1.505,0-2.605.025-2.2.116-5.236.279-8.589s.365-6.383.564-8.575c.1-1.1.2-1.981.29-2.591a6.3,6.3,0,0,1,.137-.7.523.523,0,0,1,.074-.176C172.25,255.282,172.261,255.352,172.255,255.34Z" transform="translate(-170.845 -255.312)"/></g></g><g transform="translate(38.031)"><path class="d" d="M236.278,49.651c-4.342-1.328-8.867,2.558-13.323,1.685-2.706-.53-4.749-2.692-7.156-4.036a13.892,13.892,0,0,0-12.365-.469c-3.676,1.866-6.046,3.86-6.547,7.952-3.346-1.92-8.928,2.292-10.83,6.356s-1.424,8.266-.345,12.621A59.2,59.2,0,0,0,195.5,94.6c.407.551,1.055,1.16,1.674.869a1.494,1.494,0,0,0,.643-1.2c.64-3.983.135-8.047-.21-12.066s-.514-8.163.755-11.992,4.265-7.322,8.222-8.1a12.785,12.785,0,0,1,8.558,1.832c2.6,1.458,4.881,3.41,7.356,5.07a16.435,16.435,0,0,0,8.229,3.189c2.977.13,6.17-1.274,7.438-3.971s-.155-6.527-3.069-7.145a5.857,5.857,0,0,0,1.176-11.433Z" transform="translate(-184.767 -45.596)"/><g transform="translate(6.985 5.714)"><path class="l" d="M229.32,124.741l-.421-8.619s11.359-2.177,11.1-13.6c-.125-5.516-1.308-16.854-2.5-27.1a21.293,21.293,0,0,0-21.9-18.828l-1.1.039c-11.857,1.111-17.537,11.8-16.1,23.622l2.734,46.017a14.111,14.111,0,0,0,14.833,13.255h0A14.112,14.112,0,0,0,229.32,124.741Z" transform="translate(-198.185 -56.574)"/><g transform="translate(15.692 55.831)"><g transform="translate(0 0)"><path class="l" d="M243.367,167.543a26.572,26.572,0,0,1-15.036-3.709s3.807,8.095,15.166,6.667Z" transform="translate(-228.331 -163.834)"/></g></g><g transform="translate(11.697 15.243)"><g transform="translate(1.673 7.662)"><g transform="translate(17.239)"><g transform="translate(1.609 2.261)"><path class="d" d="M263.331,106.34a1.632,1.632,0,0,1-1.515,1.7,1.561,1.561,0,0,1-1.733-1.412,1.632,1.632,0,0,1,1.513-1.7A1.562,1.562,0,0,1,263.331,106.34Z" transform="translate(-260.08 -104.921)"/></g><path class="d" d="M263.438,102.182c-.195.22-1.462-.651-3.217-.585-1.754.041-3.01.989-3.207.781-.1-.092.1-.483.642-.911a4.479,4.479,0,0,1,2.559-.888,4.3,4.3,0,0,1,2.57.731C263.338,101.706,263.535,102.084,263.438,102.182Z" transform="translate(-256.989 -100.577)"/></g><g transform="translate(0 0.932)"><g transform="translate(1.609 2.528)"><path class="d" d="M230.213,108.645a1.632,1.632,0,0,1-1.515,1.7,1.561,1.561,0,0,1-1.733-1.412,1.632,1.632,0,0,1,1.513-1.7A1.562,1.562,0,0,1,230.213,108.645Z" transform="translate(-226.962 -107.226)"/></g><path class="d" d="M230.321,103.973c-.2.22-1.464-.651-3.218-.585-1.754.041-3.01.988-3.208.78-.1-.092.094-.483.643-.91a4.472,4.472,0,0,1,2.558-.889,4.3,4.3,0,0,1,2.57.731C230.219,103.5,230.416,103.875,230.321,103.973Z" transform="translate(-223.871 -102.368)"/></g><g transform="translate(11.942 0.734)"><path class="d" d="M248.146,116.582a11.609,11.609,0,0,1,2.832-.614c.446-.062.867-.166.932-.475a2.283,2.283,0,0,0-.346-1.317l-1.445-3.366c-2.011-4.794-3.483-8.742-3.29-8.821s1.981,3.742,3.992,8.536q.727,1.774,1.39,3.388a2.6,2.6,0,0,1,.294,1.751,1.126,1.126,0,0,1-.714.681,3.052,3.052,0,0,1-.757.133A11.449,11.449,0,0,1,248.146,116.582Z" transform="translate(-246.813 -101.988)"/></g><g transform="translate(7.899 16.723)"><path class="d" d="M239.3,132.706c.285-.027.355,1.878,2.033,3.173s3.7,1.015,3.723,1.28c.031.118-.439.386-1.3.439a4.747,4.747,0,0,1-3.1-.96,4.137,4.137,0,0,1-1.583-2.665C238.973,133.178,239.169,132.7,239.3,132.706Z" transform="translate(-239.046 -132.705)"/></g></g><path class="d" d="M228.639,87.059c-.157.483-1.917.319-3.966.639-2.057.28-3.7.94-3.984.522-.129-.2.145-.66.8-1.145a6.986,6.986,0,0,1,6.057-.884C228.311,86.469,228.705,86.83,228.639,87.059Z" transform="translate(-220.657 -85.858)"/><g transform="translate(18.55 2.497)"><path class="d" d="M262.282,92.369c-.295.41-1.518.038-2.973.07-1.455-.019-2.675.362-2.973-.045-.131-.2.048-.6.573-1a4.307,4.307,0,0,1,4.791-.02C262.228,91.765,262.411,92.17,262.282,92.369Z" transform="translate(-256.295 -90.656)"/></g></g></g><g transform="translate(1.003 37.535)"><path class="l" d="M194.123,117.983c-.2-.077-7.928-2.046-7.4,5.753s8.245,5.665,8.243,5.44S194.123,117.983,194.123,117.983Z" transform="translate(-186.693 -117.707)"/><g transform="translate(2 2.6)"><path class="m" d="M194.224,128.777c-.036-.022-.13.1-.352.225a1.36,1.36,0,0,1-1.014.089c-.844-.247-1.626-1.508-1.758-2.911a4.509,4.509,0,0,1,.25-1.971,1.573,1.573,0,0,1,.952-1.111.693.693,0,0,1,.827.319c.119.211.08.37.122.381.023.018.159-.142.074-.46a.87.87,0,0,0-.34-.468,1.029,1.029,0,0,0-.765-.148,1.914,1.914,0,0,0-1.338,1.3,4.62,4.62,0,0,0-.325,2.205c.156,1.568,1.059,2.984,2.208,3.235a1.459,1.459,0,0,0,1.229-.289C194.223,128.966,194.252,128.789,194.224,128.777Z" transform="translate(-190.536 -122.703)"/></g></g><g transform="translate(5.711 3.777)"><path class="d" d="M238.661,71.153a16.5,16.5,0,0,1-14.767-2.786c-2.86-2.258-5.122-5.569-8.641-6.518a9.28,9.28,0,0,0-7.059,1.219,17.925,17.925,0,0,0-5.2,5.131c2.41,5.726,1.155,12.256-.136,18.333a3.106,3.106,0,0,1-.846,1.833c-.9.743-2.3.236-3.136-.578a9.655,9.655,0,0,1-2.3-5.016,32.142,32.142,0,0,1-.369-12.666,21.879,21.879,0,0,1,5.622-11.247,20.725,20.725,0,0,1,14.336-6A25.452,25.452,0,0,1,231.1,57.615a14.918,14.918,0,0,1,4.988,5.355" transform="translate(-195.739 -52.853)"/></g><g transform="translate(13.368 4.211)"><path class="k" d="M251.967,56.166a1.676,1.676,0,0,1-.046.679,3.17,3.17,0,0,1-1.035,1.648A4.973,4.973,0,0,1,248,59.569a8.329,8.329,0,0,1-1.942-.052,4.156,4.156,0,0,1-2.022-.852,2.759,2.759,0,0,1-1.053-2.17,2.428,2.428,0,0,1,1.588-2.051,3,3,0,0,1,1.4-.228,2.55,2.55,0,0,1,1.362.555,3.552,3.552,0,0,1,1.259,2.689,4.117,4.117,0,0,1-1.131,2.908,6.268,6.268,0,0,1-2.772,1.7,10.282,10.282,0,0,1-6.7-.492,29.393,29.393,0,0,1-5.9-3.274,37.312,37.312,0,0,0-5.354-3.16,11.573,11.573,0,0,0-5.41-1.117,11.064,11.064,0,0,0-4.629,1.363,13.822,13.822,0,0,0-5.015,4.889,18.065,18.065,0,0,0-.934,1.694,5.33,5.33,0,0,1-.307.6.612.612,0,0,1,.049-.166c.04-.107.1-.267.186-.471a14.562,14.562,0,0,1,.876-1.739,13.657,13.657,0,0,1,5.011-5.051,11.271,11.271,0,0,1,4.741-1.444,11.852,11.852,0,0,1,5.575,1.111,37.078,37.078,0,0,1,5.419,3.17,29.339,29.339,0,0,0,5.823,3.228,9.935,9.935,0,0,0,6.447.491,5.9,5.9,0,0,0,2.611-1.591,3.752,3.752,0,0,0,1.047-2.649,3.212,3.212,0,0,0-1.113-2.432,2.351,2.351,0,0,0-2.426-.3,2.121,2.121,0,0,0-1.412,1.768,2.479,2.479,0,0,0,.931,1.947,3.917,3.917,0,0,0,1.886.818,8.2,8.2,0,0,0,1.884.079,4.863,4.863,0,0,0,2.8-.974,3.2,3.2,0,0,0,1.057-1.553A5.359,5.359,0,0,0,251.967,56.166Z" transform="translate(-210.449 -53.687)"/></g><g transform="translate(0.135 13.766)"><path class="k" d="M185.027,80.592a12.865,12.865,0,0,0,2.406.536,6.714,6.714,0,0,0,2.607-.363,11.273,11.273,0,0,0,2.878-1.512,9.128,9.128,0,0,0,3.315-4.773,18.691,18.691,0,0,0,.434-2.437,2,2,0,0,1,.065.674,7.754,7.754,0,0,1-.234,1.834,8.908,8.908,0,0,1-3.352,5.015,10.938,10.938,0,0,1-3,1.538,6.618,6.618,0,0,1-2.74.3,6.177,6.177,0,0,1-1.791-.478A1.962,1.962,0,0,1,185.027,80.592Z" transform="translate(-185.026 -72.043)"/></g><g transform="translate(0.675 19.323)"><path class="k" d="M186.063,91.349c.008-.071.927.1,2.4-.035a10.717,10.717,0,0,0,8.9-6.342c.607-1.346.745-2.269.816-2.253a1.909,1.909,0,0,1-.06.651,8.9,8.9,0,0,1-.5,1.71,10.343,10.343,0,0,1-9.131,6.508A8.933,8.933,0,0,1,186.7,91.5,1.9,1.9,0,0,1,186.063,91.349Z" transform="translate(-186.063 -82.719)"/></g><g transform="translate(20.991 38.405)"><path class="m" d="M225.338,119.795a.213.213,0,1,1,.139-.251A.2.2,0,0,1,225.338,119.795Z" transform="translate(-225.094 -119.378)"/></g><g transform="translate(24.309 37.466)"><path class="m" d="M231.72,118.052a.249.249,0,1,1,.133-.281A.222.222,0,0,1,231.72,118.052Z" transform="translate(-231.467 -117.575)"/></g><g transform="translate(26.569 37.182)"><path class="m" d="M236.057,117.655c-.106.017-.214-.109-.242-.282s.035-.326.141-.344.213.109.242.282S236.163,117.638,236.057,117.655Z" transform="translate(-235.809 -117.028)"/></g><g transform="translate(22.759 40.621)"><path class="m" d="M228.688,123.883c-.107,0-.2-.049-.2-.117s.083-.127.189-.131.2.049.2.117S228.8,123.879,228.688,123.883Z" transform="translate(-228.49 -123.635)"/></g><g transform="translate(25.786 39.609)"><path class="m" d="M234.527,122.13a.222.222,0,1,1,.166-.242A.208.208,0,0,1,234.527,122.13Z" transform="translate(-234.306 -121.692)"/></g><g transform="translate(41.697 37.145)"><path class="m" d="M265.119,117.388a.22.22,0,1,1,.138-.257A.206.206,0,0,1,265.119,117.388Z" transform="translate(-264.874 -116.958)"/></g><g transform="translate(43.993 36.801)"><path class="m" d="M269.512,116.782a.251.251,0,1,1,.159-.268A.223.223,0,0,1,269.512,116.782Z" transform="translate(-269.285 -116.296)"/></g><g transform="translate(39.695 37.366)"><path class="m" d="M261.259,117.719a.171.171,0,1,1,.149-.21A.183.183,0,0,1,261.259,117.719Z" transform="translate(-261.027 -117.382)"/></g><g transform="translate(41.404 39.508)"><path class="m" d="M264.606,121.918a.226.226,0,1,1,.077-.286A.21.21,0,0,1,264.606,121.918Z" transform="translate(-264.309 -121.498)"/></g><g transform="translate(43.484 39.147)"><path class="m" d="M268.461,121.127a.166.166,0,1,1,.226-.115A.181.181,0,0,1,268.461,121.127Z" transform="translate(-268.306 -120.803)"/></g></g><g transform="translate(72.296 120.863)"><path class="g" d="M256.1,326.12l-.123-11.57s-7.722-10.7-4.675-22.3c0,0,5.034-3.541,18.529-1.465,0,0,16.943-16.506,39.655-12.309s24.823,23.988,25.039,29.375.169,15.849-7.648,26.077l-.526,10.15s-1.862,3.824-7.253,3.565-5.083-1.056-5.083-1.056-6.758,5.461-7.06,6.891-1.354,6.83-1.354,6.83a10.357,10.357,0,0,1-7.412,3.566,10.931,10.931,0,0,1-5.79-1.187,5.715,5.715,0,0,1-2.868-3.364,11.877,11.877,0,0,0-6.369-7.336l-3.5-.914s-1.413,1.283-6.321,1.81-4.926-1.215-4.926-1.215-7.635,1.766-13.375-5.723C250.512,340.03,248.054,329.376,256.1,326.12Z" transform="translate(-250.594 -277.793)"/><g transform="translate(41.964 22.832)"><path class="d" d="M341.837,347.82a2.611,2.611,0,0,1,.25-.357c.172-.227.429-.56.746-1,.639-.871,1.539-2.153,2.526-3.813a43.934,43.934,0,0,0,2.986-6.081c.473-1.185.915-2.451,1.309-3.781a8.138,8.138,0,0,0,.373-4.172,5.928,5.928,0,0,0-2.5-3.282A17.716,17.716,0,0,0,344,323.5a23.478,23.478,0,0,0-6.556-1.577,23.932,23.932,0,0,0-4.562,0c-.538.051-.954.1-1.236.145a2.712,2.712,0,0,1-.433.043,2.533,2.533,0,0,1,.424-.1c.28-.06.695-.128,1.233-.2a22.283,22.283,0,0,1,4.59-.087,23.139,23.139,0,0,1,6.632,1.536,17.769,17.769,0,0,1,3.59,1.848,6.172,6.172,0,0,1,2.608,3.434,8.349,8.349,0,0,1-.38,4.313c-.4,1.339-.849,2.61-1.332,3.8a42.137,42.137,0,0,1-3.053,6.086,40.6,40.6,0,0,1-2.606,3.779c-.331.429-.6.752-.788.968A2.615,2.615,0,0,1,341.837,347.82Z" transform="translate(-331.212 -321.656)"/></g><g transform="translate(6.126 13.494)"><path class="d" d="M277.069,303.717a.884.884,0,0,1,.08.269,2.816,2.816,0,0,1,.035.806,4.544,4.544,0,0,1-1.3,2.628,34.8,34.8,0,0,1-3.4,2.732,28.842,28.842,0,0,0-3.805,3.689,30.23,30.23,0,0,0-5.009,8.2c-.465,1.145-.776,2.1-.981,2.758l-.228.764a1.1,1.1,0,0,1-.1.262,1.076,1.076,0,0,1,.045-.275c.048-.208.107-.466.18-.779a26.122,26.122,0,0,1,.9-2.8,28.791,28.791,0,0,1,4.981-8.3,27.864,27.864,0,0,1,3.855-3.707,38.4,38.4,0,0,0,3.418-2.669,3.986,3.986,0,0,0,1.322-3.571Z" transform="translate(-262.362 -303.717)"/></g><g class="n" transform="translate(29.91 1.452)"><path d="M308.056,294.042l6.909,1.764s10.116-11.369,21.224-14.243l-4.161-.981A48.054,48.054,0,0,0,308.056,294.042Z" transform="translate(-308.056 -280.582)"/></g><g transform="translate(29.91 1.452)"><path class="o" d="M333.934,281.021a46.7,46.7,0,0,0-23.734,13.55l-2.145-.529s9.8-10.751,23.972-13.46Z" transform="translate(-308.056 -280.582)"/></g><g class="p" transform="translate(29.91 1.452)"><path d="M333.934,281.021a46.7,46.7,0,0,0-23.734,13.55l-2.145-.529s9.8-10.751,23.972-13.46Z" transform="translate(-308.056 -280.582)"/></g><g transform="translate(2.172 47.279)"><path class="e" d="M254.767,372.033c3.83-5.478,13.423-3.8,17.8,1.123,4.315,4.855,6.322,11.7,3.473,17.54-1.216,2.492-3.549,4.692-6.322,4.632a13.017,13.017,0,0,0,2.965-11.579,18.69,18.69,0,0,0-6.723-10.317c-1.653-1.332-3.509-2.8-5.621-3.005s-3.809-.27-5.573,1.607" transform="translate(-254.767 -368.623)"/></g><g class="q" transform="translate(52.883 33.332)"><path d="M352.277,357.17a2.382,2.382,0,0,0,2.14,2.32,3.673,3.673,0,0,0,3.065-1.343,8.442,8.442,0,0,0,1.563-3.083,32.575,32.575,0,0,0,1.188-13.235c-1.656,5.035-4.614,11.311-8.044,15.352" transform="translate(-352.19 -341.829)"/></g><g class="q" transform="translate(40.755 25.732)"><path d="M344.734,332.859c-.745-2.2-3.024-3.483-5.219-4.247a25.178,25.178,0,0,0-6.941-1.364,5.52,5.52,0,0,0-2.21.217,2.189,2.189,0,0,0-1.455,1.564,1.463,1.463,0,0,0,.74,1.51,41.227,41.227,0,0,1,8.261,15,1.407,1.407,0,0,0,2.415.516c1.771-2.018,2.791-4.74,3.707-7.323C344.7,336.836,345.378,334.764,344.734,332.859Z" transform="translate(-328.89 -327.229)"/></g><g class="q" transform="translate(3.322 16.678)"><path d="M260.485,325.536a22.042,22.042,0,0,1-3.5-12.358,3.72,3.72,0,0,1,.774-2.576,3.949,3.949,0,0,1,3.144-.742,59.856,59.856,0,0,1,9.1,1.282c.234.052.5.131.593.352a.9.9,0,0,1-.2,1.047c-4.661,2.858-7.965,8.115-9.726,13.26" transform="translate(-256.975 -309.834)"/></g><g transform="translate(0.623 14.871)"><path class="r" d="M252.2,306.362a4.419,4.419,0,0,1-.035.786c-.045.5-.09,1.233-.122,2.134a34.786,34.786,0,0,0,.458,7.011,33.589,33.589,0,0,0,.9,3.765,31.2,31.2,0,0,0,1.078,2.974c.351.829.657,1.493.885,1.943a4.371,4.371,0,0,1,.323.718,4.4,4.4,0,0,1-.416-.668c-.258-.437-.592-1.091-.968-1.916a27.514,27.514,0,0,1-1.141-2.976,30.81,30.81,0,0,1-.927-3.793,31.123,31.123,0,0,1-.382-7.067c.057-.905.132-1.635.209-2.136A4.313,4.313,0,0,1,252.2,306.362Z" transform="translate(-251.79 -306.362)"/></g><g transform="translate(29.381 1.074)"><path class="r" d="M331.132,279.859a1.177,1.177,0,0,1-.269.1l-.782.228c-.341.094-.757.211-1.235.366s-1.029.308-1.623.523c-1.2.4-2.6.934-4.139,1.59-1.528.671-3.181,1.469-4.864,2.406s-3.221,1.942-4.591,2.9-2.551,1.887-3.516,2.7c-.493.4-.913.783-1.292,1.112s-.7.62-.956.862l-.6.548a1.164,1.164,0,0,1-.223.179,1.112,1.112,0,0,1,.185-.217l.568-.586c.247-.255.554-.56.927-.9s.783-.74,1.27-1.146c.953-.837,2.137-1.777,3.5-2.76a49.116,49.116,0,0,1,9.5-5.328c1.548-.646,2.967-1.166,4.178-1.542.6-.2,1.156-.347,1.64-.486s.9-.244,1.25-.322l.8-.179A1.1,1.1,0,0,1,331.132,279.859Z" transform="translate(-307.039 -279.856)"/></g><g transform="translate(40.955 23.5)"><path class="r" d="M347.863,328.021c-.04.045-.827-.754-2.336-1.717a18.659,18.659,0,0,0-2.777-1.453,21.577,21.577,0,0,0-3.659-1.154,22.46,22.46,0,0,0-6.945-.418c-1.782.182-2.859.479-2.872.423a4.3,4.3,0,0,1,.751-.224,16.224,16.224,0,0,1,2.1-.389,20.985,20.985,0,0,1,7.024.344,20.546,20.546,0,0,1,3.7,1.189,17.3,17.3,0,0,1,2.784,1.522l.533.363.451.357a7.2,7.2,0,0,1,.7.6A4.3,4.3,0,0,1,347.863,328.021Z" transform="translate(-329.274 -322.94)"/></g><g transform="translate(0.927 53.061)"><path class="r" d="M264.437,399.813a.923.923,0,0,1-.249-.067c-.159-.056-.4-.125-.694-.25a16.434,16.434,0,0,1-2.428-1.209,17.847,17.847,0,0,1-8.684-14.87,16.321,16.321,0,0,1,.14-2.709c.036-.318.094-.561.123-.727a.915.915,0,0,1,.064-.25,8.969,8.969,0,0,1-.082.988,19.369,19.369,0,0,0-.053,2.69,18.238,18.238,0,0,0,8.593,14.714,19.363,19.363,0,0,0,2.369,1.275A8.94,8.94,0,0,1,264.437,399.813Z" transform="translate(-252.375 -379.731)"/></g><g transform="translate(11.19 60.993)"><g class="s" transform="translate(0.13)"><path d="M275.375,395.092a2.211,2.211,0,0,0-2.333.6,2.858,2.858,0,0,0-.661,2.38,3.687,3.687,0,0,0,.995,2.167,3.06,3.06,0,0,0,1.72.838,2.2,2.2,0,0,0,1.931-1.232,3.42,3.42,0,0,0-1.652-4.755" transform="translate(-272.342 -394.969)"/></g><g transform="translate(0 0.016)"><path class="e" d="M274.451,395.01a3.462,3.462,0,0,0,1.848,5.58,2.011,2.011,0,0,1-1.753.465,3.593,3.593,0,0,1-2.445-3.709,2.743,2.743,0,0,1,.753-1.757,2.371,2.371,0,0,1,1.6-.58" transform="translate(-272.091 -395.001)"/></g></g><g transform="translate(3.632 58.039)"><g class="s" transform="translate(0.126)"><path d="M260.738,389.414a2.131,2.131,0,0,0-2.25.581,2.757,2.757,0,0,0-.638,2.3,3.553,3.553,0,0,0,.959,2.09,2.954,2.954,0,0,0,1.659.808A2.121,2.121,0,0,0,262.331,394a3.3,3.3,0,0,0-1.593-4.587" transform="translate(-257.812 -389.295)"/></g><g transform="translate(0 0.016)"><path class="e" d="M259.847,389.335a3.34,3.34,0,0,0,1.782,5.383,1.939,1.939,0,0,1-1.69.448,3.464,3.464,0,0,1-2.359-3.578,2.645,2.645,0,0,1,.726-1.694,2.29,2.29,0,0,1,1.54-.56" transform="translate(-257.571 -389.326)"/></g></g><g transform="translate(24.411 43.501)"><g transform="translate(2.955 0.005)"><path class="d" d="M303.181,361.376c.041-.007-.042.005,0,0Z" transform="translate(-303.169 -361.374)"/></g><g transform="translate(2.019 0.252)"><path class="d" d="M301.371,361.9c.022-.015.051-.021.075-.034s.022-.014.034-.019Z" transform="translate(-301.371 -361.848)"/></g><path class="d" d="M303.444,363.322a2.95,2.95,0,0,0-1.349-1.586,3.464,3.464,0,0,0-1.591-.37l-.046,0a2.028,2.028,0,0,0-.873.264,3.77,3.77,0,0,0-2.085,3.045,4.168,4.168,0,0,0,2.4,3.951,2.182,2.182,0,0,0,2.935-.7A4.7,4.7,0,0,0,303.444,363.322Z" transform="translate(-297.492 -361.365)"/></g><g transform="translate(8.594 38.501)"><g transform="translate(2.559 0.004)"><path class="d" d="M272.03,351.77c.036-.006-.036,0,0,0Z" transform="translate(-272.02 -351.768)"/></g><g transform="translate(1.749 0.218)"><path class="d" d="M270.463,352.225c.02-.013.044-.018.065-.03s.019-.012.03-.017Z" transform="translate(-270.463 -352.179)"/></g><path class="d" d="M272.259,353.455a2.555,2.555,0,0,0-1.169-1.373,3.006,3.006,0,0,0-1.378-.32l-.04,0a1.751,1.751,0,0,0-.756.228,3.267,3.267,0,0,0-1.806,2.638,3.61,3.61,0,0,0,2.076,3.422,1.889,1.889,0,0,0,2.542-.605A4.068,4.068,0,0,0,272.259,353.455Z" transform="translate(-267.103 -351.76)"/></g><g transform="translate(14.799 48.882)"><path class="d" d="M279.025,371.7a1.522,1.522,0,0,1,.324.067c.212.046.516.144.907.276a12.207,12.207,0,0,1,3.062,1.663,13.737,13.737,0,0,1,3.5,3.8,16.032,16.032,0,0,1,2.177,5.935,18.79,18.79,0,0,1-.072,6.327,9.513,9.513,0,0,1-2.159,4.675,6.376,6.376,0,0,1-2.924,1.871,3.566,3.566,0,0,1-1.266.173,8.836,8.836,0,0,0,1.236-.273,6.484,6.484,0,0,0,2.812-1.9,9.456,9.456,0,0,0,2.056-4.594,18.933,18.933,0,0,0,.051-6.238,16.058,16.058,0,0,0-2.121-5.846,13.848,13.848,0,0,0-3.4-3.777,12.973,12.973,0,0,0-2.985-1.718C279.458,371.844,279.018,371.732,279.025,371.7Z" transform="translate(-279.025 -371.702)"/></g><g transform="translate(9.25 39.93)"><path class="r" d="M268.93,357.3c-.027.02-.161-.093-.3-.338a2.261,2.261,0,0,1-.007-2.115c.138-.246.272-.36.3-.34a3.492,3.492,0,0,0,.008,2.794Z" transform="translate(-268.364 -354.505)"/></g><g transform="translate(25.092 45.591)"><path class="r" d="M299.214,368.267c-.028.017-.158-.118-.272-.4a2.223,2.223,0,0,1,.369-2.2c.2-.225.365-.31.386-.285a3.121,3.121,0,0,0-.482,2.882Z" transform="translate(-298.799 -365.381)"/></g><g transform="translate(22.694 71.007)"><path class="d" d="M306.882,419.187c-.028.04-.658-.4-1.759-.948a33.022,33.022,0,0,0-4.474-1.771c-1.792-.585-3.43-1.08-4.6-1.5-.584-.208-1.054-.384-1.372-.523a2.033,2.033,0,0,1-.486-.236c.015-.039.737.213,1.918.577s2.823.834,4.623,1.422a26.486,26.486,0,0,1,4.478,1.858c.275.144.515.293.724.425a5.765,5.765,0,0,1,.527.352A2.062,2.062,0,0,1,306.882,419.187Z" transform="translate(-294.192 -414.209)"/></g><g transform="translate(56.623 59.219)"><path class="d" d="M375.065,391.562a5.4,5.4,0,0,1-.476.732c-.315.465-.809,1.112-1.44,1.9a53.5,53.5,0,0,1-5.445,5.652c-2.271,2.061-4.39,3.847-5.888,5.179l-1.772,1.581a5.369,5.369,0,0,1-.668.562,5.385,5.385,0,0,1,.6-.638c.393-.4.981-.962,1.716-1.646,1.468-1.371,3.569-3.182,5.834-5.237A63.2,63.2,0,0,0,373,394.066c.647-.764,1.162-1.391,1.5-1.835A5.366,5.366,0,0,1,375.065,391.562Z" transform="translate(-359.376 -391.561)"/></g><g class="s" transform="translate(63.464 58.38)"><path d="M372.517,400.43a10.392,10.392,0,0,0,7.971-2.619,7.2,7.2,0,0,0,1.481-7.861,34.96,34.96,0,0,1-5.724,6.714c-1.418,1.2-2.357,2.663-3.729,3.766" transform="translate(-372.517 -389.95)"/></g><g class="n" transform="translate(53.474 1.076)"><path d="M353.343,282.175c3.622,5.365,11.114,7.059,14.726,12.43a23.449,23.449,0,0,1,2.76,6.956l8.337,30.051c.346-6.512-1.224-12.957-2.783-19.289l-4.616-18.759a8.73,8.73,0,0,0-4.739-6.759c-4.277-2.871-8.68-5.8-13.7-6.943" transform="translate(-353.326 -279.861)"/></g><g class="q" transform="translate(10.195 18.869)"><path class="j" d="M287.928,314.8c.229.73-.768,1.721-2.326,2.955-.785.613-1.7,1.315-2.712,2.071-1,.771-2.088,1.605-3.208,2.508s-2.151,1.809-3.11,2.631-1.82,1.591-2.579,2.235c-1.526,1.275-2.7,2.049-3.367,1.676-.638-.353-.625-1.853.265-3.928a16.269,16.269,0,0,1,2.013-3.372,20.835,20.835,0,0,1,7.413-6.03,16.274,16.274,0,0,1,3.711-1.284C286.24,313.809,287.712,314.1,287.928,314.8Z" transform="translate(-270.179 -314.043)"/></g><g transform="translate(11.656 60.624)"><path class="r" d="M275.35,394.341a337.126,337.126,0,0,1-2.362.559,2.877,2.877,0,0,1,2.362-.559Z" transform="translate(-272.986 -394.261)"/></g><g transform="translate(3.946 57.697)"><path class="r" d="M260.348,388.777a9.87,9.87,0,0,0-2.169.5c-.046-.054.362-.429,1.01-.576A1.479,1.479,0,0,1,260.348,388.777Z" transform="translate(-258.175 -388.637)"/></g><g transform="translate(37.666 77.069)"><path class="r" d="M326.449,430.823c-.069.038-.762-1.131-1.725-2.5s-1.824-2.417-1.765-2.469a15.749,15.749,0,0,1,3.49,4.966Z" transform="translate(-322.957 -425.855)"/></g><g transform="translate(6.901 27.41)"><path class="r" d="M267.106,330.452c.07.047-.955,1.549-1.846,3.59s-1.318,3.807-1.4,3.786a4.321,4.321,0,0,1,.208-1.175,17.9,17.9,0,0,1,2.312-5.254A4.33,4.33,0,0,1,267.106,330.452Z" transform="translate(-263.851 -330.452)"/></g><g transform="translate(29.738 15.35)"><path class="r" d="M313.377,309.266a15.727,15.727,0,0,1-5.652-1.976c.034-.071,1.263.462,2.821,1S313.394,309.188,313.377,309.266Z" transform="translate(-307.724 -307.283)"/></g></g><g transform="translate(116.986 96.908)"><g transform="translate(26.273 32.845)"><path class="t" d="M391.95,294.874a8.31,8.31,0,0,1-5.024,3.232,15.279,15.279,0,0,0,5.024-3.232Z" transform="translate(-386.925 -294.872)"/></g><path class="l" d="M382.993,261.139c-2.8-6.453-30.774-29.367-30.774-29.367l-15.769,20.477c.226-.308,25.728,15.227,25.728,15.227l7.524,34.288h0l1.293,6.1s-3.382,2.952-3.243,6.068c.093,2.079-4.708,6.562-4.708,6.562-1.135-.944-1.866-1.208-2.435-1.1l-5.075,4.751,1.209,1.1a7.008,7.008,0,0,0,4.94,1.829l8.677-.265a4.761,4.761,0,0,0,3.273-1.441c2.669-2.747,8.3-8.879,8.413-11.839.063-1.654.077-3.231.071-4.5C382.117,309.035,385.79,267.592,382.993,261.139Z" transform="translate(-336.451 -231.772)"/><g transform="translate(26.379 84.202)"><path class="l" d="M398.987,393.539a1.842,1.842,0,0,1-.481.309c-.321.179-.812.387-1.378.7a6.079,6.079,0,0,0-1.7,1.467,9.69,9.69,0,0,1-2.072,1.934,8.108,8.108,0,0,1-4.913,1.353,2.672,2.672,0,0,1-.893-.153.62.62,0,0,1-.418-.552.459.459,0,0,1,.18-.4c.092-.055.15-.043.149-.037s-.051.02-.117.079a.421.421,0,0,0-.111.354.509.509,0,0,0,.373.424,2.667,2.667,0,0,0,.844.1,8.312,8.312,0,0,0,4.761-1.386,9.931,9.931,0,0,0,2.037-1.877,5.983,5.983,0,0,1,1.794-1.468c.592-.3,1.089-.478,1.421-.627A3.5,3.5,0,0,1,398.987,393.539Z" transform="translate(-387.13 -393.537)"/></g><g transform="translate(31.441 88.715)"><path class="l" d="M399.683,402.214c.035.068-.68.489-1.452,1.146s-1.311,1.287-1.372,1.24a5.45,5.45,0,0,1,2.824-2.386Z" transform="translate(-396.854 -402.207)"/></g><g transform="translate(34.744 74.468)"><path class="l" d="M406.234,374.886c0,.079-.767.127-1.6.528s-1.37.953-1.427.9a3.241,3.241,0,0,1,3.03-1.428Z" transform="translate(-403.199 -374.836)"/></g><g transform="translate(22.47 89.205)"><path class="t" d="M389.5,405.342c-.02.043-.56-.224-1.491-.446a8.765,8.765,0,0,0-3.695-.074,8.377,8.377,0,0,0-1.022.275,3.907,3.907,0,0,1-.51.153.734.734,0,0,1-.557-.118l-1.379-1a8.888,8.888,0,0,1-1.225-.978,9.051,9.051,0,0,1,1.337.822l1.4.949c.224.173.5.045.846-.076a8,8,0,0,1,4.851-.136,6.929,6.929,0,0,1,1.081.41C389.379,405.247,389.508,405.326,389.5,405.342Z" transform="translate(-379.62 -403.149)"/></g></g><g transform="translate(0 91.656)"><path class="l" d="M202.183,238.8c-3.337-.953-4.817-1.368-4.817-1.368l.009-1.514,1.328-.015c1.327-.015,3.247-1.657,3.247-1.657l2.845-4.361.366-2.792c-.305-3.449-4.459-2.1-4.459-2.1-.2-1.2-5.514-2.411-9.511-3.153a9.2,9.2,0,0,0-7.618,2.008l-3.837,3.238-11.5,10.067-29.673,25.064-19.5-5.759s-6.2,18.977-7.215,25.792c-1.943,13.061,16.008,21.763,23.921,15.043,6.152-5.226,42.038-43.867,47.982-50.277.016,0,.034,0,.049,0,3.659-.467,9.825-4.161,9.825-4.161l3.17.374s8.424,1.609,9.421-.044C207,241.885,205.519,239.75,202.183,238.8Z" transform="translate(-111.702 -221.681)"/><g transform="translate(7.592 2.44)"><g transform="translate(64.055)"><g transform="translate(0 10.883)"><path class="m" d="M250.9,247.278c.017-.007.082.123.186.366a6.663,6.663,0,0,1,.341,1.065,9.537,9.537,0,0,1-1.135,7.139,6.665,6.665,0,0,1-.655.906c-.174.2-.276.3-.29.29-.038-.031.33-.481.78-1.293a10.453,10.453,0,0,0,1.113-7C251.069,247.838,250.858,247.295,250.9,247.278Z" transform="translate(-249.349 -247.277)"/></g><g transform="translate(3.705)"><path class="m" d="M256.466,226.627a1.536,1.536,0,0,1,.326-.062c.215-.03.532-.071.943-.109a14.621,14.621,0,0,1,3.494.041,8.377,8.377,0,0,1,2.327.693,6.3,6.3,0,0,1,2.216,1.7,4.544,4.544,0,0,1,1.065,2.888,3.561,3.561,0,0,1-.41,1.609,5.672,5.672,0,0,1-1.02,1.355,15.782,15.782,0,0,1-2.548,2,7.994,7.994,0,0,1-1.366.748,1.905,1.905,0,0,1-.78.131.993.993,0,0,1-.72-.363,1.159,1.159,0,0,1-.226-.744,2.335,2.335,0,0,1,.133-.714,5.021,5.021,0,0,1,.61-1.2,5.1,5.1,0,0,1,1.79-1.607l.029.181-3.55-.676-.963-.2a1.588,1.588,0,0,1-.333-.087,1.6,1.6,0,0,1,.343.033l.972.146,3.566.59.274.045-.245.136a4.938,4.938,0,0,0-1.7,1.564,4.818,4.818,0,0,0-.57,1.152,1.355,1.355,0,0,0,.062,1.226,1.044,1.044,0,0,0,1.215.145,7.9,7.9,0,0,0,1.312-.728,15.783,15.783,0,0,0,2.5-1.971,4.047,4.047,0,0,0,1.358-2.778,4.312,4.312,0,0,0-.995-2.728,6.114,6.114,0,0,0-2.119-1.651,8.33,8.33,0,0,0-2.26-.707,15.892,15.892,0,0,0-3.456-.125l-.945.059A1.54,1.54,0,0,1,256.466,226.627Z" transform="translate(-256.466 -226.369)"/></g><g transform="translate(10.511 1.046)"><path class="m" d="M276.421,228.379a2.063,2.063,0,0,1,.093.561,13.476,13.476,0,0,1,.061,1.549,9.952,9.952,0,0,1-1.3,4.925,6.106,6.106,0,0,1-4.018,3.041,1.689,1.689,0,0,1-1.467-.5,1.094,1.094,0,0,1-.221-.371c-.031-.094-.032-.146-.025-.148a2.207,2.207,0,0,0,.322.446,1.617,1.617,0,0,0,1.369.388,6.138,6.138,0,0,0,3.808-2.991,10.435,10.435,0,0,0,1.337-4.792C276.447,229.188,276.374,228.382,276.421,228.379Z" transform="translate(-269.543 -228.379)"/></g><g transform="translate(10.022 10.184)"><path class="m" d="M268.605,251.661c-.029-.033.242-.27.562-.735a4.229,4.229,0,0,0,.4-4.162c-.224-.518-.445-.8-.41-.829a1.854,1.854,0,0,1,.582.746,3.963,3.963,0,0,1-.423,4.36C268.943,251.5,268.623,251.685,268.605,251.661Z" transform="translate(-268.603 -245.934)"/></g><g transform="translate(0.459 6.044)"><path class="m" d="M254.738,237.981a1.709,1.709,0,0,1,.167,1.139,3.052,3.052,0,0,1-.363,1.215,5.736,5.736,0,0,1-.886,1.261,6.512,6.512,0,0,1-2.338,1.5,4.362,4.362,0,0,1-1.086.361,5.374,5.374,0,0,1,1.007-.536,7.407,7.407,0,0,0,2.219-1.507,6.152,6.152,0,0,0,.865-1.2,3.129,3.129,0,0,0,.392-1.119A5.233,5.233,0,0,0,254.738,237.981Z" transform="translate(-250.231 -237.981)"/></g><g transform="translate(12.458 7.584)"><path class="k" d="M287.923,240.939l-14.64,7.982a34.241,34.241,0,0,1,14.921,9.46,43.122,43.122,0,0,1,8.912,14.175l14.589-9.706S303.872,245.082,287.923,240.939Z" transform="translate(-273.283 -240.939)"/><g transform="translate(2.58 0.906)"><path class="j" d="M278.24,249.456l11.823-6.757.034-.019.039.01a25.493,25.493,0,0,1,5.981,2.465,33.478,33.478,0,0,1,5.965,4.382,46.053,46.053,0,0,1,5.507,6.03,50.942,50.942,0,0,1,4.751,7.368l.055.105-.1.068-.767.513-11.255,7.521-.132.088-.06-.146a41.375,41.375,0,0,0-6.487-10.876,36.976,36.976,0,0,0-7.393-6.729,33.51,33.51,0,0,0-5.747-3.186c-.706-.3-1.261-.5-1.638-.638l-.431-.146c-.1-.035-.147-.052-.144-.052l.152.031.436.125c.382.12.943.313,1.657.6a32.182,32.182,0,0,1,5.8,3.132,36.658,36.658,0,0,1,7.472,6.721,41.3,41.3,0,0,1,6.558,10.919l-.192-.058,11.248-7.531.767-.513-.046.172a51.017,51.017,0,0,0-4.718-7.327,46.124,46.124,0,0,0-5.465-6.008,33.465,33.465,0,0,0-5.908-4.37,25.476,25.476,0,0,0-5.919-2.474l.072-.009Z" transform="translate(-278.24 -242.68)"/></g><g transform="translate(15.133 7.247)"><path class="r" d="M313.772,260.106c-.382,2.253-3.237,3.618-6.377,3.047s-5.377-2.861-5-5.115,3.237-3.618,6.377-3.047S314.153,257.852,313.772,260.106Z" transform="translate(-302.357 -254.861)"/></g><g transform="translate(18.243 8.472)"><path class="k" d="M309.816,261.961l-.506.56-.584-.567.488-.539a3.747,3.747,0,0,1-.884-1.58l.982-.428a3.073,3.073,0,0,0,.809,1.44c.4.388.659.423.814.252.506-.56-1.8-2.033-.613-3.344a1.525,1.525,0,0,1,2.189.016l.5-.555.584.567-.492.544a3.379,3.379,0,0,1,.717,1.257l-.967.452a2.878,2.878,0,0,0-.7-1.189c-.4-.392-.677-.393-.837-.217-.488.539,1.807,2.013.631,3.313A1.514,1.514,0,0,1,309.816,261.961Z" transform="translate(-308.33 -257.215)"/></g><g transform="translate(2.372 5.804)"><path class="r" d="M281.39,252.09s2.481,1.26.1,3.1l-3.647-1.415Z" transform="translate(-277.84 -252.09)"/></g><g transform="translate(12.592 1.01)"><path class="r" d="M297.474,243.924s2.393,2.529,4.681-.1l-2.822-.943Z" transform="translate(-297.474 -242.879)"/></g><g transform="translate(23.035 25.007)"><path class="r" d="M317.536,289.915s3.222-2.616,5.105.913l-3.6,2.408Z" transform="translate(-317.536 -288.982)"/></g><g transform="translate(33.628 18.357)"><path class="r" d="M339.184,276.2s-2.325,1.454-.748,4.458l2.382-1.593Z" transform="translate(-337.887 -276.205)"/></g><g transform="translate(24.349 25.788)"><path class="k" d="M322.011,291.493a.975.975,0,1,1-.974-1.011A.993.993,0,0,1,322.011,291.493Z" transform="translate(-320.062 -290.482)"/></g><g transform="translate(34.119 19.576)"><path class="k" d="M340.779,279.558a.975.975,0,1,1-.974-1.01A.994.994,0,0,1,340.779,279.558Z" transform="translate(-338.83 -278.548)"/></g><g transform="translate(13.721 1.306)"><path class="k" d="M301.873,244.1c0,.359-.5.65-1.115.65s-1.115-.292-1.114-.651.5-.651,1.115-.65S301.873,243.74,301.873,244.1Z" transform="translate(-299.643 -243.448)"/></g><g transform="translate(4.272 6.489)"><path class="k" d="M283.653,254.271a1.109,1.109,0,1,1-1.081-.866A.992.992,0,0,1,283.653,254.271Z" transform="translate(-281.49 -253.405)"/></g><g transform="translate(12.339 5.81)"><path class="r" d="M300.062,253.1c0,.553-.689,1-1.537,1s-1.537-.45-1.536-1,.689-1,1.537-1S300.062,252.551,300.062,253.1Z" transform="translate(-296.989 -252.101)"/></g><g transform="translate(25.674 16.991)"><path class="r" d="M324.677,276.778a1.5,1.5,0,0,1-1.909-.978,1.6,1.6,0,0,1,.6-2.117,1.5,1.5,0,0,1,1.909.977A1.6,1.6,0,0,1,324.677,276.778Z" transform="translate(-322.607 -273.582)"/></g></g><g transform="translate(17.763 4.416)"><g transform="translate(0.837 1.188)"><path class="m" d="M285.083,241.653l6.009,6.324s2.4,2.75,4.024,1.451-.655-3.731-1.135-4.437-6.369-7.856-6.369-7.856Z" transform="translate(-285.083 -237.135)"/></g><path class="m" d="M287.411,234.853a3.757,3.757,0,0,1-.231,1.1,11.7,11.7,0,0,1-1.067,2.493,8.4,8.4,0,0,1-1.708,2.112,3.042,3.042,0,0,1-.93.633,9.593,9.593,0,0,1,.8-.773,10.3,10.3,0,0,0,1.605-2.109A33.226,33.226,0,0,0,287.411,234.853Z" transform="translate(-283.474 -234.852)"/></g></g><g transform="translate(0 29.18)"><path class="m" d="M156.112,282.429a2.232,2.232,0,0,1-.281.275l-.84.75-3.127,2.712c-2.651,2.277-6.331,5.4-10.43,8.814s-7.85,6.457-10.605,8.61c-1.374,1.081-2.5,1.932-3.293,2.509l-.917.654a2.15,2.15,0,0,1-.33.213,2.133,2.133,0,0,1,.3-.257l.885-.694c.768-.6,1.88-1.476,3.238-2.575,2.722-2.19,6.45-5.258,10.551-8.668l10.48-8.753,3.182-2.646.873-.711A2.091,2.091,0,0,1,156.112,282.429Z" transform="translate(-126.289 -282.428)"/></g></g></g></g></g></svg>