<svg xmlns="http://www.w3.org/2000/svg" width="52.166" height="53.297" viewBox="0 0 52.166 53.297"><defs><style>.a{fill:#bfbfbf;}</style></defs><path class="a" d="M82.335,29.3H48.123c-.954,0-1.025.071-1.06,1.025V67.4a.584.584,0,0,0,.672.672c.495,0,1.025.035,1.52,0,.6-.035.848.212.848.813-.035.636,0,1.237,0,1.873a2.175,2.175,0,0,0,.247,1.166,4.133,4.133,0,0,0,3.676,2.227c5.125-.071,10.249-.035,15.374-.035a6.809,6.809,0,0,1,.848.035,1.212,1.212,0,0,1,.954.919,1.082,1.082,0,0,1-.389,1.131,1.6,1.6,0,0,1-1.237.353H41.9a2.225,2.225,0,0,1-2.121-2.121V71.468c0-.848.106-.954.919-.954h2.863c.99,0,1.06-.071,1.06-1.06V27.96c0-.954-.071-1.06-1.025-1.06H32.466c-1.1,0-1.166.035-1.166,1.166V69.488c0,.919.071,1.025.99,1.025h2.969c.742,0,.884.106.884.884v4.135a2.481,2.481,0,0,0,.636,1.767c.6.707,1.308,1.343,1.944,1.979a3.349,3.349,0,0,0,2.545.919c4.595-.035,9.189,0,13.819,0H70.707a3.3,3.3,0,0,0,2.121-.742c1.449-1.2,2.474-2.545,2.121-4.559V74.79a2.521,2.521,0,0,0-.742-2.085c-.353-.353-.672-.707-.99-1.06a3.61,3.61,0,0,0-2.863-1.131c-5.16.035-10.285.035-15.445,0-1.06,0-1.131-.071-1.131-1.131,0-1.272,0-1.272,1.272-1.272h27.32c1.025,0,1.1-.071,1.1-1.06V30.4C83.4,29.374,83.36,29.3,82.335,29.3ZM59.115,63.233H54.52c-.53,0-.778-.212-.778-.742V60.3a.62.62,0,0,1,.707-.707h4.665a.584.584,0,0,1,.672.672v2.3A.6.6,0,0,1,59.115,63.233Zm.672-6.751c0,.495-.247.672-.707.672H54.485c-.495,0-.742-.212-.742-.742V54.22c0-.53.247-.742.742-.707H59.08c.495,0,.707.212.707.707Zm-6.044-8.306a.62.62,0,0,1,.707-.707h4.665a.584.584,0,0,1,.672.672v2.3a.584.584,0,0,1-.672.672H54.45a.62.62,0,0,1-.707-.707ZM67.6,63.233H63c-.53,0-.778-.212-.778-.742V60.3c0-.495.212-.707.707-.707H67.6a.588.588,0,0,1,.672.636v2.3C68.269,62.985,68.057,63.233,67.6,63.233Zm.672-6.786a.62.62,0,0,1-.707.707H62.9a.62.62,0,0,1-.707-.707V54.326c0-.565.212-.813.778-.813.742.035,1.484,0,2.227,0h2.227c.565,0,.813.247.778.813C68.269,55.033,68.269,55.74,68.269,56.447Zm-6.044-8.306a.584.584,0,0,1,.672-.672h4.736a.6.6,0,0,1,.672.672v2.227c0,.53-.247.707-.742.707H63.038c-.495,0-.778-.177-.742-.707C62.225,49.661,62.225,48.919,62.225,48.141ZM75.974,63.233c-.778-.035-1.52,0-2.3,0H71.485c-.565,0-.813-.247-.778-.813.035-.707,0-1.414,0-2.121a.62.62,0,0,1,.707-.707H76.08a.62.62,0,0,1,.707.707V62.42C76.751,62.985,76.539,63.233,75.974,63.233Zm.778-12.83a.62.62,0,0,1-.707.707H71.379a.584.584,0,0,1-.672-.672v-2.3a.6.6,0,0,1,.672-.672h4.665a.62.62,0,0,1,.707.707Zm-5.337,3.146h4.524c.53,0,.778.212.778.742v2.191a.62.62,0,0,1-.707.707H71.344c-.495,0-.707-.247-.672-.707V54.291C70.707,53.761,70.919,53.513,71.414,53.549Zm5.337-13.112c0,.884-.106.99-.954.99H54.768c-.954,0-1.025-.071-1.025-1.06V36.2c0-.6.212-.848.813-.848H75.938c.6,0,.813.247.813.848Q76.751,38.316,76.751,40.436Z" transform="translate(-31.3 -26.9)"/></svg>