<svg xmlns="http://www.w3.org/2000/svg" width="80.114" height="223.212" viewBox="0 0 80.114 223.212"><defs><style>.a{fill:#07085b;}.b{fill:#f2f2f2;}.c{fill:#c4c9ce;}.d{fill:#fff;}.d,.e,.m{opacity:0.3;}.e,.g,.k{fill:#daeef7;}.f{fill:#333;}.h{fill:#446284;}.i{fill:#55769f;}.j{fill:#0048cd;}.k{mix-blend-mode:multiply;isolation:isolate;}.l{fill:#0894fe;}.m{fill:#05ad99;}</style></defs><g transform="translate(-121.537 -56.914)"><path class="a" d="M207.909,460.807v5.816a.87.87,0,0,0,.871.87h13.639a.985.985,0,0,0,.53-1.816l-7.472-4.869A7.66,7.66,0,0,1,207.909,460.807Z" transform="translate(-40.068 -187.366)"/><path class="a" d="M161.07,460.807v5.816a.87.87,0,0,0,.871.87H175.58a.985.985,0,0,0,.53-1.816l-7.472-4.869A7.659,7.659,0,0,1,161.07,460.807Z" transform="translate(-18.34 -187.366)"/><g transform="translate(148.546 56.914)"><path class="b" d="M233.508,97.4c-.688,1.867-.033,3.826,1.463,4.376s3.267-.518,3.955-2.386.033-3.827-1.463-4.376S234.2,95.536,233.508,97.4Z" transform="translate(-200.362 -74.523)"/><path class="b" d="M186.371,119.751s-1.273,12.006-3.459,15.418c0,0,6.388,8.567,14.841,3.39,0,0,1.082-10.206,2.539-12.48S186.371,119.751,186.371,119.751Z" transform="translate(-177.018 -86.064)"/><path class="c" d="M188.666,119.751s-.281,2.654-.806,5.82a13.883,13.883,0,0,0,9.551,5.388,13.685,13.685,0,0,0,3.771-.125,16.845,16.845,0,0,1,1.406-4.755C204.045,123.8,188.666,119.751,188.666,119.751Z" transform="translate(-179.313 -86.064)"/><path class="b" d="M205.976,92.391a28.444,28.444,0,0,0,1.3-7.13c.029-.472.086-.941.152-1.41a15.414,15.414,0,1,0-30.674-1.608,3.334,3.334,0,0,0-3.007-.13c-1.8.878-2.368,3.412-1.269,5.658s3.45,3.357,5.251,2.478a2.94,2.94,0,0,0,.675-.459,14.447,14.447,0,0,0,14.817,12.729A14.182,14.182,0,0,0,205.976,92.391Z" transform="translate(-171.917 -61.279)"/><g transform="translate(13.53 17.75)"><path class="d" d="M202.026,90.023l-4.872,5.9,1.63,1.589,4.873-6.593Z" transform="translate(-197.154 -90.023)"/><path class="d" d="M205.822,92.774s-4.754,6.2-4.773,6.275l.318.314,4.873-6.184Z" transform="translate(-198.961 -91.299)"/></g><path class="e" d="M204.568,94.274a3.958,3.958,0,1,1-3.958-3.952A3.955,3.955,0,0,1,204.568,94.274Z" transform="translate(-183.392 -72.412)"/><path class="f" d="M207.246,96.814a1.345,1.345,0,1,1-1.412-1.273A1.344,1.344,0,0,1,207.246,96.814Z" transform="translate(-187.059 -74.832)"/><path class="f" d="M226.1,96.831a1.345,1.345,0,1,1-1.412-1.273A1.344,1.344,0,0,1,226.1,96.831Z" transform="translate(-195.805 -74.84)"/><path class="g" d="M203.139,88.1a14.094,14.094,0,0,0-1.961-.5,6.871,6.871,0,0,0-1.866-.073,6.337,6.337,0,0,0-1.8.442l-.229.08c-.076.028-.145.072-.22.1-.147.071-.3.14-.454.207-.306.145-.591.33-.933.472a5.589,5.589,0,0,1,.611-.888c.126-.129.256-.256.39-.381a2.39,2.39,0,0,1,.436-.338,4.349,4.349,0,0,1,2.1-.766,4.539,4.539,0,0,1,2.208.335A4.128,4.128,0,0,1,203.139,88.1Z" transform="translate(-182.938 -70.61)"/><path class="g" d="M219.714,88.1a4.124,4.124,0,0,1,1.72-1.306,4.538,4.538,0,0,1,2.208-.335,4.351,4.351,0,0,1,2.1.766,2.387,2.387,0,0,1,.435.338c.135.125.265.253.391.381a5.591,5.591,0,0,1,.611.888c-.343-.142-.628-.327-.933-.472-.155-.068-.307-.136-.454-.207-.075-.033-.144-.076-.22-.1l-.228-.08a6.346,6.346,0,0,0-1.8-.442,6.871,6.871,0,0,0-1.866.073A14.093,14.093,0,0,0,219.714,88.1Z" transform="translate(-194.09 -70.61)"/><path class="g" d="M182.473,98.4c-.915-4.765,1.889-5.553,2.774-4.408s-.269,10.445,4.326,10.068c2.885-.237,6.384-1.847,11.994-1.251,4.6.488,8.293,2.68,10.083-1.609,0,0,2.447,14.675-13.425,14.715-16.072.04-15.752-17.515-15.752-17.515Z" transform="translate(-176.73 -73.9)"/><path class="c" d="M207.2,114.584a8.852,8.852,0,0,0,2.014,1.081,6.833,6.833,0,0,0,2.208.45,5.831,5.831,0,0,0,2.209-.384,8.119,8.119,0,0,0,1.972-1.147,6.222,6.222,0,0,1-1.892,1.338,5.5,5.5,0,0,1-1.12.359,5.838,5.838,0,0,1-1.175.1,6.1,6.1,0,0,1-2.279-.528A6.7,6.7,0,0,1,207.2,114.584Z" transform="translate(-188.285 -83.667)"/><path class="a" d="M193.22,89.573a4.346,4.346,0,0,0-3.646,6.734.76.76,0,0,0-.6.933,4.967,4.967,0,0,1-4.51.645c-2.637-1.132-3.748-4.818-3.757-4.858l-.273-.129c.035.17,1.157,4.045,3.924,5.233a3.977,3.977,0,0,0,1.584.321,6.416,6.416,0,0,0,3.139-.967.772.772,0,0,0,1.385-.191,4.355,4.355,0,1,0,2.757-7.722Zm0,8.17a3.817,3.817,0,1,1,3.823-3.817A3.824,3.824,0,0,1,193.22,97.743Z" transform="translate(-175.867 -72.065)"/><path class="c" d="M215.561,90.023a12.054,12.054,0,0,0,.184,3.374,9.3,9.3,0,0,0,.475,1.667,4.387,4.387,0,0,0,1,1.574c.551.434.813.555.983.972a1.514,1.514,0,0,1-.087,1.22,4.665,4.665,0,0,1-2.333,1.994,3.824,3.824,0,0,0,3.062-1.58,2.3,2.3,0,0,0,.318-1.969,2.845,2.845,0,0,0-1.221-1.431,4.187,4.187,0,0,1-.8-1.188,14.027,14.027,0,0,1-.6-1.475C216.2,92.158,215.9,91.1,215.561,90.023Z" transform="translate(-192.142 -72.273)"/><path class="g" d="M203.612,67.1c9.671-.189,9.618-6.054,9.618-6.054l-.258.258a6.134,6.134,0,0,1-2.241.6c1.667-4.16-3.332-4.992-3.332-4.992s3.332,3.328-4.166,3.328c-4.919,0-7.328,1.074-8.4,1.813-1.9,1.3-.509,3.506,1.215,4.6a12.872,12.872,0,0,0,8.358,1.509c.565-.085,1.127-.167,1.683-.286-.57-.06-1.133-.083-1.694-.109a23.837,23.837,0,0,1-7.115-1.238A23.05,23.05,0,0,0,203.612,67.1Z" transform="translate(-182.122 -56.914)"/></g><path class="h" d="M213.874,275.258c-8.011,8.442-24.632-.1-24.632-.1l2.728,39.406,6.907,61.032s6.429,1.223,10.1-.764C208.98,374.836,214.4,298.949,213.874,275.258Z" transform="translate(-31.409 -101.245)"/><path class="i" d="M148.454,274.34a21.928,21.928,0,0,1,1.061-4.357c.412,0,17.311-2.332,18.272-2.195s24.259,4.876,24.259,4.876-14.266,15.83-26.132,19.4c-1.147,31.57-4.558,79.349-4.558,79.349-3.673,1.987-10.1.764-10.1.764l-6.907-61.032-2.728-39.406A41.073,41.073,0,0,0,148.454,274.34Z" transform="translate(-9.316 -97.822)"/><path class="b" d="M252.283,277.22a.382.382,0,0,1,.453-.5c4.55,1.1,4.967.92,4.974.395,0-.305-3.373-2.748-6.394-4.872l.024.04-3.725,2.341s-5.1,2.144-5.227,2.188l-.01,0c.073.369.114.611.114.611,3.329,9.846,3.572,9.742,3.951,9.68s.172-4.495.608-4.4,2.632,5.785,2.949,5.345-1.07-5.943-.717-5.968,2.391,5.5,3.118,5.188-1.71-6.291-1.031-6.3,3.02,6.174,3.637,5.782C255.526,286.419,253.076,279.435,252.283,277.22Z" transform="translate(-56.059 -99.892)"/><path class="j" d="M222.494,139.357s12.766,2.966,15.175,28.217,4.577,37.516,7.467,41.845c0,0,0,3.1-13.729,7.24,0,0-4.095-7.721-4.335-9.164s-2.168-52.186-2.168-52.186Z" transform="translate(-46.834 -38.245)"/><path class="g" d="M200.817,139.357h-25.05s5.46,21.323,14.452,19.56,11.366-14.472,11.366-14.472Z" transform="translate(-25.158 -38.245)"/><path class="k" d="M191.314,152.26l5.84-4.409,5.982,4.409-5.07,8.332s-2.962,0-3.02-.4-3.732-7.679-3.732-7.679Z" transform="translate(-32.37 -42.186)"/><path class="h" d="M195.673,161.1l2.882-7.736h1.6l2.553,8.365-2.99,5.684Z" transform="translate(-34.392 -44.745)"/><path class="l" d="M175.767,139.357h3.671s5.491,12.46,10.732,16.783a47.6,47.6,0,0,0,8.09-16.783h2.557v17.921s-4.722,10.694-7.8,8.987-6.723-.8-8.774-5.688-4.258-5.688-4.807-8.987a30.626,30.626,0,0,0-1.985-6.94C176.611,142.375,175.767,139.357,175.767,139.357Z" transform="translate(-25.158 -38.245)"/><path class="j" d="M182.939,139.357a29.317,29.317,0,0,1,9.956,24.69c-1.284,16.033-3.837,42.142-2.552,47.593,1.213,5.145-22.344,8.307-46.867,3.253a5.992,5.992,0,0,1-4.758-5.346l-1.061-12.153s-.963-12.48,0-19.387,7.066-19.091,8.029-25.183,12.2-13.467,12.2-13.467,8.35,15.712,14.452,19.56C172.341,158.917,179.727,155.39,182.939,139.357Z" transform="translate(-7.279 -38.245)"/><path class="g" d="M182.615,137.128l2.435-2.576s8.551,4.749,14.14,1.114l2.247,1.462-2.844,2.563s-11.513.91-11.665.606S182.615,137.128,182.615,137.128Z" transform="translate(-28.334 -36.016)"/><path class="i" d="M197.154,149.9l2.709-2.046,2.6,1.92-1.382,1.564a1.51,1.51,0,0,1-2.123.138Z" transform="translate(-35.079 -42.186)"/><g transform="translate(129.949 170.139)"><path class="f" d="M159.888,378.1h-4.871V282a9.061,9.061,0,0,0-2.493-6.322,8.816,8.816,0,0,0-6.372-2.7h-6.488a2.433,2.433,0,0,1-2.435-2.432h0a2.433,2.433,0,0,1,2.435-2.431h6.265a14.039,14.039,0,0,1,10.031,4.112,13.611,13.611,0,0,1,3.929,9.6Z" transform="translate(-137.228 -268.116)"/></g><path class="m" d="M185.992,212.812,180.9,217.9l-5.092-5.084-5.092,5.084-5.092-5.084-5.092,5.084-5.092-5.084-5.092,5.084-5.092-5.084-5.01,5-2.87-2.866c-.132,2.04-.164,4.291-.142,6.458l3.012-3.008,4.8,4.792-4.8,4.792-2.93-2.925c.1,2.945.26,5.314.317,6.118l2.612-2.609,4.732,4.724-4.732,4.724-2.212-2.209.4,4.6,1.811-1.808,5.01,5,5.092-5.084,5.092,5.084,5.092-5.084,5.092,5.084,5.092-5.084,5.092,5.084,5.092-5.084,5.092,5.084,4-4c.009-.8.027-1.644.055-2.539l-3.78-3.774,4.171-4.164q.049-.791.1-1.6L186.2,223.19l4.881-4.873.128.128q.029-.367.058-.734l-.186.185ZM150.349,238.1l-4.813-4.805,4.813-4.806,4.813,4.806Zm0-10.032-4.881-4.873,4.881-4.873,4.881,4.873ZM160.533,238.1l-4.813-4.805,4.813-4.806,4.813,4.806Zm0-10.032-4.881-4.873,4.881-4.873,4.881,4.873ZM170.717,238.1,165.9,233.29l4.813-4.806,4.813,4.806Zm0-10.032-4.881-4.873,4.881-4.873,4.881,4.873ZM180.9,238.1l-4.813-4.805,4.813-4.806,4.813,4.806Zm0-10.032-4.881-4.873,4.881-4.873,4.881,4.873Z" transform="translate(-7.279 -72.321)"/><path class="b" d="M158.162,264.924c-3.536-1.94-7.957-1.794-11.543-1.146-.174.041-.348.082-.522.125-2.809.692-2.647,2.232-2.413,2.927a.541.541,0,0,0,.519.352c.44,0,1,.016,1.767.077,4.447.351.165,5.6,1.9,5.623,2.189.031,1.612-4.734,2.755-4.647,2.149.163-.439,4.4.982,4.644,1.555.269.283-4.839,2.753-4.689,1.324.08-.348,4.76,1.2,4.425,1.628-.352.254-4.476,1.761-4.4,2.229.109-.537,4.2,1.111,4.428C159.421,272.775,160.667,266.3,158.162,264.924Z" transform="translate(-10.22 -95.762)"/><path class="j" d="M150.609,139.357a38.79,38.79,0,0,0-22.16,16.434c-8.189,13.227-10.732,24.529,1.5,51.223,0,0,11.749,1.684,14.4-1.2l-8.274-26.695,16.222-19Z" transform="translate(0 -38.245)"/><path class="g" d="M156.062,182.532c-1.859,2.044-3.744,4.064-5.686,6.025s-3.936,3.87-6.043,5.647a37.349,37.349,0,0,1-3.294,2.489,13.327,13.327,0,0,1-3.692,1.822,9.2,9.2,0,0,0,1.976-.645l.477-.214c.157-.076.308-.16.463-.24l.462-.244.449-.265c.65-.391,1.281-.812,1.9-1.252.157.759.322,1.517.507,2.27.165.713.332,1.425.52,2.132s.36,1.418.55,2.124q.576,2.117,1.208,4.218c.842,2.8,1.709,5.594,2.654,8.362.925,2.715,1.876,5.419,2.874,8.11a11.923,11.923,0,0,1-3.227,1.186,21.494,21.494,0,0,1-3.614.469,35.8,35.8,0,0,1-3.662,0c-1.221-.066-2.441-.179-3.652-.358a33.236,33.236,0,0,0,3.642.5,31.351,31.351,0,0,0,3.681.114,21.793,21.793,0,0,0,3.673-.4,11.837,11.837,0,0,0,3.5-1.244l.143-.08-.057-.158c-1-2.743-1.949-5.506-2.872-8.276s-1.837-5.544-2.687-8.337-1.675-5.594-2.4-8.421q-.3-1.172-.577-2.35.667-.483,1.313-.992c1.09-.862,2.134-1.778,3.162-2.708s2.013-1.909,2.993-2.889,1.926-1.994,2.864-3.013,1.857-2.056,2.756-3.109q2.711-3.147,5.2-6.474Q158.85,179.465,156.062,182.532Z" transform="translate(-7.279 -55.393)"/></g></svg>