<svg xmlns="http://www.w3.org/2000/svg" width="302" height="165.43" viewBox="0 0 302 165.43"><defs><style>.a{fill:#f5f5f5;}.b{fill:#e0e0e0;}.c{fill:#ebebeb;}.d{fill:#fafafa;}.e{fill:#fff;}.f{fill:#263238;}.g{fill:#0894fe;}.h{fill:#f2f2f2;}.i{fill:#c4c9ce;}.j{opacity:0.6;}.k{opacity:0.2;}.l{fill:#75c6fa;}</style></defs><g transform="translate(-58.638 -70.854)"><g transform="translate(58.638 70.854)"><g transform="translate(83.978 14.858)"><rect class="a" width="27.021" height="36.976" transform="translate(0 5.704) rotate(-12.187)"/></g><g transform="translate(146.118)"><rect class="a" width="90.02" height="58.54"/><g transform="translate(30.25 12.035)"><g transform="translate(0 0)"><circle class="b" cx="12.25" cy="12.25" r="12.25" transform="matrix(0.232, -0.973, 0.973, 0.232, 0, 23.829)"/></g><g transform="translate(12.479 11.066)"><path class="a" d="M461.291,123.02l-3.2,1.847-3.2,1.847v-7.388l3.2,1.847Z" transform="translate(-454.893 -119.327)"/></g></g><g transform="translate(0 48.024)"><rect class="b" width="90.02" height="10.516"/></g><g transform="translate(6.152 51.783)"><path class="a" d="M380.741,181.008l-1.3.749-1.3.75v-3l1.3.749Z" transform="translate(-378.144 -179.509)"/></g><g transform="translate(16.21 53.043)"><rect class="a" width="66.402" height="0.477"/></g><g transform="translate(15.574 52.292)"><path class="a" d="M399.895,181.567a.99.99,0,1,1-.99-.989A.99.99,0,0,1,399.895,181.567Z" transform="translate(-397.915 -180.578)"/></g></g><g transform="translate(209.838 42.162)"><rect class="a" width="92.162" height="83.057" rx="5.487"/><path class="c" d="M6.409,0H85.752a6.409,6.409,0,0,1,6.409,6.409V9.274a0,0,0,0,1,0,0H0a0,0,0,0,1,0,0V6.409A6.409,6.409,0,0,1,6.409,0Z"/><g transform="translate(4.897 3.925)"><circle class="d" cx="0.727" cy="0.727" r="0.727"/></g><g transform="translate(9.259 3.925)"><path class="d" d="M519.819,168.286a.727.727,0,1,1-.727-.727A.727.727,0,0,1,519.819,168.286Z" transform="translate(-518.365 -167.559)"/></g><g transform="translate(13.62 3.925)"><circle class="d" cx="0.727" cy="0.727" r="0.727"/></g><g transform="translate(46.279 16.75)"><rect class="d" width="34.801" height="1.26"/></g><g transform="translate(46.279 21.933)"><rect class="d" width="34.801" height="1.26"/></g><g transform="translate(46.279 27.117)"><rect class="d" width="34.801" height="1.26"/></g><g transform="translate(46.279 32.3)"><rect class="d" width="34.801" height="1.26"/></g><g transform="translate(46.279 37.483)"><rect class="d" width="17.4" height="1.26"/></g><g transform="translate(9.316 47.677)"><rect class="d" width="34.801" height="1.26" transform="translate(34.801 1.26) rotate(180)"/></g><g transform="translate(9.316 52.86)"><rect class="d" width="34.801" height="1.26" transform="translate(34.801 1.26) rotate(180)"/></g><g transform="translate(9.316 58.043)"><rect class="d" width="34.801" height="1.26" transform="translate(34.801 1.26) rotate(180)"/></g><g transform="translate(9.316 63.227)"><rect class="d" width="34.801" height="1.26" transform="translate(34.801 1.26) rotate(180)"/></g><g transform="translate(26.716 68.41)"><rect class="d" width="17.4" height="1.26" transform="translate(17.4 1.26) rotate(180)"/></g><g transform="translate(50.078 46.284)"><g transform="translate(0.051)"><rect class="d" width="29.78" height="24.778"/></g><g transform="translate(0 7.206)"><path class="c" d="M604.016,281.649l8.8-6.166,6.141,4.248,9.657-8.172,5.233,5.183v12.389h-29.78Z" transform="translate(-604.016 -271.56)"/></g><g transform="translate(12.961 4.712)"><circle class="c" cx="2.494" cy="2.494" r="2.494"/></g></g><g transform="translate(9.265 15.987)"><g transform="translate(0.051)"><rect class="d" width="29.78" height="24.778"/></g><g transform="translate(0 7.206)"><path class="c" d="M518.379,218.078l8.8-6.166,6.141,4.248,9.657-8.172,5.233,5.183V225.56H518.43Z" transform="translate(-518.379 -207.988)"/></g><g transform="translate(12.961 4.712)"><circle class="c" cx="2.494" cy="2.494" r="2.494"/></g></g></g><g transform="translate(0 80.87)"><path class="a" d="M0,0H110.874a0,0,0,0,1,0,0V55.4a4.651,4.651,0,0,1-4.651,4.651H4.651A4.651,4.651,0,0,1,0,55.4V0A0,0,0,0,1,0,0Z"/><rect class="c" width="110.874" height="11.157"/><g transform="translate(5.891 4.722)"><circle class="d" cx="0.875" cy="0.875" r="0.875"/></g><g transform="translate(11.138 4.722)"><circle class="d" cx="0.875" cy="0.875" r="0.875"/></g><g transform="translate(16.386 4.722)"><circle class="d" cx="0.875" cy="0.875" r="0.875"/></g><g transform="translate(55.675 20.151)"><rect class="c" width="41.866" height="1.515"/></g><g transform="translate(55.675 26.387)"><rect class="c" width="41.866" height="1.515"/></g><g transform="translate(55.675 32.622)"><rect class="c" width="41.866" height="1.515"/></g><g transform="translate(55.675 38.857)"><rect class="c" width="41.866" height="1.515"/></g><g transform="translate(55.675 45.093)"><rect class="c" width="20.933" height="1.515"/></g><g transform="translate(9.161 19.09)"><g transform="translate(0.061)"><rect class="d" width="35.826" height="29.809"/></g><g transform="translate(0 8.669)"><path class="c" d="M77.861,310.926l10.587-7.418,7.387,5.111,11.618-9.831,6.295,6.235v14.9H77.922Z" transform="translate(-77.861 -298.788)"/></g><g transform="translate(15.593 5.668)"><path class="c" d="M116.581,295.493a3,3,0,1,1-3-3A3,3,0,0,1,116.581,295.493Z" transform="translate(-110.579 -292.492)"/></g></g></g></g><g transform="translate(139.136 92.105)"><g transform="translate(0.147 0.133)"><rect class="e" width="27.021" height="36.976" transform="translate(0 5.704) rotate(-12.187)"/></g><path class="f" d="M261.912,151.719s-.018-.061-.045-.176-.067-.29-.117-.509c-.1-.455-.249-1.115-.439-1.972l-1.633-7.417L254,115.6l.133.086L227.723,121.4h0l.1-.147L235.6,157.4l-.12-.078,19.193-4.091,5.342-1.127,1.408-.293c.32-.065.491-.095.491-.095s-.154.041-.465.112l-1.385.311-5.308,1.173-19.233,4.208-.1.022-.021-.1c-2.2-10.142-4.9-22.639-7.828-36.138l-.026-.121.122-.026h0l26.412-5.692.11-.024.023.11,5.589,26.141,1.568,7.4.408,1.955.1.5C261.9,151.665,261.912,151.719,261.912,151.719Z" transform="translate(-227.546 -115.443)"/><g transform="translate(5.034 9.608)"><path class="f" d="M250.944,135.609c.014.067-2.848.742-6.391,1.507s-6.43,1.332-6.444,1.265,2.847-.742,6.391-1.507S250.929,135.542,250.944,135.609Z" transform="translate(-238.109 -135.604)"/></g><g transform="translate(5.712 11.251)"><path class="f" d="M259.309,139.055c.014.067-4.4,1.078-9.862,2.257s-9.9,2.082-9.915,2.014,4.4-1.077,9.863-2.257S259.294,138.988,259.309,139.055Z" transform="translate(-239.532 -139.052)"/></g><g transform="translate(6.42 14.528)"><path class="f" d="M260.794,145.93c.014.067-4.4,1.078-9.862,2.257s-9.9,2.082-9.915,2.014,4.4-1.077,9.863-2.257S260.779,145.863,260.794,145.93Z" transform="translate(-241.017 -145.927)"/></g><g transform="translate(7.127 17.804)"><path class="f" d="M262.278,152.805c.015.067-4.4,1.078-9.862,2.257s-9.9,2.082-9.915,2.014,4.4-1.077,9.863-2.257S262.264,152.738,262.278,152.805Z" transform="translate(-242.501 -152.802)"/></g><g transform="translate(7.835 21.081)"><path class="f" d="M263.763,159.68c.015.067-4.4,1.078-9.862,2.257s-9.9,2.082-9.915,2.014,4.4-1.077,9.863-2.257S263.749,159.613,263.763,159.68Z" transform="translate(-243.986 -159.677)"/></g><g transform="translate(8.543 24.357)"><path class="f" d="M265.248,166.554c.014.067-4.4,1.078-9.862,2.257s-9.9,2.082-9.915,2.015,4.4-1.078,9.863-2.257S265.234,166.487,265.248,166.554Z" transform="translate(-245.471 -166.551)"/></g><g transform="translate(9.25 27.633)"><path class="f" d="M266.733,173.429c.014.067-4.4,1.078-9.862,2.257s-9.9,2.081-9.915,2.015,4.4-1.078,9.863-2.257S266.718,173.362,266.733,173.429Z" transform="translate(-246.956 -173.426)"/></g><g transform="translate(9.958 32.882)"><path class="f" d="M259.071,184.446c.014.067-2.354.635-5.289,1.269s-5.327,1.094-5.341,1.027,2.353-.635,5.289-1.27S259.057,184.379,259.071,184.446Z" transform="translate(-248.441 -184.439)"/></g></g><g transform="translate(280.151 175.943)"><g transform="translate(9.119 8.811)"><path class="g" d="M542.569,309.846l6.76,17.356,2.818-4.553,3.9,5.127,4.657-4.429-4.438-4.275,4.1-2.77Z" transform="translate(-542.569 -309.846)"/></g><g transform="translate(1.514 11.373)"><path class="f" d="M531.672,315.225a36.215,36.215,0,0,1-5.06,3.209,36.205,36.205,0,0,1,5.06-3.209Z" transform="translate(-526.611 -315.222)"/></g><g transform="translate(0 5.051)"><path class="f" d="M530.535,304.786a4.758,4.758,0,0,1-1.087-.286c-.66-.211-1.562-.532-2.542-.93s-1.853-.788-2.479-1.082a5,5,0,0,1-.992-.527,5.127,5.127,0,0,1,1.061.366l2.5,1.013,2.507.995A5.389,5.389,0,0,1,530.535,304.786Z" transform="translate(-523.435 -301.957)"/></g><g transform="translate(9.125)"><path class="f" d="M542.6,291.359a3.782,3.782,0,0,1,.246.957c.117.6.253,1.428.369,2.35s.188,1.761.222,2.37a3.772,3.772,0,0,1,0,.988,115.791,115.791,0,0,1-.835-6.666Z" transform="translate(-542.583 -291.359)"/></g><g transform="translate(13.291 3.878)"><path class="f" d="M556.528,299.5c.029.07-1.223.608-2.633,1.511s-2.525,1.693-2.571,1.629a3.176,3.176,0,0,1,.672-.595c.436-.338,1.05-.794,1.767-1.245A9.232,9.232,0,0,1,556.528,299.5Z" transform="translate(-551.324 -299.496)"/></g></g><g transform="translate(114.601 178.966)"><path class="f" d="M193.479,306.445a13.43,13.43,0,0,0-.317-2.1,8.277,8.277,0,0,0-.965-2.28,8.552,8.552,0,0,0-10.27-3.633,8,8,0,0,0-2.157,1.163,7.788,7.788,0,0,0-1.8,1.811,8.488,8.488,0,0,0,0,10.076,7.79,7.79,0,0,0,1.8,1.812,8.018,8.018,0,0,0,2.157,1.163,8.577,8.577,0,0,0,10.27-3.633,8.274,8.274,0,0,0,.964-2.28,13.42,13.42,0,0,0,.317-2.1.579.579,0,0,1,.006.14l-.009.412a3.974,3.974,0,0,1-.056.669,6.056,6.056,0,0,1-.165.9,8.166,8.166,0,0,1-.938,2.328,8.716,8.716,0,0,1-5.869,4.143,8.755,8.755,0,0,1-4.6-.366,8.218,8.218,0,0,1-2.22-1.187,8.015,8.015,0,0,1-1.856-1.859,8.709,8.709,0,0,1,0-10.364,9.85,9.85,0,0,1,.861-1.015,9.741,9.741,0,0,1,1-.843,8.215,8.215,0,0,1,2.22-1.187,8.757,8.757,0,0,1,4.6-.366A8.714,8.714,0,0,1,192.316,302a8.168,8.168,0,0,1,.939,2.328,6.072,6.072,0,0,1,.165.9,3.97,3.97,0,0,1,.056.669l.009.412A.582.582,0,0,1,193.479,306.445Z" transform="translate(-176.064 -297.703)"/><g transform="translate(8.645 4.401)"><path class="f" d="M194.328,315.62a75.8,75.8,0,0,1,0-8.682,76.114,76.114,0,0,1,0,8.682Z" transform="translate(-194.204 -306.938)"/></g><g transform="translate(4.428 8.618)"><path class="f" d="M194.038,315.911a38.07,38.07,0,0,1-4.341.124,38.076,38.076,0,0,1-4.341-.124,38.071,38.071,0,0,1,4.341-.124A38.066,38.066,0,0,1,194.038,315.911Z" transform="translate(-185.356 -315.787)"/></g></g><g transform="translate(141.285 150.248)"><g transform="translate(96.852 23.916)"><path class="f" d="M461.811,329.117c-.058.037-6.044-9.222-13.37-20.677s-13.219-20.777-13.162-20.813,6.043,9.22,13.371,20.679S461.869,329.08,461.811,329.117Z" transform="translate(-435.279 -287.627)"/><g transform="translate(15.237 33.821)"><g transform="translate(0.002 0.103)"><circle class="e" cx="13.892" cy="13.892" r="13.892"/></g><path class="f" d="M467.254,372.587s0-.076,0-.225.012-.379.021-.662c.006-.146.012-.309.019-.488s.05-.373.078-.584a9.953,9.953,0,0,1,.271-1.445,13.162,13.162,0,0,1,1.517-3.726,13.972,13.972,0,0,1,9.4-6.617,12.961,12.961,0,0,1,1.769-.21c.3-.011.606-.041.912-.038l.926.045a6.1,6.1,0,0,1,.935.1c.312.051.629.087.942.151a14.818,14.818,0,0,1,1.869.544,14.571,14.571,0,0,1,1.828.8c.3.16.58.346.873.519a7.121,7.121,0,0,1,.846.581,12.82,12.82,0,0,1,2.966,2.971,13.564,13.564,0,0,1,2.006,3.859,13.872,13.872,0,0,1,0,8.845,13.558,13.558,0,0,1-2.006,3.861,12.825,12.825,0,0,1-2.967,2.972,7.115,7.115,0,0,1-.846.581c-.293.174-.577.36-.873.52a14.584,14.584,0,0,1-1.829.8,14.841,14.841,0,0,1-1.869.544c-.314.064-.631.1-.943.151a6.1,6.1,0,0,1-.935.1l-.927.045c-.306,0-.61-.026-.912-.038a13,13,0,0,1-1.769-.21,13.975,13.975,0,0,1-9.4-6.618,13.164,13.164,0,0,1-1.516-3.726,9.871,9.871,0,0,1-.271-1.445c-.028-.211-.063-.405-.078-.584s-.013-.341-.019-.488c-.009-.282-.016-.5-.021-.661s0-.225,0-.225.012.076.024.224.026.378.046.659l.031.485c.019.178.058.37.09.58a10.089,10.089,0,0,0,.291,1.432,13.269,13.269,0,0,0,1.542,3.678,13.87,13.87,0,0,0,9.323,6.486,12.887,12.887,0,0,0,1.743.2c.3.01.6.039.9.034l.912-.048a5.914,5.914,0,0,0,.92-.1c.306-.051.619-.087.927-.151a14.578,14.578,0,0,0,1.837-.54,14.4,14.4,0,0,0,1.8-.791c.291-.158.569-.342.857-.512a7.038,7.038,0,0,0,.831-.573,12.615,12.615,0,0,0,2.912-2.926,13.337,13.337,0,0,0,1.968-3.794,13.646,13.646,0,0,0,0-8.689,13.338,13.338,0,0,0-1.968-3.793,12.6,12.6,0,0,0-2.911-2.925,7.012,7.012,0,0,0-.831-.573c-.288-.171-.567-.355-.858-.513a14.414,14.414,0,0,0-1.8-.79,14.647,14.647,0,0,0-1.837-.54c-.309-.064-.621-.1-.927-.151a5.9,5.9,0,0,0-.92-.1l-.912-.048c-.3,0-.6.024-.9.034a12.726,12.726,0,0,0-1.743.2,13.866,13.866,0,0,0-9.324,6.486,13.25,13.25,0,0,0-1.542,3.678,10.04,10.04,0,0,0-.292,1.432c-.032.209-.071.4-.09.58s-.021.339-.031.485c-.02.281-.035.5-.046.659S467.254,372.587,467.254,372.587Z" transform="translate(-467.252 -358.592)"/><path class="g" d="M4.992,12.646a1.331,1.331,0,1,0,1.331,1.331A1.329,1.329,0,0,0,4.992,12.646ZM1,2V3.331H2.331l2.4,5.05-.9,1.63a1.286,1.286,0,0,0-.166.639,1.335,1.335,0,0,0,1.331,1.331h7.985V10.65H5.272a.165.165,0,0,1-.166-.166l.02-.08.6-1.085h4.957a1.324,1.324,0,0,0,1.164-.685l2.382-4.318A.65.65,0,0,0,14.308,4a.667.667,0,0,0-.665-.665H3.8L3.176,2H1ZM11.646,12.646a1.331,1.331,0,1,0,1.331,1.331A1.329,1.329,0,0,0,11.646,12.646Z" transform="translate(6.333 5.486)"/></g></g><g transform="translate(56.371 23.606)"><g transform="translate(14.054)"><path class="f" d="M379.951,329.708c-.069,0-.124-9.567-.124-21.365s.056-21.366.124-21.366.124,9.564.124,21.366S380.02,329.708,379.951,329.708Z" transform="translate(-379.827 -286.976)"/></g><g transform="translate(0 34.441)"><g transform="translate(0.003 0.103)"><circle class="e" cx="13.892" cy="13.892" r="13.892"/></g><path class="f" d="M350.34,373.238s0-.076,0-.225.012-.379.021-.662c.006-.146.012-.309.019-.488s.051-.373.079-.584a9.885,9.885,0,0,1,.271-1.444,13.175,13.175,0,0,1,1.517-3.726,13.971,13.971,0,0,1,9.405-6.617,12.935,12.935,0,0,1,1.769-.21c.3-.011.606-.041.913-.038l.926.045a6.107,6.107,0,0,1,.935.1c.312.051.629.087.943.151a14.8,14.8,0,0,1,1.869.544,14.532,14.532,0,0,1,1.828.8c.3.16.58.346.874.519a7.156,7.156,0,0,1,.846.581,12.795,12.795,0,0,1,2.966,2.971,13.557,13.557,0,0,1,2.006,3.859,13.87,13.87,0,0,1,0,8.845,13.561,13.561,0,0,1-2.006,3.861,12.837,12.837,0,0,1-2.966,2.972,7.229,7.229,0,0,1-.847.581c-.293.173-.577.359-.873.519a14.573,14.573,0,0,1-1.829.8,14.816,14.816,0,0,1-1.869.544c-.314.064-.631.1-.943.151a6.09,6.09,0,0,1-.935.1l-.926.045c-.306,0-.611-.026-.912-.038a13.014,13.014,0,0,1-1.769-.21,13.976,13.976,0,0,1-9.4-6.618,13.164,13.164,0,0,1-1.516-3.726,9.953,9.953,0,0,1-.271-1.445c-.028-.211-.062-.405-.078-.584s-.013-.341-.019-.488c-.009-.282-.016-.5-.021-.661s0-.225,0-.225.012.076.024.225.026.378.046.659c.009.146.02.308.03.485s.058.37.09.58a10.089,10.089,0,0,0,.292,1.432,13.245,13.245,0,0,0,1.541,3.678,13.872,13.872,0,0,0,9.323,6.487,12.819,12.819,0,0,0,1.744.2c.3.01.6.039.9.034l.912-.048a5.908,5.908,0,0,0,.92-.1c.306-.051.619-.087.927-.151a14.66,14.66,0,0,0,1.837-.54,14.387,14.387,0,0,0,1.8-.791c.291-.158.57-.342.858-.513a7.025,7.025,0,0,0,.831-.573,12.6,12.6,0,0,0,2.911-2.926,13.341,13.341,0,0,0,1.968-3.795,13.646,13.646,0,0,0,0-8.689,13.322,13.322,0,0,0-1.968-3.793,12.6,12.6,0,0,0-2.911-2.925,6.973,6.973,0,0,0-.831-.573c-.288-.171-.567-.355-.858-.513a14.342,14.342,0,0,0-1.8-.79,14.551,14.551,0,0,0-1.837-.54c-.308-.064-.621-.1-.927-.151a5.968,5.968,0,0,0-.92-.1l-.912-.048c-.3,0-.6.024-.9.034a12.87,12.87,0,0,0-1.743.2,13.869,13.869,0,0,0-9.324,6.486,13.266,13.266,0,0,0-1.542,3.678,10.09,10.09,0,0,0-.292,1.432c-.032.209-.071.4-.09.58s-.021.339-.03.485c-.02.281-.035.5-.046.659S350.34,373.238,350.34,373.238Z" transform="translate(-350.337 -359.243)"/><g transform="translate(7.094 6.947)"><path class="g" d="M373.736,375.553l-6.89,6.259v7.937h5.366v-4.756h3.415v4.756h5v-7.937Z" transform="translate(-366.846 -375.553)"/></g></g></g><g transform="translate(0.507 23.782)"><g transform="translate(16.265)"><path class="f" d="M267.251,329.455c-.058-.037,5.923-9.494,13.358-21.121s13.511-21.026,13.569-20.989-5.922,9.492-13.36,21.122S267.308,329.492,267.251,329.455Z" transform="translate(-267.25 -287.346)"/></g><g transform="translate(0 34.089)"><g transform="translate(0.124 0.103)"><circle class="e" cx="13.892" cy="13.892" r="13.892"/></g><path class="f" d="M261.029,372.868s-.012-.076-.024-.225-.026-.378-.045-.659c-.009-.146-.02-.307-.03-.485s-.058-.37-.09-.579a10.185,10.185,0,0,0-.292-1.432,13.264,13.264,0,0,0-1.542-3.678,13.873,13.873,0,0,0-9.324-6.486,12.8,12.8,0,0,0-1.743-.2c-.3-.01-.6-.039-.9-.034l-.912.048a5.9,5.9,0,0,0-.92.1c-.306.051-.619.087-.927.151a14.623,14.623,0,0,0-1.837.54,14.452,14.452,0,0,0-1.8.79c-.291.158-.57.342-.857.513a7.035,7.035,0,0,0-.831.573,12.608,12.608,0,0,0-2.911,2.925,13.339,13.339,0,0,0-1.968,3.794,13.653,13.653,0,0,0,0,8.689,13.339,13.339,0,0,0,1.968,3.8,12.587,12.587,0,0,0,2.911,2.925,6.984,6.984,0,0,0,.831.573c.288.171.567.355.858.513a14.351,14.351,0,0,0,1.8.79,14.535,14.535,0,0,0,1.837.54c.308.064.62.1.927.151a5.9,5.9,0,0,0,.92.1l.913.048c.3,0,.6-.024.9-.034a12.814,12.814,0,0,0,1.744-.2,13.869,13.869,0,0,0,9.323-6.486,13.249,13.249,0,0,0,1.541-3.678,10.1,10.1,0,0,0,.292-1.431c.032-.21.07-.4.09-.58l.03-.485c.02-.281.034-.5.045-.659s.024-.224.024-.224,0,.076,0,.225-.012.379-.021.661q-.008.22-.019.488c-.015.179-.05.373-.078.584a9.882,9.882,0,0,1-.271,1.445A13.161,13.161,0,0,1,259.125,380a13.971,13.971,0,0,1-9.4,6.618,12.933,12.933,0,0,1-1.769.21c-.3.011-.606.041-.913.038l-.926-.045a6.045,6.045,0,0,1-.935-.1c-.312-.051-.629-.087-.942-.151a15.271,15.271,0,0,1-3.7-1.343c-.3-.16-.58-.346-.874-.519a7.263,7.263,0,0,1-.846-.581,12.81,12.81,0,0,1-2.966-2.972,13.558,13.558,0,0,1-2.006-3.861,13.872,13.872,0,0,1,0-8.845,13.551,13.551,0,0,1,2.006-3.859,12.83,12.83,0,0,1,2.966-2.971,7.317,7.317,0,0,1,.846-.581c.293-.173.577-.359.874-.519a14.542,14.542,0,0,1,1.828-.8,14.8,14.8,0,0,1,1.869-.544c.314-.064.631-.1.943-.151a6.041,6.041,0,0,1,.935-.1l.926-.045c.306,0,.61.026.912.038a13.088,13.088,0,0,1,1.769.21,13.975,13.975,0,0,1,9.405,6.617,13.164,13.164,0,0,1,1.516,3.726,9.818,9.818,0,0,1,.271,1.445c.028.211.063.4.078.584s.013.341.019.488c.009.282.016.5.021.661S261.029,372.868,261.029,372.868Z" transform="translate(-233.121 -358.873)"/><path class="g" d="M3.544,7.949v5.4H5.86v-5.4Zm4.633,0v5.4h2.316v-5.4ZM2,17.214H16.67V14.9H2ZM12.809,7.949v5.4h2.316v-5.4ZM9.335,1,2,4.86V6.4H16.67V4.86Z" transform="translate(4.442 3.757)"/></g></g><g transform="translate(0.124)"><g transform="translate(0 0.217)"><rect class="e" width="145.668" height="23.919" rx="11.96"/></g><g transform="translate(113.395)"><path class="g" d="M470.251,237.445v24.136H490.6a12.068,12.068,0,0,0,12.068-12.068h0A12.068,12.068,0,0,0,490.6,237.445Z" transform="translate(-470.251 -237.445)"/></g><g transform="translate(122.019 6.201)"><path class="e" d="M498.662,255.654a10.763,10.763,0,0,0-.206-1.232,5.081,5.081,0,0,0-1.86-2.748,5,5,0,0,0-4.726-.7,5,5,0,0,0-2.309,1.739,4.956,4.956,0,0,0,0,5.879,5,5,0,0,0,2.309,1.739,4.993,4.993,0,0,0,4.727-.7,5.081,5.081,0,0,0,1.859-2.748,10.756,10.756,0,0,0,.206-1.232,3.945,3.945,0,0,1-.112,1.256,5.072,5.072,0,0,1-1.846,2.864,5.124,5.124,0,0,1-2.177.986,5.2,5.2,0,0,1-2.734-.213,5.2,5.2,0,0,1-2.427-1.81,5.178,5.178,0,0,1,0-6.167,5.2,5.2,0,0,1,2.426-1.81,5.2,5.2,0,0,1,2.734-.213,5.123,5.123,0,0,1,2.177.987,5.071,5.071,0,0,1,1.847,2.864A3.944,3.944,0,0,1,498.662,255.654Z" transform="translate(-488.347 -250.457)"/><g transform="translate(9.318 8.22)"><path class="e" d="M513.627,271.81a49.941,49.941,0,0,1-5.728-4.1,50.11,50.11,0,0,1,5.728,4.1Z" transform="translate(-507.898 -267.706)"/></g></g><g transform="translate(13.852 9.937)"><rect class="c" width="89.048" height="5.119"/></g></g><g transform="translate(0 0.093)"><path class="f" d="M366.511,261.683s.279-.023.823-.054a7.473,7.473,0,0,0,1.007-.126,10.417,10.417,0,0,0,1.366-.31,11.543,11.543,0,0,0,3.491-1.752l.474-.357c.153-.131.3-.273.457-.412a9.38,9.38,0,0,0,.9-.927c.309-.323.554-.718.846-1.092l.375-.619.19-.317.162-.338a10.944,10.944,0,0,0,1-3.012q.063-.415.127-.839.022-.428.045-.867c.026-.584.02-1.191,0-1.8a11.265,11.265,0,0,0-10.918-11c-3.252-.032-6.7,0-10.314-.009l-113.019.036a11.283,11.283,0,0,0-7.437,2.83,11.1,11.1,0,0,0-3.682,6.938,7.672,7.672,0,0,0-.081.992c-.023.33-.027.664-.023,1a19.32,19.32,0,0,0,.08,1.987,10.848,10.848,0,0,0,1.128,3.754,11.134,11.134,0,0,0,9.26,6.136c.634.045,1.278.04,1.92.038H254.2l14.687,0,50.811.027,34.255.04,9.313.023,2.422.012c.546,0,.826.013.826.013s-.28.009-.826.013l-2.422.012-9.313.023-34.255.04-50.811.027-14.687,0h-9.506c-.641,0-1.283.008-1.936-.038a11.375,11.375,0,0,1-9.463-6.267,11.1,11.1,0,0,1-1.154-3.836,19.679,19.679,0,0,1-.081-2.015c0-.334,0-.67.023-1.009a7.924,7.924,0,0,1,.082-1.013,11.346,11.346,0,0,1,3.762-7.092,11.532,11.532,0,0,1,7.6-2.893l113.019.037c3.617.01,7.057-.012,10.319.026A11.4,11.4,0,0,1,377.9,248.856c.017.618.021,1.216-.006,1.808q-.024.442-.049.875-.066.428-.131.846a11.049,11.049,0,0,1-1.018,3.037l-.165.34-.193.319-.38.622c-.3.376-.545.773-.857,1.1a9.441,9.441,0,0,1-.914.93c-.157.14-.307.282-.461.413l-.479.357a11.533,11.533,0,0,1-3.521,1.741,10.367,10.367,0,0,1-1.375.3,7.19,7.19,0,0,1-1.01.113C366.79,261.678,366.511,261.683,366.511,261.683Z" transform="translate(-232.056 -237.64)"/></g></g><g transform="translate(165.687 101.304)"><g transform="translate(37.165 53.879)"><path class="h" d="M371.016,252.13c-.434-.505-.477-.933.5-1.02,2.15-.193,3.734-1.132,3.984-1.676s-.432-1.075-1.015-.748a8.052,8.052,0,0,1-2.094.593,5.255,5.255,0,0,1-1.745.024c-.5-.079-.941-.163-1.334-.246a10.582,10.582,0,0,1-3.258-1.257l-4.813,5.144,2.257,2.551a3.428,3.428,0,0,0,3.014,1.421,15.528,15.528,0,0,0,4.541-1.581c.352-.541,3.47,1.382,4.475,2.1s1.746.539,1.709-.154c-.026-.472-3.047-2.752-4.057-3.443a12.663,12.663,0,0,1-2.162-1.709" transform="translate(-361.239 -247.799)"/><g transform="translate(5.049 7.384)"><path class="i" d="M373.731,264.709c.005.029-.139.091-.387.084a1.659,1.659,0,0,1-1.46-1.1c-.074-.237-.054-.393-.025-.4.069-.016.186.566.738.97A3.266,3.266,0,0,0,373.731,264.709Z" transform="translate(-371.832 -263.292)"/></g><g transform="translate(7.04 6.657)"><path class="i" d="M377.826,263.159c0,.03-.137.082-.374.067a1.643,1.643,0,0,1-1.388-1.079c-.073-.226-.057-.375-.027-.379.069-.017.2.532.717.924A3.686,3.686,0,0,0,377.826,263.159Z" transform="translate(-376.011 -261.767)"/></g></g><g transform="translate(29.077 8.427)"><path class="f" d="M366.4,152.429c.2,4.223,5.352,10.009,9.183,10.945,2.014.492,4.332.26,5.927,1.613,2.737,2.321,1.136,7.132,2.982,10.245,1.135,1.914,3.389,2.853,4.666,4.67,2.121,3.02.7,7.585-2.2,9.834s-6.751,2.679-10.379,2.585c-7.981-.206-16.154-2.743-21.923-8.4-2.71-2.657-13.314-10.863-9.616-30.309" transform="translate(-344.269 -152.429)"/></g><g transform="translate(0 28.242)"><path class="g" d="M363.271,204.48l-30.344-9.009a19.246,19.246,0,0,0-4.419-1.33l-10.245.069a9.961,9.961,0,0,0-3.93.822l-27.62,9.174a5.276,5.276,0,0,0-3.456,5.131h0c0,2.943,2.122,5.33,4.74,5.33h12.754c-.036.12-.056.187-.056.187l44.362.166V215l16.931.038c2.617,0,4.739-2.409,4.739-5.381A5.326,5.326,0,0,0,363.271,204.48Z" transform="translate(-283.257 -194.077)"/><g transform="translate(47.062 12.615)"><path class="f" d="M408.878,221.544a1.127,1.127,0,0,1-.276-.014l-.782-.089c-.677-.086-1.659-.2-2.873-.312a86.523,86.523,0,0,0-19.024.249c-1.211.149-2.189.284-2.864.387l-.779.109a1.162,1.162,0,0,1-.275.021,1.148,1.148,0,0,1,.266-.071l.772-.155c.671-.133,1.647-.295,2.858-.466a76.262,76.262,0,0,1,19.064-.25c1.215.14,2.2.275,2.869.391l.775.135A1.174,1.174,0,0,1,408.878,221.544Z" transform="translate(-382.006 -220.476)"/></g><g class="j" transform="translate(20.804 4.494)"><path class="e" d="M372.918,205.252a.5.5,0,0,1-.085.1l-.267.282c-.239.244-.593.6-1.073,1.04a17.262,17.262,0,0,1-1.844,1.485,9.128,9.128,0,0,1-2.833,1.35,7.231,7.231,0,0,1-3.792-.075,18.8,18.8,0,0,1-3.992-1.763,24.256,24.256,0,0,0-4.323-2.026,6.668,6.668,0,0,0-4.943.254c-1.6.72-2.955,1.817-4.44,2.608-.367.2-.756.363-1.133.533a11.912,11.912,0,0,1-1.165.388,11.309,11.309,0,0,1-2.338.4,12.042,12.042,0,0,1-7.763-2.135,21.188,21.188,0,0,1-2.345-2.082,11.425,11.425,0,0,0-1.815-1.484,5.038,5.038,0,0,0-1.86-.7,2.851,2.851,0,0,1,.518.061,4.375,4.375,0,0,1,1.392.553,11.138,11.138,0,0,1,1.861,1.466,21.757,21.757,0,0,0,2.35,2.04,11.931,11.931,0,0,0,7.646,2.05,11.09,11.09,0,0,0,2.29-.4,11.879,11.879,0,0,0,1.139-.383c.368-.168.747-.322,1.108-.524,1.459-.779,2.816-1.881,4.454-2.621a6.9,6.9,0,0,1,5.115-.26,24.219,24.219,0,0,1,4.361,2.058,18.793,18.793,0,0,0,3.937,1.766,7.087,7.087,0,0,0,3.693.1,9.1,9.1,0,0,0,2.8-1.3,18.3,18.3,0,0,0,1.857-1.442c.488-.425.852-.773,1.1-1l.284-.264A.567.567,0,0,1,372.918,205.252Z" transform="translate(-326.909 -203.435)"/></g><g class="k" transform="translate(19.66 13.622)"><path d="M324.51,222.589l19.181,3.616-2.215,3.609-.583.009Z" transform="translate(-324.51 -222.589)"/></g><g class="j" transform="translate(55.104 9.832)"><path class="e" d="M421.5,214.637a1.316,1.316,0,0,1,.01.294,6.418,6.418,0,0,1-.084.839,7.272,7.272,0,0,1-4.777,5.649,7.381,7.381,0,0,1-2.7.422,12.291,12.291,0,0,1-2.878-.526c-.961-.271-1.883-.57-2.795-.753a8.114,8.114,0,0,0-2.651-.138,8.466,8.466,0,0,0-4.136,1.694,8.312,8.312,0,0,0-2.055,2.245l-.248.414-.158.316a1.341,1.341,0,0,1-.145.255,1.277,1.277,0,0,1,.1-.276l.139-.329.23-.429a7.992,7.992,0,0,1,2.031-2.335A8.515,8.515,0,0,1,405.6,220.2a8.25,8.25,0,0,1,2.726.126c.93.184,1.86.484,2.813.753a12.254,12.254,0,0,0,2.819.522,7.267,7.267,0,0,0,6.168-3.057,7.546,7.546,0,0,0,1.205-2.788C421.473,215.042,421.473,214.635,421.5,214.637Z" transform="translate(-398.881 -214.637)"/></g><g transform="translate(3.097 10.661)"><g transform="translate(0.385)"><path class="g" d="M290.563,225.689s34.675,15.3,34.5,14.953,5.505-10.382,5.505-10.382l-28.094-13.885Z" transform="translate(-290.563 -216.375)"/></g><g transform="translate(16.301 1.98)"><path class="f" d="M323.961,220.53a4.623,4.623,0,0,1,.714.3l1.908.9c1.607.769,3.818,1.846,6.255,3.051s4.637,2.307,6.224,3.116l1.874.97a4.668,4.668,0,0,1,.673.386,4.555,4.555,0,0,1-.714-.3l-1.908-.9c-1.607-.769-3.819-1.847-6.257-3.051s-4.636-2.307-6.224-3.117l-1.874-.97A4.589,4.589,0,0,1,323.961,220.53Z" transform="translate(-323.961 -220.529)"/></g><g class="j" transform="translate(0 6.321)"><path class="e" d="M313.672,229.94a2.982,2.982,0,0,1-.323,1.028,4.855,4.855,0,0,1-2.068,2.067,6.351,6.351,0,0,1-1.926.686,7.592,7.592,0,0,1-2.345.028,17.717,17.717,0,0,1-5.057-1.7,26.422,26.422,0,0,0-4.918-1.94,8.843,8.843,0,0,0-2.271-.263,7.085,7.085,0,0,0-1.961.331,5.356,5.356,0,0,0-2.42,1.516,9.88,9.88,0,0,0-.628.862,3.211,3.211,0,0,1,.554-.925,5.278,5.278,0,0,1,2.439-1.62,7.144,7.144,0,0,1,2.009-.37,8.9,8.9,0,0,1,2.33.246,25.6,25.6,0,0,1,4.97,1.937,17.961,17.961,0,0,0,4.983,1.7,7.5,7.5,0,0,0,2.279,0,6.271,6.271,0,0,0,1.878-.638,4.9,4.9,0,0,0,2.065-1.957A8.174,8.174,0,0,0,313.672,229.94Z" transform="translate(-289.756 -229.639)"/></g><g class="j" transform="translate(25.807 16.815)"><path class="e" d="M356.738,251.953c-.007.046-.769-.081-2.008-.1a16.829,16.829,0,0,0-2.168.11,16.58,16.58,0,0,0-5.094,1.443,16.91,16.91,0,0,0-1.9,1.044c-1.044.666-1.626,1.175-1.656,1.139a2.263,2.263,0,0,1,.387-.38,11.26,11.26,0,0,1,1.172-.905,14.822,14.822,0,0,1,1.9-1.1,15.428,15.428,0,0,1,5.167-1.464,14.732,14.732,0,0,1,2.2-.058,11.156,11.156,0,0,1,1.473.156A2.242,2.242,0,0,1,356.738,251.953Z" transform="translate(-343.907 -251.658)"/></g></g><g class="k" transform="translate(45.825)"><path d="M379.6,194.006c-.574,1.6.287,3.332,1.122,4.817a13.086,13.086,0,0,0,2.011,2.918,4.4,4.4,0,0,0,3.153,1.417c1.557-.051,2.951-1.2,4.506-1.111a5.974,5.974,0,0,1,2.865,1.279,22.666,22.666,0,0,0,4.806,2.663,8.632,8.632,0,0,0,5.4.339,5.387,5.387,0,0,0,3.739-3.7" transform="translate(-379.411 -194.006)"/></g></g><g transform="translate(29.851)"><g transform="translate(4.638 1.707)"><path class="h" d="M367.277,164.421c.08-1.867.18-3.556.18-3.556a5.033,5.033,0,0,0,4.352-4.784c.18-4.259-.244-14.064-.244-14.064l-7.679-3.688-8.262,6.656,1.3,19.557a5.186,5.186,0,0,0,5.414,4.838h0A5.187,5.187,0,0,0,367.277,164.421Z" transform="translate(-355.625 -138.328)"/></g><g transform="translate(18.274 11.316)"><g transform="translate(0.524 1.243)"><path class="f" d="M386.4,161.635a.531.531,0,1,1-.54-.536A.538.538,0,0,1,386.4,161.635Z" transform="translate(-385.337 -161.099)"/></g><path class="f" d="M386.338,159.133c-.067.071-.465-.264-1.037-.285s-1,.268-1.057.191c-.03-.034.039-.165.224-.3a1.38,1.38,0,0,1,1.671.075C386.313,158.964,386.371,159.1,386.338,159.133Z" transform="translate(-384.238 -158.491)"/></g><g transform="translate(11.943 11.427)"><g transform="translate(0.524 1.133)"><path class="f" d="M373.113,161.635a.531.531,0,1,1-.54-.536A.538.538,0,0,1,373.113,161.635Z" transform="translate(-372.052 -161.099)"/></g><path class="f" d="M373.053,159.363c-.067.071-.465-.264-1.037-.285s-1,.268-1.057.19c-.03-.034.039-.165.224-.3a1.382,1.382,0,0,1,1.671.075C373.027,159.194,373.086,159.331,373.053,159.363Z" transform="translate(-370.953 -158.722)"/></g><g transform="translate(16.001 11.871)"><path class="f" d="M379.656,164.766a3.476,3.476,0,0,1,.931-.142c.146-.01.285-.036.312-.142a.858.858,0,0,0-.091-.468l-.413-1.208a21.963,21.963,0,0,1-.921-3.153,21.833,21.833,0,0,1,1.154,3.072c.138.424.269.827.395,1.214a.969.969,0,0,1,.066.616.363.363,0,0,1-.244.219.916.916,0,0,1-.249.027A3.5,3.5,0,0,1,379.656,164.766Z" transform="translate(-379.468 -159.654)"/></g><g transform="translate(14.215 17.501)"><path class="e" d="M375.817,171.537c-.585-.384,1.613.948,2.778.928a1.562,1.562,0,0,1-1.884.584A1.238,1.238,0,0,1,375.817,171.537Z" transform="translate(-375.72 -171.467)"/></g><g transform="translate(10.946 22.435)"><path class="i" d="M374.385,183.63a10.161,10.161,0,0,1-5.525-1.809,5.344,5.344,0,0,0,5.452,2.854Z" transform="translate(-368.861 -181.821)"/></g><path class="f" d="M346.05,147.305h0c-.015,3.686-.98,13.432,5.738,14.784l-.244-13.422s6.505-3.067,7.6-9.456l.04.037a7.989,7.989,0,0,1,.708,4.722l6.092,1.5.7.641a8.382,8.382,0,0,0-2.016-9.066c-4.185-4.312-7.761-1.187-10-1.456-1.492-.179-6.667-.144-8.774,8.767Z" transform="translate(-345.893 -134.746)"/><g transform="translate(3.397 13.916)"><path class="h" d="M355.443,164.1a1.5,1.5,0,0,0-1.794.429,2.448,2.448,0,0,0,2.436,4.018" transform="translate(-353.022 -163.945)"/><g transform="translate(0.857 1.252)"><path class="i" d="M356.253,168.646c0,.03-.191.063-.488-.017a1.285,1.285,0,0,1-.891-.79.95.95,0,0,1,.025-.695,1,1,0,0,1,.363-.423c.268-.173.472-.161.475-.133s-.167.091-.367.272a.83.83,0,0,0-.26.9,1.267,1.267,0,0,0,.715.7C356.078,168.577,356.257,168.609,356.253,168.646Z" transform="translate(-354.82 -166.572)"/></g><g transform="translate(1.373 4.158)"><path class="l" d="M356.264,172.678a.483.483,0,1,0,.184-.008" transform="translate(-355.903 -172.67)"/></g></g></g><g transform="translate(36.743 42.207)"><path class="h" d="M370.939,230.308v-7s-10.395,2.157-10.585,6.916Z" transform="translate(-360.354 -223.308)"/></g><g transform="translate(46.246 26.618)"><path class="f" d="M380.294,191.044a8.71,8.71,0,0,0,8.529,8.014c1.535.027,3.153-.338,4.553.289,1.218.545,2,1.726,2.962,2.654a8.788,8.788,0,0,0,8.714,1.97c1.259-.422,3.259-1.327,3.493-2.634.178-1-1.038-1.985-1.756-2.7a8.873,8.873,0,0,0-2.56-1.6c-7.4-3.478-15.353-6.007-23.521-6.44" transform="translate(-380.294 -190.599)"/></g></g></g></svg>