<svg xmlns="http://www.w3.org/2000/svg" width="312.481" height="330.348" viewBox="0 0 312.481 330.348"><defs><style>.a{fill:#ebebeb;}.b{fill:#e0e0e0;}.c{fill:#fff;}.d{fill:#455a64;}.e,.g{fill:#0894fe;}.f{fill:#263238;}.g{font-size:16px;font-family:FormaDJRText-Bold-Edu, Forma DJR Text Edu;}.h{fill:#f2f2f2;}.i{fill:#c4c9ce;}.j{fill:#2680eb;}.k{fill:#fafafa;}.l{opacity:0.2;}</style></defs><g transform="translate(-51.032 -36.742)"><g transform="translate(76.353 48.819)"><g transform="translate(194.452 235.962)"><path class="a" d="M383.03,379.944l1.976-4.376a15.751,15.751,0,0,0-28.878-12.586l-2.014,4.457a8.808,8.808,0,0,0-10.364,4.988l-11.294,25.968a8.813,8.813,0,0,0,4.567,11.6l26.959,11.726a8.814,8.814,0,0,0,11.6-4.567l11.294-25.968A8.812,8.812,0,0,0,383.03,379.944Zm-22.513,22.97-7.051-3.067,3.316-4.613a4.683,4.683,0,1,1,4.694,1.946C361.116,399.37,360.517,402.914,360.517,402.914Zm19.417-24.361L357.271,368.7l1.96-4.339a12.357,12.357,0,0,1,22.673,9.835Z" transform="translate(-331.723 -353.535)"/></g><g transform="translate(2.981 55.079)"><path class="b" d="M169.116,153.776l-4.519-7.87-7.077,1.041-5.843-7.343,3.011-7.311-7.891-5.237L140.906,133l-7.758-1.36L130,122.513l-9.429,1-.533,7.981-7.026,3.569-7.437-5.265-7.543,5.494,3.92,8.447L97.466,150.5l-8.156-.433-2.13,10.06,7.761,2.985.668,8.454-8.045,4.62,3.845,8.722,8.328-1.293,5.516,6.367-2.885,7.936,7.629,5.388,5.953-6.442,8.26,2.235,2.569,8.524,9.18-.619,1.185-7.657,7.87-4.519,6.44,5.14,8.142-6.07-4.118-7.171,4.013-7.188,8.256.608,2.532-9.361-7.087-3.837-.943-8.528ZM137.14,181.322a18.554,18.554,0,1,1,6.852-25.33A18.555,18.555,0,0,1,137.14,181.322Z" transform="translate(-87.179 -122.513)"/></g><g transform="translate(7.342)"><path class="a" d="M111.834,60.957c0-6.722-7.062-10.98-14.263-7.61a8.178,8.178,0,0,0-3.789,3.631c-1.812,3.509-1.012,7.517.631,10.844l5.6,14.2a2.415,2.415,0,0,0,4.5-.02l5.495-14.277C111.914,63.38,111.834,60.957,111.834,60.957Zm-6.765,5.85c-4.84,2.814-9.746-2.388-7.093-7.522a4.037,4.037,0,0,1,1.537-1.631c4.841-2.815,9.747,2.388,7.094,7.522A4.029,4.029,0,0,1,105.069,66.806Z" transform="translate(-92.749 -52.167)"/></g><g transform="translate(0 271.288)"><path class="b" d="M104.7,417.328a19.929,19.929,0,0,0,1.3-2.555,11.189,11.189,0,0,0,.735-3.256,11.525,11.525,0,0,0-8.372-12.05,11.519,11.519,0,0,0-6.663.137,11.427,11.427,0,0,0-7.927,11,11.522,11.522,0,0,0,1.982,6.365A11.561,11.561,0,0,0,99.838,421.1a11.187,11.187,0,0,0,2.854-1.73,19.788,19.788,0,0,0,2.013-2.038.688.688,0,0,1-.1.16l-.332.447a5.278,5.278,0,0,1-.586.691,8.163,8.163,0,0,1-.89.86,11,11,0,0,1-2.866,1.817,11.783,11.783,0,0,1-9.719-.083,11.851,11.851,0,0,1-4.764-4.038,11.855,11.855,0,0,1-2.071-6.572,11.793,11.793,0,0,1,8.2-11.388,11.861,11.861,0,0,1,6.888-.117,11.848,11.848,0,0,1,5.339,3.238,11.779,11.779,0,0,1,3.159,9.192,11.02,11.02,0,0,1-.815,3.295,8.194,8.194,0,0,1-.535,1.117,5.294,5.294,0,0,1-.469.775l-.319.456A.658.658,0,0,1,104.7,417.328Z" transform="translate(-83.372 -398.652)"/><g transform="translate(15.028 23.081)"><path class="b" d="M110.208,448.7c-.106.039-1.9-4.534-4.01-10.214s-3.733-10.318-3.628-10.357,1.9,4.533,4.01,10.215S110.312,448.663,110.208,448.7Z" transform="translate(-102.565 -428.131)"/></g></g><g transform="translate(238.724 2.6)"><g transform="translate(0 11.714)"><path class="a" d="M399.957,76.287a5.846,5.846,0,1,1-5.853-5.838A5.845,5.845,0,0,1,399.957,76.287Z" transform="translate(-388.266 -70.449)"/></g><g transform="translate(16.363)"><path class="a" d="M420.855,61.326A5.846,5.846,0,1,1,415,55.488,5.845,5.845,0,0,1,420.855,61.326Z" transform="translate(-409.164 -55.488)"/></g><g transform="translate(16.397 24.264)"><path class="a" d="M420.9,92.83a5.867,5.867,0,1,1-5.855-6.353A6.119,6.119,0,0,1,420.9,92.83Z" transform="translate(-409.208 -86.477)"/></g><g transform="translate(4.041 18.641)"><path class="a" d="M409.9,90.529c-.25.368-4.138-1.84-8.684-4.931s-8.029-5.895-7.78-6.262,4.137,1.84,8.685,4.931S410.153,90.162,409.9,90.529Z" transform="translate(-393.427 -79.296)"/></g><g transform="translate(6.571 5.4)"><path class="a" d="M411.071,62.422c.272.351-2.729,3.133-6.7,6.212s-7.419,5.293-7.691,4.941,2.729-3.133,6.705-6.214S410.8,62.07,411.071,62.422Z" transform="translate(-396.658 -62.385)"/></g></g></g><g transform="translate(260.222 115.448)"><g transform="translate(0)"><g transform="translate(0.359 0.262)"><rect class="c" width="64.709" height="43.616" transform="translate(0 6.111) rotate(-5.419)"/></g><path class="d" d="M387.105,180.948s-.045-.281-.1-.8q-.088-.82-.246-2.3c-.208-2.036-.507-4.984-.891-8.746-.747-7.553-1.816-18.372-3.119-31.546l.262.216L318.6,143.936c-.064.07.507-.618.266-.321l0,.012,0,.023,0,.045.009.091.017.181.034.363.068.724.137,1.444q.137,1.442.272,2.874.271,2.866.539,5.688.533,5.644,1.048,11.1c.684,7.268,1.34,14.255,1.961,20.871l-.3-.247,46.372-4.263,13.282-1.185,3.545-.3.922-.071a2.543,2.543,0,0,1,.324-.014,1.834,1.834,0,0,1-.289.043l-.888.1-3.484.363-13.206,1.327-46.526,4.55-.274.027-.026-.274c-.633-6.615-1.3-13.6-2-20.868q-.519-5.451-1.058-11.1-.269-2.822-.541-5.687-.136-1.433-.272-2.874l-.137-1.445-.069-.723-.034-.363-.017-.182-.009-.091,0-.045,0-.022,0-.012c-.243.288.329-.406.276-.334l64.42-6.051.24-.023.022.24c1.2,13.246,2.192,24.124,2.882,31.719.329,3.743.586,6.677.764,8.7q.122,1.459.188,2.264C387.1,180.7,387.105,180.948,387.105,180.948Z" transform="translate(-318.207 -137.264)"/><g transform="translate(0.359 0.262)"><path class="d" d="M383.086,137.6a4.26,4.26,0,0,1-.5.642l-1.517,1.769-5.68,6.451L356.33,167.773l-.169.189-.215-.137-1.715-1.093-25.216-16.175-7.6-4.959-2.051-1.374a4.666,4.666,0,0,1-.693-.514,4.588,4.588,0,0,1,.758.411l2.112,1.279,7.707,4.8,25.311,16.027,1.715,1.093-.384.052,19.2-21.188,5.82-6.326,1.6-1.7A4.071,4.071,0,0,1,383.086,137.6Z" transform="translate(-318.665 -137.598)"/></g></g></g><g transform="translate(71.574 172.349)"><g transform="translate(0 31.918)"><path class="e" d="M79.907,251.2s5.515-3.788,12.553,9.439,9.75,20.878,9.75,20.878,1.848,2.765,3.736.9,4.428-7.094,7.709-6.218c3.4.908,4.585,4.668,4.038,10.233s-1.3,17.8-1.364,18.906c-.063,1.087.587,2.674,2.077,1.612s9.995-10.877,14.411-6.563.343,19.566-.07,21.242-.074,2.382.725,2.781,3.348-3.17,5.881-5.862,5.943-5.37,8.281-2.668,3.274,14.076-7.235,32.761l-5.437,8.339-9.992-.377c-21.334-2.111-30.114-9.4-30.986-12.867s3.278-4.723,6.936-5.253,8.043-.571,8.175-1.454-.253-1.567-1.862-2.19S90.8,328.812,89.794,322.72s11.918-7.427,13.643-8.039.8-2.054-.129-2.625c-.943-.583-11.4-6.986-16.269-9.729s-7.274-5.868-6.065-9.177c1.164-3.19,6.907-2.269,9.515-2.747s1.4-3.578,1.4-3.578-4.711-6.611-11.507-19.964-.361-15.724-.361-15.724" transform="translate(-77.268 -250.702)"/><g transform="translate(8.962 12.337)"><path class="f" d="M88.714,266.459a1.408,1.408,0,0,1,.142.234c.1.177.221.41.381.706l1.43,2.732L95.891,280.2l17.359,33.144c6.807,12.934,12.914,24.671,17.264,33.2l5.114,10.123,1.366,2.764.347.723a1.373,1.373,0,0,1,.106.252,1.478,1.478,0,0,1-.141-.234l-.381-.706-1.43-2.731-5.222-10.066c-4.41-8.5-10.556-20.216-17.362-33.15S100,288.855,95.648,280.323L90.533,270.2l-1.366-2.765-.347-.723A1.513,1.513,0,0,1,88.714,266.459Z" transform="translate(-88.713 -266.459)"/></g><g transform="translate(28.965 32.966)"><path class="f" d="M118.427,292.806a20.571,20.571,0,0,1-.529,2.625l-1.387,6.3c-.538,2.464-1.041,4.693-1.454,6.3-.208.8-.391,1.446-.531,1.888a2.591,2.591,0,0,1-.258.674,24.521,24.521,0,0,1,.523-2.625c.366-1.718.829-3.9,1.343-6.315.538-2.465,1.07-4.688,1.5-6.286.216-.8.4-1.443.539-1.885A2.6,2.6,0,0,1,118.427,292.806Z" transform="translate(-114.261 -292.806)"/></g><g transform="translate(7.717 45.477)"><path class="f" d="M107.468,314.252c-.027.1-4.6-1.036-10.222-2.544s-10.15-2.814-10.122-2.917,4.6,1.037,10.222,2.545S107.5,314.15,107.468,314.252Z" transform="translate(-87.124 -308.785)"/></g><g transform="translate(22.514 72.802)"><path class="f" d="M124.65,344.077a2.726,2.726,0,0,1-.728.114c-.47.051-1.152.1-2,.153-1.687.1-4.022.171-6.6.117s-4.912-.214-6.593-.381c-.842-.081-1.52-.164-1.988-.232a2.7,2.7,0,0,1-.723-.144,22.221,22.221,0,0,1,2.732.1c1.683.1,4.008.218,6.579.267s4.9.022,6.584,0A21.737,21.737,0,0,1,124.65,344.077Z" transform="translate(-106.022 -343.684)"/></g><g transform="translate(40.976 57.942)"><path class="f" d="M137.931,324.706a16.276,16.276,0,0,1-1.1,2.275c-.723,1.382-1.744,3.278-2.894,5.361s-2.21,3.959-2.994,5.308a16.372,16.372,0,0,1-1.339,2.144,16.493,16.493,0,0,1,1.1-2.276c.723-1.382,1.744-3.278,2.895-5.362s2.209-3.958,2.993-5.306A16.508,16.508,0,0,1,137.931,324.706Z" transform="translate(-129.602 -324.705)"/></g><g transform="translate(52.49 76.118)"><path class="f" d="M155.165,347.92a3.779,3.779,0,0,1-.361.792l-1.109,2.091c-.952,1.758-2.29,4.172-3.789,6.828s-2.875,5.05-3.887,6.773l-1.217,2.031a3.871,3.871,0,0,1-.492.719,3.749,3.749,0,0,1,.361-.793l1.109-2.091c.952-1.757,2.29-4.172,3.79-6.829s2.874-5.049,3.887-6.772l1.217-2.031A3.832,3.832,0,0,1,155.165,347.92Z" transform="translate(-144.308 -347.919)"/></g><g transform="translate(29.005 93.692)"><path class="f" d="M137.93,371.493a4.345,4.345,0,0,1-.929.085c-.6.032-1.465.056-2.536.073-2.142.029-5.1.009-8.37-.148s-6.218-.407-8.348-.641c-1.066-.115-1.925-.224-2.519-.31a4.425,4.425,0,0,1-.916-.173,4.273,4.273,0,0,1,.932.023l2.528.188c2.133.164,5.081.375,8.341.527s6.214.22,8.353.261l2.534.05A4.336,4.336,0,0,1,137.93,371.493Z" transform="translate(-114.312 -370.364)"/></g></g><g transform="translate(189.643)"><path class="d" d="M348.67,307.024a34.522,34.522,0,0,1-16.533-4.032l-.081-.057c-11.037-10.078-14.916-26.767-11.221-48.265.094-.547.173-1.1.252-1.657.327-2.293.666-4.666,2.079-6.571,1.749-2.358,5.37-3.757,7.975-2.087,1.693,1.088,2.413,3,3.109,4.855.166.441.33.88.508,1.3a16.4,16.4,0,0,0,5.663,7.024c1.152.8,3.382,2.04,5.4,1.276,2.432-.922,3.143-4.1,3.491-6.773l2.033-15.6a26.092,26.092,0,0,1,2.021-8.284,9.052,9.052,0,0,1,6.6-5.3,6.214,6.214,0,0,1,4.668,1.364,4.864,4.864,0,0,1,1.87,3.415,8.933,8.933,0,0,1-.2,2.184,12.641,12.641,0,0,0-.191,1.351,2.6,2.6,0,0,0,1.128,2.615c.734.327,1.705.052,2.887-.812,3.246-2.375,5.648-5.625,8.025-9.027l.549-.787a47.767,47.767,0,0,1,7.218-8.784c3.563-3.146,7.618-4.706,11.42-4.4,4.507.365,8.412,3.786,8.891,7.789.411,3.427-1.376,6.993-5.461,10.9a63.444,63.444,0,0,1-14.9,10.611,4.88,4.88,0,0,0-2.342,1.852,2.452,2.452,0,0,0,.216,2.336,4.958,4.958,0,0,0,2.044,1.871,15.608,15.608,0,0,0,4.13,1.138c.752.136,1.531.277,2.286.472,1.339.345,4.532,1.455,5.256,4.295.937,3.682-3.1,6.627-4.873,7.722a54.759,54.759,0,0,1-17.351,6.959l-.793.166a15.681,15.681,0,0,0-5.4,1.813c-1.645,1.066-3.02,3.256-2.326,5.219.707,2,3.147,2.807,5.1,2.731a17.988,17.988,0,0,0,4.216-.877c.727-.211,1.479-.431,2.232-.6,4-.895,9.317-.062,11.515,3.884a9.113,9.113,0,0,1-.1,8.289,20.946,20.946,0,0,1-5.317,6.425,54.975,54.975,0,0,1-25.569,12.987A52.654,52.654,0,0,1,348.67,307.024Zm-16.125-4.7c7.674,4.01,15.724,4.892,26.083,2.866a54.208,54.208,0,0,0,25.2-12.806,20.269,20.269,0,0,0,5.127-6.175,8.333,8.333,0,0,0,.128-7.572c-2-3.595-6.929-4.336-10.659-3.5-.73.163-1.47.379-2.185.587a18.7,18.7,0,0,1-4.4.906c-2.24.114-5.033-.875-5.873-3.25s.694-4.879,2.639-6.138a16.258,16.258,0,0,1,5.669-1.922l.789-.165a53.975,53.975,0,0,0,17.1-6.859c1.63-1.005,5.334-3.685,4.526-6.863-.621-2.434-3.489-3.419-4.693-3.73-.727-.188-1.491-.326-2.23-.46a16.426,16.426,0,0,1-4.335-1.205,5.686,5.686,0,0,1-2.376-2.181,3.2,3.2,0,0,1-.243-3.075,5.518,5.518,0,0,1,2.682-2.2A62.7,62.7,0,0,0,400.226,228.1c3.9-3.727,5.6-7.077,5.226-10.241-.487-4.071-4.54-6.808-8.177-7.1-4.843-.4-8.87,2.469-10.839,4.21a47.2,47.2,0,0,0-7.095,8.644l-.549.788c-2.32,3.32-4.864,6.766-8.206,9.21-1.425,1.044-2.658,1.344-3.666.9-1.307-.582-1.674-2.187-1.592-3.384a13.666,13.666,0,0,1,.2-1.434,8.215,8.215,0,0,0,.193-1.993,4.091,4.091,0,0,0-1.585-2.863,5.433,5.433,0,0,0-4.068-1.194,8.387,8.387,0,0,0-6,4.874,25.454,25.454,0,0,0-1.947,8.04l-2.033,15.6c-.377,2.885-1.17,6.334-3.991,7.4-2.351.886-4.843-.474-6.121-1.366a17.186,17.186,0,0,1-5.937-7.363c-.182-.433-.349-.881-.519-1.33-.651-1.733-1.326-3.525-2.8-4.472-2.234-1.437-5.383-.179-6.923,1.894-1.3,1.745-1.619,4.017-1.932,6.215-.081.563-.161,1.125-.255,1.679C319.064,269.588,318.9,289.827,332.545,302.323Z" transform="translate(-319.476 -209.937)"/><g transform="translate(13.893 3.489)"><path class="f" d="M337.22,310.414c1.53-6.563,1.142-8.587,4.822-16.7a250.5,250.5,0,0,1,13.723-25.5q2-3.293,3.946-6.5c1.3-2.133,2.587-4.245,3.977-6.233a125.817,125.817,0,0,1,8.649-10.978c2.924-3.36,5.822-6.442,8.553-9.307s5.341-5.476,7.817-7.761a100.841,100.841,0,0,1,12.482-9.915c1.562-1.053,2.8-1.831,3.645-2.35l.965-.583c.218-.129.336-.186.336-.186s-.1.081-.312.223l-.943.618c-.83.541-2.052,1.341-3.6,2.414a105.456,105.456,0,0,0-12.371,10c-2.457,2.293-5.042,4.918-7.766,7.784s-5.6,5.962-8.512,9.321a126.584,126.584,0,0,0-8.6,10.957c-1.38,1.982-2.657,4.08-3.959,6.217l-3.942,6.5A255.442,255.442,0,0,0,342.4,293.872c-3.689,8.087-3.323,10.077-4.886,16.612" transform="translate(-337.22 -214.393)"/></g><g transform="translate(40.317 13.309)"><path class="f" d="M371.123,258.167a6.878,6.878,0,0,1-.094-1.227c-.037-.791-.056-1.936-.06-3.35-.012-2.83.1-6.738.238-11.047s.181-8.213.109-11.034c-.032-1.412-.072-2.555-.111-3.343a6.756,6.756,0,0,1-.01-1.23,6.862,6.862,0,0,1,.175,1.218c.09.787.175,1.931.246,3.345.15,2.828.152,6.743.016,11.058-.141,4.271-.268,8.137-.363,11.038-.031,1.353-.056,2.477-.075,3.346A6.775,6.775,0,0,1,371.123,258.167Z" transform="translate(-370.969 -226.935)"/></g><g transform="translate(40.472 42.161)"><path class="f" d="M408.388,264.457a1.305,1.305,0,0,1-.382.009l-1.088-.056c-.943-.053-2.307-.132-3.995-.175-3.373-.112-8.041-.1-13.187.145s-9.794.683-13.145,1.1c-1.677.195-3.029.39-3.965.521l-1.079.146a1.267,1.267,0,0,1-.382.022,1.311,1.311,0,0,1,.367-.106l1.066-.224c.928-.181,2.277-.423,3.953-.656,3.348-.489,8-.968,13.165-1.221s9.839-.211,13.219-.021c1.69.081,3.055.205,4,.309l1.082.135A1.284,1.284,0,0,1,408.388,264.457Z" transform="translate(-371.166 -263.784)"/></g><g transform="translate(7.187 33.909)"><path class="f" d="M340.678,301.525a2.262,2.262,0,0,1-.179-.474l-.436-1.384c-.374-1.2-.872-2.956-1.461-5.131-1.181-4.348-2.628-10.4-4.14-17.1s-2.912-12.762-4.017-17.124c-.552-2.14-1-3.89-1.33-5.162-.146-.575-.265-1.04-.358-1.4a2.308,2.308,0,0,1-.1-.5,2.2,2.2,0,0,1,.18.474l.435,1.384c.374,1.2.872,2.957,1.461,5.131,1.182,4.348,2.629,10.4,4.141,17.106s2.912,12.759,4.017,17.121c.552,2.139,1,3.891,1.33,5.162l.358,1.405A2.258,2.258,0,0,1,340.678,301.525Z" transform="translate(-328.655 -253.245)"/></g><g transform="translate(19.209 73.467)"><path class="f" d="M394.355,303.773a2.571,2.571,0,0,1-.507.12l-1.466.261-5.4.928c-4.554.788-10.832,1.953-17.763,3.259s-13.226,2.426-17.8,3.138c-2.286.359-4.136.63-5.419.794l-1.478.183a2.357,2.357,0,0,1-.52.034,2.487,2.487,0,0,1,.507-.12l1.466-.261,5.395-.927c4.555-.788,10.832-1.955,17.767-3.26s13.223-2.426,17.792-3.138c2.285-.357,4.137-.629,5.42-.794l1.478-.183A2.361,2.361,0,0,1,394.355,303.773Z" transform="translate(-344.01 -303.767)"/></g></g></g><g transform="translate(121.433 43.199)"><path class="f" d="M274.668,368.878l-109.893-.508a23.938,23.938,0,0,1-23.827-24.039l1.164-275.505A23.939,23.939,0,0,1,166.16,44.989l109.894.507a23.939,23.939,0,0,1,23.827,24.04l-1.164,275.506A23.939,23.939,0,0,1,274.668,368.878Z" transform="translate(-140.947 -44.989)"/><g transform="translate(7.297 9.509)"><path class="a" d="M277.92,57.641l-21.306-.1a5.292,5.292,0,0,0-5.2,5.384l-.017,3.865a5.292,5.292,0,0,1-5.2,5.384l-41.53-.192a5.3,5.3,0,0,1-5.151-5.432l.016-3.865a5.3,5.3,0,0,0-5.151-5.432l-7.494-.035-18.648-.086A16.765,16.765,0,0,0,151.4,73.828l-1.137,268.913a16.766,16.766,0,0,0,16.687,16.837l109.674.506a16.764,16.764,0,0,0,16.842-16.694l1.137-268.914A16.765,16.765,0,0,0,277.92,57.641Z" transform="translate(-150.267 -57.134)"/></g><g transform="translate(70.193 288.579)"><path class="d" d="M235.122,415.894a2.264,2.264,0,1,1-2.253-2.337A2.294,2.294,0,0,1,235.122,415.894Z" transform="translate(-230.596 -413.557)"/></g><g transform="translate(77.205 288.611)"><path class="d" d="M244.078,415.935a2.264,2.264,0,1,1-2.253-2.337A2.3,2.3,0,0,1,244.078,415.935Z" transform="translate(-239.552 -413.598)"/></g><g transform="translate(84.217 288.643)"><path class="d" d="M253.033,415.976a2.264,2.264,0,1,1-2.253-2.337A2.294,2.294,0,0,1,253.033,415.976Z" transform="translate(-248.507 -413.639)"/></g><g transform="translate(12.64 74.355)"><g transform="translate(130.577 66.045)"><path class="b" d="M324.626,226.09a.9.9,0,0,1,.024-1.784.9.9,0,0,1-.024,1.784Z" transform="translate(-323.861 -224.306)"/></g><g transform="translate(130.228 71.984)"><path class="b" d="M324.1,233.668a.9.9,0,0,1,.185-1.774.9.9,0,0,1-.185,1.774Z" transform="translate(-323.416 -231.892)"/></g><g transform="translate(129.342 77.869)"><path class="b" d="M322.893,241.169a.9.9,0,0,1,.345-1.751.9.9,0,0,1-.345,1.751Z" transform="translate(-322.284 -239.407)"/></g><g transform="translate(127.92 83.649)"><path class="b" d="M321,248.526a.9.9,0,0,1,.5-1.712.9.9,0,0,1-.5,1.712Z" transform="translate(-320.468 -246.789)"/></g><g transform="translate(125.974 89.276)"><path class="b" d="M318.446,255.681a.9.9,0,0,1,.659-1.659.9.9,0,0,1-.659,1.659Z" transform="translate(-317.982 -253.976)"/></g><g transform="translate(123.52 94.704)"><path class="b" d="M315.244,262.57a.9.9,0,0,1,.808-1.591.9.9,0,0,1-.808,1.591Z" transform="translate(-314.848 -260.908)"/></g><g transform="translate(120.581 99.886)"><path class="b" d="M311.428,269.139a.9.9,0,0,1,.949-1.51.9.9,0,0,1-.949,1.51Z" transform="translate(-311.095 -267.527)"/></g><g transform="translate(117.184 104.78)"><path class="b" d="M307.032,275.334a.9.9,0,0,1,1.082-1.418.9.9,0,0,1-1.082,1.418Z" transform="translate(-306.755 -273.777)"/></g><g transform="translate(113.358 109.347)"><path class="b" d="M302.095,281.1a.9.9,0,0,1,1.206-1.314.9.9,0,0,1-1.206,1.314Z" transform="translate(-301.869 -279.61)"/></g><g transform="translate(109.136 113.55)"><path class="b" d="M296.656,286.405a.9.9,0,0,1,1.319-1.2.9.9,0,0,1-1.319,1.2Z" transform="translate(-296.477 -284.978)"/></g><g transform="translate(104.553 117.354)"><path class="b" d="M290.761,291.192a.9.9,0,0,1,1.422-1.075.9.9,0,0,1-1.422,1.075Z" transform="translate(-290.624 -289.838)"/></g><g transform="translate(99.646 120.729)"><path class="b" d="M284.457,295.426a.9.9,0,0,1,1.514-.943.9.9,0,0,1-1.514.943Z" transform="translate(-284.357 -294.147)"/></g><g transform="translate(94.454 123.643)"><path class="b" d="M277.8,299.069a.9.9,0,0,1,1.593-.8.9.9,0,0,1-1.593.8Z" transform="translate(-277.726 -297.869)"/></g><g transform="translate(89.019 126.072)"><path class="b" d="M270.829,302.089a.9.9,0,0,1,1.661-.651.9.9,0,0,1-1.661.651Z" transform="translate(-270.784 -300.971)"/></g><g transform="translate(83.387 127.993)"><path class="b" d="M263.615,304.458a.9.9,0,0,1,1.713-.5.9.9,0,0,1-1.713.5Z" transform="translate(-263.591 -303.424)"/></g><g transform="translate(77.602 129.389)"><path class="b" d="M256.213,306.158a.9.9,0,0,1,1.752-.337.9.9,0,0,1-1.752.337Z" transform="translate(-256.203 -305.208)"/></g><g transform="translate(71.716 130.25)"><path class="b" d="M248.687,307.174a.9.9,0,0,1,1.775-.177.9.9,0,0,1-1.775.177Z" transform="translate(-248.685 -306.308)"/></g><g transform="translate(65.777 130.574)"><path class="b" d="M241.1,307.506a.9.9,0,0,1,1.784-.016.9.9,0,0,1-1.784.016Z" transform="translate(-241.1 -306.722)"/></g><g transform="translate(59.833 130.361)"><path class="b" d="M233.511,307.155a.9.9,0,0,1,1.779.143.9.9,0,0,1-1.779-.143Z" transform="translate(-233.508 -306.449)"/></g><g transform="translate(53.935 129.611)"><path class="b" d="M225.987,306.12a.9.9,0,0,1,1.759.3.9.9,0,0,1-1.759-.3Z" transform="translate(-225.975 -305.491)"/></g><g transform="translate(48.132 128.324)"><path class="b" d="M218.59,304.4a.9.9,0,0,1,1.723.464.9.9,0,0,1-1.723-.464Z" transform="translate(-218.564 -303.848)"/></g><g transform="translate(42.472 126.51)"><path class="b" d="M211.381,302.012a.9.9,0,0,1,1.673.62.9.9,0,0,1-1.673-.62Z" transform="translate(-211.335 -301.531)"/></g><g transform="translate(37.005 124.183)"><path class="b" d="M204.423,298.972a.9.9,0,0,1,1.609.77.9.9,0,0,1-1.609-.77Z" transform="translate(-204.352 -298.559)"/></g><g transform="translate(31.773 121.365)"><path class="b" d="M197.772,295.309a.9.9,0,0,1,1.532.914.9.9,0,0,1-1.532-.914Z" transform="translate(-197.671 -294.959)"/></g><g transform="translate(26.821 118.081)"><path class="b" d="M191.483,291.056a.9.9,0,0,1,1.442,1.05.9.9,0,0,1-1.442-1.05Z" transform="translate(-191.346 -290.766)"/></g><g transform="translate(22.188 114.361)"><path class="b" d="M185.605,286.252a.9.9,0,0,1,1.342,1.175.9.9,0,0,1-1.342-1.175Z" transform="translate(-185.429 -286.014)"/></g><g transform="translate(17.91 110.237)"><path class="b" d="M180.187,280.936a.9.9,0,0,1,1.23,1.292.9.9,0,0,1-1.23-1.292Z" transform="translate(-179.965 -280.747)"/></g><g transform="translate(14.022 105.742)"><path class="b" d="M175.271,275.153a.9.9,0,0,1,1.108,1.4.9.9,0,0,1-1.108-1.4Z" transform="translate(-174.999 -275.006)"/></g><g transform="translate(10.556 100.914)"><path class="b" d="M170.9,268.949a.9.9,0,0,1,.976,1.492.9.9,0,0,1-.976-1.492Z" transform="translate(-170.572 -268.84)"/></g><g transform="translate(7.54 95.791)"><path class="b" d="M167.108,262.374a.9.9,0,0,1,.836,1.575.9.9,0,0,1-.836-1.575Z" transform="translate(-166.721 -262.296)"/></g><g transform="translate(5.003 90.413)"><path class="b" d="M163.932,255.479a.9.9,0,0,1,.69,1.644.9.9,0,0,1-.69-1.644Z" transform="translate(-163.48 -255.429)"/></g><g transform="translate(2.965 84.826)"><path class="b" d="M161.4,248.322a.9.9,0,0,1,.536,1.7.9.9,0,0,1-.536-1.7Z" transform="translate(-160.878 -248.293)"/></g><g transform="translate(1.446 79.076)"><path class="b" d="M159.531,240.962a.9.9,0,0,1,.378,1.744.9.9,0,0,1-.378-1.744Z" transform="translate(-158.937 -240.949)"/></g><g transform="translate(0.456 73.211)"><path class="b" d="M158.343,233.462a.9.9,0,0,1,.218,1.77.9.9,0,0,1-.218-1.77Z" transform="translate(-157.673 -233.458)"/></g><g transform="translate(0 67.28)"><path class="b" d="M157.839,225.883a.9.9,0,0,1,.057,1.784.9.9,0,0,1-.057-1.784Z" transform="translate(-157.09 -225.883)"/></g><g transform="translate(0.075 61.333)"><path class="b" d="M158.015,218.289a.9.9,0,0,1-.1,1.782.9.9,0,0,1,.1-1.782Z" transform="translate(-157.187 -218.288)"/></g><g transform="translate(0.683 55.419)"><path class="b" d="M158.875,210.743a.9.9,0,0,1-.264,1.765.9.9,0,0,1,.264-1.765Z" transform="translate(-157.963 -210.734)"/></g><g transform="translate(1.826 49.587)"><path class="b" d="M160.419,203.308a.9.9,0,0,1-.424,1.733.9.9,0,0,1,.424-1.733Z" transform="translate(-159.422 -203.286)"/></g><g transform="translate(3.495 43.887)"><path class="b" d="M162.636,196.046a.9.9,0,0,1-.581,1.686.9.9,0,0,1,.581-1.686Z" transform="translate(-161.554 -196.005)"/></g><g transform="translate(5.679 38.365)"><path class="b" d="M165.51,189.017a.9.9,0,0,1-.733,1.627.9.9,0,0,1,.733-1.627Z" transform="translate(-164.344 -188.953)"/></g><g transform="translate(8.358 33.07)"><path class="b" d="M169.013,182.283a.9.9,0,0,1-.878,1.553.9.9,0,0,1,.878-1.553Z" transform="translate(-167.765 -182.19)"/></g><g transform="translate(11.507 28.042)"><path class="b" d="M173.114,175.9a.9.9,0,0,1-1.016,1.467.9.9,0,0,1,1.016-1.467Z" transform="translate(-171.787 -175.769)"/></g><g transform="translate(15.101 23.321)"><path class="b" d="M177.779,169.906a.9.9,0,0,1-1.145,1.369.9.9,0,0,1,1.145-1.369Z" transform="translate(-176.377 -169.74)"/></g><g transform="translate(19.108 18.948)"><path class="b" d="M182.967,164.365a.9.9,0,0,1-1.264,1.26.9.9,0,0,1,1.264-1.26Z" transform="translate(-181.495 -164.155)"/></g><g transform="translate(23.492 14.959)"><path class="b" d="M188.631,159.318a.9.9,0,0,1-1.372,1.14.9.9,0,0,1,1.372-1.14Z" transform="translate(-187.095 -159.059)"/></g><g transform="translate(28.22 11.383)"><path class="b" d="M194.728,154.805a.9.9,0,0,1-1.469,1.011.9.9,0,0,1,1.469-1.011Z" transform="translate(-193.133 -154.492)"/></g><g transform="translate(33.255 8.251)"><path class="b" d="M201.209,150.864a.9.9,0,0,1-1.555.873.9.9,0,0,1,1.555-.873Z" transform="translate(-199.563 -150.492)"/></g><g transform="translate(38.556 5.591)"><path class="b" d="M208.024,147.529a.9.9,0,0,1-1.628.727.9.9,0,0,1,1.628-.727Z" transform="translate(-206.333 -147.095)"/></g><g transform="translate(44.08 3.425)"><path class="b" d="M215.116,144.832a.9.9,0,0,1-1.688.575.9.9,0,0,1,1.688-.575Z" transform="translate(-213.388 -144.329)"/></g><g transform="translate(49.783 1.773)"><path class="b" d="M222.428,142.794a.9.9,0,0,1-1.734.418.9.9,0,0,1,1.734-.418Z" transform="translate(-220.672 -142.219)"/></g><g transform="translate(55.616 0.649)"><path class="b" d="M229.9,141.434a.9.9,0,0,1-1.765.258.9.9,0,0,1,1.765-.258Z" transform="translate(-228.123 -140.783)"/></g><g transform="translate(61.531 0.058)"><path class="b" d="M237.461,140.757a.9.9,0,0,1-1.782.1.9.9,0,0,1,1.782-.1Z" transform="translate(-235.677 -140.028)"/></g><g transform="translate(67.477)"><path class="b" d="M245.055,140.762a.9.9,0,0,1-1.784-.062.9.9,0,0,1,1.784.062Z" transform="translate(-243.271 -139.954)"/></g><g transform="translate(73.408 0.473)"><path class="b" d="M252.62,141.449a.9.9,0,0,1-1.77-.223.9.9,0,0,1,1.77.223Z" transform="translate(-250.846 -140.558)"/></g><g transform="translate(79.272 1.48)"><path class="b" d="M260.092,142.821a.9.9,0,0,1-1.743-.384.9.9,0,0,1,1.743.384Z" transform="translate(-258.335 -141.845)"/></g><g transform="translate(85.02 3.018)"><path class="b" d="M267.406,144.869a.9.9,0,0,1-1.7-.542.9.9,0,0,1,1.7.542Z" transform="translate(-265.676 -143.808)"/></g><g transform="translate(90.603 5.073)"><path class="b" d="M274.5,147.577a.9.9,0,0,1-1.64-.694.9.9,0,0,1,1.64.694Z" transform="translate(-272.807 -146.433)"/></g><g transform="translate(95.973 7.627)"><path class="b" d="M281.317,150.923a.9.9,0,0,1-1.572-.842.9.9,0,0,1,1.572.842Z" transform="translate(-279.666 -149.695)"/></g><g transform="translate(101.09 10.66)"><path class="b" d="M287.8,154.876a.9.9,0,0,1-1.489-.982.9.9,0,0,1,1.489.982Z" transform="translate(-286.201 -153.568)"/></g><g transform="translate(105.91 14.142)"><path class="b" d="M293.9,159.4a.9.9,0,0,1-1.394-1.113A.9.9,0,0,1,293.9,159.4Z" transform="translate(-292.357 -158.016)"/></g><g transform="translate(110.393 18.045)"><path class="b" d="M299.561,164.456a.9.9,0,0,1-1.287-1.234.9.9,0,0,1,1.287,1.234Z" transform="translate(-298.082 -163.001)"/></g><g transform="translate(114.503 22.336)"><path class="b" d="M304.743,170a.9.9,0,0,1-1.171-1.345A.9.9,0,0,1,304.743,170Z" transform="translate(-303.332 -168.481)"/></g><g transform="translate(118.208 26.98)"><path class="b" d="M309.4,175.993a.9.9,0,0,1-1.044-1.445.9.9,0,0,1,1.044,1.445Z" transform="translate(-308.064 -174.412)"/></g><g transform="translate(121.475 31.94)"><path class="b" d="M313.5,182.382a.9.9,0,0,1-.909-1.534.9.9,0,0,1,.909,1.534Z" transform="translate(-312.236 -180.748)"/></g><g transform="translate(124.275 37.177)"><path class="b" d="M316.994,189.117a.9.9,0,0,1-.766-1.611.9.9,0,0,1,.766,1.611Z" transform="translate(-315.813 -187.437)"/></g><g transform="translate(126.584 42.649)"><path class="b" d="M319.861,196.143a.9.9,0,0,1-.615-1.674.9.9,0,0,1,.615,1.674Z" transform="translate(-318.762 -194.424)"/></g><g transform="translate(128.381 48.31)"><path class="b" d="M322.071,203.405a.9.9,0,0,1-.459-1.724.9.9,0,0,1,.459,1.724Z" transform="translate(-321.057 -201.656)"/></g><g transform="translate(129.65 54.115)"><path class="b" d="M323.607,210.839a.9.9,0,0,1-.3-1.759.9.9,0,0,1,.3,1.759Z" transform="translate(-322.678 -209.069)"/></g><g transform="translate(130.383 60.014)"><path class="b" d="M324.46,218.385a.9.9,0,0,1-.139-1.779.9.9,0,0,1,.139,1.779Z" transform="translate(-323.613 -216.603)"/></g></g><g transform="translate(140.52 35.178)"><path class="f" d="M322.431,90.924a1.007,1.007,0,1,1-1.007-1.007A1.006,1.006,0,0,1,322.431,90.924Z" transform="translate(-320.417 -89.917)"/><g transform="translate(0 3.621)"><path class="f" d="M322.431,95.549a1.007,1.007,0,1,1-1.007-1.007A1.007,1.007,0,0,1,322.431,95.549Z" transform="translate(-320.417 -94.542)"/></g><g transform="translate(0 7.242)"><path class="f" d="M322.431,100.174a1.007,1.007,0,1,1-1.007-1.007A1.007,1.007,0,0,1,322.431,100.174Z" transform="translate(-320.417 -99.167)"/></g></g><g transform="translate(17.46 34.385)"><path class="f" d="M168.6,88.907a2.356,2.356,0,0,1,.36.283l1.041.9,3.862,3.4.048.042V93.6c.011,1.73.023,3.743.037,5.95v.183h-.185l-3.747.012h-.2v-.2c0-1.145,0-2.341-.005-3.566l.2.2h-2.559l.2-.2c0,1.219,0,2.411,0,3.566v.2h-.2l-4.021-.013h-.186l0-.183c.013-2.206.026-4.208.036-5.95v-.067l.048-.042,3.862-3.4,1.041-.9a2.379,2.379,0,0,1,.361-.283,3.506,3.506,0,0,1-.357.368l-1.014.972-3.695,3.461.049-.109c.01,1.741.023,3.743.036,5.95l-.183-.184,4.021-.013-.2.2c0-1.155,0-2.347,0-3.566v-.2h2.961v.2c0,1.225,0,2.42,0,3.566l-.195-.2,3.747.012-.183.184c.013-2.206.026-4.22.036-5.95l.049.109-3.7-3.462-1.014-.972A3.439,3.439,0,0,1,168.6,88.907Z" transform="translate(-163.246 -88.905)"/></g><g transform="translate(21.58 255.926)"><path class="f" d="M279.758,372.019c0,.092-24.906.165-55.622.165s-55.627-.074-55.627-.165,24.9-.165,55.627-.165S279.758,371.928,279.758,372.019Z" transform="translate(-168.509 -371.854)"/><g transform="translate(0 11.114)"><path class="f" d="M279.758,386.213c0,.092-24.906.166-55.622.166s-55.627-.074-55.627-.166,24.9-.165,55.627-.165S279.758,386.122,279.758,386.213Z" transform="translate(-168.509 -386.048)"/></g><g transform="translate(31.472 22.228)"><path class="f" d="M257.009,400.408c0,.092-10.814.165-24.152.165s-24.154-.074-24.154-.165,10.812-.165,24.154-.165S257.009,400.317,257.009,400.408Z" transform="translate(-208.704 -400.243)"/></g></g><text class="g" transform="translate(60.6 241.543)"><tspan x="0" y="0">Hola!</tspan></text></g><g transform="translate(114.093 96.021)"><g transform="translate(0)"><g transform="translate(0 2.455)"><circle class="c" cx="60.145" cy="60.145" r="60.145" transform="translate(0 85.058) rotate(-45)"/></g><g transform="translate(28.966)"><g transform="translate(55.542)"><path class="f" d="M277.24,182.37c-.153-4.43,2.568-8.971.962-13.1-1.194-3.069-4.474-4.915-5.8-7.931-1.277-2.912-.482-6.255.052-9.389s.64-6.763-1.578-9.04c-1.824-1.872-4.74-2.287-6.66-4.061-1.744-1.611-2.39-4.1-2.538-6.468s.117-4.761-.184-7.116a15.155,15.155,0,0,0-8.123-11.431,11.546,11.546,0,0,0-13.87,2.181l14.623,55.557C262.349,173.029,269.976,176.952,277.24,182.37Z" transform="translate(-239.505 -112.451)"/><g transform="translate(21.13 16.889)"><path class="f" d="M283.418,164.332a1.247,1.247,0,0,1,.457.232,2.084,2.084,0,0,1,.743,1.258,2.413,2.413,0,0,1-.619,2.2,3.02,3.02,0,0,1-2.96.605,3.932,3.932,0,0,1-2.531-2.663,7.266,7.266,0,0,1,.062-4.269c.395-1.464,1.073-2.9,1.563-4.432a9.788,9.788,0,0,0,.348-4.9,10.181,10.181,0,0,0-5.532-7.4c-1.335-.642-2.7-1.067-3.91-1.66a7.6,7.6,0,0,1-4.286-5.056,7.548,7.548,0,0,1-.251-2.307,6.684,6.684,0,0,1,.221-1.449,2.932,2.932,0,0,1,.168-.482,10.037,10.037,0,0,0-.259,1.935,7.539,7.539,0,0,0,4.527,7.111c1.189.572,2.555.985,3.923,1.633a10.443,10.443,0,0,1,5.726,7.61,10.07,10.07,0,0,1-.366,5.053c-.5,1.565-1.185,2.986-1.577,4.415a7.027,7.027,0,0,0-.1,4.1,3.7,3.7,0,0,0,2.34,2.524,2.829,2.829,0,0,0,2.764-.515,2.282,2.282,0,0,0,.62-2.044,2.073,2.073,0,0,0-.658-1.231C283.58,164.406,283.407,164.353,283.418,164.332Z" transform="translate(-266.492 -134.022)"/></g></g><g transform="translate(20.338 8.673)"><path class="f" d="M215.946,123.529c-2.1,5.7-3.04,10.331-5.093,14.869-1.162,2.567-2.705,5.146-2.562,7.96.1,1.932,1,3.775.948,5.708-.089,3.405-2.981,5.97-5.546,8.213s-5.247,5.192-4.717,8.557c.231,1.463,1.066,2.794,1.193,4.269a7.341,7.341,0,0,1-1.885,4.953,37.639,37.639,0,0,0-3.344,4.266l-.4,2.717L226.607,174.9" transform="translate(-194.542 -123.529)"/></g><g transform="translate(97.868 35.978)"><path class="h" d="M315.892,180.68c-.807-5.368-.038-10.807-.251-13.61-.395-5.215-.866-5.2-1.469-5.063-1.622.361.345,9.191-1.182,7.509s-1.145-11.046-2.822-10.6c-2.185.582.043,9.792.174,10.584.128.77-1.014.979-1.093.258-.115-1.036-1.588-11.888-3.74-11.337-1.193.305-.388,2.394-.388,2.394s2.13,10.071,1.1,10.3c-1.041.23-2.491-5.646-2.841-7.658-.345-1.989-1.434-2.657-2.192-1.8-.517.587.4,6.772.8,8.754s1.562,7.406-1.2,5.145-5.714-2.988-6.637-2.637-.735,1.767.33,2.057a13.324,13.324,0,0,1,3.155,1.725,12.766,12.766,0,0,1,2.085,1.992c.7.757,3.238,3.859,3.849,6.979l12.318-4.992" transform="translate(-293.562 -158.402)"/><g transform="translate(10.196 18.813)"><path class="i" d="M315.3,183.144c.013.05-.337.135-.826.46a3.28,3.28,0,0,0-1.345,1.859l-.113.431-.229-.388a5.425,5.425,0,0,0-1.247-1.433,6.176,6.176,0,0,0-3.387-1.36c-.955-.088-1.548.086-1.564.011a2.936,2.936,0,0,1,1.576-.3,5.881,5.881,0,0,1,3.629,1.333,5.391,5.391,0,0,1,1.317,1.558l-.342.044a3.279,3.279,0,0,1,1.589-1.957A1.576,1.576,0,0,1,315.3,183.144Z" transform="translate(-306.584 -182.429)"/></g></g><g transform="translate(0 57.215)"><path class="j" d="M289.177,185.526,275.535,190.9l3.969,30.581L276.63,217.1l-5.4-7.025c-14.455-24.89-32.972-20.954-32.972-20.954l-24.377-1.9s-15.429.277-24.325,10.37c-2.287,2.595-15.518,29.055-20.988,40.083a60.249,60.249,0,0,0,15.442,22.516l13.906-28.734,2.354,10.076a30.549,30.549,0,0,1,.066,16.756l-3.743,10.764A60.217,60.217,0,0,0,254.561,268l-3.588-8.518a31.036,31.036,0,0,1-1.8-18.07l2.608-13.02,14.566,13.853a40.206,40.206,0,0,0,4.95,4.709h0c6.74,5.354,12,5.5,12,5.5C306.393,251.524,289.177,185.526,289.177,185.526Z" transform="translate(-168.567 -185.526)"/><g transform="translate(35.715 26.212)"><path class="k" d="M215.971,219.9a.895.895,0,1,1-.894-.894A.895.895,0,0,1,215.971,219.9Z" transform="translate(-214.182 -219.003)"/></g><g transform="translate(29.267 35.531)"><path class="k" d="M207.735,231.8a.895.895,0,1,1-.894-.894A.895.895,0,0,1,207.735,231.8Z" transform="translate(-205.946 -230.906)"/></g><g transform="translate(49.617 26.212)"><path class="k" d="M233.726,219.9a.895.895,0,1,1-.895-.894A.9.9,0,0,1,233.726,219.9Z" transform="translate(-231.937 -219.003)"/></g><g transform="translate(29.017 7.538)"><path class="k" d="M207.416,196.048a.895.895,0,1,1-.894-.894A.9.9,0,0,1,207.416,196.048Z" transform="translate(-205.627 -195.154)"/></g><g transform="translate(56.052 36.852)"><path class="k" d="M241.945,233.487a.895.895,0,1,1-.894-.894A.895.895,0,0,1,241.945,233.487Z" transform="translate(-240.156 -232.593)"/></g><g transform="translate(67.08 33.086)"><path class="k" d="M256.03,228.677a.895.895,0,1,1-.895-.894A.9.9,0,0,1,256.03,228.677Z" transform="translate(-254.241 -227.783)"/></g><g transform="translate(84.866 24.174)"><path class="k" d="M278.745,217.3a.895.895,0,1,1-.895-.895A.9.9,0,0,1,278.745,217.3Z" transform="translate(-276.956 -216.401)"/></g><g transform="translate(101.356 38.846)"><path class="k" d="M299.807,236.034a.895.895,0,1,1-.895-.895A.894.894,0,0,1,299.807,236.034Z" transform="translate(-298.018 -235.139)"/></g><g transform="translate(110.058 43.839)"><path class="k" d="M310.921,242.411a.895.895,0,1,1-.895-.895A.895.895,0,0,1,310.921,242.411Z" transform="translate(-309.132 -241.516)"/></g><g transform="translate(112.537 56.452)"><path class="k" d="M314.085,258.521a.894.894,0,1,1-.894-.895A.894.894,0,0,1,314.085,258.521Z" transform="translate(-312.297 -257.626)"/></g><g transform="translate(121.024 47.486)"><path class="k" d="M324.926,247.069a.895.895,0,1,1-.894-.894A.9.9,0,0,1,324.926,247.069Z" transform="translate(-323.137 -246.175)"/></g><g transform="translate(115.304 35.531)"><path class="k" d="M317.62,231.8a.895.895,0,1,1-.895-.894A.9.9,0,0,1,317.62,231.8Z" transform="translate(-315.831 -230.906)"/></g><g transform="translate(121.024 25.317)"><path class="k" d="M324.926,218.755a.895.895,0,1,1-.894-.895A.894.894,0,0,1,324.926,218.755Z" transform="translate(-323.137 -217.86)"/></g><g transform="translate(113.89 16.382)"><path class="k" d="M315.814,207.343a.895.895,0,1,1-.895-.894A.9.9,0,0,1,315.814,207.343Z" transform="translate(-314.025 -206.449)"/></g><g transform="translate(118.913 6.644)"><path class="k" d="M322.23,194.906a.895.895,0,1,1-.894-.895A.894.894,0,0,1,322.23,194.906Z" transform="translate(-320.441 -194.011)"/></g><g transform="translate(99.324 51.909)"><path class="k" d="M297.211,252.717a.895.895,0,1,1-.894-.894A.894.894,0,0,1,297.211,252.717Z" transform="translate(-295.422 -251.823)"/></g><g transform="translate(89.36 37.746)"><path class="k" d="M284.485,234.63a.895.895,0,1,1-.894-.895A.894.894,0,0,1,284.485,234.63Z" transform="translate(-282.696 -233.735)"/></g><g transform="translate(101.356 28.301)"><path class="k" d="M299.807,222.565a.895.895,0,1,1-.895-.894A.895.895,0,0,1,299.807,222.565Z" transform="translate(-298.018 -221.671)"/></g><g transform="translate(40.556 14.593)"><circle class="k" cx="0.895" cy="0.895" r="0.895"/></g><g transform="translate(16.458 34.636)"><path class="k" d="M191.376,230.658a.895.895,0,1,1-.894-.895A.894.894,0,0,1,191.376,230.658Z" transform="translate(-189.587 -229.763)"/></g><g transform="translate(15.564 58.222)"><path class="k" d="M190.234,260.781a.895.895,0,1,1-.895-.895A.9.9,0,0,1,190.234,260.781Z" transform="translate(-188.445 -259.886)"/></g><g transform="translate(7.895 63.318)"><circle class="k" cx="0.895" cy="0.895" r="0.895"/></g><g transform="translate(37.504 38.846)"><path class="k" d="M218.256,236.034a.895.895,0,1,1-.894-.895A.894.894,0,0,1,218.256,236.034Z" transform="translate(-216.467 -235.139)"/></g><g transform="translate(49.928 44.734)"><path class="k" d="M234.123,243.553a.895.895,0,1,1-.895-.894A.9.9,0,0,1,234.123,243.553Z" transform="translate(-232.334 -242.659)"/></g><g transform="translate(72.175 45.628)"><path class="k" d="M262.537,244.7a.895.895,0,1,1-.894-.895A.894.894,0,0,1,262.537,244.7Z" transform="translate(-260.748 -243.801)"/></g><g transform="translate(77.94 33.742)"><path class="k" d="M269.9,229.515a.895.895,0,1,1-.895-.894A.9.9,0,0,1,269.9,229.515Z" transform="translate(-268.111 -228.621)"/></g><g transform="translate(73.607 75.511)"><path class="k" d="M264.366,282.861a.895.895,0,1,1-.895-.894A.9.9,0,0,1,264.366,282.861Z" transform="translate(-262.577 -281.967)"/></g><g transform="translate(73.607 84.815)"><path class="k" d="M264.366,294.745a.895.895,0,1,1-.895-.894A.9.9,0,0,1,264.366,294.745Z" transform="translate(-262.577 -293.851)"/></g><g transform="translate(77.045 60.012)"><path class="k" d="M268.757,263.066a.895.895,0,1,1-.894-.894A.894.894,0,0,1,268.757,263.066Z" transform="translate(-266.968 -262.172)"/></g><g transform="translate(61.722 52.803)"><path class="k" d="M249.186,253.859a.895.895,0,1,1-.894-.894A.9.9,0,0,1,249.186,253.859Z" transform="translate(-247.397 -252.965)"/></g><g transform="translate(65.291 64.212)"><path class="k" d="M253.745,268.431a.895.895,0,1,1-.895-.894A.9.9,0,0,1,253.745,268.431Z" transform="translate(-251.956 -267.537)"/></g><g transform="translate(48.139 59.117)"><path class="k" d="M231.838,261.924a.895.895,0,1,1-.895-.895A.9.9,0,0,1,231.838,261.924Z" transform="translate(-230.049 -261.029)"/></g><g transform="translate(44.373 80.163)"><path class="k" d="M227.028,288.8a.895.895,0,1,1-.895-.894A.9.9,0,0,1,227.028,288.8Z" transform="translate(-225.239 -287.909)"/></g><g transform="translate(52.782 71.744)"><path class="k" d="M237.769,278.051a.895.895,0,1,1-.895-.894A.9.9,0,0,1,237.769,278.051Z" transform="translate(-235.98 -277.157)"/></g><g transform="translate(34.942 83.043)"><path class="k" d="M214.984,292.482a.895.895,0,1,1-.894-.895A.894.894,0,0,1,214.984,292.482Z" transform="translate(-213.195 -291.587)"/></g><g transform="translate(53.677 88.138)"><circle class="k" cx="0.895" cy="0.895" r="0.895"/></g><g transform="translate(62.53 81.057)"><path class="k" d="M250.219,289.946a.895.895,0,1,1-.895-.895A.895.895,0,0,1,250.219,289.946Z" transform="translate(-248.429 -289.051)"/></g><g transform="translate(36.61 52.803)"><path class="k" d="M217.114,253.859a.895.895,0,1,1-.895-.894A.9.9,0,0,1,217.114,253.859Z" transform="translate(-215.325 -252.965)"/></g><g transform="translate(37.053 69.972)"><circle class="k" cx="0.895" cy="0.895" r="0.895"/></g><g transform="translate(6.284 48.381)"><path class="k" d="M178.382,248.212a.895.895,0,1,1-.894-.895A.894.894,0,0,1,178.382,248.212Z" transform="translate(-176.593 -247.317)"/></g><g transform="translate(19.443 47.486)"><path class="k" d="M195.188,247.069a.895.895,0,1,1-.894-.894A.895.895,0,0,1,195.188,247.069Z" transform="translate(-193.399 -246.175)"/></g><g transform="translate(23.769 19.683)"><path class="k" d="M200.714,211.559a.895.895,0,1,1-.895-.894A.895.895,0,0,1,200.714,211.559Z" transform="translate(-198.925 -210.665)"/></g><g class="l" transform="translate(29.347 40.634)"><path d="M206.049,242.716s2.365-5.37,2.251-5.292,2.249,20.46,1.209,26.292C209.509,263.716,208.6,251.816,206.049,242.716Z" transform="translate(-206.049 -237.423)"/></g><g class="l" transform="translate(61.042 6.585)"><path d="M252.371,202.141l-5.828,6.311c-.2,2.945,1.655,7.239,3.367,9.642a4.649,4.649,0,0,0,3.14,2.269,5.226,5.226,0,0,0,2.055-.411l15.545-5.375-1.283-2.091a7.942,7.942,0,0,0,11.705-3.588,14.751,14.751,0,0,1-9.025-13.332l-2.879-1.629Z" transform="translate(-246.528 -193.936)"/></g><g class="l" transform="translate(45.414 57.08)"><path d="M257.745,258.478c.161.438-6.817,3.38-15.4,7.014s-15.567,6.575-15.769,6.155c-.2-.4,6.488-4.036,15.125-7.679S257.593,258.058,257.745,258.478Z" transform="translate(-226.569 -258.428)"/></g><g transform="translate(110.619 35.734)"><path class="f" d="M312.224,243.711a61.47,61.47,0,0,1-1.344-6.243,61.55,61.55,0,0,1-1.019-6.3,61.732,61.732,0,0,1,1.344,6.243A61.815,61.815,0,0,1,312.224,243.711Z" transform="translate(-309.849 -231.165)"/></g><g transform="translate(111.059 35.942)"><path class="f" d="M315.4,242.5a7.934,7.934,0,0,1-1.043-1.456,32.269,32.269,0,0,1-3.542-7.867,7.854,7.854,0,0,1-.4-1.746,12.29,12.29,0,0,1,.622,1.675c.364,1.037.9,2.459,1.586,3.988s1.4,2.87,1.935,3.831A12.145,12.145,0,0,1,315.4,242.5Z" transform="translate(-310.41 -231.431)"/></g><g transform="translate(23.285 9.735)"><path class="f" d="M206.9,224.67a1.1,1.1,0,0,1-.007-.305c.011-.238.025-.525.042-.871.045-.808.106-1.889.179-3.2a40.673,40.673,0,0,0-.605-10.488,19.026,19.026,0,0,0-4.749-9.21,17.169,17.169,0,0,0-3.455-2.634,1.047,1.047,0,0,1,.283.113,7.938,7.938,0,0,1,.778.4,12.59,12.59,0,0,1,2.559,1.954,18.631,18.631,0,0,1,4.906,9.306,37.891,37.891,0,0,1,.516,10.572c-.1,1.352-.2,2.443-.284,3.2-.042.345-.075.63-.1.867A1.069,1.069,0,0,1,206.9,224.67Z" transform="translate(-198.306 -197.96)"/></g><g transform="translate(82.603 25.517)"><path class="f" d="M274.082,218.116a10.606,10.606,0,0,1,.344,2c.153,1.245.3,2.975.346,4.89s-.021,3.65-.116,4.9a10.532,10.532,0,0,1-.25,2.016,14.893,14.893,0,0,1,.016-2.028c.035-1.25.063-2.976.02-4.882s-.155-3.628-.248-4.874A14.549,14.549,0,0,1,274.082,218.116Z" transform="translate(-274.066 -218.116)"/></g></g><g transform="translate(48.139 7.618)"><path class="f" d="M230.049,172.819c.5-6.214,7.667-2.433,6.867-8.616a261.215,261.215,0,0,1-2.012-42.022" transform="translate(-230.049 -122.181)"/></g><g transform="translate(40.009 6.053)"><path class="h" d="M249.552,172.548l2.773-42.475c-7.087-9.727-16.637-11.783-28.259-8.326,0,0-4.935,20.53-4.352,30.34.612,10.287,8.248,12.34,8.248,12.34s-.269,3.463-.641,7.7c-1.977.323-4.049.745-6.213,1.283-.832.207,15.375,23.616,15.375,23.616l20.219-21.9A27.941,27.941,0,0,0,249.552,172.548Z" transform="translate(-219.666 -120.183)"/></g><g transform="translate(42.151 19.75)"><g transform="translate(0.694 1.701)"><g transform="translate(1.564 1.197)"><path class="f" d="M225.3,142.432a1.3,1.3,0,0,0,1.124,1.434,1.248,1.248,0,0,0,1.454-1.039,1.306,1.306,0,0,0-1.122-1.434A1.249,1.249,0,0,0,225.3,142.432Z" transform="translate(-225.285 -141.377)"/></g><path class="f" d="M223.3,140.981c.144.186,1.2-.446,2.6-.3,1.4.121,2.354.941,2.522.785.081-.068-.052-.39-.467-.759a3.582,3.582,0,0,0-2-.838,3.441,3.441,0,0,0-2.088.454C223.407,140.605,223.232,140.9,223.3,140.981Z" transform="translate(-223.288 -139.848)"/><g transform="translate(14.304 1.633)"><g transform="translate(1.544 1.219)"><path class="f" d="M243.54,144.546a1.305,1.305,0,0,0,1.124,1.434,1.249,1.249,0,0,0,1.455-1.039A1.306,1.306,0,0,0,245,143.507,1.249,1.249,0,0,0,243.54,144.546Z" transform="translate(-243.529 -143.491)"/></g><path class="f" d="M241.573,143.067c.145.185,1.2-.446,2.6-.3,1.4.121,2.354.941,2.522.785.081-.069-.051-.39-.467-.759a3.577,3.577,0,0,0-2-.838,3.442,3.442,0,0,0-2.088.454C241.678,142.691,241.5,142.983,241.573,143.067Z" transform="translate(-241.558 -141.934)"/></g><g transform="translate(4.585 0.816)"><path class="f" d="M232.613,152.475a9.358,9.358,0,0,0-2.231-.633c-.353-.072-.684-.176-.72-.426a1.828,1.828,0,0,1,.343-1.034q.631-1.246,1.323-2.614c1.846-3.726,3.22-6.8,3.07-6.877s-1.77,2.888-3.617,6.613q-.669,1.38-1.28,2.635a2.076,2.076,0,0,0-.323,1.383.9.9,0,0,0,.536.579,2.452,2.452,0,0,0,.6.144A9.1,9.1,0,0,0,232.613,152.475Z" transform="translate(-229.145 -140.89)"/></g><g transform="translate(5.361 26.563)"><path class="i" d="M230.234,176.058a25.9,25.9,0,0,0,13.921-2.284s-3.976,6.634-14.02,4.688Z" transform="translate(-230.135 -173.774)"/></g><g transform="translate(8.143 15.06)"><path class="i" d="M233.858,159.85a2.53,2.53,0,0,1,2.35-.713,2.314,2.314,0,0,1,1.5,1.008,1.465,1.465,0,0,1-.053,1.677,1.7,1.7,0,0,1-1.878.283,5.319,5.319,0,0,1-1.682-1.243,1.563,1.563,0,0,1-.359-.452.471.471,0,0,1,.053-.521" transform="translate(-233.688 -159.083)"/></g><g transform="translate(7.251 13.772)"><path class="f" d="M237.37,157.438c-.226-.035-.378,1.481-1.783,2.431s-3,.623-3.036.834c-.031.093.331.33,1.012.416a3.792,3.792,0,0,0,2.526-.611,3.307,3.307,0,0,0,1.4-2.047C237.607,157.832,237.475,157.439,237.37,157.438Z" transform="translate(-232.549 -157.437)"/></g></g><g transform="translate(1.046)"><path class="f" d="M228.185,138.461c-.084.214-1.048.016-2.221.019-1.173-.016-2.139.171-2.221-.045-.088-.195.88-.771,2.225-.759S228.275,138.266,228.185,138.461Z" transform="translate(-223.738 -137.676)"/></g><g transform="translate(14.902 0.001)"><path class="f" d="M246.1,139.066c-.044-.031-.048-.113-.016-.24l.035.205a9.673,9.673,0,0,0-2.189-.538c-1.32-.139-2.372.292-2.485.09-.051-.091.16-.337.616-.563a3.716,3.716,0,0,1,1.939-.327,3.239,3.239,0,0,1,2.293,1.1l.1.161-.063.045C246.218,139.071,246.14,139.1,246.1,139.066Z" transform="translate(-241.434 -137.677)"/></g><g transform="translate(19.675 9.769)"><path class="i" d="M247.778,150.881c-.11.013-.218-.139-.242-.341s.046-.374.157-.388.218.139.242.341S247.888,150.868,247.778,150.881Z" transform="translate(-247.531 -150.152)"/></g><g transform="translate(16.579 9.758)"><path class="i" d="M243.715,150.739c-.11-.007-.186-.187-.1-.381s.265-.265.345-.191a.314.314,0,0,1,.024.348C243.925,150.642,243.827,150.747,243.715,150.739Z" transform="translate(-243.577 -150.139)"/></g><g transform="translate(18.265 11.247)"><path class="i" d="M245.916,152.536a.253.253,0,1,1,.216-.235A.228.228,0,0,1,245.916,152.536Z" transform="translate(-245.73 -152.041)"/></g><g transform="translate(0 9.004)"><path class="i" d="M222.562,149.9c-.11-.014-.179-.187-.155-.388s.134-.352.244-.339.179.187.155.388S222.672,149.917,222.562,149.9Z" transform="translate(-222.402 -149.176)"/></g><g transform="translate(3.203 9.203)"><path class="i" d="M226.678,150.023c-.11-.005-.193-.143-.184-.308s.106-.292.216-.286.193.144.185.308S226.789,150.03,226.678,150.023Z" transform="translate(-226.493 -149.43)"/></g><g transform="translate(1.609 10.093)"><path class="i" d="M224.661,151.293c-.111,0-.2-.161-.2-.362s.087-.363.2-.364.2.161.2.362S224.772,151.292,224.661,151.293Z" transform="translate(-224.457 -150.567)"/></g></g><g transform="translate(28.962 0.331)"><g transform="translate(7.687)"><path class="f" d="M232.915,115.275a22.581,22.581,0,0,1-5.747,13.179c-3.283,3.609-6.993,6.762-11.794,7.632,1.3-4.138,1.583-7.468,2.643-10.918s2.536-6.925,5.237-9.32a12.246,12.246,0,0,1,12.622-2.06" transform="translate(-215.374 -112.875)"/></g><g transform="translate(8.713 6.227)"><path class="d" d="M216.685,133.916a13.021,13.021,0,0,0,3.065-.39,10.488,10.488,0,0,0,2.987-1.474,24.855,24.855,0,0,0,3.14-2.661,35.413,35.413,0,0,0,4.582-5.927l1.207-1.938a4.182,4.182,0,0,1,.466-.7,4,4,0,0,1-.354.763c-.25.479-.626,1.165-1.12,2a31.4,31.4,0,0,1-4.547,6.038,23.354,23.354,0,0,1-3.2,2.679,10.237,10.237,0,0,1-3.1,1.448,8.075,8.075,0,0,1-2.289.258A3.251,3.251,0,0,1,216.685,133.916Z" transform="translate(-216.685 -120.827)"/></g><g transform="translate(0 19.817)"><path class="d" d="M217.384,138.185a2.634,2.634,0,0,1-.289.383c-.2.244-.478.611-.8,1.106a13.663,13.663,0,0,0-1.95,4.587,13.14,13.14,0,0,0-.313,3.427,23.2,23.2,0,0,0,.591,3.927,24.7,24.7,0,0,1,.658,4.394,10.069,10.069,0,0,1-.992,4.672,10.272,10.272,0,0,1-3,3.724c-1.243.94-2.6,1.565-3.66,2.462a4.386,4.386,0,0,0-1.8,3.29,6.809,6.809,0,0,0,1.082,3.2,15.935,15.935,0,0,1,1.314,2.572,5.288,5.288,0,0,1,.341,2.16,2.771,2.771,0,0,1-.42,1.315,1.643,1.643,0,0,1-.305.373c-.016-.013.1-.135.248-.406a2.862,2.862,0,0,0,.348-1.29,5.289,5.289,0,0,0-.387-2.089,16.332,16.332,0,0,0-1.344-2.52,6.985,6.985,0,0,1-1.153-3.317,3.791,3.791,0,0,1,.513-1.924,6.058,6.058,0,0,1,1.362-1.6c1.1-.936,2.46-1.57,3.66-2.487a10,10,0,0,0,2.9-3.608,9.807,9.807,0,0,0,.966-4.522,24.878,24.878,0,0,0-.632-4.34,22.951,22.951,0,0,1-.567-3.978,13.444,13.444,0,0,1,2.43-8.1,10.961,10.961,0,0,1,.86-1.076A2.653,2.653,0,0,1,217.384,138.185Z" transform="translate(-205.556 -138.185)"/></g><g transform="translate(0.305 7.601)"><path class="f" d="M205.946,156.3c.021-.009.077.179.273.48a2.968,2.968,0,0,0,1.164,1.023,3.884,3.884,0,0,0,2.405.341,3.782,3.782,0,0,0,2.56-1.839,5.938,5.938,0,0,0,.737-3.82,10.045,10.045,0,0,0-1.755-4.19c-.886-1.362-2.107-2.586-3.076-4.119a7.164,7.164,0,0,1-1.025-2.565,6.406,6.406,0,0,1,.151-2.845,6.963,6.963,0,0,1,3.53-4.211,9,9,0,0,1,2.532-.8c.841-.175,1.658-.345,2.439-.568,3.18-.812,5.457-2.839,7.341-4.4a21.853,21.853,0,0,0,3.928-4.3,11.6,11.6,0,0,0,.977-1.9,3.448,3.448,0,0,1-.157.536,8.669,8.669,0,0,1-.711,1.435,20.878,20.878,0,0,1-3.882,4.406,34.936,34.936,0,0,1-3.184,2.526,13.479,13.479,0,0,1-4.229,1.99c-.793.229-1.62.406-2.457.583a8.721,8.721,0,0,0-2.448.782,6.656,6.656,0,0,0-3.361,4.014,6.1,6.1,0,0,0-.145,2.7,6.852,6.852,0,0,0,.976,2.451c.932,1.489,2.157,2.729,3.054,4.121a10.268,10.268,0,0,1,1.773,4.324,6.161,6.161,0,0,1-.81,3.978,3.9,3.9,0,0,1-5.224,1.489,2.912,2.912,0,0,1-1.16-1.1A1.8,1.8,0,0,1,205.946,156.3Z" transform="translate(-205.946 -122.583)"/></g></g><g transform="translate(52.403 0.468)"><g transform="translate(21.399 16.852)"><path class="d" d="M278.407,184.068a13.267,13.267,0,0,0,1.244-1.967,9.921,9.921,0,0,0,.813-2.591,9.694,9.694,0,0,0-.05-3.577,8.9,8.9,0,0,0-1.819-3.9,23.977,23.977,0,0,0-3.675-3.419,16.781,16.781,0,0,1-3.891-4.05,7.444,7.444,0,0,1-1.084-2.8,5.821,5.821,0,0,1,.4-3.067c.788-1.955,2.166-3.487,2.9-5.25a5.357,5.357,0,0,0,.427-2.7,5.451,5.451,0,0,0-1.029-2.424,13,13,0,0,0-3.8-3.211,20.33,20.33,0,0,1-3.576-2.608,8.824,8.824,0,0,1-2.056-3.021,5.277,5.277,0,0,1-.342-2.732,5.576,5.576,0,0,1,.239-.983c.118-.268.2-.5.3-.675l.231-.39a.078.078,0,1,1,.029.016l-.2.4c-.089.175-.16.41-.268.676a5.734,5.734,0,0,0-.2.968,5.218,5.218,0,0,0,.387,2.647,8.737,8.737,0,0,0,2.047,2.922A20.427,20.427,0,0,0,269,144.874a13.2,13.2,0,0,1,3.9,3.264,5.75,5.75,0,0,1,1.1,2.56,5.673,5.673,0,0,1-.441,2.872c-.767,1.829-2.145,3.367-2.9,5.247a5.506,5.506,0,0,0-.384,2.9,7.166,7.166,0,0,0,1.034,2.678,16.616,16.616,0,0,0,3.808,3.985,23.892,23.892,0,0,1,3.7,3.483,9.092,9.092,0,0,1,1.833,4.026,9.917,9.917,0,0,1-.877,6.27,8.871,8.871,0,0,1-.951,1.46l-.3.341C278.448,184.035,278.412,184.071,278.407,184.068Z" transform="translate(-262.825 -134.572)"/></g><path class="f" d="M267.291,177.726c-.533-4.653-1.448-6.574-1.42-11.257.026-4.29-3.945-10-1.492-15.037a57.077,57.077,0,0,0-3.4-9.259c-.824-1.86-3.809-7.507-4.567-9.4.5-3.487,3-3.226,2.52-6.7-.579-4.172-2.544-8.348-6.088-10.623a16.923,16.923,0,0,0-7.5-2.271,15.216,15.216,0,0,0-5.475.25,7.109,7.109,0,0,0-4.374,3.116l.918-.881a13.175,13.175,0,0,0,3.078,11.079,19.371,19.371,0,0,0,10.113,5.932,7.7,7.7,0,0,0,.85,3.75l-.1.129c.078.038.151.083.226.124a7.335,7.335,0,0,0,2.331,2.543,5.719,5.719,0,0,1-.017,5.053c-.967,1.808-2.921,3.1-3.314,5.116-.442,2.259,1.279,4.425,1.242,6.727a7.286,7.286,0,0,1-1.148,3.435c-4.18,5.365-3.442,10.893-1.078,17.27.879,2.372,2.233,4.848,1.543,7.282-.649,2.293-2.957,3.806-3.684,6.077-1.01,3.154,1.318,6.312,3.493,8.809a74.248,74.248,0,0,1,14.467-4.778,26.234,26.234,0,0,1-.74-6.373,5.556,5.556,0,0,0,10.384,1.571C269.932,187.2,267.824,182.379,267.291,177.726Z" transform="translate(-235.495 -113.049)"/><g transform="translate(0.715 6.091)"><path class="d" d="M260.826,129.681c.008.009-.071.086-.228.227s-.383.357-.709.59a14,14,0,0,1-2.93,1.711,15.079,15.079,0,0,1-4.883,1.221,14.794,14.794,0,0,1-6.109-.791,14.239,14.239,0,0,1-5.182-3.33,15.6,15.6,0,0,1-2.939-4.087,15.873,15.873,0,0,1-1.2-3.174c-.109-.385-.151-.7-.195-.9a1.172,1.172,0,0,1-.042-.319,12.231,12.231,0,0,1,.36,1.185,17.894,17.894,0,0,0,1.281,3.1A15.9,15.9,0,0,0,241,129.093a14.212,14.212,0,0,0,5.08,3.235,14.787,14.787,0,0,0,5.974.8,15.368,15.368,0,0,0,4.814-1.133A19.517,19.517,0,0,0,260.826,129.681Z" transform="translate(-236.408 -120.828)"/></g><g transform="translate(7.394 3.202)"><path class="d" d="M261.953,123.7a3.013,3.013,0,0,1-.732.233,13.3,13.3,0,0,1-2.069.336,15.275,15.275,0,0,1-12.519-4.832,13.29,13.29,0,0,1-1.307-1.638,3.072,3.072,0,0,1-.386-.665c.052-.037.633.895,1.862,2.141a15.958,15.958,0,0,0,12.334,4.761C260.883,123.944,261.94,123.643,261.953,123.7Z" transform="translate(-244.938 -117.138)"/></g><g transform="translate(19.555 12.063)"><path class="d" d="M266.048,128.458a6.47,6.47,0,0,1-5.578,2.819,10.542,10.542,0,0,0,5.578-2.819Z" transform="translate(-260.47 -128.455)"/></g><g transform="translate(18.132 18.482)"><path class="d" d="M264.5,200.6c-.016,0-.066-.253-.2-.723a3.481,3.481,0,0,0-1.15-1.754c-.355-.3-.808-.562-1.246-.946a4.261,4.261,0,0,1-1.1-1.521,6.713,6.713,0,0,1-.334-.993,4.9,4.9,0,0,1-.186-1.1,3.763,3.763,0,0,1,.617-2.339,5.212,5.212,0,0,1,2.031-1.726,3.864,3.864,0,0,0,1.909-1.914,3.309,3.309,0,0,0,.275-1.4,4.346,4.346,0,0,0-.353-1.45,20.986,20.986,0,0,0-1.589-2.794,11.3,11.3,0,0,1-1.663-6.737,11.482,11.482,0,0,1,2.852-6.865,5.308,5.308,0,0,0,1.557-3.25,5.737,5.737,0,0,0-1.3-3.27c-.693-.967-1.532-1.824-2.17-2.819a5.366,5.366,0,0,1-1.057-3.278,5.491,5.491,0,0,1,1.425-2.95,10.15,10.15,0,0,0,1.673-2.5,5.892,5.892,0,0,0-.136-5.18,5.689,5.689,0,0,0-1.586-1.708c-.6-.453-1.2-.833-1.742-1.226a5.75,5.75,0,0,1-1.377-1.272,5.312,5.312,0,0,1-.735-1.394,3.727,3.727,0,0,1-.179-2.149,1.682,1.682,0,0,1,.321-.684,3.619,3.619,0,0,0-.256.7,3.757,3.757,0,0,0,.235,2.09,5.218,5.218,0,0,0,.742,1.344A5.6,5.6,0,0,0,261.137,142c.541.382,1.149.755,1.762,1.209a5.888,5.888,0,0,1,1.661,1.759,6.123,6.123,0,0,1,.186,5.4,10.353,10.353,0,0,1-1.7,2.573,5.21,5.21,0,0,0-1.349,2.792,5.07,5.07,0,0,0,1.016,3.082c.62.963,1.453,1.81,2.17,2.8a6.039,6.039,0,0,1,1.362,3.462,3.9,3.9,0,0,1-.511,1.874,10.764,10.764,0,0,1-1.117,1.581,11.175,11.175,0,0,0-2.786,6.679,11.011,11.011,0,0,0,1.6,6.558,21,21,0,0,1,1.6,2.841,4.636,4.636,0,0,1,.367,1.552,3.592,3.592,0,0,1-.308,1.523,4.126,4.126,0,0,1-2.045,2.032,4.984,4.984,0,0,0-1.95,1.626,3.557,3.557,0,0,0-.6,2.2,6.526,6.526,0,0,0,.478,2.033,4.12,4.12,0,0,0,1.035,1.477c.416.377.864.651,1.224.965a3.464,3.464,0,0,1,1.131,1.834,5.234,5.234,0,0,1,.114.552A.779.779,0,0,1,264.5,200.6Z" transform="translate(-258.653 -136.654)"/></g><g transform="translate(1.98 3.122)"><path class="d" d="M261.281,127.632a1.269,1.269,0,0,1-.189.27,7.906,7.906,0,0,1-.622.711,10.738,10.738,0,0,1-2.814,2.036,11.439,11.439,0,0,1-5,1.2,13.636,13.636,0,0,1-6.135-1.432,9.353,9.353,0,0,1-2.618-2,9.912,9.912,0,0,1-1.654-2.58c-.806-1.777-1.275-3.457-1.817-4.806a12.709,12.709,0,0,0-1.6-3.028c-.485-.651-.833-.945-.8-.975a1.214,1.214,0,0,1,.254.209,5.876,5.876,0,0,1,.651.687,11.767,11.767,0,0,1,1.712,3.019c.574,1.351,1.07,3.028,1.876,4.764a9.738,9.738,0,0,0,1.618,2.491,9.114,9.114,0,0,0,2.532,1.921,13.572,13.572,0,0,0,5.981,1.421,11.364,11.364,0,0,0,7.729-3.029C260.974,127.966,261.253,127.609,261.281,127.632Z" transform="translate(-238.024 -117.036)"/></g></g></g></g></g><g transform="translate(51.032 36.743)"><g transform="translate(75.716 193.977)"><g transform="translate(0 0)"><g transform="translate(0 18.989)"><path class="d" d="M159.809,308.944a44.867,44.867,0,0,1-6.036.2,44.882,44.882,0,0,1-6.038-.2,44.8,44.8,0,0,1,6.038-.2A44.781,44.781,0,0,1,159.809,308.944Z" transform="translate(-147.736 -308.74)"/></g><g transform="translate(18.281)"><path class="d" d="M171.288,284.488a63.024,63.024,0,0,1,.2,7.159,63.022,63.022,0,0,1-.2,7.159,63.022,63.022,0,0,1-.2-7.159A63.024,63.024,0,0,1,171.288,284.488Z" transform="translate(-171.084 -284.488)"/></g></g><g transform="translate(18.697 18.53)"><g transform="translate(6.615)"><path class="d" d="M180.064,308.358a44.865,44.865,0,0,1,6.037-.2,44.855,44.855,0,0,1,6.037.2,44.855,44.855,0,0,1-6.037.2A44.865,44.865,0,0,1,180.064,308.358Z" transform="translate(-180.064 -308.154)"/></g><g transform="translate(0 5.078)"><path class="d" d="M171.82,328.957a63.228,63.228,0,0,1-.2-7.158,63.246,63.246,0,0,1,.2-7.159,62.909,62.909,0,0,1,.2,7.159A62.891,62.891,0,0,1,171.82,328.957Z" transform="translate(-171.616 -314.64)"/></g></g><g transform="translate(24.36 23.684)"><path class="d" d="M183.147,320.747a33.552,33.552,0,0,1-4.291-6.008,33.55,33.55,0,0,1,4.291,6.008Z" transform="translate(-178.849 -314.737)"/></g><g transform="translate(23.632 7.925)"><path class="d" d="M182.381,294.613a29.167,29.167,0,0,1-4.457,5.255,29.168,29.168,0,0,1,4.457-5.255Z" transform="translate(-177.919 -294.61)"/></g><g transform="translate(10.009 9.342)"><path class="d" d="M164.768,300.551a21.562,21.562,0,0,1-4.243-4.126,21.561,21.561,0,0,1,4.243,4.126Z" transform="translate(-160.52 -296.419)"/></g><g transform="translate(9.662 23.063)"><path class="d" d="M164.128,313.947a26.67,26.67,0,0,1-4.045,5.188,26.668,26.668,0,0,1,4.045-5.188Z" transform="translate(-160.077 -313.944)"/></g></g><g transform="translate(298.476 101.541)"><g transform="translate(0 6.986)"><path class="d" d="M436.764,175.557a12.617,12.617,0,0,1-4.523,0,12.665,12.665,0,0,1,4.523,0Z" transform="translate(-432.241 -175.353)"/></g><g transform="translate(6.721)"><path class="d" d="M441.029,166.43a17.7,17.7,0,0,1,0,5.364,17.772,17.772,0,0,1,0-5.364Z" transform="translate(-440.825 -166.43)"/></g><g transform="translate(6.877 6.814)"><g transform="translate(2.606)"><path class="d" d="M444.352,175.337a12.618,12.618,0,0,1,4.523,0,12.664,12.664,0,0,1-4.523,0Z" transform="translate(-444.352 -175.133)"/></g><g transform="translate(0 2.03)"><path class="d" d="M441.228,183.09a17.7,17.7,0,0,1,0-5.364,17.769,17.769,0,0,1,0,5.364Z" transform="translate(-441.024 -177.726)"/></g></g><g transform="translate(9.112 8.868)"><path class="d" d="M445.5,180.012c-.092.066-.525-.385-.969-1.007s-.73-1.178-.638-1.243.525.385.969,1.007S445.594,179.947,445.5,180.012Z" transform="translate(-443.878 -177.756)"/></g><g transform="translate(8.841 2.962)"><path class="d" d="M445.216,170.222c.086.073-.218.572-.679,1.116s-.9.925-.99.853.218-.572.68-1.117S445.131,170.149,445.216,170.222Z" transform="translate(-443.532 -170.213)"/></g><g transform="translate(3.739 3.488)"><path class="d" d="M438.619,172.445c-.079.081-.5-.2-.937-.627s-.731-.838-.653-.918.5.2.937.626S438.7,172.364,438.619,172.445Z" transform="translate(-437.016 -170.885)"/></g><g transform="translate(3.605 8.633)"><path class="d" d="M438.378,177.465c.088.069-.178.56-.6,1.1s-.829.916-.918.846.179-.56.6-1.1S438.289,177.4,438.378,177.465Z" transform="translate(-436.845 -177.456)"/></g></g><g transform="translate(3.16 241.442)"><g transform="translate(0 6.986)"><path class="d" d="M59.591,354.236a6.44,6.44,0,0,1-2.262.2,6.434,6.434,0,0,1-2.261-.2,6.47,6.47,0,0,1,2.261-.2A6.477,6.477,0,0,1,59.591,354.236Z" transform="translate(-55.068 -354.032)"/></g><g transform="translate(6.721)"><path class="d" d="M63.856,345.109a17.77,17.77,0,0,1,0,5.364,17.77,17.77,0,0,1,0-5.364Z" transform="translate(-63.652 -345.109)"/></g><g transform="translate(6.877 6.814)"><g transform="translate(2.606)"><path class="d" d="M67.179,354.016a6.47,6.47,0,0,1,2.261-.2,6.472,6.472,0,0,1,2.262.2,6.438,6.438,0,0,1-2.262.2A6.435,6.435,0,0,1,67.179,354.016Z" transform="translate(-67.179 -353.812)"/></g><g transform="translate(0 2.03)"><path class="d" d="M64.055,361.769a17.77,17.77,0,0,1,0-5.364,17.7,17.7,0,0,1,0,5.364Z" transform="translate(-63.851 -356.405)"/></g></g><g transform="translate(9.111 8.867)"><path class="d" d="M68.33,358.691c-.092.065-.526-.385-.97-1.007s-.73-1.178-.637-1.244.525.385.969,1.007S68.421,358.626,68.33,358.691Z" transform="translate(-66.705 -356.434)"/></g><g transform="translate(8.841 2.962)"><path class="d" d="M68.043,348.9c.086.073-.218.572-.679,1.116s-.905.925-.99.852.218-.572.679-1.116S67.957,348.828,68.043,348.9Z" transform="translate(-66.359 -348.892)"/></g><g transform="translate(3.739 3.488)"><path class="d" d="M61.445,351.124c-.078.081-.5-.2-.936-.627s-.731-.839-.653-.919.5.2.937.627S61.524,351.043,61.445,351.124Z" transform="translate(-59.843 -349.563)"/></g><g transform="translate(3.605 8.633)"><path class="d" d="M61.2,356.144c.089.069-.179.56-.6,1.1s-.83.916-.918.846.179-.561.6-1.1S61.116,356.074,61.2,356.144Z" transform="translate(-59.672 -356.135)"/></g></g><g transform="translate(236.019 64.255)"><path class="d" d="M355.447,118.809l.238.571a4.044,4.044,0,0,0,2.213,2.194l.621.251-.6.242a4.044,4.044,0,0,0-2.231,2.235l-.168.417-.251-.523a4.044,4.044,0,0,0-2.26-2.048l-.541-.2.707-.343a4.043,4.043,0,0,0,1.971-2.086Z" transform="translate(-352.472 -118.809)"/></g><g transform="translate(2.54 138.009)"><path class="d" d="M57.111,213.006l.226.544a3.856,3.856,0,0,0,2.11,2.091l.591.24-.568.23a3.854,3.854,0,0,0-2.126,2.131l-.161.4-.24-.5a3.856,3.856,0,0,0-2.153-1.953L54.276,216l.674-.327a3.858,3.858,0,0,0,1.878-1.988Z" transform="translate(-54.276 -213.006)"/></g><g transform="translate(282.117 240.857)"><path class="d" d="M415.417,344.362l.325.781a5.537,5.537,0,0,0,3.029,3l.85.344-.815.331a5.533,5.533,0,0,0-3.052,3.059l-.23.569-.344-.716a5.541,5.541,0,0,0-3.091-2.8l-.74-.27.966-.468a5.534,5.534,0,0,0,2.7-2.854Z" transform="translate(-411.348 -344.362)"/></g><g transform="translate(234.162)"><g transform="translate(0 12.019)"><path class="d" d="M359.086,52.3a49.686,49.686,0,0,1-8.986,0,49.5,49.5,0,0,1,8.986,0Z" transform="translate(-350.1 -52.093)"/></g><g transform="translate(13.554)"><path class="d" d="M367.615,36.743a25.623,25.623,0,0,1,.2,4.559,25.623,25.623,0,0,1-.2,4.559,25.757,25.757,0,0,1-.2-4.559A25.757,25.757,0,0,1,367.615,36.743Z" transform="translate(-367.411 -36.743)"/></g><g transform="translate(13.864 11.726)"><g transform="translate(4.976)"><path class="d" d="M374.162,51.923a49.5,49.5,0,0,1,8.986,0,49.685,49.685,0,0,1-8.986,0Z" transform="translate(-374.162 -51.719)"/></g><g transform="translate(0 3.309)"><path class="d" d="M368.011,65.063a25.618,25.618,0,0,1-.2-4.558,25.616,25.616,0,0,1,.2-4.559,25.755,25.755,0,0,1,.2,4.559A25.757,25.757,0,0,1,368.011,65.063Z" transform="translate(-367.807 -55.945)"/></g></g><g transform="translate(18.128 15.08)"><path class="d" d="M376.455,59.833a7.812,7.812,0,0,1-1.754-1.782,7.8,7.8,0,0,1-1.441-2.044,7.772,7.772,0,0,1,1.754,1.782A7.812,7.812,0,0,1,376.455,59.833Z" transform="translate(-373.253 -56.003)"/></g><g transform="translate(17.587 5.043)"><path class="d" d="M375.886,43.19a7,7,0,0,1-1.513,1.816,7,7,0,0,1-1.8,1.529,6.994,6.994,0,0,1,1.514-1.816A6.954,6.954,0,0,1,375.886,43.19Z" transform="translate(-372.562 -43.184)"/></g><g transform="translate(7.448 5.943)"><path class="d" d="M362.776,46.971a5.358,5.358,0,0,1-1.71-1.157c-.872-.726-1.521-1.384-1.449-1.471a5.378,5.378,0,0,1,1.71,1.158C362.2,46.225,362.848,46.884,362.776,46.971Z" transform="translate(-359.612 -44.333)"/></g><g transform="translate(7.189 14.684)"><path class="d" d="M362.3,55.5a6.281,6.281,0,0,1-1.355,1.789,6.3,6.3,0,0,1-1.656,1.515,6.3,6.3,0,0,1,1.355-1.789A6.3,6.3,0,0,1,362.3,55.5Z" transform="translate(-359.281 -55.497)"/></g></g><g transform="translate(0 61.164)"><g transform="translate(0 12.019)"><path class="d" d="M60.018,130.415a24.933,24.933,0,0,1-4.493.2,24.938,24.938,0,0,1-4.493-.2,24.889,24.889,0,0,1,4.493-.2A24.884,24.884,0,0,1,60.018,130.415Z" transform="translate(-51.032 -130.211)"/></g><g transform="translate(13.554)"><path class="d" d="M68.547,114.861a25.668,25.668,0,0,1,.2,4.559,25.668,25.668,0,0,1-.2,4.559,25.622,25.622,0,0,1-.2-4.559A25.622,25.622,0,0,1,68.547,114.861Z" transform="translate(-68.343 -114.861)"/></g><g transform="translate(13.865 11.727)"><g transform="translate(4.975)"><path class="d" d="M75.094,130.042a24.943,24.943,0,0,1,4.493-.2,24.931,24.931,0,0,1,4.493.2,24.93,24.93,0,0,1-4.493.2A24.942,24.942,0,0,1,75.094,130.042Z" transform="translate(-75.094 -129.838)"/></g><g transform="translate(0 3.308)"><path class="d" d="M68.944,143.181a25.663,25.663,0,0,1-.2-4.558,25.669,25.669,0,0,1,.2-4.559,25.67,25.67,0,0,1,.2,4.559A25.664,25.664,0,0,1,68.944,143.181Z" transform="translate(-68.74 -134.063)"/></g></g><g transform="translate(18.128 15.08)"><path class="d" d="M77.387,137.951a15.367,15.367,0,0,1-3.195-3.826,7.776,7.776,0,0,1,1.754,1.782A7.768,7.768,0,0,1,77.387,137.951Z" transform="translate(-74.185 -134.121)"/></g><g transform="translate(17.588 5.043)"><path class="d" d="M76.818,121.308a6.981,6.981,0,0,1-1.513,1.816,6.968,6.968,0,0,1-1.8,1.529,6.981,6.981,0,0,1,1.513-1.816A6.988,6.988,0,0,1,76.818,121.308Z" transform="translate(-73.495 -121.302)"/></g><g transform="translate(7.448 5.943)"><path class="d" d="M63.708,125.089A5.359,5.359,0,0,1,62,123.932c-.872-.726-1.521-1.384-1.448-1.47a5.353,5.353,0,0,1,1.709,1.157C63.132,124.344,63.78,125,63.708,125.089Z" transform="translate(-60.545 -122.452)"/></g><g transform="translate(7.189 14.684)"><path class="d" d="M63.232,133.62a6.317,6.317,0,0,1-1.355,1.789,6.283,6.283,0,0,1-1.657,1.515,6.311,6.311,0,0,1,1.355-1.789A6.29,6.29,0,0,1,63.232,133.62Z" transform="translate(-60.213 -133.615)"/></g></g></g></g></svg>