<?xml version="1.0" encoding="utf-8"?>
<!-- Generator: Adobe Illustrator 19.0.0, SVG Export Plug-In . SVG Version: 6.00 Build 0)  -->
<svg version="1.1" xmlns="http://www.w3.org/2000/svg" xmlns:xlink="http://www.w3.org/1999/xlink" x="0px" y="0px"
	 viewBox="0 0 1259.9 483.1" style="enable-background:new 0 0 1259.9 483.1;" xml:space="preserve">
<style type="text/css">
	.st0{fill:#FFFFFF;}
	.st1{fill:#272324;}
	.st2{fill:#2C5084;}
	.st3{fill:#2F73A6;}
	.st4{fill:#FEFEFE;}
	.st5{fill:#232160;}
</style>
<g id="Layer_1">
	<g>
		<path class="st0" d="M1132.1,238.6c0.1,0.3,0.3,0.5,0.3,0.6c-0.1,10.6,0.2,21.1-0.1,31.7c0,1-0.2,2.2,0.3,3.1
			c1.3,2.3,3.5,1.4,5.4,1.4c1.6,0,2.4-0.8,2.6-2.3c0.1-0.8,0.1-1.6,0.1-2.4c0-4.6-0.1-9.3-0.1-13.9c0.1-8.6-0.2-17.3,0.1-25.9
			c0-0.8,0-1.6-0.9-2c-2.4-1.2-6.3-0.8-8.4,1c-1.7,1.5-3.2,3.1-4.7,4.8c-6.4,7.7-12.8,15.4-19.2,23c-0.5,0.6-1,1.4-1.9,1.9
			c-2-4.2-5.1-7.4-8.3-10.6c-1.4-1.4-2.8-2.9-4-4.4c-4.1-5.4-9-10-13.6-14.8c-1.1-1.2-2.5-1.7-4.1-1.7c-1.2,0-2.4,0.3-3.6,0.5
			c-1.2,0.2-1.7,1-1.6,2.2c0.1,1.1,0.2,2.2,0.2,3.3c0,12.2,0,24.5-0.1,36.7c0,4.6,0.6,4.6,4.3,4.5c3.9-0.1,4-0.1,3.9-4.1
			c0-10.2,0-20.5,0-30.7c0-0.5-0.3-1.1,0.5-1.5c0.3,0.3,0.6,0.7,0.9,1c6.9,7.8,13.7,15.6,20.6,23.4c0.8,1,1.7,2,2.6,2.8
			c2.1,1.8,3.7,1.7,5.6-0.3c1.4-1.5,2.8-3.1,4.1-4.7c5.7-6.9,11.4-13.8,17.1-20.7C1130.8,239.9,1131.2,239.1,1132.1,238.6z
			 M885.5,251.8c0,4.6,0,9.1,0,13.7c0,2.3-0.1,4.6-0.1,7c0.1,2.5,0.8,3.1,3.2,3c0.9,0,1.8-0.1,2.6,0c3,0.1,3.8-0.6,3.5-3.6
			c-0.3-2.6-0.2-5.3-0.2-7.9c0-2.4,0-4.8,0.1-7.2c0.1-1.8,0.7-2.4,2.5-2.5c0.5,0,1,0,1.4,0c7.9,0,15.8,0.1,23.7,0.1
			c5.3,0,10.6-0.1,15.8-0.1c2.2,0,2.8,0.6,2.8,2.7c0,4.4,0,8.8,0,13.2c0,0.9-0.2,1.8-0.2,2.6c0,2,0.8,2.7,2.8,2.7c1,0,2.1,0,3.1,0
			c2.8,0,3.6-0.7,3.4-3.6c-0.5-7.5,0-15-0.1-22.5c0-3.9-0.1-7.8-0.1-11.7c0-2,0.2-4,0.2-6c0-2.2-0.8-3-3-3.1c-1,0-1.9,0-2.9,0
			c-2.8,0.1-3.8,1.2-3.4,3.9c0.5,4.2,0,8.5,0.2,12.7c0.1,2-0.5,2.6-2.5,2.7c-0.7,0.1-1.4,0-2.2,0c-11,0-22.1-0.1-33.1-0.1
			c-1.8,0-3.7,0.1-5.5,0.1c-2.5-0.1-3-0.6-3-3c0-3.2-0.1-6.4,0-9.6c0-1.2,0.2-2.4,0.2-3.6c0.1-2.6-0.6-3.4-3.2-3.3
			c-0.8,0-1.6,0.1-2.4,0.1c-3.4-0.2-3.8,0.3-3.8,3.7c0,0.2,0,0.5,0,0.7C885.6,239.2,885.6,245.5,885.5,251.8z"/>
		<path class="st1" d="M671.8,47c8.5,0.4,16.8,1.9,25.1,3.7c27.4,6,52.5,17.1,75.1,33.7c39.5,29.1,65.2,67.6,77.1,115.3
			c2.3,9.2,4,18.6,4.5,28.1c0.6,10.4,0.7,20.8,0.4,31.2c-0.4,14.4-3.1,28.4-7,42.2c-18.1,64-67.6,115.4-130.8,135.9
			c-13.4,4.3-27.1,7.2-41.2,8.7c-1,0.1-2.1,0.1-3.1,0.2c-1.8-0.1-3.7-0.1-5.5,0.1c-5.2,0-10.3-0.1-15.5-0.1c-3.2,0-6.3-0.2-9.5,0.1
			c-1.8-0.2-3.6-0.3-5.5-0.1c-11.6-0.7-23-3-34.1-6c-35.4-9.7-66-27.7-91.5-54.1c-27.2-28.2-44.7-61.6-52.6-100
			c-2.1-10.4-3.1-21-3.3-31.7c-0.2-8.9,0-17.8,0.4-26.6c0.5-9.2,2.2-18.2,4.4-27.2c8.5-35.5,25.4-66.4,50.7-92.7
			c28-29,61.8-47.9,101.2-56.8c8.4-1.9,16.9-3.2,25.6-3.9c1.3,0,2.6,0,3.9,0c1.4,0.1,2.9,0.4,4.2-0.4c6.6,0,13.1,0,19.7,0
			c0.3,0.3,0.6,0.4,1,0.4C667.6,47,669.7,47,671.8,47z M846,246.6c0.5-105-85.2-191.8-191.3-192c-105.9-0.2-191.1,85.3-192.3,189.4
			c-1.3,107.5,85.6,193.4,190,194.4C759.7,439.3,846.5,351.9,846,246.6z"/>
		<path class="st2" d="M1228,233.7c-1.2,1.2-2.7,1.1-4.2,1.1c-12.5,0-24.9-0.1-37.4-0.1c-4.1,0-4.5,0.4-4.5,4.5c0,1.4,0,2.9,0.1,4.3
			c0.2,2.9,1.3,4,4.2,4.1c6,0.1,12,0.1,18,0.1c1,0,2.1-0.1,3.1-0.1c1.6,0.1,2.1,0.6,2.3,2.2c0,0.1,0,0.2,0,0.2
			c0.3,3.4-0.4,4.2-3.8,4.1c-6.8-0.1-13.6-0.1-20.4-0.2c-2.8,0-3.5,0.6-3.6,3.5c0,2-0.1,4,0,6c0.2,3.8,1.4,5,5.1,5.3
			c1.2,0.1,2.4,0.1,3.6,0.1c11.2,0,22.4-0.1,33.6-0.1c1.5,0,2.8,0.2,3.8,1.3c0,1.3,0,2.6,0,3.8c-1,1.3-2.5,1.4-4,1.4
			c-14.1,0-28.1,0-42.2-0.1c-1.9,0-3.8,0.1-5.8,0c-2.6,0-3.2-0.6-3.2-3.3c0-10.3,0-20.6,0-30.9c0-3.1,0-6.2,0-9.4
			c0-3,0.5-3.4,3.5-3.4c10.7,0,21.4,0,32.1,0c5.4,0,10.7,0,16.1-0.1c1.4,0,2.6,0.2,3.5,1.5C1228,231.1,1228,232.4,1228,233.7z"/>
		<path class="st2" d="M43.4,279.8c1.1,0,1.3-1.1,1.7-1.8c6.1-9,12-18.1,18.1-27.1c1.3-2,2.7-3.9,4.2-5.9c1.4-1.9,2.7-3.8,3.6-5.9
			c2.6-6,8.2-6.5,13.3-5.1c1.4,0.4,2.2,1.6,2.9,2.7c7.4,11,14.9,22,22.3,32.9c1.9,2.8,3.9,5.7,5.8,8.5c0.3,0.5,0.8,1,0.9,1.6
			c-4.9,2.2-9.8,0.9-12.8-3.5c-0.6-0.9-1.1-1.8-1.5-2.7c-1.1-3.1-3.4-4.3-6.5-4.2c-2.7,0-5.4,0.1-8.1,0.2c-7,0.2-14.1,0.1-21.1-0.2
			c-1.4,0-2.7-0.1-4.1,0.2c-2.2,0.4-3.8,1.6-4.7,3.7c-0.4,0.8-0.7,1.6-1.1,2.4c-2.4,4.2-6,5.8-10.7,5c-0.8-0.1-1.5-0.5-2.3-0.3
			C43.4,280.1,43.4,279.9,43.4,279.8z M64.3,262.8c5.7,0.4,28.6,0.3,30.6-0.3c-5.1-7.9-10.1-15.8-15.3-24
			C74.5,246.8,69.5,254.6,64.3,262.8z"/>
		<path class="st2" d="M641.4,446c3.2-0.3,6.3-0.1,9.5-0.1c5.2,0,10.3,0,15.5,0.1c0,0.1,0,0.2,0,0.4c-8.3,0-16.6,0-25,0
			C641.4,446.2,641.4,446.1,641.4,446z"/>
		<path class="st3" d="M671.8,47c-2.1,0-4.2-0.1-6.3-0.1c-0.4,0-0.8-0.2-1-0.4c2.6,0,5.1,0,7.7,0C671.9,46.5,671.8,46.7,671.8,47z"
			/>
		<path class="st3" d="M641.4,446c0,0.1,0,0.2,0,0.3c-1.9,0-3.8,0-5.8,0c0.2-0.1,0.3-0.2,0.2-0.5C637.8,445.7,639.6,445.8,641.4,446
			z"/>
		<path class="st3" d="M666.4,446.3c0-0.1,0-0.2,0-0.4c1.8-0.2,3.7-0.2,5.5-0.1c0.1,0.2,0.2,0.3,0.2,0.5
			C670.2,446.3,668.3,446.3,666.4,446.3z"/>
		<path class="st3" d="M644.8,46.5c-1.4,0.8-2.8,0.5-4.2,0.4c-0.1-0.1-0.1-0.2-0.1-0.4C641.9,46.5,643.4,46.5,644.8,46.5z"/>
		<path class="st4" d="M640.5,46.5c0,0.1,0,0.2,0.1,0.4c-1.3,0-2.6,0-3.9,0c0-0.1,0-0.3,0-0.4C637.9,46.5,639.2,46.5,640.5,46.5z"/>
		<path class="st2" d="M403.1,246.5c-0.5-1.2-0.5-2.3-0.6-3.4c-0.4-2.4-1-3-3.4-3.1c-1-0.1-1.9-0.1-2.9-0.1c-10.5,0-20.9,0-31.4,0
			c-0.6,0-1.1,0-1.7,0.1c-1.2,0.2-1.9,0.8-2,2c-0.2,2.9-0.3,5.8,0.1,8.6c0.2,1.5,1.1,2.4,2.6,2.8c1.2,0.3,2.4,0.4,3.6,0.4
			c8.3,0,16.6,0,24.9,0c3.9,0,7.8-0.2,11.7,0.4c5,0.8,7.4,3.4,7.6,8.6c0.1,3.1,0.1,6.2,0,9.3c-0.2,4.3-2.3,6.7-6.5,7.7
			c-3.1,0.8-6.4,0.5-9.5,0.6c-11.5,0.3-23,0.3-34.5-0.1c-1.5-0.1-3-0.2-4.5-0.6c-2.7-0.8-4.4-2.5-5-5.2c-0.3-1.3-0.5-2.7-0.4-4
			c0.1-2.2,0.8-3,3-3.1c1.3-0.1,2.7,0.2,4-0.3c0.9-0.3,1.2,0.3,1.2,1.1c0,1.1-0.1,2.2-0.1,3.4c0,1.8,0.6,2.5,2.4,2.6
			c1.3,0.1,2.6,0,3.8,0c11.3,0,22.5,0,33.8,0c0.7,0,1.4,0,2.2,0c1.2-0.1,2-0.7,2.1-1.9c0.2-2.9,0.3-5.8-0.1-8.6
			c-0.3-1.7-1.4-2.7-3-3c-1.7-0.3-3.3-0.4-5-0.4c-10.2,0-20.5,0-30.7,0c-1.5,0-3,0-4.5-0.4c-4-1-6.3-3.7-7-7.6
			c-0.7-3.8-0.5-7.7,0.1-11.5c0.6-3.5,2.8-5.7,6.2-6.5c1.8-0.4,3.6-0.6,5.5-0.6c11.8,0,23.7,0.1,35.5,0.1c1.4,0,2.9,0.2,4.3,0.5
			c3.7,0.9,6.5,5,6,8.7c-0.2,1.4-0.9,2-2.6,2.3C406.3,245.5,404.6,245.6,403.1,246.5z"/>
		<path class="st2" d="M333.2,280.3c-3.2,0.2-6.1-0.1-8.9,0.3c-1.1,0.1-2-0.5-2.5-1.5c-0.4-0.8-0.8-1.6-1.1-2.4
			c-2.2-4.9-5.9-7.4-11.3-7.5c-1.4,0-2.9,0-4.3,0.1c-7.1,0.6-14.2,0.5-21.3,0.1c-1.2-0.1-2.4-0.1-3.6-0.1c-3,0.2-5.4,1.4-6.5,4.4
			c-0.2,0.7-0.6,1.3-0.9,1.9c-2.3,4.1-5.9,5.8-10.5,4.9c-0.5-0.1-1.1-0.3-1.7-0.4c-0.1-0.9,0.6-1.5,1-2.1c9-13.5,18-27,26.8-40.6
			c1.9-2.9,4.2-4,7.3-4.1c3.3-0.1,6.1,0.7,8.2,3.9c9.3,13.9,18.8,27.6,28.3,41.4C332.4,279.1,332.7,279.5,333.2,280.3z M280.7,262.8
			c10.4,0,20.4,0,30.9,0c-5.2-8.2-10.3-16.1-15.5-24.2C290.9,246.8,285.9,254.7,280.7,262.8z"/>
		<path class="st2" d="M148,233.6c9,0,17.9,0,26.9,0c0.6,0,1.1,0,1.7,0c1.2,0.1,1.9,0.8,2.1,1.9c0.1,0.8,0.1,1.6,0,2.4
			c-0.1,1.2-0.8,1.9-2,2c-0.5,0-1,0.1-1.4,0.1c-6.2,0-12.3-0.1-18.5-0.1c-0.2,0-0.3,0-0.5,0c-3.8,0-4.5,0.7-4.4,4.5
			c0.2,10.9-0.1,21.7,0.2,32.6c0.1,2.9-0.6,3.5-3.5,3.6c-0.9,0-1.8,0.1-2.6,0.1c-2.2,0-3.1-0.8-3.2-3c-0.1-1.5,0-3,0-4.6
			c0-9.7,0.1-19.3,0.1-29c0-0.7-0.1-1.4-0.2-2.1c-0.2-1.1-0.9-1.7-1.9-1.9c-0.7-0.1-1.4-0.1-2.2-0.1c-6,0-12,0.1-18,0.1
			c-0.2,0-0.3,0-0.5,0c-1.1,0-2.3,0.1-2.9-1.2c-0.6-1.4-0.5-2.8,0.1-4.2c0.4-0.8,1.2-1,2-1c1.4,0,2.7,0,4.1,0
			C131.7,233.6,139.8,233.6,148,233.6C148,233.6,148,233.6,148,233.6z"/>
		<path class="st2" d="M220.6,280.4c-7.4-0.1-14.9,0-22.3,0.1c-0.6,0-1.1,0-1.7-0.1c-1.5-0.2-2.1-0.8-2.2-2.3
			c-0.1-1.4-0.1-2.9,0-4.3c0.2-12.2,0.1-24.3,0-36.5c0-0.5,0-1,0-1.4c0.2-1.9,0.7-2.4,2.6-2.3c1.4,0,2.7,0,4.1,0
			c1.7-0.1,2.3,0.5,2.5,2.2c0.1,1,0,2.1,0,3.1c0,10.2-0.1,20.3-0.1,30.5c0,4.4,0.5,4.8,5,4.8c11.8-0.1,23.5-0.1,35.3-0.1
			c1.1,0,2.4,0,2.9,1.3c0.5,1.4,0.6,2.8-0.2,4.2c-0.5,1-1.6,1-2.5,1c-2.2,0-4.5-0.1-6.7-0.1C231.6,280.4,226.1,280.4,220.6,280.4z"
			/>
		<path class="st2" d="M1011.7,275.3c-7.2,0-14.4,0-21.6,0c-1.5,0-3-0.1-4.5-0.4c-3.6-0.6-5.9-2.8-6.6-6.4c-0.3-1.4-0.4-2.8-0.4-4.3
			c0-8.6,0-17.1,0-25.7c0-0.6,0-1.1,0.1-1.7c0.5-5.1,2.8-7.4,7.8-8.2c3.3-0.5,6.5-0.4,9.8-0.4c11.9,0,23.8,0,35.8,0.1
			c1.9,0,3.8,0.1,5.7,0.5c4.3,0.9,6.7,3.5,7,7.9c0.1,1.7,0,3.4,0,5c0,7.5,0,15,0,22.6c0,1.5-0.1,3-0.4,4.5c-0.9,3.4-3.1,5.3-6.4,6
			c-1.5,0.3-3,0.4-4.5,0.4C1026.1,275.3,1018.9,275.3,1011.7,275.3z M1011.8,234.7c-6.9,0-13.7,0-20.6,0c-3,0-3.6,0.6-3.6,3.4
			c0,9.2,0,18.4,0,27.6c0,2.7,0.7,3.4,3.4,3.5c0.6,0,1.1,0,1.7,0c11.1,0,22.2,0,33.3,0c2.3,0,4.6,0.1,7,0c2.1-0.1,2.7-0.7,2.8-2.7
			c0-0.4,0-0.8,0-1.2c0-8-0.1-16-0.1-24c0-1,0.1-1.9,0.1-2.9c0-3.2-0.5-3.7-3.6-3.7c-0.1,0-0.2,0-0.2,0
			C1025.2,234.7,1018.5,234.7,1011.8,234.7z"/>
		<path class="st2" d="M1132.1,238.6c-0.9,0.6-1.4,1.3-1.9,2c-5.7,6.9-11.4,13.8-17.1,20.7c-1.3,1.6-2.7,3.2-4.1,4.7
			c-1.9,2-3.5,2.1-5.6,0.3c-0.9-0.8-1.8-1.9-2.6-2.8c-6.9-7.8-13.7-15.6-20.6-23.4c-0.3-0.4-0.6-0.7-0.9-1c-0.9,0.4-0.5,1-0.5,1.5
			c0,10.2,0,20.5,0,30.7c0,4-0.1,4-3.9,4.1c-3.8,0.1-4.4,0.1-4.3-4.5c0.1-12.2,0.1-24.5,0.1-36.7c0-1.1-0.1-2.2-0.2-3.3
			c-0.1-1.2,0.4-2,1.6-2.2c1.2-0.2,2.4-0.5,3.6-0.5c1.6,0,3,0.5,4.1,1.7c4.6,4.8,9.5,9.5,13.6,14.8c1.2,1.6,2.6,3,4,4.4
			c3.2,3.2,6.4,6.3,8.3,10.6c0.9-0.5,1.4-1.3,1.9-1.9c6.4-7.7,12.8-15.4,19.2-23c1.4-1.7,3-3.4,4.7-4.8c2.1-1.8,6-2.2,8.4-1
			c0.9,0.5,0.9,1.2,0.9,2c-0.3,8.6-0.1,17.3-0.1,25.9c0,4.6,0,9.3,0.1,13.9c0,0.8,0,1.6-0.1,2.4c-0.2,1.5-1,2.3-2.6,2.3
			c-1.9,0-4.1,0.9-5.4-1.4c-0.5-0.9-0.4-2-0.3-3.1c0.3-10.6,0.1-21.1,0.1-31.7C1132.4,239,1132.2,238.9,1132.1,238.6z"/>
		<path class="st2" d="M885.5,251.8c0.1-6.3,0.1-12.6-0.1-18.9c0-0.2,0-0.5,0-0.7c0-3.5,0.5-3.9,3.8-3.7c0.8,0,1.6,0,2.4-0.1
			c2.5-0.1,3.3,0.7,3.2,3.3c-0.1,1.2-0.2,2.4-0.2,3.6c0,3.2,0,6.4,0,9.6c0,2.4,0.5,2.9,3,3c1.8,0,3.7-0.1,5.5-0.1
			c11,0,22.1,0.1,33.1,0.1c0.7,0,1.4,0,2.2,0c2-0.2,2.6-0.7,2.5-2.7c-0.1-4.2,0.4-8.5-0.2-12.7c-0.4-2.8,0.7-3.9,3.4-3.9
			c1,0,1.9,0,2.9,0c2.2,0.1,3,0.9,3,3.1c0,2-0.2,4-0.2,6c0,3.9,0.1,7.8,0.1,11.7c0.1,7.5-0.4,15,0.1,22.5c0.2,2.9-0.6,3.6-3.4,3.6
			c-1,0-2.1,0-3.1,0c-2,0-2.8-0.7-2.8-2.7c0-0.9,0.2-1.8,0.2-2.6c0-4.4,0.1-8.8,0-13.2c0-2.1-0.6-2.7-2.8-2.7
			c-5.3,0-10.6,0.1-15.8,0.1c-7.9,0-15.8-0.1-23.7-0.1c-0.5,0-1-0.1-1.4,0c-1.8,0.1-2.4,0.7-2.5,2.5c-0.1,2.4-0.1,4.8-0.1,7.2
			c0,2.6-0.1,5.3,0.2,7.9c0.3,3-0.5,3.8-3.5,3.6c-0.9,0-1.8,0-2.6,0c-2.5,0.1-3.2-0.5-3.2-3c-0.1-2.3,0.1-4.6,0.1-7
			C885.5,260.9,885.5,256.4,885.5,251.8z"/>
		<g>
			<path class="st2" d="M614.6,88.8c28-0.1,56-0.2,84-0.3c34.6,60,69.1,120.1,103.7,180.1c-12.4,23.8-24.8,47.5-37.2,71.3
				c-36.1-60.2-72.1-120.4-108.2-180.6c-28.2,48.5-56.4,96.9-84.6,145.4c34.1-0.1,68.3-0.1,102.4-0.2c-11.3,24-22.5,47.9-33.8,71.9
				c-37-0.5-74.1-1-111.1-1.5c-6.5-35.4-13-70.8-19.5-106.2C545,208.7,579.8,148.7,614.6,88.8z"/>
			<path class="st5" d="M657.8,193.2c19.4,33.6,38.8,67.2,58.2,100.8c-19.5-7.2-39-14.3-58.5-21.5c-19.3,7.1-38.7,14.3-58,21.4
				C618.9,260.3,638.4,226.8,657.8,193.2z"/>
		</g>
	</g>
</g>
<g id="Layer_2">
</g>
</svg>
