<?xml version="1.0" encoding="utf-8"?>
<!-- Generator: Adobe Illustrator 19.0.0, SVG Export Plug-In . SVG Version: 6.00 Build 0)  -->
<svg version="1.1" id="Layer_1" xmlns="http://www.w3.org/2000/svg" xmlns:xlink="http://www.w3.org/1999/xlink" x="0px" y="0px"
	 viewBox="381 120.1 576 560" style="enable-background:new 381 120.1 576 560;" xml:space="preserve">
<style type="text/css">
	.st0{fill:#272324;}
	.st1{fill:#2F73A6;}
	.st2{fill:#FEFEFE;}
	.st3{fill:#2C5084;}
	.st4{fill:#FFFFFF;}
	.st5{fill:#232160;}
</style>
<path id="XMLID_28_" class="st0" d="M694.5,127.8c11.7,0.6,23.1,2.6,34.5,5.1c37.7,8.2,72.2,23.5,103.2,46.3
	c54.4,40,89.7,93,106,158.5c3.2,12.7,5.5,25.6,6.2,38.6c0.8,14.3,0.9,28.6,0.5,42.8c-0.6,19.8-4.2,39-9.6,58
	c-24.9,88-92.9,158.7-179.8,186.8c-18.4,6-37.3,10-56.6,11.9c-1.4,0.1-2.9,0.1-4.3,0.2c-2.5-0.2-5.1-0.1-7.6,0.1
	c-7.1,0-14.2-0.1-21.3-0.1c-4.4,0-8.7-0.3-13.1,0.2c-2.5-0.3-5-0.5-7.5-0.2c-16-1-31.6-4.1-46.9-8.3
	c-48.7-13.3-90.8-38.1-125.8-74.4c-37.4-38.8-61.4-84.8-72.3-137.5c-3-14.4-4.2-28.9-4.5-43.5c-0.2-12.2,0-24.4,0.6-36.6
	c0.7-12.6,3.1-25.1,6-37.4c11.8-48.6,35-91.2,69.8-127.3c38.5-39.9,84.9-65.9,139.1-78c11.6-2.6,23.3-4.3,35.1-5.4
	c1.8,0,3.6,0,5.4-0.1c2,0.2,4,0.6,5.8-0.5c9,0,18,0,27.1,0c0.4,0.4,0.9,0.6,1.4,0.6C688.8,127.7,691.6,127.8,694.5,127.8z
	 M934,402.2c0.7-144.3-117.2-263.7-263-264c-145.6-0.3-262.7,117.3-264.4,260.4c-1.8,147.8,117.6,266,261.2,267.3
	C815.3,667.2,934.7,547,934,402.2z"/>
<path id="XMLID_27_" class="st1" d="M650.9,140.7c-1.6,0-3.2,0-4.8-0.1c-0.3,0-0.6-0.1-0.8-0.3c1.9,0,3.9,0,5.8,0
	C651,140.4,650.9,140.5,650.9,140.7z"/>
<path id="XMLID_26_" class="st1" d="M630.3,140.3c-1,0.6-2.1,0.4-3.2,0.3c-0.1-0.1-0.1-0.2-0.1-0.3
	C628.1,140.3,629.2,140.3,630.3,140.3z"/>
<path id="XMLID_25_" class="st2" d="M627,140.3c0,0.1,0,0.2,0.1,0.3c-1,0-2,0-3,0c0-0.1,0-0.2,0-0.3
	C625.1,140.3,626.1,140.3,627,140.3z"/>
<g id="XMLID_1_">
	<path id="XMLID_11_" class="st3" d="M484,570.8c0.6,0,0.6-0.5,0.9-0.8c3-4.1,6.1-8.1,9.1-12.2c0.7-0.9,1.4-1.8,2.1-2.6
		s1.4-1.7,1.8-2.7c1.3-2.7,4.1-2.9,6.7-2.3c0.7,0.2,1.1,0.7,1.5,1.2c3.7,4.9,7.5,9.9,11.2,14.8c1,1.3,1.9,2.6,2.9,3.8
		c0.2,0.2,0.4,0.4,0.5,0.7c-2.5,1-5,0.4-6.4-1.6c-0.3-0.4-0.6-0.8-0.7-1.2c-0.6-1.4-1.7-1.9-3.3-1.9c-1.4,0-2.7,0-4.1,0.1
		c-3.5,0.1-7.1,0-10.6-0.1c-0.7,0-1.4,0-2,0.1c-1.1,0.2-1.9,0.7-2.4,1.7c-0.2,0.4-0.4,0.7-0.6,1.1c-1.2,1.9-3,2.6-5.4,2.2
		c-0.4-0.1-0.8-0.2-1.2-0.1C484,571,484,570.9,484,570.8z M494.5,563.2c2.9,0.2,14.4,0.1,15.4-0.1c-2.5-3.6-5.1-7.1-7.7-10.8
		C499.6,556,497.1,559.5,494.5,563.2z"/>
	<path id="XMLID_10_" class="st3" d="M665.1,555.9c-0.3-0.5-0.2-1-0.3-1.5c-0.2-1.1-0.5-1.3-1.7-1.4c-0.5,0-1,0-1.4,0
		c-5.3,0-10.5,0-15.8,0c-0.3,0-0.6,0-0.8,0c-0.6,0.1-1,0.4-1,0.9c-0.1,1.3-0.1,2.6,0.1,3.9c0.1,0.7,0.6,1.1,1.3,1.3
		c0.6,0.1,1.2,0.2,1.8,0.2c4.2,0,8.4,0,12.6,0c2,0,3.9-0.1,5.9,0.2c2.5,0.4,3.7,1.6,3.8,3.9c0.1,1.4,0,2.8,0,4.2
		c-0.1,1.9-1.2,3-3.3,3.5c-1.6,0.3-3.2,0.2-4.8,0.3c-5.8,0.1-11.6,0.1-17.4-0.1c-0.8,0-1.5-0.1-2.3-0.3c-1.4-0.3-2.2-1.1-2.5-2.4
		c-0.1-0.6-0.2-1.2-0.2-1.8c0-1,0.4-1.4,1.5-1.4c0.7,0,1.4,0.1,2-0.1c0.4-0.1,0.6,0.2,0.6,0.5c0,0.5-0.1,1-0.1,1.5
		c0,0.8,0.3,1.1,1.2,1.2c0.6,0.1,1.3,0,1.9,0c5.7,0,11.4,0,17,0c0.4,0,0.7,0,1.1,0c0.6,0,1-0.3,1-0.9c0.1-1.3,0.2-2.6-0.1-3.9
		c-0.1-0.8-0.7-1.2-1.5-1.3c-0.8-0.1-1.7-0.2-2.5-0.2c-5.2,0-10.3,0-15.5,0c-0.8,0-1.5,0-2.3-0.2c-2-0.4-3.2-1.6-3.5-3.4
		c-0.4-1.7-0.2-3.4,0.1-5.2c0.3-1.6,1.4-2.5,3.1-2.9c0.9-0.2,1.8-0.3,2.8-0.3c6,0,11.9,0,17.9,0c0.7,0,1.4,0.1,2.2,0.2
		c1.9,0.4,3.3,2.2,3,3.9c-0.1,0.6-0.4,0.9-1.3,1C666.8,555.4,665.9,555.4,665.1,555.9z"/>
	<path id="XMLID_7_" class="st3" d="M629.9,571.1c-1.6,0.1-3.1-0.1-4.5,0.1c-0.5,0.1-1-0.2-1.3-0.7c-0.2-0.3-0.4-0.7-0.6-1.1
		c-1.1-2.2-3-3.3-5.7-3.4c-0.7,0-1.5,0-2.2,0.1c-3.6,0.3-7.2,0.2-10.7,0c-0.6,0-1.2-0.1-1.8,0c-1.5,0.1-2.7,0.6-3.3,2
		c-0.1,0.3-0.3,0.6-0.5,0.9c-1.2,1.8-3,2.6-5.3,2.2c-0.3,0-0.5-0.1-0.8-0.2c-0.1-0.4,0.3-0.7,0.5-0.9c4.5-6.1,9.1-12.2,13.5-18.3
		c0.9-1.3,2.1-1.8,3.7-1.8c1.7,0,3.1,0.3,4.1,1.7c4.7,6.2,9.5,12.4,14.2,18.6C629.5,570.5,629.7,570.7,629.9,571.1z M603.5,563.2
		c5.2,0,10.3,0,15.5,0c-2.6-3.7-5.2-7.2-7.8-10.9C608.6,556,606.1,559.5,603.5,563.2z"/>
	<path id="XMLID_6_" class="st3" d="M536.7,550c4.5,0,9,0,13.5,0c0.3,0,0.6,0,0.8,0c0.6,0,1,0.3,1.1,0.9c0.1,0.4,0.1,0.7,0,1.1
		c-0.1,0.5-0.4,0.8-1,0.9c-0.2,0-0.5,0-0.7,0c-3.1,0-6.2,0-9.3,0c-0.1,0-0.2,0-0.2,0c-1.9,0-2.3,0.3-2.2,2c0.1,4.9-0.1,9.8,0.1,14.7
		c0,1.3-0.3,1.6-1.8,1.6c-0.4,0-0.9,0-1.3,0c-1.1,0-1.5-0.4-1.6-1.4c0-0.7,0-1.4,0-2.1c0-4.4,0-8.7,0.1-13.1c0-0.3,0-0.6-0.1-1
		c-0.1-0.5-0.4-0.8-1-0.8c-0.4-0.1-0.7,0-1.1,0c-3,0-6,0-9.1,0c-0.1,0-0.2,0-0.2,0c-0.6,0-1.2,0-1.5-0.5c-0.3-0.6-0.3-1.3,0.1-1.9
		c0.2-0.4,0.6-0.5,1-0.5c0.7,0,1.4,0,2.1,0C528.4,550.1,532.6,550.1,536.7,550C536.7,550.1,536.7,550,536.7,550z"/>
	<path id="XMLID_5_" class="st3" d="M573.2,571.1c-3.7,0-7.5,0-11.2,0c-0.3,0-0.6,0-0.8,0c-0.8-0.1-1.1-0.3-1.1-1.1
		c0-0.6,0-1.3,0-1.9c0.1-5.5,0.1-10.9,0-16.4c0-0.2,0-0.4,0-0.6c0.1-0.9,0.4-1.1,1.3-1.1c0.7,0,1.4,0,2.1,0c0.9,0,1.2,0.2,1.3,1
		c0,0.5,0,0.9,0,1.4c0,4.6,0,9.1-0.1,13.7c0,2,0.3,2.2,2.5,2.2c5.9,0,11.8,0,17.8,0c0.6,0,1.2,0,1.4,0.6c0.3,0.6,0.3,1.3-0.1,1.9
		c-0.3,0.4-0.8,0.5-1.3,0.5c-1.1,0-2.3,0-3.4,0C578.8,571.1,576,571.1,573.2,571.1z"/>
</g>
<g id="XMLID_2_">
	<path id="XMLID_20_" class="st4" d="M816.9,554.7c0.1,0.1,0.1,0.2,0.1,0.3c0,4.8,0.1,9.5-0.1,14.3c0,0.5-0.1,1,0.2,1.4
		c0.6,1,1.8,0.6,2.7,0.6c0.8,0,1.2-0.3,1.3-1c0.1-0.4,0-0.7,0-1.1c0-2.1,0-4.2,0-6.3c0-3.9-0.1-7.8,0.1-11.7c0-0.4,0-0.7-0.5-0.9
		c-1.2-0.5-3.2-0.4-4.2,0.4c-0.9,0.7-1.6,1.4-2.3,2.2c-3.2,3.5-6.4,6.9-9.7,10.4c-0.3,0.3-0.5,0.6-1,0.9c-1-1.9-2.6-3.3-4.2-4.8
		c-0.7-0.6-1.4-1.3-2-2c-2.1-2.4-4.5-4.5-6.9-6.7c-0.6-0.5-1.3-0.8-2.1-0.7c-0.6,0-1.2,0.1-1.8,0.2c-0.6,0.1-0.9,0.4-0.8,1
		c0.1,0.5,0.1,1,0.1,1.5c0,5.5,0,11,0,16.5c0,2.1,0.3,2.1,2.2,2c1.9,0,2-0.1,2-1.8c0-4.6,0-9.2,0-13.8c0-0.2-0.2-0.5,0.3-0.7
		c0.1,0.1,0.3,0.3,0.5,0.5c3.5,3.5,6.9,7,10.4,10.6c0.4,0.4,0.8,0.9,1.3,1.3c1,0.8,1.9,0.8,2.8-0.1c0.7-0.7,1.4-1.4,2.1-2.1
		c2.9-3.1,5.7-6.2,8.6-9.3C816.2,555.3,816.4,554.9,816.9,554.7z M692.7,560.6c0,2.1,0,4.1,0,6.2c0,1-0.1,2.1,0,3.1
		c0,1.1,0.4,1.4,1.6,1.3c0.4,0,0.9,0,1.3,0c1.5,0.1,1.9-0.3,1.7-1.6c-0.1-1.2-0.1-2.4-0.1-3.6c0-1.1,0-2.2,0-3.2
		c0-0.8,0.3-1.1,1.3-1.1c0.2,0,0.5,0,0.7,0c4,0,8,0,12,0c2.7,0,5.3,0,8,0c1.1,0,1.4,0.3,1.4,1.2c0,2,0,4,0,5.9
		c0,0.4-0.1,0.8-0.1,1.2c0,0.9,0.4,1.2,1.4,1.2c0.5,0,1,0,1.6,0c1.4,0,1.8-0.3,1.7-1.6c-0.2-3.4,0-6.8,0-10.1c0-1.8-0.1-3.5-0.1-5.3
		c0-0.9,0.1-1.8,0.1-2.7c0-1-0.4-1.4-1.5-1.4c-0.5,0-1,0-1.4,0c-1.4,0-1.9,0.5-1.7,1.8c0.3,1.9,0,3.8,0.1,5.7c0,0.9-0.3,1.2-1.3,1.2
		c-0.4,0-0.7,0-1.1,0c-5.6,0-11.1,0-16.7,0c-0.9,0-1.9,0.1-2.8,0c-1.2,0-1.5-0.3-1.5-1.3c0-1.4,0-2.9,0-4.3c0-0.5,0.1-1.1,0.1-1.6
		c0.1-1.2-0.3-1.5-1.6-1.5c-0.4,0-0.8,0-1.2,0c-1.7-0.1-1.9,0.1-1.9,1.7c0,0.1,0,0.2,0,0.3C692.8,554.9,692.7,557.8,692.7,560.6z"/>
	<path id="XMLID_19_" class="st3" d="M865.2,552.5c-0.6,0.5-1.3,0.5-2.1,0.5c-6.3,0-12.6,0-18.8,0c-2.1,0-2.3,0.2-2.3,2
		c0,0.6,0,1.3,0,1.9c0.1,1.3,0.6,1.8,2.1,1.8c3,0.1,6,0.1,9.1,0.1c0.5,0,1-0.1,1.6,0c0.8,0,1.1,0.3,1.2,1v0.1
		c0.2,1.5-0.2,1.9-1.9,1.9c-3.4,0-6.8-0.1-10.3-0.1c-1.4,0-1.8,0.3-1.8,1.6c0,0.9,0,1.8,0,2.7c0.1,1.7,0.7,2.3,2.6,2.4
		c0.6,0,1.2,0.1,1.8,0.1c5.6,0,11.3,0,16.9,0c0.7,0,1.4,0.1,1.9,0.6c0,0.6,0,1.2,0,1.7c-0.5,0.6-1.2,0.6-2,0.6c-7.1,0-14.2,0-21.3,0
		c-1,0-1.9,0-2.9,0c-1.3,0-1.6-0.3-1.6-1.5c0-4.6,0-9.3,0-13.9c0-1.4,0-2.8,0-4.2c0-1.3,0.2-1.5,1.8-1.5c5.4,0,10.8,0,16.2,0
		c2.7,0,5.4,0,8.1,0c0.7,0,1.3,0.1,1.8,0.7C865.2,551.3,865.2,551.9,865.2,552.5z"/>
	<path id="XMLID_16_" class="st3" d="M756.2,571.2c-3.6,0-7.3,0-10.9,0c-0.8,0-1.5-0.1-2.3-0.2c-1.8-0.3-3-1.3-3.3-2.9
		c-0.2-0.6-0.2-1.3-0.2-1.9c0-3.9,0-7.7,0-11.6c0-0.3,0-0.5,0-0.8c0.3-2.3,1.4-3.3,3.9-3.7c1.6-0.2,3.3-0.2,4.9-0.2c6,0,12,0,18,0
		c1,0,1.9,0.1,2.9,0.2c2.2,0.4,3.4,1.6,3.5,3.6c0.1,0.8,0,1.5,0,2.3c0,3.4,0,6.8,0,10.2c0,0.7,0,1.4-0.2,2c-0.4,1.5-1.5,2.4-3.2,2.7
		c-0.7,0.1-1.5,0.2-2.3,0.2C763.5,571.2,759.9,571.2,756.2,571.2z M756.3,552.9c-3.5,0-6.9,0-10.4,0c-1.5,0-1.8,0.2-1.8,1.5
		c0,4.1,0,8.3,0,12.4c0,1.2,0.3,1.5,1.7,1.6c0.3,0,0.6,0,0.8,0c5.6,0,11.2,0,16.8,0c1.2,0,2.3,0,3.5,0c1.1,0,1.3-0.3,1.4-1.2
		c0-0.2,0-0.4,0-0.5c0-3.6,0-7.2,0-10.8c0-0.4,0-0.9,0-1.3c0-1.4-0.2-1.6-1.8-1.7h-0.1C763,552.9,759.7,552.9,756.3,552.9z"/>
	<path id="XMLID_15_" class="st3" d="M816.9,554.7c-0.5,0.2-0.7,0.6-1,0.9c-2.9,3.1-5.7,6.2-8.6,9.3c-0.7,0.7-1.3,1.4-2.1,2.1
		c-0.9,0.9-1.8,1-2.8,0.1c-0.5-0.4-0.9-0.8-1.3-1.3c-3.5-3.5-6.9-7-10.4-10.6c-0.2-0.2-0.3-0.3-0.5-0.5c-0.4,0.2-0.3,0.5-0.3,0.7
		c0,4.6,0,9.2,0,13.8c0,1.8,0,1.8-2,1.8c-1.9,0-2.2,0-2.2-2c0-5.5,0-11,0-16.5c0-0.5-0.1-1-0.1-1.5c-0.1-0.6,0.2-0.9,0.8-1
		c0.6-0.1,1.2-0.2,1.8-0.2c0.8,0,1.5,0.2,2.1,0.7c2.3,2.2,4.8,4.3,6.9,6.7c0.6,0.7,1.3,1.4,2,2c1.6,1.4,3.2,2.8,4.2,4.8
		c0.5-0.2,0.7-0.6,1-0.9c3.2-3.5,6.5-6.9,9.7-10.4c0.7-0.8,1.5-1.5,2.3-2.2c1-0.8,3-1,4.2-0.4c0.5,0.2,0.5,0.5,0.5,0.9
		c-0.2,3.9,0,7.8-0.1,11.7c0,2.1,0,4.2,0,6.3c0,0.4,0,0.7,0,1.1c-0.1,0.7-0.5,1-1.3,1c-0.9,0-2.1,0.4-2.7-0.6
		c-0.3-0.4-0.2-0.9-0.2-1.4C817,564.3,816.8,559.6,816.9,554.7C817,554.9,817,554.8,816.9,554.7z"/>
	<path id="XMLID_14_" class="st3" d="M692.7,560.6c0.1-2.8,0.1-5.7,0-8.5c0-0.1,0-0.2,0-0.3c0-1.6,0.2-1.8,1.9-1.7
		c0.4,0,0.8,0,1.2,0c1.3,0,1.7,0.3,1.6,1.5c0,0.5-0.1,1.1-0.1,1.6c0,1.4,0,2.9,0,4.3c0,1.1,0.3,1.3,1.5,1.3c0.9,0,1.9,0,2.8,0
		c5.6,0,11.1,0,16.7,0c0.4,0,0.7,0,1.1,0c1-0.1,1.3-0.3,1.3-1.2c-0.1-1.9,0.2-3.8-0.1-5.7c-0.2-1.3,0.3-1.7,1.7-1.8c0.5,0,1,0,1.4,0
		c1.1,0.1,1.5,0.4,1.5,1.4c0,0.9-0.1,1.8-0.1,2.7c0,1.8,0,3.5,0.1,5.3c0,3.4-0.2,6.8,0,10.1c0.1,1.3-0.3,1.6-1.7,1.6
		c-0.5,0-1,0-1.6,0c-1,0-1.4-0.3-1.4-1.2c0-0.4,0.1-0.8,0.1-1.2c0-2,0-4,0-5.9c0-0.9-0.3-1.2-1.4-1.2c-2.7,0-5.3,0-8,0
		c-4,0-8,0-12,0c-0.2,0-0.5,0-0.7,0c-0.9,0.1-1.2,0.3-1.3,1.1c0,1.1,0,2.2,0,3.2c0,1.2,0,2.4,0.1,3.6c0.1,1.4-0.3,1.7-1.7,1.6
		c-0.4,0-0.9,0-1.3,0c-1.2,0.1-1.6-0.2-1.6-1.3c0-1,0-2.1,0-3.1C692.7,564.7,692.7,562.7,692.7,560.6z"/>
</g>
<g id="XMLID_4_">
	<path id="XMLID_24_" class="st3" d="M625.2,179.3c34.7-0.1,69.5-0.2,104.2-0.3c42.9,74.5,85.8,149,128.6,223.5
		c-15.4,29.5-30.8,58.9-46.1,88.4c-44.7-74.7-89.5-149.3-134.2-224c-35,60.1-70,120.2-105,180.3c42.4-0.1,84.7-0.2,127.1-0.2
		c-14,29.7-28,59.4-41.9,89.2c-46-0.6-91.9-1.2-137.9-1.9c-8.1-43.9-16.2-87.9-24.2-131.8C538.9,328.1,582.1,253.7,625.2,179.3z"/>
	<path id="XMLID_23_" class="st5" d="M678.9,308.8c24.1,41.7,48.1,83.4,72.2,125.1c-24.2-8.9-48.4-17.8-72.6-26.7
		c-24,8.9-48,17.7-72,26.6C630.7,392.2,654.8,350.5,678.9,308.8z"/>
</g>
</svg>
