<svg xmlns="http://www.w3.org/2000/svg" width="302" height="225.056" viewBox="0 0 302 225.056"><defs><style>.a{fill:#ebebeb;}.b,.g{fill:#e7e7e7;}.c{fill:#f5f5f5;}.d,.i{fill:#e0e0e0;}.e,.r,.t{fill:#fff;}.f{fill:#f0f0f0;}.g,.t{opacity:0.7;}.g{mix-blend-mode:multiply;isolation:isolate;}.h{fill:#fafafa;}.i{opacity:0.4;}.j{fill:#f2f2f2;}.k{fill:#263238;}.l{fill:#0048cd;}.m,.s{opacity:0.2;}.n{fill:#007cff;}.o{fill:#0a437d;}.p{fill:#c4c9ce;}.q{fill:#ffc3bd;}.r{opacity:0.6;}</style></defs><g transform="translate(5408.069 10609.254)"><g transform="translate(-5408.069 -10609.254)"><g transform="translate(0 0)"><rect class="a" width="302" height="0.151" transform="translate(0 197.777)"/><path class="a" d="M171.164,312.536H54.533a3.452,3.452,0,0,1-3.448-3.447V145.144a3.452,3.452,0,0,1,3.448-3.447H171.164a3.451,3.451,0,0,1,3.447,3.447V309.089A3.451,3.451,0,0,1,171.164,312.536ZM54.533,141.848a3.3,3.3,0,0,0-3.3,3.3V309.089a3.3,3.3,0,0,0,3.3,3.3H171.164a3.3,3.3,0,0,0,3.3-3.3V145.144a3.3,3.3,0,0,0-3.3-3.3Z" transform="translate(-28.008 -141.697)"/><path class="a" d="M322.413,312.536H205.781a3.451,3.451,0,0,1-3.447-3.447V145.144a3.451,3.451,0,0,1,3.447-3.447H322.413a3.451,3.451,0,0,1,3.447,3.447V309.089A3.451,3.451,0,0,1,322.413,312.536ZM205.781,141.848a3.3,3.3,0,0,0-3.3,3.3V309.089a3.3,3.3,0,0,0,3.3,3.3H322.413a3.3,3.3,0,0,0,3.3-3.3V145.144a3.3,3.3,0,0,0-3.3-3.3Z" transform="translate(-48.613 -141.697)"/><g transform="translate(30.972 201.891)"><rect class="a" width="15.702" height="0.151" transform="translate(0 1.639)"/><rect class="a" width="27.196" height="0.151" transform="translate(56.7)"/><rect class="a" width="36.718" height="0.151" transform="translate(16.307 7.248)"/><rect class="a" width="11.618" height="0.151" transform="translate(228.438 6.233)"/><rect class="a" width="33.396" height="0.151" transform="translate(189.664 6.233)"/><rect class="a" width="44.978" height="0.151" transform="translate(124.284 3.683)"/></g></g><g transform="translate(31.986 8.681)"><g transform="translate(131.317 110.822)"><rect class="b" width="21.554" height="78.274" transform="translate(79.668)"/><rect class="c" width="79.668" height="78.274"/><rect class="b" width="74.102" height="71.323" transform="translate(75.495 4.173) rotate(90)"/><rect class="d" width="41.743" height="74.102" transform="translate(33.753 4.173)"/><rect class="c" width="25.23" height="74.971" transform="translate(76.883 2.889) rotate(90)"/><path class="e" d="M285.849,306.36H222.19V286.5h63.659Zm-62.4-1.255h61.149V287.757H223.445Z" transform="translate(-214.621 -280.927)"/></g><g transform="translate(147.057 87.89)"><g transform="translate(0 0)"><g transform="translate(0.991 0.308)"><rect class="b" width="19.646" height="20.098" transform="translate(25.821 2.48)"/><rect class="f" width="25.821" height="20.098" transform="translate(25.821 22.579) rotate(180)"/><rect class="g" width="45.466" height="3.016"/></g><rect class="b" width="20.637" height="2.788" transform="translate(26.811 0)"/><rect class="f" width="26.811" height="2.788" transform="translate(26.811 2.788) rotate(180)"/></g><g transform="translate(32.015 11.652)"><g transform="translate(0)"><g transform="translate(0.811 0.252)"><rect class="a" width="16.072" height="8.953" transform="translate(21.124 2.029)"/><rect class="c" width="21.124" height="8.953" transform="translate(21.124 10.982) rotate(180)"/><rect class="g" width="37.196" height="2.468" transform="translate(0)"/></g><rect class="a" width="16.883" height="2.281" transform="translate(21.934)"/><rect class="c" width="21.934" height="2.281" transform="translate(21.934 2.281) rotate(180)"/></g></g></g><g transform="translate(148.524 3.291)"><g transform="translate(0)"><rect class="b" width="62.1" height="82.398" transform="translate(66.808 82.398) rotate(180)"/><rect class="c" width="64.748" height="82.398" transform="translate(64.748 82.398) rotate(180)"/><path class="e" d="M291.633,233.9h-50.3a2.409,2.409,0,0,1-2.406-2.406V163.545a2.409,2.409,0,0,1,2.406-2.406h50.3a2.409,2.409,0,0,1,2.406,2.406v67.946A2.409,2.409,0,0,1,291.633,233.9Zm-50.3-71.55a1.2,1.2,0,0,0-1.2,1.2v67.946a1.2,1.2,0,0,0,1.2,1.2h50.3a1.2,1.2,0,0,0,1.2-1.2V163.545a1.2,1.2,0,0,0-1.2-1.2Z" transform="translate(-234.109 -156.318)"/></g></g><g transform="translate(0)"><g transform="translate(0 2.333)"><rect class="b" width="87.669" height="173.02" transform="translate(95.204 176.045) rotate(180)"/><rect class="c" width="88.705" height="173.02" transform="translate(94.296 176.045) rotate(180)"/><path class="b" d="M163.371,155.983H62.167a.77.77,0,0,1-.768-.767h0a.77.77,0,0,1,.768-.768h101.2a.77.77,0,0,1,.767.768h0A.77.77,0,0,1,163.371,155.983Z" transform="translate(-61.399 -154.448)"/><rect class="b" width="87.669" height="2.923" transform="translate(95.204 178.968) rotate(180)"/><rect class="c" width="84.452" height="2.923" transform="translate(86.458 178.968) rotate(180)"/><rect class="h" width="165.952" height="83.263" transform="translate(91.576 6.559) rotate(90)"/><path class="e" d="M131.1,327.993l-6.421-165.952H113.133l6.421,165.952Z" transform="translate(-68.447 -155.482)"/><path class="e" d="M114.924,327.993,108.5,162.041h-5.36l6.421,165.952Z" transform="translate(-67.086 -155.482)"/><rect class="b" width="68.744" height="0.345" transform="translate(8.658 6.081) rotate(90)"/></g><rect class="i" width="12.595" height="168.587" transform="translate(1.771)"/><rect class="i" width="12.595" height="168.587" transform="translate(15.811)"/><rect class="i" width="12.595" height="168.587" transform="translate(7.509 1.506)"/><rect class="i" width="12.595" height="168.587" transform="translate(72.419)"/><rect class="i" width="12.595" height="168.587" transform="translate(86.458)"/><rect class="i" width="12.595" height="168.587" transform="translate(78.156 1.506)"/></g></g><ellipse class="c" cx="117.109" cy="6.839" rx="117.109" ry="6.839" transform="translate(33.891 211.377)"/><g transform="translate(47.636 19.859)"><path class="j" d="M121.678,386.26l-5.2-.082.325-12.094,5.2.082Z" transform="translate(-84.552 -193.215)"/><path class="k" d="M114.805,387.388l5.684.089a.4.4,0,0,1,.4.364l.495,4.65a.849.849,0,0,1-.855.916c-2.046-.067-5-.234-7.573-.275-3.014-.047-2.72.077-6.255.021-2.136-.033-2.481-2.206-1.563-2.388,4.174-.827,4.6-.872,8.364-2.989A2.61,2.61,0,0,1,114.805,387.388Z" transform="translate(-82.943 -195.027)"/><path class="j" d="M111.118,207.483c-1.225,3.778-2.531,7.509-3.911,11.228-.69,1.859-1.39,3.714-2.121,5.563s-1.461,3.7-2.235,5.543c-.178.442-.421.973-.64,1.467-.22.511-.459.973-.7,1.448s-.485.935-.735,1.386-.495.913-.754,1.352c-1,1.79-2.106,3.483-3.2,5.172-2.222,3.362-4.581,6.57-7.12,9.7l-3.28-2.137,5.209-10.531a88.314,88.314,0,0,0,4.5-10.37l3.675-11.184c1.233-3.734,2.5-7.468,3.82-11.168Z" transform="translate(-80.458 -170.173)"/><g transform="translate(18.385 29.807)"><path class="l" d="M116.574,204.274c-1.273,4.194-5.678,14.662-5.678,14.662L100.8,211.894s1.776-6.813,5.77-10.021C112.237,197.323,118.216,198.872,116.574,204.274Z" transform="translate(-100.802 -199.196)"/></g><path class="m" d="M111.147,209.013c-3.715.9-6.532,4.646-6.075,6.792l6.4,4.462a32.977,32.977,0,0,1,3.8-8.766C113.848,210.087,112.221,208.753,111.147,209.013Z" transform="translate(-82.992 -170.722)"/><path class="n" d="M108.814,219.1a7.019,7.019,0,0,0,1.005-.912s-7.5-5.222-9.386-5.275a2.408,2.408,0,0,0-.552,1.407S106.431,219.152,108.814,219.1Z" transform="translate(-82.292 -171.257)"/><path class="j" d="M87.761,252.944l-5.02,3.24,4.019,4.369s4.194-1.978,3.472-5.773Z" transform="translate(-79.957 -176.712)"/><path class="j" d="M80.176,261.764l2.479,1.258a1.2,1.2,0,0,0,1.277-.119l2.389-1.838L82.3,256.7l-2.532,3.26A1.2,1.2,0,0,0,80.176,261.764Z" transform="translate(-79.517 -177.223)"/><path class="m" d="M116.825,374.088l-.168,6.234,5.205.082.168-6.234Z" transform="translate(-84.577 -193.215)"/><g transform="translate(23.826 29.545)"><path class="l" d="M139.057,201.647c-4.865,19.805-2.935,40.827-3.281,45.08l-27.889-.452c-1.836-21.965-.03-36.379,1.134-42.763a5.323,5.323,0,0,1,4.667-4.334l.346-.037c.76-.078,1.58-.147,2.434-.192.472-.028.953-.043,1.44-.053a104.086,104.086,0,0,1,11.857.881c.745.092,1.5.2,2.237.322.682.116,1.351.238,1.981.364C136.843,201.03,139.057,201.647,139.057,201.647Z" transform="translate(-107.101 -198.893)"/></g><path class="m" d="M137.585,211.917c-.428,1.916.476,10.66,2.558,12.816.167-2.8.42-5.722.788-8.71Z" transform="translate(-87.414 -171.122)"/><path class="j" d="M130.657,184.4c-.887,3.749-1.888,10.662.688,13.4-2.149,1.9-4.966,4.359-9.481,3.9-3.678-.377-3.63-3.225-2.374-4.777,4.29-.7,4.3-3.852,3.662-6.863Z" transform="translate(-84.858 -167.374)"/><path class="m" d="M131,189.046l-3.095-1.29-1.148.867c.117.422-.188,1.96,0,2.412.527,1.283,2.66,1.953,4.038,1.733A25.646,25.646,0,0,1,131,189.046Z" transform="translate(-85.944 -167.831)"/><path class="k" d="M126.836,165.522c-2.17,1.6-2.174,1.808-4.445,1.368s-8.694-2.784-6.984,2.759c-5.4.318-4.639,6-2.222,9.2,2.442,3.233,4.809,3.509,5.109,6.135.352,3.089,5.574,3.687,6.306,1.954l7.458-6.365c2.476.147.085-3.885,1.315-6.2a2.6,2.6,0,0,0,.034-2.347,4.225,4.225,0,0,0,1.708-1.494C137.594,166.864,130.34,162.935,126.836,165.522Z" transform="translate(-83.853 -164.688)"/><path class="j" d="M119.451,177.385c.653,5.127.775,8.163,3.55,10.614,4.176,3.685,10.383.853,11.277-4.379.8-4.71-.4-12.3-5.578-13.977A7.122,7.122,0,0,0,119.451,177.385Z" transform="translate(-84.949 -165.314)"/><path class="k" d="M119.563,171.608c2.7-.594,5.177,2.519,3.712,4.7s1.658,4.879-1.612,6.28c-2.279.978-3.386-1.4-4.493-3.015C115.473,177.086,116.689,172.241,119.563,171.608Z" transform="translate(-84.541 -165.621)"/><path class="k" d="M117.01,170.433c3.294,1.773,4.1,3.5,9,1.823,2.9-.992,3.63,1.285,7.345.48.719-4.387-4.4-5.364-6.986-4.875S117.01,170.433,117.01,170.433Z" transform="translate(-84.625 -165.105)"/><path class="k" d="M116.417,171.1a.892.892,0,0,1-.282-.047c-3.534-1.2-3.482-3.876-3.478-3.989a.9.9,0,0,1,.909-.848.879.879,0,0,1,.848.895c0,.087.057,1.521,2.285,2.276a.88.88,0,0,1-.282,1.713Z" transform="translate(-84.032 -164.897)"/><path class="j" d="M118.417,183.906a4.971,4.971,0,0,0,2.691,2.1c1.344.365,1.663-1.1.994-2.589-.6-1.337-2.028-3.136-3.235-2.837C117.678,180.88,117.557,182.595,118.417,183.906Z" transform="translate(-84.741 -166.849)"/><path class="o" d="M124.18,305.5c-.21-26.221,5.594-51.4,5.594-51.4l-21.744-.351s2.5,37.869,3.37,53.732c.9,16.493,2.167,55.211,2.167,55.211l8.827.135S125.4,326.194,124.18,305.5Z" transform="translate(-83.402 -176.821)"/><path class="m" d="M127.135,270.638c-6.2,8.483-3.41,24.443-.871,35.719a242.154,242.154,0,0,1,3.164-37.122Z" transform="translate(-85.494 -178.931)"/><path class="k" d="M113.709,379.526l10.493.165.593-3.4-11.7-.363Z" transform="translate(-84.092 -193.466)"/><path class="k" d="M129.3,179.983c.028.42.272.743.547.723s.474-.377.447-.8-.272-.743-.546-.723S129.271,179.564,129.3,179.983Z" transform="translate(-86.299 -166.663)"/><path class="k" d="M135.009,179.575c.027.419.272.743.546.722s.474-.377.447-.8-.272-.743-.547-.722S134.981,179.155,135.009,179.575Z" transform="translate(-87.077 -166.608)"/><path class="p" d="M133.337,179.78a14.882,14.882,0,0,0,2.239,3.437,2.435,2.435,0,0,1-1.98.525Z" transform="translate(-86.849 -166.744)"/><path class="k" d="M130.022,185.531a3.432,3.432,0,0,1-2.461-1.2.124.124,0,0,1,.2-.15,3.309,3.309,0,0,0,2.8,1.1.123.123,0,1,1,.016.246A4.03,4.03,0,0,1,130.022,185.531Z" transform="translate(-86.059 -167.337)"/><path class="k" d="M127.879,178a.235.235,0,0,1-.119-.039.245.245,0,0,1-.07-.341,2.474,2.474,0,0,1,1.94-1.166.244.244,0,0,1,.245.246.249.249,0,0,1-.247.248h0a1.981,1.981,0,0,0-1.526.94A.248.248,0,0,1,127.879,178Z" transform="translate(-86.074 -166.291)"/><path class="k" d="M135.994,176.562a.243.243,0,0,1-.211-.1,1.939,1.939,0,0,0-1.569-.837.246.246,0,0,1-.258-.232.25.25,0,0,1,.233-.261,2.43,2.43,0,0,1,1.993,1.036.249.249,0,0,1-.187.394Z" transform="translate(-86.934 -166.111)"/><g transform="translate(27.772 190.452)"><path class="n" d="M114.815,387.741a.123.123,0,0,0,.02-.226c-.235-.126-2.313-1.221-2.952-.878a.394.394,0,0,0-.21.326h0a.69.69,0,0,0,.222.6c.563.516,2.061.333,2.9.18Zm-2.77-.906a5.116,5.116,0,0,1,2.345.728,3.342,3.342,0,0,1-2.328-.18.449.449,0,0,1-.143-.4.147.147,0,0,1,.08-.13A.238.238,0,0,1,112.045,386.835Z" transform="translate(-111.669 -385.367)"/><path class="n" d="M115.02,387.552a.126.126,0,0,0,.085-.127,3.518,3.518,0,0,0-.777-2.021.9.9,0,0,0-.681-.222h0c-.34.029-.441.2-.466.338-.105.588,1.123,1.734,1.747,2.027A.126.126,0,0,0,115.02,387.552Zm-1.479-2.1a.563.563,0,0,1,.127-.024h0a.656.656,0,0,1,.5.165,2.889,2.889,0,0,1,.662,1.619c-.636-.4-1.468-1.3-1.405-1.648C113.429,385.54,113.439,385.485,113.541,385.451Zm.117-.147h0Z" transform="translate(-111.875 -385.178)"/></g><path class="j" d="M164.138,386.26l-5.228-.082-3.346-12.094,5.228.082Z" transform="translate(-89.878 -193.215)"/><path class="k" d="M158.059,387.388l5.7.089a.5.5,0,0,1,.464.364l1.291,4.65a.7.7,0,0,1-.7.916c-2.058-.067-2.73-.234-5.315-.275-3.021-.047-1.61.077-5.153.021-2.142-.033-2.855-2.2-1.973-2.388,2.792-.606,3.355-1.759,4.45-2.989A1.6,1.6,0,0,1,158.059,387.388Z" transform="translate(-89.393 -195.027)"/><path class="m" d="M155.567,374.088l1.724,6.234,5.23.082L160.8,374.17Z" transform="translate(-89.878 -193.215)"/><path class="o" d="M146.076,305.892c-2.959-23.434-5.171-46.434-8.684-51.668l-18.429-.3S129.625,292,133.222,307.61c3.738,16.231,16.705,53.563,16.705,53.563l8.406.119S151.6,324.021,146.076,305.892Z" transform="translate(-84.891 -176.845)"/><path class="k" d="M153.37,379.526l10.493.165.593-3.4-11.7-.363Z" transform="translate(-89.495 -193.466)"/><g transform="translate(66.229 190.028)"><path class="n" d="M158.953,387.522a.124.124,0,0,0,.1-.206c-.177-.2-1.753-1.941-2.471-1.839a.394.394,0,0,0-.308.234h0a.692.692,0,0,0,0,.644c.352.677,1.821,1.021,2.666,1.165Zm-2.291-1.8c.416.013,1.322.825,1.952,1.488-1.144-.233-1.927-.587-2.124-.967a.447.447,0,0,1,0-.424.148.148,0,0,1,.119-.1A.305.305,0,0,1,156.663,385.72Z" transform="translate(-156.192 -384.794)"/><path class="n" d="M159.216,387.415a.125.125,0,0,0,.035,0,.122.122,0,0,0,.088-.085,3.526,3.526,0,0,0-.035-2.165.9.9,0,0,0-.563-.443h0c-.33-.09-.483.036-.554.157-.3.517.459,2.015.945,2.5A.124.124,0,0,0,159.216,387.415Zm-.668-2.481a.552.552,0,0,1,.127.022h0a.653.653,0,0,1,.414.327,2.89,2.89,0,0,1,.066,1.747c-.461-.59-.935-1.721-.754-2.03C158.412,384.98,158.44,384.931,158.548,384.934Zm.16-.1h0Z" transform="translate(-156.454 -384.687)"/></g><g transform="translate(48.117 31.843)"><path class="q" d="M145.489,208.619l.212.479.252.543.525,1.111c.367.742.751,1.48,1.157,2.208.8,1.463,1.664,2.895,2.588,4.276a47.071,47.071,0,0,0,2.958,3.983c.512.65,1.084,1.23,1.62,1.855l.855.873.429.437.054.054-.006,0a.028.028,0,0,0-.015,0c-.012,0-.025-.014-.043-.011-.066-.02-.15-.023-.133,0a.517.517,0,0,0,.315.039,5.223,5.223,0,0,0,1.616-.487,22.694,22.694,0,0,0,4.013-2.469,89.222,89.222,0,0,0,7.869-6.794l3.065,2.436a51.963,51.963,0,0,1-3.277,4.581,47.861,47.861,0,0,1-3.8,4.248,25.862,25.862,0,0,1-4.784,3.8,12.078,12.078,0,0,1-3.431,1.41,7.676,7.676,0,0,1-2.377.168,6.694,6.694,0,0,1-2.685-.836c-.2-.124-.415-.249-.6-.388l-.28-.213-.138-.109-.072-.06-.564-.482-1.125-.97c-.711-.679-1.447-1.346-2.1-2.074a43.263,43.263,0,0,1-3.753-4.5,46.483,46.483,0,0,1-3.154-4.894c-.472-.849-.918-1.712-1.349-2.589-.209-.444-.426-.881-.623-1.34l-.292-.694-.3-.772Z" transform="translate(-135.616 -202.516)"/><path class="l" d="M142.887,202.01c4.814,1.49,7.047,12.264,7.047,12.264l-7.356,6.464a30.2,30.2,0,0,1-6.547-10.194C133.549,203.89,137.056,200.206,142.887,202.01Z" transform="translate(-135.224 -201.553)"/><path class="n" d="M151.307,216.308a7.029,7.029,0,0,0-.521-1.253s-7.44,5.307-8.124,7.066a2.4,2.4,0,0,0,1.139.992S150.558,218.571,151.307,216.308Z" transform="translate(-136.237 -203.393)"/><path class="q" d="M173.713,216.3l2.817-4.461,4.189,4.741s-3.04,3.73-5.283,2.435Z" transform="translate(-140.467 -202.955)"/><path class="q" d="M182.309,210.259l1.188,1.909a1.827,1.827,0,0,1-.347,2.341l-1.987,1.741-4.189-4.741,2.785-1.816A1.828,1.828,0,0,1,182.309,210.259Z" transform="translate(-140.911 -202.622)"/></g></g><g transform="translate(175.43 27.079)"><path class="k" d="M275.714,174.956c-4.873-2.149-10.513-3.362-13.343,1.259-1.853,3.024-2.778,9.193-6.044,12.514a2.661,2.661,0,0,0-.9,1.944c0,.046-.007.085-.006.14.056,1.86,1.548,4.351,5.381,5.265a6.506,6.506,0,0,1-1.917-1.907,12.817,12.817,0,0,0,5,1.054c4.516-.048,7.989.294,10.063,1.367s5.84-3.605,5.667-5.759c.821,1.226,1.8-.011,2.138-2.975C282.63,180.248,280.147,173.988,275.714,174.956Z" transform="translate(-231.276 -173.047)"/><path class="n" d="M265.435,201.7a3.951,3.951,0,1,1,3.951-3.951A3.955,3.955,0,0,1,265.435,201.7Zm0-7.61a3.658,3.658,0,1,0,3.658,3.659A3.663,3.663,0,0,0,265.435,194.087Z" transform="translate(-232.101 -175.873)"/><path class="j" d="M257.208,218.431a81.5,81.5,0,0,1-5.037,8.575,48.76,48.76,0,0,1-3,4.085,21.791,21.791,0,0,1-3.909,3.862,5.649,5.649,0,0,1-.891.553,4.938,4.938,0,0,1-1.212.415,4.844,4.844,0,0,1-2.465-.182,7.514,7.514,0,0,1-2.913-1.989,15.118,15.118,0,0,1-1.731-2.215c-.489-.747-.924-1.5-1.325-2.254a48.931,48.931,0,0,1-3.63-9.32l2.642-.989a76.98,76.98,0,0,0,4.675,8.1,17.869,17.869,0,0,0,2.707,3.251,2.639,2.639,0,0,0,1.075.659c.073,0,0-.041-.082-.029-.039-.007-.073.011-.081,0s-.035.015.115-.111a19.348,19.348,0,0,0,2.739-3.11c.886-1.206,1.741-2.491,2.573-3.8s1.615-2.666,2.4-4.023,1.555-2.755,2.286-4.087Z" transform="translate(-227.961 -178.874)"/><g transform="translate(21.014 31.616)"><path class="n" d="M258.356,209.65c-2.368-.083-6.56,8.537-6.56,8.537l4.511,10.1s8.854-11.644,7.866-14.562C263.144,210.685,261.812,209.771,258.356,209.65Z" transform="translate(-251.796 -209.649)"/><path class="r" d="M258.356,209.65c-2.368-.083-6.56,8.537-6.56,8.537l4.511,10.1s8.854-11.644,7.866-14.562C263.144,210.685,261.812,209.771,258.356,209.65Z" transform="translate(-251.796 -209.649)"/></g><path class="j" d="M232.848,214.337l.7,6.242-1.64,1.147c-2.257-.52-3.194-3.972-3.194-3.972l-1.015-2.221a2.571,2.571,0,0,1,.525-2.892l.456-.453a2.053,2.053,0,0,1,3.148.259l.659.94A2.064,2.064,0,0,1,232.848,214.337Z" transform="translate(-227.467 -178.295)"/><path class="j" d="M271.693,386.858h-5.571l-.506-12.9h5.571Z" transform="translate(-232.664 -200.417)"/><path class="k" d="M264.041,388.146H270.3a.39.39,0,0,1,.406.381l.213,4.952a1.009,1.009,0,0,1-.993.991c-2.178-.038-3.217-.166-5.969-.166-1.694,0-5.591.176-7.929.176-2.287,0-2.229-2.312-1.234-2.522,4.46-.939,6.686-2.234,8.283-3.469A1.6,1.6,0,0,1,264.041,388.146Z" transform="translate(-231.101 -202.35)"/><g class="s" transform="translate(32.952 173.542)"><path d="M265.617,373.96l.26,6.65h5.574l-.26-6.65Z" transform="translate(-265.617 -373.96)"/></g><g transform="translate(25.326 29.696)"><path class="n" d="M256.8,212.108c-.124,3.522.487,11.746,4.19,30.9l22.618-.673c-.608-8.556-.806-14.066,2.264-30.124a3.671,3.671,0,0,0-3.174-4.338c-1.662-.194-3.686-.372-5.728-.409a71.847,71.847,0,0,0-10.27.306c-2.618.318-5.44.861-7.295,1.25A3.272,3.272,0,0,0,256.8,212.108Z" transform="translate(-256.788 -207.426)"/><path class="t" d="M256.8,212.108c-.124,3.522.487,11.746,4.19,30.9l22.618-.673c-.608-8.556-.806-14.066,2.264-30.124a3.671,3.671,0,0,0-3.174-4.338c-1.662-.194-3.686-.372-5.728-.409a71.847,71.847,0,0,0-10.27.306c-2.618.318-5.44.861-7.295,1.25A3.272,3.272,0,0,0,256.8,212.108Z" transform="translate(-256.788 -207.426)"/></g><path class="j" d="M277.059,194.122c-.549,3.324-1.016,9.4,1.361,11.534a12.793,12.793,0,0,1-7.844,5.6c-5.211-2.642-2.426-5.291-2.426-5.291,3.659-.99,3.483-3.721,2.764-6.269Z" transform="translate(-232.908 -175.918)"/><g transform="translate(32.53 28.887)"><path class="n" d="M271.076,213.747l.674-1.321,3.621.819Z" transform="translate(-265.939 -207.299)"/><path class="e" d="M271.857,211.616c1.163-.529,6.546-4.035,6.756-5.126a13.187,13.187,0,0,1,3.055.808s-.968,4.318-6.191,7.274A5.744,5.744,0,0,0,271.857,211.616Z" transform="translate(-266.045 -206.49)"/><path class="n" d="M270.678,213.747l-.3-1.321-2.22.159Z" transform="translate(-265.54 -207.299)"/><path class="e" d="M269.963,211.672c-1.8-1.189-1.133-3.682-.959-4.774a9.641,9.641,0,0,0-2.639.651s-2.726,2.5-.084,7.079A8.407,8.407,0,0,1,269.963,211.672Z" transform="translate(-265.128 -206.546)"/></g><path class="m" d="M275.107,196.753l-3.637,3.294a10.505,10.505,0,0,1,.371,1.814c1.4-.245,3.289-1.848,3.395-3.326A4.962,4.962,0,0,0,275.107,196.753Z" transform="translate(-233.462 -176.276)"/><path class="j" d="M278.122,184.692c-.244,5.524-.23,7.867-2.968,10.747-4.119,4.333-10.851,2.825-12.262-2.66-1.27-4.938-.657-13.142,4.706-15.43A7.542,7.542,0,0,1,278.122,184.692Z" transform="translate(-232.217 -173.546)"/><path class="k" d="M274.051,178.587c-1.857,3.116-4.5-.846-6.6,1.523-1.684,1.9-4.446-.1-6.064,5.316.555-4.653,1.337-8.765,6.089-10.128C270.431,174.452,276.04,174.133,274.051,178.587Z" transform="translate(-232.089 -173.283)"/><path class="k" d="M276.656,176.709c-1.627,1.127-3.3,2.755-3.1,4.741s3.053,1.119,3.433,2.513-1.7,4.33,1.324,4.618c3.452-1.921,4.42-2.344,3.789-5.307S279.294,176.3,276.656,176.709Z" transform="translate(-233.744 -173.542)"/><path class="o" d="M261.236,248.547s-2.188,41.159-2.3,58.079c-.117,17.6,4.838,55.544,4.838,55.544h7.534s-1.432-38.362-.273-55.72c1.263-18.924,5.665-58.395,5.665-58.395Z" transform="translate(-231.754 -183.265)"/><path class="k" d="M272.532,379.982h-8.839l-.364-2.82,9.934-.345Z" transform="translate(-232.353 -200.807)"/><path class="m" d="M276.7,265.092c-.811-1.015-1.879-.488-3.275,2.4-4.758,9.869-2.34,25.619-.307,34.69C274.04,290.9,275.549,276.014,276.7,265.092Z" transform="translate(-233.353 -185.522)"/><path class="k" d="M269.654,188.269c.008.449-.224.817-.517.822s-.538-.355-.546-.8.224-.818.517-.823S269.646,187.819,269.654,188.269Z" transform="translate(-233.07 -175.011)"/><path class="k" d="M263.779,188.221c.008.45-.224.818-.517.823s-.538-.355-.546-.8.224-.818.517-.823S263.771,187.772,263.779,188.221Z" transform="translate(-232.269 -175.004)"/><path class="k" d="M263.295,187.4l-1.085-.292S262.778,187.939,263.295,187.4Z" transform="translate(-232.2 -174.962)"/><path class="p" d="M265.75,188.828a12,12,0,0,1-1.552,2.9A1.933,1.933,0,0,0,265.8,192Z" transform="translate(-232.471 -175.197)"/><path class="k" d="M269.053,193.942a4.386,4.386,0,0,1-.662.061.132.132,0,0,1-.134-.13.135.135,0,0,1,.13-.134,3.544,3.544,0,0,0,2.878-1.442.132.132,0,0,1,.224.14A3.7,3.7,0,0,1,269.053,193.942Z" transform="translate(-233.024 -175.661)"/><path class="j" d="M281.78,191.549a4.04,4.04,0,0,1-2.251,2.111c-1.33.49-2.108-.672-1.835-1.986.247-1.183,1.236-2.864,2.616-2.789A1.815,1.815,0,0,1,281.78,191.549Z" transform="translate(-234.303 -175.204)"/><path class="n" d="M279.107,201.7a3.951,3.951,0,1,1,3.951-3.951A3.955,3.955,0,0,1,279.107,201.7Zm0-7.61a3.658,3.658,0,1,0,3.658,3.659A3.663,3.663,0,0,0,279.107,194.087Z" transform="translate(-233.964 -175.873)"/><path class="k" d="M271.714,185.278a.263.263,0,0,1-.278-.136,3.117,3.117,0,0,0-2.142-1.3.264.264,0,0,1,.067-.523A3.606,3.606,0,0,1,271.9,184.9a.263.263,0,0,1-.11.356A.25.25,0,0,1,271.714,185.278Z" transform="translate(-233.134 -174.446)"/><path class="k" d="M262.06,184.93a.264.264,0,0,1-.217-.461,2.621,2.621,0,0,1,2.332-.6.264.264,0,0,1-.148.507h0a2.088,2.088,0,0,0-1.842.5A.262.262,0,0,1,262.06,184.93Z" transform="translate(-232.138 -174.511)"/><path class="j" d="M293.611,215.694c1.02,2.9,1.913,5.8,2.723,8.768.409,1.48.8,2.972,1.132,4.5.167.767.327,1.54.466,2.339a21.335,21.335,0,0,1,.3,2.593l.01.383-.012.446c-.016.268-.041.429-.06.649-.04.42-.1.8-.146,1.2-.112.78-.236,1.541-.366,2.3-.251,1.515-.555,3.009-.855,4.5-.621,2.98-1.323,5.93-2.133,8.87l-2.784-.46c.164-3.018.39-6.033.633-9.029l.361-4.473c.058-.74.107-1.479.145-2.2.019-.358.046-.726.051-1.059,0-.157.016-.372.01-.481l-.009-.121-.022-.181a17.076,17.076,0,0,0-.364-1.883c-.157-.681-.338-1.379-.53-2.077-.395-1.4-.808-2.819-1.24-4.238l-2.707-8.51Z" transform="translate(-235.743 -178.857)"/><g transform="translate(48.362 30.131)"><path class="n" d="M286.334,207.946c7.415.922,8.884,9.982,9.939,12.259L289,226.311s-4.606-7.751-5.276-10.759C283.023,212.42,283.651,207.613,286.334,207.946Z" transform="translate(-283.457 -207.93)"/><path class="t" d="M286.334,207.946c7.415.922,8.884,9.982,9.939,12.259L289,226.311s-4.606-7.751-5.276-10.759C283.023,212.42,283.651,207.613,286.334,207.946Z" transform="translate(-283.457 -207.93)"/></g><path class="n" d="M262.829,389.05a1.944,1.944,0,0,1-1.316-.343.674.674,0,0,1-.174-.643.484.484,0,0,1,.26-.351c.72-.374,2.826.76,3.064.89a.119.119,0,0,1,.056.137.151.151,0,0,1-.116.111A9.816,9.816,0,0,1,262.829,389.05Zm-.876-1.152a.556.556,0,0,0-.251.048.187.187,0,0,0-.1.143.439.439,0,0,0,.109.422c.308.3,1.219.357,2.475.152A6.551,6.551,0,0,0,261.953,387.9Z" transform="translate(-232.079 -202.281)"/><path class="n" d="M264.818,388.648a.124.124,0,0,1-.054-.012c-.634-.3-1.826-1.5-1.659-2.133.04-.149.164-.335.533-.372a.882.882,0,0,1,.708.227c.641.584.618,2.083.618,2.147a.15.15,0,0,1-.067.118A.147.147,0,0,1,264.818,388.648Zm-1.1-2.259a.623.623,0,0,0-.079,0c-.244.024-.269.12-.277.152-.1.379.7,1.324,1.331,1.734a2.783,2.783,0,0,0-.536-1.719A.629.629,0,0,0,263.719,386.389Z" transform="translate(-232.32 -202.075)"/><path class="j" d="M310.188,384.529l-5.446,1.176-4.535-12.22,5.446-1.176Z" transform="translate(-237.377 -200.193)"/><path class="k" d="M303.97,386.928l6.118-1.322a.447.447,0,0,1,.519.276l1.8,4.677a.881.881,0,0,1-.651,1.154c-2.141.424-3.2.522-5.888,1.1-1.656.358-4.583,1.48-6.916,1.316-2.281-.161-2.324-2.482-1.341-2.622,4.41-.631,4.36-2.537,5.521-4.052A1.44,1.44,0,0,1,303.97,386.928Z" transform="translate(-236.941 -202.003)"/><path class="n" d="M304.013,388.267a2.106,2.106,0,0,1-1.4-.049.741.741,0,0,1-.377-.576.419.419,0,0,1,.141-.389c.583-.509,3.008.128,3.282.2a.133.133,0,0,1,.1.117.131.131,0,0,1-.078.13A9.424,9.424,0,0,1,304.013,388.267Zm-1.228-.914a.521.521,0,0,0-.23.1.16.16,0,0,0-.053.158.48.48,0,0,0,.243.38,3.572,3.572,0,0,0,2.468-.377A7.258,7.258,0,0,0,302.785,387.353Z" transform="translate(-237.653 -202.202)"/><path class="n" d="M305.826,387.467a.138.138,0,0,1-.056,0c-.716-.152-2.269-1.046-2.309-1.684-.01-.15.052-.354.4-.467a.966.966,0,0,1,.765.067,3.758,3.758,0,0,1,1.295,1.917.127.127,0,0,1-.028.127A.128.128,0,0,1,305.826,387.467Zm-1.8-1.921a.673.673,0,0,0-.077.021c-.23.074-.224.172-.222.2.025.382,1.107,1.115,1.861,1.372a3.1,3.1,0,0,0-1.078-1.525A.7.7,0,0,0,304.023,385.546Z" transform="translate(-237.82 -201.958)"/><g class="s" transform="translate(62.832 172.119)"><path d="M300.209,373.488l2.337,6.3,5.448-1.177-2.337-6.3Z" transform="translate(-300.209 -372.312)"/></g><path class="o" d="M285.26,247.846c5.426,8.625,3.913,40.347,4.769,57.283,5.1,15.02,14.093,55.122,14.093,55.122l-7.364,1.591s-16.246-39.8-19.616-56.8c-3.72-18.766-8.248-57.193-8.248-57.193Z" transform="translate(-233.111 -183.237)"/><path class="k" d="M308.809,377.649l-8.64,1.866-.905-2.689,9.642-2.436Z" transform="translate(-237.248 -200.476)"/><path class="k" d="M269.17,187.444l-1.085-.292S268.653,187.986,269.17,187.444Z" transform="translate(-233.001 -174.968)"/><path class="k" d="M284.456,246.273l.639,2.007c.084.155-.1.32-.359.328l-23.278.692c-.2.006-.376-.089-.392-.217l-.264-2.019c-.019-.139.155-.263.378-.27l22.9-.681A.408.408,0,0,1,284.456,246.273Z" transform="translate(-232.008 -183.001)"/><g transform="translate(30.572 63.005)"><path class="n" d="M284.618,248.908l.614-.018c.122,0,.213-.069.2-.146l-.365-2.622c-.011-.077-.12-.137-.242-.133l-.613.018c-.123,0-.213.07-.2.146l.366,2.622C284.387,248.852,284.5,248.912,284.618,248.908Z" transform="translate(-265.742 -245.989)"/><path class="n" d="M263.469,249.538l.613-.019c.123,0,.213-.069.2-.146l-.366-2.622c-.01-.077-.119-.137-.241-.133l-.613.018c-.123,0-.213.07-.2.146l.366,2.622C263.238,249.481,263.347,249.541,263.469,249.538Z" transform="translate(-262.861 -246.075)"/><path class="n" d="M274.044,249.223l.613-.018c.122,0,.213-.069.2-.146l-.366-2.622c-.01-.077-.119-.137-.242-.133l-.613.018c-.122,0-.213.069-.2.146l.365,2.622C273.813,249.166,273.921,249.226,274.044,249.223Z" transform="translate(-264.302 -246.032)"/></g><path class="j" d="M292.259,256.342l-4.08,4.426,5.659.251c-.024.066,1.842-3,.689-5.05Z" transform="translate(-235.738 -184.343)"/><path class="j" d="M289.619,266.176l1.639-.016a1.7,1.7,0,0,0,1.61-1.216l.933-3.167-5.659-.251-.229,2.818A1.7,1.7,0,0,0,289.619,266.176Z" transform="translate(-235.701 -185.1)"/></g><g transform="translate(92.262 63.436)"><g transform="translate(13.028)"><path class="n" d="M239.372,223.875a29.734,29.734,0,0,0-21.093-8.737H205.525V218a29.79,29.79,0,0,0-8.338,5.876,29.733,29.733,0,0,0-21.319-8.732v-.005H163.114v2.972A29.83,29.83,0,0,0,155,266.061l29.3,29.3h-.138v12.889h9.251a9.118,9.118,0,0,0,6.447-2.67l39.515-39.515A29.829,29.829,0,0,0,239.372,223.875Z" transform="translate(-146.265 -215.138)"/><path class="m" d="M239.372,223.875a29.734,29.734,0,0,0-21.093-8.737H205.525V218a29.79,29.79,0,0,0-8.338,5.876,29.733,29.733,0,0,0-21.319-8.732v-.005H163.114v2.972A29.83,29.83,0,0,0,155,266.061l29.3,29.3h-.138v12.889h9.251a9.118,9.118,0,0,0,6.447-2.67l39.515-39.515A29.829,29.829,0,0,0,239.372,223.875Z" transform="translate(-146.265 -215.138)"/></g><g transform="translate(0 0)"><path class="n" d="M224.29,223.875a29.83,29.83,0,0,0-42.186,0,29.83,29.83,0,0,0-42.186,42.186L182.1,308.245l42.186-42.185A29.83,29.83,0,0,0,224.29,223.875Z" transform="translate(-131.182 -215.138)"/><rect class="n" width="0.604" height="9.221" transform="translate(31.619 76.793) rotate(-45)"/><rect class="n" width="0.604" height="4.206" transform="translate(40.712 85.887) rotate(-45.002)"/><path class="m" d="M224.29,223.875a29.83,29.83,0,0,0-42.186,0,29.83,29.83,0,0,0-42.186,42.186L182.1,308.245l42.186-42.185A29.83,29.83,0,0,0,224.29,223.875Z" transform="translate(-131.182 -215.138)"/></g><path class="n" d="M145.244,262.679a23.674,23.674,0,1,1,33.48-33.48l4.353,4.353,4.353-4.353a23.674,23.674,0,1,1,33.48,33.48l-37.833,37.833Z" transform="translate(-132.155 -216.109)"/></g></g></g></svg>