<svg xmlns="http://www.w3.org/2000/svg" width="554.077" height="412.908" viewBox="0 0 554.077 412.908"><defs><style>.a{fill:#ebebeb;}.b{fill:#f0f0f0;}.c{fill:#f5f5f5;}.d{fill:#e0e0e0;}.e,.i,.j,.k{fill:#fff;}.f{fill:#e7e7e7;}.g{fill:#263238;}.h{fill:#007cff;}.i,.n,.q{opacity:0.2;}.j,.m{opacity:0.3;}.k{opacity:0.6;}.l{opacity:0.4;}.o{fill:#6f7a88;}.p{fill:#f2f2f2;}</style></defs><g transform="translate(-5.152 -146.311)"><g transform="translate(5.153 146.31)"><rect class="a" width="554.077" height="0.277" transform="translate(0 362.861)"/><rect class="a" width="85.957" height="0.277" transform="translate(412.602 380.698)"/><rect class="a" width="61.318" height="0.277" transform="translate(308.067 376.809)"/><rect class="a" width="65.399" height="0.277" transform="translate(395.347 370.407)"/><rect class="a" width="14.066" height="0.277" transform="translate(58.133 372.269)"/><rect class="a" width="79.356" height="0.277" transform="translate(82.065 372.269)"/><rect class="a" width="51.904" height="0.277" transform="translate(191.89 376.948)"/><path class="a" d="M254.575,459.749H40.592a6.333,6.333,0,0,1-6.326-6.326V152.636a6.334,6.334,0,0,1,6.326-6.326H254.575a6.333,6.333,0,0,1,6.325,6.326V453.423A6.332,6.332,0,0,1,254.575,459.749ZM40.592,146.588a6.055,6.055,0,0,0-6.048,6.048V453.423a6.055,6.055,0,0,0,6.048,6.048H254.575a6.053,6.053,0,0,0,6.047-6.048V152.636a6.053,6.053,0,0,0-6.047-6.048Z" transform="translate(8.073 -146.31)"/><path class="a" d="M419.393,459.749H205.41a6.332,6.332,0,0,1-6.325-6.326V152.636a6.333,6.333,0,0,1,6.325-6.326H419.393a6.334,6.334,0,0,1,6.326,6.326V453.423A6.333,6.333,0,0,1,419.393,459.749ZM205.41,146.588a6.053,6.053,0,0,0-6.047,6.048V453.423a6.054,6.054,0,0,0,6.047,6.048H419.393a6.055,6.055,0,0,0,6.048-6.048V152.636a6.055,6.055,0,0,0-6.048-6.048Z" transform="translate(82.945 -146.31)"/></g><g transform="translate(68.015 174.576)"><g transform="translate(202.525 164.997)"><rect class="b" width="13.94" height="150.006" transform="translate(3.746 9.455)"/><rect class="b" width="213.446" height="9.998" transform="translate(9.099 159.461)"/><rect class="c" width="210.213" height="150.006" transform="translate(227.899 159.461) rotate(180)"/><rect class="d" width="14.406" height="9.455"/><rect class="a" width="217.238" height="9.455" transform="translate(231.644 9.455) rotate(180)"/><path class="e" d="M386.165,346.912H217.5a10.932,10.932,0,0,1-10.922-10.919V303.868a10.934,10.934,0,0,1,10.922-10.92H386.165a10.932,10.932,0,0,1,10.919,10.92v32.125A10.931,10.931,0,0,1,386.165,346.912ZM217.5,295.164a8.714,8.714,0,0,0-8.705,8.7v32.125a8.714,8.714,0,0,0,8.705,8.7H386.165a8.713,8.713,0,0,0,8.7-8.7V303.868a8.714,8.714,0,0,0-8.7-8.7Z" transform="translate(-179.039 -272.96)"/><path class="e" d="M386.165,393.117H217.5a10.933,10.933,0,0,1-10.922-10.92V350.073a10.933,10.933,0,0,1,10.922-10.92H386.165a10.931,10.931,0,0,1,10.919,10.92V382.2A10.931,10.931,0,0,1,386.165,393.117ZM217.5,341.369a8.714,8.714,0,0,0-8.705,8.7V382.2a8.713,8.713,0,0,0,8.705,8.7H386.165a8.713,8.713,0,0,0,8.7-8.7V350.073a8.714,8.714,0,0,0-8.7-8.7Z" transform="translate(-179.039 -251.97)"/><path class="e" d="M309.861,317.613H253.867a3.34,3.34,0,0,1-3.336-3.336v-2.64a3.341,3.341,0,0,1,3.336-3.338h55.994a3.342,3.342,0,0,1,3.338,3.338v2.64A3.341,3.341,0,0,1,309.861,317.613Zm-55.994-7.1a1.122,1.122,0,0,0-1.12,1.121v2.64a1.121,1.121,0,0,0,1.12,1.12h55.994a1.122,1.122,0,0,0,1.121-1.12v-2.64a1.123,1.123,0,0,0-1.121-1.121Z" transform="translate(-159.072 -265.986)"/><path class="e" d="M309.861,363.818H253.867a3.34,3.34,0,0,1-3.336-3.338v-2.64a3.34,3.34,0,0,1,3.336-3.336h55.994a3.341,3.341,0,0,1,3.338,3.336v2.64A3.341,3.341,0,0,1,309.861,363.818Zm-55.994-7.1a1.12,1.12,0,0,0-1.12,1.12v2.64a1.122,1.122,0,0,0,1.12,1.121h55.994a1.123,1.123,0,0,0,1.121-1.121v-2.64a1.122,1.122,0,0,0-1.121-1.12Z" transform="translate(-159.072 -244.996)"/></g><g transform="translate(0 72.059)"><rect class="f" width="38.925" height="7.674" transform="translate(38.925 153.151) rotate(180)"/><rect class="f" width="7.186" height="262.535" transform="translate(105.161)"/><rect class="c" width="98.312" height="7.674" transform="translate(38.925 145.477)"/><rect class="f" width="38.925" height="7.675" transform="translate(38.925 223.791) rotate(180)"/><rect class="c" width="98.312" height="7.675" transform="translate(38.925 216.116)"/><rect class="f" width="38.925" height="7.675" transform="translate(38.925 11.871) rotate(180)"/><rect class="c" width="98.312" height="7.675" transform="translate(38.925 4.197)"/><rect class="f" width="38.925" height="7.674" transform="translate(38.925 82.511) rotate(180)"/><rect class="c" width="98.312" height="7.674" transform="translate(38.925 74.837)"/><rect class="f" width="7.186" height="262.535" transform="translate(6.85)"/><rect class="c" width="7.186" height="262.535" transform="translate(38.925)"/><rect class="c" width="7.186" height="262.535" transform="translate(130.05)"/></g><g transform="translate(166.885 3.223)"><rect class="d" width="147.262" height="125.876"/><rect class="c" width="149.996" height="125.876" transform="translate(3.554)"/><rect class="e" width="106.037" height="131.929" transform="translate(144.516 9.92) rotate(90)"/></g><g transform="translate(349.908)"><rect class="c" width="6.043" height="137.019" transform="translate(27.553 24.098)"/><path class="b" d="M337.753,280.868H295.474a5.327,5.327,0,0,1,5.327-5.327h31.626a5.326,5.326,0,0,1,5.326,5.327Z" transform="translate(-286.039 -115.87)"/><path class="d" d="M350.136,229.06h-61.15l7.034-63.314H343.1Z" transform="translate(-288.986 -165.747)"/></g></g><ellipse class="c" cx="214.859" cy="12.548" rx="214.859" ry="12.548" transform="translate(61.792 534.122)"/><path class="g" d="M172.249,211.233s2.583-9.174,17.454-5.788,3.034,14.743,3.034,14.743,10.18,6.73,7.034,20.354c-3.637,15.75,5.625,19.048,1.147,26.2s-35.217,12.674-54.931,1.611c-11.89-6.672,4.687-26.031,2.274-34.942C144.654,220.08,154.556,206.974,172.249,211.233Z" transform="translate(62.006 26.523)"/><g transform="translate(128.245 270.211)"><path class="h" d="M161.124,383.142,172.912,324.6c1.248-6.192,7.279-11.212,13.471-11.212H299.741c6.194,0,10.2,5.02,8.955,11.212l-11.79,58.539c-1.246,6.192-7.277,11.212-13.469,11.212H170.078C163.886,394.355,159.876,389.334,161.124,383.142Z" transform="translate(-57.495 -194.311)"/><path class="h" d="M94.922,304.347c-.346-2.581-.569-5.177-.663-7.716l1.107-.041c.093,2.5.313,5.064.654,7.61Z" transform="translate(-87.766 -201.943)"/><path class="h" d="M96.019,295.7l-1.092-.188A62.917,62.917,0,0,1,108.239,266l.858.7A61.807,61.807,0,0,0,96.019,295.7Z" transform="translate(-87.463 -215.84)"/><path class="h" d="M159.335,253.037h19.9L210.2,404.879H190.3c-41.931,0-82.853-33.991-91.4-75.92S117.406,253.037,159.335,253.037Z" transform="translate(-86.377 -221.728)"/><ellipse class="h" cx="68.574" cy="84.056" rx="68.574" ry="84.056" transform="translate(0 101.778) rotate(-47.911)"/><ellipse class="i" cx="68.574" cy="84.056" rx="68.574" ry="84.056" transform="translate(0 101.778) rotate(-47.911)"/><path class="h" d="M275.274,360.57l7.244-35.967c1.248-6.192,7.279-11.212,13.471-11.212h11.358c6.192,0,10.2,5.02,8.954,11.212l-11.788,58.539c-1.248,6.192-7.279,11.212-13.471,11.212H148.406V360.57Z" transform="translate(-63.169 -194.311)"/><path class="j" d="M275.274,360.57l7.244-35.967c1.248-6.192,7.279-11.212,13.471-11.212h11.358c6.192,0,10.2,5.02,8.954,11.212l-11.788,58.539c-1.248,6.192-7.279,11.212-13.471,11.212H148.406V360.57Z" transform="translate(-63.169 -194.311)"/><g transform="translate(73.327 200.043)"><path class="g" d="M140.216,445.076h7.2l17.472-76.012H151.864Z" transform="translate(-140.216 -369.064)"/><path class="k" d="M140.216,445.076h7.2l17.472-76.012H151.864Z" transform="translate(-140.216 -369.064)"/></g><g transform="translate(37.603 200.043)"><path class="g" d="M115.652,445.076h7.2l17.472-76.012H127.3Z" transform="translate(-115.652 -369.064)"/><path class="k" d="M115.652,445.076h7.2l17.472-76.012H127.3Z" transform="translate(-115.652 -369.064)"/></g><g transform="translate(161.647 200.043)"><path class="g" d="M225.616,445.076h-7.2l-17.472-76.012h13.019Z" transform="translate(-200.948 -369.064)"/><path class="k" d="M225.616,445.076h-7.2l-17.472-76.012h13.019Z" transform="translate(-200.948 -369.064)"/></g><g transform="translate(197.371 200.043)"><path class="g" d="M250.18,445.076h-7.2l-17.472-76.012h13.02Z" transform="translate(-225.512 -369.064)"/><path class="k" d="M250.18,445.076h-7.2l-17.472-76.012h13.02Z" transform="translate(-225.512 -369.064)"/></g></g><path class="e" d="M188.735,267.466c3.764,6.512,7.793,13.16,11.925,19.5,2.084,3.169,4.216,6.285,6.426,9.264a73.6,73.6,0,0,0,6.908,8.151c.089.086-.033-.028-.128-.1a4.311,4.311,0,0,0-.4-.279,5.318,5.318,0,0,0-2.973-.768,4.894,4.894,0,0,0-1,.129,5.052,5.052,0,0,0-.947.3,5.132,5.132,0,0,0-.784.412,4.914,4.914,0,0,0-1.52,1.488,2.714,2.714,0,0,0-.433.923c-.013.073.01.025.032-.055a14.439,14.439,0,0,0,.26-2.03c.121-1.675.135-3.544.115-5.411-.06-3.753-.2-7.612-.4-11.468l-1.275-23.318,6.512-.983c1.873,7.7,3.452,15.407,4.718,23.247.608,3.925,1.2,7.86,1.574,11.919.186,2.04.346,4.085.371,6.322a22.963,22.963,0,0,1-.233,3.813,11.92,11.92,0,0,1-.3,1.373,8.1,8.1,0,0,1-1.012,2.266,6.78,6.78,0,0,1-2.026,2.01,6.487,6.487,0,0,1-2.067.859,7,7,0,0,1-1.179.153,7.116,7.116,0,0,1-1.085-.052,6.886,6.886,0,0,1-2.747-.995,8.248,8.248,0,0,1-.7-.494l-.4-.339a74.632,74.632,0,0,1-8.839-9.223c-2.629-3.172-5.052-6.423-7.363-9.728a217.38,217.38,0,0,1-12.673-20.479Z" transform="translate(78.103 53.111)"/><g transform="translate(250.401 308.116)"><path class="h" d="M184.126,257.649c8.845,1.486,16.068,28.059,15.859,27.492L182.956,301s-10.506-15.822-9.019-23.742C175.486,269.014,177.152,256.477,184.126,257.649Z" transform="translate(-173.793 -257.572)"/><path class="l" d="M184.126,257.649c8.845,1.486,16.068,28.059,15.859,27.492L182.956,301s-10.506-15.822-9.019-23.742C175.486,269.014,177.152,256.477,184.126,257.649Z" transform="translate(-173.793 -257.572)"/></g><g transform="translate(201.688 303.939)"><path class="h" d="M209.1,276.145c-.836,11.375-3.367,30.534-9.6,62.782l-53.532-1.592c1.4-19.761-.715-34.494-5.558-69.078a11.242,11.242,0,0,1,10-12.738c3.436-.353,7.34-.647,11.272-.718,9.021-.167,16.41-.236,24.308.723,2.609.317,5.3.729,7.875,1.168A18.368,18.368,0,0,1,209.1,276.145Z" transform="translate(-140.296 -254.7)"/><path class="m" d="M209.1,276.145c-.836,11.375-3.367,30.534-9.6,62.782l-53.532-1.592c1.4-19.761-.715-34.494-5.558-69.078a11.242,11.242,0,0,1,10-12.738c3.436-.353,7.34-.647,11.272-.718,9.021-.167,16.41-.236,24.308.723,2.609.317,5.3.729,7.875,1.168A18.368,18.368,0,0,1,209.1,276.145Z" transform="translate(-140.296 -254.7)"/></g><path class="e" d="M158.219,236c1.3,7.868,2.4,22.243-3.223,27.3,0,0,13.736,7.191,22.742,19.743,9.633-7.632,1.566-19.02,1.566-19.02-8.66-2.341-8.243-8.806-6.543-14.838Z" transform="translate(68.069 40.742)"/><path class="n" d="M161.4,239.7l8.608,7.8a24.978,24.978,0,0,0-.878,4.293c-3.317-.58-7.786-4.374-8.036-7.873A11.729,11.729,0,0,1,161.4,239.7Z" transform="translate(70.817 42.423)"/><path class="e" d="M151.3,232.521c2.352,12.875,3.071,18.373,10.42,24.246,11.052,8.833,26.351,3.13,27.894-10.187,1.389-11.986-2.687-31.027-16-34.667A17.85,17.85,0,0,0,151.3,232.521Z" transform="translate(66.253 29.496)"/><path class="g" d="M169.582,210.821c17.658,7.164-.118,13.218-6.541,20.065-5.692,6.064-.361,15.715-9.912,8.913-4.556-3.246-4.369-20.386-1.819-23.59S164.312,208.684,169.582,210.821Z" transform="translate(65.581 29.046)"/><path class="g" d="M166.431,227.874c.127,1.057.79,1.845,1.479,1.763s1.147-1,1.021-2.062-.788-1.844-1.479-1.761S166.3,226.818,166.431,227.874Z" transform="translate(73.254 36.113)"/><path class="g" d="M174.6,226.685c.127,1.057.79,1.845,1.479,1.763s1.147-1.006,1.021-2.062-.788-1.844-1.479-1.763S174.477,225.629,174.6,226.685Z" transform="translate(76.967 35.573)"/><path class="g" d="M175.094,225.01l2.449-1.035S176.48,226.113,175.094,225.01Z" transform="translate(77.199 35.281)"/><path class="o" d="M171.548,227.166s2.337,4.331,4.572,6.288c-1.238,1.469-3.679,1.158-3.679,1.158Z" transform="translate(75.589 36.731)"/><path class="g" d="M170.5,236.622a10.451,10.451,0,0,0,1.571-.07.31.31,0,0,0,.272-.348.32.32,0,0,0-.346-.273,8.39,8.39,0,0,1-7.212-2.452.312.312,0,0,0-.48.4A8.748,8.748,0,0,0,170.5,236.622Z" transform="translate(72.265 39.547)"/><path class="e" d="M149.481,236.16a10.264,10.264,0,0,0,6.069,4.958c3.454,1.012,5.224-2.066,4.3-5.349-.83-2.954-3.627-7.04-7.111-6.611C149.308,229.579,147.93,233.215,149.481,236.16Z" transform="translate(65.276 37.621)"/><path class="g" d="M162.988,226.967a.625.625,0,0,0,.608-.412c.987-2.715,4.571-3.719,4.606-3.729a.625.625,0,1,0-.327-1.206c-.173.048-4.246,1.19-5.452,4.508a.624.624,0,0,0,.374.8A.634.634,0,0,0,162.988,226.967Z" transform="translate(71.426 34.201)"/><path class="g" d="M178.287,222.186a.625.625,0,0,0,.359-1.15,6.2,6.2,0,0,0-5.663-.662.625.625,0,0,0,.509,1.142h0a4.947,4.947,0,0,1,4.479.572A.629.629,0,0,0,178.287,222.186Z" transform="translate(76.073 33.465)"/><path class="p" d="M185.132,420.818l12.083,4.56,13.759-28.133-12.083-4.56Z" transform="translate(81.759 111.921)"/><path class="g" d="M202.344,411.917l-13.292-6.543a1.022,1.022,0,0,0-1.328.349l-5.96,8.836a2.245,2.245,0,0,0,.633,3.121c3.518,2.631,6.336,2.811,12.181,5.689,3.6,1.77,10.9,6.463,16.3,7.7,5.278,1.21,6.815-4.053,4.671-5.052-9.613-4.483-9.7-8.209-11.573-12.392A3.5,3.5,0,0,0,202.344,411.917Z" transform="translate(80.049 117.634)"/><g transform="translate(273.549 504.61)"><path class="e" d="M208.888,397.249l-7.09,14.5L189.71,407.19l7.09-14.5Z" transform="translate(-189.71 -392.687)"/></g><path class="e" d="M249.03,407.412l11.4-6.074-12.069-28.9-9.444,16.052Z" transform="translate(106.192 102.724)"/><path class="g" d="M258.062,388.758l-14.7,1.844a1.024,1.024,0,0,0-.918,1.024l-.019,11.815a2.161,2.161,0,0,0,2.429,2.059c5.112-.731,7.539-1.341,14-2.152,3.977-.5,14.159-1.427,19.65-2.116,5.372-.673,5.011-6.144,2.655-6.348-10.568-.915-16.934-3.135-20.8-5.6A3.5,3.5,0,0,0,258.062,388.758Z" transform="translate(107.786 110.126)"/><g class="q" transform="translate(345.103 475.173)"><path d="M248.361,372.446l6.223,14.895-11.4,6.076-4.269-4.916Z" transform="translate(-238.913 -372.446)"/></g><path class="g" d="M166.921,226.2l2.449-1.035S168.307,227.3,166.921,226.2Z" transform="translate(73.487 35.821)"/><path d="M185.283,323.465s74.934-.416,72.6,24.682c-3.864,41.5-33.233,98.662-33.233,98.662l-17.07-5.912s18.106-38.394,17.271-79.479H169.875c-20.969,0-30.032-23.027-9.623-49.9C172.728,311.523,185.283,323.465,185.283,323.465Z" transform="translate(65.245 75.051)"/><path class="e" d="M144.194,309.462l-1.511,4.751c-.2.366.23.759.849.777l55.1,1.639c.483.015.889-.209.928-.512l.625-4.777c.044-.332-.366-.625-.894-.641l-54.208-1.611A.974.974,0,0,0,144.194,309.462Z" transform="translate(62.454 73.945)"/><g transform="translate(211.815 382.777)"><path class="g" d="M149.193,315.82l-1.451-.042c-.289-.009-.5-.164-.48-.346l.867-6.205c.025-.182.282-.323.572-.314l1.451.042c.289.009.5.164.48.346l-.865,6.205C149.74,315.688,149.482,315.829,149.193,315.82Z" transform="translate(-147.26 -308.912)"/><path class="g" d="M178.924,316.705l-1.451-.044c-.289-.009-.5-.164-.48-.346l.867-6.205c.025-.182.282-.323.572-.314l1.451.042c.289.009.506.164.48.346l-.865,6.205C179.471,316.572,179.213,316.713,178.924,316.705Z" transform="translate(-133.754 -308.51)"/><path class="g" d="M164.059,316.262l-1.451-.042c-.289-.009-.506-.164-.48-.346l.865-6.205c.026-.182.284-.323.572-.314l1.453.042c.289.009.5.164.48.346l-.867,6.205C164.606,316.13,164.348,316.271,164.059,316.262Z" transform="translate(-140.507 -308.711)"/></g><path class="g" d="M180.019,314.4s92.852-19.769,96.879,3.848c7.007,41.092,21.863,93.691,21.863,93.691L283.828,422.1S260.6,373.16,247.163,334.328c-16.055,5.195-62.862,29.306-81.573,29.306-20.969,0-28.921-18.759-19.748-49.6C158.318,314.038,180.019,314.4,180.019,314.4Z" transform="translate(62.199 72.836)"/><g transform="translate(309.365 407.17)"><path d="M228.1,341.714a138.634,138.634,0,0,1-2.192,14.48c-4.127-10.178-8.161-20.668-11.569-30.509C222.947,329.3,228.777,334.434,228.1,341.714Z" transform="translate(-214.338 -325.685)"/></g><g transform="translate(146.207 389.291)"><path class="h" d="M102.373,324.6l11.79,58.539c1.246,6.192,7.277,11.212,13.469,11.212h40.5c6.192,0,10.2-5.02,8.954-11.212L165.3,324.6c-1.248-6.192-7.279-11.212-13.471-11.212h-40.5C105.135,313.391,101.127,318.411,102.373,324.6Z" transform="translate(-102.146 -313.391)"/><path class="h" d="M175.046,383.142,163.258,324.6c-1.248-6.192-7.279-11.212-13.471-11.212H138.429c-6.192,0-10.2,5.02-8.954,11.212l11.788,58.539c1.248,6.192,7.279,11.212,13.471,11.212h11.358C172.284,394.355,176.294,389.334,175.046,383.142Z" transform="translate(-89.834 -313.391)"/><path class="j" d="M175.046,383.142,163.258,324.6c-1.248-6.192-7.279-11.212-13.471-11.212H138.429c-6.192,0-10.2,5.02-8.954,11.212l11.788,58.539c1.248,6.192,7.279,11.212,13.471,11.212h11.358C172.284,394.355,176.294,389.334,175.046,383.142Z" transform="translate(-89.834 -313.391)"/></g><path class="e" d="M153.671,270.244c-.666,3.454-1.367,7.167-1.911,10.773-.573,3.63-1.063,7.263-1.466,10.875-.385,3.611-.656,7.206-.742,10.724a51.41,51.41,0,0,0,.636,9.981l.1.526a.917.917,0,0,0-.089-.2c-.064-.09-.077-.061-.023.029a4.442,4.442,0,0,0,.883.966,20.624,20.624,0,0,0,3.736,2.465,77.93,77.93,0,0,0,9.7,4.225c3.419,1.281,6.946,2.433,10.5,3.543,3.543,1.133,7.186,2.164,10.734,3.178l-1.073,6.5a146.735,146.735,0,0,1-23.091-3.608,75.163,75.163,0,0,1-11.6-3.753,32.067,32.067,0,0,1-6.043-3.327,15.93,15.93,0,0,1-3.182-3,11.409,11.409,0,0,1-1.485-2.4,10.707,10.707,0,0,1-.572-1.54l-.227-.861a56.8,56.8,0,0,1-1.616-12.63,112.544,112.544,0,0,1,.329-12.012c.3-3.945.759-7.847,1.347-11.719.622-3.893,1.249-7.657,2.178-11.623Z" transform="translate(59.801 54.985)"/><g transform="translate(194.691 306.854)"><path class="h" d="M147.454,256.984C142.076,258.572,135.485,277,135.485,277l20.7,15.047s7.713-15.361,5.515-22.314C159.406,262.489,153.591,255.171,147.454,256.984Z" transform="translate(-135.485 -256.705)"/><path class="m" d="M147.454,256.984C142.076,258.572,135.485,277,135.485,277l20.7,15.047s7.713-15.361,5.515-22.314C159.406,262.489,153.591,255.171,147.454,256.984Z" transform="translate(-135.485 -256.705)"/></g><path class="e" d="M188.841,309.47l-5.206-2.376a6.438,6.438,0,0,0-4.149-.41l-12.3,2.89-1.643,4.127c1.765,4.846,9.966,4.2,9.966,4.2l6.54,2.231a2.761,2.761,0,0,0,2.986-.813l4.758-5.532A2.763,2.763,0,0,0,188.841,309.47Z" transform="translate(72.858 72.775)"/><path class="e" d="M211.154,252.556l-6.768.59a3.883,3.883,0,0,0-3.377,2.741l-1.786,5.887s-5.312,6.282-2.408,10.543l4.31,1.075,9.659-8.417a5.938,5.938,0,0,0,1.924-3.327l1.192-6.032A2.571,2.571,0,0,0,211.154,252.556Z" transform="translate(86.672 48.26)"/><g transform="translate(267.9 295.705)"><g transform="translate(0 0)"><path class="h" d="M216.914,249.487a15.544,15.544,0,1,1-31.088,0Z" transform="translate(-185.825 -248.835)"/><ellipse class="g" cx="15.544" cy="0.652" rx="15.544" ry="0.652"/></g><path class="h" d="M207.81,262.007a5.4,5.4,0,1,1,5.4-5.4A5.4,5.4,0,0,1,207.81,262.007Zm0-9.684a4.288,4.288,0,1,0,4.287,4.289A4.292,4.292,0,0,0,207.81,252.323Z" transform="translate(-178.289 -248.05)"/></g><g transform="translate(275.432 263.094)"><path class="d" d="M194.646,226.614a20.271,20.271,0,0,0,2.565,5.363,36.151,36.151,0,0,0,3.87,4.293,16.656,16.656,0,0,1,3.793,5.39,9.744,9.744,0,0,1,.256,6.581,20.469,20.469,0,0,0-2.568-5.362,36.618,36.618,0,0,0-3.867-4.294,16.788,16.788,0,0,1-3.788-5.392A9.781,9.781,0,0,1,194.646,226.614Z" transform="translate(-189.554 -226.614)"/><path class="d" d="M191.453,231.084a20.273,20.273,0,0,0,2.565,5.363,36.044,36.044,0,0,0,3.87,4.293,16.671,16.671,0,0,1,3.793,5.39,9.744,9.744,0,0,1,.256,6.581,20.515,20.515,0,0,0-2.568-5.362,36.748,36.748,0,0,0-3.867-4.294,16.733,16.733,0,0,1-3.788-5.392A9.781,9.781,0,0,1,191.453,231.084Z" transform="translate(-191.005 -224.583)"/></g><path class="g" d="M164.231,213.176c8.55,6.553,11.662,2.785,15.956,9.61-1.619-9.773-7.571-12.395-13.25-12.5S162.057,211.509,164.231,213.176Z" transform="translate(71.521 29.058)"/></g></svg>