<svg xmlns="http://www.w3.org/2000/svg" width="302" height="225.056" viewBox="0 0 302 225.056"><defs><style>.a{fill:#ebebeb;}.b{fill:#f0f0f0;}.c{fill:#f5f5f5;}.d{fill:#e0e0e0;}.e,.i,.j,.k{fill:#fff;}.f{fill:#e7e7e7;}.g{fill:#263238;}.h{fill:#007cff;}.i,.n,.q{opacity:0.2;}.j,.m{opacity:0.3;}.k{opacity:0.6;}.l{opacity:0.4;}.o{fill:#6f7a88;}.p{fill:#ffc3bd;}</style></defs><g transform="translate(-5.153 -146.31)"><g transform="translate(5.153 146.31)"><rect class="a" width="302" height="0.151" transform="translate(0 197.778)"/><rect class="a" width="46.851" height="0.151" transform="translate(224.889 207.5)"/><rect class="a" width="33.421" height="0.151" transform="translate(167.912 205.38)"/><rect class="a" width="35.646" height="0.151" transform="translate(215.484 201.891)"/><rect class="a" width="7.667" height="0.151" transform="translate(31.685 202.906)"/><rect class="a" width="43.253" height="0.151" transform="translate(44.73 202.906)"/><rect class="a" width="28.29" height="0.151" transform="translate(104.59 205.456)"/><path class="a" d="M154.346,317.15H37.714a3.452,3.452,0,0,1-3.448-3.448V149.758a3.453,3.453,0,0,1,3.448-3.448H154.346a3.452,3.452,0,0,1,3.447,3.448V313.7A3.451,3.451,0,0,1,154.346,317.15ZM37.714,146.461a3.3,3.3,0,0,0-3.3,3.3V313.7a3.3,3.3,0,0,0,3.3,3.3H154.346a3.3,3.3,0,0,0,3.3-3.3V149.758a3.3,3.3,0,0,0-3.3-3.3Z" transform="translate(-11.189 -146.31)"/><path class="a" d="M319.164,317.15H202.532a3.451,3.451,0,0,1-3.447-3.448V149.758a3.452,3.452,0,0,1,3.447-3.448H319.164a3.453,3.453,0,0,1,3.448,3.448V313.7A3.452,3.452,0,0,1,319.164,317.15ZM202.532,146.461a3.3,3.3,0,0,0-3.3,3.3V313.7a3.3,3.3,0,0,0,3.3,3.3H319.164a3.3,3.3,0,0,0,3.3-3.3V149.758a3.3,3.3,0,0,0-3.3-3.3Z" transform="translate(-45.364 -146.31)"/></g><g transform="translate(39.416 161.717)"><g transform="translate(110.386 89.932)"><rect class="b" width="7.598" height="81.761" transform="translate(2.042 5.153)"/><rect class="b" width="116.339" height="5.449" transform="translate(4.959 86.914)"/><rect class="c" width="114.577" height="81.761" transform="translate(124.216 86.914) rotate(180)"/><rect class="d" width="7.852" height="5.153"/><rect class="a" width="118.406" height="5.153" transform="translate(126.258 5.153) rotate(180)"/><path class="e" d="M304.462,322.361H212.53a5.959,5.959,0,0,1-5.953-5.951V298.9a5.959,5.959,0,0,1,5.953-5.952h91.932a5.959,5.959,0,0,1,5.951,5.952v17.51A5.958,5.958,0,0,1,304.462,322.361Zm-91.932-28.2a4.75,4.75,0,0,0-4.745,4.744v17.51a4.75,4.75,0,0,0,4.745,4.743h91.932a4.749,4.749,0,0,0,4.743-4.743V298.9a4.749,4.749,0,0,0-4.743-4.744Z" transform="translate(-191.567 -282.053)"/><path class="e" d="M304.462,368.566H212.53a5.959,5.959,0,0,1-5.953-5.952V345.105a5.959,5.959,0,0,1,5.953-5.952h91.932a5.958,5.958,0,0,1,5.951,5.952v17.509A5.958,5.958,0,0,1,304.462,368.566Zm-91.932-28.2a4.75,4.75,0,0,0-4.745,4.744v17.509a4.749,4.749,0,0,0,4.745,4.744h91.932a4.749,4.749,0,0,0,4.743-4.744V345.105a4.749,4.749,0,0,0-4.743-4.744Z" transform="translate(-191.567 -291.634)"/><path class="e" d="M282.869,313.376h-30.52a1.82,1.82,0,0,1-1.818-1.818v-1.439a1.821,1.821,0,0,1,1.818-1.819h30.52a1.822,1.822,0,0,1,1.819,1.819v1.439A1.821,1.821,0,0,1,282.869,313.376Zm-30.52-3.868a.611.611,0,0,0-.61.611v1.439a.611.611,0,0,0,.61.61h30.52a.612.612,0,0,0,.611-.61v-1.439a.612.612,0,0,0-.611-.611Z" transform="translate(-200.681 -285.237)"/><path class="e" d="M282.869,359.581h-30.52a1.821,1.821,0,0,1-1.818-1.819v-1.439a1.82,1.82,0,0,1,1.818-1.818h30.52a1.821,1.821,0,0,1,1.819,1.818v1.439A1.821,1.821,0,0,1,282.869,359.581Zm-30.52-3.868a.611.611,0,0,0-.61.61v1.439a.611.611,0,0,0,.61.611h30.52a.612.612,0,0,0,.611-.611v-1.439a.611.611,0,0,0-.611-.61Z" transform="translate(-200.681 -294.817)"/></g><g transform="translate(0 39.276)"><rect class="f" width="21.216" height="4.183" transform="translate(21.216 83.475) rotate(180)"/><rect class="f" width="3.917" height="143.095" transform="translate(57.318)"/><rect class="c" width="53.585" height="4.183" transform="translate(21.216 79.292)"/><rect class="f" width="21.216" height="4.183" transform="translate(21.216 121.978) rotate(180)"/><rect class="c" width="53.585" height="4.183" transform="translate(21.216 117.795)"/><rect class="f" width="21.216" height="4.183" transform="translate(21.216 6.47) rotate(180)"/><rect class="c" width="53.585" height="4.183" transform="translate(21.216 2.287)"/><rect class="f" width="21.216" height="4.183" transform="translate(21.216 44.973) rotate(180)"/><rect class="c" width="53.585" height="4.183" transform="translate(21.216 40.79)"/><rect class="f" width="3.917" height="143.095" transform="translate(3.733)"/><rect class="c" width="3.917" height="143.095" transform="translate(21.216)"/><rect class="c" width="3.917" height="143.095" transform="translate(70.884)"/></g><g transform="translate(90.961 1.756)"><rect class="d" width="80.265" height="68.609"/><rect class="c" width="81.756" height="68.609" transform="translate(1.937)"/><rect class="e" width="57.796" height="71.908" transform="translate(78.769 5.407) rotate(90)"/></g><g transform="translate(190.718)"><rect class="c" width="3.294" height="74.682" transform="translate(15.018 13.135)"/><path class="b" d="M318.518,278.445H295.474a2.9,2.9,0,0,1,2.9-2.9h17.238a2.9,2.9,0,0,1,2.9,2.9Z" transform="translate(-290.331 -188.512)"/><path class="d" d="M322.316,200.256h-33.33l3.834-34.509h25.661Z" transform="translate(-288.986 -165.747)"/></g></g><ellipse class="c" cx="117.109" cy="6.839" rx="117.109" ry="6.839" transform="translate(36.024 357.688)"/><path class="g" d="M158.327,208.259s1.408-5,9.513-3.155,1.653,8.036,1.653,8.036a10.461,10.461,0,0,1,3.834,11.094c-1.982,8.584,3.066,10.382.625,14.279s-19.195,6.908-29.94.878c-6.481-3.637,2.555-14.188,1.24-19.045C143.286,213.081,148.684,205.937,158.327,208.259Z" transform="translate(-28.302 -12.106)"/><g transform="translate(72.244 213.843)"><path class="h" d="M161.021,351.409l6.425-31.907a7.854,7.854,0,0,1,7.342-6.111h61.786a4.855,4.855,0,0,1,4.881,6.111l-6.426,31.907a7.852,7.852,0,0,1-7.342,6.111H165.9A4.854,4.854,0,0,1,161.021,351.409Z" transform="translate(-104.537 -248.486)"/><path class="h" d="M94.62,300.818c-.189-1.407-.31-2.822-.361-4.206l.6-.022c.051,1.365.17,2.76.357,4.148Z" transform="translate(-90.72 -245.003)"/><path class="h" d="M95.522,282.191l-.6-.1A34.293,34.293,0,0,1,102.183,266l.468.383A33.688,33.688,0,0,0,95.522,282.191Z" transform="translate(-90.859 -238.66)"/><path class="h" d="M131.121,253.037h10.847L158.845,335.8H148c-22.855,0-45.159-18.527-49.82-41.38S108.267,253.037,131.121,253.037Z" transform="translate(-91.355 -235.972)"/><ellipse class="h" cx="37.376" cy="45.815" rx="37.376" ry="45.815" transform="translate(0 55.474) rotate(-47.911)"/><ellipse class="i" cx="37.376" cy="45.815" rx="37.376" ry="45.815" transform="translate(0 55.474) rotate(-47.911)"/><path class="h" d="M217.555,339.106l3.948-19.6a7.854,7.854,0,0,1,7.342-6.111h6.191a4.854,4.854,0,0,1,4.88,6.111l-6.425,31.907a7.854,7.854,0,0,1-7.342,6.111H148.406V339.106Z" transform="translate(-101.947 -248.486)"/><path class="j" d="M217.555,339.106l3.948-19.6a7.854,7.854,0,0,1,7.342-6.111h6.191a4.854,4.854,0,0,1,4.88,6.111l-6.425,31.907a7.854,7.854,0,0,1-7.342,6.111H148.406V339.106Z" transform="translate(-101.947 -248.486)"/><g transform="translate(39.967 109.034)"><path class="g" d="M140.216,410.494h3.922l9.523-41.43h-7.1Z" transform="translate(-140.216 -369.064)"/><path class="k" d="M140.216,410.494h3.922l9.523-41.43h-7.1Z" transform="translate(-140.216 -369.064)"/></g><g transform="translate(20.496 109.034)"><path class="g" d="M115.652,410.494h3.922l9.523-41.43H122Z" transform="translate(-115.652 -369.064)"/><path class="k" d="M115.652,410.494h3.922l9.523-41.43H122Z" transform="translate(-115.652 -369.064)"/></g><g transform="translate(88.106 109.034)"><path class="g" d="M214.393,410.494h-3.922l-9.523-41.43h7.1Z" transform="translate(-200.948 -369.064)"/><path class="k" d="M214.393,410.494h-3.922l-9.523-41.43h7.1Z" transform="translate(-200.948 -369.064)"/></g><g transform="translate(107.577 109.034)"><path class="g" d="M238.958,410.494h-3.922l-9.523-41.43h7.1Z" transform="translate(-225.512 -369.064)"/><path class="k" d="M238.958,410.494h-3.922l-9.523-41.43h7.1Z" transform="translate(-225.512 -369.064)"/></g></g><path class="e" d="M183.434,265.536c2.051,3.549,4.248,7.173,6.5,10.627,1.136,1.727,2.3,3.426,3.5,5.049a40.115,40.115,0,0,0,3.765,4.443c.048.047-.018-.015-.07-.053a2.348,2.348,0,0,0-.22-.152,2.9,2.9,0,0,0-1.62-.419,2.663,2.663,0,0,0-.543.071,2.751,2.751,0,0,0-.516.166,2.8,2.8,0,0,0-.427.224,2.678,2.678,0,0,0-.828.811,1.48,1.48,0,0,0-.236.5c-.007.04.006.014.017-.03a7.871,7.871,0,0,0,.142-1.107c.066-.913.074-1.932.063-2.949-.033-2.046-.107-4.149-.22-6.251l-.7-12.709,3.549-.536c1.021,4.2,1.882,8.4,2.571,12.671.331,2.139.653,4.284.858,6.5.1,1.112.189,2.227.2,3.446a12.516,12.516,0,0,1-.127,2.078,6.5,6.5,0,0,1-.163.748,4.413,4.413,0,0,1-.552,1.235,3.7,3.7,0,0,1-1.1,1.1,3.534,3.534,0,0,1-1.126.468,3.818,3.818,0,0,1-.643.083,3.879,3.879,0,0,1-.591-.029,3.753,3.753,0,0,1-1.5-.542,4.5,4.5,0,0,1-.382-.269l-.22-.185A40.679,40.679,0,0,1,188,285.494c-1.433-1.729-2.754-3.5-4.013-5.3a118.485,118.485,0,0,1-6.907-11.162Z" transform="translate(-35.649 -24.242)"/><g transform="translate(138.826 234.502)"><path class="h" d="M179.425,257.614c4.821.81,8.758,15.293,8.644,14.984l-9.281,8.646s-5.726-8.624-4.916-12.941C174.716,263.809,175.624,256.975,179.425,257.614Z" transform="translate(-173.793 -257.572)"/><path class="l" d="M179.425,257.614c4.821.81,8.758,15.293,8.644,14.984l-9.281,8.646s-5.726-8.624-4.916-12.941C174.716,263.809,175.624,256.975,179.425,257.614Z" transform="translate(-173.793 -257.572)"/></g><g transform="translate(112.275 232.226)"><path class="h" d="M177.8,266.388c-.456,6.2-1.835,16.643-5.233,34.22l-29.178-.868c.766-10.771-.39-18.8-3.03-37.651a6.128,6.128,0,0,1,5.448-6.943c1.873-.193,4-.353,6.144-.392a92.763,92.763,0,0,1,13.249.394c1.422.173,2.89.4,4.292.637A10.012,10.012,0,0,1,177.8,266.388Z" transform="translate(-140.296 -254.7)"/><path class="m" d="M177.8,266.388c-.456,6.2-1.835,16.643-5.233,34.22l-29.178-.868c.766-10.771-.39-18.8-3.03-37.651a6.128,6.128,0,0,1,5.448-6.943c1.873-.193,4-.353,6.144-.392a92.763,92.763,0,0,1,13.249.394c1.422.173,2.89.4,4.292.637A10.012,10.012,0,0,1,177.8,266.388Z" transform="translate(-140.296 -254.7)"/></g><path class="e" d="M156.753,236c.709,4.288,1.31,12.124-1.757,14.88a40.129,40.129,0,0,1,12.4,10.761c5.251-4.16.854-10.367.854-10.367-4.72-1.276-4.493-4.8-3.566-8.087Z" transform="translate(-31.07 -18.596)"/><path class="n" d="M161.238,239.7l4.692,4.25a13.615,13.615,0,0,0-.479,2.34c-1.808-.316-4.244-2.384-4.38-4.291A6.393,6.393,0,0,1,161.238,239.7Z" transform="translate(-32.324 -19.363)"/><path class="e" d="M151.163,222.84c1.282,7.017,1.674,10.014,5.679,13.215,6.024,4.815,14.363,1.706,15.2-5.553.757-6.533-1.465-16.911-8.722-18.9A9.729,9.729,0,0,0,151.163,222.84Z" transform="translate(-30.24 -13.463)"/><path class="g" d="M160.454,210.562c9.624,3.9-.064,7.2-3.565,10.936-3.1,3.305-.2,8.565-5.4,4.858-2.483-1.769-2.381-11.111-.992-12.858S157.582,209.4,160.454,210.562Z" transform="translate(-29.934 -13.258)"/><path class="g" d="M166.421,226.933c.069.576.43,1.006.806.961s.625-.548.556-1.124-.43-1.005-.806-.96S166.352,226.358,166.421,226.933Z" transform="translate(-33.436 -16.483)"/><path class="g" d="M174.594,225.744c.069.576.43,1.006.806.961s.625-.548.556-1.124-.43-1.005-.806-.961S174.525,225.169,174.594,225.744Z" transform="translate(-35.131 -16.237)"/><path class="g" d="M175.094,224.539l1.335-.564S175.849,225.14,175.094,224.539Z" transform="translate(-35.237 -16.104)"/><path class="o" d="M171.548,227.166a15.494,15.494,0,0,0,2.492,3.427,2.492,2.492,0,0,1-2.005.631Z" transform="translate(-34.502 -16.765)"/><path class="g" d="M167.648,235.141a5.7,5.7,0,0,0,.856-.038.169.169,0,0,0,.148-.189.174.174,0,0,0-.189-.149,4.573,4.573,0,0,1-3.931-1.336.17.17,0,0,0-.262.218A4.768,4.768,0,0,0,167.648,235.141Z" transform="translate(-32.985 -18.051)"/><path class="e" d="M149.193,232.96a5.594,5.594,0,0,0,3.308,2.7c1.883.552,2.847-1.126,2.345-2.915-.453-1.61-1.977-3.837-3.876-3.6A2.512,2.512,0,0,0,149.193,232.96Z" transform="translate(-29.795 -17.172)"/><path class="g" d="M162.714,224.525a.341.341,0,0,0,.331-.224,4.024,4.024,0,0,1,2.51-2.032.34.34,0,0,0-.178-.657,4.655,4.655,0,0,0-2.972,2.457.34.34,0,0,0,.2.436A.345.345,0,0,0,162.714,224.525Z" transform="translate(-32.602 -15.611)"/><path class="g" d="M175.706,221.181a.341.341,0,0,0,.2-.627,3.38,3.38,0,0,0-3.087-.361.341.341,0,0,0,.277.622h0a2.7,2.7,0,0,1,2.441.311A.343.343,0,0,0,175.706,221.181Z" transform="translate(-34.723 -15.275)"/><path class="p" d="M185.132,408.018l6.586,2.485,7.5-15.334-6.586-2.485Z" transform="translate(-37.318 -51.085)"/><path class="g" d="M192.8,408.889l-7.245-3.566a.557.557,0,0,0-.724.19l-3.248,4.816a1.223,1.223,0,0,0,.345,1.7c1.917,1.434,3.454,1.532,6.639,3.1,1.96.965,5.942,3.523,8.883,4.2,2.877.659,3.714-2.209,2.546-2.754-5.239-2.444-5.285-4.475-6.308-6.754A1.905,1.905,0,0,0,192.8,408.889Z" transform="translate(-36.538 -53.693)"/><g transform="translate(151.442 341.602)"><path class="e" d="M200.163,395.174l-3.864,7.9-6.589-2.486,3.864-7.9Z" transform="translate(-189.71 -392.687)"/></g><path class="e" d="M244.429,391.5l6.212-3.31-6.578-15.751-5.147,8.749Z" transform="translate(-48.47 -46.887)"/><path class="g" d="M250.949,388.746l-8.012,1.005a.558.558,0,0,0-.5.558l-.01,6.44a1.178,1.178,0,0,0,1.324,1.122c2.786-.4,4.109-.731,7.632-1.173,2.168-.272,7.717-.778,10.71-1.153,2.928-.367,2.732-3.349,1.447-3.46-5.76-.5-9.23-1.709-11.337-3.051A1.908,1.908,0,0,0,250.949,388.746Z" transform="translate(-49.198 -50.266)"/><g class="q" transform="translate(190.443 325.557)"><path d="M244.063,372.446l3.392,8.118-6.215,3.312-2.327-2.68Z" transform="translate(-238.913 -372.446)"/></g><path class="g" d="M166.921,225.728l1.335-.564S167.676,226.329,166.921,225.728Z" transform="translate(-33.542 -16.35)"/><path d="M168.675,318.032s40.843-.227,39.569,13.453c-2.106,22.622-18.114,53.776-18.114,53.776l-9.3-3.222s9.869-20.927,9.414-43.32H160.277c-11.429,0-16.369-12.551-5.245-27.2C161.832,311.523,168.675,318.032,168.675,318.032Z" transform="translate(-29.781 -34.257)"/><path class="e" d="M143.485,309.291l-.824,2.59c-.108.2.125.414.463.423l30.03.893c.263.008.484-.114.506-.279l.341-2.6c.024-.181-.2-.341-.488-.35l-29.546-.878A.531.531,0,0,0,143.485,309.291Z" transform="translate(-28.507 -33.751)"/><g transform="translate(117.794 275.197)"><path class="g" d="M148.313,312.677l-.791-.023c-.158,0-.275-.09-.262-.189l.472-3.382c.013-.1.154-.176.312-.171l.791.023c.158,0,.275.09.262.189l-.472,3.382C148.611,312.6,148.471,312.682,148.313,312.677Z" transform="translate(-147.26 -308.912)"/><path class="g" d="M178.044,313.562l-.791-.024c-.158,0-.275-.09-.262-.189l.472-3.382c.013-.1.154-.176.312-.171l.791.023c.158,0,.276.09.262.189l-.472,3.382C178.342,313.489,178.2,313.566,178.044,313.562Z" transform="translate(-153.424 -309.095)"/><path class="g" d="M163.179,313.119l-.791-.023c-.158,0-.276-.09-.262-.189l.472-3.382c.014-.1.155-.176.312-.171l.792.023c.158,0,.275.09.262.189l-.472,3.382C163.477,313.047,163.337,313.124,163.179,313.119Z" transform="translate(-150.342 -309.003)"/></g><path class="g" d="M162.756,310.87s50.609-10.775,52.8,2.1c3.819,22.4,11.917,51.067,11.917,51.067l-8.14,5.541s-12.658-26.675-19.984-47.841c-8.751,2.831-34.263,15.974-44.461,15.974-11.429,0-15.763-10.224-10.763-27.033C150.928,310.675,162.756,310.87,162.756,310.87Z" transform="translate(-28.39 -33.246)"/><g transform="translate(170.964 288.492)"><path d="M221.838,334.422a75.543,75.543,0,0,1-1.195,7.892c-2.25-5.548-4.448-11.265-6.306-16.629C219.03,327.658,222.208,330.454,221.838,334.422Z" transform="translate(-214.338 -325.685)"/></g><g transform="translate(82.035 278.747)"><path class="h" d="M102.27,319.5l6.426,31.907a7.852,7.852,0,0,0,7.342,6.111h22.075a4.854,4.854,0,0,0,4.88-6.111L136.568,319.5a7.854,7.854,0,0,0-7.342-6.111H107.151A4.855,4.855,0,0,0,102.27,319.5Z" transform="translate(-102.146 -313.391)"/><path class="h" d="M154.21,351.409,147.785,319.5a7.854,7.854,0,0,0-7.342-6.111h-6.191a4.854,4.854,0,0,0-4.88,6.111l6.425,31.907a7.854,7.854,0,0,0,7.342,6.111h6.191A4.854,4.854,0,0,0,154.21,351.409Z" transform="translate(-107.765 -313.391)"/><path class="j" d="M154.21,351.409,147.785,319.5a7.854,7.854,0,0,0-7.342-6.111h-6.191a4.854,4.854,0,0,0-4.88,6.111l6.425,31.907a7.854,7.854,0,0,0,7.342,6.111h6.191A4.854,4.854,0,0,0,154.21,351.409Z" transform="translate(-107.765 -313.391)"/></g><path class="e" d="M145.993,268.927c-.363,1.883-.745,3.906-1.042,5.872-.312,1.978-.579,3.958-.8,5.927s-.357,3.928-.4,5.845a28.02,28.02,0,0,0,.346,5.44l.052.287a.5.5,0,0,0-.048-.111c-.035-.049-.042-.033-.013.016a2.423,2.423,0,0,0,.481.526,11.241,11.241,0,0,0,2.036,1.344,42.479,42.479,0,0,0,5.288,2.3c1.864.7,3.786,1.326,5.724,1.931s3.917,1.179,5.851,1.732l-.585,3.542a79.976,79.976,0,0,1-12.586-1.967,40.968,40.968,0,0,1-6.324-2.046,17.477,17.477,0,0,1-3.293-1.814,8.682,8.682,0,0,1-1.734-1.634,6.219,6.219,0,0,1-.809-1.309,5.837,5.837,0,0,1-.312-.839l-.124-.469a30.959,30.959,0,0,1-.881-6.884,61.339,61.339,0,0,1,.179-6.547c.162-2.15.414-4.277.734-6.387.339-2.122.681-4.173,1.187-6.335Z" transform="translate(-27.296 -25.097)"/><g transform="translate(108.461 233.814)"><path class="h" d="M142.009,256.857c-2.931.866-6.523,10.908-6.523,10.908l11.281,8.2s4.2-8.373,3.006-12.162C148.523,259.857,145.354,255.869,142.009,256.857Z" transform="translate(-135.485 -256.705)"/><path class="m" d="M142.009,256.857c-2.931.866-6.523,10.908-6.523,10.908l11.281,8.2s4.2-8.373,3.006-12.162C148.523,259.857,145.354,255.869,142.009,256.857Z" transform="translate(-135.485 -256.705)"/></g><path class="e" d="M178.239,308.124l-2.838-1.3a3.509,3.509,0,0,0-2.261-.224l-6.707,1.575-.9,2.25c.962,2.641,5.432,2.288,5.432,2.288l3.565,1.216a1.505,1.505,0,0,0,1.627-.443l2.594-3.015A1.506,1.506,0,0,0,178.239,308.124Z" transform="translate(-33.256 -33.218)"/><path class="e" d="M204.236,252.552l-3.689.322a2.116,2.116,0,0,0-1.841,1.494l-.973,3.209s-2.9,3.424-1.313,5.747l2.349.586,5.265-4.588a3.236,3.236,0,0,0,1.049-1.814l.65-3.288A1.4,1.4,0,0,0,204.236,252.552Z" transform="translate(-39.561 -22.028)"/><g transform="translate(148.363 227.738)"><g transform="translate(0 0)"><path class="h" d="M202.771,249.487a8.472,8.472,0,1,1-16.945,0Z" transform="translate(-185.826 -249.132)"/><ellipse class="g" cx="8.472" cy="0.355" rx="8.472" ry="0.355"/></g><path class="h" d="M205.356,257.1a2.941,2.941,0,1,1,2.941-2.941A2.944,2.944,0,0,1,205.356,257.1Zm0-5.278a2.337,2.337,0,1,0,2.337,2.338A2.34,2.34,0,0,0,205.356,251.819Z" transform="translate(-189.265 -249.49)"/></g><g transform="translate(152.469 209.963)"><path class="d" d="M194.442,226.614a11.048,11.048,0,0,0,1.4,2.923,19.7,19.7,0,0,0,2.109,2.34,9.078,9.078,0,0,1,2.067,2.938,5.311,5.311,0,0,1,.139,3.587,11.157,11.157,0,0,0-1.4-2.923,19.96,19.96,0,0,0-2.108-2.341,9.15,9.15,0,0,1-2.065-2.939A5.331,5.331,0,0,1,194.442,226.614Z" transform="translate(-191.667 -226.614)"/><path class="d" d="M191.249,231.084a11.049,11.049,0,0,0,1.4,2.923,19.647,19.647,0,0,0,2.109,2.34,9.087,9.087,0,0,1,2.067,2.938,5.311,5.311,0,0,1,.14,3.587,11.181,11.181,0,0,0-1.4-2.923,20.031,20.031,0,0,0-2.108-2.341,9.12,9.12,0,0,1-2.065-2.939A5.331,5.331,0,0,1,191.249,231.084Z" transform="translate(-191.005 -227.541)"/></g><path class="g" d="M163.487,211.857c4.66,3.572,6.356,1.518,8.7,5.238-.882-5.327-4.127-6.756-7.222-6.815S162.3,210.948,163.487,211.857Z" transform="translate(-32.645 -13.263)"/></g></svg>