<svg xmlns="http://www.w3.org/2000/svg" width="313" height="233.253" viewBox="0 0 313 233.253"><defs><style>.a{fill:#ebebeb;}.b{fill:#fafafa;}.c,.k,.l,.m,.q{fill:#fff;}.d{fill:#e7e7e7;}.e{fill:#c4c9ce;}.f{fill:#f0f0f0;}.g{fill:#e0e0e0;}.h{fill:#f5f5f5;}.i{fill:#007cff;}.j,.l{opacity:0.2;}.k{opacity:0.7;}.m{opacity:0.8;}.n{fill:#f2f2f2;}.o{fill:#263238;}.p{opacity:0.3;}.q{opacity:0.5;}</style></defs><g transform="translate(-19.002 -143.427)"><g transform="translate(19.002 143.427)"><rect class="a" width="313" height="0.156" transform="translate(0 204.981)"/><rect class="a" width="20.734" height="0.156" transform="translate(260.904 215.058)"/><rect class="a" width="5.442" height="0.156" transform="translate(201.902 216.756)"/><rect class="a" width="12.014" height="0.156" transform="translate(248.263 209.244)"/><rect class="a" width="27.039" height="0.156" transform="translate(32.839 210.296)"/><rect class="a" width="3.964" height="0.156" transform="translate(65.452 210.296)"/><rect class="a" width="58.641" height="0.156" transform="translate(82.301 212.939)"/><path class="a" d="M170.353,320.49H49.473a3.578,3.578,0,0,1-3.574-3.574V147a3.578,3.578,0,0,1,3.574-3.574h120.88A3.577,3.577,0,0,1,173.925,147V316.916A3.577,3.577,0,0,1,170.353,320.49ZM49.473,143.583A3.421,3.421,0,0,0,46.055,147V316.916a3.421,3.421,0,0,0,3.417,3.417h120.88a3.42,3.42,0,0,0,3.415-3.417V147a3.42,3.42,0,0,0-3.415-3.417Z" transform="translate(-21.982 -143.427)"/><path class="a" d="M322.625,320.49H201.745a3.578,3.578,0,0,1-3.573-3.574V147a3.578,3.578,0,0,1,3.573-3.574h120.88A3.577,3.577,0,0,1,326.2,147V316.916A3.577,3.577,0,0,1,322.625,320.49ZM201.745,143.583A3.421,3.421,0,0,0,198.328,147V316.916a3.421,3.421,0,0,0,3.416,3.417h120.88a3.42,3.42,0,0,0,3.416-3.417V147a3.42,3.42,0,0,0-3.416-3.417Z" transform="translate(-38.852 -143.427)"/></g><g transform="translate(46.609 155.55)"><g transform="translate(12.077)"><rect class="b" width="233.631" height="125.235" transform="translate(233.631 125.235) rotate(180)"/><path class="c" d="M248.983,198.353c2.058-3.414,7.429-6.173,12.039-6.173a8.412,8.412,0,0,1,2.872.453,19.7,19.7,0,0,1,11.611-4.225c4.842,0,7.4,2.52,6.411,5.889,4.426.217,6.368,3.026,4.336,6.46-2.115,3.576-7.736,6.476-12.556,6.476H245.932c-3.415,0-4.969-2.055-3.47-4.591A10.783,10.783,0,0,1,248.983,198.353Z" transform="translate(-83.38 -160.533)"/><path class="c" d="M186.339,180.612c1.256-2.084,4.535-3.768,7.349-3.768a5.131,5.131,0,0,1,1.754.277,12.023,12.023,0,0,1,7.088-2.579c2.956,0,4.515,1.538,3.913,3.594,2.7.133,3.888,1.848,2.647,3.945-1.291,2.183-4.723,3.953-7.665,3.953H184.477c-2.085,0-3.034-1.255-2.118-2.8A6.579,6.579,0,0,1,186.339,180.612Z" transform="translate(-76.746 -158.997)"/><path class="c" d="M94.828,194.479c1.256-2.083,4.536-3.768,7.349-3.768a5.128,5.128,0,0,1,1.754.277,12.025,12.025,0,0,1,7.088-2.579c2.956,0,4.516,1.538,3.913,3.6,2.7.133,3.888,1.847,2.647,3.944-1.291,2.183-4.723,3.953-7.665,3.953H92.966c-2.085,0-3.034-1.255-2.118-2.8A6.583,6.583,0,0,1,94.828,194.479Z" transform="translate(-66.607 -160.533)"/><g transform="translate(5.804 24.723)"><rect class="d" width="19.317" height="89.038" transform="translate(37.833)"/><path class="d" d="M149.424,276.129H131.992V204.965l17.432,17.354Z" transform="translate(-77.009 -187.091)"/><rect class="d" width="19.317" height="59.628" transform="translate(12.556 29.41)"/><rect class="d" width="9.847" height="67.061" transform="translate(77.975 21.977)"/><rect class="d" width="9.847" height="49.932" transform="translate(92.015 39.106)"/><rect class="d" width="9.847" height="33.531" transform="translate(99.459 55.507)"/><rect class="d" width="9.847" height="33.531" transform="translate(140.329 55.507)"/><rect class="d" width="9.847" height="22.946" transform="translate(130.906 66.092)"/><rect class="d" width="9.847" height="33.531" transform="translate(0 55.507)"/><rect class="d" width="89.141" height="39.106" transform="translate(5.654 49.932)"/><rect class="d" width="89.141" height="15.675" transform="translate(61.035 73.363)"/></g><g transform="translate(0 36.197)"><rect class="e" width="29.926" height="89.038" transform="translate(174.039 89.038) rotate(180)"/><path class="e" d="M199.105,289.032h27.006V217.868l-27.006,17.354Z" transform="translate(-78.64 -199.994)"/><rect class="f" width="29.926" height="59.628" transform="translate(213.198 89.038) rotate(180)"/><path class="e" d="M0,0H15.255V67.061H0Z" transform="translate(111.852 89.038) rotate(180)"/><rect class="f" width="15.255" height="44.749" transform="translate(90.102 89.038) rotate(180)"/><rect class="f" width="15.255" height="33.531" transform="translate(78.569 89.038) rotate(180)"/><rect class="f" width="15.255" height="33.531" transform="translate(15.255 89.038) rotate(180)"/><rect class="f" width="15.255" height="22.946" transform="translate(29.853 89.038) rotate(180)"/><rect class="f" width="15.255" height="33.531" transform="translate(232.65 89.038) rotate(180)"/><rect class="e" width="138.096" height="39.106" transform="translate(223.891 89.038) rotate(180)"/><rect class="f" width="138.096" height="15.675" transform="translate(138.096 89.038) rotate(180)"/></g><rect class="a" width="0.981" height="125.235" transform="translate(233.631 125.235) rotate(180)"/></g><g transform="translate(0 109.561)"><g transform="translate(6.924 22.096)"><path class="g" d="M81.8,349.99a1.444,1.444,0,0,1-1.129-2.342c.819-1.031-1.17-3.423-3.276-5.956C72.911,336.3,66.134,328.146,75.39,318.8c5.841-5.9,5.712-8.342,5.385-9.119-.574-1.368-3.243-1.67-4.171-1.67H76.57a1.445,1.445,0,0,1-.02-2.889c.542,0,5.449.039,6.884,3.428,1.244,2.936-.716,6.953-5.991,12.281-7.411,7.485-2.318,13.611,2.175,19.015,2.877,3.461,5.594,6.73,3.316,9.6A1.442,1.442,0,0,1,81.8,349.99Z" transform="translate(-59.269 -305.121)"/><path class="h" d="M59.67,340.945H90.484L83.66,370.291H66.494Z" transform="translate(-58.039 -309.09)"/><path class="a" d="M59.147,342.092H90.6a1.315,1.315,0,0,0,1.311-1.311h0a1.314,1.314,0,0,0-1.311-1.311H59.147a1.314,1.314,0,0,0-1.311,1.311h0A1.315,1.315,0,0,0,59.147,342.092Z" transform="translate(-57.836 -308.927)"/></g><path class="g" d="M84.839,303.31l-29.115,9.618S45.178,305.8,52.838,302.6c-3.641-6.216-4.105-18.335,7.618-21.851s10.9,13.611,10.9,13.611,14.458-15.293,13.785,2.873C87.9,296.473,99.593,299.241,84.839,303.31Z" transform="translate(-50.049 -280.272)"/><path class="d" d="M60.723,317.975H96.029s9.311-6.574-.443-6.245c1.937-8.385-3.522-17.568-15.839-17.92s-7.988,13.317-7.988,13.317-20.695-4.932-14.433,5.261C47.068,312.881,52.374,315.509,60.723,317.975Z" transform="translate(-50.23 -281.771)"/><path class="g" d="M89.558,320.945l-27.734,1a4.289,4.289,0,0,1-3.65-1.964c-1.047-1.485-1.32-3.334,3.111-3.876-1.42-4.386,1.718-12.026,13.183-12.614S80.185,313.5,80.185,313.5s17.348-7.574,11.427,3.689C94.283,317.092,103.882,320.429,89.558,320.945Z" transform="translate(-50.877 -282.842)"/></g><g transform="translate(72.077 139.428)"><rect class="f" width="145.483" height="2.789"/><rect class="d" width="15.736" height="2.789" transform="translate(161.219 2.789) rotate(180)"/><rect class="g" width="156.603" height="1.394" transform="translate(158.789 4.183) rotate(180)"/><rect class="g" width="49.945" height="1.543" transform="translate(2.186 53.431) rotate(-90)"/><rect class="g" width="49.945" height="1.543" transform="translate(143.94 53.431) rotate(-90)"/><rect class="g" width="49.945" height="1.543" transform="translate(157.246 53.431) rotate(-90)"/><rect class="g" width="49.945" height="1.543" transform="translate(15.492 53.431) rotate(-90)"/></g></g><ellipse class="h" cx="121.375" cy="7.088" rx="121.375" ry="7.088" transform="translate(54.127 362.504)"/><g transform="translate(167.36 247.975)"><g transform="translate(0 20.418)"><rect class="i" width="94.708" height="2.676" transform="translate(3.958)"/><rect class="j" width="21.976" height="2.676" transform="translate(76.69)"/><g transform="translate(74.459 2.676)"><path class="i" d="M274.529,387.062l-4.948-100.088h1.241l4.948,100.088Z" transform="translate(-269.581 -286.973)"/><path class="k" d="M274.529,387.062l-4.948-100.088h1.241l4.948,100.088Z" transform="translate(-269.581 -286.973)"/></g><g transform="translate(96.436 2.676)"><path class="i" d="M299.243,387.062,294.3,286.973h1.241l4.948,100.088Z" transform="translate(-294.295 -286.973)"/><path class="i" d="M299.243,387.062,294.3,286.973h1.241l4.948,100.088Z" transform="translate(-294.295 -286.973)"/><path class="k" d="M299.243,387.062,294.3,286.973h1.241l4.948,100.088Z" transform="translate(-294.295 -286.973)"/></g><g transform="translate(21.976 2.676)"><path class="i" d="M211.8,387.062l4.948-100.088h-1.241l-4.948,100.088Z" transform="translate(-210.559 -286.973)"/><path class="k" d="M211.8,387.062l4.948-100.088h-1.241l-4.948,100.088Z" transform="translate(-210.559 -286.973)"/></g><g transform="translate(0 2.676)"><path class="i" d="M187.085,387.062l4.948-100.088h-1.241l-4.948,100.088Z" transform="translate(-185.844 -286.973)"/><path class="k" d="M187.085,387.062l4.948-100.088h-1.241l-4.948,100.088Z" transform="translate(-185.844 -286.973)"/></g></g><g transform="translate(46.485 0)"><path class="i" d="M252.431,261h30.447a1.505,1.505,0,0,1,1.519,1.792l-2.56,16.835a2.168,2.168,0,0,1-2.063,1.791H249.326a1.505,1.505,0,0,1-1.519-1.791l2.56-16.835A2.17,2.17,0,0,1,252.431,261Z" transform="translate(-239.192 -261.001)"/><g transform="translate(8.125)"><path class="i" d="M251.9,261H282.35a1.505,1.505,0,0,1,1.519,1.792l-2.559,16.835a2.169,2.169,0,0,1-2.064,1.791H248.8a1.5,1.5,0,0,1-1.519-1.791l2.56-16.835A2.169,2.169,0,0,1,251.9,261Z" transform="translate(-247.259 -261.001)"/><path class="l" d="M251.9,261H282.35a1.505,1.505,0,0,1,1.519,1.792l-2.559,16.835a2.169,2.169,0,0,1-2.064,1.791H248.8a1.5,1.5,0,0,1-1.519-1.791l2.56-16.835A2.169,2.169,0,0,1,251.9,261Z" transform="translate(-247.259 -261.001)"/></g><path class="m" d="M248.865,280.949a1,1,0,0,1-.772-.332,1.03,1.03,0,0,1-.216-.841l2.56-16.835a1.632,1.632,0,0,1,1.532-1.335h30.447a1,1,0,0,1,.772.331,1.032,1.032,0,0,1,.216.842l-2.56,16.835a1.631,1.631,0,0,1-1.532,1.335Z" transform="translate(-239.2 -261.068)"/><path class="i" d="M238.9,283.208h40.351a.564.564,0,0,1,.569.671H238.121A.814.814,0,0,1,238.9,283.208Z" transform="translate(-238.121 -263.461)"/></g></g><g transform="translate(154.462 191.033)"><g transform="translate(1.332 68.816)"><path class="n" d="M200.406,389.219l-3.986,2.248-4.932-9.554,3.986-2.248Z" transform="translate(-174.904 -286.021)"/><path class="o" d="M195.766,391.758l4.645-2.284a.331.331,0,0,1,.445.132l2.033,3.565a.818.818,0,0,1-.362,1.092c-1.632.767-2.451,1.052-4.493,2.057-1.257.618-4.248,2.16-5.983,3.013-1.7.835-2.53-.887-1.871-1.4,2.956-2.318,4.282-4.073,5-5.565A1.3,1.3,0,0,1,195.766,391.758Z" transform="translate(-174.734 -287.104)"/><g transform="translate(16.584 93.645)"><path class="j" d="M195.476,379.667l-3.988,2.249,2.544,4.924,4.109-2.014Z" transform="translate(-191.489 -379.667)"/></g><path class="o" d="M190.16,274.354s-12.878,25.886-16.738,38.524c-4.225,13.839,15.85,60.684,15.85,60.684l7.327-3.211s-13.127-46.394-10.855-51.539c6.273-14.21,20.88-44.156,20.88-44.156Z" transform="translate(-172.838 -274.354)"/><path class="p" d="M197.117,291.463c-3.514,5.894-5,16.511-5.226,23.416,1.983-4.269,4.109-8.715,6.1-12.845v-.007c1.342-3.938,2.645-7.732,3.857-10.983C201.582,288.806,199.777,286.985,197.117,291.463Z" transform="translate(-174.949 -275.944)"/><path class="i" d="M199.343,382.479l-8.005,4.2-2.3-2.708,9.475-5.049Z" transform="translate(-174.633 -285.939)"/><path class="i" d="M195.081,393.549a5.715,5.715,0,0,0,1.029-.69.107.107,0,0,0-.052-.188c-.177-.027-1.741-.252-2.148.195a.4.4,0,0,0-.09.383.588.588,0,0,0,.377.464A1.247,1.247,0,0,0,195.081,393.549Zm.7-.7c-.667.51-1.223.756-1.511.659a.385.385,0,0,1-.237-.311.19.19,0,0,1,.04-.188C194.288,392.77,195.147,392.78,195.776,392.85Z" transform="translate(-175.161 -287.453)"/><path class="i" d="M196.154,392.7a.114.114,0,0,0,.039-.032.105.105,0,0,0,.013-.1c-.02-.052-.512-1.288-1.128-1.484a.538.538,0,0,0-.475.066.413.413,0,0,0-.205.464c.126.5,1.168,1.057,1.7,1.1A.1.1,0,0,0,196.154,392.7Zm-1.389-1.4a.314.314,0,0,1,.249-.017c.366.116.735.782.917,1.18-.509-.127-1.241-.582-1.324-.908-.016-.062-.017-.145.115-.23A.359.359,0,0,1,194.765,391.3Z" transform="translate(-175.225 -287.283)"/></g><path class="o" d="M199.023,234.6c-.8,1.621-1.609,3.044-2.5,4.511-.89,1.444-1.8,2.877-2.8,4.264-.491.7-1.009,1.384-1.521,2.073-.546.672-1.058,1.356-1.635,2.014a43.435,43.435,0,0,1-3.628,3.852c-.314.313-.68.606-1.018.908s-.67.606-1.063.881l-1.135.838c-.124.085-.091.078-.476.33a4.878,4.878,0,0,1-.952.461,4.783,4.783,0,0,1-2.076.248,4.728,4.728,0,0,1-2.009-.679,4.675,4.675,0,0,1-.853-.679,4.577,4.577,0,0,1-.359-.408,3.173,3.173,0,0,1-.246-.356,11.7,11.7,0,0,1-.751-1.521,17.91,17.91,0,0,1-.876-2.775,35,35,0,0,1-.757-5.2,44.226,44.226,0,0,1-.1-5.109,2.018,2.018,0,0,1,3.969-.423l.018.07a71.045,71.045,0,0,0,2.685,8.857,12.7,12.7,0,0,0,.87,1.777,4.573,4.573,0,0,0,.432.61c.041.063-.028-.056-.07-.108a2.094,2.094,0,0,0-.155-.181,1.928,1.928,0,0,0-.372-.308,2,2,0,0,0-.855-.314,2.029,2.029,0,0,0-.877.085c-.257.058-.694.389-.4.142l.75-.71c.494-.489.992-1.015,1.475-1.55a63.759,63.759,0,0,0,5.364-7.309q1.248-1.954,2.441-3.968c.788-1.323,1.584-2.731,2.291-3.994l.05-.088a4.04,4.04,0,0,1,7.147,3.761Z" transform="translate(-171.66 -200.488)"/><g transform="translate(15.681 39.324)"><path class="p" d="M189.6,246.931a29.512,29.512,0,0,0-.624,5.614c.2-.2.4-.4.6-.606a49.24,49.24,0,0,0,4.285-5.038c.545-.717,1.072-1.449,1.579-2.186.31-.795.594-1.593.865-2.4.084-.268.165-.523.248-.79C194.517,240.539,190.82,241.534,189.6,246.931Z" transform="translate(-188.975 -241.187)"/></g><path class="n" d="M177.583,236.739l-.506-3.235-4.025,1.85a17.215,17.215,0,0,0,1.211,3.093,1.648,1.648,0,0,0,2.626.436h0A2.445,2.445,0,0,0,177.583,236.739Z" transform="translate(-171.53 -201.012)"/><path class="n" d="M174.654,231.061l-3.006,2.069,1.248,1.953,4.026-1.85Z" transform="translate(-171.374 -200.742)"/><g transform="translate(0 68.981)"><path class="n" d="M186.587,395.8l-4.491-1.03,1.8-10.535,4.491,1.03Z" transform="translate(-172.532 -286.693)"/><path class="o" d="M180.788,395.432l5.046,1.157a.33.33,0,0,1,.262.383l-.67,4.049a.816.816,0,0,1-.969.618c-1.75-.433-2.565-.728-4.784-1.237-1.365-.313-5.158-1.034-7.043-1.466-1.844-.422-1.4-2.283-.566-2.269,3.756.064,6.392-.43,7.888-1.136A1.3,1.3,0,0,1,180.788,395.432Z" transform="translate(-171.34 -287.93)"/><g transform="translate(10.438 97.544)"><path class="j" d="M188.5,385.268,184,384.238l-.926,5.431,4.493,1.03Z" transform="translate(-183.079 -384.238)"/></g><path class="o" d="M200.089,274.54s-7.422,30.86-9.642,43.885c-2.43,14.265-9.2,57.354-9.2,57.354l8.226,1.886s10.26-41.093,13.952-54.921c4.007-15.008,12.308-33.158,12.308-47.918C210.761,274.826,200.089,274.54,200.089,274.54Z" transform="translate(-172.437 -274.54)"/><path class="i" d="M189.62,389.91l-10.03-2.3.223-3.235,10.84,3Z" transform="translate(-172.254 -286.709)"/><path class="i" d="M179.865,395.747a5.769,5.769,0,0,0,1.234.114.107.107,0,0,0,.079-.18c-.121-.132-1.193-1.293-1.791-1.2a.406.406,0,0,0-.312.241.591.591,0,0,0,0,.6A1.246,1.246,0,0,0,179.865,395.747Zm.981-.1c-.84-.024-1.426-.185-1.588-.441a.388.388,0,0,1,.012-.391.19.19,0,0,1,.149-.121C179.74,394.642,180.4,395.192,180.845,395.643Z" transform="translate(-172.188 -287.827)"/><path class="i" d="M181.242,395.759a.109.109,0,0,0,.051,0,.105.105,0,0,0,.076-.071c.017-.054.414-1.323.061-1.863a.536.536,0,0,0-.411-.248.41.41,0,0,0-.452.229,2.379,2.379,0,0,0,.625,1.926A.1.1,0,0,0,181.242,395.759Zm-.2-1.962a.319.319,0,0,1,.2.143,2.392,2.392,0,0,1-.033,1.495,2.172,2.172,0,0,1-.455-1.539c.027-.059.078-.124.235-.107Z" transform="translate(-172.356 -287.728)"/></g><path class="c" d="M194.9,231.849a4.489,4.489,0,0,1,3.456-3.019,26.986,26.986,0,0,1,3.461-.529,92.116,92.116,0,0,1,10.471.192c1.826.12,3.686.378,5.167.623l.053.008a2.931,2.931,0,0,1,2.4,3.46,145.347,145.347,0,0,0-2.609,18.634c-.527,9.111-.167,16.278-.381,18.475l-24.64-.452C191.189,246.964,193.308,236.889,194.9,231.849Z" transform="translate(-173.627 -200.427)"/><path class="o" d="M212.785,228.023c-1.279,4.805-9.165,13.308-10.125,26.678.349,7.331.058,12.328.959,17.24l15.088-.406c.229-2.321-1.48-9.79-.357-17.358,1.088-7.336,2.633-17.313,3.51-21.772a3.1,3.1,0,0,0-2.532-3.652l-.055-.007c-1.562-.259-3.521-.531-5.446-.66C213.492,228.061,213.145,228.042,212.785,228.023Z" transform="translate(-174.81 -200.405)"/><path class="l" d="M217.529,267.958a.156.156,0,0,1-.125-.063,24.633,24.633,0,0,1-3.643-6.832.156.156,0,0,1,.3-.09,24.306,24.306,0,0,0,3.594,6.734.157.157,0,0,1-.125.251Z" transform="translate(-176.039 -204.043)"/><path class="p" d="M220.042,238.826c-1.075,4.378-.705,10.445.189,15.982.922-6.214,2.164-14.279,3.052-19.271C222.235,234.825,220.894,235.328,220.042,238.826Z" transform="translate(-176.663 -201.207)"/><path class="o" d="M193.4,231.915a5.216,5.216,0,0,1,3.8-3.453,46.618,46.618,0,0,1,4.963-.419c-1.4,4.545-.582,17.853.038,28.347-1.861,5.294-1.738,9.182-1.768,15.553l-10.32-.9C188.987,247.686,191.859,236.156,193.4,231.915Z" transform="translate(-173.391 -200.407)"/><path class="n" d="M203.588,226.844c3.059-.664,3.627-2.538,3.46-4.611a12.339,12.339,0,0,0-.213-1.546l3.873-3.1,2.845-2.273c-.839,3.36-1.827,9.491.412,11.781,0,0-1.945,3.078-7.151,2.7C202.416,229.478,203.588,226.844,203.588,226.844Z" transform="translate(-174.897 -198.997)"/><path class="g" d="M208.637,230.728l-.862.8,2.667,1.011-.325-1.023Z" transform="translate(-175.377 -200.705)"/><path class="h" d="M209.715,233.558s.019-2.627-.971-3.19a11.466,11.466,0,0,0,5.286-2.889l1.585.636S215.035,231.138,209.715,233.558Z" transform="translate(-175.484 -200.345)"/><path class="g" d="M206.81,230.5l.611,1.006-2.841.245.592-.9Z" transform="translate(-175.023 -200.679)"/><path class="h" d="M204.229,233.032a4.08,4.08,0,0,1,2.412-2.855c-1.529-.46-1.57-2.581-1.57-2.581l-1.5.285A4.583,4.583,0,0,0,204.229,233.032Z" transform="translate(-174.853 -200.358)"/><path class="j" d="M207.257,220.97a12.34,12.34,0,0,1,.213,1.546c1.429-.261,3.358-1.742,3.584-3.192a6.633,6.633,0,0,0,.076-1.453Z" transform="translate(-175.319 -199.28)"/><path class="o" d="M201.3,204.106a5.237,5.237,0,0,0,.212,5.332l3.072-3.819Z" transform="translate(-174.588 -197.755)"/><path class="n" d="M213.667,208.07c-.216,4.58-.111,7.265-2.381,9.721a5.961,5.961,0,0,1-10.222-2.63c-1.036-4.056-.508-10.864,3.929-12.9A6.031,6.031,0,0,1,213.667,208.07Z" transform="translate(-174.583 -197.484)"/><path class="o" d="M216.5,202.83c-1.978-6.335-21.7-9.611-14.054,1.111l8.391-1.15.31,2.153a29.515,29.515,0,0,0,1.716,4.916l-.349,1.949.359,3.166s3.487-3.873,5.255-5.7C220.762,206.542,218.085,202.674,216.5,202.83Z" transform="translate(-174.591 -196.964)"/><path class="o" d="M201.416,204.464c2.2,1.617,7.921,1.92,7.921,1.92a5.5,5.5,0,0,0-1.746-2.123c2.3,1.484,4.335,3.2,8.175,3.346a11.138,11.138,0,0,0-6-6.4C205.149,199.134,197.305,201.439,201.416,204.464Z" transform="translate(-174.544 -197.346)"/><path class="o" d="M217.3,197.253s-.851.578-1.046,2.577,1.838,4.592,1.838,4.592l.5-1.283A8.33,8.33,0,0,1,217.3,197.253Z" transform="translate(-176.314 -196.996)"/><path class="n" d="M216.306,212.459a4.3,4.3,0,0,1-1.961,2.123c-1.123.553-1.715-.464-1.428-1.7.258-1.113,1.154-2.744,2.293-2.778C216.333,210.069,216.8,211.31,216.306,212.459Z" transform="translate(-175.938 -198.42)"/><path class="o" d="M207.319,210.7c0,.372-.188.683-.43.694s-.444-.28-.449-.652.188-.683.43-.694S207.314,210.328,207.319,210.7Z" transform="translate(-175.229 -198.414)"/><path class="o" d="M202.6,210.929c.005.373-.188.683-.43.7s-.444-.28-.448-.653.187-.683.429-.694S202.6,210.557,202.6,210.929Z" transform="translate(-174.706 -198.439)"/><path class="e" d="M204.107,211.047a13.908,13.908,0,0,1-1.73,3.267,2.114,2.114,0,0,0,1.778.247Z" transform="translate(-174.779 -198.524)"/><path class="o" d="M206.029,215.856a3.2,3.2,0,0,0,2.13-1.328.109.109,0,0,0-.186-.115,3.058,3.058,0,0,1-2.385,1.271.109.109,0,0,0,.011.218A3.562,3.562,0,0,0,206.029,215.856Z" transform="translate(-175.123 -198.892)"/><path class="o" d="M209.319,208.842a.218.218,0,0,0,.134-.351,2.1,2.1,0,0,0-1.794-.819.215.215,0,0,0-.19.243.217.217,0,0,0,.242.19,1.663,1.663,0,0,1,1.4.658A.22.22,0,0,0,209.319,208.842Z" transform="translate(-175.343 -198.15)"/><path class="o" d="M200.608,209.344a.219.219,0,0,0,.163-.124,1.824,1.824,0,0,1,1.221-1.052.218.218,0,0,0-.074-.43h0a2.257,2.257,0,0,0-1.543,1.3.218.218,0,0,0,.234.307Z" transform="translate(-174.554 -198.157)"/><path class="o" d="M224.076,231.6c.421.936.779,1.786,1.125,2.685s.685,1.779,1.013,2.674c.639,1.8,1.231,3.612,1.753,5.46a56.7,56.7,0,0,1,2.163,11.555,102.828,102.828,0,0,1-.006,11.364c-.181,3.731-.477,7.429-.967,11.144a2.015,2.015,0,0,1-4-.037l0-.02c-.409-3.653-.728-7.325-1.063-10.96q-.241-2.73-.521-5.428c-.169-1.8-.4-3.58-.643-5.277a64.864,64.864,0,0,0-2.6-10c-.565-1.673-1.15-3.349-1.77-5.016-.593-1.659-1.281-3.36-1.9-4.93l-.035-.091a4.039,4.039,0,0,1,7.447-3.126Z" transform="translate(-176.327 -200.537)"/><path class="n" d="M226,281.979l-2.609,1.227,4.426,1.585s3-.947,1.593-2.6l-.794-.252A2.9,2.9,0,0,0,226,281.979Z" transform="translate(-177.107 -206.348)"/><path class="n" d="M221.713,286.231l4.674.892,1.246-2.139-4.425-1.584Z" transform="translate(-176.921 -206.54)"/></g><g transform="translate(69.075 162.305)"><g transform="translate(25.91)"><rect class="i" width="21.005" height="0.698" transform="translate(12.452 0)"/><path class="i" d="M105.33,168.361l-.509-.478a10.221,10.221,0,0,1,7.538-3.227v.7A9.532,9.532,0,0,0,105.33,168.361Z" transform="translate(-104.493 -164.657)"/><path class="i" d="M112.318,167.406h40.148a9.079,9.079,0,0,1,8.908,8.378l1.52,24.043.493,7.8-8.289-7.8H114.368a9.078,9.078,0,0,1-8.908-8.379l-.991-15.664A7.793,7.793,0,0,1,112.318,167.406Z" transform="translate(-104.452 -164.962)"/><path class="c" d="M115.5,179.97h37.936a1.3,1.3,0,0,0,1.308-1.4h0a1.514,1.514,0,0,0-1.485-1.4H115.323a1.3,1.3,0,0,0-1.308,1.4h0A1.513,1.513,0,0,0,115.5,179.97Z" transform="translate(-105.511 -166.044)"/><path class="c" d="M115.957,187.2h37.936a1.3,1.3,0,0,0,1.308-1.4h0a1.513,1.513,0,0,0-1.484-1.4H115.78a1.3,1.3,0,0,0-1.308,1.4h0A1.514,1.514,0,0,0,115.957,187.2Z" transform="translate(-105.562 -166.846)"/><path class="c" d="M130.94,194.438h25.02a1.3,1.3,0,0,0,1.309-1.4h0a1.514,1.514,0,0,0-1.485-1.4h-25.02a1.3,1.3,0,0,0-1.308,1.4h0A1.513,1.513,0,0,0,130.94,194.438Z" transform="translate(-107.222 -167.647)"/></g><g transform="translate(0 42.662)"><path class="i" d="M123.327,212.635H83.18a7.793,7.793,0,0,0-7.849,8.379l1.113,17.623.494,7.8,7.3-7.8h40.729a7.794,7.794,0,0,0,7.849-8.379l-.584-9.244A9.08,9.08,0,0,0,123.327,212.635Z" transform="translate(-75.314 -212.635)"/><path class="q" d="M123.327,212.635H83.18a7.793,7.793,0,0,0-7.849,8.379l1.113,17.623.494,7.8,7.3-7.8h40.729a7.794,7.794,0,0,0,7.849-8.379l-.584-9.244A9.08,9.08,0,0,0,123.327,212.635Z" transform="translate(-75.314 -212.635)"/><path class="c" d="M123.643,225.2H85.707a1.514,1.514,0,0,1-1.485-1.4h0a1.3,1.3,0,0,1,1.308-1.4h37.937a1.512,1.512,0,0,1,1.484,1.4h0A1.3,1.3,0,0,1,123.643,225.2Z" transform="translate(-76.301 -213.718)"/><path class="c" d="M111.184,232.448H86.165a1.514,1.514,0,0,1-1.485-1.4h0a1.3,1.3,0,0,1,1.308-1.4h25.02a1.513,1.513,0,0,1,1.485,1.4h0A1.3,1.3,0,0,1,111.184,232.448Z" transform="translate(-76.351 -214.521)"/></g><g transform="translate(30.589 76.461)"><path class="i" d="M117.58,250.645h40.147a9.08,9.08,0,0,1,8.909,8.379l1.188,18.805.494,7.8-8.29-7.8H119.3a9.08,9.08,0,0,1-8.908-8.379l-.659-10.426A7.793,7.793,0,0,1,117.58,250.645Z" transform="translate(-109.714 -250.645)"/><g transform="translate(15.947 9.639)"><path class="c" d="M138.713,264.433a3.185,3.185,0,0,0,3.134,2.948,2.735,2.735,0,0,0,2.762-2.948,3.185,3.185,0,0,0-3.134-2.948A2.734,2.734,0,0,0,138.713,264.433Z" transform="translate(-128.874 -261.485)"/><path class="c" d="M127.654,265.546a3.185,3.185,0,0,0,3.134,2.948,2.734,2.734,0,0,0,2.762-2.948,3.185,3.185,0,0,0-3.134-2.948A2.735,2.735,0,0,0,127.654,265.546Z" transform="translate(-127.648 -261.608)"/><path class="c" d="M150.018,267.215a3.186,3.186,0,0,0,3.134,2.949,2.735,2.735,0,0,0,2.762-2.949,3.185,3.185,0,0,0-3.134-2.948A2.734,2.734,0,0,0,150.018,267.215Z" transform="translate(-130.126 -261.793)"/></g></g></g></g></svg>