<svg xmlns="http://www.w3.org/2000/svg" width="714.746" height="448.543" viewBox="0 0 714.746 448.543"><defs><style>.a{fill:#e0e0e0;}.b{fill:#ebebeb;}.c{fill:#f5f5f5;}.d{fill:#263238;}.e{fill:#fff;}.f{fill:#455a64;}.g{fill:#002467;}.h{fill:#062a6b;}.i{fill:#0048cd;}.j{fill:#053590;}.k{opacity:0.3;}.l{fill:#032b74;}.m{fill:#0894fe;}.n{fill:#a26760;}.o{opacity:0.6;}.p{fill:#7b4b45;}.q{fill:#f2f2f2;}.r{fill:#cdcdcd;}.s{opacity:0.2;}</style></defs><g transform="translate(-14.335 -27.844)"><path class="a" d="M713.632,393.835c0,.144-149.209.26-333.225.26-184.081,0-333.258-.116-333.258-.26s149.177-.26,333.258-.26C564.423,393.575,713.632,393.691,713.632,393.835Z"/><path class="a" d="M415.29,394.751c-.132.057-2.87-6.025-6.115-13.583s-5.769-13.732-5.637-13.789,2.87,6.024,6.116,13.584S415.422,394.694,415.29,394.751Z"/><path class="a" d="M415.514,347.022c.142-.021,1.8,10.383,3.708,23.234s3.336,23.291,3.194,23.312-1.8-10.38-3.709-23.236S415.372,347.043,415.514,347.022Z"/><path class="a" d="M433.071,357.232c.143.009-.262,8.28-.905,18.47s-1.281,18.448-1.425,18.439.262-8.278.9-18.472S432.927,357.223,433.071,357.232Z"/><path class="a" d="M649.133,363.944c.139-.036,1.964,6.549,4.076,14.706s3.711,14.8,3.572,14.837-1.964-6.547-4.076-14.707S648.994,363.98,649.133,363.944Z"/><path class="a" d="M661.234,354.234c.144-.005.551,8.523.911,19.045s.534,19.059.39,19.064-.551-8.521-.911-19.046S661.09,354.239,661.234,354.234Z"/><path class="a" d="M674.709,366.938c.142.024-.817,6.545-2.142,14.565s-2.514,14.5-2.656,14.48.817-6.543,2.142-14.565S674.567,366.915,674.709,366.938Z"/><path class="a" d="M48.146,392.254a27.143,27.143,0,0,1-1.495-2.874c-.9-1.781-2.21-4.208-3.835-6.779s-3.262-4.792-4.487-6.368a27.3,27.3,0,0,1-1.958-2.581c.027-.024.257.186.65.586s.942,1,1.594,1.763a56.447,56.447,0,0,1,4.641,6.321,56.383,56.383,0,0,1,3.727,6.9c.411.916.72,1.667.911,2.195A2.851,2.851,0,0,1,48.146,392.254Z"/><path class="a" d="M49.6,360.3c.142-.023,1.469,7.409,2.962,16.6s2.59,16.659,2.448,16.682-1.468-7.407-2.962-16.6S49.461,360.326,49.6,360.3Z"/><path class="a" d="M64.006,369.349c.144,0,.169,5.425.056,12.11s-.322,12.1-.466,12.1-.168-5.424-.055-12.111S63.862,369.346,64.006,369.349Z"/><path class="a" d="M712.789,95.453l7.774,1.383L696.34,66.767l4.682-26.309-15.164-2.7-2.331,13.1L674.54,39.7l-20.523-3.652-.026.027-23.913-4.256,13.286,15.361,0,0L680.069,89.63l-16.575-2.95L649.466,165.5l49.3,8.773Z"/><path class="b" d="M663.493,86.681l16.576,2.949L643.4,47.231l0,0-13.323-15.4L571.36,70.316l8.378,1.491-14.027,78.821,27.99,4.982,7.3-41.044,26.086,4.643-7.3,41.043,4.265.759,3.966.706.033-.026,21.415,3.811ZM640.241,98.162l.052-.026,1.529-8.591,11.4,2.028-1.885,10.588-11.443-2.036Zm-53.06-18.341,10.513,1.871L595.8,92.311,585.291,90.44Zm-4.073,22.886L585,92.087l10.513,1.871-1.89,10.62Zm16.447-20.684,10.512,1.871-1.89,10.619-10.512-1.871Zm-4.073,22.886,1.89-10.62,10.512,1.871-1.89,10.62Zm26.637-33.371a9.907,9.907,0,1,1,11.489-8.018A9.907,9.907,0,0,1,622.119,71.538Zm8.26,15.97,9.582,1.7L638.2,99.136l-.053.026-.112.632-.842-.15-.047.024-8.653-1.54Zm-4.073,22.886,1.89-10.619,6.547,1.165.047-.024,2.948.525-.48,2.695.039.05-1.409,7.914Zm12.559-4.235-.039-.05.772-4.337,11.443,2.037-1.89,10.619-4.379-.779.029.037-7.052-1.255Z"/><rect class="c" width="41.688" height="26.496" transform="translate(593.701 155.61) rotate(-79.909)"/><path class="c" d="M622.119,71.538A9.907,9.907,0,1,0,614.1,60.049,9.906,9.906,0,0,0,622.119,71.538Z"/><rect class="c" width="10.786" height="10.678" transform="translate(585.291 90.44) rotate(-79.909)"/><rect class="c" width="10.786" height="10.678" transform="translate(583.108 102.707) rotate(-79.909)"/><rect class="c" width="10.786" height="10.678" transform="translate(597.665 92.642) rotate(-79.909)"/><rect class="c" width="10.786" height="10.678" transform="translate(595.482 104.909) rotate(-79.909)"/><path class="c" d="M637.3,104.176l-.039-.049.478-2.686-3.036-.54.029.037L628.2,99.775l-1.89,10.619,9.582,1.705Z"/><path class="c" d="M653.213,91.607l.052-.026-.046-.008.005-.031-.047.024-11.356-2.021L640.3,98.07l-.052.026-.361,2.029,11.443,2.036Z"/><path class="c" d="M638.031,99.794l.1-.566.052-.026,1.777-9.988-9.583-1.705-1.89,10.619,8.741,1.555.047-.024Z"/><path class="c" d="M649.151,114.428l1.89-10.619L639.6,101.772l-.774,4.347.039.049-1.114,6.262,7.064,1.257-.029-.037Z"/><path class="a" d="M367.287,393.835c-5.932-7.795-17.638-12.043-26.393-7.65A18.586,18.586,0,0,0,311.2,374.3c-4.274-13.55-17.957-23.536-32.166-23.474s-27.8,10.165-31.961,23.752a28.266,28.266,0,0,0-25.44-1.219c-8.023,3.662-14.078,11.819-15.749,20.478Z"/><path class="a" d="M244.945,363.481c1.624-2.776,3.087-6.989,2.408-10.133a13.145,13.145,0,0,0-5.2-7.867,11.43,11.43,0,0,0,2.791,18"/><path class="c" d="M550.747,80.459c.589-4.277-5.448-7.8-9.984-8.162-2.164-.174-4.411.157-6.46-.557-4.44-1.548-6.214-7.284-10.546-9.112-3.239-1.366-6.968-.15-10.108,1.431s-6.244,3.569-9.752,3.793c-3.051.2-6.365-.936-9.035.555-1.989,1.111-3.031,3.4-4.865,4.756-1.794,1.323-4.134,1.6-6.36,1.724s-4.53.143-6.557,1.071-3.7,3.072-3.283,5.261Z"/><path class="a" d="M66.838,194.681c11.057,17.774,36.954,24.267,55.088,13.812a39.832,39.832,0,0,0,66.969-4.766c7.821,3.912,17.891,1.28,24.04-4.937s8.732-15.315,8.564-24.057-2.82-17.243-5.92-25.419c0,0-67.887-18.065-72.657-16.761S66.838,194.681,66.838,194.681Z"/><path class="b" d="M101.272,169.5c.032,1.338,10.44,26.077,10.44,26.077l17.979,24.112,7.568,73.892L144.81,310.8l-5,83.417,12.423-.428,3.194-86.812-3.719-24.9,6.952-26.494,18.516-28.108,11.1-58.274-9.408-1.56L170.91,208l-7.483,22.936-9.014,14.941-9.779,1.573,4.621-86.677-8.569-3.811-2.47,46.019-6.572,5.066-7.859-11.414-18.149-31.248Z"/><path class="a" d="M249.369,116.5c-5.04-12.765-15.55-22.443-25.728-31.652,5.664-3.791,7.709-11.535,6.277-18.2s-5.733-12.363-10.572-17.163c-21.13-20.96-55.237-27.557-82.659-15.989l-11.135,1.68c-23.364-5.5-49.675,5.575-62.063,26.135-2.687,4.458-4.786,9.314-8.122,13.31C50.6,80.338,43.736,83.8,37.806,88.3A59.365,59.365,0,0,0,24.4,168.7c4.29,6.386,9.83,11.957,13.3,18.823,2.524,5,3.918,10.624,7.313,15.077,6.566,8.611,19.305,10.548,29.586,7.148,8.129-2.689,25.573-28.18,28.881-34.824,3.957.958,21.209.074,24.943-16.506,0,0,9.6,9.29,30.563-3.364,6.313-3.81,16.063,7.479,23.246,11.822,7.71,4.662,14.142,11.153,21.534,16.305s16.411,9.026,25.261,7.339a22.012,22.012,0,0,0,11.549-37.08C252.137,146.047,254.41,129.268,249.369,116.5Z"/><path class="c" d="M729.03,272.569c.749-5.441-6.931-9.918-12.7-10.383-2.752-.221-5.611.2-8.218-.709-5.648-1.969-7.9-9.266-13.416-11.591-4.121-1.738-8.864-.191-12.859,1.82s-7.942,4.54-12.4,4.826c-3.882.248-8.1-1.191-11.494.7-2.531,1.413-3.857,4.329-6.189,6.05-2.283,1.683-5.259,2.04-8.091,2.193s-5.763.183-8.341,1.364-4.712,3.907-4.177,6.691Z"/><path class="d" d="M40.874,476.125c0-.144,149.158-.26,333.11-.26,184.016,0,333.142.116,333.142.26s-149.126.261-333.142.261C190.032,476.386,40.874,476.269,40.874,476.125Z"/><path class="b" d="M63.041,82.435,88.075,339.911l93.232-15.3,85.286,22.278,76.14-32.838,82.472,19.594,67.364-34.067L483.345,53.8,418.981,73.321l-76.118-20.2L252.006,85.141,159.391,63.995Z"/><path class="d" d="M63.041,82.435s.126-.034.392-.089l1.195-.243,4.756-.939,18.654-3.636,71.3-13.8.055-.011.055.013,92.637,21.054-.2.012,90.836-32.082.123-.044.128.034L419.1,72.874l-.253,0L483.2,53.333l.6-.183.024.629c2.853,75.715,5.984,158.84,9.26,245.78l.013.334-.3.15-1.35.684-66.015,33.381-.169.085-.185-.044-82.469-19.6.317-.028-76.147,32.82-.155.066-.162-.042-85.278-22.309.189.009L88.141,340.312l-.43.071-.041-.433C80.086,261.032,73.895,196.617,69.6,151.927c-2.124-22.31-3.779-39.7-4.9-51.508-.552-5.893-.974-10.394-1.258-13.426-.137-1.507-.24-2.649-.31-3.418s-.088-1.14-.088-1.14.055.4.138,1.177.2,1.93.358,3.453c.307,3.046.762,7.568,1.358,13.487,1.174,11.828,2.9,29.236,5.119,51.574C74.4,196.75,80.729,261.07,88.48,339.871l-.471-.362,93.224-15.347.1-.016.094.025,85.294,22.247-.316.024,76.132-32.855.154-.067.164.039,82.475,19.583-.353.042L490.984,299.8l1.35-.683-.285.484c-3.25-86.941-6.358-170.066-9.189-245.783l.626.446-64.371,19.5-.126.038-.126-.034L342.754,53.53l.251-.01L252.127,85.482l-.1.035-.1-.023-92.6-21.238.11,0L88.229,77.736,69.5,81.256l-4.81.892-1.224.22C63.187,82.416,63.041,82.435,63.041,82.435Z"/><path class="e" d="M71.544,89.05,95.2,332.319l88.088-14.455,80.58,21.049,78.709-33.945,82.214,19.495,58.595-31.632-8.71-229.064L422.222,81.155l-79.07-21.018L253.27,94.043,162.577,71.627Z"/><path class="d" d="M71.544,89.05,162.552,71.5l.029-.005.028.007,90.7,22.369-.107.006,89.871-33.937.064-.024.066.017,79.075,21-.133,0,52.446-17.4.307-.1.012.323c2.691,70.614,5.643,148.094,8.727,229.063l.007.162-.143.077-2.3,1.242L424.91,324.69l-.087.047-.1-.023-82.212-19.5.158-.014-78.712,33.936-.077.033-.081-.021-80.576-21.064.094,0L95.229,332.519l-.214.035-.02-.215C80.624,183.253,71.7,90.681,71.544,89.05c.16,1.629,9.237,94.187,23.854,243.25l-.234-.181,88.083-14.479.048-.008.047.012,80.584,21.034-.158.012,78.7-33.955.078-.034.082.02,82.214,19.489-.182.024,56.293-30.391,2.3-1.242-.136.239c-3.073-80.969-6.013-158.45-8.693-229.064l.32.221L422.3,81.376l-.066.022-.067-.018L343.1,60.343l.131-.006L253.334,94.213l-.053.02-.055-.013L162.545,71.757h.057Z"/><path class="f" d="M104.323,212.614c4.455,7.161,14.888,9.777,22.194,5.565a16.048,16.048,0,0,0,26.981-1.92c3.151,1.575,7.208.515,9.685-1.989a13.4,13.4,0,0,0,3.451-9.693,30.865,30.865,0,0,0-2.386-10.241s-27.35-7.278-29.272-6.752S104.323,212.614,104.323,212.614Z"/><path class="a" d="M118.2,202.47c.013.539,4.206,10.506,4.206,10.506l7.244,9.714,3.049,29.77,3.042,6.938.382,16,5-.172-1.109-17.371-1.5-10.032,2.8-10.673,7.46-11.325,4.472-23.477-3.79-.629-3.207,16.257-3.015,9.24-3.631,6.02-3.94.633,1.862-34.921-3.453-1.535-.995,18.541L130.432,218l-3.166-4.6-7.312-12.589Z"/><path class="f" d="M177.862,181.117c-2.031-5.143-6.265-9.042-10.365-12.752,2.281-1.527,3.105-4.648,2.529-7.332a14.361,14.361,0,0,0-4.26-6.915,31.234,31.234,0,0,0-33.3-6.441l-4.486.676a23.671,23.671,0,0,0-25,10.529,41.147,41.147,0,0,1-3.272,5.363c-1.922,2.3-4.687,3.7-7.076,5.508a23.919,23.919,0,0,0-5.4,32.395c1.729,2.573,3.961,4.817,5.358,7.584,1.017,2.014,1.579,4.28,2.947,6.074,2.645,3.469,7.778,4.25,11.919,2.88,3.275-1.084,10.3-11.354,11.636-14.03,1.594.386,8.545.03,10.049-6.65,0,0,3.868,3.742,12.314-1.356,2.543-1.535,6.471,3.013,9.365,4.763,3.106,1.878,5.7,4.494,8.676,6.569s6.612,3.636,10.177,2.957A8.868,8.868,0,0,0,174.319,196C178.977,193.02,179.893,186.26,177.862,181.117Z"/><path class="d" d="M143.232,186.884a1.587,1.587,0,0,1,.144.428,7,7,0,0,1,.223,1.281,9.93,9.93,0,0,1-.745,4.746,10.272,10.272,0,0,1-1.8,2.863,9.391,9.391,0,0,1-3.179,2.287,10.3,10.3,0,0,1-8.862-.256l.377-.187a7.547,7.547,0,0,1-1.422,3.328,8.681,8.681,0,0,1-9.264,3.287l.3-.157a18.489,18.489,0,0,1-6.789,9.275,16.818,16.818,0,0,1-2.875,1.666c-.349.162-.632.257-.818.329a.859.859,0,0,1-.293.085,27.963,27.963,0,0,0,3.813-2.315,18.665,18.665,0,0,0,6.5-9.184l.072-.229.229.072a8.236,8.236,0,0,0,8.7-3.138,7.062,7.062,0,0,0,1.331-3.1l.056-.358.321.17a9.9,9.9,0,0,0,8.435.291,9.323,9.323,0,0,0,4.848-4.866,10.233,10.233,0,0,0,.874-4.6C143.357,187.493,143.184,186.9,143.232,186.884Z"/><path class="d" d="M162.77,205.361a2.963,2.963,0,0,1-.984.452,8.3,8.3,0,0,1-2.935.39,8.539,8.539,0,0,1-4.2-1.3,8.876,8.876,0,0,1-3.944-5.744l.388.171a7.7,7.7,0,0,1-4.7,1.044,7.325,7.325,0,0,1-3.613-1.392,7.117,7.117,0,0,1-1.775-1.865,2.442,2.442,0,0,1-.413-.837,10.39,10.39,0,0,0,2.387,2.419,7.222,7.222,0,0,0,3.456,1.216,7.381,7.381,0,0,0,4.387-1.027l.314-.19.074.362a8.385,8.385,0,0,0,.463,1.518,8.625,8.625,0,0,0,3.232,3.922,8.472,8.472,0,0,0,3.966,1.335A11.621,11.621,0,0,0,162.77,205.361Z"/><path class="f" d="M375.164,189.453c5.648,9.08,18.877,12.4,28.14,7.056a20.347,20.347,0,0,0,34.21-2.435c3.995,2,9.139.654,12.28-2.522s4.461-7.823,4.375-12.289a39.126,39.126,0,0,0-3.024-12.985s-34.679-9.228-37.115-8.562S375.164,189.453,375.164,189.453Z"/><path class="a" d="M392.754,176.591c.016.683,5.333,13.321,5.333,13.321l9.184,12.317,3.866,37.746,3.857,8.8.144,19.958,5.8-.139-.521-21.772-1.9-12.719,3.552-13.534,9.458-14.358L437.2,176.44l-4.806-.8-4.066,20.612L424.5,207.971l-4.6,7.633-5,.8,2.361-44.277-4.378-1.947-1.261,23.508-3.357,2.588-4.015-5.831-9.271-15.962Z"/><path class="f" d="M468.406,149.517c-2.575-6.521-7.944-11.465-13.143-16.168,2.894-1.937,3.938-5.893,3.207-9.3s-2.929-6.316-5.4-8.768a39.6,39.6,0,0,0-42.224-8.167l-5.688.858a30.013,30.013,0,0,0-31.7,13.35c-1.373,2.278-2.445,4.758-4.149,6.8-2.436,2.918-5.942,4.687-8.971,6.984a30.326,30.326,0,0,0-6.848,41.074c2.192,3.262,5.022,6.108,6.794,9.615,1.289,2.554,2,5.427,3.736,7.7,3.354,4.4,9.861,5.388,15.113,3.651,4.152-1.373,13.063-14.4,14.753-17.789,2.021.49,10.834.038,12.742-8.431,0,0,4.9,4.745,15.612-1.719,3.225-1.946,8.205,3.821,11.875,6.039,3.938,2.381,7.224,5.7,11,8.329s8.383,4.611,12.9,3.749a11.245,11.245,0,0,0,5.9-18.942C469.82,164.609,470.981,156.038,468.406,149.517Z"/><path class="d" d="M424.5,156.83a2.485,2.485,0,0,1,.17.545,9.119,9.119,0,0,1,.27,1.623,12.645,12.645,0,0,1-.961,6,12.986,12.986,0,0,1-2.283,3.61,11.854,11.854,0,0,1-4.014,2.881,13,13,0,0,1-11.179-.329l.377-.187a9.509,9.509,0,0,1-1.791,4.189c-2.8,3.771-7.764,5.409-11.671,4.148l.3-.157a23.468,23.468,0,0,1-8.57,11.747,21.672,21.672,0,0,1-3.631,2.126c-.441.209-.8.331-1.033.426a1.449,1.449,0,0,1-.367.118,13.711,13.711,0,0,1,1.333-.684,24.669,24.669,0,0,0,3.525-2.221,23.6,23.6,0,0,0,4.523-4.481,23.05,23.05,0,0,0,3.762-7.175l.073-.229.228.072c3.691,1.173,8.443-.4,11.107-4a9.024,9.024,0,0,0,1.7-3.96l.055-.358.322.17a12.6,12.6,0,0,0,10.752.364,11.512,11.512,0,0,0,3.9-2.736,12.9,12.9,0,0,0,3.358-9.32C424.673,157.6,424.445,156.841,424.5,156.83Z"/><path class="d" d="M449.271,180.257c.007.017-.1.077-.309.178a7.249,7.249,0,0,1-.947.368,10.605,10.605,0,0,1-3.711.472,10.817,10.817,0,0,1-5.3-1.653,11.244,11.244,0,0,1-4.35-5.2,11.114,11.114,0,0,1-.616-2.037l.387.171a9.713,9.713,0,0,1-5.913,1.321,9.269,9.269,0,0,1-4.56-1.741,9.126,9.126,0,0,1-2.257-2.342,3.569,3.569,0,0,1-.544-1.047,12.043,12.043,0,0,0,3,3.1,9.155,9.155,0,0,0,4.4,1.566,9.4,9.4,0,0,0,5.6-1.3l.314-.19.074.361a10.821,10.821,0,0,0,.591,1.939,10.967,10.967,0,0,0,4.128,5,10.754,10.754,0,0,0,5.061,1.688,11.561,11.561,0,0,0,3.633-.3C448.8,180.4,449.253,180.215,449.271,180.257Z"/><path class="g" d="M419.069,165.592l-21.17.506-39.474-44.055,14.25-16.565Z"/><path class="h" d="M167.891,168.684l-12.85,59.631,7.134-.171L173.61,175.8Z"/><path class="a" d="M161.228,274.8l-1.167-48.827,9.684-45.6,10.079,49.566,1.061,44.388Z"/><rect class="a" width="37.141" height="75.322" transform="translate(304.912 153.234) rotate(-1.37)"/><path class="i" d="M167.9,168.875l11.933,61.259,160.114-3.828-33.176-60.751Z"/><rect class="b" width="159.208" height="44.401" transform="translate(179.825 229.943) rotate(-1.37)"/><path class="a" d="M194.064,229.793l1.057,44.2,19.178-.458-1.383-44.38Z"/><path class="b" d="M260.733,172.045l-47.818,57.106,1.383,44.38,94.279-2.254-1.865-42.743Z"/><path class="j" d="M189.53,229.71l48.39-62.7,22.68-.542-50.1,62.742Z"/><path class="i" d="M294.639,165.653l36.906-.419,42.463-59.787-1.833-2.4-35.257,1.532Z"/><path class="i" d="M342.269,144.364l-15.187,20.976,4.464-.107,42.463-59.787-1.833-2.4Z"/><path class="d" d="M342.269,144.364a1.094,1.094,0,0,1,.126-.209l.406-.6,1.61-2.29,6.113-8.564,21.453-29.8.191-.265.2.26,1.836,2.4.111.144-.106.149-14.368,20.253C349.2,140.8,339.4,154.552,331.712,165.352l-.06.085-.1,0-4.464.094-.39.008.229-.313L338.1,149.936l3.066-4.147.809-1.071a2.8,2.8,0,0,1,.291-.354,2.884,2.884,0,0,1-.246.387c-.186.27-.44.635-.764,1.1l-2.983,4.207-11.039,15.392-.16-.305,4.463-.119-.162.086,28.038-39.573,14.39-20.238.005.293c-.633-.831-1.261-1.655-1.83-2.4l.391,0L350.766,132.88l-6.226,8.483-1.673,2.244-.438.572A1.1,1.1,0,0,1,342.269,144.364Z"/><path class="b" d="M403.658,157.4l2.667,111.538-66.276,1.585L337.336,157.08,367.863,114.1Z"/><path class="d" d="M425.711,189.3a50.819,50.819,0,0,1,.519,7.247,50.732,50.732,0,0,1,0,7.266,50.81,50.81,0,0,1-.519-7.248A50.718,50.718,0,0,1,425.711,189.3Z"/><path class="d" d="M425.711,189.3c0,.144-4.732.374-10.576.513s-10.587.137-10.59-.007,4.731-.373,10.577-.513S425.707,189.16,425.711,189.3Z"/><path class="d" d="M418.8,203.907a49.605,49.605,0,0,1-.432-7.164,49.519,49.519,0,0,1,.089-7.178,49.7,49.7,0,0,1,.431,7.165A49.782,49.782,0,0,1,418.8,203.907Z"/><path class="d" d="M411.129,204.178a50.82,50.82,0,0,1-.434-7.252,50.753,50.753,0,0,1,.087-7.265,50.823,50.823,0,0,1,.434,7.253A50.735,50.735,0,0,1,411.129,204.178Z"/><path class="k" d="M260.6,166.467l-50.1,62.742Z"/><path class="l" d="M258.922,174.209l47.79,54.326,4.031-.1-50.01-56.393Z"/><path class="i" d="M260.6,166.467,206.538,229.3l6.377-.152,47.818-57.106L310.759,229.1l2.216-2.794Z"/><path class="d" d="M260.6,166.467s.081.081.242.259l.717.8,2.8,3.161c2.465,2.8,6.065,6.879,10.647,12.078l38.139,43.394.123.14-.116.147c-.678.856-1.443,1.822-2.213,2.8l-.17.214-.18-.205c-14.66-16.707-31.8-36.235-50.05-57.035l.4,0-1.53,1.828C242.673,194,226.871,212.86,213.094,229.3l-.068.081-.1,0-6.377.147-.513.012.335-.387,39.311-45.509L256.7,170.925l2.9-3.337.744-.847c.167-.188.252-.274.252-.274s-.085.111-.251.311l-.744.882-2.9,3.4-10.971,12.842L206.71,229.452l-.177-.375,6.376-.158-.172.083L259,173.705l1.53-1.827.2-.233.2.229,50,57.078-.349.008,2.219-2.792.007.287-37.859-43.434-10.6-12.2-2.793-3.228c-.309-.361-.546-.638-.716-.835S260.6,166.467,260.6,166.467Z"/><path class="d" d="M214.1,273.944c-.144,0-.5-9.98-.794-22.295s-.416-22.307-.272-22.31.5,9.978.793,22.3S214.247,273.941,214.1,273.944Z"/><path class="d" d="M195.416,274.566c-.144,0-.5-9.98-.794-22.3s-.416-22.306-.272-22.309.5,9.977.793,22.3S195.56,274.562,195.416,274.566Z"/><rect class="f" width="18.68" height="38.872" transform="translate(247.915 233.845) rotate(-1.37)"/><path class="d" d="M250.1,256.678h0a.629.629,0,0,1-.644-.613l-.094-3.934a.629.629,0,0,1,.614-.643h0a.628.628,0,0,1,.643.613l.094,3.934A.628.628,0,0,1,250.1,256.678Z"/><path class="f" d="M250.328,255.4a.212.212,0,0,0-.423.011.2.2,0,0,0,.121.172l.005.229a.093.093,0,0,0,.1.086h0a.092.092,0,0,0,.093-.091l0-.229A.2.2,0,0,0,250.328,255.4Z"/><path class="d" d="M253.169,253.782l-2.839.068a.311.311,0,0,1-.318-.3h0a.311.311,0,0,1,.3-.318l2.839-.068a.31.31,0,0,1,.317.3h0A.309.309,0,0,1,253.169,253.782Z"/><path class="f" d="M251.277,253.845a1.7,1.7,0,0,1-.385.048,2.579,2.579,0,0,1-.426,0,.639.639,0,0,1-.493-.221.305.305,0,0,1-.022-.306.363.363,0,0,1,.231-.156,1.331,1.331,0,0,1,.426-.04,1.412,1.412,0,0,1,.39.022,1.462,1.462,0,0,1-.384.051,1.489,1.489,0,0,0-.4.059.2.2,0,0,0-.151.312c.213.244.612.184.829.2A1.24,1.24,0,0,1,251.277,253.845Z"/><path class="d" d="M256.946,242.335s-.03-.653-.065-1.767c-.037-1.253-.081-2.8-.133-4.579l.047.045-5.541.138.05-.052v.108l0,.11.005.218.01.433c.007.287.013.571.02.852q.02.841.038,1.645c.023,1.054.045,2.051.065,2.98l-.045-.043,4.009-.073c.97-.014,1.534-.015,1.534-.015s-.538.026-1.505.057l-4.036.119-.044,0v-.045c-.024-.929-.05-1.925-.077-2.98q-.02-.8-.041-1.644-.011-.423-.021-.853l-.01-.433-.006-.218,0-.109v-.107h0c-.045.047.062-.067.052-.055l5.541-.126h.046v.046c.034,1.794.063,3.348.087,4.609C256.945,241.708,256.946,242.335,256.946,242.335Z"/><path class="d" d="M256.015,241.571s-.027-.505-.056-1.356c-.031-1.017-.067-2.18-.107-3.481l.048.045-3.818.1c-.011.011.1-.1.051-.053v.083l0,.084,0,.167.007.331.016.652q.014.642.028,1.256c.016.793.032,1.55.047,2.265l-.044-.042,2.76-.043c.668-.008,1.06-.005,1.06-.005s-.366.022-1.032.046l-2.786.089h-.043v-.044c-.019-.714-.039-1.471-.061-2.265q-.015-.613-.031-1.255l-.016-.653-.008-.331,0-.167,0-.084v-.081h0c-.046.047.061-.066.051-.054l3.818-.086h.047v.046c.022,1.314.043,2.487.06,3.513C256.018,241.094,256.015,241.571,256.015,241.571Z"/><path class="d" d="M257.266,255.732c-.056-2.013-.162-5.764-.333-11.865l.05.048-5.54.135c.1-.107.027-.028.05-.051v.105l0,.107.005.215.01.428q.011.426.02.846.02.842.039,1.658c.025,1.085.049,2.135.072,3.141.044,1.984.084,3.793.118,5.365l-.038-.037,5.542-.1-5.541.171h-.038v-.038c-.04-1.572-.087-3.381-.138-5.364q-.038-1.511-.078-3.142-.02-.816-.04-1.657c-.007-.28-.014-.563-.021-.847l-.01-.427-.005-.215,0-.108V244c.023-.025-.052.05.051-.056l5.541-.13h.05v.049C257.152,249.968,257.226,253.72,257.266,255.732Z"/><path class="d" d="M256.338,255.1s-.015-.285-.032-.8c-.018-.611-.04-1.337-.066-2.189-.054-1.987-.123-4.556-.2-7.491l.052.049-3.818.093c.1-.107.028-.028.05-.051v.046l0,.048,0,.1,0,.194.01.386q.009.384.018.763l.034,1.49c.022.972.044,1.909.064,2.8.037,1.739.07,3.307.1,4.648l-.036-.034,3.819-.056s-.349.018-1.005.04l-2.812.086h-.036v-.035c-.035-1.341-.077-2.909-.123-4.648-.022-.894-.046-1.83-.07-2.8q-.018-.733-.037-1.49l-.018-.764-.01-.386,0-.194,0-.1v-.094c.023-.025-.051.05.052-.056l3.817-.089.051,0v.051c.061,2.948.115,5.53.156,7.526.015.848.028,1.57.038,2.178C256.34,254.828,256.338,255.1,256.338,255.1Z"/><path class="d" d="M257.625,270.762c-.056-2.014-.161-5.765-.333-11.866l.051.048-5.541.135c.1-.107.028-.028.05-.051v.051l0,.054,0,.107.005.215.01.428q.011.426.021.847.02.84.038,1.657c.025,1.085.05,2.135.073,3.142.043,1.983.083,3.793.118,5.364l-.039-.037,5.542-.094-5.54.17h-.038v-.038c-.041-1.571-.088-3.381-.139-5.364-.025-1.007-.051-2.056-.078-3.141q-.02-.818-.04-1.658c-.007-.28-.014-.563-.021-.847l-.01-.427,0-.215,0-.108v-.1c.023-.025-.052.05.052-.056l5.54-.13h.05v.049C257.512,265,257.586,268.749,257.625,270.762Z"/><path class="d" d="M256.7,270.126s-.015-.285-.031-.8c-.019-.611-.041-1.337-.067-2.189-.053-1.986-.123-4.556-.2-7.491l.051.049-3.818.093c.1-.107.028-.028.051-.051v.1l0,.1.005.194.009.386c.006.256.012.511.018.763l.035,1.49c.022.972.043,1.909.063,2.8.037,1.739.071,3.308.1,4.648l-.036-.034,3.819-.056s-.349.018-1,.04l-2.813.086h-.035v-.035c-.036-1.341-.078-2.909-.124-4.648-.022-.894-.046-1.83-.07-2.8q-.018-.734-.037-1.49l-.018-.764-.009-.386-.005-.194,0-.1v-.094c.023-.025-.051.05.052-.056l3.818-.089.05,0v.051c.061,2.948.115,5.53.157,7.527.014.847.027,1.569.038,2.177C256.7,269.857,256.7,270.126,256.7,270.126Z"/><path class="d" d="M252.285,241.658a1.834,1.834,0,0,1-.449.424,1.858,1.858,0,0,1-.514.342,1.918,1.918,0,0,1,.45-.424A1.89,1.89,0,0,1,252.285,241.658Z"/><path class="d" d="M256.975,242.241a1.571,1.571,0,0,1-.492-.291c-.257-.185-.45-.353-.431-.375a3.146,3.146,0,0,1,.923.666Z"/><path class="d" d="M256.715,236.14c.017.024-.161.179-.4.346a1.386,1.386,0,0,1-.457.262c-.017-.024.161-.179.4-.346A1.376,1.376,0,0,1,256.715,236.14Z"/><path class="d" d="M252.1,236.743a1.287,1.287,0,0,1-.466-.221c-.244-.149-.429-.288-.411-.311a2.545,2.545,0,0,1,.877.532Z"/><path class="d" d="M252.25,244.726a1.015,1.015,0,0,1-.488-.318.991.991,0,0,1-.317-.489c.026-.015.169.2.391.415S252.265,244.7,252.25,244.726Z"/><path class="d" d="M256.913,243.861c.019.022-.146.2-.368.385a1.393,1.393,0,0,1-.437.306c-.018-.022.147-.194.369-.385A1.425,1.425,0,0,1,256.913,243.861Z"/><path class="d" d="M252.5,255.243c.016.024-.156.161-.359.337s-.364.326-.386.306.108-.2.318-.385A.944.944,0,0,1,252.5,255.243Z"/><path class="d" d="M257.11,255.725c-.018.022-.2-.1-.407-.266s-.36-.324-.342-.346.2.1.408.266S257.128,255.7,257.11,255.725Z"/><path class="d" d="M252.7,259.878a1.926,1.926,0,0,1-.492-.383,1.858,1.858,0,0,1-.422-.461,3.771,3.771,0,0,1,.914.844Z"/><path class="d" d="M257.322,258.865a3.4,3.4,0,0,1-.866.814,3.4,3.4,0,0,1,.866-.814Z"/><path class="d" d="M252.765,270.159c.021.019-.112.2-.3.4s-.354.348-.376.328.113-.2.3-.4S252.744,270.139,252.765,270.159Z"/><path class="d" d="M257.534,270.764a1.376,1.376,0,0,1-.44-.3c-.227-.188-.394-.357-.374-.378a1.4,1.4,0,0,1,.44.3C257.383,270.571,257.55,270.74,257.534,270.764Z"/><path class="d" d="M264.321,242.159s-.029-.654-.065-1.768c-.036-1.252-.081-2.8-.132-4.578l.047.045L258.63,236c-.012.011.1-.1.05-.052V236l0,.055,0,.109.005.218.011.433q.009.431.02.853l.037,1.645c.023,1.054.045,2.051.066,2.98l-.045-.043,4.009-.073c.969-.015,1.533-.015,1.533-.015s-.538.025-1.505.057l-4.035.119h-.044v-.044c-.024-.929-.05-1.926-.078-2.98q-.02-.8-.04-1.645-.011-.422-.021-.852l-.011-.433-.005-.218,0-.11v-.108c-.045.048.061-.066.051-.054l5.541-.126h.047v.046c.033,1.794.063,3.348.087,4.609C264.32,241.532,264.321,242.159,264.321,242.159Z"/><path class="d" d="M263.39,241.4s-.026-.505-.056-1.356c-.031-1.017-.066-2.18-.106-3.482l.048.046-3.818.1.05-.052h0v.082l0,.083,0,.167.008.332.015.652q.015.641.028,1.256c.017.793.033,1.55.048,2.265l-.044-.042,2.76-.044c.668-.007,1.059,0,1.059,0s-.366.021-1.031.045l-2.786.089-.043,0v-.044c-.019-.715-.04-1.472-.061-2.265q-.015-.615-.032-1.256l-.016-.652-.008-.331,0-.167,0-.084v-.081h0c-.045.047.062-.066.051-.055l3.818-.086h.047v.047c.023,1.314.043,2.487.061,3.513C263.393,240.918,263.39,241.4,263.39,241.4Z"/><path class="d" d="M264.642,255.556c-.057-2.014-.162-5.764-.333-11.866l.05.048-5.541.136c.1-.107.028-.028.05-.051v.1l0,.108.006.215.01.427c.006.284.013.567.02.847q.02.842.039,1.658c.025,1.085.049,2.134.072,3.141.044,1.983.083,3.793.118,5.365l-.039-.037,5.543-.1-5.541.171h-.038v-.039c-.041-1.571-.087-3.381-.139-5.364-.025-1.006-.051-2.056-.077-3.141q-.021-.816-.041-1.657c-.007-.281-.013-.563-.02-.847l-.011-.428,0-.215,0-.107,0-.054v-.051c.023-.024-.051.051.052-.055l5.541-.13h.049v.049C264.528,249.791,264.6,253.543,264.642,255.556Z"/><path class="d" d="M263.714,254.92s-.015-.284-.032-.8c-.019-.61-.041-1.336-.067-2.188-.053-1.987-.123-4.556-.2-7.491l.051.049-3.817.093c.1-.107.027-.028.05-.051v.094l0,.1.005.194.009.386c.006.257.012.511.018.764.012.5.024,1,.035,1.49.022.972.043,1.908.064,2.8.037,1.738.07,3.307.1,4.648l-.037-.035,3.82-.056s-.349.018-1,.04l-2.813.087h-.035v-.036c-.036-1.34-.077-2.909-.123-4.647-.023-.894-.046-1.831-.071-2.8q-.018-.733-.036-1.491c-.006-.252-.013-.507-.019-.763l-.009-.386-.005-.194,0-.1v-.1c.023-.024-.052.051.051-.055l3.818-.09h.05v.05c.062,2.949.115,5.531.157,7.527l.038,2.178C263.716,254.652,263.714,254.92,263.714,254.92Z"/><path class="d" d="M265,270.585c-.057-2.013-.162-5.764-.333-11.865l.05.047-5.54.136c.1-.107.027-.028.05-.051v.1l0,.108.005.215.01.427c.007.284.013.567.02.847q.02.842.039,1.658c.025,1.085.049,2.135.072,3.141.044,1.983.084,3.793.118,5.365l-.039-.037,5.543-.1-5.541.171h-.038v-.038c-.04-1.572-.087-3.382-.138-5.365-.025-1.006-.051-2.056-.078-3.141q-.02-.816-.041-1.657-.009-.422-.02-.847l-.01-.428-.005-.214,0-.108v-.105c.023-.024-.052.051.051-.055l5.541-.13h.05v.049C264.887,264.82,264.961,268.572,265,270.585Z"/><path class="d" d="M264.073,269.949s-.015-.284-.032-.8c-.018-.611-.04-1.337-.066-2.189-.054-1.987-.123-4.556-.2-7.491l.052.049-3.818.093c.1-.107.028-.028.05-.051v.094l0,.1,0,.194.01.386c.006.257.012.511.018.764q.017.758.034,1.49c.022.972.044,1.909.064,2.8.037,1.738.07,3.307.1,4.648l-.036-.035,3.819-.056s-.349.018-1.005.04l-2.813.087h-.035v-.035c-.035-1.341-.077-2.91-.123-4.648-.023-.894-.046-1.831-.07-2.8q-.018-.734-.037-1.491c-.006-.252-.012-.507-.018-.763l-.01-.386,0-.194,0-.1v-.1c.023-.024-.051.051.051-.055l3.818-.09h.051v.05c.061,2.949.115,5.531.156,7.527.015.848.028,1.57.038,2.178C264.075,269.681,264.073,269.949,264.073,269.949Z"/><path class="d" d="M259.661,241.482a3.643,3.643,0,0,1-.963.766,3.644,3.644,0,0,1,.963-.766Z"/><path class="d" d="M264.351,242.064a1.568,1.568,0,0,1-.492-.29,1.6,1.6,0,0,1-.432-.375,1.6,1.6,0,0,1,.493.29A1.686,1.686,0,0,1,264.351,242.064Z"/><path class="d" d="M264.091,235.964c.016.024-.161.178-.4.346a1.331,1.331,0,0,1-.457.261c-.016-.023.161-.178.4-.346A1.373,1.373,0,0,1,264.091,235.964Z"/><path class="d" d="M259.47,236.567a1.28,1.28,0,0,1-.465-.222c-.245-.148-.429-.288-.412-.311a2.543,2.543,0,0,1,.877.533Z"/><path class="d" d="M259.625,244.549a1.019,1.019,0,0,1-.487-.318,1,1,0,0,1-.318-.488c.027-.015.17.2.391.414S259.641,244.523,259.625,244.549Z"/><path class="d" d="M264.289,243.685c.018.022-.147.194-.369.385a1.4,1.4,0,0,1-.436.306c-.019-.022.146-.2.368-.385A1.393,1.393,0,0,1,264.289,243.685Z"/><path class="d" d="M259.875,255.066c.016.025-.156.162-.359.338s-.364.325-.387.306.108-.2.319-.385A.947.947,0,0,1,259.875,255.066Z"/><path class="d" d="M264.486,255.549c-.019.022-.2-.1-.408-.266s-.36-.324-.341-.347.2.1.407.266S264.5,255.526,264.486,255.549Z"/><path class="d" d="M260.08,259.7a1.912,1.912,0,0,1-.493-.384,1.892,1.892,0,0,1-.421-.46,3.771,3.771,0,0,1,.914.844Z"/><path class="d" d="M264.7,258.689a3.465,3.465,0,0,1-.866.813,3.42,3.42,0,0,1,.866-.813Z"/><path class="d" d="M260.141,269.982c.021.02-.113.2-.3.4s-.354.347-.375.328.113-.2.3-.4S260.12,269.963,260.141,269.982Z"/><path class="d" d="M264.909,270.587a1.365,1.365,0,0,1-.44-.3c-.226-.188-.393-.357-.373-.378a1.43,1.43,0,0,1,.44.3C264.758,270.394,264.926,270.564,264.909,270.587Z"/><path class="d" d="M206.538,229.3a2.53,2.53,0,0,1-.5.051l-1.458.072-5.493.2-19.256.555-.2.006-.039-.2c-1.048-5.348-2.21-11.275-3.433-17.509-2.32-12.067-4.42-22.989-5.951-30.949l-1.745-9.39q-.282-1.614-.448-2.558c-.042-.267-.076-.486-.1-.668a.785.785,0,0,1-.018-.23.737.737,0,0,1,.07.22l.155.658q.2.936.544,2.539c.46,2.257,1.109,5.442,1.908,9.359,1.569,7.953,3.722,18.864,6.1,30.919,1.207,6.237,2.355,12.168,3.391,17.518l-.24-.193,19.26-.366,5.5-.064,1.46,0A2.5,2.5,0,0,1,206.538,229.3Z"/><path class="i" d="M374.008,105.447l48.7,60.058-5.9.141L371.7,108.7Z"/><path class="d" d="M374.008,105.447a2.26,2.26,0,0,1-.139.217c-.1.155-.241.358-.418.619l-1.688,2.46,0-.094c5.991,7.4,23.9,29.888,45.258,56.836l-.21-.1,3.287-.079,2.611-.062-.2.424-34.342-42.534-10.36-12.9-2.817-3.526-.733-.929c-.165-.212-.25-.325-.25-.334a3.025,3.025,0,0,1,.249.282l.732.878,2.825,3.431c2.478,3.025,6.036,7.371,10.435,12.744l34.665,42.559.335.412-.531.013-2.611.062-3.287.078-.13,0-.08-.1c-21.347-26.954-39.142-49.537-44.972-57.062l-.037-.047.034-.046,1.8-2.448.434-.581A1.441,1.441,0,0,1,374.008,105.447Z"/><path class="d" d="M332.538,165.032c0,.144-8.985.475-20.073.74s-20.083.364-20.087.22,8.983-.475,20.075-.74S332.534,164.888,332.538,165.032Z"/><rect class="e" width="12.836" height="38.872" transform="translate(279.054 233.1) rotate(-1.37)"/><path class="d" d="M292.816,271.655a1.072,1.072,0,0,1-.021-.207c-.008-.156-.018-.345-.03-.576q-.032-.809-.085-2.2c-.064-1.944-.154-4.7-.266-8.141-.2-6.935-.467-16.6-.78-27.732l.258.246-12.829.315c.5-.534.14-.142.252-.258v.08l0,.091,0,.183.009.364.017.727q.018.725.035,1.446.033,1.44.067,2.86.066,2.836.129,5.575c.08,3.645.158,7.143.231,10.447.133,6.591.249,12.407.343,17.081l-.174-.166,9.388-.131,2.543-.019.666,0a1.336,1.336,0,0,1,.239.012.931.931,0,0,1-.2.022l-.636.033-2.5.1-9.486.32-.17.006-.005-.173c-.13-4.673-.291-10.488-.474-17.078-.085-3.3-.174-6.8-.268-10.446q-.068-2.736-.138-5.575-.035-1.419-.069-2.86-.018-.72-.035-1.446l-.017-.727-.009-.364-.005-.182,0-.092v-.08c.115-.121-.256.257.257-.275l12.829-.3.254-.006.005.253c.22,11.2.412,20.932.55,27.911.052,3.416.093,6.156.122,8.086q.012,1.359.019,2.148A5.938,5.938,0,0,1,292.816,271.655Z"/><path class="d" d="M292.254,243.216a39.77,39.77,0,0,1-6.409.414,39.684,39.684,0,0,1-6.422-.107,39.666,39.666,0,0,1,6.409-.413A39.911,39.911,0,0,1,292.254,243.216Z"/><path class="d" d="M292.6,259.326a39.671,39.671,0,0,1-6.408.413,39.9,39.9,0,0,1-6.422-.106,39.729,39.729,0,0,1,6.409-.414A39.68,39.68,0,0,1,292.6,259.326Z"/><path class="d" d="M286.516,271.708c-.144,0-.467-8.612-.721-19.239s-.343-19.25-.2-19.254.466,8.61.72,19.241S286.66,271.7,286.516,271.708Z"/><rect class="e" width="12.836" height="38.872" transform="translate(360.897 231.061) rotate(-1.37)"/><path class="d" d="M374.658,269.615a1.22,1.22,0,0,1-.02-.206l-.03-.576q-.031-.809-.085-2.2c-.064-1.944-.154-4.7-.266-8.141-.195-6.935-.467-16.6-.78-27.732l.258.246-12.829.315c.5-.534.14-.142.252-.258v.08l0,.091,0,.182.009.365.017.727q.018.725.035,1.446.033,1.44.067,2.859.064,2.838.128,5.576c.081,3.645.159,7.143.232,10.446.132,6.592.249,12.408.343,17.082l-.175-.167,9.388-.13,2.543-.019.667,0a1.535,1.535,0,0,1,.238.011.79.79,0,0,1-.2.023l-.636.033-2.5.1-9.485.32-.171.006,0-.173c-.13-4.673-.291-10.488-.474-17.078-.085-3.3-.174-6.8-.268-10.446q-.068-2.736-.138-5.575-.035-1.419-.069-2.86-.018-.72-.035-1.446l-.018-.727-.008-.364-.005-.182,0-.092v-.08c.115-.121-.256.257.257-.275l12.829-.3.253-.006,0,.253c.221,11.2.413,20.932.551,27.911.052,3.416.093,6.156.122,8.086q.012,1.359.019,2.148A5.7,5.7,0,0,1,374.658,269.615Z"/><path class="d" d="M373.516,241.468a79.3,79.3,0,0,1-12.831.306,79.3,79.3,0,0,1,12.831-.306Z"/><path class="d" d="M373.862,257.577a79.151,79.151,0,0,1-12.831.307,79.151,79.151,0,0,1,12.831-.307Z"/><path class="d" d="M367.778,269.959c-.144,0-.466-8.611-.721-19.239s-.343-19.25-.2-19.253.466,8.609.72,19.241S367.922,269.956,367.778,269.959Z"/><rect class="e" width="12.836" height="38.872" transform="translate(375.98 230.977) rotate(-1.37)"/><path class="d" d="M389.741,269.531a1.27,1.27,0,0,1-.021-.206c-.008-.157-.018-.346-.029-.576q-.031-.809-.086-2.2c-.063-1.944-.153-4.7-.265-8.141-.2-6.935-.467-16.6-.78-27.733l.258.246-12.829.315c.5-.533.139-.141.252-.257v.034l0,.046,0,.091,0,.182.009.365.017.726q.018.726.034,1.446.035,1.441.068,2.86.064,2.838.128,5.575c.081,3.646.159,7.143.232,10.447.132,6.592.249,12.408.343,17.082l-.175-.167,9.388-.131,2.543-.019.667,0a1.537,1.537,0,0,1,.238.011.784.784,0,0,1-.2.022l-.636.034-2.5.1-9.486.32-.17.006,0-.173c-.13-4.673-.291-10.488-.474-17.078-.085-3.3-.175-6.8-.268-10.446q-.068-2.736-.138-5.575-.035-1.419-.069-2.86-.018-.72-.035-1.446l-.018-.727-.009-.364,0-.183,0-.091v-.08c.114-.121-.256.256.256-.275l12.83-.3.253-.006.005.252c.221,11.2.413,20.932.551,27.912.051,3.416.093,6.156.122,8.086q.012,1.359.019,2.147A5.736,5.736,0,0,1,389.741,269.531Z"/><path class="d" d="M389.179,241.093a79.148,79.148,0,0,1-12.831.307,79.156,79.156,0,0,1,12.831-.307Z"/><path class="d" d="M389.525,257.2a79.151,79.151,0,0,1-12.831.307,79.464,79.464,0,0,1,12.831-.307Z"/><path class="d" d="M383.441,269.585c-.143,0-.466-8.612-.72-19.24s-.344-19.249-.2-19.253.466,8.61.721,19.241S383.585,269.581,383.441,269.585Z"/><rect class="e" width="12.836" height="38.872" transform="matrix(1, -0.024, 0.024, 1, 223.653, 234.425)"/><path class="d" d="M237.414,272.979a1.054,1.054,0,0,1-.021-.206l-.03-.576q-.032-.809-.085-2.2c-.063-1.944-.153-4.7-.266-8.142-.195-6.934-.466-16.6-.779-27.732l.258.246-12.83.315c.5-.534.14-.141.252-.257v.08l0,.091,0,.182.008.364.018.727q.017.726.034,1.446.035,1.442.067,2.86.066,2.837.129,5.575c.081,3.646.158,7.143.232,10.447.132,6.592.249,12.408.343,17.082l-.175-.167,9.388-.131,2.543-.019.667,0a1.458,1.458,0,0,1,.238.012.789.789,0,0,1-.2.022l-.635.034-2.5.1-9.486.321-.17.005-.005-.172c-.129-4.673-.291-10.488-.474-17.079-.084-3.3-.174-6.8-.267-10.446q-.067-2.734-.138-5.575-.034-1.418-.07-2.859-.017-.721-.035-1.446l-.017-.727-.009-.364,0-.183,0-.091,0-.046v-.034c.114-.121-.257.256.256-.275l12.83-.3.253-.006.005.252c.221,11.2.413,20.932.55,27.911.052,3.416.093,6.157.123,8.087q.012,1.359.018,2.147A5.931,5.931,0,0,1,237.414,272.979Z"/><path class="d" d="M236.852,244.541a39.756,39.756,0,0,1-6.409.414,39.831,39.831,0,0,1-6.422-.107,39.758,39.758,0,0,1,6.41-.414A39.69,39.69,0,0,1,236.852,244.541Z"/><path class="d" d="M237.2,260.65a39.765,39.765,0,0,1-6.409.414,39.685,39.685,0,0,1-6.422-.107,39.738,39.738,0,0,1,6.409-.414A39.978,39.978,0,0,1,237.2,260.65Z"/><path class="d" d="M231.114,273.032c-.144,0-.466-8.611-.72-19.239s-.344-19.25-.2-19.253.466,8.609.72,19.241S231.258,273.029,231.114,273.032Z"/><rect class="e" width="29.003" height="21.502" transform="matrix(1, -0.024, 0.024, 1, 242.664, 199.965)"/><path class="d" d="M272.173,220.768a3.153,3.153,0,0,1-.034-.412c-.013-.3-.03-.678-.051-1.157-.038-1.045-.092-2.509-.159-4.36-.117-3.771-.283-9.109-.483-15.562l.218.208-28.992.74c-.057.058.479-.5.252-.263v.085l0,.09.005.181.008.361.017.72q.018.72.034,1.433.034,1.428.067,2.833.064,2.808.127,5.514c.08,3.6.156,7.044.227,10.277l-.241-.23,20.864-.382,5.97-.08,1.6-.01a5.05,5.05,0,0,1,.569.014,3.469,3.469,0,0,1-.514.04l-1.55.065-5.914.2-21.012.62-.235.007-.006-.237c-.083-3.232-.171-6.676-.264-10.276q-.066-2.7-.136-5.514-.035-1.4-.069-2.832-.018-.714-.035-1.433l-.017-.721-.009-.36,0-.181,0-.091v-.084c-.228.236.309-.329.256-.27l28.993-.646.215-.005,0,.213c.109,6.51.2,11.9.264,15.7.021,1.831.037,3.28.048,4.314,0,.463,0,.832,0,1.119A2.061,2.061,0,0,1,272.173,220.768Z"/><path class="d" d="M264.729,204.811a49.985,49.985,0,0,1-5.849,4.223,50.148,50.148,0,0,1-6.139,3.791,50.051,50.051,0,0,1,5.85-4.224A50.221,50.221,0,0,1,264.729,204.811Z"/><path class="d" d="M257.251,212.532a19.188,19.188,0,0,1-5.342,3.347,19.227,19.227,0,0,1,5.342-3.347Z"/><rect class="e" width="29.003" height="21.502" transform="matrix(1, -0.024, 0.024, 1, 309.292, 237.712)"/><path class="d" d="M338.8,258.515a3.047,3.047,0,0,1-.033-.411c-.014-.3-.031-.679-.052-1.158-.038-1.045-.091-2.509-.159-4.359-.117-3.772-.283-9.11-.483-15.563l.218.208-28.991.741c-.058.057.478-.5.251-.264v.085l0,.091,0,.18.009.361.017.721q.016.719.034,1.432.033,1.428.066,2.833.064,2.81.127,5.514c.08,3.6.156,7.044.227,10.277l-.241-.23,20.865-.382,5.969-.079,1.6-.01a4.923,4.923,0,0,1,.569.013,3.3,3.3,0,0,1-.514.04l-1.55.065-5.913.205-21.012.619-.235.007-.006-.237c-.084-3.232-.172-6.675-.265-10.276q-.066-2.7-.136-5.514-.035-1.4-.069-2.832-.018-.714-.035-1.433l-.017-.72-.009-.361,0-.181,0-.09v-.085c-.228.236.309-.329.256-.27l28.994-.646.214-.005,0,.213c.109,6.51.2,11.9.264,15.7.021,1.831.037,3.28.049,4.315,0,.462,0,.832,0,1.118A1.939,1.939,0,0,1,338.8,258.515Z"/><path class="d" d="M331.357,242.558a50.052,50.052,0,0,1-5.849,4.224,50.06,50.06,0,0,1-6.139,3.79,100.253,100.253,0,0,1,11.988-8.014Z"/><path class="d" d="M323.879,250.28a19.23,19.23,0,0,1-5.341,3.346,19.168,19.168,0,0,1,5.341-3.346Z"/><rect class="e" width="29.003" height="29.003" transform="translate(356.175 169.775) rotate(-1.37)"/><path class="d" d="M385.863,198.077a4.922,4.922,0,0,1-.039-.557c-.016-.39-.037-.911-.064-1.573-.047-1.4-.115-3.4-.2-5.915-.15-5.093-.362-12.3-.616-20.945l.231.22-28.991.728c-.059.057.478-.5.251-.261v.054l0,.062,0,.125.006.248.012.5.023.989q.024.987.047,1.966.045,1.958.091,3.877c.058,2.557.116,5.06.172,7.5.107,4.867.208,9.461.3,13.677l-.23-.219,20.95-.386,5.918-.083,1.574-.011a4.9,4.9,0,0,1,.558.012,3.809,3.809,0,0,1-.507.037l-1.53.063-5.864.2-21.089.619-.224.007-.006-.227c-.109-4.216-.228-8.81-.353-13.676q-.092-3.652-.186-7.495-.047-1.919-.1-3.877-.023-.978-.047-1.965l-.024-.99-.012-.5-.006-.249,0-.124v-.117c-.227.236.309-.33.257-.271l28.993-.658.226,0,0,.225c.16,8.7.294,15.964.389,21.093.035,2.5.062,4.476.082,5.867,0,.644.007,1.152.01,1.531A3.729,3.729,0,0,1,385.863,198.077Z"/><path class="d" d="M378.244,174.785a49.982,49.982,0,0,1-5.849,4.223,50.3,50.3,0,0,1-6.139,3.791,99.723,99.723,0,0,1,11.988-8.014Z"/><path class="d" d="M370.766,182.506a19.227,19.227,0,0,1-5.342,3.347,19.227,19.227,0,0,1,5.342-3.347Z"/><rect class="b" width="21.848" height="8.092" transform="translate(404.748 203.015) rotate(-1.37)"/><path class="d" d="M426.611,189.155a.9.9,0,1,1-.925-.881A.9.9,0,0,1,426.611,189.155Z"/><path class="a" d="M192.384,275.75l-9.173.219L176.149,282l9.785,1.719,12.816-3.04Z"/><path class="a" d="M197.768,275.621l3.521,3.822,7.524.632L210,275.328Z"/><path class="a" d="M214.037,275.232l-2.989,5.262,9.475,4.686,7.51-7.688-7.01-2.428Z"/><path class="d" d="M475.49,267.287c0,.144-83.635,2.26-186.789,4.726-103.189,2.467-186.816,4.35-186.819,4.206s83.618-2.259,186.807-4.726C391.842,269.026,475.487,267.143,475.49,267.287Z"/><rect class="a" width="9.393" height="2.94" transform="translate(252.275 226.067) rotate(-1.37)"/><path class="a" d="M228.376,274.889l5.9,3.765,6.846-4.069Z"/><path class="a" d="M239.145,278.915l6.323-4.428,10.922-.261-3.646,7.638Z"/><path class="a" d="M258.966,274.164l-1.07,5.444,10.464-.25-4.168-5.319Z"/><path class="a" d="M268.236,274.182l5.821,4.8,10.562-5.192Z"/><path class="a" d="M288.137,273.706l-5.28,3.786,9.323,3.429,11.307-2.4,1.645-4.317-5.27-1.021Z"/><path class="a" d="M310.156,273.831l-1.448,2.916,5.139,1.523,3.761-4.617Z"/><path class="a" d="M321.709,272.9l-3.379,4.887,6.522,4.057,12.5-2.547,5.7-6.907Z"/><path class="f" d="M142.564,271.005c2.242-.716,5.523,1.071,7.374,2.524-.628-1.98,1.183-4.058,3.21-4.511s4.116.235,6.079.914a7.172,7.172,0,0,1,11.993-7.6,13.961,13.961,0,0,1,12.589,4.353c-.754-.748.167-2.163,1.229-2.18a3.5,3.5,0,0,1,2.586,1.652,14.463,14.463,0,0,1,2.964,7.83L138.475,275.3A5.725,5.725,0,0,1,142.564,271.005Z"/><path class="f" d="M336.539,268.244a3.691,3.691,0,0,0-6.923-.208,5.579,5.579,0,0,0-1.853-3.1,3.248,3.248,0,0,0-3.452-.417,2.318,2.318,0,0,0-.918,3.143l-6.647-5.537c-.683-.568-1.72-1.137-2.364-.526a1.806,1.806,0,0,0-.313,1.555,24.973,24.973,0,0,0,1.538,6.087,5.408,5.408,0,0,0-4.722-1.492,6.875,6.875,0,0,0-4.279,3.639l38.9-.93A6.7,6.7,0,0,0,336.539,268.244Z"/><path class="d" d="M403.657,157.4a.879.879,0,0,1,.025.215c.009.165.02.373.035.637q.033.883.1,2.476c.068,2.195.166,5.358.29,9.35.216,8.054.521,19.448.882,32.928l-.243-.231,21.842-.543.258-.007.006.259c.063,2.578.129,5.315.2,8.089l.006.261-.26.006-2.064.049-19.778.464.245-.257c.361,16.659.675,31.109.9,41.426.091,5.124.164,9.221.214,12.067.015,1.386.027,2.467.036,3.23l0,.835a1.314,1.314,0,0,1-.016.284,1.454,1.454,0,0,1-.029-.283c-.011-.21-.024-.485-.042-.834-.028-.762-.068-1.842-.119-3.228-.085-2.845-.208-6.94-.362-12.063-.27-10.316-.647-24.765-1.082-41.422l-.007-.252.253-.006,19.778-.481,2.063-.05-.254.267c-.065-2.774-.13-5.512-.191-8.09l.264.252-21.842.5-.238.005-.005-.236c-.284-13.483-.523-24.878-.693-32.934-.067-3.993-.12-7.156-.157-9.352q-.014-1.593-.022-2.479l0-.637A.966.966,0,0,1,403.657,157.4Z"/><path class="d" d="M338.468,221.434c-.144,0-.6-14.407-1.03-32.182s-.653-32.195-.509-32.2.605,14.4,1.03,32.185S338.612,221.431,338.468,221.434Z"/><path class="d" d="M161.179,272.719c-.144,0-.5-9.872-.788-22.056s-.411-22.066-.268-22.07.5,9.871.788,22.058S161.322,272.716,161.179,272.719Z"/><path class="d" d="M183.284,317.864c-.143.012-.833-6.8-1.541-15.216s-1.165-15.25-1.022-15.262.833,6.8,1.541,15.218S183.427,317.852,183.284,317.864Z"/><path class="d" d="M168.409,140.974c-.143.012-1.565-15.5-3.175-34.65s-2.8-34.685-2.657-34.7,1.565,15.5,3.176,34.653S168.552,140.962,168.409,140.974Z"/><path class="d" d="M261.011,338.981c-.144.005-.63-11.689-1.086-26.116s-.709-26.13-.566-26.135.63,11.687,1.086,26.119S261.154,338.977,261.011,338.981Z"/><path class="d" d="M255.323,159.006c-.144.005-.72-14.535-1.287-32.472s-.91-32.486-.766-32.491.72,14.532,1.287,32.475S255.467,159,255.323,159.006Z"/><path class="d" d="M342.573,304.968c-.144,0-.248-5.085-.234-11.354s.144-11.353.288-11.352.248,5.082.233,11.354S342.717,304.968,342.573,304.968Z"/><path class="d" d="M343.069,95.442c-.144,0-.242-7.9-.219-17.652s.159-17.654.3-17.654.242,7.9.219,17.655S343.213,95.442,343.069,95.442Z"/><path class="d" d="M424.787,324.462c-.144,0-.367-10.07-.5-22.492s-.12-22.5.023-22.5.367,10.068.5,22.495S424.93,324.461,424.787,324.462Z"/><path class="d" d="M422.372,95.356a48.626,48.626,0,0,1-.336-7.1,48.616,48.616,0,0,1,.186-7.1,48.56,48.56,0,0,1,.335,7.1A48.877,48.877,0,0,1,422.372,95.356Z"/><path class="c" d="M225.026,286.9l5.359-6.872,4.525,1.375,2.673-1.307,7.483,2.208.16,6.68-7.259,2.227Z"/><path class="c" d="M202.34,282.308l4.36-.1,9.214,4.34-8.892,3.735L193.7,285.822Z"/><path class="c" d="M247.938,283.686l.107,4.459,8.62-2.437-1.507-2.194Z"/><path class="c" d="M275.716,281.569l5.97-2.529,9.986,4.44-8.618,2.288-11.9-1.8Z"/><path class="c" d="M296.269,282.53l9.687-2.7,5.533.628,1.872,3.237-11.6,3.164-7.582-3.283Z"/><path class="c" d="M314.951,280.376l.079,3.308,11.839,1.432Z"/><path class="c" d="M168.621,283.115l8.033-6.126-15.364.367-9.233,2.074,6.195,4.948Z"/><path class="c" d="M152.138,282.833l-5.615-5.124-11.211.268,1.251,3.444,8.485,3.017Z"/><path class="c" d="M342.25,278.963l4.64-6.01,8.5-.2,2.1,5.006-5.74,3.448Z"/><path class="c" d="M359.342,272.655l2.063,4.239,6.524-.586,6.205-4.006Z"/><path class="d" d="M237.427,437.688a10.7,10.7,0,0,1,1.135,1.277c.71.84,1.688,2.1,2.849,3.684a96.176,96.176,0,0,1,13.833,27.328c.592,1.876,1.026,3.408,1.282,4.477a10.669,10.669,0,0,1,.357,1.671,10.7,10.7,0,0,1-.553-1.616c-.315-1.05-.8-2.562-1.435-4.416a109.361,109.361,0,0,0-13.784-27.231c-1.118-1.609-2.049-2.9-2.709-3.772A10.777,10.777,0,0,1,237.427,437.688Z"/><path class="d" d="M257.922,424.91a2.07,2.07,0,0,1,.071.529c.028.4.061.906.1,1.517.071,1.317.2,3.223.38,5.574.363,4.7,1.06,11.185,2.3,18.272s2.792,13.424,4.047,17.969c.626,2.274,1.155,4.109,1.536,5.372.168.588.307,1.07.419,1.461a2.108,2.108,0,0,1,.113.521,2.028,2.028,0,0,1-.213-.488l-.512-1.432c-.441-1.246-1.025-3.067-1.7-5.333a163.373,163.373,0,0,1-6.356-36.317c-.137-2.359-.207-4.27-.215-5.592,0-.612,0-1.114-.005-1.521A2.072,2.072,0,0,1,257.922,424.91Z"/><path class="d" d="M280.032,442.57a6.754,6.754,0,0,1-.426,1.281c-.313.808-.731,1.99-1.208,3.46a61.508,61.508,0,0,0-2.823,23.823c.12,1.541.251,2.788.366,3.646a6.663,6.663,0,0,1,.114,1.345,6.74,6.74,0,0,1-.314-1.314c-.178-.851-.365-2.1-.532-3.644a54.92,54.92,0,0,1,2.841-23.974c.524-1.465,1-2.632,1.369-3.419A6.668,6.668,0,0,1,280.032,442.57Z"/><path class="d" d="M365.625,459.84a3.021,3.021,0,0,1,.878.2,16.583,16.583,0,0,1,2.294.862,23.314,23.314,0,0,1,11.346,11.147,16.442,16.442,0,0,1,.9,2.279,2.939,2.939,0,0,1,.211.874c-.089.031-.495-1.179-1.443-2.988a25.636,25.636,0,0,0-11.176-10.98C366.813,460.315,365.6,459.93,365.625,459.84Z"/><path class="d" d="M380.873,439.408c.143-.02,1.429,7.979,2.873,17.865s2.5,17.921,2.357,17.941-1.428-7.976-2.873-17.866S380.731,439.429,380.873,439.408Z"/><path class="m" d="M114.784,413.294a12,12,0,0,1,7.611,5.515,21.184,21.184,0,0,1,2.9,9.133c.671,6.2-1.4,13.069-4.011,18.728-6.085-3.3-8.994-10.787-10.231-14.677-1.955-6.149-1.754-18.45,3.736-18.7"/><path class="m" d="M129.433,455.319a10.239,10.239,0,0,1,1.1-10.224,13.6,13.6,0,0,1,9.1-5.252c1.646-.239,3.5-.159,4.728.966a4.379,4.379,0,0,1,1.037,4.316A8.87,8.87,0,0,1,142.9,449c-3.789,3.757-8.146,6.7-13.468,6.317"/><path class="d" d="M127.061,475.316a7.245,7.245,0,0,1-.1-1.281c-.036-.909-.082-2.084-.138-3.495a35.96,35.96,0,0,1,1.06-11.5,22.008,22.008,0,0,1,5.861-9.9,14.918,14.918,0,0,1,2.827-2.091,9.217,9.217,0,0,1,.852-.433c.2-.09.306-.131.313-.117a23.468,23.468,0,0,0-3.771,2.872,22.728,22.728,0,0,0-5.649,9.8,38.732,38.732,0,0,0-1.173,11.366c.007,1.476.012,2.672-.007,3.5A6.769,6.769,0,0,1,127.061,475.316Z"/><path class="d" d="M115.458,422.675a2.529,2.529,0,0,1,.184.528l.442,1.537c.376,1.337.895,3.278,1.516,5.683,1.242,4.807,2.866,11.474,4.493,18.875s2.946,14.138,3.833,19.024c.444,2.443.786,4.423,1,5.794l.244,1.58a2.575,2.575,0,0,1,.054.557,2.707,2.707,0,0,1-.144-.541c-.084-.4-.193-.923-.326-1.565l-1.147-5.766c-.967-4.868-2.336-11.588-3.96-18.986s-3.2-14.07-4.362-18.895l-1.376-5.716c-.148-.639-.267-1.156-.36-1.558A2.665,2.665,0,0,1,115.458,422.675Z"/><path class="m" d="M121.452,460.974a23.958,23.958,0,0,0-16.6-14.262c-1.884-.433-4.224-.467-5.338,1.111s-.293,3.785.787,5.392a20.466,20.466,0,0,0,21.146,8.282"/><path class="d" d="M106.958,452.26a6.264,6.264,0,0,1,1.186.229,11.786,11.786,0,0,1,1.366.377c.521.183,1.136.338,1.772.626a21.161,21.161,0,0,1,2.077.939,23.482,23.482,0,0,1,2.278,1.3,26.656,26.656,0,0,1,4.63,3.812,26.106,26.106,0,0,1,3.568,4.823,22.89,22.89,0,0,1,1.156,2.352,19.3,19.3,0,0,1,.8,2.137,17.652,17.652,0,0,1,.5,1.813,10.7,10.7,0,0,1,.269,1.392,6.088,6.088,0,0,1,.132,1.2c-.1.019-.3-1.7-1.2-4.3a20.79,20.79,0,0,0-.84-2.087,23.949,23.949,0,0,0-1.174-2.3,27.111,27.111,0,0,0-3.535-4.719,27.675,27.675,0,0,0-4.53-3.774,24.665,24.665,0,0,0-2.222-1.311c-.7-.4-1.4-.693-2.027-.977C108.621,452.71,106.932,452.356,106.958,452.26Z"/><path class="n" d="M566.2,232.93a12.011,12.011,0,0,0-1.867-4.856c-1.645-2.54-6.035-5.407-6.132-7.414s-2.332-1.117-2.562,1.282c-.147,1.528,1.74,6.186,1.74,6.186s-3.756-.133-5.7-2.15-9.41-6.79-10.611-5.9c-1.36,1.006.653,2.053,1.42,2.839.584.6,5.232,4.856,5.232,4.856s-10.692-3.488-12.2-3.367c-1.64.132-.5,1.875.17,2.1.423.141-1.319.882-.361,2.481.651,1.087,4.8,3.335,6.007,3.7l2.5.762-7.854-1.4s-1.666.825-.014,1.983c.737.516,22.883,10.52,24.645,11.142,3.045,1.076,7.437,2.452,7.437,2.452l3.779-12.838Z"/><path class="f" d="M651.726,449.632l-.007,26.334-32.763.159c.177-3.13,17.1-9.5,17.1-9.5l-.689-16.872Z"/><g class="o"><path class="e" d="M646.176,465.159a1.338,1.338,0,0,1,.932,1.523,1.288,1.288,0,0,1-1.5.938,1.413,1.413,0,0,1-.979-1.618,1.335,1.335,0,0,1,1.67-.8"/></g><g class="o"><path class="e" d="M651.719,475.966v-2.659l-31.478,1.15s-1.455.642-1.286,1.668Z"/></g><path class="d" d="M635.52,466.464c.006.16.806.229,1.6.739.8.49,1.212,1.182,1.359,1.117.147-.032-.1-.987-1.063-1.588S635.485,466.318,635.52,466.464Z"/><path class="d" d="M632.091,467.9c-.036.156.658.424,1.205,1.1.566.658.707,1.389.866,1.381.15.025.256-.913-.439-1.738S632.093,467.75,632.091,467.9Z"/><path class="d" d="M630.159,472.025c.145.033.364-.767-.051-1.642s-1.165-1.219-1.232-1.085c-.09.132.4.6.728,1.323C629.951,471.335,630,472.01,630.159,472.025Z"/><path class="d" d="M635.79,462.6c.067.145.8-.079,1.705-.022.906.038,1.611.339,1.693.2.092-.116-.6-.705-1.664-.757S635.71,462.476,635.79,462.6Z"/><path class="d" d="M636.551,458.711a3.085,3.085,0,0,0,1.641-.017,7.347,7.347,0,0,0,1.714-.536,7.7,7.7,0,0,0,.94-.5,2.018,2.018,0,0,0,.493-.389.7.7,0,0,0,.069-.851.876.876,0,0,0-.7-.362,2.127,2.127,0,0,0-.615.088,5.871,5.871,0,0,0-1.019.355,5.8,5.8,0,0,0-1.508,1c-.757.708-1.013,1.307-.958,1.337.073.053.44-.45,1.211-1.035a6.517,6.517,0,0,1,1.459-.831,6.123,6.123,0,0,1,.941-.3c.346-.093.641-.1.731.057.033.059.037.082-.035.184a1.63,1.63,0,0,1-.363.283,8.6,8.6,0,0,1-.864.5,9.175,9.175,0,0,1-1.584.616A11.152,11.152,0,0,0,636.551,458.711Z"/><path class="d" d="M636.76,458.939a2.61,2.61,0,0,0,.425-1.587,5.3,5.3,0,0,0-.655-2.789,1.355,1.355,0,0,0-1.051-.824.768.768,0,0,0-.683.461,2.214,2.214,0,0,0-.165.6,3.655,3.655,0,0,0,0,1.106,3.783,3.783,0,0,0,.709,1.691c.644.846,1.313,1.034,1.326.979.053-.08-.506-.386-1-1.2a3.775,3.775,0,0,1-.526-1.54,3.366,3.366,0,0,1,.025-.948c.05-.349.179-.63.31-.6.162,0,.44.258.576.535a5.382,5.382,0,0,1,.411.887,5.927,5.927,0,0,1,.326,1.636C636.841,458.315,636.673,458.915,636.76,458.939Z"/><path class="f" d="M674.48,447.9l-.264,28.141L639.2,475.89c.219-3.344,18.361-9.982,18.361-9.982l-.571-18.038Z"/><g class="o"><path class="e" d="M668.4,464.437a1.43,1.43,0,0,1,.982,1.636,1.375,1.375,0,0,1-1.613.987,1.509,1.509,0,0,1-1.031-1.738,1.426,1.426,0,0,1,1.792-.841"/></g><g class="o"><path class="e" d="M674.216,476.039l.027-2.841-33.65.921s-1.562.672-1.39,1.771Z"/></g><path class="d" d="M657,465.727c0,.171.859.252,1.7.806.853.531,1.284,1.274,1.441,1.206.158-.032-.093-1.055-1.12-1.707S656.961,465.57,657,465.727Z"/><path class="d" d="M653.319,467.23c-.04.166.7.46,1.277,1.186.6.708.742,1.491.912,1.484.161.027.283-.973-.452-1.862S653.323,467.068,653.319,467.23Z"/><path class="d" d="M651.214,471.617c.155.037.4-.816-.038-1.754s-1.233-1.315-1.306-1.173c-.1.141.42.645.765,1.421C651,470.878,651.044,471.6,651.214,471.617Z"/><path class="d" d="M657.323,461.6c.071.156.857-.076,1.823-.007.967.051,1.718.378,1.808.232.1-.123-.632-.759-1.771-.825S657.24,461.468,657.323,461.6Z"/><path class="d" d="M658.175,457.451a3.277,3.277,0,0,0,1.754,0,7.912,7.912,0,0,0,1.837-.556,8.251,8.251,0,0,0,1.009-.53,2.163,2.163,0,0,0,.531-.41.745.745,0,0,0,.082-.909.934.934,0,0,0-.747-.394,2.243,2.243,0,0,0-.658.088,6.25,6.25,0,0,0-1.092.369,6.16,6.16,0,0,0-1.621,1.055c-.816.748-1.1,1.386-1.038,1.419.078.057.475-.477,1.3-1.094a7.02,7.02,0,0,1,1.568-.875,6.586,6.586,0,0,1,1.008-.306c.371-.1.687-.1.781.069.035.063.039.087-.039.2a1.763,1.763,0,0,1-.391.3,9.137,9.137,0,0,1-.928.526,9.761,9.761,0,0,1-1.7.642A12.3,12.3,0,0,0,658.175,457.451Z"/><path class="d" d="M658.4,457.7a2.792,2.792,0,0,0,.469-1.691,5.672,5.672,0,0,0-.231-1.921,5.732,5.732,0,0,0-.442-1.067,1.451,1.451,0,0,0-1.115-.89.82.82,0,0,0-.734.486,2.378,2.378,0,0,0-.183.642,3.9,3.9,0,0,0-.006,1.181,4.032,4.032,0,0,0,.741,1.815c.68.91,1.393,1.117,1.408,1.059.057-.085-.538-.417-1.057-1.292a4.037,4.037,0,0,1-.548-1.65,3.615,3.615,0,0,1,.037-1.013c.056-.372.2-.672.336-.633.174,0,.469.28.611.577a5.846,5.846,0,0,1,.43.953,6.268,6.268,0,0,1,.332,1.751C658.489,457.032,658.3,457.671,658.4,457.7Z"/><path class="d" d="M608.338,304.72s.609,17.63,2.741,27.888c2.088,10.041,15.2,61.614,15.2,61.614l7.991,69.486,18.161-1-5.857-149.9Z"/><path class="d" d="M629.34,312.8s6,42.377,9.9,59.336,5.3,22.6,5.3,22.6,6.662,13.327,6.683,13.667l4.9,54.02h18.393s4.6-47.353,2.1-56.8-6.394-23.909-5.56-34.473,1.112-32.991,1.112-34.844,4.463-14.617,4.463-14.617a36.139,36.139,0,0,0,1.775-12.781C678.112,301.621,629.34,312.8,629.34,312.8Z"/><path class="f" d="M651.218,407.306a.868.868,0,0,1-.143-.209l-.369-.638q-.5-.908-1.374-2.476l-4.964-9.155-.009-.017-.006-.02c-2.265-7.868-5.1-18.684-7.85-30.681-2.843-12.358-5.137-23.6-6.758-31.751-.786-4.043-1.424-7.33-1.876-9.656q-.3-1.664-.48-2.631l-.112-.687a.835.835,0,0,1-.021-.237.778.778,0,0,1,.073.226c.044.183.1.4.163.677l.576,2.612c.491,2.318,1.184,5.593,2.037,9.622,1.714,8.126,4.064,19.357,6.905,31.708,2.745,11.99,5.528,22.809,7.705,30.695l-.015-.037,4.816,9.234q.813,1.6,1.285,2.524l.323.662A.9.9,0,0,1,651.218,407.306Z"/><path class="f" d="M672.767,335.237a612.251,612.251,0,0,1-4.2-5.252,11.3,11.3,0,0,1,4.2,5.252Z"/><path class="m" d="M619.876,188.79s-7.087,3.182-10.265,7.309c-2.838,3.686-20.03,43.744-20.03,43.744l-20.458-8.261-7.412,15.539s22.563,12.15,29.478,13.186c7.445,1.115,12.873-.811,16.3-6.851S617.935,218.3,617.935,218.3Z"/><path class="m" d="M679.573,290.818c-1.154-8.972-11.339-25.434-11.339-25.434l11.241-54.775c.97-6.7-.735-15.621-6.111-19.508-1.8-1.3-5.761-3.349-7.962-3.688l-13.47-3.054L628.014,185.8l-8.138,2.992s-12.387,26.812-11.538,39.7c.683,10.358,7.644,27.2,6.978,29.879-5.357,21.576-7.827,53.031-7.827,53.031a206.723,206.723,0,0,1,21.851,1.4c10.128,1.13,51.685,2.3,51.685,2.3S680.3,296.459,679.573,290.818Z"/><path class="d" d="M614.754,203.567a6.433,6.433,0,0,1,.246,1.275c.13.926.295,2.107.493,3.531l.01.069-.049.064a39.035,39.035,0,0,0-3.214,4.748,28.92,28.92,0,0,0-2.706,6.591,30.977,30.977,0,0,0-.578,12.416c.1.8.23,1.514.354,2.141s.218,1.17.324,1.609a7.2,7.2,0,0,1,.25,1.382,7.3,7.3,0,0,1-.447-1.333c-.136-.433-.274-.969-.412-1.6s-.308-1.342-.433-2.144a29.473,29.473,0,0,1,.439-12.608,27.946,27.946,0,0,1,2.8-6.692,35.012,35.012,0,0,1,3.352-4.738l-.039.134c-.134-1.431-.246-2.619-.333-3.55A6.448,6.448,0,0,1,614.754,203.567Z"/><path class="n" d="M584.018,222.975s5.1-1.64,8.568,0,20.966,15.132,20.966,15.132L610.635,248.5l-4.011-3.282s-6.563.912-9.116-1.641-5.469-4.922-5.469-4.922-2.628,4.2-4.045,3.954c-1.047-.181-1.661-3.517-1.661-3.517s-3.077.781-2.315-2.26l1.824-6.034a2.824,2.824,0,0,1,2.422-1.993l5.416-.542-2.917-2.37a25.1,25.1,0,0,1-5.846-.332C583.957,225.365,583.3,223.508,584.018,222.975Z"/><path class="p" d="M595.362,234.1c-.026.049-.609-.307-1.609-.7a4.561,4.561,0,0,0-1.816-.326,3.727,3.727,0,0,0-2.067.8,7.274,7.274,0,0,0-2.249,3.439,14.139,14.139,0,0,1-.6,1.656,7.8,7.8,0,0,1,.394-1.725,9.619,9.619,0,0,1,.733-1.789,5.675,5.675,0,0,1,1.536-1.825,3.891,3.891,0,0,1,2.24-.839,4.5,4.5,0,0,1,1.908.407,8.259,8.259,0,0,1,1.147.612C595.238,233.983,595.372,234.087,595.362,234.1Z"/><path class="p" d="M596.787,228.87a4.12,4.12,0,0,0-3.275-.388c-.019-.033.135-.171.442-.3a2.7,2.7,0,0,1,2.473.293C596.7,228.672,596.813,228.842,596.787,228.87Z"/><path class="m" d="M674.846,220.8s-20.289,32.024-22.217,34.454c-4.256,5.363-9.935,8.177-17.928,6s-29.265-13.768-29.265-13.768L611.8,233,636.69,238.3l19.245-38.576a17.9,17.9,0,0,1,9.946-9.256,4.846,4.846,0,0,1,2.841.109,12.821,12.821,0,0,1,8.99,14.782Z"/><path class="d" d="M668.743,190.816a1.49,1.49,0,0,1-.284.027l-.835.042a11.593,11.593,0,0,0-3.152.684,12.2,12.2,0,0,0-4.311,2.817,15.683,15.683,0,0,0-2.062,2.54,36.6,36.6,0,0,0-1.745,3.282l-19.43,38.439-.082.165-.181-.039-24.9-5.288.29-.149-5.2,11.839-1.162,2.644-.123-.339c5.932,2.915,11.733,5.726,17.352,8.388,2.81,1.329,5.575,2.622,8.3,3.841,1.364.595,2.713,1.228,4.069,1.708a11.18,11.18,0,0,0,4.162.674,12.93,12.93,0,0,0,4.068-.722,17.246,17.246,0,0,0,3.659-1.724,23.249,23.249,0,0,0,5.78-5.144,61.185,61.185,0,0,0,4.015-6.089l3.548-5.74,10.719-17.278c1.263-2.016,2.249-3.587,2.93-4.675l.773-1.208c.177-.271.278-.4.278-.4s-.071.15-.233.43l-.729,1.234c-.663,1.1-1.621,2.688-2.849,4.726L660.83,242.867l-3.521,5.76a60.558,60.558,0,0,1-4.017,6.142,23.619,23.619,0,0,1-5.873,5.261,17.673,17.673,0,0,1-3.75,1.78,13.412,13.412,0,0,1-4.206.756,11.648,11.648,0,0,1-4.333-.692c-1.4-.493-2.733-1.117-4.108-1.714-2.732-1.217-5.5-2.506-8.315-3.833-5.626-2.657-11.429-5.464-17.365-8.38l-.224-.109.1-.229,1.161-2.644c1.782-4.054,3.537-8.046,5.2-11.836l.084-.193.206.044,24.887,5.325-.263.126,19.594-38.349a36.771,36.771,0,0,1,1.791-3.3A15.767,15.767,0,0,1,660,194.225a12.2,12.2,0,0,1,4.415-2.8,11.05,11.05,0,0,1,3.2-.619l.839,0A1.455,1.455,0,0,1,668.743,190.816Z"/><path class="d" d="M620.975,134.932a14.478,14.478,0,0,1,7.183-8.575,18.28,18.28,0,0,1,12.321-1.131,38.722,38.722,0,0,1,11.475,5.132,18.974,18.974,0,0,1,5.426,4.488c2.585,3.45,5.077,9.065,5.213,13.373.109,3.484-1.471,12.152-3.031,15.269a7.829,7.829,0,0,1-3.421,2.916,29.588,29.588,0,0,1-6.538,8.153q-1.109-3.537-2.218-7.075Z"/><path class="d" d="M664.8,158.55c-.267-5.375.921-7.692-3.126-16.692a27.634,27.634,0,0,0-12.815-13.3l-19.28,2.1c.136-.34.274-.671.415-.983L623.1,130.7a5.411,5.411,0,0,0-5.509,2.84,7.584,7.584,0,0,0-1.065,1.55,18.2,18.2,0,0,0-1.5,5.759,45.266,45.266,0,0,0-.416,5.888c-.058.782-.106,1.465-.159,2a9.3,9.3,0,0,0,.214,2.557c.282,8.282,1.345,17.41.335,24.289a3.684,3.684,0,0,0,.114,2.143,3.489,3.489,0,0,0,1.773,1.434c8.549,4.062,14.6-.812,23.047-5.074,1.645-.83,3.327-1.833,5.168-1.764,1.948.073,3.56,5.173,5.345,5.958l14.748.977C665.973,172.32,665.064,163.925,664.8,158.55Z"/><path class="q" d="M655.174,146.482a11.714,11.714,0,0,0-8.5-11.032l-15.669-4.477c-6.8-.932-11.6,7.33-12.238,14.164-.713,7.593-1.248,15.611-.522,21.315,1.462,11.469,10.165,13.191,10.165,13.191,0-.017-.111,3.923-.2,7.257l5.218,16.254,17.956-17.445,3.827-39.087C655.22,146.427,655.185,146.743,655.174,146.482Z"/><path class="d" d="M620.749,153.859a1.464,1.464,0,0,0,1.366,1.52,1.4,1.4,0,0,0,1.549-1.273,1.464,1.464,0,0,0-1.364-1.521A1.4,1.4,0,0,0,620.749,153.859Z"/><path class="d" d="M620.353,149.658c.176.2,1.31-.59,2.885-.538,1.574.03,2.705.876,2.882.689.086-.083-.088-.434-.58-.815a4.02,4.02,0,0,0-2.3-.787,3.848,3.848,0,0,0-2.3.666C620.441,149.229,620.266,149.569,620.353,149.658Z"/><path class="d" d="M634.543,153.877a1.465,1.465,0,0,0,1.366,1.52,1.4,1.4,0,0,0,1.55-1.273,1.465,1.465,0,0,0-1.365-1.521A1.4,1.4,0,0,0,634.543,153.877Z"/><path class="d" d="M635.313,150.085c.176.2,1.311-.59,2.885-.537,1.574.03,2.705.875,2.882.688.086-.083-.086-.433-.58-.815a4.024,4.024,0,0,0-2.3-.788,3.866,3.866,0,0,0-2.3.667C635.4,149.656,635.227,150,635.313,150.085Z"/><path class="d" d="M630.035,162.316a10.483,10.483,0,0,0-2.544-.54c-.4-.054-.779-.146-.839-.422a2.049,2.049,0,0,1,.3-1.184q.614-1.443,1.284-3.026c1.786-4.31,3.092-7.859,2.918-7.929s-1.763,3.365-3.549,7.675q-.646,1.595-1.234,3.046a2.33,2.33,0,0,0-.258,1.572,1.012,1.012,0,0,0,.644.609,2.7,2.7,0,0,0,.68.116A10.2,10.2,0,0,0,630.035,162.316Z"/><path class="r" d="M643.666,176.013s-3.939,7.734-15.329,6.315l.073-2.685A28.777,28.777,0,0,0,643.666,176.013Z"/><path class="d" d="M635.97,144.407c.142.433,1.721.278,3.562.558,1.847.242,3.32.829,3.577.453.115-.181-.132-.592-.722-1.025a6.265,6.265,0,0,0-5.439-.77C636.261,143.875,635.909,144.2,635.97,144.407Z"/><path class="d" d="M621,144.854c.266.366,1.363.028,2.668.051,1.306-.023,2.4.314,2.668-.052.118-.178-.046-.542-.518-.9a3.859,3.859,0,0,0-4.3,0C621.05,144.312,620.887,144.676,621,144.854Z"/><path class="d" d="M622.165,134.8a5.025,5.025,0,0,1,4.516-2.716,9.754,9.754,0,0,1,5.221,1.685c6.686,4.124,9.909,13.714,16.51,17.972,1.624,1.047,3.8.192,5.167,1.557s2.219,3.507,1.391,5.252a15.99,15.99,0,0,0,2.443-3.875,5.4,5.4,0,0,0-.061-4.455c-.553-1.023-1.557-1.821-1.807-2.957-.22-1,.2-2.026.188-3.05a6.647,6.647,0,0,0-.963-2.941,29.638,29.638,0,0,0-10.584-11.791,19.323,19.323,0,0,0-9.943-2.877,14.782,14.782,0,0,0-9.639,3.511c-1.543,1.358-3.164,2.762-2.439,4.685"/><path class="q" d="M653.374,154.708c.13-.324,6.146-2.3,6.044,4.028-.1,6.15-6.268,4.763-6.276,4.586S653.374,154.708,653.374,154.708Z"/><path class="r" d="M655.084,161.029c.028-.019.106.077.286.163a1.07,1.07,0,0,0,.8.032,2.652,2.652,0,0,0,1.272-2.355,3.526,3.526,0,0,0-.27-1.539,1.238,1.238,0,0,0-.79-.838.545.545,0,0,0-.638.281c-.086.171-.049.294-.082.3-.018.015-.13-.1-.076-.358a.683.683,0,0,1,.25-.381.809.809,0,0,1,.6-.145,1.505,1.505,0,0,1,1.1.975,3.64,3.64,0,0,1,.339,1.721,2.784,2.784,0,0,1-1.614,2.626,1.146,1.146,0,0,1-.977-.182C655.093,161.178,655.063,161.039,655.084,161.029Z"/><path class="f" d="M655.911,151.618a2.434,2.434,0,0,1-.366-.218c-.231-.156-.588-.366-1.012-.684A21.164,21.164,0,0,1,651.3,147.6a59.169,59.169,0,0,1-3.909-5.389,48.383,48.383,0,0,0-4.893-6.463,19.349,19.349,0,0,0-3.2-2.68,15.962,15.962,0,0,0-3.491-1.706,17.529,17.529,0,0,0-6.491-.986,16.783,16.783,0,0,0-4.387.731c-.51.139-.888.3-1.151.39a2.388,2.388,0,0,1-.406.13,2.539,2.539,0,0,1,.385-.183A10.382,10.382,0,0,1,624.9,131a15.919,15.919,0,0,1,4.412-.825,17.375,17.375,0,0,1,6.584.94,15.989,15.989,0,0,1,3.555,1.719,19.3,19.3,0,0,1,3.253,2.717,47.038,47.038,0,0,1,4.907,6.514,63.3,63.3,0,0,0,3.845,5.4,22.777,22.777,0,0,0,3.148,3.157c.411.33.757.553.977.724A2.482,2.482,0,0,1,655.911,151.618Z"/><path class="e" d="M655.752,162.135a1.21,1.21,0,1,1-.29.083"/><path class="d" d="M655.462,162.218a1.664,1.664,0,0,0-.576.811,1.041,1.041,0,0,0,.213.972,1.075,1.075,0,0,0,1.907-.549,1.042,1.042,0,0,0-.335-.936,1.658,1.658,0,0,0-.919-.381c0-.015.1-.06.29-.059a1.253,1.253,0,0,1,.759.29,1.229,1.229,0,0,1,.462,1.123,1.321,1.321,0,0,1-2.362.679,1.232,1.232,0,0,1-.205-1.2,1.253,1.253,0,0,1,.489-.649C655.349,162.218,655.457,162.2,655.462,162.218Z"/><path class="d" d="M654.315,153.313a9.479,9.479,0,0,1-.744,4.928c-.818,1.47-2.8,2.429-4.24,1.553-1.172-.715-1.485-2.25-1.648-3.613-.471-3.933-.625-7.9-1.13-11.827Z"/><path class="f" d="M623.762,131.919c.006.035.547-.087,1.533-.09a10.519,10.519,0,0,1,4.048.859,13.394,13.394,0,0,1,2.511,1.386,27.656,27.656,0,0,1,2.572,2.082,31.632,31.632,0,0,1,4.991,5.7c.749,1.119,1.409,2.266,2.128,3.331a15.642,15.642,0,0,0,2.386,2.842,27.427,27.427,0,0,0,5.1,3.625c1.549.876,2.847,1.5,3.743,1.924.423.195.767.354,1.039.478a1.689,1.689,0,0,0,.372.145,1.774,1.774,0,0,0-.341-.207l-1.01-.536c-.876-.465-2.156-1.117-3.681-2.016a28.32,28.32,0,0,1-5-3.646,15.541,15.541,0,0,1-2.322-2.8c-.707-1.054-1.364-2.2-2.122-3.334a30.983,30.983,0,0,0-5.065-5.742,26.742,26.742,0,0,0-2.623-2.082,13.306,13.306,0,0,0-2.581-1.376,10.16,10.16,0,0,0-4.142-.768,7.235,7.235,0,0,0-1.142.126A1.68,1.68,0,0,0,623.762,131.919Z"/><path class="r" d="M636.306,166.288a6.9,6.9,0,0,0-.438-1.717.665.665,0,0,0-1.024-.508c-1.293.419-2.95,1.184-4.242,1.6a3.185,3.185,0,0,0,.636,2.561,3.082,3.082,0,0,0,2.189.748,2.958,2.958,0,0,0,2.421-1.017A2.311,2.311,0,0,0,636.306,166.288Z"/><path class="d" d="M631.783,168.383a4.046,4.046,0,0,0,1.9.377,2.661,2.661,0,0,0,1.776-.9,2.789,2.789,0,0,0,.555-2.327,2.209,2.209,0,0,0-.557-1.093c-.256-.261-.587-.195-.974-.045l-2.028.83a8.526,8.526,0,0,1-1.927.655,8.374,8.374,0,0,1,1.788-.971l2-.934A2.074,2.074,0,0,1,635,163.8a1.072,1.072,0,0,1,.77.289,2.612,2.612,0,0,1,.714,1.346,3.168,3.168,0,0,1-.693,2.724,2.928,2.928,0,0,1-2.094.947,2.84,2.84,0,0,1-1.494-.355C631.893,168.564,631.766,168.4,631.783,168.383Z"/><path class="f" d="M548.2,443.294l-.741,31.747,41.789,1.084c-.136-3.779-21.537-11.914-21.537-11.914l1.358-20.322Z"/><g class="o"><path class="e" d="M554.837,462.164a1.616,1.616,0,0,0-1.233,1.811,1.644,1.644,0,0,0,1.888,1.171,1.7,1.7,0,0,0,1.295-1.924,1.728,1.728,0,0,0-2.107-1.012"/></g><g class="o"><path class="e" d="M547.458,475.041l.207-3.2,39.989,2.235s1.839.813,1.593,2.046Z"/></g><path class="d" d="M568.393,464.028c-.012.192-1.035.253-2.057.847-1.038.569-1.58,1.391-1.765,1.31-.187-.043.15-1.188,1.4-1.886S568.442,463.852,568.393,464.028Z"/><path class="d" d="M572.727,465.855c.041.187-.852.493-1.569,1.291-.741.777-.941,1.655-1.144,1.641-.193.025-.3-1.108.609-2.084S572.728,465.671,572.727,465.855Z"/><path class="d" d="M575.073,470.877c-.186.036-.442-.935.112-1.977s1.521-1.438,1.6-1.276c.11.162-.526.713-.967,1.575C575.359,470.051,575.277,470.863,575.073,470.877Z"/><path class="d" d="M568.159,459.363c-.091.174-1.019-.116-2.175-.072-1.156.022-2.065.365-2.166.2-.114-.142.783-.833,2.145-.867S568.263,459.215,568.159,459.363Z"/><path class="d" d="M567.3,454.652a4.136,4.136,0,0,1-2.092-.065,9.757,9.757,0,0,1-2.172-.692,9.983,9.983,0,0,1-1.184-.634,2.559,2.559,0,0,1-.619-.482.805.805,0,0,1-.064-1.028,1.143,1.143,0,0,1,.907-.417,2.864,2.864,0,0,1,.782.122,7.818,7.818,0,0,1,1.289.456,7.39,7.39,0,0,1,1.895,1.247c.946.874,1.256,1.6,1.185,1.638-.095.061-.549-.555-1.515-1.281a8.5,8.5,0,0,0-1.838-1.042,8.074,8.074,0,0,0-1.192-.381c-.439-.122-.816-.134-.935.049-.043.07-.049.1.04.222a2.051,2.051,0,0,0,.455.352,11.293,11.293,0,0,0,1.088.626,11.953,11.953,0,0,0,2,.785A14.91,14.91,0,0,1,567.3,454.652Z"/><path class="d" d="M567.025,454.922a3.025,3.025,0,0,1-.5-1.925,6.126,6.126,0,0,1,.348-2.158,6.322,6.322,0,0,1,.568-1.187,1.717,1.717,0,0,1,1.364-.964.976.976,0,0,1,.858.574,2.6,2.6,0,0,1,.194.731,4.186,4.186,0,0,1-.037,1.332,4.437,4.437,0,0,1-.953,2.02c-.846,1-1.7,1.21-1.719,1.144-.066-.1.657-.452,1.31-1.419a4.4,4.4,0,0,0,.715-1.841,3.85,3.85,0,0,0-.005-1.144c-.054-.422-.211-.765-.378-.726-.208-.009-.57.3-.751.629a6.434,6.434,0,0,0-.549,1.058,6.8,6.8,0,0,0-.462,1.964C566.939,454.167,567.136,454.895,567.025,454.922Z"/><path class="f" d="M517.143,444.386l-2.263,31.675-41.7-2.87c.493-3.749,22.567-9.825,22.567-9.825l.569-20.36Z"/><g class="o"><path class="e" d="M508.751,462.545a1.613,1.613,0,0,1,1.057,1.918,1.644,1.644,0,0,1-1.99.988,1.7,1.7,0,0,1-1.108-2.037,1.728,1.728,0,0,1,2.193-.809"/></g><g class="o"><path class="e" d="M514.88,476.061l.1-3.2L474.955,471.3s-1.907.636-1.779,1.887Z"/></g><path class="d" d="M495.08,463.119c-.006.193,1.007.35,1.968,1.038.98.664,1.441,1.534,1.634,1.47.19-.024-.038-1.2-1.217-2.01S495.048,462.939,495.08,463.119Z"/><path class="d" d="M490.593,464.528c-.059.183.8.571,1.439,1.433.665.844.782,1.737.985,1.742.189.044.4-1.074-.41-2.131S490.61,464.344,490.593,464.528Z"/><path class="d" d="M487.782,469.306c.183.054.53-.889.076-1.979s-1.378-1.575-1.475-1.421c-.125.15.456.759.814,1.659C487.576,468.457,487.581,469.273,487.782,469.306Z"/><path class="d" d="M495.754,458.5c.074.182,1.026-.019,2.172.134,1.149.131,2.021.558,2.138.4.127-.131-.7-.9-2.053-1.066S495.664,458.34,495.754,458.5Z"/><path class="d" d="M497.056,453.888a4.14,4.14,0,0,0,2.09.134,9.827,9.827,0,0,0,2.226-.484,10.174,10.174,0,0,0,1.24-.519,2.57,2.57,0,0,0,.661-.421.806.806,0,0,0,.161-1.018,1.148,1.148,0,0,0-.863-.5,2.874,2.874,0,0,0-.79.049,7.8,7.8,0,0,0-1.327.331,7.4,7.4,0,0,0-2,1.063c-1.024.78-1.4,1.477-1.335,1.519.089.07.6-.5,1.63-1.132a8.46,8.46,0,0,1,1.928-.864,8.184,8.184,0,0,1,1.222-.267c.45-.079.825-.056.926.137.037.074.04.1-.06.218a2.076,2.076,0,0,1-.486.307,10.925,10.925,0,0,1-1.143.52,11.88,11.88,0,0,1-2.067.593A15.186,15.186,0,0,0,497.056,453.888Z"/><path class="d" d="M497.3,454.183c.071.034.52-.628.677-1.87a6.125,6.125,0,0,0-.142-2.181,6.3,6.3,0,0,0-.453-1.235,1.718,1.718,0,0,0-1.267-1.089.975.975,0,0,0-.908.491,2.573,2.573,0,0,0-.263.709,4.176,4.176,0,0,0-.089,1.329,4.431,4.431,0,0,0,.758,2.1c.747,1.077,1.582,1.366,1.6,1.3.075-.092-.611-.513-1.17-1.537a4.417,4.417,0,0,1-.538-1.9,3.847,3.847,0,0,1,.114-1.138c.093-.415.281-.741.444-.687.208.011.54.351.688.7a6.344,6.344,0,0,1,.447,1.106,6.78,6.78,0,0,1,.275,2C497.459,453.44,497.194,454.146,497.3,454.183Z"/><path class="d" d="M584.621,273.306l-68.9,2.2S500.383,377.92,500.8,385.035l-9.456,74.284,27.519.965s4.329-24.089,7.348-40.576c2.009-10.97,5.673-27.064,6.668-36.224s14.706-72.207,14.706-72.207,1.192,73.334,1.219,76.384-3.461,71.81-3.461,71.81l27.325,2.594c1.692-11.792,5.045-64.592,5.767-74.739,1.3-18.316,7.71-71.017,8.309-84.242S584.621,273.306,584.621,273.306Z"/><path class="f" d="M526.175,284.3a21.569,21.569,0,0,1-.194-6.389,21.569,21.569,0,0,1,.194,6.389Z"/><path class="f" d="M528.688,283.556a15.621,15.621,0,0,1,.505-5.4,15.621,15.621,0,0,1-.505,5.4Z"/><path class="f" d="M570.738,283.56a11.565,11.565,0,0,1,0-4.668,11.562,11.562,0,0,1,0,4.668Z"/><path class="f" d="M573.44,284.788a8.782,8.782,0,0,1,.491-5.9,22.21,22.21,0,0,1-.283,2.945A22.382,22.382,0,0,1,573.44,284.788Z"/><path class="f" d="M551.491,309.635a5.8,5.8,0,0,1,.159-1.2c.147-.858.332-1.943.553-3.239.452-2.735.984-6.529,1.328-10.744s.424-8.046.418-10.819c-.01-1.313-.018-2.415-.024-3.285a5.841,5.841,0,0,1,.035-1.208,5.914,5.914,0,0,1,.15,1.2c.068.775.131,1.9.175,3.288a98.795,98.795,0,0,1-1.751,21.628c-.268,1.364-.51,2.463-.7,3.217A5.93,5.93,0,0,1,551.491,309.635Z"/><path class="f" d="M549.135,279.912a2.507,2.507,0,0,0-1.378.768,1.925,1.925,0,0,0-.449,1.541,1.789,1.789,0,0,0,3.118.593,1.934,1.934,0,0,0,.147-1.6,2.5,2.5,0,0,0-1-1.219c.005-.022.183-.026.46.118a1.985,1.985,0,0,1,.854.982,2.21,2.21,0,0,1-.088,1.947,2.194,2.194,0,0,1-3.923-.746,2.208,2.208,0,0,1,.633-1.843,1.972,1.972,0,0,1,1.154-.6C548.974,279.821,549.139,279.89,549.135,279.912Z"/><path class="f" d="M519.138,392.906a116.345,116.345,0,0,1-13.757-5.65,116.337,116.337,0,0,1,13.757,5.65Z"/><path class="i" d="M574.438,171.31s12.925,2.915,17.047,11.97c2.949,6.477,8.93,45.817,8.93,45.817l29.034-.1,4.327,13.954s-25.34,15.139-36.059,15.13c-8.959-.008-16.827-6.858-16.827-6.858L569.4,218Z"/><path class="i" d="M583.179,238.084l-7.711-44.911-1.03-21.863-19.724-3.829L529.17,169.39l-20.2,9.464a25.341,25.341,0,0,0-11.952,11.688l-13.792,27.809-21.73-6.922-11.144,7.593s28.8,29.741,36.114,28.551c8.8-1.433,19.444-24.357,19.444-24.357l3.413-7.26,11.944,36.4L516,279.308c4.6,4,17.487,7.469,39.512,6.22s31.853-6.637,31.853-6.637Z"/><path class="d" d="M559.627,120.108c-.137-3.512-1.729-8.26-4.529-10.384-1.829-1.387-4.446-.443-6.6-1.25-2.753-1.034-4.835-4.192-7.392-5.645s-5.789-2.337-8.4-.976c-1.267.662-2.26,1.8-3.581,2.342-1.536.633-3.295.384-4.9.807a6.218,6.218,0,0,0-4.318,7.115,5.374,5.374,0,0,0,.455,10.456c1.913.36,4.07-.293,5.729.727,1.764,1.084,2.065,3.525,1.83,5.582s-.806,4.2-.1,6.145l27.927,5.324c1.167-2.195,1.9-5.47,2.814-7.836C560.037,128.738,559.784,124.157,559.627,120.108Z"/><path class="q" d="M554.9,137.536c.18-.082,7.27-2.289,7.164,4.986s-7.387,5.668-7.4,5.459S554.9,137.536,554.9,137.536Z"/><path class="r" d="M556.932,145.258c.032-.023.125.09.338.191a1.267,1.267,0,0,0,.947.034,3.139,3.139,0,0,0,1.492-2.793,4.183,4.183,0,0,0-.329-1.819,1.462,1.462,0,0,0-.939-.987.644.644,0,0,0-.753.337c-.1.2-.056.347-.095.36-.021.017-.155-.125-.091-.424a.811.811,0,0,1,.292-.452.956.956,0,0,1,.7-.175,1.78,1.78,0,0,1,1.307,1.147,4.289,4.289,0,0,1,.41,2.034c-.067,1.465-.838,2.826-1.894,3.115a1.36,1.36,0,0,1-1.156-.209C556.942,145.433,556.906,145.27,556.932,145.258Z"/><path class="q" d="M518.056,152.383c-.154-5.134.391-15.733,1-25.32a19.822,19.822,0,0,1,19.435-18.571l1.026-.018c11.076.453,16.879,10.113,16.12,21.172l-.964,38.475-1.577,1.02a21.925,21.925,0,0,1-23.966-.107h0l-.087-4.55S518.373,163.016,518.056,152.383Z"/><path class="r" d="M529.026,164.477a24.736,24.736,0,0,0,13.8-4.183s-3.067,7.828-13.7,7.056Z"/><path class="d" d="M521.458,135.451a1.52,1.52,0,0,0,1.491,1.507,1.453,1.453,0,0,0,1.542-1.4,1.52,1.52,0,0,0-1.49-1.508A1.456,1.456,0,0,0,521.458,135.451Z"/><path class="d" d="M536.864,136.047a1.52,1.52,0,0,0,1.492,1.507,1.452,1.452,0,0,0,1.541-1.4,1.52,1.52,0,0,0-1.489-1.508A1.456,1.456,0,0,0,536.864,136.047Z"/><path class="d" d="M521.337,131.925c.192.194,1.327-.678,2.962-.7,1.632-.047,2.846.773,3.02.569.086-.09-.113-.444-.641-.815a4.166,4.166,0,0,0-2.422-.7,4.005,4.005,0,0,0-2.354.806C521.407,131.476,521.243,131.837,521.337,131.925Z"/><path class="d" d="M536.977,132.025c.2.182,1.284-.76,2.912-.887,1.626-.151,2.89.59,3.05.376.08-.1-.138-.436-.692-.772a4.158,4.158,0,0,0-2.461-.547,4.012,4.012,0,0,0-2.3.953C537.02,131.573,536.878,131.944,536.977,132.025Z"/><path class="d" d="M531.78,144.472a10.72,10.72,0,0,0-2.663-.433c-.418-.036-.814-.112-.89-.4a2.12,2.12,0,0,1,.257-1.242q.563-1.525,1.178-3.2c1.635-4.554,2.811-8.3,2.627-8.36s-1.659,3.575-3.293,8.129q-.589,1.685-1.127,3.218a2.414,2.414,0,0,0-.187,1.642,1.052,1.052,0,0,0,.7.6,2.843,2.843,0,0,0,.711.086A10.724,10.724,0,0,0,531.78,144.472Z"/><path class="d" d="M536.609,145.518c-.266-.011-.238,1.763-1.735,3.048s-3.388,1.125-3.4,1.372c-.023.112.427.338,1.225.345a4.412,4.412,0,0,0,2.838-1.044,3.846,3.846,0,0,0,1.341-2.555C536.936,145.941,536.731,145.505,536.609,145.518Z"/><path class="d" d="M537.038,125.1c.2.426,1.808.052,3.739.088,1.932,0,3.527.4,3.74-.021.094-.2-.217-.59-.882-.955a6.506,6.506,0,0,0-5.7-.052C537.265,124.515,536.948,124.9,537.038,125.1Z"/><path class="d" d="M521.567,126.741c.294.366,1.413-.039,2.767-.081,1.352-.089,2.505.206,2.761-.187.113-.19-.074-.559-.581-.9a4.01,4.01,0,0,0-4.455.217C521.588,126.177,521.437,126.562,521.567,126.741Z"/><path class="d" d="M530.67,107.639c3.706-1.614,7.54-.97,11.557-.528a18.314,18.314,0,0,1,8.324,2.877,15.963,15.963,0,0,1,6.946,11.938,46.908,46.908,0,0,1-.988,15.168l-.4-.076c.348,1.474.694,3.057-.153,4.437a2.14,2.14,0,0,1-2.368,1.022c-1.514-.45-1.637-2.381-1.565-3.9A88.523,88.523,0,0,0,551.658,125c-.34-3.665-1.979-7.737-4.906-9.375a12.726,12.726,0,0,0-12.912.258,3.894,3.894,0,0,1-4.111.129c-2.841-1.683-5.228-1.58-6.942.663C523.435,112.684,526.965,109.253,530.67,107.639Z"/><path class="f" d="M523.411,140.294c0-.023.265-.024.745-.1a5.392,5.392,0,0,0,1.957-.694,5.984,5.984,0,0,0,1.162-.9,5.826,5.826,0,0,0,1-1.392,5.248,5.248,0,0,0,.553-1.846c.066-.67.026-1.411.033-2.165l.132.133-6.925.012-5.582-.008.137-.137a17.152,17.152,0,0,0,.073,2.419,5.426,5.426,0,0,0,.765,2.026,5.511,5.511,0,0,0,2.75,2.235,6.282,6.282,0,0,0,2.339.368l.641.023a.793.793,0,0,1,.222.023.794.794,0,0,1-.222.023l-.641.022a6.027,6.027,0,0,1-2.4-.3,5.648,5.648,0,0,1-3.71-4.378,16.929,16.929,0,0,1-.094-2.462l0-.136h.14l5.582-.008,6.925.013h.135l0,.132c-.013.759.023,1.48-.054,2.194a5.424,5.424,0,0,1-.6,1.919,5.574,5.574,0,0,1-2.278,2.327,5.169,5.169,0,0,1-2.025.64,3.75,3.75,0,0,1-.563.026A.682.682,0,0,1,523.411,140.294Z"/><path class="f" d="M541.036,140.294c0-.023.265-.024.746-.1a5.393,5.393,0,0,0,1.957-.694,5.985,5.985,0,0,0,1.162-.9,5.826,5.826,0,0,0,1-1.392,5.248,5.248,0,0,0,.553-1.846c.066-.67.026-1.411.033-2.165l.132.133-6.925.012-5.582-.008.137-.137a17.148,17.148,0,0,0,.072,2.419,5.442,5.442,0,0,0,.765,2.026,5.519,5.519,0,0,0,2.75,2.235,6.285,6.285,0,0,0,2.339.368l.642.023a.781.781,0,0,1,.221.023.782.782,0,0,1-.221.023l-.642.022a6.023,6.023,0,0,1-2.4-.3,5.643,5.643,0,0,1-3.71-4.378,16.911,16.911,0,0,1-.094-2.462l0-.136h.14l5.582-.008,6.925.013h.135l0,.132c-.013.759.022,1.48-.054,2.194a5.425,5.425,0,0,1-.6,1.919,5.569,5.569,0,0,1-2.279,2.327,5.165,5.165,0,0,1-2.024.64,3.751,3.751,0,0,1-.563.026A.693.693,0,0,1,541.036,140.294Z"/><path class="f" d="M534.017,134.867c-.04.027-.221-.252-.624-.57a2.979,2.979,0,0,0-3.679-.082c-.417.3-.61.571-.649.543s.108-.336.522-.7a2.913,2.913,0,0,1,3.94.087C533.924,134.526,534.046,134.854,534.017,134.867Z"/><path class="f" d="M557.384,137.548a10.3,10.3,0,0,1-1.592-.311c-.976-.216-2.325-.508-3.824-.788s-2.862-.492-3.851-.642a10.132,10.132,0,0,1-1.6-.284,8.046,8.046,0,0,1,1.622.081c1,.1,2.374.28,3.879.56s2.854.606,3.82.875A8.011,8.011,0,0,1,557.384,137.548Z"/><path class="e" d="M522.974,139.61a3.358,3.358,0,0,1-1.364-.108,6.4,6.4,0,0,1-2.932-1.525,5.522,5.522,0,0,1-1.648-2.862,2.927,2.927,0,0,1-.05-1.369c.052,0,.031.525.249,1.321a5.835,5.835,0,0,0,1.647,2.7,6.934,6.934,0,0,0,2.785,1.539C522.457,139.531,522.978,139.562,522.974,139.61Z"/><path class="a" d="M559.529,118.914s-4.943,4.314-8.075,4.616a15.661,15.661,0,0,0-.841-2.979,19.041,19.041,0,0,0-2.619-4.024,15.435,15.435,0,0,0,10.473-1.864A16.173,16.173,0,0,1,559.529,118.914Z"/><path class="a" d="M559.655,120.645a9.983,9.983,0,0,1-7.925,5.011,32.9,32.9,0,0,0,4.292-1.984A32.791,32.791,0,0,0,559.655,120.645Z"/><path class="d" d="M576.108,203.656a28.241,28.241,0,0,1-1.3-5.253,28.245,28.245,0,0,1-.792-5.354,28.331,28.331,0,0,1,1.3,5.254A28.33,28.33,0,0,1,576.108,203.656Z"/><path class="b" d="M435.676,174.225a199.375,199.375,0,0,0,6.675,19.983c3.721,9.078,11.924,23.249,13.285,30.264s2.813,52.924,2.813,52.924l46.145,4.986,36.486,21.754s32.43,1.144,60.56,0l36.413-7.7-12.95-101.5-36.6,8.642-69.892-5.224Z"/><path class="d" d="M435.676,174.225l82.991,23.951-.037-.006,69.9,5.178-.07,0,36.591-8.656.265-.063.034.27L638.15,295.141l.161,1.258.03.238-.235.049-36.412,7.7-.022.005h-.021c-10.505.411-20.834.527-30.944.5s-20-.2-29.636-.511l-.062,0-.055-.033-36.477-21.769.093.031L458.427,277.6l-.173-.019-.005-.174c-.547-16.451-1.1-31.375-1.945-44.479-.11-1.638-.232-3.247-.378-4.823a29.68,29.68,0,0,0-.672-4.592,55.335,55.335,0,0,0-3.1-8.213c-2.317-5.135-4.668-9.727-6.668-13.917a133.8,133.8,0,0,1-7.739-19.956c-.727-2.343-1.246-4.142-1.585-5.355s-.488-1.842-.488-1.842.187.618.545,1.826.895,3,1.64,5.336a136.82,136.82,0,0,0,7.829,19.894c2.014,4.18,4.38,8.764,6.716,13.9a55.392,55.392,0,0,1,3.136,8.252,29.839,29.839,0,0,1,.691,4.636c.151,1.58.277,3.191.391,4.829.874,13.113,1.454,28.035,2.025,44.489l-.179-.192,46.149,4.958.049.005.043.026,36.494,21.74-.116-.035q14.439.456,29.619.5c10.1.023,20.428-.1,30.922-.508l-.043.005L638,296.177l-.205.287-.16-1.257c-4.508-35.377-8.83-69.289-12.774-100.241l.3.207-36.6,8.627-.035.009-.035,0-69.888-5.27-.02,0-.018,0Z"/><path class="e" d="M587.363,203.847,601.64,304.136l36.412-7.7-12.95-101.5Z"/><path class="s" d="M486.03,188.873l18.565,93.509,36.486,21.754,1.647.508L518.616,198.353Z"/><path class="q" d="M449.768,219.009l-3.523-3.347a4.181,4.181,0,0,1-1.44-2.087c-.16-.844.466-1.878,1.32-1.781a2.261,2.261,0,0,1,.115-4.4,6.782,6.782,0,0,1-1.479-2.246,2.77,2.77,0,0,1,.3-2.58,2.817,2.817,0,0,1,2.812-.817,7.508,7.508,0,0,1,2.713,1.428q1.911,1.4,3.691,2.964a3.957,3.957,0,0,1,1.1,1.317,1.416,1.416,0,0,1-.243,1.6,3.822,3.822,0,0,1,3.332,4.3c.86,1.2-.237,2.992-1.659,3.374a6.94,6.94,0,0,1-4.278-.726,2.354,2.354,0,0,1,.624,4.618,2.47,2.47,0,0,1-2.82-1.265"/><path class="q" d="M632.307,229.192a3.3,3.3,0,0,1,2.938,5.167c1.066.333,1.467,1.678,1.3,2.782s-.708,2.125-.86,3.231c-.244,1.768.488,3.775-.534,5.238-.829,1.188-2.464,1.452-3.912,1.461a41.853,41.853,0,0,1-4.834-.347,6.25,6.25,0,0,1-2.034-.46,2.118,2.118,0,0,1-1.257-1.566,1.3,1.3,0,0,1,1.148-1.459,1.973,1.973,0,0,1-1.065-3.723,1.839,1.839,0,0,1,.2-2.436,7.218,7.218,0,0,1,2.3-1.382,13.631,13.631,0,0,0,6.431-6.6"/><path class="d" d="M601.42,304.005c-.142.02-3.454-22.416-7.4-50.106s-7.023-50.163-6.881-50.183,3.453,22.41,7.4,50.11S601.562,303.985,601.42,304.005Z"/><path class="d" d="M504.594,282.127c-.141.028-4.411-20.884-9.537-46.7s-9.169-46.779-9.027-46.807,4.41,20.879,9.538,46.706S504.735,282.1,504.594,282.127Z"/><path class="d" d="M542.966,305.58c-.14.032-5.652-23.739-12.309-53.086s-11.942-53.175-11.8-53.206,5.65,23.733,12.309,53.091S543.106,305.548,542.966,305.58Z"/><path class="e" d="M606.339,65.124a25.607,25.607,0,0,0-30.81,34.143l-.009-.012-3.179,7.632,8.074.166a25.612,25.612,0,0,0,35.23,2.425l8.06.923-2.13-7.993a20.235,20.235,0,0,0,2.36-5.621A25.613,25.613,0,0,0,606.339,65.124Z"/><path class="d" d="M606.339,65.124a.912.912,0,0,1,.209.052l.611.189,1,.322a8.665,8.665,0,0,1,1.347.518l1.67.747,1.906,1.094c.684.4,1.347.941,2.094,1.458.722.551,1.423,1.22,2.19,1.892l1.073,1.148.557.6c.168.217.339.438.512.66l1.049,1.376.958,1.533a26.712,26.712,0,0,1,2.961,7.357,26.075,26.075,0,0,1,.414,9,24.407,24.407,0,0,1-3.118,9.464l.026-.178c.674,2.518,1.4,5.217,2.141,7.99a.241.241,0,0,1-.171.3.25.25,0,0,1-.09.007l-8.061-.915.188-.055A26.092,26.092,0,0,1,604.964,115a25.849,25.849,0,0,1-24.739-7.773l.184.084-8.073-.171a.253.253,0,0,1-.247-.257.257.257,0,0,1,.02-.092q1.633-3.914,3.186-7.629a.245.245,0,0,1,.319-.132.259.259,0,0,1,.1.081l.008.012-.423.235a25.683,25.683,0,0,1-1.733-11.916,23.63,23.63,0,0,1,1.157-5.544,20.6,20.6,0,0,1,.97-2.548,19.065,19.065,0,0,1,1.2-2.367,25.743,25.743,0,0,1,6.351-7.384,24.642,24.642,0,0,1,7.3-4.046,12.376,12.376,0,0,1,1.766-.559c.583-.144,1.139-.335,1.7-.429a25.114,25.114,0,0,1,3.159-.43l1.43-.1c.459-.005.9.024,1.322.034l1.207.041c.381.028.741.094,1.082.136.68.1,1.288.155,1.8.271l1.288.318.784.2a1.383,1.383,0,0,1,.262.082,1.421,1.421,0,0,1-.273-.042l-.792-.163-1.291-.279c-.513-.1-1.12-.141-1.8-.231-.34-.035-.7-.094-1.077-.116l-1.2-.023c-.418,0-.856-.026-1.311-.015l-1.416.112a25.212,25.212,0,0,0-3.124.459c-.553.1-1.1.292-1.677.44a12.267,12.267,0,0,0-1.741.569,24.452,24.452,0,0,0-7.174,4.045,25.456,25.456,0,0,0-6.217,7.306,18.8,18.8,0,0,0-1.166,2.333,20.015,20.015,0,0,0-.943,2.511,23.188,23.188,0,0,0-1.119,5.452,25.274,25.274,0,0,0,1.733,11.694.244.244,0,0,1-.423.236l-.008-.012.421-.051-3.171,7.635-.228-.349,8.074.161a.253.253,0,0,1,.184.084,25.377,25.377,0,0,0,24.247,7.616,25.631,25.631,0,0,0,10.635-5.21.249.249,0,0,1,.187-.056l8.059.932-.26.3c-.735-2.775-1.451-5.476-2.119-8a.233.233,0,0,1,.026-.178,24.037,24.037,0,0,0,3.092-9.281,25.792,25.792,0,0,0-.364-8.857,26.562,26.562,0,0,0-2.875-7.276l-.934-1.521-1.027-1.367-.5-.658-.545-.594-1.051-1.146c-.752-.672-1.439-1.342-2.148-1.895-.734-.52-1.385-1.066-2.058-1.472l-1.875-1.114-1.645-.772a8.947,8.947,0,0,0-1.329-.547l-.983-.355-.6-.223A.968.968,0,0,1,606.339,65.124Z"/><path class="i" d="M610.609,86.392a6.941,6.941,0,0,0-1.747-3.785,6.674,6.674,0,0,0-3.455-2.17,5.382,5.382,0,0,0-5.949,2.714,5.374,5.374,0,0,0-5.783-2.611,6.661,6.661,0,0,0-3.494,2.107,6.933,6.933,0,0,0-1.815,3.752,8.44,8.44,0,0,0,1,5.2,11.942,11.942,0,0,0,4.08,3.893c2.674,1.645,6.2,3.7,6.2,3.7s3.013-2.21,5.717-3.806a11.929,11.929,0,0,0,4.15-3.817A8.449,8.449,0,0,0,610.609,86.392Z"/></g></svg>