<svg xmlns="http://www.w3.org/2000/svg" width="361.497" height="349.336" viewBox="0 0 361.497 349.336"><defs><style>.a{fill:#e0e0e0;}.b{fill:#fafafa;}.c{fill:#ebebeb;}.d{fill:#f5f5f5;}.e{fill:#263238;}.f{fill:#f2f2f2;}.g{fill:#c4c9ce;}.h{fill:none;stroke:#c19485;stroke-miterlimit:10;stroke-width:0.05px;}.i{fill:#0048cd;}.j{fill:#455a64;}.k{fill:#fff;}.l{fill:#995037;}.m{fill:#75c6fa;}.n{opacity:0.3;}.o{fill:#ffbe9d;}.p{fill:#eb996e;}.q{fill:#0a437d;}.r{opacity:0.4;}.s{fill:#2680eb;}</style></defs><g transform="translate(-18.227 -37.949)"><g transform="translate(43.206 37.948)"><g transform="translate(209.608 22.502)"><g transform="translate(6.076 0.028)"><rect class="a" width="89.314" height="93.102"/></g><g transform="translate(0.028 0.028)"><rect class="b" width="89.314" height="93.102"/></g><path class="a" d="M400.764,159.227H311.395V66.069h89.369Zm-89.314-.055h89.258V66.125H311.45Z" transform="translate(-311.395 -66.069)"/><g transform="translate(12.034 12.544)"><rect class="b" width="65.301" height="68.071"/></g><g transform="translate(0.114 81.063)"><path class="a" d="M323.457,167.379a10.721,10.721,0,0,1-1.612,1.874c-1.043,1.1-2.509,2.589-4.151,4.207s-3.153,3.061-4.267,4.084a10.372,10.372,0,0,1-1.888,1.572,10.407,10.407,0,0,1,1.6-1.865c1.043-1.1,2.512-2.594,4.16-4.217s3.16-3.067,4.274-4.091A10.251,10.251,0,0,1,323.457,167.379Z" transform="translate(-311.538 -167.375)"/></g><g transform="translate(77.331 80.897)"><path class="a" d="M408.041,167.17a10.686,10.686,0,0,1,1.874,1.612c1.1,1.043,2.59,2.509,4.208,4.151s3.06,3.153,4.083,4.266a10.434,10.434,0,0,1,1.572,1.888,10.438,10.438,0,0,1-1.866-1.6c-1.1-1.043-2.593-2.513-4.217-4.16s-3.067-3.161-4.091-4.275A10.191,10.191,0,0,1,408.041,167.17Z" transform="translate(-408.037 -167.167)"/></g><g transform="translate(77.154 0.985)"><path class="a" d="M407.818,79.04a10.669,10.669,0,0,1,1.612-1.873c1.043-1.1,2.509-2.59,4.151-4.208s3.153-3.061,4.266-4.084a10.329,10.329,0,0,1,1.888-1.572,10.422,10.422,0,0,1-1.6,1.865c-1.043,1.1-2.513,2.594-4.161,4.217s-3.16,3.067-4.274,4.091A10.22,10.22,0,0,1,407.818,79.04Z" transform="translate(-407.815 -67.299)"/></g><g transform="translate(0.115 0.973)"><path class="a" d="M323.279,79.2a10.686,10.686,0,0,1-1.874-1.612c-1.1-1.043-2.589-2.509-4.208-4.151s-3.06-3.153-4.083-4.266a10.407,10.407,0,0,1-1.572-1.887,10.346,10.346,0,0,1,1.865,1.6c1.1,1.043,2.594,2.513,4.216,4.16s3.068,3.162,4.091,4.275A10.22,10.22,0,0,1,323.279,79.2Z" transform="translate(-311.538 -67.285)"/></g><g transform="translate(11.744 12.255)"><path class="a" d="M391.484,149.743a2.984,2.984,0,0,1-.014-.33c0-.232-.009-.545-.015-.95-.006-.854-.016-2.081-.029-3.675-.015-3.224-.038-7.915-.066-13.873-.03-11.923-.074-28.906-.128-49.242l.252.251-65.116.038h-.006l.29-.289c-.015,24.985-.03,48.358-.041,68.07l-.249-.247,47.153.126,13.245.065,3.5.029.906.014c.2,0,.31.01.315.014a2.012,2.012,0,0,1-.288.014l-.879.014-3.457.029-13.188.065-47.311.127h-.248v-.25c-.012-19.712-.026-43.086-.041-68.07v-.289h.3l65.116.037h.253v.252c-.053,20.4-.1,37.443-.128,49.4-.029,5.933-.05,10.606-.066,13.817-.012,1.572-.022,2.784-.029,3.626-.006.394-.011.7-.014.923A2.222,2.222,0,0,1,391.484,149.743Z" transform="translate(-326.072 -81.384)"/></g><g transform="translate(33.79 35.684)"><rect class="c" width="21.79" height="21.79"/></g></g><g transform="translate(115.533 17.814)"><rect class="a" width="9.601" height="47.772" transform="translate(0 0.051) rotate(-0.307)"/></g><g transform="translate(32.18 17.806)"><g transform="translate(0.181 0.132)"><rect class="c" width="24.862" height="26.373" transform="matrix(1, -0.005, 0.005, 1, 0, 0.133)"/></g><g transform="translate(24.925)"><rect class="d" width="24.862" height="26.373" transform="translate(0 0.133) rotate(-0.306)"/></g><g transform="translate(0 6.757)"><path class="a" d="M89.88,69.438q24.783.2,49.606-.229a.264.264,0,0,0,0-.528q-24.784-.137-49.606.3a.227.227,0,0,0,0,.454Z" transform="translate(-89.66 -68.646)"/></g></g><g transform="translate(16.673 43.631)"><g transform="translate(0.188 0.241)"><rect class="c" width="45.17" height="21.492" transform="matrix(1, -0.005, 0.005, 1, 0, 0.242)"/></g><g transform="translate(45.144)"><rect class="d" width="45.17" height="21.492" transform="translate(0 0.242) rotate(-0.307)"/></g><g transform="translate(0 5.404)"><path class="a" d="M70.5,100.284c30.008.34,60.12.035,90.125-.445a.264.264,0,0,0,0-.528c-30.009-.158-60.123-.141-90.125.52a.227.227,0,0,0,0,.453Z" transform="translate(-70.28 -99.229)"/></g></g><g transform="translate(0 65.606)"><rect class="a" width="175.002" height="7.7"/><g transform="translate(28.652 3.702)"><rect class="a" width="7.104" height="26.273"/></g><g transform="translate(134.702 3.702)"><rect class="a" width="7.104" height="26.273"/></g></g><g transform="translate(124.902)"><rect class="c" width="9.601" height="65.703" transform="matrix(1, -0.005, 0.005, 1, 0, 0.051)"/></g><g transform="translate(134.485 12.23)"><g transform="translate(0.1)"><rect class="d" width="14.918" height="53.245" transform="translate(0 0.08) rotate(-0.308)"/></g><g transform="translate(0 10)"><path class="a" d="M232.431,65.988a54.1,54.1,0,0,1-7.458.258,54.1,54.1,0,0,1-7.459-.258,53.948,53.948,0,0,1,7.459-.258A53.95,53.95,0,0,1,232.431,65.988Z" transform="translate(-217.513 -65.73)"/></g><g transform="translate(0 7.763)"><path class="a" d="M232.431,63.193a54.184,54.184,0,0,1-7.458.258,54.181,54.181,0,0,1-7.459-.258,53.866,53.866,0,0,1,7.459-.259A53.868,53.868,0,0,1,232.431,63.193Z" transform="translate(-217.513 -62.934)"/></g><g transform="translate(0 44.976)"><path class="a" d="M232.431,109.7a54.1,54.1,0,0,1-7.458.258,54.1,54.1,0,0,1-7.459-.258,53.95,53.95,0,0,1,7.459-.258A53.952,53.952,0,0,1,232.431,109.7Z" transform="translate(-217.513 -109.44)"/></g><g transform="translate(0 42.738)"><path class="a" d="M232.431,106.9a53.95,53.95,0,0,1-7.458.258,53.948,53.948,0,0,1-7.459-.258,54.1,54.1,0,0,1,7.459-.258A54.1,54.1,0,0,1,232.431,106.9Z" transform="translate(-217.513 -106.644)"/></g><g transform="translate(7.441 14.122)"><path class="a" d="M227.07,94.876c-.143,0-.258-5.372-.258-12s.115-12,.258-12,.258,5.371.258,12S227.213,94.876,227.07,94.876Z" transform="translate(-226.812 -70.881)"/></g></g><g transform="translate(149.565 25.306)"><rect class="c" width="16.238" height="40.189"/></g><g transform="translate(126.802 8.458)"><path class="a" d="M213.429,51.278a2.759,2.759,0,1,1-2.759-2.759A2.759,2.759,0,0,1,213.429,51.278Z" transform="translate(-207.911 -48.519)"/></g><g transform="translate(128.708 18.807)"><rect class="a" width="1.706" height="39.086"/></g></g><g transform="translate(204.555 98.333)"><g transform="translate(52.759)"><g transform="translate(3.053)"><path class="e" d="M322.91,147.691a13.783,13.783,0,0,1-1.511-11.172,30.277,30.277,0,0,1,8.383-12.053c.33-.244-.891.833,0,0a18.141,18.141,0,0,0,1.107-2.894c1.218-2.439,2.092-3.118,2.931-3.387a17.393,17.393,0,0,1,3.61-.907c1.659-.251,4.488.931,5.888,1.856a6.527,6.527,0,0,1,4.6-4.423,8.014,8.014,0,0,1,6.379,1.147,1.044,1.044,0,0,0,.652.25c.27-.03.46-.27.632-.482a5.679,5.679,0,0,1,5.473-2.1,4.28,4.28,0,0,1,3.325,4.526,4.912,4.912,0,0,1,7.871,4.707c1.459-.314,3.135-.582,4.313.333a6.039,6.039,0,0,1,1.876,5.258,9.556,9.556,0,0,1-2.285,4.511c-1.359,1.2-2.513.446-4.282.835-2.635.58-5.42,1.14-7.991.317" transform="translate(-320.834 -113.412)"/></g><g transform="translate(0 6.076)"><g transform="translate(8.089 2.62)"><path class="f" d="M382,151.639a29.681,29.681,0,0,0-29.532-27.356l-1.537,0c-16.576.934-25.042,15.533-23.65,32.077l2.973,76.431h37.992l-.335-24.876s15.938-2.445,16.168-18.375C384.184,181.843,383.123,165.983,382,151.639Z" transform="translate(-327.128 -124.28)"/><g transform="translate(20.049 77.457)"><path class="g" d="M373.044,227.231a38.64,38.64,0,0,1-20.861-6.152s4.886,11.475,20.785,10.073Z" transform="translate(-352.183 -221.079)"/></g><g transform="translate(17.432 26.027)"><g transform="translate(0.91 6.718)"><g transform="translate(24.095)"><g transform="translate(1.689 5.138)"><path class="e" d="M386.812,173.685a2.275,2.275,0,0,1-2.2,2.291,2.176,2.176,0,0,1-2.341-2.056,2.276,2.276,0,0,1,2.2-2.293A2.178,2.178,0,0,1,386.812,173.685Z" transform="translate(-382.272 -171.624)"/></g><path class="e" d="M389.153,167.6c-.282.3-2-.983-4.451-.982-2.445-.034-4.245,1.223-4.51.922-.13-.133.158-.668.942-1.235a6.239,6.239,0,0,1,3.61-1.105,5.989,5.989,0,0,1,3.542,1.151C389.038,166.934,389.292,167.471,389.153,167.6Z" transform="translate(-380.162 -165.203)"/></g><g transform="translate(0 1.223)"><g transform="translate(2.244 5.008)"><path class="e" d="M357.393,175.049a2.275,2.275,0,0,1-2.2,2.291,2.175,2.175,0,0,1-2.341-2.056,2.276,2.276,0,0,1,2.2-2.293A2.178,2.178,0,0,1,357.393,175.049Z" transform="translate(-352.854 -172.989)"/></g><path class="e" d="M359.042,169.132c-.283.3-2.006-.983-4.452-.981-2.445-.034-4.244,1.222-4.51.921-.13-.133.156-.667.943-1.235a6.237,6.237,0,0,1,3.61-1.105,6,6,0,0,1,3.543,1.151C358.925,168.462,359.18,169,359.042,169.132Z" transform="translate(-350.049 -166.731)"/></g><g transform="translate(16.764 0.58)"><path class="e" d="M372.105,186.329c-.011-.139,1.511-.4,3.978-.709.625-.063,1.217-.186,1.323-.613a3.183,3.183,0,0,0-.414-1.854q-.877-2.27-1.839-4.763c-2.553-6.782-4.4-12.359-4.127-12.46s2.566,5.316,5.12,12.1q.922,2.509,1.761,4.792a3.624,3.624,0,0,1,.319,2.454,1.571,1.571,0,0,1-1.03.912,4.254,4.254,0,0,1-1.062.145C373.654,186.46,372.115,186.468,372.105,186.329Z" transform="translate(-371 -165.928)"/></g><g transform="translate(10.261 22.659)"><path class="e" d="M363.273,193.521c.4-.022.4,2.635,2.669,4.525s5.1,1.6,5.12,1.976c.037.167-.632.515-1.828.545a6.615,6.615,0,0,1-4.274-1.5,5.761,5.761,0,0,1-2.067-3.794C362.794,194.163,363.091,193.5,363.273,193.521Z" transform="translate(-362.873 -193.521)"/></g></g><g transform="translate(0 3.009)"><path class="e" d="M360.073,162.354c-.234.667-2.682.378-5.55.755-2.877.318-5.184,1.183-5.571.591-.173-.284.225-.915,1.155-1.568a9.73,9.73,0,0,1,8.471-1.025C359.637,161.519,360.174,162.036,360.073,162.354Z" transform="translate(-348.913 -160.568)"/></g><g transform="translate(24.39)"><path class="e" d="M389.594,158.852c-.469.607-2.581.24-5.054.462-2.478.152-4.523.833-5.064.3-.239-.259.034-.847.895-1.463a8.222,8.222,0,0,1,4.013-1.321,8.062,8.062,0,0,1,4.139.7C389.454,158.018,389.8,158.559,389.594,158.852Z" transform="translate(-379.393 -156.807)"/></g></g></g><g transform="translate(0 45.986)"><path class="f" d="M327.64,178.984c-.271-.118-10.939-3.259-10.614,7.632s11.193,8.318,11.2,8S327.64,178.984,327.64,178.984Z" transform="translate(-317.019 -178.475)"/><g transform="translate(3.731 3.562)"><path class="g" d="M326.669,191.484c-.049-.034-.186.138-.5.3a1.9,1.9,0,0,1-1.417.071c-1.163-.388-2.187-2.186-2.3-4.147a6.277,6.277,0,0,1,.45-2.733,2.192,2.192,0,0,1,1.384-1.5.967.967,0,0,1,1.135.487c.155.3.093.519.15.537.032.026.229-.19.127-.637a1.207,1.207,0,0,0-.449-.67,1.43,1.43,0,0,0-1.057-.246,2.667,2.667,0,0,0-1.932,1.748,6.451,6.451,0,0,0-.567,3.056c.135,2.193,1.32,4.212,2.909,4.62a2.033,2.033,0,0,0,1.727-.34C326.657,191.747,326.707,191.5,326.669,191.484Z" transform="translate(-321.682 -182.927)"/></g></g><g transform="translate(3.731)"><path class="e" d="M335.711,135.125l5.385-4.646,17.123,2.618,12.022-3.1,7.2,1.1c-1.348,1.81-.245-.619-2.984-2.7a35.484,35.484,0,0,0-20.565-7.4c-7.407-.13-22.485,8.892-27.851,14-4.294,4.087-4.267,7.624-4.267,7.624-.682,5.889,2.614,12.583,3.924,18.364.676,2.981,1.98,12,1.98,12h0c2.5-.009,3.432-2,3.052-4.474l-.468-9.707s8.511-6.048,4.479-17.118C334.093,140.817,332.713,136.773,335.711,135.125Z" transform="translate(-321.681 -121.005)"/></g></g><g transform="translate(10.037 6.41)"><path class="e" d="M335.063,137.8c.967-3.1,4.352-5.04,7.6-5a13.34,13.34,0,0,1,8.672,3.958,10,10,0,0,0,1.945,1.6,2.57,2.57,0,0,0,2.416.15c.226-.125.466-.3.715-.236a.815.815,0,0,1,.4.362,6.735,6.735,0,0,0,2.517,2.389,2.79,2.79,0,0,0,3.234-.489,4.165,4.165,0,0,0,6.99-3.086c1.419.486,2.969-.383,3.965-1.5a8.068,8.068,0,0,0-2-12.347,14.436,14.436,0,0,0-5.262-1.52,66.7,66.7,0,0,0-8.63-.649,10.665,10.665,0,0,0-3.756.447c-1.653.6-3.033,1.947-4.777,2.162a8.341,8.341,0,0,1-3.31-.528,13.16,13.16,0,0,0-4.8-.7c-3.19.286-5.824,2.574-7.938,4.982a13.278,13.278,0,0,0-3.342,5.785c-.466,2.2.217,4.785,2.13,5.973a2.8,2.8,0,0,0,2.531.334,1.672,1.672,0,0,0,.907-2.18" transform="translate(-329.563 -121.423)"/></g></g><g transform="translate(108.705 199.512)"><path class="h" d="M386.936,362.746" transform="translate(-386.936 -362.746)"/></g><g transform="translate(0 101.535)"><g transform="translate(19.171)"><path class="i" d="M319.255,240.882l-44.212,21.974,18.218,104.274L282.7,427.251l113.825.226-7.393-115.895,15.843-46.557L357.622,240.3C344.156,256.244,331.252,253.014,319.255,240.882Z" transform="translate(-275.043 -240.303)"/></g><g transform="translate(58.581 38.508)"><g transform="translate(4.542 6.523)"><path class="e" d="M375.769,341.335s-.024-.256-.044-.755c-.017-.515-.042-1.25-.073-2.2-.053-1.946-.13-4.771-.227-8.363-.171-7.226-.415-17.527-.709-29.907l.34.072A130.48,130.48,0,0,1,363.645,320l-.218.31-.136-.354c-2.406-6.229-5.251-12.774-8.529-19.348l-1.775-3.49.366.006a81.278,81.278,0,0,0-8.909,23.775l-.072.354-.257-.254-14.048-13.889.289-.138a170.635,170.635,0,0,0,4.491,25.785c.774,3.041,1.456,5.4,1.927,7q.353,1.182.546,1.826c.122.413.171.63.171.63s-.083-.206-.221-.614l-.593-1.812c-.5-1.595-1.215-3.947-2.018-6.985a165.2,165.2,0,0,1-4.641-25.8l-.046-.466.334.329,14.084,13.853-.329.1a81.291,81.291,0,0,1,8.93-23.9l.191-.336.175.343,1.778,3.5c3.285,6.587,6.13,13.146,8.532,19.389l-.354-.043a131.378,131.378,0,0,0,11.419-19.733l.326-.7.014.767c.231,12.38.424,22.683.559,29.909.055,3.593.1,6.419.129,8.365q.013,1.428.02,2.2C375.783,341.079,375.769,341.335,375.769,341.335Z" transform="translate(-329.971 -296.579)"/></g><g transform="translate(0 8.846)"><path class="e" d="M325.681,299.621c-.006-.018.128-.1.406-.13a1.908,1.908,0,0,1,1.135.272,2.2,2.2,0,0,1,1.052,1.4,2.01,2.01,0,0,1-.782,1.987,2.143,2.143,0,0,1-2.109.362,1.7,1.7,0,0,1-1.085-1.38,1.262,1.262,0,0,1,.476-1.083c.236-.169.4-.162.407-.14s-.131.082-.3.262a1.157,1.157,0,0,0-.291.931,1.421,1.421,0,0,0,.933,1.053,1.8,1.8,0,0,0,1.71-.332,1.654,1.654,0,0,0,.664-1.584,1.976,1.976,0,0,0-.833-1.223A2.63,2.63,0,0,0,325.681,299.621Z" transform="translate(-324.295 -299.483)"/></g><g transform="translate(25.998)"><path class="e" d="M358.635,288.5c0-.019.146-.083.432-.069a1.979,1.979,0,0,1,1.108.462,2.192,2.192,0,0,1,.807,1.6,2.177,2.177,0,0,1-3.379,1.712,2.188,2.188,0,0,1-.815-1.6,1.979,1.979,0,0,1,.282-1.167c.158-.239.3-.323.311-.308a2.616,2.616,0,0,0-.3,1.448,1.957,1.957,0,0,0,.751,1.319,1.83,1.83,0,0,0,2.768-1.4,1.959,1.959,0,0,0-.619-1.385A2.616,2.616,0,0,0,358.635,288.5Z" transform="translate(-356.786 -288.427)"/></g><g transform="translate(49.218 2.436)"><path class="e" d="M387.962,291.546a2.2,2.2,0,0,0-1.3.645,1.755,1.755,0,0,0-.459,1.413,1.624,1.624,0,0,0,2.867.524,1.752,1.752,0,0,0,.07-1.484,2.2,2.2,0,0,0-.991-1.065c0-.018.166-.032.429.086a1.8,1.8,0,0,1,.832.862,2,2,0,0,1-.006,1.792,1.982,1.982,0,0,1-3.581-.655,2,2,0,0,1,.628-1.678,1.8,1.8,0,0,1,1.083-.511C387.818,291.457,387.967,291.528,387.962,291.546Z" transform="translate(-385.804 -291.472)"/></g><g transform="translate(3.638 53.213)"><path class="e" d="M380.706,355.224a2.537,2.537,0,0,1-.529.03l-1.515,0-5.568-.01c-4.7.007-11.194.106-18.357.447s-13.638.87-18.318,1.312l-5.54.543-1.508.141a2.547,2.547,0,0,1-.53.021,2.521,2.521,0,0,1,.519-.1l1.5-.218c1.3-.184,3.192-.416,5.53-.675,4.676-.519,11.155-1.089,18.328-1.436s13.675-.395,18.379-.326c2.353.033,4.255.083,5.57.142l1.513.074A2.5,2.5,0,0,1,380.706,355.224Z" transform="translate(-328.842 -354.928)"/></g></g><g transform="translate(128.62 23.526)"><path class="i" d="M414.9,328.054l35.249-1.547s-8.168-53.61-19.622-56.613-18.7,30.489-18.7,30.489Z" transform="translate(-411.824 -269.704)"/></g><g transform="translate(0 22.2)"><path class="i" d="M251.085,339.608c.175-1.92,6.138-65.227,19.171-71.209s20.787,66.242,20.787,66.242Z" transform="translate(-251.085 -268.047)"/></g><g transform="translate(133.277 45.624)"><path class="e" d="M420.5,367.948a.628.628,0,0,1-.033-.181l-.054-.534q-.061-.757-.165-2.053c-.122-1.824-.3-4.4-.508-7.558-.4-6.385-.887-15.208-1.31-24.96s-.675-18.59-.755-24.987c-.026-3.2-.046-5.788-.014-7.577q.02-1.3.033-2.06a4.563,4.563,0,0,1,.04-.718.606.606,0,0,1,.022.182c.006.146.014.322.022.535q.017.76.045,2.059c.036,1.827.086,4.4.147,7.572.156,6.393.451,15.223.878,24.975s.863,18.573,1.187,24.961c.157,3.165.285,5.74.375,7.566q.055,1.3.087,2.058A4.686,4.686,0,0,1,420.5,367.948Z" transform="translate(-417.643 -297.32)"/></g><g transform="translate(33.786 45.705)"><path class="e" d="M293.97,364.719a4.239,4.239,0,0,1-.034-.684q-.006-.729-.016-1.961c-.008-1.744-.019-4.2-.032-7.21-.036-6.089-.174-14.5-.346-23.788s-.264-17.707-.224-23.8c.018-3.045.052-5.509.1-7.212q.038-1.233.062-1.96a4.165,4.165,0,0,1,.05-.683,4.229,4.229,0,0,1,.034.684q.006.727.016,1.96c.008,1.743.019,4.2.032,7.21.036,6.088.174,14.5.346,23.791s.264,17.7.224,23.794c-.018,3.045-.052,5.51-.1,7.213q-.038,1.233-.062,1.96A4.186,4.186,0,0,1,293.97,364.719Z" transform="translate(-293.308 -297.422)"/></g><g transform="translate(20.083 23.21)"><path class="e" d="M290.208,287.291c-.069.014-.327-1.31-.979-3.376a27.174,27.174,0,0,0-3.67-7.557,19.262,19.262,0,0,0-6.185-5.608,32.442,32.442,0,0,0-3.191-1.435,3.556,3.556,0,0,1,.929.2,13.713,13.713,0,0,1,2.4.975,18.3,18.3,0,0,1,6.384,5.624,24.94,24.94,0,0,1,3.614,7.716c.294,1.052.479,1.916.584,2.517A3.887,3.887,0,0,1,290.208,287.291Z" transform="translate(-276.183 -269.309)"/></g></g><g transform="translate(4.097 174.28)"><g transform="translate(0 16.808)"><path class="f" d="M307.589,371.713l7.363,18.909s-34.818,18.373-42.85,19.043-10.526-1.178-13.87-7.356c-2.652-4.9-2.174-16.947-1.492-24.761.931-10.652,1.737-21.955,1.737-21.955l27.49-3.375.5,23.368,21.122-3.874" transform="translate(-256.205 -352.218)"/></g><g transform="translate(17.809 40.439)"><path class="g" d="M290.653,381.782a17.586,17.586,0,0,0-2.276.61,14.742,14.742,0,0,0-4.652,3.188,44.164,44.164,0,0,0-3.89,4.187c-.9,1.15-1.308,1.966-1.368,1.936a1.7,1.7,0,0,1,.228-.6,10.992,10.992,0,0,1,.9-1.507,32.53,32.53,0,0,1,3.841-4.315,13.46,13.46,0,0,1,4.839-3.162,7.375,7.375,0,0,1,1.728-.36A1.92,1.92,0,0,1,290.653,381.782Z" transform="translate(-278.462 -381.751)"/></g><g transform="translate(105.266 7.671)"><path class="f" d="M443.363,340.8l-29.238,1.283,4.539,33.842-8.387,1.044-14.654-4.055-7.865,21.252s31.9,14.155,41.489,15.154,16.175-4.793,18.371-11.782S443.363,340.8,443.363,340.8Z" transform="translate(-387.759 -340.8)"/></g><g transform="translate(70.582)"><rect class="j" width="28.873" height="57.684" rx="6.634"/><g transform="translate(12.584 6.609)"><circle class="k" cx="1.642" cy="1.642" r="1.642"/></g></g><g transform="translate(136.346 42.535)"><path class="l" d="M445.481,396.937c-.078.027-.42-1.32-1.489-3.251a17.423,17.423,0,0,0-13.817-8.994c-2.2-.2-3.568.038-3.575-.046a3.8,3.8,0,0,1,.953-.18,14.925,14.925,0,0,1,2.645-.068,16.865,16.865,0,0,1,14.054,9.148,14.875,14.875,0,0,1,1.008,2.446A3.736,3.736,0,0,1,445.481,396.937Z" transform="translate(-426.6 -384.37)"/></g><g transform="translate(50.433 13.438)"><path class="f" d="M339.757,348.081a48.807,48.807,0,0,0-4.961,0l-7.029,7.7s-.836,7.2-2.008,8.7-6.526,6.694-6.526,6.694l7.363,18.909,5.355-1a8.8,8.8,0,0,0,6.526,1c3.346-1,8.2-5.689,8.2-5.689l9.986-.5,4.886-4.607-6.537-8.776-13.356-.5,6.694-2.845,15.9-1.507s3.682-.334,2.176-3.681-11.212-2.845-11.212-2.845l-7.53.5s6.03-2.237,6.993-4.216c.734-1.511.933-2.969-.8-4.151-.841-.574-13.4.293-13.4.293Z" transform="translate(-319.233 -348.007)"/><g transform="translate(7.629 7.963)"><path class="g" d="M333.9,384.164c0,.014-.1,0-.293-.053a2.85,2.85,0,0,1-.765-.378,4.429,4.429,0,0,1-1.694-2.6,9.586,9.586,0,0,1,.282-4.6q.154-.628.314-1.283a1.375,1.375,0,0,0-.1-1.175,7.741,7.741,0,0,0-.963-1,3.959,3.959,0,0,1-.826-1.3,4.089,4.089,0,0,1,0-2.979,3.86,3.86,0,0,0,.429-2.5,18.114,18.114,0,0,0-1-2.192,6.323,6.323,0,0,1-.5-2.115,6.455,6.455,0,0,1,.535-3.065,4.944,4.944,0,0,1,.408-.743c.11-.159.174-.238.186-.23.032.02-.189.361-.444,1.035a6.716,6.716,0,0,0-.391,2.979,6.156,6.156,0,0,0,.526,2,16.878,16.878,0,0,1,1.059,2.233,2.747,2.747,0,0,1,.029,1.4,12.342,12.342,0,0,1-.443,1.33,3.7,3.7,0,0,0,0,2.691,3.561,3.561,0,0,0,.737,1.168,7.549,7.549,0,0,1,1.009,1.064,1.483,1.483,0,0,1,.241.756,2.73,2.73,0,0,1-.1.729q-.168.655-.33,1.283a9.6,9.6,0,0,0-.368,4.439,4.426,4.426,0,0,0,1.5,2.536A6.219,6.219,0,0,0,333.9,384.164Z" transform="translate(-328.767 -357.958)"/></g><g transform="translate(22.387 28.954)"><path class="g" d="M366.183,384.863a2.635,2.635,0,0,1-.726.216,12.181,12.181,0,0,1-2.052.194,59.98,59.98,0,0,1-6.734-.555,29.934,29.934,0,0,0-6.685.2c-1.711.2-2.765.368-2.777.307a2.49,2.49,0,0,1,.723-.216c.471-.11,1.159-.247,2.014-.383a25.634,25.634,0,0,1,6.763-.325c2.633.271,4.979.655,6.7.675C365.124,385.04,366.168,384.79,366.183,384.863Z" transform="translate(-347.21 -384.191)"/></g><g transform="translate(17.433 11.314)"><path class="g" d="M352.837,362.163c.03.138-2.74.651-6,1.753-3.252,1.13-5.753,2.423-5.816,2.295a7.433,7.433,0,0,1,1.587-.94,30.251,30.251,0,0,1,8.4-2.878A7.385,7.385,0,0,1,352.837,362.163Z" transform="translate(-341.019 -362.146)"/></g><g transform="translate(17.913 2.899)"><path class="g" d="M345.849,351.648a13.277,13.277,0,0,1-4.227,2.024,13.277,13.277,0,0,1,4.227-2.024Z" transform="translate(-341.619 -351.63)"/></g><g transform="translate(34.585 2.196)"><path class="f" d="M377.61,350.854s12.69,6.681,13.044,8.495a36.747,36.747,0,0,1,.414,5.513l-.5,10.041L382.7,396.154s-6.526.67-9.371-.836-4.519-5.188-4.519-5.188L365.3,384.44l4.311-4.893-7.155-8.494s6.191-3.012,10.374-1.171a27.963,27.963,0,0,1,7.527,5.222l-1.336-6.058-8.046-5.111-3.682-2.639a5.665,5.665,0,0,1-2.258-6,2.989,2.989,0,0,1,1.1-1.817c1.841-1.171,16.734,7.865,16.734,7.865h0s-5.875-5.368-6.354-7.266C376.054,352.258,376.693,350.277,377.61,350.854Z" transform="translate(-362.455 -350.752)"/><g transform="translate(27.759 23.926)"><path class="g" d="M397.821,395.471a10.071,10.071,0,0,1-.358-2.152c-.15-1.337-.286-3.2-.313-5.25s.065-3.916.183-5.257a9.991,9.991,0,0,1,.3-2.159,12.885,12.885,0,0,1-.01,2.176c-.042,1.34-.085,3.19-.06,5.235s.114,3.892.19,5.231A12.892,12.892,0,0,1,397.821,395.471Z" transform="translate(-397.146 -380.653)"/></g><g transform="translate(1.431 27.463)"><path class="g" d="M369.213,385.073a3.558,3.558,0,0,1,.238,1.333,5.284,5.284,0,0,1-.1,1.49,3.627,3.627,0,0,1-.86,1.646,5.33,5.33,0,0,1-2.9,1.56,3.231,3.231,0,0,1-1.352.107,6.9,6.9,0,0,1,1.278-.393,5.764,5.764,0,0,0,2.66-1.553,4.168,4.168,0,0,0,.975-2.853A5.685,5.685,0,0,1,369.213,385.073Z" transform="translate(-364.243 -385.073)"/></g><g transform="translate(19.353 9.662)"><path class="g" d="M393,373.956a16.851,16.851,0,0,1-.242-2.052,27.97,27.97,0,0,0-.979-4.839,3.7,3.7,0,0,0-1.636-1.962,16.412,16.412,0,0,0-1.976-1,6.659,6.659,0,0,1-1.348-.749.477.477,0,0,1-.166-.42c.042-.118.121-.115.12-.108s-.038.048-.037.122a.431.431,0,0,0,.193.286,10.374,10.374,0,0,0,1.353.6,13.358,13.358,0,0,1,2.065.941,3.977,3.977,0,0,1,1.826,2.152,21.545,21.545,0,0,1,.879,4.949A7.326,7.326,0,0,1,393,373.956Z" transform="translate(-386.641 -362.826)"/></g><g transform="translate(2.354 4.548)"><path class="g" d="M365.622,356.436c.045.008-.04.381-.046,1.054a5.468,5.468,0,0,0,.664,2.713,8.18,8.18,0,0,0,2.963,2.919l4.393,2.863,6.108,4.05.069.045.009.076a25.293,25.293,0,0,0,.913,4.34,9.393,9.393,0,0,1,.391,1.641,11.549,11.549,0,0,1-.584-1.581,21.567,21.567,0,0,1-1.066-4.35l.078.122-6.153-4-4.379-2.894a8.236,8.236,0,0,1-3-3.094,5.3,5.3,0,0,1-.565-2.857,4.082,4.082,0,0,1,.124-.783C365.58,356.524,365.609,356.434,365.622,356.436Z" transform="translate(-365.396 -356.436)"/></g></g><g transform="translate(44.82 21.169)"><path class="g" d="M386.449,386.169a3.71,3.71,0,0,0,.354-.567,2.082,2.082,0,0,0-.132-1.719,8.522,8.522,0,0,0-1.807-2.027c-.763-.713-1.623-1.476-2.551-2.245-1.855-1.542-3.636-2.809-4.949-3.693a22.446,22.446,0,0,1-2.117-1.453,12.059,12.059,0,0,1,2.277,1.205,43.045,43.045,0,0,1,5.056,3.62c.935.776,1.795,1.554,2.549,2.289a8.094,8.094,0,0,1,1.808,2.177,2.173,2.173,0,0,1,.013,1.915C386.717,386.085,386.453,386.185,386.449,386.169Z" transform="translate(-375.246 -374.462)"/></g><g transform="translate(34.505 22.29)"><path class="g" d="M367.394,383.571a2.342,2.342,0,0,1,.631-.213,6.937,6.937,0,0,0,1.638-.658,2.339,2.339,0,0,0,1.217-2.053,8.24,8.24,0,0,0-.148-1.534,3.913,3.913,0,0,0-.475-1.525,2.089,2.089,0,0,0-1.267-.827,14.339,14.339,0,0,0-1.528-.286c-.991-.149-1.891-.242-2.648-.3-1.514-.122-2.458-.132-2.459-.2a10.063,10.063,0,0,1,2.476-.1c.766.025,1.678.087,2.684.217a13.445,13.445,0,0,1,1.584.274,2.475,2.475,0,0,1,1.508.992,4.193,4.193,0,0,1,.53,1.692,8.091,8.091,0,0,1,.129,1.613,2.663,2.663,0,0,1-.463,1.438,2.8,2.8,0,0,1-.991.855,5.779,5.779,0,0,1-1.748.56A1.862,1.862,0,0,1,367.394,383.571Z" transform="translate(-362.354 -375.864)"/></g><g transform="translate(40.98 29.92)"><path class="g" d="M377.018,392.62a22.48,22.48,0,0,1-5.935-5.913,3.645,3.645,0,0,1-.631-1.307,8.108,8.108,0,0,1,.872,1.139,29.958,29.958,0,0,0,2.249,2.6C375.441,391.082,377.1,392.524,377.018,392.62Z" transform="translate(-370.446 -385.398)"/></g></g></g></g><g transform="translate(70.943 154.778)"><g transform="translate(0 0)"><g transform="translate(32.523 2.955)"><path class="e" d="M175.444,190.468c-6.813-6.141-15.495-.864-20.136,2.673s-6.75,8.611-7.906,13.6-1.523,10.13-3.417,14.974c-2.3,5.876-6.8,11.216-7.835,17.325-1.093,6.459,1.805,13.275-.559,19.5-1.368,3.606-4.378,6.653-6.879,9.859s-4.583,6.9-3.79,10.65c1.163,5.495,8.035,9.257,14.766,11.355A46.278,46.278,0,0,0,157,292.724c5.844-.474,11.562-2.644,14.787-6.379,2.764-3.2,3.5-7.216,3.621-11.1.4-12.56-4.824-24.89-7.082-37.384-2.753-15.239,1.1-32.9,7.118-47.391" transform="translate(-124.752 -187.646)"/><g transform="translate(9.047 3.201)"><path class="j" d="M137.436,289.965a1.338,1.338,0,0,1-.147-.235c-.087-.161-.234-.394-.389-.719a9.611,9.611,0,0,1-.791-3.035,15.254,15.254,0,0,1,.439-4.944,42.609,42.609,0,0,1,2.119-6.225,189.279,189.279,0,0,0,10.839-36.314,188.06,188.06,0,0,0,2.784-20.7c.247-3.2.462-6.261.936-9.093a29.793,29.793,0,0,1,2.226-7.656,19.451,19.451,0,0,1,3.752-5.4,14.975,14.975,0,0,1,4.027-2.9,12.346,12.346,0,0,1,2.985-.971c.355-.053.628-.078.811-.1a1.37,1.37,0,0,1,.278-.018,1.366,1.366,0,0,1-.272.061l-.8.139a13.179,13.179,0,0,0-2.929,1.035,15.066,15.066,0,0,0-3.933,2.921,19.38,19.38,0,0,0-3.65,5.36,29.791,29.791,0,0,0-2.152,7.587c-.456,2.813-.658,5.861-.895,9.068a182.792,182.792,0,0,1-2.757,20.751,182.969,182.969,0,0,1-10.976,36.347,43.492,43.492,0,0,0-2.164,6.168,15.386,15.386,0,0,0-.5,4.875A10.26,10.26,0,0,0,137.436,289.965Z" transform="translate(-136.058 -191.646)"/></g></g><g transform="translate(7.345 85.747)"><g transform="translate(14.386)"><path class="m" d="M132.685,292.33l28.726-1.217,38.76,13.064,24.891,10.214L194.412,422.6l4.679,15.118H111.265l3.959-82.067Z" transform="translate(-111.265 -291.112)"/></g><g class="n" transform="translate(15.049 64.42)"><path d="M192.338,439.606l-8.1-54.831c-.5-3.357-1.117-6.969-3.545-9.34-2.309-2.254-5.725-2.859-8.928-3.251-7.189-.881-14.885-1.14-21.237,2.341-5.382,2.949-9.064,8.186-12.423,13.322-10.163,15.546-16.512,22.355-24.691,39.031l-1.319,13.179c8.28-2.541,16.183-10.659,20.837-17.964s7.889-15.416,12.19-22.933c2.955-5.165,6.7-10.286,12.182-12.6,3.093-1.307,7.143-1.409,9.347,1.123a9.982,9.982,0,0,1,1.82,3.941c2.468,8.74,3.2,17.878,5.324,26.707s5.947,17.7,13.1,23.295a6.2,6.2,0,0,0,2.665,1.389,2.5,2.5,0,0,0,2.629-1.082A3.77,3.77,0,0,0,192.338,439.606Z" transform="translate(-112.094 -371.619)"/></g><g transform="translate(0 1.218)"><path class="m" d="M93.287,333.776c0-.833,12.668-41.142,35.806-41.142l-7.1,48.318Z" transform="translate(-93.287 -292.634)"/></g><g transform="translate(110.73 23.279)"><path class="m" d="M249.122,320.2s7.193,6.156,8.3,11.322S259.777,362,259.777,362l-28.109-1.971Z" transform="translate(-231.668 -320.204)"/></g><g transform="translate(21.754 22.34)"><path class="e" d="M129.951,319.031a2.527,2.527,0,0,1-.038.532c-.049.39-.112.892-.19,1.516-.17,1.316-.458,3.212-.843,5.552-.766,4.68-2.008,11.113-3.46,18.2s-2.738,13.5-3.578,18.166c-.4,2.3-.735,4.171-.974,5.526-.11.618-.2,1.116-.267,1.5a2.587,2.587,0,0,1-.122.52,2.53,2.53,0,0,1,.038-.532l.19-1.515c.17-1.315.459-3.212.843-5.552.766-4.679,2.008-11.113,3.46-18.2s2.738-13.5,3.578-18.164l.973-5.526.268-1.5A2.556,2.556,0,0,1,129.951,319.031Z" transform="translate(-120.473 -319.031)"/></g><g transform="translate(112.475 40.996)"><path class="e" d="M239.1,342.346a6.223,6.223,0,0,1-.1,1.166c-.087.747-.239,1.824-.445,3.153-.409,2.657-1.067,6.313-1.848,10.337-.772,3.987-1.47,7.593-2,10.305-.239,1.261-.439,2.311-.594,3.126a6.208,6.208,0,0,1-.265,1.139,6.344,6.344,0,0,1,.1-1.165c.092-.746.251-1.822.464-3.15.423-2.655,1.095-6.309,1.876-10.334.761-3.987,1.449-7.594,1.967-10.309.232-1.262.425-2.313.575-3.128A6.331,6.331,0,0,1,239.1,342.346Z" transform="translate(-233.85 -342.346)"/></g><g transform="translate(20.233 7.821)"><path class="b" d="M227.2,317.5a1.764,1.764,0,0,1-.229.206l-.7.571a16.6,16.6,0,0,1-3.014,1.734,17.074,17.074,0,0,1-5.334,1.334,16.642,16.642,0,0,1-7.2-.974c-2.573-.952-4.931-2.822-7.6-4.477a15.25,15.25,0,0,0-4.423-1.944,13.433,13.433,0,0,0-5.1-.142c-3.506.512-6.949,2.06-10.666,3.193a24.611,24.611,0,0,1-22.839-4.274,48.973,48.973,0,0,1-4.1-4,16.3,16.3,0,0,0-4.232-3.325,12.121,12.121,0,0,0-4.947-1.187,22.055,22.055,0,0,0-4.842.414c-3.1.594-5.907,1.541-8.56,2.076a18.405,18.405,0,0,1-7.268.288,11.428,11.428,0,0,1-5-2.257,7.676,7.676,0,0,1-2.165-2.706,4.893,4.893,0,0,1-.325-.845,1.586,1.586,0,0,1-.081-.3,1.758,1.758,0,0,1,.121.284,5.988,5.988,0,0,0,.36.822,7.847,7.847,0,0,0,2.191,2.617,11.37,11.37,0,0,0,4.94,2.155,18.307,18.307,0,0,0,7.163-.347c2.629-.548,5.428-1.511,8.556-2.127a22.333,22.333,0,0,1,4.92-.441,12.467,12.467,0,0,1,5.1,1.21,16.639,16.639,0,0,1,4.344,3.389,49.073,49.073,0,0,0,4.076,3.958,24.262,24.262,0,0,0,22.463,4.2c3.687-1.115,7.148-2.667,10.728-3.182a13.774,13.774,0,0,1,5.24.165A15.509,15.509,0,0,1,203.3,315.6c2.693,1.688,5.016,3.549,7.528,4.5a16.5,16.5,0,0,0,7.081,1.017,17.238,17.238,0,0,0,5.289-1.251,17.835,17.835,0,0,0,3.029-1.654l.724-.535A1.636,1.636,0,0,1,227.2,317.5Z" transform="translate(-118.573 -300.887)"/></g><g transform="translate(4.445 29.314)"><path class="b" d="M121.266,338.032c0,.014-.085.045-.258.092a4.054,4.054,0,0,1-.775.123,6.8,6.8,0,0,1-2.846-.437,11.149,11.149,0,0,1-3.622-2.262c-1.21-1.065-2.361-2.4-3.638-3.708a14.437,14.437,0,0,0-4.049-3.075,6.539,6.539,0,0,0-4.015-.591,5.1,5.1,0,0,0-2.5,1.159c-.495.442-.688.768-.722.744-.012-.007.029-.091.121-.246a3.094,3.094,0,0,1,.49-.616,4.982,4.982,0,0,1,2.553-1.33,6.7,6.7,0,0,1,4.232.531,14.294,14.294,0,0,1,4.186,3.132c1.293,1.323,2.426,2.656,3.6,3.714a11.324,11.324,0,0,0,3.47,2.272A7.7,7.7,0,0,0,121.266,338.032Z" transform="translate(-98.841 -327.747)"/></g><g transform="translate(25.886 47.077)"><path class="b" d="M209.792,364.505a14.117,14.117,0,0,1-3.254,1.5,18.829,18.829,0,0,1-9.695.52,18.009,18.009,0,0,1-6.253-2.569,34.711,34.711,0,0,1-5.78-5.176,43.548,43.548,0,0,0-6.206-5.8,14.413,14.413,0,0,0-8.507-2.619,34.361,34.361,0,0,0-8.959,1.571c-2.848.8-5.581,1.68-8.268,2.222a44.088,44.088,0,0,1-23.944-1.8c-1.077-.419-1.908-.754-2.455-1.019l-.626-.292a.981.981,0,0,1-.207-.113,1,1,0,0,1,.225.074l.642.254c.557.24,1.395.55,2.476.943a45.452,45.452,0,0,0,9.468,2.18,43.879,43.879,0,0,0,14.344-.6c2.657-.546,5.379-1.427,8.235-2.239a34.486,34.486,0,0,1,9.069-1.595,15.6,15.6,0,0,1,4.65.674,14.671,14.671,0,0,1,4.091,2.028,43.279,43.279,0,0,1,6.252,5.868,34.774,34.774,0,0,0,5.693,5.153,17.836,17.836,0,0,0,6.122,2.569,18.7,18.7,0,0,0,12.048-1.343l.622-.3A.975.975,0,0,1,209.792,364.505Z" transform="translate(-125.638 -349.945)"/></g><g transform="translate(115.61 46.419)"><path class="b" d="M260.274,349.126c.012.008-.025.087-.106.232a4.933,4.933,0,0,1-.4.607,7.714,7.714,0,0,1-1.977,1.812,8.313,8.313,0,0,1-3.764,1.3,12.287,12.287,0,0,1-4.8-.79,16.02,16.02,0,0,0-4.638-1.007,9.648,9.648,0,0,0-3.773.722,12.935,12.935,0,0,0-3.043,1.888c-.01-.01.042-.08.153-.2a5.536,5.536,0,0,1,.516-.512,8.817,8.817,0,0,1,2.258-1.443,9.548,9.548,0,0,1,3.892-.835,15.673,15.673,0,0,1,4.759.994,12.361,12.361,0,0,0,4.646.8,8.312,8.312,0,0,0,3.639-1.166A10.481,10.481,0,0,0,260.274,349.126Z" transform="translate(-237.767 -349.124)"/></g><g transform="translate(18.259 77.631)"><path class="b" d="M205.323,396.156a1.193,1.193,0,0,1-.253,0l-.735-.055a18.105,18.105,0,0,0-2.822.108,23.773,23.773,0,0,0-4.356.992c-1.666.521-3.512,1.268-5.544,2.121a52.966,52.966,0,0,1-6.786,2.485,17.423,17.423,0,0,1-8.267.479,13.227,13.227,0,0,1-4.171-1.735c-1.32-.8-2.557-1.756-3.846-2.669a19.384,19.384,0,0,0-4.136-2.381,11.568,11.568,0,0,0-4.8-.727,26.867,26.867,0,0,0-9.317,2.655,47.847,47.847,0,0,1-8.581,3.228,17.213,17.213,0,0,1-8.279-.188,24.5,24.5,0,0,1-6.618-2.915,37.12,37.12,0,0,1-4.772-3.578c-1.323-1.154-2.4-2.208-3.279-3.077s-1.538-1.561-1.985-2.031l-.5-.539a1.119,1.119,0,0,1-.162-.194,1.139,1.139,0,0,1,.192.163l.534.51,2.039,1.974a48.984,48.984,0,0,0,8.093,6.52,24.424,24.424,0,0,0,6.55,2.832,16.915,16.915,0,0,0,8.108.147,47.966,47.966,0,0,0,8.5-3.226,27.1,27.1,0,0,1,9.462-2.7,11.966,11.966,0,0,1,4.972.757,19.7,19.7,0,0,1,4.223,2.436c1.3.922,2.525,1.877,3.817,2.662a12.846,12.846,0,0,0,4.047,1.7,17.137,17.137,0,0,0,8.1-.438,53.55,53.55,0,0,0,6.762-2.423c2.039-.836,3.9-1.568,5.587-2.071a22.989,22.989,0,0,1,4.407-.931A12.322,12.322,0,0,1,205.323,396.156Z" transform="translate(-116.106 -388.13)"/></g><g transform="translate(15.345 116.895)"><path class="b" d="M195.368,445.34a12.079,12.079,0,0,0-2.613-2.559,11.535,11.535,0,0,0-3.883-1.77,11.782,11.782,0,0,0-5.613-.074,11.57,11.57,0,0,0-5.782,3.5c-.884.875-1.752,1.833-2.729,2.754a11.671,11.671,0,0,1-3.409,2.365,7.552,7.552,0,0,1-4.336.465,11.967,11.967,0,0,1-4.219-1.7c-2.672-1.612-4.753-4.093-7.09-6.3a19.78,19.78,0,0,0-3.758-2.89,11.374,11.374,0,0,0-4.321-1.432,19.113,19.113,0,0,0-8.56,1.214c-2.632.938-5.015,2.154-7.294,3.182a35.845,35.845,0,0,1-6.546,2.394,14.413,14.413,0,0,1-9.9-.863,9.162,9.162,0,0,1-2.225-1.606c-.225-.22-.37-.412-.478-.531a1.068,1.068,0,0,1-.148-.192,10.531,10.531,0,0,0,2.923,2.184,14.411,14.411,0,0,0,9.758.722,36.028,36.028,0,0,0,6.471-2.422c2.267-1.038,4.647-2.268,7.31-3.229a19.405,19.405,0,0,1,8.739-1.257,11.768,11.768,0,0,1,4.475,1.476,20.122,20.122,0,0,1,3.839,2.948c2.365,2.233,4.417,4.679,7.019,6.253a11.593,11.593,0,0,0,4.073,1.654,7.176,7.176,0,0,0,4.12-.426,11.337,11.337,0,0,0,3.306-2.279c.966-.9,1.84-1.855,2.737-2.732a11.459,11.459,0,0,1,11.7-3.41,11.5,11.5,0,0,1,3.919,1.864,5.22,5.22,0,0,1,.661.528c.2.178.39.334.55.5.3.345.583.619.768.873l.411.584A1.089,1.089,0,0,1,195.368,445.34Z" transform="translate(-112.463 -437.198)"/></g><g class="n" transform="translate(70.679 1.349)"><path d="M230.252,309.476a8,8,0,0,0-3.094-2.408c-10.506-5.676-23.172-12.53-34.986-14.27-3.114,8.92-5.026,19.179-9.5,27.474a5.486,5.486,0,0,0-.994,3.574c.3,1.424,1.684,2.324,3,2.953a27.593,27.593,0,0,0,20.664,1.207q.048,1.918.1,3.834a20.038,20.038,0,0,0,25.618-18.4A6.693,6.693,0,0,0,230.252,309.476Z" transform="translate(-181.616 -292.798)"/></g></g><g transform="translate(59.764)"><g transform="translate(0 5.468)"><path class="f" d="M209.537,200.358a5.861,5.861,0,0,1,4.936,6.2h0l-7.341,78.9c-.6,9.331-14.506,13.914-24.493,13.195h0c-10.085-.727-10.17-5.694-9.864-14.584.511-14.854.8-20.425.791-20.341,0,0-12.649-2.767-14.446-19.546-.893-8.344.214-21.895,1.477-32.953,1.137-9.953,8.376-21.867,18.272-20.309Z" transform="translate(-158.796 -190.786)"/><g transform="translate(4.327 26.211)"><g transform="translate(4.185 4.907)"><path class="e" d="M169.44,231.5a2.138,2.138,0,0,0,1.948,2.259,2.045,2.045,0,0,0,2.3-1.813,2.138,2.138,0,0,0-1.947-2.259A2.045,2.045,0,0,0,169.44,231.5Z" transform="translate(-169.433 -229.675)"/></g><path class="e" d="M164.233,225.582c.25.291,1.928-.823,4.225-.7,2.3.09,3.922,1.357,4.186,1.089.129-.118-.116-.635-.823-1.207a5.866,5.866,0,0,0-3.333-1.215,5.627,5.627,0,0,0-3.381.9C164.374,224.959,164.109,225.45,164.233,225.582Z" transform="translate(-164.203 -223.542)"/></g><g transform="translate(27.084 27.903)"><g transform="translate(3.249 5.262)"><path class="e" d="M196.711,234.06a2.138,2.138,0,0,0,1.948,2.259,2.045,2.045,0,0,0,2.3-1.813,2.139,2.139,0,0,0-1.947-2.26A2.046,2.046,0,0,0,196.711,234.06Z" transform="translate(-196.704 -232.234)"/></g><path class="e" d="M192.672,227.7c.251.292,1.932-.823,4.227-.7,2.3.09,3.922,1.357,4.185,1.088.128-.118-.113-.634-.823-1.206a5.866,5.866,0,0,0-3.333-1.216,5.64,5.64,0,0,0-3.381.9C192.816,227.074,192.549,227.566,192.672,227.7Z" transform="translate(-192.643 -225.657)"/></g><g transform="translate(11.969 26.759)"><path class="e" d="M179.524,243.314a15.2,15.2,0,0,0-3.7-.863c-.583-.09-1.133-.235-1.211-.64a3,3,0,0,1,.48-1.719q.936-2.087,1.962-4.378c2.733-6.237,4.742-11.377,4.491-11.484s-2.673,4.859-5.4,11.1q-.989,2.308-1.89,4.408a3.4,3.4,0,0,0-.422,2.286,1.476,1.476,0,0,0,.921.907,3.979,3.979,0,0,0,.989.189A14.98,14.98,0,0,0,179.524,243.314Z" transform="translate(-173.753 -224.228)"/></g><g transform="translate(14.563 68.134)"><path class="g" d="M177.2,280.746a42.4,42.4,0,0,0,22.594-4.811s-6.221,11.461-22.8,9.056Z" transform="translate(-176.995 -275.935)"/></g><g transform="translate(18.175 50.03)"><path class="g" d="M181.763,254.71a4.141,4.141,0,0,1,3.788-1.348,3.779,3.779,0,0,1,2.538,1.532,2.4,2.4,0,0,1,.043,2.747,2.782,2.782,0,0,1-3.05.608,8.712,8.712,0,0,1-2.846-1.9,2.533,2.533,0,0,1-.622-.713.768.768,0,0,1,.047-.855" transform="translate(-181.509 -253.309)"/></g><g transform="translate(16.787 47.777)"><path class="e" d="M187.406,250.495c-.373-.04-.5,2.453-2.729,4.114s-4.864,1.251-4.9,1.6c-.043.154.567.515,1.687.6a6.222,6.222,0,0,0,4.085-1.194,5.418,5.418,0,0,0,2.128-3.457C187.824,251.121,187.577,250.489,187.406,250.495Z" transform="translate(-179.774 -250.494)"/></g><g transform="translate(26.145 18.829)"><path class="e" d="M191.486,216.312c.262.611,2.538.182,5.251.35,2.716.114,4.934.776,5.259.2.144-.277-.268-.842-1.182-1.4a9.147,9.147,0,0,0-8.007-.416C191.841,215.5,191.371,216.021,191.486,216.312Z" transform="translate(-191.469 -214.317)"/></g><g transform="translate(4.615 23.48)"><path class="e" d="M164.6,221.969c.344.576,2.052.27,4.018.521,1.975.186,3.575.859,4.035.372.2-.239.016-.794-.641-1.386a6.062,6.062,0,0,0-6.488-.72C164.755,221.19,164.452,221.69,164.6,221.969Z" transform="translate(-164.564 -220.129)"/></g><g transform="translate(47.65 36.517)"><path class="o" d="M219.3,240.925c.35-3.533,4.323-5.709,7.306-3.785,1.638,1.056,2.832,3.077,2.494,6.83-.9,10.007-10.762,7.038-10.754,6.75C218.351,250.541,218.89,245.062,219.3,240.925Z" transform="translate(-218.345 -236.422)"/><g transform="translate(3.386 3.028)"><path class="p" d="M222.589,247.96c.047-.028.164.138.447.3a1.745,1.745,0,0,0,1.3.144c1.092-.293,2.133-1.891,2.345-3.69a5.79,5.79,0,0,0-.263-2.54,2.023,2.023,0,0,0-1.191-1.456.893.893,0,0,0-1.072.386c-.159.267-.114.473-.168.486-.03.022-.2-.187-.082-.593a1.12,1.12,0,0,1,.451-.592,1.324,1.324,0,0,1,.987-.168,2.461,2.461,0,0,1,1.682,1.716,5.944,5.944,0,0,1,.353,2.844c-.246,2.011-1.448,3.8-2.932,4.092a1.871,1.871,0,0,1-1.571-.408C222.585,248.2,222.553,247.975,222.589,247.96Z" transform="translate(-222.577 -240.206)"/></g></g></g><g transform="translate(6.88)"><path class="e" d="M230.11,272.706c-.834-6.878,1.961-11.308,1.905-18.232-.069-8.492-1.986-17.974-3.638-26.315a144.74,144.74,0,0,0-7.069-23.194c-2.937-7.851-10.566-15.68-18.328-19.2-6.844-3.1-15.795-2.244-21.069,2.757a9.057,9.057,0,0,1-1.161-.013c-11.738-1-13.357,7.627-13.357,7.627,7.288-6.807,12.266-.823,12.266-.823,4.427-4.589,11.809-.622,14.351,3.73,3.584,6.136,3.923,9.8,4.86,13,2.353,8.043,9.558,9.646,9.139,18.016-.538,10.724-6.646,18.991-7.473,29.7a60.041,60.041,0,0,1-1.3,9.334c-.937,3.283-15.6,28.019-6.255,30.088a5.619,5.619,0,0,0,1.038-.057l10.388-.569,8.391-5.377-.267,5.5,13.746.945c3.347-2.834,4.3-7.583,3.956-11.9S230.632,277.008,230.11,272.706Z" transform="translate(-167.393 -183.953)"/></g><g transform="translate(18.714 4.412)"><path class="j" d="M182.185,195.573a1.323,1.323,0,0,1,.142-.352c.106-.224.27-.552.5-.963a12.7,12.7,0,0,1,2.437-3.179,6.159,6.159,0,0,1,2.423-1.4,5.369,5.369,0,0,1,3.214.07c2.205.724,4.052,2.557,5.612,4.583a60.138,60.138,0,0,1,6.714,11.319c.719,1.523,1.273,2.767,1.648,3.63l.42,1a1.326,1.326,0,0,1,.121.36,1.29,1.29,0,0,1-.2-.325l-.491-.966-1.765-3.57a66.1,66.1,0,0,0-6.778-11.191c-1.541-2.007-3.335-3.778-5.4-4.476a5.043,5.043,0,0,0-3-.1,5.945,5.945,0,0,0-2.323,1.287,13.743,13.743,0,0,0-2.491,3.041A14.317,14.317,0,0,1,182.185,195.573Z" transform="translate(-182.183 -189.467)"/></g><g transform="translate(19.144 6.366)"><path class="j" d="M197.623,201.6c-.065.029-.55-1.069-1.533-2.726a27.614,27.614,0,0,0-1.912-2.781,14.618,14.618,0,0,0-2.907-2.875,4.854,4.854,0,0,0-1.857-.87,3.043,3.043,0,0,0-1.825.319,10.233,10.233,0,0,0-2.609,2.056,16.591,16.591,0,0,1-2.257,2.177,3.972,3.972,0,0,1,.533-.653c.356-.406.855-1.008,1.511-1.728a9.9,9.9,0,0,1,2.653-2.2,3.4,3.4,0,0,1,2.064-.376,5.161,5.161,0,0,1,2.026.931,14.188,14.188,0,0,1,2.971,2.981,23.841,23.841,0,0,1,1.866,2.869,22.612,22.612,0,0,1,1,2.074A3.3,3.3,0,0,1,197.623,201.6Z" transform="translate(-182.72 -191.909)"/></g><g transform="translate(31.05 1.071)"><path class="j" d="M216.379,293.311a1.611,1.611,0,0,1,.126-.278l.406-.795.672-1.283.843-1.789a63.627,63.627,0,0,0,4.083-11.89,80.277,80.277,0,0,0,2.119-18.507,114.1,114.1,0,0,0-2.426-22.7c-1.593-7.964-3.71-15.419-5.738-22.159-2.072-6.721-3.773-12.872-6.341-17.537a23.768,23.768,0,0,0-8.32-9.207,17.015,17.015,0,0,0-3.073-1.48c-.364-.146-.655-.215-.843-.285a1.667,1.667,0,0,1-.286-.106,1.621,1.621,0,0,1,.3.065c.193.057.49.114.859.246a15.883,15.883,0,0,1,3.13,1.42,23.61,23.61,0,0,1,8.5,9.2c2.625,4.693,4.358,10.855,6.45,17.567,2.05,6.739,4.181,14.2,5.779,22.187a112.856,112.856,0,0,1,2.4,22.788,79.272,79.272,0,0,1-2.216,18.575,61.156,61.156,0,0,1-4.222,11.889l-.879,1.776-.709,1.268-.443.775A1.639,1.639,0,0,1,216.379,293.311Z" transform="translate(-197.6 -185.291)"/></g><g transform="translate(39.506 1.931)"><path class="j" d="M221.383,297.857a1.679,1.679,0,0,1,.186-.248l.577-.7.945-1.126,1.186-1.617a42.606,42.606,0,0,0,5.678-11.383,58.665,58.665,0,0,0,2.842-18.638,97.519,97.519,0,0,0-3.146-22.936c-1.946-8.011-4.315-15.51-6.253-22.394-1.92-6.887-3.51-13.133-5.559-18.131a48.374,48.374,0,0,0-3.187-6.531,33.4,33.4,0,0,0-3.19-4.461,26.7,26.7,0,0,0-2.412-2.495l-.665-.614a1.714,1.714,0,0,1-.218-.22,1.7,1.7,0,0,1,.245.187l.694.583a23.957,23.957,0,0,1,2.478,2.451,32.452,32.452,0,0,1,3.267,4.447,47.564,47.564,0,0,1,3.261,6.541c2.095,5.008,3.717,11.267,5.655,18.138,1.956,6.872,4.338,14.37,6.289,22.4a96.7,96.7,0,0,1,3.126,23.034,58.293,58.293,0,0,1-2.947,18.731,41.636,41.636,0,0,1-5.825,11.384l-1.221,1.6-.979,1.1-.609.671A1.768,1.768,0,0,1,221.383,297.857Z" transform="translate(-208.167 -186.366)"/></g><g transform="translate(39.505 20.407)"><path class="j" d="M214.122,277a8.731,8.731,0,0,1-1.105-2.625,15.78,15.78,0,0,1,.118-7.735,29.03,29.03,0,0,1,1.834-5.057c.8-1.759,1.78-3.575,2.776-5.494a45.654,45.654,0,0,0,2.757-6.17,18.439,18.439,0,0,0,1.089-7.086,24.852,24.852,0,0,0-1.572-7.036c-.8-2.206-1.75-4.268-2.653-6.236-1.818-3.922-3.456-7.457-4.838-10.439l-3.229-7.054-.859-1.927-.214-.5a.095.095,0,1,1,.038-.018l.251.488.93,1.894,3.349,7,4.92,10.4c.912,1.963,1.876,4.031,2.687,6.257a25.017,25.017,0,0,1,1.6,7.152,18.745,18.745,0,0,1-1.119,7.24,45.1,45.1,0,0,1-2.8,6.215c-1.007,1.919-1.992,3.723-2.8,5.463a29.264,29.264,0,0,0-1.861,4.984,16.027,16.027,0,0,0-.246,7.623,13.217,13.217,0,0,0,.655,1.99A5.355,5.355,0,0,1,214.122,277Z" transform="translate(-208.166 -209.456)"/></g></g><g transform="translate(0 98.62)"><g transform="translate(0 30.49)"><path class="f" d="M95.471,345.3S87.938,376.666,86.9,384.69c-1.376,10.606-4.439,27.415-1.664,34.076s11.888,10.661,17.439,9.273,39.135-49.332,39.135-50.473h0l-10.825-12.212-18.041,12.212,4.735-26.71Z" transform="translate(-84.107 -345.305)"/></g><g transform="translate(61.584)"><rect class="j" width="28.212" height="53.762" rx="3.537"/></g><g transform="translate(46.03 21.378)"><path class="f" d="M175.565,343.619a25.4,25.4,0,0,0-6.151.352l-14.454,1.989,4.334-5.349s11.81-2.115,14.278-2.82a1.441,1.441,0,0,0,1.143-1.718,2.507,2.507,0,0,0-2.569-2.156l-16.2.348-11.1,9.695v14.278l-3.208,5.412,11.094,11.923s7.626-4.116,8.331-5.7a6.215,6.215,0,0,0,.529-3l9.446-3.179a2.48,2.48,0,0,0,1.68-2.548l-.022-.266L160.7,360l13.069-2.261a1.69,1.69,0,0,0-.128-3.347l-15.233-1.444,12.642-4.244a51.362,51.362,0,0,0,6.209-2.277C178.432,345.837,177.879,344.01,175.565,343.619Z" transform="translate(-141.632 -333.917)"/></g><g transform="translate(11.287 61.186)"><path class="g" d="M118.071,383.668a5.275,5.275,0,0,1-.825.682c-.546.418-1.352,1-2.35,1.719-1.993,1.437-4.793,3.358-7.7,5.7-1.449,1.18-2.77,2.373-3.916,3.512a33.541,33.541,0,0,0-2.821,3.232c-1.48,1.948-2.165,3.312-2.24,3.27a5.212,5.212,0,0,1,.454-.97,10.231,10.231,0,0,1,.626-1.09c.262-.414.547-.9.923-1.386A29.914,29.914,0,0,1,103,395.013a47.736,47.736,0,0,1,3.928-3.566c2.93-2.361,5.763-4.247,7.8-5.62l2.425-1.61A5.309,5.309,0,0,1,118.071,383.668Z" transform="translate(-98.213 -383.666)"/></g></g><g transform="translate(74.578 103.768)"><path class="a" d="M179.9,314.929a1.3,1.3,0,1,1-1.3-1.3A1.3,1.3,0,0,1,179.9,314.929Z" transform="translate(-177.309 -313.633)"/></g><g transform="translate(70.161 116.211)"><path class="f" d="M205.03,345.166l-7.151-10.982s-16.218-5.364-18.262-4.98c-1.556.292-1.779,2.528-1.8,3.577-.006.328.009.54.009.54l2.093,1.407,9.528,1.756,5.619,3.83-3.831-1.792-11.211-1.737a3.915,3.915,0,0,0-3.976,1.756c-.179.3-.03.422-.059.724-.138,1.432,4.529,2.82,4.529,2.82l8.406,2.492,2.95,5.443-10.342-3.188s-6.349,2.106-6.77,2.933,4.332,2.9,4.715,2.917,8.055,3.6,8.055,3.6l-7.585.312-8.161,1.524,3.354,1.563,6.39.816,5.492,2.681-.255,4.98s2.426,5.108,4.655,6.385S202.859,363.3,202.859,363.3l.639-6,1.532-5.619-.766-3.423Z" transform="translate(-171.789 -329.184)"/><g transform="translate(19.636 32.46)"><path class="f" d="M196.328,382.643l11.736,54.988s3.561,11.578,16.457,11.578c11.831,0,16.168-22.331,16.168-22.331l10.3-55.1-23.068-2.027-6.331,32.62-13.828-30.964Z" transform="translate(-196.328 -369.749)"/></g><g transform="translate(44.33 63.589)"><path class="g" d="M235.718,441.031a8.523,8.523,0,0,1,.089-1.352c.048-.432.1-.961.122-1.578s.094-1.315.082-2.092a44.222,44.222,0,0,0-.238-5.437,43.776,43.776,0,0,0-3.382-12.844,44.392,44.392,0,0,0-2.472-4.851c-.373-.681-.775-1.257-1.1-1.78s-.629-.961-.883-1.313a8.351,8.351,0,0,1-.743-1.132,8.472,8.472,0,0,1,.873,1.036c.275.339.6.763.945,1.279s.77,1.082,1.162,1.758a40.274,40.274,0,0,1,2.571,4.848,41.573,41.573,0,0,1,3.414,12.959,40.486,40.486,0,0,1,.151,5.485c-.009.781-.094,1.484-.146,2.1s-.12,1.148-.192,1.579A8.369,8.369,0,0,1,235.718,441.031Z" transform="translate(-227.189 -408.652)"/></g></g><g transform="translate(129.507 106.553)"><path class="e" d="M262.632,361.379a2.427,2.427,0,0,1-.078-.516c-.038-.383-.085-.876-.143-1.487-.113-1.344-.268-3.2-.458-5.472-.379-4.622-.866-11.01-1.506-18.052-.206-2.095-.366-4.157-.694-6.063a11.547,11.547,0,0,0-2.7-4.71,42.686,42.686,0,0,0-6.466-5.933l.025.014-3.446-1.476-.907-.407a.172.172,0,1,1,.026-.062l.931.346,3.49,1.37.014.006.012.008a40.373,40.373,0,0,1,6.6,5.893,11.77,11.77,0,0,1,2.817,4.873c.345,1.959.5,4,.712,6.1.641,7.05,1.08,13.441,1.385,18.069l.326,5.483.065,1.492A2.438,2.438,0,0,1,262.632,361.379Z" transform="translate(-245.955 -317.113)"/></g></g></g><g transform="translate(28.001 279.222)"><g transform="translate(4.325 72.464)"><path class="q" d="M35.847,430.032l5.386,35.392H72.522l7.262-34.881Z" transform="translate(-35.847 -430.032)"/></g><g transform="translate(7.892 91.257)"><g transform="translate(0.183 3.706)"><path class="b" d="M76.345,458.333c0,.1-8.017.184-17.9.184s-17.907-.082-17.907-.184,8.015-.183,17.907-.183S76.345,458.232,76.345,458.333Z" transform="translate(-40.533 -458.15)"/></g><g transform="translate(0.062 1.966)"><path class="b" d="M76.436,456.158c0,.1-8.072.184-18.026.184s-18.029-.082-18.029-.184,8.07-.183,18.029-.183S76.436,456.057,76.436,456.158Z" transform="translate(-40.381 -455.975)"/></g><path class="b" d="M76.359,453.7c0,.1-8.072.184-18.027.184S40.3,453.8,40.3,453.7s8.07-.183,18.028-.183S76.359,453.6,76.359,453.7Z" transform="translate(-40.304 -453.518)"/><g transform="translate(3.835 5.605)"><path class="b" d="M46.675,469.5a56.608,56.608,0,0,1-1.557-8.975,28.328,28.328,0,0,1,.959,4.456A28.317,28.317,0,0,1,46.675,469.5Z" transform="translate(-45.097 -460.523)"/></g><g transform="translate(6.915 5.496)"><path class="b" d="M49.573,469.094a103.258,103.258,0,0,1-.592-8.708,34.761,34.761,0,0,1,.592,8.708Z" transform="translate(-48.946 -460.386)"/></g><g transform="translate(10.321 5.219)"><path class="b" d="M54.3,469.024a35.449,35.449,0,0,1-1.052-8.984,39.152,39.152,0,0,1,.6,4.483A39.223,39.223,0,0,1,54.3,469.024Z" transform="translate(-53.203 -460.04)"/></g><g transform="translate(13.684 5.312)"><path class="b" d="M57.866,469.234a36.173,36.173,0,0,1-.3-9.078,126.935,126.935,0,0,1,.3,9.078Z" transform="translate(-57.405 -460.156)"/></g><g transform="translate(18.585 5.593)"><path class="b" d="M63.911,469.12a50.6,50.6,0,0,1-.292-8.612,50.6,50.6,0,0,1,.292,8.612Z" transform="translate(-63.53 -460.508)"/></g><g transform="translate(22.336 5.499)"><path class="b" d="M68.368,469.282a53.907,53.907,0,0,1,.073-8.892,53.907,53.907,0,0,1-.073,8.892Z" transform="translate(-68.218 -460.39)"/></g><g transform="translate(25.752 4.657)"><path class="b" d="M72.523,468.6a59.007,59.007,0,0,1,.9-9.261,59.007,59.007,0,0,1-.9,9.261Z" transform="translate(-72.487 -459.338)"/></g><g transform="translate(30.017 5.687)"><path class="b" d="M77.845,468.392a24.4,24.4,0,0,1,1.69-7.767,34.955,34.955,0,0,1-.8,3.893A34.98,34.98,0,0,1,77.845,468.392Z" transform="translate(-77.817 -460.625)"/></g></g><g transform="translate(16.569)"><g transform="translate(10.116 2.626)"><path class="j" d="M72.029,342.755a.6.6,0,0,1-.038.174l-.146.5-.595,1.91c-.268.827-.587,1.84-.919,3.029S69.575,350.9,69.2,352.4c-.4,1.5-.827,3.146-1.219,4.928-.434,1.773-.8,3.69-1.207,5.7-.75,4.034-1.435,8.5-1.917,13.207-.458,4.715-.669,9.225-.731,13.329,0,2.052-.018,4,.057,5.826.031,1.825.128,3.523.221,5.072.067,1.552.213,2.949.309,4.179s.2,2.287.3,3.15c.086.841.155,1.506.206,1.99.018.21.033.38.044.519a.7.7,0,0,1,0,.178.633.633,0,0,1-.04-.174l-.081-.515c-.066-.482-.158-1.145-.274-1.983-.121-.861-.255-1.916-.365-3.147s-.278-2.627-.363-4.18c-.11-1.552-.221-3.251-.266-5.08-.088-1.828-.079-3.782-.09-5.839.044-4.113.245-8.636.7-13.362.484-4.723,1.18-9.195,1.95-13.235.418-2.014.795-3.932,1.243-5.705.406-1.784.851-3.428,1.265-4.928.39-1.506.827-2.844,1.183-4.026s.691-2.193.979-3.013l.661-1.89.18-.488A.672.672,0,0,1,72.029,342.755Z" transform="translate(-63.79 -342.755)"/></g><g transform="translate(12.145 17.761)"><path class="j" d="M66.888,368.45a11.622,11.622,0,0,1,4.865-6.145,2.786,2.786,0,0,1,2.573-.473c1.091.528,1.179,2.064.854,3.232a8.56,8.56,0,0,1-3.541,4.827,7.221,7.221,0,0,1-5.314,1.34" transform="translate(-66.325 -361.669)"/></g><g transform="translate(10.485 29.301)"><path class="j" d="M64.573,386.129c.808-3.054,3.245-7.4,5.775-9.288a3.719,3.719,0,0,1,1.314-.7,1.525,1.525,0,0,1,1.4.3,2.154,2.154,0,0,1,.314,2.028,12.315,12.315,0,0,1-9.129,9.19" transform="translate(-64.251 -376.09)"/></g><g transform="translate(10.284 44.289)"><path class="j" d="M64,402.9a17.876,17.876,0,0,1,5.827-7.328,2.78,2.78,0,0,1,2.032-.724c1.106.2,1.608,1.55,1.51,2.669-.2,2.3-1.961,4.151-3.778,5.583a23.418,23.418,0,0,1-5.39,2.77" transform="translate(-63.999 -394.822)"/></g><g transform="translate(10.577 55.403)"><path class="j" d="M64.366,415.038a17.2,17.2,0,0,1,4.958-5.644,3.577,3.577,0,0,1,1.488-.667,1.518,1.518,0,0,1,1.46.555c.5.731.023,1.717-.51,2.421a14.133,14.133,0,0,1-7.074,5.189" transform="translate(-64.366 -408.71)"/></g><g transform="translate(1.177 50.129)"><path class="j" d="M61.774,409.917a55.263,55.263,0,0,0-7.09-7.222c-.4-.341-.911-.7-1.412-.535a1.058,1.058,0,0,0-.651.953,2.683,2.683,0,0,0,.27,1.183,13.746,13.746,0,0,0,9.128,7.679" transform="translate(-52.618 -402.12)"/></g><g transform="translate(0 36.887)"><path class="j" d="M61.706,394.424l-5.57-6.79a6.716,6.716,0,0,0-1.807-1.715,2.286,2.286,0,0,0-2.376-.028,2.252,2.252,0,0,0-.763,2.242,5.909,5.909,0,0,0,1.087,2.231,16.548,16.548,0,0,0,4.059,4.311c1.635,1.124,3.122,1.856,5.085,1.567" transform="translate(-51.147 -385.571)"/></g><g transform="translate(1.523 22.724)"><path class="j" d="M62.861,377.168a19.42,19.42,0,0,0-5.6-8.413A3.263,3.263,0,0,0,55.8,367.9a2.454,2.454,0,0,0-2.554,1.794,4.6,4.6,0,0,0,.508,3.686,9.736,9.736,0,0,0,2.618,2.769,22.446,22.446,0,0,0,6.2,3.345" transform="translate(-53.051 -367.872)"/></g><g transform="translate(5.183 8.12)"><path class="j" d="M66,361.289c-.539-3.936-2.588-7.211-4.962-10.4-.5-.671-1.2-1.384-2.027-1.257a1.606,1.606,0,0,0-1.163,1,3.748,3.748,0,0,0-.22,1.573,12.158,12.158,0,0,0,7.89,10.862" transform="translate(-57.625 -349.621)"/></g><g transform="translate(14.838)"><path class="j" d="M69.969,353.015a32.473,32.473,0,0,1-.2-6.086,10.882,10.882,0,0,1,2.02-5.668,4.677,4.677,0,0,1,2.022-1.612,2.556,2.556,0,0,1,2.481.329,2.7,2.7,0,0,1,.85,2.185,6.857,6.857,0,0,1-.627,2.332c-1.484,3.57-3.958,7.522-6.542,8.522" transform="translate(-69.691 -339.473)"/></g></g><g transform="translate(0 16.015)"><g transform="translate(7.295 2.217)"><path class="e" d="M39.686,362.258a2.514,2.514,0,0,1,.03.5c0,.363.01.838.016,1.428,0,.621,0,1.379.035,2.259s.035,1.883.108,2.99c.1,2.214.311,4.845.647,7.754.36,2.907.855,6.09,1.541,9.4.7,3.307,1.528,6.422,2.365,9.229.862,2.8,1.723,5.295,2.524,7.362.378,1.042.775,1.963,1.1,2.78s.625,1.516.875,2.083c.231.543.418.979.559,1.314a2.541,2.541,0,0,1,.173.47,2.52,2.52,0,0,1-.239-.438L48.8,408.1c-.27-.559-.591-1.247-.934-2.061s-.761-1.727-1.155-2.766c-.834-2.059-1.723-4.553-2.605-7.356-.859-2.81-1.7-5.934-2.4-9.253-.687-3.321-1.175-6.517-1.517-9.435-.318-2.922-.507-5.562-.571-7.783-.057-1.109-.045-2.115-.054-3s0-1.642.026-2.263c.022-.591.04-1.066.054-1.429A2.535,2.535,0,0,1,39.686,362.258Z" transform="translate(-39.558 -362.258)"/></g><g transform="translate(8.295 12.236)"><path class="e" d="M40.808,380.9a8.3,8.3,0,0,1,1.989-5.23,1.992,1.992,0,0,1,1.651-.876c.857.125,1.247,1.151,1.277,2.016a6.109,6.109,0,0,1-1.372,4.048,5.155,5.155,0,0,1-3.33,2.057" transform="translate(-40.808 -374.778)"/></g><g transform="translate(10.176 20.329)"><path class="e" d="M43.169,393.4a13.991,13.991,0,0,1,1.932-7.566,2.657,2.657,0,0,1,.744-.759,1.088,1.088,0,0,1,1.021-.1,1.54,1.54,0,0,1,.651,1.313,8.794,8.794,0,0,1-4.238,8.222" transform="translate(-43.159 -384.892)"/></g><g transform="translate(12.634 30.637)"><path class="e" d="M46.23,404.957a12.768,12.768,0,0,1,2.39-6.243,1.982,1.982,0,0,1,1.228-.931c.8-.1,1.428.71,1.6,1.492.359,1.612-.442,3.249-1.37,4.614a16.7,16.7,0,0,1-3.073,3.046" transform="translate(-46.23 -397.775)"/></g><g transform="translate(14.849 38.325)"><path class="e" d="M49,413.189a12.291,12.291,0,0,1,2.16-4.91,2.561,2.561,0,0,1,.869-.774,1.085,1.085,0,0,1,1.114.063c.5.391.385,1.164.174,1.759a10.083,10.083,0,0,1-3.7,5.056" transform="translate(-48.999 -407.383)"/></g><g transform="translate(6.143 38.029)"><path class="e" d="M45.839,410.578a39.422,39.422,0,0,0-6.381-3.391,1.142,1.142,0,0,0-1.077-.06.757.757,0,0,0-.238.789,1.926,1.926,0,0,0,.438.748,9.815,9.815,0,0,0,7.867,3.263" transform="translate(-38.118 -407.012)"/></g><g transform="translate(2.661 29.006)"><path class="e" d="M42.5,399.979l-5.253-3.423a4.8,4.8,0,0,0-1.6-.779,1.631,1.631,0,0,0-1.624.492,1.607,1.607,0,0,0-.037,1.69,4.206,4.206,0,0,0,1.22,1.285,11.794,11.794,0,0,0,3.691,2.062,4.845,4.845,0,0,0,3.8-.028" transform="translate(-33.766 -395.736)"/></g><g transform="translate(0.811 18.946)"><path class="e" d="M39.614,387.96a13.87,13.87,0,0,0-5.627-4.522,2.332,2.332,0,0,0-1.178-.266,1.752,1.752,0,0,0-1.353,1.772,3.287,3.287,0,0,0,1.139,2.4,6.957,6.957,0,0,0,2.378,1.321,16.039,16.039,0,0,0,4.939.943" transform="translate(-31.456 -383.164)"/></g><g transform="translate(0 8.41)"><path class="e" d="M38.292,376.522a16.233,16.233,0,0,0-5.616-6.01,1.706,1.706,0,0,0-1.65-.42,1.147,1.147,0,0,0-.577.931,2.678,2.678,0,0,0,.188,1.118,8.685,8.685,0,0,0,7.711,5.7" transform="translate(-30.441 -369.997)"/></g><g transform="translate(5.893)"><path class="e" d="M39.481,369.833a23.2,23.2,0,0,1-1.448-4.1,7.777,7.777,0,0,1,.155-4.295,3.336,3.336,0,0,1,1.03-1.532,1.825,1.825,0,0,1,1.76-.31,1.93,1.93,0,0,1,1.049,1.3,4.92,4.92,0,0,1,.074,1.723c-.242,2.75-1.076,5.973-2.62,7.21" transform="translate(-37.806 -359.487)"/></g></g><g transform="translate(35.06 15.672)"><g transform="translate(1.944 2.217)"><path class="j" d="M86.664,361.829a2.565,2.565,0,0,1,.044.5c.013.363.03.838.053,1.429.023.621.041,1.38.027,2.263s0,1.888-.054,3c-.063,2.221-.252,4.862-.57,7.783-.343,2.917-.831,6.114-1.518,9.436-.7,3.318-1.544,6.442-2.4,9.252-.882,2.8-1.771,5.3-2.6,7.357-.394,1.039-.809,1.954-1.155,2.765s-.663,1.5-.934,2.061l-.623,1.287a2.656,2.656,0,0,1-.239.438,2.486,2.486,0,0,1,.172-.47l.559-1.314c.25-.567.552-1.263.875-2.083s.725-1.738,1.1-2.78c.8-2.067,1.662-4.563,2.524-7.362.838-2.807,1.663-5.921,2.366-9.229.685-3.31,1.18-6.493,1.541-9.4.335-2.909.55-5.54.647-7.755.073-1.106.079-2.109.108-2.989s.037-1.639.035-2.258c.006-.591.012-1.066.016-1.429A2.6,2.6,0,0,1,86.664,361.829Z" transform="translate(-76.687 -361.829)"/></g><g transform="translate(6.13 12.236)"><path class="j" d="M86.837,380.467a8.3,8.3,0,0,0-1.989-5.23,1.992,1.992,0,0,0-1.651-.876c-.856.125-1.247,1.151-1.276,2.016a6.114,6.114,0,0,0,1.372,4.049,5.159,5.159,0,0,0,3.33,2.056" transform="translate(-81.918 -374.349)"/></g><g transform="translate(4.776 20.329)"><path class="j" d="M84.608,392.972a13.984,13.984,0,0,0-1.932-7.566,2.647,2.647,0,0,0-.744-.759,1.088,1.088,0,0,0-1.021-.1,1.54,1.54,0,0,0-.651,1.313,8.794,8.794,0,0,0,4.238,8.222" transform="translate(-80.226 -384.463)"/></g><g transform="translate(1.403 30.637)"><path class="j" d="M81.319,404.528a12.759,12.759,0,0,0-2.389-6.243,1.989,1.989,0,0,0-1.228-.931c-.8-.1-1.428.71-1.6,1.492-.358,1.612.442,3.249,1.37,4.615a16.716,16.716,0,0,0,3.073,3.046" transform="translate(-76.011 -397.346)"/></g><g transform="translate(0 38.325)"><path class="j" d="M78.752,412.76a12.28,12.28,0,0,0-2.16-4.91,2.562,2.562,0,0,0-.869-.774,1.083,1.083,0,0,0-1.113.063c-.5.391-.386,1.164-.174,1.758a10.1,10.1,0,0,0,3.7,5.056" transform="translate(-74.257 -406.954)"/></g><g transform="translate(4.871 38.029)"><path class="j" d="M80.955,410.149a39.425,39.425,0,0,1,6.381-3.391,1.138,1.138,0,0,1,1.076-.059.752.752,0,0,1,.238.788,1.907,1.907,0,0,1-.438.748,9.815,9.815,0,0,1-7.867,3.263" transform="translate(-80.344 -406.583)"/></g><g transform="translate(7.753 29.006)"><path class="j" d="M84.143,399.551l5.254-3.424a4.8,4.8,0,0,1,1.6-.779,1.632,1.632,0,0,1,1.624.492,1.606,1.606,0,0,1,.037,1.69,4.2,4.2,0,0,1-1.22,1.285,11.785,11.785,0,0,1-3.691,2.062,4.843,4.843,0,0,1-3.8-.028" transform="translate(-83.946 -395.308)"/></g><g transform="translate(10.077 18.946)"><path class="j" d="M87.149,387.531a13.869,13.869,0,0,1,5.627-4.522,2.336,2.336,0,0,1,1.178-.266,1.754,1.754,0,0,1,1.353,1.772,3.285,3.285,0,0,1-1.14,2.4,6.95,6.95,0,0,1-2.378,1.321,16.034,16.034,0,0,1-4.938.943" transform="translate(-86.851 -382.735)"/></g><g transform="translate(11.438 8.41)"><path class="j" d="M88.607,376.093a16.234,16.234,0,0,1,5.616-6.01,1.705,1.705,0,0,1,1.651-.42,1.151,1.151,0,0,1,.577.931,2.691,2.691,0,0,1-.189,1.118,8.684,8.684,0,0,1-7.711,5.7" transform="translate(-88.552 -369.568)"/></g><g transform="translate(9.117)"><path class="j" d="M88.311,369.4a23.141,23.141,0,0,0,1.449-4.1,7.777,7.777,0,0,0-.156-4.295,3.34,3.34,0,0,0-1.029-1.532,1.827,1.827,0,0,0-1.76-.31,1.93,1.93,0,0,0-1.048,1.3,4.9,4.9,0,0,0-.075,1.723c.242,2.75,1.076,5.974,2.62,7.21" transform="translate(-85.651 -359.058)"/></g></g><g transform="translate(0.735 65.456)"><path class="q" d="M31.36,421.274V427.9a2.607,2.607,0,0,0,2.607,2.607H79.276a2.608,2.608,0,0,0,2.608-2.607v-6.622Z" transform="translate(-31.36 -421.274)"/></g><g class="r" transform="translate(4.663 74.685)"><path d="M36.269,432.808l.376,2.108L78.453,437.9l1.059-5.088Z" transform="translate(-36.269 -432.808)"/></g></g><g transform="translate(42.693 88.431)"><g transform="translate(0)"><ellipse class="b" cx="36.488" cy="36.364" rx="36.488" ry="36.364"/><g transform="translate(0.132 0)"><g transform="translate(70.485 62.629)"><path class="e" d="M141.259,179.354c.006.038-.392.061-1.035.324a4.791,4.791,0,0,0-2.184,1.874,4.545,4.545,0,0,0-.674,1.867,3.955,3.955,0,0,0,.395,2.213,4.327,4.327,0,0,0,8.1-.48,3.966,3.966,0,0,0,.13-2.244,4.549,4.549,0,0,0-.891-1.774,4.78,4.78,0,0,0-2.39-1.6c-.671-.186-1.067-.162-1.066-.2a.89.89,0,0,1,.284-.023,1.767,1.767,0,0,1,.346.018,2.749,2.749,0,0,1,.468.077,4.855,4.855,0,0,1,3.519,3.437,4.214,4.214,0,0,1-.108,2.413,4.914,4.914,0,0,1-1.513,2.2,4.357,4.357,0,0,1-5.4.32,4.92,4.92,0,0,1-1.762-2,4.212,4.212,0,0,1-.392-2.383,4.856,4.856,0,0,1,3.089-3.829,2.747,2.747,0,0,1,.455-.132,1.816,1.816,0,0,1,.342-.058A.936.936,0,0,1,141.259,179.354Z" transform="translate(-137.054 -179.306)"/></g><path class="e" d="M121.755,140.381s-.006-.2,0-.591.017-.976.03-1.73q.012-.571.027-1.275c-.012-.468-.07-.979-.109-1.533l-.139-1.788a6.276,6.276,0,0,0-.131-.98q-.09-.5-.186-1.035a34.667,34.667,0,0,0-3.258-9.946,36.164,36.164,0,0,0-8.389-10.978l-1.472-1.287c-.521-.4-1.073-.778-1.617-1.175l-.826-.592a7.076,7.076,0,0,0-.857-.565l-1.805-1.047c-.306-.174-.607-.358-.919-.527l-.974-.444-1.976-.9c-.673-.282-1.384-.486-2.084-.736l-1.061-.362c-.178-.058-.354-.126-.535-.177l-.551-.128A33.591,33.591,0,0,0,90.4,101.7c-.776-.088-1.556-.226-2.347-.275l-2.4-.064c-.4,0-.807-.038-1.212-.016l-1.219.091c-.815.07-1.64.1-2.461.2a38.36,38.36,0,0,0-4.926,1.036l-1.231.346c-.206.06-.414.111-.618.178l-.6.234-2.421.943c-.795.354-1.564.778-2.353,1.167-.388.208-.8.378-1.171.618l-1.125.713a40.7,40.7,0,0,0-4.367,3.162l-1.993,1.878-.5.472c-.157.167-.3.344-.458.516l-.913,1.042-.917,1.046-.819,1.131-.819,1.139-.411.571c-.125.2-.238.4-.358.607q-.709,1.221-1.424,2.45l-1.189,2.6a35.884,35.884,0,0,0-1.78,22.783l.771,2.751,1.027,2.642.259.656.318.628.633,1.252L54,155.444l.744,1.176.74,1.171.372.582.422.544,1.678,2.164a40.632,40.632,0,0,0,3.826,3.8l1,.879c.331.294.71.527,1.061.792.72.507,1.414,1.045,2.144,1.518l2.245,1.308.558.324c.19.1.389.181.583.272l1.163.533a38.361,38.361,0,0,0,4.707,1.788c.8.23,1.605.388,2.4.584l1.19.278c.4.084.8.113,1.2.172l2.381.31c.79.073,1.58.058,2.361.092a33.819,33.819,0,0,0,4.61-.174l.565-.041c.186-.022.37-.062.556-.092l1.1-.193c.731-.138,1.465-.23,2.173-.4l2.092-.583,1.031-.287.989-.378,1.946-.755a7.026,7.026,0,0,0,.934-.425l.908-.458c.6-.308,1.2-.593,1.78-.911l1.654-1.043a36.171,36.171,0,0,0,9.989-9.545c.3-.417.6-.819.879-1.227l.735-1.256.707-1.208c.112-.2.237-.39.336-.591l.278-.6,1.054-2.287c.314-.735.524-1.47.772-2.147q.176-.511.344-.995a6.237,6.237,0,0,0,.281-.948l.415-1.744c.123-.542.261-1.037.345-1.5l.171-1.263q.156-1.121.238-1.714c.056-.386.093-.583.093-.583s-.014.2-.058.587-.115.971-.2,1.72q-.07.569-.155,1.267c-.079.463-.211.961-.33,1.505s-.258,1.128-.4,1.754a6.253,6.253,0,0,1-.274.953l-.338,1c-.243.681-.451,1.42-.761,2.161l-1.045,2.3q-.136.3-.276.608c-.1.2-.222.394-.334.595q-.344.6-.7,1.218l-.732,1.266c-.278.411-.58.817-.878,1.237a36.251,36.251,0,0,1-10.013,9.636l-1.661,1.055c-.579.322-1.187.61-1.789.922l-.913.463a7.177,7.177,0,0,1-.939.431l-1.958.765c-.33.126-.66.262-1,.383l-1.037.292-2.106.591c-.713.178-1.452.271-2.188.413l-1.111.2c-.186.031-.372.072-.561.094l-.569.042a33.936,33.936,0,0,1-4.645.184c-.787-.032-1.584-.016-2.381-.089l-2.4-.307c-.4-.059-.81-.088-1.211-.172l-1.2-.279c-.8-.2-1.618-.354-2.421-.585a38.528,38.528,0,0,1-4.748-1.8l-1.175-.536c-.2-.091-.4-.175-.588-.273l-.563-.327-2.267-1.316c-.737-.477-1.438-1.019-2.164-1.529-.354-.267-.737-.5-1.071-.8l-1.011-.886a41.05,41.05,0,0,1-3.862-3.832l-1.695-2.183-.426-.549-.375-.587-.748-1.181-.751-1.187-.641-1.255-.639-1.264-.32-.634-.262-.662-1.039-2.667q-.388-1.383-.779-2.776a36.181,36.181,0,0,1,1.8-22.995l1.2-2.621,1.439-2.473c.122-.2.235-.412.362-.612l.415-.577.827-1.149.828-1.14.926-1.055.922-1.051c.154-.174.3-.352.462-.521l.507-.476,2.012-1.893A41.19,41.19,0,0,1,66.14,106.6l1.136-.718c.376-.241.79-.414,1.182-.623.8-.392,1.573-.819,2.376-1.175l2.443-.949.606-.235c.206-.067.416-.119.623-.179l1.243-.347a38.567,38.567,0,0,1,4.969-1.039c.829-.1,1.66-.133,2.481-.2l1.229-.09c.409-.021.817.014,1.223.018l2.419.068c.8.051,1.584.19,2.366.281a34.042,34.042,0,0,1,4.559.9l.556.13c.182.051.359.12.539.179l1.068.366c.7.254,1.42.461,2.1.747l1.988.911.979.45c.314.171.618.357.924.533l1.816,1.059a7.11,7.11,0,0,1,.862.571l.83.6c.547.4,1.1.78,1.625,1.187l1.478,1.3a36.262,36.262,0,0,1,8.4,11.073,34.546,34.546,0,0,1,3.218,10.007q.091.535.178,1.04a6.3,6.3,0,0,1,.124.985q.066.96.124,1.795c.033.556.086,1.068.093,1.538l-.043,1.277q-.042,1.132-.064,1.732C121.771,140.183,121.755,140.381,121.755,140.381Z" transform="translate(-48.967 -101.038)"/></g><g transform="translate(25.19 15.73)"><path class="s" d="M80.284,132.59h6.367s0-5.346,5.556-5.442a5.153,5.153,0,0,1,4.99,3.289,5.706,5.706,0,0,1-.454,5.157c-1.08,1.78-3.446,3.4-7.738,2.643v14.357h6.3v-8.41a12.3,12.3,0,0,0,8.831-12.014c0-9.311-8.35-11.474-11.924-11.474C89.474,120.7,80.163,121.357,80.284,132.59Z" transform="translate(-80.283 -120.696)"/><g transform="translate(8.705 34.855)"><rect class="s" width="6.39" height="5.968"/></g></g></g></g><g transform="translate(18.227 386.869)"><path class="e" d="M379.724,474.211c0,.115-80.93.208-180.74.208-99.845,0-180.757-.093-180.757-.208S99.14,474,198.984,474C298.794,474,379.724,474.1,379.724,474.211Z" transform="translate(-18.227 -474.002)"/></g></g></svg>