<svg xmlns="http://www.w3.org/2000/svg" width="439.076" height="429.771" viewBox="0 0 439.076 429.771"><defs><style>.a{fill:#75c6fa;}.b,.g,.l,.o,.p,.q{fill:none;}.b,.c,.f,.g,.h,.l,.o{stroke:#263238;}.b,.c,.l,.o,.p,.q{stroke-linecap:round;stroke-linejoin:round;}.b,.c,.f,.g,.h,.j,.l,.p,.q{stroke-width:1.103px;}.b{stroke-dasharray:4.412;}.c,.e,.j,.k,.m{fill:#fff;}.d{fill:#263238;}.e,.n,.p{opacity:0.2;}.f,.i{fill:#0048cd;}.f,.g,.j{stroke-miterlimit:10;}.h{fill:#053590;}.j{stroke:#222221;}.m{opacity:0.5;}.o{stroke-width:2.206px;}.p,.q{stroke:#fff;}</style></defs><g transform="translate(-30.461 -42.391)"><path class="a" d="M456.551,209.106C407.806,125.632,275.6,155.362,248.6,114.757c-13.826-20.79-29.295-44.889-51.732-57.422-21.389-11.947-46.189-16.209-67.811-14.627C51.845,48.36,19.107,117.439,33.944,193.3c19.793,101.192,109.5,204.559,216.064,205.283,55.736.378,108.948-19.545,150.69-47.71l.933-.633C443.331,321.854,493.766,272.837,456.551,209.106Z"/><path class="b" d="M78.189,215.179H72.77a21.932,21.932,0,0,0-21.932,21.932V357.453A21.932,21.932,0,0,0,72.77,379.385h74.36a21.932,21.932,0,0,0,21.932-21.932h0"/><path class="b" d="M162.964,101.629V77.858A13.432,13.432,0,0,1,176.4,64.426h96.7A13.432,13.432,0,0,1,286.53,77.858h0"/><path class="a" d="M191.522,0C297.3,0,383.043,11.983,383.043,26.764S297.3,53.528,191.522,53.528,0,41.545,0,26.764,85.747,0,191.522,0Z" transform="translate(58.478 418.635)"/><path class="c" d="M430.54,133.524v180.06a22.2,22.2,0,0,1-22.2,22.195H91.655A22.2,22.2,0,0,1,69.46,313.584V133.524c0-.529.022-1.048.066-1.566a22.192,22.192,0,0,1,22.129-20.639h316.69a22.192,22.192,0,0,1,22.129,20.639C430.518,132.476,430.54,132.995,430.54,133.524Z"/><path class="d" d="M0,0H340.611a0,0,0,0,1,0,0V166.331a20.8,20.8,0,0,1-20.8,20.8H20.8A20.8,20.8,0,0,1,0,166.331V0A0,0,0,0,1,0,0Z" transform="translate(80.26 140.276)"/><path class="e" d="M420.877,140.275V306.613a20.687,20.687,0,0,1-20.569,20.793H100.829A20.687,20.687,0,0,1,80.26,306.613V140.275Z"/><path class="f" d="M430.474,131.958H69.526a22.192,22.192,0,0,1,22.129-20.639h316.69A22.192,22.192,0,0,1,430.474,131.958Z"/><path class="d" d="M113.881,121.638a3.931,3.931,0,1,1-3.931-3.931A3.931,3.931,0,0,1,113.881,121.638Z"/><path class="d" d="M130.5,121.638a3.931,3.931,0,1,1-3.932-3.931A3.932,3.932,0,0,1,130.5,121.638Z"/><circle class="d" cx="3.931" cy="3.931" r="3.931" transform="translate(139.263 117.707)"/><path class="g" d="M420.871,140.282V306.608a20.806,20.806,0,0,1-20.8,20.8H101.059a20.8,20.8,0,0,1-20.4-16.768l-.011-.011v-.044a20.624,20.624,0,0,1-.386-3.982V140.282Z"/><path class="d" d="M420.548,166.008a21.142,21.142,0,0,0-4.622-1.908l-1.864-8.351h-7.943l-1.853,8.351a20.508,20.508,0,0,0-4.633,1.908l-7.17-4.589-5.615,5.615,4.512,7.17a20.421,20.421,0,0,0-1.908,4.633L381.1,180.69v7.943l8.351,1.864a20.242,20.242,0,0,0,1.908,4.666l-4.589,7.214,5.615,5.615L399.6,203.4a20.5,20.5,0,0,0,4.633,1.92l1.853,8.339h7.943l1.864-8.339a21.132,21.132,0,0,0,4.622-1.92l.364.232V165.8Zm-10.435,28.957a10.259,10.259,0,1,1,10.259-10.259A10.254,10.254,0,0,1,410.113,194.965Z"/><path class="d" d="M277.451,174.052V157.307L259.845,153.4a45.494,45.494,0,0,0-4.026-9.773l2.129-3.354h-83.1l2.052,3.265a43.346,43.346,0,0,0-4.016,9.763l-17.6,3.916v16.745l17.6,3.927a43.932,43.932,0,0,0,4.016,9.84l-9.675,15.212,11.848,11.836,15.2-9.674a44.72,44.72,0,0,0,9.773,4.048l3.9,17.584H224.7l3.938-17.584a45.034,45.034,0,0,0,9.741-4.048l15.212,9.674,11.836-11.836-9.608-15.212a45.893,45.893,0,0,0,4.026-9.752Zm-61,13.26a21.632,21.632,0,1,1,21.632-21.632A21.632,21.632,0,0,1,216.449,187.312Z"/><path class="d" d="M166.385,289.036l.705-13.282-13.766-3.883a37.305,37.305,0,0,0-2.824-7.9l8.317-11.682-8.913-9.9-12.465,7.049a36.905,36.905,0,0,0-7.589-3.629l-2.383-14.12-13.281-.706L110.347,244.8a34.728,34.728,0,0,0-7.9,2.8l-11.67-8.318L80.872,248.2l7.06,12.476a34.47,34.47,0,0,0-3.641,7.578l-4.026.662v17.992l2.923.827a34.8,34.8,0,0,0,2.824,7.92L80.265,303.7l.386,6.894v.044l.011.011,5.924,6.575,12.487-7.049a34.591,34.591,0,0,0,7.611,3.673l2.273,13.558v.011l.11.562,13.282.706.353-1.268V327.4l3.485-12.532a35.545,35.545,0,0,0,7.943-2.8l11.648,8.307,9.906-8.9-7.037-12.487a34.518,34.518,0,0,0,3.6-7.568Zm-35.278-20.75a17.2,17.2,0,1,0-1.279,24.28A17.2,17.2,0,0,0,131.107,268.286Z"/><path class="d" d="M272.6,269.189a27.051,27.051,0,0,0,.806-6.29l9.548-5.02-2.638-9.688-10.778.5a26.8,26.8,0,0,0-3.872-5l3.193-10.31-8.7-4.986-7.281,7.945a28.192,28.192,0,0,0-6.27-.8l-5.041-9.557-9.673,2.633.51,10.792a27.387,27.387,0,0,0-5.014,3.868L217.074,240.1l-4.992,8.689,7.987,7.262a26.2,26.2,0,0,0-.788,6.273l-9.566,5.037,2.638,9.688,10.792-.511a25.676,25.676,0,0,0,3.858,5.01L223.794,291.8l8.7,4.986,7.243-7.877a26.383,26.383,0,0,0,6.284.792l5.027,9.563,9.674-2.632-.425-9.218-.072-1.58a26.6,26.6,0,0,0,5.063-3.874l10.307,3.2,4.259-7.444.726-1.26Zm-22.873,5.885a12.958,12.958,0,1,1,9.1-15.908A12.958,12.958,0,0,1,249.728,275.074Z"/><path class="d" d="M383.316,286.227l2.206-13.292-13.458-5.416a35.746,35.746,0,0,0-1.93-8.3l9.685-10.788-7.843-10.965-13.359,5.67a35.535,35.535,0,0,0-7.214-4.479l-.783-14.494-13.3-2.2-5.449,13.4a37.241,37.241,0,0,0-8.262,1.941l-10.822-9.685-10.954,7.843,5.681,13.348a36.308,36.308,0,0,0-4.048,6.288c-.154.308-.309.617-.452.926l-14.484.806-2.206,13.281L288.5,271l11.274,4.545a34.95,34.95,0,0,0,1.93,8.262l-9.685,10.822,7.843,10.954,13.358-5.692a34.643,34.643,0,0,0,7.2,4.511l.75,14.429,13.292,2.2,5.439-13.3a34.957,34.957,0,0,0,8.284-1.942l10.8,9.7,10.965-7.854-5.681-13.359a34.8,34.8,0,0,0,4.556-7.248Zm-37.3-.6a17.409,17.409,0,1,1,4.015-24.29A17.411,17.411,0,0,1,346.02,285.631Z"/><path class="h" d="M13.11,0H117.687A13.11,13.11,0,0,1,130.8,13.11V157.9a13.11,13.11,0,0,1-13.11,13.11H13.11A13.11,13.11,0,0,1,0,157.9V13.11A13.11,13.11,0,0,1,13.11,0Z" transform="translate(85.389 187.77)"/><path class="c" d="M228.362,213.8V358.59a13.111,13.111,0,0,1-13.116,13.116H110.671a13.109,13.109,0,0,1-13.1-13.116V213.8a13.107,13.107,0,0,1,13.1-13.1H215.246A13.109,13.109,0,0,1,228.362,213.8Z"/><path class="f" d="M228.362,213.8v7.754H97.566V213.8a13.107,13.107,0,0,1,13.1-13.1H215.246A13.109,13.109,0,0,1,228.362,213.8Z"/><rect class="i" width="32.178" height="5.397" transform="translate(109.867 230.534)"/><rect class="i" width="32.178" height="5.397" transform="translate(109.867 278.922)"/><rect class="i" width="32.178" height="5.397" transform="translate(109.867 322.802)"/><rect class="d" width="91.392" height="3.959" transform="translate(109.867 243.896)"/><rect class="d" width="74.912" height="3.858" transform="translate(109.867 251.473)"/><rect class="d" width="84.722" height="3.858" transform="translate(109.867 258.922)"/><rect class="d" width="84.722" height="3.858" transform="translate(109.867 266.363)"/><rect class="d" width="91.392" height="3.959" transform="translate(109.867 287.776)"/><rect class="d" width="74.912" height="3.858" transform="translate(109.867 295.353)"/><rect class="d" width="84.722" height="3.858" transform="translate(109.867 302.801)"/><rect class="d" width="91.392" height="3.959" transform="translate(109.867 335.962)"/><rect class="d" width="74.912" height="3.858" transform="translate(109.867 343.539)"/><rect class="d" width="84.722" height="3.858" transform="translate(109.867 350.988)"/><path class="j" d="M375.765,100.294v58.52a15.626,15.626,0,0,1-15.631,15.631H225.346a15.632,15.632,0,0,1-15.631-15.631v-58.52a15.641,15.641,0,0,1,15.631-15.642H360.134A15.635,15.635,0,0,1,375.765,100.294Z"/><path class="f" d="M375.765,100.294v1.335H209.715v-1.335a15.641,15.641,0,0,1,15.631-15.642H360.134A15.635,15.635,0,0,1,375.765,100.294Z"/><path class="d" d="M234.109,95.936a2.394,2.394,0,1,1,0-3.385A2.392,2.392,0,0,1,234.109,95.936Z"/><path class="d" d="M245.229,95.936a2.394,2.394,0,1,1,0-3.385A2.392,2.392,0,0,1,245.229,95.936Z"/><path class="d" d="M256.349,95.936a2.394,2.394,0,1,1,0-3.385A2.392,2.392,0,0,1,256.349,95.936Z"/><rect class="b" width="54.278" height="46.918" transform="translate(220.303 112.39)"/><rect class="d" width="62.467" height="3.295" transform="translate(282.956 112.39)"/><rect class="d" width="47.916" height="3.295" transform="translate(282.956 119.223)"/><rect class="d" width="71.353" height="3.334" transform="translate(282.956 126.017)"/><rect class="d" width="60.758" height="3.334" transform="translate(282.956 132.655)"/><path class="i" d="M296.863,440.465s-29,8.318-33.049,9.752c-3.684,1.3-13.667,4.8-21.157,3.717a16.148,16.148,0,0,1-2.14-.463c-7.59-2.261-11-4.368-11.991-9.145s2.78-8.284,6.42-10.535,23.386-4.6,23.386-4.6l4.765,1.4h.011Z"/><path class="k" d="M242.657,453.934a16.148,16.148,0,0,1-2.14-.463c-7.59-2.261-11-4.368-11.991-9.145s2.78-8.284,6.42-10.535,23.386-4.6,23.386-4.6l4.765,1.4c-4.313,1.985-20.4,3.088-23.9,5.107s-5.207,5.824-3.133,10.965C237.163,449.4,240.119,452.048,242.657,453.934Z"/><path class="l" d="M292.5,441.648s-21.78,5.643-30.416,9.255S236.97,456.1,231.1,448.646s-.677-13.858,5.192-15.281,17.737-3.681,24.218-2.778"/><path class="l" d="M243.094,453.538s-11.082-6.076-7.4-14.593c2.715-6.285,17.5-4.922,24.819-8.358"/><path class="i" d="M385.189,455.28c-.3,2.967-1.346,5.813-4.346,7.578-2,1.181-4.843,1.887-8.913,1.843-10.171-.133-29.288-7.4-29.288-7.4l-17.9-9.9,9.31-14.738,2.548-4.037,6.586,1.478s5.449,3.089,10.932,5.549,18.785,2.978,23.474,6.773S385.7,450.338,385.189,455.28Z"/><path class="k" d="M385.189,455.28c-.3,2.967-1.346,5.813-4.346,7.578a13.407,13.407,0,0,0-.508-8.935c-1.985-4.49-8.505-8.449-17.065-9.111s-15.112-4.666-18.543-6.454c-2.68-1.39-8.328-4.423-10.678-5.692l2.548-4.037,6.586,1.478s5.449,3.089,10.932,5.549,18.785,2.978,23.474,6.773S385.7,450.338,385.189,455.28Z"/><path class="l" d="M328.706,450.178a113.014,113.014,0,0,0,41.9,14.315c3.256.392,7.046.446,9.228-2a6.822,6.822,0,0,0,1.5-5.115c-.395-4.6-4.258-8.24-8.5-10.062s-8.918-2.256-13.419-3.265a53.054,53.054,0,0,1-12.9-4.721c-3.235-1.689-6.368-3.739-9.938-4.495s-7.825.161-9.729,3.275"/><path class="l" d="M378.643,463.739a11.923,11.923,0,0,0,6.549-8.46c.649-4.332-1.818-8.686-5.294-11.351s-7.82-3.916-12.109-4.808-8.675-1.491-12.756-3.084c-6.273-2.451-12.46-7.293-18.97-5.566"/><path class="i" d="M348.908,295.264l-30.292-11.528-.375-.143s.111-.806.2-1.975c.187-2.416.287-6.354-.849-7.689-1.688-1.974-6.476-.319-11.142-2.46s-13.3,1.688-13.3,1.688-6.233-1.147-8.98,3.354c-1.4,3.629-.915,9.034-.915,9.034s-.2.077-.574.21c-3.607,1.346-23.242,8.736-27.4,11.7-4.589,3.254-9.663,36.623-11.3,46.418s-4.533,18.632-3.055,22.007,22.569,19.614,34.7,23.8,55.189,2.968,55.189,2.968.706-.188,1.952-.585c7.281-2.339,33.116-11.969,46.816-34.682C379.585,357.39,366.315,313.862,348.908,295.264Zm-81.84,56.125c-2.228,1.578-1.037,7.7-1.037,7.7l-3.794-3.342,9.52-23.408,4.059,17.969S269.3,349.823,267.068,351.389Zm76.159,14.87c-1.048.541,3.011-10.711,1.081-13.259s-7.711-2.3-7.711-2.3l.5-3.078c.067-.342,3.431-17.6,3.431-17.6l1.136-1.356s11.782,20.2,13.888,27.312C355.548,355.978,342.708,366.259,343.227,366.259Z"/><path class="k" d="M291.715,222.254l-15.633,16.6s-2.157,1.9-1.3,6.72,2.852,8.952,4.36,9.273a21.427,21.427,0,0,0,3.62.324s3.35,7.26,5.723,10.114c0,0,.827,11.206.386,14.318,0,0,5.617,4.906,10.907,5.53s13.465-7.482,13.465-7.482l2.027-9.923s4.8-7.28,5.123-9.219,2.519-1.441,3.6-2.4,3.571-5.232,3.982-9.273.441-8.681-4.252-7.318c-4.067-1.093-1.521-9.69-1.521-9.69l-7.146-6.3Z"/><path class="m" d="M318.616,283.736a15.779,15.779,0,0,1-.8,1.809c-2.581,4.865-13.822,14.131-13.822,14.131l-3.4-10.447-1.865,10.447c-3.75-1.633-15.189-11.55-15.189-11.55s-.386-.926-.861-2.371c.375-.133.574-.21.574-.21s-.485-5.4.915-9.034c2.747-4.5,8.98-3.354,8.98-3.354s8.637-3.828,13.3-1.688,9.454.486,11.142,2.46.65,9.664.65,9.664Z"/><path class="n" d="M348.908,295.264l-30.292-11.528-.375-.143s.111-.806.2-1.975l-.629,3.927-4.478,6.089A122.734,122.734,0,0,1,327.31,297.8a12.277,12.277,0,0,1,6.421,12.245l-5.584,47.748L325.864,384.9l6.9,7.17c7.281-2.339,33.116-11.969,46.816-34.682C379.585,357.39,366.315,313.862,348.908,295.264Zm-5.681,70.995c-1.048.541,3.011-10.711,1.081-13.259s-7.711-2.3-7.711-2.3l.5-3.078c.067-.342,3.431-17.6,3.431-17.6l1.136-1.356s11.782,20.2,13.888,27.312C355.548,355.978,342.708,366.259,343.227,366.259Z"/><path class="n" d="M277.868,353l-4.711-15.741s-8.445-28.8-14.236-35.908l1.522,20.257s-4.968,24.2-9.568,31.392-5.593,8.979,0,8.979,19.194,10.844,19.194,10.844l-1.048-9.046Zm-11.837,6.089-3.794-3.342,9.52-23.408,4.059,17.969s-6.519-.485-8.748,1.081S266.031,359.089,266.031,359.089Z"/><path class="l" d="M288.485,265.284s.869,8.487,0,12.366"/><path class="l" d="M314.108,276.513a36.4,36.4,0,0,1,.945-8.11"/><path class="l" d="M316.382,228.582s5.136,6.452,4.872,11.324-.658,10.666-.527,16.328S311.642,273.747,306.9,274.8s-8.822,1.317-11.85-1.711-6.057-7.243-10.008-12.641-3.028-17.25-3.028-17.25"/><path class="l" d="M304.021,247.714a26.665,26.665,0,0,0-.4,5.367,6.106,6.106,0,0,0,1.317,4.2c.567.579,1.392,1.042,1.5,1.845a1.95,1.95,0,0,1-1.055,1.748,14.9,14.9,0,0,0-1.851,1.1"/><path class="l" d="M295.866,262.6s.594,3.827,5.727,4.628"/><path class="d" d="M296.4,250.632c0,1.106-.478,2-1.068,2s-1.068-.9-1.068-2,.478-2,1.068-2S296.4,249.526,296.4,250.632Z"/><path class="d" d="M311.709,251.113c0,1.106-.478,2-1.068,2s-1.068-.9-1.068-2,.478-2,1.068-2S311.709,250.007,311.709,251.113Z"/><path class="o" d="M308.621,246.265s4.978-4.978,9.19.574"/><path class="o" d="M298.091,246.36s-3.159-3.541-8.137,0"/><path class="d" d="M288.871,269.948s3.049,8.4,9.858,10.788,15.851-9.987,15.851-9.987l-.472-1.608s-5.925,7.7-12.515,6.384-13.108-10.241-13.108-10.241Z"/><path class="l" d="M282.762,254.846s-4.059,1.433-5.138-1.73-4.78-11.488-1.542-14.263,5.839,3.664,5.839,3.664"/><path class="l" d="M320.72,256.57s3.773.759,4.852-2.4,4.779-11.488,1.542-14.263-5.84,3.664-5.84,3.664"/><path class="d" d="M281.921,250.632a5.624,5.624,0,0,0,3.562-2.1,8.869,8.869,0,0,0,1.035-3.192,38.552,38.552,0,0,0,.565-6.434,8.661,8.661,0,0,1,.226-2.508,6.423,6.423,0,0,1,1.357-2.231c1.417-1.661,3.122-3.063,4.469-4.781a7.976,7.976,0,0,0,1.973-6.043,27.455,27.455,0,0,0,22.474,5.812c7.143-1.4,14-7.67,13.165-15.548a6.375,6.375,0,0,0-5.033-5.486c-3.532-.878-6.7,1-9.9,2.211-5.832,2.2-11.539-1.578-17.432-2.212-5.04-.542-11.226.083-13.85,5.094,0,0-9.053,1.064-13.018,8.5s3.573,17.728,3.573,17.728,3.033-3.672,6.932,3.762Z"/><path class="d" d="M316.952,226.681s-2.341,12.2,3.768,18.1c0,0,1.337-3.667,2.692-4.561a14.144,14.144,0,0,0-1.07-13.544C317.873,219.582,316.952,226.681,316.952,226.681Z"/><path class="p" d="M328.142,212.8a11.525,11.525,0,0,1-6.971,7.276c-8.48,3.454-16.716-.377-25.206-1.127-6.939-.614-14.589,5.638-15.073,12.761"/><path class="p" d="M275.626,229.831a14.824,14.824,0,0,1,9.032-13.082"/><path class="l" d="M286.53,276.513a38.669,38.669,0,0,0,13.2,9.034s10.151-2.944,15.318-10.022"/><circle class="l" cx="8.983" cy="8.983" r="8.983" transform="translate(281.237 246.212) rotate(-24.636)"/><circle class="l" cx="8.983" cy="8.983" r="8.983" transform="translate(303.205 242.812) rotate(-7.003)"/><path class="l" d="M288.485,273.162a7.042,7.042,0,0,0-4.321,3.351c-1.59,2.8-.631,11.609-.631,11.609s8.208,8.123,15.2,11.549l2.062-11.594,3.2,11.594s10.823-7.654,13.82-14.124c0,0,.977-7.544,0-10.022a3.459,3.459,0,0,0-3.231-2.363"/><path class="l" d="M275.626,350.7s-3.2-21.5-7.474-30.266"/><path class="l" d="M258.921,301.351a87.1,87.1,0,0,1,6.639,11.111"/><path class="l" d="M343.228,317.4a62.076,62.076,0,0,1,3.528-10.493"/><path class="l" d="M336.6,350.7s2.315-14.736,5.069-26.881"/><path class="l" d="M340.521,330.018a16.951,16.951,0,0,1,8.942-6.115"/><path class="l" d="M318.245,283.592s18.639,7.445,30.668,11.673c0,0,14.8,13.919,30.667,62.126,0,0-14.545,24.461-42.2,32.3"/><path class="l" d="M342.184,367.135l13.362-11.157s7.069-5.373,14.421-1.7"/><path class="l" d="M341.665,328.669s11.054,16.281,13.881,27.309"/><path class="l" d="M266.152,359.707l-3.911-3.729s-5.8-1.015-12.378,3.392"/><path class="l" d="M262.241,355.978s4.857-15.955,9.648-24.191"/><path class="l" d="M283.247,285.547s-26.811,10.06-29.44,12.989-12.62,59.2-12.883,65.637c-.235,5.756,20.649,18.689,30.965,24.14"/><rect class="c" width="43.615" height="30.986" rx="6.532" transform="translate(343.228 245.526)"/><path class="l" d="M357.3,254.846l-8.387,5.265,7.783,6.9"/><path class="l" d="M372.582,267.515l7.537-6.423-8.7-5.7"/><line class="l" y1="19.413" x2="6.191" transform="translate(361.377 252.054)"/><path class="d" d="M303.3,304.556a1.763,1.763,0,1,1-1.763-1.763A1.763,1.763,0,0,1,303.3,304.556Z"/><path class="d" d="M334.32,398.776H273.3a1.431,1.431,0,0,1-1.43-1.431h0a1.43,1.43,0,0,1,1.43-1.43H334.32a1.43,1.43,0,0,1,1.43,1.43h0A1.431,1.431,0,0,1,334.32,398.776Z"/><path class="c" d="M336.456,394.034l8.177-38.4a4.087,4.087,0,0,0-4-4.937H269.345a4.086,4.086,0,0,0-4.009,4.878l7.331,37.121a4.085,4.085,0,0,0,3.915,3.293l55.783,1.278A4.086,4.086,0,0,0,336.456,394.034Z"/><path class="d" d="M310.439,372.826a5.691,5.691,0,1,1-5.692-5.691A5.691,5.691,0,0,1,310.439,372.826Z"/><line class="l" x2="8.47" transform="translate(321.625 354.341)"/><line class="l" x2="32.152" transform="translate(281.176 354.341)"/><path class="d" d="M336.6,434.771l-6.5,17.058s-16.571-4.178-37.807-8.529c-22.2-4.55-45.395-10.441-57.424-31.545-1.467-2.573-2.443-5.613-1.756-8.494,1.736-7.29,11.219-9.269,17.47-10a116.287,116.287,0,0,1,11.83-.666c2.013-.028,8.652-1.082,10.259.1a47.031,47.031,0,0,0,7.716,4.572c3.55,1.507,55.367-1.354,55.367-1.354a18.5,18.5,0,0,0,1.63-6.222c8.145-4.139,27.007-7.646,34.976-6.1,12.533,2.437,19.843,9.748,18.451,17.406S361.757,429.2,336.6,434.771Z"/><path class="q" d="M336.6,434.771s-15.762-4.178-28.643-12.881-22.944-18.8-40.888-16.71"/><path class="q" d="M304.99,419.837c8.136-2.341,14.108-7.6,20.636-12.658a139.737,139.737,0,0,1,22.093-14.517"/><line class="l" x2="2.387" transform="translate(302.13 252.054)"/></g></svg>