<svg xmlns="http://www.w3.org/2000/svg" width="48.834" height="60.225" viewBox="0 0 48.834 60.225"><defs><style>.a{fill:#bfbfbf;}</style></defs><path class="a" d="M74.42,47.42A36.7,36.7,0,0,0,73.3,42.957c-.321-1.188-1-1.413-2.055-1-1.028.417-2.087.739-3.147,1.092-2.216.674-2.441.225-7.354,1.445-2.023.514-3.051.771-3.34.9-.9.385-1.509.8-1.863.514-.289-.225-.161-.674-.128-2.023.032-.931-.032-.546-.032-1.959,0-1.317.032-2.665-.032-4.5-.032-1.734-.417-1.991-2.152-1.959a47.582,47.582,0,0,1-6.422-.064c-1.573-.193-2.023.321-2.023,1.766.064,3.468,0,6.968.1,10.436.032,1-.193,1.381-1.252,1.252a26.621,26.621,0,0,0-3.211-.1,1.562,1.562,0,0,0-1.349.674c-.257.45.064.835-.225,1.156-.225.289-.61.193-1.863.128-1.509-.032-1.863.1-2.152-.225a2.106,2.106,0,0,1-.321-1.188,12.4,12.4,0,0,1-.1-1.381c.1-1.477.1-14.707.064-17.5a5.2,5.2,0,0,1,1.67-4.078c4.207-4.271,8.317-8.574,12.46-12.909a1.291,1.291,0,0,1,2.152-.064l13.005,13.1a3.164,3.164,0,0,1,.963,2.569c-.1,3.468-.032,6.968-.032,10.436,0,.674-.1,1.509.835,1.67a2.566,2.566,0,0,0,2.665-2.312c.032-1.541,0-3.115,0-4.656,0-.578-.193-1.252.417-1.606.674-.385,1.188.1,1.7.482a2.12,2.12,0,0,0,3.147-.193c.931-1.06.61-2.152-.385-3.115a41.6,41.6,0,0,0-3.982-3.918c-3.95-2.954-5.491-6.679-4.881-11.625.417-3.4.257-3.757-3.275-3.757-1.606,0-2.152.45-2.119,1.927.032.546.193,1.252-.514,1.541s-1.188-.225-1.638-.706c-1.67-1.734-3.308-3.468-5.042-5.17-1.477-1.445-2.5-1.413-3.982.064-4.5,4.592-9.056,9.216-13.583,13.808-2.537,2.6-5.074,5.2-7.578,7.835a2.186,2.186,0,0,0-.1,3.179A2.112,2.112,0,0,0,29.4,33.1c.514-.417,1-.9,1.7-.546.674.353.417,1.028.45,1.606.128,4.913-.225,9.858.193,14.772a1.921,1.921,0,0,1-.45,1.156c-1.092,1.927-.353,3.211,1.8,3.211,4.72,0,9.409,0,14.129-.032,1.092,0,1.8.289,1.638,1.541a8.031,8.031,0,0,0,1,4.3c.225.578.546,1.06,1.22,1.124.771.064,1-.546,1.188-1.092a9.426,9.426,0,0,1,2.665-3.372,1.209,1.209,0,0,1,1.606-.289c.546.385.353.963.161,1.477a10.077,10.077,0,0,1-1.252,2.216,14.3,14.3,0,0,0-2.633,6.776c-.064.514,0,1.188.706,1.252.739.1.771-.546.9-1.06.482-1.766,1.124-2.28,2.89-1.766,1.83.514,4.014.289,6.968-.1,4.624-.61,9.056-5.3,10.051-10.147a11.046,11.046,0,0,0,.193-2.762A29.138,29.138,0,0,0,74.42,47.42Z" transform="translate(-25.708 -6.986)"/></svg>