<svg xmlns="http://www.w3.org/2000/svg" width="457.88" height="439.777" viewBox="0 0 457.88 439.777"><defs><style>.a{fill:#ebebeb;}.b{fill:#f5f5f5;}.c{fill:#263238;}.d{fill:#0894fe;}.e{fill:#455a64;}.f{opacity:0.3;}.g{fill:#f2f2f2;}.h{fill:#cdcdcd;}.i{fill:#6c6c6c;}.j{fill:#0048cd;}.k{fill:#fafafa;}.l{fill:none;stroke:#839198;stroke-miterlimit:10;stroke-width:0.05px;}.m{fill:#e0e0e0;}.n{fill:#fff;}.o{font-size:12px;font-family:SegoeUI, Segoe UI;}</style></defs><g transform="translate(-25.538 -37.539)"><path class="a" d="M134.513,193.642v7.5h7.5V186.146h-7.5Z"/><rect class="a" width="7.496" height="7.496" transform="translate(134.513 148.666)"/><rect class="a" width="7.496" height="7.496" transform="translate(180.835 231.199)"/><path class="a" d="M142.009,163.658v7.5h-7.5v7.5h7.5v7.5H157v7.5h7.5v-7.5h7.5V171.154h-7.5v7.5H149.506V156.162h-7.5Z"/><path class="a" d="M157,148.666h-7.5v7.5H164.5v-7.5Z"/><path class="a" d="M190.734,208.927h4.028v-7.5h-8.055v7.5Z"/><rect class="a" width="7.496" height="7.496" transform="translate(164.498 156.162)"/><rect class="a" width="7.496" height="7.496" transform="translate(216.971 186.146)"/><rect class="a" width="7.496" height="7.496" transform="translate(224.467 103.689)"/><path class="a" d="M186.986,163.658v-7.5h7.5v-7.5h-7.5v-7.5h-7.5v7.5h-7.5v7.5h7.5v29.984h7.5V171.154h7.5v-7.5Z"/><path class="a" d="M224.467,238.619h7.5v-7.5H216.971v7.5Z"/><rect class="a" width="7.496" height="7.496" transform="translate(209.475 103.689)"/><path class="a" d="M215.1,163.658v-7.5h-7.5v-7.5h-7.5v14.992h-7.5v7.5H207.6v-7.5Z"/><rect class="a" width="7.496" height="7.496" transform="translate(249.911 148.666)"/><rect class="a" width="7.496" height="7.496" transform="translate(172.21 186.146)"/><path class="a" d="M209.475,141.17v-7.5h7.5v-7.5h14.992v-7.5h-7.5v-7.5h-7.5v7.5h-7.5v7.5h-7.5v7.5h-7.5v7.5h14.992Z"/><path class="a" d="M209.475,193.642v-7.5h7.5v-7.5H201.979v7.5h-7.5v7.5h14.992Z"/><path class="a" d="M231.963,223.623v-7.5H216.971v-7.5h-7.5v7.5h-7.5v7.5H186.986v7.5h22.488v-7.5h7.5v7.5h7.5v-7.5Z"/><path class="a" d="M201.979,111.185v-7.5H186.986v7.5h-7.5v7.5h14.992v-7.5Z"/><rect class="a" width="7.496" height="7.496" transform="translate(194.483 118.681)"/><path class="a" d="M220.719,148.666h-7.5v22.488h14.992v-7.5h-7.5v-7.5h7.5v-7.5h7.5v-7.5h-7.5v-7.5h-7.5v14.992Z"/><rect class="a" width="7.496" height="7.496" transform="translate(186.986 126.177)"/><path class="a" d="M216.971,201.139v7.5h14.992v-7.5h14.992v-7.5H224.467v7.5Z"/><rect class="a" width="7.496" height="7.496" transform="translate(249.911 171.154)"/><rect class="a" width="7.496" height="7.496" transform="translate(224.467 178.65)"/><path class="a" d="M250.7,156.162H235.711v7.5h7.5v7.5h7.5V156.162Z"/><rect class="a" width="7.496" height="7.496" transform="translate(239.459 178.65)"/><path class="a" d="M164.5,223.767h22.5V193.634H156.861v7.505h-7.355v7.5h7.355v7.5h-7.355v7.5h7.355v.14H157v7.356h-7.5v14.992H157v-7.5h7.5V223.767ZM181.224,199.4v18.741h-18.74V199.4Z"/><path class="a" d="M261.947,193.642h7.5v-7.5H246.955v7.5h14.992Z"/><path class="a" d="M261.947,163.658h7.5V148.666h-7.5v14.992Z"/><path class="a" d="M202.258,201.431h-7.5v14.992h7.5V201.431Z"/><rect class="a" width="7.496" height="7.496" transform="translate(269.444 193.642)"/><path class="a" d="M276.94,178.65v-7.5h-7.5v14.992h7.5Z"/><path class="a" d="M142.01,231.123h-7.5v14.992h7.5V231.123Z"/><path class="a" d="M276.94,141.17V103.689H239.459V141.17Zm-31.859-5.622V109.311h26.237v26.237Z"/><rect class="a" width="14.992" height="14.992" transform="translate(250.703 114.933)"/><path class="a" d="M276.94,208.635H239.459v37.48H276.94Zm-31.859,31.858V214.257h26.237v26.236Z"/><rect class="a" width="14.992" height="14.992" transform="translate(250.703 219.879)"/><path class="a" d="M134.42,103.689V141.17H171.9V103.689Zm31.858,5.622v26.237H140.042V109.311Z"/><rect class="a" width="14.992" height="14.992" transform="translate(145.664 114.933)"/><circle class="a" cx="3.548" cy="3.548" r="3.548" transform="translate(66.748 253.046) rotate(-75.728)"/><path class="a" d="M63.969,245.938A9.832,9.832,0,0,1,78.2,245.75c1.812,1.825,4.648-.983,2.836-2.809a13.869,13.869,0,0,0-19.872.161c-1.77,1.86,1.034,4.7,2.809,2.836Z"/><path class="a" d="M51.917,229.421c5.4-4.665,11.837-7.6,19.05-7.619A28.27,28.27,0,0,1,90.4,229.24c1.871,1.757,4.712-1.046,2.835-2.809a32.407,32.407,0,0,0-22.251-8.62c-8.3.021-15.677,3.414-21.878,8.775-1.947,1.682.873,4.509,2.809,2.835Z"/><path class="a" d="M56.673,238.574a19.52,19.52,0,0,1,28.688-.409c1.795,1.843,4.63-.967,2.836-2.81a23.506,23.506,0,0,0-34.333.384c-1.741,1.882,1.061,4.726,2.809,2.835Z"/><path class="a" d="M228.1,56.435c.6-4.388-5.588-8-10.24-8.371-2.219-.179-4.523.16-6.625-.573-4.554-1.587-6.373-7.47-10.817-9.345-3.322-1.4-7.147-.153-10.367,1.468s-6.4,3.66-10,3.891c-3.129.2-6.528-.961-9.266.568-2.041,1.139-3.11,3.491-4.99,4.878-1.84,1.357-4.24,1.644-6.523,1.768s-4.647.148-6.725,1.1-3.8,3.15-3.367,5.4Z"/><path class="b" d="M108.643,130.549c.541-3.932-5.009-7.167-9.179-7.5-1.989-.16-4.055.144-5.939-.512-4.083-1.423-5.713-6.7-9.7-8.377-2.978-1.256-6.406-.138-9.293,1.315s-5.74,3.281-8.965,3.488c-2.806.179-5.853-.861-8.307.509-1.829,1.022-2.788,3.129-4.474,4.373a10.668,10.668,0,0,1-5.847,1.585,16.487,16.487,0,0,0-6.028.985c-1.864.854-3.405,2.824-3.019,4.837Z"/><path class="b" d="M483.379,127.767c.58-4.211-5.363-7.676-9.828-8.036-2.13-.171-4.342.154-6.36-.549-4.371-1.523-6.117-7.17-10.382-8.969-3.189-1.345-6.86-.148-9.951,1.408s-6.146,3.514-9.6,3.735c-3,.192-6.266-.922-8.895.545-1.958,1.094-2.984,3.351-4.789,4.682-1.766,1.3-4.07,1.579-6.261,1.7s-4.46.141-6.455,1.055-3.646,3.023-3.232,5.178Z"/><path class="c" d="M474.462,477.057c0,.144-100.5.26-224.451.26-123.992,0-224.473-.116-224.473-.26s100.481-.261,224.473-.261C373.959,476.8,474.462,476.913,474.462,477.057Z"/><path class="d" d="M420.7,433.066a8.139,8.139,0,0,1,4.216,4.776,14.362,14.362,0,0,1,.56,6.469c-.476,4.2-2.862,8.435-5.43,11.79-3.535-3.085-4.348-8.467-4.589-11.223-.381-4.357,1.575-12.461,5.243-11.812"/><path class="d" d="M424.151,463.03a6.942,6.942,0,0,1,2.243-6.6,9.219,9.219,0,0,1,6.8-2.123,3.881,3.881,0,0,1,2.984,1.34,2.969,2.969,0,0,1,.046,3.008,6.024,6.024,0,0,1-2.227,2.193c-3.063,1.922-6.38,3.22-9.844,2.181"/><path class="c" d="M419.618,475.9a4.9,4.9,0,0,1,.126-.861c.111-.607.255-1.39.427-2.331a24.4,24.4,0,0,1,2.406-7.448,14.925,14.925,0,0,1,5.345-5.68,10.116,10.116,0,0,1,2.179-.964,5.972,5.972,0,0,1,.628-.159c.145-.031.222-.042.224-.031a15.791,15.791,0,0,0-2.919,1.34,15.378,15.378,0,0,0-5.189,5.643,26.206,26.206,0,0,0-2.462,7.342c-.214.977-.388,1.769-.523,2.312A4.538,4.538,0,0,1,419.618,475.9Z"/><path class="c" d="M419.751,439.37a1.8,1.8,0,0,1,.043.376c.017.28.038.638.064,1.082.051.94.106,2.3.16,3.983.109,3.363.194,8.013.173,13.148s-.149,9.786-.287,13.149c-.069,1.681-.136,3.041-.194,3.98-.03.444-.055.8-.074,1.082a1.821,1.821,0,0,1-.046.376,1.689,1.689,0,0,1-.015-.379c0-.28.009-.639.016-1.083.024-.979.057-2.33.1-3.983.082-3.363.174-8.009.2-13.143s-.03-9.779-.083-13.142c-.026-1.654-.047-3.005-.063-3.984,0-.445-.005-.8-.006-1.084A1.671,1.671,0,0,1,419.751,439.37Z"/><path class="d" d="M418.035,465.585a16.236,16.236,0,0,0-8.865-11.893c-1.182-.566-2.724-.936-3.7-.057s-.755,2.46-.279,3.682a13.87,13.87,0,0,0,12.755,8.613"/><path class="c" d="M409.742,457.674a4.164,4.164,0,0,1,.751.327,7.99,7.99,0,0,1,.847.452c.318.2.7.392,1.079.676a14.414,14.414,0,0,1,1.235.93,16.144,16.144,0,0,1,1.314,1.193,18.094,18.094,0,0,1,2.5,3.208,17.639,17.639,0,0,1,1.645,3.719,15.339,15.339,0,0,1,.415,1.727,13,13,0,0,1,.212,1.531,12.125,12.125,0,0,1,.059,1.273,7.407,7.407,0,0,1-.028.96,4.2,4.2,0,0,1-.091.813c-.069,0,.051-1.167-.155-3.024a13.863,13.863,0,0,0-.246-1.5,16.139,16.139,0,0,0-.435-1.693,18.365,18.365,0,0,0-1.638-3.644,18.828,18.828,0,0,0-2.436-3.169,16.935,16.935,0,0,0-1.276-1.2c-.4-.371-.822-.666-1.195-.947C410.776,458.218,409.711,457.733,409.742,457.674Z"/><path class="c" d="M152.056,477.07a22.558,22.558,0,0,1-.685-2.847,61.753,61.753,0,0,0-4.615-13.264,22.846,22.846,0,0,1-1.232-2.656,12.811,12.811,0,0,1,1.56,2.49,45.183,45.183,0,0,1,4.648,13.357A12.884,12.884,0,0,1,152.056,477.07Z"/><path class="c" d="M160.93,433.8a10.81,10.81,0,0,1-.248,1.695c-.2,1.083-.47,2.652-.786,4.594-.637,3.882-1.376,9.268-1.837,15.251s-.544,11.421-.505,15.355c.017,1.967.047,3.559.078,4.66a10.779,10.779,0,0,1-.014,1.713,10.8,10.8,0,0,1-.189-1.7c-.092-1.1-.179-2.692-.244-4.663a144.451,144.451,0,0,1,2.348-30.677c.364-1.937.692-3.5.951-4.571A10.754,10.754,0,0,1,160.93,433.8Z"/><path class="c" d="M175.166,458.7a29.2,29.2,0,0,1-1.661,2.43A37.914,37.914,0,0,0,167.865,474a28.587,28.587,0,0,1-.661,2.868,11.681,11.681,0,0,1,.3-2.943,31.261,31.261,0,0,1,5.7-13A11.634,11.634,0,0,1,175.166,458.7Z"/><path class="c" d="M349.508,461.962a9.918,9.918,0,0,1,1.318,1.993c.743,1.273,1.7,3.071,2.656,5.109s1.712,3.931,2.211,5.318a9.957,9.957,0,0,1,.682,2.29,11.977,11.977,0,0,1-1.024-2.154c-.584-1.347-1.4-3.205-2.341-5.234s-1.851-3.841-2.508-5.154A11.962,11.962,0,0,1,349.508,461.962Z"/><path class="c" d="M367.907,443.744a6.548,6.548,0,0,1-.253,1.3l-.811,3.5c-.666,2.957-1.477,7.065-2.086,11.646s-.888,8.761-1.014,11.789c-.05,1.435-.093,2.638-.126,3.588a6.572,6.572,0,0,1-.093,1.319,6.382,6.382,0,0,1-.11-1.318c-.04-.849-.056-2.079-.039-3.6a101.5,101.5,0,0,1,3.11-23.511c.378-1.472.714-2.655.973-3.465A6.35,6.35,0,0,1,367.907,443.744Z"/><path class="c" d="M234.8,451.879a4.806,4.806,0,0,1,.9.7,28.916,28.916,0,0,1,2.248,2.16,39.746,39.746,0,0,1,9.715,17.924,28.864,28.864,0,0,1,.583,3.063,4.77,4.77,0,0,1,.093,1.14c-.091.015-.342-1.591-1.032-4.111a44.372,44.372,0,0,0-9.631-17.767C235.951,453.034,234.742,451.947,234.8,451.879Z"/><path class="c" d="M252.128,441.24a7.418,7.418,0,0,1,.042,1.42c0,1.011-.007,2.308-.012,3.862.01,3.259.135,7.762.564,12.715s1.09,9.41,1.645,12.622c.274,1.53.5,2.806.681,3.8a7.445,7.445,0,0,1,.2,1.407,7.473,7.473,0,0,1-.4-1.364c-.229-.884-.52-2.175-.844-3.777a116.99,116.99,0,0,1-2.215-25.408c.041-1.634.105-2.955.178-3.866A7.4,7.4,0,0,1,252.128,441.24Z"/><path class="c" d="M267.433,462.442c.145.078-1.575,3.079-2.756,7.135-1.21,4.05-1.393,7.5-1.558,7.49a7.833,7.833,0,0,1,.021-2.266,28.54,28.54,0,0,1,3.081-10.444A7.752,7.752,0,0,1,267.433,462.442Z"/><rect class="e" width="11.615" height="92.167" transform="translate(51.314 381.917)"/><path class="c" d="M62.929,474.084s-.012-.169-.018-.482l-.017-1.383c-.009-1.23-.021-3.01-.036-5.3-.018-4.613-.044-11.271-.076-19.543-.028-16.546-.068-39.547-.112-65.462l.259.259H51.314l.26-.26c-.062,40.372-.116,75.334-.142,92.167l-.118-.118,8.61.067,2.233.028c.5.008.772.023.772.023s-.238.015-.73.023l-2.206.028-8.679.067H51.2v-.119c-.026-16.833-.08-51.8-.143-92.167l.261-.26H63.188v.259c-.044,25.989-.083,49.055-.111,65.649-.033,8.247-.059,14.884-.077,19.482-.015,2.263-.027,4.023-.035,5.24l-.018,1.349C62.941,473.939,62.929,474.084,62.929,474.084Z"/><g class="f"><rect width="11.615" height="3.837" transform="translate(51.314 384.157)"/></g><rect class="e" width="11.615" height="92.167" transform="translate(298.316 381.917)"/><path class="c" d="M309.931,474.084s-.012-.169-.018-.482l-.017-1.383c-.008-1.23-.02-3.01-.036-5.3-.018-4.613-.044-11.271-.076-19.543-.028-16.546-.067-39.547-.112-65.462l.259.259H298.316l.261-.26c-.063,40.372-.117,75.334-.143,92.167l-.118-.118,8.611.067,2.232.028c.5.008.772.023.772.023s-.238.015-.73.023l-2.206.028-8.679.067H298.2v-.119c-.026-16.833-.08-51.8-.142-92.167l.26-.26H310.19v.259c-.044,25.989-.084,49.055-.112,65.649-.032,8.247-.058,14.884-.076,19.482-.016,2.263-.028,4.023-.036,5.24l-.017,1.349C309.943,473.939,309.931,474.084,309.931,474.084Z"/><rect class="e" width="11.615" height="76.829" transform="translate(280.121 301.178)"/><path class="c" d="M291.736,378.007c-.005,0-.011-.142-.017-.4l-.017-1.151c-.008-1.03-.02-2.509-.035-4.407-.018-3.844-.044-9.381-.076-16.265-.028-13.779-.068-32.944-.113-54.6l.258.258-11.61,0c.512-.521.142-.131.256-.241v3.071q0,1.54,0,3.068,0,3.054,0,6.048,0,5.986-.007,11.7c-.009,7.6-.019,14.779-.027,21.388-.04,13.2-.074,24.109-.1,31.537l-.127-.127,8.59.072,2.244.03c.508.009.78.025.78.025s-.239.017-.734.026l-2.215.03-8.665.072h-.127v-.129c-.023-7.428-.056-18.341-.1-31.537-.009-6.609-.018-13.789-.027-21.388q0-5.7-.008-11.7,0-2.992,0-6.048,0-1.527,0-3.068V301.2c.118-.122-.264.24.265-.28l11.61,0h.259v.258c-.044,21.732-.084,40.962-.112,54.788-.032,6.859-.058,12.376-.076,16.2-.015,1.873-.027,3.333-.035,4.35-.007.474-.013.844-.017,1.118A2.64,2.64,0,0,1,291.736,378.007Z"/><rect class="e" width="11.615" height="76.829" transform="translate(73.543 301.178)"/><path class="c" d="M85.158,378.007a3.681,3.681,0,0,1-.018-.4c0-.281-.01-.663-.017-1.151-.008-1.03-.02-2.509-.035-4.407-.018-3.844-.044-9.381-.076-16.265-.028-13.779-.068-32.944-.113-54.6l.258.258-11.61,0c.512-.521.142-.131.256-.241v3.071q0,1.54,0,3.068,0,3.054,0,6.048,0,5.986-.007,11.7c-.009,7.6-.018,14.779-.027,21.388-.04,13.2-.073,24.109-.1,31.537l-.127-.127,8.591.072,2.244.03c.507.009.78.025.78.025s-.24.017-.735.026l-2.215.03-8.665.072h-.127v-.129c-.022-7.428-.056-18.341-.1-31.537-.008-6.609-.018-13.789-.027-21.388q0-5.7-.007-11.7,0-2.992,0-6.048,0-1.527,0-3.068V301.2c.118-.122-.264.24.265-.28l11.61,0h.259v.258c-.045,21.732-.085,40.962-.113,54.788-.032,6.859-.058,12.376-.076,16.2-.015,1.873-.027,3.333-.035,4.35-.007.474-.013.844-.017,1.118A3.05,3.05,0,0,1,85.158,378.007Z"/><rect class="e" width="263.511" height="12.298" transform="translate(50.631 292.412)"/><path class="c" d="M314.142,304.711s-.009-.251-.014-.75-.01-1.252-.017-2.261c-.01-2.025-.024-5.09-.043-9.287l.073.073-263.5.187h-.013l.26-.26v12.3l-.26-.26,186.7.107,56.21.079,15.26.037,3.973.018c.9.006,1.365.019,1.365.019s-.444.012-1.329.018l-3.938.018-15.2.037-56.148.079-186.9.108H50.37V292.152h.274l263.5.187h.074v.074c-.019,4.216-.033,7.3-.043,9.33-.007,1-.013,1.742-.016,2.244S314.142,304.711,314.142,304.711Z"/><rect class="e" width="263.511" height="12.298" transform="translate(51.314 310.86)"/><path class="c" d="M314.825,323.158s-.009-.251-.014-.75-.01-1.252-.017-2.26c-.009-2.026-.023-5.091-.043-9.288l.074.073-263.5.187h-.013l.26-.26v12.3l-.26-.26,186.7.108,56.21.078,15.26.037,3.973.019c.9.006,1.365.018,1.365.018s-.444.012-1.329.018l-3.938.019-15.2.037-56.149.078-186.9.108h-.26v-.26c0-3.895,0-8.085,0-12.3V310.6h.274l263.5.187h.073v.074c-.019,4.217-.033,7.3-.042,9.33-.008,1-.013,1.743-.017,2.244S314.825,323.158,314.825,323.158Z"/><rect class="e" width="263.511" height="12.298" transform="translate(51.314 329.991)"/><path class="c" d="M314.825,342.289s-.009-.251-.014-.749-.01-1.253-.017-2.261c-.009-2.025-.023-5.09-.043-9.288l.074.073-263.5.187h-.013l.26-.26v12.3l-.26-.26,186.7.108,56.21.079,15.26.037,3.973.018c.9.006,1.365.018,1.365.018s-.444.013-1.329.019l-3.938.018-15.2.037-56.149.079-186.9.107h-.26v-.261c0-3.894,0-8.085,0-12.3v-.26h.274l263.5.187h.073v.073c-.019,4.217-.033,7.3-.042,9.33-.008,1-.013,1.743-.017,2.245S314.825,342.289,314.825,342.289Z"/><rect class="e" width="263.511" height="12.298" transform="translate(51.314 349.122)"/><path class="c" d="M314.825,361.421s-.009-.251-.014-.75-.01-1.253-.017-2.261c-.009-2.025-.023-5.09-.043-9.288l.074.074-263.5.187h-.013l.26-.261v12.3l-.26-.261,186.7.108,56.21.079,15.26.037,3.973.018c.9.006,1.365.019,1.365.019s-.444.012-1.329.018l-3.938.018-15.2.037-56.149.079-186.9.108h-.26v-.26c0-3.895,0-8.085,0-12.3v-.26h.274l263.5.187h.073v.073c-.019,4.217-.033,7.3-.042,9.331-.008,1-.013,1.742-.017,2.244S314.825,361.421,314.825,361.421Z"/><rect class="e" width="279.748" height="12.298" transform="translate(39.868 371.858)"/><path class="c" d="M319.616,384.157s-.009-.25-.014-.747-.009-1.25-.016-2.258c-.009-2.023-.023-5.088-.042-9.294l.071.072-279.733.189h-.014l.26-.261v12.3l-.26-.26L238.055,384l59.688.079,16.2.037,4.219.018c.952.006,1.449.019,1.449.019s-.473.012-1.413.018l-4.184.018-16.145.037-59.627.079-198.379.108h-.261V371.6h.275l279.733.189h.072v.071c-.019,4.225-.033,7.3-.041,9.336-.008,1-.013,1.74-.017,2.24S319.616,384.157,319.616,384.157Z"/><g class="f"><rect width="11.615" height="3.837" transform="translate(298.316 384.157)"/></g><path class="g" d="M168.306,230.32,165.8,246.514l-6.459,14.739-9.571-6.112-3.4-8.6-2.853-7.215s-10.111,2.432-14.137-7.02c-1.945-4.564-5.183-14.288-8.012-23.123a19.145,19.145,0,0,1,10.946-23.545l.917-.377c10.122-3.49,18.74,3.157,21.949,13.372l13.132,31.69"/><path class="h" d="M143.5,239.321a23.888,23.888,0,0,0,10.937-8.616s-.114,8.042-9.946,11.087Z"/><path class="c" d="M127.536,216.429a1.468,1.468,0,0,0,1.872.831,1.4,1.4,0,0,0,.895-1.8,1.467,1.467,0,0,0-1.87-.832A1.4,1.4,0,0,0,127.536,216.429Z"/><path class="c" d="M124.968,212.543c.241.107.955-1.076,2.417-1.673,1.452-.617,2.832-.307,2.917-.551.045-.111-.258-.36-.864-.508a4.028,4.028,0,0,0-2.425.222,3.861,3.861,0,0,0-1.833,1.553C124.873,212.115,124.852,212.5,124.968,212.543Z"/><path class="c" d="M140.271,210.751a1.467,1.467,0,0,0,1.871.831,1.4,1.4,0,0,0,.9-1.8,1.469,1.469,0,0,0-1.871-.832A1.4,1.4,0,0,0,140.271,210.751Z"/><path class="c" d="M139.347,206.145c.228.133,1.068-.966,2.585-1.4,1.509-.456,2.848,0,2.959-.231.057-.106-.215-.386-.8-.6a4.019,4.019,0,0,0-2.434-.043,3.88,3.88,0,0,0-1.992,1.345C139.3,205.709,139.237,206.088,139.347,206.145Z"/><path class="c" d="M138.934,220.358a10.449,10.449,0,0,0-2.547.548c-.388.115-.772.186-.939-.043a2.049,2.049,0,0,1-.206-1.207q-.032-1.571-.066-3.293c-.132-4.672-.391-8.451-.579-8.444s-.234,3.8-.1,8.471q.063,1.722.119,3.29a2.339,2.339,0,0,0,.409,1.543,1.013,1.013,0,0,0,.837.293,2.715,2.715,0,0,0,.67-.173A10.277,10.277,0,0,0,138.934,220.358Z"/><path class="c" d="M136.555,199.929c.307.338,1.687-.45,3.485-.948,1.788-.535,3.375-.6,3.456-1.051.031-.212-.363-.487-1.08-.641a6.275,6.275,0,0,0-5.288,1.523C136.6,199.324,136.415,199.766,136.555,199.929Z"/><path class="c" d="M122.883,206.8c.393.226,1.257-.532,2.46-1.046,1.184-.555,2.325-.7,2.418-1.14.034-.211-.264-.477-.84-.606a3.868,3.868,0,0,0-3.931,1.761C122.7,206.284,122.7,206.683,122.883,206.8Z"/><path class="g" d="M157.292,205.984c.134-.137,5.734-4.617,8.2,1.964s-4.65,7.7-4.732,7.513S157.292,205.984,157.292,205.984Z"/><path class="i" d="M161.835,212.215c.021-.032.145.037.372.054a1.227,1.227,0,0,0,.863-.3,3.025,3.025,0,0,0,.359-3.036,4.031,4.031,0,0,0-.935-1.521,1.413,1.413,0,0,0-1.192-.557.622.622,0,0,0-.559.567c-.019.217.072.333.041.358-.012.023-.183-.058-.231-.35a.781.781,0,0,1,.1-.509.929.929,0,0,1,.571-.405,1.72,1.72,0,0,1,1.58.572,4.16,4.16,0,0,1,1.084,1.685c.455,1.342.241,2.837-.607,3.468a1.308,1.308,0,0,1-1.114.219C161.906,212.37,161.817,212.236,161.835,212.215Z"/><path class="c" d="M115.745,198.527a3.58,3.58,0,0,1,1.4-3.677,3.2,3.2,0,0,1,3.207-5.344,3.285,3.285,0,0,1,3.021-4.417,2.768,2.768,0,0,1,4.219-3.371,4.776,4.776,0,0,1,6.648-3.39,6.1,6.1,0,0,1,8.092.207,5.8,5.8,0,0,1,6.235,1.739,4.237,4.237,0,0,1,5.424,4.938,3.138,3.138,0,0,1,2.485,4.334,3.083,3.083,0,0,1,2.045,5.185c1.005-.276,1.908.83,2,1.868a30.313,30.313,0,0,1-.307,3.1c-.011.858.232,1.7.273,2.558a5.569,5.569,0,0,1-1.8,4.322l.25.125c.512.762-.412,1.812-1.331,1.8a4.572,4.572,0,0,1-2.445-1.166,10.039,10.039,0,0,1-2.418-2.006,2.438,2.438,0,0,1-.159-2.921,3.658,3.658,0,0,1-3.16-1.83,10.756,10.756,0,0,1-1.246-3.6q-.6-2.765-1.2-5.528a7.02,7.02,0,0,1-7.121-1.373,4.017,4.017,0,0,1-5.936.9,5.235,5.235,0,0,1-4.654,5.416c.811,1.238-1.088,3.48-2.264,4.379a5.165,5.165,0,0,1-3.217.648s-1.72,2.281-3.17,2.3c-1.422.016-3.713-.872-3.44-2.488A6.526,6.526,0,0,1,115.745,198.527Z"/><path class="e" d="M156.8,189.391a2.566,2.566,0,0,1-.3,1.1,1.347,1.347,0,0,1-.984.629,1.418,1.418,0,0,1-1.3-.586l-.238-.358-.19.391a1.826,1.826,0,0,1-3.388-.292l-.113-.4-.291.292a1.841,1.841,0,0,1-2.406.159c-.538-.411-.66-.843-.722-.815-.039,0-.027.492.533,1.04a2.064,2.064,0,0,0,1.258.555,2.235,2.235,0,0,0,1.676-.591l-.4-.109a2.3,2.3,0,0,0,4.3.374l-.428.033a1.826,1.826,0,0,0,1.768.722,1.636,1.636,0,0,0,1.191-.893C157.132,189.857,156.827,189.354,156.8,189.391Z"/><path class="e" d="M160.343,195.209c-.048-.025-.157.278-.582.56a1.684,1.684,0,0,1-1.918-.021l-.22-.174-.1.266a1.878,1.878,0,0,1-1.465,1.145,1.823,1.823,0,0,1-1.84-1.015l-.194-.42-.265.384a1.219,1.219,0,0,1-.241.259,1.285,1.285,0,0,1-1.492.1,1.347,1.347,0,0,1-.587-1.27l.076-.5-.43.26a2.2,2.2,0,0,1-2.788-.438,4.891,4.891,0,0,1-.615-1.072c-.034-.01-.1.531.4,1.249a2.4,2.4,0,0,0,1.258.892,2.582,2.582,0,0,0,1.989-.223l-.353-.242a1.817,1.817,0,0,0,.766,1.774,1.792,1.792,0,0,0,2.111-.116,1.75,1.75,0,0,0,.349-.378l-.459-.036a2.3,2.3,0,0,0,2.392,1.281,2.278,2.278,0,0,0,1.779-1.5l-.321.092a1.8,1.8,0,0,0,1.364.313,1.935,1.935,0,0,0,.948-.429C160.342,195.566,160.371,195.209,160.343,195.209Z"/><path class="e" d="M124.149,184.552a2.6,2.6,0,0,1,.558-.723,1.482,1.482,0,0,1,.971-.337,1.518,1.518,0,0,1,1.176.614l.24.335.058-.413a2.566,2.566,0,0,1,1.538-1.948,2.49,2.49,0,0,1,2.816.747l.3.377.126-.467a3.12,3.12,0,0,1,1.8-2,3.056,3.056,0,0,1,3.678,1.222l.152.245.23-.17a3,3,0,0,1,3.694.172,3.061,3.061,0,0,1,.792,3.224l-.14.37.384-.084a3.313,3.313,0,0,1,2.46.44,3.256,3.256,0,0,1,1.252,1.5,5.011,5.011,0,0,1,.308,1.715,1.027,1.027,0,0,0,.1-.463,3.258,3.258,0,0,0-.184-1.339,3.416,3.416,0,0,0-1.288-1.7,3.639,3.639,0,0,0-2.739-.572l.243.286a3.4,3.4,0,0,0-5.2-3.973l.382.075a3.554,3.554,0,0,0-4.327-1.427,3.592,3.592,0,0,0-2.072,2.358l.425-.09a2.856,2.856,0,0,0-5.064,1.463l.3-.078a1.777,1.777,0,0,0-1.443-.675,1.635,1.635,0,0,0-1.088.461,1.558,1.558,0,0,0-.4.61C124.136,184.462,124.136,184.549,124.149,184.552Z"/><path class="c" d="M143.275,218.766c-.243.083.406,1.669-.488,3.352s-2.652,2.2-2.573,2.43c.019.108.5.153,1.223-.121a4.267,4.267,0,0,0,2.186-1.939,3.72,3.72,0,0,0,.307-2.769C143.718,219.032,143.38,218.712,143.275,218.766Z"/><path class="j" d="M133.533,247.567l-7.926,22.318,1.831,24.4,5.047,42.15s18.568-6.27,19.4-5.644-8.214-42.734-8.214-42.734l6.545-35.275-.422-10.389Z"/><path class="j" d="M133.533,247.567l-8.718,20.012-17.959,7.066-18.91,5.815,2.692,13.551a4.895,4.895,0,0,0,6.07,3.774l15.933-4.274,14.843-.683L135.2,274.89Z"/><path class="g" d="M94.15,274.89l1.32-1.638a8.66,8.66,0,0,1,3.762.819,11.271,11.271,0,0,1,3.63,5.451,25.224,25.224,0,0,1,0,4.62L93.82,274.89"/><path class="c" d="M76.6,265.171c0,.272,16.972,18.284,16.972,18.284l3.195,3.154h10.265l-19.8-21.983-8.539-1.454Z"/><path class="c" d="M145.547,305.181a3.769,3.769,0,0,1-.389-.63c-.256-.47-.592-1.088-1.011-1.86-.859-1.625-2.076-3.992-3.493-6.96a107.7,107.7,0,0,1-4.505-10.647,29.728,29.728,0,0,1-.931-3.232,13.7,13.7,0,0,1-.266-1.742c-.019-.583-.043-1.171-.045-1.764-.027-2.371.033-4.821.125-7.328.117-3.174.282-6.248.47-9.169l.01-.152.14-.062,5.265-2.31.066.452-4.047-.523-.332-.043.167-.287c2.6-4.467,4.76-8.2,6.308-10.862l1.794-3.017c.195-.316.355-.574.487-.786.113-.176.176-.264.187-.258a1.163,1.163,0,0,1-.127.292l-.43.819L143.3,248.19c-1.509,2.689-3.619,6.448-6.147,10.954l-.165-.33,4.052.492.851.1-.785.349-5.253,2.337.149-.214c-.177,2.915-.336,5.988-.453,9.155-.091,2.5-.155,4.947-.135,7.3,0,.59.022,1.172.039,1.748a13.43,13.43,0,0,0,.249,1.662,29.789,29.789,0,0,0,.9,3.18c1.406,4.092,3.023,7.66,4.383,10.645s2.537,5.372,3.341,7.024l.923,1.9A4.252,4.252,0,0,1,145.547,305.181Z"/><path class="g" d="M86.625,274.89s-2.574,1.86-2.508,2.916a2.883,2.883,0,0,0,1.254,2.376c.594.2,2.376,1.122,2.376,1.122s-1.584,1.518-1.122,3.1a2.905,2.905,0,0,0,1.518,1.98,9.723,9.723,0,0,0,.66,3.234c.594,1.188,2.508,1.584,2.508,1.584a19.321,19.321,0,0,0,1.981,3.221,5.5,5.5,0,0,0,2.772,1.4s2.376.264,3.63-.594a4.922,4.922,0,0,0,2.706-4.62s5.676-2.838,5.742-4.291-.594-1.913-.594-1.913l-2.838.527s-.4-1.518-1.254-1.65-11.221,2.376-11.221,2.376,7.063-1.121,7.261-2.508.264-2.574-.792-2.838-8.579.542-8.579.542l-.394-1.334s2.042.066,2.042-1.716-1.122-2.178-1.122-2.178Z"/><path class="k" d="M145.547,244l.869,6.891-5.337,29.964,5.409,25.877,28.04,8.285,11.029-4.752-3.762-72.629L171.773,230.6l-3.849-2.585-14.445,21.86Z"/><path class="j" d="M170.953,230.046l7.007,3.129,24.821,3.337,13.389,70.42,1.683,8.085,25.666,38.41a3.655,3.655,0,0,1-1.226,5.2l-21.028,12.014a3.566,3.566,0,0,1-4.593-1.2l-26.717-40.261-13.246-16.953s-7.926-23.986-8.969-34.207a145.249,145.249,0,0,1,0-26.906C168.377,244.971,170.953,230.046,170.953,230.046Z"/><path class="j" d="M202.781,236.512a12.108,12.108,0,0,1,6.27,8.471c1.579,8.359,6.343,22.941,8.129,38.508,2.5,21.781-3.355,28.5-6.12,32.257-2.705,3.676-19.883,11.747-19.883,11.747l-12.868-17.149,14.252-11.677-1.252-30.244s-5.006-6.883-2.5-17.1,9.8-15.435,13.975-14.809Z"/><g class="f"><path d="M216.061,306.355c-1.951,5.288-4.179,9.744-8.724,12.259-4.834,2.676-11.566,6.456-16.16,8.881l3.366,5.216c5.269-.807,14.985-6.952,18.157-11.237A20.459,20.459,0,0,0,216.061,306.355Z"/></g><path class="c" d="M190.961,270.03a2.83,2.83,0,0,1,.093.451c.054.324.127.766.221,1.334.186,1.2.455,2.927.8,5.139.674,4.495,1.643,10.96,2.842,18.953l.015.1-.077.068-16.39,14.448.033-.317,12.886,17.135-.319-.076c4.28-2.157,8.7-4.494,13.09-7.088,1.245-.748,2.478-1.5,3.662-2.3a21.551,21.551,0,0,0,3.318-2.605,25.664,25.664,0,0,0,4.072-7.164,42.1,42.1,0,0,0,2.4-15.466,100.434,100.434,0,0,0-1.363-14.222c-.69-4.431-1.489-8.534-2.277-12.266-1.577-7.466-3.09-13.456-4.155-17.589-.537-2.045-.957-3.642-1.25-4.754-.137-.525-.245-.935-.324-1.237a2.813,2.813,0,0,1-.1-.425s.059.136.147.411l.374,1.223c.322,1.077.781,2.67,1.345,4.73,1.125,4.119,2.694,10.1,4.319,17.564.813,3.732,1.633,7.837,2.344,12.275a99.814,99.814,0,0,1,1.416,14.284,42.437,42.437,0,0,1-2.4,15.655,26.019,26.019,0,0,1-4.169,7.335,21.989,21.989,0,0,1-3.406,2.682c-1.2.812-2.435,1.569-3.686,2.322-4.406,2.605-8.834,4.94-13.129,7.1l-.191.1-.128-.171-12.851-17.162-.131-.174.164-.143L194.6,295.793l-.062.168c-1.128-8-2.041-14.476-2.676-18.977-.3-2.219-.535-3.95-.7-5.154-.071-.57-.127-1.015-.168-1.341A2.923,2.923,0,0,1,190.961,270.03Z"/><path class="c" d="M172.831,295.869a3.628,3.628,0,0,1,.055-.7c.066-.505.151-1.163.257-1.982l1.043-7.272c.875-6.141,2.243-14.6,3.572-23.969.618-4.536,1.208-8.862,1.744-12.8l.154.257-4.24-1.628-.412-.158.369-.239,4.261-2.758-.086.193c-.506-3.538-.92-6.429-1.217-8.5-.126-.965-.226-1.737-.3-2.323a4.509,4.509,0,0,1-.068-.816,4.436,4.436,0,0,1,.18.8c.1.581.238,1.348.407,2.306.338,2.066.81,4.948,1.388,8.474l.02.123-.106.071-4.231,2.806-.043-.4,4.252,1.6.179.067-.025.191c-.526,3.942-1.1,8.269-1.707,12.807-1.329,9.372-2.755,17.828-3.725,23.956-.5,3.016-.911,5.477-1.206,7.249l-.353,1.966A3.469,3.469,0,0,1,172.831,295.869Z"/><path class="c" d="M199.021,237.456c.063.084-1.211.959-2.919,2.735a25.5,25.5,0,0,0-2.706,3.361,25.772,25.772,0,0,0-3.969,9.716,25.6,25.6,0,0,0-.421,4.294c-.024,2.464.273,3.98.169,4a4.338,4.338,0,0,1-.253-1.053,9.4,9.4,0,0,1-.177-1.259,15.416,15.416,0,0,1-.107-1.682,23.032,23.032,0,0,1,.317-4.38,24.468,24.468,0,0,1,4.045-9.9,23.112,23.112,0,0,1,2.84-3.349,15.555,15.555,0,0,1,1.255-1.126,9.417,9.417,0,0,1,1.007-.775A4.322,4.322,0,0,1,199.021,237.456Z"/><path class="c" d="M127.329,292.84c-.143.01-.6-4.843-1.026-10.839s-.651-10.866-.508-10.876.6,4.842,1.027,10.84S127.473,292.83,127.329,292.84Z"/><path class="j" d="M211.871,336.986l3.852,7.867,17.831-11.412-6.176-6.989Z"/><path class="c" d="M211.871,336.986a10.416,10.416,0,0,1,1.069-.8l3.143-2.216,11.159-7.717.176-.122.143.162,6.188,6.978.2.227-.257.164-.78.5-17.09,10.85-.179.113-.089-.189-2.754-5.845-.716-1.569a2.834,2.834,0,0,1-.215-.534,4.174,4.174,0,0,1,.319.557l.817,1.561,2.884,5.667-.268-.075,17.01-10.975.781-.5-.055.391-6.163-7,.319.04L216.352,334.1l-3.26,2.133-.888.565A2.079,2.079,0,0,1,211.871,336.986Z"/><g class="f"><path d="M212.043,337.338c.075.152,3.956,12.076,3.956,12.076l16.63-11.806-1.428-2.661-15.478,9.906Z"/></g><g class="f"><path d="M178.465,236.462l2.952,9.747-2.952,1.358,3.944,1.94s-6.217,34-7,37.1-1.736,4.1-1.736,4.1l6.069-41.53-4.246-1.612,4.246-2.783Z"/></g><path class="c" d="M112.67,289.589a21.282,21.282,0,0,0-4.431-13.054,5.849,5.849,0,0,1,1.44,1.518,16.131,16.131,0,0,1,3.21,9.456A5.833,5.833,0,0,1,112.67,289.589Z"/><g class="f"><path d="M125.682,270.163c-2.965,7.393-1.895,15.508,1.575,22.677C126.722,284.591,126.4,278.161,125.682,270.163Z"/></g><path class="c" d="M168.832,236.206a4.547,4.547,0,0,1-.527.981l-1.547,2.593c-1.294,2.2-3.024,5.263-4.73,8.754-1.156,2.35-2.148,4.593-2.954,6.5l-.116.275-.229-.183a34.6,34.6,0,0,1-3.719-3.432,8.132,8.132,0,0,1-1.218-1.481,13.984,13.984,0,0,1,1.4,1.3A46.839,46.839,0,0,0,159,254.773l-.345.092c.767-1.933,1.74-4.2,2.9-6.56a89.325,89.325,0,0,1,4.884-8.718c.691-1.076,1.274-1.931,1.692-2.512A4.566,4.566,0,0,1,168.832,236.206Z"/><path class="c" d="M152.411,250.023a28.209,28.209,0,0,1-1.667,5.089l-.132.349-.281-.245-.13-.114a16.717,16.717,0,0,1-3.7-4.121c.116-.1,1.762,1.74,4.046,3.729l.128.112-.414.1A28.27,28.27,0,0,1,152.411,250.023Z"/><path class="c" d="M155.345,301.174a1.839,1.839,0,0,1-.078-.489c-.033-.382-.074-.847-.123-1.408-.087-1.305-.2-3.057-.347-5.185-.266-4.379-.582-10.432-.846-17.121s-.409-12.754-.41-17.144c0-2.2.027-3.971.07-5.2.029-.563.052-1.029.072-1.412a1.769,1.769,0,0,1,.06-.491,1.775,1.775,0,0,1,.045.493c.007.383.015.849.026,1.412.024,1.307.056,3.061.1,5.192.094,4.383.3,10.439.561,17.127.269,6.65.513,12.667.694,17.124.074,2.131.136,3.885.182,5.192.01.564.018,1.03.025,1.414A1.764,1.764,0,0,1,155.345,301.174Z"/><path class="l" d="M79.26,337.963"/><path class="j" d="M96.8,436.216l2.588,24.418s-23.95,10.831-23.911,15.39L123,472.706l-2.471-38.211Z"/><path class="m" d="M113.941,457.549a1.946,1.946,0,0,1,1.5,2.121,1.869,1.869,0,0,1-2.09,1.5,2.051,2.051,0,0,1-1.573-2.254,1.94,1.94,0,0,1,2.347-1.321"/><path class="m" d="M123.107,473.7l-.236-3.7-45.685,3.48s-2.052,1.069-1.708,2.542Z"/><path class="c" d="M98.6,460.446c.024.231,1.192.256,2.385.922,1.212.636,1.871,1.6,2.078,1.493.211-.06-.232-1.423-1.692-2.2S98.537,460.236,98.6,460.446Z"/><path class="c" d="M93.761,462.856c-.037.228.995.552,1.852,1.479.884.9,1.157,1.949,1.387,1.923.221.021.287-1.349-.8-2.481S93.751,462.634,93.761,462.856Z"/><path class="c" d="M91.347,469.019c.214.035.456-1.147-.229-2.376s-1.8-1.66-1.89-1.46c-.118.2.635.833,1.181,1.851C90.98,468.039,91.114,469.013,91.347,469.019Z"/><path class="c" d="M98.63,454.816c.112.2,1.154-.19,2.472-.193,1.318-.029,2.369.34,2.476.133.123-.178-.934-.967-2.486-.942S98.5,454.641,98.63,454.816Z"/><path class="j" d="M88.338,337.686,66.327,348.57s-18.455-18.717-22.719-17.1L63.18,374.9l34.991-15.552Z"/><path class="m" d="M74.261,361.153a1.945,1.945,0,0,1-1.471,2.139,1.871,1.871,0,0,1-2.133-1.44,2.053,2.053,0,0,1,1.571-2.257,1.941,1.941,0,0,1,2.052,1.744"/><path class="m" d="M62.28,375.347l3.392-1.5L46.585,332.191s-1.713-1.554-2.977-.722Z"/><path class="c" d="M66.231,347.767c-.209.1.173,1.206-.039,2.557-.176,1.357-.853,2.309-.681,2.466.13.177,1.255-.711,1.483-2.351S66.4,347.633,66.231,347.767Z"/><path class="c" d="M62.294,344.06c-.227.044-.174,1.125-.747,2.25-.539,1.141-1.427,1.76-1.323,1.967.057.215,1.365-.2,2.05-1.61S62.5,343.974,62.294,344.06Z"/><path class="c" d="M55.676,343.93c.041.213,1.234.031,2.15-1.038s.932-2.268.714-2.278c-.228-.041-.561.883-1.327,1.749C56.469,343.246,55.6,343.709,55.676,343.93Z"/><path class="c" d="M71.523,345.843c-.154.176.577,1.017,1.036,2.253.484,1.226.5,2.34.734,2.369.208.053.583-1.211.022-2.659S71.642,345.664,71.523,345.843Z"/><path class="c" d="M99.084,351.53A12.791,12.791,0,0,0,89.6,361.6c-1.606,8.466,4.223,93.659,4.223,93.659l29.9-2.4-1.826-57.407-.737-11.572,2.563-1.964,52.55-9.246-8-21.728-8.787-15.294-40.256,10.039Z"/><path class="c" d="M198.028,337.176s-21.742-31.429-28.1-36c-5.243-3.773-13.121-3.767-17.989-1.576S70.89,339.553,70.89,339.553l11.169,27.96L154.524,342.4l10.8,16.951,10.052,13.323,28.238.221c1.338,0,7.4-11.978,7.4-11.978Z"/><path class="e" d="M89.317,368.172a1.216,1.216,0,0,1-.015-.293c0-.224.006-.508.01-.864.009-.392.021-.859.034-1.405.048-.553.136-1.189.219-1.907a21.8,21.8,0,0,1,.47-2.36,13.571,13.571,0,0,1,.409-1.316,9.143,9.143,0,0,1,.541-1.389,13.582,13.582,0,0,1,4.272-5.481,10.8,10.8,0,0,1,3.675-1.8l4.329-.733,9.532-1.594,21.846-3.619,19.845-3.251.158-.026.087.135c5.81,9.073,10.53,16.964,14.5,22.124l4.539,6.09,1.213,1.619.306.422c.067.1.1.147.093.151s-.047-.038-.125-.126l-.338-.4-1.275-1.571c-1.1-1.381-2.7-3.41-4.653-6.01-4.043-5.119-8.836-13-14.667-22.039l.244.109-19.838,3.284L112.873,349.5l-9.539,1.547-4.313.7a10.469,10.469,0,0,0-3.547,1.707,13.345,13.345,0,0,0-4.224,5.3,8.935,8.935,0,0,0-.551,1.358c-.144.449-.335.864-.425,1.291a22.883,22.883,0,0,0-.509,2.327q-.148,1.058-.265,1.888-.048.813-.083,1.4c-.025.354-.046.637-.061.86A1.258,1.258,0,0,1,89.317,368.172Z"/><path class="e" d="M164.9,323.009a3.1,3.1,0,0,1,.114.9,15.286,15.286,0,0,1-.053,2.474,20.354,20.354,0,0,1-.669,3.616,21.55,21.55,0,0,1-4.165,7.94,20.383,20.383,0,0,1-2.6,2.606,15.062,15.062,0,0,1-2.005,1.45,3.057,3.057,0,0,1-.806.418c-.053-.082,1.044-.761,2.569-2.145a23.245,23.245,0,0,0,2.465-2.632,23.066,23.066,0,0,0,4.076-7.771,23.282,23.282,0,0,0,.764-3.524C164.866,324.3,164.8,323.012,164.9,323.009Z"/><path class="c" d="M416.9,422.684l-130.856-.077a28.5,28.5,0,0,1-28.488-28.51l.064-328.059a28.5,28.5,0,0,1,28.521-28.5L417,37.616a28.5,28.5,0,0,1,28.487,28.51l-.064,328.06A28.5,28.5,0,0,1,416.9,422.684Z"/><path class="n" d="M416.864,49.219l-25.371-.014a6.3,6.3,0,0,0-6.161,6.436l0,4.6a6.3,6.3,0,0,1-6.161,6.437l-49.453-.029a6.309,6.309,0,0,1-6.16-6.444l0-4.6a6.31,6.31,0,0,0-6.161-6.444l-8.922-.006-22.206-.013A19.963,19.963,0,0,0,266.3,69.1l-.063,320.209a19.964,19.964,0,0,0,19.951,19.968l130.6.076A19.964,19.964,0,0,0,436.753,389.4l.062-320.21A19.964,19.964,0,0,0,416.864,49.219Z"/><path class="b" d="M436.815,69.186a19.964,19.964,0,0,0-19.951-19.967l-25.371-.014a6.3,6.3,0,0,0-6.161,6.436l0,4.6a6.3,6.3,0,0,1-6.161,6.437l-49.453-.029a6.309,6.309,0,0,1-6.16-6.444l0-4.6a6.31,6.31,0,0,0-6.161-6.444l-8.922-.006-22.206-.013A19.963,19.963,0,0,0,266.3,69.1l-.063,30.62H436.813Z"/><path class="c" d="M422.936,80.437a67.576,67.576,0,0,1-6.827.23,67.361,67.361,0,0,1-6.83-.117,135.245,135.245,0,0,1,13.657-.113Z"/><path class="c" d="M422.964,83.931a67.529,67.529,0,0,1-6.826.23,67.345,67.345,0,0,1-6.83-.117,135.231,135.231,0,0,1,13.656-.113Z"/><path class="c" d="M422.993,87.425a67.529,67.529,0,0,1-6.826.23,67.346,67.346,0,0,1-6.83-.117,135.225,135.225,0,0,1,13.656-.113Z"/><path class="c" d="M304.114,322.237l.687-1.451a6.7,6.7,0,0,0,4.294,1.506c2.248,0,3.215-.874,3.215-2.008,0-3.177-7.88-1.17-7.88-6,0-2.007,1.561-3.717,4.981-3.717a7.655,7.655,0,0,1,4.181,1.152l-.613,1.486a6.724,6.724,0,0,0-3.568-1.058c-2.212,0-3.159.929-3.159,2.062,0,3.178,7.879,1.19,7.879,5.966,0,1.988-1.6,3.7-5.036,3.7A7.73,7.73,0,0,1,304.114,322.237Z"/><path class="c" d="M315.673,318.8a4.922,4.922,0,0,1,5.2-5.018,4.391,4.391,0,0,1,4.014,2.1l-1.356.873a3.074,3.074,0,0,0-2.677-1.412,3.468,3.468,0,0,0,0,6.933,3.075,3.075,0,0,0,2.677-1.413l1.356.855a4.406,4.406,0,0,1-4.014,2.118A4.936,4.936,0,0,1,315.673,318.8Z"/><path class="c" d="M335,317.776v5.947H333.31v-1.3a3.656,3.656,0,0,1-3.233,1.412c-2.231,0-3.643-1.189-3.643-2.9,0-1.579,1.022-2.881,3.958-2.881h2.825V317.7c0-1.506-.873-2.379-2.638-2.379a4.986,4.986,0,0,0-3.123,1.059l-.744-1.339a6.568,6.568,0,0,1,4.071-1.263C333.477,313.78,335,315.08,335,317.776Zm-1.785,2.936v-1.375h-2.751c-1.765,0-2.266.688-2.266,1.524,0,.985.817,1.6,2.174,1.6A2.856,2.856,0,0,0,333.217,320.712Z"/><path class="c" d="M347.658,318.054v5.669h-1.784v-5.464c0-1.932-.967-2.881-2.659-2.881a2.926,2.926,0,0,0-3.122,3.271v5.074h-1.784v-9.851h1.71v1.488a4.221,4.221,0,0,1,3.55-1.58C345.966,313.78,347.658,315.156,347.658,318.054Z"/><path class="c" d="M360.314,318.054v5.669H358.53v-5.464c0-1.932-.967-2.881-2.658-2.881a2.925,2.925,0,0,0-3.122,3.271v5.074h-1.785v-9.851h1.71v1.488a4.222,4.222,0,0,1,3.55-1.58C358.623,313.78,360.314,315.156,360.314,318.054Z"/><path class="c" d="M363.3,310.825a1.175,1.175,0,0,1,1.208-1.171,1.155,1.155,0,0,1,1.208,1.133,1.209,1.209,0,0,1-2.416.038Zm.317,3.047h1.784v9.851h-1.784Z"/><path class="c" d="M378.156,318.054v5.669h-1.784v-5.464c0-1.932-.967-2.881-2.659-2.881a2.926,2.926,0,0,0-3.122,3.271v5.074h-1.784v-9.851h1.71v1.488a4.221,4.221,0,0,1,3.55-1.58C376.464,313.78,378.156,315.156,378.156,318.054Z"/><path class="c" d="M390.941,313.872v8.513c0,3.476-1.766,5.055-5.111,5.055a7.294,7.294,0,0,1-4.7-1.468l.855-1.376a6.009,6.009,0,0,0,3.791,1.283c2.323,0,3.383-1.078,3.383-3.308v-.781a4.51,4.51,0,0,1-3.55,1.524,4.772,4.772,0,1,1,0-9.534,4.5,4.5,0,0,1,3.643,1.617v-1.525Zm-1.747,4.665a3.4,3.4,0,1,0-3.383,3.216A3.145,3.145,0,0,0,389.194,318.537Z"/><path class="c" d="M393.5,322.552a1.243,1.243,0,0,1,1.265-1.264A1.223,1.223,0,0,1,396,322.552a1.239,1.239,0,0,1-1.227,1.282A1.258,1.258,0,0,1,393.5,322.552Z"/><path class="c" d="M397.723,322.552a1.242,1.242,0,0,1,1.265-1.264,1.223,1.223,0,0,1,1.226,1.264,1.238,1.238,0,0,1-1.226,1.282A1.258,1.258,0,0,1,397.723,322.552Z"/><path class="c" d="M401.942,322.552a1.242,1.242,0,0,1,1.265-1.264,1.223,1.223,0,0,1,1.226,1.264,1.238,1.238,0,0,1-1.226,1.282A1.258,1.258,0,0,1,401.942,322.552Z"/><path class="c" d="M294.143,220.875v6.191h6.191V214.684h-6.191Z"/><rect class="c" width="6.191" height="6.191" transform="translate(294.143 183.728)"/><rect class="c" width="6.191" height="6.191" transform="translate(332.401 251.894)"/><path class="c" d="M300.334,196.11V202.3h-6.191v6.191h6.191v6.191h12.382v6.191h6.191v-6.191H325.1V202.3h-6.191v6.191H306.525V189.919h-6.191Z"/><path class="c" d="M312.716,183.728h-6.191v6.191h12.382v-6.191Z"/><path class="c" d="M340.577,233.5H343.9v-6.191h-6.653V233.5Z"/><rect class="c" width="6.191" height="6.191" transform="translate(318.908 189.919)"/><rect class="c" width="6.191" height="6.191" transform="translate(362.246 214.684)"/><rect class="c" width="6.191" height="6.191" transform="translate(368.438 146.581)"/><path class="c" d="M337.481,196.11v-6.191h6.191v-6.191h-6.191v-6.191H331.29v6.191H325.1v6.191h6.191v24.765h6.191V202.3h6.191V196.11Z"/><path class="c" d="M368.438,258.022h6.191v-6.191H362.246v6.191Z"/><rect class="c" width="6.191" height="6.191" transform="translate(356.055 146.581)"/><path class="c" d="M360.7,196.11v-6.191h-6.191v-6.191h-6.191V196.11h-6.191V202.3h12.383V196.11Z"/><rect class="c" width="6.191" height="6.191" transform="translate(389.452 183.728)"/><rect class="c" width="6.191" height="6.191" transform="translate(325.277 214.684)"/><path class="c" d="M356.055,177.537v-6.191h6.191v-6.191h12.383v-6.191h-6.191v-6.191h-6.191v6.191h-6.191v6.191h-6.191v6.191h-6.191v6.191h12.382Z"/><path class="c" d="M356.055,220.875v-6.191h6.191v-6.191H349.864v6.191h-6.191v6.191h12.382Z"/><path class="c" d="M374.629,245.637v-6.191H362.246v-6.191h-6.191v6.191h-6.191v6.191H337.481v6.191h18.574v-6.191h6.191v6.191h6.191v-6.191Z"/><path class="c" d="M349.864,152.772v-6.191H337.481v6.191H331.29v6.191h12.383v-6.191Z"/><rect class="c" width="6.191" height="6.191" transform="translate(343.673 158.963)"/><path class="c" d="M365.342,183.728h-6.191V202.3h12.382V196.11h-6.191v-6.191h6.191v-6.191h6.191v-6.191h-6.191v-6.191h-6.191v12.382Z"/><rect class="c" width="6.191" height="6.191" transform="translate(337.481 165.154)"/><path class="c" d="M362.246,227.066v6.191h12.383v-6.191h12.382v-6.191H368.438v6.191Z"/><rect class="c" width="6.191" height="6.191" transform="translate(389.452 202.301)"/><rect class="c" width="6.191" height="6.191" transform="translate(368.438 208.493)"/><path class="c" d="M390.107,189.919H377.724v6.191h6.191V202.3h6.191V189.919Z"/><rect class="c" width="6.191" height="6.191" transform="translate(380.82 208.493)"/><path class="c" d="M318.908,245.756h18.58V220.868H312.6v6.2h-6.075v6.192H312.6v6.191h-6.075v6.191H312.6v.116h.117v6.075h-6.192v12.383h6.192v-6.191h6.191V245.756Zm13.814-20.121v15.478H317.244V225.635Z"/><path class="c" d="M399.394,220.875h6.191v-6.191H387.011v6.191h12.382Z"/><path class="c" d="M399.394,196.11h6.191V183.728h-6.191V196.11Z"/><path class="c" d="M350.095,227.308H343.9V239.69h6.191V227.308Z"/><rect class="c" width="6.191" height="6.191" transform="translate(405.585 220.875)"/><path class="c" d="M411.776,208.493V202.3h-6.191v12.383h6.191Z"/><path class="c" d="M300.334,251.831h-6.191v12.382h6.191V251.831Z"/><path class="c" d="M411.776,177.537V146.581H380.82v30.956Zm-26.312-4.644V151.224h21.669v21.669Z"/><rect class="c" width="12.382" height="12.382" transform="translate(390.107 155.867)"/><path class="c" d="M411.776,233.258H380.82v30.956h30.956ZM385.464,259.57V237.9h21.669V259.57Z"/><rect class="c" width="12.382" height="12.383" transform="translate(390.107 242.544)"/><path class="c" d="M294.065,146.581v30.956h30.957V146.581Zm26.313,4.643v21.669H298.709V151.224Z"/><rect class="c" width="12.383" height="12.382" transform="translate(303.352 155.867)"/><path class="j" d="M285.236,168.161V146.175a8.11,8.11,0,0,1,1.743-5.6,7.621,7.621,0,0,1,6.025-2.5h23.119a.692.692,0,0,0,0-1.383H293.259a9.673,9.673,0,0,0-5.512,1.393,8.724,8.724,0,0,0-3.893,7.22c-.064,3.617,0,7.242,0,10.86v12a.691.691,0,0,0,1.382,0Z"/><path class="j" d="M314.1,274.668H292.112a8.11,8.11,0,0,1-5.6-1.743,7.622,7.622,0,0,1-2.5-6.025V243.781a.692.692,0,0,0-1.383,0v22.864a9.676,9.676,0,0,0,1.393,5.513,8.729,8.729,0,0,0,7.22,3.893c3.617.064,7.242,0,10.86,0h12a.692.692,0,0,0,0-1.383Z"/><path class="j" d="M419.94,243.562v21.987a8.11,8.11,0,0,1-1.743,5.6,7.626,7.626,0,0,1-6.026,2.5H389.053a.692.692,0,0,0,0,1.383h22.864a9.673,9.673,0,0,0,5.512-1.393,8.724,8.724,0,0,0,3.893-7.22c.064-3.618,0-7.242,0-10.86v-12a.691.691,0,0,0-1.382,0Z"/><path class="j" d="M389.452,138.074h21.987a8.1,8.1,0,0,1,5.6,1.743,7.622,7.622,0,0,1,2.5,6.025V168.96a.692.692,0,0,0,1.383,0V146.1a9.681,9.681,0,0,0-1.393-5.512,8.726,8.726,0,0,0-7.22-3.893c-3.618-.064-7.242,0-10.86,0h-12a.692.692,0,0,0,0,1.383Z"/><path class="a" d="M16.619,0h104.3a16.62,16.62,0,0,1,16.62,16.62v3.528a16.619,16.619,0,0,1-16.619,16.619H16.619A16.619,16.619,0,0,1,0,20.147V16.619A16.619,16.619,0,0,1,16.619,0Z" transform="translate(281.097 340.32)"/><path class="c" d="M404.2,365.619c0,.144-23.586.26-52.674.26s-52.679-.116-52.679-.26,23.581-.261,52.679-.261S404.2,365.475,404.2,365.619Z"/><text class="o" transform="translate(306.525 363.323)"><tspan x="0" y="0">www.atlashn.com</tspan></text></g></svg>