<svg xmlns="http://www.w3.org/2000/svg" width="525.663" height="316.775" viewBox="0 0 525.663 316.775"><defs><style>.a{fill:#f5f5f5;}.b{fill:#e0e0e0;}.c{fill:#ebebeb;}.d{fill:#263238;}.e{fill:#0894fe;}.f{fill:#2680eb;}.g{fill:#0048cd;}.h{fill:#455a64;}.i{fill:#fff;}.j{fill:#f2f2f2;}.k,.l{opacity:0.2;}.m{fill:#c4c9ce;}.n{fill:#e8505b;}.o{fill:#fafafa;}.p{opacity:0.3;}.q{fill:#75c6fa;}</style></defs><g transform="translate(-58.695 -69.83)"><g transform="translate(72.342 154.363)"><g transform="translate(0 54.908)"><path class="a" d="M130.925,323.762c6.018-3.8,8.212-8.72,9.2-15.766a24.954,24.954,0,0,0-6-19.8c-3.947-4.428-9.522-7.475-12.373-12.677-3.039-5.544-2.584-12.888-6.95-17.462-3-3.142-7.551-4.157-11.266-6.406-3.032-1.837-5.477-4.48-8.226-6.719s-6.046-4.143-9.59-4.042c-5.344.153-9.733,5.191-10.234,10.515s2.24,10.564,6.151,14.211c2.838,2.644,6.384,4.733,8.164,8.178,3.342,6.472-.862,15.055,2.755,21.378,2.641,4.618,9,7.065,9.655,12.344.24,1.942-.4,3.88-.471,5.835-.238,6.114,5.246,11.3,11.211,12.666s12.191-.236,17.965-2.258" transform="translate(-75.437 -240.889)"/><g transform="translate(20.835 22.016)"><path class="b" d="M101,267.9a4.771,4.771,0,0,0,.608.745l1.843,2.033c.817.866,1.8,1.941,2.86,3.257s2.362,2.737,3.61,4.462l2.016,2.661c.7.928,1.343,1.949,2.057,2.975,1.456,2.034,2.807,4.339,4.277,6.733a129.406,129.406,0,0,1,8,16.418,129.416,129.416,0,0,1,5.372,17.459c.562,2.754,1.149,5.36,1.475,7.841.179,1.237.4,2.425.528,3.579s.235,2.26.345,3.319c.267,2.112.3,4.037.411,5.724s.14,3.143.136,4.333c.017,1.131.031,2.041.042,2.743a4.731,4.731,0,0,0,.065.959,4.681,4.681,0,0,0,.082-.955c.024-.7.056-1.614.1-2.747.048-1.193.073-2.654-.011-4.349s-.069-3.631-.3-5.755q-.143-1.6-.3-3.341c-.112-1.161-.323-2.357-.49-3.6-.3-2.5-.869-5.124-1.416-7.9a124.577,124.577,0,0,0-5.349-17.581,124.508,124.508,0,0,0-8.1-16.491c-1.494-2.4-2.873-4.705-4.359-6.736-.729-1.023-1.391-2.041-2.1-2.965l-2.062-2.644c-1.279-1.713-2.6-3.127-3.708-4.412s-2.111-2.346-2.962-3.185l-1.945-1.942A4.7,4.7,0,0,0,101,267.9Z" transform="translate(-100.996 -267.898)"/></g></g><g transform="translate(414.927)"><path class="c" d="M677.78,174.173s-7.662-5.066-17,13.261-12.88,28.9-12.88,28.9-2.468,3.84-5.106,1.33-6.251-9.63-10.734-8.349c-4.65,1.33-6.181,6.519-5.294,14.145s2.216,24.4,2.331,25.921c.112,1.49-.741,3.685-2.812,2.263s-13.984-14.689-19.941-8.659,0,26.867.611,29.158.16,3.269-.928,3.835-4.673-4.27-8.215-7.9-8.288-7.228-11.433-3.461-4.152,19.4,10.728,44.8l7.665,11.316,13.708-.761c29.235-3.416,41.111-13.634,42.224-18.414s-4.614-6.4-9.649-7.044-11.054-.588-11.257-1.8.308-2.157,2.5-3.051,22.419-8.685,23.645-17.071-16.54-9.907-18.922-10.7-1.144-2.8.113-3.607c1.281-.823,15.476-9.866,22.1-13.75s9.841-8.232,8.1-12.745c-1.676-4.351-9.537-2.947-13.128-3.541s-2.013-4.878-2.013-4.878,6.306-9.191,15.312-27.685.114-21.594.114-21.594" transform="translate(-584.448 -173.531)"/><g transform="translate(10.382 17.041)"><path class="b" d="M671.741,194.436s-.051.138-.17.4l-.536,1.146-2.1,4.39c-1.824,3.81-4.5,9.3-7.839,16.082-6.668,13.556-16.036,32.2-26.447,52.767s-19.826,39.2-26.561,52.718c-3.354,6.753-6.072,12.222-7.959,16.02l-2.168,4.354c-.246.484-.437.859-.573,1.128-.131.253-.209.377-.209.377s.051-.137.17-.4.306-.655.536-1.146c.487-1.02,1.191-2.5,2.1-4.39,1.823-3.81,4.5-9.3,7.839-16.081,6.668-13.556,16.037-32.207,26.451-52.777s19.821-39.188,26.557-52.709l7.96-16.02,2.168-4.355q.369-.725.573-1.127C671.664,194.561,671.741,194.436,671.741,194.436Z" transform="translate(-597.184 -194.436)"/></g><g transform="translate(52.256 45.945)"><path class="b" d="M648.56,229.895a4.426,4.426,0,0,1,.345.928c.2.6.458,1.485.77,2.577.619,2.185,1.4,5.225,2.2,8.6.774,3.326,1.475,6.334,2.011,8.634.248,1.035.457,1.909.625,2.612a4.473,4.473,0,0,1,.193.969,4.368,4.368,0,0,1-.352-.924c-.2-.6-.457-1.487-.757-2.582-.6-2.192-1.336-5.241-2.133-8.611-.8-3.319-1.52-6.32-2.072-8.616-.254-1.034-.468-1.907-.639-2.609A4.387,4.387,0,0,1,648.56,229.895Z" transform="translate(-648.553 -229.895)"/></g><g transform="translate(59.657 62.508)"><path class="b" d="M657.633,258.208c-.033-.113,6.163-1.993,13.838-4.2s13.925-3.9,13.957-3.791-6.163,1.992-13.84,4.2S657.665,258.321,657.633,258.208Z" transform="translate(-657.633 -250.213)"/></g><g transform="translate(42.241 100.387)"><path class="b" d="M636.268,297.658a4.629,4.629,0,0,1,1.008-.046l2.743.01c2.315,0,5.513,0,9.04-.139s6.719-.357,9.027-.54l2.734-.215a4.578,4.578,0,0,1,1.009-.03,4.662,4.662,0,0,1-.99.195c-.642.1-1.572.222-2.724.349-2.3.261-5.5.537-9.039.666s-6.745.1-9.062.015c-1.159-.046-2.1-.093-2.743-.144A4.605,4.605,0,0,1,636.268,297.658Z" transform="translate(-636.268 -296.681)"/></g><g transform="translate(30.661 80.624)"><path class="b" d="M622.064,272.437a3.961,3.961,0,0,1,.535.765l1.323,2.164c1.1,1.837,2.6,4.389,4.224,7.22s3.082,5.408,4.117,7.283l1.206,2.232a3.935,3.935,0,0,1,.391.847,4,4,0,0,1-.535-.765L632,290.018c-1.1-1.837-2.6-4.389-4.225-7.221s-3.082-5.407-4.116-7.282l-1.206-2.232A3.971,3.971,0,0,1,622.064,272.437Z" transform="translate(-622.062 -272.436)"/></g><g transform="translate(11.825 105.916)"><path class="b" d="M598.958,303.464a6.406,6.406,0,0,1,.675.986l1.7,2.767c1.424,2.346,3.366,5.6,5.488,9.211s4.023,6.89,5.38,9.275l1.589,2.835a6.435,6.435,0,0,1,.532,1.069,6.461,6.461,0,0,1-.675-.986l-1.7-2.767c-1.424-2.346-3.366-5.6-5.488-9.211s-4.023-6.889-5.38-9.273l-1.589-2.836A6.432,6.432,0,0,1,598.958,303.464Z" transform="translate(-598.955 -303.463)"/></g><g transform="translate(27.005 129.215)"><path class="b" d="M617.577,334.16a7.318,7.318,0,0,1,1.276-.09l3.478-.113c2.935-.1,6.991-.251,11.462-.546s8.514-.655,11.438-.941l3.464-.336a7.306,7.306,0,0,1,1.277-.076,7.5,7.5,0,0,1-1.256.24c-.813.126-1.991.291-3.451.47-2.918.363-6.963.778-11.444,1.066s-8.543.4-11.483.422c-1.471.007-2.661,0-3.483-.022A7.3,7.3,0,0,1,617.577,334.16Z" transform="translate(-617.577 -332.046)"/></g></g></g><g transform="translate(58.695 386.182)"><line class="d" x2="521.461" transform="translate(0 0.213)"/><g transform="translate(0)"><path class="d" d="M580.156,458.127c0,.117-116.742.212-260.718.212-144.025,0-260.743-.095-260.743-.212s116.717-.213,260.743-.213C463.414,457.914,580.156,458.009,580.156,458.127Z" transform="translate(-58.695 -457.914)"/></g></g><g transform="translate(72.885 329.537)"><g transform="translate(0)"><path class="e" d="M87.364,388.425a11.283,11.283,0,0,1,7.828,4.095,19.9,19.9,0,0,1,3.933,8.1c1.466,5.673.478,12.344-1.184,17.961-6.108-2.243-9.831-8.809-11.509-12.258-2.654-5.453-4.139-16.919.933-17.9" transform="translate(-77.562 -388.425)"/><path class="f" d="M111.509,430.264a9.626,9.626,0,0,1-.368-9.657,12.779,12.779,0,0,1,7.751-6.121,5.383,5.383,0,0,1,4.529.256,4.116,4.116,0,0,1,1.551,3.873,8.351,8.351,0,0,1-1.8,3.945c-3.014,4.008-6.666,7.334-11.667,7.7" transform="translate(-82.373 -393.174)"/><g transform="translate(27.968 27.755)"><path class="d" d="M112.093,450.728a6.939,6.939,0,0,1-.263-1.178c-.157-.841-.359-1.927-.6-3.231a33.8,33.8,0,0,1-.577-10.838,20.68,20.68,0,0,1,4.105-10.006,14.007,14.007,0,0,1,2.344-2.329,8.379,8.379,0,0,1,.734-.518c.173-.112.267-.164.275-.152a21.981,21.981,0,0,0-3.116,3.183,21.353,21.353,0,0,0-3.921,9.881,36.365,36.365,0,0,0,.453,10.729c.207,1.371.375,2.483.47,3.254A6.271,6.271,0,0,1,112.093,450.728Z" transform="translate(-110.413 -422.474)"/></g><g transform="translate(11.703 8.632)"><path class="d" d="M90.462,399.014a2.489,2.489,0,0,1,.242.466l.62,1.369c.531,1.193,1.277,2.927,2.181,5.078,1.809,4.3,4.225,10.282,6.745,16.942s4.66,12.747,6.149,17.171c.745,2.212,1.333,4.007,1.722,5.252.181.589.328,1.065.441,1.436a2.458,2.458,0,0,1,.126.51,2.456,2.456,0,0,1-.207-.483l-.517-1.412c-.454-1.279-1.082-3.045-1.85-5.206-1.56-4.4-3.746-10.459-6.263-17.119s-4.887-12.649-6.625-16.978l-2.056-5.128-.546-1.4A2.408,2.408,0,0,1,90.462,399.014Z" transform="translate(-90.46 -399.014)"/></g><path class="g" d="M98.586,439.2A22.516,22.516,0,0,0,81.207,428.2c-1.81-.148-3.991.139-4.814,1.758s.243,3.56,1.465,4.907a19.235,19.235,0,0,0,20.791,4.828" transform="translate(-76.103 -395.77)"/><g transform="translate(7.82 37.287)"><path class="d" d="M85.7,434.18a5.8,5.8,0,0,1,1.134.052,10.871,10.871,0,0,1,1.322.165c.509.1,1.1.16,1.733.341a19.821,19.821,0,0,1,2.059.592,22.031,22.031,0,0,1,2.294.894,25.059,25.059,0,0,1,4.824,2.916,24.577,24.577,0,0,1,3.974,4,21.389,21.389,0,0,1,1.394,2.031,18.217,18.217,0,0,1,1.034,1.878,16.723,16.723,0,0,1,.708,1.619,10.2,10.2,0,0,1,.439,1.258,5.878,5.878,0,0,1,.285,1.1c-.09.031-.513-1.537-1.7-3.839a19.466,19.466,0,0,0-1.064-1.826,22.442,22.442,0,0,0-1.4-1.976,25.526,25.526,0,0,0-3.929-3.908,26.033,26.033,0,0,0-4.726-2.895,23.14,23.14,0,0,0-2.245-.917c-.708-.279-1.4-.455-2.018-.633C87.3,434.372,85.685,434.272,85.7,434.18Z" transform="translate(-85.696 -434.167)"/></g></g></g><g transform="translate(123.941 69.831)"><g transform="translate(0)"><path class="d" d="M508.306,69.831H149.923a11.187,11.187,0,0,0-11.187,11.186V334.152a11.187,11.187,0,0,0,11.187,11.187H287.47s8.75,27.055-18.373,41.055H397.71s-30.623-10.5-22.749-41.055H508.308a11.188,11.188,0,0,0,11.186-11.186V81.018A11.188,11.188,0,0,0,508.306,69.831Z" transform="translate(-138.736 -69.831)"/><g transform="translate(183.305 246.749)"><path class="h" d="M375.464,374.668c4.875,6.967-2.754,14.6-9.724,9.724a2.478,2.478,0,0,1-.6-.6c-4.862-6.966,2.759-14.586,9.723-9.722A2.462,2.462,0,0,1,375.464,374.668Z" transform="translate(-363.605 -372.531)"/></g><g transform="translate(8.087 15.174)"><path class="b" d="M3.272,0H360.563a3.273,3.273,0,0,1,3.273,3.273V212.541a3.273,3.273,0,0,1-3.273,3.273H3.272A3.272,3.272,0,0,1,0,212.542V3.272A3.272,3.272,0,0,1,3.272,0Z"/><g transform="translate(0 15.813)"><rect class="i" width="363.836" height="200.002"/></g><g transform="translate(24.029 5.429)"><path class="h" d="M183.946,98.011a2.906,2.906,0,1,1-2.906-2.905A2.906,2.906,0,0,1,183.946,98.011Z" transform="translate(-178.135 -95.106)"/></g><g transform="translate(6.418 5.429)"><path class="h" d="M162.342,98.011a2.906,2.906,0,1,1-2.906-2.905A2.906,2.906,0,0,1,162.342,98.011Z" transform="translate(-156.53 -95.106)"/></g><g transform="translate(14.871 5.429)"><path class="h" d="M172.712,98.011a2.906,2.906,0,1,1-2.906-2.905A2.906,2.906,0,0,1,172.712,98.011Z" transform="translate(-166.9 -95.106)"/></g></g></g></g><g transform="translate(388.741 112.873)"><g transform="translate(0 0)"><rect class="a" width="95.814" height="160.078"/><g transform="translate(22.097 94.265)"><path class="e" d="M494.01,238.273l1.027,2.081,2.3.334-1.661,1.619.392,2.287-2.054-1.08-2.054,1.08.392-2.287-1.661-1.619,2.3-.334Z" transform="translate(-490.687 -238.273)"/><path class="e" d="M508.005,238.273l1.027,2.081,2.3.334-1.661,1.619.392,2.287-2.054-1.08-2.054,1.08.392-2.287-1.661-1.619,2.3-.334Z" transform="translate(-493.274 -238.273)"/><path class="e" d="M522,238.273l1.027,2.081,2.3.334-1.661,1.619.392,2.287L522,243.514l-2.054,1.08.392-2.287-1.661-1.619,2.3-.334Z" transform="translate(-495.861 -238.273)"/><path class="e" d="M536,238.273l1.027,2.081,2.3.334-1.661,1.619.392,2.287L536,243.514l-2.054,1.08.392-2.287-1.661-1.619,2.3-.334Z" transform="translate(-498.448 -238.273)"/><path class="e" d="M549.991,238.273l1.027,2.081,2.3.334-1.661,1.619.392,2.287-2.054-1.08-2.054,1.08.392-2.287-1.661-1.619,2.3-.334Z" transform="translate(-501.035 -238.273)"/></g><g transform="translate(11.505 112.818)"><path class="g" d="M510.185,261.244c0,.117-7.274.212-16.245.212s-16.247-.095-16.247-.212,7.273-.212,16.247-.212S510.185,261.127,510.185,261.244Z" transform="translate(-477.693 -261.032)"/><g transform="translate(0.855 7.054)"><path class="d" d="M551.207,269.9c0,.117-16.223.212-36.231.212s-36.235-.095-36.235-.212,16.22-.213,36.235-.213S551.207,269.78,551.207,269.9Z" transform="translate(-478.742 -269.685)"/></g><g transform="translate(0.855 13.115)"><path class="d" d="M551.207,277.333c0,.117-16.223.213-36.231.213s-36.235-.1-36.235-.213,16.22-.212,36.235-.212S551.207,277.216,551.207,277.333Z" transform="translate(-478.742 -277.121)"/></g><g transform="translate(0.855 19.176)"><path class="d" d="M551.207,284.769c0,.117-16.223.212-36.231.212s-36.235-.095-36.235-.212,16.22-.213,36.235-.213S551.207,284.651,551.207,284.769Z" transform="translate(-478.742 -284.556)"/></g><g transform="translate(0.855 25.237)"><path class="d" d="M551.207,292.2c0,.117-16.223.213-36.231.213s-36.235-.1-36.235-.213,16.22-.212,36.235-.212S551.207,292.087,551.207,292.2Z" transform="translate(-478.742 -291.992)"/></g><g transform="translate(0.855 31.298)"><path class="d" d="M551.207,299.64c0,.117-16.223.212-36.231.212s-36.235-.1-36.235-.212,16.22-.213,36.235-.213S551.207,299.522,551.207,299.64Z" transform="translate(-478.742 -299.427)"/></g></g><g transform="translate(6.305 8.128)"><rect class="b" width="82.535" height="79.236"/><g transform="translate(1.579 6.929)"><path class="j" d="M555.124,212.861l5.369,13.814h-13l-2.93-7.523Z" transform="translate(-486.433 -154.367)"/><g transform="translate(11.199 34.518)"><g transform="translate(0 0.484)"><path class="e" d="M495.012,221.348H530.2c.552-5.2.887-10.11.887-10.11l1.81,4.91,14.779-7.389s-5.373-14.326-9.869-19.177c-5.683-6.131-15.905-5.521-15.905-5.521l-13.267.215a30.912,30.912,0,0,0-9.825,2.857l-.327.1,0,.068c-2.873,2.46-11.495,14-11.495,14l3.181,3.1,6.516,6.069a.18.18,0,0,0-.013.118C496.783,211.22,495.012,221.348,495.012,221.348Z" transform="translate(-486.99 -184.042)"/></g><g transform="translate(21.174)"><path class="d" d="M527.08,183.449c.015,0,.039.078.073.236a4.582,4.582,0,0,1,.091.7,6.911,6.911,0,0,1-.361,2.576,7.34,7.34,0,0,1-2.155,3.2,7.279,7.279,0,0,1-8.925.249,7.336,7.336,0,0,1-2.332-3.079,6.939,6.939,0,0,1-.5-2.551,4.594,4.594,0,0,1,.053-.705c.024-.16.044-.242.059-.24a9.016,9.016,0,0,0,.67,3.38,7.256,7.256,0,0,0,2.289,2.882,7.016,7.016,0,0,0,8.439-.236,7.257,7.257,0,0,0,2.124-3.005A9.034,9.034,0,0,0,527.08,183.449Z" transform="translate(-512.965 -183.449)"/></g><g transform="translate(42.79 3.123)"><path class="d" d="M544.551,187.306c0,.042-.355.033-.939.242a4.58,4.58,0,0,0-2.049,1.551,7.412,7.412,0,0,0-1.332,3.592c-.192,1.459-.237,3.107-.3,4.822-.092,3.437.04,6.549.2,8.8.081,1.055.148,1.946.2,2.663a4.4,4.4,0,0,1,.039.982,4.411,4.411,0,0,1-.2-.963c-.1-.625-.226-1.532-.338-2.657a69.957,69.957,0,0,1-.322-8.835,46.155,46.155,0,0,1,.336-4.867,7.492,7.492,0,0,1,1.485-3.722,4.478,4.478,0,0,1,2.234-1.521,2.987,2.987,0,0,1,.731-.111C544.463,187.283,544.55,187.291,544.551,187.306Z" transform="translate(-539.483 -187.28)"/></g><g transform="translate(9.75 1.661)"><path class="d" d="M505.52,185.487a4.8,4.8,0,0,1-.248,1l-.8,2.679c-.678,2.261-1.586,5.392-2.493,8.876s-1.635,6.663-2.144,8.968c-.24,1.087-.443,2-.6,2.73a4.863,4.863,0,0,1-.27.993,4.78,4.78,0,0,1,.108-1.024c.095-.655.255-1.6.473-2.759.434-2.325,1.12-5.521,2.027-9.015s1.865-6.618,2.617-8.86c.376-1.121.695-2.023.93-2.641A4.762,4.762,0,0,1,505.52,185.487Z" transform="translate(-498.951 -185.487)"/></g><path class="k" d="M539.706,200.972l4.858,17.33-1.952.975-1.81-4.91S539.043,204.094,539.706,200.972Z" transform="translate(-496.706 -186.688)"/><g class="l" transform="translate(16.219 0.633)"><path d="M507.549,185.275c-2.826,1.433,4.117,5.152,7.285,5.118l-2.181-6.168A31.668,31.668,0,0,0,507.549,185.275Z" transform="translate(-506.887 -184.225)"/></g></g><g transform="translate(21.937)"><g transform="translate(4.36 4.653)"><path class="j" d="M519.239,184.661h0a7.028,7.028,0,0,1-7.495-7.27c.084-2.265.161-4.11.161-4.11s-5.6-.487-6.043-6.023-.341-18.325-.341-18.325h0a19.3,19.3,0,0,1,19.513,1.126l.864.577-.107,27.043A7.027,7.027,0,0,1,519.239,184.661Z" transform="translate(-505.512 -146.811)"/><g transform="translate(0.544 9.37)"><g transform="translate(1.087 1.168)"><path class="d" d="M508.9,161.1a.807.807,0,1,0-1.14.021A.806.806,0,0,0,508.9,161.1Z" transform="translate(-507.512 -159.738)"/></g><path class="d" d="M506.192,159.193c.094.09.61-.366,1.372-.421s1.343.3,1.422.2c.038-.046-.06-.213-.314-.381a1.886,1.886,0,0,0-2.229.178C506.218,158.972,506.147,159.153,506.192,159.193Z" transform="translate(-506.179 -158.306)"/></g><g transform="translate(8.621 9.388)"><g transform="translate(1.016 1.149)"><path class="d" d="M517.672,159.887a.807.807,0,1,0,1.125.189A.807.807,0,0,0,517.672,159.887Z" transform="translate(-517.334 -159.737)"/></g><path class="d" d="M516.1,159.215c.093.09.609-.365,1.372-.421s1.343.3,1.421.2c.038-.046-.059-.214-.314-.381a1.885,1.885,0,0,0-2.229.177C516.125,158.995,516.055,159.175,516.1,159.215Z" transform="translate(-516.087 -158.328)"/></g><g transform="translate(4.177 10.334)"><path class="d" d="M512.658,166.154a3.709,3.709,0,0,0-1.252-.179c-.2-.008-.36-.043-.382-.149a1.087,1.087,0,0,1,.1-.581l.5-1.591a21.277,21.277,0,0,0,1.031-4.165,21.283,21.283,0,0,0-1.448,4.039l-.466,1.6a1.274,1.274,0,0,0-.053.837.524.524,0,0,0,.365.3,1.313,1.313,0,0,0,.344.022A3.732,3.732,0,0,0,512.658,166.154Z" transform="translate(-510.636 -159.488)"/></g><g transform="translate(6.379 23.85)"><path class="m" d="M513.337,178.61a12.916,12.916,0,0,0,7.085-2.541s-1.438,4.1-7,3.977Z" transform="translate(-513.337 -176.069)"/></g><g transform="translate(19.397 9.687)"><path class="j" d="M530.049,158.732c.11-.042,4.534-.524,3.837,3.754-.6,3.7-4.58,2.569-4.579,2.445S530.049,158.732,530.049,158.732Z" transform="translate(-529.307 -158.695)"/><g transform="translate(1.546 1.753)"><path class="m" d="M531.208,163.7c.017-.011.06.05.165.108a.644.644,0,0,0,.478.045,1.586,1.586,0,0,0,.837-1.365,2.122,2.122,0,0,0-.111-.929.742.742,0,0,0-.445-.527.327.327,0,0,0-.39.148c-.057.1-.039.174-.06.179s-.074-.068-.033-.217a.411.411,0,0,1,.161-.219.487.487,0,0,1,.361-.068.9.9,0,0,1,.626.619,2.182,2.182,0,0,1,.146,1.04,1.667,1.667,0,0,1-1.051,1.516.686.686,0,0,1-.578-.141C531.208,163.79,531.2,163.706,531.208,163.7Z" transform="translate(-531.204 -160.846)"/></g></g></g><path class="d" d="M523.738,159.325a1.894,1.894,0,0,1-2.467-1.021,7.2,7.2,0,0,1-.43-2.947,15.26,15.26,0,0,0-.7-4.013,2.807,2.807,0,0,0-4.31-2.047,6.885,6.885,0,0,1-2.882.711c-1.314-.115-2.4-1.149-3.706-1.329a8.942,8.942,0,0,0-3.553.754,5.386,5.386,0,0,1-3.6-.081,3.071,3.071,0,0,1-1.919-2.866,2.172,2.172,0,0,1,2.534-1.978,1.769,1.769,0,0,1-.3-2.67,2.81,2.81,0,0,1,2.886-.576,7.371,7.371,0,0,1,2.58,1.691,2.065,2.065,0,0,1,1.972-1.663,4.308,4.308,0,0,1,2.608.887c.775.523,1.477,1.157,2.3,1.607,1.636.9,3.574,1,5.411,1.337s3.792,1.075,4.685,2.716c.787,1.446.258,3.182.191,4.827-.07,1.711-.068,2.094-.152,3.7C524.884,156.367,524.992,158.6,523.738,159.325Z" transform="translate(-500.163 -141.103)"/><g transform="translate(9.867 21.769)"><path class="i" d="M512.267,169.928c-.007.05.209.141.583.135a2.4,2.4,0,0,0,2.2-1.657c.109-.357.081-.591.032-.6-.109-.03-.3.851-1.111,1.455A5.607,5.607,0,0,1,512.267,169.928Z" transform="translate(-512.267 -167.808)"/></g><g transform="translate(3.166 4.54)"><path class="h" d="M504.38,146.674a.773.773,0,0,0-.332.768,1.414,1.414,0,0,0,.456.906,1.579,1.579,0,0,0,1.3.311,4.253,4.253,0,0,0,1.514-.61,6.575,6.575,0,0,1,1.643-.809,2.769,2.769,0,0,1,1.933.3c.631.311,1.222.755,1.87,1.153a3.608,3.608,0,0,0,2.108.68,3.449,3.449,0,0,0,1.867-.88,4.714,4.714,0,0,1,1.567-.924,2.691,2.691,0,0,1,1.555.1,2.992,2.992,0,0,1,1.68,1.5,3.681,3.681,0,0,1,.24.816,1.955,1.955,0,0,0-.183-.841,3.009,3.009,0,0,0-1.7-1.579,2.791,2.791,0,0,0-1.628-.118,4.81,4.81,0,0,0-1.622.935,3.319,3.319,0,0,1-1.788.842,3.473,3.473,0,0,1-2.015-.66c-.638-.391-1.234-.837-1.883-1.157a2.914,2.914,0,0,0-2.038-.3,6.592,6.592,0,0,0-1.674.838,4.177,4.177,0,0,1-1.463.611,1.488,1.488,0,0,1-1.223-.267,1.368,1.368,0,0,1-.454-.845A.885.885,0,0,1,504.38,146.674Z" transform="translate(-504.046 -146.673)"/></g><g transform="translate(4.711 1.412)"><path class="h" d="M507.188,143.047a.4.4,0,0,0-.161-.142.716.716,0,0,0-.61-.006.762.762,0,0,0-.469.815,1.194,1.194,0,0,0,.809.972,2.416,2.416,0,0,0,1.558-.067,8.811,8.811,0,0,1,1.683-.508,2.1,2.1,0,0,1,1.709.668,6.968,6.968,0,0,0,1.643,1.343,2.7,2.7,0,0,0,2.106-.126,7.877,7.877,0,0,1,1.853-.582,4.59,4.59,0,0,1,3.13.7,4.72,4.72,0,0,1,1.5,1.612c.258.459.337.745.354.739a3.091,3.091,0,0,0-.3-.768,4.615,4.615,0,0,0-1.488-1.676,4.661,4.661,0,0,0-3.213-.756,7.865,7.865,0,0,0-1.888.581,2.555,2.555,0,0,1-1.987.126,6.965,6.965,0,0,1-1.6-1.313,2.247,2.247,0,0,0-1.83-.7,8.7,8.7,0,0,0-1.708.527,2.316,2.316,0,0,1-1.48.087,1.1,1.1,0,0,1-.758-.877.723.723,0,0,1,.976-.77A1.22,1.22,0,0,1,507.188,143.047Z" transform="translate(-505.941 -142.835)"/></g><g transform="translate(22.3 4.205)"><path class="d" d="M527.546,148.012c.108.04.4-.624,1.124-1.063.708-.461,1.434-.439,1.444-.553.007-.05-.175-.131-.491-.135a2.281,2.281,0,0,0-1.987,1.249C527.5,147.8,527.5,148,527.546,148.012Z" transform="translate(-527.519 -146.262)"/></g><g transform="translate(22.488 1.856)"><path class="d" d="M528.238,143.382c-.113.029.049.866-.086,1.879s-.487,1.785-.385,1.842a3.479,3.479,0,0,0,.471-3.721Z" transform="translate(-527.749 -143.38)"/></g><g transform="translate(20.899 7.757)"><path class="h" d="M529.178,159.575a1.917,1.917,0,0,0,.231-1.577,3.6,3.6,0,0,0-.882-1.517,1.891,1.891,0,0,1-.428-.882,2.812,2.812,0,0,1,.127-1.062,4.189,4.189,0,0,0,.124-2.148,2.311,2.311,0,0,0-.985-1.448,1.867,1.867,0,0,0-1.142-.318,1.088,1.088,0,0,0-.422.107c0,.015.152-.04.425-.045a1.886,1.886,0,0,1,1.078.35,2.228,2.228,0,0,1,.9,1.387,4.139,4.139,0,0,1-.135,2.075,2.9,2.9,0,0,0-.127,1.123,2.008,2.008,0,0,0,.466.95,3.6,3.6,0,0,1,.888,1.451,2.6,2.6,0,0,1,.013,1.147A3.036,3.036,0,0,1,529.178,159.575Z" transform="translate(-525.8 -150.619)"/></g></g><g transform="translate(41.988 55.975)"><path class="d" d="M524.938,209.96a3.368,3.368,0,0,1,.039.524c.012.387.028.852.046,1.409.033,1.2.073,2.9.091,4.943l-.055-.128,2.517,2.343-.212-.04,4.321-1.747-.13.16c.024-.129.049-.268.074-.408.474-2.569.92-4.986,1.307-7.089l.184.221c-2.4-.018-4.421-.06-5.863-.095l-1.689-.05a4.316,4.316,0,0,1-.63-.043,2.446,2.446,0,0,1,.552-.043l1.647-.05c1.429-.035,3.5-.077,5.983-.095l.224,0-.04.223c-.372,2.106-.8,4.527-1.258,7.1l-.073.408-.021.117-.109.043-4.329,1.724-.12.047-.092-.088-2.485-2.377-.056-.054v-.075c.019-2.12.059-3.862.091-5.055.018-.54.033-.992.046-1.368A1.8,1.8,0,0,1,524.938,209.96Z" transform="translate(-524.76 -209.771)"/><g transform="translate(0.166 2.207)"><path class="d" d="M532.667,212.583a24.1,24.1,0,0,1-7.7.028,64.6,64.6,0,0,1,7.7-.028Z" transform="translate(-524.964 -212.479)"/></g></g><path class="j" d="M486.306,207.393c.174.17-13.055,18.271-13.055,18.271h12.955l7.941-10.888Z" transform="translate(-473.251 -153.356)"/></g></g></g></g><g transform="translate(246.868 83.098)"><rect class="a" width="136.571" height="228.171"/><g transform="translate(31.497 134.363)"><path class="e" d="M332.911,250.936l1.464,2.965,3.273.475-2.368,2.308.559,3.259-2.927-1.539-2.927,1.539.559-3.259-2.368-2.308,3.273-.475Z" transform="translate(-328.175 -250.936)"/><path class="e" d="M352.859,250.936l1.464,2.965,3.273.475-2.368,2.308.559,3.259-2.927-1.539-2.927,1.539.559-3.259-2.368-2.308,3.273-.475Z" transform="translate(-331.862 -250.936)"/><path class="e" d="M372.808,250.936l1.464,2.965,3.273.475-2.368,2.308.559,3.259-2.927-1.539-2.927,1.539.559-3.259-2.368-2.308,3.273-.475Z" transform="translate(-335.549 -250.936)"/><path class="e" d="M392.756,250.936l1.464,2.965,3.273.475-2.368,2.308.559,3.259-2.927-1.539-2.927,1.539.559-3.259-2.368-2.308,3.273-.475Z" transform="translate(-339.236 -250.936)"/><path class="e" d="M412.7,250.936l1.464,2.965,3.273.475-2.368,2.308.559,3.259-2.927-1.539-2.927,1.539.559-3.259-2.368-2.308,3.273-.475Z" transform="translate(-342.924 -250.936)"/></g><g transform="translate(16.399 160.896)"><path class="n" d="M355.966,283.7c0,.117-10.369.212-23.155.212s-23.158-.1-23.158-.212,10.366-.213,23.158-.213S355.966,283.581,355.966,283.7Z" transform="translate(-309.653 -283.486)"/><g transform="translate(1.219 10.055)"><path class="d" d="M414.439,296.033c0,.117-23.125.213-51.643.213s-51.648-.1-51.648-.213,23.12-.212,51.648-.212S414.439,295.916,414.439,296.033Z" transform="translate(-311.148 -295.821)"/></g><g transform="translate(1.219 18.694)"><path class="d" d="M414.439,306.632c0,.117-23.125.212-51.643.212s-51.648-.095-51.648-.212,23.12-.213,51.648-.213S414.439,306.514,414.439,306.632Z" transform="translate(-311.148 -306.419)"/></g><g transform="translate(1.219 27.334)"><path class="d" d="M414.439,317.23c0,.117-23.125.212-51.643.212s-51.648-.095-51.648-.212,23.12-.212,51.648-.212S414.439,317.113,414.439,317.23Z" transform="translate(-311.148 -317.018)"/></g><g transform="translate(1.219 35.973)"><path class="d" d="M414.439,327.828c0,.117-23.125.213-51.643.213s-51.648-.1-51.648-.213,23.12-.212,51.648-.212S414.439,327.711,414.439,327.828Z" transform="translate(-311.148 -327.616)"/></g><g transform="translate(1.219 44.612)"><path class="d" d="M414.439,338.427c0,.117-23.125.212-51.643.212s-51.648-.1-51.648-.212,23.12-.213,51.648-.213S414.439,338.309,414.439,338.427Z" transform="translate(-311.148 -338.214)"/></g></g><g transform="translate(8.987 11.585)"><rect class="b" width="117.642" height="112.941"/><g transform="translate(24.059 9.083)"><path class="d" d="M363.593,121.094a12.6,12.6,0,0,1,9.2-8.225c4.19-1,9.391-2.372,13.228-.413,2.4,1.224,4.7,3,5.639,5.518,1.116,2.99-.6,8.569-1.458,11.644s-1.5,6.581.192,9.286c1.649,2.633,5.006,3.655,7.09,5.959a8.3,8.3,0,0,1-.864,11.522c3.7-.217,6.835,3.562,6.706,7.272s-2.845,6.965-6.154,8.646-7.129,2.032-10.842,2.038a65.749,65.749,0,0,1-13.7-1.42c-3.712-.784-7.582-2.035-10-4.96-2.219-2.688-2.833-6.361-2.839-9.846-.024-12.335,6.451-24.562,3.645-36.573" transform="translate(-335.568 -111.461)"/><path class="d" d="M361.1,119.325a12.2,12.2,0,0,0-19.039,11.538c.3,2.421,1.319,4.862.7,7.222-1.165,4.42-7.4,6.146-8.221,10.643-.324,1.773.306,3.561.782,5.3s.777,3.7-.121,5.262c-.664,1.158-1.868,1.882-2.813,2.825-3.039,3.033-2.983,8.356-.439,11.815s7.044,5.118,11.335,4.98a25.023,25.023,0,0,0,12.052-4.116" transform="translate(-330.075 -112.526)"/><g transform="translate(22.019 9.721)"><path class="j" d="M357.087,125.417l.058,2.933.589,43.913c.068,5.1,4.506,9.1,9.965,8.984h0c5.512-.117,9.99-4.383,10.005-9.533.016-5.407.133-11.1.133-11.1s6.965-1.156,8.408-10.243c.718-4.519.491-11.928.109-17.985a9.6,9.6,0,0,0-10.584-8.946Z" transform="translate(-357.087 -123.387)"/><g transform="translate(23.053 11.629)"><g transform="translate(0.391 1.476)"><path class="d" d="M388.172,140.517a1.164,1.164,0,0,1-1.123,1.175,1.114,1.114,0,0,1-1.2-1.05,1.167,1.167,0,0,1,1.122-1.177A1.115,1.115,0,0,1,388.172,140.517Z" transform="translate(-385.846 -139.464)"/></g><path class="d" d="M389.973,138.877c-.144.152-1.027-.5-2.282-.5-1.252-.015-2.172.631-2.309.477-.067-.068.08-.342.481-.633a3.194,3.194,0,0,1,1.849-.57,3.068,3.068,0,0,1,1.815.586C389.913,138.535,390.044,138.81,389.973,138.877Z" transform="translate(-385.367 -137.653)"/></g><g transform="translate(10.725 11.863)"><g transform="translate(0.638 1.242)"><path class="d" d="M373.354,140.517a1.166,1.166,0,0,1-1.124,1.175,1.114,1.114,0,0,1-1.2-1.05,1.167,1.167,0,0,1,1.123-1.177A1.116,1.116,0,0,1,373.354,140.517Z" transform="translate(-371.027 -139.464)"/></g><path class="d" d="M374.85,139.164c-.144.152-1.029-.5-2.282-.5-1.252-.015-2.173.63-2.309.476-.066-.068.079-.342.482-.633a3.193,3.193,0,0,1,1.848-.57,3.069,3.069,0,0,1,1.816.586C374.79,138.822,374.921,139.1,374.85,139.164Z" transform="translate(-370.244 -137.94)"/></g><g transform="translate(19.296 11.939)"><path class="d" d="M381.345,148.482a8.354,8.354,0,0,1,2.037-.367c.32-.033.624-.1.677-.315a1.628,1.628,0,0,0-.214-.949q-.452-1.163-.947-2.439a41.957,41.957,0,0,1-2.127-6.378,42.036,42.036,0,0,1,2.635,6.192l.907,2.453a1.855,1.855,0,0,1,.165,1.257.8.8,0,0,1-.527.468,2.174,2.174,0,0,1-.544.076A8.119,8.119,0,0,1,381.345,148.482Z" transform="translate(-380.758 -138.033)"/></g><g transform="translate(8.58 33.982)"><path class="m" d="M379.782,168.32a23.114,23.114,0,0,1-12.17-3.246s2.953,6.242,12.047,5.391Z" transform="translate(-367.612 -165.074)"/></g><g transform="translate(15.612 24.559)"><path class="m" d="M379.98,154.366a2.258,2.258,0,0,0-2.026-.839,2.059,2.059,0,0,0-1.425.764,1.309,1.309,0,0,0-.1,1.5,1.519,1.519,0,0,0,1.644.416,4.739,4.739,0,0,0,1.6-.957,1.384,1.384,0,0,0,.359-.371.419.419,0,0,0,0-.467" transform="translate(-376.239 -153.514)"/></g><g transform="translate(15.989 23.256)"><path class="d" d="M376.9,151.916c.2-.012.206,1.349,1.372,2.315s2.614.817,2.625,1.007c.019.086-.324.265-.936.281a3.393,3.393,0,0,1-2.191-.764,2.949,2.949,0,0,1-1.063-1.941C376.659,152.245,376.812,151.908,376.9,151.916Z" transform="translate(-376.701 -151.916)"/></g></g><g transform="translate(29.388 7.352)"><path class="d" d="M366.151,120.623c.047-.107.148-.166.226-.133a.191.191,0,0,1,.054.256c-.047.108-.148.167-.225.133A.191.191,0,0,1,366.151,120.623Z" transform="translate(-366.127 -120.481)"/></g><path class="d" d="M355.849,167.9a9.9,9.9,0,0,0,5.8-5.869,13.432,13.432,0,0,0,.194-8.374c-.36-1.265-.868-2.648-.311-3.84a7.254,7.254,0,0,1,1.982-2.034,8.472,8.472,0,0,0,2.579-5.73,14.707,14.707,0,0,0-1.153-6.285c-.431-1.1-.953-2.305-.555-3.418a5.306,5.306,0,0,1,1.579-1.914,14.91,14.91,0,0,0,3.156-4.225,4.212,4.212,0,0,0,.431-3.6c-.654-1.364-2.374-1.791-3.882-1.906-3.6-.274-7.575.52-9.864,3.308-2.053,2.5-2.288,5.98-2.434,9.211-.457,10.18-.909,20.456.851,30.493" transform="translate(-334.305 -113.161)"/><g transform="translate(32.639 6.737)"><path class="d" d="M392.206,123.728a14.374,14.374,0,0,1-1.554.844,10.016,10.016,0,0,0-1.312,1.142c-.234.224-.489.476-.715.737-.06.066-.1.13-.167.2l-.256.258-.631.6a15.644,15.644,0,0,1-1.947,1.534,10.3,10.3,0,0,1-3.379,1.476,10.506,10.506,0,0,1-6.893-.841,10.693,10.693,0,0,1-3.782-3.036c-1.548-2.061-1.786-3.729-1.075-4.637.732-.934,2.5-.778,4.512-.285a26.63,26.63,0,0,0,2.973.589,7.037,7.037,0,0,0,2.364-.064,5.339,5.339,0,0,0,1.1-.393c.506-.225,1.145-.565,1.877-.911.365-.173.754-.347,1.17-.509.2-.081.421-.157.632-.229.23-.075.484-.161.721-.218a7.993,7.993,0,0,1,2.722-.223,4.925,4.925,0,0,1,3.719,1.939A1.487,1.487,0,0,1,392.206,123.728Z" transform="translate(-370.114 -119.726)"/></g><g transform="translate(7.133 8.667)"><path class="h" d="M340.5,174.428c-.006,0-.05-.038-.132-.129a3.766,3.766,0,0,1-.343-.42,5.969,5.969,0,0,1-.918-1.871,7.088,7.088,0,0,1-.162-3.293,6.585,6.585,0,0,1,2.2-3.751c1.21-1.106,2.8-1.934,4.264-3.092a8.251,8.251,0,0,0,1.917-2.115,4.224,4.224,0,0,0,.612-2.853c-.275-2.049-1.969-3.852-2.115-6.314a6.45,6.45,0,0,1,3.5-6.063,16.319,16.319,0,0,0,3.108-1.775,3.7,3.7,0,0,0,1.239-2.99,8.094,8.094,0,0,0-.836-3.193c-.471-.99-1.046-1.922-1.53-2.88a9.411,9.411,0,0,1-1.03-2.986,5.958,5.958,0,0,1,.368-2.969,8.376,8.376,0,0,1,3.452-3.993,11.285,11.285,0,0,1,4.126-1.436,19.325,19.325,0,0,1,3.287-.211c.9.015,1.6.062,2.074.1l.537.054a.591.591,0,0,1,.182.033,4.989,4.989,0,0,1-.724,0c-.473-.013-1.171-.034-2.069-.024a20.311,20.311,0,0,0-3.247.281A11.169,11.169,0,0,0,354.259,124a8.1,8.1,0,0,0-3.281,3.864,5.609,5.609,0,0,0-.328,2.793,9.1,9.1,0,0,0,1.009,2.858c.481.939,1.057,1.866,1.549,2.886a8.469,8.469,0,0,1,.884,3.357,4.123,4.123,0,0,1-1.375,3.315,16.391,16.391,0,0,1-3.186,1.832,6.037,6.037,0,0,0-3.291,5.669c.1,2.268,1.771,4.068,2.086,6.281a4.6,4.6,0,0,1-.679,3.1,8.607,8.607,0,0,1-2.017,2.2c-1.517,1.179-3.1,1.979-4.285,3.041a6.362,6.362,0,0,0-2.167,3.573,7.04,7.04,0,0,0,.088,3.2A7.531,7.531,0,0,0,340.5,174.428Z" transform="translate(-338.825 -122.093)"/></g><g transform="translate(52.651 31.096)"><path class="h" d="M401.523,177.769a1.675,1.675,0,0,0,.783-.995,2.277,2.277,0,0,0-.1-1.474,3.61,3.61,0,0,0-1.352-1.451c-.625-.43-1.4-.773-2.171-1.3a3.421,3.421,0,0,1-1.646-2.461,4.865,4.865,0,0,1,1.029-3.115c.658-.939,1.5-1.731,2.154-2.682a4.2,4.2,0,0,0,.829-3.094,6.6,6.6,0,0,0-1.247-2.817c-1.168-1.638-2.626-2.819-3.552-4.089a7.042,7.042,0,0,1-1.557-3.332,3.928,3.928,0,0,1,.006-1.008,1.071,1.071,0,0,1,.081-.341,10.685,10.685,0,0,0,.076,1.325,7.26,7.26,0,0,0,1.63,3.172c.928,1.215,2.4,2.361,3.633,4.046a6.908,6.908,0,0,1,1.341,2.985,4.42,4.42,0,0,1-.1,1.767,5.359,5.359,0,0,1-.792,1.626c-.686,1-1.541,1.795-2.163,2.679a4.515,4.515,0,0,0-.981,2.841,3.072,3.072,0,0,0,1.46,2.21c.721.518,1.5.881,2.137,1.343a3.784,3.784,0,0,1,1.4,1.609,2.4,2.4,0,0,1,.039,1.613,1.535,1.535,0,0,1-.611.813A.719.719,0,0,1,401.523,177.769Z" transform="translate(-394.664 -149.608)"/></g><g transform="translate(33.136 5.673)"><path class="h" d="M392.932,119.775c.015,0,.025.1.03.284a4.256,4.256,0,0,1-.081.812,5.249,5.249,0,0,1-1.411,2.637A5.137,5.137,0,0,1,387.33,125a5.279,5.279,0,0,1-2.522-.876,10.733,10.733,0,0,1-2.021-1.986,10.084,10.084,0,0,0-1.968-1.887,8.3,8.3,0,0,0-2.265-1.113,8.022,8.022,0,0,0-4.248-.154,8.709,8.709,0,0,0-2.68,1.128c-.584.375-.877.63-.9.6a3.353,3.353,0,0,1,.807-.739,8.016,8.016,0,0,1,2.7-1.283,8.119,8.119,0,0,1,4.434.071,8.521,8.521,0,0,1,2.389,1.145,10.3,10.3,0,0,1,2.052,1.952,10.644,10.644,0,0,0,1.934,1.919,4.937,4.937,0,0,0,2.323.83,4.875,4.875,0,0,0,3.893-1.318,5.369,5.369,0,0,0,1.461-2.461C392.9,120.166,392.892,119.773,392.932,119.775Z" transform="translate(-370.724 -118.421)"/></g><g transform="translate(31.952 16.955)"><path class="d" d="M375,133.2c-.124.341-1.376.179-2.847.356-1.475.148-2.661.579-2.856.273-.087-.147.12-.467.6-.8a4.986,4.986,0,0,1,4.346-.48C374.776,132.77,375.048,133.039,375,133.2Z" transform="translate(-369.272 -132.26)"/></g><g transform="translate(44.947 17.647)"><path class="d" d="M389.484,134.408c-.221.285-1.085-.011-2.124-.024-1.039-.051-1.919.191-2.121-.107-.089-.144.05-.43.434-.7a3.072,3.072,0,0,1,3.42.106C389.46,133.976,389.581,134.27,389.484,134.408Z" transform="translate(-385.213 -133.109)"/></g></g><g transform="translate(12.285 61.473)"><g transform="translate(0 2.581)"><path class="g" d="M341.124,228.15c.437.756-2.785-10.087-2.785-10.087l-2.7,9.911-20.011.149s11.31-36.964,16.68-42.124c7.01-6.734,20.15-7.1,20.15-7.1l7.864,6.711,12.427-6.383s.157.015.449.05a24.878,24.878,0,0,1,19.22,13.6l13.474,34.914H388.1l-3.794-10.3,1.266,10.3" transform="translate(-315.631 -178.896)"/></g><path class="o" d="M352.962,179.673l18.027,41.013,9.112-41.44s-2.525-.147-6.134-.282c-2-.075-4.327,7.821-6.742,7.779-1.545-.027-3.123-8.007-4.675-8-1.964.007-3.883.044-5.627.127C355.449,178.936,354.108,179.563,352.962,179.673Z" transform="translate(-322.531 -176.286)"/><path class="o" d="M357.158,179.5V175.73s10.748.143,10.931,8.744c0,0,1.525-8.475,10.2-8.744l.556,2.884L376.4,188.5l-6.258,4.168H361.7l-3.491-4.591Z" transform="translate(-323.307 -175.73)"/><g transform="translate(48.336 3.513)"><path class="d" d="M374.93,222.02a2.01,2.01,0,0,1,.108-.46,7.376,7.376,0,0,1,.518-1.254,8.277,8.277,0,0,1,1.274-1.733c.568-.616,1.252-1.27,1.949-2.046a30.145,30.145,0,0,0,4.481-5.775,9.622,9.622,0,0,0,1.153-4.082,6.4,6.4,0,0,0-1.247-4.271l-.289-.369.472.025a2.553,2.553,0,0,0,.548-.024,3.119,3.119,0,0,0,1.879-1.194,4.216,4.216,0,0,0,.858-2.057,14.392,14.392,0,0,0-.332-4.374c-.465-2.8-.886-5.325-1.242-7.469-.332-2.087-.6-3.795-.8-5.041-.08-.56-.145-1.015-.2-1.374a2.1,2.1,0,0,1-.04-.484,2.068,2.068,0,0,1,.125.47l.275,1.361c.232,1.241.548,2.941.934,5.018.382,2.139.833,4.662,1.333,7.454a14.516,14.516,0,0,1,.357,4.5,4.628,4.628,0,0,1-.937,2.258,3.529,3.529,0,0,1-2.143,1.352,3.02,3.02,0,0,1-.649.027l.183-.343a6.787,6.787,0,0,1,1.328,4.553,9.944,9.944,0,0,1-1.224,4.245A29.205,29.205,0,0,1,379,216.728c-.719.772-1.422,1.414-2,2.006a8.571,8.571,0,0,0-1.3,1.652C375.126,221.395,374.975,222.037,374.93,222.02Z" transform="translate(-374.928 -180.04)"/></g><g transform="translate(28.776 3.362)"><path class="d" d="M370.493,221.632a2.231,2.231,0,0,1-.337-.371l-.913-1.1c-.8-.954-1.984-2.3-3.476-3.955s-3.284-3.61-5.077-5.959a20.416,20.416,0,0,1-2.517-3.912,6.494,6.494,0,0,1-.3-4.981,4.98,4.98,0,0,1,.314-.633l.112.31a9.6,9.6,0,0,1-4.017-2.794,12.873,12.873,0,0,1-2.313-3.913,18.422,18.422,0,0,1-1-7.549,43.454,43.454,0,0,1,.612-5.083c.1-.556.188-1.008.254-1.364a2.117,2.117,0,0,1,.118-.47,2.094,2.094,0,0,1-.035.483c-.046.359-.1.814-.176,1.375-.149,1.193-.4,2.923-.477,5.071a18.543,18.543,0,0,0,1.065,7.4,12.616,12.616,0,0,0,2.263,3.779,9.244,9.244,0,0,0,3.846,2.666l.24.087-.129.223a4.526,4.526,0,0,0-.284.574,6.107,6.107,0,0,0,.291,4.655A20.442,20.442,0,0,0,361,210.008c1.761,2.343,3.534,4.313,4.989,6s2.62,3.063,3.38,4.051c.377.5.667.883.853,1.154A2.2,2.2,0,0,1,370.493,221.632Z" transform="translate(-350.932 -179.854)"/></g><g transform="translate(48.002 44.412)"><path class="d" d="M374.655,237.545a31.754,31.754,0,0,1,.19-7.332,31.759,31.759,0,0,1-.19,7.332Z" transform="translate(-374.517 -230.213)"/></g><g transform="translate(16.643 10.581)"><path class="d" d="M341.6,222.32a10.3,10.3,0,0,1,.35-1.413c.236-.9.573-2.214.9-3.852a53.513,53.513,0,0,0,.98-12.963,34.158,34.158,0,0,0-.959-7.079,13.674,13.674,0,0,0-2.534-5.178,10.035,10.035,0,0,0-2.975-2.509c-.82-.434-1.323-.576-1.31-.614a1.278,1.278,0,0,1,.371.078,7.025,7.025,0,0,1,1.014.388,9.583,9.583,0,0,1,3.131,2.465,13.606,13.606,0,0,1,2.679,5.265,32.987,32.987,0,0,1,1.006,7.163,49.481,49.481,0,0,1-1.11,13.045c-.367,1.639-.751,2.943-1.036,3.837-.144.446-.271.788-.355,1.02A1.258,1.258,0,0,1,341.6,222.32Z" transform="translate(-336.048 -188.71)"/></g><g transform="translate(64.135 4.24)"><path class="d" d="M399.008,214.237a8.382,8.382,0,0,1-.06-1.362c-.007-.875-.03-2.143-.085-3.707A112.339,112.339,0,0,0,397.8,197a121.93,121.93,0,0,0-3.429-15.857l-.057-.212.168.134a5.571,5.571,0,0,1,.8.688,5.616,5.616,0,0,1-.888-.575l.11-.077a88.94,88.94,0,0,1,3.713,15.839,92.814,92.814,0,0,1,.949,12.222c.016,1.569-.007,2.839-.051,3.716A8.369,8.369,0,0,1,399.008,214.237Z" transform="translate(-394.309 -180.931)"/></g><g transform="translate(33.791 3.178)"><path class="d" d="M366.078,180.325c0,.038-.2.024-.481.214a2.994,2.994,0,0,0-.858,1.157,13.2,13.2,0,0,0-1.426,4.754l-.053.534-.326-.43-.592-.78c-1.359-1.769-2.692-3.287-3.68-4.366a17.382,17.382,0,0,1-1.577-1.777,10.621,10.621,0,0,1,1.793,1.568,42.719,42.719,0,0,1,3.8,4.315l.594.789-.379.1a12.032,12.032,0,0,1,1.6-4.849,2.808,2.808,0,0,1,1.025-1.151C365.863,180.235,366.086,180.31,366.078,180.325Z" transform="translate(-357.084 -179.629)"/></g><g transform="translate(46.724 3.06)"><path class="d" d="M381.626,179.486a14.289,14.289,0,0,1-1.441,2c-.933,1.2-2.243,2.849-3.711,4.649l-.776.948-.363.443-.01-.571a17.273,17.273,0,0,0-.2-2.8,5.8,5.8,0,0,0-.764-2.066,5.466,5.466,0,0,0-1.4-1.44c.009-.02.2.029.518.214a3.757,3.757,0,0,1,1.118,1.071,5.708,5.708,0,0,1,.9,2.148,15.69,15.69,0,0,1,.26,2.859l-.373-.127.773-.951c1.468-1.8,2.816-3.415,3.808-4.571A14.137,14.137,0,0,1,381.626,179.486Z" transform="translate(-372.95 -179.484)"/></g><g transform="translate(44.906 8.684)"><path class="d" d="M373.8,221.152a8.407,8.407,0,0,1-.2-1.358c-.1-.95-.234-2.2-.4-3.72-.315-3.142-.721-7.487-1.145-12.287s-.782-9.151-1.021-12.3c-.107-1.52-.195-2.778-.261-3.731a8.5,8.5,0,0,1-.038-1.373,8.576,8.576,0,0,1,.2,1.36c.1.95.234,2.2.4,3.72.315,3.142.721,7.486,1.145,12.288s.782,9.147,1.021,12.3c.106,1.521.194,2.779.261,3.732A8.517,8.517,0,0,1,373.8,221.152Z" transform="translate(-370.72 -186.383)"/></g><g transform="translate(47.264 16.033)"><path class="d" d="M374.351,195.5c-.038-.041.3-.242.742.05a.962.962,0,0,1,.422.772.986.986,0,0,1-1.732.566.96.96,0,0,1-.114-.873c.183-.495.576-.532.569-.478.029.058-.222.186-.28.555a.71.71,0,0,0,.133.555.625.625,0,0,0,1.033-.337.7.7,0,0,0-.22-.527C374.639,195.523,374.362,195.567,374.351,195.5Z" transform="translate(-373.612 -195.398)"/></g><g transform="translate(48.651 26.21)"><path class="d" d="M376.233,207.942c-.031-.047.354-.179.727.213a.963.963,0,0,1,.24.866.988.988,0,0,1-1.841.082.962.962,0,0,1,.161-.884c.337-.422.732-.326.705-.276.008.064-.279.1-.454.441a.7.7,0,0,0-.046.581.623.623,0,0,0,1.1-.049.7.7,0,0,0-.1-.575C376.52,208.017,376.231,208.007,376.233,207.942Z" transform="translate(-375.313 -207.883)"/></g><g class="p" transform="translate(27.65 3.87)"><path d="M351.3,180.477c-1.524,5.426-2.971,11.561-.134,16.43.855,1.466,2.056,2.714,2.859,4.21,1.378,2.568,1.465,5.615,2.318,8.4,1.724,5.629,7.869,11.107,13.693,11.967-3.008-3.665-7.663-8.429-10.434-12.582a10.3,10.3,0,0,1-1.9-3.671c-.345-1.51-.6-3.112.407-4.289-3.892-.6-6.11-4.635-6.818-8.51a28.8,28.8,0,0,1,.487-11.732" transform="translate(-349.55 -180.477)"/></g><g class="p" transform="translate(68.59 30.864)"><path d="M400.177,215.431c-.966,5.819-.314,13.452,3.253,18.15,1.312-6.39.657-14.751-3.232-19.989" transform="translate(-399.774 -213.593)"/></g></g></g></g><g transform="translate(146.06 117.49)"><rect class="a" width="95.814" height="160.078"/><g transform="translate(22.097 94.265)"><path class="e" d="M196.3,243.937l1.027,2.081,2.3.334-1.661,1.619.392,2.287-2.054-1.08-2.054,1.08.392-2.287-1.661-1.619,2.3-.334Z" transform="translate(-192.978 -243.937)"/><path class="e" d="M210.3,243.937l1.027,2.081,2.3.334-1.661,1.619.392,2.287-2.054-1.08-2.054,1.08.392-2.287-1.661-1.619,2.3-.334Z" transform="translate(-195.564 -243.937)"/><path class="e" d="M224.291,243.937l1.027,2.081,2.3.334-1.661,1.619.392,2.287-2.054-1.08-2.054,1.08.392-2.287-1.661-1.619,2.3-.334Z" transform="translate(-198.151 -243.937)"/><path class="e" d="M238.286,243.937l1.027,2.081,2.3.334-1.661,1.619.392,2.287-2.054-1.08-2.054,1.08.392-2.287-1.661-1.619,2.3-.334Z" transform="translate(-200.738 -243.937)"/><path class="e" d="M252.281,243.937l1.027,2.081,2.3.334-1.661,1.619.392,2.287-2.054-1.08-2.054,1.08.392-2.287-1.661-1.619,2.3-.334Z" transform="translate(-203.325 -243.937)"/></g><g transform="translate(11.505 112.817)"><path class="e" d="M212.475,266.908c0,.117-7.275.212-16.245.212s-16.247-.095-16.247-.212,7.273-.213,16.247-.213S212.475,266.79,212.475,266.908Z" transform="translate(-179.983 -266.695)"/><g transform="translate(0.855 7.054)"><path class="d" d="M253.5,275.562c0,.117-16.223.212-36.232.212s-36.235-.1-36.235-.212,16.22-.213,36.235-.213S253.5,275.444,253.5,275.562Z" transform="translate(-181.032 -275.349)"/></g><g transform="translate(0.855 13.116)"><path class="d" d="M253.5,283c0,.117-16.223.213-36.232.213s-36.235-.1-36.235-.213,16.22-.212,36.235-.212S253.5,282.88,253.5,283Z" transform="translate(-181.032 -282.785)"/></g><g transform="translate(0.855 19.177)"><path class="d" d="M253.5,290.432c0,.117-16.223.213-36.232.213s-36.235-.1-36.235-.213,16.22-.212,36.235-.212S253.5,290.315,253.5,290.432Z" transform="translate(-181.032 -290.22)"/></g><g transform="translate(0.855 25.238)"><path class="d" d="M253.5,297.868c0,.117-16.223.212-36.232.212s-36.235-.095-36.235-.212,16.22-.212,36.235-.212S253.5,297.751,253.5,297.868Z" transform="translate(-181.032 -297.656)"/></g><g transform="translate(0.855 31.299)"><path class="d" d="M253.5,305.3c0,.117-16.223.213-36.232.213s-36.235-.1-36.235-.213,16.22-.212,36.235-.212S253.5,305.186,253.5,305.3Z" transform="translate(-181.032 -305.091)"/></g></g><g transform="translate(6.153 8.128)"><rect class="b" width="82.535" height="79.237"/><g transform="translate(8.77 6.707)"><g transform="translate(23.708 6.486)"><path class="d" d="M230.261,185.3c.02,2.061.187,3.277.206,5.337a1.784,1.784,0,0,0,.445,1.426,1.174,1.174,0,0,0,1.232.06,3.067,3.067,0,0,0,.961-.864,17.939,17.939,0,0,0,3.957-9.88,1.205,1.205,0,0,0-.175-.893c-.323-.374-.927-.234-1.378-.033a11.2,11.2,0,0,0-5.247,4.847" transform="translate(-216.403 -159.22)"/><path class="j" d="M213.261,155.875l.041,2.058.413,30.807a6.609,6.609,0,0,0,6.991,6.3h0a6.981,6.981,0,0,0,7.019-6.688c.011-3.794.094-7.786.094-7.786s4.886-.811,5.9-7.186a68.184,68.184,0,0,0,.077-12.618,6.731,6.731,0,0,0-7.425-6.276Z" transform="translate(-213.261 -154.451)"/><g transform="translate(16.173 8.159)"><g transform="translate(0.274 1.036)"><path class="d" d="M235.07,166.47a.817.817,0,0,1-.788.825.782.782,0,0,1-.843-.737.817.817,0,0,1,.787-.825A.782.782,0,0,1,235.07,166.47Z" transform="translate(-233.438 -165.731)"/></g><path class="d" d="M236.333,165.319c-.1.107-.721-.351-1.6-.349s-1.525.443-1.621.334c-.046-.047.056-.24.337-.445a2.245,2.245,0,0,1,1.3-.4,2.151,2.151,0,0,1,1.274.412C236.292,165.079,236.383,165.272,236.333,165.319Z" transform="translate(-233.102 -164.46)"/></g><g transform="translate(7.525 8.323)"><g transform="translate(0.448 0.872)"><path class="d" d="M224.674,166.47a.818.818,0,0,1-.788.825.781.781,0,0,1-.843-.737.817.817,0,0,1,.787-.825A.782.782,0,0,1,224.674,166.47Z" transform="translate(-223.042 -165.731)"/></g><path class="d" d="M225.724,165.521c-.1.107-.721-.352-1.6-.35s-1.524.443-1.62.335c-.046-.048.055-.24.337-.445a2.244,2.244,0,0,1,1.3-.4,2.153,2.153,0,0,1,1.274.411C225.682,165.281,225.774,165.473,225.724,165.521Z" transform="translate(-222.493 -164.662)"/></g><g transform="translate(13.538 8.377)"><path class="d" d="M230.281,172.058a5.849,5.849,0,0,1,1.429-.258c.225-.024.438-.068.475-.221a1.139,1.139,0,0,0-.15-.666l-.664-1.711a29.511,29.511,0,0,1-1.493-4.474,29.316,29.316,0,0,1,1.849,4.344c.223.6.435,1.173.637,1.721a1.3,1.3,0,0,1,.117.882.564.564,0,0,1-.369.329,1.556,1.556,0,0,1-.382.053A5.771,5.771,0,0,1,230.281,172.058Z" transform="translate(-229.868 -164.727)"/></g><g transform="translate(6.02 23.841)"><path class="m" d="M229.184,185.976a16.22,16.22,0,0,1-8.538-2.278s2.071,4.38,8.452,3.783Z" transform="translate(-220.646 -183.698)"/></g><g transform="translate(10.954 17.229)"><path class="m" d="M229.323,176.185a1.585,1.585,0,0,0-1.422-.589,1.446,1.446,0,0,0-1,.536.917.917,0,0,0-.069,1.048,1.064,1.064,0,0,0,1.153.292,3.322,3.322,0,0,0,1.124-.671.966.966,0,0,0,.251-.261.293.293,0,0,0,0-.327" transform="translate(-226.698 -175.588)"/></g><g transform="translate(11.218 16.316)"><path class="d" d="M227.166,174.467c.143-.008.145.946.962,1.625s1.834.572,1.841.706c.014.06-.227.186-.656.2a2.376,2.376,0,0,1-1.537-.536,2.072,2.072,0,0,1-.745-1.362C226.994,174.7,227.1,174.461,227.166,174.467Z" transform="translate(-227.023 -174.467)"/></g><path class="d" d="M224.849,155.386a2.9,2.9,0,0,1,1.612,1.23,14.431,14.431,0,0,0,1.218,1.675,3.7,3.7,0,0,0,4.284.649c.516.5,1.193,1.031,1.869.8a1.219,1.219,0,0,0,.752-.933,2.117,2.117,0,0,0-.178-1.223,5.316,5.316,0,0,0-4.042-2.709,11.428,11.428,0,0,0-6.071.471" transform="translate(-215.3 -154.491)"/></g><g transform="translate(0 38.231)"><path class="d" d="M202.062,227.951c.307.531-1.953-7.076-1.953-7.076l-1.892,6.953-14.04.1s7.935-25.933,11.7-29.553c4.918-4.725,14.137-4.983,14.137-4.983l14.235.231s.111.011.315.035a17.453,17.453,0,0,1,13.484,9.538l9.453,24.495H235.022l-2.661-7.228.888,7.228" transform="translate(-184.177 -193.395)"/></g><g transform="translate(14.89)"><path class="q" d="M234.061,184.118c-.435-1.023-1.995-.986-2.684-1.859-.753-.952-.086-2.318.473-3.4,2.7-5.2,2.428-11.392,1.936-17.233a20.857,20.857,0,0,0-1.55-7.322,14.53,14.53,0,0,0-13.891-7.8c-5.291.206-9.314,4.979-12.179,9.431A25.611,25.611,0,0,0,202.72,172.6c.47,2.609,3.283,4.62,2.769,7.22-.324,1.638-2.04,3.6-1.7,5.24.459,2.234,3.7,3.013,5.6,4.277a42.917,42.917,0,0,1,5.292,4.632,16.634,16.634,0,0,0,5.813,3.879,7.082,7.082,0,0,0,6.685-.879c2.957-2.43,2.673-7.278,5.364-10C233.349,186.152,234.512,185.178,234.061,184.118Zm-4.175-28.188c1.087,1.637,1.175,3.744,1.429,5.692a33.833,33.833,0,0,1,.113,9.923,15.6,15.6,0,0,1-4.33,8.778,10.211,10.211,0,0,1-9.145,2.767c-3.628-.858-4.795-4.039-5.819-7.624s1.262-6.841,2.283-10.426c.787-2.761,1.083-6.659,2.865-8.909a7.1,7.1,0,0,1,5.621-2.364S227.71,152.649,229.885,155.93Z" transform="translate(-202.443 -146.495)"/><g class="p" transform="translate(1.7 32.875)"><path d="M204.529,189.884a26.614,26.614,0,0,1,5.59,4.734,14.2,14.2,0,0,0,6.075,3.985c2.372.615,5.256-.117,6.442-2.26a15.147,15.147,0,0,1-16.264-9.519" transform="translate(-204.529 -186.824)"/></g><g class="p" transform="translate(23.996 34.414)"><path d="M236.465,188.712a6.263,6.263,0,0,1-3.186,3.97,4.236,4.236,0,0,0-1.026.6,1,1,0,0,0-.312,1.075.965.965,0,0,0,1.154.422,2.82,2.82,0,0,0,1.092-.76,8.239,8.239,0,0,0,2.728-3.958" transform="translate(-231.881 -188.712)"/></g></g></g></g></g><g transform="translate(125.892 188.158)"><g transform="translate(350.904)"><circle class="b" cx="11.942" cy="11.942" r="11.942" transform="translate(0 23.237) rotate(-76.632)"/><g transform="translate(12.566 9.291)"><path class="d" d="M587.017,236.562a12.321,12.321,0,0,1,1.678-1.552c1.071-.919,2.571-2.165,4.248-3.526l-.006.325-.083-.073c-1.651-1.432-3.129-2.747-4.185-3.715a12.662,12.662,0,0,1-1.652-1.632,12.533,12.533,0,0,1,1.849,1.405c1.106.91,2.615,2.188,4.266,3.621l.084.073.191.165-.2.16c-1.678,1.36-3.208,2.569-4.328,3.428A12.315,12.315,0,0,1,587.017,236.562Z" transform="translate(-587.015 -226.387)"/></g></g><g transform="translate(0 0.013)"><circle class="b" cx="11.942" cy="11.942" r="11.942" transform="translate(0 23.246) rotate(-76.718)"/><g transform="translate(9.79 9.278)"><path class="d" d="M159.528,226.389a12.326,12.326,0,0,1-1.678,1.552c-1.071.918-2.571,2.165-4.248,3.526l.006-.325.083.073c1.651,1.433,3.129,2.747,4.185,3.715a12.64,12.64,0,0,1,1.652,1.633,12.655,12.655,0,0,1-1.849-1.406c-1.106-.909-2.616-2.188-4.266-3.62l-.084-.073-.191-.166.2-.159c1.678-1.36,3.208-2.569,4.328-3.428A12.238,12.238,0,0,1,159.528,226.389Z" transform="translate(-153.139 -226.387)"/></g></g></g><g transform="translate(221.858 74.911)"><g transform="translate(0 0)"><path class="h" d="M307.514,86.813a91.638,91.638,0,0,0,16.155,168.55h0a91.574,91.574,0,0,0,83.205-15.447l77.223,96.6,11.813-9.443-77.874-97.414a91.088,91.088,0,0,0,20.083-35.085,93.336,93.336,0,0,0,2.4-9.633,91.646,91.646,0,0,0-133-98.128ZM372.9,94.584a76.51,76.51,0,1,1-58.292,5.585A76.006,76.006,0,0,1,372.9,94.584Z" transform="translate(-258.855 -76.063)"/></g></g></g></svg>