<svg xmlns="http://www.w3.org/2000/svg" width="317.825" height="329.396" viewBox="0 0 317.825 329.396"><defs><style>.a{fill:none;}.b,.c{fill:#e0e0e0;}.c,.d,.e,.r,.s{fill-rule:evenodd;}.d,.f{fill:#ebebeb;}.e,.g{fill:#f5f5f5;}.h,.s{fill:#455a64;}.i{fill:#263238;}.j,.r{fill:#0894fe;}.k{fill:#fff;}.l{opacity:0.3;}.m{fill:#75c6fa;}.n{fill:#0a437d;}.o{fill:#e8505b;}.p{opacity:0.8;}.q{opacity:0.6;}</style></defs><g transform="translate(-37.381 -34.801)"><g transform="translate(44.018 53.52)"><g transform="translate(240.434 121.721)"><g transform="translate(0.063 0.164)"><path class="a" d="M371.92,238.691a16.2,16.2,0,0,1,1.587-4.01l-2.188-3.347,4.6-4.753,3.416,2.078a16.18,16.18,0,0,1,3.956-1.717l.82-3.912,6.615-.108.946,3.883a16.218,16.218,0,0,1,4.01,1.587l3.347-2.187,4.754,4.6-2.078,3.416a16.179,16.179,0,0,1,1.716,3.956l3.913.82.108,6.614-3.883.946a16.211,16.211,0,0,1-1.587,4.011l2.188,3.347-4.6,4.753-3.416-2.078a16.207,16.207,0,0,1-3.956,1.716l-.82,3.912-6.614.108-.946-3.883a16.224,16.224,0,0,1-4.011-1.587l-3.347,2.188-4.753-4.6,2.078-3.417a16.187,16.187,0,0,1-1.716-3.955l-3.913-.82-.108-6.614,3.884-.947Zm8.718,3.748a7.1,7.1,0,1,0,6.98-7.211A7.1,7.1,0,0,0,380.638,242.439Z" transform="translate(-368.036 -222.922)"/></g><g transform="translate(12.64 12.308)"><path class="b" d="M384.889,246.543a5.38,5.38,0,0,1,.12-1.753,7.062,7.062,0,0,1,2.505-4.04,7.146,7.146,0,0,1,3.014-1.428,7.252,7.252,0,0,1,3.822.233,7.255,7.255,0,0,1,3.431,2.47,7.233,7.233,0,0,1,.141,8.613,7.265,7.265,0,0,1-3.349,2.582,7.246,7.246,0,0,1-3.813.358,7.141,7.141,0,0,1-3.06-1.33,7.058,7.058,0,0,1-2.635-3.957,5.394,5.394,0,0,1-.177-1.748,17.055,17.055,0,0,0,.324,1.709,7.074,7.074,0,0,0,2.652,3.774,6.937,6.937,0,0,0,6.582.858,6.942,6.942,0,0,0,3.166-2.467,6.886,6.886,0,0,0-.134-8.162,6.949,6.949,0,0,0-3.244-2.363,6.942,6.942,0,0,0-6.549,1.073,7.075,7.075,0,0,0-2.528,3.859A16.96,16.96,0,0,0,384.889,246.543Z" transform="translate(-384.865 -239.17)"/></g><path class="b" d="M371.9,238.635a1.621,1.621,0,0,1-.239.073l-.732.194-2.9.74.047-.061c.037,1.693.086,3.92.144,6.614l-.078-.095,3.915.8.067.014.019.067a16.19,16.19,0,0,0,1.715,3.921l.04.066-.04.067-2.068,3.423-.022-.172,4.762,4.59-.19-.018,3.342-2.194.081-.054.085.048a16.119,16.119,0,0,0,3.972,1.564l.1.024.025.1c.3,1.2.62,2.53.951,3.881l-.171-.132,6.614-.116-.174.144.815-3.913.023-.11.108-.031a16.094,16.094,0,0,0,3.91-1.7l.1-.059.1.059,3.418,2.076-.236.03,4.6-4.755-.023.241-2.188-3.347-.064-.1.058-.1a16.054,16.054,0,0,0,1.567-3.958v0l.03-.115.113-.028,3.884-.945-.149.191q-.054-3.349-.106-6.614l.153.185-3.912-.821-.113-.024-.031-.111a16.033,16.033,0,0,0-1.694-3.911l-.058-.1.059-.1,2.08-3.415.029.229-4.748-4.6.223.021-3.35,2.184-.089.058-.092-.052a16.071,16.071,0,0,0-3.966-1.576l-.1-.025-.024-.1c-.323-1.332-.635-2.623-.94-3.884l.16.123-6.615.094.144-.118-.829,3.91-.017.083-.081.023a16.135,16.135,0,0,0-3.928,1.691l-.066.04-.066-.04-3.41-2.088.143-.019-4.621,4.734.01-.108,2.167,3.36.02.032-.018.033a16.787,16.787,0,0,0-1.319,2.96c-.1.33-.182.582-.241.766s-.081.253-.081.253.013-.093.05-.262.106-.434.211-.777a15.678,15.678,0,0,1,1.271-3l0,.065-2.208-3.333-.039-.058.049-.051,4.58-4.772.064-.066.079.048,3.423,2.066h-.132a16.346,16.346,0,0,1,3.984-1.741l-.1.106c.258-1.246.525-2.537.81-3.914l.024-.117h.12l6.614-.12.129,0,.031.126.952,3.881-.123-.123a16.4,16.4,0,0,1,4.055,1.6l-.18.006L398.91,226l.12-.078.1.1,4.757,4.6.107.1-.077.127-2.075,3.418v-.2a16.367,16.367,0,0,1,1.738,4l-.144-.135,3.913.818.15.031,0,.154q.054,3.261.109,6.614l0,.155-.151.037-3.883.946.143-.142,0,0a16.4,16.4,0,0,1-1.6,4.055l-.007-.2c.75,1.15,1.5,2.29,2.187,3.347l.084.13-.108.111-4.6,4.751-.105.11-.131-.079-3.415-2.08h.2a16.468,16.468,0,0,1-4,1.733l.131-.141c-.285,1.356-.567,2.693-.823,3.911l-.03.142-.145,0-6.615.1-.138,0-.033-.135c-.327-1.353-.649-2.68-.941-3.884l.123.123a16.42,16.42,0,0,1-4.049-1.609l.166-.006-3.351,2.181-.1.067-.087-.085-4.743-4.611-.079-.078.058-.094c.732-1.2,1.436-2.348,2.087-3.411v.132a16.332,16.332,0,0,1-1.716-3.991l.086.081-3.909-.835-.078-.016V246.2c-.029-2.694-.053-4.922-.071-6.615v-.05l.048-.011,2.889-.67.748-.167A2.2,2.2,0,0,1,371.9,238.635Z" transform="translate(-367.952 -222.703)"/></g><g transform="translate(46.59 101.775)"><path class="c" d="M112.941,213.654a18.093,18.093,0,0,1,1.774-4.485l-2.447-3.744,5.146-5.316,3.821,2.323a18.108,18.108,0,0,1,4.425-1.919l.917-4.376,7.4-.12,1.058,4.342a18.112,18.112,0,0,1,4.486,1.775l3.743-2.447,5.316,5.146-2.324,3.821a18.112,18.112,0,0,1,1.919,4.425l4.375.916.121,7.4-4.343,1.059a18.134,18.134,0,0,1-1.774,4.485L149,230.68,143.853,236l-3.821-2.324a18.12,18.12,0,0,1-4.425,1.919l-.916,4.375-7.4.121-1.058-4.343a18.11,18.11,0,0,1-4.486-1.774l-3.743,2.447-5.316-5.146,2.324-3.821a18.108,18.108,0,0,1-1.919-4.425l-4.375-.916-.121-7.4,4.344-1.058Zm9.751,4.192a7.937,7.937,0,1,0,7.807-8.065A7.938,7.938,0,0,0,122.692,217.846Z" transform="translate(-108.597 -196.017)"/></g><g transform="translate(220.132 95.206)"><path class="c" d="M342.044,192.319a5.243,5.243,0,0,1,.512-1.3l-.706-1.081,1.486-1.534,1.1.671a5.21,5.21,0,0,1,1.277-.555l.265-1.263,2.135-.035.306,1.254a5.2,5.2,0,0,1,1.3.513l1.081-.707,1.534,1.486-.67,1.1a5.25,5.25,0,0,1,.554,1.277l1.263.265.035,2.136-1.254.306a5.233,5.233,0,0,1-.512,1.295l.706,1.081-1.486,1.534-1.1-.67a5.209,5.209,0,0,1-1.277.554l-.265,1.263-2.135.035-.306-1.253a5.232,5.232,0,0,1-1.3-.513l-1.081.706-1.534-1.485.67-1.1a5.237,5.237,0,0,1-.554-1.277l-1.263-.265-.035-2.135,1.254-.306Zm2.815,1.21a2.291,2.291,0,1,0,2.254-2.328A2.293,2.293,0,0,0,344.859,193.529Z" transform="translate(-340.79 -187.227)"/></g><g transform="translate(0 115.36)"><path class="d" d="M48,221.241a7.253,7.253,0,0,1,.709-1.792l-.978-1.5,2.056-2.125,1.527.928a7.236,7.236,0,0,1,1.768-.767l.366-1.749,2.957-.048.423,1.735a7.224,7.224,0,0,1,1.792.709l1.5-.978,2.124,2.056-.928,1.527a7.248,7.248,0,0,1,.767,1.768l1.749.366.048,2.957-1.735.423a7.225,7.225,0,0,1-.709,1.792l.978,1.5L60.35,230.17l-1.527-.928a7.236,7.236,0,0,1-1.768.767l-.366,1.749-2.957.048-.423-1.735a7.225,7.225,0,0,1-1.792-.709l-1.5.978L47.9,228.282l.928-1.527a7.264,7.264,0,0,1-.767-1.768l-1.749-.366-.048-2.957L48,221.241Zm3.9,1.676a3.172,3.172,0,1,0,3.12-3.224A3.173,3.173,0,0,0,51.893,222.917Z" transform="translate(-46.261 -214.193)"/></g><g transform="translate(266.649 58.663)"><path class="d" d="M407,154.465a16.6,16.6,0,0,1,1.623-4.1l-2.238-3.424,4.706-4.863,3.495,2.126a16.567,16.567,0,0,1,4.048-1.756l.838-4,6.767-.109.968,3.972a16.557,16.557,0,0,1,4.1,1.623l3.424-2.238L439.6,146.4l-2.126,3.495a16.565,16.565,0,0,1,1.756,4.048l4,.838.111,6.766-3.972.969a16.559,16.559,0,0,1-1.623,4.1l2.238,3.424-4.707,4.863-3.5-2.126a16.548,16.548,0,0,1-4.047,1.756l-.838,4-6.766.11-.968-3.972a16.592,16.592,0,0,1-4.1-1.623l-3.424,2.238-4.863-4.706,2.126-3.5a16.555,16.555,0,0,1-1.756-4.046l-4-.839-.111-6.766,3.973-.969Zm8.919,3.835a7.26,7.26,0,1,0,7.141-7.378A7.26,7.26,0,0,0,415.919,158.3Z" transform="translate(-403.027 -138.334)"/></g><g transform="translate(8.871 172.984)"><path class="e" d="M61.727,305.895a15.006,15.006,0,0,1,1.469-3.714l-2.025-3.1,4.261-4.4,3.164,1.924a14.981,14.981,0,0,1,3.664-1.59l.759-3.623,6.126-.1.876,3.6a15.026,15.026,0,0,1,3.715,1.47l3.1-2.026,4.4,4.261-1.924,3.164a15.014,15.014,0,0,1,1.59,3.665l3.623.759.1,6.125-3.6.877a14.95,14.95,0,0,1-1.469,3.714l2.026,3.1-4.261,4.4-3.164-1.924a15.02,15.02,0,0,1-3.664,1.589l-.759,3.623-6.125.1-.877-3.6a15.03,15.03,0,0,1-3.714-1.469l-3.1,2.026-4.4-4.261,1.924-3.165a15.02,15.02,0,0,1-1.589-3.664l-3.623-.759-.1-6.126,3.6-.876Zm8.074,3.471a6.572,6.572,0,1,0,6.464-6.678A6.572,6.572,0,0,0,69.8,309.366Z" transform="translate(-58.13 -291.291)"/></g><g transform="translate(139.414 54.503)"><path class="e" d="M234.358,139.129a6.53,6.53,0,0,1,.64-1.617l-.882-1.35,1.855-1.917,1.377.838a6.55,6.55,0,0,1,1.6-.692l.33-1.578,2.667-.043.382,1.566a6.555,6.555,0,0,1,1.617.641l1.35-.883,1.916,1.856-.838,1.377a6.537,6.537,0,0,1,.692,1.6l1.578.33.043,2.667-1.566.382a6.542,6.542,0,0,1-.64,1.617l.882,1.35-1.855,1.916-1.378-.837a6.549,6.549,0,0,1-1.595.692l-.33,1.577-2.667.043-.382-1.566a6.523,6.523,0,0,1-1.617-.64l-1.349.883-1.917-1.856.838-1.377a6.538,6.538,0,0,1-.692-1.6l-1.578-.33-.043-2.667,1.566-.381Zm3.516,1.511a2.862,2.862,0,1,0,2.815-2.908A2.862,2.862,0,0,0,237.874,140.64Z" transform="translate(-232.792 -132.769)"/></g><g transform="translate(242.29 202.096)"><g transform="translate(32.984 43.697)"><path class="f" d="M418.6,390.361a17.809,17.809,0,0,1,11.05-1.343,9.182,9.182,0,0,1,5.458,2.437c1.364,1.506,1.623,4.156.056,5.45a5.229,5.229,0,0,1-3.442.873c-2.921-.034-6.162-.549-8.5,1.209-1.331,1-2.218,2.67-3.81,3.163a3.764,3.764,0,0,1-4.141-1.842,6.433,6.433,0,0,1-.469-4.747A7.248,7.248,0,0,1,418.6,390.361Z" transform="translate(-414.567 -388.706)"/></g><g transform="translate(27.374)"><path class="f" d="M409,360.727c2.055,2.936,6.049,1.963,7.9.172s2.635-4.388,3.348-6.865c1.628-5.658,3.27-11.593,2.059-17.355a9.643,9.643,0,0,0-2.217-4.718,5.038,5.038,0,0,0-4.774-1.588c-2.013.532-3.265,2.5-4.171,4.381a41.361,41.361,0,0,0-4.088,17.755c-.01,2.86.327,5.859,1.94,8.219" transform="translate(-407.061 -330.242)"/></g><g transform="translate(0 9.445)"><path class="f" d="M394.106,368.132a10.68,10.68,0,0,0,1.662-9.829,18.942,18.942,0,0,0-5.822-8.445,31.352,31.352,0,0,0-10.425-6.15,11.117,11.117,0,0,0-4.688-.8,4.92,4.92,0,0,0-3.934,2.38c-1.1,2.092-.045,4.63,1.093,6.7a79.482,79.482,0,0,0,6.847,10.427c2.052,2.646,4.4,5.256,7.531,6.452s6.377,1.055,8.035-1.114" transform="translate(-370.436 -342.879)"/></g><g transform="translate(29.137 47.773)"><path class="b" d="M409.458,421.152a6.413,6.413,0,0,0,.185-1.334c.095-.97.213-2.189.354-3.64a52.694,52.694,0,0,1,.819-5.339,41.14,41.14,0,0,1,1.941-6.3,23.2,23.2,0,0,1,3.218-5.7,12.027,12.027,0,0,1,4.068-3.383,11.391,11.391,0,0,1,3.426-1.067,6.452,6.452,0,0,0,1.328-.192,6.243,6.243,0,0,0-1.351-.021,10.375,10.375,0,0,0-3.573.93,12,12,0,0,0-4.292,3.411,22.705,22.705,0,0,0-3.336,5.817,38.621,38.621,0,0,0-1.927,6.4,45.237,45.237,0,0,0-.71,5.407c-.115,1.546-.159,2.8-.18,3.662A6.226,6.226,0,0,0,409.458,421.152Z" transform="translate(-409.42 -394.16)"/></g><g transform="translate(29.137 11.794)"><path class="b" d="M409.709,406.193a2.63,2.63,0,0,0,.036-.62c0-.465,0-1.051,0-1.77,0-1.536,0-3.759.078-6.5.136-5.49.608-11.4,1.522-19.726.865-7.832,2.025-16.947,3.249-22.874.263-1.348.528-2.561.777-3.622s.44-1.983.635-2.725c.168-.7.3-1.268.414-1.721a2.7,2.7,0,0,0,.108-.611,2.592,2.592,0,0,0-.215.581c-.135.445-.3,1.007-.514,1.7-.228.735-.461,1.647-.728,2.707s-.57,2.268-.857,3.614a200.819,200.819,0,0,0-3.416,21.224c-.915,8.346-1.327,15.946-1.363,21.449-.033,2.752.025,4.979.1,6.516.044.719.08,1.3.108,1.769A2.645,2.645,0,0,0,409.709,406.193Z" transform="translate(-409.42 -346.022)"/></g><g transform="translate(9.855 16.276)"><path class="b" d="M403.228,393.049a11.715,11.715,0,0,0-.013-1.849c-.068-1.188-.232-2.905-.566-5.008a66.1,66.1,0,0,0-1.629-7.3,59.809,59.809,0,0,0-3.052-8.636,46,46,0,0,0-8.962-13.955,22.743,22.743,0,0,0-2.108-1.96c-.324-.274-.609-.546-.9-.762l-.818-.564a11.852,11.852,0,0,0-1.556-1,55.171,55.171,0,0,1,5.1,4.552,48.459,48.459,0,0,1,8.739,13.9,68.294,68.294,0,0,1,3.069,8.556,74.075,74.075,0,0,1,1.733,7.225c.382,2.082.6,3.782.736,4.96A12,12,0,0,0,403.228,393.049Z" transform="translate(-383.621 -352.018)"/></g><g transform="translate(15.295 83.163)"><path class="b" d="M390.9,441.511l1.469,20.122h25.85l1.469-20.122Z" transform="translate(-390.9 -441.511)"/></g><g transform="translate(12.798 75.232)"><rect class="b" width="34.369" height="7.931"/></g><g transform="translate(12.798 102.515)"><path class="f" d="M387.559,467.4v2.2h33.8v-2.2Z" transform="translate(-387.559 -467.403)"/></g><g transform="translate(14.413 104.714)"><path class="b" d="M391.3,474.214l-1.583-3.869h30.955l-1.847,3.869Z" transform="translate(-389.72 -470.345)"/></g><g transform="translate(15.731 86.913)"><path class="g" d="M419.355,449.355a.9.9,0,0,1-.121.185l-.386.513-1.505,1.927-.067.086-.065-.09-3.7-5.117h.213l-3.642,5.157-.114.162-.128-.152-4.32-5.14.249,0-.238.3-3.863,4.842-.129.161-.119-.168-3.644-5.156.212.01-4.488,5.114-.08.091-.061-.1-1.405-2.361-.361-.629a.125.125,0,1,1,.04-.025l.4.6,1.475,2.318-.141-.011,4.416-5.176.111-.131.1.141,3.677,5.132-.247-.007,3.854-4.849.238-.3.123-.154.126.151,4.308,5.15-.242.01,3.679-5.132.108-.15.105.15,3.622,5.172-.132,0L418.781,450l.419-.485C419.3,449.4,419.349,449.35,419.355,449.355Z" transform="translate(-391.483 -446.528)"/></g><g transform="translate(15.51 82.87)"><path class="g" d="M420.12,441.279c0,.089-6.477.161-14.465.161s-14.467-.073-14.467-.161,6.476-.161,14.467-.161S420.12,441.19,420.12,441.279Z" transform="translate(-391.188 -441.118)"/></g><g transform="translate(14.305 104.77)"><path class="g" d="M421.018,470.581c0,.089-7.039.161-15.721.161s-15.722-.072-15.722-.161,7.038-.161,15.722-.161S421.018,470.492,421.018,470.581Z" transform="translate(-389.575 -470.42)"/></g></g><g transform="translate(15.814 81.676)"><path class="f" d="M67.42,169.159a8.761,8.761,0,0,1,1.34-.033c.431,0,.96.006,1.571.051s1.31.063,2.077.159a47.576,47.576,0,0,1,5.357.85,48.83,48.83,0,0,1,12.453,4.551,47.652,47.652,0,0,1,4.642,2.805c.648.421,1.2.854,1.691,1.218s.905.694,1.234.974a8.7,8.7,0,0,1,1,.889,8.86,8.86,0,0,1-1.1-.77c-.342-.261-.763-.576-1.269-.918s-1.061-.761-1.715-1.164a53.411,53.411,0,0,0-4.656-2.715,51.918,51.918,0,0,0-12.365-4.519,53.261,53.261,0,0,0-5.309-.927c-.76-.113-1.454-.155-2.061-.216s-1.132-.1-1.562-.117A8.883,8.883,0,0,1,67.42,169.159Z" transform="translate(-67.42 -169.125)"/></g><g transform="translate(1.965 149.559)"><path class="f" d="M48.89,275.367a2.613,2.613,0,0,1,.4-.338l1.2-.91c.519-.4,1.164-.87,1.941-1.378s1.635-1.127,2.645-1.716c1-.613,2.09-1.277,3.307-1.919,1.194-.683,2.522-1.313,3.909-2a74.829,74.829,0,0,1,19.126-6.063c1.528-.241,2.976-.49,4.345-.62,1.364-.176,2.642-.265,3.809-.337,1.164-.1,2.224-.095,3.151-.121s1.727-.018,2.38.007l1.5.053a2.6,2.6,0,0,1,.522.046,2.709,2.709,0,0,1-.525.033l-1.5.02c-.652,0-1.449,0-2.374.058s-1.978.061-3.138.178c-1.161.09-2.432.194-3.789.383-1.363.143-2.8.4-4.321.652a78.054,78.054,0,0,0-19.038,6.035c-1.385.671-2.712,1.288-3.907,1.956-1.218.626-2.317,1.274-3.318,1.869-1.015.572-1.885,1.168-2.667,1.662s-1.442.942-1.973,1.32l-1.239.849A2.709,2.709,0,0,1,48.89,275.367Z" transform="translate(-48.89 -259.95)"/></g><g transform="translate(55.675 169.772)"><path class="f" d="M120.757,322.371a1.635,1.635,0,0,1,.052-.4c.061-.3.135-.683.226-1.144.1-.5.228-1.1.41-1.8s.36-1.5.622-2.365c.483-1.748,1.155-3.8,1.993-6.048.86-2.238,1.9-4.665,3.129-7.144s2.571-4.757,3.85-6.784c1.3-2.017,2.541-3.785,3.652-5.217.538-.729,1.07-1.355,1.522-1.915s.857-1.029,1.2-1.405l.782-.865a1.627,1.627,0,0,1,.292-.284,1.615,1.615,0,0,1-.233.336l-.725.911c-.321.391-.711.871-1.143,1.444s-.95,1.206-1.472,1.944c-1.079,1.448-2.294,3.225-3.569,5.243-1.257,2.029-2.564,4.307-3.805,6.767s-2.269,4.877-3.142,7.1c-.854,2.229-1.549,4.265-2.064,6-.279.859-.479,1.652-.676,2.342s-.352,1.289-.472,1.78c-.12.454-.217.827-.3,1.127A1.588,1.588,0,0,1,120.757,322.371Z" transform="translate(-120.753 -286.994)"/></g><g transform="translate(137.495)"><path class="f" d="M249.952,59.846a2.836,2.836,0,0,1-.291.455l-.894,1.258c-.4.54-.874,1.206-1.4,2s-1.16,1.672-1.786,2.692c-.647,1.007-1.35,2.114-2.051,3.334-.734,1.2-1.44,2.528-2.2,3.915-1.471,2.8-2.975,5.939-4.362,9.316-1.366,3.387-2.479,6.686-3.381,9.719-.422,1.524-.844,2.968-1.156,4.34-.351,1.363-.619,2.647-.86,3.819-.264,1.168-.428,2.238-.6,3.174s-.3,1.744-.393,2.408c-.1.632-.177,1.138-.238,1.525a2.783,2.783,0,0,1-.109.529,2.777,2.777,0,0,1,.031-.539c.042-.389.1-.9.166-1.536.07-.667.17-1.482.328-2.422s.3-2.018.545-3.193c.224-1.179.478-2.469.815-3.84.3-1.38.711-2.833,1.126-4.366.886-3.049,1.994-6.364,3.366-9.765a102.991,102.991,0,0,1,4.406-9.339c.773-1.387,1.492-2.714,2.24-3.911.715-1.218,1.435-2.318,2.1-3.319.644-1.014,1.292-1.886,1.839-2.667s1.04-1.437,1.456-1.964l.954-1.215A2.826,2.826,0,0,1,249.952,59.846Z" transform="translate(-230.225 -59.846)"/></g><g transform="translate(189.565 77.641)"><path class="f" d="M334.841,163.734a2.037,2.037,0,0,1-.45.086l-1.293.17-.935.113c-.34.052-.706.132-1.1.2-.787.159-1.694.286-2.666.57l-1.535.4c-.532.142-1.07.347-1.635.527-1.139.34-2.3.848-3.54,1.348a43.08,43.08,0,0,0-14.117,9.918c-.89.995-1.762,1.918-2.469,2.875-.361.471-.736.907-1.05,1.36l-.895,1.309c-.6.818-1.023,1.629-1.44,2.315-.2.347-.4.664-.565.966l-.424.841-.6,1.159a2.007,2.007,0,0,1-.233.394,2.058,2.058,0,0,1,.162-.427l.534-1.194.4-.86c.155-.309.346-.633.54-.987.4-.7.815-1.526,1.4-2.36l.88-1.333c.31-.46.682-.9,1.04-1.383.7-.973,1.572-1.912,2.463-2.922a42,42,0,0,1,14.235-10c1.252-.5,2.43-1,3.583-1.325.572-.175,1.116-.374,1.654-.51l1.552-.377c.983-.268,1.9-.377,2.694-.517.4-.062.768-.132,1.111-.173l.943-.081,1.3-.1A2,2,0,0,1,334.841,163.734Z" transform="translate(-299.892 -163.726)"/></g><g transform="translate(202.81 113.945)"><path class="f" d="M394.274,220.481a.827.827,0,0,1-.2-.053l-.561-.191-2.146-.771-1.546-.567c-.57-.2-1.2-.383-1.865-.6-1.342-.416-2.853-.95-4.569-1.383l-2.678-.731c-.932-.25-1.918-.445-2.93-.684-2.019-.5-4.212-.865-6.511-1.287a113.245,113.245,0,0,0-30.316-.93c-2.321.281-4.532.511-6.578.887-1.024.176-2.02.31-2.966.5l-2.718.566c-1.739.327-3.279.767-4.644,1.1-.68.176-1.318.324-1.9.485l-1.578.47-2.189.638-.572.157a.81.81,0,0,1-.2.041.746.746,0,0,1,.187-.078l.561-.194,2.169-.709,1.571-.5c.578-.172,1.214-.332,1.892-.517,1.363-.354,2.9-.814,4.641-1.159l2.72-.592c.947-.2,1.945-.343,2.971-.526,2.05-.391,4.266-.634,6.593-.925a110.319,110.319,0,0,1,30.413.932c2.305.434,4.5.812,6.524,1.327,1.013.246,2,.448,2.933.707l2.678.757c1.716.451,3.224,1,4.562,1.442.667.226,1.291.425,1.857.632l1.537.6,2.122.84.548.227A.757.757,0,0,1,394.274,220.481Z" transform="translate(-317.613 -212.3)"/></g></g><g transform="translate(56.338 34.802)"><g transform="translate(12.834)"><g transform="translate(64.988 7.124)"><path class="h" d="M0,0H0A11.415,11.415,0,0,1,11.415,11.415v.844A11.414,11.414,0,0,1,0,23.672H0a0,0,0,0,1,0,0V0A0,0,0,0,1,0,0Z" transform="translate(0.027 8.042) rotate(-44.795)"/><path class="i" d="M183.574,70.653l-.013-.013L166.868,53.83l.013-.013.7-.7a10.378,10.378,0,0,1,7.359-3.033h.037a10.374,10.374,0,0,1,7.375,3.085l1.987,2a10.445,10.445,0,0,1-.052,14.771ZM166.921,53.83,183.574,70.6l.688-.683a10.409,10.409,0,0,0,.052-14.719l-1.987-2a10.34,10.34,0,0,0-7.348-3.074h-.037a10.34,10.34,0,0,0-7.333,3.023Z" transform="translate(-166.868 -45.787)"/></g><g transform="translate(6.896 63.918)"><path class="h" d="M0,0H0A11.414,11.414,0,0,1,11.415,11.414v.844A11.415,11.415,0,0,1,0,23.672H0a0,0,0,0,1,0,0V0A0,0,0,0,1,0,0Z" transform="translate(24.443 17.422) rotate(137.295)"/><path class="i" d="M107.248,141.2q-.214,0-.428-.009a10.374,10.374,0,0,1-7.257-3.352l-1.912-2.072A10.446,10.446,0,0,1,98.242,121l.741-.683.013.013,16.066,17.41-.013.013-.726.67A10.375,10.375,0,0,1,107.248,141.2Zm-8.981-20.165a10.406,10.406,0,0,0-.589,14.707l1.912,2.072a10.339,10.339,0,0,0,7.231,3.341c.142.005.285.008.427.008A10.331,10.331,0,0,0,114.3,138.4l.713-.658L98.981,120.373Z" transform="translate(-90.593 -120.321)"/></g><g transform="translate(4.248 43.053)"><rect class="h" width="1.871" height="15.461" transform="matrix(0.628, -0.778, 0.778, 0.628, 0, 1.457)"/></g><g transform="translate(0 39.144)"><path class="i" d="M86.12,88.019a3.811,3.811,0,1,1-5.359.573A3.811,3.811,0,0,1,86.12,88.019Z" transform="translate(-79.917 -87.174)"/></g><g transform="translate(7.924 9.008)"><rect class="j" width="74.127" height="55.933" rx="16.501" transform="matrix(0.71, -0.705, 0.705, 0.71, 0, 52.231)"/></g><g transform="translate(45.561 6.259)"><path class="h" d="M148.065,53.645l-1.65-6.305-4.3.713L140.876,43.5l1.4-.324.986,3.315,4.283-.582,1.8,6.464Z" transform="translate(-140.876 -43.176)"/></g><g transform="translate(17.538 18.638)"><path class="i" d="M11.425,0H52.2A11.425,11.425,0,0,1,63.624,11.425v0A11.425,11.425,0,0,1,52.2,22.85H11.425A11.425,11.425,0,0,1,0,11.425v0A11.425,11.425,0,0,1,11.425,0Z" transform="matrix(0.71, -0.705, 0.705, 0.71, 0, 44.83)"/></g><g transform="translate(19.395 20.566)"><path class="i" d="M159.523,86.714s.09-.12.281-.339a11.327,11.327,0,0,0,.821-.989A12.729,12.729,0,0,0,162.818,81a14.187,14.187,0,0,0,.495-3.516,13.67,13.67,0,0,0-.671-4.156A12.929,12.929,0,0,0,160.31,69.1l-.88-.967-.957-.96a19.62,19.62,0,0,0-2.066-1.884,13,13,0,0,0-14.874-.634,15.863,15.863,0,0,0-2.7,2.257l-5.272,5.247L110.07,95.508a13,13,0,0,0-3.715,7.552,13.5,13.5,0,0,0,.135,4.176,13,13,0,0,0,1.438,3.851,13.791,13.791,0,0,0,1.132,1.693c.444.511.879,1.017,1.369,1.495a22.873,22.873,0,0,0,2.948,2.706,12.96,12.96,0,0,0,14.194.649,13.547,13.547,0,0,0,1.464-.995c.445-.383.882-.761,1.3-1.171l2.454-2.429,8.953-8.857,12.984-12.8,3.543-3.468.929-.895c.211-.2.326-.3.326-.3s-.1.114-.3.324l-.9.922-3.492,3.519-12.9,12.893-8.92,8.89-2.446,2.437c-.415.411-.869.809-1.324,1.2a13.919,13.919,0,0,1-1.5,1.025,13.306,13.306,0,0,1-14.586-.642,23.2,23.2,0,0,1-3-2.741c-.484-.471-.945-1-1.4-1.525a14.168,14.168,0,0,1-1.167-1.741,13.374,13.374,0,0,1-1.484-3.964,13.877,13.877,0,0,1-.141-4.3,13.387,13.387,0,0,1,3.824-7.78l23.512-23.325,5.284-5.235a16.235,16.235,0,0,1,2.761-2.3,13.358,13.358,0,0,1,9.714-1.818,13.485,13.485,0,0,1,5.508,2.514,19.964,19.964,0,0,1,2.084,1.918l.952.965.89.989a13.125,13.125,0,0,1,2.348,4.314,13.811,13.811,0,0,1,.65,4.226,14.234,14.234,0,0,1-.534,3.555,12.52,12.52,0,0,1-2.276,4.4,9.792,9.792,0,0,1-.854.968C159.632,86.613,159.523,86.714,159.523,86.714Z" transform="translate(-105.867 -62.318)"/></g><g transform="translate(27.316 55.033)"><g transform="translate(6.636)"><path class="k" d="M125.654,121.888a58.5,58.5,0,0,1-.289-6.724,58.346,58.346,0,0,1,.1-6.73,58.382,58.382,0,0,1,.29,6.725A58.24,58.24,0,0,1,125.654,121.888Z" transform="translate(-125.343 -108.433)"/></g><g transform="translate(0 6.14)"><path class="k" d="M129.921,116.7a58.556,58.556,0,0,1-6.719.5,58.244,58.244,0,0,1-6.738.109,58.541,58.541,0,0,1,6.72-.5A58.438,58.438,0,0,1,129.921,116.7Z" transform="translate(-116.464 -116.648)"/></g></g><g transform="translate(53.954 27.884)"><g transform="translate(6.635)"><path class="k" d="M161.295,85.564a58.19,58.19,0,0,1-.29-6.724,58.348,58.348,0,0,1,.1-6.73,58.184,58.184,0,0,1,.29,6.725A58.546,58.546,0,0,1,161.295,85.564Z" transform="translate(-160.983 -72.109)"/></g><g transform="translate(0 6.14)"><path class="k" d="M165.561,80.381a58.335,58.335,0,0,1-6.719.5,58.544,58.544,0,0,1-6.737.11,58.412,58.412,0,0,1,6.72-.5A58.421,58.421,0,0,1,165.561,80.381Z" transform="translate(-152.105 -80.324)"/></g></g><g transform="translate(41.518)"><circle class="i" cx="3.811" cy="3.811" r="3.811" transform="matrix(1, -0.015, 0.015, 1, 0, 0.118)"/></g><g transform="translate(41.935 75.816)"><path class="i" d="M151.334,151.514a3.543,3.543,0,0,1-.658-.543c-.406-.368-.984-.909-1.693-1.583-1.417-1.35-3.355-3.234-5.475-5.336s-4.021-4.026-5.376-5.438a16.719,16.719,0,0,1-2.1-2.373,6.694,6.694,0,0,1,.629.573l1.669,1.606,5.455,5.356c2.12,2.1,4.027,4.017,5.395,5.416l1.605,1.672A3.624,3.624,0,0,1,151.334,151.514Z" transform="translate(-136.024 -136.241)"/></g><g transform="translate(74.31 43.21)"><path class="i" d="M194.65,107.888a3.587,3.587,0,0,1-.658-.543c-.406-.367-.984-.908-1.693-1.583-1.417-1.35-3.355-3.234-5.475-5.336s-4.021-4.026-5.376-5.438a16.609,16.609,0,0,1-2.1-2.373,6.7,6.7,0,0,1,.629.573l1.669,1.606,5.455,5.357c2.12,2.1,4.027,4.017,5.394,5.416l1.606,1.671A3.592,3.592,0,0,1,194.65,107.888Z" transform="translate(-179.341 -92.615)"/></g><g transform="translate(46.807 47.87)"><rect class="i" width="38.981" height="4.278" transform="matrix(0.701, -0.713, 0.713, 0.701, 0, 27.784)"/></g><g transform="translate(41.477 79.885)"><path class="i" d="M137.046,142.535a.818.818,0,1,1-.784-.85A.818.818,0,0,1,137.046,142.535Z" transform="translate(-135.411 -141.684)"/></g><g transform="translate(47.712 86.468)"><path class="i" d="M145.388,151.344a.818.818,0,1,1-.784-.85A.817.817,0,0,1,145.388,151.344Z" transform="translate(-143.753 -150.493)"/></g><g transform="translate(78.117 42.578)"><path class="i" d="M186.069,92.62a.818.818,0,1,1-.784-.85A.817.817,0,0,1,186.069,92.62Z" transform="translate(-184.434 -91.769)"/></g><g transform="translate(84.351 49.162)"><path class="i" d="M194.41,101.429a.818.818,0,1,1-.785-.85A.817.817,0,0,1,194.41,101.429Z" transform="translate(-192.775 -100.578)"/></g><g transform="translate(12.64 68.282)"><path class="k" d="M103.274,139.471a22.525,22.525,0,0,0-1.727-1.531c-.563-.439-1.269-.924-2-1.559a7.82,7.82,0,0,1-1.9-2.5,8.413,8.413,0,0,1-.587-5.589,6.99,6.99,0,0,1,.608-1.611c.209-.35.334-.534.357-.52a16.374,16.374,0,0,0-.7,2.191,8.652,8.652,0,0,0,.669,5.36c.9,1.984,2.638,3.076,3.721,4.014A5.365,5.365,0,0,1,103.274,139.471Z" transform="translate(-96.828 -126.16)"/></g><g transform="translate(16.209 21.47)"><path class="k" d="M136.971,63.529c.075.078-7.782,7.833-17.548,17.32S101.679,97.968,101.6,97.892s7.78-7.831,17.549-17.322S136.9,63.452,136.971,63.529Z" transform="translate(-101.603 -63.528)"/></g><g transform="translate(0.74 40.446)"><path class="k" d="M83.163,94.114c-.01.043-.391,0-.895-.334a3.071,3.071,0,0,1-.892-4.19c.325-.51.654-.7.682-.669.043.044-.2.3-.441.8a3.139,3.139,0,0,0,.817,3.839C82.852,93.92,83.184,94.055,83.163,94.114Z" transform="translate(-80.907 -88.917)"/></g><g transform="translate(42.244 1.117)"><path class="k" d="M138.694,41.824c-.009.042-.421-.008-.954-.386a3.106,3.106,0,0,1-.583-4.522c.42-.5.806-.653.825-.615.037.052-.277.28-.6.779a3.113,3.113,0,0,0,.534,4.144C138.356,41.622,138.717,41.765,138.694,41.824Z" transform="translate(-136.437 -36.296)"/></g><g transform="translate(67.008 12.513)"><path class="k" d="M175.361,51.67a16.856,16.856,0,0,0-3.07.7,16.944,16.944,0,0,0-2.715,1.6,5.984,5.984,0,0,1,5.785-2.294Z" transform="translate(-169.571 -51.543)"/></g><g transform="translate(30.895 81.167)"><path class="k" d="M132.131,154.658c-.077.075-2.575-2.385-5.577-5.493s-5.375-5.689-5.3-5.764,2.574,2.384,5.578,5.493S132.209,154.583,132.131,154.658Z" transform="translate(-121.254 -143.4)"/></g></g><g transform="translate(0 80.405)"><g transform="translate(101.228 191.517)"><g transform="translate(7.666)"><path class="j" d="M0,0H31.981V45.33H0Z"/></g><g transform="translate(3.647 44.55)"><path class="i" d="M4.667,0H35.353A4.667,4.667,0,0,1,40.02,4.667v0a0,0,0,0,1,0,0H0a0,0,0,0,1,0,0v0A4.667,4.667,0,0,1,4.667,0Z"/></g><g transform="translate(0 49.216)"><path class="j" d="M0,0H48.572V7.385H0Z"/></g><g transform="translate(7.822 2.708)"><g transform="translate(0 37.445)"><path class="i" d="M240.319,452.54c0,.108-7.09.2-15.834.2s-15.835-.087-15.835-.2,7.088-.194,15.835-.194S240.319,452.433,240.319,452.54Z" transform="translate(-208.65 -452.346)"/></g><g transform="translate(0 32.055)"><path class="i" d="M240.319,445.328c0,.108-7.09.2-15.834.2s-15.835-.087-15.835-.2,7.088-.194,15.835-.194S240.319,445.221,240.319,445.328Z" transform="translate(-208.65 -445.134)"/></g><g transform="translate(0 26.76)"><path class="i" d="M240.319,438.244c0,.108-7.09.194-15.834.194s-15.835-.087-15.835-.194,7.088-.194,15.835-.194S240.319,438.137,240.319,438.244Z" transform="translate(-208.65 -438.05)"/></g><g transform="translate(0 21.37)"><path class="i" d="M240.319,431.032c0,.108-7.09.2-15.834.2s-15.835-.087-15.835-.2,7.088-.194,15.835-.194S240.319,430.925,240.319,431.032Z" transform="translate(-208.65 -430.838)"/></g><g transform="translate(0 16.075)"><path class="i" d="M240.319,423.948c0,.108-7.09.194-15.834.194s-15.835-.087-15.835-.194,7.088-.194,15.835-.194S240.319,423.841,240.319,423.948Z" transform="translate(-208.65 -423.754)"/></g><g transform="translate(0 10.685)"><path class="i" d="M240.319,416.736c0,.108-7.09.194-15.834.194s-15.835-.087-15.835-.194,7.088-.194,15.835-.194S240.319,416.629,240.319,416.736Z" transform="translate(-208.65 -416.542)"/></g><g transform="translate(0 5.39)"><path class="i" d="M240.319,409.652c0,.108-7.09.194-15.834.194s-15.835-.087-15.835-.194,7.088-.2,15.835-.2S240.319,409.544,240.319,409.652Z" transform="translate(-208.65 -409.457)"/></g><path class="i" d="M240.319,402.44c0,.108-7.09.194-15.834.194s-15.835-.087-15.835-.194,7.088-.194,15.835-.194S240.319,402.333,240.319,402.44Z" transform="translate(-208.65 -402.246)"/></g><g class="l" transform="translate(7.378 0.812)"><path d="M208.344,405.214l31.825-.884v-4.621H208.056Z" transform="translate(-208.056 -399.709)"/></g></g><g transform="translate(151.32 191.517)"><g transform="translate(7.666)"><path class="j" d="M0,0H31.981V45.33H0Z"/></g><g transform="translate(3.647 44.55)"><path class="i" d="M4.667,0H35.353A4.667,4.667,0,0,1,40.02,4.667v0a0,0,0,0,1,0,0H0a0,0,0,0,1,0,0v0A4.667,4.667,0,0,1,4.667,0Z"/></g><g transform="translate(0 49.216)"><path class="j" d="M0,0H48.572V7.385H0Z"/></g><g transform="translate(7.822 2.708)"><g transform="translate(0 37.445)"><path class="i" d="M307.34,452.54c0,.108-7.09.2-15.834.2s-15.835-.087-15.835-.2,7.088-.194,15.835-.194S307.34,452.433,307.34,452.54Z" transform="translate(-275.671 -452.346)"/></g><g transform="translate(0 32.055)"><path class="i" d="M307.34,445.328c0,.108-7.09.2-15.834.2s-15.835-.087-15.835-.2,7.088-.194,15.835-.194S307.34,445.221,307.34,445.328Z" transform="translate(-275.671 -445.134)"/></g><g transform="translate(0 26.76)"><path class="i" d="M307.34,438.244c0,.108-7.09.194-15.834.194s-15.835-.087-15.835-.194,7.088-.194,15.835-.194S307.34,438.137,307.34,438.244Z" transform="translate(-275.671 -438.05)"/></g><g transform="translate(0 21.37)"><path class="i" d="M307.34,431.032c0,.108-7.09.2-15.834.2s-15.835-.087-15.835-.2,7.088-.194,15.835-.194S307.34,430.925,307.34,431.032Z" transform="translate(-275.671 -430.838)"/></g><g transform="translate(0 16.075)"><path class="i" d="M307.34,423.948c0,.108-7.09.194-15.834.194s-15.835-.087-15.835-.194,7.088-.194,15.835-.194S307.34,423.841,307.34,423.948Z" transform="translate(-275.671 -423.754)"/></g><g transform="translate(0 10.685)"><path class="i" d="M307.34,416.736c0,.108-7.09.194-15.834.194s-15.835-.087-15.835-.194,7.088-.194,15.835-.194S307.34,416.629,307.34,416.736Z" transform="translate(-275.671 -416.542)"/></g><g transform="translate(0 5.39)"><path class="i" d="M307.34,409.652c0,.108-7.09.194-15.834.194s-15.835-.087-15.835-.194,7.088-.2,15.835-.2S307.34,409.544,307.34,409.652Z" transform="translate(-275.671 -409.457)"/></g><path class="i" d="M307.34,402.44c0,.108-7.09.194-15.834.194s-15.835-.087-15.835-.194,7.088-.194,15.835-.194S307.34,402.333,307.34,402.44Z" transform="translate(-275.671 -402.246)"/></g><g class="l" transform="translate(7.378 0.812)"><path d="M275.365,405.214l31.825-.884v-4.621H275.077Z" transform="translate(-275.077 -399.709)"/></g></g><g transform="translate(189.177 63.357)"><g transform="translate(3.019)"><path class="m" d="M1.832,0H4.138A1.832,1.832,0,0,1,5.969,1.832V14.581a0,0,0,0,1,0,0H0a0,0,0,0,1,0,0V1.832A1.832,1.832,0,0,1,1.832,0Z" transform="translate(0 5.788) rotate(-75.831)"/></g><g transform="translate(0 9.036)"><path class="j" d="M3.041,0h2.9A3.041,3.041,0,0,1,8.982,3.041V14.581a0,0,0,0,1,0,0H0a0,0,0,0,1,0,0V3.041A3.041,3.041,0,0,1,3.041,0Z" transform="translate(0 8.708) rotate(-75.831)"/></g><g transform="translate(9.305 2.16)"><rect class="j" width="15.241" height="5.756" transform="translate(0 14.778) rotate(-75.831)"/></g><g transform="translate(16.611 6.129)"><path class="j" d="M343.762,291.456s23.876-.97,21.9-23.852c-1.512-17.528-27.582-17.688-27.582-17.688l6.666-14.566s30.466,2.652,36.48,24.836c6.794,25.064-8.917,45.512-37.466,45.03Z" transform="translate(-338.082 -235.35)"/></g><g transform="translate(11.677 2.075)"><rect class="i" width="9.297" height="20.692" transform="translate(4.465 0) rotate(12.463)"/></g><g transform="translate(12.216 20.163)"><path class="h" d="M341.136,256.106c-.021.174-2.058-.176-4.52-.738a25.936,25.936,0,0,1-4.414-1.225,28.307,28.307,0,0,1,4.5.845c1.232.281,2.342.551,3.144.755l.947.25A1.822,1.822,0,0,1,341.136,256.106Z" transform="translate(-332.202 -254.126)"/></g><g transform="translate(13.02 16.526)"><path class="h" d="M342.212,251.24c-.021.174-2.059-.176-4.52-.738a25.993,25.993,0,0,1-4.414-1.225,28.234,28.234,0,0,1,4.5.845c1.231.28,2.342.55,3.144.755l.947.25A1.847,1.847,0,0,1,342.212,251.24Z" transform="translate(-333.278 -249.26)"/></g><g transform="translate(13.982 12.889)"><path class="h" d="M343.5,246.374c-.022.174-2.059-.177-4.52-.738a26.033,26.033,0,0,1-4.414-1.224,28.119,28.119,0,0,1,4.5.845c1.232.28,2.342.55,3.144.755l.946.25A1.715,1.715,0,0,1,343.5,246.374Z" transform="translate(-334.564 -244.394)"/></g><g transform="translate(14.628 9.251)"><path class="h" d="M344.363,241.507c-.021.175-2.059-.176-4.52-.738a25.935,25.935,0,0,1-4.414-1.225,28.337,28.337,0,0,1,4.5.845c1.231.281,2.342.551,3.144.755l.947.25A1.823,1.823,0,0,1,344.363,241.507Z" transform="translate(-335.429 -239.527)"/></g><g transform="translate(15.564 5.848)"><path class="h" d="M345.615,236.954c-.022.174-2.059-.176-4.52-.738a25.911,25.911,0,0,1-4.414-1.225,28.338,28.338,0,0,1,4.5.845c1.231.281,2.342.551,3.144.755l.946.25A1.846,1.846,0,0,1,345.615,236.954Z" transform="translate(-336.681 -234.974)"/></g><g transform="translate(25.876 61.829)"><path class="i" d="M352.11,323.889a10.08,10.08,0,0,1-.486-2.015c-.241-1.256-.522-3-.742-4.943s-.333-3.706-.379-4.984a10.171,10.171,0,0,1,.024-2.073,11.853,11.853,0,0,1,.251,2.055c.115,1.271.273,3.025.49,4.958s.457,3.678.628,4.943A11.872,11.872,0,0,1,352.11,323.889Z" transform="translate(-350.477 -309.874)"/></g><g transform="translate(30.942 60.318)"><path class="i" d="M361.24,322.222a71.651,71.651,0,0,1-2.175-7.132,71.317,71.317,0,0,1-1.8-7.236,71.789,71.789,0,0,1,2.175,7.133A71.463,71.463,0,0,1,361.24,322.222Z" transform="translate(-357.256 -307.853)"/></g><g transform="translate(36.641 57.345)"><path class="i" d="M373.143,317.645a14.779,14.779,0,0,1-1.274-1.981l-2.912-4.87-2.926-4.862a14.843,14.843,0,0,1-1.148-2.056,13.381,13.381,0,0,1,1.38,1.909c.807,1.211,1.886,2.906,3.028,4.81s2.129,3.653,2.817,4.934A13.435,13.435,0,0,1,373.143,317.645Z" transform="translate(-364.881 -303.875)"/></g><g transform="translate(40.271 53.574)"><path class="i" d="M382.764,309.641c-.068.083-3.04-2.27-6.636-5.255s-6.458-5.473-6.389-5.555,3.04,2.27,6.637,5.255S382.832,309.559,382.764,309.641Z" transform="translate(-369.737 -298.829)"/></g><g transform="translate(43.149 48.68)"><path class="i" d="M389.141,298.763c-.041.1-3.556-1.27-7.851-3.058s-7.742-3.319-7.7-3.418,3.555,1.27,7.852,3.058S389.182,298.664,389.141,298.763Z" transform="translate(-373.589 -292.281)"/></g><g transform="translate(44.25 43.091)"><path class="i" d="M392.16,286.914a17.222,17.222,0,0,1-2.515-.235l-6.041-.747-6.044-.728a17.08,17.08,0,0,1-2.5-.377,15.468,15.468,0,0,1,2.525.1c1.555.12,3.7.327,6.064.616s4.495.6,6.033.861A15.353,15.353,0,0,1,392.16,286.914Z" transform="translate(-375.062 -284.803)"/></g><g transform="translate(44.238 34.866)"><path class="i" d="M390.921,273.807a12.933,12.933,0,0,1-2.256.766c-1.413.413-3.382.923-5.579,1.387s-4.206.79-5.665.982a12.824,12.824,0,0,1-2.374.208,16.365,16.365,0,0,1,2.331-.481c1.445-.261,3.437-.63,5.628-1.091s4.162-.928,5.588-1.272A16.277,16.277,0,0,1,390.921,273.807Z" transform="translate(-375.046 -273.799)"/></g><g transform="translate(42.627 24.963)"><path class="i" d="M387.373,260.553c.049.1-3.155,1.808-7.153,3.823s-7.281,3.573-7.329,3.476,3.154-1.807,7.154-3.824S387.325,260.456,387.373,260.553Z" transform="translate(-372.89 -260.548)"/></g><g transform="translate(38.804 16.93)"><path class="i" d="M379.925,249.8c.07.081-2.593,2.49-5.947,5.378s-6.131,5.165-6.2,5.084,2.592-2.49,5.947-5.379S379.855,249.721,379.925,249.8Z" transform="translate(-367.775 -249.8)"/></g><g transform="translate(32.716 10.961)"><path class="i" d="M367.479,241.816a74.219,74.219,0,0,1-3.756,6.6,74.116,74.116,0,0,1-4.09,6.4,74.412,74.412,0,0,1,3.756-6.6A74.459,74.459,0,0,1,367.479,241.816Z" transform="translate(-359.629 -241.815)"/></g><g transform="translate(26.429 7.226)"><path class="i" d="M356.047,236.817a76.384,76.384,0,0,1-2.227,7.37,76.512,76.512,0,0,1-2.6,7.249,76.179,76.179,0,0,1,2.227-7.371A76.054,76.054,0,0,1,356.047,236.817Z" transform="translate(-351.217 -236.817)"/></g><g class="l" transform="translate(27.952 32.461)"><path d="M367.777,288.219a18.449,18.449,0,0,1-8.659,8.882,27.345,27.345,0,0,1-5.861,2.282c4.567,2.437,10.53.978,14.525-2.314a18.443,18.443,0,0,0,6.241-13.707,16.258,16.258,0,0,0-1.293-7.177c-1.016-2.232-2.694-4.573-4.919-5.6A13.725,13.725,0,0,1,369.2,274.5,22.9,22.9,0,0,1,367.777,288.219Z" transform="translate(-353.256 -270.581)"/></g></g><g transform="translate(0 116.528)"><g transform="translate(56.118 37.246)"><path class="i" d="M137.83,348.125a6.038,6.038,0,0,1,.741.824c.463.544,1.093,1.363,1.834,2.4a51.889,51.889,0,0,1,8.159,18.092c.288,1.244.484,2.258.586,2.964a6.015,6.015,0,0,1,.127,1.1,6.134,6.134,0,0,1-.277-1.073c-.146-.7-.383-1.7-.7-2.927a58.464,58.464,0,0,0-8.118-18c-.709-1.054-1.3-1.895-1.727-2.466A6.063,6.063,0,0,1,137.83,348.125Z" transform="translate(-137.828 -348.124)"/></g><g transform="translate(52.932 34.576)"><path class="i" d="M133.579,344.57c.072-.08.425.117.789.441s.6.651.53.732-.425-.117-.789-.441S133.508,344.65,133.579,344.57Z" transform="translate(-133.566 -344.552)"/></g><g transform="translate(53.651 32.394)"><path class="i" d="M134.549,341.637c.093-.055.463.392.826,1s.584,1.145.492,1.2-.462-.392-.826-1S134.457,341.693,134.549,341.637Z" transform="translate(-134.528 -341.633)"/></g><g transform="translate(67.5 10.902)"><path class="h" d="M153.059,365.079a3.606,3.606,0,0,1,.115-.6q.15-.637.4-1.7c.348-1.478.854-3.617,1.428-6.27,1.15-5.3,2.548-12.678,3.573-20.9.549-4.1.745-8.072,1.7-11.576a17.5,17.5,0,0,1,2.005-4.722,13.814,13.814,0,0,1,2.979-3.334,14.15,14.15,0,0,1,5.774-2.817,12.315,12.315,0,0,1,1.736-.261,3.6,3.6,0,0,1,.611-.016,3.6,3.6,0,0,1-.6.094,15.306,15.306,0,0,0-1.709.33,14.463,14.463,0,0,0-5.636,2.882,13.7,13.7,0,0,0-2.88,3.293,17.342,17.342,0,0,0-1.932,4.645c-.928,3.452-1.115,7.419-1.664,11.53-1.028,8.233-2.471,15.613-3.691,20.908-.609,2.649-1.155,4.78-1.549,6.248q-.3,1.056-.472,1.685A3.577,3.577,0,0,1,153.059,365.079Z" transform="translate(-153.057 -312.877)"/></g><g transform="translate(68.386 3.831)"><path class="i" d="M154.245,303.417a12.066,12.066,0,0,0,1.905,2.783,12.612,12.612,0,0,0,7.189,3.5,26.98,26.98,0,0,0,8.156-.345l2.461-.43a4.259,4.259,0,0,1,.913-.118,4.143,4.143,0,0,1-.881.267c-.573.145-1.405.343-2.443.552a24.751,24.751,0,0,1-8.261.46,12.373,12.373,0,0,1-7.334-3.694,8.13,8.13,0,0,1-1.4-2.1A3.2,3.2,0,0,1,154.245,303.417Z" transform="translate(-154.243 -303.415)"/></g><g transform="translate(65.535 1.457)"><path class="i" d="M150.442,300.254c.076-.076.433.158.8.522s.6.72.522.8-.433-.158-.8-.522S150.367,300.33,150.442,300.254Z" transform="translate(-150.428 -300.24)"/></g><g transform="translate(66.377 0.165)"><path class="i" d="M151.577,298.517c.091-.057.429.323.755.848s.516,1,.425,1.053-.429-.323-.755-.848S151.486,298.574,151.577,298.517Z" transform="translate(-151.554 -298.511)"/></g><g transform="translate(68.342)"><path class="i" d="M154.58,298.291c.106.016.124.457.04.982s-.237.939-.343.922-.125-.457-.041-.983S154.474,298.274,154.58,298.291Z" transform="translate(-154.184 -298.29)"/></g><g transform="translate(69.023 29.19)"><path class="h" d="M161.851,337.345a8.739,8.739,0,0,1-.066,1.33c-.064.855-.188,2.088-.368,3.61-.356,3.043-.978,7.234-1.911,11.817s-2.007,8.684-2.871,11.624c-.431,1.469-.8,2.653-1.076,3.464a8.7,8.7,0,0,1-.46,1.25,8.622,8.622,0,0,1,.315-1.293c.243-.887.565-2.066.956-3.5.8-2.954,1.82-7.054,2.755-11.627s1.594-8.746,2.019-11.775c.2-1.468.365-2.679.49-3.59A8.662,8.662,0,0,1,161.851,337.345Z" transform="translate(-155.095 -337.345)"/></g><g transform="translate(76.191 11.849)"><path class="h" d="M177.523,314.179c.005.073-1.072.078-2.723.515a13.495,13.495,0,0,0-9.369,8.652c-.567,1.611-.658,2.683-.73,2.672a2.508,2.508,0,0,1,.031-.753,11.218,11.218,0,0,1,.438-2.007,12.98,12.98,0,0,1,9.565-8.831,11.279,11.279,0,0,1,2.035-.277A2.488,2.488,0,0,1,177.523,314.179Z" transform="translate(-164.686 -314.144)"/></g><g transform="translate(71.042 14.088)"><path class="h" d="M157.8,366a3.085,3.085,0,0,1,.032-.563c.034-.367.091-.908.188-1.6a15.152,15.152,0,0,1,1.771-5.662c.633-1.094,1.5-2.173,2.2-3.445a7.067,7.067,0,0,0,.777-2.079,8.7,8.7,0,0,0,.064-2.361c-.12-1.623-.593-3.369-.23-5.218a6.344,6.344,0,0,1,1.2-2.534c.55-.765,1.179-1.471,1.68-2.259a4.766,4.766,0,0,0,.839-2.553,11.209,11.209,0,0,0-.357-2.67,15.78,15.78,0,0,1-.43-5.207,14.832,14.832,0,0,1,7.877-11.873,12.915,12.915,0,0,1,1.475-.663,3.059,3.059,0,0,1,.538-.168,3.02,3.02,0,0,1-.509.241c-.334.152-.827.38-1.433.724a15.287,15.287,0,0,0-4.45,3.795,14.76,14.76,0,0,0-3.141,7.976,15.562,15.562,0,0,0,.445,5.1,11.475,11.475,0,0,1,.371,2.762,5.155,5.155,0,0,1-.9,2.75c-.525.825-1.158,1.533-1.7,2.277a6,6,0,0,0-1.138,2.386c-.351,1.724.1,3.454.215,5.11a8.976,8.976,0,0,1-.085,2.457,7.33,7.33,0,0,1-.83,2.169c-.737,1.3-1.61,2.365-2.245,3.43a15.667,15.667,0,0,0-1.858,5.545c-.108.661-.194,1.189-.259,1.59A3.051,3.051,0,0,1,157.8,366Z" transform="translate(-157.796 -317.14)"/></g><g transform="translate(74.08 19.571)"><path class="b" d="M177.69,324.534a6.97,6.97,0,0,0-1.837.26,7.314,7.314,0,0,0-3.863,3.085c-1.194,1.785-1.728,4.349-2.012,7.173a91.1,91.1,0,0,1-1.368,9.209,148.667,148.667,0,0,1-4.454,16.308c-.67,2.056-1.237,3.712-1.635,4.854-.192.538-.348.973-.469,1.311a2.311,2.311,0,0,1-.189.449,2.283,2.283,0,0,1,.114-.474l.4-1.333,1.516-4.89c1.262-4.13,3.02-9.845,4.334-16.3.657-3.228,1.095-6.329,1.394-9.172s.873-5.456,2.139-7.285a7.32,7.32,0,0,1,4.052-3.079,4.965,4.965,0,0,1,1.392-.172A2.276,2.276,0,0,1,177.69,324.534Z" transform="translate(-161.861 -324.476)"/></g><g transform="translate(0 60.27)"><g transform="translate(19.659)"><path class="j" d="M131.827,378.929h14.481s-8.779,69.724-57.26,69.486l.623-13.591S122.65,432.78,131.827,378.929Z" transform="translate(-89.048 -378.929)"/></g><g transform="translate(0 50.973)"><g transform="translate(0 0.749)"><g transform="translate(0.217)"><path class="j" d="M1.832,0H4.138A1.832,1.832,0,0,1,5.969,1.832V14.581a0,0,0,0,1,0,0H0a0,0,0,0,1,0,0V1.832A1.832,1.832,0,0,1,1.832,0Z" transform="translate(0 5.968) rotate(-88.993)"/></g><g class="l" transform="translate(0.217)"><path class="n" d="M1.832,0H4.138A1.832,1.832,0,0,1,5.969,1.832V14.581a0,0,0,0,1,0,0H0a0,0,0,0,1,0,0V1.832A1.832,1.832,0,0,1,1.832,0Z" transform="translate(0 5.968) rotate(-88.993)"/></g><g transform="translate(0 9.318)"><path class="j" d="M3.041,0h2.9A3.041,3.041,0,0,1,8.982,3.041V14.581a0,0,0,0,1,0,0H0a0,0,0,0,1,0,0V3.041A3.041,3.041,0,0,1,3.041,0Z" transform="translate(0 8.98) rotate(-88.993)"/></g><g transform="translate(8.877 0.155)"><rect class="j" width="15.241" height="5.756" transform="translate(0 15.239) rotate(-88.993)"/></g></g><g transform="translate(12.15)"><rect class="i" width="9.297" height="20.692" transform="translate(0 0.113) rotate(-0.699)"/></g><g transform="translate(12.45 18.433)"><path class="h" d="M88.549,471.873c.019.175-2.045.3-4.569.311A26.077,26.077,0,0,1,79.4,472a28.186,28.186,0,0,1,4.575-.2c1.263-.007,2.406,0,3.233.019l.978.028A1.8,1.8,0,0,1,88.549,471.873Z" transform="translate(-79.403 -471.792)"/></g><g transform="translate(12.405 14.708)"><path class="h" d="M88.488,466.889c.019.174-2.045.3-4.569.31a26.04,26.04,0,0,1-4.577-.187,28.134,28.134,0,0,1,4.575-.2c1.263-.007,2.406,0,3.233.019l.979.028A1.758,1.758,0,0,1,88.488,466.889Z" transform="translate(-79.342 -466.808)"/></g><g transform="translate(12.512 10.948)"><path class="h" d="M88.632,461.858c.019.174-2.045.3-4.569.31a25.9,25.9,0,0,1-4.577-.188,28.288,28.288,0,0,1,4.575-.2c1.263-.007,2.406,0,3.233.019l.978.028A1.7,1.7,0,0,1,88.632,461.858Z" transform="translate(-79.486 -461.777)"/></g><g transform="translate(12.314 7.259)"><path class="h" d="M88.367,456.923c.019.174-2.046.3-4.569.31a26.03,26.03,0,0,1-4.577-.187,28.079,28.079,0,0,1,4.575-.2c1.262-.007,2.406,0,3.233.019l.979.028A1.762,1.762,0,0,1,88.367,456.923Z" transform="translate(-79.221 -456.842)"/></g><g transform="translate(12.45 3.732)"><path class="h" d="M88.549,452.2c.019.175-2.046.3-4.569.311a25.893,25.893,0,0,1-4.577-.188,28.282,28.282,0,0,1,4.575-.2c1.262-.007,2.406,0,3.233.019l.979.028A1.8,1.8,0,0,1,88.549,452.2Z" transform="translate(-79.403 -452.123)"/></g></g><g transform="translate(24.396 55.021)"><path class="i" d="M97.669,466.326c.02,0,.035.12.044.374l.015.434-.131-.424a63.066,63.066,0,0,1-1.424-6.842c-.322-2.009-.542-3.839-.663-5.165a10.938,10.938,0,0,1-.1-2.157,12.9,12.9,0,0,1,.374,2.124c.191,1.316.453,3.134.774,5.136.516,3.244,1.04,5.977,1.154,6.88l-.116.01C97.624,466.443,97.648,466.325,97.669,466.326Z" transform="translate(-95.385 -452.545)"/></g><g transform="translate(29.099 53.279)"><path class="i" d="M106.136,464.415a142.206,142.206,0,0,1-4.449-14.2,71.57,71.57,0,0,1,2.41,7.042A71.528,71.528,0,0,1,106.136,464.415Z" transform="translate(-101.678 -450.215)"/></g><g transform="translate(34.887 50.322)"><path class="i" d="M116.211,459.984a150.861,150.861,0,0,1-6.785-13.726,75.369,75.369,0,0,1,3.567,6.777A75.326,75.326,0,0,1,116.211,459.984Z" transform="translate(-109.422 -446.257)"/></g><g transform="translate(39.945 46.603)"><path class="i" d="M125.12,453.346a72.281,72.281,0,0,1-4.62-5.916,72.794,72.794,0,0,1-4.307-6.148,72.242,72.242,0,0,1,4.62,5.916A72.784,72.784,0,0,1,125.12,453.346Z" transform="translate(-116.19 -441.281)"/></g><g transform="translate(44.683 42.18)"><path class="i" d="M133.006,445.886a70.756,70.756,0,0,1-5.375-5.122,70.84,70.84,0,0,1-5.1-5.4,70.963,70.963,0,0,1,5.375,5.123A71.015,71.015,0,0,1,133.006,445.886Z" transform="translate(-122.53 -435.365)"/></g><g transform="translate(47.824 38.23)"><path class="i" d="M139.246,437.392a12.038,12.038,0,0,1-1.875-1l-4.419-2.585-4.424-2.581a12.223,12.223,0,0,1-1.8-1.139,11.044,11.044,0,0,1,1.929.9c1.165.6,2.756,1.475,4.487,2.485s3.269,1.969,4.368,2.687A11.073,11.073,0,0,1,139.246,437.392Z" transform="translate(-126.732 -430.079)"/></g><g transform="translate(51.555 32.603)"><path class="i" d="M144.013,428.239a11.065,11.065,0,0,1-1.812-.815c-1.1-.537-2.62-1.278-4.315-2.062s-3.244-1.461-4.366-1.952a11.016,11.016,0,0,1-1.8-.854,9.367,9.367,0,0,1,1.9.6c1.152.427,2.724,1.067,4.427,1.854s3.208,1.57,4.278,2.172A9.19,9.19,0,0,1,144.013,428.239Z" transform="translate(-131.723 -422.55)"/></g><g transform="translate(54.294 27.279)"><path class="i" d="M149.127,419.427a10.36,10.36,0,0,1-2.073-.346c-1.268-.273-3.01-.7-4.911-1.253s-3.6-1.125-4.818-1.575a10.419,10.419,0,0,1-1.937-.818,12.253,12.253,0,0,1,2.025.558c1.236.382,2.943.91,4.839,1.461s3.618,1.019,4.867,1.36A12.354,12.354,0,0,1,149.127,419.427Z" transform="translate(-135.388 -415.427)"/></g><g transform="translate(56.493 22.432)"><path class="i" d="M152.107,410.717a62.019,62.019,0,0,1-6.912-.684,62.317,62.317,0,0,1-6.864-1.07,62.038,62.038,0,0,1,6.913.684A62.281,62.281,0,0,1,152.107,410.717Z" transform="translate(-138.331 -408.943)"/></g><g transform="translate(58.991 15.902)"><path class="i" d="M155.326,401.6a10.345,10.345,0,0,1-2.011-.064c-1.239-.089-2.949-.238-4.834-.428s-3.592-.382-4.824-.541a10.355,10.355,0,0,1-1.984-.337,10.315,10.315,0,0,1,2.015.064c1.238.089,2.946.238,4.831.427s3.587.382,4.819.541A10.4,10.4,0,0,1,155.326,401.6Z" transform="translate(-141.673 -400.206)"/></g><g transform="translate(60.055 10.526)"><path class="i" d="M157.519,393.085a66.849,66.849,0,0,1-7.2.42,67.211,67.211,0,0,1-7.218.031,67.052,67.052,0,0,1,7.206-.42A67.2,67.2,0,0,1,157.519,393.085Z" transform="translate(-143.096 -393.013)"/></g><g transform="translate(61.677 5.097)"><path class="i" d="M158.817,385.776a8.975,8.975,0,0,1-1.97.308c-1.224.126-2.924.234-4.8.244s-3.58-.082-4.806-.2a9,9,0,0,1-1.972-.288,11.523,11.523,0,0,1,1.99.013c1.226.043,2.918.09,4.787.082s3.559-.074,4.784-.129A11.6,11.6,0,0,1,158.817,385.776Z" transform="translate(-145.266 -385.748)"/></g><g transform="translate(23.076 2.072)"><path class="k" d="M133.615,381.7a.664.664,0,0,1,.015.188l0,.553c-.012.485.013,1.2-.049,2.125a55.584,55.584,0,0,1-.918,7.763,58.722,58.722,0,0,1-3.25,11.129,57.978,57.978,0,0,1-16.479,22.854,58.643,58.643,0,0,1-9.533,6.6,55.569,55.569,0,0,1-7.075,3.323c-.855.349-1.544.553-2,.718l-.525.171a.653.653,0,0,1-.183.046.719.719,0,0,1,.17-.083l.512-.208c.448-.188,1.127-.414,1.97-.784a61.168,61.168,0,0,0,7-3.422,59.724,59.724,0,0,0,29.126-40.4,61.034,61.034,0,0,0,1.037-7.72c.084-.918.084-1.634.122-2.117.014-.223.026-.4.035-.552A.7.7,0,0,1,133.615,381.7Z" transform="translate(-93.62 -381.701)"/></g></g></g><g transform="translate(78.576)"><g transform="translate(25.047 36.228)"><path class="o" d="M227.946,252.233S219.93,241.392,201.388,243c0,0,18.873-14.5,7.768-29.395,0,0,23.835,7.043,24.106-22.751,0,0,4.333,27.627,26.815,19.772,0,0,1.6,21.95,17.156,17.887-7.529,7.414-14.858,13.938-13.364,23.4" transform="translate(-201.388 -190.852)"/></g><g class="p" transform="translate(25.047 36.228)"><path class="m" d="M227.946,252.233S219.93,241.392,201.388,243c0,0,18.873-14.5,7.768-29.395,0,0,23.835,7.043,24.106-22.751,0,0,4.333,27.627,26.815,19.772,0,0,1.6,21.95,17.156,17.887-7.529,7.414-14.858,13.938-13.364,23.4" transform="translate(-201.388 -190.852)"/></g><g transform="translate(36.521 48.026)"><path class="o" d="M231.823,256.221s-.19-12.645-15.083-11.355c0,0,13.852-7.987,4.933-19.953,0,0,19.146,5.656,19.363-18.276,0,0,3.481,22.192,21.539,15.882,0,0-2.153,16.1,10.346,12.836-6.047,5.955-8.5,12.728-7.3,20.33" transform="translate(-216.74 -206.637)"/></g><g class="q" transform="translate(36.521 48.026)"><path class="j" d="M231.823,256.221s-.19-12.645-15.083-11.355c0,0,13.852-7.987,4.933-19.953,0,0,19.146,5.656,19.363-18.276,0,0,3.481,22.192,21.539,15.882,0,0-2.153,16.1,10.346,12.836-6.047,5.955-8.5,12.728-7.3,20.33" transform="translate(-216.74 -206.637)"/></g><g transform="translate(12.806 3.342)"><g transform="translate(53.98 10.392)"><path class="j" d="M266.512,160.756a2.5,2.5,0,0,1-.181.472c-.15.338-.344.776-.585,1.318-.263.568-.578,1.266-.911,2.09s-.751,1.746-1.134,2.8c-.4,1.043-.84,2.188-1.251,3.437-.447,1.237-.841,2.585-1.275,4-.814,2.841-1.59,6-2.206,9.355-.593,3.36-.967,6.592-1.2,9.539-.086,1.475-.187,2.878-.2,4.193-.051,1.314-.04,2.539-.025,3.657-.009,1.12.058,2.129.087,3.018s.077,1.653.125,2.277c.037.593.066,1.07.089,1.439a2.481,2.481,0,0,1,0,.505,2.5,2.5,0,0,1-.083-.5c-.041-.368-.095-.844-.161-1.434-.072-.623-.146-1.387-.191-2.277s-.136-1.9-.146-3.024c-.031-1.122-.058-2.351-.022-3.671,0-1.32.088-2.728.164-4.21a85.353,85.353,0,0,1,3.415-18.971c.446-1.416.853-2.766,1.315-4,.426-1.25.88-2.392,1.3-3.432.4-1.049.833-1.968,1.191-2.783s.688-1.509.973-2.068l.652-1.289A2.484,2.484,0,0,1,266.512,160.756Z" transform="translate(-257.233 -160.756)"/></g><path class="j" d="M194.774,152.113a18.736,18.736,0,0,0-9.763-5.239,5.045,5.045,0,0,1,1.664.16,14.033,14.033,0,0,1,7.044,3.78A5.042,5.042,0,0,1,194.774,152.113Z" transform="translate(-185.011 -146.851)"/><g transform="translate(15.503 37.798)"><path class="j" d="M205.754,197.424a1.814,1.814,0,0,1,.309.293l.832.892c.723.775,1.724,1.937,2.921,3.407s2.564,3.268,4.007,5.317c1.428,2.061,2.927,4.375,4.382,6.876s2.7,4.962,3.78,7.227c1.058,2.273,1.942,4.351,2.614,6.124s1.187,3.216,1.5,4.229c.145.472.264.858.359,1.166a1.754,1.754,0,0,1,.1.414,1.754,1.754,0,0,1-.174-.389l-.428-1.141c-.357-1-.9-2.426-1.612-4.177s-1.611-3.814-2.682-6.07c-1.09-2.248-2.355-4.687-3.793-7.186s-2.934-4.8-4.341-6.867-2.757-3.866-3.927-5.349-2.133-2.674-2.819-3.479l-.777-.939A1.706,1.706,0,0,1,205.754,197.424Z" transform="translate(-205.753 -197.423)"/></g><g transform="translate(58.553 41.615)"><path class="j" d="M271.692,202.531a1.356,1.356,0,0,1-.153.341l-.506.937c-.226.4-.5.9-.789,1.487s-.652,1.241-.987,2c-.716,1.487-1.474,3.3-2.219,5.35a57.8,57.8,0,0,0-3.108,13.8c-.2,2.17-.3,4.135-.288,5.785-.021.825.023,1.571.037,2.227s.044,1.221.077,1.681c.022.425.04.776.055,1.064a1.375,1.375,0,0,1-.007.374,1.337,1.337,0,0,1-.071-.366c-.034-.286-.077-.636-.128-1.059-.056-.46-.113-1.024-.143-1.682s-.1-1.406-.095-2.235a53.1,53.1,0,0,1,.206-5.822,54.321,54.321,0,0,1,3.128-13.893,53.047,53.047,0,0,1,2.309-5.348c.352-.751.73-1.4,1.043-1.979s.6-1.067.851-1.459l.57-.9A1.373,1.373,0,0,1,271.692,202.531Z" transform="translate(-263.353 -202.531)"/></g><g transform="translate(72.578 44.508)"><path class="j" d="M291.111,206.4a19.955,19.955,0,0,1-1.618,1.4,27.715,27.715,0,0,0-6.366,7.995,19.98,19.98,0,0,1-1,1.891,8.341,8.341,0,0,1,.759-2.015,22.74,22.74,0,0,1,6.437-8.082A8.315,8.315,0,0,1,291.111,206.4Z" transform="translate(-282.118 -206.402)"/></g><g transform="translate(19.159 63.574)"><path class="j" d="M210.647,231.914a8.692,8.692,0,0,1,1.827,1.141,25.858,25.858,0,0,1,6.936,7.689,8.665,8.665,0,0,1,.947,1.935,18.392,18.392,0,0,1-1.181-1.79,32.663,32.663,0,0,0-6.87-7.615A18.567,18.567,0,0,1,210.647,231.914Z" transform="translate(-210.645 -231.912)"/></g><g transform="translate(7.925 54.594)"><path class="j" d="M203.063,221.926c-.058.1-1.582-.748-3.644-1.271-2.058-.54-3.805-.532-3.805-.652a10.791,10.791,0,0,1,7.449,1.922Z" transform="translate(-195.614 -219.896)"/></g></g><g transform="translate(11.607 31.7)"><path class="r" d="M184.6,189.662a5,5,0,0,1,.49-1.238l-.676-1.033,1.421-1.468,1.055.641a5.033,5.033,0,0,1,1.221-.53l.253-1.208,2.042-.033.292,1.2a4.977,4.977,0,0,1,1.238.49l1.034-.675,1.467,1.42-.641,1.055a5.045,5.045,0,0,1,.53,1.221l1.208.253.033,2.042-1.2.292a4.978,4.978,0,0,1-.49,1.238l.676,1.034-1.421,1.467-1.055-.641a4.975,4.975,0,0,1-1.221.53l-.253,1.208-2.042.033-.292-1.2a5.008,5.008,0,0,1-1.238-.49l-1.034.676-1.467-1.421.641-1.055a5.032,5.032,0,0,1-.53-1.221L183.439,192l-.033-2.043,1.2-.292Zm2.691,1.158a2.191,2.191,0,1,0,2.155-2.227A2.192,2.192,0,0,0,187.3,190.82Z" transform="translate(-183.406 -184.794)"/></g><g transform="translate(97.542 88.204)"><path class="s" d="M299.269,263.986a3.689,3.689,0,0,1,.361-.913l-.5-.762,1.049-1.083.778.473a3.687,3.687,0,0,1,.9-.391l.187-.892,1.507-.024.215.884a3.665,3.665,0,0,1,.914.362l.762-.5,1.083,1.048-.473.779a3.726,3.726,0,0,1,.391.9l.891.187.025,1.507-.884.216a3.721,3.721,0,0,1-.362.913l.5.762-1.049,1.083-.778-.473a3.674,3.674,0,0,1-.9.391l-.187.892-1.507.024-.215-.884a3.668,3.668,0,0,1-.914-.362l-.762.5-1.083-1.048.473-.779a3.717,3.717,0,0,1-.391-.9l-.891-.186-.025-1.508.885-.215Zm1.986.854a1.617,1.617,0,1,0,1.59-1.643A1.617,1.617,0,0,0,301.255,264.84Z" transform="translate(-298.384 -260.394)"/></g><g transform="translate(80.085 24.52)"><g transform="translate(0 2.411)"><g transform="translate(0.003 0.246)"><rect class="b" width="7.794" height="3.525" transform="translate(0 7.04) rotate(-64.589)"/></g><path class="i" d="M275.031,185.7a8.1,8.1,0,0,1,.921.365c.566.241,1.361.582,2.323,1.019l-.188.067c.836-1.836,2-4.328,3.3-7.063-.082-.232.113.315.092.259h-.005l-.007,0-.013-.006-.026-.013-.052-.025-.1-.05-.208-.1-.413-.2-.809-.387-1.54-.739.246-.088c-.967,2.008-1.827,3.726-2.455,4.963l-.748,1.457a3.924,3.924,0,0,1-.308.542,2.222,2.222,0,0,1,.19-.507c.176-.405.389-.89.638-1.462.558-1.259,1.37-3.061,2.349-5.151l.078-.167.168.079,1.546.726.811.383.413.2.209.1.1.049.052.025.026.012.013.007.007,0h.006c-.019-.057.175.491.092.259-1.3,2.735-2.5,5.21-3.392,7.017l-.064.129-.124-.061c-1.005-.5-1.8-.912-2.336-1.194A5.289,5.289,0,0,1,275.031,185.7Z" transform="translate(-275.027 -178.412)"/></g><g transform="translate(1.649)"><g transform="translate(0.241 0.107)"><path class="b" d="M281.889,175.644a3.253,3.253,0,0,0-4.333,1.543l5.876,2.792A3.254,3.254,0,0,0,281.889,175.644Z" transform="translate(-277.556 -175.329)"/></g><path class="i" d="M281.808,175.608c.008-.016.136.023.359.133a3.043,3.043,0,0,1,.839.673,3.259,3.259,0,0,1,.743,1.486,3.382,3.382,0,0,1-.237,2.119l-.074.163-.165-.078-2.944-1.381-2.932-1.41-.164-.079.08-.159a3.378,3.378,0,0,1,1.493-1.523,3.26,3.26,0,0,1,1.621-.362,3.036,3.036,0,0,1,1.052.226c.226.1.338.178.33.194a6.161,6.161,0,0,0-1.382-.2,3.19,3.19,0,0,0-1.478.41,3.145,3.145,0,0,0-1.311,1.412l-.085-.238,2.945,1.382,2.931,1.41-.239.084a3.143,3.143,0,0,0,.267-1.907,3.189,3.189,0,0,0-.617-1.406A6.164,6.164,0,0,0,281.808,175.608Z" transform="translate(-277.233 -175.186)"/></g><g transform="translate(5.644 0.173)"><g transform="translate(0.009 0.017)"><path class="b" d="M283.234,177.531a2.049,2.049,0,0,0-.644-2.091" transform="translate(-282.59 -175.44)"/></g><path class="i" d="M282.587,175.434c.049-.094.6.2.81.9s-.073,1.246-.166,1.2c-.106-.034-.027-.527-.206-1.081S282.519,175.522,282.587,175.434Z" transform="translate(-282.578 -175.417)"/></g><g transform="translate(2.701 3.633)"><path class="i" d="M278.645,180.061a28.974,28.974,0,0,1,3.372,1.517,3.444,3.444,0,0,1-1.821-.457C279.241,180.694,278.586,180.147,278.645,180.061Z" transform="translate(-278.641 -180.047)"/></g><g transform="translate(2.308 4.46)"><path class="i" d="M278.12,181.167a29.124,29.124,0,0,1,3.372,1.517,3.442,3.442,0,0,1-1.821-.457C278.716,181.8,278.06,181.253,278.12,181.167Z" transform="translate(-278.116 -181.153)"/></g><g transform="translate(1.915 5.287)"><path class="i" d="M277.594,182.273a29.055,29.055,0,0,1,3.372,1.517,3.444,3.444,0,0,1-1.822-.457C278.19,182.906,277.535,182.359,277.594,182.273Z" transform="translate(-277.59 -182.259)"/></g><g transform="translate(1.523 6.113)"><path class="i" d="M277.069,183.378a29.147,29.147,0,0,1,3.372,1.518,3.442,3.442,0,0,1-1.821-.457C277.665,184.012,277.009,183.464,277.069,183.378Z" transform="translate(-277.065 -183.365)"/></g><g transform="translate(1.13 6.94)"><path class="i" d="M276.543,184.485A29.055,29.055,0,0,1,279.915,186a3.445,3.445,0,0,1-1.822-.457C277.139,185.118,276.484,184.571,276.543,184.485Z" transform="translate(-276.539 -184.471)"/></g><g transform="translate(0.737 7.766)"><path class="i" d="M276.018,185.591a28.964,28.964,0,0,1,3.372,1.517,3.444,3.444,0,0,1-1.821-.457C276.614,186.224,275.958,185.677,276.018,185.591Z" transform="translate(-276.014 -185.577)"/></g><g transform="translate(0.344 8.593)"><path class="i" d="M275.492,186.7a29.055,29.055,0,0,1,3.372,1.517,5.337,5.337,0,0,1-3.372-1.517Z" transform="translate(-275.488 -186.683)"/></g></g><g transform="translate(0 87.693)"><g transform="translate(2.401)"><g transform="translate(0.179 0.185)"><rect class="b" width="7.794" height="3.525" transform="translate(0 3.22) rotate(-24.4)"/></g><path class="i" d="M179.822,263.1a8.214,8.214,0,0,1-.468-.873c-.277-.549-.664-1.324-1.117-2.279l.187.07c-1.823.863-4.319,2.018-7.076,3.268l.1-.257h0v.005l0,.007.006.013.012.026.024.053.048.105.095.21.188.416q.187.415.369.818l.7,1.558-.244-.092c2.034-.91,3.8-1.667,5.078-2.207l1.512-.629a3.9,3.9,0,0,1,.584-.215,2.188,2.188,0,0,1-.472.265l-1.431.706c-1.238.6-3.023,1.454-5.119,2.418l-.167.077-.077-.169-.712-1.552c-.123-.268-.247-.541-.373-.816l-.189-.416-.1-.21-.048-.105-.024-.053-.012-.026-.006-.013,0-.007V263.2h0c-.022.056.183-.488.1-.258,2.757-1.25,5.27-2.368,7.12-3.171l.132-.057.055.127c.447,1.028.788,1.858,1.014,2.419A5.352,5.352,0,0,1,179.822,263.1Z" transform="translate(-171.089 -259.71)"/></g><g transform="translate(0 1.92)"><g transform="translate(0.105 0.241)"><path class="b" d="M168.309,266.906a3.253,3.253,0,0,0,4.306,1.619l-2.687-5.924A3.252,3.252,0,0,0,168.309,266.906Z" transform="translate(-168.017 -262.601)"/></g><path class="i" d="M168.273,266.825c-.016.008-.089-.1-.189-.333a3.06,3.06,0,0,1-.207-1.055,3.267,3.267,0,0,1,.392-1.614,3.379,3.379,0,0,1,1.549-1.466l.161-.077.076.166,1.357,2.956c.469,1.046.916,2.044,1.33,2.969l.075.167-.164.071a3.384,3.384,0,0,1-2.123.2,3.26,3.26,0,0,1-1.472-.769,3.048,3.048,0,0,1-.658-.851c-.106-.226-.143-.354-.126-.362a6.163,6.163,0,0,0,.925,1.047,3.191,3.191,0,0,0,1.395.641,3.144,3.144,0,0,0,1.913-.233l-.09.238c-.422-.921-.879-1.913-1.357-2.956l-1.33-2.968.238.089a3.142,3.142,0,0,0-1.435,1.286,3.193,3.193,0,0,0-.436,1.471A6.165,6.165,0,0,0,168.273,266.825Z" transform="translate(-167.876 -262.279)"/></g><g transform="translate(0.503 4.978)"><g transform="translate(0.151 0.021)"><path class="b" d="M169.638,266.4a2.051,2.051,0,0,0-.857,2.013" transform="translate(-168.752 -266.399)"/></g><path class="i" d="M168.729,268.4c-.1.04-.327-.543-.041-1.206s.86-.905.9-.806c.059.095-.319.419-.54.959S168.838,268.381,168.729,268.4Z" transform="translate(-168.55 -266.37)"/></g><g transform="translate(3.556 2.935)"><path class="i" d="M174.244,266.976a29.075,29.075,0,0,1-1.6-3.335c.084-.062.647.581,1.1,1.525A3.45,3.45,0,0,1,174.244,266.976Z" transform="translate(-172.635 -263.637)"/></g><g transform="translate(4.39 2.557)"><path class="i" d="M175.359,266.47a29.069,29.069,0,0,1-1.6-3.335c.084-.061.647.582,1.1,1.525A3.45,3.45,0,0,1,175.359,266.47Z" transform="translate(-173.75 -263.131)"/></g><g transform="translate(5.223 2.178)"><path class="i" d="M176.474,265.964a29.418,29.418,0,0,1-1.6-3.335c.084-.061.647.581,1.1,1.525A3.442,3.442,0,0,1,176.474,265.964Z" transform="translate(-174.865 -262.625)"/></g><g transform="translate(6.057 1.8)"><path class="i" d="M177.589,265.458a29.406,29.406,0,0,1-1.6-3.335c.084-.061.647.582,1.1,1.525A3.443,3.443,0,0,1,177.589,265.458Z" transform="translate(-175.98 -262.119)"/></g><g transform="translate(6.89 1.422)"><path class="i" d="M178.7,264.952a29.5,29.5,0,0,1-1.6-3.336c.084-.061.647.581,1.1,1.525A3.435,3.435,0,0,1,178.7,264.952Z" transform="translate(-177.095 -261.613)"/></g><g transform="translate(7.724 1.044)"><path class="i" d="M179.819,264.447a29.241,29.241,0,0,1-1.6-3.335c.084-.062.647.581,1.1,1.525A3.437,3.437,0,0,1,179.819,264.447Z" transform="translate(-178.211 -261.108)"/></g><g transform="translate(8.557 0.666)"><path class="i" d="M180.935,263.941a29.062,29.062,0,0,1-1.6-3.335c.084-.062.647.581,1.1,1.525A3.451,3.451,0,0,1,180.935,263.941Z" transform="translate(-179.326 -260.602)"/></g></g><g transform="translate(25.148)"><path class="j" d="M201.524,142.38s9.052,8.943,11.3,14.522c2.144,5.312,3.565,10.26,3.565,10.26s2.333-4.082,4.957,0,15.024,53.641,17.065,72.3h7.9s-3.683-31.192-5.432-34.691a14.731,14.731,0,0,0-3.207-4.665s-2.04-13.12-3.5-15.16a9.833,9.833,0,0,0-3.207-2.916s-2.623-14.286-6.414-17.2-6.7-1.457-6.7-1.457S215.438,148.1,201.524,142.38Z" transform="translate(-201.524 -142.38)"/></g><g transform="translate(89.208 66.185)"><path class="h" d="M297.275,230.953a27.73,27.73,0,0,0-10.039,4.56,5.356,5.356,0,0,1,1.216-1.108,18.083,18.083,0,0,1,7.189-3.265A5.349,5.349,0,0,1,297.275,230.953Z" transform="translate(-287.234 -230.934)"/></g><g transform="translate(88.89 64.628)"><path class="h" d="M296.859,228.86a54.182,54.182,0,0,0-5.271,2.339,54.138,54.138,0,0,0-4.779,3.23,5.859,5.859,0,0,1,1.2-1.218,20.607,20.607,0,0,1,7.183-3.98A5.8,5.8,0,0,1,296.859,228.86Z" transform="translate(-286.808 -228.85)"/></g><g transform="translate(90.416 68.362)"><path class="h" d="M295.849,233.938c0,.119-1.65.145-3.581.7-1.937.54-3.356,1.386-3.416,1.284a9.907,9.907,0,0,1,7-1.986Z" transform="translate(-288.849 -233.846)"/></g><g transform="translate(79.699 68.392)"><path class="i" d="M274.784,262.5c-1.317-10.469,2.117-22.729,10.487-28.61l1.993,1.624s-10.4,6.187-9.639,27.066" transform="translate(-274.51 -233.886)"/></g><g transform="translate(28.637 79.023)"><g transform="translate(0.962 2.89)"><path class="h" d="M214.9,252a16.641,16.641,0,0,0-7.415,4.56A10.267,10.267,0,0,1,214.9,252Z" transform="translate(-207.479 -251.977)"/></g><g transform="translate(0 1.965)"><path class="h" d="M214.369,250.753a38.285,38.285,0,0,1-4.07,1.575,38.363,38.363,0,0,1-4.107,1.476,28.46,28.46,0,0,1,8.177-3.051Z" transform="translate(-206.192 -250.739)"/></g><g transform="translate(5.189)"><path class="i" d="M239.15,268.671l-3.615-.942a8.239,8.239,0,0,0-.972-6.336,8.008,8.008,0,0,0-1.763-1.978,6.87,6.87,0,0,1-3.967,5.324,5.878,5.878,0,0,1-4.968-.309,5.2,5.2,0,0,1-2.716-3.534,5.861,5.861,0,0,1,2.9-6,7.381,7.381,0,0,1,2.736-.933c-.088-.073-.178-.145-.271-.215a10,10,0,0,0-11.272-.3l-2.105-3.087a13.692,13.692,0,0,1,15.646.422,11,11,0,0,1,3.25,3.9,11.813,11.813,0,0,1,7.12,13.988Zm-11.136-11.056a4.045,4.045,0,0,0-2.065.5,2.178,2.178,0,0,0-1.133,2.058,1.542,1.542,0,0,0,.814.96,2.159,2.159,0,0,0,1.771.152,3.363,3.363,0,0,0,1.73-3.423c-.005-.049-.011-.1-.019-.148A6.377,6.377,0,0,0,228.013,257.615Z" transform="translate(-213.134 -248.109)"/></g></g><g transform="translate(29.496 30.176)"><path class="j" d="M207.341,182.756a6.315,6.315,0,0,1,1,.531c.637.357,1.529.925,2.6,1.672a44.608,44.608,0,0,1,3.62,2.821,46.064,46.064,0,0,1,7.529,8.324,44.714,44.714,0,0,1,2.446,3.884c.636,1.141,1.112,2.086,1.4,2.755a6.257,6.257,0,0,1,.428,1.051,6.46,6.46,0,0,1-.564-.984c-.333-.646-.844-1.567-1.505-2.685s-1.5-2.416-2.5-3.813a50.12,50.12,0,0,0-7.475-8.263c-1.29-1.132-2.495-2.1-3.544-2.868s-1.91-1.371-2.52-1.767A6.252,6.252,0,0,1,207.341,182.756Z" transform="translate(-207.34 -182.754)"/></g></g><g transform="translate(88.729 97.082)"><g transform="translate(0 16.374)"><path class="i" d="M7.335,0h0a0,0,0,0,1,0,0V37.753a0,0,0,0,1,0,0h0A7.335,7.335,0,0,1,0,30.418V7.335A7.335,7.335,0,0,1,7.335,0Z"/></g><g transform="translate(115.405 16.374)"><path class="i" d="M0,0H0A7.335,7.335,0,0,1,7.335,7.335V30.418A7.335,7.335,0,0,1,0,37.753H0a0,0,0,0,1,0,0V0A0,0,0,0,1,0,0Z"/></g><g transform="translate(5.402 9.002)"><path class="j" d="M14.119,0h83.42a14.119,14.119,0,0,1,14.119,14.119v53.97A14.119,14.119,0,0,1,97.538,82.208H14.119A14.119,14.119,0,0,1,0,68.089V14.119A14.119,14.119,0,0,1,14.119,0Z"/></g><g transform="translate(49.849 17.738)"><path class="k" d="M273.746,296.005a25.589,25.589,0,0,0-25.589,25.589h51.177A25.588,25.588,0,0,0,273.746,296.005Z" transform="translate(-248.157 -296.005)"/></g><g transform="translate(49.985 18.758)"><g transform="translate(42.173 23.315)"><path class="b" d="M308.656,328.572c1.075-.011,2.049-.01,2.753,0a5.466,5.466,0,0,1,1.141.072,5.561,5.561,0,0,1-1.14.082c-.7.021-1.677.032-2.753.032l-2.752-.024-.834-.023a1.268,1.268,0,0,1-.306-.028,1.209,1.209,0,0,1,.306-.031l.834-.032Z" transform="translate(-304.765 -328.565)"/></g><g transform="translate(40.823 14.118)"><path class="b" d="M306.412,317.734a16.133,16.133,0,0,1,3.614-1.461,16.239,16.239,0,0,1-3.454,1.806,26.574,26.574,0,0,1-3.612,1.461A26.477,26.477,0,0,1,306.412,317.734Z" transform="translate(-302.959 -316.259)"/></g><g transform="translate(37.016 6.492)"><path class="b" d="M300.326,308.83a16.452,16.452,0,0,1,2.742-2.77,16.512,16.512,0,0,1-2.46,3.024,25.82,25.82,0,0,1-2.741,2.768A25.8,25.8,0,0,1,300.326,308.83Z" transform="translate(-297.865 -306.056)"/></g><g transform="translate(31.444 1.643)"><path class="b" d="M291.6,303.15a16.622,16.622,0,0,1,1.537-3.582,16.678,16.678,0,0,1-1.18,3.715,25.377,25.377,0,0,1-1.537,3.58A25.378,25.378,0,0,1,291.6,303.15Z" transform="translate(-290.41 -299.568)"/></g><g transform="translate(24.786)"><path class="b" d="M281.505,301.264a16.854,16.854,0,0,1,.191-3.894,16.755,16.755,0,0,1,.191,3.894,24.94,24.94,0,0,1-.191,3.891A24.957,24.957,0,0,1,281.505,301.264Z" transform="translate(-281.502 -297.37)"/></g><g transform="translate(15.774 1.642)"><path class="b" d="M270.642,303.282a16.627,16.627,0,0,1-1.18-3.715A16.575,16.575,0,0,1,271,303.149a25.423,25.423,0,0,1,1.179,3.714A25.354,25.354,0,0,1,270.642,303.282Z" transform="translate(-269.445 -299.567)"/></g><g transform="translate(7.731 6.494)"><path class="b" d="M261.148,309.087a16.451,16.451,0,0,1-2.459-3.024,16.388,16.388,0,0,1,2.743,2.768,25.715,25.715,0,0,1,2.458,3.023A25.561,25.561,0,0,1,261.148,309.087Z" transform="translate(-258.683 -306.058)"/></g><g transform="translate(2.065 14.12)"><path class="b" d="M254.557,318.082a16.215,16.215,0,0,1-3.454-1.806,16.153,16.153,0,0,1,3.614,1.46,26.461,26.461,0,0,1,3.452,1.806A26.638,26.638,0,0,1,254.557,318.082Z" transform="translate(-251.102 -316.262)"/></g><g transform="translate(0 23.315)"><path class="b" d="M252.231,328.762c-1.076,0-2.049-.011-2.753-.032a5.569,5.569,0,0,1-1.14-.082,5.466,5.466,0,0,1,1.141-.072c.7-.013,1.678-.015,2.753,0l2.752.052.833.032a1.219,1.219,0,0,1,.306.031,1.278,1.278,0,0,1-.306.028l-.834.023Z" transform="translate(-248.339 -328.565)"/></g></g><g transform="translate(25.978 18.825)"><path class="k" d="M223.01,300.855a3.4,3.4,0,1,1-3.4-3.4A3.4,3.4,0,0,1,223.01,300.855Z" transform="translate(-216.218 -297.459)"/></g><g transform="translate(25.978 29.064)"><path class="h" d="M223.01,314.555a3.4,3.4,0,1,1-3.4-3.4A3.4,3.4,0,0,1,223.01,314.555Z" transform="translate(-216.218 -311.159)"/></g><g transform="translate(27.302 48.812)"><path class="i" d="M287.828,372.888s-.01-.22-.015-.635-.009-1.037-.016-1.834c-.009-1.617-.021-3.978-.037-7.012-.019-6.073-.045-14.833-.078-25.632l.145.145-69.639.049h0l.194-.194c0,12.382-.008,24.261-.011,35.113l-.183-.183,50.013.088,14.428.05,3.857.022,1,.011c.226,0,.346.011.346.011s-.105.007-.324.011l-.978.011-3.819.022-14.386.05-50.135.088H218v-.184c0-10.852-.007-22.732-.011-35.113v-.194h.2l69.639.049h.146v.145c-.033,10.836-.059,19.626-.078,25.72-.016,3.02-.028,5.37-.036,6.979q-.01,1.178-.016,1.808C287.839,372.688,287.828,372.888,287.828,372.888Z" transform="translate(-217.99 -337.581)"/></g><g transform="translate(16.924 91.05)"><path class="i" d="M0,0H88.613a0,0,0,0,1,0,0V0a5.1,5.1,0,0,1-5.1,5.1H5.1A5.1,5.1,0,0,1,0,0V0A0,0,0,0,1,0,0Z"/></g><g transform="translate(89.362 50.87)"><g class="l" transform="translate(0.313 1.621)"><path d="M301.46,343.946a2.111,2.111,0,0,0,1.449,2.225,2.33,2.33,0,0,0,2.533-.931,2.6,2.6,0,0,0,.034-2.737,2.584,2.584,0,0,1-.585,1.751,1.91,1.91,0,0,1-1.685.662,1.52,1.52,0,0,1-1.267-1.226" transform="translate(-301.442 -342.504)"/></g><g transform="translate(0.195 0.167)"><path class="b" d="M305.415,342.623a2.065,2.065,0,1,1-2.065-2.065A2.066,2.066,0,0,1,305.415,342.623Z" transform="translate(-301.285 -340.558)"/></g><path class="i" d="M305.349,342.567c-.033,0-.042-.183-.138-.485a2.06,2.06,0,0,0-.761-1.046,1.936,1.936,0,0,0-1.809-.239,1.891,1.891,0,0,0,0,3.542,1.936,1.936,0,0,0,1.809-.239,2.059,2.059,0,0,0,.761-1.046c.1-.3.105-.487.138-.486s.065.185.009.523a2.057,2.057,0,0,1-.741,1.228,2.192,2.192,0,0,1-2.1.357,2.233,2.233,0,0,1,0-4.216,2.191,2.191,0,0,1,2.1.357,2.055,2.055,0,0,1,.741,1.228C305.414,342.382,305.369,342.568,305.349,342.567Z" transform="translate(-301.024 -340.335)"/><g transform="translate(1.467 1.316)"><path class="i" d="M304.732,342.128c.038.105-.453.359-.9.836s-.7.966-.8.932-.007-.657.525-1.2S304.709,342.027,304.732,342.128Z" transform="translate(-302.987 -342.095)"/></g><g transform="translate(1.307 1.536)"><path class="i" d="M304.678,343.73c-.093.061-.438-.317-.945-.654s-.981-.524-.959-.634.6-.082,1.177.311S304.769,343.679,304.678,343.73Z" transform="translate(-302.773 -342.39)"/></g></g><g transform="translate(90.332 76.426)"><g class="l" transform="translate(0.313 1.621)"><path d="M302.757,378.138a2.111,2.111,0,0,0,1.449,2.225,2.331,2.331,0,0,0,2.533-.931,2.6,2.6,0,0,0,.034-2.737,2.584,2.584,0,0,1-.585,1.751,1.909,1.909,0,0,1-1.684.662,1.52,1.52,0,0,1-1.268-1.226" transform="translate(-302.739 -376.696)"/></g><g transform="translate(0.195 0.167)"><circle class="b" cx="2.065" cy="2.065" r="2.065"/></g><path class="i" d="M306.646,376.759c-.033,0-.041-.183-.138-.486a2.069,2.069,0,0,0-.762-1.046,1.936,1.936,0,0,0-1.808-.238,1.891,1.891,0,0,0,0,3.542,1.934,1.934,0,0,0,1.808-.239,2.069,2.069,0,0,0,.762-1.046c.1-.3.1-.487.138-.486s.066.185.009.523a2.057,2.057,0,0,1-.741,1.228,2.192,2.192,0,0,1-2.1.357,2.233,2.233,0,0,1,0-4.216,2.192,2.192,0,0,1,2.1.357,2.054,2.054,0,0,1,.741,1.228C306.712,376.574,306.666,376.76,306.646,376.759Z" transform="translate(-302.321 -374.527)"/><g transform="translate(1.468 1.316)"><path class="i" d="M306.029,376.32c.038.105-.453.36-.9.836s-.7.966-.8.932-.007-.657.525-1.2S306.006,376.219,306.029,376.32Z" transform="translate(-304.285 -376.287)"/></g><g transform="translate(1.307 1.536)"><path class="i" d="M305.975,377.921c-.093.062-.437-.316-.945-.653s-.981-.524-.959-.634.6-.082,1.177.311S306.066,377.871,305.975,377.921Z" transform="translate(-304.07 -376.582)"/></g></g><g transform="translate(30.255 50.839)"><g class="l" transform="translate(0.312 1.621)"><path d="M222.376,343.905a2.112,2.112,0,0,0,1.45,2.225,2.331,2.331,0,0,0,2.533-.93,2.6,2.6,0,0,0,.034-2.738,2.585,2.585,0,0,1-.585,1.751,1.908,1.908,0,0,1-1.685.662,1.519,1.519,0,0,1-1.267-1.225" transform="translate(-222.358 -342.462)"/></g><g transform="translate(0.195 0.167)"><circle class="b" cx="2.065" cy="2.065" r="2.065"/></g><path class="i" d="M226.266,342.525c-.033,0-.042-.184-.138-.486a2.066,2.066,0,0,0-.761-1.046,1.938,1.938,0,0,0-1.809-.239,1.892,1.892,0,0,0,0,3.543,1.938,1.938,0,0,0,1.809-.239,2.066,2.066,0,0,0,.761-1.046c.1-.3.105-.487.138-.486s.065.185.009.522a2.059,2.059,0,0,1-.741,1.229,2.19,2.19,0,0,1-2.1.357,2.234,2.234,0,0,1,0-4.217,2.191,2.191,0,0,1,2.1.357,2.059,2.059,0,0,1,.741,1.229C226.331,342.341,226.286,342.527,226.266,342.525Z" transform="translate(-221.941 -340.293)"/><g transform="translate(1.467 1.316)"><path class="i" d="M225.649,342.086c.037.106-.453.36-.9.836s-.7.966-.8.932-.007-.657.525-1.2S225.626,341.986,225.649,342.086Z" transform="translate(-223.904 -342.054)"/></g><g transform="translate(1.307 1.537)"><path class="i" d="M225.6,343.688c-.093.062-.438-.316-.945-.654s-.981-.524-.959-.633.6-.082,1.177.311S225.686,343.638,225.6,343.688Z" transform="translate(-223.69 -342.349)"/></g></g><g transform="translate(29.817 76.172)"><g class="l" transform="translate(0.313 1.621)"><path d="M221.79,377.8a2.111,2.111,0,0,0,1.449,2.225,2.329,2.329,0,0,0,2.533-.931,2.6,2.6,0,0,0,.034-2.737,2.583,2.583,0,0,1-.585,1.751,1.909,1.909,0,0,1-1.684.662,1.519,1.519,0,0,1-1.268-1.226" transform="translate(-221.772 -376.357)"/></g><g transform="translate(0.195 0.167)"><circle class="b" cx="2.065" cy="2.065" r="2.065"/></g><path class="i" d="M225.679,376.42c-.033,0-.041-.184-.138-.486a2.059,2.059,0,0,0-.761-1.046,1.935,1.935,0,0,0-1.808-.239,1.891,1.891,0,0,0,0,3.542,1.934,1.934,0,0,0,1.808-.239,2.058,2.058,0,0,0,.761-1.046c.1-.3.105-.487.138-.486s.066.185.009.522a2.054,2.054,0,0,1-.741,1.228,2.192,2.192,0,0,1-2.1.357,2.233,2.233,0,0,1,0-4.216,2.191,2.191,0,0,1,2.1.357,2.055,2.055,0,0,1,.741,1.228C225.745,376.235,225.7,376.421,225.679,376.42Z" transform="translate(-221.354 -374.188)"/><g transform="translate(1.468 1.316)"><path class="i" d="M225.062,375.981c.038.105-.453.36-.9.836s-.7.966-.8.932-.007-.657.525-1.2S225.039,375.88,225.062,375.981Z" transform="translate(-223.318 -375.948)"/></g><g transform="translate(1.307 1.536)"><path class="i" d="M225.008,377.583c-.093.061-.438-.317-.945-.654s-.981-.524-.959-.633.6-.083,1.177.31S225.1,377.533,225.008,377.583Z" transform="translate(-223.103 -376.243)"/></g></g><g class="l" transform="translate(27.497 84.119)"><path d="M218.25,385.011c8.088,1.757,17.533,1.824,26.271,1.4,4.2-.2,8.814-.469,12.173,2.064.738.556,1.6,1.277,2.466.957,1.261-.468,1.306-2.769,2.65-2.815.672-.023,1.183.619,1.4,1.255a9.846,9.846,0,0,0,.614,1.916c.345.578,1.16.97,1.694.561.852-.653-.13-2.049.192-3.073.334-1.061,1.842-1.147,2.872-.726s2.037,1.147,3.138.985a6.032,6.032,0,0,0,2.113-1.087c1.966-1.2,4.392-1.271,6.7-1.311,2.429-.042,4.934-.273,7.363-.315Z" transform="translate(-218.25 -384.821)"/></g><g transform="translate(48.629 57.935)"><path class="i" d="M281.087,349.792a1.635,1.635,0,0,1-.38.134,8.706,8.706,0,0,0-1.084.362,16.616,16.616,0,0,0-3.645,2.067c-1.458,1.017-3.068,2.42-5.106,3.663a11.829,11.829,0,0,1-3.459,1.437,18.948,18.948,0,0,1-3.993.3,14.973,14.973,0,0,0-7.177,2.214c-2.081,1.112-3.949,2.124-5.422,3.119a19.632,19.632,0,0,0-3.248,2.659c-.688.717-1.017,1.163-1.046,1.141a1.583,1.583,0,0,1,.215-.341,10.153,10.153,0,0,1,.72-.9,17.844,17.844,0,0,1,3.2-2.783,57.968,57.968,0,0,1,5.407-3.208,24.6,24.6,0,0,1,3.38-1.576,11.738,11.738,0,0,1,3.956-.712,18.989,18.989,0,0,0,3.922-.282,11.638,11.638,0,0,0,3.359-1.374c2.009-1.2,3.641-2.583,5.131-3.58a15.359,15.359,0,0,1,3.751-1.984,6.486,6.486,0,0,1,1.117-.3A1.531,1.531,0,0,1,281.087,349.792Z" transform="translate(-246.525 -349.788)"/></g><g transform="translate(51.704 58.325)"><path class="i" d="M264.41,355.841a9.527,9.527,0,0,1-2.17-.333,32.982,32.982,0,0,1-9.8-3.936,9.574,9.574,0,0,1-1.8-1.259,16.926,16.926,0,0,1,1.935,1.02,44.679,44.679,0,0,0,9.732,3.907A16.865,16.865,0,0,1,264.41,355.841Z" transform="translate(-250.639 -350.31)"/></g><g transform="translate(76.716 33.753)"><path class="j" d="M284.1,323.138c.57-.3,17.364-5.706,17.364-5.706l-16.052,9Z" transform="translate(-284.104 -317.432)"/></g><g transform="translate(69.286 37.649)"><path class="i" d="M279.841,322.645a5.678,5.678,0,0,0-5.678,5.678h11.356A5.678,5.678,0,0,0,279.841,322.645Z" transform="translate(-274.163 -322.645)"/></g><g transform="translate(17.658 9.514)"><path class="i" d="M205.281,366.538c-.108,0-.2-18.254-.2-40.766s.087-40.77.2-40.77.194,18.25.194,40.77S205.389,366.538,205.281,366.538Z" transform="translate(-205.086 -285.002)"/></g><g transform="translate(106.486 9.514)"><path class="i" d="M324.13,366.538c-.108,0-.2-18.254-.2-40.766s.087-40.77.2-40.77.194,18.25.194,40.77S324.237,366.538,324.13,366.538Z" transform="translate(-323.935 -285.002)"/></g><g transform="translate(13.252 18.825)"><circle class="i" cx="0.872" cy="0.872" r="0.872"/></g><g transform="translate(13.252 35.183)"><circle class="i" cx="0.872" cy="0.872" r="0.872"/></g><g transform="translate(13.252 51.542)"><circle class="i" cx="0.872" cy="0.872" r="0.872"/></g><g transform="translate(13.252 67.9)"><circle class="i" cx="0.872" cy="0.872" r="0.872"/></g><g transform="translate(13.252 84.259)"><circle class="i" cx="0.872" cy="0.872" r="0.872"/></g><g transform="translate(110.376 18.825)"><circle class="i" cx="0.872" cy="0.872" r="0.872"/></g><g transform="translate(110.376 35.183)"><circle class="i" cx="0.872" cy="0.872" r="0.872"/></g><g transform="translate(110.376 51.542)"><circle class="i" cx="0.872" cy="0.872" r="0.872"/></g><g transform="translate(110.376 67.9)"><circle class="i" cx="0.872" cy="0.872" r="0.872"/></g><g transform="translate(110.376 84.259)"><circle class="i" cx="0.872" cy="0.872" r="0.872"/></g><g transform="translate(39.494)"><rect class="h" width="38.193" height="9.002"/><g transform="translate(2.56 0.314)"><path class="i" d="M237.922,281.38a48.452,48.452,0,0,1,0-8.687,48.642,48.642,0,0,1,0,8.687Z" transform="translate(-237.727 -272.693)"/></g><g transform="translate(6.482 0.314)"><path class="i" d="M243.168,281.38a48.642,48.642,0,0,1,0-8.687,48.638,48.638,0,0,1,0,8.687Z" transform="translate(-242.974 -272.693)"/></g><g transform="translate(10.402 0.314)"><path class="i" d="M248.415,281.38a48.456,48.456,0,0,1,0-8.687,48.642,48.642,0,0,1,0,8.687Z" transform="translate(-248.22 -272.693)"/></g><g transform="translate(14.324 0.314)"><path class="i" d="M253.661,281.38a48.638,48.638,0,0,1,0-8.687,48.452,48.452,0,0,1,0,8.687Z" transform="translate(-253.467 -272.693)"/></g><g transform="translate(18.245 0.314)"><path class="i" d="M258.908,281.38a48.456,48.456,0,0,1,0-8.687,48.638,48.638,0,0,1,0,8.687Z" transform="translate(-258.713 -272.693)"/></g><g transform="translate(22.167 0.314)"><path class="i" d="M264.154,281.38a48.638,48.638,0,0,1,0-8.687,48.456,48.456,0,0,1,0,8.687Z" transform="translate(-263.96 -272.693)"/></g><g transform="translate(26.088 0.314)"><path class="i" d="M269.4,281.38a48.646,48.646,0,0,1,0-8.687,48.646,48.646,0,0,1,0,8.687Z" transform="translate(-269.207 -272.693)"/></g><g transform="translate(30.009 0.314)"><path class="i" d="M274.647,281.38a48.638,48.638,0,0,1,0-8.687,48.456,48.456,0,0,1,0,8.687Z" transform="translate(-274.453 -272.693)"/></g><g transform="translate(33.931 0.314)"><path class="i" d="M279.894,281.38a48.646,48.646,0,0,1,0-8.687,48.638,48.638,0,0,1,0,8.687Z" transform="translate(-279.7 -272.693)"/></g></g><g class="l" transform="translate(122.734 28.51)"><path d="M345.68,310.418c.923,4.682,1.782,9.087,2.706,13.769a20.162,20.162,0,0,1-2.706-.008c-.022-4.483.021-9.278,0-13.76" transform="translate(-345.674 -310.418)"/></g><g transform="translate(7.046 17.774)"><path class="k" d="M191.828,296.053c.107,0-.007,13.959-.256,31.17s-.537,31.168-.644,31.167.007-13.956.256-31.173S191.721,296.052,191.828,296.053Z" transform="translate(-190.888 -296.053)"/></g><g transform="translate(24.041 50.987)"><path class="k" d="M213.821,371.537c-.108,0-.2-6.951-.2-15.522s.087-15.524.2-15.524.194,6.949.194,15.524S213.929,371.537,213.821,371.537Z" transform="translate(-213.626 -340.491)"/></g><g transform="translate(21.107 11.324)"><path class="k" d="M286.232,287.617c0,.108-17.134.2-38.263.2s-38.268-.087-38.268-.2,17.13-.194,38.268-.194S286.232,287.51,286.232,287.617Z" transform="translate(-209.701 -287.423)"/></g></g></g></g><g transform="translate(37.381 363.731)"><path class="i" d="M355.206,475.092c0,.107-71.153.194-158.905.194-87.782,0-158.92-.087-158.92-.194s71.138-.2,158.92-.2C284.053,474.9,355.206,474.984,355.206,475.092Z" transform="translate(-37.381 -474.897)"/></g></g></svg>