<svg xmlns="http://www.w3.org/2000/svg" width="459.662" height="443.709" viewBox="0 0 459.662 443.709"><defs><style>.a{fill:#e0e0e0;}.b{fill:#ebebeb;}.c{fill:#f5f5f5;}.d{fill:#263238;}.e{fill:#fafafa;}.f{fill:#0894fe;}.g{fill:#fff;}.h{fill:#75c6fa;}.i{fill:#f2f2f2;}.j{fill:#c4c9ce;}.k{fill:#455a64;}.l{fill:#0048cd;}.m{opacity:0.2;}.n,.o{fill:none;stroke-miterlimit:10;stroke-width:0.05px;}.n{stroke:#4e585d;}.o{stroke:#fff;}.p{fill:#2680eb;}.q{fill:#0a437d;}</style></defs><g transform="translate(-35.694 -36.943)"><rect class="a" width="388.334" height="258.283" transform="translate(69.105 36.944)"/><rect class="b" width="388.334" height="258.283" transform="translate(57.339 48.486)"/><path class="b" d="M81.091,385.427a19.725,19.725,0,0,1,12.243-1.488c2.221.367,4.537,1.032,6.048,2.7s1.8,4.6.062,6.038a5.791,5.791,0,0,1-3.813.967c-3.236-.038-6.827-.607-9.413,1.34-1.475,1.111-2.457,2.958-4.221,3.5a4.169,4.169,0,0,1-4.588-2.041,7.129,7.129,0,0,1-.519-5.259A8.031,8.031,0,0,1,81.091,385.427Z"/><path class="b" d="M72.559,368.957c2.277,3.252,6.7,2.175,8.755.19s2.919-4.862,3.709-7.606c1.8-6.269,3.622-12.845,2.281-19.229a10.681,10.681,0,0,0-2.456-5.228,5.581,5.581,0,0,0-5.289-1.76c-2.231.59-3.618,2.775-4.62,4.855a45.827,45.827,0,0,0-4.53,19.671c-.011,3.168.363,6.491,2.15,9.107"/><path class="b" d="M66.306,373.623c2.472-2.934,2.941-7.214,1.841-10.89a20.982,20.982,0,0,0-6.45-9.356,34.7,34.7,0,0,0-11.55-6.815,12.3,12.3,0,0,0-5.194-.882,5.45,5.45,0,0,0-4.359,2.637c-1.216,2.318-.05,5.13,1.21,7.424a88.052,88.052,0,0,0,7.586,11.552c2.274,2.932,4.879,5.824,8.344,7.149s7.065,1.168,8.9-1.235"/><path class="a" d="M72.4,418.017a7.059,7.059,0,0,0,.206-1.478c.105-1.076.236-2.426.392-4.033a58.149,58.149,0,0,1,.908-5.916,45.619,45.619,0,0,1,2.15-6.982,25.75,25.75,0,0,1,3.565-6.318,13.313,13.313,0,0,1,4.508-3.747,12.6,12.6,0,0,1,3.8-1.182,7.091,7.091,0,0,0,1.471-.213,6.924,6.924,0,0,0-1.5-.023,11.5,11.5,0,0,0-3.959,1.03,13.293,13.293,0,0,0-4.754,3.78,25.148,25.148,0,0,0-3.7,6.445,42.671,42.671,0,0,0-2.135,7.1,50.094,50.094,0,0,0-.786,5.99c-.128,1.713-.177,3.1-.2,4.058A6.854,6.854,0,0,0,72.4,418.017Z"/><path class="a" d="M72.683,414.913a2.936,2.936,0,0,0,.04-.686c0-.515,0-1.164-.006-1.961,0-1.7,0-4.164.088-7.2.15-6.082.674-12.628,1.685-21.856.958-8.678,2.244-18.776,3.6-25.342.291-1.493.584-2.837.86-4.014s.488-2.2.705-3.019c.186-.774.337-1.4.458-1.906a2.95,2.95,0,0,0,.12-.676,2.86,2.86,0,0,0-.238.643c-.15.493-.338,1.115-.57,1.879-.252.815-.511,1.825-.807,3s-.631,2.512-.949,4a222.271,222.271,0,0,0-3.785,23.515c-1.014,9.247-1.47,17.668-1.511,23.765-.036,3.049.029,5.517.107,7.22.049.8.088,1.444.12,1.959A2.9,2.9,0,0,0,72.683,414.913Z"/><path class="a" d="M72.723,398.673a12.791,12.791,0,0,0-.014-2.048c-.075-1.317-.256-3.219-.627-5.55a73.126,73.126,0,0,0-1.805-8.086,66.351,66.351,0,0,0-3.381-9.567,50.973,50.973,0,0,0-9.93-15.462,25.107,25.107,0,0,0-2.336-2.171c-.358-.3-.675-.605-1-.845l-.906-.625a13.194,13.194,0,0,0-1.724-1.1,61.2,61.2,0,0,1,5.652,5.043,53.718,53.718,0,0,1,9.682,15.406,75.578,75.578,0,0,1,3.4,9.48,82.133,82.133,0,0,1,1.921,8c.423,2.307.668,4.191.815,5.5A13.4,13.4,0,0,0,72.723,398.673Z"/><path class="a" d="M57.026,427.321l1.627,22.294H87.295l1.627-22.294Z"/><rect class="a" width="38.079" height="8.788" transform="translate(54.26 418.533)"/><path class="b" d="M54.26,448.762V451.2H91.71v-2.436Z"/><path class="a" d="M57.8,455.485,56.049,451.2h34.3L88.3,455.485Z"/><path class="c" d="M88.39,434.607a.884.884,0,0,1-.133.205c-.114.151-.255.337-.428.568l-1.669,2.135-.074.095-.072-.1-4.1-5.669h.236l-4.036,5.715-.126.179-.142-.169-4.786-5.694.276,0-.263.331-4.28,5.365-.143.179-.131-.186-4.038-5.713.235.011-4.973,5.666-.088.1-.067-.113c-.656-1.1-1.178-1.979-1.557-2.616l-.4-.7a1.144,1.144,0,0,1-.122-.249,1.149,1.149,0,0,1,.167.221l.442.67,1.635,2.569-.156-.013,4.893-5.735.123-.144.112.156,4.074,5.687-.275-.008,4.27-5.373.263-.331.136-.171.14.168,4.773,5.7-.268.011,4.076-5.686.12-.166.116.166,4.013,5.731-.146,0c.731-.877,1.312-1.574,1.736-2.081l.464-.538A.95.95,0,0,1,88.39,434.607Z"/><path class="c" d="M89.321,427.174c0,.1-7.177.178-16.027.178s-16.029-.08-16.029-.178S64.44,427,73.294,427,89.321,427.075,89.321,427.174Z"/><path class="c" d="M90.768,451.438c0,.1-7.8.178-17.419.178s-17.42-.079-17.42-.178,7.8-.178,17.42-.178S90.768,451.34,90.768,451.438Z"/><path class="d" d="M464.306,455.485c0,.144-95.956.26-214.3.26-118.381,0-214.316-.116-214.316-.26s95.935-.26,214.316-.26C368.35,455.225,464.306,455.341,464.306,455.485Z"/><rect class="e" width="388.334" height="256.428" transform="translate(44.068 61.89)"/><path class="d" d="M432.4,318.318c0-1.693-.081-100.037-.207-256.428l.207.207L44.1,62.15h-.03l.26-.26c-.008,91.246-.015,178.059-.022,256.428l-.238-.239,388.333.239-388.333.239h-.239v-.239c-.006-78.369-.013-165.182-.021-256.428v-.261H44.1l388.3.053h.208v.208C432.482,218.281,432.4,316.627,432.4,318.318Z"/><path class="f" d="M81.316,176.824l.326-.64a3.863,3.863,0,0,0,2.594.955c1.472,0,2.112-.618,2.112-1.393,0-2.156-4.841-.831-4.841-3.74,0-1.157.9-2.156,2.9-2.156a4.438,4.438,0,0,1,2.437.7l-.281.663a4.048,4.048,0,0,0-2.156-.652c-1.438,0-2.078.641-2.078,1.427,0,2.156,4.841.853,4.841,3.717,0,1.157-.921,2.145-2.932,2.145A4.261,4.261,0,0,1,81.316,176.824Z"/><path class="f" d="M91.919,177.419a1.9,1.9,0,0,1-1.247.416,1.565,1.565,0,0,1-1.729-1.718v-3.572H87.887v-.674h1.056V170.58h.8v1.291h1.8v.674h-1.8v3.527a.946.946,0,0,0,1.022,1.078,1.318,1.318,0,0,0,.876-.3Z"/><path class="f" d="M98.3,175.072H93.357a2.187,2.187,0,0,0,2.325,2.055,2.328,2.328,0,0,0,1.808-.775l.449.517a3.123,3.123,0,0,1-5.379-2.044,2.844,2.844,0,0,1,2.886-3,2.815,2.815,0,0,1,2.864,3C98.31,174.892,98.3,174.982,98.3,175.072Zm-4.941-.6h4.189a2.1,2.1,0,0,0-4.189,0Z"/><path class="f" d="M105.924,174.825a2.86,2.86,0,0,1-2.942,3.01,2.579,2.579,0,0,1-2.246-1.168v3.29h-.8v-8.086h.763v1.168a2.573,2.573,0,0,1,2.28-1.212A2.857,2.857,0,0,1,105.924,174.825Zm-.8,0a2.2,2.2,0,1,0-2.2,2.3A2.176,2.176,0,0,0,105.127,174.825Z"/><path class="f" d="M115.169,175.521c0,1.314-.955,2.325-2.853,2.325a4.086,4.086,0,0,1-2.83-1.011l.393-.64a3.443,3.443,0,0,0,2.437.91c1.3,0,2.021-.607,2.021-1.584,0-.943-.662-1.561-2.122-1.561h-.562v-.6l2.179-2.729h-4.02v-.719h5.053v.573l-2.223,2.8C114.326,173.376,115.169,174.264,115.169,175.521Z"/><rect class="a" width="44.209" height="24.468" rx="1.788" transform="translate(315.98 276.879)"/><path class="g" d="M335.659,290.127c0,1.133-.838,1.781-2.5,1.781h-3.067v-6.665h2.876c1.486,0,2.343.627,2.343,1.713a1.548,1.548,0,0,1-1.019,1.514A1.591,1.591,0,0,1,335.659,290.127Zm-4.865-4.3v2.418h2.123c1.066,0,1.685-.41,1.685-1.209s-.619-1.209-1.685-1.209Zm4.161,4.246c0-.867-.638-1.247-1.81-1.247h-2.351v2.5h2.351C334.317,291.327,334.955,290.946,334.955,290.07Z"/><path class="g" d="M340.9,288.8v3.1h-.648v-.782a1.878,1.878,0,0,1-1.723.829c-1.133,0-1.828-.59-1.828-1.457,0-.771.495-1.419,1.933-1.419h1.59v-.3c0-.857-.486-1.323-1.419-1.323a2.549,2.549,0,0,0-1.666.59l-.3-.505a3.185,3.185,0,0,1,2.038-.676A1.779,1.779,0,0,1,340.9,288.8Zm-.676,1.6v-.82h-1.571c-.972,0-1.285.381-1.285.9,0,.58.466.942,1.266.942A1.6,1.6,0,0,0,340.227,290.4Z"/><path class="g" d="M342.253,289.4a2.465,2.465,0,0,1,2.581-2.543,2.19,2.19,0,0,1,1.961.99l-.505.344a1.7,1.7,0,0,0-1.456-.743,1.952,1.952,0,0,0,0,3.9,1.693,1.693,0,0,0,1.456-.733l.505.343a2.207,2.207,0,0,1-1.961.99A2.473,2.473,0,0,1,342.253,289.4Z"/><path class="g" d="M349.9,289.394l-1.18,1.086v1.428h-.676v-7.065h.676v4.789l2.99-2.732h.838l-2.143,2.047,2.343,2.961h-.828Z"/><path class="g" d="M324.706,287.051a10.859,10.859,0,0,1-1.8,1.867l-.007.007v-.231a10.76,10.76,0,0,1,1.8,1.847,10.809,10.809,0,0,1-2.014-1.615l-.126-.115.125-.116.007-.006A10.806,10.806,0,0,1,324.706,287.051Z"/><path class="g" d="M327.571,288.81a18.34,18.34,0,0,1-4.774,0,18.34,18.34,0,0,1,4.774,0Z"/><rect class="f" width="44.209" height="24.468" rx="1.788" transform="translate(367.85 276.879)"/><path class="g" d="M381.745,285.243v6.665h-.581l-4.285-5.409v5.409h-.7v-6.665h.58l4.295,5.408v-5.408Z"/><path class="g" d="M388.131,289.613h-4.189a1.854,1.854,0,0,0,1.971,1.742,1.978,1.978,0,0,0,1.533-.656l.381.437a2.649,2.649,0,0,1-4.562-1.732,2.412,2.412,0,0,1,2.447-2.543,2.386,2.386,0,0,1,2.428,2.543C388.14,289.46,388.131,289.536,388.131,289.613Zm-4.189-.5h3.552a1.78,1.78,0,0,0-3.552,0Z"/><path class="g" d="M392.566,291.908l-1.59-2.1-1.6,2.1h-.762l1.98-2.571-1.884-2.437h.761l1.5,1.961,1.5-1.961h.742l-1.885,2.437,2,2.571Z"/><path class="g" d="M397.1,291.6a1.607,1.607,0,0,1-1.056.352,1.326,1.326,0,0,1-1.467-1.457V287.47h-.9v-.57h.9v-1.1h.676v1.1h1.523v.57H395.25v2.99a.8.8,0,0,0,.867.914,1.125,1.125,0,0,0,.742-.256Z"/><path class="g" d="M401.7,290.541a10.8,10.8,0,0,1,1.8-1.868l.007-.006v.23a10.819,10.819,0,0,1-1.8-1.846,10.773,10.773,0,0,1,2.013,1.615l.127.114-.126.116-.007.007A10.881,10.881,0,0,1,401.7,290.541Z"/><path class="g" d="M398.84,288.781a18.34,18.34,0,0,1,4.774,0,18.226,18.226,0,0,1-4.774,0Z"/><circle class="f" cx="9.844" cy="9.844" r="9.844" transform="translate(80.789 125.483)"/><path class="d" d="M291.244,135.9a22.69,22.69,0,0,0-.406-2.379,9.819,9.819,0,0,0-3.594-5.3,9.629,9.629,0,0,0-9.116-1.341,9.636,9.636,0,0,0-4.451,3.352,9.56,9.56,0,0,0,0,11.335,9.64,9.64,0,0,0,4.451,3.354,9.632,9.632,0,0,0,9.117-1.343,9.814,9.814,0,0,0,3.593-5.3,22.688,22.688,0,0,0,.406-2.379,7.532,7.532,0,0,1-.209,2.428,9.936,9.936,0,0,1-7.778,7.454,10.063,10.063,0,0,1-5.293-.41,10.069,10.069,0,0,1-4.7-3.5,10.025,10.025,0,0,1,0-11.939,10.064,10.064,0,0,1,4.7-3.5,10.06,10.06,0,0,1,5.292-.411,9.938,9.938,0,0,1,7.779,7.454A7.533,7.533,0,0,1,291.244,135.9Z"/><path class="d" d="M386.575,134.76a22.37,22.37,0,0,0-.406-2.379,9.813,9.813,0,0,0-3.594-5.3,9.629,9.629,0,0,0-9.116-1.341,9.626,9.626,0,0,0-4.45,3.352,9.558,9.558,0,0,0,0,11.335,9.64,9.64,0,0,0,4.451,3.354,9.631,9.631,0,0,0,9.117-1.343,9.808,9.808,0,0,0,3.593-5.3,22.369,22.369,0,0,0,.406-2.379,7.533,7.533,0,0,1-.209,2.428,9.936,9.936,0,0,1-7.778,7.454,10.05,10.05,0,0,1-5.292-.411,10.054,10.054,0,0,1-4.7-3.5,10.023,10.023,0,0,1,0-11.939,10.076,10.076,0,0,1,4.7-3.5,10.066,10.066,0,0,1,5.291-.41,9.91,9.91,0,0,1,4.212,1.91,9.806,9.806,0,0,1,3.567,5.544A7.533,7.533,0,0,1,386.575,134.76Z"/><path class="g" d="M94.732,132.667a32.824,32.824,0,0,1-3.828,4.417l-1.034,1.078-.176.184-.18-.174A21.871,21.871,0,0,1,86.534,135a21.973,21.973,0,0,1,3.327,2.807l-.356.01,1.021-1.09A33.077,33.077,0,0,1,94.732,132.667Z"/><rect class="h" width="71.244" height="4" transform="translate(102.329 133.328)"/><circle class="f" cx="9.844" cy="9.844" r="9.844" transform="translate(175.902 125.483)"/><path class="g" d="M189.845,132.667a32.824,32.824,0,0,1-3.828,4.417l-1.034,1.078-.176.184-.18-.174a21.869,21.869,0,0,1-2.98-3.173,21.974,21.974,0,0,1,3.327,2.807l-.356.01,1.021-1.09A33.077,33.077,0,0,1,189.845,132.667Z"/><rect class="h" width="71.244" height="4" transform="translate(197.442 133.328)"/><path class="d" d="M365.273,134.76c0,.144-15.949.26-35.62.26s-35.623-.116-35.623-.26,15.946-.26,35.623-.26S365.273,134.616,365.273,134.76Z"/><path class="e" d="M44.068,103.6H432.4"/><path class="a" d="M432.4,103.6c0,.144-86.938.261-194.157.261-107.257,0-194.176-.117-194.176-.261s86.919-.26,194.176-.26C345.463,103.338,432.4,103.454,432.4,103.6Z"/><path class="d" d="M382.783,191.07c0,.144-66.323.26-148.117.26-81.823,0-148.132-.116-148.132-.26s66.309-.26,148.132-.26C316.46,190.81,382.783,190.926,382.783,191.07Z"/><path class="d" d="M218.61,202.764a1.672,1.672,0,0,1-.341.027l-1,.026-3.848.049-14.153.082-46.692.077-46.7-.077-14.152-.082-3.847-.049-1-.026a1.672,1.672,0,0,1-.341-.027,1.638,1.638,0,0,1,.341-.026l1-.026,3.847-.049,14.152-.083,46.7-.076,46.692.076,14.153.083,3.848.049,1,.026A1.637,1.637,0,0,1,218.61,202.764Z"/><path class="d" d="M352.529,219.77c0,.144-54.163.26-120.961.26-66.82,0-120.971-.116-120.971-.26s54.151-.261,120.971-.261C298.366,219.509,352.529,219.626,352.529,219.77Z"/><path class="a" d="M95.42,223.632a5.287,5.287,0,1,1,5.287-5.286A5.292,5.292,0,0,1,95.42,223.632Zm0-9.574a4.287,4.287,0,1,0,4.287,4.288A4.293,4.293,0,0,0,95.42,214.058Z"/><path class="d" d="M303.464,232.73s-.168.018-.5.026l-1.461.026-5.619.049-20.667.083-68.184.076-68.2-.076-20.666-.083-5.618-.049-1.462-.026c-.329-.008-.5-.026-.5-.026s.168-.018.5-.027l1.462-.026,5.618-.049,20.666-.082,68.2-.077,68.184.077,20.667.082,5.619.049,1.461.026C303.3,232.712,303.464,232.73,303.464,232.73Z"/><path class="a" d="M95.42,238.016a5.287,5.287,0,1,1,5.287-5.286A5.292,5.292,0,0,1,95.42,238.016Zm0-9.573a4.287,4.287,0,1,0,4.287,4.287A4.292,4.292,0,0,0,95.42,228.443Z"/><circle class="h" cx="2.332" cy="2.332" r="2.332" transform="translate(93.088 230.398)"/><path class="d" d="M352.529,248.538c0,.144-54.163.261-120.961.261-66.82,0-120.971-.117-120.971-.261s54.151-.26,120.971-.26C298.366,248.278,352.529,248.4,352.529,248.538Z"/><path class="a" d="M95.42,252.4a5.287,5.287,0,1,1,5.287-5.287A5.293,5.293,0,0,1,95.42,252.4Zm0-9.574a4.287,4.287,0,1,0,4.287,4.287A4.292,4.292,0,0,0,95.42,242.827Z"/><path class="d" d="M183.382,250.5a9.383,9.383,0,0,0-5.992,8.374c-.069,2.313.037,5.032-1.794,6.448-1.721,1.331-4.239.734-6.279,1.49-2.6.961-3.883,3.873-4.454,6.582s-.748,5.612-2.261,7.93c-1.46,2.238-3.927,3.562-6.152,5.042s-4.442,3.442-4.854,6.083c-.589,3.784,2.74,7.642,1.373,11.221-.879,2.3-3.356,3.483-5.221,5.1a11.931,11.931,0,0,0-.938,17.142,8.138,8.138,0,0,0,6.835,2.846c2.473-.351,4.443-2.163,6.309-3.824A101.069,101.069,0,0,1,182.6,309.708c2.129-1.044,4.445-2.151,5.544-4.253a10.677,10.677,0,0,0,.908-3.455q3.445-23.621,6.889-47.241"/><path class="d" d="M206.758,235.527c-.929-3.469,1.1-7.238,4.108-9.2s6.756-2.434,10.346-2.332c3.692.106,7.792,1.021,9.825,4.1,1.277,1.938,1.5,4.4,2.635,6.424,3.205,5.7,12.125,5.805,15.61,11.337,3.313,5.259-.073,12.151.719,18.316.53,4.133,2.923,7.743,4.791,11.467s3.251,8.142,1.667,12c-1.7,4.123-6.484,6.79-6.959,11.223-.589,5.5,5.918,10.519,3.92,15.673-1.481,3.821-7.033,5.266-7.631,9.32-.321,2.169.969,4.208,1.552,6.321,1.481,5.362-1.987,11.247-6.963,13.733s-10.986,2.084-16.247.278a33.212,33.212,0,0,1-20.262-43.21"/><path class="d" d="M150.483,288.943a1.725,1.725,0,0,0-.779-.706,2.022,2.022,0,0,0-1.258-.1,1.649,1.649,0,0,0-1.231,1.085,2.348,2.348,0,0,0,.325,2.057,2.568,2.568,0,0,0,2.216,1.058,3.753,3.753,0,0,0,2.64-1.193A6.839,6.839,0,0,0,154,288.2c.7-2.311.5-5,.754-7.872A12.19,12.19,0,0,1,155.932,276a6.969,6.969,0,0,1,1.425-1.916,6.208,6.208,0,0,1,2.116-1.257,25,25,0,0,1,4.909-.839,6.3,6.3,0,0,0,4.388-2.011c1.065-1.311,1.158-3.164,1.027-4.921a41.811,41.811,0,0,1-.361-5.518,10.96,10.96,0,0,1,1.841-5.259,8.564,8.564,0,0,1,4.224-3.38,12.556,12.556,0,0,1,5.209-.244c1.639.122,3.374.188,4.588-.77,1.25-.925,1.548-2.561,1.635-4.034a22.146,22.146,0,0,1,.44-4.445,11.956,11.956,0,0,1,4.476-6.561,10.907,10.907,0,0,1,6.217-2.1,11.713,11.713,0,0,1,4.884.936,10.354,10.354,0,0,1,2.69,1.629,6.385,6.385,0,0,1,.791.758c-.019.02-.289-.245-.857-.676a11,11,0,0,0-2.7-1.524,11.7,11.7,0,0,0-4.8-.832,10.664,10.664,0,0,0-6.008,2.106,11.61,11.61,0,0,0-4.275,6.372,21.9,21.9,0,0,0-.4,4.367,9.087,9.087,0,0,1-.391,2.34,4.16,4.16,0,0,1-1.408,2.045,4.57,4.57,0,0,1-2.376.9,13.747,13.747,0,0,1-2.542-.01,12.163,12.163,0,0,0-5.006.23,8.063,8.063,0,0,0-3.961,3.188,10.47,10.47,0,0,0-1.751,5.009,42.145,42.145,0,0,0,.359,5.442,12.128,12.128,0,0,1-.072,2.745,5.374,5.374,0,0,1-1.071,2.528,5.162,5.162,0,0,1-2.185,1.586,10.753,10.753,0,0,1-2.537.6,24.8,24.8,0,0,0-4.815.8,5.733,5.733,0,0,0-1.96,1.149,6.549,6.549,0,0,0-1.335,1.782,11.768,11.768,0,0,0-1.158,4.168c-.273,2.809-.087,5.544-.831,7.931a7.177,7.177,0,0,1-1.719,3.073,4.053,4.053,0,0,1-2.873,1.25,2.833,2.833,0,0,1-2.424-1.21,2.565,2.565,0,0,1-.31-2.266,1.822,1.822,0,0,1,1.389-1.166,2.1,2.1,0,0,1,1.335.154A1.285,1.285,0,0,1,150.483,288.943Z"/><path class="d" d="M259.757,301.335a1.086,1.086,0,0,1,.121.253,1.992,1.992,0,0,1,.14.815,3.267,3.267,0,0,1-1.667,2.6,3.221,3.221,0,0,1-2.256.466,4.027,4.027,0,0,1-2.327-1.445,5.618,5.618,0,0,1-1.214-2.91,7.074,7.074,0,0,1,.573-3.487c.938-2.338,2.888-4.3,4.7-6.483a13.68,13.68,0,0,0,2.276-3.721,11.852,11.852,0,0,0,.777-4.528,12.133,12.133,0,0,0-1.07-4.707,12.377,12.377,0,0,0-3.024-4.028c-1.27-1.192-2.694-2.287-3.969-3.621a8.51,8.51,0,0,1-2.537-4.969,14.287,14.287,0,0,1,.852-5.518,24.212,24.212,0,0,0,1.183-5.163,12.407,12.407,0,0,0-2.655-9.3,9.305,9.305,0,0,0-7.955-3.357,10.157,10.157,0,0,1-4.176-.516,5.378,5.378,0,0,1-2.678-2.81c-1.04-2.3-1-4.589-1.453-6.447a8.889,8.889,0,0,0-.9-2.5,4.906,4.906,0,0,0-1.483-1.629,3.947,3.947,0,0,0-2.906-.76,4.638,4.638,0,0,0-1.016.369,2.236,2.236,0,0,1,.994-.472,3.993,3.993,0,0,1,3.043.7,5.08,5.08,0,0,1,1.583,1.672,9.062,9.062,0,0,1,.973,2.554c.483,1.892.481,4.17,1.5,6.355a5,5,0,0,0,2.5,2.6,9.835,9.835,0,0,0,4.012.454,9.73,9.73,0,0,1,8.323,3.474,12.876,12.876,0,0,1,2.8,9.656,24.657,24.657,0,0,1-1.2,5.267,13.843,13.843,0,0,0-.83,5.315,8,8,0,0,0,2.395,4.667c1.233,1.294,2.652,2.391,3.942,3.6a12.872,12.872,0,0,1,3.128,4.2,12.6,12.6,0,0,1,1.1,4.9,12.264,12.264,0,0,1-.831,4.706,14.069,14.069,0,0,1-2.367,3.827c-1.856,2.2-3.772,4.108-4.695,6.351a6.768,6.768,0,0,0-.584,3.309,5.323,5.323,0,0,0,1.111,2.763,3.767,3.767,0,0,0,2.15,1.385,3.012,3.012,0,0,0,2.1-.4,3.181,3.181,0,0,0,1.666-2.435A3.4,3.4,0,0,0,259.757,301.335Z"/><path class="d" d="M181.9,251.715c-1.9.523-2.927,2.678-2.927,4.646a22.208,22.208,0,0,0,1.28,5.741c.518,1.9.771,4.027-.175,5.752-1.9,3.46-7.228,3.28-9.795,6.277-3.266,3.812-.219,10.1-2.577,14.536-2.149,4.038-8.162,5.3-9.352,9.719-.758,2.813.833,5.871.043,8.675-.9,3.178-4.421,4.792-6.281,7.521a10.217,10.217,0,0,0-.571,9.553,18.6,18.6,0,0,0,5.444,6.889q.428.357.866.7l34.436-8.012L199.2,260Z"/><g transform="translate(-3 1)"><path class="i" d="M200.786,239.917a5.02,5.02,0,0,0-5.454,4.042h0l-11.358,66.9c-1.565,7.853,8.927,14.717,17.348,16.328h0c8.5,1.628,9.671-2.463,11.382-9.886,2.859-12.4,3.85-17.074,3.84-17,0,0,11.076.505,16.269-12.979,2.583-6.706,4.661-18.161,6.059-27.588,1.258-8.486-2.1-19.942-10.63-20.839Z"/><path class="d" d="M233.855,268.1a1.831,1.831,0,0,1-2.111,1.438,1.751,1.751,0,0,1-1.5-2.008,1.83,1.83,0,0,1,2.109-1.439A1.752,1.752,0,0,1,233.855,268.1Z"/><path class="d" d="M235.141,266.294c-.272.186-1.414-1.107-3.341-1.512-1.92-.433-3.544.256-3.7-.024-.081-.127.235-.5.946-.817a5.022,5.022,0,0,1,3.026-.269,4.817,4.817,0,0,1,2.6,1.495C235.162,265.748,235.272,266.213,235.141,266.294Z"/><path class="d" d="M214.664,263.96a1.828,1.828,0,0,1-2.11,1.437,1.749,1.749,0,0,1-1.5-2.007,1.83,1.83,0,0,1,2.109-1.439A1.75,1.75,0,0,1,214.664,263.96Z"/><path class="d" d="M216.131,261.986c-.272.186-1.416-1.107-3.342-1.512-1.919-.433-3.544.256-3.7-.024-.08-.126.233-.5.946-.816a5.021,5.021,0,0,1,3.026-.27,4.827,4.827,0,0,1,2.6,1.495C216.15,261.44,216.262,261.9,216.131,261.986Z"/><path class="d" d="M220.075,277.217a13.041,13.041,0,0,1,3.248.1c.5.054.989.056,1.144-.262a2.56,2.56,0,0,0-.017-1.528q-.313-1.934-.656-4.055c-.883-5.764-1.41-10.46-1.178-10.494s1.137,4.611,2.019,10.374c.206,1.419.4,2.771.59,4.065a2.912,2.912,0,0,1-.156,1.985,1.261,1.261,0,0,1-.962.546,3.387,3.387,0,0,1-.861-.062A12.777,12.777,0,0,1,220.075,277.217Z"/><path class="j" d="M216.544,300.294a36.3,36.3,0,0,1-17.628-8.973s2.614,10.857,16.861,12.53Z"/><path class="j" d="M218.27,281.686a3.547,3.547,0,0,0-2.836-1.953,3.243,3.243,0,0,0-2.439.707,2.053,2.053,0,0,0-.642,2.263,2.38,2.38,0,0,0,2.389,1.177,7.445,7.445,0,0,0,2.775-.944,2.162,2.162,0,0,0,.671-.452.658.658,0,0,0,.15-.718"/><path class="d" d="M214.122,277.341c.317.048-.125,2.14,1.348,4.005s3.748,2.111,3.7,2.407c0,.137-.583.3-1.529.125a5.317,5.317,0,0,1-3.115-1.891,4.636,4.636,0,0,1-1-3.33C213.638,277.766,213.981,277.3,214.122,277.341Z"/></g><path class="d" d="M217.717,258.255c-.3.483-2.172-.176-4.49-.385-2.314-.256-4.277.017-4.477-.517-.086-.254.337-.678,1.182-1.028a7.831,7.831,0,0,1,6.831.687C217.521,257.523,217.851,258.023,217.717,258.255Z"/><path class="d" d="M235.621,262.822c-.432.365-1.662-.372-3.253-.734-1.578-.417-3.009-.334-3.223-.858-.089-.252.218-.644.9-.933a4.829,4.829,0,0,1,5.218,1.283C235.727,262.15,235.816,262.64,235.621,262.822Z"/><path class="d" d="M210.922,237.354a13.853,13.853,0,0,0-10.611-4.455c-3.953.267-7.76,2.955-8.7,6.719-.613,2.447-.113,5.3-1.686,7.283-1.5,1.89-4.247,2.2-6.4,3.338a8.514,8.514,0,0,0-4.1,9.65c.919,3.125,3.681,5.865,3.268,9.08-.387,3.025-3.431,4.992-4.67,7.781-1.367,3.077-.3,6.8,1.793,9.483s5.071,4.562,7.982,6.378c2.272,1.418,4.715,2.886,7.4,2.857a8.019,8.019,0,0,0,7.148-5.306,10.909,10.909,0,0,0-1.089-9.047c-1.366-2.359-3.518-4.578-3.387-7.276.2-4.2,5.756-6.492,6.342-10.656.3-2.147-.811-4.218-1.677-6.223s-1.478-4.426-.288-6.246c1.546-2.365,5.081-2.307,7.536-3.757a6.4,6.4,0,0,0,3.079-5.975,6.605,6.605,0,0,0-4.128-5.4"/><path class="d" d="M210.1,233.885a9.762,9.762,0,0,0,9.228,11.852c2.216.07,4.784-.5,6.384,1.03,1.683,1.612,1.132,4.555,2.531,6.419,2,2.665,6.341,1.5,9.264,3.1,2.257,1.235,3.266,3.864,4.45,6.148s3.185,4.645,5.75,4.449a28.924,28.924,0,0,0,.43-6.639,9.729,9.729,0,0,0-2.522-6.028,35.834,35.834,0,0,1-2.7-2.459c-1.653-2.047-1.51-4.959-2.26-7.481a10.7,10.7,0,0,0-6.829-7.005c-2.684-.872-5.689-.658-8.219-1.909-1.87-.925-3.32-2.581-5.241-3.394-3.742-1.582-7.972.436-11.4,2.613"/><path class="k" d="M159.048,314.4a4.052,4.052,0,0,1-1.073-.346,6.358,6.358,0,0,1-2.466-2.078,7.158,7.158,0,0,1-1.339-4.892,9.517,9.517,0,0,1,3.042-5.993c.929-.875,2.042-1.591,3.1-2.426a6.634,6.634,0,0,0,2.5-3.2c.407-1.363.094-2.879,0-4.456a9.284,9.284,0,0,1,1.015-4.788,10.245,10.245,0,0,1,3.408-3.856,9.448,9.448,0,0,1,5.11-1.61c1.82-.1,3.657.1,5.459-.146a6.439,6.439,0,0,0,2.539-.848,5.076,5.076,0,0,0,1.806-1.975,23.963,23.963,0,0,0,1.555-5.349,11.341,11.341,0,0,1,.959-2.655,6.056,6.056,0,0,1,1.844-2.124,13.389,13.389,0,0,1,5.069-1.751,11.7,11.7,0,0,0,4.631-1.7,4.377,4.377,0,0,0,1.474-1.763,4.82,4.82,0,0,0,.383-2.22,17,17,0,0,0-1.075-4.352,10.753,10.753,0,0,1-.672-4.258,4.684,4.684,0,0,1,.635-1.978,4.216,4.216,0,0,1,1.428-1.388,9.439,9.439,0,0,1,3.473-1,25.925,25.925,0,0,0,3.117-.527,7.723,7.723,0,0,0,4.087-2.749,8.074,8.074,0,0,0,1.431-2.826c.186-.708.209-1.1.24-1.094a4.939,4.939,0,0,1-.139,1.119,7.792,7.792,0,0,1-1.371,2.924A7.879,7.879,0,0,1,205.049,247a25.675,25.675,0,0,1-3.146.574,9.19,9.19,0,0,0-3.331.988,3.864,3.864,0,0,0-1.853,3.089,10.391,10.391,0,0,0,.682,4.084,17.257,17.257,0,0,1,1.122,4.465,5.282,5.282,0,0,1-.411,2.435,4.858,4.858,0,0,1-1.619,1.958,12.107,12.107,0,0,1-4.815,1.8,13.01,13.01,0,0,0-4.875,1.681,7.253,7.253,0,0,0-2.594,4.488,24.062,24.062,0,0,1-1.6,5.47,5.592,5.592,0,0,1-1.989,2.17,6.941,6.941,0,0,1-2.743.919c-1.892.248-3.733.05-5.505.142a9.364,9.364,0,0,0-8.116,5.174,8.848,8.848,0,0,0-.985,4.547c.076,1.527.407,3.1-.044,4.6a7.013,7.013,0,0,1-2.664,3.39c-1.09.843-2.2,1.544-3.1,2.379a9.258,9.258,0,0,0-3,5.751,7,7,0,0,0,1.215,4.748,6.48,6.48,0,0,0,2.347,2.1C158.674,314.292,159.058,314.374,159.048,314.4Z"/><path class="k" d="M241.976,335.594a10.624,10.624,0,0,0,.875-.954A6.277,6.277,0,0,0,244,331.183a11,11,0,0,0-1.326-5.632c-.984-2.07-2.563-4.213-3.6-6.975a14.393,14.393,0,0,1-.027-9.454,14.006,14.006,0,0,1,2.637-4.648c1.205-1.4,2.684-2.579,3.846-4.063,1.132-1.449,1.994-3.4,1.425-5.261s-2.258-3.171-3.746-4.625A10.441,10.441,0,0,1,241.194,288a8.232,8.232,0,0,1-.916-3.161,14.791,14.791,0,0,1,1.091-6.533c.808-2.1,1.878-4.015,2.769-5.968a18.061,18.061,0,0,0,1.788-5.991,12.923,12.923,0,0,0-4.31-10.559,39.547,39.547,0,0,0-4.69-3.009,6.567,6.567,0,0,1-1.973-1.93,6.819,6.819,0,0,1-.842-2.531,6.113,6.113,0,0,0-.768-2.295,4.556,4.556,0,0,0-1.7-1.542,17.271,17.271,0,0,0-4.27-1.39,15.869,15.869,0,0,1-3.949-1.348,12.808,12.808,0,0,1-3-2.205,13.544,13.544,0,0,1-3.243-4.957,12.1,12.1,0,0,1-.773-3.667,9.066,9.066,0,0,1,.027-1.307,14.127,14.127,0,0,0,.935,4.9,13.511,13.511,0,0,0,3.256,4.819,12.579,12.579,0,0,0,2.955,2.121,15.588,15.588,0,0,0,3.881,1.284,17.455,17.455,0,0,1,4.379,1.4,4.96,4.96,0,0,1,1.861,1.669,6.5,6.5,0,0,1,.841,2.437,6.428,6.428,0,0,0,.795,2.377,6.148,6.148,0,0,0,1.852,1.788,38.944,38.944,0,0,1,4.749,3.026,13.39,13.39,0,0,1,4.5,10.963,18.509,18.509,0,0,1-1.825,6.165c-.9,1.974-1.966,3.894-2.754,5.938a14.321,14.321,0,0,0-1.061,6.3,7.721,7.721,0,0,0,.854,2.967,9.981,9.981,0,0,0,1.914,2.4c.738.724,1.524,1.408,2.23,2.179a6.922,6.922,0,0,1,1.636,2.67,5.147,5.147,0,0,1-.087,3.08,8.632,8.632,0,0,1-1.436,2.616c-1.219,1.541-2.706,2.712-3.879,4.068a13.614,13.614,0,0,0-2.575,4.488,14.043,14.043,0,0,0-.034,9.19c.99,2.7,2.546,4.865,3.519,6.972A11.1,11.1,0,0,1,244.2,331.2a6.24,6.24,0,0,1-1.268,3.507A3.81,3.81,0,0,1,241.976,335.594Z"/><path class="l" d="M230.721,323.709a31.2,31.2,0,0,1,8.61,22c-.258,13.682,1.947,38.5,1.947,38.5l37.851,23.134L268.45,423.7l-41.7-18.5L218,387.293Z"/><path class="l" d="M242.288,417.451s1.412-2.712-2.556-4.777l-6.431-.015-12.555-21.664,10.016-67.286L213.64,310.7l-37.894-3.371-13.242,68.1,16.927,30.944L213,420.18Z"/><path class="l" d="M182.435,307.832l.752-6.418a2.037,2.037,0,0,1,2.556-1.731c9.384,7.354,19.051,11.086,29.24,8.147a2.658,2.658,0,0,1,1.867,3.2l-3.962,16.086-10.37,3.1-13.691-2.68-6.392-11.82Z"/><path class="d" d="M215.251,312.262a6.3,6.3,0,0,1-1.214.738,21.829,21.829,0,0,1-3.585,1.477,24.238,24.238,0,0,1-23.919-5.4,21.889,21.889,0,0,1-2.6-2.873,6.383,6.383,0,0,1-.78-1.187,46.825,46.825,0,0,0,3.63,3.787,24.878,24.878,0,0,0,23.567,5.316A46.188,46.188,0,0,0,215.251,312.262Z"/><g class="m"><path d="M184.264,306.275a3.935,3.935,0,0,0,.467,3.772,11.418,11.418,0,0,0,2.872,2.717c3.673,2.732,7.492,5.45,11.9,6.7s9.562.785,12.938-2.307c.977-.9,1.738-2.571.722-3.422-.762-.639-1.9-.248-2.832.108a21.665,21.665,0,0,1-25.56-7.91"/></g><path class="l" d="M179.031,379.121l61.918,33.2-22.335,13.5-42.593-12.495c-22.591-5.977-28.76-15.363-28.537-25.047.081-3.528-.332-37.957,1.188-54.84,2.071-23.005,27.074-26.1,27.074-26.1L175.309,327l.282,24.015.848,22.037c2.26-1.13,2.825,3.108,2.825,3.108Z"/><path class="d" d="M176.021,375.68c-.144,0-.337-8.33-.43-18.6s-.054-18.609.09-18.611.336,8.328.43,18.606S176.165,375.678,176.021,375.68Z"/><path class="d" d="M178.812,380.254c-.071-.041.123-.412.219-1.044a3.465,3.465,0,0,0-2.268-3.884c-.6-.227-1.016-.24-1.017-.322-.008-.06.427-.186,1.123-.03a3.431,3.431,0,0,1,2.521,4.317C179.184,379.973,178.86,380.29,178.812,380.254Z"/><path class="n" d="M230.221,408.094"/><path class="d" d="M178.812,380.254c.016,0,.027.04.111.094s.2.135.361.232c.326.2.816.472,1.453.819,1.273.693,3.13,1.671,5.432,2.866l18.042,9.248,18.057,9.231,5.453,2.834,1.472.793a2.449,2.449,0,0,1,.5.308,2.472,2.472,0,0,1-.544-.214l-1.516-.706-5.528-2.686c-4.656-2.292-11.071-5.5-18.128-9.1S190.56,387.066,186,384.59,178.654,380.453,178.812,380.254Z"/><path class="d" d="M219.335,391.673a16.18,16.18,0,0,1-2.9-.7c-1.769-.506-4.2-1.259-6.855-2.165s-5.042-1.793-6.752-2.474a16.145,16.145,0,0,1-2.724-1.213,17.7,17.7,0,0,1,2.852.868l6.792,2.327,6.8,2.306A17.8,17.8,0,0,1,219.335,391.673Z"/><path class="d" d="M204.064,366.152a2.32,2.32,0,0,1-.3.733,11.682,11.682,0,0,1-1.143,1.83,15.807,15.807,0,0,1-2.164,2.37,17.015,17.015,0,0,1-6.867,3.733,15.847,15.847,0,0,1-3.166.526,11.657,11.657,0,0,1-2.157-.036,2.307,2.307,0,0,1-.779-.146c.007-.1,1.126.011,2.9-.184a18.1,18.1,0,0,0,3.067-.622,18.187,18.187,0,0,0,6.683-3.632,18.1,18.1,0,0,0,2.189-2.236C203.46,367.1,203.979,366.106,204.064,366.152Z"/><path class="d" d="M175.762,332.8c-.081.007-.21-1.393-.538-3.63a31.256,31.256,0,0,0-2.326-8.444A17.035,17.035,0,0,0,167.479,314a23.806,23.806,0,0,0-3.181-1.759,3.074,3.074,0,0,1,.963.241,11.114,11.114,0,0,1,2.426,1.214,16.292,16.292,0,0,1,5.684,6.817,27.906,27.906,0,0,1,2.219,8.616c.121,1.132.176,2.051.2,2.687A3.525,3.525,0,0,1,175.762,332.8Z"/><path class="d" d="M241.819,384.112a17.364,17.364,0,0,0-1.575,1.272,19.9,19.9,0,0,0-2.953,3.886,18.9,18.9,0,0,0-2,4.451c-.347,1.2-.352,1.987-.442,1.989a4.3,4.3,0,0,1,.084-2.076A15.339,15.339,0,0,1,236.843,389,15.906,15.906,0,0,1,240,385.112,3.4,3.4,0,0,1,241.819,384.112Z"/><g class="m"><path d="M232.592,408.451c2.057-3.95,1.55-8.742.39-13.042s-2.926-8.487-3.259-12.929c-.289-3.849.515-7.686,1.287-11.467s1.523-7.638,1.124-11.477-2.119-7.725-5.346-9.843a40.058,40.058,0,0,1,3.008,9.833,13.5,13.5,0,0,1-2.18,9.818c-1.062,1.4-2.51,2.548-3.2,4.165-.92,2.152-.783,4.587-1.466,6.745-.749,2.368-2.114,10.306-2.114,10.306-.089.435,2.352,4.927,4.767,8.131s5.338,6.085,7.088,9.7"/></g><path class="d" d="M232.745,408.185a1.551,1.551,0,0,1-.254-.3l-.68-.91L229.3,403.5l-8.748-12.367-.057-.081.02-.1c.971-4.772,2.075-10.2,3.244-15.945.125-.609.249-1.215.369-1.8l.016-.075.054-.055a19.535,19.535,0,0,0,5.711-13.622,18.305,18.305,0,0,0-3.964-10.778l-.037-.044,0-.052c-.161-2.55-.289-4.589-.381-6.049-.032-.664-.058-1.2-.078-1.608a2.619,2.619,0,0,1,0-.556,2.665,2.665,0,0,1,.086.55c.042.41.1.939.163,1.6.128,1.458.307,3.492.53,6.038l-.04-.1a18.408,18.408,0,0,1,4.182,10.975,17.611,17.611,0,0,1-1.385,7.253,20.825,20.825,0,0,1-4.417,6.753l.07-.13-.369,1.8c-1.187,5.739-2.309,11.166-3.3,15.935l-.037-.181,8.593,12.475,2.4,3.555.621.952A1.5,1.5,0,0,1,232.745,408.185Z"/><g class="m"><path d="M187.794,375.507c-.618-.482-1.583.274-1.543,1.057a2.474,2.474,0,0,0,1.362,1.8,10.345,10.345,0,0,0,6.221,1.24,11.936,11.936,0,0,0,7.268-2.972,7.883,7.883,0,0,0,2.454-7.246,1.193,1.193,0,0,0-.26-.583c-.5-.522-1.343.057-1.841.585a19.73,19.73,0,0,1-13.244,6.1"/></g><g class="m"><path d="M175.719,375.071a5.817,5.817,0,0,0-6.772,1.732,2.048,2.048,0,0,0-.408,2.22,1.646,1.646,0,0,0,1.763.6,4.627,4.627,0,0,0,1.721-.96q1.724-1.327,3.369-2.753a1.216,1.216,0,0,0,.385-.472.421.421,0,0,0-.181-.528"/></g><path class="d" d="M170.484,380.3c-.06-.015-.012-.509.3-1.243a7.118,7.118,0,0,1,4.537-3.969,2.322,2.322,0,0,1,1.271-.127,9.679,9.679,0,0,0-6.1,5.339Z"/><path class="e" d="M152.069,346.207a76.869,76.869,0,0,1,.022-8.929,76.5,76.5,0,0,1,.542-8.913,76.89,76.89,0,0,1-.022,8.93A76.473,76.473,0,0,1,152.069,346.207Z"/><path class="e" d="M156.519,360.155c-.143,0-.267-4.792-.275-10.7s.1-10.705.246-10.705.267,4.791.275,10.7S156.663,360.155,156.519,360.155Z"/><path class="e" d="M164.516,324.8a11.36,11.36,0,0,1,.088,2.434c-.012,1.5-.064,3.568-.154,5.85s-.2,4.35-.306,5.845a11.457,11.457,0,0,1-.279,2.419,11.187,11.187,0,0,1-.089-2.427c.012-1.5.064-3.57.154-5.857s.2-4.355.307-5.851A11.231,11.231,0,0,1,164.516,324.8Z"/><path class="e" d="M170.366,353.506a91.139,91.139,0,0,1,.014-13.785,91.491,91.491,0,0,1-.014,13.785Z"/><path class="e" d="M163.8,369.238a81,81,0,0,1,.651-12.974,81.312,81.312,0,0,1-.651,12.974Z"/><path class="e" d="M150.413,382.371a79.184,79.184,0,0,1-.221-12.81,78.884,78.884,0,0,1,.221,12.81Z"/><path class="e" d="M156.483,383.346a41.179,41.179,0,0,1,.5-9.243,41.346,41.346,0,0,1-.5,9.243Z"/><path class="e" d="M188.591,390.652a29.941,29.941,0,0,1-6-2.9A29.926,29.926,0,0,1,177.079,384c.084-.124,2.6,1.468,5.773,3.3S188.656,390.517,188.591,390.652Z"/><path class="o" d="M189.244,390.968"/><path class="e" d="M209.029,401.349a8.318,8.318,0,0,1-2.061-.852,45.22,45.22,0,0,1-8.963-5.9,8.266,8.266,0,0,1-1.6-1.556c.1-.118,2.7,2.053,6.189,4.338S209.1,401.208,209.029,401.349Z"/><path class="e" d="M210.313,407.214a27.221,27.221,0,0,1-4.909-2,27.1,27.1,0,0,1-4.689-2.475,27.145,27.145,0,0,1,4.91,2A27.073,27.073,0,0,1,210.313,407.214Z"/><path class="e" d="M224.145,412c-.086.127-2.37-1.308-5.333-2.8s-5.471-2.482-5.419-2.626A29.742,29.742,0,0,1,224.145,412Z"/><path class="e" d="M220.705,418.863a26.1,26.1,0,0,1-3.6-1.972,26.106,26.106,0,0,1-3.536-2.084,18.669,18.669,0,0,1,7.135,4.056Z"/><path class="e" d="M172.482,377.51a33.044,33.044,0,0,1-.328-8.271,33.049,33.049,0,0,1,.328,8.271Z"/><path class="e" d="M202.974,350.108A64.742,64.742,0,0,1,201.5,338.6a64.77,64.77,0,0,1,1.477,11.513Z"/><path class="e" d="M206.324,367.13a70.977,70.977,0,0,1-.178-12.162,71.251,71.251,0,0,1,.178,12.162Z"/><path class="e" d="M186.192,369.561a28.544,28.544,0,0,1-.811-11.352c.151.007.125,2.554.354,5.68S186.341,369.532,186.192,369.561Z"/><path class="e" d="M193.081,386.275a27.893,27.893,0,0,1-.906-10.713c.15,0,.2,2.408.451,5.357S193.229,386.247,193.081,386.275Z"/><path class="e" d="M196.055,362.263a65.674,65.674,0,0,1,0-11.676,65.422,65.422,0,0,1,0,11.676Z"/><path class="e" d="M187.784,342.154a36.857,36.857,0,0,1,0,8.757,37,37,0,0,1,0-8.757Z"/><path class="e" d="M196.243,327.4a29.21,29.21,0,0,1,.161,7.784,29.212,29.212,0,0,1-.161-7.784Z"/><path class="e" d="M211.749,343.616a66.289,66.289,0,0,1-.783-8.252,66.33,66.33,0,0,1-.264-8.285,66.132,66.132,0,0,1,.784,8.252A65.966,65.966,0,0,1,211.749,343.616Z"/><path class="e" d="M216.814,372.8a82.125,82.125,0,0,1-.261-9.244,82.111,82.111,0,0,1,.261-9.244,82.55,82.55,0,0,1,.26,9.244A82.564,82.564,0,0,1,216.814,372.8Z"/><path class="e" d="M207.732,387.725a80.745,80.745,0,0,1,0-12.974,81.052,81.052,0,0,1,0,12.974Z"/><path class="e" d="M216,396.482a12.233,12.233,0,0,1,0-5.027,12.28,12.28,0,0,1,0,5.027Z"/><path class="e" d="M221.517,335.181a67.506,67.506,0,0,1,0,11.838,67.246,67.246,0,0,1,0-11.838Z"/><path class="e" d="M215.84,314.585a59.507,59.507,0,0,1,.261,7.865,59.506,59.506,0,0,1-.261,7.865,59.829,59.829,0,0,1-.26-7.865A59.829,59.829,0,0,1,215.84,314.585Z"/><path class="e" d="M205.137,316.693a55.2,55.2,0,0,1,0,10.7,55.205,55.205,0,0,1,0-10.7Z"/><path class="e" d="M229.694,341.136a45.171,45.171,0,0,1-.229-13.032c.149.008.1,2.924.162,6.516S229.843,341.123,229.694,341.136Z"/><path class="e" d="M234.39,352.079a83.945,83.945,0,0,1,0-13.229,84.27,84.27,0,0,1,0,13.229Z"/><path class="e" d="M237.284,371.3a89.26,89.26,0,0,1,0-13.642,89.6,89.6,0,0,1,0,13.642Z"/><path class="e" d="M230.669,381.843a100.762,100.762,0,0,1,0-14.468,100.386,100.386,0,0,1,0,14.468Z"/><path class="e" d="M225.5,394.039a112.183,112.183,0,0,1,0-15.3,112.617,112.617,0,0,1,0,15.3Z"/><path class="e" d="M236.87,387.631a38.11,38.11,0,0,1,0-8.888,37.964,37.964,0,0,1,0,8.888Z"/><path class="e" d="M247.978,409.256a63.855,63.855,0,0,1-7.625-2.906,63.935,63.935,0,0,1-7.425-3.387,64.373,64.373,0,0,1,7.626,2.907A64.253,64.253,0,0,1,247.978,409.256Z"/><path class="e" d="M261.238,405.264a70.77,70.77,0,0,1-8.155-2.632,70.575,70.575,0,0,1-7.98-3.122,70.766,70.766,0,0,1,8.155,2.632A70.438,70.438,0,0,1,261.238,405.264Z"/><path class="e" d="M251.91,396.408a34.956,34.956,0,0,1-5.47-2.5,34.943,34.943,0,0,1-5.234-2.962,34.834,34.834,0,0,1,5.471,2.5A34.8,34.8,0,0,1,251.91,396.408Z"/><path class="e" d="M163.865,314.521c.1.118-1.483,1.56-3.053,3.655s-2.537,4.005-2.678,3.939a15.348,15.348,0,0,1,5.731-7.594Z"/><path class="e" d="M177.551,318.318A20.13,20.13,0,0,1,176.235,312a20.145,20.145,0,0,1,1.316,6.321Z"/><path class="d" d="M234.792,421.635l66.148-32.13a22.011,22.011,0,0,1,21.1,1.023h0a22.011,22.011,0,0,1,5.247,33.075l-28.656,33.538-73.172,10.12-6.849-41.444,8.132-12.6Z"/><path class="k" d="M274.748,435.353a4.072,4.072,0,0,1-.81.668c-.539.4-1.334.965-2.327,1.645-1.986,1.36-4.773,3.174-7.919,5.07s-6.055,3.512-8.185,4.631c-1.065.56-1.934,1-2.542,1.289a4.137,4.137,0,0,1-.969.4,4.077,4.077,0,0,1,.873-.582l2.46-1.433c2.082-1.2,4.954-2.864,8.094-4.755s5.952-3.653,7.986-4.932l2.416-1.506A4.1,4.1,0,0,1,274.748,435.353Z"/><path class="d" d="M135.042,437.82s6.569-31.723,9.947-36.6,10.509-15.8,19.517-16.93,27.423,9.679,30.777,13.928c8.482,10.745,61.989,67.4,61.335,66.65l-17.247,11.9-18.223-5.775-52.3,0S132.618,464.865,135.042,437.82Z"/><path class="k" d="M221.148,470.987a4.607,4.607,0,0,1-.8-.044,16.562,16.562,0,0,1-2.272-.36,42.757,42.757,0,0,1-7.961-2.814A119.081,119.081,0,0,1,186.55,453.02a198.786,198.786,0,0,1-21.079-18.166A52.822,52.822,0,0,1,160,428.427a16.776,16.776,0,0,1-1.225-1.944,4.733,4.733,0,0,1-.373-.707,4.52,4.52,0,0,1,.464.654,21.269,21.269,0,0,0,1.3,1.878,58.632,58.632,0,0,0,5.571,6.288,217.886,217.886,0,0,0,21.134,18.01,125.3,125.3,0,0,0,23.4,14.828,46.3,46.3,0,0,0,7.856,2.952,21.071,21.071,0,0,0,2.236.453A4.536,4.536,0,0,1,221.148,470.987Z"/><path class="k" d="M197.71,463.906a4.407,4.407,0,0,1-.677.414l-1.993,1.1c-.868.475-2,.909-3.281,1.489-.638.3-1.367.5-2.115.773-.758.243-1.538.576-2.4.771a47.594,47.594,0,0,1-12.275,1.827,50.935,50.935,0,0,1-15.065-1.946,46.679,46.679,0,0,1-13.724-6.511c-.936-.709-1.884-1.342-2.74-2.063a19.78,19.78,0,0,1-2.282-2.31,27.764,27.764,0,0,1-3.22-4.826,25.269,25.269,0,0,1-2.713-7.911,14.976,14.976,0,0,1-.2-2.27,4.47,4.47,0,0,1,.021-.794c.062,0,.029,1.1.38,3.03a26.282,26.282,0,0,0,2.838,7.771,27.9,27.9,0,0,0,3.224,4.72,19.51,19.51,0,0,0,2.249,2.24c.839.7,1.791,1.325,2.717,2.019a47.016,47.016,0,0,0,13.6,6.4,51.385,51.385,0,0,0,14.911,1.966,48.535,48.535,0,0,0,12.185-1.7c.862-.181,1.639-.5,2.4-.73.746-.262,1.475-.444,2.113-.73,1.283-.55,2.421-.955,3.3-1.4l2.032-1.009A4.619,4.619,0,0,1,197.71,463.906Z"/><path class="k" d="M255.074,463c-.105.1-13.089-13.572-29-30.53s-28.723-30.79-28.618-30.889,13.085,13.569,29,30.533S255.178,462.9,255.074,463Z"/><path class="p" d="M201.088,462.762s-11.826,4.814-10.591,10.328,7.335,8.067,13.5,7.481,17.517-5.673,17.517-5.673l5.846-3.1s-7.107-.11-10.693-1.395C212.512,468.918,201.088,462.762,201.088,462.762Z"/><path class="k" d="M215.716,472.427l41.957,6.6,88.654-8.833-48.6-13.321-81.984,11.786a1.907,1.907,0,0,0-1.635,1.886h0A1.907,1.907,0,0,0,215.716,472.427Z"/><path class="k" d="M268.974,412.243,258.81,472.3a5.2,5.2,0,0,0,5.645,6.045l81.872-8.157a5.2,5.2,0,0,0,4.6-4.244L362,405.147a5.2,5.2,0,0,0-5.674-6.1l-82.78,8.895A5.2,5.2,0,0,0,268.974,412.243Z"/><path class="d" d="M214.106,470.544a.8.8,0,0,1,.223.011l.646.079,2.491.348,9.246,1.38,31.332,4.85-.292.211c.515-3.134,1.052-6.394,1.6-9.725,2.469-14.775,4.7-28.148,6.327-37.874.83-4.812,1.5-8.72,1.977-11.467.239-1.322.427-2.364.563-3.113.065-.331.118-.6.159-.808a1.126,1.126,0,0,1,.072-.272,1.085,1.085,0,0,1-.019.281c-.028.213-.064.481-.108.816-.113.753-.269,1.8-.467,3.129-.435,2.753-1.052,6.67-1.813,11.494-1.586,9.732-3.767,23.114-6.177,37.9-.551,3.33-1.09,6.59-1.609,9.723l-.042.252-.251-.04-31.3-5.025-9.222-1.532-2.477-.435-.64-.124A.78.78,0,0,1,214.106,470.544Z"/><path class="h" d="M320.136,438.259c0,3.26-2.355,5.9-5.261,5.9s-5.262-2.642-5.262-5.9,2.356-5.9,5.262-5.9S320.136,435,320.136,438.259Z"/><path class="d" d="M196.773,274.7c2.115,3.13,4.255,6.311,5.438,9.9s1.307,7.7-.53,11c-1.528,2.747-4.346,4.891-4.817,8-.8,5.287,5.548,9.2,6,14.531.258,3.037-1.476,5.881-3.443,8.209s-4.273,4.455-5.553,7.221-1.206,6.484,1.16,8.4c-2.922-.816-5.945,2.279-8.826,1.323-2.451-.814-3.1-3.916-3.343-6.487a6.213,6.213,0,0,0-1.094,5.5,15.327,15.327,0,0,1-2.5-17.538c1.748-3.238,4.778-6.111,4.732-9.79-.051-4.027-3.795-7.043-4.853-10.93-.724-2.661-.124-5.5.679-8.135s1.818-5.264,1.929-8.02-.139-3.862-2.507-5.277"/><path class="k" d="M189.421,341.387a.7.7,0,0,1-.221-.035,2.727,2.727,0,0,1-.624-.2,4.318,4.318,0,0,1-1.9-1.642,6.609,6.609,0,0,1-1.048-3.83,9.646,9.646,0,0,1,1.828-4.936c1.076-1.646,2.566-3.2,3.955-4.983,1.352-1.774,2.718-3.937,2.712-6.462.017-2.527-1.366-4.948-2.911-7.226s-3.368-4.717-3.912-7.758a7.08,7.08,0,0,1,.633-4.428,14.645,14.645,0,0,1,2.612-3.447,29.9,29.9,0,0,0,2.724-3.034,7.956,7.956,0,0,0,1.564-3.449,4.992,4.992,0,0,0-.775-3.426,24.25,24.25,0,0,0-2.168-2.75,11.01,11.01,0,0,1-2.71-5.767,10.391,10.391,0,0,1,.58-5.235,10.672,10.672,0,0,1,2.106-3.379,10.024,10.024,0,0,1,1.921-1.621,5.849,5.849,0,0,1,.564-.329.735.735,0,0,1,.2-.092,13.745,13.745,0,0,0-2.538,2.178,10.728,10.728,0,0,0-1.983,3.345,10.172,10.172,0,0,0-.489,5.079,10.668,10.668,0,0,0,2.676,5.542,24.177,24.177,0,0,1,2.228,2.79,5.46,5.46,0,0,1,.86,3.732,8.4,8.4,0,0,1-1.637,3.675,30.107,30.107,0,0,1-2.756,3.093,14.19,14.19,0,0,0-2.517,3.324,6.565,6.565,0,0,0-.584,4.115c.509,2.87,2.261,5.261,3.821,7.558a24.372,24.372,0,0,1,2.073,3.6,9.561,9.561,0,0,1,.9,3.915,8.508,8.508,0,0,1-.916,3.711,16.778,16.778,0,0,1-1.934,3.013c-1.43,1.806-2.918,3.324-3.991,4.925a9.416,9.416,0,0,0-1.843,4.741,6.466,6.466,0,0,0,.928,3.709,4.364,4.364,0,0,0,1.77,1.657C189.124,341.313,189.431,341.35,189.421,341.387Z"/><path class="g" d="M259.582,432.653c-2.887-2.6.356-5.62-4.863-10.548-3.9-3.679-11.287-9.989-25.6-14.766l-8.961,16.011,15.6,5.035-.151,10.177a3.723,3.723,0,0,0,3.766,3.777l8.1-.1s-2.363,9.99-1.971,10.6a2.142,2.142,0,0,0,3.816-.411c.318-1.347,6.984-17.488,6.984-17.488s4.354,3.761,4.972,1.61C261.276,436.556,262.469,435.247,259.582,432.653Z"/><path class="j" d="M237.795,442.585c-.033-.059.379-.3.913-.832a6.485,6.485,0,0,0,1.856-5.33,11.368,11.368,0,0,1-.2-1.219,2.474,2.474,0,0,1,.473,1.174,5.89,5.89,0,0,1-1.943,5.581A2.471,2.471,0,0,1,237.795,442.585Z"/><path class="j" d="M243,442.249a8.335,8.335,0,0,0,1.7-6.619,2.1,2.1,0,0,1,.35,1.01,6.232,6.232,0,0,1-1.258,4.893C243.371,442.048,243.03,442.283,243,442.249Z"/><path class="j" d="M249.28,436.39c.047-.007.15.323.162.878a5.349,5.349,0,0,1-1.655,3.883c-.409.376-.718.53-.746.491a7.891,7.891,0,0,0,2.239-5.252Z"/><path class="q" d="M461.607,389.616c.9-3.116,2.825-6.129,5.8-7.413,3.1-1.335,6.688-.575,9.859.577s6.285,2.694,9.653,2.9,7.168-1.39,8.177-4.609c.948-3.027-.877-6.255-3.163-8.455a19.956,19.956,0,0,0-32.7,7.849"/><path class="p" d="M434.926,403.144c-4.941-4.693-4.694-12.864-2.229-19.218s7.844-11.232,13.852-14.448a43.872,43.872,0,0,1,38.233-1.239,18.147,18.147,0,0,0-14.672,8.616c-2.708,4.5-3.309,9.954-5.546,14.7a23.146,23.146,0,0,1-29.638,11.586"/><path class="f" d="M432.551,374.945c-5.47-6.457-6.2-16.823-5.392-25.247s2.758-16.9,1.429-25.26c-.787-4.951-2.708-9.679-3.357-14.65s.271-10.594,4.123-13.8c4.427-3.688,11.4-2.818,16.005.645s7.274,8.9,9.224,14.326c4.284,11.913,5.857,25.123,2.337,37.284s-11.777,23.034-23.893,26.705"/><path class="d" d="M429.926,427.924a4.576,4.576,0,0,1-.021-.744c.007-.488,0-1.208.041-2.134.07-1.852.248-4.531.663-7.82a104.424,104.424,0,0,1,2.1-11.452,52.8,52.8,0,0,1,5.226-13.26,55.3,55.3,0,0,1,8.54-11.417,54.4,54.4,0,0,1,8.953-7.445c1.366-.945,2.688-1.662,3.826-2.326,1.166-.613,2.185-1.116,3.019-1.518l1.968-.828a4.729,4.729,0,0,1,.7-.26,4.476,4.476,0,0,1-.661.344l-1.928.9c-.82.426-1.823.949-2.972,1.58-1.121.682-2.424,1.414-3.771,2.371a56.267,56.267,0,0,0-17.276,18.817c-5.03,8.8-6.407,18.049-7.406,24.533-.454,3.274-.68,5.942-.8,7.787q-.08,1.338-.125,2.127A4.636,4.636,0,0,1,429.926,427.924Z"/><path class="q" d="M382.743,349.471c-10.121,6.108-10.089,11.666-8.4,16.912s7.9,8.891,13.052,6.926c2.911-1.11,5.02-3.641,6.821-6.183s3.493-5.264,6.018-7.09,6.183-2.525,8.719-.715"/><path class="l" d="M375.166,356.167c2.646-3.656,9.184-4.715,13.312-2.891s7.153,5.444,9.859,9.055,5.341,7.426,9.091,9.939,8.986,3.424,12.723.892a10.936,10.936,0,0,0,4.322-7.484,24.9,24.9,0,0,0-.6-8.825c-.893-4.244-2.351-8.677-5.748-11.374-3.785-3.006-9.038-3.148-13.87-2.99-5.543.182-11.17.6-16.373,2.519s-10.512,6.071-12.721,11.159"/><path class="d" d="M421.514,419.819a.813.813,0,0,1-.027-.223l-.034-.653c-.021-.61-.051-1.449-.088-2.512-.063-2.219-.154-5.365-.265-9.238-.122-3.9-.281-8.542-.563-13.691s-.67-10.809-1.451-16.7a53.8,53.8,0,0,0-1.677-8.482,44.1,44.1,0,0,0-3.1-7.421,42.855,42.855,0,0,0-3.914-6.142,40.037,40.037,0,0,0-4.272-4.691,31.448,31.448,0,0,0-7.575-5.164c-.495-.226-.925-.448-1.313-.606l-.989-.383-.606-.245a.844.844,0,0,1-.2-.1.822.822,0,0,1,.217.055l.622.2,1.008.344c.395.145.834.356,1.337.571a30.29,30.29,0,0,1,7.716,5.088,39.407,39.407,0,0,1,4.354,4.7,42.4,42.4,0,0,1,3.985,6.176,43.954,43.954,0,0,1,3.157,7.485,53.5,53.5,0,0,1,1.7,8.552c.785,5.915,1.154,11.585,1.42,16.739s.384,9.8.466,13.7.111,7.061.122,9.243c0,1.063,0,1.9,0,2.514,0,.265-.008.48-.011.653A.829.829,0,0,1,421.514,419.819Z"/><path class="d" d="M425.156,424.392a29.129,29.129,0,0,1-1.109-4.346,45.634,45.634,0,0,1-.463-12.211,81.176,81.176,0,0,1,3.856-17.717c2.077-6.511,4.9-13.475,7.306-20.959a96.215,96.215,0,0,0,2.906-11.089,98.666,98.666,0,0,0,1.436-10.581,154.756,154.756,0,0,0,.322-18.094c-.175-5.155-.449-9.322-.62-12.2-.083-1.418-.149-2.53-.2-3.317-.017-.36-.03-.645-.04-.864a.148.148,0,1,1,.046,0c.021.218.049.5.085.86.066.786.16,1.9.28,3.312.225,2.877.548,7.043.764,12.2a149.263,149.263,0,0,1-.227,18.14,97.306,97.306,0,0,1-1.416,10.632,95.365,95.365,0,0,1-2.91,11.142c-2.417,7.508-5.247,14.463-7.34,20.95a82.434,82.434,0,0,0-3.935,17.617,47.132,47.132,0,0,0,.319,12.151c.248,1.418.476,2.515.676,3.247.085.35.152.627.2.839A1.466,1.466,0,0,1,425.156,424.392Z"/><path class="k" d="M450.248,428.966H402.726l-1.085-9.147h48.607Z"/><path class="k" d="M407.825,427.924l5.941,27.44h25.823l5.559-27.44Z"/><path class="k" d="M450.247,428.965c0,.126-10.449.2-23.334.161s-23.335-.166-23.334-.291,10.446-.2,23.335-.161S450.247,428.841,450.247,428.965Z"/><path class="d" d="M442.091,442.509a19.618,19.618,0,0,0-4.185-2.4,14.807,14.807,0,0,0-5.089-1.021,17.885,17.885,0,0,0-6.257,1.148c-2.166.732-4.189,1.585-6.159,2.054a14.678,14.678,0,0,1-5.323.161,10.969,10.969,0,0,1-3.421-1.084,6.6,6.6,0,0,1-.825-.524c-.178-.134-.267-.211-.258-.223.026-.036.406.235,1.161.589a11.986,11.986,0,0,0,3.388.925,14.964,14.964,0,0,0,5.185-.25c1.9-.476,3.925-1.338,6.107-2.077a17.783,17.783,0,0,1,6.413-1.136,14.554,14.554,0,0,1,5.2,1.142,13.454,13.454,0,0,1,3.1,1.807,8.074,8.074,0,0,1,.738.636C442.022,442.411,442.1,442.5,442.091,442.509Z"/><path class="g" d="M441.73,444.342a20.591,20.591,0,0,0-4.019-2.367,13.626,13.626,0,0,0-4.907-1.011,17.658,17.658,0,0,0-6.053,1.089c-2.094.7-4.058,1.511-5.935,2.016a15.233,15.233,0,0,1-5.115.574,8.643,8.643,0,0,1-3.353-.9,5.988,5.988,0,0,1-.8-.506c-.172-.13-.258-.2-.248-.217.025-.037.392.229,1.124.564a9.22,9.22,0,0,0,3.3.737,15.6,15.6,0,0,0,4.984-.657c1.837-.517,3.786-1.336,5.9-2.044a17.535,17.535,0,0,1,6.206-1.076,13.432,13.432,0,0,1,5.022,1.133,13.251,13.251,0,0,1,2.966,1.8,8.154,8.154,0,0,1,.708.621C441.665,444.246,441.741,444.33,441.73,444.342Z"/><path class="g" d="M442.562,440.69a22.536,22.536,0,0,0-4.3-2.532,15.788,15.788,0,0,0-5.216-1.255,16.864,16.864,0,0,0-6.456,1.138,58.254,58.254,0,0,1-6.377,2.083,16.253,16.253,0,0,1-5.5.009,12.354,12.354,0,0,1-3.531-1.118,6.439,6.439,0,0,1-.857-.532c-.185-.138-.277-.216-.268-.228.026-.037.418.244,1.2.6a13.638,13.638,0,0,0,3.5.96,16.6,16.6,0,0,0,5.368-.1,64.489,64.489,0,0,0,6.311-2.1,16.829,16.829,0,0,1,6.627-1.126,15.984,15.984,0,0,1,8.49,3.286,8.481,8.481,0,0,1,.761.658C442.491,440.59,442.572,440.678,442.562,440.69Z"/><path class="d" d="M450.667,429.005c0,.125-10.69.226-23.873.226s-23.876-.1-23.876-.226,10.687-.227,23.876-.227S450.667,428.88,450.667,429.005Z"/></g></svg>