<svg xmlns="http://www.w3.org/2000/svg" xmlns:xlink="http://www.w3.org/1999/xlink" width="69" height="60" viewBox="0 0 69 60"><defs><style>.a{fill:#fff;opacity:0.7;}.b{clip-path:url(#a);}.c{fill:none;stroke:#8c8d8d;stroke-miterlimit:10;}</style><clipPath id="a"><rect class="a" width="69" height="60"/></clipPath></defs><g class="b"><g transform="translate(4807.277 11139.835)"><path class="c" d="M57.595,277.735a26.324,26.324,0,0,1-14.014-3.619,27.982,27.982,0,0,1-5.04-3.74,27.755,27.755,0,0,1-8.715-17.55,28.516,28.516,0,0,1,2.13-14.23,29.032,29.032,0,0,1,4.468-7.128,27.315,27.315,0,0,1,8.923-6.885,27.944,27.944,0,0,1,7.832-2.439,29.534,29.534,0,0,1,6.468-.217,24.883,24.883,0,0,1,8.871,2.25,29.364,29.364,0,0,1,6.234,3.795,28.263,28.263,0,0,1,7.066,8.578,27.571,27.571,0,0,1,3.052,9.459,31.759,31.759,0,0,1,.078,6.668,27.023,27.023,0,0,1-2.273,8.673A26.549,26.549,0,0,1,79.285,267a27.51,27.51,0,0,1-10.144,8.159,26.889,26.889,0,0,1-7.533,2.3A22.515,22.515,0,0,1,57.595,277.735Z" transform="translate(-4830.551 -11359.218)"/><g transform="translate(-4782.924 -11127.269)"><path class="c" d="M104.3,253.828a4.311,4.311,0,0,0-.6-2.337,7.856,7.856,0,0,0-2.113-2.978,8.172,8.172,0,0,0-5.9-2.5c-.255.012-.5,0-.754,0a8.2,8.2,0,0,0-3.494.486,10.039,10.039,0,0,0-4.7,3.927,6.27,6.27,0,0,0-1.091,2.539,16.042,16.042,0,0,0,.8,7.058c.557,1.685,1.126,3.357,1.706,5.03.557,1.6,1.126,3.215,1.718,4.8.638,1.672,1.335,3.333,1.973,5.006.894,2.313,1.811,4.614,2.786,6.892.07.154.093.3.3.3.186,0,.244-.107.313-.273.7-1.7,1.428-3.381,2.089-5.089,1.01-2.622,2.113-5.208,3.053-7.865.638-1.839,1.37-3.642,1.95-5.5.441-1.411.882-2.835,1.312-4.247a12.378,12.378,0,0,0,.638-4.5A3.242,3.242,0,0,1,104.3,253.828Zm-9.379,5.564a4.267,4.267,0,0,1-4.469-4.354,4.488,4.488,0,0,1,8.973-.012A4.252,4.252,0,0,1,94.916,259.391Z" transform="translate(-85.537 -246.001)"/></g></g></g></svg>