<?xml version="1.0" encoding="utf-8"?>
<!-- Generator: Adobe Illustrator 19.0.0, SVG Export Plug-In . SVG Version: 6.00 Build 0)  -->
<svg version="1.1" id="Layer_1" xmlns="http://www.w3.org/2000/svg" xmlns:xlink="http://www.w3.org/1999/xlink" x="0px" y="0px"
	 viewBox="-271 367 69 60" style="enable-background:new -271 367 69 60;" xml:space="preserve">
<style type="text/css">
	.st0{clip-path:url(#SVGID_2_);fill:none;stroke:#0033CC;stroke-miterlimit:10;}
</style>
<g>
	<defs>
		<rect id="SVGID_1_" x="-271" y="367" width="69" height="60"/>
	</defs>
	<clipPath id="SVGID_2_">
		<use xlink:href="#SVGID_1_"  style="overflow:visible;"/>
	</clipPath>
	<path class="st0" d="M-236.7,425.4c-4.9,0.1-9.8-1.1-14-3.6c-1.8-1.1-3.5-2.3-5-3.7c-4.9-4.6-8-10.8-8.7-17.6
		c-0.5-4.8,0.2-9.7,2.1-14.2c1.1-2.6,2.6-5,4.5-7.1c2.5-2.9,5.5-5.2,8.9-6.9c2.5-1.2,5.1-2,7.8-2.4c2.1-0.3,4.3-0.4,6.5-0.2
		c3.1,0.2,6.1,1,8.9,2.3c2.2,1,4.3,2.3,6.2,3.8c2.9,2.4,5.3,5.3,7.1,8.6c1.6,2.9,2.6,6.1,3.1,9.5c0.3,2.2,0.3,4.4,0.1,6.7
		c-0.3,3-1,5.9-2.3,8.7c-0.9,2-2,3.9-3.4,5.6c-2.7,3.5-6.2,6.3-10.1,8.2c-2.4,1.1-4.9,1.9-7.5,2.3
		C-234,425.3-235.3,425.4-236.7,425.4z"/>
	<path class="st0" d="M-227.9,387.4c0-0.8-0.2-1.6-0.6-2.3c-0.5-1.1-1.2-2.2-2.1-3c-1.5-1.6-3.7-2.5-5.9-2.5c-0.3,0-0.5,0-0.8,0
		c-1.2-0.1-2.4,0.1-3.5,0.5c-1.9,0.8-3.6,2.2-4.7,3.9c-0.5,0.8-0.9,1.6-1.1,2.5c-0.3,2.4,0,4.8,0.8,7.1c0.6,1.7,1.1,3.4,1.7,5
		c0.6,1.6,1.1,3.2,1.7,4.8c0.6,1.7,1.3,3.3,2,5c0.9,2.3,1.8,4.6,2.8,6.9c0.1,0.2,0.1,0.3,0.3,0.3c0.2,0,0.2-0.1,0.3-0.3
		c0.7-1.7,1.4-3.4,2.1-5.1c1-2.6,2.1-5.2,3.1-7.9c0.6-1.8,1.4-3.6,1.9-5.5c0.4-1.4,0.9-2.8,1.3-4.2c0.5-1.4,0.7-3,0.6-4.5
		C-227.9,387.9-227.9,387.6-227.9,387.4z M-237.3,393c-2.4,0.1-4.4-1.7-4.5-4.1c0-0.1,0-0.2,0-0.3c0.1-2.5,2.1-4.4,4.6-4.4
		c2.4,0.1,4.3,2,4.4,4.4c0.1,2.3-1.8,4.3-4.1,4.4C-237,393-237.1,393-237.3,393L-237.3,393z"/>
</g>
</svg>
