<svg xmlns="http://www.w3.org/2000/svg" xmlns:xlink="http://www.w3.org/1999/xlink" width="488.283" height="484.139" viewBox="0 0 488.283 484.139"><defs><style>.a{fill:#efeff4;}.b{fill:#d7d9e0;}.c,.e,.z{fill:#fff;}.c{opacity:0.5;}.d{fill:#c6c9d3;}.e{opacity:0.47;}.f{fill:url(#a);}.g{fill:#a8abb2;}.h{fill:#74767b;}.i{fill:#5c5e61;}.j{fill:#888b8f;}.k{fill:#e8e8ef;}.l{fill:#333435;}.m{fill:#00318c;}.n{fill:#002872;}.o{fill:#0048cd;}.p{fill:#004dda;}.q{fill:#0041b8;}.r{fill:url(#b);}.s{fill:url(#c);}.t{fill:#48494b;}.u{fill:url(#d);}.v{fill:url(#e);}.w{fill:url(#f);}.x{fill:url(#g);}.y{fill:url(#h);}</style><linearGradient id="a" x1="0.535" y1="0.323" x2="0.077" y2="2.674" gradientUnits="objectBoundingBox"><stop offset="0" stop-color="#979aa0"/><stop offset="1" stop-color="#979aa0"/></linearGradient><linearGradient id="b" x1="0.729" y1="-0.147" x2="1.48" y2="-2.858" gradientUnits="objectBoundingBox"><stop offset="0" stop-color="#fff"/><stop offset="1" stop-color="#efeff4"/></linearGradient><linearGradient id="c" x1="0.746" y1="-0.234" x2="2.327" y2="-7.293" xlink:href="#b"/><linearGradient id="d" x1="0.521" y1="-0.036" x2="0.487" y2="0.972" gradientUnits="objectBoundingBox"><stop offset="0" stop-color="#efeff4"/><stop offset="1" stop-color="#fff"/></linearGradient><linearGradient id="e" x1="0.185" y1="0.089" x2="-0.354" y2="-0.485" xlink:href="#b"/><linearGradient id="f" x1="-0.505" y1="-0.431" x2="-2.716" y2="-2.366" xlink:href="#b"/><linearGradient id="g" x1="-0.163" y1="0.02" x2="1.141" y2="1.147" xlink:href="#b"/><linearGradient id="h" x1="-2.18" y1="-2.135" x2="0.562" y2="0.835" xlink:href="#b"/></defs><path class="a" d="M800.221,669.075C751.03,782.663,621.181,831.452,519.443,823.133c-27.779-2.271-83.67-6.841-127.311-47.612-83.809-78.3-70.9-241.958,9.328-338.314,10.332-12.409,81.847-95.544,193.291-94.432,81.593.815,138.862,46.348,145.826,52.02a222.857,222.857,0,0,1,45.686,51.21C827.349,509.482,830.961,598.094,800.221,669.075Z" transform="translate(-335 -342.766)"/><g transform="translate(19.31 0.241)"><path class="b" d="M570.771,624.384S530.342,445.3,441,347.407c-6.005-6.581-17.306-4.083-19.9,4.425C403.735,408.727,369.12,581.354,570.771,624.384Z" transform="translate(-407.37 -343.668)"/><path class="c" d="M636.184,772.179c.445.429-.17,1.1-.672.736C617,759.421,545.695,693.168,521.553,561.469a.355.355,0,0,1,.687-.168C530.741,591.838,565.738,704.446,636.184,772.179Z" transform="translate(-491.082 -503.055)"/></g><g transform="translate(2.654 93.05)"><path class="d" d="M347.3,692.487c-3.127,33.111-17.63,237.138,92.479,298.852a5.135,5.135,0,0,0,7.635-4.262c1.039-24.3-.141-101.378-47.327-191-34.044-64.66-46.687-93.889-50.7-103.9A1.086,1.086,0,0,0,347.3,692.487Z" transform="translate(-344.946 -691.501)"/><path class="e" d="M493.406,1181.974a1.189,1.189,0,0,1-.63-.522c-30.357-52.083-51.733-109.486-64.319-148.47-13.522-41.883-20.741-74.432-20.211-76.318a1.192,1.192,0,0,1,2.324.512c0,4.551,26.608,124.154,84.266,223.077a1.192,1.192,0,0,1-1.43,1.723ZM410.542,957.3v0Z" transform="translate(-391.336 -885.274)"/></g><g transform="translate(63.593 125.146)"><path class="f" d="M975.74,811.788V1111.2l-11.453-4.927c-29.472-12.787-105.79-21.38-189.846-21.38-65.448,0-126.186,5.211-163.788,13.556-10.688,2.373-19.44,4.993-25.964,7.824l-11.357,4.927V811.788l11.309,4.928C614.107,829.5,690.357,838.1,774.406,838.1c44.848,0,87.541-2.445,122.1-6.669,30.214-3.694,54.043-8.745,67.787-14.71Z" transform="translate(-573.333 -811.788)"/></g><g transform="translate(33.093 25.668)"><g transform="translate(0 49.773)"><path class="g" d="M910.7,630.785V973.5a5.274,5.274,0,0,1-7.477,4.791l-5.379-2.473c-33.08-15.34-118.743-25.647-213.09-25.647-73.461,0-141.636,6.251-183.841,16.262-12,2.847-21.82,5.99-29.143,9.385l-5.255,2.437a5.273,5.273,0,0,1-7.492-4.784V630.827a5.273,5.273,0,0,1,7.5-4.78l5.194,2.419c33.073,15.34,118.658,25.647,213,25.647,50.339,0,98.259-2.934,137.049-8,33.913-4.431,60.659-10.49,76.086-17.647l5.372-2.472A5.274,5.274,0,0,1,910.7,630.785Z" transform="translate(-459.026 -625.505)"/></g><g transform="translate(19.269 77.03)"><path class="b" d="M944.381,732.508V1025.19a4.842,4.842,0,0,1-6.755,4.448l-5-2.152c-30.257-13.128-108.611-21.95-194.908-21.95-67.192,0-129.55,5.349-168.155,13.917-10.973,2.436-19.958,5.126-26.657,8.032l-4.89,2.122a4.842,4.842,0,0,1-6.769-4.442V732.544a4.842,4.842,0,0,1,6.776-4.439l4.834,2.107c30.251,13.128,108.534,21.95,194.824,21.95,46.044,0,89.875-2.511,125.355-6.847,31.019-3.792,55.484-8.978,69.594-15.1l5-2.151A4.842,4.842,0,0,1,944.381,732.508Z" transform="translate(-531.244 -727.661)"/></g><path class="h" d="M530.613,1495.129v100.106l11.744-5.059c6.7-2.906,15.726-5.6,26.7-8.032,38.6-8.568,100.983-13.917,168.176-13.917,86.3,0,164.762,8.821,195.02,21.95l11.87,5.059V1495.129Z" transform="translate(-511.512 -1213.321)"/><g transform="translate(272.715)"><path class="i" d="M1578.652,574.536c-7.683-18.311-35.516-73.826-84.752-56.68a.752.752,0,0,0,.114,1.448c10.857,2.012,51.085,12.173,83.346,55.959A.746.746,0,0,0,1578.652,574.536Z" transform="translate(-1490.121 -494.428)"/><path class="i" d="M1569.221,641.512c-11.069-10.433-44.027-50.795-87.8-32.349a.505.505,0,0,0,.135.969c10.818,1.143,64.525,7.946,87.452,32.266C1569.618,643.042,1569.866,642.12,1569.221,641.512Z" transform="translate(-1481.112 -560.259)"/><path class="i" d="M1694.409,515.638c-1.051-13.8-7.219-65.91-40.777-76.659a.27.27,0,0,0-.305.41c4.043,5.7,33.463,47.837,40.559,76.332A.266.266,0,0,0,1694.409,515.638Z" transform="translate(-1607.339 -438.966)"/><path class="i" d="M1622.569,729.822a.29.29,0,0,0,.345-.458c-5.928-5.906-30.473-27.608-61.635-16.921C1525.976,724.549,1587.79,710.952,1622.569,729.822Z" transform="translate(-1532.159 -637.336)"/><path class="i" d="M1800.02,536.488a.9.9,0,0,1-1.768.146c-3.722-16.368-11.612-61.506,11.351-72.987C1836.781,450.058,1803.712,482.964,1800.02,536.488Z" transform="translate(-1710.425 -454.814)"/><path class="i" d="M1810.837,664.112c3.858-10.051,18.729-41.261,49.677-24.4a.6.6,0,0,1-.242,1.116,72.8,72.8,0,0,0-48.438,23.876A.59.59,0,0,1,1810.837,664.112Z" transform="translate(-1722.828 -582.553)"/><path class="i" d="M1814.007,721.418c1.422-6.207,8.826-18.655,46.5-7.253a.2.2,0,0,1-.068.383c-7.4-.769-32.416-2.468-44.676,7.941A1.085,1.085,0,0,1,1814.007,721.418Z" transform="translate(-1725.162 -637.336)"/><path class="i" d="M1819.715,912.478l.014-1.271v-1.366l-.02-2.735-.036-5.472-.159-10.944q-.146-10.942-.4-21.88c-.331-14.583-.75-29.16-1.416-43.721s-1.553-29.108-2.955-43.6c-.718-7.243-1.584-14.47-2.75-21.644a122.277,122.277,0,0,0-5.019-21.167l.65-.266a78.832,78.832,0,0,1,3.618,10.4l.735,2.654c.231.888.429,1.782.646,2.673l.637,2.678.564,2.691c1.455,7.187,2.58,14.432,3.463,21.7.9,7.265,1.573,14.554,2.169,21.844.557,7.293.975,14.595,1.339,21.9q.475,10.956.723,21.916c.115,7.307.226,14.614.187,21.921q-.012,10.96-.3,21.916l-.388,10.954-.24,5.475-.164,2.738-.092,1.37c-.04.461-.051.887-.141,1.461Z" transform="translate(-1720.028 -658.515)"/><g transform="translate(79.285 64.083)"><path class="i" d="M1916.756,780.512c5.745-13.693,26.558-55.2,63.376-42.384a.562.562,0,0,1-.085,1.082c-8.118,1.5-38.2,9.1-62.324,41.845A.558.558,0,0,1,1916.756,780.512Z" transform="translate(-1879.766 -720.609)"/><path class="i" d="M1917.29,830.6c8.277-7.8,32.923-37.983,65.653-24.19a.378.378,0,0,1-.1.725c-8.089.855-48.25,5.942-65.395,24.127C1916.993,831.74,1916.808,831.05,1917.29,830.6Z" transform="translate(-1879.984 -769.836)"/><path class="i" d="M1920.981,736.47c.786-10.321,5.4-49.286,30.493-57.324a.2.2,0,0,1,.228.307c-3.023,4.264-25.023,35.771-30.329,57.079A.2.2,0,0,1,1920.981,736.47Z" transform="translate(-1882.898 -679.136)"/><path class="i" d="M1910.733,896.633a.216.216,0,0,1-.258-.343c4.433-4.416,22.787-20.645,46.089-12.654C1982.964,892.689,1936.74,882.522,1910.733,896.633Z" transform="translate(-1875.148 -827.473)"/><path class="i" d="M1872.37,752.062a.67.67,0,0,0,1.322.109c2.783-12.24,8.683-45.993-8.488-54.578C1844.881,687.431,1869.61,712.037,1872.37,752.062Z" transform="translate(-1836.176 -690.988)"/><path class="i" d="M1815.636,847.495c-2.885-7.516-14.005-30.854-37.147-18.244a.445.445,0,0,0,.18.835,54.436,54.436,0,0,1,36.221,17.854A.441.441,0,0,0,1815.636,847.495Z" transform="translate(-1778.256 -786.507)"/><path class="i" d="M1820.176,890.348c-1.064-4.641-6.6-13.95-34.77-5.424a.146.146,0,0,0,.051.286c5.536-.575,24.24-1.846,33.408,5.938A.811.811,0,0,0,1820.176,890.348Z" transform="translate(-1783.421 -827.473)"/></g><path class="i" d="M1880.77,1033.32c-.074-.461-.077-.771-.106-1.117l-.065-1.025-.116-2.048c-.077-1.365-.125-2.73-.178-4.095l-.271-8.192c-.179-5.462-.193-10.925-.229-16.389-.011-5.464-.022-10.93.084-16.395s.245-10.93.482-16.393.534-10.926.919-16.384c.421-5.457.906-10.911,1.581-16.349l.526-4.077.621-4.066c.439-2.708.9-5.412,1.489-8.1q.4-2.019.913-4.019c.17-.666.327-1.334.508-2l.575-1.983a57.216,57.216,0,0,1,2.808-7.763l.65.266a75.214,75.214,0,0,0-2.125,7.839l-.423,1.987c-.131.665-.237,1.336-.357,2l-.364,2-.317,2.011c-.209,1.341-.42,2.68-.587,4.029s-.388,2.686-.531,4.039c-.324,2.7-.61,5.4-.892,8.1-1.042,10.827-1.8,21.694-2.333,32.578s-.894,21.782-1.173,32.686c-.145,5.452-.184,10.906-.3,16.36l-.1,8.183-.025,4.091-.009,2.044.012,1.946Z" transform="translate(-1773.419 -779.135)"/><g transform="translate(17.076 98.522)"><path class="i" d="M1600.062,906.951c-6.576-10.734-29.074-42.78-54.745-26.562a.5.5,0,0,0,.242.9c6.37.085,30.3,2.111,53.864,26.26C1599.807,907.944,1600.356,907.429,1600.062,906.951Z" transform="translate(-1545.111 -857.831)"/><path class="i" d="M1603.386,948.843c-7.521-5.384-31.054-27.294-53.483-10.851a.336.336,0,0,0,.195.6c6.242-.46,37.368-2.03,53.278,10.836C1603.8,949.767,1603.824,949.156,1603.386,948.843Z" transform="translate(-1548.532 -898.954)"/><path class="i" d="M1656.923,863.858c-2.283-8.609-12.144-40.87-32.389-44-.147-.023-.231.176-.122.293,2.979,3.162,24.733,26.578,32.225,43.813A.153.153,0,1,0,1656.923,863.858Z" transform="translate(-1603.216 -816.751)"/><path class="i" d="M1645.124,997.506c.186.069.3-.2.138-.327-4.067-3.085-20.569-14.119-36.837-3.959C1590,1004.73,1623.2,989.38,1645.124,997.506Z" transform="translate(-1587.596 -940.769)"/><path class="i" d="M1729.559,858.2a.51.51,0,0,1-.979.285c-4.1-9.939-14.082-37.606-2.537-47.372C1739.708,799.553,1725.086,823.966,1729.559,858.2Z" transform="translate(-1673.815 -808.208)"/><path class="i" d="M1750.611,934.557c.945-6.775,5.51-28.126,25.032-20.85a.394.394,0,0,1,0,.732c-3.874,1.038-16.564,5.467-24.4,20.385C1751.059,935.182,1750.553,934.972,1750.611,934.557Z" transform="translate(-1695.776 -884.464)"/><path class="i" d="M1753.548,973.23c.042-4.079,2.694-12.756,25.338-9.666.135.018.144.239.008.249-4.269.323-18.586,1.983-24.226,9.9A.635.635,0,0,1,1753.548,973.23Z" transform="translate(-1697.932 -921.634)"/></g><path class="i" d="M1775.695,1100.714l-.64-3.367-.681-3.451-1.4-6.9-2.888-13.771q-1.476-6.878-3.044-13.734-1.527-6.865-3.159-13.7-3.284-13.671-7.162-27.168l-.985-3.367-1.024-3.353c-.685-2.234-1.382-4.466-2.155-6.668a97.525,97.525,0,0,0-5.319-12.919l.6-.362a53.781,53.781,0,0,1,3.432,6.214c.516,1.065,1.028,2.132,1.472,3.225.468,1.085.917,2.177,1.337,3.279q2.6,6.586,4.646,13.353c2.764,9,5.02,18.141,7.161,27.293q1.588,6.869,3.067,13.76,1.42,6.9,2.746,13.824c.882,4.614,1.749,9.23,2.521,13.864l1.151,6.951.542,3.482.253,1.745.121.875c.035.3.085.558.1.963Z" transform="translate(-1676.23 -844.405)"/><g transform="translate(81.164 243.544)"><path class="j" d="M1788.87,1351.725h29.986c1.965,0,3.42,2.962,2.978,6.064-1.918,13.465-4.218,27.126-8.923,40.994-.869,2.561-2.523,4.168-4.328,4.168H1798.8c-1.777,0-3.407-1.582-4.249-4.116a200.891,200.891,0,0,1-9.186-40.222C1784.947,1355.039,1786.626,1351.725,1788.87,1351.725Z" transform="translate(-1785.3 -1351.725)"/></g></g><g transform="translate(85.999 107.062)"><g transform="translate(44.99)"><rect class="g" width="91.11" height="65.818" rx="12.749"/><rect class="k" width="80.879" height="54.973" rx="17.249" transform="translate(4.739 5.36)"/></g><g transform="translate(0 70.079)"><rect class="g" width="89.422" height="69.297" rx="12.749"/><rect class="k" width="79.381" height="57.879" rx="17.249" transform="translate(4.651 5.644)"/></g><g transform="translate(95.348 70.079)"><rect class="g" width="91.93" height="69.297" rx="7.695"/><path class="k" d="M7.087,0H68.74a7.087,7.087,0,0,1,7.087,7.087V50.792a7.086,7.086,0,0,1-7.086,7.086H7.087A7.087,7.087,0,0,1,0,50.792V7.087A7.087,7.087,0,0,1,7.087,0Z" transform="translate(7.067 5.644)"/></g></g><g transform="translate(129.209 260.315)"><path class="l" d="M0,0H239.6a1.875,1.875,0,0,1,1.875,1.875V30.8a2.125,2.125,0,0,1-2.125,2.125H0a0,0,0,0,1,0,0V0A0,0,0,0,1,0,0Z" transform="translate(46.656 50.948)"/><path class="m" d="M1233.147,1504.316H993.119l-45.225-35.568a.708.708,0,0,1,.437-1.264h219.433l65.563,36.131A.373.373,0,0,1,1233.147,1504.316Z" transform="translate(-946.463 -1453.368)"/><path class="l" d="M989.991,1538.538v-30.258a1.046,1.046,0,0,0-.4-.821l-44.546-35.033a1.044,1.044,0,0,0-1.687.908l2.688,32.038a1.043,1.043,0,0,0,.391.73l41.857,33.253A1.044,1.044,0,0,0,989.991,1538.538Z" transform="translate(-943.336 -1456.825)"/><g transform="translate(173.764)"><path class="n" d="M1596.156,1440.847l12.99,12.759a8.53,8.53,0,0,0,6.195,2.557l56.761-1.411c3.563-.089,4.92-5.523,1.966-7.872l-26.956-21.442a7.04,7.04,0,0,0-5.626-1.508l-43.081,7.492C1594.514,1432.1,1593.135,1437.88,1596.156,1440.847Z" transform="translate(-1594.514 -1421.361)"/><path class="o" d="M1596.156,1429.867l12.99,11.463a9.048,9.048,0,0,0,6.195,2.3l56.761-1.268c3.563-.079,4.92-4.961,1.966-7.072l-26.956-19.262a7.627,7.627,0,0,0-5.626-1.355L1598.4,1421.4C1594.514,1422.008,1593.135,1427.2,1596.156,1429.867Z" transform="translate(-1594.514 -1414.579)"/></g><g transform="translate(187.346 11.664)"><path class="o" d="M1647.279,1486.411,1662,1500.069a9.969,9.969,0,0,0,7.021,2.737l64.34-1.511c4.038-.095,5.577-5.912,2.228-8.427l-30.554-22.953a8.325,8.325,0,0,0-6.378-1.614l-48.833,8.02C1645.418,1477.046,1643.854,1483.235,1647.279,1486.411Z" transform="translate(-1645.417 -1465.552)"/><path class="p" d="M1647.279,1474.658l14.724,12.27a10.617,10.617,0,0,0,7.021,2.459l64.34-1.357a4.14,4.14,0,0,0,2.228-7.571l-30.554-20.62a9.042,9.042,0,0,0-6.378-1.45l-48.833,7.2A5.157,5.157,0,0,0,1647.279,1474.658Z" transform="translate(-1645.417 -1458.292)"/></g><path class="o" d="M1150.936,1499.065a.7.7,0,0,1,.2.433l2.348,26.063a.7.7,0,0,1-.693.759H993.755a.7.7,0,0,1-.7-.7v-26.041a.7.7,0,0,0-.266-.547l-44.986-35.38a.7.7,0,0,1,.43-1.243l164.1-1.845a2.968,2.968,0,0,1,2.164.894C1123.448,1470.621,1150.936,1499.065,1150.936,1499.065Z" transform="translate(-946.403 -1448.296)"/><path class="q" d="M988.417,1533.284l-42.594-33.806a.937.937,0,0,1-.351-.655l-2.19-26.1a.936.936,0,0,1,1.511-.814l44.784,35.221a.935.935,0,0,1,.357.735v24.683A.936.936,0,0,1,988.417,1533.284Z" transform="translate(-943.279 -1456.465)"/></g></g><g transform="translate(1.986 184.073)"><path class="r" d="M944.11,1887.464c-.456-.675-3.995-2.143-4.112-2.969-11.922.944-28.468,4.784-30.9,25.251,27.051,35.777,101.613,22.869,101.613,22.869v-13.922S955.531,1904.366,944.11,1887.464Z" transform="translate(-757.902 -1657.2)"/><path class="s" d="M1263.06,2011.419s4.054-27.8,30.408-16.763c19.808,8.3,17.874,15.244,17.874,15.244Z" transform="translate(-1017.419 -1736.068)"/><path class="l" d="M882.561,1752.46l12.454-74.185c.485.762,10.316,40.139,29.73,56.587a.966.966,0,0,1,.11,1.374c-7.424,8.64-16.419,23.559-10.023,40.69C893.741,1773.653,882.561,1752.46,882.561,1752.46Z" transform="translate(-738.446 -1506.005)"/><path class="t" d="M500.974,1511.94s45.881-15.3,105.091-6.817c6.185.885,22.174,34.229,19.794,57.4-4.031,39.238-25.443,105.091-26.209,105.295-24.692,6.557-106.041,1.026-106.041,1.026Z" transform="translate(-453.276 -1377.176)"/><path class="u" d="M690.681,1299.686l2.558,39.75a8.626,8.626,0,0,0,5.987,7.825c7.728,2.288,22.324,5.046,36.63-.718a5.693,5.693,0,0,0,3.083-6.984l-18.924-60.782Z" transform="translate(-597.764 -1213.101)"/><g transform="translate(63.722)"><path class="v" d="M709.9,1147.237s14.034,26.837,15.882,41.317,5.653,23.689-10.947,27.816-31.359-3.236-40.064-17.169c0,0-13.612-21.456-11.568-30.787S709.9,1147.237,709.9,1147.237Z" transform="translate(-641.185 -1116.659)"/><path class="l" d="M619.848,1104.357h0a1.378,1.378,0,0,0,1.131-2c-2.335-4.569-7.542-16.228-1.576-19.187,7.468-3.7,37.5-12.094,43.3-23.376,5.586-10.859-1-23.9-9.7-27.088a1.168,1.168,0,0,0-1.444.619l-.606,1.376a1.145,1.145,0,0,1-2.122-.066,1.14,1.14,0,0,0-2.069-.167c-1.782,3.377-6.856,9.025-21.281,12.765-20.467,5.308-33.58,14.681-32.894,29.039a1.145,1.145,0,0,1-1.7,1.062c-1.6-.824-4.079-1.087-7.158,1.9-5.309,5.152-2.188,17.249,10.754,26.547a5.073,5.073,0,0,0,2.495.786c14.134.076,4.39,3.96,5.679,10.168,2.066,9.954,10.56,3.784,12.521,3.13a1.145,1.145,0,0,0,.78-1.243l-1.691-12.646a1.145,1.145,0,0,1,1.053-1.294Z" transform="translate(-581.263 -1032.637)"/><path class="w" d="M685.312,1275.74s-5.863-17.365-13.441-11.838,5.531,19.53,11.956,19.737Z" transform="translate(-646.014 -1201.399)"/></g><g transform="translate(0 134.764)"><path class="t" d="M390.491,1652c-2.482-17.529,15.67-43.3,23.179-53.073a16.251,16.251,0,0,0,3.38-9.743c.22-24.825-10.2-40.769-26.906-51.474,0,0-60.617,70.621-45.183,124.941a45.683,45.683,0,0,0,7.519,15.226C354.912,1657.407,378.569,1652.942,390.491,1652Z" transform="translate(-342.445 -1537.707)"/><path class="l" d="M520.4,1811.484l-2.309-.263c1.957-17.19,17.042-38.411,23.436-46.738l1.844,1.416C537.1,1774.072,522.3,1794.873,520.4,1811.484Z" transform="translate(-471.227 -1703.974)"/><path class="x" d="M418.542,1968.473a20.342,20.342,0,0,1-.476-2.427c-11.922.944-35.579,5.409-38.011,25.876,27.051,35.777,101.613,22.869,101.613,22.869V2000.87S424.4,1990.232,418.542,1968.473Z" transform="translate(-370.02 -1851.756)"/></g><path class="y" d="M734.017,2095.313s4.054-27.8,30.408-16.763c19.808,8.3,17.874,15.244,17.874,15.244Z" transform="translate(-629.537 -1797.577)"/><g transform="translate(74.976 26.9)"><path class="i" d="M649.95,1207.867l-25.139,23.7a4.361,4.361,0,0,0-.941,5.059l4.081,8.51a2.455,2.455,0,0,0,3.772.836l22.966-18.852Z" transform="translate(-623.442 -1188.012)"/><path class="t" d="M724.932,1178.941l54.534-10.747-7.01-28.485-53.223,16.113a1.861,1.861,0,0,0-1.091,2.269l4.762,19.349A1.859,1.859,0,0,0,724.932,1178.941Z" transform="translate(-692.827 -1138.04)"/><path class="t" d="M741.733,1173.608l51.848-9.123c2.531-.623,4.01-3.457,3.3-6.33l-5.067-20.591c-.693-2.814-3.264-4.6-5.744-3.991l-50.929,16.551Z" transform="translate(-705.339 -1133.453)"/><path class="o" d="M764.447,1181.46l42.12-7.52a4.026,4.026,0,0,0,2.724-4.987l-3.965-16.11a3.944,3.944,0,0,0-4.631-3.089l-41.426,13.338Z" transform="translate(-723.027 -1145.331)"/></g></g><g transform="translate(224.622 427.525)"><g transform="translate(64.607 3.189)"><path class="j" d="M1473.3,1982.905a25.906,25.906,0,0,1-25.906,25.906c-14.308,0-28.414-10.846-28.414-25.154S1433.086,1957,1447.393,1957A25.906,25.906,0,0,1,1473.3,1982.905Z" transform="translate(-1418.979 -1956.999)"/><path class="z" d="M1485.245,2002.361v23.077a3.609,3.609,0,0,0,3.566,3.609l.58.007a3.609,3.609,0,0,0,3.649-3.479l.834-23.084a3.609,3.609,0,0,0-3.607-3.739h-1.414A3.609,3.609,0,0,0,1485.245,2002.361Z" transform="translate(-1467.564 -1987.611)"/><path class="z" d="M1533.9,2004.325l-1.226,24.156a1.935,1.935,0,0,0,3.32,1.447l11.685-12.018a1.935,1.935,0,0,0,.079-2.612l-10.459-12.138A1.935,1.935,0,0,0,1533.9,2004.325Z" transform="translate(-1502.333 -1990.349)"/></g><g transform="translate(0 2.813)"><path class="j" d="M1176.843,1982.12a26.53,26.53,0,0,0,26.53,26.53c14.652,0,29.1-11.107,29.1-25.759s-14.446-27.3-29.1-27.3A26.529,26.529,0,0,0,1176.843,1982.12Z" transform="translate(-1176.843 -1955.59)"/><path class="z" d="M1293.174,2002.043v23.633a3.7,3.7,0,0,1-3.652,3.7l-.594.007a3.7,3.7,0,0,1-3.737-3.562l-.854-23.64a3.7,3.7,0,0,1,3.693-3.829h1.448A3.7,3.7,0,0,1,1293.174,2002.043Z" transform="translate(-1255.654 -1986.939)"/><path class="z" d="M1223.867,2004.056l1.256,24.737a1.982,1.982,0,0,1-3.4,1.482l-11.966-12.307a1.982,1.982,0,0,1-.081-2.676l10.711-12.43A1.982,1.982,0,0,1,1223.867,2004.056Z" transform="translate(-1200.563 -1989.742)"/></g><g transform="translate(127.907 0)"><path class="j" d="M1714.788,1972.983a27.934,27.934,0,0,1-27.934,27.934c-15.428,0-30.638-11.7-30.638-27.123s15.211-28.745,30.638-28.745A27.934,27.934,0,0,1,1714.788,1972.983Z" transform="translate(-1656.216 -1945.049)"/><path class="z" d="M1738.809,1982.036v35.217a1.028,1.028,0,0,0,1.617.843l26.2-18.291a1.028,1.028,0,0,0-.031-1.707l-26.2-16.925A1.028,1.028,0,0,0,1738.809,1982.036Z" transform="translate(-1716.771 -1971.412)"/></g></g></svg>