<svg xmlns="http://www.w3.org/2000/svg" width="85.497" height="160.578" viewBox="0 0 85.497 160.578"><defs><style>.a{fill:#868686;}.b,.c{fill:#fff;}.b{stroke:#000;stroke-miterlimit:10;}.d{fill:#cecece;}</style></defs><g transform="translate(-33.5 -3.12)"><path class="a" d="M84.8,192.333,75.672,160.9H33.5l14.562,36.188,28.331.288H119v-5.046Z" transform="translate(0 -112.286)"/><path d="M165.8,43.571l40.874.36a14.516,14.516,0,0,1-.865-12.183,7.743,7.743,0,0,0-1.73-9.588l-4.109-4.614c-.878-8.281-6.6-14.156-12.471-14.418A11.872,11.872,0,0,0,177.4,8.176a11.22,11.22,0,0,0-1.8,5.551,20.237,20.237,0,0,1-5.623,12.111,19.723,19.723,0,0,0-3.677,6.344A20.2,20.2,0,0,0,165.8,43.571Z" transform="translate(-93.73 0)"/><path class="b" d="M289.907,188.153q.895,11.822,1.79,23.645l-11.822-.036,1.719-14.205,3.723-9.4Z" transform="translate(-175.332 -131.678)"/><path class="c" d="M214.74,37.653c-.763,1.71-3.475,8.329-.721,15.5a18.66,18.66,0,0,0,3.821,6.055l-.216,8.723a5.582,5.582,0,0,0,4.758,1.586,5.138,5.138,0,0,0,2.883-1.73q-.144-4.289-.288-8.578a13.221,13.221,0,0,0,6.632-10.453,2.783,2.783,0,0,0,1.946-2.235,2.865,2.865,0,0,0-.793-2.307,23.628,23.628,0,0,1-18.022-6.56Z" transform="translate(-127.606 -24.575)"/><path class="d" d="M157.5,148.093a8.073,8.073,0,0,1,3.606-5.039l17.581.155a4.724,4.724,0,0,0,3.828,1.568,4.648,4.648,0,0,0,3.244-1.874l13.336.288a11.1,11.1,0,0,1,4.686,12.76H198.23a7.927,7.927,0,0,1-.577,5.983,7.644,7.644,0,0,1-3.1,3.028l-1.73,14.562H173.047Z" transform="translate(-88.244 -99.476)"/><path class="d" d="M199.988,296.877a169.121,169.121,0,0,1,3.315,71.7,59.172,59.172,0,0,1-34.218,0,198.647,198.647,0,0,1,0-74.01h30.9Z" transform="translate(-94.015 -207.409)"/><path class="b" d="M198.56,285.624a14.615,14.615,0,0,1-11.534,5.623c-6.138,0-8.66-.646-17.013-1.442-6.489-.618-9.62-.482-13.841-2.787A21.751,21.751,0,0,1,153,284.9Z" transform="translate(-85.042 -200.53)"/></g></svg>