<svg xmlns="http://www.w3.org/2000/svg" xmlns:xlink="http://www.w3.org/1999/xlink" width="413.218" height="420.809" viewBox="0 0 413.218 420.809"><defs><style>.a{fill:#e0e0e0;}.b{fill:#ebebeb;}.c{fill:#fafafa;}.d{fill:#f5f5f5;}.e{clip-path:url(#a);}.f{fill:#263238;}.g{fill:#f2f2f2;}.h{fill:#99a2ab;}.i{fill:#0048cd;}.j{fill:#0a437d;}.k{opacity:0.3;}.l{fill:#0894fe;}.m,.n{opacity:0.5;}.n,.r{fill:#fff;}.o{fill:#eb996e;}.p{fill:#c4c9ce;}.q{fill:#455a64;}.s{fill:none;stroke:#e8505b;stroke-miterlimit:10;}.t{fill:#e8505b;font-size:11px;font-family:Montserrat-Regular, Montserrat;}</style><clipPath id="a"><path class="a" d="M259.01,164.11" transform="translate(-259.01 -164.11)"/></clipPath></defs><g transform="translate(-50.626 -124.426)"><g transform="translate(73.312 124.425)"><g transform="translate(44.531 6.139)"><path class="a" d="M122.538,143.8l8.95,22.9-5.564-.025L121.465,152.6Z" transform="translate(-88.899 -122.646)"/><path class="b" d="M101.422,128.783l-3.076,43.87,31.762.663,3.574-44.534Z" transform="translate(-98.345 -128.783)"/><path class="c" d="M103.528,131.354l-2.561,36.516,23.612,1.106,3.3-37.839Z" transform="translate(-97.274 -127.821)"/><path class="a" d="M107.019,134.957,105.1,160.625h13.025l2.3-25.668Z" transform="translate(-95.584 -126.26)"/></g><g transform="translate(12.583)"><path class="d" d="M78.29,166.495V144.53H94.375v21.947Z" transform="translate(-74.591 -116.21)"/><path class="a" d="M86.289,152.745s3.879-28.359,2.792-28.32-3.816,25.856-3.816,25.856-.114-21.381-1.137-21.267,0,22.632,0,22.632-1.749-18.275-2.695-17.837.406,18.936.406,18.936h4.45" transform="translate(-73.444 -124.425)"/><path class="b" d="M82.707,151.031s1.344-14.135,1.787-13.167,0,8.413,0,8.413,3.724-18.264,4.7-17.644-3.812,19.824-3.812,19.824,3.636-10.963,4.433-9.808S86.8,150.09,86.8,150.09s3.9-7.27,4.168-6.295-1.864,7.236-1.864,7.236Z" transform="translate(-72.787 -122.712)"/><path class="b" d="M83.293,149.34s-8.6-16.883-7.537-16.361,6.561,11.429,6.561,11.429-3.638-10.526-2.838-10.849,4.789,11.825,4.789,11.825l.9,3.955Z" transform="translate(-75.664 -120.935)"/><path class="a" d="M85.719,144.578l.406,21.964H78.478L78.331,144.5Z" transform="translate(-74.575 -116.221)"/><path class="b" d="M78.364,146.515l7.407.124,8.659-.124.272-2.1H78.154Z" transform="translate(-74.647 -116.257)"/></g><rect class="a" width="112.612" height="5.8" transform="translate(0 49.672)"/></g><g transform="translate(333.809 173.379)"><g transform="translate(8.678 4.333)"><g transform="translate(1.666 2.613)"><rect class="c" width="111.581" height="195.221"/></g><g transform="translate(0 0.387)"><path class="b" d="M294.25,361.849s-12.221-87.831-18.627-97.483c0,0,36.557-27.448,37.676-101.837H257.827V361.849Z" transform="translate(-257.827 -162.53)"/></g><g transform="translate(59.426)"><path class="b" d="M319.063,361.573s12.221-87.83,18.627-97.481c0,0-36.556-27.448-37.675-101.837h55.472V361.573Z" transform="translate(-300.015 -162.255)"/></g><g transform="translate(1.666 2.613)"><path class="a" d="M259.01,164.11" transform="translate(-259.01 -164.11)"/><g class="e"><path class="a" d="M259.01,164.11Z" transform="translate(-259.01 -164.11)"/><path class="a" d="M259.01,164.11Z" transform="translate(-259.01 -164.11)"/><path class="a" d="M259.01,164.11Z" transform="translate(-259.01 -164.11)"/><path class="a" d="M259.01,164.11Z" transform="translate(-259.01 -164.11)"/><path class="a" d="M259.01,164.11Z" transform="translate(-259.01 -164.11)"/><path class="a" d="M259.01,164.11Z" transform="translate(-259.01 -164.11)"/><path class="a" d="M259.01,164.11Z" transform="translate(-259.01 -164.11)"/><path class="a" d="M259.01,164.11Z" transform="translate(-259.01 -164.11)"/><path class="a" d="M259.01,164.11Z" transform="translate(-259.01 -164.11)"/><path class="a" d="M259.01,164.11Z" transform="translate(-259.01 -164.11)"/><path class="a" d="M259.01,164.11Z" transform="translate(-259.01 -164.11)"/><path class="a" d="M259.01,164.11Z" transform="translate(-259.01 -164.11)"/><path class="a" d="M259.01,164.11Z" transform="translate(-259.01 -164.11)"/><path class="a" d="M259.01,164.11Z" transform="translate(-259.01 -164.11)"/><path class="a" d="M259.01,164.11Z" transform="translate(-259.01 -164.11)"/><path class="a" d="M259.01,164.11Z" transform="translate(-259.01 -164.11)"/><path class="a" d="M259.01,164.11Z" transform="translate(-259.01 -164.11)"/><path class="a" d="M259.01,164.11Z" transform="translate(-259.01 -164.11)"/><path class="a" d="M259.01,164.11Z" transform="translate(-259.01 -164.11)"/><path class="a" d="M259.01,164.11Z" transform="translate(-259.01 -164.11)"/><path class="a" d="M259.01,164.11Z" transform="translate(-259.01 -164.11)"/><path class="a" d="M259.01,164.11Z" transform="translate(-259.01 -164.11)"/><path class="a" d="M259.01,164.11Z" transform="translate(-259.01 -164.11)"/><path class="a" d="M259.01,164.11Z" transform="translate(-259.01 -164.11)"/><path class="a" d="M259.01,164.11Z" transform="translate(-259.01 -164.11)"/><path class="a" d="M259.01,164.11Z" transform="translate(-259.01 -164.11)"/><path class="a" d="M259.01,164.11Z" transform="translate(-259.01 -164.11)"/><path class="a" d="M259.01,164.11Z" transform="translate(-259.01 -164.11)"/><path class="a" d="M259.01,164.11Z" transform="translate(-259.01 -164.11)"/><path class="a" d="M259.01,164.11Z" transform="translate(-259.01 -164.11)"/><path class="a" d="M259.01,164.11Z" transform="translate(-259.01 -164.11)"/><path class="a" d="M259.01,164.11Z" transform="translate(-259.01 -164.11)"/><path class="a" d="M259.01,164.11Z" transform="translate(-259.01 -164.11)"/><path class="a" d="M259.01,164.11Z" transform="translate(-259.01 -164.11)"/><path class="a" d="M259.01,164.11Z" transform="translate(-259.01 -164.11)"/><path class="a" d="M259.01,164.11Z" transform="translate(-259.01 -164.11)"/><path class="a" d="M259.01,164.11Z" transform="translate(-259.01 -164.11)"/></g></g></g><path class="a" d="M376.529,159.179H251.666V368.292H381.7V159.179ZM284.438,267.823v49.727H262.011V267.823Zm-22.428-3.6V212.762h22.428v51.466Zm56.565,0V212.762h28.053v51.466Zm28.053,3.6v49.727H318.575V267.823Zm-61.192-3.6V212.762h29.544v51.466Zm29.544,3.6v49.727H285.437V267.823ZM285.437,211.87V166.616h29.544V211.87Zm29.544,106.57v43.415H285.437V318.44Zm3.595,0h28.053v43.415H318.575Zm0-106.57V166.616h28.053V211.87Zm29.052,55.953h23.729v49.727H347.627Zm0-3.6V212.762h23.729v51.466Zm23.729-52.357H347.627V166.616h23.729Zm-86.918-45.254V211.87H262.011V166.616ZM262.011,318.44h22.428v43.415H262.011Zm85.617,43.415V318.44h23.729v43.415Z" transform="translate(-251.666 -159.179)"/></g><g transform="translate(377.592 426.829)"><g transform="translate(14.484)"><path class="d" d="M303.9,339.167c-4.941.8-7.15,6.867-6.718,11.853s2.481,9.86,1.933,14.834c-.7,6.316-5.47,11.656-6.026,17.986-.655,7.467,4.623,14.089,6.2,21.416.766,3.565.659,7.335,1.986,10.731a13.416,13.416,0,0,0,25.91-4.627c.11-5.733-3.429-11.133-3-16.851.318-4.226,2.8-8.23,2.265-12.435-.631-5-5.267-8.556-6.9-13.327s-.063-10.028-.628-15.041c-1.014-8.992-6-15.261-15.02-14.539" transform="translate(-293.032 -339.111)"/></g><g transform="translate(0 43.596)"><path class="b" d="M282.87,370.061c-.841,8.332,2.844,18.134,7.129,25.329a39.724,39.724,0,0,0,18.653,16.19c.872.363,1.957.669,2.689.075a2.68,2.68,0,0,0,.68-2.137,40.906,40.906,0,0,0-29.151-39.457" transform="translate(-282.749 -370.061)"/></g><g transform="translate(10.747 58.619)"><path class="a" d="M316.048,424.644a2.3,2.3,0,0,1-.237-.465c-.158-.359-.354-.811-.594-1.365-.5-1.19-1.249-2.9-2.2-5a172.979,172.979,0,0,0-18.168-31.085c-1.363-1.864-2.488-3.355-3.281-4.377-.363-.48-.659-.873-.9-1.187a2.195,2.195,0,0,1-.289-.434,2.118,2.118,0,0,1,.362.373c.255.3.575.675.968,1.134.837.986,2,2.45,3.4,4.291a151.158,151.158,0,0,1,18.2,31.148c.917,2.124,1.62,3.86,2.068,5.074.208.566.378,1.028.513,1.4A2.165,2.165,0,0,1,316.048,424.644Z" transform="translate(-290.379 -380.727)"/></g><g transform="translate(31.039 23.108)"><path class="a" d="M304.8,355.516a4.893,4.893,0,0,1,.09.8q.063.849.166,2.295c.131,2.038.317,4.912.544,8.443.449,7.129,1.082,16.976,1.847,27.849s1.52,20.715,2.072,27.837c.27,3.528.49,6.4.645,8.435q.1,1.445.156,2.3a4.942,4.942,0,0,1,.023.8,5.488,5.488,0,0,1-.117-.794l-.245-2.288c-.192-2.034-.462-4.9-.794-8.423-.639-7.116-1.445-16.954-2.211-27.832s-1.344-20.727-1.709-27.863c-.165-3.534-.3-6.412-.393-8.452q-.049-1.449-.077-2.3A5.313,5.313,0,0,1,304.8,355.516Z" transform="translate(-304.785 -355.516)"/></g><g transform="translate(23.388 90.654)"><path class="a" d="M299.353,403.469H320.22v15.32A10.017,10.017,0,0,1,310.2,428.805h0a10.017,10.017,0,0,1-10-9.483Z" transform="translate(-299.353 -403.469)"/></g></g><g transform="translate(50.626 542.126)"><path class="f" d="M457.673,421.226c0,.144-91.129.262-203.514.262-112.425,0-203.533-.118-203.533-.262s91.107-.262,203.533-.262C366.544,420.964,457.673,421.081,457.673,421.226Z" transform="translate(-50.626 -420.964)"/></g><g transform="translate(102.461 232.88)"><g transform="translate(2.709 138.145)"><path class="g" d="M89.348,457.708S114.665,377.3,115.2,374.691c.485-2.359-9.188-60.221-10.407-75.2L139,300.77l0,.249,14.539.806L140.522,466.269H124.781l1.561-54.557c-9.707,26.059-23.616,52.615-23.616,52.615Z" transform="translate(-89.348 -299.494)"/><g transform="translate(36.351 97.045)"><path class="g" d="M115.155,403.116c-.014-.5.19-18.281.19-18.281.2,1.065,6.034-15.438,5.894-16.441C121.166,367.875,115.155,403.116,115.155,403.116Z" transform="translate(-115.154 -368.389)"/></g><g transform="translate(36.535 89.238)"><path class="h" d="M121.852,362.847a3.7,3.7,0,0,1,.1,1,26.008,26.008,0,0,1-.02,2.727c-.023.576-.083,1.2-.158,1.88s-.177,1.393-.334,2.141a36.561,36.561,0,0,1-1.286,4.791c-1.144,3.326-2.4,6.236-3.3,8.347l-1.1,2.486a3.611,3.611,0,0,1-.466.885,3.694,3.694,0,0,1,.279-.961c.21-.607.531-1.478.941-2.55.809-2.145,2.014-5.078,3.147-8.374a41.771,41.771,0,0,0,1.31-4.72c.166-.734.273-1.441.376-2.1s.173-1.283.218-1.852c.108-1.135.158-2.061.186-2.7A3.7,3.7,0,0,1,121.852,362.847Z" transform="translate(-115.285 -362.847)"/></g></g><g transform="translate(8.522 46.648)"><g transform="translate(0.651)"><path class="i" d="M152.911,358.686c.607-22.926-1.968-46.674-4.006-53.876-.194-.687-.361-1.382-.527-2.075l-3.891-16.282s-1.618-1.323,2.707-7.081c2-2.669,1.631-12.869,1.631-12.869l-1.934,13.477,20.319-9.786s-8.532-24.305-11.288-27.856c-7.158-9.219-20.091-7.606-20.091-7.606l-16.928-.2a39.4,39.4,0,0,0-12.632,3.3l-.421.11v.086c-4.853,2.368-9.18,6.353-10.426,12.851-2.031,10.6-1.393,15.424-1.393,15.424l13.791-.245L106.6,295.253c-1.042,3.592-3.955,2.731-8.263,19.324a133.181,133.181,0,0,0-3.469,19.071,95.822,95.822,0,0,0,.311,22.83l7.742,58.794h46.857Z" transform="translate(-93.937 -234.537)"/></g><path class="j" d="M117.179,266.346h-23.7L95.034,248.4Z" transform="translate(-93.475 -228.873)"/><g transform="translate(0 36.964)"><path class="f" d="M93.475,261.288a17.717,17.717,0,0,1,3.137-.311c1.942-.114,4.631-.21,7.6-.2s5.661.142,7.6.3a16.936,16.936,0,0,1,3.13.386,21.13,21.13,0,0,1-3.15-.017c-1.941-.059-4.622-.13-7.584-.144s-5.643.024-7.587.044A20.177,20.177,0,0,1,93.475,261.288Z" transform="translate(-93.475 -260.779)"/></g><g transform="translate(51.063 27.763)"><path class="f" d="M129.864,279.171a3.622,3.622,0,0,1-.138-1.044,7.607,7.607,0,0,1,.09-1.238,7.707,7.707,0,0,1,.41-1.6,12.038,12.038,0,0,1,.832-1.809c.339-.628.744-1.271,1.166-1.942a20.871,20.871,0,0,0,2.342-4.514,10.583,10.583,0,0,0,.5-2.551,13.435,13.435,0,0,0-.073-2.443,24.7,24.7,0,0,0-.855-4.083c-.676-2.292-1.24-3.671-1.158-3.7a3.863,3.863,0,0,1,.482.931c.273.614.649,1.516,1.03,2.662a22.337,22.337,0,0,1,.979,4.137,13.164,13.164,0,0,1,.106,2.53,10.625,10.625,0,0,1-.511,2.683,19.886,19.886,0,0,1-2.433,4.61c-.434.666-.847,1.292-1.194,1.9a12.506,12.506,0,0,0-.865,1.728,8.17,8.17,0,0,0-.468,1.516,9.592,9.592,0,0,0-.175,1.192A4.533,4.533,0,0,1,129.864,279.171Z" transform="translate(-129.726 -254.247)"/></g><g transform="translate(9.632 51.916)"><path class="f" d="M100.314,400.214a1.841,1.841,0,0,1,.093-.339c.082-.245.187-.568.323-.976.3-.887.737-2.141,1.286-3.743.552-1.628,1.3-3.593,2.133-5.887s1.823-4.889,2.916-7.761c2.216-5.739,4.847-12.559,7.77-20.13,1.456-3.791,2.983-7.768,4.568-11.893s3.176-8.412,4.806-12.8c1.6-4.4,3.178-8.7,4.607-12.879q1.075-3.133,2.113-6.151.98-3.032,1.92-5.93c1.292-3.85,2.295-7.574,3.35-11.026.487-1.737.909-3.427,1.341-5.046.408-1.624.879-3.165,1.176-4.669l.941-4.275q.224-1.012.434-1.965.161-.963.311-1.865.3-1.8.552-3.351a27.746,27.746,0,0,0,.394-2.826c.158-1.683.282-3,.369-3.934.046-.427.083-.765.11-1.023a1.894,1.894,0,0,1,.055-.348,1.64,1.64,0,0,1,0,.349c-.014.259-.034.6-.058,1.027-.065.937-.156,2.261-.272,3.951a27.067,27.067,0,0,1-.351,2.838q-.237,1.555-.511,3.365-.142.906-.29,1.873-.2.957-.417,1.973-.429,2.035-.906,4.292c-.287,1.511-.748,3.057-1.147,4.686-.423,1.623-.835,3.32-1.314,5.062-1.037,3.461-2.027,7.2-3.307,11.055q-.932,2.9-1.906,5.943-1.029,3.019-2.1,6.161c-1.425,4.185-3,8.484-4.6,12.891-1.631,4.393-3.226,8.683-4.817,12.805s-3.133,8.1-4.6,11.884c-2.962,7.556-5.63,14.361-7.874,20.089-1.106,2.859-2.106,5.45-2.986,7.73-.863,2.282-1.635,4.237-2.216,5.853-.589,1.587-1.052,2.83-1.378,3.707l-.372.961A1.7,1.7,0,0,1,100.314,400.214Z" transform="translate(-100.313 -271.394)"/></g><g transform="translate(21.409 19.437)"><path class="f" d="M109.478,248.336a14.085,14.085,0,0,1,.079,2.723c-.017,1.68-.079,4-.177,6.558s-.218,4.878-.331,6.554a14.135,14.135,0,0,1-.29,2.709,14.094,14.094,0,0,1-.079-2.723c.017-1.679.077-4,.177-6.56s.218-4.877.331-6.553A14.134,14.134,0,0,1,109.478,248.336Z" transform="translate(-108.674 -248.336)"/></g><path class="k" d="M132.747,259.948s-5.077,31.979-19.888,30.945c0,0-6.668-.079-8.812-4.512v-1.744Z" transform="translate(-89.155 -224.154)"/><g transform="translate(36.821 51.81)"><path class="f" d="M134,271.425a49.848,49.848,0,0,1-7.181.53,49.511,49.511,0,0,1-7.2.008,49.979,49.979,0,0,1,7.184-.531A49.581,49.581,0,0,1,134,271.425Z" transform="translate(-119.615 -271.318)"/></g><g transform="translate(43.065 46.271)"><path class="f" d="M126.758,273.25c0,.027-.22.07-.514-.148a3.19,3.19,0,0,1-.8-1.185q-.427-.887-.89-1.849a6.05,6.05,0,0,1-.47-1.175,1.255,1.255,0,0,1,.563-1.416.936.936,0,0,1,.876.038,1.769,1.769,0,0,1,.542.516,6.127,6.127,0,0,1,.579,1.128,6.892,6.892,0,0,1,.465,2.054,3.581,3.581,0,0,1-.235,1.9c-.086-.011.028-.734-.132-1.865a7.592,7.592,0,0,0-.542-1.909,6.251,6.251,0,0,0-.549-1.013c-.22-.31-.535-.517-.769-.386a.76.76,0,0,0-.3.847,6.426,6.426,0,0,0,.408,1.079q.41.987.789,1.895a3.85,3.85,0,0,0,.593,1.185C126.581,273.174,126.768,273.208,126.758,273.25Z" transform="translate(-124.048 -267.386)"/></g><g transform="translate(45.796 46.192)"><path class="f" d="M126,273.812a7.588,7.588,0,0,1,.641-2.1c.245-.631.559-1.375.944-2.183.192-.4.4-.825.627-1.258a2.425,2.425,0,0,1,.472-.673.862.862,0,0,1,.994-.182,1.033,1.033,0,0,1,.513.834,2.383,2.383,0,0,1-.1.816,6.017,6.017,0,0,1-.523,1.357,6.212,6.212,0,0,1-1.548,1.876,3.717,3.717,0,0,1-1.986.966,17.617,17.617,0,0,0,1.744-1.245,6.471,6.471,0,0,0,1.364-1.818,5.922,5.922,0,0,0,.451-1.256c.131-.451.13-.916-.158-1.065-.228-.156-.573.221-.771.632-.221.421-.437.83-.648,1.23-.4.789-.749,1.509-1.035,2.116A11.337,11.337,0,0,1,126,273.812Z" transform="translate(-125.987 -267.33)"/></g></g><path class="k" d="M109.606,249.97l2.836,19.15-1.836,3.36-2.245-6.511.5-.09Z" transform="translate(-78.871 -181.583)"/><g transform="translate(37.792 303.55)"><g transform="translate(0.224)"><path class="l" d="M130.575,419.1l.007-1.479-16.124-.7-.044,6.1.994.068c4.426.259,22.522,1.006,25.484.117C144.2,422.212,130.575,419.1,130.575,419.1Z" transform="translate(-114.414 -416.92)"/><g class="m" transform="translate(0.017 1.371)"><path class="l" d="M120.227,422.512a5.572,5.572,0,0,0-2.037-3.426,5.406,5.406,0,0,0-3.747-1.178l-.017,4.484Z" transform="translate(-114.426 -417.893)"/></g></g><g transform="translate(0.224 3.938)"><path class="n" d="M137.23,419.716s4.772,1.393,4.174,2.178-18.913.718-26.99-.018l.027-.358,21.364.259S136.295,419.753,137.23,419.716Z" transform="translate(-114.414 -419.716)"/></g><g transform="translate(0 5.721)"><path class="f" d="M114.255,420.989a1.31,1.31,0,0,0,.275.031l.792.051,2.916.137c2.462.1,5.865.187,9.626.2s7.165-.044,9.628-.12l2.916-.111.793-.044a1.4,1.4,0,0,0,.276-.028,1.515,1.515,0,0,0-.277-.011l-.793.008-2.917.048c-2.462.041-5.865.079-9.625.063s-7.16-.084-9.622-.148L115.326,421c-.294-.006-.556-.011-.794-.014A1.663,1.663,0,0,0,114.255,420.989Z" transform="translate(-114.255 -420.982)"/></g><g transform="translate(21.582 3.742)"><path class="f" d="M129.6,422.083a6.575,6.575,0,0,1,.549-1.389,6.441,6.441,0,0,1,1-1.113,2.591,2.591,0,0,0-1.548,2.5Z" transform="translate(-129.577 -419.576)"/></g><g transform="translate(16.877 2.497)"><path class="f" d="M126.244,420.026c.045.03.272-.245.507-.613s.39-.69.345-.718-.273.245-.508.613S126.2,420,126.244,420.026Z" transform="translate(-126.236 -418.692)"/></g><g transform="translate(15.583 2.238)"><path class="f" d="M125.322,419.409c.037.041.29-.128.568-.375s.473-.48.437-.52-.289.127-.566.375S125.287,419.37,125.322,419.409Z" transform="translate(-125.318 -418.509)"/></g><g transform="translate(14.772 1.536)"><path class="f" d="M124.742,418.1a3.662,3.662,0,1,0,.84-.085A1.9,1.9,0,0,0,124.742,418.1Z" transform="translate(-124.742 -418.01)"/></g><g transform="translate(14.494 0.538)"><path class="f" d="M124.545,417.318a2.356,2.356,0,0,0,1.9.149,5.288,5.288,0,0,0-.949-.069A5.176,5.176,0,0,0,124.545,417.318Z" transform="translate(-124.545 -417.302)"/></g><g transform="translate(17.434 0.999)"><path class="f" d="M126.632,419.063a2.94,2.94,0,0,0,1.031,0,6.022,6.022,0,0,0,1.1-.238,2.95,2.95,0,0,0,.63-.256.558.558,0,0,0,.256-.32.407.407,0,0,0-.155-.411,1.891,1.891,0,0,0-2.34.544,1.814,1.814,0,0,0-.338.687.57.57,0,0,0-.028.278,2.914,2.914,0,0,1,.472-.878,1.868,1.868,0,0,1,.883-.569,1.6,1.6,0,0,1,1.228.089c.163.121.1.314-.083.421a3.012,3.012,0,0,1-.58.245,7.015,7.015,0,0,1-1.063.273C127.025,419.032,126.632,419.032,126.632,419.063Z" transform="translate(-126.632 -417.629)"/></g><g transform="translate(16.361 0.487)"><path class="f" d="M127.21,419.264a1.018,1.018,0,0,0,.121-.716,1.674,1.674,0,0,0-.279-.754,1.032,1.032,0,0,0-.855-.528.409.409,0,0,0-.32.475,1.131,1.131,0,0,0,.173.461,3.118,3.118,0,0,0,.485.625,1.488,1.488,0,0,0,.589.42c.018-.025-.206-.186-.489-.513a3.667,3.667,0,0,1-.428-.62c-.141-.22-.237-.61.023-.656.258-.024.52.234.678.439a1.716,1.716,0,0,1,.289.672A3.659,3.659,0,0,1,127.21,419.264Z" transform="translate(-125.87 -417.265)"/></g><g transform="translate(0.342 1.237)"><path class="f" d="M114.5,417.9c0,.037.461-.042,1.185.047a5.023,5.023,0,0,1,4.189,3.364c.242.689.265,1.151.3,1.147a.931.931,0,0,0,0-.324,4.215,4.215,0,0,0-.172-.865,4.873,4.873,0,0,0-4.306-3.458,4.274,4.274,0,0,0-.883.018A.969.969,0,0,0,114.5,417.9Z" transform="translate(-114.498 -417.798)"/></g><g transform="translate(8.064 4.431)"><path class="f" d="M119.98,420.086a13.19,13.19,0,0,0,4.688.025c-.006-.056-1.052.013-2.344,0S119.987,420.029,119.98,420.086Z" transform="translate(-119.98 -420.066)"/></g><g transform="translate(4.914 4.411)"><path class="f" d="M117.751,420.058c-.039.039.085.223.192.463s.163.454.218.451.083-.254-.041-.531S117.786,420.018,117.751,420.058Z" transform="translate(-117.744 -420.051)"/></g><g transform="translate(3.734 2.931)"><path class="f" d="M116.914,419.008c-.039.038.063.206.23.373s.33.276.369.238-.065-.2-.231-.373S116.952,418.97,116.914,419.008Z" transform="translate(-116.906 -419.001)"/></g><g transform="translate(2.049 2.167)"><path class="f" d="M115.71,418.549c.01.055.224.054.459.138s.4.21.447.173-.092-.258-.383-.358S115.693,418.5,115.71,418.549Z" transform="translate(-115.709 -418.459)"/></g><g transform="translate(0.841 1.9)"><path class="f" d="M114.855,418.306c-.02.049.072.132.2.184s.256.054.276,0-.072-.134-.2-.186S114.874,418.255,114.855,418.306Z" transform="translate(-114.852 -418.269)"/></g></g><g transform="translate(0 295.717)"><g transform="translate(0.054)"><path class="l" d="M103.811,419.951l.611-1.347L90,411.359,87.463,416.9l.88.468c3.931,2.05,20.134,10.143,23.2,10.546C114.963,428.368,103.811,419.951,103.811,419.951Z" transform="translate(-87.463 -411.359)"/><g class="m" transform="translate(0.11 1.261)"><path class="l" d="M92.782,418.822a5.559,5.559,0,0,0-.455-3.96,5.4,5.4,0,0,0-2.934-2.609l-1.852,4.084Z" transform="translate(-87.541 -412.254)"/></g></g><g transform="translate(0.054 5.23)"><path class="n" d="M109.162,422.763s3.783,3.226,2.916,3.7-17.548-7.092-24.615-11.072l.172-.315,19.382,8.987S108.295,422.414,109.162,422.763Z" transform="translate(-87.463 -415.072)"/></g><g transform="translate(0 5.115)"><path class="f" d="M87.425,414.991a1.363,1.363,0,0,0,.239.142l.7.37,2.6,1.318c2.206,1.1,5.275,2.572,8.7,4.129s6.554,2.895,8.832,3.834l2.706,1.094.741.285a1.53,1.53,0,0,0,.263.087,1.356,1.356,0,0,0-.248-.124l-.727-.318-2.682-1.151c-2.264-.971-5.382-2.33-8.805-3.885s-6.5-3.01-8.718-4.075l-2.63-1.262-.718-.338A1.518,1.518,0,0,0,87.425,414.991Z" transform="translate(-87.425 -414.991)"/></g><g transform="translate(19.495 12.772)"><path class="f" d="M101.271,422.1a6.534,6.534,0,0,1,1.071-1.042,6.638,6.638,0,0,1,1.366-.607,2.592,2.592,0,0,0-2.437,1.649Z" transform="translate(-101.265 -420.426)"/></g><g transform="translate(16.18 9.427)"><path class="f" d="M98.914,418.926c.03.045.349-.113.714-.352s.638-.469.609-.514-.349.113-.714.352S98.884,418.88,98.914,418.926Z" transform="translate(-98.911 -418.052)"/></g><g transform="translate(15.281 8.713)"><path class="f" d="M98.274,417.97c.017.051.317,0,.67-.11s.628-.245.613-.3-.317,0-.67.11S98.259,417.92,98.274,417.97Z" transform="translate(-98.274 -417.545)"/></g><g transform="translate(15.158 7.41)"><path class="f" d="M98.187,416.63c-.023.049.3.248.718.444a1.9,1.9,0,0,0,.8.266c.023-.049-.3-.247-.718-.444A1.9,1.9,0,0,0,98.187,416.63Z" transform="translate(-98.186 -416.619)"/></g><g transform="translate(15.341 6.327)"><path class="f" d="M98.319,415.855c-.037.037.259.373.738.634a1.615,1.615,0,0,0,.931.28,5.113,5.113,0,0,0-.838-.451A5.184,5.184,0,0,0,98.319,415.855Z" transform="translate(-98.316 -415.851)"/></g><g transform="translate(17.255 8.615)"><path class="f" d="M99.675,418.11a2.915,2.915,0,0,0,.941.42,6.056,6.056,0,0,0,1.1.234,3.045,3.045,0,0,0,.679.023.553.553,0,0,0,.365-.186.406.406,0,0,0,.027-.439,1.889,1.889,0,0,0-2.357-.462,1.841,1.841,0,0,0-.59.487c-.111.144-.149.237-.139.244a2.885,2.885,0,0,1,.79-.607,1.85,1.85,0,0,1,1.038-.158,1.6,1.6,0,0,1,1.085.583c.1.179-.038.327-.249.351a3.043,3.043,0,0,1-.63-.014,6.982,6.982,0,0,1-1.08-.186C100.046,418.243,99.688,418.082,99.675,418.11Z" transform="translate(-99.675 -417.475)"/></g><g transform="translate(16.559 7.162)"><path class="f" d="M100.1,418.689a1.013,1.013,0,0,0,.4-.6,1.682,1.682,0,0,0,.055-.8,1.037,1.037,0,0,0-.565-.832c-.23-.07-.768.392-.806.566-.056.172.272.083.289.228a3.172,3.172,0,0,0,.186.769,1.5,1.5,0,0,0,.365.624c.027-.016-.11-.254-.234-.669a3.585,3.585,0,0,1-.138-.741c-.039-.256.034-.654.289-.589.245.083.38.425.438.679a1.707,1.707,0,0,1-.011.731A3.62,3.62,0,0,1,100.1,418.689Z" transform="translate(-99.18 -416.444)"/></g><g transform="translate(2.11 1.25)"><path class="f" d="M88.923,412.25c-.011.035.437.151,1.062.528a5.022,5.022,0,0,1,2.444,4.785c-.061.727-.23,1.158-.2,1.169a.9.9,0,0,0,.134-.3,4.158,4.158,0,0,0,.2-.859,4.879,4.879,0,0,0-2.512-4.919,4.264,4.264,0,0,0-.813-.344A.96.96,0,0,0,88.923,412.25Z" transform="translate(-88.923 -412.247)"/></g><g transform="translate(7.881 7.251)"><path class="f" d="M93.02,416.51a13.14,13.14,0,0,0,4.267,1.944c.017-.054-.966-.42-2.14-.958S93.048,416.461,93.02,416.51Z" transform="translate(-93.02 -416.507)"/></g><g transform="translate(5 5.934)"><path class="f" d="M91,415.573c-.051.02-.013.238-.016.5s-.037.48.016.5.18-.2.179-.5S91.05,415.552,91,415.573Z" transform="translate(-90.975 -415.572)"/></g><g transform="translate(4.532 4.102)"><path class="f" d="M90.667,414.272c-.049.02-.024.214.058.435s.189.387.238.368.025-.213-.056-.435S90.718,414.254,90.667,414.272Z" transform="translate(-90.642 -414.271)"/></g><g transform="translate(3.291 2.764)"><path class="f" d="M89.762,413.348c-.013.054.182.139.362.313s.285.358.337.341.023-.272-.2-.483S89.768,413.3,89.762,413.348Z" transform="translate(-89.762 -413.321)"/></g><g transform="translate(2.311 1.99)"><path class="f" d="M89.079,412.783c-.039.038.011.151.111.254s.211.154.249.116-.011-.151-.111-.252S89.117,412.747,89.079,412.783Z" transform="translate(-89.065 -412.772)"/></g></g><g transform="translate(62.949 40.204)"><path class="g" d="M132.232,243.929c.135-1.341.4-3.15.461-3.983.189-2.54.621-3.106,1.468-2.728,1.375.614-.066,7.108.923,7.194.531.046,1.244-3.75,1.528-5.622.3-2,.513-4.713.639-5.678.141-1.066,1.952-1.309,1.886.58-.069,1.952-.162,7.332.294,7.543,1.258.583,1.211-7.1,1.51-9.607a3.3,3.3,0,0,1,.347-1.224.945.945,0,0,1,1.734.394c.334,2.447-.155,9.061.031,10.133.056.328.879.494,1.082-.6.272-1.472.151-8.519,1.6-7.894,1.592.687-.118,9.023.532,9.873,1.213,1.58,1.349-7.48,2.855-7.087.762.2.745.485-.028,5.322-.355,2.226-1.844,7.051-2.654,11.18,3.49,12.317,9.6,35.388,8.708,42.993-.513,4.36-10.622,7.371-14.958,4.119s-7.354-17.729-7.354-17.729l5.212-3.082-5.095-27.908h0c-.214-.585-.311-2.106-.62-2.826A8.486,8.486,0,0,1,132.232,243.929Z" transform="translate(-132.115 -229.962)"/><g transform="translate(6.003 48.094)"><path class="o" d="M139.269,278.785a53.665,53.665,0,0,1-1.692-7.288,53.72,53.72,0,0,1-1.178-7.391,53.973,53.973,0,0,1,1.692,7.289A53.937,53.937,0,0,1,139.269,278.785Z" transform="translate(-136.377 -264.106)"/></g></g><g transform="translate(11.102)"><path class="f" d="M130.213,234.476a64.723,64.723,0,0,1,13.351-.538,4.872,4.872,0,0,0-2.7-6.987,4.133,4.133,0,0,1-1.585-.685,2.7,2.7,0,0,1-.358-2.658,4.036,4.036,0,0,0,.12-2.752c-.655-1.316-2.572-1.34-3.637-2.352-1.225-1.165-.938-3.136-1.172-4.81a7.138,7.138,0,0,0-6.095-5.929" transform="translate(-81.891 -198.828)"/><path class="f" d="M127.417,202.405a12.031,12.031,0,0,0-13,5.737c-1.327,2.421-2,5.54-4.475,6.775-1.509.754-3.29.565-4.97.724s-3.574.938-3.974,2.576c-.4,1.658.862,3.685-.256,4.974-.716.824-1.992.775-3,1.2-2.04.865-2.619,3.512-2.4,5.716s.954,4.436.434,6.589a28.785,28.785,0,0,0,6.85,1.5,9.687,9.687,0,0,0,6.618-1.857,2.457,2.457,0,0,0,1.269,2.447,6.15,6.15,0,0,0,2.826.69,27.872,27.872,0,0,0,9.526-1.062" transform="translate(-95.307 -201.141)"/><g transform="translate(14.922 0.112)"><g transform="translate(10.265 2.999)"><path class="g" d="M131.128,248.555c-.065-4.185-.125-8.326-.125-8.326s6.77-.663,7.251-7.54.238-22.752.238-22.752l-12.25-6.308-13.053,10.564.532,34.778a8.706,8.706,0,0,0,9.138,8.414h0A8.706,8.706,0,0,0,131.128,248.555Z" transform="translate(-113.188 -203.629)"/></g><g transform="translate(31.553 19.015)"><g transform="translate(0.832 1.148)"><path class="f" d="M130.609,216.7a.859.859,0,1,1-.849-.889A.869.869,0,0,1,130.609,216.7Z" transform="translate(-128.892 -215.814)"/></g><path class="f" d="M131.691,216.085c-.111.113-.74-.447-1.664-.507s-1.623.389-1.717.261c-.046-.058.07-.266.376-.476a2.232,2.232,0,0,1,2.7.2C131.659,215.812,131.746,216.034,131.691,216.085Z" transform="translate(-128.301 -214.999)"/></g><g transform="translate(21.311 19.015)"><g transform="translate(1.13 1.151)"><path class="f" d="M123.549,216.706a.859.859,0,1,1-.849-.89A.87.87,0,0,1,123.549,216.706Z" transform="translate(-121.832 -215.816)"/></g><path class="f" d="M124.42,216.085c-.113.113-.741-.447-1.664-.507s-1.623.389-1.717.261c-.046-.058.069-.266.376-.476a2.23,2.23,0,0,1,2.7.2C124.387,215.812,124.474,216.034,124.42,216.085Z" transform="translate(-121.03 -214.999)"/></g><g transform="translate(27.875 19.572)"><path class="f" d="M125.766,223.668a5.664,5.664,0,0,1,1.513-.187c.237-.01.462-.045.51-.216a1.383,1.383,0,0,0-.125-.759q-.294-.94-.614-1.972A35.648,35.648,0,0,1,125.7,215.4a35.237,35.237,0,0,1,1.728,5.017l.585,1.982a1.575,1.575,0,0,1,.079,1,.588.588,0,0,1-.4.342,1.491,1.491,0,0,1-.4.032A5.649,5.649,0,0,1,125.766,223.668Z" transform="translate(-125.69 -215.395)"/></g><path class="f" d="M105.91,221.36c.075-.487-.066.53.03-.235v0h0a26.493,26.493,0,0,1,.444-2.785c3.809-14.314,16.127-16.861,18.557-16.835,2.607.027,10.067-.192,14.217,5.006a13.645,13.645,0,0,1,2.375,13.659h0l-10.867-1.924c.806-2.706-.3-6.088-.932-7.667l-.062-.059c-2.064,10.28-13.145,12.589-13.145,12.589l-.128,15.069c-8.073-1.168-10.676-10.853-10.487-16.813Z" transform="translate(-105.9 -201.5)"/><g transform="translate(5.765 22.199)"><path class="g" d="M114.991,222.924c.065-1.033.544-3.506.2-4.481s-1.427-1.195-2.619-1.183a2.678,2.678,0,0,0-2.576,2.572,3.5,3.5,0,0,0,1.449,3.023,3.951,3.951,0,0,0,3.44.192" transform="translate(-109.993 -217.26)"/><g transform="translate(1.529 1.484)"><path class="p" d="M113.261,221.137c-.035-.07-.338.075-.77-.072a1.389,1.389,0,0,1-.893-1.342,1.052,1.052,0,0,1,.244-.82.932.932,0,0,1,.682-.183c.463.054.787.186.816.108.021-.052-.2-.3-.751-.468a1.223,1.223,0,0,0-1.047.172,1.426,1.426,0,0,0-.461,1.21,1.933,1.933,0,0,0,.431,1.171,1.436,1.436,0,0,0,.9.51C113.02,221.5,113.31,221.175,113.261,221.137Z" transform="translate(-111.079 -218.313)"/></g></g></g><g transform="translate(42.35 29.708)"><path class="f" d="M125.84,222.74c-.049-.044.172-.309.642-.206a.818.818,0,0,1,.589.578.923.923,0,0,1-.324.975.909.909,0,0,1-1.033.007.778.778,0,0,1-.331-.766c.094-.483.452-.561.462-.493.041.061-.125.228-.093.514a.407.407,0,0,0,.218.337.467.467,0,0,0,.466-.02.483.483,0,0,0,.165-.444.466.466,0,0,0-.248-.341C126.1,222.738,125.874,222.807,125.84,222.74Z" transform="translate(-125.372 -222.511)"/></g><g transform="translate(35.787 17.152)"><path class="f" d="M125.085,213.938c-.032.151-1.044,0-2.23.282-1.192.259-2.04.832-2.134.711-.1-.093.687-.925,2.017-1.221A2.837,2.837,0,0,1,125.085,213.938Z" transform="translate(-120.713 -213.597)"/></g><g transform="translate(23.132)"><path class="q" d="M124.308,201.633a9.433,9.433,0,0,1-1.131,0,9.329,9.329,0,0,0-2.974.582,10.692,10.692,0,0,0-3.752,2.413,13.2,13.2,0,0,0-2.936,4.616,25.834,25.834,0,0,0-1.344,9.953c.045,1.214.085,2.245.116,3.088a4.835,4.835,0,0,1-.011,1.138,4.8,4.8,0,0,1-.192-1.123c-.089-.727-.2-1.779-.282-3.088a33.253,33.253,0,0,1,.014-4.616,19.633,19.633,0,0,1,1.211-5.541,13.232,13.232,0,0,1,3.086-4.772,10.64,10.64,0,0,1,3.968-2.417,8.44,8.44,0,0,1,3.1-.435,5.31,5.31,0,0,1,.844.11C124.213,201.585,124.311,201.614,124.308,201.633Z" transform="translate(-111.729 -201.42)"/></g><g transform="translate(33.65 36.191)"><path class="p" d="M129.291,230.483a4.092,4.092,0,0,1-1.617.3,11.438,11.438,0,0,1-3.952-.456,9,9,0,0,1-3.492-1.921c-.759-.7-1.078-1.255-1.03-1.289.066-.055.48.411,1.265,1a10.7,10.7,0,0,0,3.409,1.706C126.767,230.7,129.286,230.3,129.291,230.483Z" transform="translate(-119.196 -227.114)"/></g></g><g transform="translate(13.327 40.182)"><path class="g" d="M105.108,273.661l7.942.439a39.879,39.879,0,0,0,2.245,6.51c6.392-11.1,11.349-25.963,12.58-31.938-.18-.6-.392-1.256-.658-1.995a8.464,8.464,0,0,1,.1-3.359c.214-1.331.586-3.121.7-3.95.341-2.524.747-2.921,1.628-2.635,1.2.389-.492,7.091.49,7.236.527.077,1.172-2.219,1.359-4.1s1.04-7.68,1.662-8.066c.913-.566,1.709.33,1.478,2.206-.232,1.9-.527,7.561.468,7.637s1.806-9.532,1.806-9.532-.156-2.092,1-2.041c2.079.09.455,10.219.276,11.18-.124.666.956.789,1.051.065.1-.745.6-9.608,2.717-9.538,1.624.055-1.259,8.347-.347,10.27s1.545-6.529,3.1-6.412c.578.044,1,.156-.058,4.939a107.7,107.7,0,0,1-3.709,11.208c-2.459,13.26-13.249,55.683-30.165,47.917-9.466-4.345-13.883-25.859-13.883-25.859Z" transform="translate(-96.886 -229.896)"/><g transform="translate(18.398)"><path class="h" d="M133.358,241.855a.517.517,0,0,1-.22-.03.494.494,0,0,1-.345-.531c.023-.569.111-1.4.244-2.472a35.553,35.553,0,0,0,.423-3.91c.011-.768-.008-1.593-.052-2.469a8.469,8.469,0,0,0-.134-1.321c-.072-.416-.351-.892-.671-.834l-.035.006h-.017c-.325-.015-.582.238-.686.628a3.569,3.569,0,0,0-.12,1.228v.03a74.488,74.488,0,0,1-.982,7.661c-.073.342-.151.689-.256,1.037a5.289,5.289,0,0,1-.192.525,1.555,1.555,0,0,1-.156.272.5.5,0,0,1-.383.241.687.687,0,0,1-.578-.482,2.843,2.843,0,0,1-.172-.565,8.432,8.432,0,0,1-.146-1.12,33.437,33.437,0,0,1,.061-4.591,10.575,10.575,0,0,0,.1-2.3,1.274,1.274,0,0,0-.452-.856.5.5,0,0,0-.394-.049.94.94,0,0,0-.218.094.291.291,0,0,0-.1.135,11.45,11.45,0,0,0-.637,2.307c-.163.811-.3,1.64-.434,2.476s-.248,1.683-.348,2.537a17.661,17.661,0,0,1-.423,2.61,8.825,8.825,0,0,1-.414,1.3,2.375,2.375,0,0,1-.378.649.547.547,0,0,1-.549.2.585.585,0,0,1-.375-.411,4.489,4.489,0,0,1-.1-1.428c.02-.455.058-.906.1-1.355.065-.773.139-1.538.165-2.29a7.733,7.733,0,0,0-.027-1.1,1.761,1.761,0,0,0-.111-.479.437.437,0,0,0-.089-.137c-.014-.016-.024-.008-.035-.023L124.1,237c-.609-.251-.811.6-.973,1.279-.141.711-.23,1.447-.373,2.171-.242,1.447-.551,2.882-.711,4.262a4.937,4.937,0,0,0,.08,1.975q.325,1,.644,1.969l.02.059-.014.062a106.13,106.13,0,0,1-4.106,13.269c-1.452,3.916-2.9,7.3-4.188,10.067s-2.424,4.9-3.217,6.36l-.955,1.641a4.078,4.078,0,0,1-.354.551,3.917,3.917,0,0,1,.282-.592l.885-1.676c.745-1.478,1.848-3.628,3.083-6.41s2.654-6.168,4.074-10.086a109.083,109.083,0,0,0,4.014-13.224l.006.12q-.317-.959-.642-1.941a5.318,5.318,0,0,1-.114-2.2c.165-1.435.465-2.83.7-4.282.141-.718.228-1.455.376-2.207a4.342,4.342,0,0,1,.375-1.135,1.109,1.109,0,0,1,.507-.511,1.13,1.13,0,0,1,.724-.028l.154.044a.777.777,0,0,1,.208.118.892.892,0,0,1,.232.325,2.255,2.255,0,0,1,.152.627,8.17,8.17,0,0,1,.032,1.185c-.027.778-.1,1.548-.168,2.319-.038.448-.075.893-.094,1.333a4.326,4.326,0,0,0,.069,1.234c.023.1.068.077.016.125l0,0c.006-.032-.007.047,0,.034v-.01a.08.08,0,0,0,0-.032c-.006-.007-.025-.039-.013-.042a.144.144,0,0,0,.054-.051,1.931,1.931,0,0,0,.282-.5,8.417,8.417,0,0,0,.389-1.218,17.323,17.323,0,0,0,.414-2.544q.154-1.3.355-2.557c.132-.842.276-1.675.442-2.5a11.358,11.358,0,0,1,.7-2.45.817.817,0,0,1,.287-.323,1.408,1.408,0,0,1,.342-.145,1,1,0,0,1,.776.108,1.718,1.718,0,0,1,.678,1.194,4.386,4.386,0,0,1,.015,1.258c-.046.392-.085.775-.114,1.163a33.184,33.184,0,0,0-.083,4.519,8.023,8.023,0,0,0,.132,1.061,2.312,2.312,0,0,0,.139.475.635.635,0,0,0,.1.172c.034.076.063-.017.059.107-.046-.094,0-.042.035-.121a1.235,1.235,0,0,0,.108-.19,4.436,4.436,0,0,0,.173-.47c.1-.325.18-.663.255-1a76.446,76.446,0,0,0,1.037-7.6v.03a3.952,3.952,0,0,1,.149-1.364,1.384,1.384,0,0,1,.359-.611.949.949,0,0,1,.68-.249l-.051.006a.8.8,0,0,1,.792.38,2.01,2.01,0,0,1,.282.711,8.724,8.724,0,0,1,.123,1.379c.032.883.039,1.714.014,2.49a33.012,33.012,0,0,1-.506,3.929c-.161,1.066-.28,1.893-.331,2.452a.435.435,0,0,0,.268.48C133.284,241.835,133.36,241.844,133.358,241.855Z" transform="translate(-109.947 -229.947)"/></g></g></g><g transform="translate(324.636 321.878)"><path class="l" d="M263.756,372.3c-15.611-10.908-19.153-31.152-18.536-49.351.1-3.037-.231-6.24,1.214-8.905s4.817-4.486,7.537-3.206c2.255,1.062,3.238,3.686,4.5,5.855a17.775,17.775,0,0,0,7.125,6.8c1.934,1,4.327,1.617,6.237.565,2.62-1.447,2.928-5.065,2.91-8.088q-.053-8.447-.106-16.892a28.146,28.146,0,0,1,.911-8.974c.94-2.866,3.016-5.53,5.891-6.336s6.427.852,7.034,3.809a27.653,27.653,0,0,1,.086,3.762c.085,1.255.669,2.643,1.859,2.992,1.206.354,2.416-.5,3.319-1.387,3.119-3.05,5.234-6.98,7.212-10.888s3.9-7.908,6.726-11.235,6.743-5.964,11.07-6.209,8.937,2.426,10.031,6.672-1.389,8.581-4.092,12.029A67.479,67.479,0,0,1,310.643,296.7a5.541,5.541,0,0,0-2.348,2.526c-.656,2.014,1.252,4.014,3.241,4.677,2.251.749,4.695.516,7.05.793s4.909,1.317,5.8,3.543c1.238,3.089-1.345,6.326-3.886,8.446a57.788,57.788,0,0,1-17.1,9.87c-2.223.813-4.561,1.526-6.353,3.088s-2.875,4.276-1.792,6.4,3.862,2.812,6.191,2.379,4.412-1.7,6.63-2.533c4.151-1.566,9.514-1.28,12.173,2.307a9.559,9.559,0,0,1,1.017,8.454,22.008,22.008,0,0,1-4.581,7.467,58.087,58.087,0,0,1-24.805,17.433c-9.631,3.34-18.555,4.244-28.127.744" transform="translate(-245.154 -264.603)"/><g transform="translate(18.363 2.544)"><path class="f" d="M258.191,385.056a132.639,132.639,0,0,1,4.936-24.9,271.027,271.027,0,0,1,10.746-29.148q1.625-3.795,3.209-7.5c1.059-2.457,2.11-4.895,3.283-7.215a134.99,134.99,0,0,1,7.513-12.946c2.588-4,5.191-7.708,7.649-11.152s4.827-6.606,7.1-9.4a107.371,107.371,0,0,1,11.7-12.366c1.49-1.347,2.681-2.352,3.5-3.024l.932-.758a2.442,2.442,0,0,1,.33-.244,2,2,0,0,1-.293.287l-.9.8c-.792.7-1.958,1.731-3.424,3.1a113.578,113.578,0,0,0-11.539,12.456c-2.248,2.8-4.585,5.971-7.03,9.419s-5.026,7.163-7.6,11.163a136.774,136.774,0,0,0-7.454,12.913c-1.165,2.309-2.2,4.726-3.262,7.189s-2.123,4.964-3.206,7.492A277.553,277.553,0,0,0,263.617,360.3a134.959,134.959,0,0,0-5.036,24.79" transform="translate(-258.191 -266.409)"/></g><g transform="translate(36.275 19.172)"><path class="f" d="M275.328,311.454a6.255,6.255,0,0,1-.294-1.289c-.159-.835-.349-2.051-.561-3.555-.427-3.009-.876-7.182-1.352-11.787s-.983-8.761-1.455-11.755c-.231-1.5-.431-2.707-.58-3.543a5.985,5.985,0,0,1-.168-1.311,6.073,6.073,0,0,1,.379,1.266c.214.823.475,2.026.755,3.519.573,2.988,1.144,7.153,1.621,11.765.458,4.544.873,8.656,1.19,11.8.151,1.418.28,2.613.385,3.572A5.965,5.965,0,0,1,275.328,311.454Z" transform="translate(-270.907 -278.214)"/></g><g transform="translate(40.696 45.113)"><path class="f" d="M312.891,296.669a8.474,8.474,0,0,1-1.549.186c-1,.089-2.44.208-4.217.415-3.558.383-8.454,1.086-13.821,2.1s-10.186,2.152-13.646,3.071c-1.735.448-3.128.847-4.095,1.117a8.375,8.375,0,0,1-1.516.373,8.252,8.252,0,0,1,1.452-.582c.948-.335,2.328-.793,4.054-1.292,3.444-1.02,8.266-2.216,13.649-3.241a136.789,136.789,0,0,1,13.884-1.94c1.789-.156,3.24-.218,4.244-.238A8.286,8.286,0,0,1,312.891,296.669Z" transform="translate(-274.046 -296.63)"/></g><g transform="translate(4.216 45.965)"><path class="f" d="M267.708,346.846a2.007,2.007,0,0,1-.266-.473c-.179-.38-.4-.844-.665-1.406-.57-1.223-1.351-3.013-2.288-5.239-1.873-4.45-4.268-10.679-6.819-17.586s-4.886-13.153-6.664-17.635c-.872-2.179-1.589-3.972-2.121-5.3-.228-.578-.416-1.054-.57-1.447a1.976,1.976,0,0,1-.163-.52,2.023,2.023,0,0,1,.266.475l.665,1.4c.57,1.223,1.352,3.014,2.288,5.24,1.873,4.45,4.269,10.677,6.82,17.589s4.885,13.151,6.663,17.634c.873,2.178,1.589,3.971,2.123,5.3.227.579.415,1.056.569,1.447A2.011,2.011,0,0,1,267.708,346.846Z" transform="translate(-248.148 -297.235)"/></g><g transform="translate(23.776 78.935)"><path class="f" d="M313.652,320.646a2.162,2.162,0,0,1-.513.211l-1.5.5-5.527,1.79c-4.668,1.514-11.09,3.678-18.182,6.079s-13.542,4.51-18.243,5.927c-2.35.71-4.257,1.264-5.582,1.62l-1.528.4a1.974,1.974,0,0,1-.544.1,2.165,2.165,0,0,1,.513-.211l1.5-.5,5.526-1.792c4.668-1.513,11.09-3.678,18.185-6.079s13.541-4.51,18.24-5.927c2.35-.709,4.257-1.263,5.582-1.62.613-.161,1.117-.294,1.53-.4A2.041,2.041,0,0,1,313.652,320.646Z" transform="translate(-262.034 -320.642)"/></g></g><g transform="translate(193.002 155.438)"><path class="f" d="M283.482,465.627l-108.3-.5a23.59,23.59,0,0,1-23.481-23.69l1.148-271.5a23.592,23.592,0,0,1,23.7-23.491l108.3.5a23.592,23.592,0,0,1,23.481,23.691l-1.148,271.5A23.589,23.589,0,0,1,283.482,465.627Z" transform="translate(-151.703 -146.442)"/><g transform="translate(7.191 8.835)"><path class="c" d="M282.608,153.213l-21-.1a5.216,5.216,0,0,0-5.12,5.306l-.017,3.809a5.213,5.213,0,0,1-5.12,5.306l-40.928-.189A5.222,5.222,0,0,1,205.348,162l.017-3.809a5.221,5.221,0,0,0-5.077-5.354L192.9,152.8l-18.376-.085a16.52,16.52,0,0,0-16.6,16.451l-1.121,265.008a16.522,16.522,0,0,0,16.445,16.592l108.081.5a16.52,16.52,0,0,0,16.6-16.451L299.053,169.8A16.522,16.522,0,0,0,282.608,153.213Z" transform="translate(-156.808 -152.714)"/></g><g transform="translate(11.956 54.416)"><rect class="b" width="132.715" height="184.038" rx="5.784" transform="translate(0 7.907)"/><g transform="translate(2.257 33.751)"><g transform="translate(22.368 9.31)"><path class="l" d="M205.659,222.1l-26.994,61.833a11.669,11.669,0,0,0,11.87,16.28c18.755-1.9,46.858-4.8,66.337-6.812a12.4,12.4,0,0,0,8.546-19.912l-41.37-53.656A10.763,10.763,0,0,0,205.659,222.1Z" transform="translate(-177.672 -215.644)"/><g class="m" transform="translate(3.478 4.479)"><path class="r" d="M206.04,224.958a1.9,1.9,0,0,1,.223-.6c.09-.193.189-.442.341-.72l.6-.927c.245-.338.578-.675.916-1.069a11.242,11.242,0,0,1,1.323-1.076,9.5,9.5,0,0,1,3.934-1.593,10.169,10.169,0,0,1,5.309.511,10.285,10.285,0,0,1,2.661,1.571l.624.528c.192.2.372.407.561.613.392.414.716.847,1.061,1.283l9.326,11.907,24.171,31.075,3.444,4.455a11.812,11.812,0,0,1,2.327,5.6,11.908,11.908,0,0,1-10.674,13.472l-6.164.638-12.6,1.3-24.838,2.535-11.812,1.193-2.879.289-1.428.144-1.523.048a10.983,10.983,0,0,1-5.675-1.785,11.333,11.333,0,0,1-5.124-9.792c.045-.465.045-.935.134-1.39s.185-.909.3-1.354l.468-1.29c.163-.411.342-.787.513-1.182q1.031-2.337,2.03-4.6c2.666-6.023,5.153-11.636,7.422-16.761,4.548-10.242,8.254-18.52,10.848-24.226,1.307-2.833,2.324-5.039,3.023-6.554a14.92,14.92,0,0,1,1.152-2.242,15.318,15.318,0,0,1-.862,2.369c-.637,1.542-1.564,3.788-2.752,6.672-2.423,5.781-5.974,14.125-10.393,24.425l-7.246,16.838q-.98,2.267-1.992,4.613c-.165.389-.349.787-.5,1.173l-.406,1.142c-.1.392-.166.792-.255,1.189s-.068.811-.108,1.218a9.937,9.937,0,0,0,4.533,8.536A9.544,9.544,0,0,0,191,294.661l1.328-.048,1.427-.149,2.878-.3,11.807-1.233,24.833-2.565,12.6-1.289,6.165-.628a10.4,10.4,0,0,0,9.349-11.735,10.336,10.336,0,0,0-2.018-4.912l-3.412-4.462L232.044,236.06,222.9,224.01c-.337-.442-.662-.892-1-1.263-.17-.193-.331-.392-.5-.575l-.563-.5a9.1,9.1,0,0,0-7.356-2.1,9.208,9.208,0,0,0-3.772,1.38,11.235,11.235,0,0,0-1.309.97c-.341.362-.68.668-.937.98l-.651.856c-.17.258-.289.49-.4.668A2.108,2.108,0,0,1,206.04,224.958Z" transform="translate(-180.142 -218.824)"/></g><path class="n" d="M201.61,234.478l4.03,24.642a4.042,4.042,0,0,0,4.15,3.388h0a4.043,4.043,0,0,0,3.883-3.995l.28-25.2a3.173,3.173,0,0,0-3.53-3.188l-6.04.685A3.172,3.172,0,0,0,201.61,234.478Z" transform="translate(-167.909 -209.734)"/><path class="n" d="M216.171,264.024a6.082,6.082,0,1,1-4.595-7.27A6.082,6.082,0,0,1,216.171,264.024Z" transform="translate(-166.852 -198.908)"/></g><path class="l" d="M183.429,210.176l-20.1,18.383a4.712,4.712,0,0,0,1.709,7.954c7.232,2.373,18.075,5.915,25.591,8.367a5.008,5.008,0,0,0,6.419-5.944l-6.461-26.58A4.346,4.346,0,0,0,183.429,210.176Z" transform="translate(-161.793 -209.034)"/><g class="m" transform="translate(1.272 1.612)"><path class="r" d="M182.891,211.469c-.024-.02.169-.344.756-.721a3.919,3.919,0,0,1,2.981-.459,4.275,4.275,0,0,1,1.988,1.079,4.783,4.783,0,0,1,1.249,2.372c.459,1.745.98,3.724,1.555,5.906l3.917,15.406.548,2.21a5.217,5.217,0,0,1-.059,2.676,5.259,5.259,0,0,1-6.72,3.531l-2.379-.772-4.861-1.586-9.576-3.148-4.55-1.507-1.109-.369-.551-.185-.623-.255a4.867,4.867,0,0,1-1.971-1.749,4.993,4.993,0,0,1-.294-4.867,5.461,5.461,0,0,1,.67-1.024l.42-.432.389-.352q.767-.689,1.51-1.355l5.526-4.923c3.388-3,6.146-5.41,8.077-7.049a19.066,19.066,0,0,1,3.106-2.427,19.011,19.011,0,0,1-2.695,2.878c-1.8,1.776-4.448,4.31-7.739,7.416l-5.4,5.065q-.729.68-1.483,1.383l-.37.351-.3.323a3.969,3.969,0,0,0-.469.745,3.6,3.6,0,0,0,.262,3.479,3.42,3.42,0,0,0,1.4,1.211l.447.177.551.177,1.111.356,4.562,1.472,9.584,3.117,4.858,1.593,2.376.782a3.746,3.746,0,0,0,4.8-2.483,3.728,3.728,0,0,0,.062-1.916q-.262-1.116-.518-2.2c-1.349-5.819-2.566-11.063-3.59-15.485l-1.33-5.961a4.019,4.019,0,0,0-.932-2.058,3.727,3.727,0,0,0-1.611-1.011,3.831,3.831,0,0,0-2.675.149C183.206,211.288,182.939,211.527,182.891,211.469Z" transform="translate(-162.696 -210.179)"/></g><path class="n" d="M177.277,215.578l-2.555,9.752a1.63,1.63,0,0,0,.975,1.93h0a1.63,1.63,0,0,0,2.088-.837l4.237-9.249a1.281,1.281,0,0,0-.779-1.755l-2.341-.738A1.281,1.281,0,0,0,177.277,215.578Z" transform="translate(-156.532 -206.752)"/><path class="n" d="M177.192,228.83a2.455,2.455,0,1,1-.5-3.436A2.454,2.454,0,0,1,177.192,228.83Z" transform="translate(-157.309 -202.549)"/><g transform="translate(94.121 4.175)"><path class="l" d="M233.26,214.668l-4.56,20.784a3.68,3.68,0,0,0,4.671,4.309c5.685-1.738,14.2-4.357,20.1-6.174A3.913,3.913,0,0,0,254.9,226.9L238.811,212.84A3.4,3.4,0,0,0,233.26,214.668Z" transform="translate(-228.612 -211.999)"/><g class="m" transform="translate(0.466 1.112)"><path class="r" d="M233.81,215.546c-.035-.006-.07-.3.128-.817a3.074,3.074,0,0,1,1.7-1.682,3.384,3.384,0,0,1,1.792-.223,3.817,3.817,0,0,1,1.914.961l3.668,3.051c2.7,2.3,5.906,5.024,9.459,8.046l1.348,1.162a4.234,4.234,0,0,1,1.214,1.8,4.276,4.276,0,0,1-2.806,5.495l-1.868.579-3.816,1.176-7.532,2.3-3.585,1.082-.875.262-.434.13-.534.121a3.953,3.953,0,0,1-2.13-.242,4.053,4.053,0,0,1-2.469-3.1,4.349,4.349,0,0,1-.032-.993l.077-.482.09-.4.359-1.544c.479-2.018.924-3.9,1.333-5.626.827-3.437,1.523-6.213,2.038-8.123a11.72,11.72,0,0,1,.955-2.933,11.677,11.677,0,0,1-.359,3.064c-.332,1.951-.862,4.762-1.551,8.23-.351,1.737-.734,3.634-1.145,5.667q-.156.765-.32,1.552l-.077.39-.045.324a3.043,3.043,0,0,0,.038.649,2.651,2.651,0,0,0,1.642,1.98,2.5,2.5,0,0,0,1.355.131l.342-.083.431-.135.872-.273,3.572-1.118,7.522-2.326q1.933-.594,3.819-1.169l1.869-.569a2.78,2.78,0,0,0,1.263-.786,2.809,2.809,0,0,0,.58-2.745,2.767,2.767,0,0,0-.776-1.185l-1.32-1.175-9.238-8.3-3.514-3.227a2.772,2.772,0,0,0-2.919-.824,2.969,2.969,0,0,0-1.633,1.252C233.953,215.292,233.879,215.563,233.81,215.546Z" transform="translate(-228.943 -212.788)"/></g><path class="n" d="M233.981,218.222l2.758,7.377a1.274,1.274,0,0,0,1.492.793h0a1.275,1.275,0,0,0,.956-1.473l-1.458-7.812a1,1,0,0,0-1.287-.769l-1.827.582A1,1,0,0,0,233.981,218.222Z" transform="translate(-226.444 -210.246)"/><path class="n" d="M240.264,226.419a1.918,1.918,0,1,1-1.868-1.966A1.918,1.918,0,0,1,240.264,226.419Z" transform="translate(-225.419 -206.91)"/></g><g transform="translate(7.201 76.249)"><path class="f" d="M173.19,285.794c-.027.025-.276-.206-.707-.649a8.588,8.588,0,0,1-.748-.844,14.333,14.333,0,0,1-.9-1.189,21.048,21.048,0,0,1-1.927-3.381,22.345,22.345,0,0,1-2-9.274,21.084,21.084,0,0,1,.363-3.875,14.247,14.247,0,0,1,.334-1.456,8.363,8.363,0,0,1,.334-1.076,3.381,3.381,0,0,1,.376-.883c.1.031-.358,1.32-.679,3.476a23.679,23.679,0,0,0-.247,3.81,23.771,23.771,0,0,0,1.958,9.083,23.8,23.8,0,0,0,1.793,3.371C172.32,284.739,173.265,285.727,173.19,285.794Z" transform="translate(-166.905 -263.166)"/></g><g transform="translate(12.973 77.349)"><path class="f" d="M180.259,286.739a3.789,3.789,0,0,1-.859-.544,8.348,8.348,0,0,1-.937-.738,13.965,13.965,0,0,1-1.162-1.073,20.9,20.9,0,0,1-2.6-3.2,22.292,22.292,0,0,1-3.514-9.4,20.951,20.951,0,0,1-.131-4.12,14.173,14.173,0,0,1,.173-1.572,8.34,8.34,0,0,1,.224-1.172,3.8,3.8,0,0,1,.292-.975c.1.021-.245,1.428-.32,3.737a23.251,23.251,0,0,0,.239,4.034,23.442,23.442,0,0,0,3.441,9.208,23.084,23.084,0,0,0,2.465,3.2C179.138,285.822,180.322,286.658,180.259,286.739Z" transform="translate(-171.002 -263.947)"/></g><g transform="translate(115.588 61.905)"><path class="f" d="M243.859,280.532c-.089-.048.693-1.447,1.579-3.857a33.484,33.484,0,0,0,1.255-4.323,33,33,0,0,0,.525-10.957,33.508,33.508,0,0,0-.835-4.423c-.652-2.483-1.3-3.951-1.2-3.989a4.618,4.618,0,0,1,.51,1,22.358,22.358,0,0,1,1.049,2.886,29.478,29.478,0,0,1,.956,4.461,30.746,30.746,0,0,1-.534,11.124,29.408,29.408,0,0,1-1.379,4.35,22.213,22.213,0,0,1-1.32,2.772A4.749,4.749,0,0,1,243.859,280.532Z" transform="translate(-243.852 -252.983)"/></g><g transform="translate(123.485 65.139)"><path class="f" d="M249.627,277.526c-.086-.045.541-1.19,1.211-3.162a24.638,24.638,0,0,0,.9-3.534,24.407,24.407,0,0,0-.063-8.885,24.631,24.631,0,0,0-.956-3.521c-.7-1.962-1.341-3.1-1.256-3.144a3.145,3.145,0,0,1,.514.761,16.246,16.246,0,0,1,1.089,2.252,21.476,21.476,0,0,1,1.082,3.558,22.611,22.611,0,0,1,.065,9.067,21.225,21.225,0,0,1-1.031,3.572,16.006,16.006,0,0,1-1.055,2.268A3.146,3.146,0,0,1,249.627,277.526Z" transform="translate(-249.459 -255.278)"/></g></g><g transform="translate(12.129 149.085)"><rect class="s" width="112.857" height="29.237" rx="4.225"/><text class="t" transform="translate(36.782 17.891)"><tspan x="0" y="0">ERROR</tspan></text></g><rect class="a" width="132.715" height="18.231"/><circle class="d" cx="2.498" cy="2.498" r="2.498" transform="translate(5.68 6.784)"/><circle class="d" cx="2.498" cy="2.498" r="2.498" transform="translate(15.925 6.784)"/><path class="d" d="M183.766,192.389a2.5,2.5,0,1,1-2.5-2.5A2.5,2.5,0,0,1,183.766,192.389Z" transform="translate(-152.599 -183.106)"/></g></g><g transform="translate(71.861 190.302)"><path class="f" d="M121.656,223.643l-15.74-3.868.116-.018a26.16,26.16,0,0,1-13.586,4.074,28.415,28.415,0,0,1-8.419-1.23,26.009,26.009,0,0,1-8.205-4.35A26.371,26.371,0,0,1,65.9,200.71,26.049,26.049,0,0,1,72.658,179.7a27.384,27.384,0,0,1,4.558-3.972c.852-.525,1.69-1.071,2.568-1.533l1.338-.645.668-.32.693-.255A26.567,26.567,0,0,1,93.8,171.251a26.2,26.2,0,0,1,23.1,17.634,27.129,27.129,0,0,1,1.454,8.5,26.083,26.083,0,0,1-3.769,13.634v-.141l7.075,12.767-7.322-12.629-.041-.07.044-.072a25.929,25.929,0,0,0,3.631-13.486,26.853,26.853,0,0,0-1.472-8.361,25.786,25.786,0,0,0-22.73-17.269,26.1,26.1,0,0,0-11.094,1.7l-.68.249-.654.316-1.311.632c-.859.452-1.682.989-2.516,1.5a26.86,26.86,0,0,0-4.468,3.895,25.842,25.842,0,0,0,3.064,37.837,25.672,25.672,0,0,0,8.051,4.3,28.109,28.109,0,0,0,8.282,1.247,25.956,25.956,0,0,0,13.434-3.934l.055-.035.061.017Z" transform="translate(-65.701 -171.193)"/><path class="l" d="M82.856,182.116l.832,13.148a2.135,2.135,0,0,0,2,1.995h0a2.134,2.134,0,0,0,2.247-1.9L89.4,182.15a1.673,1.673,0,0,0-1.687-1.858l-3.206.045A1.673,1.673,0,0,0,82.856,182.116Z" transform="translate(-58.693 -167.475)"/><path class="l" d="M89.156,198.811a3.209,3.209,0,1,1-2.035-4.057A3.21,3.21,0,0,1,89.156,198.811Z" transform="translate(-58.673 -161.633)"/></g></g></svg>