<svg xmlns="http://www.w3.org/2000/svg" width="49.269" height="64.818" viewBox="0 0 49.269 64.818"><defs><style>.a{fill:#c4c9ce;}</style></defs><g transform="translate(-222.073 -284)"><path class="a" d="M237.9,390.753c-2.3-.769-4.782-1.2-6.852-2.37a16.635,16.635,0,0,1-8.936-16.343c.382-6.811,3.881-11.81,10.067-14.8a1.633,1.633,0,0,0,1.151-1.824c-.09-1.242-.01-2.495-.025-3.743A4.358,4.358,0,0,1,235.9,347.4c2.62-1.3,5.225-2.624,7.853-3.9,3.35-1.629,6.366.226,6.441,4.009.068,3.407.044,6.818,0,10.226a2.628,2.628,0,0,0,1,2.2c1.093.989,1.959,2.223,2.993,3.283a2.3,2.3,0,0,0,1.386.71c2.254.074,4.512.018,6.768.037,2.675.023,4.111,1.129,4.72,3.7q2.113,8.945,4.164,17.9c.5,2.174-.448,3.708-3.071,5.179h-2.017a5.387,5.387,0,0,1-3.4-4.389c-.807-4.028-1.775-8.025-2.673-12.035-.494-2.2-.491-2.2-2.787-1.765-.019.308-.046.634-.06.96a17.36,17.36,0,0,1-8.108,14.407,21.252,21.252,0,0,1-7.742,2.821Zm-4.588-29.281c-5.857,2.845-8.556,10.18-6.222,16.39a13.41,13.41,0,0,0,25.741-7.138c-.911-5.477-6.6-10.948-11.136-10.6,0,1.38.009,2.768,0,4.155a23.281,23.281,0,0,1-.1,3.448,4.191,4.191,0,0,1-8.271-.934C233.257,365.071,233.309,363.348,233.309,361.472Z" transform="translate(0 -41.936)"/><path class="a" d="M292.879,284c3.728,1.37,5.3,3.29,5.266,6.432a6.26,6.26,0,0,1-5.63,6.208A6.408,6.408,0,0,1,285.767,292a6.308,6.308,0,0,1,3.628-7.454c.48-.2.978-.364,1.467-.545Z" transform="translate(-45.188)"/></g></svg>