<svg xmlns="http://www.w3.org/2000/svg" width="39" height="33.539" viewBox="0 0 39 33.539"><defs><style>.a{fill:#c4c9ce;}</style></defs><g transform="translate(407.1 -297.926)"><path class="a" d="M-370.919,325.887a9.3,9.3,0,0,1-8.295-6.754c-.548-2.576-1.643-3-3.387-1.622-2.211-.771-4.218-1.622-6.287-2.15-.892-.223-1.156-.507-1.156-1.42.061-3.468.061-6.916-.02-10.384a2.1,2.1,0,0,0-.892-1.562c-2.393-1.379-4.827-2.7-7.3-3.934a2.136,2.136,0,0,0-1.724.1c-2.048,1.136-4.036,2.434-6.084,3.59a1.815,1.815,0,0,0-1.034,1.825q.03,13.294.02,26.568,0,.669.061,1.278h1.541c.081-.669.183-1.257.264-1.906h4.888c.081.669.122,1.278.182,1.906h1.744c.061-.649.1-1.217.162-1.866h6.145c.02.324.081.588.081.872.02.3.061.608.081,1.034h1.967V318.809c2.819.487,3.732.832,5.719,2.413,1.42,1.136,2.778,2.332,4.117,3.569,2.515,2.312,4.908,4.766,8.66,4.807.081.69.122,1.257.2,1.846h1.764c.061-.669.1-1.237.162-1.825.466-.081.852-.162,1.237-.223v-3.509Zm-29.427,2.129h-4.827c-.02-.487-.061-.953-.081-1.562h4.908C-400.347,326.982-400.347,327.449-400.347,328.017Zm-4.908-6.368V319.9h4.908v1.744Zm4.908,1.541v1.541h-4.908V323.19Zm8.214-8.112c-.832.365-1.136-.02-1.339-.771-.3-.994-.69-2.008-1.075-3.1.892-.791,1.136-1.764.466-2.535a1.706,1.706,0,0,0-2.616.162c-.69.69-.548,1.237.832,2.515-2.434.568-1.156,2.413-1.44,3.793h-7.95v-11.3h13.142C-392.133,307.635-392.133,311.326-392.133,315.078Z"/><path class="a" d="M-282.87,377.2a2.213,2.213,0,0,0,1.521-.973c.264-1.359.061-1.217-.122-1.42a2.933,2.933,0,0,0-1.278-.69c-.852-.264-1.724.649-1.663,1.541C-284.351,376.593-283.844,377.343-282.87,377.2Z" transform="translate(-97.804 -60.704)"/></g></svg>