<svg xmlns="http://www.w3.org/2000/svg" width="77.51" height="58.996" viewBox="0 0 77.51 58.996"><defs><style>.a{fill:#c4c9ce;}</style></defs><g transform="translate(419 -314.1)"><path class="a" d="M-419,413.2c.113.413.225.789.338,1.2-.113-.413-.225-.789-.338-1.2Z" transform="translate(0 -61.885)"/><path class="a" d="M-339.994,369.04c-4.469-.113-3.192-2.366-3.042-3.793.638-6.384,1.54-12.73,2.366-19.077-.188-.038-.376-.038-.563-.075-1.051,5.483-2.065,10.928-3.267,17.237-.3-2.779-.488-4.732-.676-6.684h-.864v10.477c-.376,0-.714-.038-1.089-.038V348.348c-.6,3.943-1.239,8.187-1.878,12.392-.263-.038-.526-.038-.789-.075V347.785c-.9,5.671-1.878,11.6-2.816,17.537-.376-.038-.751-.038-1.089-.075V348.836c-.563,2.779-1.014,5.182-1.5,7.586-.225,0-.451-.038-.676-.038v-9.351c2.554-3.38,5.22-5.858,9.388-3.755a4.653,4.653,0,0,0,4.469-.526c2.816-2.328,5.295-5.257,8.525-8.562-2.554-.376-4.018-.563-5.445-.789l.113.113h0c.338.338.676.714,1.277,1.427-4.243.789-9.013-1.277-11.041,5.37-1.314-3.68-.451-6.2,2.554-6.76,2.366-.451,4.807-.038,7.21,0h0a21.78,21.78,0,0,0-3.267-1.277c-5.971-1.427-8.9,1.765-8.449,8.9-1.8,1.164-3.568,2.291-5.971,3.83.451-3.042.263-5.933,1.314-7.849a12.542,12.542,0,0,0,.789-11.3c-2.216-5.558-6.271-7.811-10.815-8.862-4.694-1.051-9.426-1.878-14.608-2.892,1.615,4.206,3.079,8.525,4.732,12.73a3.324,3.324,0,0,1-1.84.638c-.451.038-1.014,1.127-1.277,1.878-.939,2.554-2.065,3.117-3.906,1.54-.864-.751-1.314-.9-2.328-.15-2.028,1.427-3.23.488-3.755-2.366-.15-.789-.563-1.953-.976-2.065-2.554-.638-2.741-2.591-2.178-5.107-1.54,2.666-1.277,3.943.976,5.295a4.881,4.881,0,0,1,1.54,1.615c.6,1.164.789,2.929,1.615,3.605.789.638,2.178.15,2.629.15-.376,3.455-.789,7.06-1.2,10.7-1.427-.15-2.554-.976-3.154-3.53a4.586,4.586,0,0,0-7.323-2.666c3.718-1.239,6.5.676,7.173,5.333a15.187,15.187,0,0,0-2.253-3,4.813,4.813,0,0,0-5.971-.451c-1.5.939-3,1.878-4.544,2.666-.3.15-.864-.376-1.314-.6-.751.225-1.5.488-3,.939,3.267,2.028,5.821,3.868,8.525,5.22a5.575,5.575,0,0,0,4.544.376c-.413,6.121-.338,12.242-.488,18.326-.038,1.164-1.127,2.4-1.953,3.53-.939,1.239-2.141,2.4-3.23,3.605l1.127.789H-353.4c.075-.075.526-1.127.864-1.089,3.643.188,7.285.6,10.928.751,1.089.038,3.154-.6,3.192-.976C-338.567,370.767-339.431,369.078-339.994,369.04ZM-376.383,316.5c4.694,1.051,9.463,1.69,14.045,3.267,4.657,1.615,7.661,8.224,6.609,13.406a21.548,21.548,0,0,1-1.727,4.206c.3-9.163-2.328-13.744-9.426-16.035-2.366-.751-4.732-1.352-7.06-2.216A4.7,4.7,0,0,1-376.383,316.5Zm-13.406,46.528V346.884h-1.277v8.187c-.413,0-.826,0-1.239.038-.3-2.816-.563-5.6-.864-8.412a7.481,7.481,0,0,0,3.192-2.554,2.535,2.535,0,0,1,1.465-1.127v20.053C-388.926,363.031-389.339,363.031-389.789,363.031Zm4.506,4.168v-16.26c-.563,2.028-1.014,3.53-1.427,5.032-.263-.038-.563-.038-.826-.075V343.016a2.4,2.4,0,0,1,.6.225c2.7,1.164,4.506,3.38,5.6,6.572-1.014,5.821-2.065,11.641-3.079,17.462A6.7,6.7,0,0,1-385.283,367.2Zm2.929-23.245c-2.291-3.793-.188-8,4.657-8.675C-381.19,337.12-382.767,339.711-382.354,343.955Zm21.706,22.457V348.123h-.3c-.488,2.065-.939,4.131-1.427,6.234-.338-.038-.676-.038-1.014-.075.225-3.192.451-6.422.676-9.614a1.829,1.829,0,0,1-.451-.038c-1.164,6.91-2.366,13.819-3.53,20.729-.225-.038-.488-.038-.714-.075-.6-6.046-1.2-12.092-1.84-18.1h-.976v19.039h-1.427c0-3.568-.113-7.135.038-10.7.15-3.605.488-7.21.751-10.778h-.526c-.789,5.633-1.577,11.3-2.366,16.936-.263,0-.563-.038-.826-.038V348.386c-.075.038-.113.113-.188.15-.976,6.346-1.953,12.73-2.929,19.077a10.605,10.605,0,0,0-1.089-.075V350.376c-.638,3.605-1.389,8.036-2.141,12.468-.338-.038-.714-.038-1.051-.075.376-4.657.714-9.313,1.089-14.007h-.263l-.113.676c-.225-1.352-.413-2.741-.638-4.131,6.422-.638,4.844-7.511,7.173-12.055-4.469,1.239-8.449,1.953-9.538,8.036-.3-.188-.563-.338-.864-.526.563-3.154,1.089-6.309,1.69-9.614,3.868,2.1,3.943,2.028,5.783-1.99a3.106,3.106,0,0,1,1.727-1.352,5.869,5.869,0,0,0,.976-.413c.714,1.765,1.465,3.53,2.328,5.22,2.816,5.746,7.586,7.773,12.918,6.91,1.577-.263,2.291.413,2.366,2.141.113,2.591.038,5.182.038,7.4.113-.188.451-.676.826-1.2-.976,6.2-1.953,12.43-2.929,18.626C-359.822,366.449-360.235,366.411-360.648,366.411Z" transform="translate(-7.993)"/><path class="a" d="M-352.513,336.6c2.065,0,3.492-1.727,3.53-4.168.038-2.741-1.314-4.431-3.53-4.431-2.253,0-3.568,1.69-3.492,4.469.038,2.4,1.389,4.056,3.3,4.168-1.127-2.028-2.328-3.342-2.216-4.394.15-1.164,1.615-2.892,2.516-2.854.864,0,2.253,1.915,2.328,3.042.038,1.014-1.239,2.216-2.441,4.168Z" transform="translate(-39.337 -8.68)"/></g></svg>