<svg xmlns="http://www.w3.org/2000/svg" width="53.225" height="45.32" viewBox="0 0 53.225 45.32"><defs><style>.a{fill:#c4c9ce;}</style></defs><g transform="translate(199.906 -316.1)"><path class="a" d="M-174.437,354.04c1.685,1.909,3.285,3.678,4.858,5.475.309.337.59.674.9,1.011.253.281.449.646.2.955a1.494,1.494,0,0,1-.87.477c-1.909.056-3.847.028-5.756.028h-7.946v6.6c0,.73-.309,1.151-.87,1.264a1.018,1.018,0,0,1-1.235-.842,6.775,6.775,0,0,1-.028-1.067V346.486a3.2,3.2,0,0,0-.056-.73,1,1,0,0,0-1.067-.927,1.02,1.02,0,0,0-1.011,1.067c-.028,1.516,0,3,0,4.521v11.007c0,.168-.028.337-.028.562h-11.4a1.067,1.067,0,0,1-1.067-.477c-.225-.449.028-.786.337-1.123,1.713-1.909,3.426-3.819,5.11-5.728.14-.168.281-.337.533-.618H-196a.983.983,0,0,1-1.011-.477c-.225-.421,0-.758.253-1.067,1.657-2.19,3.341-4.38,5-6.542.112-.168.253-.337.449-.618h-1.235c-.87-.028-1.207-.618-.786-1.376q4.212-7.75,8.452-15.5a1.475,1.475,0,0,1,.814-.59c.449-.084.674.309.87.674,2.667,4.942,5.363,9.884,8.03,14.825a6.429,6.429,0,0,1,.393.758.818.818,0,0,1-.758,1.235c-.421.028-.842,0-1.4,0,.927,1.207,1.769,2.331,2.639,3.426.955,1.264,1.909,2.5,2.892,3.762.253.309.477.7.2,1.011a1.524,1.524,0,0,1-.927.449A20.732,20.732,0,0,1-174.437,354.04Z" transform="translate(0 -8.457)"/><path class="a" d="M-97.707,350.215h-1.937c-.112,0-.253-.14-.365-.225-.842-.927-1.657-1.853-2.471-2.78a.212.212,0,0,0,.028-.112c1.46-1.348,1.6-2.639.421-4.212-1.1-1.46-2.218-2.892-3.369-4.38,1.235-1.629,2.443-3.229,3.763-4.97h-1.151c-1.039,0-1.376-.562-.87-1.46,2.583-4.745,5.138-9.49,7.722-14.236a7.2,7.2,0,0,1,.618-1.123c.225-.281.533-.618.814-.618a1.185,1.185,0,0,1,.814.618c1.039,1.8,1.994,3.622,3,5.447,1.8,3.285,3.566,6.57,5.335,9.884.562,1.011.253,1.516-.927,1.544h-1.067c.421.59.786,1.067,1.179,1.544,1.432,1.881,2.864,3.734,4.3,5.588.253.337.449.674.253,1.067-.2.421-.59.477-1.011.477H-84.79c.225.253.393.449.562.646,1.713,1.937,3.426,3.847,5.138,5.784.449.505.505.927.14,1.235a1.6,1.6,0,0,1-.87.281c-3.678.028-7.328,0-11.007,0h-2.583V356.9a1.118,1.118,0,0,1-1.011,1.263,1.083,1.083,0,0,1-1.123-1.151c-.028-1.4,0-2.836,0-4.24V334.126a1.045,1.045,0,0,0-1.1-1.039,1.037,1.037,0,0,0-1.011,1.123v15.471A2.586,2.586,0,0,0-97.707,350.215Z" transform="translate(-67.97)"/></g></svg>