<svg xmlns="http://www.w3.org/2000/svg" width="58.022" height="58.021" viewBox="0 0 58.022 58.021"><defs><style>.a{fill:#c4c9ce;}</style></defs><g transform="translate(-116.688 -192.027)"><path class="a" d="M116.688,193.343v-.453c1.128-.025,2.256-.072,3.384-.072q25.521-.007,51.043-.022c.857,0,1.806.36,2.579-.358q1.175-.271.9.9a1.849,1.849,0,0,0-.508,1.657q.021,27.675.056,55.349h-.452c-.935-.724-2.031-.43-3.056-.432q-24.965-.029-49.93-.017c-3.413,0-3.571-.162-3.572-3.571q-.008-24.965-.016-49.93C117.118,195.373,117.412,194.277,116.688,193.343Zm35.3,47.515a1.792,1.792,0,0,1-2.325,1.232c-1.14-.309-1.373-1.267-1.372-2.322.005-4.446,0-8.892,0-14-1.354,3.246-2.851.2-4.291.725.109.36.179.634.274.9.548,1.546,1.065,3.038-1.619,2.616-1.11-.175-1.159.629-1.156,1.44.008,2.714-.006,5.427,0,8.141,0,1.187-.049,2.5-1.581,2.485-1.506-.014-1.591-1.319-1.588-2.509.006-2.861,0-5.722,0-8.582a86.106,86.106,0,0,0-.309,8.8c0,1.1-.065,2.294-1.495,2.343-1.594.055-1.662-1.211-1.664-2.395-.006-2.714.009-5.427-.014-8.141-.006-.7.208-1.733-1-1.571-2.763.374-2.251-1.112-1.646-2.719.15-.4.472-.809.019-1.246-.683.04-1.353.876-2.056.133-.639-.676-.241-1.412-.007-2.118.734-2.214,1.618-4.39,2.173-6.647.678-2.76,1.927-4.588,5.371-4.028-2.862-2.492-3.27-4.5-1.5-6.258a3.165,3.165,0,0,1,4.8-.03,3.567,3.567,0,0,1,1.036,2.655c-.042,1.73-1.462,2.412-3.068,3.758,4.843-1.119,4.874,2.506,6.031,5.227,1.063-7.051,1.293-7.133,8.123-7.29a5.007,5.007,0,0,1,5.375,3.467c1.028,2.468,2.3,4.834,3.5,7.308.567-.5.368-.971.369-1.376.016-6.407.065-12.815-.025-19.221-.023-1.612.473-2.067,2.037-2.009,1.219.045,2.594.473,4.033-.644H123.172c1.282.909,2.682.671,4.033.669,1.091,0,1.642.24,1.639,1.493q-.048,20.239,0,40.478c0,1.176-.419,1.582-1.578,1.582-1.35,0-2.762-.274-4.02.774H168c-1.054-1.148-2.365-.832-3.534-.751-1.738.121-2.156-.517-2.119-2.176.106-4.822.056-9.648.009-14.471-.005-.517.5-1.558-.708-1.475-1.511.1-1.855-1.025-2.375-2.011q-1.176-2.23-2.345-4.465l-.424.14q0,1.091,0,2.181,0,9.271,0,18.543c0,1.147-.255,2.146-1.479,2.494a1.951,1.951,0,0,1-2.526-1.3V229.823c-.377.744-.546.921-.546,1.1C151.952,234.234,151.97,237.546,151.984,240.858Zm16.2-20.975c.972-.373,2.278.552,2.9-.82.183-.406-2.318-3.62-2.6-3.463a5.026,5.026,0,0,0-2.566,3.456C165.736,220.333,167.406,219.51,168.185,219.882Zm.441,3.321c-2.832,0-2.885.014-2.83.706.051.643,2.39,3.583,2.724,3.379a4.758,4.758,0,0,0,2.4-3.35C171,222.468,169.267,223.646,168.626,223.2Z" transform="translate(0 -0.299)"/><path class="a" d="M116.688,198.063c.724.935.43,2.031.432,3.056q.029,24.965.016,49.93c0,3.41.159,3.57,3.572,3.571q24.965.01,49.93.017c1.025,0,2.121-.292,3.056.432H116.688Z" transform="translate(0 -5.019)"/><path class="a" d="M173.694,192.139c-.773.718-1.723.357-2.579.358q-25.521.038-51.043.022c-1.128,0-2.256.047-3.384.072.407-.935,1.223-.424,1.81-.425Q146.1,192.116,173.694,192.139Z"/><path class="a" d="M457.721,255.069q-.03-27.675-.056-55.349a1.849,1.849,0,0,1,.508-1.657q0,27.6-.028,55.2C458.145,253.846,458.656,254.662,457.721,255.069Z" transform="translate(-283.575 -5.019)"/><path class="a" d="M326.724,425.632l-.517.167c-.014-3.312-.031-6.624-.029-9.936,0-.177.169-.355.546-1.1Z" transform="translate(-174.223 -185.24)"/><path class="a" d="M313.43,264.695a3.429,3.429,0,0,1-3.464,3.606,3.516,3.516,0,0,1-3.489-3.4,3.445,3.445,0,0,1,3.5-3.584A3.365,3.365,0,0,1,313.43,264.695Z" transform="translate(-157.838 -57.626)"/></g></svg>