<svg xmlns="http://www.w3.org/2000/svg" width="83.167" height="67.475" viewBox="0 0 83.167 67.475"><defs><style>.a{fill:#c4c9ce;}</style></defs><g transform="translate(-17 -29.199)"><path class="a" d="M20.069,55.091c2.327-.05,2.129-.2,2.129,2.129v33.96a6,6,0,0,0,.446,2.624A4.569,4.569,0,0,0,27,96.624c1.485.05,2.921,0,4.406,0,1.089,0,1.188-.1,1.188-1.238V67.863c0-1.733.644-2.426,2.376-2.426H82c1.881,0,2.574.644,2.574,2.525V95.238c0,1.337.049,1.386,1.386,1.386h3.663c3.317,0,5.346-2.079,5.346-5.4V56.774c0-1.733,0-1.733,1.733-1.733h.5a2.7,2.7,0,0,0,2.97-1.634V48.358a3.415,3.415,0,0,0-2.129-2.079c-12.524-5.495-25-11.039-37.524-16.633a4.623,4.623,0,0,0-3.96,0C44.029,35.338,31.406,40.883,18.832,46.427A3.2,3.2,0,0,0,17,48.358v5.049A3.028,3.028,0,0,0,20.069,55.091Zm52.524-2.624H80.86c.941,0,1.089.2,1.139,1.089v3.069c0,.644-.248,1.04-.941,1.04H72.543c-.644,0-.941-.347-.891-.99V53.407C71.553,52.764,71.9,52.467,72.593,52.467Zm-19.208.99c0-.644.248-1.04.941-1.04h8.515a.819.819,0,0,1,.941.941v3.168c0,.743-.3,1.089-1.089,1.089H54.623c-1.04,0-1.188-.2-1.238-1.188Zm-18.217,0c0-.644.248-1.04.941-1.04h8.465c.693,0,.99.3.99.99v3.168a.919.919,0,0,1-1.04,1.04H36.307c-.941,0-1.139-.2-1.139-1.188C35.168,55.487,35.217,54.5,35.168,53.457Z"/><path class="a" d="M98.9,107.7H55.284c-1.436,0-1.584.1-1.584,1.584v25.594c0,1.386.05,1.436,1.386,1.436H99.1c1.337,0,1.337-.05,1.386-1.386V109.334C100.531,107.8,100.432,107.7,98.9,107.7ZM59,116.017a.684.684,0,0,1,.644-.5H93.947a1.372,1.372,0,0,1,1.287,2.129c-.2.4-.5.446-.891.446H60.383C59.046,118.1,58.5,117.3,59,116.017ZM95.234,128a.823.823,0,0,1-.693.5c-.347,0-.644.05-.99.05H60.284A1.372,1.372,0,0,1,59,126.412c.2-.446.594-.446.941-.446h33.91C95.184,125.917,95.729,126.71,95.234,128Z" transform="translate(-18.532 -39.639)"/></g></svg>