<svg xmlns="http://www.w3.org/2000/svg" width="48.764" height="33.539" viewBox="0 0 48.764 33.539"><defs><style>.a{fill:#c4c9ce;}</style></defs><g transform="translate(404.2 -325.699)"><path class="a" d="M-324.738,346.128a.946.946,0,0,1-.471.733c-2.171.889-3.349,2.459-3.3,4.5a4.2,4.2,0,0,0,1.805,3.427,4.191,4.191,0,0,1-1.779-3.4c-.052-2.067,1.1-3.61,3.3-4.5a.869.869,0,0,0,.445-.759c.078-1.622.052-3.27.052-4.918V337.6h-.026v3.584C-324.711,342.832-324.685,344.48-324.738,346.128Z" transform="translate(-55.892 -8.787)"/><path class="a" d="M-384.442,413.954c-1.674,1.727-4.317,2.747-8.031,2.25v-2.9h-.026v2.93C-388.759,416.727-386.117,415.681-384.442,413.954Z" transform="translate(-8.639 -64.683)"/><path class="a" d="M-383.4,406.917c2.485-.5,4.944-1.02,7.4-1.517C-378.456,405.9-380.915,406.394-383.4,406.917Z" transform="translate(-15.359 -58.85)"/><path class="a" d="M-322.7,389.5a2.95,2.95,0,0,0,2.982,3.113A2.98,2.98,0,0,1-322.7,389.5Z" transform="translate(-60.178 -47.109)"/><path class="a" d="M-375.148,390.723a3.221,3.221,0,0,1-.052-.523A3.546,3.546,0,0,0-375.148,390.723Z" transform="translate(-21.413 -47.626)"/><path class="a" d="M-383.876,351.174c-2.407-2.119-5.311-2.485-8.424-2.25v.026c3.139-.235,6.043.131,8.45,2.25a11.781,11.781,0,0,1,2.276,2.747A11.5,11.5,0,0,0-383.876,351.174Z" transform="translate(-8.787 -17.103)"/><path class="a" d="M-319.587,378.1a2.95,2.95,0,0,0-3.113,2.982A2.98,2.98,0,0,1-319.587,378.1Z" transform="translate(-60.179 -38.691)"/><path class="a" d="M-307.818,381.213A2.95,2.95,0,0,0-310.8,378.1,2.98,2.98,0,0,1-307.818,381.213Z" transform="translate(-68.966 -38.692)"/><path class="a" d="M-372.7,397.2a2.8,2.8,0,0,0,.5.471A2.127,2.127,0,0,1-372.7,397.2Z" transform="translate(-23.259 -52.795)"/><path class="a" d="M-368.534,371.346c-1.648-.366-3.27-.706-4.866-1.046C-371.778,370.64-370.182,371.006-368.534,371.346Z" transform="translate(-22.742 -32.932)"/><path class="a" d="M-398.3,331.8v30.347h.549V331.8Z" transform="translate(-4.357 -4.504)"/><path class="a" d="M-373.438,396.092a3.41,3.41,0,0,1-.262-.392A1.708,1.708,0,0,0-373.438,396.092Z" transform="translate(-22.521 -51.687)"/><path class="a" d="M-382.637,359.8c-1.831-4.16-5.415-5.677-9.863-4.971C-388.053,354.149-384.469,355.641-382.637,359.8Z" transform="translate(-8.639 -21.386)"/><path class="a" d="M-370.308,399.135a1.207,1.207,0,0,1-.392-.235A.985.985,0,0,0-370.308,399.135Z" transform="translate(-24.736 -54.05)"/><path class="a" d="M-368.52,400.009a2.057,2.057,0,0,1-.68-.209A2.057,2.057,0,0,0-368.52,400.009Z" transform="translate(-25.844 -54.715)"/><path class="a" d="M-360.6,392.478h0a2.757,2.757,0,0,0,2.3-2.878h0A2.774,2.774,0,0,1-360.6,392.478Z" transform="translate(-32.194 -47.183)"/><path class="a" d="M-371.842,416.278H-392.3v.026h20.484c-.026-3.113-.026-6.122-.026-9.1Z" transform="translate(-8.787 -60.179)"/><path class="a" d="M-267.1,405.4h0c1.674,4.186,5.6,5.677,9.81,4.918v-.026C-261.5,411.051-265.4,409.56-267.1,405.4Z" transform="translate(-101.233 -58.85)"/><path class="a" d="M-261.009,369.4c-1.988.419-4,.811-5.991,1.23C-265.012,370.211-263.024,369.819-261.009,369.4Z" transform="translate(-101.307 -32.268)"/><path class="a" d="M-248.429,409.26c-2.224-.471-4.447-.916-6.671-1.36C-252.876,408.345-250.653,408.789-248.429,409.26Z" transform="translate(-110.094 -60.696)"/><path class="a" d="M-304.185,389.2c.052,2.171-1.1,3.636-3.715,4.683C-305.258,392.836-304.107,391.371-304.185,389.2Z" transform="translate(-71.107 -46.888)"/><path class="a" d="M-253.2,381.678a2.829,2.829,0,0,0-2.2-2.878A2.848,2.848,0,0,1-253.2,381.678Z" transform="translate(-109.873 -39.209)"/><path class="a" d="M-270.3,391a2.634,2.634,0,0,0,2.276,2.485A2.682,2.682,0,0,1-270.3,391Z" transform="translate(-98.871 -48.217)"/><path class="a" d="M-271.586,399.621A10.994,10.994,0,0,1-276.4,390.7,10.926,10.926,0,0,0-271.586,399.621Z" transform="translate(-94.366 -47.995)"/><path class="a" d="M-308.187,390a2.98,2.98,0,0,1-3.113,2.982A2.964,2.964,0,0,0-308.187,390Z" transform="translate(-68.597 -47.479)"/><path class="a" d="M-404.2,325.7v33.538h48.764V325.7Zm47.691,31.942h-46.148V327.3h46.148Z"/><path class="a" d="M-371.916,355.734a1.093,1.093,0,0,0-.209-.157,7.3,7.3,0,0,1-1.753-.863,4.2,4.2,0,0,1-1.805-3.427c-.052-2.041,1.125-3.61,3.3-4.5a.946.946,0,0,0,.471-.732c.052-1.648.026-3.3.026-4.944V337.5H-392.4v3.035h.026c3.113-.235,6.017.131,8.424,2.25a11.5,11.5,0,0,1,2.3,2.773,11.116,11.116,0,0,1,1.439,5.18,10.939,10.939,0,0,1-2.2,7.142c-2.511,3.375-6.017,4.317-9.993,3.924v3.008h20.484Z" transform="translate(-8.713 -8.713)"/><path class="a" d="M-294.846,360.412a10.926,10.926,0,0,1-4.814-8.921,11.272,11.272,0,0,1,2.381-7.168c2.511-3.218,5.965-4.055,9.837-3.715V337.6H-307.9v9.156c2.354.759,3.663,2.3,3.715,4.343.078,2.171-1.073,3.636-3.715,4.683v9.13h20.484v-2.956A11.141,11.141,0,0,1-294.846,360.412Z" transform="translate(-71.107 -8.787)"/><path class="a" d="M-387.5,358.778h0c1.6.34,3.218.68,4.866,1.046-1.831-4.16-5.415-5.651-9.863-4.971v2.93c1.282.262,2.511.5,3.767.733C-388.314,358.621-387.922,358.7-387.5,358.778Z" transform="translate(-8.639 -21.411)"/><path class="a" d="M-267,359.71c1.988-.419,3.976-.811,5.991-1.23,1.151-.235,2.3-.471,3.427-.706a2.052,2.052,0,0,0,.366-.131v-2.9C-262.867,353.981-265.9,356.728-267,359.71Z" transform="translate(-101.307 -21.348)"/><path class="a" d="M-384.369,408.121a8.293,8.293,0,0,0,1.727-2.721c-2.459.5-4.918,1.02-7.4,1.517-.628.131-1.282.262-1.91.366-.157.052-.288.1-.445.157v2.93C-388.685,410.868-386.043,409.847-384.369,408.121Z" transform="translate(-8.713 -58.85)"/><path class="a" d="M-267.1,405.3v.026c1.674,4.16,5.6,5.651,9.81,4.892v-2.878c-2.224-.471-4.447-.916-6.671-1.36C-265.007,405.745-266.054,405.535-267.1,405.3Z" transform="translate(-101.233 -58.776)"/><path class="a" d="M-316.606,381.212a2.98,2.98,0,0,0-2.982-3.113,2.979,2.979,0,0,0-3.113,2.982,2.98,2.98,0,0,0,2.982,3.113A2.98,2.98,0,0,0-316.606,381.212Z" transform="translate(-60.178 -38.691)"/><path class="a" d="M-375.223,382.527a2.556,2.556,0,0,0,.34.916,3.405,3.405,0,0,0,.262.392,2.8,2.8,0,0,0,.5.471l.392.235a2.935,2.935,0,0,0,.68.209V379.1a2.713,2.713,0,0,0-2.25,2.93C-375.275,382.187-375.249,382.344-375.223,382.527Z" transform="translate(-21.338 -39.43)"/><path class="a" d="M-360.6,378.8v5.7a2.774,2.774,0,0,0,2.3-2.878V381.6A2.8,2.8,0,0,0-360.6,378.8Z" transform="translate(-32.194 -39.209)"/><path class="a" d="M-270.325,382.065a2.682,2.682,0,0,0,2.276,2.485V378.9A2.8,2.8,0,0,0-270.325,382.065Z" transform="translate(-98.846 -39.282)"/><path class="a" d="M-255.4,378.8v5.755a2.848,2.848,0,0,0,2.2-2.878A2.848,2.848,0,0,0-255.4,378.8Z" transform="translate(-109.873 -39.209)"/></g></svg>