<svg xmlns="http://www.w3.org/2000/svg" width="40.021" height="39.949" viewBox="0 0 40.021 39.949"><defs><style>.a{fill:#c4c9ce;}</style></defs><g transform="translate(-27.675 -35.775)"><path class="a" d="M64.516,95.157a5.033,5.033,0,0,0,3.13-4.444c.14-1.2.056-1.286-1.146-1.286H47.776c-6.372,0-12.716,0-19.088-.028-.783,0-1.062.224-1.006,1.034.2,2.152,1.062,3.857,3.158,4.7a.917.917,0,0,1,.643,1.006c0,4.947-.028,9.921,0,14.868,0,.671-.252.894-.894.866a8.7,8.7,0,0,0-1.7.056,1.194,1.194,0,0,0-1.146,1.174,1.234,1.234,0,0,0,1.2,1.23,4.712,4.712,0,0,0,.894.028h35.66a7.856,7.856,0,0,0,.81-.028c.727-.084,1.286-.447,1.286-1.23a1.217,1.217,0,0,0-1.23-1.2,11.576,11.576,0,0,0-1.7-.028c-.559.028-.81-.168-.81-.783V96.023A.914.914,0,0,1,64.516,95.157ZM40.454,111.925c-1.872-.056-3.773-.028-5.645,0-.7,0-1.006-.168-1.006-.95.028-4.891,0-9.781.028-14.672,0-.419-.028-.838.5-1.034a5.243,5.243,0,0,0,3.382-4.052A6.6,6.6,0,0,0,39,93.844,4.341,4.341,0,0,0,40.733,95.1a1.119,1.119,0,0,1,.838,1.258q-.042,7.252,0,14.5C41.544,111.673,41.292,111.925,40.454,111.925ZM60.6,111.9q-8.552-.042-17.131,0c-.7,0-.922-.252-.922-.95.028-4.835,0-9.67.028-14.532,0-.363-.112-.755.475-.894,3.1-.894,3.437-1.23,4.667-4.388.7,2.739,2.264,4.388,5,4.36,2.655,0,4.248-1.593,4.891-4.136.335.14.307.419.391.615a4.577,4.577,0,0,0,2.851,3.13,1.009,1.009,0,0,1,.727,1.146c0,4.891-.028,9.809,0,14.7C61.553,111.7,61.3,111.925,60.6,111.9Z" transform="translate(0 -38.639)"/><path class="a" d="M29.851,59.193H67.384c1.006,0,1.034-.056.587-.922-1.369-2.739-2.739-5.45-4.052-8.188A1.244,1.244,0,0,0,62.6,49.3c-9.334.028-18.7.028-28.03,0a1.246,1.246,0,0,0-1.313.81c-1.313,2.711-2.683,5.394-4.024,8.1C28.706,59.165,28.733,59.193,29.851,59.193Zm28.673-8.1a.861.861,0,0,1,.755.531c.783,1.537,1.537,3.074,2.32,4.639.2.419.224.838-.252,1.062-.5.252-.783-.084-.978-.475-.783-1.537-1.565-3.074-2.32-4.639C57.742,51.648,57.994,51.117,58.525,51.089Zm-5.505.084c.419-.252.755-.028.978.363.894,1.593,1.761,3.186,2.627,4.779a.741.741,0,0,1,.084.279.71.71,0,0,1-.419.783.6.6,0,0,1-.783-.279c-.335-.5-.615-1.034-.894-1.537-.615-1.09-1.2-2.208-1.789-3.3C52.6,51.843,52.572,51.452,53.019,51.172Zm-5.17.866c0-.475.14-.95.727-.922.559.028.727.475.727.95.028.755,0,1.481,0,2.236s.028,1.481,0,2.236c-.028.447-.2.866-.7.894-.559.028-.755-.419-.783-.894C47.821,55.029,47.821,53.52,47.849,52.039Zm-7.294,4.22c.755-1.537,1.537-3.1,2.32-4.639.2-.363.475-.643.922-.475a.689.689,0,0,1,.447.727,1.362,1.362,0,0,1-.112.307c-.783,1.565-1.565,3.158-2.348,4.723-.2.391-.5.7-1.006.447C40.3,57.069,40.359,56.65,40.555,56.259Zm-4.891-.224c.727-1.453,1.453-2.934,2.208-4.388.2-.363.447-.643.922-.531.307.084.475.335.475.755a3.364,3.364,0,0,1-.252.587c-.7,1.4-1.369,2.767-2.068,4.164-.224.447-.447,1.034-1.118.7C35.161,57.041,35.413,56.51,35.664,56.035Z" transform="translate(-0.884 -9.745)"/><path class="a" d="M47.062,38.185a5.583,5.583,0,0,0,.978.056H73.751a5.583,5.583,0,0,0,.978-.056,1.111,1.111,0,0,0,1.034-1.146,1.177,1.177,0,0,0-1.09-1.23,4.711,4.711,0,0,0-.894-.028H47.984a4.711,4.711,0,0,0-.894.028A1.2,1.2,0,0,0,46,37.04,1.156,1.156,0,0,0,47.062,38.185Z" transform="translate(-13.204)"/><path class="a" d="M111.32,121.131a1.282,1.282,0,0,0-.615-.531l-.335.252c-2.068,2.068-4.136,4.136-6.2,6.176-.307.307-.252.531.028.81.335.335.531.2.81-.084.7-.727,1.425-1.425,2.152-2.152l3.913-3.913C111.236,121.578,111.488,121.41,111.32,121.131Z" transform="translate(-54.965 -61.119)"/><path class="a" d="M104.348,124.737c.084-.056.2-.084.252-.168l2.823-2.823c.279-.279.112-.475-.084-.671-.224-.252-.447-.363-.755-.056l-2.767,2.767c-.168.168-.279.335-.084.531A1.348,1.348,0,0,0,104.348,124.737Z" transform="translate(-54.727 -61.288)"/><path class="a" d="M119.5,133.623l-2.851,2.851c-.14.14-.252.279-.112.475a1.1,1.1,0,0,0,.531.475.837.837,0,0,0,.224-.112c1.006-.978,1.984-1.956,2.962-2.962.252-.252.084-.419-.112-.615C119.972,133.511,119.776,133.343,119.5,133.623Z" transform="translate(-63.98 -70.397)"/><path class="a" d="M65.595,130.212c.112-1.034-.307-2.152.475-3.1.084-.112.056-.279.084-.363a1.129,1.129,0,0,0-1.984-.783,1.135,1.135,0,0,0-.112,1.341,3.658,3.658,0,0,1,.028,3.773,1.132,1.132,0,0,0,.224,1.537,1.063,1.063,0,0,0,1.4.028,1.05,1.05,0,0,0,.252-1.509C65.818,130.8,65.567,130.575,65.595,130.212Z" transform="translate(-26.091 -64.695)"/></g></svg>