<svg xmlns="http://www.w3.org/2000/svg" width="55.43" height="40.538" viewBox="0 0 55.43 40.538"><defs><style>.a{fill:#c4c9ce;}</style></defs><g transform="translate(-166.604 -277.539)"><path class="a" d="M185.35,324.736c0-1.658.076-3.321-.019-4.973-.136-2.35,1.528-3.065,3.428-2.349,2.4.9,4.7,2.086,7.046,3.141.537.241.754.567.5,1.169-.265.624-.693.636-1.2.413-1.355-.6-2.7-1.216-4.056-1.808-.979-.427-1.24-.276-1.2.746.075,2.079.2,4.155.286,6.233.028.69.372.9,1.015.9,1.834-.018,3.671-.049,5.5.028a2.1,2.1,0,0,1,1.422.652c2.318,2.974,4.563,6,6.842,9.007.445.587.144,1-.278,1.359a.887.887,0,0,1-1.385-.164q-1.951-2.3-3.893-4.6a7.77,7.77,0,0,1-1.01-1.219c-.9-1.674-2.306-1.954-4.068-1.859-2.533.136-5.079.007-7.618.039-.954.012-1.339-.355-1.318-1.312C185.378,328.335,185.351,326.535,185.35,324.736Z" transform="translate(-14.755 -31.222)"/><path class="a" d="M336.145,325.029c0,1.8-.025,3.6.011,5.4.019.947-.358,1.336-1.314,1.326-2.962-.03-5.926.032-8.888-.039a2.516,2.516,0,0,0-2.217,1.09c-1.727,2.138-3.52,4.222-5.277,6.336-.441.53-.9.965-1.6.438s-.528-1.074-.041-1.709c2.186-2.851,4.306-5.752,6.523-8.578a2.375,2.375,0,0,1,1.583-.743c1.759-.094,3.526-.063,5.288-.024.814.018,1.124-.28,1.147-1.1.054-1.973.194-3.943.28-5.915.052-1.181-.175-1.333-1.276-.853-1.292.563-2.573,1.153-3.857,1.733-.535.242-1.008.317-1.319-.349s.013-.97.574-1.221c2.22-.992,4.425-2.018,6.655-2.985a4.186,4.186,0,0,1,1.534-.3,1.864,1.864,0,0,1,2.184,2.1C336.167,321.431,336.145,323.23,336.145,325.029Z" transform="translate(-118.074 -31.525)"/><path class="a" d="M369.963,323.966c0-3.6-.018-7.021.006-10.438.019-2.715.085-5.43.14-8.145.011-.551-.07-1.3.757-1.183.277.04.654.77.649,1.18-.081,6.276-.231,12.55-.328,18.826-.015.941-.418,1.23-1.291,1.214-1.79-.032-3.581-.01-5.473-.01,0,1.679-.022,3.222.02,4.763a1.822,1.822,0,0,0,.437.818q2.224,3.215,4.463,6.421c.34.488.846,1.079.141,1.529s-1.043-.28-1.378-.76q-1.967-2.815-3.921-5.64c-.137-.2-.284-.389-.514-.7-1.524,2.166-2.927,4.178-4.353,6.174-.366.512-.7,1.429-1.5.916-.869-.559-.034-1.2.29-1.684,1.229-1.847,2.439-3.716,3.817-5.449a5.064,5.064,0,0,0,1.039-3.516c-.055-2.866-.017-2.867-2.87-2.867-.917,0-1.834.01-2.751-.006-.533-.01-1.21-.019-1.094-.758.043-.275.7-.643,1.076-.648,3.632-.05,7.265-.032,10.9-.033Z" transform="translate(-149.481 -21.007)"/><path class="a" d="M168.369,323.873h1.355l10.474.005a2.623,2.623,0,0,1,.943.039,3.5,3.5,0,0,1,.8.648c-.278.251-.545.705-.834.72-1.478.073-2.961.032-4.442.031h-1.458c0,1.685-.028,3.228.023,4.769.01.309.3.623.5.909q2.257,3.257,4.53,6.5c.311.445.708.995.042,1.316-.273.132-1-.221-1.239-.554-1.517-2.069-2.957-4.2-4.518-6.441-.3.351-.561.61-.77.905-1.258,1.786-2.5,3.582-3.758,5.369a2.353,2.353,0,0,1-.627.7.879.879,0,0,1-.767.041.808.808,0,0,1-.24-.7,2.791,2.791,0,0,1,.483-.917c1.283-1.853,2.528-3.737,3.89-5.531a4.378,4.378,0,0,0,.994-3.216c-.1-1,.242-2.334-.282-2.924-.453-.51-1.849-.2-2.829-.217-.846-.019-1.693,0-2.539.006-.774.009-1.135-.307-1.148-1.138-.1-6.311-.227-12.621-.341-18.932-.01-.526-.076-1.173.687-1.187s.719.625.73,1.158q.173,8.513.341,17.027C168.377,322.745,168.369,323.233,168.369,323.873Z" transform="translate(0 -20.915)"/><path class="a" d="M254.441,355.067c-3.091,0-6.011,0-8.932,0a2.34,2.34,0,0,1-.938-.048,1.15,1.15,0,0,1-.594-.705c-.03-.164.332-.5.579-.588a3.207,3.207,0,0,1,1.047-.068q10.206,0,20.412,0a1.619,1.619,0,0,1,.728.044,3.688,3.688,0,0,1,.695.664c-.234.225-.432.542-.711.65a3.02,3.02,0,0,1-1.046.063c-2.855,0-5.711,0-8.567.008-.379,0-.757.035-1.247.059v1.326q0,9.994,0,19.989a1.969,1.969,0,0,1-.03.834,3.546,3.546,0,0,1-.715.742c-.22-.23-.523-.425-.635-.7a2.629,2.629,0,0,1-.036-.942q-.006-9.889-.01-19.777C254.441,356.165,254.441,355.713,254.441,355.067Z" transform="translate(-60.987 -59.986)"/><path class="a" d="M191.6,280.929a3.215,3.215,0,0,1-3.311,3.251,3.321,3.321,0,1,1,.02-6.642A3.245,3.245,0,0,1,191.6,280.929Z" transform="translate(-14.462 0)"/><path class="a" d="M378.639,280.9a3.264,3.264,0,0,1,3.467-3.3,3.321,3.321,0,0,1-.25,6.637A3.269,3.269,0,0,1,378.639,280.9Z" transform="translate(-167.137 -0.05)"/><path class="a" d="M308.475,312.238a20.494,20.494,0,0,1-2.64-.035,1.5,1.5,0,0,1-1.057-.755c-.868-2.456-1.669-4.936-2.421-7.43-.1-.315.224-.755.351-1.138.329.239.843.412.956.728q1.1,3.081,2.033,6.22a1.21,1.21,0,0,0,1.439,1,37.7,37.7,0,0,1,3.911.014c.347.02.673.407,1.008.625-.348.257-.673.686-1.049.738a18.986,18.986,0,0,1-2.534.035Z" transform="translate(-106.994 -19.976)"/><path class="a" d="M252.813,312.1a23.865,23.865,0,0,1-2.641-.032c-.357-.04-.675-.432-1.01-.664.318-.239.624-.665.955-.685,1.335-.081,2.679-.072,4.017-.024a1.145,1.145,0,0,0,1.362-.954c.607-2.059,1.323-4.085,1.988-6.127.172-.528.382-1.138,1.044-.813.253.124.416.859.307,1.221-.74,2.461-1.533,4.906-2.4,7.327a1.53,1.53,0,0,1-1.092.724,19.244,19.244,0,0,1-2.534.034Z" transform="translate(-65.076 -19.845)"/></g></svg>