<svg xmlns="http://www.w3.org/2000/svg" width="98.55" height="86.707" viewBox="0 0 98.55 86.707"><defs><style>.a{fill:#c4c9ce;}.b,.c{fill:none;stroke:#c4c9ce;stroke-miterlimit:10;}.b{stroke-width:3px;opacity:0.1;}</style></defs><g transform="translate(-2960 16482)"><g transform="translate(2960 -16482)"><path class="a" d="M-349.1,361.4c3.21.421,6.42.737,10.894,1.263,3-.684,7.315-1.21,11.209-2.684,7.894-3,10-10.893,5.263-17.84a21.34,21.34,0,0,0-12.051-8.631c-4.157-1.053-6.052-3-6-7.262.053-1.579-1-2.473-2.737-2.526-5.315-.263-5.315-.316-6.42,4.947-.053.474-.211.947-.263,1.421-.053,1.263-.579,1.737-1.895,2.263A79.835,79.835,0,0,0-359,336.4a5.522,5.522,0,0,1-2.315.789c-5.526.211-11,.316-16.524.579-1.421.053-1.895-.579-2.421-1.684a10.8,10.8,0,0,0-12.051-6.21,11.254,11.254,0,0,0-8.946,9.788c-.526,4.473,2.421,9.262,6.789,11.157A10.782,10.782,0,0,0-381.52,347.4a2.5,2.5,0,0,1,3.158-1.158,68.016,68.016,0,0,0,8.473,1.947,15.991,15.991,0,0,1,11.736,7.473A12.376,12.376,0,0,0-349.1,361.4Zm25.208-11.42a17.787,17.787,0,0,1-4.684,1.053c-3.789-.053-7.683-.421-11.42-.842a3.4,3.4,0,0,1-2.316-2.158c-.526-3.526-.684-7.052-.947-10.893C-332.631,337.558-325.421,342.5-323.9,349.977Zm-65.835-6.315c1.737.316,3.473.842,5.263,1.263a7.115,7.115,0,0,1-8.736,2.421,7.417,7.417,0,0,1-4.263-7.946,7.441,7.441,0,0,1,6.473-6,6.747,6.747,0,0,1,7.21,4.526c-2,0-3.736-.053-5.473,0s-3.21.737-3.421,2.579C-392.729,342.4-391.519,343.294-389.73,343.662Z" transform="translate(401.315 -318.817)"/><path class="a" d="M-332.211,319.284c.842,0,1.737-.158,2.579-.158,6.262-.263,12.63-.526,17.945-.789,6.526.316,12.157.684,17.735.947,2.421.158,3.684-1,3.263-2.894-.316-1.684-1.579-1.947-3.052-1.895-7.473.211-14.946.474-22.471.526-5.315,0-10.736-.316-16.1-.474-1.526-.053-2.684.526-2.684,2.263C-334.947,318.547-333.895,319.284-332.211,319.284Z" transform="translate(369.899 -314.489)"/><path class="a" d="M-281.461,395.24a9.58,9.58,0,0,1-7.42,3h-13c-4.894,0-9.736-.053-14.63.053a3.209,3.209,0,0,0-2.421,1.789c-.263,1.421,1.053,1.789,2.421,1.789,9.367,0,18.735,0,28.1-.053a13.3,13.3,0,0,0,9.525-4c.947-.947,2-1.895.789-3.21S-280.514,394.187-281.461,395.24Z" transform="translate(362.302 -352.133)"/></g><ellipse class="b" cx="47.731" cy="10.104" rx="47.731" ry="10.104" transform="translate(2961.587 -16417.002)"/><g transform="translate(2986.651 -16413.318)"><path class="c" d="M-326.638,452.736h14.262c1.579,0,2.421.368,2.315,1.368-.158,1-1.105,1.421-2.842,1.421h-36.206c-1.684,0-2.105-.421-.789-1.421a6.287,6.287,0,0,1,4.157-1.368h14.209l4.789-6.157H-338.32c-1.263,0-1.684-.211-.895-.789a4.341,4.341,0,0,1,2.842-.789h25.523c1.21,0,1.895.211,1.789.789-.053.579-.842.789-2.105.789h-11.578Z" transform="translate(350.674 -445)"/></g></g></svg>