<svg xmlns="http://www.w3.org/2000/svg" width="49.809" height="40.043" viewBox="0 0 49.809 40.043"><defs><style>.a{fill:#c4c9ce;}</style></defs><g transform="translate(402 -310.301)"><path class="a" d="M-400.439,330.441h7.49v15.324h-4.764v-8.549H-402v13.127h12.386c3.705,0,7.41,0,11.116-.026q13.14-.079,26.281-.132c0-3.255,0-6.537.026-9.792-1.429,0-2.858.026-4.261.026,0,1.773,0,3.6-.026,5.373h-4.367V330.414h7.384c-.873-.82-1.4-1.323-1.932-1.773L-376.672,310.3h-.45c-4.658,4.049-9.29,8.1-13.948,12.121C-393.954,324.936-396.945,327.476-400.439,330.441Zm12.73-.026c7.225.026,14.424.026,21.649.053,0,2.805.026,5.637.026,8.443,0,2.011,0,4.658.026,6.669-7.225.026-14.45.026-21.676.053v-6.7C-387.708,336.925-387.708,332.4-387.708,330.414Z"/><g transform="translate(-385.088 332.664)"><g transform="translate(10.69 3.385)"><path class="a" d="M-290.263,422.233c-.847-1.112-3.255-.45-6.14-.344a1.594,1.594,0,0,0-.953.291,1.709,1.709,0,0,0-.212.238,1.023,1.023,0,0,0-.132.609h0s.132,6.643.159,7.252c1.217.159,2.461.318,3.679.5,0-2.541,0-5.055.026-7.6,1.27,0,2.567,0,3.838.026A1.444,1.444,0,0,0-290.263,422.233Z" transform="translate(297.702 -417.891)"/><path class="a" d="M-295.881,411.3A1.881,1.881,0,0,0-294,409.446a1.856,1.856,0,0,0-2.064-1.853,1.911,1.911,0,0,0-1.641,1.853A1.787,1.787,0,0,0-295.881,411.3Z" transform="translate(297.709 -407.592)"/></g><g transform="translate(0)"><path class="a" d="M-333.383,403.8c.212-.185.5,0,1.535,0,.344,0,.715-.053,1.059-.053.45,0,.609-.106.609-.556v-3.255c.344.053.662.053,1.006.106V398.4c-.953.106-1.932.159-2.885.238v1.138c.106,0,.212.053.318.053v2.276h-3.917a1.472,1.472,0,0,0-1.588,1.27,2.17,2.17,0,0,0-.053.582v7.3c1.059,1.165,3.546.926,3.758.238a.676.676,0,0,0,0-.238c0-1.482-.212-5.717,0-7.093A.467.467,0,0,1-333.383,403.8Z" transform="translate(337.512 -397.447)"/><path class="a" d="M-336.062,398.77a2.028,2.028,0,0,0,2.038-1.985,2.028,2.028,0,0,0-2.038-1.985,2.028,2.028,0,0,0-2.038,1.985A2.011,2.011,0,0,0-336.062,398.77Z" transform="translate(338.1 -394.8)"/><path class="a" d="M-304.547,398.1h-.953v1.879h.953Z" transform="translate(314.128 -397.227)"/><path class="a" d="M-320.044,400.2h-.556v.847h.556Z" transform="translate(325.232 -398.771)"/></g></g></g></svg>