<svg xmlns="http://www.w3.org/2000/svg" width="51.293" height="37.955" viewBox="0 0 51.293 37.955"><defs><style>.a{fill:#c4c9ce;}</style></defs><g transform="translate(391.174 -321.363)"><path class="a" d="M-331.99,383.894c-.716-.809-1.93-1.37-4.358-2.49-2.646-1.214-3.237-1.058-4.638-2.117a33.357,33.357,0,0,1-2.646-2.646c-1.183-1.183-2.21-2.085-2.895-2.646a23.976,23.976,0,0,0-6.879-1,23.457,23.457,0,0,0-9.9,2.334,8.975,8.975,0,0,0-4.949,5.976,70.511,70.511,0,0,0-.9,7.284,3.577,3.577,0,0,0,2.054,3.642c.218-4.731,3.642-7.284,7.782-6.537a6.261,6.261,0,0,1,2.864,1.245,6.81,6.81,0,0,1,2.583,5.634c2.708,0,5.292-.062,7.875.031.5.031,1.619.187,2.21-.436.529-.591.093-1.183.374-2.4.529-2.272,2.957-3.424,3.237-3.58a5.614,5.614,0,0,1,1.743-.5,6.7,6.7,0,0,1,4.794.778,5.916,5.916,0,0,1,1.65,1.774c1.183,1.681,1.432,3.206,1.712,3.144.187-.031.249-.872.187-1.681A8.825,8.825,0,0,0-331.99,383.894Zm-23.874-4.389a1.49,1.49,0,0,1-1.058.9c-2.459.093-4.918.062-7.377.031-.28,0-.747-.342-.747-.529a4.985,4.985,0,0,1,.249-2.148c.187-.436.84-.747,1.307-1.027a21.822,21.822,0,0,1,7.688-2.615C-355.8,376.113-355.74,377.793-355.865,379.505Zm1.183.809c0-1.774.031-3.548.031-5.323a3.6,3.6,0,0,1,.934-.778,4.928,4.928,0,0,1,3.393-.311,9.746,9.746,0,0,1,4.576,1.525,29.089,29.089,0,0,1,3.144,3.984c.187.249.156.654.28,1.089C-346.464,380.408-350.573,380.377-354.682,380.315Z" transform="translate(-15.148 -35.564)"/><path class="a" d="M-341.411,329.9c-1.961-.809-4.015-1.432-6.07-2.148-4.762-1.65-9.556-3.268-14.318-4.918-1.276-.436-2.49-1.058-3.766-1.463-.342-.093-.84.4-1.276.56-.872.28-1.743.467-2.615.747-3.362,1.121-6.692,2.21-10.023,3.362-3.113,1.089-6.256,2.179-9.307,3.424-1.214.467-2.584,1.089-2.366,2.8a3.921,3.921,0,0,0,.809,1.432c.56.84,1.245,1.214,2.179.436a2.487,2.487,0,0,1,.965-.436c5.6-1.961,11.237-3.922,16.84-5.883,1.432-.5,2.864-1,4.327-1.494.031.062.031.125.062.156a3.082,3.082,0,0,1,.934.062c3.891,1.307,7.813,2.615,11.7,3.953,3.517,1.214,7,2.49,10.521,3.673a2.327,2.327,0,0,0,2.864-1.525A2.26,2.26,0,0,0-341.411,329.9Z"/><ellipse class="a" cx="3.455" cy="3.548" rx="3.455" ry="3.548" transform="translate(-379.261 352.221)"/><ellipse class="a" cx="3.455" cy="3.548" rx="3.455" ry="3.548" transform="translate(-356.196 352.221)"/></g></svg>