<svg xmlns="http://www.w3.org/2000/svg" width="74.938" height="37.955" viewBox="0 0 74.938 37.955"><defs><style>.a{fill:#c4c9ce;}</style></defs><path class="a" d="M79.738,58.912c0-1.946-.584-2.608-2.53-2.569-6.735.078-13.508,0-20.243.039-1.324,0-2.141-.195-1.908-1.791.156-1.168-.35-1.791-1.635-1.791-7.474.039-14.91.039-22.384,0-1.012,0-1.713.35-1.6,1.44.195,2.024-1.012,2.141-2.53,2.141-6.54-.039-13.119.039-19.659-.039C5.384,56.3,4.8,56.926,4.8,58.8c.078,9.732.039,19.465.039,29.2,0,2.725,0,2.764,2.842,2.764H77.169c2.569,0,2.569,0,2.569-2.608C79.7,78.376,79.661,68.644,79.738,58.912ZM18.97,87.836c0,.389.039.856-.467.934-.467.039-.623-.389-.623-.818V75.379c0-.389.195-.818.7-.7.467.117.428.584.428.973v6.19H18.97Zm1.791-17.285c-.389-.311-.7-.9-1.285-.623-.545.234-.467.856-.545,1.363s.234,1.44-.623,1.324c-.74-.078-.389-.934-.389-1.363.078-.584.234-1.09-.273-1.363-.623-.311-.9.311-1.285.623-.428.35-.818,1.207-1.363.662-.662-.662.273-1.09.7-1.479.311-.311.779-.584.584-1.09-.195-.584-.74-.35-1.168-.35-.467,0-1.207.35-1.324-.35-.117-.779.7-.545,1.129-.623.506-.078,1.129.117,1.324-.545.156-.545-.311-.934-.7-1.285-.389-.389-1.168-.779-.545-1.363.506-.467.818.311,1.207.623.428.35.74,1.051,1.44.7.545-.272.35-.9.311-1.4-.039-.467-.311-1.168.506-1.207.623-.039.623.545.584,1.012-.039.584-.234,1.285.428,1.557.779.311,1.051-.545,1.518-.973.389-.35.779-.9,1.285-.311.428.467-.156.779-.467,1.09-.467.428-1.246.74-1.09,1.479.195.856,1.051.506,1.635.584.389.078.9.078.9.545-.039.662-.623.467-1.09.467-.506,0-1.129-.389-1.4.195-.389.7.35.973.74,1.363.35.35,1.012.779.584,1.246C21.462,71.758,21.15,70.9,20.761,70.552Zm6.7,18.53c-1.674-.078-3.387-.039-5.061-.039-.9,0-1.518-.311-1.518-1.324,0-4.555-.039-9.07-.039-13.625,0-.35-.078-.623.545-.74a2.85,2.85,0,0,0,2.725-3.192c0-.35.117-.467.389-.545.973-.311.779-1.168,1.012-1.908.545-1.518-1.6-1.908-1.285-3.543.117-.7-1.246-2.18-3.075-2.3-.818,0-1.946-1.207-3.036-.818-1.674.584-3.854.623-4.749,2.336-.779,1.479-1.985,2.881-1.83,4.749.039.506,0,1.168.584,1.324.856.272.818.623.584,1.4-.234.856,1.674,2.569,2.881,2.53.623,0,.9-.156.9.7-.039,4.2-.039,8.409.078,12.613.039,1.791-.584,2.453-2.375,2.375a41.762,41.762,0,0,0-5.839.039c-1.518.117-1.908-.467-1.908-1.869.039-4.555,0-9.07,0-13.625S6.474,64.557,6.4,60c0-1.479.467-2.1,2.024-2.063,6.345.039,12.691.039,19.075,0,1.44,0,1.908.584,1.908,1.985q-.058,13.606,0,27.211C29.4,88.576,28.858,89.121,27.457,89.082Zm13.976-1.869c0,2.647-2.18,1.324-3.348,1.635-1.246.35-1.207-.818-1.207-1.635V80.829c0-2.141.039-4.282,0-6.384-.039-1.713,1.051-1.635,2.219-1.6,1.129.039,2.414-.234,2.414,1.6C41.432,78.688,41.471,82.931,41.432,87.213Zm4.555,1.674c-2.959-.195-2.959-.156-2.959-3.114V80.907h-.039c0-2.141.078-4.282-.039-6.423-.078-1.518.7-1.791,1.869-1.674,1.129.117,2.8-.662,2.8,1.557,0,4.36-.039,8.681,0,13.041C47.661,88.615,47.155,88.965,45.987,88.887Zm3.27,0V83.515c0-3.387-.039-6.735,0-10.122,0-1.246-.389-1.946-1.791-1.946q-5.255.058-10.511,0c-1.4,0-1.752.74-1.752,1.985q.058,6.89,0,13.781c0,.467.273,1.012-.273,1.479-.7-.311-.506-.934-.506-1.479,0-5.061-.039-10.122,0-15.143a7.77,7.77,0,0,1,15.533.039c.078,4.983.039,9.966,0,14.949A1.575,1.575,0,0,1,49.257,88.887ZM53.5,71.836V87.8c0,.623-.195,1.246-.9,1.246-.9,0-.662-.779-.662-1.324,0-2.8.117-5.567.039-8.37C51.9,76.2,52.41,73,51.437,69.89a9.6,9.6,0,0,0-18.063-.934,10.327,10.327,0,0,0-.856,4.321c.078,4.594.039,9.226,0,13.82,0,.662.273,1.674-.779,1.674-1.012,0-.74-1.051-.74-1.713,0-10.355,0-20.749-.039-31.1,0-1.44.545-1.946,1.946-1.908,6.151.039,12.3.039,18.491,0,1.635,0,2.141.662,2.141,2.219C53.461,61.481,53.5,66.659,53.5,71.836ZM64.517,88.654c-.467-.039-.428-.584-.428-.973V75.651c0-.428-.039-1.051.623-.973.467.039.428.584.428.973V87.719C65.1,88.109,65.218,88.732,64.517,88.654Zm2.219-18.063c-.35-.273-.584-.779-1.129-.623-.623.234-.389.856-.467,1.363-.078.545.234,1.44-.545,1.4-.74,0-.467-.9-.545-1.44-.039-.506.117-1.129-.506-1.324-.506-.156-.74.389-1.09.662-.428.35-.9,1.129-1.44.623-.662-.584.234-.934.584-1.324.35-.35.934-.623.74-1.246-.273-.818-.973-.389-1.479-.428-.428-.039-.934.195-1.246-.35.273-.856,1.012-.545,1.6-.623.389-.039.818,0,1.012-.428.234-.506-.117-.818-.428-1.168-.35-.467-1.44-.74-.818-1.44.623-.74,1.051.272,1.518.623.35.272.545.856,1.09.584.584-.272.389-.9.428-1.363,0-.467-.234-1.207.506-1.207s.545.74.623,1.207-.156,1.129.467,1.363c.506.156.779-.35,1.129-.623.428-.311.856-1.168,1.4-.662.662.623-.311.934-.584,1.363-.311.428-1.051.74-.74,1.44.272.584.9.311,1.4.35.467.078,1.246-.156,1.246.506,0,.7-.779.467-1.246.506-.545.039-1.246-.467-1.518.311-.234.584.389.856.779,1.207.389.389,1.129.818.506,1.363C67.437,71.681,67.087,70.863,66.736,70.591ZM78.026,83.048c0,1.479-.039,3,0,4.477,0,1.051-.467,1.557-1.518,1.557H68.332c-1.051,0-1.518-.506-1.518-1.557V74.678c0-.662.156-.9.973-1.207,1.207-.428,3.075-1.051,2.375-3.153-.078-.272-.117-.506.195-.584a1.849,1.849,0,0,0,.973-2.881C70.24,65.063,69.967,63,67.2,61.832c-3.5-1.44-5.606-.272-7.708,1.557-1.363,1.168-2.336,3.309-1.635,5.022.545,1.246.545,2.881,1.752,3.854.662.506.973,1.557,2.219,1.207.7-.195.506.584.506.973.039,4.282.039,8.564.078,12.847,0,1.207-.506,1.713-1.752,1.791-5.606.428-5.606.428-5.606-5.1V73.471H54.98c0-4.671.039-9.343-.039-14.014,0-1.168.467-1.479,1.479-1.479H76.468c1.557,0,1.557,1.012,1.557,2.1Z" transform="translate(-4.8 -52.801)"/></svg>