<svg xmlns="http://www.w3.org/2000/svg" width="39.219" height="34.949" viewBox="0 0 39.219 34.949"><defs><style>.a{fill:#c4c9ce;}</style></defs><g transform="translate(402.1 -308.301)"><path class="a" d="M-376.554,343.25h-25.523v-2.379a2.7,2.7,0,0,0,1.69.6h22.077Zm-14.474-34.95a2.486,2.486,0,0,0-2.49,2.49,2.45,2.45,0,0,0,1.089,2.045,6.071,6.071,0,0,1,1.334-2.112,5.588,5.588,0,0,1,2.112-1.334A2.45,2.45,0,0,0-391.028,308.3Zm-.711,6.492A4.725,4.725,0,0,0-387,319.528a4.739,4.739,0,0,0,4.736-4.736A4.725,4.725,0,0,0-387,310.056a4.615,4.615,0,0,0-1.579.267,4.7,4.7,0,0,0-2.868,2.868A4.344,4.344,0,0,0-391.74,314.792Zm-2.557,6.514c-1.112,2.446-3.513,8.737-4.18,10.316h8.226a11.42,11.42,0,0,1,.6-1.289c.778-1.445,3.2-2.157,2.623-4.18,0-.022-.022-.022-.022-.044l2.179,2.068a1.826,1.826,0,0,0,.556.356l5.936,2.268a1.906,1.906,0,0,0,.6.111,1.732,1.732,0,0,0,1.6-1.089,1.71,1.71,0,0,0-.978-2.2l-5.247-2a2.119,2.119,0,0,1-.667-.422l-4.624-4.38a2.035,2.035,0,0,0-.711-.4l-.2-.067c-.067-.022-.156-.044-.222-.067a10.559,10.559,0,0,0-3.624-.467,2.352,2.352,0,0,0-1.156.356A2.693,2.693,0,0,0-394.3,321.306Zm-6.092,19.12h22.5l2.157,2.179a1.888,1.888,0,0,0,.711.467,2.083,2.083,0,0,0,.823.156h9.182a2.131,2.131,0,0,0,2.134-2.179,2.169,2.169,0,0,0-2.179-2.112h-8.271l-5.625-5.692a1.665,1.665,0,0,0-1.467-.623c-1.334,0-19.987.022-19.987.022a1.689,1.689,0,0,0-1.69,1.69v4.38A1.727,1.727,0,0,0-400.388,340.426Zm34.439-7.826a4.915,4.915,0,0,0-4.913-4.913,4.915,4.915,0,0,0-4.913,4.913,4.915,4.915,0,0,0,4.913,4.913A4.915,4.915,0,0,0-365.949,332.6Z"/></g></svg>