<svg xmlns="http://www.w3.org/2000/svg" width="50.282" height="39.949" viewBox="0 0 50.282 39.949"><defs><style>.a{fill:#c4c9ce;}</style></defs><g transform="translate(396.8 -316.611)"><path class="a" d="M-393.325,429.729c.979,0,2.479.153,2.816-.4.643-.979.612-2.387.888-3.672h21.116c.337,4.193.337,4.162,3.734,4.1,1.132-.031,1.714-.49,1.714-1.653v-2.418c.581-.122.918-.184,1.316-.245v-3.152H-395.1c-.49,0-1.01-.061-1.5-.092v3.275c.4.061.8.122,1.1.153C-394.7,427.035-396.569,429.729-393.325,429.729Z" transform="translate(-0.139 -73.275)"/><path class="a" d="M-261.277,329.722a4.619,4.619,0,0,0-1.194-.122c-.52.061-1.1.092-1.683.214-1.285.306-1.622,1.01-1.132,2.234a3.017,3.017,0,0,0,5.111.888,2.945,2.945,0,0,0,.673-2.234C-259.564,330.273-260.635,330-261.277,329.722Z" transform="translate(-91.117 -9.014)"/><path class="a" d="M-265.7,320.127h6.121c-.184-.826.673-2.173-.734-2.907a4.682,4.682,0,0,0-4.774.092C-266.34,318.107-265.606,319.331-265.7,320.127Z" transform="translate(-90.889)"/><path class="a" d="M-257.8,347.792a2.508,2.508,0,0,0,.857.581c.245.031.52-.275,1.163-.643-.673-.4-1.01-.765-1.316-.734C-257.372,347.027-257.586,347.516-257.8,347.792Z" transform="translate(-96.461 -21.085)"/><path class="a" d="M-324.5,367.1a2.632,2.632,0,0,0-2.6,2.663,2.587,2.587,0,0,0,2.632,2.6,2.587,2.587,0,0,0,2.6-2.632A2.652,2.652,0,0,0-324.5,367.1Z" transform="translate(-48.369 -35.038)"/><g transform="translate(-396.8 325.886)"><path class="a" d="M-351.415,347.065c-.337,1.1-.673,2.173-1.01,3.275-.061-.031-.153-.031-.214-.061-.092-.49-.214-.949-.337-1.469-.459.031-.826.061-1.163.092-.092.49-.184.857-.245,1.255-.092,0-.184.031-.275.031-.306-1.04-.643-2.081-.979-3.183-.245-.031-.551-.031-.826-.061-2.938-.031-4.1,1.1-4.131,4.07,0,1.1.031,2.173-.031,3.275,0,.275-.153.734-.337.8-1.347.49-2.724.918-4.162,1.408-.8-2.081-1.469-3.948-2.234-5.815a1.521,1.521,0,0,0-.888-.857c-3.06-.49-6.121-.979-9.212-1.285-4.254-.428-8.416.643-12.609,1.163a1.477,1.477,0,0,0-1.408,1.132c-1.071,3-2.265,5.968-3.305,8.967-.367,1.04-.8,1.9-2.02,2.05v6.794h34.919v-6.274c0-.214-.153-.581-.306-.612-1.653-.275-1.5-1.806-2.081-3,1.53-.52,2.969-1.071,4.438-1.438a1.893,1.893,0,0,0,1.622-2.265,29.229,29.229,0,0,1,0-3.275,3.33,3.33,0,0,1,.214-.918c.122,0,.275.031.4.031.031.428.061.857.061,1.285v23.289c0,1.806,1.04,2.571,2.663,1.867a2.048,2.048,0,0,0,.826-1.591c.061-4.223.031-8.477.031-12.7v-1.408c1.1-.275.888.49.888,1.01v12.945c0,1.591.275,1.836,1.836,1.836,1.377,0,1.714-.367,1.714-1.836V352.3c0-.459.061-.918.061-1.377a1.745,1.745,0,0,0,.4-.031c.031.4.122.826.122,1.224,0,2.509-.031,5.019.031,7.559.031.551.367,1.408.765,1.5.459.122,1.1-.367,1.683-.612V349.238C-347.467,347.188-349.211,346.606-351.415,347.065ZM-391.6,367.172a2.227,2.227,0,0,1-2.265-2.2,2.3,2.3,0,0,1,2.3-2.326,2.267,2.267,0,0,1,2.2,2.265A2.234,2.234,0,0,1-391.6,367.172Zm-.581-6.549c1.071-2.846,1.989-5.356,2.969-7.835a1.6,1.6,0,0,1,.979-.612,41.617,41.617,0,0,1,17.811,0,1.747,1.747,0,0,1,1.1.8c.979,2.387,1.836,4.835,2.877,7.59A62.341,62.341,0,0,0-392.179,360.623Zm25.187,6.549a2.247,2.247,0,0,1-2.265-2.2,2.3,2.3,0,0,1,2.326-2.3,2.228,2.228,0,0,1,2.173,2.3A2.182,2.182,0,0,1-366.992,367.172Zm14.475-11.2a1.3,1.3,0,0,1-.888.337h-.153v1.377h-.7v-3.642a5.537,5.537,0,0,1,.765-.061,1.47,1.47,0,0,1,1.01.275,1.063,1.063,0,0,1,.306.826A1.47,1.47,0,0,1-352.517,355.971Zm1.224-3.825a3.365,3.365,0,0,1-1.01-.367c.367-.214.734-.428,1.194-.7.4.275.673.49.949.673A4.568,4.568,0,0,1-351.292,352.146Z" transform="translate(396.8 -346.918)"/><path class="a" d="M-255.416,371.9a.388.388,0,0,0-.184.031v1.132h.122c.367,0,.52-.245.52-.612A.448.448,0,0,0-255.416,371.9Z" transform="translate(298.812 -364.255)"/></g></g></svg>