<svg xmlns="http://www.w3.org/2000/svg" width="30" height="26.896" viewBox="0 0 30 26.896"><defs><style>.a{fill:none;}.b{fill:#bfbfbf;}</style></defs><g transform="translate(-13.2 -23.788)"><path class="a" d="M31.7,149.3c-.912-.017-1.825-.034-2.737,0a.467.467,0,0,0-.465.516c0,.327.224.448.516.448.43.017.861,0,1.291,0v-.017c.465,0,.912.017,1.377,0a.444.444,0,0,0,.465-.5A.434.434,0,0,0,31.7,149.3Z" transform="translate(-12.666 -103.893)"/><path class="a" d="M40.692,110.716a1.039,1.039,0,0,0-1.016-.5c-2.376,0-4.751,0-7.127-.017a.946.946,0,0,0-.93.6c-.43.809-.912,1.584-1.377,2.376-.12.189-.327.379-.241.62.12.31.448.207.689.207,1.807.017,3.6,0,5.405,0h5.663c.413,0,.843-.017.5-.6C41.742,112.472,41.191,111.612,40.692,110.716Z" transform="translate(-13.893 -71.537)"/><path class="a" d="M82.53,150.182a11.49,11.49,0,0,0,2.978-.052.58.58,0,0,0,.43-.654c-.034-.31-.293-.4-.568-.413-.43-.017-.861,0-1.291,0h0c-.482,0-.964-.017-1.463,0a.486.486,0,0,0-.516.465C82.1,149.838,82.22,150.165,82.53,150.182Z" transform="translate(-57.218 -103.704)"/><path class="a" d="M167.271,103.285c0-.413-.189-.671-.6-.689-.465-.017-.568.275-.568.671,0,2.961,0,5.9.017,8.865,0,.413.017.981.62.93.568-.034.534-.585.534-1.016v-8.762Z" transform="translate(-126.98 -65.242)"/><path class="b" d="M93.477,35.7a1.581,1.581,0,0,0-1.618-1.136,18.809,18.809,0,0,0-3.684.017,2.054,2.054,0,0,1-1.842-.6c-1.377-1.291-2.789-2.548-4.183-3.8-1.429-1.325-2.84-2.7-4.321-3.976a12.085,12.085,0,0,0-2.186-1.894h0c-.155-.258-.224-.689-.654-.448a4.252,4.252,0,0,0-1.463,1.412.468.468,0,0,0,.172.671c.6.361.964.981,1.515,1.36.017-.034.034-.052.052-.086h.017c-.017.017-.034.052-.069.069a2.148,2.148,0,0,0,.138.207c2.324,2.135,4.631,4.269,6.972,6.4,1.171,1.067,2.393,2.1,3.58,3.15a2.052,2.052,0,0,1,.878,2.048c-.052,3.288-.017,6.576-.017,9.864a1.478,1.478,0,0,0,1.67,1.67c1.119,0,2.238.017,3.339,0a1.871,1.871,0,0,0,1.653-1.188h0C93.477,44.895,93.477,40.3,93.477,35.7Zm-2.909,11.12c0,.43.034.964-.534,1.016-.6.052-.6-.516-.62-.93C89.4,43.948,89.4,41,89.4,38.044c0-.4.12-.706.568-.671.413.017.6.275.6.689v4.562C90.567,44,90.585,45.411,90.567,46.823Z" transform="translate(-50.277 0)"/><path class="b" d="M29.019,96.352c-.189-.344-.4-.689-.585-1.05a2.383,2.383,0,0,0-.912-.9,1.91,1.91,0,0,0-.861-.207H17.9a1.585,1.585,0,0,0-.757.172,1.9,1.9,0,0,0-.792.912c-.534,1.136-1.257,2.169-1.842,3.271a19.473,19.473,0,0,1-1.308,2.152h0v5.147h0c0,.224.086.448.31.448.706,0,.861.43.981,1.033a2.28,2.28,0,0,0,1.687,1.635,2.044,2.044,0,0,0,2.135-1.773c.086-.62.344-.826.947-.826,2.066.017,4.114.017,6.18,0,.551,0,.809.155.861.775a2.079,2.079,0,0,0,2.014,1.825,2.327,2.327,0,0,0,1.945-1.807,1.31,1.31,0,0,1,.344-.689.786.786,0,0,1,.293-.12,3.079,3.079,0,0,0,.654-.379c.43-.31.138-1.274.258-3.012A5.715,5.715,0,0,0,31.653,101a3.018,3.018,0,0,1-.207-.448c-.086-.189-.12-.327-.155-.379-.189-.4-.465-.654-1.188-1.859A18.563,18.563,0,0,1,29.019,96.352Zm-1.153,4.39H16.8c-.241,0-.551.1-.689-.207-.1-.241.12-.413.241-.62.465-.792.964-1.566,1.377-2.376a.931.931,0,0,1,.93-.6c2.376.017,4.751,0,7.127.017a1.055,1.055,0,0,1,1.016.5c.516.9,1.05,1.773,1.566,2.668C28.692,100.724,28.262,100.741,27.866,100.741ZM19,104.649c-.448.017-.912,0-1.377,0v.017c-.43,0-.861.017-1.291,0-.293,0-.516-.138-.516-.448a.467.467,0,0,1,.465-.516q1.368-.026,2.737,0a.42.42,0,0,1,.43.448A.431.431,0,0,1,19,104.649Zm6.076-.534a.5.5,0,0,1,.516-.465c.482-.017.964,0,1.463,0h0c.43,0,.861-.017,1.291,0,.275.017.534.1.568.413a.56.56,0,0,1-.43.654,10.79,10.79,0,0,1-2.978.052C25.181,104.752,25.06,104.425,25.078,104.115Z" transform="translate(0 -58.291)"/></g></svg>