<svg xmlns="http://www.w3.org/2000/svg" width="21.706" height="20.646" viewBox="0 0 21.706 20.646"><defs><style>.a{fill:#bfbfbf;}</style></defs><path class="a" d="M40.406,23.978a1.279,1.279,0,0,0-1.154-1.193A1.2,1.2,0,0,0,37.874,24.1c-.013.63-.013,1.272,0,1.9.013.459-.184.616-.63.616H21.769c-.5,0-.643-.184-.59-.669a12.246,12.246,0,0,0,.013-1.836,1.338,1.338,0,0,0-1.561-1.325c-.656.026-.931.433-.931,1.364v18.23a.942.942,0,0,0,1.049,1.049,1.319,1.319,0,0,0,1.443-1.377c.026-.984.039-1.967-.013-2.951-.039-.551.144-.7.643-.7q7.633.02,15.279,0c.564,0,.787.2.774.774-.026,1.023-.026,2.059,0,3.082A1.2,1.2,0,0,0,39.2,43.428a1.257,1.257,0,0,0,1.193-1.22Q40.412,33.1,40.406,23.978Zm-7.279,3.5c.092-.17.249-.118.407-.118h1.639v-.013h1.639c.131,0,.289-.013.315.144a.384.384,0,0,1-.092.289c-.551.564-1.1,1.115-1.666,1.666a.4.4,0,0,1-.63-.013c-.485-.5-.984-1-1.469-1.5C33.14,27.821,33.022,27.676,33.127,27.48Zm2.361,3.462c.42.459.879.9,1.325,1.351.249.249.354.485.066.787-.564.577-1.115,1.154-1.679,1.731a.779.779,0,0,1-.223.144c-.249.026-.354-.131-.485-.249a14.71,14.71,0,0,0-1.443-1.416c-.3-.21-.21-.433.013-.643.577-.564,1.154-1.128,1.718-1.692C35.015,30.719,35.225,30.64,35.487,30.942Zm-2.82-2.78c.538.551,1.075,1.089,1.613,1.639a.507.507,0,0,1,.026.761c-.525.551-1.062,1.1-1.587,1.653a.5.5,0,0,1-.354.157.587.587,0,0,1-.393-.21c-.525-.525-1.049-1.049-1.587-1.561a.485.485,0,0,1-.013-.787c.538-.538,1.075-1.089,1.613-1.626A.405.405,0,0,1,32.668,28.162Zm-1.089,5.1c-.577.6-1.167,1.18-1.757,1.757a.59.59,0,0,1-.184.092.538.538,0,0,1-.5-.223c-.485-.5-.971-1-1.482-1.482-.289-.275-.341-.525-.039-.826.538-.538,1.075-1.089,1.6-1.639.236-.236.433-.249.656,0,.538.564,1.089,1.128,1.639,1.692A.4.4,0,0,1,31.579,33.264Zm-4.118-5.758c.066-.2.236-.131.393-.131H31.3c.131,0,.275-.013.328.144.039.118-.066.2-.131.275-.538.538-1.089,1.062-1.613,1.613-.21.21-.407.236-.6.013a18.862,18.862,0,0,0-1.666-1.587C27.513,27.742,27.408,27.637,27.461,27.506Zm-.249.734c.511.538,1.049,1.036,1.587,1.561a.547.547,0,0,1,.223.38.629.629,0,0,1-.262.433c-.5.485-1,.971-1.5,1.469a.619.619,0,0,1-1.049,0c-.42-.446-.852-.879-1.285-1.312a.724.724,0,0,1,.039-1.18c.446-.42.852-.879,1.259-1.338A.577.577,0,0,1,27.212,28.24Zm-1.18,5.023c-.538.538-1.1,1.062-1.653,1.587a1.5,1.5,0,0,1-.184.1.5.5,0,0,1-.42-.223c-.511-.511-1.01-1.023-1.534-1.521a.515.515,0,0,1-.013-.879c.472-.446.931-.918,1.377-1.39.275-.3.525-.289.761,0a17.057,17.057,0,0,0,1.587,1.639C26.162,32.8,26.267,33.027,26.031,33.264ZM21.966,27.48c.079-.184.249-.144.393-.079h3.135c.17,0,.38-.052.459.157s-.131.289-.249.407c-.459.459-.931.918-1.377,1.39-.223.223-.42.275-.669.039-.525-.525-1.049-1.036-1.587-1.561C21.992,27.729,21.9,27.624,21.966,27.48Zm-.774,2.5h0c-.013-.525,0-1.049-.013-1.574,0-.131-.066-.275.1-.341.118-.039.21.039.289.118.551.564,1.1,1.115,1.653,1.679.223.223.17.42-.026.616-.459.459-.918.931-1.377,1.39-.131.131-.262.249-.446.17-.21-.079-.17-.275-.17-.446C21.2,31.073,21.192,30.522,21.192,29.985Zm.21,7.7c-.236-.079-.2-.3-.2-.5V35.559h.026v-1.7c0-.17-.013-.367.184-.459s.315.066.446.184c.5.511,1.01,1.023,1.521,1.534.262.262.315.485.026.774-.525.511-1.036,1.049-1.561,1.574C21.716,37.578,21.6,37.749,21.4,37.683Zm3.856.066c-.354.013-.7,0-1.193,0-.2.013-.551.026-.892.052-.144.013-.315.092-.407-.092s.013-.289.118-.407c.328-.315.656-.643.984-.957.131-.131.289-.289.446-.184a5.156,5.156,0,0,1,1.3,1.259C25.756,37.631,25.467,37.749,25.258,37.749Zm1.771-.039a.428.428,0,0,1-.393-.157c-.564-.551-1.115-1.1-1.666-1.653a.417.417,0,0,1,.013-.708,17.218,17.218,0,0,0,1.377-1.39c.275-.315.485-.367.787-.039.485.525,1,1.023,1.521,1.521a.594.594,0,0,1,0,1c-.472.42-.931.852-1.4,1.272A1.459,1.459,0,0,1,27.028,37.71Zm3.843-.052c-.092.275-.341.21-.551.223-.289.013-.564,0-.852,0h-.984c-.144,0-.328,0-.367-.2a.308.308,0,0,1,.17-.328,6.709,6.709,0,0,0,1-.931c.21-.223.433-.223.643.066a4.867,4.867,0,0,0,.669.708C30.753,37.316,30.95,37.434,30.871,37.657Zm.813-.17a9.213,9.213,0,0,0-1.338-1.338c-.328-.289-.3-.511,0-.8.538-.511,1.062-1.023,1.574-1.561.275-.3.5-.367.8-.026.407.459.852.866,1.272,1.312.118.118.275.223.289.42a.6.6,0,0,1-.223.393L32.445,37.5C32.2,37.762,31.933,37.814,31.684,37.487Zm3.226.38a4.242,4.242,0,0,1-1.207-.079.349.349,0,0,1-.17-.131.263.263,0,0,1,.039-.354c.354-.354.708-.708,1.075-1.049a.471.471,0,0,1,.236-.092A5.508,5.508,0,0,1,36.248,37.5a.445.445,0,0,1-.066.184C36.025,37.906,35.684,37.814,34.91,37.867Zm2.872-2.334v1.639c0,.131,0,.275-.131.354-.157.1-.3.013-.407-.092-.564-.551-1.115-1.115-1.666-1.666-.2-.2-.144-.367.039-.564.538-.511,1.049-1.049,1.574-1.574.131-.131.275-.236.459-.131s.1.262.1.407c.013.538.013,1.089.026,1.626Zm-.131-3.489a.368.368,0,0,1-.42-.1c-.459-.459-.931-.918-1.377-1.39-.236-.249-.21-.485.052-.734a9.208,9.208,0,0,0,1.469-1.561.231.231,0,0,1,.275-.131c.157.052.131.2.131.328v1.626h0v1.561C37.809,31.808,37.822,31.965,37.651,32.044Z" transform="translate(-18.7 -22.782)"/></svg>