<svg xmlns="http://www.w3.org/2000/svg" width="25.171" height="18.975" viewBox="0 0 25.171 18.975"><defs><style>.a{fill:none;}.b{fill:#bfbfbf;}</style></defs><g transform="translate(-9.208 -32.705)"><path class="a" d="M57.53,95.545a.32.32,0,0,0,.328-.342.458.458,0,0,0-.424-.438c-.26-.041-.356.15-.342.369A.418.418,0,0,0,57.53,95.545Z" transform="translate(-41.332 -53.565)"/><path class="a" d="M59.611,105c-.055.041-.1.1-.15.137-.52.465-.958.219-1.382-.137h0c-.383.451.082.561.315.616.6.137,1.218.178,1.6-.479-.123-.041-.26-.082-.383-.137Z" transform="translate(-42.058 -62.404)"/><path class="b" d="M99.246,112.09c0-.123.027-.52-.219-.7a.425.425,0,0,0-.3-.068.771.771,0,0,0-.479.219.722.722,0,0,0-.205.342h0c-.424.328-.383-.027-.424-.287h0a.847.847,0,0,0-.233-.479.978.978,0,0,0-1.122-.055h0c-.629.328-.67.985-.766,1.546s-.356.78-.876.78h0c-3.242.369-5.65.616-6.444.67a.894.894,0,0,1-.752-.192c-.123-.137-.123-.383-.055-.766h0a1.6,1.6,0,0,0,.137-1.094h0c-.068.014-.164.027-.274.041a16.338,16.338,0,0,0-1.847.643c-.493.137-.657.123-.821.315a.99.99,0,0,0-.15.752,12.977,12.977,0,0,1,.082,1.628,2.362,2.362,0,0,0,.547,1.436,1.616,1.616,0,0,0,2.339-.164,1.261,1.261,0,0,1,.274-.219,1.469,1.469,0,0,1,.835-.15c.506.055,3.037-.082,6.69-.328h0a2.794,2.794,0,0,1,.534,1.519,1.313,1.313,0,0,0,1.218,1.245,3.782,3.782,0,0,1,1.4.274h0c.164.1.52.287.752.137.192-.123.205-.424.205-.547C99.259,116.44,99.273,114.265,99.246,112.09Z" transform="translate(-64.907 -67.51)"/><path class="b" d="M12.586,38.2c1.094-.082,2.093-.014,2.9,0h.438a30.617,30.617,0,0,1,3.926.274.984.984,0,0,1,.424.137c.137.1.26.205.4.287,4.884-3.051,8.222-5.089,8.66-5.281.068-.027.465-.178.52-.465a.272.272,0,0,0-.014-.178c-.068-.233-.506-.246-.725-.26-.93-.041-2.613.027-2.859.041-1.04.041-2.079.082-3.147.109-.219,0-.451.014-.67.014a4,4,0,0,0-1.915.575c-.917.479-4.884,2.3-10.329,4.843-.233.055-.889.246-.971.67a.566.566,0,0,0,.082.424c.315.534.424,1.149.7,1.683a9.31,9.31,0,0,0,1.382,2.6h0c.233-.274.657-.315.821-.67h0a3.236,3.236,0,0,0,.233-1.382,3.628,3.628,0,0,0-.1-.6q-.144-.657-.369-1.724c-.055-.15-.192-.657.068-.93A.863.863,0,0,1,12.586,38.2Z"/><path class="b" d="M47.4,87.515h0a12.983,12.983,0,0,0-.356-3.694c-.137-.588-.342-.821-.917-.821-1.382.014-2.763,0-4.159,0-.493,0-.793.082-.93.287-.137.178-.055.4.041,1,.123.711,0,.219.15,1.149.1.52.219,1.218.424,2.079.287.055.7.123.93.164.26.041.383.068,4.132.369a.748.748,0,0,0,.383-.068A.719.719,0,0,0,47.4,87.515ZM43.533,84.6a.458.458,0,0,1,.424.438c-.014.219-.123.356-.328.342a.418.418,0,0,1-.438-.41C43.177,84.751,43.273,84.573,43.533,84.6Zm.219,2.025c-.233-.055-.7-.164-.315-.616h0c.424.356.876.6,1.382.137.055-.041.1-.1.15-.137h0c.123.041.26.082.383.137C44.97,86.8,44.354,86.762,43.752,86.625Z" transform="translate(-27.417 -43.414)"/><path class="b" d="M93.2,46.528a1.511,1.511,0,0,0-.4.561c-.438,1.2,1.053,2.846,1.587,3.42h0c.178.123.369.26.547.383h0a15.987,15.987,0,0,1,1.4-1.423c.26-.233.3-.246.67-.575,0,0,1.286-1.094,3.133-2.928h0a2.107,2.107,0,0,0,.7-1.765.964.964,0,0,1,.315-.739c.383-.41.78-.807,1.177-1.218h0c.1-.123.192-.26.3-.383a.714.714,0,0,0-.014-.684h0a.565.565,0,0,0-.26-.123.674.674,0,0,0-.493.15C101.541,41.425,98.052,43.559,93.2,46.528Z" transform="translate(-72.086 -7.202)"/><path class="b" d="M154.834,60.309a1.393,1.393,0,0,0,.3.67h0a1.852,1.852,0,0,0,.807-2.066c-.137,0-.274,0-.41-.014A1.537,1.537,0,0,0,154.834,60.309Z" transform="translate(-125.694 -22.611)"/></g></svg>