<svg xmlns="http://www.w3.org/2000/svg" width="20.171" height="24.043" viewBox="0 0 20.171 24.043"><defs><style>.a{fill:#bfbfbf;}</style></defs><g transform="translate(-28.9 -13.787)"><path class="a" d="M62.614,57.575a5.73,5.73,0,0,0,2.99-2.159c.226-.3.367-.729.663-.921A3.332,3.332,0,0,0,67.749,52.5c.254-.853.113-2.214-.423-2.421-.832-.316-.677-.756-.31-1.293-7.152-1.582-7.843-.7-11.158.1.3.55.282.977-.437,1.224a.914.914,0,0,0-.437.66,3.2,3.2,0,0,0,.734,3.081,17.925,17.925,0,0,1,1.763,1.967A5.259,5.259,0,0,0,60.23,57.6c.367.11.621.33.24.605-.55.385-.212.619.028.935.169.22.409.5.395.729a28.232,28.232,0,0,1-.409,2.847c-.268,1.472-.578,2.93-.889,4.47h3.527c-.056-.481-.1-.908-.169-1.334l-.719-3.92c-.085-.44-.141-.908-.268-1.334-.155-.564-.254-1.059.339-1.472.24-.179.55-.468.127-.784C61.839,57.891,62.163,57.712,62.614,57.575ZM58.693,56.13a20.97,20.97,0,0,1-1.368-1.705,3.217,3.217,0,0,0-.846-.715,3.174,3.174,0,0,1-.959-2.916c.2-.358.508-.371,1.044-.041.141-.715.423-.784,1.03-.536a9.089,9.089,0,0,0,2.243.646c.846.11,1.735.014,2.6.041a5.858,5.858,0,0,0,2.849-.743c.494-.248.8-.069.945.564.663-.385,1.128-.193,1.1.536a2.459,2.459,0,0,1-1.312,2.489,1.435,1.435,0,0,0-.564.674,4.862,4.862,0,0,1-2.934,2.586A3.68,3.68,0,0,1,58.693,56.13Z" transform="translate(-22.408 -29.427)"/><path class="a" d="M36.506,130.039q-.908-4.683-1.8-9.339a.976.976,0,0,0-.193.028c-1.155,1.169-2.366,2.3-3.438,3.535a6.107,6.107,0,0,0-1.774,3.686,8.048,8.048,0,0,1-.3,1.5c-.028.193-.069.385-.1.578C31.458,130.039,33.961,130.039,36.506,130.039Z" transform="translate(0 -92.208)"/><path class="a" d="M51.057,17.832A35.28,35.28,0,0,1,54.84,17.1a21.531,21.531,0,0,1,3.994.014c1.027.1,2.025.454,3.038.646.309.055.774.11.956-.069a8.6,8.6,0,0,0,1.027-1.265c-.956-.619-1.857-1.224-2.785-1.8a1.8,1.8,0,0,0-.914-.33,6.309,6.309,0,0,1-2.94-.385,1.824,1.824,0,0,0-1.294-.014,6.517,6.517,0,0,1-2.94.385,1.468,1.468,0,0,0-.788.206c-1,.633-1.983,1.293-3,1.967a8.586,8.586,0,0,1,.8,1C50.255,17.956,50.621,17.929,51.057,17.832Z" transform="translate(-17.508 0)"/><path class="a" d="M124.621,128.238a8.649,8.649,0,0,0-.564-1.87,15.391,15.391,0,0,0-3.108-3.7c-.523-.55-1.128-1.032-1.719-1.568-.591,3.026-1.2,6.107-1.829,9.27h7.675c-.014-.179-.041-.371-.055-.55A11.1,11.1,0,0,1,124.621,128.238Zm-1.843-1.76a.841.841,0,0,1-.234.509,1.64,1.64,0,0,1-.949.5,3.411,3.411,0,0,1-1.444.028,2.145,2.145,0,0,1-1.032-.371.837.837,0,0,1-.426-.536.744.744,0,0,1,.22-.564,2.834,2.834,0,0,1,3.452-.234A.866.866,0,0,1,122.778,126.478Zm2.146,1.155" transform="translate(-76.003 -92.553)"/><path class="a" d="M86.9,91.578a9.584,9.584,0,0,1,3.906-.1C90.05,90.643,87.533,90.712,86.9,91.578Z" transform="translate(-49.86 -66.498)"/></g></svg>