<svg xmlns="http://www.w3.org/2000/svg" width="30" height="20.523" viewBox="0 0 30 20.523"><defs><style>.a{fill:#bfbfbf;}</style></defs><g transform="translate(-12.774 -58.798)"><path class="a" d="M42.77,69.409c-.068-2.26-.017-4.52-.017-6.78a2.28,2.28,0,0,0-.187-1.261c-.952-1.57-2.073-2.593-3.636-2.569-3.7.071-7.426.024-11.13.024H22.532c-2.073,0-4.129-.024-6.2,0-2.192.048-3.551,2-3.551,5.02v6.185a2.875,2.875,0,0,0,.085,1.047c.918,1.641,1.937,3.021,3.6,3.021,4.775-.048,9.567-.024,14.342-.024,2.566,0,5.149-.024,7.715.024a3.264,3.264,0,0,0,2.43-.785A4.442,4.442,0,0,0,42.77,69.409Zm-1.75-.119c-.017,1.546-.527,2.212-1.614,2.26-7.273.285-14.545.048-21.818.119-.629,0-1.24-.1-1.852-.119-.663,0-1.071-.737-1.189-1.594a53.064,53.064,0,0,1,.017-7.351,2.116,2.116,0,0,1,2.209-1.879c3.687-.024,7.358,0,11.045,0h10.79c1.8,0,2.447.928,2.447,3.426C41.036,65.888,41.036,67.577,41.019,69.29Z" transform="translate(0)"/><path class="a" d="M96.566,133.534c-.975-1.808-.975-1.951.5-3.4a1.057,1.057,0,0,0,.167-1.475,1.044,1.044,0,0,0-1.356-.428,3.6,3.6,0,0,0-2.427,4,6.983,6.983,0,0,0,.975,2.284c1.189,2.165,1.237,2.236-.476,3.9a1.258,1.258,0,0,0-.333,1.4c.19.571.666.452,1.094.5,1.5,0,3.14-2.212,3-3.925A6.693,6.693,0,0,0,96.566,133.534Z" transform="translate(-67.556 -61.058)"/><path class="a" d="M46.175,132.823a1.775,1.775,0,0,1,.571-2.617c.642-.452.928-.975.428-1.713s-1.118-.619-1.737-.19c-2.4,1.546-2.736,3.235-1.094,5.828,1.332,2.117,1.332,2.379-.4,4.139a1.282,1.282,0,0,0-.357,1.38c.19.571.666.476,1.071.5,1.737.024,3.4-2.5,2.95-4.353A12.239,12.239,0,0,0,46.175,132.823Z" transform="translate(-25.601 -60.918)"/><path class="a" d="M146.307,133.115c-.452-1.047-.476-2,.666-2.688.5-.309.833-.737.523-1.38a1.182,1.182,0,0,0-1.523-.571,3.5,3.5,0,0,0-2.331,4.234,8.66,8.66,0,0,0,1.189,2.45,2.573,2.573,0,0,1,.476,1.641c.214.856-.571,1.213-1.094,1.713a1.147,1.147,0,0,0-.285,1.594,1.242,1.242,0,0,0,1.618.309,3.918,3.918,0,0,0,1.879-5.21C147.044,134.494,146.616,133.828,146.307,133.115Z" transform="translate(-109.526 -61.257)"/><path class="a" d="M48.266,86H30.234a2.412,2.412,0,0,0-1.386.285c-1.308.785-1.573,2.926-.529,4.353a2.006,2.006,0,0,0,1.728.88c2.959-.024,5.917,0,8.86,0h8.782a3.487,3.487,0,0,0,1.542-.309c1.215-.547,1.573-2.783.7-4.187A1.778,1.778,0,0,0,48.266,86Zm.125,3.283a3.5,3.5,0,0,1-.7.071H30.047c-.28-.024-.654.024-.67-.547-.016-.714.389-.666.685-.666,1.993-.024,3.986,0,5.979,0H47.627a4.309,4.309,0,0,1,.779.071c.156.024.28.214.3.476C48.717,89.021,48.593,89.235,48.39,89.283Z" transform="translate(-11.358 -23.019)"/><path class="a" d="M143.025,74.207h1.189v-.024c.523,0,1.023.048,1.546,0a1.411,1.411,0,0,0,1.308-1.023c.143-.571-.476-.809-.856-1a5.12,5.12,0,0,0-3.664-.1,1.044,1.044,0,0,0-.809,1.166A1.187,1.187,0,0,0,143.025,74.207Z" transform="translate(-110.273 -9.89)"/><path class="a" d="M111.847,74.279c.9,0,1.808.024,2.712-.024a1.172,1.172,0,0,0,1.142-.88c.143-.547-.309-.856-.666-1.142-.571-.476-1.285-.285-2.117-.333a5.616,5.616,0,0,0-1.332.119c-.571.167-1.142.547-1.094,1.213A1.2,1.2,0,0,0,111.847,74.279Z" transform="translate(-82.057 -9.985)"/></g></svg>