<svg xmlns="http://www.w3.org/2000/svg" width="81" height="41.252" viewBox="0 0 81 41.252"><defs><style>.a{fill:#c4c9ce;}</style></defs><g transform="translate(-7.4 -53.678)"><path class="a" d="M53.648,91.33H38.577a10.01,10.01,0,0,1-2.541-.3,2.441,2.441,0,0,1,0-4.737,6.9,6.9,0,0,1,2.11-.215H53.218c1.292,0,2.842.431,2.8-1.852-.043-2.239-1.636-1.766-2.928-1.766-3.746-.043-7.45,0-11.2-.043-2.2,0-3.316-.9-3.187-2.584.129-1.938,1.464-2.411,3.144-2.411,4,.043,8.053-.043,12.057.043,1.593.043,2.153-.6,2.067-2.2-.086-1.464-1.033-1.507-2.067-1.507H39.7c-1.593,0-2.67-.689-2.713-2.368-.043-1.809,1.033-2.541,2.713-2.584h1.938c4.091,0,8.182.043,12.273,0,2.067-.043,2.541-.947,1.464-2.67A4.947,4.947,0,0,0,50.763,63.9H13.084C9.209,63.9,7.4,65.709,7.4,69.541V91.933c0,3.962,1.809,5.77,5.813,5.77,5.813.043,11.627,0,17.44,0H50.462c2.842,0,4.651-1.163,5.3-3.187C56.577,92.278,55.931,91.33,53.648,91.33Z" transform="translate(0 -5.82)"/><path class="a" d="M129.519,65.047a6.971,6.971,0,0,0-12.574,5.469,4.947,4.947,0,0,0,4,4,4.894,4.894,0,0,0,5.167-2.325c.56-.947,1.033-2.067-.086-2.885s-1.809.043-2.368,1.033a1.953,1.953,0,0,1-2.584.947,2.037,2.037,0,0,1-1.292-2.239,3.782,3.782,0,0,1,2.282-3.617,3.887,3.887,0,0,1,4.392.732c3.1,2.928,2.024,9-1.895,10.636a10.916,10.916,0,0,1-4.22.6H85.51c-1.12,0-2.368.172-2.411,1.55s1.206,1.593,2.325,1.593c11.971,0,23.942.086,35.914-.086,3.833-.043,7.364-1.421,9.172-5.3A9.686,9.686,0,0,0,129.519,65.047Z" transform="translate(-43.101 -4.728)"/><path class="a" d="M103.575,62.773c1.895.861,3.488.215,5.038-.947-.861,1.981-2.541,2.239-4.392,2.239-7.45,0-14.942,0-22.392.043-1.292,0-3.23-.388-3.23,1.507-.043,2.067,1.981,1.636,3.316,1.636,7.191.043,14.34,0,21.531.043a14.383,14.383,0,0,0,3.833-.474,6.065,6.065,0,0,0,4.651-4.608c.517-2.541.258-5.038-1.722-7.019a5.2,5.2,0,0,0-7.923.689C100.6,58.209,101.25,61.7,103.575,62.773Z" transform="translate(-40.539)"/><path class="a" d="M101.15,118.188a14.587,14.587,0,0,0-3.617-.431q-10.852-.065-21.7,0a9.777,9.777,0,0,0-1.938.129,1.392,1.392,0,0,0-1.292,1.464,1.427,1.427,0,0,0,1.335,1.464,11.814,11.814,0,0,0,2.153.129H98.437c1.766,0,3.4.3,4.091,2.368a12.13,12.13,0,0,0-1.55-1.033,3.954,3.954,0,0,0-5.426,2.325,5.375,5.375,0,0,0,2.239,6.029,5.239,5.239,0,0,0,6.5-.861A7,7,0,0,0,101.15,118.188Z" transform="translate(-37.124 -36.467)"/></g></svg>