<svg xmlns="http://www.w3.org/2000/svg" width="37.853" height="38.538" viewBox="0 0 37.853 38.538"><defs><style>.a{fill:#c4c9ce;}</style></defs><g transform="translate(-197 -284)"><path class="a" d="M234.853,322.538H197V284h37.853ZM199.26,296.376v7.953h32.61v-7.953Zm0-10.157v7.928h32.635v-7.928Zm.019,20.348v12.994h33.318V306.568Z"/><path class="a" d="M345.444,369.348c0,1.613.145,3.306-1.431,4.243a5.5,5.5,0,0,1-5.633.066c-1.664-.909-1.518-2.644-1.525-4.309Z" transform="translate(-115.9 -70.73)"/><path class="a" d="M237.02,379.509h3.531c-.09.911-.166,1.888-.3,2.857-.024.175-.257.376-.442.465a1.694,1.694,0,0,1-2.62-1.481C237.135,380.732,237.076,380.115,237.02,379.509Z" transform="translate(-33.165 -79.15)"/><path class="a" d="M283.716,379.529h3.51a14.1,14.1,0,0,1-.316,2.892c-.1.328-.983.531-1.528.581-.528.048-1.229-.008-1.359-.729C283.859,381.365,283.812,380.435,283.716,379.529Z" transform="translate(-71.863 -79.167)"/><path class="a" d="M283.977,372.67h3.373v.231A4.006,4.006,0,0,1,283.977,372.67Z" transform="translate(-72.08 -73.483)"/><path class="a" d="M240.709,372.885a5,5,0,0,1-3.358-.02v-.22h3.358Z" transform="translate(-33.44 -73.462)"/><path class="a" d="M226.332,309.911h8.636c-.035,1.621.111,3.314-1.458,4.244a5.5,5.5,0,0,1-5.626.058C226.216,313.3,226.4,311.573,226.332,309.911Z" transform="translate(-24.308 -21.473)"/><path class="a" d="M327.987,309.808H334.1l.077.984a1.272,1.272,0,0,0,.239.165,1.135,1.135,0,0,1,.817,1.249c-.087.677-.623.877-1.183,1.068-.478.163-.932.4-1.4.6l.07.2,1.336.265-.024.22a16.981,16.981,0,0,1-5.959.024l-.028-.236,1.4-.293C328.111,312.944,327.922,311.467,327.987,309.808Zm5.8,2.849.244.2c.2-.238.509-.451.579-.723.053-.208-.191-.493-.3-.743l-.216.089Z" transform="translate(-108.543 -21.388)"/><path class="a" d="M214.386,420.169h20.267v11.52H214.386Zm18.124,5.792h0a15.01,15.01,0,0,0-.033-2.132c-.041-.285-.448-.517-.688-.774-.24.257-.675.5-.689.772a39.374,39.374,0,0,0,0,4.185c.016.292.479.56.736.839.226-.28.6-.537.647-.843A14.053,14.053,0,0,0,232.51,425.961Z" transform="translate(-14.408 -112.846)"/><path class="a" d="M337.5,420.121h10.8V431.66H337.5Zm2.142,5.725a15.578,15.578,0,0,0,.031,2.137c.042.3.425.554.653.828.26-.253.73-.5.744-.762a41.673,41.673,0,0,0,0-4.278,1.084,1.084,0,0,0-.728-.723c-.53-.1-.711.332-.706.828C339.645,424.533,339.639,425.189,339.639,425.846Z" transform="translate(-116.433 -112.806)"/><path class="a" d="M361.908,320.291l.3-1.182.217-.089c.112.251.357.535.3.743-.07.273-.375.485-.579.723Z" transform="translate(-136.662 -29.022)"/></g></svg>