<svg xmlns="http://www.w3.org/2000/svg" width="30" height="32.602" viewBox="0 0 30 32.602"><defs><style>.a{fill:#bfbfbf;}</style></defs><path class="a" d="M49.963,23.912a17.177,17.177,0,0,0-4.778-3.64c-.541-.317-1.437-.467-1.4-1.325.075-1.288-.691-1.96-1.624-2.613a20.98,20.98,0,0,0-2.744-1.586,7.267,7.267,0,0,0-2.314-.933c-1.512-.149-3.08-.411-4.61.448-1.157.653-2.445,1.083-3.565,1.81-.877.579-2.034,1.064-1.978,2.37a1.687,1.687,0,0,1-1.12,1.736,18.429,18.429,0,0,0-4.144,2.65c-1.4,1.232-2.053,2.2-.411,3.826.429.411.84.84,1.251,1.251a1.217,1.217,0,0,1,.429.989c-.261,2.37.019,4.741-.093,6.663v6.029a2.342,2.342,0,0,0,2.072,2.706,17.539,17.539,0,0,1,3.042,1.139,7.756,7.756,0,0,0,3.565.821c2.3-.112,4.591,0,6.906-.056a7.555,7.555,0,0,0,3.36-.448,40.507,40.507,0,0,1,4.778-1.773c1.213-.392,1.474-.84,1.474-2.146,0-4.106.019-8.212-.019-12.319a2.753,2.753,0,0,1,.635-1.885,17.686,17.686,0,0,0,1.288-1.586A1.819,1.819,0,0,0,49.963,23.912ZM28.778,43.285a21.767,21.767,0,0,0-2.613-.933c-.616-.205-.691-.411-.765-.523-.131-.205-.131-.392-.093-1.381.056-1.045.075-1.157.187-1.251.187-.131.373.019,1.307.224.205.037.523.093,1.12.205,1.12.187,1.213.168,1.363.317.205.205.187.392.224,1.642.056,1.251.093,1.642-.149,1.792C29.282,43.435,29.1,43.435,28.778,43.285ZM27.9,37.369c-1.829-.131-2.146-.261-2.333-.5a1.187,1.187,0,0,1-.261-.8V29.94a.94.94,0,0,1,.224-.709c.224-.187.467-.093,1.418-.037.747.037.8,0,1.288.056a2.349,2.349,0,0,1,.952.224c.448.317.373.971.336,3.192-.019.8-.056,1.605-.056,2.408,0,1.437.056,1.978-.317,2.258C29.021,37.425,28.89,37.443,27.9,37.369Zm10.788-7.3c-.093,1.045-.112,11.964-.056,12.953a.951.951,0,0,1-.205.728.861.861,0,0,1-.635.187c-1.586,0-3.173-.019-4.759,0a1.124,1.124,0,0,1-.784-.224,1.02,1.02,0,0,1-.243-.84c.037-.8-.019-3.117-.075-6.271.019-3.565.037-6.159.019-6.7a.755.755,0,0,1,.168-.56.7.7,0,0,1,.467-.149H38a.7.7,0,0,1,.523.168A.948.948,0,0,1,38.689,30.071Zm2.389,3.341c.056-1.642.093-2.837.075-3.453a.788.788,0,0,1,.187-.616.915.915,0,0,1,.672-.168c.8.037,1.624-.037,2.426-.037.971.019,1.045-.037,1.213.075.411.3.28.915.261,2.277-.019.933.019,2.464-.093,4.442a1.591,1.591,0,0,1-.243.784,1.879,1.879,0,0,1-1.027.579,10.361,10.361,0,0,1-2.762.261.8.8,0,0,1-.579-.149.724.724,0,0,1-.149-.541C41.1,35.708,41.078,34.569,41.078,33.412Zm3.154,9.258c-.672.243-.579.168-1.456.448-.952.317-1.325.5-1.568.317a.53.53,0,0,1-.187-.523c.112-.859.093-1.717.149-2.594a.7.7,0,0,1,.187-.448.723.723,0,0,1,.485-.187c.355-.037.691-.149,1.045-.168.205-.019.579-.093,1.363-.261,1.251-.261,1.418-.355,1.586-.205s.093.336.056,1.381c-.037,1.12.037,1.213-.112,1.437C45.576,42.184,45.128,42.352,44.233,42.67Z" transform="translate(-20.306 -13.657)"/></svg>