<svg xmlns="http://www.w3.org/2000/svg" width="45.037" height="41.413" viewBox="0 0 45.037 41.413"><defs><style>.a{fill:#c4c9ce;}</style></defs><g transform="translate(-215.357 -312.653)"><path class="a" d="M215.357,333.287a4.376,4.376,0,0,1,1.022-2.054A3.8,3.8,0,0,1,218.7,330.1v-.528c0-3.84-.012-7.68.006-11.52a5.263,5.263,0,0,1,4.156-5.209,5.926,5.926,0,0,1,5.549,1.3.484.484,0,0,0,.44.035,4.773,4.773,0,0,1,5.989.873c1.229,1.217,1.232,1.773.015,2.99-1.762,1.761-3.553,3.5-5.276,5.295-1.087,1.136-1.895,1.244-3.073-.021a4.983,4.983,0,0,1-1.472-3.985,4.827,4.827,0,0,1,1.451-3.01,2.341,2.341,0,0,0-1.627-.755,2.707,2.707,0,0,0-3.008,1.39,3.037,3.037,0,0,0-.271,1.225c-.02,3.869-.012,7.739-.011,11.608,0,.072.013.143.027.288h.6q17.06,0,34.12,0a3.731,3.731,0,0,1,3.326,1.52,9.708,9.708,0,0,1,.756,1.7v1.055a1.084,1.084,0,0,0-.087.193,3.74,3.74,0,0,1-2.02,2.571.626.626,0,0,0-.25.472c-.021,1.553.01,3.108-.024,4.661a8.649,8.649,0,0,1-6.247,8c-.185.051-.373.1-.662.171.437.417.819.74,1.148,1.111a2.155,2.155,0,0,1,.48.814,1.358,1.358,0,0,1-.67,1.536,1.406,1.406,0,0,1-1.736-.247c-.932-.912-1.839-1.851-2.78-2.755a1.085,1.085,0,0,0-.677-.29q-8.993-.023-17.986,0a1.087,1.087,0,0,0-.677.29c-.91.872-1.777,1.789-2.692,2.655a2.087,2.087,0,0,1-.938.506,1.327,1.327,0,0,1-1.431-.717,1.419,1.419,0,0,1,.2-1.635c.388-.431.807-.833,1.239-1.275-.167-.051-.275-.089-.385-.118a8.6,8.6,0,0,1-6.466-8.178q-.041-2.154,0-4.309c.008-.419-.08-.678-.5-.832a2.412,2.412,0,0,1-.64-.455,4.207,4.207,0,0,1-1.241-2.169Zm39.9,4.254H220.6c0,1.568-.024,3.1.013,4.64a5.483,5.483,0,0,0,.288,1.589,5.737,5.737,0,0,0,5.648,3.937q11.322.005,22.644,0c.161,0,.322,0,.483-.011a5.5,5.5,0,0,0,5.238-4.308A46.527,46.527,0,0,0,255.26,337.541ZM237.891,334.6q9.214,0,18.427,0a2.252,2.252,0,0,0,.65-.07.737.737,0,0,0,.542-.765.747.747,0,0,0-.55-.762,1.716,1.716,0,0,0-.519-.066q-18.559,0-37.117,0a1.8,1.8,0,0,0-.52.062.808.808,0,0,0,.008,1.541,2.211,2.211,0,0,0,.607.061Q228.655,334.607,237.891,334.6Zm-9.841-14,4.086-4.045a1.847,1.847,0,0,0-2.066.272,21.311,21.311,0,0,0-1.74,1.737A1.781,1.781,0,0,0,228.049,320.6Z"/><path class="a" d="M293.3,354a.666.666,0,0,1-1.031.6,3.649,3.649,0,0,1-.911-.93.8.8,0,0,1,.057-.742c.134-.166.571-.307.7-.214a8.322,8.322,0,0,1,1.127,1.071C293.3,353.833,293.286,353.946,293.3,354Z" transform="translate(-57.227 -30.166)"/><path class="a" d="M281.853,353.965c-.015.5-.528.893-.888.651a4.966,4.966,0,0,1-1.125-1.123c-.092-.121.01-.51.15-.655s.534-.267.648-.18a11.353,11.353,0,0,1,1.17,1.141C281.851,353.843,281.846,353.936,281.853,353.965Z" transform="translate(-48.572 -30.128)"/><path class="a" d="M287.454,365.325c-.141.17-.259.432-.451.51a.835.835,0,0,1-.686-.067,4.633,4.633,0,0,1-.839-.825.67.67,0,0,1,.922-.951,8.18,8.18,0,0,1,.865.864A1.715,1.715,0,0,1,287.454,365.325Z" transform="translate(-52.726 -38.579)"/><path class="a" d="M298.976,365.355a.661.661,0,0,1-1.026.594,3.644,3.644,0,0,1-.911-.929.8.8,0,0,1,.053-.742c.135-.168.573-.312.706-.219a8.251,8.251,0,0,1,1.127,1.071C298.976,365.181,298.964,365.3,298.976,365.355Z" transform="translate(-61.51 -38.72)"/><path class="a" d="M302.695,348.893a2.379,2.379,0,0,1,.491.244,7.407,7.407,0,0,1,.746.741.659.659,0,0,1-.021.95.678.678,0,0,1-.952,0,3.839,3.839,0,0,1-.751-.79.9.9,0,0,1-.05-.721C302.235,349.135,302.51,349.031,302.695,348.893Z" transform="translate(-65.38 -27.313)"/><path class="a" d="M291.692,340.776a1.986,1.986,0,0,1,.472.211,8.4,8.4,0,0,1,.806.8.617.617,0,0,1-.042.907.632.632,0,0,1-.911.044,3.7,3.7,0,0,1-.788-.814.9.9,0,0,1-.054-.723C291.248,341.016,291.521,340.908,291.692,340.776Z" transform="translate(-57.103 -21.195)"/></g></svg>