<svg xmlns="http://www.w3.org/2000/svg" width="30" height="26.457" viewBox="0 0 30 26.457"><defs><style>.a{fill:none;}.b{fill:#bfbfbf;}</style></defs><g transform="translate(-16.694 -29.437)"><path class="a" d="M38.253,37.651c.741-.035,1.218-.671,1.2-1.57a1.2,1.2,0,0,0-1.27-1.182c-.759.018-1.182.547-1.182,1.412C37.018,37.209,37.476,37.686,38.253,37.651Zm-.088-2.1c.441-.018.741.212.706.688-.035.423-.194.829-.723.812-.512-.018-.547-.423-.582-.706C37.529,35.78,37.759,35.551,38.165,35.551Z" transform="translate(-16.723 -4.497)"/><path class="a" d="M100.018,36.18a1.517,1.517,0,0,0,.071.423,1.093,1.093,0,0,0,1.182.829,1.145,1.145,0,0,0,.971-.6,1.813,1.813,0,0,0,.212-.953,1.2,1.2,0,0,0-1.27-1.182,1.152,1.152,0,0,0-1.165,1.165c0,.088-.018.159-.018.247A.106.106,0,0,1,100.018,36.18Zm1.147-.865c.441-.018.741.212.706.688-.035.423-.194.829-.723.812-.512-.018-.547-.423-.582-.706C100.529,35.563,100.759,35.333,101.165,35.316Z" transform="translate(-68.606 -4.332)"/><path class="a" d="M70.053,38.353c.741-.035,1.218-.671,1.2-1.57a1.05,1.05,0,0,0-.106-.476,1.224,1.224,0,0,0-1.165-.706c-.759.018-1.182.547-1.182,1.412V37.1C68.853,37.929,69.294,38.37,70.053,38.353Zm-.088-2.117c.441-.018.741.212.706.688-.035.423-.194.829-.723.812-.512-.018-.547-.423-.582-.706C69.312,36.482,69.559,36.253,69.965,36.235Z" transform="translate(-42.912 -5.075)"/><path class="a" d="M142.958,57.685c.194.212.441.159.688.159.106-.265.124-.459.035-.529a.533.533,0,0,0-.3-.124.427.427,0,0,0-.265.053.416.416,0,0,0-.159.441Z" transform="translate(-103.976 -22.855)"/><path class="a" d="M171.4,57.531c.088-.159.159-.3.247-.459a1.711,1.711,0,0,0-.018-.3.433.433,0,0,0-.847.159C170.733,57.354,171.386,57.178,171.4,57.531Z" transform="translate(-126.899 -22.259)"/><path class="a" d="M45.934,95.976c-.018-.265-.035-.529.247-.688a.7.7,0,0,0,.335-.9c-.159-.423-.547-.371-.9-.388H38.559a2.671,2.671,0,0,0-.529.035c-.635.176-.829.759-.3,1.094a1.292,1.292,0,0,1,.529,1.517c-.106.671-.212,1.341-.282,2.012-.353,3.088-.512,6.211-1.076,9.264h0c.053.318,0,.759.406.759.441.018.494-.388.547-.759.229-2.312.494-4.605.723-6.917.229-2.259.212-2.259,2.506-2.153.529.018.706.176.688.741-.053,2.929-.035,5.876-.053,8.805h0c.176.071.265.406.494.282.282-.159.282-.476.282-.776-.018-2.77-.018-5.523-.035-8.293,0-.353-.141-.935.459-.794.829.194,1.923-.688,2.488.512a3.911,3.911,0,0,1,.141,1.306c.265,2.488.512,4.958.812,7.446.053.441.265.847.812.406-.124-1.482-.229-2.982-.406-4.447C46.446,101.358,46.111,98.676,45.934,95.976Zm-4.2,1.729a.48.48,0,0,1-.124.212.487.487,0,0,1-.335.106c-.829.018-1.817.459-2.223-.053a.653.653,0,0,1-.159-.423c-.035-1.112.212-1.412,1.129-1.429h.529C41.664,96.135,42.035,96.629,41.735,97.706Zm3.229.229c-.106.106-.176.124-1.641.106-.423,0-.635-.018-.776-.176s-.141-.371-.141-.706a3.69,3.69,0,0,1,.071-.723c.071-.088.141-.194.212-.282.335-.018.653-.035.935-.053.865-.053,1.129-.053,1.288.124.106.106.124.247.176.512C45.158,97.106,45.246,97.635,44.964,97.935Z" transform="translate(-16.64 -53.17)"/><path class="b" d="M48.321,78.9q-13.843.026-27.685.018c-.476,0-.635.106-.635.618.018,5.435.018,10.887,0,16.322,0,.547.176.776.723.688H36.6c2.682.018,5.382.018,8.064.035a.632.632,0,0,0,.565-.176,1.127,1.127,0,0,1-.459-.812c-.3-2.841-.635-5.664-.9-8.505-.053-.565-.212-.759-.776-.741-2.682.053-2.188-.318-2.206,2.153-.018,2.347.018,4.711.035,7.058a.719.719,0,0,1-.3.688c-.318.159-.318-.265-.512-.353.035-2.982.053-5.982.088-8.964q0-.556-.529-.529H39.41c-2.117-.053-2.1-.053-2.312,2.047-.247,2.417-.529,4.835-.812,7.252-.071.618-.388.829-.935.371h0c.441-4.041.865-8.1,1.323-12.14a1.048,1.048,0,0,0-.406-1.076.572.572,0,0,1-.212-.776.713.713,0,0,1,.688-.459h7.57a.853.853,0,0,1,.847.529c.124.3-.159.494-.371.635a.984.984,0,0,0-.423.988c.247,2.241.459,4.5.741,6.723a40.442,40.442,0,0,0,.582,5.064c.106.423-.3.582-.459.882a11.131,11.131,0,0,0,2.964.176c.582.053.741-.194.741-.759-.018-5.417-.018-10.817,0-16.234C48.938,79.076,48.832,78.9,48.321,78.9Zm-15.9,16.763c-.282-2.47-.547-4.958-.812-7.446a4.43,4.43,0,0,0-.141-1.306c-.565-1.182-1.659-.318-2.488-.512-.6-.141-.476.441-.459.794,0,2.77.018,5.523.035,8.293,0,.3.018.618-.282.776-.229.124-.3-.212-.494-.282h0c.018-2.929,0-5.876.053-8.805,0-.565-.176-.723-.688-.741-2.294-.088-2.276-.106-2.506,2.153-.229,2.312-.494,4.605-.723,6.917-.035.371-.106.776-.547.759-.423-.018-.371-.459-.406-.759h0c.565-3.07.723-6.176,1.076-9.264.071-.671.176-1.341.282-2.012a1.292,1.292,0,0,0-.529-1.517c-.529-.335-.335-.918.3-1.094a1.747,1.747,0,0,1,.529-.035h7.058c.353,0,.741-.053.9.388a.67.67,0,0,1-.335.9c-.282.176-.265.423-.247.688.176,2.7.512,5.382.829,8.064.176,1.482.265,2.964.406,4.447C32.687,96.51,32.475,96.1,32.422,95.663Z" transform="translate(-2.722 -40.735)"/><path class="b" d="M163,178.1Z" transform="translate(-120.49 -122.431)"/><path class="b" d="M46.392,70.925c-.265-.018-.529-.018-.794-.018H17.225c-.194,0-.512-.124-.529.247-.018.335.194.459.512.441H45.669c.229,0,.476,0,.706-.018a.3.3,0,0,0,.318-.335C46.71,71.049,46.6,70.943,46.392,70.925Z" transform="translate(0 -34.137)"/><path class="b" d="M98.532,34.665a1.4,1.4,0,0,0,.618-.865,3.8,3.8,0,0,0,.3-.953c.088-.371.141-.688.176-.918a2.6,2.6,0,0,0,.053-.847,1.6,1.6,0,0,0-.371-.723,1.754,1.754,0,0,0-1.976-.547A1.706,1.706,0,0,0,96.1,31.771a3.52,3.52,0,0,0,.494,1.747C96.75,34.629,97.579,35.212,98.532,34.665Zm-.565-4.094a1.193,1.193,0,0,1,1.27,1.182,1.773,1.773,0,0,1-.212.953,1.169,1.169,0,0,1-.97.6,1.078,1.078,0,0,1-1.182-.829,2.643,2.643,0,0,1-.071-.423v-.088a1.085,1.085,0,0,1,.018-.247A1.133,1.133,0,0,1,97.967,30.571Z" transform="translate(-65.391 -0.222)"/><path class="b" d="M40.128,36.207c1.394.018,2.788.035,4.182.035.176,0,.494.159.512-.212.018-.318.035-.671-.459-.635a.518.518,0,0,1-.176.053c.053-.018.106-.035.176-.053-.247-.071-.476-.141-.723-.212a2.716,2.716,0,0,0-2.1-.176h0c-.335.035-.529.388-.9.371.071.018.124.035.194.053a.4.4,0,0,1-.194-.053c-.547-.035-.335.494-.529.706-.423.018-.865.106-.865-.565,0-.141-.212-.159-.353-.141-.176-.071-.335-.159-.512-.229a2.374,2.374,0,0,1-.353-1.006v-.018c.053-.159.088-.282.124-.388h0c.053-.106.141-.282.265-.512a5.084,5.084,0,0,0,.353-.706,2.481,2.481,0,0,0,.106-.547h0v-.882a1.551,1.551,0,0,0-1.129-1.5,1.781,1.781,0,0,0-1.959.371,2.252,2.252,0,0,0-.406,2.382h0c.176.476.335.935.512,1.412h0c.512.6-.212,1.059-.194,1.588-.176,0-.353.018-.529.018a.86.86,0,0,1,.194.071.294.294,0,0,1-.194-.071c-.547.018-.494,1.041-1.235.723l-.371-.212h0c.035-.159.194-.423-.018-.459-.565-.053-.776-.547-1.182-.812h0c.088-1.023.723-1.888.741-2.911.018-.671.124-1.376-.494-1.853a1.989,1.989,0,0,0-2.153-.159c-.723.335-.759,1.006-.759,1.729a8.083,8.083,0,0,0,.688,2.876A1.88,1.88,0,0,1,29.135,35.5h0c-.053.247.035.512-.335.671h5.117C36.017,36.207,38.064,36.207,40.128,36.207Zm-4.27-4.164v-.088c-.018-.865.423-1.394,1.182-1.412a1.2,1.2,0,0,1,1.165.706,1.051,1.051,0,0,1,.106.476,1.349,1.349,0,0,1-1.2,1.57A1.176,1.176,0,0,1,35.858,32.042Zm-5.611-.212c-.018-.865.423-1.394,1.182-1.412A1.193,1.193,0,0,1,32.7,31.6a1.349,1.349,0,0,1-1.2,1.57C30.723,33.189,30.265,32.713,30.247,31.831Z" transform="translate(-9.97 0)"/><path class="b" d="M129.584,53.7a.8.8,0,0,0,.176.476,1.02,1.02,0,0,0,.529.265,2.823,2.823,0,0,0,.865.088c.512-.035.776-.053.988-.247.053-.053.106-.088.159-.141a2.15,2.15,0,0,0,.918-1.517c0-.141,0-.565-.265-.741-.124-.088-.265-.071-.476-.088a3.87,3.87,0,0,1-.547-.071,1.865,1.865,0,0,0-2.117.441,2.739,2.739,0,0,0-.229,1.535Zm2.488-1.076a.427.427,0,0,1,.265-.053.605.605,0,0,1,.3.124c.088.071.053.265-.035.529-.247,0-.494.035-.688-.159h0A.416.416,0,0,1,132.072,52.625Z" transform="translate(-92.932 -18.236)"/><path class="b" d="M158.445,54.212a4.928,4.928,0,0,0,1.906.035.333.333,0,0,0,.141-.035h0c.018-.018.035-.018.053-.035a2.108,2.108,0,0,0,1.165-1.641,1.839,1.839,0,0,0-.247-.706.76.76,0,0,0-.265-.265,1.783,1.783,0,0,0-.388-.071,1.835,1.835,0,0,0-.265-.035c-.265-.035-.494-.071-.671-.088a2.188,2.188,0,0,0-1.429.212c-.476.3.088.988-.176,1.465h0C157.986,53.488,158.11,54.106,158.445,54.212Zm2.259-1.959a.445.445,0,0,1,.494.3,1.713,1.713,0,0,0,.018.3c-.088.159-.159.3-.247.459-.018-.353-.671-.176-.618-.6A.44.44,0,0,1,160.7,52.253Z" transform="translate(-116.464 -18.04)"/><path class="b" d="M140.682,105.326c-.9-.088-1.817-.406-2.682.176a5.737,5.737,0,0,1,.035.953c-.071.6.229.794.759.759.212-.018.406-.018.618-.018,1.429,0,1.429,0,1.412-1.359C140.964,105.608,140.876,105.344,140.682,105.326Z" transform="translate(-99.901 -62.361)"/><path class="b" d="M121.848,105.664a3.836,3.836,0,0,0-2.647-.159c-.071.071-.071.212-.124.318,0,.318.018.635,0,.953-.035.371.124.582.476.565.688-.035,1.465.229,2.064-.124.459-.282.018-.988.212-1.482C121.848,105.735,121.848,105.7,121.848,105.664Z" transform="translate(-84.314 -62.505)"/><path class="b" d="M49.744,106.1h-.529c-.9.018-1.165.318-1.129,1.429a.617.617,0,0,0,.159.423c.406.512,1.394.071,2.223.053a.51.51,0,0,0,.335-.106.423.423,0,0,0,.124-.212C51.244,106.594,50.874,106.1,49.744,106.1Z" transform="translate(-25.85 -63.135)"/><path class="b" d="M70.606,105.98c-.176-.176-.423-.176-1.288-.124-.282.018-.6.035-.935.053-.071.088-.141.194-.212.282a3.407,3.407,0,0,0-.071.723,1.113,1.113,0,0,0,.141.706c.141.159.353.159.776.176,1.447.018,1.535,0,1.641-.106.282-.3.194-.829.124-1.2C70.747,106.209,70.729,106.085,70.606,105.98Z" transform="translate(-42.335 -62.909)"/><path class="b" d="M40.849,40c.529.018.688-.388.723-.812a.607.607,0,0,0-.706-.688c-.406.018-.653.247-.6.794C40.284,39.572,40.32,40,40.849,40Z" transform="translate(-19.407 -7.459)"/><path class="b" d="M72.549,40.7c.529.018.688-.388.723-.812a.607.607,0,0,0-.706-.688c-.406.018-.653.247-.6.794C72,40.272,72.037,40.678,72.549,40.7Z" transform="translate(-45.514 -8.036)"/><path class="b" d="M103.849,39.7c.529.018.688-.388.723-.812a.607.607,0,0,0-.706-.688c-.406.018-.653.247-.6.794C103.3,39.272,103.337,39.678,103.849,39.7Z" transform="translate(-71.291 -7.212)"/></g></svg>