<svg xmlns="http://www.w3.org/2000/svg" width="49.4" height="40.047" viewBox="0 0 49.4 40.047"><defs><style>.a{fill:#c4c9ce;}</style></defs><path class="a" d="M56.621,33.215c-2.293-.975-4.534-1.924-6.775-2.926-3.48-1.555-6.959-3.111-10.412-4.719a2.308,2.308,0,0,0-2.952.448c-1.16,1.186-2.478,2.241-3.69,3.374a.989.989,0,0,1-1.582-.026c-1.186-1.107-2.478-2.109-3.585-3.269a2.334,2.334,0,0,0-3.058-.5c-2.531,1.186-5.088,2.346-7.645,3.48C13.758,30.5,10.542,31.87,7.3,33.268v.87a6.018,6.018,0,0,1,.554.264c1.555,1.423,3.058,2.9,4.692,4.218a1.307,1.307,0,0,1,.316,2c-.764,1.213-1.476,2.478-2.32,3.664-.554.791-.527,1.344.29,1.845.369.237.738.474,1.134.685a2.441,2.441,0,0,1,1.582,2.715,30.962,30.962,0,0,1-.079,3.137c-.448,1.951.633,2.9,2.082,3.717,4.982,2.821,9.964,5.668,14.947,8.488a3.191,3.191,0,0,0,3.374-.158c2.214-1.318,4.481-2.583,6.722-3.849,2.9-1.634,5.8-3.269,8.673-4.929a2.471,2.471,0,0,0,1.318-2.557c-.105-2.742-1.081-5.931,2.689-7.3.764-.264.764-.949.316-1.634-.791-1.213-1.555-2.452-2.293-3.664-.474-.764-.633-1.423.264-2.135,1.555-1.265,2.926-2.794,4.534-4.007a1.322,1.322,0,0,0,.606-1.265A.2.2,0,0,0,56.621,33.215Zm-23.962,0c0-1.134.659-1.4,1.793-.791,2.979,1.529,5.984,3.084,8.989,4.56,1.5.764,3.058,1.423,4.956,2.293-.738.527-1.16.9-1.634,1.16-2.425,1.318-4.824,2.662-7.276,3.9a2.089,2.089,0,0,1-1.687.026,34.688,34.688,0,0,1-4.165-2.478,2.559,2.559,0,0,1-.949-1.687C32.58,37.854,32.633,35.535,32.659,33.215Zm-1.239.158c.026,2.188,0,4.376.026,6.59a2.126,2.126,0,0,1-1.134,2.056c-1.344.738-2.61,1.608-3.954,2.32a1.888,1.888,0,0,1-1.45.158c-2.715-1.4-5.4-2.9-8.093-4.35a9.856,9.856,0,0,1-1.054-.87c1.924-.9,3.664-1.687,5.378-2.531,2.847-1.423,5.694-2.873,8.515-4.35C30.84,31.791,31.42,32.108,31.42,33.373ZM10.226,35.007A1.936,1.936,0,0,1,9.7,33.768c.026-.264.606-.5.975-.659,4.666-2.03,9.332-4.007,13.945-6.089,1-.448,1.661-.685,2.5.264a20.553,20.553,0,0,0,2.689,2.293c.844.685.738,1.265-.211,1.74q-6.959,3.4-13.892,6.8a11.719,11.719,0,0,1-1.213.474,7.388,7.388,0,0,1-1.134-.712C12.256,36.932,11.2,36.009,10.226,35.007Zm2.162,10.7c-.659-.369-.817-.791-.474-1.371.659-1.134,1.371-2.241,2.082-3.348a2.425,2.425,0,0,1,.659-.5,8.032,8.032,0,0,1,1.213.422l10.755,5.773c1.16.633,2.293,1.292,3.427,1.924.712.4.949.9.369,1.582-.87,1.028-1.713,2.109-2.689,3.058a1.435,1.435,0,0,1-1.344.185C21.719,50.9,17.08,48.267,12.388,45.71Zm19.085,16.5c0,1.134-.58,1.476-1.608.9-4.56-2.583-9.121-5.193-13.681-7.776a2.336,2.336,0,0,1-1.371-2.557,37.637,37.637,0,0,0,.026-4.27c2.372,1.318,4.376,2.372,6.353,3.48,1.793,1,3.559,2.082,5.4,2.979a1.744,1.744,0,0,0,1.582-.29,14.308,14.308,0,0,0,1.582-1.924,16.872,16.872,0,0,1,1.529-1.423,4.826,4.826,0,0,1,.29,1C31.525,55.648,31.5,58.917,31.473,62.212ZM28.23,46.29c-.343-.29-.685-.633-1.16-1.081,1.634-.923,3.005-1.713,4.429-2.478a1.32,1.32,0,0,1,1-.026c1.45.764,2.9,1.582,4.56,2.5-.527.448-.923.791-1.318,1.134C33.213,48.425,30.708,48.32,28.23,46.29Zm19.428,9.174c-3.98,2.188-7.935,4.429-11.889,6.643-.58.316-1.081.764-1.661,1.081-.712.369-1.5.4-1.5-.659-.079-3.506-.053-7.012-.079-10.518,0-.105.105-.211.343-.606A13.935,13.935,0,0,1,34.4,52.933c1.924,2.742,1.951,2.768,4.85,1.134q4.231-2.412,8.462-4.745a5.078,5.078,0,0,1,1.318-.29,10.04,10.04,0,0,1,.185,1.239,14.258,14.258,0,0,0,0,2.372A2.443,2.443,0,0,1,47.658,55.463Zm4.429-11.177c.448.738.132,1.134-.58,1.529-4.639,2.531-9.226,5.14-13.892,7.645a1.583,1.583,0,0,1-1.423-.29,28.454,28.454,0,0,1-2.5-2.847c-.606-.738-.527-1.292.4-1.766q6.366-3.361,12.732-6.775c.923-.5,1.819-1,2.794-1.555C50.505,41.677,51.322,42.968,52.087,44.286Zm1.951-9.437c-1.134,1.107-2.267,2.162-3.453,3.216a4.5,4.5,0,0,1-1.186.554c-.712-.4-1.344-.791-2-1.107-4.218-2.03-8.435-4.033-12.627-6.089a2.127,2.127,0,0,1-1.054-.975c-.079-.237.448-.738.791-1.028A26.578,26.578,0,0,1,37.3,27.046a1.89,1.89,0,0,1,1.582-.237c4.376,1.845,8.752,3.743,13.1,5.641.554.237,1.107.5,1.661.712C54.591,33.5,54.749,34.137,54.038,34.849Z" transform="translate(-7.3 -25.238)"/></svg>