<svg xmlns="http://www.w3.org/2000/svg" width="41.97" height="63.846" viewBox="0 0 41.97 63.846"><defs><style>.a{fill:#c4c9ce;}</style></defs><g transform="translate(-44.68 -16.383)"><path class="a" d="M94.964,68.609a2.311,2.311,0,0,0-.852-2.148,8.722,8.722,0,0,1-2.074-2.3h0c-.778-2.371-.037-4.815-.444-7.223-.889-.148-1.037.889-1.741.926a2.5,2.5,0,0,1,.7-1.074,2.573,2.573,0,0,1,.667-.444c.037-.407.111-.778.148-1.185a4.7,4.7,0,0,1-1.037,1.259,3.435,3.435,0,0,1-1.037.667c-1.148.926-2.519.778-3.852.7a3.16,3.16,0,0,1-2.408-2.334c-.259-.778-.741-1.3-1.593-1.185a.977.977,0,0,0-.593.259,1.691,1.691,0,0,0-.333,1.3c.074.37.185.407.333.889a3.2,3.2,0,0,1,.111,1.111c0,.37.037.963.074,1.7,0,.667-.074,1.37-.148,2.148s-.222,1.519-.333,2.185a11.427,11.427,0,0,1-1.111,1.852,13.318,13.318,0,0,0-.926,1.222A4.663,4.663,0,0,0,78,69.276c.074,5,.074,9.964,0,14.964,0,1.408.482,2.185,1.889,2.111,4.3-.222,8.593.407,12.927.185,1.593-.074,2.185-.667,2.148-2.222C94.927,79.091,94.964,73.869,94.964,68.609Z" transform="translate(-20.978 -23.847)"/><path class="a" d="M91.782,27.242a5.532,5.532,0,0,0,5.482-5.3A5.482,5.482,0,1,0,86.3,21.834,5.478,5.478,0,0,0,91.782,27.242Z" transform="translate(-26.204)"/><path class="a" d="M132.724,73.308c-4.111-4-8.149-8.075-12.223-12.112a10.35,10.35,0,0,0-.889-.7c-.482-.037-.593.148-.7.37-.519,1.111.222,5.408,1.111,6.3,2.667,2.667,5.371,5.3,8.075,7.927,2.185,2.148,2.148,2.111,4.519.037C133.317,74.456,133.613,74.16,132.724,73.308Z" transform="translate(-46.626 -27.768)"/><path class="a" d="M84.222,147.576a1.712,1.712,0,0,0-.519.519,3.544,3.544,0,0,0-.444,1.963,9.08,9.08,0,0,0,.037,1.7c.037.889.037,1.741.074,2.63a26.075,26.075,0,0,0,.185,5.223,3.265,3.265,0,0,0,1.111,2.334,2.362,2.362,0,0,0,1.185.37,2.137,2.137,0,0,0,1.222-.259,3.1,3.1,0,0,0,1.259-2.222c.37-1.815.074-2.482.074-4.926,0-3.185,0-4.778.037-5.149,0-.185-.074-.63-.222-1.556a.831.831,0,0,0-.3-.556.735.735,0,0,0-.519-.111c-.556,0-1.074-.074-1.63-.074C84.7,147.428,84.518,147.428,84.222,147.576Z" transform="translate(-24.274 -82.516)"/><path class="a" d="M57.389,56.119a19.945,19.945,0,0,0-.037-4.26c-.037-1.037-.444-1.667-1.63-1.111-.037.556-.148,1.111-.148,1.667V94.53c0,.741-.148,1.482.482,2.074,1.445.111,1.3-.926,1.3-1.852,0-8.741.037-17.483,0-26.187C57.315,60.49,57.315,56.453,57.389,56.119Z" transform="translate(-6.849 -21.506)"/><path class="a" d="M69.882,61.756c-.037-.333-.037-.7-.074-1.037-.037-1.037-.889-1.148-1.852-.333C66.4,62.608,64.1,64.127,62.4,66.2a3.945,3.945,0,0,0-1,2.815,10.465,10.465,0,0,0,.074,1.074c.037.407.111.778.185,1.185.111.7.519,1.3,1.445.815,2.074-2.222,4.148-4.445,6.26-6.667a3.887,3.887,0,0,0,.556-1.63A12.477,12.477,0,0,0,69.882,61.756Z" transform="translate(-10.527 -27.365)"/><path class="a" d="M53.058,179.2a63.057,63.057,0,0,0-7-.037c-.963.037-1.445.926-1.37,1.889.074,1.037.889,1.222,1.741,1.222h6.3c.852,0,1.667-.185,1.741-1.222A1.578,1.578,0,0,0,53.058,179.2Z" transform="translate(0 -102.438)"/><path class="a" d="M108.926,153.806v-5c0-1.222-.556-1.852-1.778-1.815-.63,0-1.222.037-1.852,0a1.921,1.921,0,0,0-2.3,2.185c.037,2.889,0,5.778,0,8.7a7.481,7.481,0,0,0,.667,2.852,2.671,2.671,0,0,0,2.259,1.7c1.074.148,1.7-.593,2.222-1.408a4.7,4.7,0,0,0,.778-2.815Zm-.444,4.667a4.557,4.557,0,0,1-.37,1.593c-.37,1-.963,1.778-2.148,1.7a2.079,2.079,0,0,1-2-2.074c-.148-1.889-.037-3.815-.037-5.741h-.148c0-1.556.037-3.074,0-4.63-.037-1.074.222-1.926,1.556-1.667,1.185.222,3.148-.963,3.185,1.556C108.519,152.288,108.519,155.4,108.482,158.473Z" transform="translate(-36.718 -82.227)"/><path class="a" d="M47.369,94.963a.955.955,0,0,0,.407-.37c.333-.482.111-1.111.222-2.074a8.639,8.639,0,0,1,.185-1,1.456,1.456,0,0,0-.148-1.37,1.064,1.064,0,0,0-.519-.3c-1.111-.222-1.778.889-2.3,1.778-.63,1.074-.111,1.852.63,2.593C46.257,94.7,46.7,95.3,47.369,94.963Z" transform="translate(-0.163 -46.237)"/><path class="a" d="M109.83,58.22c.7-.037.852-1.074,1.741-.926a19.732,19.732,0,0,1,.111,3.63,7.349,7.349,0,0,0,.37,3.593,4.623,4.623,0,0,0,.556.926,12.588,12.588,0,0,1-.556-5,22.678,22.678,0,0,1,.37-3.889c.111-.333.37-1.259-.037-1.593a.449.449,0,0,0-.482-.111c-.185.037-.3.222-.444.519-.148.259-.3.63-.482,1.037-.185.222-.333.407-.519.63-.074.074-.111.148-.185.222C109.756,57.368,109.608,57.7,109.83,58.22Z" transform="translate(-40.955 -24.199)"/><path class="a" d="M96.649,50.772c-.556-.037-1.111,0-1.63,0-2.667,0-2.778.148-2.3,2.667,2.148,1.926,3.074,2.037,5.815.7.519-.741,1.222-1.519.741-2.482C98.723,50.587,97.612,50.809,96.649,50.772Z" transform="translate(-30.108 -21.641)"/><path class="a" d="M106.556,148.674c-1.3-.259-1.556.593-1.556,1.667.037,1.556,0,3.074,0,4.63h.148c0,1.926-.111,3.815.037,5.741a2.079,2.079,0,0,0,2,2.074c1.185.074,1.778-.7,2.148-1.7a4.973,4.973,0,0,0,.37-1.593c.037-3.074.074-6.186,0-9.26C109.7,147.711,107.7,148.933,106.556,148.674Z" transform="translate(-37.977 -83.243)"/></g></svg>