<svg xmlns="http://www.w3.org/2000/svg" width="30" height="27.894" viewBox="0 0 30 27.894"><defs><style>.a,.c{fill:none;}.b{fill:#bfbfbf;}.c{stroke:#bfbfbf;stroke-linecap:round;stroke-linejoin:round;}</style></defs><g transform="translate(-11.079 -21.8)"><path class="a" d="M129,31c.07.018.123.018.193.035A.747.747,0,0,0,129,31Z" transform="translate(-97.85 -7.585)"/><path class="a" d="M134.529,81.935c-1.51-.018-3.019-.018-4.529-.035,1.51.018,3.019.018,4.529.035Z" transform="translate(-98.784 -49.55)"/><path class="a" d="M153,26.176c.123-.053.228-.123.351-.176h0C153.228,26.053,153.123,26.123,153,26.176Z" transform="translate(-117.942 -3.463)"/><path class="a" d="M68,107.918h0a3.382,3.382,0,0,1,.421-.018A3.382,3.382,0,0,0,68,107.918Z" transform="translate(-47.235 -70.986)"/><path class="a" d="M75.681,108c-.088,0-.193.018-.281.018C75.488,108.018,75.593,108,75.681,108Z" transform="translate(-53.374 -71.068)"/><path class="a" d="M130,29Z" transform="translate(-98.676 -5.936)"/><path class="a" d="M151.96,65.209a.584.584,0,0,0-.527-.158h0c-.14.456-.386.983.492.86A.972.972,0,0,0,151.96,65.209Z" transform="translate(-116.36 -35.649)"/><path class="a" d="M130.5,32.814c1.071,0,2.142,0,3.212.018.421,0,.667-.158.6-.632h-4.353C129.828,32.674,130.074,32.814,130.5,32.814Z" transform="translate(-98.713 -8.574)"/><path class="a" d="M156,29.1Z" transform="translate(-120.415 -6.019)"/><path class="a" d="M156,29.1Z" transform="translate(-120.415 -6.019)"/><path class="a" d="M130.416,58.82c1.246-.035,2.493-.035,3.722-.053a.968.968,0,0,0,0-.667H129.8C129.661,58.644,129.872,58.837,130.416,58.82Z" transform="translate(-98.581 -29.928)"/><path class="a" d="M134.371,42.1H130c0,.263.018.544.018.808,1.194.018,2.387,0,3.581.035.632.018.86-.246.772-.843Z" transform="translate(-98.78 -16.736)"/><path class="a" d="M137.176,100.1h0a.289.289,0,0,1-.176.018A.541.541,0,0,0,137.176,100.1Z" transform="translate(-104.488 -64.555)"/><path class="a" d="M38.9,69.1h0a11.594,11.594,0,0,0,2.914.123A13.466,13.466,0,0,1,38.9,69.1Z" transform="translate(-23.1 -38.997)"/><path class="a" d="M112.069,28.076a.441.441,0,0,0-.369-.176A.525.525,0,0,1,112.069,28.076Z" transform="translate(-83.497 -5.029)"/><path class="a" d="M108.5,71h0Z" transform="translate(-80.84 -40.563)"/><path class="a" d="M114.1,29.969V29.6h0Z" transform="translate(-85.482 -6.431)"/><path class="a" d="M51.1,38.113c.018-.035.053-.088.07-.123h0c-.053-1.6-.053-3.248-.035-4.915,0-.456.018-.913.035-1.352a3.789,3.789,0,0,0-1.475-.088c-3.774-.018-7.531-.018-11.305-.035a2.578,2.578,0,0,0-.509.088h0c-.105,2.159-.07,4.318-.018,6.478.053,0,.088.018.14.018h0c2.528-.018,5.056-.018,7.583-.035C47.429,38.13,49.255,38.113,51.1,38.113Z" transform="translate(-22.289 -8.08)"/><path class="a" d="M128.9,39.9h0a2,2,0,0,1,.193.193A2,2,0,0,1,128.9,39.9Z" transform="translate(-97.767 -14.923)"/><path class="a" d="M135.9,99.9a.326.326,0,0,0,.123.035A.447.447,0,0,1,135.9,99.9Z" transform="translate(-103.574 -64.39)"/><path class="a" d="M130.251,111.246c.386-.316.316-.772.351-1.211.088-.878-.3-1.791.176-2.651h.176c0-1.773,0-3.546-.018-5.3,0-.316.035-.667-.369-.79l-.158-.158h0a4.626,4.626,0,0,0-.492-.035c0,3.335-.018,6.671-.018,10.006h0c.035.035.035.07.053.123a1.7,1.7,0,0,1,.3.018Z" transform="translate(-98.615 -65.379)"/><path class="b" d="M41.079,37.31h0c-.085-.4-.392-.351-.664-.351-1.464,0-2.911.018-4.375.018-.1,0-.2-.018-.306-.018-.579-.509-1.277-.334-1.941-.316-.885.035-1.822-.3-2.639.316H22.642c0-.176-.017-.351-.017-.544h0c.17-.281.409-.562.017-.843h0a.9.9,0,0,1-.187-.176h0c-.017-.351-.187-.755.46-.737,1.771.053,3.541.018,5.312.053a1.055,1.055,0,0,0,.885-.386h0c.034-.053.1-.088.1-.14.017-2.51.034-5.021.034-7.513h0a1.179,1.179,0,0,0-1.294-.772H16.309c-1.038,0-1.481.474-1.5,1.58-.017,1.984-.017,3.967,0,5.968.017,1.106.306,1.4,1.379,1.4,1.5.018,3,0,4.511,0,.392,0,.834-.07.919.527.119.3-.545.369-.2.72a.526.526,0,0,0,.034.158,1.173,1.173,0,0,1,0,.685h0c-3.132,0-6.248,0-9.38-.018a1.356,1.356,0,0,0-.97.211c-.068.246.034.369.289.369.085.07.187.211.272.193,1.277-.193,1.158.667,1.158,1.51q-.026,6.478-.017,12.955c0,.386-.085.86.511.913h.068l.068-.018c.289-.316.2-.7.2-1.088.017-4.757.017-9.532.017-14.289h0l-.017-.018c.868-.053,1.753-.14,2.622-.123,4.614.07,9.227-.105,13.858.088,2.639.105,5.277,0,7.916-.018,1.26,0,1.311.053,1.311,1.317v9.83c0,1.264,0,1.264-1.209,1.369-2.315-.14-4.614-.07-6.912-.053v.386h6.912c1.158.123,1.192.176,1.175,1.4a4.836,4.836,0,0,0,.017.7c.034.176,0,.439.272.474.272.018.289-.246.358-.421a1.231,1.231,0,0,0,.068-.509c-.017-4.494-.017-8.97-.034-13.464,0-.65.119-1.088.885-1.018C41.079,37.7,41.079,37.644,41.079,37.31ZM15.815,33.483h0a10.909,10.909,0,0,0,2.826.123A12.668,12.668,0,0,1,15.815,33.483Zm0,0h0c-.051,0-.085-.018-.136-.018-.051-2.159-.085-4.318.017-6.478h0a2.431,2.431,0,0,1,.494-.088c3.66,0,7.3.018,10.964.035a3.567,3.567,0,0,1,1.43.088c-.017.439-.017.9-.034,1.352-.017,1.685-.017,3.318.034,4.915h0c-.017.035-.051.088-.068.123-1.788.018-3.558.018-5.346.035C20.718,33.466,18.267,33.466,15.815,33.483Zm12.07.334h0Zm.732-7.268v0Zm-.051-.123a.423.423,0,0,0-.358-.176A.5.5,0,0,1,28.566,26.427Z" transform="translate(0 -3.38)"/><path class="b" d="M30.662,97.548a3.421,3.421,0,0,0,.4-.105c.211-.018.421-.053.614-.07,1.194-.018,2.37-.018,3.564-.035h.737c.07,0,.123.018.421.053.263.035.474.07.614.088.123,0,.544,0,1.123-.018a5.223,5.223,0,0,0,1.562-.14h.018a41.614,41.614,0,0,0,5.337.053.458.458,0,0,0,.474-.6,1.413,1.413,0,0,0-.843-.176c-4.634,0-9.286.018-13.921.018-.4-.07-.492.281-.667.509C30.258,97.355,30.4,97.548,30.662,97.548Z" transform="translate(-15.682 -61.669)"/><path class="b" d="M128.183,108.371c1.843,0,3.686-.018,5.53-.035a1.987,1.987,0,0,0,1.194-.14.535.535,0,0,0,.14-.474V98.049a.858.858,0,0,0-.158-.579c-.263-.246-.6-.176-.913-.193a51.2,51.2,0,0,1-5.916-.123.619.619,0,0,0-.737.456h0a2.626,2.626,0,0,0-.105.509c-.018,3.16-.018,6.32-.018,9.462a2.374,2.374,0,0,0,.158.579C127.586,108.423,127.885,108.371,128.183,108.371Zm.913-10.708h0a.289.289,0,0,1-.176.018A.541.541,0,0,0,129.1,97.663Zm-.246,0c-.035-.018-.088-.018-.123-.035A.446.446,0,0,0,128.85,97.663Zm-1.159,10.164h0c0-3.335.018-6.671.018-10.006a4.626,4.626,0,0,0,.492.035h0l.158.158c.421.123.369.474.369.79,0,1.773.018,3.546.018,5.3h-.176c-.474.86-.088,1.773-.176,2.651-.053.439.035.878-.351,1.211h0a1.729,1.729,0,0,0-.3-.035Z" transform="translate(-96.671 -62.117)"/><path class="b" d="M126.992,32.7a.331.331,0,0,1,.14.035c.456.439,1,.193,1.492.158a10.069,10.069,0,0,0,3.248-.176l-.018-.018c.456-.158.351-.562.351-.9.018-2.071.053-4.143,0-6.214a10.979,10.979,0,0,0-.176-3.388v-.193a15.484,15.484,0,0,0-5.091,0h0V22.2h0c-.018.053-.018.088-.035.14h0a3.8,3.8,0,0,0-.14.755c-.018,2.984,0,5.968,0,8.953C126.8,32.3,126.781,32.526,126.992,32.7Zm.334-9.637Zm-.193,1.913h0a2,2,0,0,1,.193.193,2,2,0,0,1-.193-.193Zm.211-1.369H131.7c.088.474-.176.632-.6.632-1.071,0-2.142-.018-3.212-.018-.421.018-.667-.123-.544-.614Zm4.547-.527Zm0,0Zm-.965,3.125c-1.194-.035-2.387-.018-3.581-.035,0-.263-.018-.544-.018-.807H131.7C131.784,25.96,131.556,26.224,130.924,26.206Zm-3.6,1.966h4.336a.968.968,0,0,1,0,.667c-1.246.018-2.493.018-3.722.053C127.4,28.91,127.185,28.716,127.325,28.172Zm3.9,1.229h0a.6.6,0,0,1,.527.158,1.068,1.068,0,0,1-.018.7C130.836,30.384,131.082,29.857,131.222,29.4Zm.14-6.688c.123-.053.228-.123.351-.176h0C131.591,22.59,131.485,22.66,131.363,22.713Zm-4.02.72c-.07-.018-.123-.018-.193-.035h0A.746.746,0,0,0,127.343,23.433Zm4.511,8.953h0c-1.51-.018-3.019-.018-4.529-.035C128.835,32.368,130.344,32.368,131.854,32.385Z" transform="translate(-96.116 0)"/><line class="c" transform="translate(30.984 22.011)"/><path class="b" d="M44.566,103.462h0c.123-.228-.018-.334-.211-.386h-.14c-.035,0-.088-.018-.14-.018h0c0-.123-2.9-.14-8.654-.035-1.036.018-2.089,0-3.177-.018-1.018-.018-2.036-.053-3-.105a1.191,1.191,0,0,0,.158,1.826h0a.692.692,0,0,0,.246.088c4.775,0,9.567-.018,14.342,0,.7,0,.755-.351.772-.843a.933.933,0,0,0-.211-.439C44.549,103.514,44.566,103.5,44.566,103.462Zm-8.812.334h0a3.382,3.382,0,0,1,.421-.018A3.382,3.382,0,0,0,35.754,103.8Zm1.3.018a1.51,1.51,0,0,0,.281-.018C37.246,103.8,37.141,103.813,37.053,103.813Z" transform="translate(-14.683 -66.863)"/></g></svg>