<svg xmlns="http://www.w3.org/2000/svg" width="31.888" height="29.62" viewBox="0 0 31.888 29.62"><defs><style>.a{fill:#bfbfbf;}</style></defs><g transform="translate(-17.967 -24.299)"><path class="a" d="M44.955,52.344c-1,.309-1.872.56-2.76.83a3.288,3.288,0,0,1-1,.29,2.933,2.933,0,0,1-.869-.405c.174-.232.309-.6.54-.695a23.848,23.848,0,0,1,3.011-.984,5.616,5.616,0,0,0,3.281-2.027,10.866,10.866,0,0,1,1.679-1.718c.193-.174.618-.1.926-.135.019.328.174.714.039.965a5.208,5.208,0,0,1-.849,1c.753,1.274.714,1.486-.791,1.834a2.714,2.714,0,0,0-2.084,1.969c-1.6,4.343-3.262,8.647-4.922,12.97-.1.27-.174.54-.309.946h1.2c1.023,0,1.621.483,1.679,1.332.058.869-.444,1.448-1.467,1.563-1.274.154-2.548.27-3.821.405-4.188.444-8.357.888-12.545,1.312-2.007.212-4.015.425-6.041.6-1.139.1-1.814-.386-1.872-1.312-.077-.965.54-1.486,1.737-1.621q6.224-.637,12.449-1.312c2.1-.212,4.227-.386,6.331-.656A1.582,1.582,0,0,0,39.57,66.8c1.795-4.536,3.513-9.11,5.25-13.665A2.822,2.822,0,0,0,44.955,52.344Z" transform="translate(0 -18.723)"/><path class="a" d="M46.7,56.574a19.585,19.585,0,0,0-1.081,2.972c-.077.328.405.926.772,1.158a20.217,20.217,0,0,0,2.451,1.119,2.9,2.9,0,0,1,1.814,2.316c.29,1.7.656,3.4,1,5.1.154.733.039,1.235-.849,1.39-.733.135-1.1-.058-1.235-.791-.212-1.1-.463-2.2-.637-3.3a2.467,2.467,0,0,0-1.891-2.181c-.772-.212-1.563-.386-2.316-.618a13.821,13.821,0,0,1-2.162-.811c-.965-.5-1.119-1.062-.695-2.046l2.2-4.922c.463-1.042.309-1.216-.772-1.312a1.667,1.667,0,0,0-1.853,1.023c-.367.753-.869,1.428-1.293,2.142-.29.483-.618.483-1.042.212-.405-.251-.811-.483-.463-1.062.791-1.37,1.544-2.741,2.393-4.053a1.713,1.713,0,0,1,1.235-.54c1.409-.077,2.837-.058,4.246-.039a1.806,1.806,0,0,1,1.7,1.062c.27.579.521,1.158.753,1.756.405,1.081.926,1.332,2.007.869.656-.27,1.293-.56,1.93-.869.579-.29,1.1-.425,1.467.27.367.714-.135.984-.637,1.255-1.37.714-2.741,1.409-4.092,2.162a.9.9,0,0,1-1.39-.251C47.8,57.983,47.335,57.385,46.7,56.574Z" transform="translate(-16.585 -22.606)"/><path class="a" d="M25.393,114c.386.27.656.483.965.656s.618.328,1.081.56a32.28,32.28,0,0,1-1.6,3.03,1.361,1.361,0,0,1-1.274.154c-1.505-.714-2.953-1.563-4.42-2.355-.463-.251-.656-.6-.328-1.1s.6-1.158,1.39-.772c.656.328,1.293.714,1.949,1.042,1.274.656,1.525.54,2.046-.811A3.434,3.434,0,0,1,25.393,114Z" transform="translate(-1.36 -72.389)"/><path class="a" d="M83.166,24.3a2.381,2.381,0,0,1,2.316,2.355,2.437,2.437,0,0,1-2.49,2.316,2.4,2.4,0,0,1-2.3-2.393A2.341,2.341,0,0,1,83.166,24.3Z" transform="translate(-50.621 0)"/><path class="a" d="M105.916,172.676c-1.216,0-2.451.039-3.667-.019a1.055,1.055,0,0,1-.772-.54c-.154-.6.328-.637.791-.637,2.509,0,5.018-.019,7.527.019.251,0,.5.386.753.579-.251.193-.5.56-.772.579C108.483,172.715,107.209,172.676,105.916,172.676Z" transform="translate(-67.369 -118.771)"/></g></svg>