<svg xmlns="http://www.w3.org/2000/svg" width="50.93" height="46.984" viewBox="0 0 50.93 46.984"><defs><style>.a{fill:#c4c9ce;}</style></defs><g transform="translate(-10.561 -36.916)"><g transform="translate(10.561 36.917)"><path class="a" d="M44.712,94.113a6.077,6.077,0,0,1-2.044.6c-8.738-.336-17.448-.373-26.046,2.126a35.412,35.412,0,0,0-4.033,1.753c-.028.261-.028.559-.056.82a32.656,32.656,0,0,0,4.2,1.865A67.543,67.543,0,0,0,36.2,103.548a17.555,17.555,0,0,0,2.8,0,5.63,5.63,0,0,0,1.68-.858c-.056-.149-.112-.261-.168-.41-1.4-.336-2.829-.559-4.229-1.007a2.632,2.632,0,0,1-1.624-3.17,2.051,2.051,0,0,1,2.549-1.79c1.9.224,3.809.3,5.713.448a2.772,2.772,0,0,0,2.6-1.716,31.057,31.057,0,0,1,2.129-2.8c-2.3-.485-4.257-1.007-6.246-1.343-1.568-.261-3.165-.224-4.761-.373-1.344-.112-2.1-1.119-1.988-2.685.112-1.678.9-2.387,2.1-2.35,3.025.112,5.321.3,5.321.3.476.075,1.456.224,2.773.448a13.766,13.766,0,0,1,2.072.522c1.9.634,2.353,1.082,4.369,1.939a6.186,6.186,0,0,0,2.241.634,4.47,4.47,0,0,1,3.893,2.611,7.248,7.248,0,0,1,.84,3.729c2.493.709,3.221,1.79,3.221,4.55,0,2.35.028,4.736-.084,7.086-.2,3.767-2.437,6.638-5.265,6.974a12.67,12.67,0,0,1-1.68.075H17.63c-4.817,0-7.03-2.946-7.03-9.324,0-1.566.056-3.1-.028-4.662-.112-2.275.644-3.841,2.185-4.438a45.1,45.1,0,0,1,8.514-2.76c11.007-1.827,9.606-1.343,12.827-1.156A43.432,43.432,0,0,1,44.712,94.113Z" transform="translate(-10.561 -67.379)"/><path class="a" d="M153.177,54.7c3.025,0,5.349,3.021,5.377,7.011.028,4.028-2.381,7.272-5.405,7.235-2.913-.037-5.349-3.319-5.349-7.161C147.8,57.87,150.181,54.7,153.177,54.7Z" transform="translate(-109.364 -48.068)"/><path class="a" d="M69.783,47.315c.084-1.193-.644-1.268-1.26-3.319-.672-2.2-.756-5.258.336-6.489.448-.485,1.148-.783,1.456-.448s.14,1.305.056,1.79c-.168.932-.5,1.156-.532,1.753a5.763,5.763,0,0,0,.728,2.872c1.624,3.282.448,9.1-1.064,10.032-.084.075-.756.448-1.092.075a1.726,1.726,0,0,1-.28-.858,3.115,3.115,0,0,1,.028-.932C68.27,50.485,69.643,48.882,69.783,47.315Z" transform="translate(-51.932 -36.917)"/><path class="a" d="M39.4,51.907a1.554,1.554,0,0,1-.224.783,3.193,3.193,0,0,0-.644,1.716,7.481,7.481,0,0,0,.784,3.133c1.428,3.319.532,8.652-1.12,9.846-.308.224-.98.559-1.316.149a2.1,2.1,0,0,1-.168-1.6A3.023,3.023,0,0,1,37.3,64.7a6.946,6.946,0,0,0,.028-6.713c-1.316-2.461-1.036-5.37.448-6.825.056-.037.616-.522,1.12-.224A1.481,1.481,0,0,1,39.4,51.907Z" transform="translate(-29.226 -45.648)"/><path class="a" d="M97.664,47.749a9.613,9.613,0,0,1-1.4,6.154l-.224.224c-.28.224-.868.559-1.176.261-.392-.373-.224-1.454-.084-1.977a4.44,4.44,0,0,1,.588-1.231,6.617,6.617,0,0,0-.056-6.377c-1.232-2.35-1.176-4.774.112-6.415a1,1,0,0,1,.308-.261c.252-.149.784-.373,1.064-.075.308.336.2,1.156.14,1.716-.112.858-.392,1.007-.42,1.641a5.315,5.315,0,0,0,.448,2.163A15.017,15.017,0,0,1,97.664,47.749Z" transform="translate(-70.935 -37.537)"/></g><path class="a" d="M134.1,51.4" transform="translate(-88.94 -9.082)"/></g></svg>