<svg xmlns="http://www.w3.org/2000/svg" width="30" height="31.249" viewBox="0 0 30 31.249"><defs><style>.a{fill:#bfbfbf;}</style></defs><g transform="translate(-14.479 -12.422)"><path class="a" d="M93.618,26.883a15.274,15.274,0,0,0-4.463-.953A1.766,1.766,0,0,1,87.761,24.7a1.775,1.775,0,0,0-1.217-1.129,2.781,2.781,0,0,1-1.605-1.552,2.019,2.019,0,0,1,.829-2.54A1.085,1.085,0,0,0,86.28,18.1,2.828,2.828,0,0,1,87.3,15.029a2.581,2.581,0,0,1,2.964-.688.793.793,0,0,0,.512.088c.864-.494,1.976-.37,2.717-1.27a2.806,2.806,0,0,1,3.828.035,5.693,5.693,0,0,0,1.905,1.358,1.855,1.855,0,0,1,1.2,2.046c-.123.829.512,1.252.9,1.817a1.76,1.76,0,0,0,.476.388,3.053,3.053,0,0,1,1.147,3.475c-.141.388-.617.653-.97.953a1.254,1.254,0,0,0-.529.759,3.433,3.433,0,0,1-4.781,2.4,1.356,1.356,0,0,0-1.888.176C94.5,26.883,94.041,26.831,93.618,26.883Z" transform="translate(-58.647)"/><path class="a" d="M33.446,122.4a1.228,1.228,0,0,0-1.252-1.305,1.352,1.352,0,0,0-1.376,1.305,11.062,11.062,0,0,0,.053,1.323c.035.476-.141.811-.67.847a.681.681,0,0,1-.794-.723c-.018-.441,0-.882-.018-1.323a1.408,1.408,0,0,0-1.464-1.429,1.484,1.484,0,0,0-1.305,1.605c.018.353.088.706.088,1.058a.715.715,0,0,1-.741.811.755.755,0,0,1-.811-.759c-.018-.406,0-.829-.018-1.235-.018-.9-.494-1.464-1.27-1.447s-1.217.564-1.235,1.482v1.235c0,.494-.229.776-.759.759-.512-.018-.723-.318-.723-.811a9.489,9.489,0,0,0,.035-1.411,1.557,1.557,0,0,0-1.482-1.27,1.45,1.45,0,0,0-1.305,1.411c-.018.388,0,.759.018,1.147.035.494-.141.847-.635.882-.529.035-.811-.265-.794-.811a14.174,14.174,0,0,0-.018-1.5,1.227,1.227,0,0,0-1.341-1.111c-.688.088-1.2.282-1.147,1.2.071,1.605.018,3.228.018,4.851s.018,3.228-.018,4.851c-.018.741.123,1.147,1.006,1.129,1.429-.035,1.464,0,1.5-1.076.018-.476.035-.9.67-.9.653,0,.811.441.723.953-.123.864.247,1.111,1.041,1.006a2.99,2.99,0,0,1,.794,0c.776.088,1.076-.265,1.006-1.023-.035-.494.018-.97.706-.935.67.035.741.476.635.988-.159.741.141,1.041.882.97a3.146,3.146,0,0,1,.706,0c.741.088,1.111-.141.988-.97-.088-.564.071-1.006.776-1.006s.847.459.776,1.006c-.123.829.247,1.058.988.97a1.844,1.844,0,0,1,.441,0c.864.106,1.447-.035,1.252-1.129-.088-.512.194-.829.759-.829.582.018.688.406.635.847-.106.935.335,1.217,1.182,1.111a4.908,4.908,0,0,1,.882,0c.459.018.6-.212.6-.653C33.446,129.1,33.464,125.75,33.446,122.4ZM17.8,129.719c-.494.018-.776-.194-.759-.723.018-.759,0-1.517,0-2.276,0-.476.212-.706.688-.688s.776.176.741.741c-.018.37,0,.759,0,1.129h0a10.24,10.24,0,0,0,0,1.041C18.557,129.49,18.293,129.684,17.8,129.719ZM22.668,129c0,.459-.229.688-.706.706-.494.018-.688-.229-.688-.706,0-.794-.018-1.57-.035-2.364a.52.52,0,0,1,.564-.617c.406-.018.794.035.847.529.035.441,0,.864,0,1.305h.018Zm3.281.723c-.547,0-.776-.265-.759-.829.035-.723.018-1.447,0-2.187-.018-.494.265-.67.706-.688.423-.018.776.106.811.6.018.441,0,.882,0,1.305h.018v.97C26.743,129.419,26.513,129.719,25.949,129.719Zm4.851-1.782h0c0,.388,0,.759-.018,1.147-.018.441-.282.617-.706.617a.572.572,0,0,1-.653-.564c-.018-.847-.035-1.711,0-2.558.018-.441.37-.565.759-.547a.532.532,0,0,1,.6.6C30.8,127.056,30.8,127.5,30.8,127.938Z" transform="translate(0 -89.5)"/><path class="a" d="M126.517,102.507c-.159-1.676.247-3.334.194-5.01a10.6,10.6,0,0,0-.335-2.346c-.088-.3-.3-.617,0-.9.265-.247.617-.159.935-.106a.887.887,0,0,1,.653.423c.6.935.864.564,1.164-.212.159-.423.388-1.023,1.076-.794.706.265.564.847.441,1.411a17.271,17.271,0,0,0,.247,8.432,5.294,5.294,0,0,0,.741,1.394c.318.494.123.97-.459.882a15.976,15.976,0,0,0-3.316.229c-1.076.053-1.305-.176-1.323-1.235v-1.147C126.535,103.213,126.517,102.86,126.517,102.507Z" transform="translate(-92.631 -66.786)"/></g></svg>