<svg xmlns="http://www.w3.org/2000/svg" width="32.243" height="35.635" viewBox="0 0 32.243 35.635"><defs><style>.a{fill:#c4c9ce;}</style></defs><g transform="translate(155.1 -397.199)"><path class="a" d="M-122.911,460.442c.042-6.747.021-13.494.021-20.241v-1.086l-.313-.188c-.292.251-.689.439-.877.752a2.668,2.668,0,0,1-2.507,1.483c-7.938-.042-15.854-.021-23.792-.021a3.476,3.476,0,0,1-3.133-2.026c-.125-.23-.23-.48-.376-.815a2.383,2.383,0,0,0-1.191,2.3v20.554c0,1.441-.23,2.945.836,4.2h30.434C-122.493,463.826-122.932,462.092-122.911,460.442Zm-16.021,2.757a9.5,9.5,0,0,1-9.588-9.859,9.518,9.518,0,0,1,9.671-9.483,9.592,9.592,0,0,1,9.546,9.818A9.57,9.57,0,0,1-138.932,463.2Z" transform="translate(0 -32.515)"/><path class="a" d="M-148.993,404.281c.627-.042,1.232-.188,1.838-.188,7.039-.021,14.058-.042,21.1,0,2.068.021,4.136.188,6.2.313.648.042.71-.251.585-.731-.606-2.235-.689-4.679-2.507-6.475h-25.86c-.5,1.086-1.128,2.172-1.546,3.342-.313.856-.272,1.859-.585,2.715C-150.1,404.156-149.724,404.3-148.993,404.281Zm24.5-5.347a2.06,2.06,0,0,1,1.755,1.755,2.222,2.222,0,0,1-1.776,1.859,1.79,1.79,0,0,1-1.629-1.817A1.8,1.8,0,0,1-124.491,398.934Zm-5.619,0a1.989,1.989,0,0,1,1.755,1.88,2.178,2.178,0,0,1-1.775,1.734,1.856,1.856,0,0,1-1.671-1.817A1.871,1.871,0,0,1-130.11,398.934Zm-4.637,3.927a.852.852,0,0,1-.46-.021,5.023,5.023,0,0,1-1.17-.021,3.257,3.257,0,0,1-.731-.5c.23-.209.439-.543.71-.585a5.37,5.37,0,0,1,1.734-.042c.272.042.48.46.71.689A2.882,2.882,0,0,1-134.747,402.861Zm-1.316-3.76a2.251,2.251,0,0,1,1.232.021,3.175,3.175,0,0,1,.877.648,5.712,5.712,0,0,1-.9.543.664.664,0,0,1-.292.042c-.1,0-.209-.021-.313-.021-.146,0-.313.021-.48.021-.042,0-.1-.021-.146-.021-.355-.125-.668-.313-1-.46A3.314,3.314,0,0,1-136.063,399.1Z" transform="translate(-4.122)"/><path class="a" d="M-140.114,436.9c-.334,0-.648.063-1.086.1a2.067,2.067,0,0,0,2.151,1.608c7.666,0,15.311,0,22.977-.021a1.665,1.665,0,0,0,.982-.188,7.521,7.521,0,0,0,.9-1.086,4.3,4.3,0,0,0-1.17-.4Q-127.737,436.89-140.114,436.9Z" transform="translate(-10.996 -31.407)"/><path class="a" d="M-107.368,473.5a7.769,7.769,0,0,0-7.833,8.1,7.855,7.855,0,0,0,7.75,7.75A7.963,7.963,0,0,0-99.41,481.1,7.821,7.821,0,0,0-107.368,473.5Zm3.8,3.843a1.583,1.583,0,0,1,.9.9c.063.23-.439.585-.877,1.107-.376-.585-.773-.94-.794-1.316C-104.36,477.824-103.734,477.28-103.567,477.343Zm-3.008-2.235c.376.564.815.94.752,1.191-.084.355-.564.606-.877.877-.272-.334-.731-.627-.773-.982C-107.494,475.944-107.013,475.609-106.575,475.108Zm-1.107,12.094a5.812,5.812,0,0,1-5.431-5.6c0-1.024.543-1.671,1.734-1.984a13.271,13.271,0,0,1,1.608-.209,3.685,3.685,0,0,1,1.358.251c.752.418,1.191.146,1.692-.376.251-.251.836-.5,1-.376a2.611,2.611,0,0,1,.71,1.128c.146.334.1,1,.251,1.044a3.242,3.242,0,0,0,1.483-.063,9.587,9.587,0,0,0,1.441-.606c.042.564.1,1.128.1,1.692C-101.687,485.093-104.945,487.349-107.682,487.2Z" transform="translate(-31.564 -60.362)"/></g></svg>