<svg xmlns="http://www.w3.org/2000/svg" width="45.158" height="51.545" viewBox="0 0 45.158 51.545"><defs><style>.a{fill:#c4c9ce;}</style></defs><g transform="translate(-24.744 -13.879)"><path class="a" d="M62.437,14.506a41.443,41.443,0,0,1,5.585-.591,27.662,27.662,0,0,1,6.856.473,11.127,11.127,0,0,1,1.714.414c2.955,1.064,7.034,4.64,5.94,8.1-1.064,3.369-1.921,6.8-2.9,10.2-.414,1.389-.236,2.926-1.241,4.2a2.508,2.508,0,0,1-2.069,1.153c-4.522,0-9.073-.03-13.594,0a2.781,2.781,0,0,1-2.808-2.187c-1.478-4.788-2.689-9.664-3.871-14.54-.207-.857,1.241-5.349,4.728-6.8A7.018,7.018,0,0,1,62.437,14.506Z" transform="translate(-22.044 0)"/><path class="a" d="M75.914,106.619H57.621c-1.064,0-2.187-.03-2.66-1.123a4.507,4.507,0,0,1,.059-3.99,2.15,2.15,0,0,1,2.187-.916c7.27.207,14.54.148,21.839.03a3.2,3.2,0,0,1,3.1,3.1c.089,1.921-.887,2.9-2.837,2.9C78.16,106.649,77.037,106.619,75.914,106.619Z" transform="translate(-20.98 -61.083)"/><path class="a" d="M73.082,138.45a2.527,2.527,0,0,0-.03.5c-.118,1.685.207,2.039,1.891,2.276,2.66.384,5.231.946,7.211,2.985.03.03.089.059.118.089a1.5,1.5,0,0,1,.532,1.951c-.532.768-1.33.118-1.773-.3-1.891-1.744-4.226-2.128-6.649-2.394-.946-.089-1.359.236-1.359,1.212s.148,1.537-1.566,1.478c-1.685-.059-1.566-.621-1.655-1.6-.059-.8-.443-1.182-1.241-1.123-2.512.177-4.965.443-6.974,2.246-.621.532-1.625,1.478-2.423.473-.739-.946.207-1.685.975-2.276A13.619,13.619,0,0,1,68,141.169c1.359-.089,1.8-.65,1.773-1.921-.03-.975.03-1.95.03-2.926-.03-1.093.68-1.123,1.478-1.123.857,0,1.744-.059,1.832,1.153C73.111,136.883,73.082,137.474,73.082,138.45Z" transform="translate(-24.059 -85.466)"/><path class="a" d="M28.9,82.222c.059-.916.118-1.862.207-2.778.118-1.123-.3-1.862-1.478-1.478-1.153.384-1.744-.68-2.719-.8-.443-.059.118-1.537.414-1.98,1.064-1.537,2.542-.562,3.812-.768,1.093-.177,2.276,1.212,2.216,2.66-.089,2.069.355,4.108.207,6.177-.059,1.034.03,2.542-1.359,2.542-1.389-.03-1.271-1.478-1.271-2.542V82.222Z" transform="translate(0 -42.567)"/><path class="a" d="M157.223,82.192c0,.887.03,1.773,0,2.66a1.424,1.424,0,0,1-1.33,1.507c-.827.059-1.093-.709-1.093-1.3,0-2.778.03-5.585.266-8.363.089-1.123,1.064-1.773,2.335-1.8a18.259,18.259,0,0,1,3.783.384c.325.059.236.266.207.384-.03.709.443,1.655-.236,2.039a3.145,3.145,0,0,1-2.571.709c-.975-.3-1.359.3-1.389,1.182s0,1.773,0,2.63C157.164,82.192,157.194,82.192,157.223,82.192Z" transform="translate(-91.621 -42.98)"/><path class="a" d="M92.083,124.069c.8,0,1.566-.03,2.364,0,.562.03,1.419-.118,1.448.621a1.485,1.485,0,0,1-1.3,1.537c-1.655,0-3.339,0-4.994.03a1.5,1.5,0,0,1-1.3-1.566c.03-.8.887-.591,1.419-.621C90.487,124.039,91.285,124.069,92.083,124.069Z" transform="translate(-44.774 -77.616)"/><path class="a" d="M54.516,179.682c-1.448.325-1.773-.887-1.832-1.714a1.673,1.673,0,0,1,1.773-1.773c.916-.059,2.128,1.064,1.921,1.862C56.141,178.943,55.934,180.1,54.516,179.682Z" transform="translate(-19.678 -114.345)"/><path class="a" d="M96.771,179.746c-1.448.3-1.773-.8-1.773-1.744-.03-1.064.857-1.625,1.891-1.714.857-.089,2.01,1.034,1.8,1.773C98.426,178.978,98.16,180.1,96.771,179.746Z" transform="translate(-49.492 -114.409)"/><path class="a" d="M134.423,179.706c-1.389.325-1.566-.8-1.773-1.625-.207-.8,1.153-1.98,2.069-1.891a1.717,1.717,0,0,1,1.6,1.95C136.226,178.967,135.723,180,134.423,179.706Z" transform="translate(-76.002 -114.339)"/></g></svg>