<svg xmlns="http://www.w3.org/2000/svg" width="32.11" height="19.181" viewBox="0 0 32.11 19.181"><defs><style>.a{fill:#bfbfbf;}</style></defs><g transform="translate(-5.582 -44.469)"><path class="a" d="M63.793,56.506c-.959.135-1.6-.623-2.389-.993a6.318,6.318,0,0,0-6.664.5,2.989,2.989,0,0,1-3.248.017c-.623-.421-.118-.656.168-.858,1.38-.909,2.777-1.8,4.156-2.692.774-.5,1.565-.993,2.339-1.481.387-.252.4-.5.017-.757a4.912,4.912,0,0,1-.471-.353c-1.565-1.3-1.565-1.3-3.349-.32-.606.337-1.228.673-1.851.993-.875.454-1.531.236-2.2-.724-.471-.673-.421-1.161.337-1.817A28.613,28.613,0,0,1,54.656,45.3c.454-.269.724-.774,1.38-.825a2.713,2.713,0,0,1,2.07.808c1.868,1.6,3.938,2.962,5.772,4.594,1.01.909,1.43,2.188,2.221,3.231.286.387.522.791.774,1.195.438.673.337.976-.4,1.228C65.594,55.849,64.87,56.59,63.793,56.506Z" transform="translate(-36.939)"/><path class="a" d="M11.651,110.409a4.9,4.9,0,0,1,2.709.74,3.767,3.767,0,0,0,4.173-.084,5.414,5.414,0,0,1,5.89-.168c.37.2.74.387,1.127.572a2.956,2.956,0,0,0,2.894-.067c2.356-1.329,4.644-1.481,6.9.269a2.6,2.6,0,0,0,1.8.606c.5-.034.673.236.69.724,0,.471-.185.589-.623.673a5.206,5.206,0,0,1-3.13-.724,4.136,4.136,0,0,0-3.769.067,6.677,6.677,0,0,1-3.618,1.144,5.3,5.3,0,0,1-2.861-.825,3.485,3.485,0,0,0-4.089-.084,5.471,5.471,0,0,1-6.243-.05,4.039,4.039,0,0,0-4.274-.185,5.774,5.774,0,0,1-2.406.707c-.471.017-.976.05-1.06-.656-.067-.673.3-.774.858-.841a4.4,4.4,0,0,0,1.885-.875A5,5,0,0,1,11.651,110.409Z" transform="translate(-0.143 -54.593)"/><path class="a" d="M10.852,135.23a5.123,5.123,0,0,1,3.5.757,3.587,3.587,0,0,0,3.971-.1,5.584,5.584,0,0,1,6.512.067,3.609,3.609,0,0,0,3.7.084,5.733,5.733,0,0,1,6.462.236,5.135,5.135,0,0,0,2.12.724c.5.1.538.353.538.757,0,.471-.236.623-.673.673a4.9,4.9,0,0,1-2.911-.656,4.152,4.152,0,0,0-4.594.32,3.653,3.653,0,0,1-2.305.724,7.2,7.2,0,0,1-4.039-.942c-1.464-.909-3.046-.387-4.375.589a1.69,1.69,0,0,1-1.06.337c-.252,0-.5-.017-.757,0a5.432,5.432,0,0,1-3.9-.993,3.748,3.748,0,0,0-3.988-.084,4.818,4.818,0,0,1-2.726.69c-.387-.034-.724-.084-.74-.589-.017-.454.017-.892.572-.926a6.109,6.109,0,0,0,2.81-1.212A3.15,3.15,0,0,1,10.852,135.23Z" transform="translate(0 -75.19)"/><path class="a" d="M149.986,63.657a3.9,3.9,0,0,1-3.786-3.921,3.828,3.828,0,0,1,7.656-.034A3.955,3.955,0,0,1,149.986,63.657Z" transform="translate(-116.956 -9.507)"/></g></svg>