<svg xmlns="http://www.w3.org/2000/svg" width="95.884" height="57.693" viewBox="0 0 95.884 57.693"><defs><style>.a{fill:#c4c9ce;}</style></defs><g transform="translate(-7.281 -44.795)"><path class="a" d="M98.637,44.8h-46c-3.609,0-4.575.813-4.575,4.371q-.076,14.486,0,28.972c0,3.253.813,3.914,4.168,3.914H69c.813,0,1.779-.1,2.186.915a2.455,2.455,0,0,1-.152,2.44c-.813,1.017-2.033.661-3.1.61-2.287-.152-4.219.2-5.286,2.491-.356.712-1.423,1.22-.966,2.186s1.576.915,2.491.915c4.727.051,9.5,0,14.232,0,2.9,0,5.744.051,8.641-.051,2.186-.1,2.389-.813,1.423-2.745-1.372-2.694-3.558-3-6.2-2.846-1.118.051-2.694.559-2.745-1.576-.051-1.931,1.017-2.389,2.745-2.389q8.387.076,16.773,0c2.948,0,3.914-.864,3.914-3.71.051-9.81.051-19.67,0-29.48C102.856,45.918,101.585,44.8,98.637,44.8Zm1.169,31.463c0,2.033-.61,2.846-2.8,2.8-7.268-.152-14.537-.051-21.805-.051s-14.537-.051-21.805.051c-1.728,0-2.236-.61-2.236-2.186.051-8.692.051-17.434,0-26.126,0-2.084.915-2.846,2.948-2.846,14.232.051,28.413.051,42.645,0,2.287,0,3.151.966,3.1,3.253C99.755,59.54,99.755,67.927,99.806,76.263Z" transform="translate(-20.034 -0.003)"/><path class="a" d="M179.361,100.607c-1.118-1.322-2.592-1.423-4.117-1.423-1.067,0-1.982-.457-1.626-1.677.3-1.017-1.017-2.846.813-2.948,3.507-.2,3.812-2.592,3.812-5.134.051-6.608,0-13.215,0-19.772V50.388a27.333,27.333,0,0,0-.356-3.507A2.184,2.184,0,0,0,175.3,44.8c-2.186.1-4.422,0-6.608.051-3.2,0-4.015.813-4.066,4.066-.051,4.219,0,8.437,0,12.707V89.78c0,2.236.508,4.473,2.9,4.625,2.846.2,1.728,2.033,1.83,3.2.152,1.728-1.322,1.728-2.491,1.576a3.314,3.314,0,0,0-3.355,1.779c-.407.661-.559,1.423.508,1.423,4.88.051,9.81.051,14.689-.051C179.921,102.335,180.175,101.572,179.361,100.607ZM171.89,53.082c1.626.1,2.694,1.271,2.846,3.2a3.045,3.045,0,0,1-3.253,3.355,2.976,2.976,0,0,1-3.253-3.1C168.179,54.556,169.6,53.133,171.89,53.082Zm-3.609,14.283a3.064,3.064,0,0,1,3.2-3.05,3.332,3.332,0,0,1,.152,6.658C169.857,71.177,168.281,69.4,168.281,67.365Z" transform="translate(-76.666)"/><path class="a" d="M19.49,99.235c-1.067.1-2.033-.356-1.728-1.525.254-1.067-1.017-2.694.966-3.151,3.151-.762,3.66-1.322,3.66-4.625V69.653c0-6.913.051-13.876,0-20.789,0-3.151-.813-3.914-3.914-3.965H12.628c-2.9.051-3.456.508-3.456,3.405-.051,14.232,0,28.413-.051,42.645,0,2.135.915,3.507,3,3.66,2.389.2,1.423,1.881,1.525,3,.152,1.525-.915,1.83-2.186,1.677a3.228,3.228,0,0,0-3.405,1.169c-.356.457-.966.813-.712,1.474s.966.61,1.525.61H22.59c.508,0,1.067.051,1.271-.559.2-.559-.254-.915-.559-1.322C22.387,99.286,21.014,99.083,19.49,99.235Zm-3.66-46.1c2.033.1,2.9,1.423,3.151,3.1a3.4,3.4,0,0,1-3.507,3.405c-2.084-.051-3-1.474-3.151-3.3C12.17,54.659,14,53.032,15.83,53.134Zm-.254,17.942c-1.677.152-3.355-1.728-3.253-3.507a3.471,3.471,0,0,1,3.405-3.151c1.728,0,3.558,1.779,3.3,3.507A3.6,3.6,0,0,1,15.576,71.076Z" transform="translate(0 -0.052)"/><path class="a" d="M98.915,139.8H55.05c-6.2,0-6.1,0-6.15,6.252,0,2.491.915,3.151,3.3,3.151,7.878-.1,15.706-.051,23.584-.051H97.593c5.337,0,5.337,0,5.286-5.439C102.829,140.207,102.422,139.8,98.915,139.8Zm-2.592,6.709H83.666c-1.423,0-2.186-.508-2.186-2.084,0-1.626.966-1.931,2.338-1.931h6.1c2.084,0,4.219.051,6.3,0,1.525-.051,2.033.762,2.135,2.186C98.457,146.255,97.593,146.509,96.323,146.509Z" transform="translate(-20.465 -46.716)"/></g></svg>