<svg xmlns="http://www.w3.org/2000/svg" width="50.896" height="51.545" viewBox="0 0 50.896 51.545"><defs><style>.a{fill:#c4c9ce;}</style></defs><g transform="translate(-18.724 -19.713)"><path class="a" d="M73.708,112.762c-2.625.463-3.366-1.637-4.231-3.119-1.637-2.779-3-5.744-4.385-8.647a2.352,2.352,0,0,0-2.409-1.513c-3.768.031-7.5-.031-11.272.031a2.731,2.731,0,0,1-2.718-1.544c-1.421-2.471-3.088-4.848-4.632-7.257-.618-.957-.988-.834-1.421.154-1.081,2.5-2.193,4.941-3.273,7.443-.525,1.174-1.2,2.254-2.656,2.224-1.606-.031-2.532-1.915-1.791-3.675,1.451-3.4,3-6.732,4.509-10.1a40.012,40.012,0,0,1,1.884-4.046c2.1-3.521,6.084-3.644,8.307-.247,1.359,2.1,2.718,4.231,4.015,6.393A2.87,2.87,0,0,0,56.476,90.5c2.347-.093,4.725.093,7.1-.062,4.262-.247,7.134,1.637,8.956,5.4,1.637,3.428,3.4,6.794,5.126,10.16a4.019,4.019,0,0,1-.679,4.972C76.086,111.959,75.345,113.41,73.708,112.762Z" transform="translate(-11.015 -41.665)"/><path class="a" d="M36.258,159.872H22.052a3.357,3.357,0,0,1-2.563-.834,2.036,2.036,0,0,1,0-3.181,4.281,4.281,0,0,1,2.841-.957c9.357.031,18.715,0,28.072,0a3.353,3.353,0,0,1,2.162.618,2.239,2.239,0,0,1,1.05,2.532,2.265,2.265,0,0,1-2.131,1.729,31.042,31.042,0,0,1-3.4.062C44.164,159.9,40.211,159.872,36.258,159.872Z" transform="translate(0 -93.439)"/><path class="a" d="M45.794,35.37a6.686,6.686,0,1,1,6.671-6.7A6.781,6.781,0,0,1,45.794,35.37Z" transform="translate(-14.014 -1.579)"/><path class="a" d="M144.879,25.391a9.338,9.338,0,0,1-.371,2.934c-.926,3.768-1.822,7.566-1.235,11.519.062.494.154,1.112-.463,1.328-.556.185-.8-.432-1.019-.772a11.257,11.257,0,0,1-1.822-6.547,29.63,29.63,0,0,1,1.7-7.628,11.769,11.769,0,0,0,.8-5.373c-.062-.432-.4-.988.309-1.112a.935.935,0,0,1,1.174.772C144.169,22.149,145.1,23.662,144.879,25.391Z" transform="translate(-83.792 0)"/><path class="a" d="M172.862,37.348c0,.494-.031.772,0,1.019.371,2.038-.34,3.922-.9,5.744a22.446,22.446,0,0,0-.71,6.856v1.544c0,.309-.062.649-.432.71s-.494-.247-.679-.525a12.811,12.811,0,0,1-1.359-10.5c.834-3.15,2.193-6.207,2.162-9.543,0-.371.031-.8.463-.865.525-.062.525.494.741.8C173.139,34.136,172.8,35.9,172.862,37.348Z" transform="translate(-103.344 -8.344)"/></g></svg>