<svg xmlns="http://www.w3.org/2000/svg" width="56.82" height="51.693" viewBox="0 0 56.82 51.693"><defs><style>.a{fill:#c4c9ce;}</style></defs><g transform="translate(-6.559 -15.602)"><path class="a" d="M62.144,37.367c-.361-.09-.632-.452-.933-.723-2.288-1.957-4.516-3.974-6.834-5.87a3.116,3.116,0,0,1-1.385-3.191,6.564,6.564,0,0,0-1.385-5.66c-1.415-1.505-5.238-2.047-7.165-1.024-.572.3-1.054.512-1.626.03-1.836-1.535-3.733-3.041-5.539-4.606-.813-.723-4.154-1.024-4.967-.331l-8.489,7.135c-4.967,4.245-9.9,8.489-14.9,12.644C7.384,37.066,6.33,38.36,6.6,40.528c.211,1.6.813,2.559,2.438,2.8a10.2,10.2,0,0,0,1.355.06c1.806.03,1.957.181,1.987,1.987v2.107c0,5.058-.03,10.115.03,15.2a4.238,4.238,0,0,0,4.576,4.576H53.263c.512,0,1.084.181,1.565-.3a6.782,6.782,0,0,0,2.2-5.178c-.12-5.268-.03-10.537-.03-15.8,0-2.469,0-2.469,2.408-2.559,2.92-.12,3.974-1.234,3.974-4.154C63.379,38.3,63.228,37.638,62.144,37.367Zm-3.01,2.228c-.151.482-.6.452-.993.421-.9-.06-1.806-.181-2.709-.151-1.626.09-2.258.963-2.2,2.559a105.013,105.013,0,0,1-.09,12.313,32.468,32.468,0,0,0,.06,6.623c.271,2.408-.03,2.8-2.529,2.83-7.978.12-15.925-.181-23.9-.241a74.195,74.195,0,0,0-8.58.151c-1.716.181-2.318-.542-2.288-2.288.06-3.221,0-6.412,0-9.633h.06V42.545c0-2.137-.572-2.679-2.679-2.709-.753,0-1.505.06-2.258.09-.3,0-.632.09-.813-.241-.211-.391.06-.692.331-.9.783-.692,1.626-1.355,2.408-2.017,6.412-5.449,12.794-10.928,19.237-16.317,2.318-1.927,2.408-1.9,4.7-.03,1.927,1.6,3.823,3.251,5.66,4.937,1.355,1.234,1.836,1.2,2.649-.391.692-1.355,1.9-1.054,3.041-.963,1.084.09,1.144.933,1.144,1.806v.151c-.933,4.185,1.294,6.743,4.455,8.911a58.557,58.557,0,0,1,4.726,3.944C58.923,38.963,59.254,39.173,59.134,39.595Z" transform="translate(0)"/><path class="a" d="M78.74,80.465c-3.974-2.98-8.339-4.937-13.246-4.636H64.53c-5.027-.181-9.212,1.957-13.065,4.907-.6.452-1.264,1.054-.9,1.866a2.368,2.368,0,0,0,2.047,1.325c.723.03,1.144-.542,1.686-.9A19.9,19.9,0,0,1,64.711,79.2c4.425-.211,8.309,1.475,11.8,4.034,1.415,1.024,2.107,1.054,3.071-.12C80.7,81.82,79.613,81.1,78.74,80.465Z" transform="translate(-30.684 -42.075)"/><path class="a" d="M84.621,98.172a13.479,13.479,0,0,0-9.784-3.191,13.48,13.48,0,0,0-9.784,3.251c-.783.632-1.2,1.264-.421,2.137.692.783,1.385,1.716,2.619.692a11.366,11.366,0,0,1,7.5-2.529,11.79,11.79,0,0,1,7.827,2.5c1.234.993,2.047.241,2.77-.632C86.217,99.316,85.314,98.744,84.621,98.172Z" transform="translate(-40.299 -55.446)"/><path class="a" d="M89.7,116.252c-2.86-2.649-9.6-2.679-12.524-.03-.452.391-.9.813-.6,1.535a2.278,2.278,0,0,0,3.372,1.054,6.457,6.457,0,0,1,7.195.03,2.352,2.352,0,0,0,1.264.421,2.441,2.441,0,0,0,1.866-1.325C90.633,117.185,90.181,116.7,89.7,116.252Z" transform="translate(-48.869 -68.95)"/><path class="a" d="M91.7,133.1a3.731,3.731,0,0,0-3.4,3.372,3.278,3.278,0,0,0,3.462,3.191,3.554,3.554,0,0,0,3.582-3.131A4.065,4.065,0,0,0,91.7,133.1Z" transform="translate(-57.132 -82.126)"/></g></svg>