<svg xmlns="http://www.w3.org/2000/svg" width="28.377" height="23.143" viewBox="0 0 28.377 23.143"><defs><style>.a{fill:#bfbfbf;}</style></defs><g transform="translate(-13.8 -29.978)"><path class="a" d="M25.516,41.536V51.716c0,.5.081,1.067-.517,1.325-.63.259-1-.162-1.39-.549C21.864,50.747,20.086,49,18.357,47.24a1.829,1.829,0,0,0-1.487-.63c-.646.032-1.293.016-1.939,0A1.051,1.051,0,0,1,13.8,45.43c.016-2.586,0-5.171.016-7.757,0-.84.291-1.212,1.131-1.083,2.117.339,3.555-.614,4.848-2.133,1.1-1.293,2.375-2.424,3.587-3.6.436-.436.824-1.115,1.616-.792.76.307.517,1.05.533,1.632C25.532,34.958,25.516,38.255,25.516,41.536Z" transform="translate(0 0)"/><path class="a" d="M155.614,46.8a13.967,13.967,0,0,1-4.072,9.793,1.371,1.371,0,0,1-2.052.226c-.566-.549-.517-1.212.178-1.988a11.841,11.841,0,0,0,.873-15.449c-.291-.388-.646-.727-.953-1.1-.6-.727-.63-1.422-.081-1.939a1.344,1.344,0,0,1,2,.162A14.308,14.308,0,0,1,155.614,46.8Z" transform="translate(-113.437 -5.021)"/><path class="a" d="M127.376,58.37a11.222,11.222,0,0,1-3.216,8.048,1.285,1.285,0,0,1-1.923.21,1.345,1.345,0,0,1,.065-2,8.559,8.559,0,0,0,.065-11.861,1.48,1.48,0,0,1-.452-1.6,1.293,1.293,0,0,1,2.2-.307,10.556,10.556,0,0,1,3.087,6A6.529,6.529,0,0,1,127.376,58.37Z" transform="translate(-90.565 -17.109)"/><path class="a" d="M98.82,70.89a7.732,7.732,0,0,1-2.246,5.462,1.342,1.342,0,0,1-1.955.081,1.3,1.3,0,0,1,.048-1.875,5.253,5.253,0,0,0,.016-7.369,1.288,1.288,0,0,1-.032-1.923,1.349,1.349,0,0,1,1.939.178A7.638,7.638,0,0,1,98.82,70.89Z" transform="translate(-67.438 -29.306)"/></g></svg>