<svg xmlns="http://www.w3.org/2000/svg" width="75.239" height="57.694" viewBox="0 0 75.239 57.694"><defs><style>.a{fill:#c4c9ce;}</style></defs><path class="a" d="M80.411,68.786c-4.135-.08-8.311-.04-12.446-.04-.683,0-1.405-.08-2.128-.12V48.993c2.208,1.807,3.894,3.372,5.781,4.738.562.4,1.526.241,2.288.361-.281-.642-.4-1.486-.883-1.887-8.752-7.347-17.545-14.614-26.3-21.961-1.325-1.124-2.248-1.124-3.613,0-5.9,4.978-11.924,9.836-17.906,14.815-2.931,2.449-5.862,4.858-8.712,7.347-.361.321-.4,1.084-.562,1.606a5.452,5.452,0,0,0,1.807,0,8.986,8.986,0,0,0,1.726-1.325c1.405-1.124,2.81-2.288,4.5-3.654V68.746H21.673c-4.135,0-8.311-.04-12.446.04-.642,0-1.285.723-1.927,1.124.642.321,1.285.883,1.927.883,4.3.08,8.552.12,12.848,0,1.606-.04,2.208.482,2.007,2.048-.2,1.486.08,2.69,2.007,2.69.241,0,.723.482.763.723.08,1.164.723,1.445,1.726,1.445.361,0,1,.281,1,.442-.08,2.088,1.606,1.887,2.891,2.168.04,1.325.241,2.369,1.887,2.208.281-.04.883.361.883.562-.04,1.927,1.486,1.726,2.81,1.927-.12,1.566.723,2.088,2.168,2.088q11.744-.06,23.487,0c1.526,0,2.128-.642,2.088-2.168-.08-3.894.12-7.749-.08-11.643-.12-2.168.683-2.57,2.61-2.489,4.015.12,8.03.08,12.045,0,.723,0,1.445-.683,2.168-1.044C81.816,69.388,81.134,68.786,80.411,68.786Zm-54-20.275a3.551,3.551,0,0,1,1-2.369c5.3-4.537,10.68-8.913,15.979-13.37a2.014,2.014,0,0,1,3.091.04c5.3,4.5,10.68,8.873,15.979,13.37a2.786,2.786,0,0,1,.964,1.807c.08,6.825.04,13.61.04,20.677H26.331V60.6C26.371,56.541,26.29,52.526,26.411,48.511ZM63.468,81.192c0,3.975,0,3.975-4.015,3.975H40.664c0-1.967-1-2.73-2.931-2.449,0-1.767-.8-2.69-2.65-2.369.08-.241.12-.482.2-.723-.8-.522-1.606-1.044-2.409-1.526-.281-.161-.763-.321-.763-.522,0-1.486-.883-1.767-2.088-1.726-.2,0-.642-.241-.642-.4-.04-1.686-1.084-1.967-2.489-2.168-.321-.04-.442-1.405-.723-2.369h37.3Z" transform="translate(-7.3 -29.4)"/></svg>