<svg xmlns="http://www.w3.org/2000/svg" width="64.996" height="34.211" viewBox="0 0 64.996 34.211"><defs><style>.a{fill:#c4c9ce;}</style></defs><g transform="translate(-6.468 -50.877)"><path class="a" d="M71.287,67.336a14.118,14.118,0,0,0-2.365-3.119,56.758,56.758,0,0,0-15.971-9.939c-4.729-1.816-9.219-3.53-15.422-3.393a37.452,37.452,0,0,0-8.6,1.337,47.773,47.773,0,0,0-10.556,4.592,55.441,55.441,0,0,0-5.963,3.667c-4.078,2.742-5.244,4.113-5.723,5.826a5.906,5.906,0,0,0-.034,3.016c.411,1.576,1.474,2.57,3.77,4.318a70.928,70.928,0,0,0,5.895,4.181,64.3,64.3,0,0,0,7.3,4.078A38,38,0,0,0,37.8,85.088a40.021,40.021,0,0,0,5.483-.48,32.821,32.821,0,0,0,4.8-1.062,46.189,46.189,0,0,0,16.245-8.4c2.33-1.885,4.9-3.53,6.614-6.1C71.389,68.432,71.664,67.884,71.287,67.336ZM38.523,80.7A12.406,12.406,0,0,1,26.014,67.918,12.577,12.577,0,0,1,38.9,55.032a12.524,12.524,0,0,1,12.612,12.92C51.375,75.321,46.166,80.736,38.523,80.7Z" transform="translate(0 0)"/><path class="a" d="M90.872,85.8A4.869,4.869,0,0,0,85.8,90.838c0,2.707,2.468,5.312,4.969,5.278,2.536-.034,5.278-2.673,5.312-5.141A5.314,5.314,0,0,0,90.872,85.8Z" transform="translate(-52.144 -22.954)"/></g></svg>