<svg xmlns="http://www.w3.org/2000/svg" width="65.523" height="64.055" viewBox="0 0 65.523 64.055"><defs><style>.a{fill:#c4c9ce;}</style></defs><g transform="translate(-59.8 -146.199)"><path class="a" d="M92.548,146.213h31.786c.882,0,.989.107.989.976v62.329c-.013.535-.214.735-.749.735h-6.1q-11.709,0-23.418-.013H60.709c-.749,0-.909-.16-.909-.909v-62.4c.013-.548.2-.735.749-.735H92.08C92.214,146.213,92.375,146.213,92.548,146.213Zm-.642,52.13V162.534H84.675v.708c0,1.029,0,1.016.9,1.484,1.417.722,2.834,1.457,4.251,2.192a.909.909,0,0,1-.374,1.764H78.634a.857.857,0,0,1-.9-1.043,1.021,1.021,0,0,1,.628-.749c1.6-.829,3.221-1.657,4.825-2.486.107-.053.254-.174.267-.267.027-.521.013-1.056.013-1.577H70.119c0,.468.027.909-.013,1.337a.487.487,0,0,0,.348.548c1.617.815,3.221,1.657,4.825,2.486a.908.908,0,0,1-.4,1.751H64.144a.9.9,0,0,1-.989-.668.977.977,0,0,1,.6-1.083c1.617-.842,3.235-1.671,4.852-2.526.12-.053.267-.187.267-.294.027-.508.013-1.029.013-1.551H61V198.37C71.322,198.343,81.6,198.343,91.907,198.343Zm1.256.013h30.944v-6.109H93.163Zm16.093-43.134V149.5c0-.575.227-.789.789-.789H121.26c.708,0,.882.2.882.909v5.28a2.6,2.6,0,0,0,.027.321h1.911V147.43H93.15v7.793ZM60.976,161.3H91.92v-4.879H60.976Zm32.187,47.719h14.971v-9.437H93.163Zm-32.187,0H75.813V199.56H60.976Zm16.093,0H91.933v-9.437H77.07C77.07,202.741,77.07,205.869,77.07,209.023Zm32.28-9.464v9.464h14.757V199.56Zm14.757-16.387h-14.85V191h14.85Zm0-18.941v-7.793H109.243v7.793Zm-16.08,1.243H93.177v7.619h14.85Zm16.08,8.862H109.27v7.592h14.837ZM108,181.929v-7.592H93.177v7.592ZM91.92,155.236V147.43H60.976v7.806h1.791a2.4,2.4,0,0,0,.027-.294c-.013-1.818-.013-3.636-.027-5.44,0-.588.2-.789.789-.789H74.891c.548,0,.762.214.762.762v5.734H80.2v-4.224c0-.521.2-.762.7-.762h8.849a.581.581,0,0,1,.655.615c.013.561-.013,1.123-.013,1.671v2.713C90.9,155.236,91.4,155.236,91.92,155.236Zm1.256,27.923v7.833h1.9a1.291,1.291,0,0,1-.04-.147,2.458,2.458,0,0,1,2.366-3.489c2.339.04,4.665.013,7,0A2.42,2.42,0,0,1,107,189.642a6.832,6.832,0,0,1-.187,1.35h1.216v-7.833Zm14.85-26.693H93.163v7.766h1.911a4.585,4.585,0,0,1-.16-.441,2.382,2.382,0,0,1,2.219-3.155c2.513-.027,5.026-.013,7.539,0a2.347,2.347,0,0,1,2.205,1.644,2.551,2.551,0,0,1-.174,1.952h1.31C108.027,161.638,108.027,159.059,108.027,156.466Zm16.08,16.655v-7.632H109.27v7.632h1.47c-.053-.147-.107-.254-.147-.361a2.422,2.422,0,0,1,2.219-3.261c2.473-.013,4.946,0,7.405,0a2.318,2.318,0,0,1,2.366,2.045,9.2,9.2,0,0,1-.12,1.591C122.957,173.12,123.519,173.12,124.107,173.12ZM120.966,149.9H110.486v5.32h10.479Zm-57,5.307H74.437V149.9H63.97Zm17.457-3.783v3.8h7.779v-3.8Zm19.435,12.832h3.649a1.226,1.226,0,1,0,.027-2.446c-2.419-.013-4.825-.013-7.245,0a1.237,1.237,0,0,0-1.3,1.243,1.222,1.222,0,0,0,1.323,1.2Zm0,26.747h3.609a1.237,1.237,0,0,0,1.337-1.23,1.262,1.262,0,0,0-1.323-1.2c-2.353,0-4.692.013-7.044-.013A1.308,1.308,0,0,0,96,189.789a1.276,1.276,0,0,0,1.43,1.23C98.577,191,99.713,191,100.862,191Zm15.719-20.331h-3.556a1.959,1.959,0,0,0-.561.067,1.223,1.223,0,0,0-.829,1.31,1.243,1.243,0,0,0,1.283,1.069h7.2a1.259,1.259,0,0,0,1.35-1.19,1.216,1.216,0,0,0-1.323-1.243C118.961,170.674,117.771,170.674,116.581,170.674Zm-43.027-3.208c-.16-.12-.214-.174-.281-.214-1.176-.615-2.366-1.23-3.556-1.831a.669.669,0,0,0-.508.013c-1.083.535-2.152,1.1-3.235,1.657-.187.094-.361.2-.548.294.013.027.013.04.027.067C68.114,167.466,70.774,167.466,73.554,167.466Zm14.53.013a.19.19,0,0,0,.027-.08c-1.31-.682-2.62-1.363-3.943-2.032a.438.438,0,0,0-.334.053c-1.23.628-2.446,1.256-3.662,1.9a1.012,1.012,0,0,0-.187.174C82.724,167.48,85.411,167.48,88.084,167.48Z" transform="translate(0)"/><path class="a" d="M399.2,562.859v1.51c0,.481-.241.775-.6.775s-.6-.281-.6-.762v-3.061c0-.454.214-.722.588-.722s.6.267.615.708v1.551Z" transform="translate(-292.994 -359.009)"/><path class="a" d="M156.5,562.382v-1.631a.6.6,0,0,1,.575-.655.59.59,0,0,1,.6.628c.013,1.1.013,2.179.013,3.275a.632.632,0,0,1-.588.668c-.348,0-.588-.254-.6-.682v-1.6Z" transform="translate(-83.774 -358.572)"/><path class="a" d="M201.9,562.272v-1.591a.614.614,0,0,1,.6-.682.621.621,0,0,1,.6.655c.013,1.083.013,2.152,0,3.235a.607.607,0,1,1-1.2-.013v-1.6Z" transform="translate(-123.106 -358.489)"/><path class="a" d="M443.3,562.829v-1.551c0-.414.227-.682.588-.682a.6.6,0,0,1,.615.655c.013,1.069.013,2.152,0,3.221a.627.627,0,0,1-.615.668.739.739,0,0,1-.588-.722Z" transform="translate(-332.239 -359.006)"/></g></svg>