<svg xmlns="http://www.w3.org/2000/svg" width="54.55" height="59.389" viewBox="0 0 54.55 59.389"><defs><style>.a{fill:#c4c9ce;}</style></defs><g transform="translate(399.095 -290.1)"><path class="a" d="M-343.811,295.738h5.668v3.992h-.64c-2.133.03-4.3-.03-6.4.122a13.71,13.71,0,0,0-12.678,11.154c-.609,2.926-.274,5.912-.335,8.868,0,.03.03.061.061.091.274.03.549.03.884.061q-1.966,14.4-3.931,28.647h-.061c-.183-1.31-.335-2.651-.518-3.962a42.488,42.488,0,0,0-2.1-8.9,9,9,0,0,0-2.1-3.5,2.54,2.54,0,0,0-2.377-.731,3.1,3.1,0,0,0-2.316,3.84,13.154,13.154,0,0,0,1.8,4.449,52.222,52.222,0,0,0,7.375,9.356,1.173,1.173,0,0,0,.792.244c4.206.031,8.442.031,12.647,0a1.562,1.562,0,0,0,1.036-.4c2.164-1.981,4.3-3.962,6.369-6a21.085,21.085,0,0,0,4.114-5.425,5.14,5.14,0,0,0,.518-1.889,1.7,1.7,0,0,0-1.92-1.859,3.416,3.416,0,0,0-1.8.762,15.405,15.405,0,0,0-2.347,2.529,36.819,36.819,0,0,0-5.12,11.367l-.183.64c-.03,0-.061-.03-.122-.03q-2.1-14.537-4.206-29.1c.4-.03.7-.061,1.067-.091v-.67c0-1.889-.061-3.809.061-5.7a6.184,6.184,0,0,1,4.724-5.912,13.432,13.432,0,0,1,2.926-.3c5.821-.03,11.611,0,17.432,0h.67V299.73h-5.668v-3.992h5.668V290.1h-19.017C-343.811,291.959-343.811,293.818-343.811,295.738Z" transform="translate(-19.721)"/><path class="a" d="M-389.375,448.253a20.641,20.641,0,0,0-4.206-4.419,6.048,6.048,0,0,0-2.743-1.31,2.4,2.4,0,0,0-2.5,1.1,1.94,1.94,0,0,0,.335,2.347,9.259,9.259,0,0,0,1.371,1.524c3.535,3.078,7.741,5.12,11.977,7.07-.091-.152-.152-.3-.244-.457C-386.693,452.184-387.973,450.173-389.375,448.253Z" transform="translate(0 -105.948)"/><path class="a" d="M-268.7,455.065a13.634,13.634,0,0,0-2.651,2.286c-1.219,1.432-2.316,2.987-3.444,4.51.061.031.091.091.152.122.061,0,.152.03.213,0a27.386,27.386,0,0,0,7.588-2.926,7.133,7.133,0,0,0,1.615-1.4,1.553,1.553,0,0,0,.061-1.92A2.306,2.306,0,0,0-268.7,455.065Z" transform="translate(-86.415 -114.315)"/></g></svg>