<svg xmlns="http://www.w3.org/2000/svg" width="35.312" height="54.475" viewBox="0 0 35.312 54.475"><defs><style>.a{fill:#c4c9ce;}</style></defs><path class="a" d="M-343.658,327.84c-.085,0-.2-.057-.256-.057V315.671h1.734v3.042c1.507.114,2.928.227,4.492.37-.028-.54-.028-.881-.057-1.336-1.308.114-2.53.2-3.81.313v-3.071h-2.36v-6.568h6.141c-.085-.171-.085-.256-.142-.313-3.582-6.084-7.165-12.169-10.8-18.225a1.357,1.357,0,0,0-.967-.455c-3.81-.028-7.62,0-11.4-.028a1.069,1.069,0,0,0-1.08.625c-3.469,5.914-6.994,11.828-10.463,17.741-.114.2-.2.426-.37.739h6.2v19.362a2.63,2.63,0,0,1-.426.028c-1.621.028-1.99.426-1.99,2.047v12.14c0,1.279.483,1.791,1.734,1.791h24.2c1.336,0,1.763-.483,1.763-1.848v-11.97C-341.555,328.181-341.81,327.925-343.658,327.84Zm-21.523-19.362h19.561v5.345h-19.561Zm19.561,19.305h-19.561V316.694h9.581v2.1c-.483.028-.938.057-1.393.085-.4.483.37,1.507-.825,1.564.142,1.45.256,2.843.426,4.265a1.035,1.035,0,0,0,1.251,1.052,15.4,15.4,0,0,1,1.621,0,1.02,1.02,0,0,0,1.166-1c.171-1.422.284-2.843.426-4.322-1.137-.057-.483-1-.825-1.564h-1.422v-2.161h9.581C-345.62,320.419-345.62,324.058-345.62,327.783Zm-8.359-8.643v1.166h-2.815v-1.166Z" transform="translate(373 -289.4)"/></svg>