<svg xmlns="http://www.w3.org/2000/svg" width="28" height="27.919" viewBox="0 0 28 27.919"><defs><style>.a{fill:#bfbfbf;}</style></defs><g transform="translate(-17.478 -17.3)"><path class="a" d="M45.382,32.8a13.561,13.561,0,0,0-.283-4.822,14.7,14.7,0,0,0-2.361-4.9,15.584,15.584,0,0,0-1.38-1.629,13.675,13.675,0,0,0-15.8-2.76,13.686,13.686,0,0,0-6.169,5.67,14.371,14.371,0,0,0-1.9,7.914,13.51,13.51,0,0,0,1.746,5.786,13.3,13.3,0,0,0,5.337,5.42,14.245,14.245,0,0,0,5.371,1.58,14.489,14.489,0,0,0,4.572-.033,13.141,13.141,0,0,0,2.876-.9,13.229,13.229,0,0,0,5.387-4.672A14.817,14.817,0,0,0,45.382,32.8Zm-13.8,10.059A11.487,11.487,0,0,1,20.075,31.35a11.432,11.432,0,1,1,22.862-.017A11.356,11.356,0,0,1,31.581,42.856Z"/><path class="a" d="M50.6,38.446a1.312,1.312,0,0,0-1.812.565c-1.031,1.613-2.411,1.563-3.392-.116a1.063,1.063,0,0,0-1.463-.532,16.016,16.016,0,0,0-2.028.948A10.821,10.821,0,0,0,40.13,57.135a10.139,10.139,0,0,0,3.525,1.929c.981.349,1.28.316,1.846-.565a1.824,1.824,0,0,1,3.076-.233,1.4,1.4,0,0,1,.3.4c.366.682.9.7,1.546.482A10.743,10.743,0,0,0,57.97,48.854a13.339,13.339,0,0,0-.116-1.829A11.01,11.01,0,0,0,50.6,38.446ZM39.864,44.714a2.021,2.021,0,0,1,2.145-1.181c.981.1,2,.017,2.993.033A.9.9,0,0,1,46.016,44.6c-.017.7-.482.781-1.014.765H40.263C39.747,45.363,39.531,45.3,39.864,44.714Zm5.2,9.128H41.177a1.239,1.239,0,0,1-1.014-.449c-.249-.3-.582-.648-.449-1.014.15-.382.632-.183.964-.2.665-.017,1.33,0,1.979,0h2.394a.825.825,0,0,1,.931.9C46.016,53.743,45.583,53.842,45.068,53.842Zm.033-4.09H42.374V49.7c-.881,0-1.762-.017-2.644,0-.565.017-.881-.166-.881-.8s.266-.9.9-.9c1.829,0,3.641-.033,5.47-.067a.784.784,0,0,1,.848.9A.862.862,0,0,1,45.1,49.752Zm3.259-5.071c.033-.5.033-1.081.715-1.1,1.347-.033,2.71-.067,4.057.017.781.05,1.081.8,1.4,1.4.183.349-.15.432-.466.432-.8-.017-1.6,0-2.394,0v-.05H49.191C48.726,45.363,48.327,45.246,48.36,44.681Zm5.986,8.264a1.808,1.808,0,0,1-1.8.914c-1.131-.067-2.261-.017-3.392-.017-.466,0-.831-.133-.815-.7.017-.549.166-.981.848-.981.8.017,1.6,0,2.394,0H53.98c.216,0,.466,0,.565.249C54.628,52.662,54.462,52.778,54.346,52.945Zm1.214-3.891c.017.615-.416.748-.964.715a44.137,44.137,0,0,0-5.138-.017c-.7.033-1.064-.216-1.081-.914-.033-.682.382-.831.964-.831.881.017,1.762,0,2.66,0v-.05c.881,0,1.762.017,2.66,0C55.426,47.923,55.543,48.489,55.559,49.054Z" transform="translate(-15.631 -17.471)"/></g></svg>