<svg xmlns="http://www.w3.org/2000/svg" width="29.229" height="50.971" viewBox="0 0 29.229 50.971"><defs><style>.a{fill:#c4c9ce;}</style></defs><g transform="translate(-48.8 -4.354)"><g transform="translate(48.8 4.354)"><path class="a" d="M68.058,50.011v4.157c0,.894-.237,1.131-1.1,1.131H65.059c-.658,0-.947-.289-.947-.947V50.458a.728.728,0,0,0-.026-.237H62.717v3.973c0,.921-.237,1.131-1.158,1.131h-1.6c-1,0-1.21-.21-1.21-1.184V50.063c-.816-.105-1.6-.184-2.368-.289a21.173,21.173,0,0,1-5.1-1.184,8.954,8.954,0,0,1-1.763-1,1.749,1.749,0,0,1-.71-1.526V8.549a2.13,2.13,0,0,1,1.131-1.868A10.854,10.854,0,0,1,53.8,5.287a48.646,48.646,0,0,1,12.365-.868,37.452,37.452,0,0,1,7.656,1,15.8,15.8,0,0,1,2.631.973,2.535,2.535,0,0,1,1.578,2.552q-.039,18.429,0,36.884a2.223,2.223,0,0,1-1.1,2.026,10.408,10.408,0,0,1-3.683,1.368c-1.552.289-3.1.474-4.657.71C68.426,49.958,68.268,49.985,68.058,50.011Zm8.34-5.367V9.707c0-1.684-.053-1.763-1.684-2.341-.105-.026-.21-.079-.316-.105-1.842-.342-3.657-.842-5.5-1.026a50.815,50.815,0,0,0-14.259.474A11.056,11.056,0,0,0,50.826,7.97a.819.819,0,0,0-.447.789V44.118c0,.158.026.316.026.5.184,0,.316-.026.447-.026.184-1.1.579-1.526,1.447-1.526q1.342-.039,2.683,0a1.267,1.267,0,0,1,1.289,1.158c.026.132.053.237.079.368a2.111,2.111,0,0,0,2.21-.631,3.927,3.927,0,0,1,.368-.316,1.843,1.843,0,0,1,1.526-.579c1.763.026,3.525.053,5.262,0a2.7,2.7,0,0,1,2.5.973,2.147,2.147,0,0,0,2.157.579.619.619,0,0,0,.053-.21,1.362,1.362,0,0,1,1.526-1.342H74.4a1.319,1.319,0,0,1,1.421,1.342.813.813,0,0,0,.053.21A3.706,3.706,0,0,1,76.4,44.644ZM50.536,46.222v.132a2.178,2.178,0,0,0,.395.289c.342.158.658.342,1.026.474a29.361,29.361,0,0,0,7.84,1.368A50.389,50.389,0,0,0,69.952,48.2a21.128,21.128,0,0,0,5.1-1.158c.421-.158.816-.421,1.21-.605v-.158c-1.158.105-1.973-.237-2.026-1.526H72.109c-.132,1.158-.552,1.526-1.684,1.526-2.473-.026-1.736.289-3.631-1.342a.993.993,0,0,0-.605-.21c-1.842-.026-3.709-.026-5.551,0a1.29,1.29,0,0,0-.684.263c-.368.289-.71.631-1.079.921-.552.474-3.052.579-3.578.079a5.517,5.517,0,0,1-.816-1.263H52.562C52.483,45.959,51.72,46.354,50.536,46.222Zm10.5,7.445V50.142H60.4v3.525Zm4.709-3.525v3.525H66.4V50.142Z" transform="translate(-48.8 -4.354)"/></g><path class="a" d="M89.119,72.992H83.884c-.552,0-.684-.132-.684-.684v-7.55c0-.526.132-.658.658-.658H94.381c.552,0,.684.132.684.684v7.55c0,.526-.132.658-.658.658Zm2.368-4.367c-.184.105-.316.158-.447.237-.579.289-.842.132-.894-.526a2.6,2.6,0,0,0-.973-1.789,8.342,8.342,0,0,1-.447.973,6.637,6.637,0,0,1-.71.789,1.6,1.6,0,0,0-.053,2.315c.237.342.237.579-.026.763-.237.184-.5.105-.737-.184a2.575,2.575,0,0,1,.184-3.631l.289-.289a1.775,1.775,0,0,0,.552-1.447c0-.263.053-.526.079-.789H84.226V71.94h9.892V65.047H88.856A4.811,4.811,0,0,1,91.04,67.52c.21-.184.368-.421.579-.474.368-.079.5.263.631.526a3.162,3.162,0,0,1-1.342,3.788.655.655,0,0,1-.579-.105c-.21-.158-.158-.421.026-.631.132-.158.316-.289.447-.421A2.319,2.319,0,0,0,91.487,68.625Z" transform="translate(-25.35 -44.028)"/><g transform="translate(58.139 7.549)"><path class="a" d="M89.956,27.786A5.643,5.643,0,1,1,95.613,22.1,5.658,5.658,0,0,1,89.956,27.786Zm-.026-1.368a4.262,4.262,0,1,0-4.262-4.262A4.289,4.289,0,0,0,89.93,26.418Z" transform="translate(-84.3 -16.5)"/><path class="a" d="M102.794,28.876c.263-.368.526-.737.816-1.1a.69.69,0,1,1,1.131.789c-.552.763-1.1,1.526-1.657,2.263a.646.646,0,0,1-.973.158.638.638,0,0,1-.105-.973C102.241,29.612,102.53,29.244,102.794,28.876Z" transform="translate(-97.216 -24.561)"/></g></g></svg>