<svg xmlns="http://www.w3.org/2000/svg" width="30" height="26.532" viewBox="0 0 30 26.532"><defs><style>.a{fill:#bfbfbf;}</style></defs><g transform="translate(-8.9 -27.697)"><path class="a" d="M38.9,36.753a3.317,3.317,0,0,0-3.207-3.331H20.968c-.923,0-1.361-.452-.94-1.289a8,8,0,0,0,.47-3c.1-.988-.259-1.423-1.183-1.423-2.138,0-4.26.033-6.4-.017a1.034,1.034,0,0,0-1.183,1.055,4.277,4.277,0,0,0,.421,2.979,1,1,0,0,1-.729,1.674,3.764,3.764,0,0,0-2.511,3.03c0,4.687.016,9.374-.016,14.044a3.453,3.453,0,0,0,.616,2.009,3.462,3.462,0,0,0,3.143,1.741c3.742-.084,7.5-.033,11.242-.033H35.547a3.752,3.752,0,0,0,3.337-3.482Q38.908,43.758,38.9,36.753ZM13.857,29.1c.745.017,1.506,0,2.268,0v.033h2.414c.454,0,.729.2.68.7s-.373.469-.761.469c-1.523.017-3.062.151-4.584.017-.389-.033-.7-.017-.68-.536C13.176,29.3,13.387,29.1,13.857,29.1Zm4.26,4.285c-1.312.05-2.64.033-3.952,0-.567-.017-.551-.5-.551-.937,0-.452.211-.619.664-.586.616.05,1.231.017,1.847.017V31.9c.616,0,1.231.017,1.863,0,.389-.017.632.084.632.536C18.652,32.853,18.668,33.372,18.117,33.389Zm17.3,19.3H12.658c-1.782,0-2.333-.7-2.333-2.511.016-4.536.13-9.089-.065-13.625-.032-.87.567-1.272,1.2-1.607a3.357,3.357,0,0,1,1.571-.318q10.861,0,21.706.017a2.563,2.563,0,0,1,2.333.887,2.212,2.212,0,0,1,.437,1.54c-.1,1.674-.1,3.348-.065,5.022.032,2.929-.113,5.859.081,8.771A1.994,1.994,0,0,1,35.417,52.688Z" transform="translate(0 0)"/><path class="a" d="M47.377,104.212a4.4,4.4,0,0,0-3.431-.268,7.542,7.542,0,0,1-5.412.033,3.9,3.9,0,0,0-2.754-.067,7.2,7.2,0,0,1-5.315.084,4.705,4.705,0,0,0-3-.033c-1.434.452-2.819.887-4.3.234a.566.566,0,0,0-.821.418.675.675,0,0,0,.37.9,5.32,5.32,0,0,0,3.527.234,6.51,6.51,0,0,1,4.7-.184,5.183,5.183,0,0,0,3.85.084,5.834,5.834,0,0,1,4.381-.033,5.189,5.189,0,0,0,3.624.05,5.655,5.655,0,0,1,4.156-.151c.483.2.741-.151.838-.586A.717.717,0,0,0,47.377,104.212Z" transform="translate(-11.156 -63.274)"/></g></svg>