<svg xmlns="http://www.w3.org/2000/svg" width="38.072" height="46.953" viewBox="0 0 38.072 46.953"><defs><style>.a{fill:#c4c9ce;}</style></defs><path class="a" d="M63.685,38.51a28.611,28.611,0,0,0-.876-3.48c-.25-.926-.776-1.1-1.6-.776-.8.325-1.627.576-2.453.851-1.727.526-1.9.175-5.733,1.127-1.577.4-2.378.6-2.6.7-.7.3-1.177.626-1.452.4-.225-.175-.125-.526-.1-1.577.025-.726-.025-.426-.025-1.527,0-1.026.025-2.078-.025-3.5-.025-1.352-.325-1.552-1.677-1.527a37.1,37.1,0,0,1-5.007-.05c-1.227-.15-1.577.25-1.577,1.377.05,2.7,0,5.433.075,8.137.025.776-.15,1.077-.976.976a20.753,20.753,0,0,0-2.5-.075,1.218,1.218,0,0,0-1.051.526c-.2.35.05.651-.175.9-.175.225-.476.15-1.452.1-1.177-.025-1.452.075-1.677-.175a1.642,1.642,0,0,1-.25-.926,9.664,9.664,0,0,1-.075-1.077c.075-1.152.075-11.466.05-13.644a4.054,4.054,0,0,1,1.3-3.18c3.28-3.33,6.484-6.684,9.714-10.064a1.006,1.006,0,0,1,1.677-.05L55.348,22.187a2.466,2.466,0,0,1,.751,2c-.075,2.7-.025,5.433-.025,8.137,0,.526-.075,1.177.651,1.3a2,2,0,0,0,2.078-1.8c.025-1.2,0-2.428,0-3.63,0-.451-.15-.976.325-1.252.526-.3.926.075,1.327.376a1.653,1.653,0,0,0,2.453-.15c.726-.826.476-1.677-.3-2.428a32.429,32.429,0,0,0-3.1-3.054A9.03,9.03,0,0,1,55.7,12.623c.325-2.654.2-2.929-2.554-2.929-1.252,0-1.677.35-1.652,1.5.025.426.15.976-.4,1.2s-.926-.175-1.277-.551c-1.3-1.352-2.579-2.7-3.931-4.031-1.152-1.127-1.953-1.1-3.1.05-3.5,3.58-7.06,7.185-10.59,10.765-1.978,2.028-3.956,4.056-5.908,6.109a1.7,1.7,0,0,0-.075,2.479,1.646,1.646,0,0,0,2.378.125c.4-.325.776-.7,1.327-.426.526.275.325.8.35,1.252.1,3.83-.175,7.686.15,11.516a1.5,1.5,0,0,1-.35.9c-.851,1.5-.275,2.5,1.4,2.5,3.68,0,7.335,0,11.016-.025.851,0,1.4.225,1.277,1.2a6.261,6.261,0,0,0,.776,3.355c.175.451.426.826.951.876.6.05.776-.426.926-.851a7.349,7.349,0,0,1,2.078-2.629.942.942,0,0,1,1.252-.225c.426.3.275.751.125,1.152a7.856,7.856,0,0,1-.976,1.727,11.151,11.151,0,0,0-2.053,5.283c-.05.4,0,.926.551.976.576.075.6-.426.7-.826.376-1.377.876-1.778,2.253-1.377a14.2,14.2,0,0,0,5.433-.075c3.605-.476,7.06-4.131,7.836-7.911a8.611,8.611,0,0,0,.15-2.153A22.716,22.716,0,0,0,63.685,38.51Z" transform="translate(-25.708 -6.986)"/></svg>