<svg xmlns="http://www.w3.org/2000/svg" width="59.114" height="54.504" viewBox="0 0 59.114 54.504"><defs><style>.a{fill:#c4c9ce;}</style></defs><g transform="translate(-13.698 -20.475)"><path class="a" d="M72.777,80.176v-.169c.1-1.083-.406-1.557-1.49-1.557-2.268.034-4.5,0-6.771.034a2.088,2.088,0,0,0-1.659.711c-1.9,2.268-4.4,2.945-7.245,2.945-4.13-.034-8.227,0-12.357,0-4.469,0-8.9.034-13.373,0-4.435-.068-7.99-3.182-7.685-7.787.2-3.318.068-6.67.034-9.987a5.67,5.67,0,0,1,.846-3.047,7.876,7.876,0,0,1,6.771-3.792c1.287-.1,1.862-.508,1.828-1.828-.068-2.471-.1-4.943-.135-7.448,0-1.083-.677-1.32-1.557-1.32-2.37,0-4.74.034-7.11-.034a3.579,3.579,0,0,0-2.708,1.117A76.064,76.064,0,0,1,14.139,53.9a1.165,1.165,0,0,0-.44,1.05v7.279c0,.339-.034.711.339.88.406.169.576-.2.813-.44q5.485-5.434,10.868-10.935c.643-.643,1.185-1.354,1.828-2,.372-.339.779-.508.948.237a4.117,4.117,0,0,1-2.675,5.18,9.2,9.2,0,0,0-4.943,4.2c-1.49,3.216-3.927,5.586-6.4,7.956a1.865,1.865,0,0,0-.745,1.422v6.94c0,.339-.068.745.3.914.474.237.677-.237.948-.508.948-.982,1.9-1.93,2.844-2.912.237-.237.474-.542.88-.339.3.169.2.474.2.745.135,1.828-.135,3.453-1.727,4.672-.982.745-1.76,1.76-2.675,2.573a1.852,1.852,0,0,0-.745,1.591v6.771c0,.372-.1.88.372,1.016s.609-.372.88-.643c2.133-2.167,4.3-4.334,6.4-6.534,1.117-1.185,1.828-.135,2.573.44.982.745.135,1.253-.372,1.76-1.422,1.456-2.912,2.844-4.266,4.367-.711.813-2.4,1.388-2,2.37.372.88,2.065.237,3.149.372,3.182.339,6.128.1,8.058-3.047.44-.711,1.219-1.185,1.727-1.862a5.11,5.11,0,0,1,5.078-2.234c.271.034.643.068.745.237.271.339-.034.643-.271.88l-4.774,4.774c-.271.271-.779.372-.643.88.135.474.643.372,1.016.372,2.031.034,4.063,0,6.094.034a2.7,2.7,0,0,0,2.336-.982c1.557-1.76,3.352-3.352,4.977-5.078a3.362,3.362,0,0,1,3.047-1.117c.474.068,1.117-.169,1.388.372.271.609-.339.88-.677,1.219-1.422,1.456-2.878,2.878-4.3,4.3-.271.271-.745.474-.542.948.169.372.576.3.914.3h7.11a1.408,1.408,0,0,0,1.151-.508c1.557-1.693,3.25-3.284,4.774-5.011,1.93-2.167,4.774-2.979,6.94-4.74a1.044,1.044,0,0,1,1.524.034c.3.474-.3.745-.609,1.05-2.675,2.675-5.315,5.349-7.99,8.024-.237.237-.576.44-.406.813s.576.3.914.3a27.2,27.2,0,0,1,2.878.034,8.231,8.231,0,0,0,5.485-.813,12.505,12.505,0,0,0,2.2-2.268c2.234-2.607,3.352-3.893,3.69-5.112A21.832,21.832,0,0,0,72.777,80.176Z" transform="translate(0 -17.475)"/><path class="a" d="M82.759,107.323c-1.287-.474-2.1,1.016-2.912,1.9-1.625,1.693-3.386,2.81-5.925,2.641-1.93-.135-3.047-1.253-4.266-2.438-3.081-3.013-5.451-3.115-8.735-.339a7.391,7.391,0,0,0-.745.711c-2.945,2.979-6.365,2.945-9.243-.135a9.02,9.02,0,0,0-2.471-2.031c-1.219-.576-1.693-.237-1.693,1.016,0,1.76-.034,3.487,0,5.248a4.812,4.812,0,0,0,4.4,5.078c4.706.677,9.446.068,13.271.3,4.909,0,8.9.034,12.9,0,3.927-.068,5.992-2.234,5.992-6.128a21.186,21.186,0,0,0-.034-2.539C83.267,109.456,84.08,107.83,82.759,107.323Z" transform="translate(-21.866 -57.283)"/><path class="a" d="M84.617,46.863c-.982,0-1.388.474-1.388,1.49,0,2.133-.135,4.266-.135,6.433-.034,2.471.135,2.607,2.539,2.607,5.485,0,10.935-.034,16.42,0a8.2,8.2,0,0,1,6.6,2.844,2.132,2.132,0,0,0,1.76.813c2.268,0,4.5-.034,6.771,0,1.05,0,1.557-.406,1.524-1.524-.034-1.456,0-2.945,0-4.4h0v-4.74c0-.339.034-.711-.372-.88-.372-.135-.609.135-.846.372-.948,1.016-1.9,2.065-2.878,3.081-1.185,1.219-2.336,2.438-3.589,3.589-.948.88-1.828.2-2.539-.44-.914-.779-.068-1.32.44-1.76,2.031-1.862,3.521-4.266,5.789-5.891.339-.271.779-.576.576-1.117-.169-.508-.711-.508-1.151-.508-1.693,0-3.386.034-5.078-.034a3.649,3.649,0,0,0-3.013,1.219c-1.287,1.422-2.776,2.641-4.029,4.1-1.253,1.49-2.573,2.471-4.6,2-.339-.068-.846.3-1.05-.169-.237-.474.2-.88.576-1.117,1.828-1.253,2.945-3.284,4.672-4.6.3-.237.677-.474.508-.948-.135-.372-.508-.44-.846-.44-2.3,0-4.638,0-6.94.034-.677,0-1.083.508-1.524.948-1.693,1.794-3.419,3.589-5.146,5.383-.3.3-.576.846-1.083.677-.576-.2-.2-.779-.237-1.185a4.594,4.594,0,0,1,1.964-4.5c.813-.576.474-1.253-.474-1.32C86.75,46.829,85.7,46.863,84.617,46.863Z" transform="translate(-45.899 -17.408)"/><path class="a" d="M57.345,26.679c1.524.034,3.047,0,4.537,0v.034h3.893c.88,0,1.93.169,2.3-.948a3.1,3.1,0,0,0-.576-3.013A5.164,5.164,0,0,0,62.8,20.483c-2.641.169-5.248-.169-6.94,2.573-.474.745-.948,1.422-.643,2.3A2.032,2.032,0,0,0,57.345,26.679Z" transform="translate(-27.396 0)"/><path class="a" d="M171.456,106.241c.034-.711-.339-.982-1.05-.982-1.794-.034-3.589-.1-5.383-.169-1.456-.068-2.1.542-2.133,2.1-.034,4.5,0,4.638,4.5,4.638,4.672-.034,3.995.474,4.063-4.063Z" transform="translate(-98.68 -55.965)"/></g></svg>