<svg xmlns="http://www.w3.org/2000/svg" width="29" height="26.061" viewBox="0 0 29 26.061"><defs><style>.a{fill:#bfbfbf;}</style></defs><g transform="translate(-16.7 -24.8)"><path class="a" d="M45.683,26.97c0-.7-.256-.957-.94-.94-1.2.034-2.392,0-3.589.034-.427.017-.649-.085-.649-.547.017-.427-.137-.718-.632-.718H36.626c-.342,0-.581.188-.513.53.154.769-.273.735-.82.718-5.844-.017-11.672,0-17.516-.017-.82,0-1.077.256-1.077,1.077q.051,11.33,0,22.643c0,.872.273,1.128,1.128,1.111,4.443-.034,8.886-.017,13.329-.017,4.477,0,8.938-.017,13.415.017.769,0,1.128-.205,1.128-1.06Q45.649,38.369,45.683,26.97ZM18.323,28.884c0-1.128,0-1.128,1.145-1.128H31.174c3.93,0,7.861.017,11.791-.017.854-.017,1.128.239,1.111,1.111-.034,5.263-.034,10.544,0,15.807,0,.889-.256,1.06-1.111,1.06-4.956-.051-9.912-.034-14.867,0-.53,0-.684-.12-.684-.649,0-1.23-.393-1.794-1.094-1.743-.649.051-1.008.649-.974,1.829.017.478-.154.581-.581.581-1.247,0-1.265.017-1.316-1.247-.034-.684-.359-1.111-1.008-1.145-.632-.034-.957.41-1.042,1.025a2.316,2.316,0,0,0-.017.6c.051.6-.205.769-.8.769-2.239-.051-2.239-.017-2.239-2.29C18.323,38.574,18.323,33.738,18.323,28.884Zm24.83,19.84H19.229c-.342,0-.786.137-.889-.41-.1-.581.068-.923.752-.906,1.572.034,3.127,0,4.7,0q9.613,0,19.225.017c.342,0,.769-.154.991.291C44.3,48.3,43.94,48.725,43.154,48.725Z" transform="translate(0 0)"/><path class="a" d="M118.122,65.259q2.64.026,5.28,0c1.3-.017,1.863-.6,1.863-1.9.017-1.931,0-3.862,0-5.793,0-1.982.017-3.982,0-5.964-.017-1.077-.461-1.675-1.4-1.692-2.051-.051-4.1-.051-6.135,0a1.462,1.462,0,0,0-1.453,1.5c.1,1.5,0,3.008.017,4.511.051,2.444.1,4.887-.017,7.331A1.707,1.707,0,0,0,118.122,65.259Zm1.982-5.81h-.94c-.393-.12-1.213.359-1.2-.7a.429.429,0,0,1,.034-.256c.581-.786,1.4-.291,2.1-.342.6-.034.427.53.461.906C120.583,59.381,120.361,59.432,120.1,59.449Zm-1.453-7.9c.649.1,1.3-.154,1.948-.085.735,0,1.47.017,2.2,0,.478-.017.752.137.752.666-.017,1.247,0,2.495,0,3.742,0,.427-.188.632-.615.615H118.6c-.41,0-.632-.171-.632-.615V52.135C117.951,51.674,118.173,51.486,118.652,51.554Z" transform="translate(-82.556 -20.79)"/><path class="a" d="M35.686,56.492c1.025.017,2.051,0,3.076,0s2.051.017,3.076,0a1.638,1.638,0,0,0,1.794-1.709c.017-.513-.085-.923-.718-.923a.556.556,0,0,1-.632-.615c0-.444.137-.718.632-.718a.621.621,0,0,0,.7-.5,1.792,1.792,0,0,0-1.589-2.256q-3.153-.051-6.306,0a1.518,1.518,0,0,0-1.606,1.538c-.051,1.213-.051,2.444,0,3.657A1.424,1.424,0,0,0,35.686,56.492Z" transform="translate(-14.406 -20.686)"/><path class="a" d="M46.648,97c-1.965.017-3.913,0-5.879,0-.6,0-.769.342-.769.872,0,.564.205.854.8.837.957-.017,1.931,0,2.905,0s1.931-.017,2.905,0c.6.017.8-.256.786-.837C47.382,97.376,47.3,97,46.648,97Z" transform="translate(-19.318 -59.862)"/><path class="a" d="M46.548,114.9c-1.948.017-3.913.017-5.879,0-.547,0-.769.222-.769.769s.171.854.786.837c.957-.017,1.931,0,2.888,0h0c.957,0,1.931-.017,2.888,0,.5.017.837-.051.82-.666C47.282,115.308,47.265,114.881,46.548,114.9Z" transform="translate(-19.235 -74.7)"/><path class="a" d="M98.223,69.368c.6,0,.94-.444,1.077-1.06-.154-.547-.478-1.008-1.077-1.008A1.011,1.011,0,0,0,97.2,68.342.969.969,0,0,0,98.223,69.368Z" transform="translate(-66.741 -35.237)"/><path class="a" d="M99.248,89.528c.051-.6-.393-.957-.974-1.128-.581.12-1.042.427-1.094,1.025a.97.97,0,0,0,.974,1.077A.994.994,0,0,0,99.248,89.528Z" transform="translate(-66.723 -52.731)"/><path class="a" d="M98.225,110.2a.96.96,0,0,0-1.025,1.025.988.988,0,0,0,.974.991,1.129,1.129,0,0,0,1.111-1.042A1.117,1.117,0,0,0,98.225,110.2Z" transform="translate(-66.743 -70.806)"/></g></svg>