<svg xmlns="http://www.w3.org/2000/svg" width="28.171" height="21.482" viewBox="0 0 28.171 21.482"><defs><style>.a{fill:#bfbfbf;}</style></defs><g transform="translate(-6.369 -28.74)"><path class="a" d="M57.1,44.905c-1.309-4.835-2.648-9.655-3.927-14.49-.506-1.9-.431-1.636-2.083-1.651-1.22-.015-1.22,0-1.354,1.175-.03.3-.089.565-.461.55-.312-.015-.387-.253-.417-.521-.164-1.22-.179-1.22-1.4-1.22-.253,0-.491.015-.744,0-.6-.06-.893.179-1.041.788C44.963,32.275,44.2,35,43.46,37.72Q41.9,43.5,40.336,49.264c-.193.729-.074.922.729.937,1.979.015,3.972-.03,5.951.015.744.015,1.086-.283,1.056-.982-.015-.655.283-.893.907-.833a5.025,5.025,0,0,0,.669,0c.6-.06.922.089.893.8s.312,1.071,1.1,1.012c.967-.074,1.934-.015,2.9-.015h2.9c.937,0,1.026-.1.8-.982C57.861,47.791,57.489,46.348,57.1,44.905Zm-8.539-7.6a30.941,30.941,0,0,0,.149-3.317.6.6,0,0,1,1.19-.015c.045.893.089,1.77.134,2.663,0,.223-.015.446,0,.669.03.565-.268.714-.774.714S48.5,37.809,48.563,37.3Zm1.77,7.066c.015,1.16-.565,1.547-1.666,1.19a.565.565,0,0,1-.387-.714,23.858,23.858,0,0,0,.119-3.258c.015-.625.446-.61.878-.61s.893-.06.907.58c0,.848.223,1.666.149,2.365C50.333,44.176,50.333,44.265,50.333,44.37Z" transform="translate(-28.846 0)"/><path class="a" d="M139.584,49.065c-.015-.03-.015-.045-.03-.074q-3.3-7.922-6.62-15.828c-.521-1.25-1.056-2.514-1.577-3.764a.649.649,0,0,0-.893-.431c-.431.164-.238.506-.134.818.982,2.827,1.964,5.668,2.916,8.494,1.2,3.511,2.35,7.051,3.585,10.547.6,1.711.312,1.5,1.874,1.517C140.164,50.359,140.164,50.359,139.584,49.065Z" transform="translate(-105.406 -0.143)"/><path class="a" d="M16.043,29.509c.074-.223.119-.461-.1-.61a.606.606,0,0,0-.759.06,1.1,1.1,0,0,0-.253.446q-2.544,6.025-5.058,12.05c-1.056,2.529-2.1,5.073-3.2,7.6-.491,1.116-.476,1.19.744,1.19h.223c1.25,0,1.25,0,1.7-1.145.119-.3.208-.61.312-.907,1.4-4.091,2.8-8.2,4.2-12.288C14.57,33.763,15.3,31.651,16.043,29.509Z" transform="translate(0 -0.045)"/></g></svg>