<svg xmlns="http://www.w3.org/2000/svg" width="18.402" height="28.387" viewBox="0 0 18.402 28.387"><defs><style>.a{fill:#c4c9ce;}</style></defs><g transform="translate(-41.9 -9.009)"><path class="a" d="M76.76,44.493a8.437,8.437,0,0,0-.817-.247c-.4.015-.478-.308-.478-.647,0-.848.062-1.7-.015-2.543a1.239,1.239,0,0,1,.74-1.4,1.161,1.161,0,0,0,.586-1.726,2.628,2.628,0,0,0-2.728-.971c-.632.231-1.31.524-1.48,1.325-.154.786.385,1.156.94,1.51a.745.745,0,0,1,.478.709c-.046,1-.046,2-.046,3.005,0,.447-.092.771-.616.771a.832.832,0,0,0-.416.092.992.992,0,0,0-.416.57c-.478,1.433-1.6,13.115-2.42,14.78-.046.108-.277.539-.108.863a.913.913,0,0,0,.848.37h7.552c.539,0,.894-.123,1.048-.385.247-.385-.031-.956-.092-1.11C78.348,57.316,77.777,44.832,76.76,44.493Zm-3.067,4.516a4.088,4.088,0,0,1,2.111.031.577.577,0,0,1,.478.616c-.046.339-.354.416-.632.432-.324.031-.663,0-.986,0h0c-.277,0-.555.015-.832,0-.293-.031-.586-.108-.6-.462A.586.586,0,0,1,73.693,49.009ZM72.615,53a.617.617,0,0,1,.709-.647,17.443,17.443,0,0,0,2.836.031.541.541,0,0,1,.647.586c.015.4-.262.539-.6.539-.509.015-1.033,0-1.541,0h0c-.462,0-.925.015-1.387,0C72.954,53.509,72.568,53.494,72.615,53Zm4.254,4.577c-.709-.015-1.433,0-2.142,0v.015c-.694,0-1.387-.015-2.065,0-.339.015-.647,0-.678-.416-.031-.37.123-.694.539-.694,1.48-.015,2.959-.015,4.454,0,.385,0,.509.293.493.647C77.423,57.485,77.192,57.578,76.868,57.578Z" transform="translate(-23.687 -23.557)"/><path class="a" d="M134.338,15.049c-.046-1.926-1.295-3.252-2.466-4.485A10.882,10.882,0,0,0,130.1,9.208c-.2-.17-.4-.308-.586-.077-.185.247-.062.462.2.632.493.324.971.663,1.449,1a6.709,6.709,0,0,1,1.988,2.528,4.557,4.557,0,0,1,.108,2.281,6.59,6.59,0,0,1-3.36,4.469c-.046.015-.354.077-.416.247a.249.249,0,0,0,.031.2.462.462,0,0,0,.139.154c.185.077.462-.092.524-.139C134.4,17.777,134.338,15.049,134.338,15.049Z" transform="translate(-74.037)"/><path class="a" d="M46.539,22.4a.2.2,0,0,0,.031-.17c-.031-.139-.185-.216-.308-.308a1.077,1.077,0,0,0-.339-.185,5.89,5.89,0,0,1-1.988-1.957,6.265,6.265,0,0,1-.971-2.589,4.545,4.545,0,0,1,.416-3.021,5.263,5.263,0,0,1,1.572-1.541c.478-.293.925-.632,1.4-.94.077-.062.2-.092.185-.216-.015-.154-.139-.2-.277-.216a1.107,1.107,0,0,0-.786.262c-1.295.94-1.033.678-1.341.986a7.2,7.2,0,0,0-1.372,1.541,5.941,5.941,0,0,0-.863,2.682,5.765,5.765,0,0,0,.478,1.973,5.649,5.649,0,0,0,1.187,1.726C44.767,21.75,46.339,22.613,46.539,22.4Z" transform="translate(0 -1.892)"/><path class="a" d="M56.4,25.175c.077.339.154.694.247,1.033a4.467,4.467,0,0,0,2.589,2.928c.139.062.324.108.432-.046.108-.17-.077-.262-.185-.37a1.464,1.464,0,0,0-.293-.247,5.489,5.489,0,0,1-2.019-2.944.813.813,0,0,1,.031-.6c.493-1.2.894-2.45,2.188-3.1.185-.092.339-.277.17-.509a.326.326,0,0,0-.478,0A5.591,5.591,0,0,0,56.4,25.175Z" transform="translate(-12.265 -10.326)"/><path class="a" d="M124.485,22.524a5.8,5.8,0,0,1,1.31,1.295c1.418,1.726.894,3.606-.616,4.916-.262.231-.57.432-.848.663-.108.092-.308.185-.2.354a.294.294,0,0,0,.416.046,15.376,15.376,0,0,0,1.464-1,3.508,3.508,0,0,0,.925-4.485A5.893,5.893,0,0,0,124.9,22.17a2.507,2.507,0,0,0-.354-.17c-.092.046-.216.077-.262.154C124.192,22.339,124.361,22.432,124.485,22.524Z" transform="translate(-69.531 -10.989)"/><path class="a" d="M118.921,37.75c.17.17.354.031.478-.077.57-.539,1.2-1.063,1.187-1.957a2.8,2.8,0,0,0-1.171-2.235c-.139-.108-.324-.216-.478-.031-.123.154.015.293.108.4A2.609,2.609,0,0,1,119,37.272C118.905,37.4,118.767,37.581,118.921,37.75Z" transform="translate(-65.092 -20.59)"/><path class="a" d="M72.094,35.473a2.74,2.74,0,0,0,1.233,2.188c.123.092.293.185.4.031.139-.17.015-.354-.108-.478a2.266,2.266,0,0,1-.632-1.433,2.194,2.194,0,0,1,.663-1.88c.123-.123.262-.277.154-.462a.447.447,0,0,0-.231-.139c-.108.046-.2.046-.247.092A2.755,2.755,0,0,0,72.094,35.473Z" transform="translate(-25.54 -20.547)"/></g></svg>