<svg xmlns="http://www.w3.org/2000/svg" width="46.585" height="56.988" viewBox="0 0 46.585 56.988"><defs><style>.a{fill:#c4c9ce;}</style></defs><path class="a" d="M73.057,40.489c-3.562-2.409-7.124-4.819-10.651-7.3a2.424,2.424,0,0,1-.943-1.571c-.14-1.571-.035-3.178-.035-4.819H40.546c0,1.641-.07,3.143.035,4.644a1.888,1.888,0,0,1-1.117,1.886c-3.527,2.27-6.949,4.679-10.441,7.019A2.865,2.865,0,0,0,27.7,43.073c.07,12.641.035,25.317.035,37.958,0,2.34.454,2.759,2.968,2.759H71.8c2.2,0,2.444-.21,2.444-2.27,0-12.85,0-25.736.035-38.586A2.678,2.678,0,0,0,73.057,40.489Zm-2.13,17.355c-.1,7.089-.035,14.177-.035,21.3,0,1.921-.21,2.1-2.235,2.1H33.807c-2.3,0-2.724-.419-2.724-2.619,0-6.774.07-13.549-.035-20.323-.035-2.025.07-3.7,2.759-4.155A5.3,5.3,0,0,0,40.721,54a5.355,5.355,0,0,0,7.193-.1c2.34,1.816,4.679,1.956,7.124.14a5.3,5.3,0,0,0,6.949,0c2.165,1.571,4.435,1.851,6.6.07C70.647,54.631,70.962,55.993,70.927,57.844Z" transform="translate(-27.694 -26.801)"/></svg>