<svg xmlns="http://www.w3.org/2000/svg" width="52" height="48.516" viewBox="0 0 52 48.516"><defs><style>.a,.c,.d{fill:none;}.b{fill:#c4c9ce;}.c,.d{stroke:#c4c9ce;stroke-miterlimit:10;}.c{stroke-width:5px;}</style></defs><g transform="translate(-2569 15942)"><g transform="translate(2586.875 -15942)"><path class="a" d="M-331.816,307.19a6.435,6.435,0,0,1-2.442,0c-.416-.052-.883-.156-.987.416-.1.546.312.676.779.7h0a5.337,5.337,0,0,0,2.858,0c.52-.026.909-.234.78-.805C-330.985,306.982-331.452,307.112-331.816,307.19Z" transform="translate(337.065 -303.968)"/><path class="a" d="M-238.707,307.617h-1.559v-.026h-1.663c-.26,0-.52-.052-.6.26-.052.234.13.364.26.52a3.615,3.615,0,0,0,3.819,0c.156-.156.312-.286.234-.52C-238.265,307.591-238.5,307.617-238.707,307.617Z" transform="translate(268.431 -304.317)"/><path class="b" d="M-310.425,295.961c-.052-.676-.234-.961-.961-.961-2.572.026-5.17,0-7.717.026-.26,0-.676-.156-.676.364-1.429.39-3.014-.026-4.365.831h0c-.442.338-.883.65-1.3.987a1.122,1.122,0,0,1-1.793-.052,5.4,5.4,0,0,0-3.845-1.507,6.726,6.726,0,0,1-1.741-.26h0a.572.572,0,0,0-.026-.208h0c-.052-.052-.078-.156-.13-.156-2.91,0-5.768-.026-8.678,0-.078,0-.156.1-.26.156h0c-.494.779-.182,1.689-.26,2.494a1.362,1.362,0,0,0,.39,1.273c1.793,1.871,3.508,2.182,5.82.961.182-.078.442-.156.52-.286a1.906,1.906,0,0,1,2.157-.987.88.88,0,0,0,1.039-.78c.1-.65.494-.624.987-.468a18.317,18.317,0,0,1,2.546,1.091h0c.52.65,1.273,1.065,1.273,2.131-.052,7.821-.026,15.667,0,23.462,0,.987-.338,1.429-1.325,1.3a2.223,2.223,0,0,0-.416,0c-1.169-.052-.831.805-.909,1.455-.078.727.26.857.909.857,1.767-.026,3.534-.052,5.274,0,.779.026,1.221-.13,1.2-1.065-.026-.857-.26-1.273-1.169-1.273-1.481.026-1.481-.026-1.481-1.507,0-7.509.052-15.044-.052-22.553a3.493,3.493,0,0,1,1.871-3.2,5.24,5.24,0,0,1,2.312-.883c.26.026.65-.052.676.312.156.961.831.961,1.559.935a1.33,1.33,0,0,1,1.351.728,3.92,3.92,0,0,0,5.326,1.143h0C-310.555,299.391-310.243,297.806-310.425,295.961Zm-26.346,3.378a5.337,5.337,0,0,1-2.858,0h0c-.468-.026-.857-.156-.779-.7.1-.572.572-.468.987-.416a7.7,7.7,0,0,0,2.442,0c.364-.052.805-.182.935.312C-335.862,299.105-336.252,299.313-336.771,299.339Zm24.605-.312a3.615,3.615,0,0,1-3.819,0c-.156-.156-.338-.286-.26-.52.078-.312.364-.26.6-.26h1.663v.026h1.559c.208,0,.442-.026.52.234A.528.528,0,0,1-312.166,299.027Z" transform="translate(342.202 -295)"/></g><line class="c" x2="52" transform="translate(2569 -15909)"/><path class="d" d="M-410.7,431.854h33.257V422.5" transform="translate(2979.778 -16331.372)"/><path class="d" d="M-410.7,449.711h33.257V442.8" transform="translate(2979.778 -16346.398)"/><path class="d" d="M-410.7,460.111h33.257V453.2" transform="translate(2979.778 -16354.096)"/><path class="b" d="M-374.276,377.578H-380.2v-9.016a.529.529,0,0,1,.156-.39c2.546-1.949,5.093-3.9,7.665-5.82.026-.026.052-.026.078-.052.6.468,1.221.935,1.845,1.4l5.846,4.443a.458.458,0,0,1,.208.39v8.782a.974.974,0,0,1-.026.26h-5.924V371.55h-3.923Z" transform="translate(2957.203 -16286.813)"/><path class="b" d="M-376.892,352.746v-2.39h2.494v4a.406.406,0,0,0,.208.39c1.273.909,2.546,1.845,3.819,2.78.078.052.13.1.208.156-.416.546-.831,1.065-1.273,1.611-3.274-2.468-6.522-4.937-9.8-7.431-3.274,2.468-6.522,4.937-9.8,7.431-.416-.546-.857-1.091-1.273-1.663.676-.494,1.325-.987,1.975-1.455,2.962-2.183,5.924-4.365,8.86-6.574.208-.156.312-.13.494.026,1.247.961,2.494,1.9,3.741,2.832A.773.773,0,0,0-376.892,352.746Z" transform="translate(2966.159 -16277.337)"/><path class="d" d="M-411,427.811h19.253V420.9" transform="translate(2980 -16330.188)"/></g></svg>