<svg xmlns="http://www.w3.org/2000/svg" width="41.452" height="33.426" viewBox="0 0 41.452 33.426"><defs><style>.a{fill:#c4c9ce;}</style></defs><g transform="translate(-78.503 -189.929)"><path class="a" d="M336.551,435.263q2.784,0,5.568,0c.661,0,.875.2.877.85,0,1.318-.008,2.635,0,3.953a.645.645,0,0,1-.579.714,3.952,3.952,0,0,1-.718.044q-5.25.007-10.5.008a3.293,3.293,0,0,1-.424-.012c-.514-.067-.666-.222-.67-.747q-.016-2.04,0-4.081c0-.576.136-.709.71-.712,1.913-.01,3.825,0,5.738,0Z" transform="translate(-230.179 -224.452)"/><path class="a" d="M252.757,195.652q-2.637,0-5.274,0c-1.037,0-1.126-.086-1.125-1.1q0-1.85.013-3.7c0-.588.175-.77.761-.77q5.614,0,11.228,0c.687,0,.865.177.871.849.012,1.29.01,2.58.01,3.87,0,.656-.161.835-.828.844-1.134.015-2.268.006-3.4.007Z" transform="translate(-153.569 -0.135)"/><path class="a" d="M252.793,358.9h-5.569c-.665,0-.814-.129-.818-.787-.008-1.36.01-2.721,0-4.081a.576.576,0,0,1,.569-.652,4.9,4.9,0,0,1,.592-.038q5.228-.006,10.456-.006h.17c.964.007,1.073.1,1.079,1.073.008,1.247,0,2.494-.021,3.74-.012.64-.15.749-.808.75Q255.62,358.905,252.793,358.9Z" transform="translate(-153.611 -149.5)"/><path class="a" d="M420.275,189.949c1.844,0,3.687,0,5.531,0,.68,0,.9.222.9.884q0,1.957,0,3.914c0,.552-.211.773-.769.774q-5.531.011-11.061.014c-.909,0-1.045-.16-1.046-1.068,0-1.12-.051-2.241-.017-3.36.027-.9.081-1.2,1.148-1.179,1.772.035,3.545.009,5.318.009Z" transform="translate(-306.757)"/><path class="a" d="M84.977,195.652h-5.36c-.881,0-1.012-.124-1.017-1-.007-1.234-.008-2.468-.01-3.7,0-.642.213-.867.864-.868q5.36-.009,10.721-.006c1.217,0,1.3.1,1.3,1.308q.007,1.765,0,3.53c0,.5-.177.719-.674.728-1.247.022-2.495.008-3.742.008H84.977Z" transform="translate(-0.08 -0.131)"/><path class="a" d="M420.385,358.948c-1.8,0-3.6,0-5.4,0-.838,0-1.037-.2-1.031-1.053.009-1.162.012-2.325,0-3.487-.008-.824.135-1,.967-1.012,1.615-.019,3.231-.023,4.847-.028q2.381-.008,4.761-.007c.538,0,1.076.011,1.614.024a.654.654,0,0,1,.694.692c.008,1.389.005,2.779.008,4.168a.576.576,0,0,1-.551.633,3.884,3.884,0,0,1-.549.05q-2.68.005-5.359,0Z" transform="translate(-306.899 -149.521)"/><path class="a" d="M336.509,277.384c-1.871,0-3.743.005-5.614,0-.626,0-.741-.126-.744-.76q-.011-2,0-4c0-.586.221-.785.81-.784l11.057.014c.82,0,1.027.207,1.026,1.025,0,1.191,0,2.382,0,3.573,0,.766-.183.945-.961.945q-2.786,0-5.571,0Z" transform="translate(-230.224 -74.939)"/><path class="a" d="M252.829,516.9q2.765,0,5.529,0c.751,0,.9.137.91.893.012,1.332.006,2.665-.006,4,0,.457-.182.624-.643.666-.127.011-.255.007-.383.007l-10.8,0a2.839,2.839,0,0,1-.424-.017c-.468-.071-.6-.225-.606-.7q-.007-2.041,0-4.083c0-.568.193-.764.772-.766,1.886-.006,3.771,0,5.657,0Z" transform="translate(-153.606 -299.137)"/><path class="a" d="M168.645,277.514q-2.786,0-5.571,0c-.669,0-.855-.189-.854-.86,0-1.29,0-2.58,0-3.87,0-.605.2-.8.791-.8q5.635-.005,11.27,0c.627,0,.792.144.8.769.017,1.346.017,2.693.008,4.04,0,.585-.152.719-.748.72C172.444,277.516,170.544,277.513,168.645,277.514Z" transform="translate(-76.59 -75.069)"/><path class="a" d="M84.979,516.836h5.356c.955,0,1.068.132,1.055,1.088-.016,1.232-.02,2.466,0,3.7.012.638-.323.8-.85.8-3.344.008-6.688-.005-10.031-.009-.354,0-.708.016-1.062.025-.642.016-.937-.265-.939-.9,0-1.275,0-2.55-.009-3.826,0-.64.182-.856.823-.859,1.884-.009,3.769,0,5.654,0Z" transform="translate(0 -299.082)"/><path class="a" d="M420.438,522.441h-5.612c-.48,0-.74-.2-.747-.672q-.031-2.125-.007-4.25a.572.572,0,0,1,.6-.633c.354-.007.708-.022,1.062-.023q4.889,0,9.779,0c.269,0,.539,0,.807.024a.619.619,0,0,1,.62.665q.011,2.019.009,4.039c0,.6-.245.839-.855.839q-2.827,0-5.655,0Z" transform="translate(-306.998 -299.106)"/><path class="a" d="M85.026,359.276q-2.679,0-5.358,0a3.454,3.454,0,0,1-.547-.058.593.593,0,0,1-.544-.68c.011-1.361,0-2.722,0-4.082a.664.664,0,0,1,.746-.72l10.5.02c.365,0,.731,0,1.1.014a.477.477,0,0,1,.492.482,5.828,5.828,0,0,1,.038.633c.008,1.091.011,2.183.016,3.274,0,.043,0,.085,0,.128-.014.817-.217,1.008-1.044,1.006q-2.7,0-5.4,0Z" transform="translate(-0.068 -149.862)"/><path class="a" d="M168.692,435.558c1.885,0,3.77,0,5.655,0,.664,0,.785.113.792.761.015,1.346.014,2.693,0,4.039,0,.559-.227.742-.8.74q-5.633-.019-11.267-.033c-.571,0-.8-.22-.8-.786q-.005-1.956,0-3.912c0-.642.17-.807.806-.807q2.806,0,5.613,0Z" transform="translate(-76.638 -224.721)"/><path class="a" d="M500.287,277.442c-.68,0-1.36.006-2.04,0-.53-.006-.813-.229-.823-.759-.026-1.345-.021-2.691,0-4.037a.69.69,0,0,1,.764-.737c1.4-.019,2.8-.028,4.207-.016a.772.772,0,0,1,.807.842q0,1.891-.012,3.782c-.006.715-.2.911-.907.922-.666.01-1.332,0-2,0Z" transform="translate(-383.249 -74.981)"/><path class="a" d="M500.313,435.33c.709,0,1.419-.013,2.127,0,.506.013.745.23.751.722.018,1.361.016,2.723,0,4.085,0,.43-.253.684-.749.7-1.077.034-2.155.023-3.232.026-.312,0-.624-.011-.936-.021-.571-.019-.825-.191-.839-.741-.033-1.36-.028-2.722,0-4.083.011-.505.258-.686.786-.694.695-.011,1.39,0,2.085,0Z" transform="translate(-383.258 -224.506)"/><path class="a" d="M81.534,435.358c.651,0,1.3,0,1.954,0,.617.005.857.214.866.841.019,1.317.012,2.634,0,3.951a.734.734,0,0,1-.751.762c-1.4.013-2.8.015-4.206-.009-.536-.009-.78-.305-.783-.853q-.011-1.912-.007-3.824c0-.6.214-.835.8-.852.707-.021,1.416,0,2.124,0Z" transform="translate(-0.094 -224.538)"/><path class="a" d="M81.474,277.489c-.68,0-1.36.011-2.039,0-.5-.011-.737-.23-.742-.725q-.022-2.018,0-4.036a.666.666,0,0,1,.7-.746c1.444-.027,2.888-.028,4.333-.013a.714.714,0,0,1,.7.765c.015,1.317.02,2.634,0,3.951-.008.573-.285.808-.864.813-.694,0-1.388,0-2.082,0Z" transform="translate(-0.164 -75.045)"/></g></svg>