<svg xmlns="http://www.w3.org/2000/svg" width="61" height="47.833" viewBox="0 0 61 47.833"><defs><style>.a{fill:#c5c7c9;}.b{fill:#efefef;}.c{fill:#fefefe;}</style></defs><g transform="translate(-22.599 -128.215)"><path class="a" d="M43.41,169.473q0-.709,0-1.419,0-.356,0-.711,0-.212,0-.423,0-.712,0-1.424a4.612,4.612,0,0,1,.018-.559c.1-.667-.15-.919-.842-.857a17.734,17.734,0,0,0-2.3.129,2.548,2.548,0,0,0-.543-.119c-2.515,0-5.031.009-7.546.017H29.5c-1.959-.006-3.917-.008-5.876-.024-.252,0-.628.133-.644-.324-.017-.511.392-.374.666-.374q9.487-.011,18.975-.008a1.683,1.683,0,0,0,1.751-1.282,1.23,1.23,0,0,0,.56-.5c.531-.844,1.137-1.643,1.636-2.5a7.332,7.332,0,0,0,1.259-2.236c.289-.752.99-1.294,1.133-2.1.068-.383.416-.289.589-.51.4-.513.536-1.173.987-1.644.109-.031.3-.037.316-.1a13.7,13.7,0,0,1,1.535-2.439c.2-.352.672-.558.844-.915.509-1.054,1.271-1.938,1.851-2.939.755-1.3,1.855-2.406,2.246-3.916.2-.285.607-.381.689-.77a1.042,1.042,0,0,0,.446-.513,7.524,7.524,0,0,1,1.1-1.83,29.768,29.768,0,0,0,3.171-4.478c.316-.471.524-1.091,1.406-.974a5.229,5.229,0,0,0,1.525.092,9.219,9.219,0,0,1,2.946-.013.7.7,0,0,0,.766-.379l.842-.027c.385.03.526-.282.722-.516.621.088.969-.545,1.543-.587a.182.182,0,0,0,.1-.083c-.507-.954.722-.435.8-.929.019-.124.3-.132.449-.046a1.791,1.791,0,0,0,1.767-.05c.581-.245,1.212-.4,1.794-.687.246-.122.7.108.606-.484-.022-.135.224-.038.355-.03.384.024.869.307,1.017-.356.007-.033.082-.085.1-.076.834.4,1.319-.627,2.083-.509.063.01.192-.025.194-.046.058-.847.662-.242.987-.369.148-.058.341-.016.474-.09.194-.108.387-.553.57-.179.144.295.326.824-.22,1.085-.771-.047-1.365.588-2.138.56-.084,0-.176.2-.264.3l-.418.024c-.373-.019-.707.018-.73.505a6.15,6.15,0,0,0-2.446.845,4.43,4.43,0,0,1-1.334.475c-.75.124-1.363.74-2.166.566-.282-.013-.407.151-.457.4-.28.047-.584-.057-.84.138-.235.011-.452.052-.549.309l-.717.131a.488.488,0,0,0-.588.41l-.541.025a.368.368,0,0,0-.411.433q0,1.84,0,3.68,0,1,0,2v2.97q0,.36,0,.719v1.419c.024,2.556-.142,5.115.107,7.669a6.622,6.622,0,0,0-.107,2.121c.022,3.172-.136,6.346.106,9.515a10.424,10.424,0,0,0-.1,2.687c-.006.558-.018,1.116-.018,1.674,0,1.277,0,1.279-1.277,1.3l-1.424,0-1.272,0-1.425,0a1.49,1.49,0,0,0-.893-.145q-6.418,0-12.836,0c-.249,0-.525-.089-.741.127l-1.135.009-1.7,0H45.682l-1.416-.015-.836-.3q0-.131-.008-.261C43.55,169.657,43.54,169.563,43.41,169.473Z" transform="translate(-0.327)"/><path class="b" d="M353.913,177.46q0-1,0-2a36.4,36.4,0,0,1,3.821,1.348,2.067,2.067,0,0,0,1.922-.011,1.228,1.228,0,0,1,1.133.239.616.616,0,0,0,.787.01,1.67,1.67,0,0,1,1.307-.412,3.837,3.837,0,0,0,1.578-.467c.1-.037.174-.079.172-.186-.01-.612.345-.553.728-.384.545.242.652-.02.557-.477-.105-.506-.268-1-.367-1.506-.035-.18-.112-.493.2-.512.267-.017.21.265.208.439,0,.376.07.693.535.634.506-.064.3-.425.247-.707-.06-.3-.2-.6.273-.719.359-.091.2-.429.227-.665.031-.261.148-.527.391-.511.293.019.182.343.169.527-.052.735.207,1.508-.258,2.2-.045.067,0,.19-.021.278-.128.443.394.935.184,1.167-.239.264-.62.4-.745.817-.1.332-.449.372-.729.5-.257.113-.6.337-.5.6a1.645,1.645,0,0,0,.636.89.293.293,0,0,0,.373-.124,3.122,3.122,0,0,1,.341-.448c.242-.215.259-.819.573-.7.354.138.119.672.151,1.031a5.914,5.914,0,0,0-.009,1.182c.089.317-.171.534-.4.692a3.422,3.422,0,0,1-1.447.705,1.329,1.329,0,0,0-.894.524c-.6.8-1.49,1.327-1.93,2.3a2.541,2.541,0,0,1-1.678,1.091c-.688.22-.375.716-.436,1.1-.056.355.069.538.486.405.187-.06.248.146.162.271-.157.228-.346.58-.552.6-.509.054-.524.319-.541.712-.02.448.131.6.581.67.383.06.424.808.035,1.211-.316.326-.484.533.067.748.214.083.188.216.038.377a3.187,3.187,0,0,0-.325,2.489.492.492,0,0,0,.323.25c.371.094.46.354.43.7a.834.834,0,0,0,.105.617,9.225,9.225,0,0,1,1.336,3.564,1.7,1.7,0,0,0,1.573,1.061c.685,0,1.371,0,2.056,0a2.194,2.194,0,0,1,.761.128c.356.124.285.4.239.646-.053.281-.265.147-.45.138-.685-.032-1.4-.286-2.022.252a.386.386,0,0,1-.4.02c-.637-.223-1.194.134-1.781.262a.317.317,0,0,0-.259.3c-.013.177.121.248.251.3.277.113.714.071.5.608-.05.125.12.18.243.179a1.7,1.7,0,0,1,.839.335c.246.135.533.23.706-.15.234-.513.533-.265.633.036a5.915,5.915,0,0,0,1.087,1.628,5.16,5.16,0,0,1,.676,2.528,7.121,7.121,0,0,1,0,1.2c-.007.163.1.437-.185.444-.193,0-.275-.21-.365-.386a26.4,26.4,0,0,0-1.3-2.813c-.364-.547-.489-1.225-1.3-1.255-.353-.013-.68.195-1.045.135-.214-.035-.443-.036-.422-.346.011-.16.347-.311.065-.466a.585.585,0,0,0-.657.127.829.829,0,0,1-.918.137c-.305-.124-.5-.23-.558-.617-.071-.52-.472-.7-.99-.687-.61.015-1.318-.1-1.515.669-.174.678-.46.7-1,.444-.453-.21-1.019-.574-1.061.425-.012.283-.376.3-.64.312a1.544,1.544,0,0,1-.873-.245c-.44-.275-.7-.272-.722.334-.009.22-.18.318-.387.345a10.432,10.432,0,0,1,.1-2.687c1.461-.367,2.4-1.615,3.731-2.208.2-.088.118-.341.116-.52a5.923,5.923,0,0,1,.852-2.749c.207-.412.286-.753-.271-.944a.522.522,0,0,1-.374-.607c.09-.367-.1-.417-.361-.541a8.253,8.253,0,0,1-2.243-1.434,1.411,1.411,0,0,0-1.556-.513,6.619,6.619,0,0,1,.107-2.121c1.084,0,2.168,0,3.252-.016.215,0,.524.106.576-.237.056-.37.4-.519.546-.8.464-.855,1.477-1.5,1.06-2.706a.252.252,0,0,1,.05-.2c.342-.441.305-.885-.159-1.144a3.032,3.032,0,0,0-1.212-.526c-.889-.012-1.1-.063-1.243-.95a.873.873,0,0,0-.572-.708,4.549,4.549,0,0,0-2.4-.388q0-.431,0-.862a7.543,7.543,0,0,0,2.8.075c.358-.041,1.085-1.2.893.314,0,.02.014.044.024.065.433.971,1.422,1.418,2.072,2.188.12.143.295-.047.432-.134.651-.413,1.017-1.14,1.763-1.493.286-.135.467-.615.905-.734.213-.058.216-.342.323-.514.278-.447.221-1.262,1.133-1.083.118.023.314-.192.428-.333.414-.513.414-1.194.686-1.771.106-.225-.062-.457-.272-.6a2.356,2.356,0,0,0-1.7-.175c.227.322.75.181.612.538-.131.338-.542.307-.874.188a.676.676,0,0,1-.239-.149.84.84,0,0,0-1.032-.092c.144.225.524.177.463.438s-.374.242-.591.285a.827.827,0,0,1-.684-.1c-.606-.471-1.331.031-1.955-.255-.628.712-1.5-.117-2.2.354-.176.12-.508.023-.767.009-.174-.009-.34-.076-.335-.286,0-.164.142-.223.289-.259.183-.044.5.069.462-.272a.5.5,0,0,0-.555-.442C355.3,177.5,354.608,177.177,353.913,177.46Zm1.8,13.608-.066.2a7.079,7.079,0,0,0,1.134.923,15.165,15.165,0,0,1,2.578,1.555c.231.187.334.125.354-.146a.9.9,0,0,0-.13-.607,1.223,1.223,0,0,1-.082-1.219,3.635,3.635,0,0,0,.213-1.653c.009-.147.067-.371-.175-.388-.154-.011-.213.159-.281.284a.627.627,0,0,0-.07.543c.091.236.174.508-.123.6-.326.1-.688.513-.97.264C357.323,190.742,356.493,191.238,355.711,191.068Zm4.052,9.656a.706.706,0,0,0,.739-.489,4.006,4.006,0,0,1,.978-1.676.46.46,0,0,0,.035-.537c-.1-.2-.278-.095-.436-.046-.358.111-.512-.141-.657-.392s-.257-.5-.415-.737c-.081-.119-.33-.317-.368-.1-.093.534-.658.92-.482,1.51a2.485,2.485,0,0,1-.1,1.575C358.869,200.374,359.167,200.722,359.763,200.724Zm1.55.825c.117-.093.245-.27.409-.314.857-.228,1.049-.555.444-1.342-.29-.377-.407-.319-.6-.076a3.384,3.384,0,0,0-.563,1.346C360.959,201.343,360.983,201.554,361.313,201.549Zm-.633-5.585c.079-.565-.128-.89-.477-.966-.3-.066-.192.293-.2.466-.008.357.048.753.468.816C360.786,196.326,360.673,195.992,360.679,195.963Zm-2.976,6.021c.226-.175.485-.363.729-.568a.385.385,0,0,0,.043-.612c-.232-.186-.289.092-.364.255-.108.236-.346.2-.541.264-.173.056-.279.181-.195.379C357.43,201.831,357.487,201.966,357.7,201.985Z" transform="translate(-284.279 -37.21)"/><path class="b" d="M43.08,382.477q0,.712,0,1.424c-.742-.258-1.475-.551-2.21-.814a12.022,12.022,0,0,0-2.453-1,1.535,1.535,0,0,0-.767.022,7.989,7.989,0,0,1-2.2.405,10.7,10.7,0,0,0-2.151.741c-.139.053-.324.151-.231.369.07.162.234.127.371.134.118.006.236,0,.355,0,.228.006.454.055.458.328s-.25.226-.425.232a1.056,1.056,0,0,0-.615.124c-.441.319-.765.411-.784-.32-.005-.2-.166-.216-.3-.086-.18.182-.461.366-.489.578a7.505,7.505,0,0,1-.979,2.449,3.358,3.358,0,0,0,.017,3.08c.2.539.043,1.142.756,1.476.342.161.071.809.367,1.169.079.1-.1.176-.223.185-.527.039-1.005.044-1.315-.543a18.755,18.755,0,0,1-1.2-2.909c-.1-.318-.169-.454-.426-.139-.107.131-.21.191-.343.047a.281.281,0,0,1-.029-.387,9.143,9.143,0,0,0,1.35-2.584,4.017,4.017,0,0,1,.527-.917c.216-.3.505-.545,0-.839-.139-.081-.1-.246-.019-.38.067-.112.232-.231.073-.359a.3.3,0,0,0-.435.078,1.471,1.471,0,0,1-1.222.414c-1.725.02-3.451.012-5.176.005-.629,0-.9-.434-.7-1.038.113-.329.32-.2.509-.121,1.572.648,3.216.162,4.82.308a.373.373,0,0,0,.353-.189c.227-.326.348-.989.925-.319.016.019.1.008.127-.017a5.069,5.069,0,0,1,2.007-1.079.742.742,0,0,0,.461-.92c2.515-.007,5.031-.017,7.546-.017a2.539,2.539,0,0,1,.543.119c-.089.517.262.635.651.71.2.04.464-.066.609.1C41.736,382.6,42.436,382.413,43.08,382.477Z" transform="translate(0 -216.98)"/><path class="b" d="M205.673,424.977l1.135-.009c.306.432-.19,1.066.238,1.387.7.529.784,1.629,1.782,1.871a.507.507,0,0,1,.28.382c.037,1.056,1.164.973,1.69,1.533.331.353,1.375.232,2.036,0a5.935,5.935,0,0,1,3.148-.365,1.865,1.865,0,0,0,.962-.137c.575-.2,1.012-.711,1.671-.7.464.008.974.059.735-.695-.039-.124.081-.218.193-.262.562-.22.756-.845,1.273-1.139a.723.723,0,0,0,.317-.809,1.544,1.544,0,0,1,.147-1.057l1.425,0a5.651,5.651,0,0,1-.012.85c-.1.648-.09,1.287-.912,1.648a3.249,3.249,0,0,0-1.408,1.454c-.319.591-1.049.876-1.171,1.623-.023.141-.3.107-.455.068a5.631,5.631,0,0,0-2.237,0,3.914,3.914,0,0,1-1.686-.063,5.306,5.306,0,0,0-1.677.084c-1.181.029-2.363,0-3.545.016a1.252,1.252,0,0,1-.809-.35c-.949-.711-1.29-1.93-2.212-2.639A2.6,2.6,0,0,1,205.673,424.977Z" transform="translate(-157.054 -254.649)"/><path class="b" d="M28.043,411.6a2.894,2.894,0,0,1-1.305,2.5c-.677.484-.931,1.21-1.419,1.79a2.147,2.147,0,0,1-2.054.863c-.188-.037-.325-.1-.317-.3.014-.336-.154-.728.254-.957.206-.115.424-.209.631-.322a3.487,3.487,0,0,0,1.862-1.62.985.985,0,0,1,.536-.541c.852-.227.716-.877.665-1.462-.054-.625-.69-.644-1.091-.843a4.015,4.015,0,0,0-2.133-.508c-.466.037-.743-.347-.733-.855.012-.564.442-.361.731-.388a1.377,1.377,0,0,1,1.114.305,1.575,1.575,0,0,0,1.217.255C27.435,409.356,27.971,409.986,28.043,411.6Z" transform="translate(-0.28 -240.893)"/><path class="b" d="M330.954,425.029l1.424,0c.189.26.374.521.567.778.125.167.2.352.019.5-.29.234-.273-.093-.355-.224a.5.5,0,0,0-.563-.193c-.261.042-.233.257-.237.443a1.08,1.08,0,0,0,.232.854c.573.617.6,1.509,1.131,2.195a.8.8,0,0,1-.575,1.315c-.136-.017-.34,0-.3-.2.137-.6-.327-.937-.578-1.362a.852.852,0,0,1-.2-.511c.028-.326-.014-.612-.373-.749a.257.257,0,0,1-.181-.276,2.15,2.15,0,0,0-.606-1.861c-.184-.209-.014-.35.19-.406C330.736,425.283,330.945,425.3,330.954,425.029Z" transform="translate(-264.033 -254.701)"/><path class="b" d="M175.347,425.042h1.566a5.652,5.652,0,0,1-.426,1.736c-.233.835-.6,1.634-.843,2.466-.132.446-.41.818-.511,1.292-.075.35-.586.2-.876.131-.31-.076-.12-.351-.054-.53q.523-1.427,1.071-2.845c.063-.162.123-.335.025-.472A1.637,1.637,0,0,1,175.347,425.042Z" transform="translate(-129.992 -254.712)"/><path class="b" d="M433,137.744c.088-.106.18-.307.264-.3.773.028,1.368-.607,2.138-.56.148.364.53.71.071,1.121a.276.276,0,0,0-.026.264c.468.717.153,1.514.248,2.267.054.428-.24.571-.551.551-.369-.023-.337-.35-.236-.6.139-.343-.023-.529-.308-.567-.409-.054-.454-.272-.477-.624-.032-.5-.151-.981-.733-1.161A.681.681,0,0,1,433,137.744Zm1.649.956c-.04-.017-.088-.057-.116-.046a.085.085,0,0,0,.062.159C434.621,138.8,434.63,138.74,434.647,138.7Z" transform="translate(-352.17 -7.433)"/><path class="b" d="M441.585,438.438c.242.714-.4,1.423-.3,2.236.036.3-.233.324-.45.3-.338-.037-.91.172-.962-.125a2.061,2.061,0,0,1,.445-1.179,3.958,3.958,0,0,0,.484-2.043c.005-.328-.048-.559.34-.611.419-.056.457.214.446.531C441.578,437.807,441.585,438.067,441.585,438.438Z" transform="translate(-358.062 -264.981)"/><path class="b" d="M424.912,143.636c.022-.487.357-.524.73-.505a1.516,1.516,0,0,0,.022.279c.073.271.549.587.029.8C425.278,144.371,424.983,144.089,424.912,143.636Z" transform="translate(-345.232 -12.796)"/><path class="b" d="M68.935,381.189h.728c0,.117-.009.235-.012.352-.007.272-.117.458-.414.456-.317,0-.282-.248-.291-.456C68.941,381.423,68.938,381.306,68.935,381.189Z" transform="translate(-39.762 -217.081)"/><path class="b" d="M167.038,422.853l.836.3c.025.32-.114.469-.441.427C166.967,423.517,167.021,423.175,167.038,422.853Z" transform="translate(-123.936 -252.834)"/><path class="b" d="M360.8,167.314a.488.488,0,0,1,.588-.41c-.072.236.461.374.124.633C361.206,167.774,361.037,167.407,360.8,167.314Z" transform="translate(-290.219 -33.198)"/><path class="b" d="M370,164.122c.1-.257.314-.3.549-.309.025.233.03.467-.246.557C370.1,164.437,370.017,164.306,370,164.122Z" transform="translate(-298.11 -30.547)"/><path class="b" d="M164.957,404q0,.356,0,.711C164.51,404.469,164.507,404.232,164.957,404Z" transform="translate(-121.871 -236.653)"/><path class="b" d="M379.784,160.407c.05-.25.175-.415.457-.4C380.216,160.285,380.082,160.439,379.784,160.407Z" transform="translate(-306.507 -27.279)"/><path class="b" d="M354.089,170.415a.368.368,0,0,1,.411-.433A.405.405,0,0,1,354.089,170.415Z" transform="translate(-284.457 -35.841)"/><path class="b" d="M166.343,419.007c.131.089.14.184.012.284C166.209,419.2,166.2,419.108,166.343,419.007Z" transform="translate(-123.261 -249.534)"/><path class="c" d="M228.453,424.1a1.544,1.544,0,0,0-.147,1.057.723.723,0,0,1-.317.809c-.517.294-.711.919-1.273,1.139-.112.044-.232.138-.193.262.239.753-.27.7-.735.694-.659-.012-1.1.5-1.671.7a1.865,1.865,0,0,1-.962.137,5.935,5.935,0,0,0-3.148.365c-.662.228-1.706.349-2.036,0-.526-.561-1.653-.477-1.69-1.533a.507.507,0,0,0-.28-.382c-1-.242-1.078-1.342-1.782-1.871-.427-.321.068-.955-.238-1.387.216-.217.492-.127.741-.127q6.418-.009,12.836,0A1.49,1.49,0,0,1,228.453,424.1Z" transform="translate(-164.23 -253.769)"/><path class="c" d="M354.1,212.33c.7-.283,1.391.041,2.087,0a.5.5,0,0,1,.555.442c.036.341-.279.228-.462.272-.147.035-.285.094-.289.258-.005.21.16.276.335.286.259.014.59.111.767-.009.692-.471,1.569.358,2.2-.354.624.286,1.349-.216,1.955.255a.827.827,0,0,0,.684.1c.217-.043.531-.028.591-.285s-.319-.213-.463-.438a.84.84,0,0,1,1.032.092.676.676,0,0,0,.239.149c.333.119.743.151.874-.188.138-.356-.384-.216-.612-.538a2.356,2.356,0,0,1,1.7.175c.21.146.378.377.272.6-.273.576-.272,1.258-.686,1.771-.114.141-.31.357-.428.333-.912-.179-.854.636-1.133,1.083-.107.172-.111.456-.323.514-.438.119-.619.6-.905.734-.746.353-1.111,1.08-1.763,1.493-.137.087-.312.276-.432.134-.649-.77-1.639-1.217-2.072-2.188-.009-.021-.026-.045-.024-.065.192-1.514-.535-.355-.893-.314a7.543,7.543,0,0,1-2.8-.075q0-.279,0-.557c.318-.051.635-.1.953-.151.12-.017.249-.036.237-.185a.264.264,0,0,0-.241-.216c-.316-.059-.633-.112-.95-.167Z" transform="translate(-284.465 -72.08)"/><path class="c" d="M353.924,248.952a4.549,4.549,0,0,1,2.4.388.873.873,0,0,1,.572.708c.142.887.354.938,1.243.95a3.032,3.032,0,0,1,1.212.526c.464.258.5.7.159,1.144a.252.252,0,0,0-.05.2c.417,1.2-.6,1.852-1.06,2.706-.15.277-.49.425-.546.8-.052.343-.361.235-.576.237-1.084.013-2.168.012-3.252.016C353.782,254.067,353.948,251.508,353.924,248.952Z" transform="translate(-284.288 -103.594)"/><path class="c" d="M353.934,317.533a1.411,1.411,0,0,1,1.556.513,8.253,8.253,0,0,0,2.243,1.434c.26.123.451.173.361.541a.522.522,0,0,0,.374.607c.557.191.478.532.271.944a5.923,5.923,0,0,0-.852,2.749c0,.18.081.433-.116.52-1.33.593-2.27,1.841-3.731,2.208C353.8,323.879,353.956,320.7,353.934,317.533Z" transform="translate(-284.298 -162.385)"/><path class="c" d="M147.985,382.358c-.643-.064-1.343.124-1.861-.475-.145-.167-.405-.062-.609-.1-.389-.075-.74-.193-.651-.71a17.71,17.71,0,0,1,2.3-.13c.692-.062.942.19.842.857A4.611,4.611,0,0,0,147.985,382.358Z" transform="translate(-104.905 -216.862)"/><path class="b" d="M354.1,233.969c.317.055.634.108.95.167a.264.264,0,0,1,.241.216c.013.149-.117.167-.237.185-.318.047-.635.1-.953.151Q354.1,234.329,354.1,233.969Z" transform="translate(-284.465 -90.749)"/><path class="c" d="M265.055,222.719c-.031-.491.105-.831.69-.77C265.662,222.338,265.252,222.434,265.055,222.719Z" transform="translate(-208.052 -80.429)"/><path class="c" d="M366.377,300.848c.782.17,1.612-.326,2.381.351.282.249.644-.165.97-.264.3-.091.214-.363.123-.6a.627.627,0,0,1,.07-.543c.068-.125.127-.3.281-.284.242.018.184.241.176.388a3.636,3.636,0,0,1-.213,1.653,1.223,1.223,0,0,0,.082,1.219.9.9,0,0,1,.13.607c-.019.271-.122.333-.354.146a15.165,15.165,0,0,0-2.578-1.555,7.077,7.077,0,0,1-1.134-.923Z" transform="translate(-294.945 -146.99)"/><path class="c" d="M390.71,352.372c-.6,0-.894-.349-.712-.889a2.486,2.486,0,0,0,.1-1.575c-.177-.59.388-.976.482-1.51.038-.218.288-.021.368.1.158.232.274.493.415.737s.3.5.657.392c.158-.049.335-.15.436.046a.459.459,0,0,1-.035.537,4.005,4.005,0,0,0-.978,1.676A.706.706,0,0,1,390.71,352.372Z" transform="translate(-315.226 -188.858)"/><path class="c" d="M404.284,371.168c-.33.006-.354-.206-.31-.386a3.384,3.384,0,0,1,.563-1.346c.192-.242.31-.3.6.076.606.788.414,1.114-.444,1.342C404.529,370.9,404.4,371.074,404.284,371.168Z" transform="translate(-327.25 -206.829)"/><path class="c" d="M397.626,337.56c-.006.028.107.363-.205.316-.42-.063-.476-.459-.468-.816,0-.174-.107-.532.2-.466C397.5,336.67,397.705,337,397.626,337.56Z" transform="translate(-321.226 -178.807)"/><path class="c" d="M378.66,378.378c-.216-.019-.273-.154-.328-.283-.084-.2.022-.323.195-.379.195-.063.433-.028.541-.264.074-.163.131-.441.364-.255a.385.385,0,0,1-.043.612C379.145,378.015,378.886,378.2,378.66,378.378Z" transform="translate(-305.236 -213.603)"/><path class="c" d="M307.561,161.739c-.1-.008-.194-.062-.165-.164a.3.3,0,0,1,.181-.18c.1-.027.165.064.16.167A.186.186,0,0,1,307.561,161.739Z" transform="translate(-244.384 -28.468)"/><path class="c" d="M233.607,265.461c-.017.04-.026.1-.054.113s-.077-.028-.117-.045c.017-.04.026-.1.054-.113S233.567,265.444,233.607,265.461Z" transform="translate(-180.922 -117.733)"/><path class="c" d="M244.373,256.576c.017-.04.026-.1.055-.113a.119.119,0,0,1,.11.048c.011.03-.028.077-.046.117Z" transform="translate(-190.308 -110.05)"/><path class="c" d="M287.627,192.563c-.04.016-.09.053-.118.041a.085.085,0,0,1,.068-.156C287.6,192.46,287.611,192.522,287.627,192.563Z" transform="translate(-227.284 -55.117)"/><path class="c" d="M443.61,149.438c-.017.04-.026.1-.055.113a.085.085,0,0,1-.062-.159C443.522,149.38,443.57,149.42,443.61,149.438Z" transform="translate(-361.134 -18.171)"/></g></svg>