<svg xmlns="http://www.w3.org/2000/svg" width="39.843" height="33.29" viewBox="0 0 39.843 33.29"><defs><style>.a{fill:#c3c3c3;}</style></defs><path class="a" d="M190.592,589.025q8.772,0,17.543,0c1.711,0,2.38.935,2.226,2.636a16.632,16.632,0,0,1-.934,4.621,24.909,24.909,0,0,1-4.3,7.686c-2.026,2.3-3.9,4.726-6.026,6.94-1.261,1.311-2.89,2.06-4.235,3.235a33.608,33.608,0,0,1-8.92,5.186,30.773,30.773,0,0,1-8.883,2.876,40.837,40.837,0,0,1-5.063.06c-.636-.011-.98-.541-1.24-1.063a3.238,3.238,0,0,1-.221-1.487q.008-14.146,0-28.292a2.136,2.136,0,0,1,2.4-2.4Q181.77,589.022,190.592,589.025Zm.148,2.215H174.921c-1.436,0-1.553.116-1.554,1.565q0,12.777,0,25.554a4.092,4.092,0,0,0,.083,1c.094.366.294.71.755.694a17.186,17.186,0,0,0,3.03-.093,38.719,38.719,0,0,0,5.925-1.841c2.1-.813,4.082-1.814,6.084-2.812,2.374-1.184,4.265-3.039,6.452-4.478,2.231-1.468,3.831-3.578,5.527-5.574,1.045-1.229,2.156-2.43,3.067-3.743a29.945,29.945,0,0,0,3.66-7.571c.624-1.849.089-2.7-1.8-2.7Q198.447,591.242,190.74,591.239Z" transform="translate(-170.539 -589.023)"/></svg>