<svg xmlns="http://www.w3.org/2000/svg" width="64.172" height="39.33" viewBox="0 0 64.172 39.33"><defs><style>.a{fill:#c4c9ce;}</style></defs><path class="a" d="M199.491,374.849q-14.326,0-28.651,0a3.615,3.615,0,0,1-3.33-1.523c-.607-.922-.437-1.44.672-1.674,1.162-.245,2.358-.328,3.528-.546,1.771-.33,3.069-.676,2.865-3.148-.12-1.456-.012-2.93-.022-4.4a4.249,4.249,0,0,0-4.227-4.187c-.533,0-1.066,0-1.6.011a1.819,1.819,0,0,1-1.843-1.436c-.239-.827.556-1.254,1.118-1.636a4.974,4.974,0,0,1,1.385-.425,1.079,1.079,0,0,0,.878-1.032c.028-.628-.449-.845-.92-.976-.592-.165-1.236-.162-1.809-.367-1.561-.558-1.948-1.678-1-3.009a2.75,2.75,0,0,0,.428-2.773c-.709-2.263-1-4.606,1.237-6.444a5.443,5.443,0,0,1,2.81-1.044c1.077-.165,1.478-.657,1.4-1.674-.016-.221-.008-.444-.01-.666-.016-2.185.944-2.845,3.025-2.054a3.941,3.941,0,0,1,2.525,1.96c.487,1.068,1.631,1.1,2.615,1.293a3.389,3.389,0,0,1,3.024,3.547,2.99,2.99,0,0,0,1.155,2.551c.263.219.689.339.719.742.184,2.5,1.373,4.97.173,7.5a2.345,2.345,0,0,1-1.158,1.228,1.767,1.767,0,0,0-1.036,2.29c.438,1.884-.1,2.988-1.908,3.671a2.967,2.967,0,0,0-2.225,3.309c.105,1.458,0,2.931.033,4.4a2.016,2.016,0,0,0,2.232,2.235c8.839.015,17.68.089,26.518-.043,2.765-.041,3.083-.724,3.016-3.111a18.355,18.355,0,0,1,.127-2.912,3.542,3.542,0,0,0-1.823-3.8c-1.685-.872-2.3-2.346-2.808-3.956a3.265,3.265,0,0,0-2.161-2.32,3.5,3.5,0,0,1-1.649-1.293c-.563-.767.243-1.274.437-1.91a3.741,3.741,0,0,0-1.422-4.136,1.8,1.8,0,0,1-.769-2.169,1.664,1.664,0,0,1,1.967-1,1.811,1.811,0,0,0,1.945-1.087,5.138,5.138,0,0,1,4.941-2.952,7.34,7.34,0,0,0,2.8-.762,1.91,1.91,0,0,1,2.511.365c.753.884,1.991.589,2.975.944,1.205.435,2.2,1.027,2.232,2.531.026,1.3,1,1.218,1.918,1.234,1.76.03,2.579,1.4,1.716,2.883a4.791,4.791,0,0,0-.5,1.63c-.257,1.405-.483,2.722.556,4.015.73.909-.072,1.974-1.427,2.137-.485.058-1.17-.309-1.4.38-.182.54.233,1,.56,1.425a2.591,2.591,0,0,1,.485,2.836c-.471,1-1.394.944-2.293.942-2.942,0-4.183,1.256-4.156,4.276.012,1.313-.363,2.59-.049,3.948s.626,1.866,2.02,1.9a30.015,30.015,0,0,0,3.2-.007,11.44,11.44,0,0,1,6.3,1.21,14.955,14.955,0,0,0,1.605.634c.695.261,1.378.6,1.231,1.474s-.846.975-1.632.973Q214.016,374.836,199.491,374.849Z" transform="translate(-166.021 -335.532)"/></svg>