<svg xmlns="http://www.w3.org/2000/svg" width="48.418" height="42.536" viewBox="0 0 48.418 42.536"><defs><style>.a{fill:#c4c9ce;}</style></defs><path class="a" d="M146.467,88.212c0-2.47,0-4.941,0-7.411,0-.988.1-1.931,1.163-2.374.4-.165.336-.621.655-.821a3.271,3.271,0,0,1,1.927-.6c1.179.042,1.725-.462,1.77-1.631.056-1.447.04-2.9,0-4.347-.021-.844-.6-1.3-1.281-1.727a4.95,4.95,0,0,0-2.928-.573c-.436.011-.973.134-1.1-.529s.34-.828.834-.988c.437-.141.858-.329,1.29-.486.239-.087.419-.233.4-.5a.485.485,0,0,0-.554-.448,5.077,5.077,0,0,1-1.653-.222c-.971-.294-1.182-1.033-.489-1.727a.873.873,0,0,0,.289-.967,8.3,8.3,0,0,0-.27-.944c-.865-1.866.55-3.473,2.631-3.663.863-.079,1.4-.346,1.263-1.319-.107-.781.293-1.052,1.021-1.081a2.648,2.648,0,0,1,2.688,1.022,1.375,1.375,0,0,0,1.373.587,2.375,2.375,0,0,1,2.32,1.206c.511,1,.358,2.342,1.657,2.9-.1.932.392,1.766.446,2.669.066,1.112-.812,1.584-1.554,2.092a1.111,1.111,0,0,0-.557,1.321,1.348,1.348,0,0,1-1.039,1.773c-1.6.522-1.6.522-1.6,2.18q0,1.927,0,3.854c0,1.318.366,1.921,1.677,1.9a9.613,9.613,0,0,1,5,1.747c1.7.983,3.456,1.838,5.188,2.747a6.6,6.6,0,0,1,2.055,1.789,3.491,3.491,0,0,0,1.851,1.532c.659.153.994-.065,1.01-.665.04-1.448.049-2.9-.008-4.346-.03-.737-.567-1.127-1.256-1.35A2.549,2.549,0,0,1,168.9,77a2.359,2.359,0,0,0-1.913-1.748c-1.031-.268-1.138-.573-.565-1.491.424-.681.2-1.453-.7-2.2a2.445,2.445,0,0,1-.588-.638c-.376-.632-.127-1.23.608-1.2a2.545,2.545,0,0,0,2.347-1.274,3.532,3.532,0,0,1,2.737-1.09,5.717,5.717,0,0,0,2-.362c.748-.347,4.572.578,4.924,1.29.563,1.136,1.122,1.805,2.533,1.577.522-.084.807.567.584,1.193-.142.4-.3.795-.437,1.194a1.837,1.837,0,0,0,.232,2.057c.46.542.086,1.29-.722,1.465-.766.165-.945.341-.472,1.067.66,1.014.37,1.614-.835,1.878a8.975,8.975,0,0,1-1.471.083,1.987,1.987,0,0,0-2.025,2.068c-.01,1.317,0,2.635,0,3.953,0,1.732.281,2.192,1.96,2.229a14.7,14.7,0,0,1,3.545.7,3.281,3.281,0,0,1,2.118,1.662,2.909,2.909,0,0,0,2.8,1.6c1.638.076,3.281.15,4.916.263a3.455,3.455,0,0,1,3.289,2.359,15.247,15.247,0,0,1,.686,1.838,2.259,2.259,0,0,1-2.1,2.755,31.341,31.341,0,0,1-5.364.068,37.958,37.958,0,0,1-5.369-.064c-.846-.144-1.793.278-2.629.113-1.764-.349-3.518,0-5.273-.069-2.428-.1-4.887.1-7.334.1-5.5,0-11,0-16.5.008a5.115,5.115,0,0,1-2.295-.473,2.13,2.13,0,0,1-1.117-2.094C146.479,93.284,146.467,90.748,146.467,88.212Zm24.08,7.574q9.39,0,18.781.008c.619,0,1.244-.129,1.3-.76.057-.647-.513-1.019-1.151-1.149a4.359,4.359,0,0,0-.492-.029,38.634,38.634,0,0,1-5.472-.608,5.159,5.159,0,0,1-3.616-2.153,2.854,2.854,0,0,0-2.747-1.551,13.661,13.661,0,0,1-4.55-.723c-.6-.174-1.148-.5-1.745-.667a8.848,8.848,0,0,1-4.888-3.292,3.434,3.434,0,0,0-1.329-1.135,21.175,21.175,0,0,1-3.567-1.853c-2.908-2.082-6.19-2.358-9.578-2.229-1.173.044-1.448.415-1.447,1.625q0,6.277,0,12.554c0,1.708.257,1.962,2.014,1.962Z" transform="translate(-146.089 -55.852)"/></svg>